<svg viewBox="0 0 24 24" xmlns="http://www.w3.org/2000/svg">
<path fill-rule="evenodd" clip-rule="evenodd" d="M15.9253 4.41833C13.3322 3.9836 10.6701 3.9836 8.07695 4.41833C7.58896 4.50014 7.20136 4.87507 7.10409 5.35801C6.21901 9.75199 6.17072 14.2735 6.96174 18.6854L7.12529 19.5976L10.7958 16.1106C11.4713 15.4689 12.531 15.4689 13.2064 16.1106L16.877 19.5976L17.0405 18.6854C17.8315 14.2735 17.7833 9.75199 16.8982 5.35801C16.8009 4.87507 16.4133 4.50014 15.9253 4.41833ZM7.82895 2.93898C10.5863 2.47672 13.416 2.47672 16.1733 2.93898C17.2725 3.12326 18.1481 3.96707 18.3686 5.06181C19.291 9.64072 19.3413 14.3525 18.517 18.9501L18.2955 20.1854C18.1096 21.2223 16.8456 21.6367 16.0819 20.9112L12.1733 17.1981C12.0768 17.1064 11.9254 17.1064 11.8289 17.1981L7.92041 20.9112C7.15671 21.6367 5.89267 21.2223 5.70677 20.1854L5.48529 18.9501C4.66097 14.3525 4.71129 9.64073 5.63362 5.06181C5.85413 3.96707 6.72973 3.12326 7.82895 2.93898Z"/>
</svg>
