<svg viewBox="0 0 24 24" xmlns="http://www.w3.org/2000/svg">
<path fill-rule="evenodd" clip-rule="evenodd" d="M11.6023 18.6359C11.7302 18.7127 11.8671 18.7467 12 18.745C12.1329 18.7467 12.2698 18.7127 12.3977 18.6359L13.533 17.9548C15.7595 16.6189 18.4825 16.4007 20.8933 17.365C21.7826 17.7207 22.75 17.0658 22.75 16.1079V4.44906C22.75 3.87111 22.3981 3.35139 21.8615 3.13674C18.7564 1.89471 15.2492 2.17573 12.3815 3.89635L12 4.12527L11.6185 3.89635C8.75077 2.17573 5.24357 1.89471 2.13848 3.13674C1.60187 3.35139 1.25 3.87111 1.25 4.44906V16.1079C1.25 17.0658 2.21739 17.7207 3.10672 17.365C5.51752 16.4007 8.24052 16.6189 10.467 17.9548L11.6023 18.6359ZM2.75 4.50788V15.8947C5.54579 14.8466 8.67179 15.1283 11.2388 16.6685L11.25 16.6753V5.42455L10.8467 5.18259C8.39774 3.7132 5.40634 3.46486 2.75 4.50788ZM12.7612 16.6685L12.75 16.6753V5.42455L13.1533 5.18259C15.6023 3.7132 18.5937 3.46486 21.25 4.50788V15.8947C18.4542 14.8466 15.3282 15.1283 12.7612 16.6685Z"/>
<path d="M9.27516 19.0421C7.2513 17.8616 4.7487 17.8616 2.72484 19.0421L2.6221 19.1021C2.26431 19.3108 2.14346 19.77 2.35217 20.1278C2.56088 20.4856 3.02011 20.6065 3.3779 20.3977L3.48065 20.3378C5.03746 19.4297 6.96254 19.4297 8.51935 20.3378L9.60661 20.972C11.0856 21.8348 12.9144 21.8348 14.3934 20.972L15.4806 20.3378C17.0375 19.4297 18.9625 19.4297 20.5194 20.3378L20.6221 20.3977C20.9799 20.6065 21.4391 20.4856 21.6478 20.1278C21.8565 19.77 21.7357 19.3108 21.3779 19.1021L21.2752 19.0421C19.2513 17.8616 16.7487 17.8616 14.7248 19.0421L13.6376 19.6764C12.6257 20.2667 11.3743 20.2667 10.3624 19.6764L9.27516 19.0421Z"/>
</svg>
