<svg viewBox="0 0 24 24" xmlns="http://www.w3.org/2000/svg">
<path d="M7.4831 5.25954C6.33867 5.38744 5.42262 6.29069 5.29021 7.4228C4.93451 10.4639 4.93451 13.5362 5.29021 16.5773C5.42262 17.7094 6.33867 18.6127 7.4831 18.7406C10.4599 19.0733 13.5396 19.0733 16.5164 18.7406C17.6608 18.6127 18.5769 17.7094 18.7093 16.5773C18.9648 14.3922 19.0368 12.191 18.9251 9.9968C18.9222 9.94014 18.9434 9.88487 18.9835 9.84475L20.0223 8.80597C20.1425 8.68574 20.3479 8.76092 20.3607 8.93048C20.5567 11.5354 20.5029 14.1544 20.1991 16.7516C19.9843 18.5885 18.5094 20.0272 16.683 20.2313C13.5954 20.5764 10.404 20.5764 7.31649 20.2313C5.49011 20.0272 4.01521 18.5885 3.80036 16.7516C3.43113 13.5947 3.43113 10.4055 3.80036 7.24855C4.01521 5.41159 5.49011 3.97294 7.31649 3.76882C10.404 3.42374 13.5954 3.42374 16.683 3.76882C17.3262 3.84071 17.9259 4.06574 18.4423 4.40738C18.5439 4.4746 18.5539 4.61744 18.4678 4.70359L17.6649 5.50647C17.5992 5.57215 17.4974 5.58319 17.4155 5.53933C17.1421 5.39283 16.8383 5.29551 16.5164 5.25954C13.5396 4.92683 10.4599 4.92683 7.4831 5.25954Z"/>
<path d="M21.0301 6.0304C21.3229 5.73751 21.3229 5.26263 21.0301 4.96974C20.7372 4.67685 20.2623 4.67685 19.9694 4.96974L11.4997 13.4394L9.03006 10.9697C8.73716 10.6768 8.26229 10.6768 7.9694 10.9697C7.6765 11.2626 7.6765 11.7375 7.9694 12.0304L10.9694 15.0304C11.2623 15.3233 11.7372 15.3233 12.0301 15.0304L21.0301 6.0304Z"/>
</svg>
