<svg viewBox="0 0 24 24" xmlns="http://www.w3.org/2000/svg">
<path d="M13.0013 9.00005C13.0013 9.55233 12.5536 10 12.0013 10C11.449 10 11.0013 9.55233 11.0013 9.00005C11.0013 8.44776 11.449 8.00005 12.0013 8.00005C12.5536 8.00005 13.0013 8.44776 13.0013 9.00005Z"/>
<path d="M12.0013 11.75C12.4155 11.75 12.7513 12.0858 12.7513 12.5V17.5C12.7513 17.9143 12.4155 18.25 12.0013 18.25C11.5871 18.25 11.2513 17.9143 11.2513 17.5V12.5C11.2513 12.0858 11.5871 11.75 12.0013 11.75Z"/>
<path fill-rule="evenodd" clip-rule="evenodd" d="M14.2716 3.99268C13.1797 2.39502 10.8229 2.39501 9.73089 3.99268L9.29897 4.62463C6.59293 8.58384 4.26797 12.7905 2.35524 17.1881L2.26502 17.3956C1.59097 18.9453 2.60933 20.705 4.28888 20.8927C9.41451 21.4656 14.588 21.4656 19.7136 20.8927C21.3932 20.705 22.4116 18.9453 21.7375 17.3956L21.6473 17.1881C19.7346 12.7905 17.4096 8.58385 14.7036 4.62463L14.2716 3.99268ZM10.9693 4.83909C11.4656 4.11288 12.5369 4.11288 13.0332 4.83909L13.4652 5.47104C16.1178 9.35206 18.3968 13.4756 20.2718 17.7864L20.362 17.9938C20.6334 18.6179 20.2233 19.3264 19.547 19.402C14.5321 19.9625 9.47039 19.9625 4.45549 19.402C3.77919 19.3264 3.36913 18.6179 3.64055 17.9938L3.73076 17.7864C5.60572 13.4756 7.88476 9.35205 10.5374 5.47104L10.9693 4.83909Z"/>
</svg>
