<svg   viewBox="0 0 24 24" fill="none" xmlns="http://www.w3.org/2000/svg">
<path fill-rule="evenodd" clip-rule="evenodd" d="M9.93815 2.51227C11.4975 2.33478 13.072 2.33478 14.6314 2.51227L16.2267 2.69385C16.4552 2.71986 16.6592 2.84927 16.78 3.04493C16.9009 3.2406 16.9253 3.4809 16.8462 3.69686L14.6437 9.71343H16.9991C17.2451 9.71343 17.4755 9.8341 17.6156 10.0364C17.7557 10.2386 17.7877 10.4967 17.7012 10.7271L17.5108 11.2343C16.1895 14.7533 14.3216 18.0419 11.9758 20.9789L11.5851 21.4681C11.3862 21.717 11.0518 21.8132 10.7511 21.7078C10.4504 21.6025 10.2491 21.3186 10.2491 21V13.8476H8.42764C8.03912 13.8476 7.71492 13.5509 7.68058 13.1639L7.55795 11.7821C7.35047 9.44416 7.35047 7.09245 7.55795 4.75452L7.68058 3.37274C7.71207 3.01788 7.98885 2.73414 8.34282 2.69385L9.93815 2.51227ZM14.4618 4.00265C13.0151 3.83799 11.5544 3.83799 10.1078 4.00265L9.1206 4.11501L9.05208 4.88711C8.85243 7.13682 8.85243 9.39979 9.05208 11.6495L9.11403 12.3476H10.9991C11.4133 12.3476 11.7491 12.6834 11.7491 13.0976V18.8023C13.4512 16.46 14.8502 13.9102 15.9118 11.2134H13.5705C13.3256 11.2134 13.096 11.0938 12.9557 10.893C12.8154 10.6923 12.782 10.4356 12.8662 10.2056L15.1099 4.07642L14.4618 4.00265Z" fill="black"/>
</svg>
