<svg viewBox="0 0 24 24" xmlns="http://www.w3.org/2000/svg">
<path fill-rule="evenodd" clip-rule="evenodd" d="M5.62701 9.63137L5.30777 6.75828C5.26733 6.3943 5.26733 6.02696 5.30777 5.66298L5.33054 5.45809C5.57203 3.2847 7.28063 1.56504 9.45242 1.30953C9.81724 1.26661 10.1858 1.26661 10.5507 1.30953C12.7225 1.56504 14.4311 3.2847 14.6725 5.45809L14.6953 5.66298C14.7357 6.02696 14.7357 6.3943 14.6953 6.75828L14.4143 9.28695C14.3945 9.46564 14.2576 9.60795 14.0815 9.64423C13.0859 9.84938 12.1675 10.2659 11.3753 10.8449C11.3012 10.8991 11.2114 10.9282 11.1196 10.9257C9.55312 10.8829 7.98476 10.9301 6.42232 11.0673L5.28787 11.1669C4.76314 11.213 4.33845 11.6129 4.26089 12.1339C3.92866 14.3657 3.92866 16.6345 4.26089 18.8663C4.33845 19.3873 4.76313 19.7872 5.28787 19.8333L6.42232 19.9329C7.36837 20.016 8.3166 20.0661 9.26527 20.0831C9.4042 20.0856 9.53156 20.1597 9.60663 20.2766C9.82538 20.6174 10.0729 20.9379 10.3457 21.2348C10.4669 21.3668 10.3786 21.5885 10.1993 21.5893C8.89541 21.5954 7.59128 21.5413 6.2911 21.4272L5.15665 21.3275C3.94089 21.2208 2.95693 20.2943 2.77724 19.0872C2.42321 16.7089 2.42321 14.2913 2.77724 11.913C2.95693 10.7059 3.94089 9.77943 5.15665 9.67267L5.62701 9.63137ZM9.62768 2.79926C9.87606 2.77004 10.127 2.77004 10.3754 2.79926C11.854 2.97322 13.0173 4.14402 13.1817 5.62373L13.2045 5.82863C13.2327 6.08252 13.2327 6.33874 13.2045 6.59263L12.8805 9.50827C10.9634 9.37784 9.03966 9.37784 7.12256 9.50827L6.7986 6.59263C6.77039 6.33875 6.77039 6.08252 6.7986 5.82863L6.82137 5.62373C6.98578 4.14402 8.14905 2.97322 9.62768 2.79926Z"/>
<path d="M16.2515 15.0001C16.2515 14.5859 15.9158 14.2501 15.5015 14.2501C15.0873 14.2501 14.7515 14.5859 14.7515 15.0001V16.7728C14.7515 17.0128 14.8664 17.2382 15.0604 17.3794L16.0604 18.1067C16.3954 18.3503 16.8645 18.2762 17.1081 17.9412C17.3517 17.6062 17.2777 17.1372 16.9427 16.8936L16.2515 16.3909V15.0001Z"/>
<path fill-rule="evenodd" clip-rule="evenodd" d="M15.5015 22.0001C18.5391 22.0001 21.0015 19.5377 21.0015 16.5001C21.0015 13.4625 18.5391 11.0001 15.5015 11.0001C12.464 11.0001 10.0015 13.4625 10.0015 16.5001C10.0015 19.5377 12.464 22.0001 15.5015 22.0001ZM15.5015 20.5001C17.7107 20.5001 19.5015 18.7092 19.5015 16.5001C19.5015 14.291 17.7107 12.5001 15.5015 12.5001C13.2924 12.5001 11.5015 14.291 11.5015 16.5001C11.5015 18.7092 13.2924 20.5001 15.5015 20.5001Z"/>
</svg>
