<svg   viewBox="0 0 24 24" fill="none" xmlns="http://www.w3.org/2000/svg">
<path d="M10.5013 16.0001C10.5013 15.1717 11.1729 14.5001 12.0013 14.5001C12.8297 14.5001 13.5013 15.1717 13.5013 16.0001C13.5013 16.8285 12.8297 17.5001 12.0013 17.5001C11.1729 17.5001 10.5013 16.8285 10.5013 16.0001Z" fill="black"/>
<path fill-rule="evenodd" clip-rule="evenodd" d="M7.62293 10.5973L7.30749 7.75828C7.26705 7.3943 7.26705 7.02696 7.30749 6.66298L7.33026 6.45809C7.57175 4.2847 9.28035 2.56504 11.4521 2.30953C11.817 2.26661 12.1856 2.26661 12.5504 2.30953C14.7222 2.56504 16.4308 4.2847 16.6723 6.45809L16.695 6.66298C16.7355 7.02696 16.7355 7.3943 16.695 7.75828L16.3796 10.5972L17.0662 10.6521C18.1489 10.7385 19.033 11.5524 19.2085 12.6243C19.5746 14.8599 19.5746 17.1403 19.2085 19.3759C19.033 20.4478 18.1489 21.2617 17.0662 21.3482L15.5701 21.4676C13.1947 21.6572 10.8079 21.6572 8.43256 21.4676L6.93643 21.3482C5.85371 21.2617 4.9696 20.4478 4.79409 19.3759C4.42801 17.1403 4.42801 14.8599 4.79409 12.6243C4.9696 11.5524 5.85371 10.7385 6.93643 10.6521L7.62293 10.5973ZM11.6274 3.79926C11.8758 3.77004 12.1267 3.77004 12.3751 3.79926C13.8537 3.97322 15.017 5.14402 15.1814 6.62373L15.2042 6.82863C15.2324 7.08252 15.2324 7.33874 15.2042 7.59263L14.883 10.4831C12.9638 10.3595 11.0387 10.3595 9.11948 10.4831L8.79832 7.59263C8.77011 7.33875 8.77011 7.08252 8.79832 6.82863L8.82108 6.62373C8.9855 5.14402 10.1488 3.97322 11.6274 3.79926ZM15.4507 12.0279C13.1548 11.8446 10.8479 11.8446 8.55193 12.0279L7.0558 12.1473C6.66087 12.1788 6.33839 12.4757 6.27437 12.8667C5.93458 14.9418 5.93458 17.0584 6.27437 19.1335C6.33839 19.5245 6.66087 19.8214 7.0558 19.8529L8.55193 19.9723C10.8479 20.1556 13.1548 20.1556 15.4507 19.9723L16.9468 19.8529C17.3417 19.8214 17.6642 19.5245 17.7282 19.1335C18.068 17.0584 18.068 14.9418 17.7282 12.8667C17.6642 12.4757 17.3417 12.1788 16.9468 12.1473L15.4507 12.0279Z" fill="black"/>
</svg>
