<svg   viewBox="0 0 24 24" fill="none" xmlns="http://www.w3.org/2000/svg">
<path fill-rule="evenodd" clip-rule="evenodd" d="M13.0012 3C13.0012 2.44772 12.5534 2 12.0012 2C11.4489 2 11.0012 2.44772 11.0012 3V3.75H10.4437C8.21867 3.75 6.37707 5.48001 6.23818 7.70074L6.01717 11.2342C5.93291 12.5814 5.48062 13.8797 4.70956 14.9876C4.01288 15.9886 4.6331 17.3712 5.84403 17.5165L9.25116 17.9254V19C9.25116 20.5188 10.4824 21.75 12.0012 21.75C13.5199 21.75 14.7512 20.5188 14.7512 19V17.9254L18.1583 17.5165C19.3692 17.3712 19.9894 15.9886 19.2927 14.9876C18.5217 13.8797 18.0694 12.5814 17.9851 11.2342L17.7641 7.70074C17.6252 5.48001 15.7836 3.75 13.5586 3.75H13.0012V3ZM10.4437 5.25C9.01074 5.25 7.8247 6.36417 7.73525 7.79438L7.51425 11.3278C7.41285 12.949 6.8686 14.5112 5.94075 15.8444C5.8904 15.9168 5.93522 16.0167 6.02275 16.0272L9.76041 16.4757C11.2489 16.6543 12.7534 16.6543 14.2419 16.4757L17.9796 16.0272C18.0671 16.0167 18.1119 15.9168 18.0616 15.8444C17.1337 14.5112 16.5895 12.949 16.4881 11.3278L16.2671 7.79438C16.1776 6.36417 14.9916 5.25 13.5586 5.25H10.4437ZM12.0012 20.25C11.3108 20.25 10.7512 19.6904 10.7512 19V18.25H13.2512V19C13.2512 19.6904 12.6915 20.25 12.0012 20.25Z" fill="black"/>
</svg>
