<svg viewBox="0 0 24 24" xmlns="http://www.w3.org/2000/svg">
<path d="M11.4713 8.53039C11.612 8.67104 11.8027 8.75006 12.0016 8.75006C12.2006 8.75006 12.3913 8.67104 12.532 8.53039L13.532 7.53039C13.7465 7.31589 13.8106 6.9933 13.6946 6.71305C13.5785 6.43279 13.305 6.25006 13.0016 6.25006H11.0016C10.6983 6.25006 10.4248 6.43279 10.3087 6.71305C10.1927 6.9933 10.2568 7.31589 10.4713 7.53039L11.4713 8.53039Z"/>
<path d="M11.4713 15.4697C11.612 15.3291 11.8027 15.2501 12.0016 15.2501C12.2006 15.2501 12.3913 15.3291 12.532 15.4697L13.532 16.4697C13.7465 16.6842 13.8106 17.0068 13.6946 17.2871C13.5785 17.5673 13.305 17.7501 13.0016 17.7501H11.0016C10.6983 17.7501 10.4248 17.5673 10.3087 17.2871C10.1927 17.0068 10.2568 16.6842 10.4713 16.4697L11.4713 15.4697Z"/>
<path fill-rule="evenodd" clip-rule="evenodd" d="M13.1507 12.0001L13.338 11.8387C15.3134 10.1367 16.9558 8.08285 18.1819 5.78153C18.663 4.87846 18.0657 3.77738 17.0463 3.68826L15.8728 3.58565C13.2969 3.36045 10.7064 3.36045 8.13055 3.58565L6.95701 3.68826C5.93766 3.77738 5.34036 4.87846 5.82147 5.78154C7.04748 8.08285 8.68991 10.1367 10.6653 11.8387L10.8526 12.0001L10.6653 12.1614C8.68991 13.8634 7.04748 15.9173 5.82147 18.2186C5.34036 19.1217 5.93766 20.2227 6.95701 20.3119L8.13055 20.4145C10.7064 20.6397 13.2969 20.6397 15.8728 20.4145L17.0463 20.3119C18.0657 20.2227 18.663 19.1217 18.1819 18.2186C16.9558 15.9173 15.3134 13.8634 13.338 12.1614L13.1507 12.0001ZM12.0053 11.0063C12.0058 11.0062 12.0066 11.0058 12.0081 11.0045L12.3589 10.7023C14.166 9.14531 15.6731 7.27135 16.8061 5.17298L15.7421 5.07995C13.2532 4.86235 10.7501 4.86235 8.2612 5.07996L7.1972 5.17298C8.33024 7.27135 9.83733 9.14531 11.6444 10.7023L11.9952 11.0045C11.9962 11.0053 11.9969 11.0058 11.9974 11.006C11.9972 11.006 11.9976 11.0062 11.9974 11.006C11.9981 11.0063 12 11.0069 12.0017 11.0069C12.0033 11.0069 12.0045 11.0066 12.0053 11.0063ZM12.0081 12.9956C12.0066 12.9943 12.0058 12.994 12.0053 12.9938C12.0049 12.9937 12.0045 12.9935 12.0039 12.9934C12.0033 12.9933 12.0025 12.9932 12.0017 12.9932C12 12.9932 11.9988 12.9935 11.998 12.9938C11.9976 12.994 11.9967 12.9943 11.9952 12.9956L11.6444 13.2978C9.83733 14.8548 8.33024 16.7288 7.1972 18.8271L8.2612 18.9202C10.7501 19.1378 13.2532 19.1378 15.7421 18.9202L16.8061 18.8271C15.6731 16.7288 14.166 14.8548 12.3589 13.2978L12.0081 12.9956Z"/>
</svg>
