<svg viewBox="0 0 24 24" xmlns="http://www.w3.org/2000/svg">
<path fill-rule="evenodd" clip-rule="evenodd" d="M12.6448 5.26387C12.2481 5.025 11.7519 5.025 11.3552 5.26387L10.8389 5.57476C9.45765 6.40647 7.90703 6.91683 6.30183 7.06806L5.97655 7.09871C5.84813 7.11081 5.75 7.21862 5.75 7.34761V8.9915C5.75 11.499 6.76803 13.8991 8.57088 15.642L11.8262 18.789C11.9231 18.8827 12.0769 18.8827 12.1738 18.789L15.4291 15.642C17.232 13.8991 18.25 11.499 18.25 8.9915V7.34761C18.25 7.21862 18.1519 7.11081 18.0235 7.09871L17.6982 7.06806C16.093 6.91683 14.5423 6.40647 13.1611 5.57476L12.6448 5.26387ZM10.5814 3.97885C11.4541 3.45334 12.5459 3.45334 13.4186 3.97885L13.9349 4.28974C15.1234 5.0054 16.4576 5.44455 17.8389 5.57468L18.1641 5.60532C19.0631 5.69002 19.75 6.4447 19.75 7.34761V8.9915C19.75 11.9057 18.5669 14.695 16.4717 16.7204L13.2163 19.8674C12.538 20.5232 11.462 20.5232 10.7837 19.8674L7.52832 16.7204C5.43311 14.695 4.25 11.9057 4.25 8.9915V7.34761C4.25 6.4447 4.93693 5.69002 5.83585 5.60532L6.16113 5.57468C7.54235 5.44455 8.87661 5.0054 10.0651 4.28974L10.5814 3.97885Z"/>
</svg>
