<svg   viewBox="0 0 24 24" fill="none" xmlns="http://www.w3.org/2000/svg">
<path fill-rule="evenodd" clip-rule="evenodd" d="M10.4178 4.23047C11.0589 3.12556 12.749 3.5804 12.749 4.85783V16.5385C12.749 17.5593 12.1835 18.4962 11.2802 18.9718L8.00456 20.6965C6.70755 21.3795 5.19593 20.2607 5.47012 18.8207L6.1701 15.1447C6.25531 14.6973 6.09039 14.2389 5.73964 13.9484L3.24074 11.878C2.07646 10.9134 2.60086 9.02588 4.09586 8.80008L7.5255 8.28207C7.90057 8.22542 8.22962 8.00153 8.41999 7.67345L10.4178 4.23047ZM11.249 5.78679L9.71739 8.42627C9.29857 9.14806 8.57466 9.64062 7.74952 9.76525L4.31987 10.2833C4.1063 10.3155 4.03139 10.5852 4.19771 10.723L6.69662 12.7933C7.46825 13.4326 7.83107 14.441 7.64363 15.4253L6.94365 19.1013C6.90447 19.307 7.12042 19.4668 7.30571 19.3693L10.5814 17.6445C10.9919 17.4283 11.249 17.0025 11.249 16.5385V5.78679Z" fill="black"/>
</svg>
