<svg   viewBox="0 0 24 24" fill="none" xmlns="http://www.w3.org/2000/svg">
<path fill-rule="evenodd" clip-rule="evenodd" d="M10.4853 4.11413C11.1598 2.95186 12.8382 2.95187 13.5126 4.11413L15.578 7.67349C15.7683 8.00158 16.0974 8.22547 16.4725 8.28212L19.9021 8.80012C21.3971 9.02592 21.9215 10.9135 20.7572 11.8781L18.2583 13.9484C17.9076 14.239 17.7426 14.6974 17.8278 15.1448L18.5278 18.8208C18.802 20.2607 17.2904 21.3795 15.9934 20.6966L12.5814 18.9C12.2168 18.7081 11.7811 18.7081 11.4166 18.9L8.00456 20.6966C6.70755 21.3795 5.19592 20.2607 5.47012 18.8208L6.1701 15.1448C6.25531 14.6974 6.09039 14.239 5.73964 13.9484L3.24074 11.8781C2.07646 10.9135 2.60086 9.02592 4.09586 8.80012L7.5255 8.28212C7.90057 8.22547 8.22962 8.00158 8.41999 7.67349L10.4853 4.11413ZM12.2152 4.86696C12.1189 4.70092 11.8791 4.70092 11.7827 4.86696L9.71739 8.42632C9.29857 9.14811 8.57466 9.64067 7.74952 9.76529L4.31987 10.2833C4.1063 10.3156 4.03139 10.5852 4.19771 10.723L6.69662 12.7933C7.46825 13.4326 7.83107 14.441 7.64363 15.4254L6.94365 19.1014C6.90447 19.3071 7.12042 19.4669 7.30571 19.3693L10.7177 17.5727C11.5197 17.1505 12.4782 17.1505 13.2802 17.5727L16.6922 19.3693C16.8775 19.4669 17.0935 19.3071 17.0543 19.1014L16.3543 15.4254C16.1669 14.441 16.5297 13.4326 17.3013 12.7933L19.8002 10.723C19.9666 10.5852 19.8916 10.3156 19.6781 10.2833L16.2484 9.76529C15.4233 9.64067 14.6994 9.14811 14.2806 8.42632L12.2152 4.86696Z" fill="black"/>
</svg>
