<svg viewBox="0 0 24 24" xmlns="http://www.w3.org/2000/svg">
<path d="M15.9999 15.5C17.7847 15.5 19.2777 14.137 19.4639 12.3681C19.4896 12.1245 19.4896 11.8755 19.4639 11.6319C19.2777 9.86302 17.7847 8.5 15.9999 8.5C14.2151 8.5 12.7221 9.86302 12.5359 11.6319C12.5102 11.8755 12.5102 12.1245 12.5359 12.3681C12.7221 14.137 14.2151 15.5 15.9999 15.5Z"/>
<path fill-rule="evenodd" clip-rule="evenodd" d="M15.9256 18.75H8.07422C4.75272 18.75 1.92485 16.3336 1.40682 13.0527C1.29669 12.3552 1.29669 11.6448 1.40682 10.9473C1.92485 7.6664 4.75272 5.25 8.07422 5.25H15.9256C19.2471 5.25 22.0749 7.6664 22.593 10.9473C22.7031 11.6448 22.7031 12.3552 22.593 13.0527C22.0749 16.3336 19.2471 18.75 15.9256 18.75ZM15.9256 17.25C18.5089 17.25 20.7084 15.3706 21.1113 12.8188C21.197 12.2763 21.197 11.7237 21.1113 11.1812C20.7084 8.62942 18.5089 6.75 15.9256 6.75L8.07422 6.75C5.49083 6.75 3.29138 8.62942 2.88846 11.1812C2.8028 11.7237 2.8028 12.2763 2.88846 12.8188C3.29137 15.3706 5.49083 17.25 8.07422 17.25H15.9256Z"/>
</svg>
