<svg viewBox="0 0 24 24" xmlns="http://www.w3.org/2000/svg">
<path d="M10.5013 16.0001C10.5013 15.1717 11.1729 14.5001 12.0013 14.5001C12.8297 14.5001 13.5013 15.1717 13.5013 16.0001C13.5013 16.8285 12.8297 17.5001 12.0013 17.5001C11.1729 17.5001 10.5013 16.8285 10.5013 16.0001Z"/>
<path fill-rule="evenodd" clip-rule="evenodd" d="M9.8118 4.00509C10.0442 3.91258 10.2866 3.84763 10.534 3.81157C12.0073 3.5969 13.434 4.42673 13.9758 5.81347L14.0508 6.00549C14.1437 6.24343 14.2101 6.49092 14.2485 6.74346L14.4651 8.16577L15.948 7.93992L15.7314 6.51761C15.6763 6.15557 15.5812 5.80075 15.4479 5.45964L15.3729 5.26761C14.5771 3.23078 12.4817 2.01194 10.3178 2.32724C9.95426 2.38021 9.59823 2.47561 9.25694 2.61149C7.22529 3.42038 6.01998 5.52367 6.34924 7.6855L6.38028 7.88931C6.43542 8.25135 6.53049 8.60617 6.66376 8.94728L7.31791 10.6216L6.93643 10.6521C5.85371 10.7385 4.9696 11.5524 4.79409 12.6243C4.42801 14.86 4.42801 17.1403 4.79409 19.3759C4.9696 20.4478 5.85371 21.2617 6.93643 21.3482L8.43256 21.4676C10.8079 21.6572 13.1947 21.6572 15.5701 21.4676L17.0662 21.3482C18.1489 21.2617 19.033 20.4478 19.2085 19.3759C19.5746 17.1403 19.5746 14.86 19.2085 12.6243C19.033 11.5524 18.1489 10.7385 17.0662 10.6521L15.5701 10.5326C13.3439 10.3549 11.1078 10.3437 8.88047 10.4991L8.06092 8.40142C7.96796 8.16349 7.90164 7.91599 7.86318 7.66346L7.83214 7.45965C7.60797 5.9878 8.42858 4.55582 9.8118 4.00509ZM15.4507 12.0279C13.1548 11.8446 10.8479 11.8446 8.55193 12.0279L7.0558 12.1473C6.66087 12.1788 6.33839 12.4757 6.27437 12.8667C5.93458 14.9418 5.93458 17.0584 6.27437 19.1335C6.33839 19.5245 6.66087 19.8214 7.0558 19.8529L8.55193 19.9724C10.8479 20.1556 13.1548 20.1556 15.4507 19.9724L16.9468 19.8529C17.3417 19.8214 17.6642 19.5245 17.7282 19.1335C18.068 17.0584 18.068 14.9418 17.7282 12.8667C17.6642 12.4757 17.3417 12.1788 16.9468 12.1473L15.4507 12.0279Z"/>
</svg>
