<svg viewBox="0 0 32 32" xmlns="http://www.w3.org/2000/svg">
<path d="M26 5H6C5.44772 5 5 5.44772 5 6V26C5 26.5523 5.44772 27 6 27H26C26.5523 27 27 26.5523 27 26V6C27 5.44772 26.5523 5 26 5Z" stroke-width="2" stroke-linecap="round" stroke-linejoin="round"/>
<path d="M11.7578 14.7573L16.0004 18.9999L20.2431 14.7573" stroke-width="2" stroke-linecap="round" stroke-linejoin="round"/>
<path d="M16 9V19" stroke-width="2" stroke-linecap="round" stroke-linejoin="round"/>
<path d="M5 20H9.58579C9.71711 20 9.84714 20.0259 9.96847 20.0761C10.0898 20.1264 10.2 20.2 10.2929 20.2929L12.7071 22.7071C12.8 22.8 12.9102 22.8736 13.0315 22.9239C13.1529 22.9741 13.2829 23 13.4142 23H18.5858C18.7171 23 18.8471 22.9741 18.9685 22.9239C19.0898 22.8736 19.2 22.8 19.2929 22.7071L21.7071 20.2929C21.8 20.2 21.9102 20.1264 22.0315 20.0761C22.1529 20.0259 22.2829 20 22.4142 20H27" stroke-width="2" stroke-linecap="round" stroke-linejoin="round"/>
</svg>
