<svg viewBox="0 0 32 32" xmlns="http://www.w3.org/2000/svg">
<path d="M9.00098 28H7C6.73478 28 6.48043 27.8946 6.29289 27.7071C6.10536 27.5196 6 27.2652 6 27V23" stroke-width="2" stroke-linecap="round" stroke-linejoin="round"/>
<path d="M15 4H19L26 11V17" stroke-width="2" stroke-linecap="round" stroke-linejoin="round"/>
<path d="M6 8V5C6 4.73478 6.10536 4.48043 6.29289 4.29289C6.48043 4.10536 6.73478 4 7 4H10.001" stroke-width="2" stroke-linecap="round" stroke-linejoin="round"/>
<path d="M19 4V11H26.001" stroke-width="2" stroke-linecap="round" stroke-linejoin="round"/>
<path d="M26 22V27C26 27.2652 25.8946 27.5196 25.7071 27.7071C25.5196 27.8946 25.2652 28 25 28H24" stroke-width="2" stroke-linecap="round" stroke-linejoin="round"/>
<path d="M6 13V18" stroke-width="2" stroke-linecap="round" stroke-linejoin="round"/>
<path d="M14 28H19" stroke-width="2" stroke-linecap="round" stroke-linejoin="round"/>
</svg>
