<svg viewBox="0 0 32 32" xmlns="http://www.w3.org/2000/svg">
<path d="M5 11.4142V26C5 26.2652 5.10536 26.5196 5.29289 26.7071C5.48043 26.8946 5.73478 27 6 27H26C26.2652 27 26.5196 26.8946 26.7071 26.7071C26.8946 26.5196 27 26.2652 27 26V6C27 5.73478 26.8946 5.48043 26.7071 5.29289C26.5196 5.10536 26.2652 5 26 5H11.4142C11.2829 5 11.1529 5.02587 11.0315 5.07612C10.9102 5.12638 10.8 5.20004 10.7071 5.29289L5.29289 10.7071C5.20004 10.8 5.12638 10.9102 5.07612 11.0315C5.02587 11.1529 5 11.2829 5 11.4142V11.4142Z" stroke-width="2" stroke-linecap="round" stroke-linejoin="round"/>
<path d="M16 22.0012C17.933 22.0012 19.5 20.4342 19.5 18.5012C19.5 16.5682 17.933 15.0012 16 15.0012C14.067 15.0012 12.5 16.5682 12.5 18.5012C12.5 20.4342 14.067 22.0012 16 22.0012Z" stroke-width="2" stroke-linecap="round" stroke-linejoin="round"/>
<path d="M12 10.0012H20V5.00122" stroke-width="2" stroke-linecap="round" stroke-linejoin="round"/>
</svg>
