<svg viewBox="0 0 32 32" xmlns="http://www.w3.org/2000/svg">
<path d="M13 18H19" stroke-width="2" stroke-linecap="round" stroke-linejoin="round"/>
<path d="M28 11V25.1111C28 25.3469 27.9063 25.573 27.7397 25.7397C27.573 25.9063 27.3469 26 27.1111 26H5C4.73478 26 4.48043 25.8946 4.29289 25.7071C4.10536 25.5196 4 25.2652 4 25V8C4 7.73478 4.10536 7.48043 4.29289 7.29289C4.48043 7.10536 4.73478 7 5 7H11.6667C11.883 7 12.0936 7.07018 12.2667 7.2L15.7333 9.8C15.9064 9.92982 16.117 10 16.3333 10H27C27.2652 10 27.5196 10.1054 27.7071 10.2929C27.8946 10.4804 28 10.7348 28 11Z" stroke-width="2" stroke-linecap="round" stroke-linejoin="round"/>
</svg>
