<svg viewBox="0 0 32 32" xmlns="http://www.w3.org/2000/svg">
<path d="M5.25781 6H26.7367C26.9304 6 27.12 6.05627 27.2824 6.16198C27.4447 6.26769 27.5728 6.41828 27.6512 6.59545C27.7296 6.77262 27.7548 6.96874 27.7238 7.15997C27.6928 7.35121 27.607 7.52932 27.4767 7.67267L19.2573 16.7139C19.09 16.898 18.9973 17.1378 18.9973 17.3866V24.4648C18.9973 24.6294 18.9566 24.7915 18.8789 24.9367C18.8013 25.0818 18.6889 25.2055 18.552 25.2969L14.552 27.9635C14.4014 28.0639 14.2263 28.1216 14.0455 28.1303C13.8648 28.1391 13.685 28.0986 13.5254 28.0132C13.3658 27.9278 13.2324 27.8006 13.1394 27.6454C13.0464 27.4901 12.9973 27.3125 12.9973 27.1315V17.3866C12.9973 17.1378 12.9045 16.898 12.7372 16.7139L4.51787 7.67267C4.38756 7.52932 4.30168 7.35121 4.27069 7.15997C4.2397 6.96874 4.26492 6.77262 4.3433 6.59545C4.42167 6.41828 4.54982 6.26769 4.71217 6.16198C4.87452 6.05627 5.06408 6 5.25781 6V6Z" stroke-width="2" stroke-linecap="round" stroke-linejoin="round"/>
</svg>
