<svg   viewBox="0 0 32 32" fill="none" xmlns="http://www.w3.org/2000/svg">
<path d="M12 16.0007H20" stroke="black" stroke-width="2" stroke-linecap="round" stroke-linejoin="round"/>
<path d="M12 20.0007H20" stroke="black" stroke-width="2" stroke-linecap="round" stroke-linejoin="round"/>
<path d="M7 5.00073H25C25.2652 5.00073 25.5196 5.10609 25.7071 5.29363C25.8946 5.48116 26 5.73552 26 6.00073V25.0007C26 25.7964 25.6839 26.5594 25.1213 27.1221C24.5587 27.6847 23.7956 28.0007 23 28.0007H9C8.20435 28.0007 7.44129 27.6847 6.87868 27.1221C6.31607 26.5594 6 25.7964 6 25.0007V6.00073C6 5.73552 6.10536 5.48116 6.29289 5.29363C6.48043 5.10609 6.73478 5.00073 7 5.00073Z" stroke="black" stroke-width="2" stroke-linecap="round" stroke-linejoin="round"/>
<path d="M10 3.00073V7.00073" stroke="black" stroke-width="2" stroke-linecap="round" stroke-linejoin="round"/>
<path d="M16 3.00073V7.00073" stroke="black" stroke-width="2" stroke-linecap="round" stroke-linejoin="round"/>
<path d="M22 3.00073V7.00073" stroke="black" stroke-width="2" stroke-linecap="round" stroke-linejoin="round"/>
</svg>
