<svg   viewBox="0 0 32 32" fill="none" xmlns="http://www.w3.org/2000/svg">
<path d="M9.7532 18H23.7532C24.2836 18 24.7923 17.7892 25.1674 17.4142C25.5425 17.0391 25.7532 16.5304 25.7532 16C25.7532 15.4696 25.5425 14.9608 25.1674 14.5858C24.7923 14.2107 24.2836 14 23.7532 14H5.7532C3.59839 14 1.85156 15.7909 1.85156 18C1.85156 20.2091 3.59838 22 5.7532 22H24.0025C25.5938 22 27.1199 21.3679 28.2451 20.2426C29.3703 19.1174 30.0025 17.5913 30.0025 16C30.0025 14.4087 29.3703 12.8826 28.2451 11.7574C27.1199 10.6321 25.5938 10 24.0025 10H10.0025" stroke="black" stroke-width="2" stroke-linecap="round" stroke-linejoin="round"/>
</svg>
