<svg viewBox="0 0 32 32" xmlns="http://www.w3.org/2000/svg">
<path d="M19.9993 9.99939L9.58579 20.5858C9.21071 20.9609 9 21.4696 9 22C9 22.5304 9.21071 23.0391 9.58579 23.4142C9.96086 23.7893 10.4696 24 11 24C11.5304 24 12.0391 23.7893 12.4142 23.4142L24.8277 10.8278C25.1991 10.4564 25.4938 10.0154 25.6948 9.53012C25.8958 9.04482 25.9993 8.52468 25.9993 7.99939C25.9993 7.4741 25.8958 6.95396 25.6948 6.46866C25.4938 5.98335 25.1991 5.5424 24.8277 5.17096C24.4563 4.79953 24.0153 4.50489 23.53 4.30387C23.0447 4.10285 22.5246 3.99939 21.9993 3.99939C21.474 3.99939 20.9538 4.10285 20.4685 4.30387C19.9832 4.50489 19.5423 4.79953 19.1708 5.17096L6.75736 17.7574C5.63214 18.8826 5 20.4087 5 22C5 23.5913 5.63214 25.1174 6.75736 26.2426C7.88258 27.3679 9.4087 28 11 28C12.5913 28 14.1174 27.3679 15.2426 26.2426L25.4993 15.9994" stroke-width="2" stroke-linecap="round" stroke-linejoin="round"/>
</svg>
