<svg   viewBox="0 0 32 32" fill="none" xmlns="http://www.w3.org/2000/svg">
<path d="M6 23V9" stroke="black" stroke-width="2" stroke-linecap="round" stroke-linejoin="round"/>
<path d="M26 9V23" stroke="black" stroke-width="2" stroke-linecap="round" stroke-linejoin="round"/>
<path d="M27 5H5C4.44772 5 4 5.44772 4 6V8C4 8.55228 4.44772 9 5 9H27C27.5523 9 28 8.55228 28 8V6C28 5.44772 27.5523 5 27 5Z" stroke="black" stroke-width="2" stroke-linecap="round" stroke-linejoin="round"/>
<path d="M16 23V27" stroke="black" stroke-width="2" stroke-linecap="round" stroke-linejoin="round"/>
<path d="M16 31C17.1046 31 18 30.1046 18 29C18 27.8954 17.1046 27 16 27C14.8954 27 14 27.8954 14 29C14 30.1046 14.8954 31 16 31Z" stroke="black" stroke-width="2" stroke-linecap="round" stroke-linejoin="round"/>
<path d="M4 23H28" stroke="black" stroke-width="2" stroke-linecap="round" stroke-linejoin="round"/>
</svg>
