<svg viewBox="0 0 32 32" xmlns="http://www.w3.org/2000/svg">
<path d="M11 21L6 26" stroke-width="2" stroke-linecap="round" stroke-linejoin="round"/>
<path d="M19.2944 3.70708L11.5016 11.5C11.5016 11.5 8.03355 9.76597 4.32671 12.7563C4.21724 12.8444 4.12754 12.9546 4.06344 13.0796C3.99933 13.2047 3.96225 13.3418 3.95461 13.4821C3.94696 13.6224 3.96893 13.7628 4.01907 13.8941C4.06921 14.0253 4.14642 14.1446 4.24566 14.2441L17.7327 27.7311C17.8337 27.8324 17.9553 27.9108 18.0892 27.961C18.2231 28.0112 18.3663 28.0321 18.5089 28.0223C18.6516 28.0124 18.7905 27.972 18.9163 27.9039C19.042 27.8357 19.1516 27.7414 19.2378 27.6272C20.2869 26.2327 21.9347 23.3663 20.5016 20.5L28.2944 12.7071C28.482 12.5195 28.5873 12.2652 28.5873 12C28.5873 11.7348 28.482 11.4804 28.2944 11.2929L20.7087 3.70708C20.5211 3.51954 20.2668 3.41418 20.0016 3.41418C19.7363 3.41418 19.482 3.51954 19.2944 3.70708V3.70708Z" stroke-width="2" stroke-linecap="round" stroke-linejoin="round"/>
</svg>
