<svg   viewBox="0 0 32 32" fill="none" xmlns="http://www.w3.org/2000/svg">
<path d="M11 21L6 26" stroke="black" stroke-width="2" stroke-linecap="round" stroke-linejoin="round"/>
<path d="M6 5L26 27" stroke="black" stroke-width="2" stroke-linecap="round" stroke-linejoin="round"/>
<path d="M11.7158 11.2857L11.5016 11.5C11.5016 11.5 8.03355 9.766 4.32671 12.7563C4.21724 12.8444 4.12754 12.9546 4.06344 13.0796C3.99933 13.2047 3.96225 13.3418 3.95461 13.4821C3.94696 13.6225 3.96893 13.7628 4.01907 13.8941C4.06921 14.0254 4.14642 14.1446 4.24566 14.2441L17.7327 27.7312C17.8337 27.8324 17.9553 27.9108 18.0892 27.961C18.2231 28.0113 18.3663 28.0322 18.5089 28.0223C18.6516 28.0124 18.7905 27.9721 18.9163 27.9039C19.042 27.8358 19.1516 27.7414 19.2378 27.6272C20.1881 26.3641 21.6297 23.8932 20.8276 21.3086" stroke="black" stroke-width="2" stroke-linecap="round" stroke-linejoin="round"/>
<path d="M23.1183 17.8826L28.2939 12.7071C28.4814 12.5195 28.5868 12.2652 28.5868 12C28.5868 11.7348 28.4814 11.4804 28.2939 11.2929L20.7081 3.70708C20.5206 3.51954 20.2662 3.41418 20.001 3.41418C19.7358 3.41418 19.4814 3.51954 19.2939 3.70708L14.5469 8.45408" stroke="black" stroke-width="2" stroke-linecap="round" stroke-linejoin="round"/>
</svg>
