<svg viewBox="0 0 32 32" xmlns="http://www.w3.org/2000/svg">
<path d="M13.0005 12C13.5528 12 14.0005 12.4477 14.0005 13V21C14.0005 21.5523 13.5528 22 13.0005 22C12.4482 22 12.0005 21.5523 12.0005 21V13C12.0005 12.4477 12.4482 12 13.0005 12Z"/>
<path d="M20.0005 21V13C20.0005 12.4477 19.5528 12 19.0005 12C18.4482 12 18.0005 12.4477 18.0005 13V21C18.0005 21.5523 18.4482 22 19.0005 22C19.5528 22 20.0005 21.5523 20.0005 21Z"/>
<path fill-rule="evenodd" clip-rule="evenodd" d="M13.0005 2C12.2048 2 11.4418 2.31607 10.8792 2.87868C10.3166 3.44129 10.0005 4.20435 10.0005 5V6L7.00388 6.00001L7.00049 6L6.99709 6.00001L5 6.00001C4.44771 6.00001 4 6.44772 4 7.00001C4 7.55229 4.44772 8.00001 5 8.00001L6.00049 8.00001V26C6.00049 26.5304 6.2112 27.0391 6.58627 27.4142C6.96135 27.7893 7.47006 28 8.00049 28H24.0005C24.5309 28 25.0396 27.7893 25.4147 27.4142C25.7898 27.0391 26.0005 26.5304 26.0005 26V8L27 8C27.5523 8 28 7.55228 28 7C28 6.44771 27.5523 6 27 6L22.0005 6V5C22.0005 4.20435 21.6844 3.44129 21.1218 2.87868C20.5592 2.31607 19.7961 2 19.0005 2H13.0005ZM20.0005 6V5C20.0005 4.73478 19.8951 4.48043 19.7076 4.29289C19.5201 4.10536 19.2657 4 19.0005 4H13.0005C12.7353 4 12.4809 4.10536 12.2934 4.29289C12.1058 4.48043 12.0005 4.73478 12.0005 5V6L20.0005 6ZM8.00049 26V8.00001L24.0005 8V26H8.00049Z"/>
</svg>
