<svg   viewBox="0 0 32 32" fill="none" xmlns="http://www.w3.org/2000/svg">
<path d="M13 22C15.2091 22 17 20.2091 17 18C17 15.7909 15.2091 14 13 14C10.7909 14 9 15.7909 9 18C9 20.2091 10.7909 22 13 22Z" stroke="black" stroke-width="2" stroke-linecap="round" stroke-linejoin="round"/>
<path d="M6.67371 25.9998C7.24184 24.803 8.13784 23.7918 9.25765 23.0838C10.3775 22.3758 11.6751 22 13 22C14.3249 22 15.6225 22.3758 16.7424 23.0838C17.8622 23.7918 18.7582 24.803 19.3263 25.9998L27 26C27.1313 26 27.2613 25.9741 27.3827 25.9239C27.504 25.8736 27.6142 25.8 27.7071 25.7071C27.8 25.6143 27.8736 25.504 27.9239 25.3827C27.9741 25.2614 28 25.1313 28 25V7C28 6.73478 27.8946 6.48043 27.7071 6.29289C27.5196 6.10536 27.2652 6 27 6H5C4.73478 6 4.48043 6.10536 4.29289 6.29289C4.10536 6.48043 4 6.73478 4 7V25.0001C4 25.1314 4.02587 25.2614 4.07612 25.3828C4.12638 25.5041 4.20004 25.6143 4.2929 25.7072C4.38576 25.8 4.496 25.8737 4.61732 25.9239C4.73865 25.9742 4.86868 26 5 26L6.67371 25.9998Z" stroke="black" stroke-width="2" stroke-linecap="round" stroke-linejoin="round"/>
<path d="M22 22H24V10H8V12" stroke="black" stroke-width="2" stroke-linecap="round" stroke-linejoin="round"/>
</svg>
