<svg viewBox="0 0 24 24" xmlns="http://www.w3.org/2000/svg">
<g clip-path="url(#clip0_61_17176)">
<path d="M3 6H16C16.55 6 17 5.55 17 5C17 4.45 16.55 4 16 4H3C2.45 4 2 4.45 2 5C2 5.55 2.45 6 3 6Z"/>
<path d="M14.9991 17H16.9991V14H17.1791C17.8091 14 18.2791 13.42 18.1591 12.8L17.1591 7.8C17.0691 7.34 16.6591 7 16.1791 7H2.8191C2.3391 7 1.9291 7.34 1.8391 7.8L0.839097 12.8C0.719097 13.42 1.1891 14 1.8191 14H1.9991V19C1.9991 19.55 2.4491 20 2.9991 20H9.9991C10.5491 20 10.9991 19.55 10.9991 19V14H14.9991V17ZM8.9991 18H3.9991V14H8.9991V18Z"/>
<path d="M22 18H20V16C20 15.45 19.55 15 19 15C18.45 15 18 15.45 18 16V18H16C15.45 18 15 18.45 15 19C15 19.55 15.45 20 16 20H18V22C18 22.55 18.45 23 19 23C19.55 23 20 22.55 20 22V20H22C22.55 20 23 19.55 23 19C23 18.45 22.55 18 22 18Z"/>
</g>
<defs>
<clipPath id="clip0_61_17176">
<rect/>
</clipPath>
</defs>
</svg>
