<svg viewBox="0 0 24 24" xmlns="http://www.w3.org/2000/svg">
<g clip-path="url(#clip0_61_17180)">
<path d="M19.5034 11.97C20.4334 11.97 21.2834 12.25 22.0034 12.73V7.96999C22.0034 6.86999 21.1034 5.96999 20.0034 5.96999H13.7134L12.6534 4.90999L13.7134 3.84999C13.9134 3.64999 13.9134 3.33999 13.7134 3.13999C13.5134 2.93999 13.2034 2.93999 13.0034 3.13999L10.1734 5.96999C9.97344 6.16999 9.97344 6.47999 10.1734 6.67999C10.3734 6.87999 10.6834 6.87999 10.8834 6.67999L11.9434 5.61999L13.0034 6.67999V8.96999C13.0034 10.07 12.1034 10.97 11.0034 10.97H10.4634C11.4134 12.03 12.0034 13.43 12.0034 14.97C12.0034 15.31 11.9634 15.64 11.9134 15.97H15.0534C15.3034 13.73 17.1934 11.97 19.5034 11.97Z"/>
<path d="M19.5 12.97C17.57 12.97 16 14.54 16 16.47C16 18.4 17.57 19.97 19.5 19.97C21.43 19.97 23 18.4 23 16.47C23 14.54 21.43 12.97 19.5 12.97ZM19.5 17.97C18.67 17.97 18 17.3 18 16.47C18 15.64 18.67 14.97 19.5 14.97C20.33 14.97 21 15.64 21 16.47C21 17.3 20.33 17.97 19.5 17.97Z"/>
<path d="M4 8.96997H9C9 7.86997 8.1 6.96997 7 6.96997H4C3.45 6.96997 3 7.41997 3 7.96997C3 8.52997 3.45 8.96997 4 8.96997Z"/>
<path d="M9.83 13.79L9.65 13.32L10.58 12.97C10.12 11.91 9.3 11.06 8.27 10.54L7.87 11.43L7.41 11.22L7.81 10.32C7.26 10.11 6.64 9.96997 6 9.96997C5.47 9.96997 4.96 10.08 4.48 10.23L4.82 11.14L4.35 11.32L4 10.4C2.94 10.86 2.09 11.68 1.57 12.71L2.46 13.11L2.25 13.57L1.35 13.17C1.13 13.72 1 14.33 1 14.97C1 15.5 1.11 16.01 1.26 16.49L2.17 16.15L2.35 16.62L1.42 16.97C1.88 18.03 2.7 18.88 3.73 19.4L4.13 18.51L4.59 18.72L4.19 19.62C4.76 19.84 5.37 19.97 6.01 19.97C6.54 19.97 7.05 19.86 7.53 19.71L7.18 18.8L7.65 18.62L8 19.55C9.06 19.09 9.91 18.27 10.43 17.24L9.54 16.84L9.75 16.38L10.65 16.78C10.87 16.21 11 15.6 11 14.96C11 14.43 10.89 13.92 10.74 13.44L9.83 13.79ZM7.15 17.75C5.62 18.38 3.86 17.66 3.23 16.13C2.6 14.6 3.32 12.84 4.85 12.21C6.38 11.58 8.14 12.3 8.77 13.83C9.41 15.36 8.68 17.11 7.15 17.75Z"/>
</g>
<defs>
<clipPath id="clip0_61_17180">
<rect/>
</clipPath>
</defs>
</svg>
