<svg   viewBox="0 0 24 24" fill="none" xmlns="http://www.w3.org/2000/svg">
<g clip-path="url(#clip0_61_17181)">
<path d="M9.77774 11.16L8.35774 12.58C7.67774 11.89 7.01774 11 6.56774 9.63995L8.50774 9.14995C8.82774 10.04 9.27774 10.65 9.77774 11.16ZM10.1477 5.14995L7.34774 2.34995C7.14774 2.14995 6.83774 2.14995 6.63774 2.34995L3.84774 5.14995C3.53774 5.45995 3.75774 5.99995 4.20774 5.99995H6.01774C6.03774 6.80995 6.09774 7.53995 6.20774 8.16995L8.14774 7.67995C8.07774 7.19995 8.02774 6.62995 8.01774 5.99995H9.79774C10.2377 5.99995 10.4577 5.45995 10.1477 5.14995ZM20.1477 5.14995L17.3577 2.35995C17.1577 2.15995 16.8477 2.15995 16.6477 2.35995L13.8577 5.14995C13.5377 5.45995 13.7577 5.99995 14.2077 5.99995H15.9877C15.8877 9.67995 14.7077 10.75 13.4477 11.88C12.9477 12.32 12.4377 12.8 11.9977 13.43C11.6577 12.94 11.2677 12.55 10.8677 12.19L9.45774 13.6C10.3877 14.45 10.9977 15.14 10.9977 17V21C10.9977 21.55 11.4477 22 11.9977 22C12.5477 22 12.9977 21.55 12.9977 21V17C12.9977 14.98 13.7077 14.34 14.7877 13.37C16.1677 12.13 17.8677 10.59 17.9877 5.99995H19.7877C20.2377 5.99995 20.4577 5.45995 20.1477 5.14995Z" fill="black"/>
</g>
<defs>
<clipPath id="clip0_61_17181">
<rect width="24" height="24" fill="white"/>
</clipPath>
</defs>
</svg>
