<svg viewBox="0 0 24 24" xmlns="http://www.w3.org/2000/svg">
<g clip-path="url(#clip0_61_17184)">
<path d="M10 14H10.74L8.82 5.56C8.61 4.65 7.8 4 6.87 4H4C3.45 4 3 4.45 3 5C3 5.55 3.45 6 4 6H6.87L8.29 12.25H8.28C6.12 12.9 4.47 14.73 4.09 17H0V19H6V18C6 15.79 7.79 14 10 14Z"/>
<path d="M18.7484 8H18.1884L16.8384 4.31C16.5484 3.52 15.7984 3 14.9584 3H11.9984C11.4484 3 10.9984 3.45 10.9984 4C10.9984 4.55 11.4484 5 11.9984 5H14.9584L16.0584 8H10.3984L10.8584 10H14.9984C14.5684 10.58 14.2484 11.25 14.0984 12H11.3084L11.7684 14H14.0984C14.5384 16.23 16.4084 17.88 18.7484 17.99C21.9084 18.14 24.6284 15.16 23.8684 11.89C23.3384 9.57 21.1284 8 18.7484 8ZM18.8784 16C17.3384 15.94 16.0384 14.63 15.9984 13.08C15.9784 12.12 16.3884 11.28 17.0484 10.72L17.6684 12.42C17.8584 12.94 18.4284 13.21 18.9484 13.02C19.4684 12.83 19.7384 12.26 19.5484 11.74L18.9184 10.01C18.9184 10.01 18.9184 10.01 18.9284 10C20.6384 9.96 21.9984 11.29 21.9984 13C21.9984 14.72 20.6184 16.06 18.8784 16Z"/>
<path d="M10 15C8.34 15 7 16.34 7 18C7 19.66 8.34 21 10 21C11.66 21 13 19.66 13 18C13 16.34 11.66 15 10 15ZM10 19C9.45 19 9 18.55 9 18C9 17.45 9.45 17 10 17C10.55 17 11 17.45 11 18C11 18.55 10.55 19 10 19Z"/>
</g>
<defs>
<clipPath id="clip0_61_17184">
<rect/>
</clipPath>
</defs>
</svg>
