<svg   viewBox="0 0 24 24" fill="none" xmlns="http://www.w3.org/2000/svg">
<g clip-path="url(#clip0_61_17187)">
<path d="M12 21C14.2091 21 16 19.2091 16 17C16 14.7909 14.2091 13 12 13C9.79086 13 8 14.7909 8 17C8 19.2091 9.79086 21 12 21Z" fill="black"/>
<path d="M11.9989 3C8.4889 3 5.2789 4.29 2.7989 6.41C2.3589 6.79 2.3189 7.47 2.7389 7.89L6.3389 11.49C6.6989 11.85 7.2589 11.88 7.6589 11.57C8.8589 10.63 10.3689 10.07 11.9989 10.07C13.6389 10.07 15.1389 10.63 16.3389 11.56C16.7389 11.87 17.2989 11.84 17.6489 11.48L21.2489 7.88C21.6689 7.46 21.6289 6.78 21.1789 6.4C18.7189 4.28 15.5089 3 11.9989 3Z" fill="black"/>
</g>
<defs>
<clipPath id="clip0_61_17187">
<rect width="24" height="24" fill="white"/>
</clipPath>
</defs>
</svg>
