<svg viewBox="0 0 24 24" xmlns="http://www.w3.org/2000/svg">
<g clip-path="url(#clip0_61_17196)">
<path d="M13.4905 5.47998C14.5905 5.47998 15.4905 4.57998 15.4905 3.47998C15.4905 2.37998 14.5905 1.47998 13.4905 1.47998C12.3905 1.47998 11.4905 2.37998 11.4905 3.47998C11.4905 4.57998 12.3905 5.47998 13.4905 5.47998ZM10.3205 17.48L10.8905 14.98L12.9905 16.98V21.98C12.9905 22.53 13.4405 22.98 13.9905 22.98C14.5405 22.98 14.9905 22.53 14.9905 21.98V16.34C14.9905 15.79 14.7705 15.27 14.3705 14.89L12.8905 13.48L13.4905 10.48C14.5605 11.72 16.1105 12.61 17.8505 12.89C18.4505 12.98 18.9905 12.5 18.9905 11.89C18.9905 11.4 18.6305 10.99 18.1405 10.91C16.6205 10.66 15.3605 9.75998 14.6905 8.57998L13.6905 6.97998C13.2905 6.37998 12.6905 5.97998 11.9905 5.97998C11.6905 5.97998 11.4905 6.07998 11.1905 6.07998L7.21053 7.75998C6.47053 8.07998 5.99053 8.79998 5.99053 9.60998V11.98C5.99053 12.53 6.44053 12.98 6.99053 12.98C7.54053 12.98 7.99053 12.53 7.99053 11.98V9.57998L9.79053 8.87998L8.19053 16.98L4.27053 16.18C3.73053 16.07 3.20053 16.42 3.09053 16.96V17C2.98053 17.54 3.33053 18.07 3.87053 18.18L7.98053 19C9.04053 19.21 10.0805 18.54 10.3205 17.48V17.48Z"/>
</g>
<defs>
<clipPath id="clip0_61_17196">
<rect/>
</clipPath>
</defs>
</svg>
