<svg   viewBox="0 0 24 24" fill="none" xmlns="http://www.w3.org/2000/svg">
<g clip-path="url(#clip0_61_17190)">
<path d="M21.7103 11.2901L12.7103 2.29006C12.3203 1.90006 11.6903 1.90006 11.3003 2.29006L2.30031 11.2901C1.91031 11.6801 1.91031 12.3101 2.30031 12.7001L11.3003 21.7001C11.6903 22.0901 12.3203 22.0901 12.7103 21.7001L21.7103 12.7001C22.1003 12.3201 22.1003 11.6901 21.7103 11.2901ZM14.0003 14.5001V12.0001H10.0003V14.0001C10.0003 14.5501 9.55031 15.0001 9.00031 15.0001C8.45031 15.0001 8.00031 14.5501 8.00031 14.0001V11.0001C8.00031 10.4501 8.45031 10.0001 9.00031 10.0001H14.0003V7.50006L17.1503 10.6501C17.3503 10.8501 17.3503 11.1601 17.1503 11.3601L14.0003 14.5001Z" fill="black"/>
</g>
<defs>
<clipPath id="clip0_61_17190">
<rect width="24" height="24" fill="white"/>
</clipPath>
</defs>
</svg>
