<svg viewBox="0 0 24 24" xmlns="http://www.w3.org/2000/svg">
<g clip-path="url(#clip0_61_17201)">
<path d="M18.11 1.77002L19.07 0.810022C19.1625 0.717319 19.2724 0.643771 19.3934 0.59359C19.5143 0.543408 19.644 0.517578 19.775 0.517578C19.906 0.517578 20.0357 0.543408 20.1566 0.59359C20.2776 0.643771 20.3875 0.717319 20.48 0.810022L21.19 1.52002C21.58 1.91002 21.58 2.54002 21.19 2.93002L20.23 3.89002L18.11 1.77002V1.77002ZM17.11 2.77002L19.23 4.89002L13.26 10.86C13.1671 10.9533 13.0417 11.0071 12.91 11.01H11.5C11.22 11.01 11 10.79 11 10.51V9.10002C11 8.97002 11.05 8.84002 11.15 8.75002L17.11 2.77002V2.77002ZM15.13 2.64002L9.79 7.98002C9.61 8.17002 9.5 8.42002 9.5 8.69002V11.52C9.5 12.07 9.95 12.52 10.5 12.52H13.33C13.6 12.52 13.85 12.41 14.04 12.23L19.37 6.90002C19.77 7.88002 20 8.99002 20 10.21C20 13.39 17.55 17.13 12.66 21.44C12.28 21.77 11.71 21.77 11.33 21.44C6.45 17.13 4 13.39 4 10.21C4 5.23002 7.8 2.01002 12 2.01002C13.09 2.01002 14.16 2.23002 15.13 2.64002V2.64002Z"/>
</g>
<defs>
<clipPath id="clip0_61_17201">
<rect/>
</clipPath>
</defs>
</svg>
