<svg viewBox="0 0 24 24" xmlns="http://www.w3.org/2000/svg">
<g clip-path="url(#clip0_61_17212)">
<path d="M21.6759 18.1699L16.9559 13.4499C16.4759 12.9699 15.9659 12.8599 15.3759 12.8599L12.8359 15.3999C12.8359 15.9899 12.9459 16.5099 13.4259 16.9799L18.1459 21.6999C18.5359 22.0899 19.1659 22.0899 19.5559 21.6999L21.6759 19.5799C22.0659 19.1999 22.0659 18.5599 21.6759 18.1699Z"/>
<path d="M16.6325 9.48995C17.0225 9.87995 17.6525 9.87995 18.0425 9.48995L18.7525 8.77994L20.8725 10.8999C22.0425 9.72995 22.0425 7.82994 20.8725 6.65995L18.0425 3.82995C17.6525 3.43995 17.0225 3.43995 16.6325 3.82995L15.9225 4.53995V1.99995C15.9225 1.37995 15.1625 1.04995 14.7125 1.49995L12.1725 4.03995C11.7225 4.48995 12.0525 5.24995 12.6725 5.24995H15.2125L14.5025 5.95995C14.1125 6.34995 14.1125 6.97995 14.5025 7.36995L14.8525 7.71994L11.9625 10.6099L7.8525 6.47995V5.47995C7.8525 5.20995 7.7425 4.95995 7.5625 4.76995L5.5425 2.73995C5.1525 2.34995 4.5225 2.34995 4.1325 2.73995L2.7125 4.15995C2.3225 4.54995 2.3225 5.17995 2.7125 5.56995L4.7325 7.59995C4.9225 7.78995 5.1725 7.88995 5.4425 7.88995H6.4425L10.5725 12.0199L9.7225 12.8699H8.4225C7.8925 12.8699 7.3825 13.0799 7.0125 13.4599L2.2925 18.1799C1.9025 18.5699 1.9025 19.1999 2.2925 19.5899L4.4125 21.7099C4.8025 22.0999 5.4325 22.0999 5.8225 21.7099L10.5425 16.9899C10.9225 16.6099 11.1325 16.1099 11.1325 15.5799V14.2899L16.2825 9.13995L16.6325 9.48995Z"/>
</g>
<defs>
<clipPath id="clip0_61_17212">
<rect/>
</clipPath>
</defs>
</svg>
