<svg   viewBox="0 0 24 24" fill="none" xmlns="http://www.w3.org/2000/svg">
<g clip-path="url(#clip0_61_17215)">
<path d="M12.0028 16C13.0128 16 13.9128 15.61 14.6228 15H9.38281C10.0928 15.61 10.9928 16 12.0028 16Z" fill="black"/>
<path d="M8.5625 14H15.4525C15.7125 13.55 15.8925 13.04 15.9625 12.5H8.0625C8.1225 13.04 8.2925 13.55 8.5625 14Z" fill="black"/>
<path d="M12.0028 8C10.9928 8 10.0928 8.39 9.38281 9H14.6228C13.9128 8.39 13.0128 8 12.0028 8Z" fill="black"/>
<path d="M8.55688 10C8.29688 10.45 8.11688 10.96 8.04688 11.5H15.9469C15.8769 10.96 15.7069 10.45 15.4369 10H8.55688Z" fill="black"/>
<path d="M19 3H5C3.9 3 3 3.9 3 5V19C3 20.1 3.9 21 5 21H19C20.1 21 21 20.1 21 19V5C21 3.9 20.1 3 19 3ZM12 18C8.69 18 6 15.31 6 12C6 8.69 8.69 6 12 6C15.31 6 18 8.69 18 12C18 15.31 15.31 18 12 18Z" fill="black"/>
</g>
<defs>
<clipPath id="clip0_61_17215">
<rect width="24" height="24" fill="white"/>
</clipPath>
</defs>
</svg>
