<svg   viewBox="0 0 24 24" fill="none" xmlns="http://www.w3.org/2000/svg">
<g clip-path="url(#clip0_61_17217)">
<path d="M19.9866 9.79008C20.4966 9.39008 20.4966 8.61008 19.9866 8.21008L13.2266 2.95008C12.5066 2.39008 11.4966 2.39008 10.7666 2.95008L9.40656 4.02008L17.2866 11.9001L19.9866 9.79008ZM19.9866 13.2801L19.9766 13.2701C19.6166 12.9901 19.1166 12.9901 18.7566 13.2701L18.7066 13.3101L20.1066 14.7101C20.4766 14.3001 20.4466 13.6401 19.9866 13.2801V13.2801ZM21.4366 18.8801L4.11656 1.56008C3.72656 1.17008 3.09656 1.17008 2.70656 1.56008C2.31656 1.95008 2.31656 2.58008 2.70656 2.97008L6.22656 6.49008L4.00656 8.21008C3.49656 8.61008 3.49656 9.39008 4.00656 9.79008L10.7666 15.0501C11.4866 15.6101 12.4966 15.6101 13.2266 15.0501L14.0966 14.3701L15.5166 15.7901L12.5966 18.0601C12.2366 18.3401 11.7266 18.3401 11.3666 18.0601L5.21656 13.2801C4.85656 13.0001 4.35656 13.0001 3.99656 13.2801C3.48656 13.6801 3.48656 14.4501 3.99656 14.8501L10.7566 20.1101C11.4766 20.6701 12.4866 20.6701 13.2166 20.1101L16.9366 17.2201L20.0066 20.2901C20.3966 20.6801 21.0266 20.6801 21.4166 20.2901C21.8266 19.9001 21.8266 19.2701 21.4366 18.8801Z" fill="black"/>
</g>
<defs>
<clipPath id="clip0_61_17217">
<rect width="24" height="24" fill="white"/>
</clipPath>
</defs>
</svg>
