<svg viewBox="0 0 24 24" xmlns="http://www.w3.org/2000/svg">
<g clip-path="url(#clip0_61_17246)">
<path d="M11.9969 15.2C13.7642 15.2 15.1969 13.7674 15.1969 12C15.1969 10.2327 13.7642 8.80005 11.9969 8.80005C10.2296 8.80005 8.79688 10.2327 8.79688 12C8.79688 13.7674 10.2296 15.2 11.9969 15.2Z"/>
<path d="M20 4H16.83L15.59 2.65C15.22 2.24 14.68 2 14.12 2H9.88C9.32 2 8.78 2.24 8.4 2.65L7.17 4H4C2.9 4 2 4.9 2 6V18C2 19.1 2.9 20 4 20H20C21.1 20 22 19.1 22 18V6C22 4.9 21.1 4 20 4ZM12 17C9.24 17 7 14.76 7 12C7 9.24 9.24 7 12 7C14.76 7 17 9.24 17 12C17 14.76 14.76 17 12 17Z"/>
</g>
<defs>
<clipPath id="clip0_61_17246">
<rect/>
</clipPath>
</defs>
</svg>
