<svg   viewBox="0 0 24 24" fill="none" xmlns="http://www.w3.org/2000/svg">
<g clip-path="url(#clip0_61_17226)">
<path d="M5.22871 2C4.03871 2 3.10871 3.04 3.23871 4.22L5.00871 20.23C5.12871 21.23 5.96871 22 6.99871 22H16.9987C18.0287 22 18.8687 21.23 18.9887 20.23L20.7587 4.22C20.8887 3.04 19.9587 2 18.7687 2H5.22871V2ZM11.9987 19C10.3387 19 8.99871 17.66 8.99871 16C8.99871 14.45 10.8087 12.05 11.6187 11.06C11.8187 10.81 12.1887 10.81 12.3887 11.06C13.1987 12.06 15.0087 14.45 15.0087 16C14.9987 17.66 13.6587 19 11.9987 19V19ZM18.3287 8H5.66871L5.34871 5.11C5.28871 4.52 5.74871 4 6.34871 4H17.6487C18.2387 4 18.7087 4.52 18.6387 5.11L18.3287 8Z" fill="black"/>
</g>
<defs>
<clipPath id="clip0_61_17226">
<rect width="24" height="24" fill="white"/>
</clipPath>
</defs>
</svg>
