<svg   viewBox="0 0 24 24" fill="none" xmlns="http://www.w3.org/2000/svg">
<g clip-path="url(#clip0_61_17227)">
<path d="M19.48 12.3499C17.91 8.2699 12.32 8.0499 13.67 2.1199C13.77 1.6799 13.3 1.3399 12.92 1.5699C9.29 3.7099 6.68 7.9999 8.87 13.6199C9.05 14.0799 8.51 14.5099 8.12 14.2099C6.31 12.8399 6.12 10.8699 6.28 9.4599C6.34 8.9399 5.66 8.6899 5.37 9.1199C4.69 10.1599 4 11.8399 4 14.3699C4.38 19.9699 9.11 21.6899 10.81 21.9099C13.24 22.2199 15.87 21.7699 17.76 20.0399C19.84 18.1099 20.6 15.0299 19.48 12.3499ZM10.2 17.3799C11.64 17.0299 12.38 15.9899 12.58 15.0699C12.91 13.6399 11.62 12.2399 12.49 9.9799C12.82 11.8499 15.76 13.0199 15.76 15.0599C15.84 17.5899 13.1 19.7599 10.2 17.3799Z" fill="black"/>
<path d="M19.48 12.3499C17.91 8.2699 12.32 8.0499 13.67 2.1199C13.77 1.6799 13.3 1.3399 12.92 1.5699C9.29 3.7099 6.68 7.9999 8.87 13.6199C9.05 14.0799 8.51 14.5099 8.12 14.2099C6.31 12.8399 6.12 10.8699 6.28 9.4599C6.34 8.9399 5.66 8.6899 5.37 9.1199C4.69 10.1599 4 11.8399 4 14.3699C4.38 19.9699 9.11 21.6899 10.81 21.9099C13.24 22.2199 15.87 21.7699 17.76 20.0399C19.84 18.1099 20.6 15.0299 19.48 12.3499ZM10.2 17.3799C11.64 17.0299 12.38 15.9899 12.58 15.0699C12.91 13.6399 11.62 12.2399 12.49 9.9799C12.82 11.8499 15.76 13.0199 15.76 15.0599C15.84 17.5899 13.1 19.7599 10.2 17.3799Z" fill="black"/>
</g>
<defs>
<clipPath id="clip0_61_17227">
<rect width="24" height="24" fill="white"/>
</clipPath>
</defs>
</svg>
