<svg   viewBox="0 0 24 24" fill="none" xmlns="http://www.w3.org/2000/svg">
<g clip-path="url(#clip0_61_17233)">
<path d="M9.55 16.45C9.35 16.65 9.34 17 9.57 17.18C11.14 18.38 13.4 18.26 14.83 16.83C16.26 15.4 16.38 13.14 15.18 11.57C15 11.34 14.65 11.34 14.45 11.55L9.55 16.45V16.45ZM18 2.01L6 2C4.89 2 4 2.89 4 4V20C4 21.11 4.89 22 6 22H18C19.11 22 20 21.11 20 20V4C20 2.89 19.11 2.01 18 2.01ZM10 4C10.55 4 11 4.45 11 5C11 5.55 10.55 6 10 6C9.45 6 9 5.55 9 5C9 4.45 9.45 4 10 4ZM7 4C7.55 4 8 4.45 8 5C8 5.55 7.55 6 7 6C6.45 6 6 5.55 6 5C6 4.45 6.45 4 7 4ZM12 20C8.69 20 6 17.31 6 14C6 10.69 8.69 8 12 8C15.31 8 18 10.69 18 14C18 17.31 15.31 20 12 20Z" fill="black"/>
</g>
<defs>
<clipPath id="clip0_61_17233">
<rect width="24" height="24" fill="white"/>
</clipPath>
</defs>
</svg>
