<svg   viewBox="0 0 24 24" fill="none" xmlns="http://www.w3.org/2000/svg">
<g clip-path="url(#clip0_61_17241)">
<path d="M12.0007 2C9.01072 2 6.28072 3.08 4.17072 4.88C3.46072 5.49 3.31072 6.53 3.77072 7.34L11.1307 20.45C11.5107 21.13 12.4907 21.13 12.8707 20.45L20.2307 7.34C20.6907 6.53 20.5407 5.48 19.8307 4.88C17.7307 3.09 14.9907 2 12.0007 2ZM7.00072 7C7.00072 5.9 7.90072 5 9.00072 5C10.1007 5 11.0007 5.9 11.0007 7C11.0007 8.1 10.1007 9 9.00072 9C7.90072 9 7.00072 8.1 7.00072 7ZM12.0007 15C10.9007 15 10.0007 14.1 10.0007 13C10.0007 11.9 10.9007 11 12.0007 11C13.1007 11 14.0007 11.9 14.0007 13C14.0007 14.1 13.1007 15 12.0007 15Z" fill="black"/>
</g>
<defs>
<clipPath id="clip0_61_17241">
<rect width="24" height="24" fill="white"/>
</clipPath>
</defs>
</svg>
