<svg   viewBox="0 0 24 24" fill="none" xmlns="http://www.w3.org/2000/svg">
<g clip-path="url(#clip0_61_17228)">
<path d="M11.9997 22C16.5597 22 20.3297 18.6 20.9197 14.2C21.0097 13.56 20.4397 12.99 19.7997 13.08C15.3997 13.67 11.9997 17.44 11.9997 22ZM5.59971 10.25C5.59971 11.63 6.71971 12.75 8.09971 12.75C8.62971 12.75 9.10971 12.59 9.51971 12.31L9.49971 12.5C9.49971 13.88 10.6197 15 11.9997 15C13.3797 15 14.4997 13.88 14.4997 12.5L14.4797 12.31C14.8797 12.59 15.3697 12.75 15.8997 12.75C17.2797 12.75 18.3997 11.63 18.3997 10.25C18.3997 9.25 17.8097 8.4 16.9697 8C17.8097 7.6 18.3997 6.75 18.3997 5.75C18.3997 4.37 17.2797 3.25 15.8997 3.25C15.3697 3.25 14.8897 3.41 14.4797 3.69L14.4997 3.5C14.4997 2.12 13.3797 1 11.9997 1C10.6197 1 9.49971 2.12 9.49971 3.5L9.51971 3.69C9.11971 3.41 8.62971 3.25 8.09971 3.25C6.71971 3.25 5.59971 4.37 5.59971 5.75C5.59971 6.75 6.18971 7.6 7.02971 8C6.18971 8.4 5.59971 9.25 5.59971 10.25ZM11.9997 5.5C13.3797 5.5 14.4997 6.62 14.4997 8C14.4997 9.38 13.3797 10.5 11.9997 10.5C10.6197 10.5 9.49971 9.38 9.49971 8C9.49971 6.62 10.6197 5.5 11.9997 5.5ZM3.07971 14.2C3.66971 18.6 7.43971 22 11.9997 22C11.9997 17.44 8.59971 13.67 4.19971 13.08C3.55971 12.99 2.98971 13.56 3.07971 14.2Z" fill="black"/>
</g>
<defs>
<clipPath id="clip0_61_17228">
<rect width="24" height="24" fill="white"/>
</clipPath>
</defs>
</svg>
