<svg   viewBox="0 0 24 24" fill="none" xmlns="http://www.w3.org/2000/svg">
<g clip-path="url(#clip0_61_17240)">
<path d="M19.2271 15.26L16.6871 14.97C16.0771 14.9 15.4771 15.11 15.0471 15.54L13.2071 17.38C10.3771 15.94 8.05711 13.63 6.61711 10.79L8.46711 8.94001C8.89711 8.51001 9.10711 7.91001 9.03711 7.30001L8.74711 4.78001C8.62711 3.77001 7.77711 3.01001 6.75711 3.01001H5.02711C3.89711 3.01001 2.95711 3.95001 3.02711 5.08001C3.55711 13.62 10.3871 20.44 18.9171 20.97C20.0471 21.04 20.9871 20.1 20.9871 18.97V17.24C20.9971 16.23 20.2371 15.38 19.2271 15.26V15.26Z" fill="black"/>
</g>
<defs>
<clipPath id="clip0_61_17240">
<rect width="24" height="24" fill="white"/>
</clipPath>
</defs>
</svg>
