<svg   viewBox="0 0 24 24" fill="none" xmlns="http://www.w3.org/2000/svg">
<g clip-path="url(#clip0_61_17225)">
<path d="M8.10196 13.34L10.932 10.51L4.74196 4.32996C4.26196 3.84996 3.43196 3.97996 3.13196 4.59996C2.42196 6.08996 2.68196 7.91996 3.91196 9.15996L8.10196 13.34ZM14.882 11.53C16.412 12.24 18.562 11.74 20.152 10.15C22.062 8.23996 22.432 5.49996 20.962 4.02996C19.502 2.56996 16.762 2.92996 14.842 4.83996C13.252 6.42996 12.752 8.57996 13.462 10.11L4.41196 19.16C4.02196 19.55 4.02196 20.18 4.41196 20.57C4.80196 20.96 5.43196 20.96 5.82196 20.57L12.002 14.41L18.182 20.59C18.572 20.98 19.202 20.98 19.592 20.59C19.982 20.2 19.982 19.57 19.592 19.18L13.412 13L14.882 11.53V11.53Z" fill="black"/>
</g>
<defs>
<clipPath id="clip0_61_17225">
<rect width="24" height="24" fill="white"/>
</clipPath>
</defs>
</svg>
