<svg viewBox="0 0 24 24" xmlns="http://www.w3.org/2000/svg">
<g clip-path="url(#clip0_61_17239)">
<path d="M18.8875 5.00009H18.3575L19.0675 3.03009C19.3075 2.38009 18.9675 1.66009 18.3175 1.43009C17.6675 1.19009 16.9475 1.53009 16.7075 2.18009L15.6875 5.00009H5.09748C3.72748 5.00009 2.76748 6.34009 3.19748 7.63009L4.99748 13.0001L3.20748 18.3701C2.76748 19.6601 3.73748 21.0001 5.09748 21.0001H18.8775C20.2375 21.0001 21.2075 19.6601 20.7775 18.3701L18.9975 13.0001L20.7775 7.63009C21.2075 6.34009 20.2475 5.00009 18.8875 5.00009ZM14.9975 14.0001H12.9975V16.0001C12.9975 16.5501 12.5475 17.0001 11.9975 17.0001C11.4475 17.0001 10.9975 16.5501 10.9975 16.0001V14.0001H8.99748C8.44748 14.0001 7.99748 13.5501 7.99748 13.0001C7.99748 12.4501 8.44748 12.0001 8.99748 12.0001H10.9975V10.0001C10.9975 9.45009 11.4475 9.00009 11.9975 9.00009C12.5475 9.00009 12.9975 9.45009 12.9975 10.0001V12.0001H14.9975C15.5475 12.0001 15.9975 12.4501 15.9975 13.0001C15.9975 13.5501 15.5475 14.0001 14.9975 14.0001Z"/>
</g>
<defs>
<clipPath id="clip0_61_17239">
<rect/>
</clipPath>
</defs>
</svg>
