<svg viewBox="0 0 24 24" xmlns="http://www.w3.org/2000/svg">
<g clip-path="url(#clip0_61_17250)">
<path d="M11.9994 4C16.9694 4 20.8994 8.56 19.8194 13.72C19.1394 16.95 16.4194 19.46 13.1494 19.92C11.5594 20.14 10.0094 19.91 8.56938 19.22C8.29938 19.09 8.00938 19.03 7.70938 19.03C7.51938 19.03 7.32938 19.06 7.14938 19.11L4.83938 19.79C4.45938 19.9 4.09938 19.55 4.20938 19.16L4.90938 16.77C5.03938 16.32 4.97938 15.85 4.76938 15.42C4.25938 14.34 3.99938 13.18 3.99938 12C3.99938 7.59 7.58938 4 11.9994 4ZM11.9994 2C6.47938 2 1.99938 6.48 1.99938 12C1.99938 13.54 2.35938 14.98 2.96938 16.29L1.50938 21.25C1.28938 22 1.99938 22.71 2.75938 22.48L7.71938 21.02C9.37938 21.81 11.2794 22.17 13.2994 21.91C17.8594 21.32 21.5094 17.56 21.9594 12.99C22.5294 7.03 17.8494 2 11.9994 2Z"/>
<path fill-rule="evenodd" clip-rule="evenodd" d="M12 8C11.45 8 11 8.45 11 9V11H9C8.45 11 8 11.45 8 12C8 12.55 8.45 13 9 13H11V15C11 15.55 11.45 16 12 16C12.55 16 13 15.55 13 15V13H15C15.55 13 16 12.55 16 12C16 11.45 15.55 11 15 11H13V9C13 8.45 12.55 8 12 8Z"/>
</g>
<defs>
<clipPath id="clip0_61_17250">
<rect/>
</clipPath>
</defs>
</svg>
