<svg   viewBox="0 0 24 24" fill="none" xmlns="http://www.w3.org/2000/svg">
<g clip-path="url(#clip0_61_17253)">
<path d="M14.1685 13.71L15.5685 11.29C15.6585 11.14 15.6185 10.95 15.4885 10.84L14.0085 9.68C14.0385 9.46 14.0585 9.23 14.0585 9C14.0585 8.77 14.0385 8.54 14.0085 8.31L15.4885 7.15C15.6185 7.04 15.6585 6.85 15.5685 6.7L14.1685 4.28C14.0785 4.13 13.8985 4.07 13.7385 4.13L11.9985 4.83C11.6385 4.55 11.2485 4.32 10.8185 4.14L10.5585 2.29C10.5285 2.13 10.3785 2 10.2085 2H7.40854C7.23854 2 7.08854 2.13 7.05854 2.3L6.79854 4.15C6.37854 4.33 5.97854 4.56 5.61854 4.84L3.87854 4.14C3.71854 4.08 3.53854 4.14 3.44854 4.29L2.04854 6.71C1.95854 6.86 1.99854 7.05 2.12854 7.16L3.60854 8.32C3.57854 8.54 3.55854 8.77 3.55854 9C3.55854 9.23 3.57854 9.46 3.60854 9.69L2.12854 10.85C1.99854 10.96 1.95854 11.15 2.04854 11.3L3.44854 13.72C3.53854 13.87 3.71854 13.93 3.87854 13.87L5.61854 13.17C5.97854 13.45 6.36854 13.68 6.79854 13.86L7.05854 15.71C7.08854 15.87 7.23854 16 7.40854 16H10.2085C10.3785 16 10.5285 15.87 10.5585 15.7L10.8185 13.85C11.2385 13.67 11.6385 13.44 11.9985 13.16L13.7385 13.86C13.8985 13.92 14.0785 13.86 14.1685 13.71ZM8.80854 11C7.70854 11 6.80854 10.1 6.80854 9C6.80854 7.9 7.70854 7 8.80854 7C9.90854 7 10.8085 7.9 10.8085 9C10.8085 10.1 9.90854 11 8.80854 11Z" fill="black"/>
<path d="M21.9173 18.67L20.9573 17.93C20.9773 17.79 20.9973 17.64 20.9973 17.49C20.9973 17.34 20.9873 17.19 20.9573 17.05L21.9073 16.31C21.9873 16.24 22.0173 16.12 21.9573 16.02L21.0573 14.47C21.0073 14.37 20.8873 14.34 20.7773 14.37L19.6673 14.82C19.4373 14.64 19.1873 14.49 18.9073 14.38L18.7373 13.2C18.7273 13.08 18.6273 13 18.5273 13H16.7373C16.6273 13 16.5273 13.08 16.5173 13.19L16.3473 14.37C16.0773 14.49 15.8173 14.63 15.5873 14.81L14.4773 14.36C14.3773 14.32 14.2573 14.36 14.1973 14.46L13.2973 16.01C13.2473 16.11 13.2573 16.23 13.3473 16.3L14.2973 17.04C14.2773 17.18 14.2673 17.33 14.2673 17.48C14.2673 17.63 14.2773 17.78 14.2973 17.92L13.3473 18.66C13.2673 18.73 13.2373 18.85 13.2973 18.95L14.1973 20.5C14.2473 20.6 14.3673 20.63 14.4773 20.6L15.5873 20.15C15.8173 20.33 16.0673 20.48 16.3473 20.59L16.5173 21.77C16.5373 21.88 16.6273 21.96 16.7373 21.96H18.5273C18.6373 21.96 18.7373 21.88 18.7473 21.77L18.9173 20.59C19.1873 20.47 19.4473 20.33 19.6673 20.15L20.7873 20.6C20.8873 20.64 21.0073 20.6 21.0673 20.5L21.9673 18.95C22.0273 18.86 21.9973 18.74 21.9173 18.67ZM17.6273 18.83C16.8873 18.83 16.2773 18.23 16.2773 17.48C16.2773 16.73 16.8773 16.13 17.6273 16.13C18.3773 16.13 18.9773 16.73 18.9773 17.48C18.9773 18.23 18.3673 18.83 17.6273 18.83Z" fill="black"/>
</g>
<defs>
<clipPath id="clip0_61_17253">
<rect width="24" height="24" fill="white"/>
</clipPath>
</defs>
</svg>
