<svg viewBox="0 0 24 24" xmlns="http://www.w3.org/2000/svg">
<g clip-path="url(#clip0_61_17256)">
<path d="M17.0009 5.21003C17.0009 4.76003 17.5409 4.54003 17.8509 4.86003L20.6409 7.65003C20.8409 7.85003 20.8409 8.16003 20.6409 8.36003L17.8509 11.15C17.5409 11.46 17.0009 11.24 17.0009 10.79V9.00003H14.0009C13.4509 9.00003 13.0009 8.55003 13.0009 8.00003C13.0009 7.45003 13.4509 7.00003 14.0009 7.00003H17.0009V5.21003ZM10.0009 7.00003C9.45094 7.00003 9.00094 7.45003 9.00094 8.00003C9.00094 8.55003 9.45094 9.00003 10.0009 9.00003C10.5509 9.00003 11.0009 8.55003 11.0009 8.00003C11.0009 7.45003 10.5509 7.00003 10.0009 7.00003ZM6.00094 7.00003C5.45094 7.00003 5.00094 7.45003 5.00094 8.00003C5.00094 8.55003 5.45094 9.00003 6.00094 9.00003C6.55094 9.00003 7.00094 8.55003 7.00094 8.00003C7.00094 7.45003 6.55094 7.00003 6.00094 7.00003ZM7.00094 17H10.0009C10.5509 17 11.0009 16.55 11.0009 16C11.0009 15.45 10.5509 15 10.0009 15H7.00094V13.21C7.00094 12.76 6.46094 12.54 6.15094 12.86L3.36094 15.65C3.16094 15.85 3.16094 16.16 3.36094 16.36L6.15094 19.15C6.46094 19.46 7.00094 19.24 7.00094 18.79V17ZM14.0009 17C14.5509 17 15.0009 16.55 15.0009 16C15.0009 15.45 14.5509 15 14.0009 15C13.4509 15 13.0009 15.45 13.0009 16C13.0009 16.55 13.4509 17 14.0009 17ZM18.0009 17C18.5509 17 19.0009 16.55 19.0009 16C19.0009 15.45 18.5509 15 18.0009 15C17.4509 15 17.0009 15.45 17.0009 16C17.0009 16.55 17.4509 17 18.0009 17Z"/>
</g>
<defs>
<clipPath id="clip0_61_17256">
<rect/>
</clipPath>
</defs>
</svg>
