<svg   viewBox="0 0 24 24" fill="none" xmlns="http://www.w3.org/2000/svg">
<g clip-path="url(#clip0_61_17263)">
<path d="M20.9963 18.17L18.9963 16.17V14H17.9963C16.8963 14 15.9963 13.1 15.9963 12V6C15.9963 4.51 17.5963 2.68 19.7563 2.15C20.3863 2 20.9963 2.48 20.9963 3.13V18.17ZM21.1863 22.61C20.7963 23 20.1663 23 19.7763 22.61L10.0163 12.85C9.68625 12.94 9.35625 13 8.99625 13V21C8.99625 21.55 8.54625 22 7.99625 22C7.44625 22 6.99625 21.55 6.99625 21V13C4.78625 13 2.99625 11.21 2.99625 9V5.83L1.38625 4.22C0.99625 3.83 0.99625 3.2 1.38625 2.81C1.77625 2.42 2.40625 2.42 2.79625 2.81L21.1763 21.19C21.5763 21.58 21.5763 22.22 21.1863 22.61ZM6.16625 9L4.99625 7.83V9H6.16625ZM12.9963 9V3C12.9963 2.45 12.5463 2 11.9963 2C11.4463 2 10.9963 2.45 10.9963 3V8.17L12.8463 10.02C12.9363 9.69 12.9963 9.36 12.9963 9ZM8.99625 3C8.99625 2.45 8.54625 2 7.99625 2C7.44625 2 6.99625 2.45 6.99625 3V4.17L8.99625 6.17V3Z" fill="black"/>
</g>
<defs>
<clipPath id="clip0_61_17263">
<rect width="24" height="24" fill="white"/>
</clipPath>
</defs>
</svg>
