<svg   viewBox="0 0 24 24" fill="none" xmlns="http://www.w3.org/2000/svg">
<g clip-path="url(#clip0_61_17264)">
<path d="M5.77719 2.95C7.23719 2.16 9.47719 2 11.9972 2C16.4172 2 19.9972 2.5 19.9972 6V16C19.9972 16.35 19.9172 16.67 19.8072 16.98L13.8272 11H17.9972V6H8.82719L5.77719 2.95ZM20.4872 21.9C20.0972 22.29 19.4672 22.29 19.0772 21.9L18.0672 20.89C17.8872 20.96 17.6972 21 17.4972 21C16.6672 21 15.9972 20.32 15.9972 19.5V19H7.99719V19.5C7.99719 20.33 7.32719 21 6.49719 21C5.66719 21 4.99719 20.33 4.99719 19.5V18.22C4.38719 17.67 3.99719 16.88 3.99719 16V6.83L2.09719 4.93C1.70719 4.54 1.70719 3.91 2.09719 3.52C2.48719 3.13 3.11719 3.13 3.50719 3.52L20.4772 20.49C20.8772 20.88 20.8772 21.51 20.4872 21.9ZM8.99719 15.5C8.99719 14.67 8.32719 14 7.49719 14C6.66719 14 5.99719 14.67 5.99719 15.5C5.99719 16.33 6.66719 17 7.49719 17C8.32719 17 8.99719 16.33 8.99719 15.5ZM8.16719 11L5.99719 8.83V11H8.16719Z" fill="black"/>
</g>
<defs>
<clipPath id="clip0_61_17264">
<rect width="24" height="24" fill="white"/>
</clipPath>
</defs>
</svg>
