<svg   viewBox="0 0 24 24" fill="none" xmlns="http://www.w3.org/2000/svg">
<g clip-path="url(#clip0_61_17269)">
<path d="M21.3089 17.38L18.9189 15.25C19.4389 12.89 17.5589 11 15.4989 11C14.3389 11 11.9989 11.9 11.9989 14.5C11.9989 15.31 12.2689 16.05 12.7389 16.65C12.8889 16.85 12.8789 17.13 12.6989 17.31C12.4889 17.52 12.1389 17.5 11.9489 17.27C11.3489 16.5 10.9989 15.54 10.9989 14.5C10.9989 12.8 11.9589 11.33 13.3489 10.57C12.6489 10.21 11.8689 10 11.0689 10C8.68891 10 6.69891 11.65 6.15891 13.87C4.82891 13.48 3.87891 12.21 4.00891 10.73C4.14891 9.16 5.53891 8 7.10891 8H9.10891C10.6889 8 11.8589 7.05 11.9789 5.75C12.1289 4.25 10.9589 3 9.49891 3H8.04891C7.54891 3 7.08891 3.34 7.00891 3.83C6.90891 4.46 7.38891 5 7.99891 5H9.49891C9.77891 5 9.99891 5.22 9.99891 5.5C9.99891 5.78 9.77891 6 9.49891 6H7.15891C4.48891 6 2.16891 8.03 2.00891 10.7C1.85891 13.25 3.61891 15.42 5.99891 15.9V15.93C5.99891 18.73 8.26891 21 11.0689 21H19.9289C21.7989 21 22.7389 18.66 21.3089 17.38ZM17.9989 19C17.4489 19 16.9989 18.55 16.9989 18C16.9989 17.45 17.4489 17 17.9989 17C18.5489 17 18.9989 17.45 18.9989 18C18.9989 18.55 18.5489 19 17.9989 19Z" fill="black"/>
</g>
<defs>
<clipPath id="clip0_61_17269">
<rect width="24" height="24" fill="white"/>
</clipPath>
</defs>
</svg>
