<svg   viewBox="0 0 24 24" fill="none" xmlns="http://www.w3.org/2000/svg">
<g clip-path="url(#clip0_61_17272)">
<path d="M19.28 4.9301L17.16 2.8101C16.38 2.0301 15.11 2.0301 14.33 2.8101L11.5 5.6401L13.62 7.7601L15.74 5.6401L19.28 9.1801C20.45 8.0001 20.45 6.1001 19.28 4.9301Z" fill="black"/>
<path d="M5.48937 13.7702C6.07937 14.3602 7.02938 14.3602 7.60938 13.7702L10.0794 11.3002L7.95938 9.17017L5.48937 11.6402C4.89938 12.2302 4.89938 13.1802 5.48937 13.7702Z" fill="black"/>
<path d="M14.3262 8.46011L13.6162 9.17011L10.4362 5.99011C9.84618 5.40011 8.89618 5.40011 8.31618 5.99011C7.72618 6.58011 7.72618 7.53011 8.31618 8.11011L11.4962 11.2901L4.49618 18.2901C3.79618 18.9901 3.61618 20.1301 4.20618 20.9401C4.94618 21.9701 6.39618 22.0601 7.25618 21.2001L16.4462 12.0001C16.8362 12.3901 17.4662 12.3901 17.8562 12.0001C18.2462 11.6101 18.2462 10.9801 17.8562 10.5901L15.7362 8.47011C15.3462 8.07011 14.7162 8.07011 14.3262 8.46011Z" fill="black"/>
</g>
<defs>
<clipPath id="clip0_61_17272">
<rect width="24" height="24" fill="white"/>
</clipPath>
</defs>
</svg>
