<svg   viewBox="0 0 24 24" fill="none" xmlns="http://www.w3.org/2000/svg">
<g clip-path="url(#clip0_61_17283)">
<path d="M19.9636 10.59C20.0036 10.28 19.7736 10 19.4636 10H17.0036V8.86C18.5436 8.46 19.7236 7.18 19.9636 5.59C20.0036 5.28 19.7736 5 19.4636 5H17.0036V4C17.0036 3.45 16.5536 3 16.0036 3H8.00359C7.45359 3 7.00359 3.45 7.00359 4V5H4.54359C4.23359 5 4.00359 5.28 4.04359 5.59C4.28359 7.18 5.46359 8.46 7.00359 8.86V10H4.54359C4.23359 10 4.00359 10.28 4.04359 10.59C4.28359 12.18 5.46359 13.46 7.00359 13.86V15H4.54359C4.23359 15 4.00359 15.28 4.04359 15.59C4.28359 17.18 5.46359 18.46 7.00359 18.86V20C7.00359 20.55 7.45359 21 8.00359 21H16.0036C16.5536 21 17.0036 20.55 17.0036 20V18.86C18.5436 18.46 19.7236 17.18 19.9636 15.59C20.0036 15.28 19.7736 15 19.4636 15H17.0036V13.86C18.5436 13.46 19.7236 12.18 19.9636 10.59ZM12.0036 19C10.8936 19 10.0036 18.1 10.0036 17C10.0036 15.9 10.8936 15 12.0036 15C13.1036 15 14.0036 15.9 14.0036 17C14.0036 18.1 13.1136 19 12.0036 19ZM12.0036 14C10.8936 14 10.0036 13.1 10.0036 12C10.0036 10.9 10.8936 10 12.0036 10C13.1036 10 14.0036 10.9 14.0036 12C14.0036 13.1 13.1136 14 12.0036 14ZM12.0036 9C10.8936 9 10.0036 8.1 10.0036 7C10.0036 5.89 10.8936 5 12.0036 5C13.1036 5 14.0036 5.89 14.0036 7C14.0036 8.1 13.1136 9 12.0036 9Z" fill="black"/>
</g>
<defs>
<clipPath id="clip0_61_17283">
<rect width="24" height="24" fill="white"/>
</clipPath>
</defs>
</svg>
