<svg   viewBox="0 0 24 24" fill="none" xmlns="http://www.w3.org/2000/svg">
<g clip-path="url(#clip0_61_17291)">
<path d="M14 10V3.26C13.35 3.09 12.68 3 12 3C7.8 3 4 6.22 4 11.2C4 14.38 6.45 18.12 11.34 22.43C11.72 22.76 12.29 22.76 12.67 22.43C17.55 18.12 20 14.38 20 11.2C20 10.79 19.96 10.39 19.91 10H14ZM12 13C10.9 13 10 12.1 10 11C10 9.9 10.9 9 12 9C13.1 9 14 9.9 14 11C14 12.1 13.1 13 12 13Z" fill="black"/>
<path d="M22.5409 2.87996L21.1209 1.45996L19.0009 3.58996L16.8809 1.45996L15.4609 2.87996L17.5909 4.99996L15.4609 7.11996L16.8809 8.53996L19.0009 6.40996L21.1209 8.53996L22.5409 7.11996L20.4109 4.99996L22.5409 2.87996Z" fill="black"/>
</g>
<defs>
<clipPath id="clip0_61_17291">
<rect width="24" height="24" fill="white"/>
</clipPath>
</defs>
</svg>
