<svg   viewBox="0 0 32 32" fill="none" xmlns="http://www.w3.org/2000/svg">
<path d="M20.0002 27C19.9835 27 19.9669 26.9996 19.9502 26.9988C19.7563 26.9891 19.5693 26.9232 19.4122 26.809C19.2551 26.6949 19.1347 26.5375 19.0656 26.356L11.9187 7.59556L7.9104 16.4138C7.83093 16.5886 7.70282 16.7368 7.54139 16.8407C7.37995 16.9447 7.19201 17 7 17H3C2.73478 17 2.48043 16.8946 2.29289 16.7071C2.10536 16.5196 2 16.2652 2 16C2 15.7348 2.10536 15.4804 2.29289 15.2929C2.48043 15.1054 2.73478 15 3 15H6.35608L11.0896 4.58622C11.1713 4.40656 11.3042 4.25509 11.4718 4.15086C11.6394 4.04663 11.834 3.99431 12.0313 4.00049C12.2285 4.00667 12.4195 4.07107 12.5802 4.18559C12.741 4.3001 12.8642 4.4596 12.9344 4.64402L20.1239 23.5162L24.1056 15.5528C24.1886 15.3867 24.3163 15.247 24.4743 15.1494C24.6322 15.0517 24.8143 15 25 15H29C29.2652 15 29.5196 15.1054 29.7071 15.2929C29.8946 15.4804 30 15.7348 30 16C30 16.2652 29.8946 16.5196 29.7071 16.7071C29.5196 16.8946 29.2652 17 29 17H25.618L20.8944 26.4472C20.8114 26.6133 20.6838 26.753 20.5258 26.8506C20.3679 26.9482 20.1859 27 20.0002 27V27Z" fill="black"/>
</svg>
