<svg   viewBox="0 0 32 32" fill="none" xmlns="http://www.w3.org/2000/svg">
<path d="M16 17.5C16.8284 17.5 17.5 16.8284 17.5 16C17.5 15.1716 16.8284 14.5 16 14.5C15.1716 14.5 14.5 15.1716 14.5 16C14.5 16.8284 15.1716 17.5 16 17.5Z" fill="black"/>
<path d="M23.0685 16.0001L26.533 12.5357C26.9984 12.0716 27.3678 11.5204 27.62 10.9134C27.8721 10.3065 28.0022 9.65583 28.0027 8.9986C28.0032 8.34137 27.8741 7.69048 27.6228 7.08318C27.3715 6.47588 27.003 5.92408 26.5382 5.45935C26.0735 4.99461 25.5217 4.62606 24.9144 4.37477C24.3071 4.12348 23.6562 3.99439 22.999 3.99487C22.3418 3.99536 21.6911 4.12542 21.0841 4.37761C20.4772 4.6298 19.926 4.99917 19.4619 5.46459L15.9974 8.92907L12.533 5.46459C12.0687 5.0003 11.5175 4.632 10.9109 4.38073C10.3042 4.12946 9.65405 4.00013 8.99744 4.00013C8.34084 4.00013 7.69066 4.12946 7.08403 4.38073C6.47741 4.632 5.92621 5.0003 5.46192 5.46459C4.99763 5.92888 4.62933 6.48008 4.37806 7.0867C4.12679 7.69333 3.99746 8.34351 3.99746 9.00011C3.99746 9.65672 4.12679 10.3069 4.37806 10.9135C4.62933 11.5202 4.99763 12.0713 5.46192 12.5356L8.9264 16.0001L5.46192 19.4646C4.99649 19.9286 4.62712 20.4799 4.37493 21.0868C4.12274 21.6937 3.99268 22.3444 3.99219 23.0016C3.9917 23.6589 4.12079 24.3097 4.37208 24.917C4.62336 25.5243 4.99191 26.0761 5.45665 26.5409C5.92138 27.0056 6.47318 27.3742 7.08048 27.6255C7.68778 27.8767 8.33866 28.0058 8.99589 28.0054C9.65313 28.0049 10.3038 27.8748 10.9107 27.6226C11.5177 27.3704 12.0689 27.0011 12.533 26.5356L15.9974 23.0712L19.4619 26.5356C19.9262 26.9999 20.4774 27.3682 21.084 27.6195C21.6907 27.8708 22.3408 28.0001 22.9974 28.0001C23.654 28.0001 24.3042 27.8708 24.9109 27.6195C25.5175 27.3682 26.0687 26.9999 26.533 26.5356C26.9973 26.0713 27.3656 25.5201 27.6168 24.9135C27.8681 24.3069 27.9974 23.6567 27.9974 23.0001C27.9974 22.3435 27.8681 21.6933 27.6168 21.0867C27.3656 20.4801 26.9973 19.9289 26.533 19.4646L23.0685 16.0001ZM15.9974 11.7576L20.24 16.0001L15.9974 20.2427L11.7549 16.0001L15.9974 11.7576ZM20.8762 6.87878C21.1548 6.60004 21.4855 6.37891 21.8495 6.22801C22.2135 6.07712 22.6037 5.99942 22.9978 5.99936C23.3918 5.99929 23.782 6.07686 24.1461 6.22764C24.5102 6.37841 24.841 6.59943 25.1196 6.87808C25.3982 7.15673 25.6192 7.48754 25.77 7.85162C25.9207 8.21569 25.9983 8.60591 25.9982 8.99996C25.9981 9.39401 25.9204 9.78419 25.7695 10.1482C25.6186 10.5122 25.3974 10.8429 25.1187 11.1215L21.6542 14.5859L17.4117 10.3433L20.8762 6.87878ZM11.1187 25.1215C10.8401 25.4002 10.5094 25.6213 10.1454 25.7722C9.78135 25.9231 9.39117 26.0008 8.99712 26.0009C8.60306 26.0009 8.21286 25.9234 7.84879 25.7726C7.48472 25.6218 7.15392 25.4008 6.87529 25.1221C6.59666 24.8435 6.37565 24.5127 6.2249 24.1486C6.07415 23.7845 5.9966 23.3943 5.99669 23.0003C5.99677 22.6062 6.07449 22.216 6.22541 21.852C6.37632 21.488 6.59747 21.1573 6.87623 20.8788L10.3406 17.4144L14.5832 21.6569L11.1187 25.1215Z" fill="black"/>
</svg>
