<svg viewBox="0 0 32 32" xmlns="http://www.w3.org/2000/svg">
<path d="M26 9H3V6C3 5.73478 2.89464 5.48043 2.70711 5.29289C2.51957 5.10536 2.26522 5 2 5C1.73478 5 1.48043 5.10536 1.29289 5.29289C1.10536 5.48043 1 5.73478 1 6V26C1 26.2652 1.10536 26.5196 1.29289 26.7071C1.48043 26.8946 1.73478 27 2 27C2.26522 27 2.51957 26.8946 2.70711 26.7071C2.89464 26.5196 3 26.2652 3 26V22H29V26C29 26.2652 29.1054 26.5196 29.2929 26.7071C29.4804 26.8946 29.7348 27 30 27C30.2652 27 30.5196 26.8946 30.7071 26.7071C30.8946 26.5196 31 26.2652 31 26V14C30.9985 12.6744 30.4712 11.4035 29.5339 10.4661C28.5965 9.52876 27.3256 9.0015 26 9ZM3 11H12V20H3V11Z"/>
</svg>
