<svg   viewBox="0 0 32 32" fill="none" xmlns="http://www.w3.org/2000/svg">
<path d="M31 16.5C30.9985 15.1754 30.6221 13.8784 29.9142 12.7588C29.2064 11.6393 28.196 10.743 27.0001 10.1737L27 9C27.0005 7.71073 26.5855 6.45563 25.8166 5.42075C25.0476 4.38587 23.9657 3.6263 22.7312 3.25463C21.4967 2.88296 20.1752 2.91898 18.9628 3.35736C17.7503 3.79573 16.7114 4.61312 16 5.68836C15.2886 4.61312 14.2497 3.79574 13.0372 3.35736C11.8248 2.91899 10.5034 2.88296 9.26884 3.25462C8.0343 3.62628 6.95239 4.38584 6.18347 5.42071C5.41455 6.45558 4.99955 7.71068 5 8.99994L4.99994 10.1737C3.80311 10.7415 2.79193 11.6372 2.08389 12.7567C1.37584 13.8763 0.999994 15.1738 1 16.4985C1.00001 17.8232 1.37587 19.1206 2.08392 20.2402C2.79198 21.3598 3.80316 22.2555 5 22.8232V23C4.99954 24.2893 5.41452 25.5444 6.18344 26.5793C6.95236 27.6141 8.03427 28.3737 9.26881 28.7454C10.5033 29.117 11.8248 29.081 13.0372 28.6426C14.2497 28.2043 15.2886 27.3869 16 26.3116C16.7114 27.3869 17.7503 28.2043 18.9628 28.6426C20.1752 29.081 21.4967 29.117 22.7312 28.7454C23.9657 28.3737 25.0476 27.6141 25.8166 26.5793C26.5855 25.5444 27.0005 24.2893 27 23V22.8232C28.196 22.2548 29.2065 21.3592 29.9144 20.2401C30.6223 19.121 30.9987 17.8242 31 16.5ZM11 27C10.014 26.9987 9.0632 26.6339 8.32949 25.9752C7.59579 25.3166 7.13078 24.4105 7.0235 23.4304C7.34698 23.4763 7.67328 23.4996 8 23.5H9C9.26522 23.5 9.51957 23.3946 9.70711 23.2071C9.89464 23.0196 10 22.7652 10 22.5C10 22.2348 9.89464 21.9804 9.70711 21.7929C9.51957 21.6054 9.26522 21.5 9 21.5H8C6.82044 21.4998 5.67893 21.0826 4.77718 20.3222C3.87542 19.5618 3.27146 18.5071 3.07201 17.3446C2.87256 16.182 3.09047 14.9863 3.68722 13.9689C4.28397 12.9514 5.22116 12.1776 6.33319 11.7842C6.52816 11.7153 6.69696 11.5877 6.81636 11.4188C6.93575 11.25 6.99987 11.0483 6.99988 10.8415L7 9C7 7.93913 7.42143 6.92172 8.17157 6.17157C8.92172 5.42143 9.93913 5 11 5C12.0609 5 13.0783 5.42143 13.8284 6.17157C14.5786 6.92172 15 7.93913 15 9V18.5327C13.9019 17.545 12.4769 16.999 11 17C10.7348 17 10.4804 17.1054 10.2929 17.2929C10.1054 17.4804 10 17.7348 10 18C10 18.2652 10.1054 18.5196 10.2929 18.7071C10.4804 18.8946 10.7348 19 11 19C12.0609 19 13.0783 19.4214 13.8284 20.1716C14.5786 20.9217 15 21.9391 15 23C15 24.0609 14.5786 25.0783 13.8284 25.8284C13.0783 26.5786 12.0609 27 11 27ZM24 21.5H23C22.7348 21.5 22.4804 21.6054 22.2929 21.7929C22.1054 21.9804 22 22.2348 22 22.5C22 22.7652 22.1054 23.0196 22.2929 23.2071C22.4804 23.3946 22.7348 23.5 23 23.5H24C24.3267 23.4996 24.653 23.4763 24.9765 23.4304C24.8933 24.1987 24.5894 24.9264 24.1014 25.5256C23.6135 26.1248 22.9624 26.5698 22.2269 26.8069C21.4914 27.0439 20.703 27.0629 19.957 26.8614C19.211 26.6599 18.5393 26.2467 18.0231 25.6716C17.507 25.0965 17.1685 24.3843 17.0485 23.6209C16.9285 22.8575 17.0322 22.0757 17.3471 21.37C17.662 20.6643 18.1745 20.065 18.8228 19.6444C19.471 19.2238 20.2273 19 21 19C21.2652 19 21.5196 18.8946 21.7071 18.7071C21.8946 18.5196 22 18.2652 22 18C22 17.7348 21.8946 17.4804 21.7071 17.2929C21.5196 17.1054 21.2652 17 21 17C19.5231 16.999 18.0981 17.545 17 18.5327V9C17 7.93913 17.4214 6.92172 18.1716 6.17158C18.9217 5.42144 19.9392 5.00002 21 5.00003C22.0609 5.00004 23.0783 5.42147 23.8284 6.17163C24.5786 6.92178 25 7.9392 25 9.00006L25.0001 10.8415C25.0001 11.0483 25.0642 11.25 25.1836 11.4188C25.303 11.5877 25.4718 11.7153 25.6668 11.7842C26.7788 12.1776 27.716 12.9514 28.3128 13.9689C28.9095 14.9864 29.1274 16.182 28.928 17.3446C28.7285 18.5072 28.1246 19.5618 27.2228 20.3222C26.3211 21.0826 25.1796 21.4998 24 21.5ZM7.5 16C7.23478 16 6.98043 15.8946 6.79289 15.7071C6.60536 15.5196 6.5 15.2652 6.5 15C6.5 14.7348 6.60536 14.4804 6.79289 14.2929C6.98043 14.1054 7.23478 14 7.5 14C8.16281 13.9993 8.79826 13.7356 9.26694 13.2669C9.73562 12.7983 9.99925 12.1628 10 11.5V10.5C10 10.2348 10.1054 9.98043 10.2929 9.79289C10.4804 9.60536 10.7348 9.5 11 9.5C11.2652 9.5 11.5196 9.60536 11.7071 9.79289C11.8946 9.98043 12 10.2348 12 10.5V11.5C11.9987 12.6931 11.5241 13.8369 10.6805 14.6805C9.83687 15.5241 8.69306 15.9987 7.5 16ZM25.5 15C25.5 15.2652 25.3946 15.5196 25.2071 15.7071C25.0196 15.8946 24.7652 16 24.5 16C23.3069 15.9987 22.1631 15.5241 21.3195 14.6805C20.4759 13.8369 20.0013 12.6931 20 11.5V10.5C20 10.2348 20.1054 9.98043 20.2929 9.79289C20.4804 9.60536 20.7348 9.5 21 9.5C21.2652 9.5 21.5196 9.60536 21.7071 9.79289C21.8946 9.98043 22 10.2348 22 10.5V11.5C22.0007 12.1628 22.2644 12.7983 22.7331 13.2669C23.2017 13.7356 23.8372 13.9993 24.5 14C24.7652 14 25.0196 14.1054 25.2071 14.2929C25.3946 14.4804 25.5 14.7348 25.5 15Z" fill="black"/>
</svg>
