<svg   viewBox="0 0 32 32" fill="none" xmlns="http://www.w3.org/2000/svg">
<path d="M28 8.99997H27.8711C27.7698 8.72948 27.6112 8.48407 27.4062 8.28056C27.2012 8.07704 26.9547 7.92022 26.6835 7.82083L16.6835 4.18442C16.2419 4.02414 15.7581 4.02414 15.3165 4.18442L5.31653 7.82077C5.04531 7.92017 4.79878 8.07701 4.5938 8.28053C4.38882 8.48406 4.23024 8.72947 4.12891 8.99997H4C2.9395 9.00117 1.92279 9.42299 1.1729 10.1729C0.423016 10.9228 0.00120261 11.9395 0 13L0 16C0.00120261 17.0605 0.423016 18.0772 1.1729 18.8271C1.92279 19.577 2.9395 19.9988 4 20H4.6496C5.46972 21.7976 7.05652 23.3748 9.35358 24.6509C11.9814 26.1107 14.7942 26.771 15.5935 26.9384C15.8615 26.9951 16.1384 26.9951 16.4064 26.9384C17.2058 26.771 20.0186 26.1107 22.6464 24.6509C24.9435 23.3748 26.5303 21.7976 27.3504 20H28C29.0605 19.9988 30.0772 19.577 30.8271 18.8271C31.577 18.0772 31.9988 17.0605 32 16V13C31.9988 11.9395 31.577 10.9228 30.8271 10.1729C30.0772 9.42299 29.0605 9.00117 28 8.99997ZM4 18C3.46975 17.9994 2.9614 17.7885 2.58646 17.4135C2.21151 17.0386 2.00061 16.5302 2 16V13C2.00061 12.4697 2.21151 11.9614 2.58646 11.5864C2.9614 11.2115 3.46975 11.0006 4 11V17C4.0002 17.3345 4.02328 17.6686 4.06909 18H4ZM21 19H11C10.7348 19 10.4804 18.8946 10.2929 18.7071C10.1054 18.5195 10 18.2652 10 18C10 17.7348 10.1054 17.4804 10.2929 17.2929C10.4804 17.1053 10.7348 17 11 17H21C21.2652 17 21.5196 17.1053 21.7071 17.2929C21.8946 17.4804 22 17.7348 22 18C22 18.2652 21.8946 18.5195 21.7071 18.7071C21.5196 18.8946 21.2652 19 21 19ZM21 15H11C10.7348 15 10.4804 14.8946 10.2929 14.7071C10.1054 14.5195 10 14.2652 10 14C10 13.7348 10.1054 13.4804 10.2929 13.2929C10.4804 13.1053 10.7348 13 11 13H21C21.2652 13 21.5196 13.1053 21.7071 13.2929C21.8946 13.4804 22 13.7348 22 14C22 14.2652 21.8946 14.5195 21.7071 14.7071C21.5196 14.8946 21.2652 15 21 15ZM30 16C29.9994 16.5302 29.7885 17.0386 29.4135 17.4135C29.0386 17.7885 28.5302 17.9994 28 18H27.9309C27.9767 17.6686 27.9998 17.3345 28 17V11C28.5302 11.0006 29.0386 11.2115 29.4135 11.5864C29.7885 11.9614 29.9994 12.4697 30 13V16Z" fill="black"/>
</svg>
