<svg viewBox="0 0 32 32" xmlns="http://www.w3.org/2000/svg">
<path d="M29 13V19C28.9994 19.5302 28.7885 20.0386 28.4135 20.4135C28.0386 20.7885 27.5302 20.9994 27 21H21V27C20.9994 27.5302 20.7885 28.0386 20.4135 28.4135C20.0386 28.7885 19.5302 28.9994 19 29H13C12.4698 28.9994 11.9614 28.7885 11.5865 28.4135C11.2115 28.0386 11.0006 27.5302 11 27V21H5C4.46975 20.9994 3.9614 20.7885 3.58646 20.4135C3.21151 20.0386 3.00061 19.5302 3 19V13C3.00061 12.4698 3.21151 11.9614 3.58646 11.5865C3.9614 11.2115 4.46975 11.0006 5 11H11V5C11.0006 4.46975 11.2115 3.9614 11.5865 3.58646C11.9614 3.21151 12.4698 3.00061 13 3H19C19.5302 3.00061 20.0386 3.21151 20.4135 3.58646C20.7885 3.9614 20.9994 4.46975 21 5V11H27C27.5302 11.0006 28.0386 11.2115 28.4135 11.5865C28.7885 11.9614 28.9994 12.4698 29 13Z"/>
</svg>
