<svg viewBox="0 0 32 32" xmlns="http://www.w3.org/2000/svg">
<path d="M27.9483 24.9711L19.9995 11.723V5H20.9995C21.2647 5 21.519 4.89464 21.7066 4.70711C21.8941 4.51957 21.9995 4.26522 21.9995 4C21.9995 3.73478 21.8941 3.48043 21.7066 3.29289C21.519 3.10536 21.2647 3 20.9995 3H10.9995C10.7342 3 10.4799 3.10536 10.2924 3.29289C10.1048 3.48043 9.99946 3.73478 9.99946 4C9.99946 4.26522 10.1048 4.51957 10.2924 4.70711C10.4799 4.89464 10.7342 5 10.9995 5H11.9995V11.723L6.97785 20.0924C6.97235 20.1012 6.96705 20.1101 6.96186 20.1191L4.05067 24.971C3.86856 25.2745 3.77025 25.6209 3.76578 25.9748C3.76132 26.3287 3.85084 26.6774 4.02523 26.9854C4.19962 27.2934 4.45261 27.5496 4.75839 27.7279C5.06416 27.9061 5.41176 28 5.7657 28H26.2332C26.5872 28 26.9347 27.9061 27.2405 27.7279C27.5463 27.5496 27.7993 27.2935 27.9737 26.9855C28.1481 26.6775 28.2376 26.3287 28.2331 25.9748C28.2287 25.6209 28.1304 25.2746 27.9483 24.9711V24.9711ZM13.7144 12.7521C13.9009 12.4412 13.9995 12.0855 13.9995 11.723V5H17.9995V11.723C17.9995 12.0855 18.098 12.4412 18.2845 12.752L23.1424 20.8485C21.504 21.7375 19.2117 21.488 16.4467 20.1056C14.665 19.2147 12.3633 18.4154 10.1578 18.6796L13.7144 12.7521Z"/>
</svg>
