<svg viewBox="0 0 32 32" xmlns="http://www.w3.org/2000/svg">
<path d="M23 12.1006V11C22.9988 9.93951 22.577 8.9228 21.8271 8.17291C21.0772 7.42303 20.0605 7.00121 19 7H17V4H21C21.2651 4.0003 21.5193 4.10576 21.7068 4.29323C21.8942 4.4807 21.9997 4.73488 22 5C22 5.26522 22.1054 5.51957 22.2929 5.70711C22.4804 5.89464 22.7348 6 23 6C23.2652 6 23.5196 5.89464 23.7071 5.70711C23.8946 5.51957 24 5.26522 24 5C23.9991 4.20463 23.6827 3.4421 23.1203 2.87968C22.5579 2.31727 21.7954 2.00091 21 2H13C12.7348 2 12.4804 2.10536 12.2929 2.29289C12.1054 2.48043 12 2.73478 12 3C12 3.26522 12.1054 3.51957 12.2929 3.70711C12.4804 3.89464 12.7348 4 13 4H15V7H13C11.9395 7.00121 10.9228 7.42303 10.1729 8.17291C9.42303 8.9228 9.00121 9.93951 9 11V12.1006C7.87147 12.3326 6.85743 12.9466 6.1288 13.839C5.40016 14.7315 5.0015 15.8479 5 17V27C5.00061 27.5302 5.21151 28.0386 5.58646 28.4135C5.9614 28.7885 6.46975 28.9994 7 29H25C25.5302 28.9994 26.0386 28.7885 26.4135 28.4135C26.7885 28.0386 26.9994 27.5302 27 27V17C26.9985 15.8479 26.5998 14.7315 25.8712 13.839C25.1426 12.9466 24.1285 12.3326 23 12.1006V12.1006ZM13 9H19C19.5302 9.00061 20.0386 9.21151 20.4135 9.58646C20.7885 9.9614 20.9994 10.4698 21 11V12H11V11C11.0006 10.4698 11.2115 9.9614 11.5865 9.58646C11.9614 9.21151 12.4698 9.00061 13 9Z"/>
</svg>
