<svg   viewBox="0 0 32 32" fill="none" xmlns="http://www.w3.org/2000/svg">
<path d="M26.7078 5.29303C26.0896 4.67488 25.3558 4.18453 24.5481 3.84999C23.7405 3.51545 22.8748 3.34326 22.0006 3.34326C21.1264 3.34326 20.2608 3.51545 19.4531 3.84999C18.6455 4.18453 17.9116 4.67488 17.2935 5.29303L5.29347 17.293C4.04507 18.5414 3.34374 20.2347 3.34375 22.0002C3.34376 23.7657 4.04512 25.4589 5.29353 26.7073C6.54195 27.9557 8.23516 28.657 10.0007 28.657C11.7662 28.657 13.4594 27.9556 14.7078 26.7072L26.7078 14.7072C27.9543 13.4578 28.6544 11.765 28.6544 10.0001C28.6544 8.23524 27.9543 6.54242 26.7078 5.29303V5.29303ZM25.2935 13.293L20.0006 18.5859L13.4148 12.0001L18.7078 6.70721C19.5812 5.83422 20.7656 5.34387 22.0005 5.34402C23.2353 5.34417 24.4196 5.8348 25.2928 6.708C26.166 7.58121 26.6566 8.76549 26.6567 10.0004C26.6569 11.2353 26.1665 12.4196 25.2935 13.293V13.293ZM23.7805 10.366C23.8718 10.4605 23.9435 10.572 23.9917 10.6942C24.0398 10.8163 24.0634 10.9468 24.0611 11.0781C24.0589 11.2094 24.0307 11.339 23.9784 11.4594C23.926 11.5799 23.8505 11.6888 23.756 11.78L20.704 14.728C20.6096 14.8194 20.4981 14.8913 20.3759 14.9395C20.2536 14.9878 20.1231 15.0115 19.9917 15.0092C19.8604 15.007 19.7307 14.9789 19.6102 14.9266C19.4897 14.8742 19.3807 14.7986 19.2894 14.7041C19.1981 14.6096 19.1264 14.498 19.0782 14.3758C19.0301 14.2535 19.0065 14.123 19.0088 13.9916C19.0112 13.8602 19.0394 13.7306 19.0919 13.6102C19.1443 13.4897 19.22 13.3808 19.3146 13.2896L22.3666 10.3416C22.461 10.2503 22.5725 10.1785 22.6947 10.1304C22.8169 10.0822 22.9473 10.0586 23.0786 10.0609C23.2099 10.0632 23.3395 10.0913 23.4599 10.1436C23.5804 10.196 23.6893 10.2716 23.7805 10.366V10.366Z" fill="black"/>
</svg>
