<svg viewBox="0 0 32 32" xmlns="http://www.w3.org/2000/svg">
<path d="M22.9142 23.5L25.7071 20.7071C25.8944 20.5195 25.9996 20.2652 25.9995 20.0001C25.9995 19.735 25.8941 19.4808 25.7066 19.2934C25.5192 19.1059 25.265 19.0005 24.9999 19.0005C24.7348 19.0004 24.4805 19.1056 24.2929 19.2929L21.5 22.0858L16.2859 16.8717C17.8661 16.5528 19.2714 15.6581 20.2289 14.3612C21.1865 13.0644 21.628 11.458 21.4678 9.85395C21.3076 8.24989 20.557 6.7626 19.3618 5.68083C18.1666 4.59907 16.6121 4.00003 15 4H9C8.73478 4 8.48043 4.10536 8.2929 4.2929C8.10536 4.48043 8 4.73478 8 5V24C8 24.2652 8.10536 24.5196 8.29289 24.7071C8.48043 24.8946 8.73478 25 9 25C9.26522 25 9.51957 24.8946 9.70711 24.7071C9.89464 24.5196 10 24.2652 10 24V17H13.5858L20.0858 23.5L17.2929 26.2929C17.2 26.3857 17.1262 26.496 17.0759 26.6173C17.0255 26.7387 16.9996 26.8688 16.9996 27.0001C16.9995 27.1315 17.0254 27.2616 17.0756 27.383C17.1259 27.5044 17.1996 27.6146 17.2925 27.7075C17.3854 27.8004 17.4956 27.8741 17.617 27.9244C17.7384 27.9746 17.8685 28.0005 17.9999 28.0004C18.1312 28.0004 18.2613 27.9745 18.3827 27.9241C18.504 27.8738 18.6143 27.8 18.7071 27.7071L21.5 24.9142L24.2929 27.7071C24.4805 27.8944 24.7348 27.9996 24.9999 27.9995C25.265 27.9995 25.5192 27.8941 25.7066 27.7066C25.8941 27.5192 25.9995 27.265 25.9995 26.9999C25.9996 26.7348 25.8944 26.4805 25.7071 26.2929L22.9142 23.5ZM10 6H15C16.1935 6 17.3381 6.47411 18.182 7.31802C19.0259 8.16193 19.5 9.30653 19.5 10.5C19.5 11.6935 19.0259 12.8381 18.182 13.682C17.3381 14.5259 16.1935 15 15 15H10V6Z"/>
</svg>
