<svg viewBox="0 0 32 32" xmlns="http://www.w3.org/2000/svg">
<path d="M29.7096 10.7929L22.2096 3.29288C22.022 3.10535 21.7677 3 21.5024 3C21.2372 3 20.9829 3.10535 20.7953 3.29288L7.80179 16.2865L7.80032 16.2879L4.54532 19.5429C3.49584 20.5924 2.90624 22.0158 2.90625 23.5C2.90626 24.9842 3.49586 26.4076 4.54535 27.4571C5.59485 28.5066 7.01827 29.0962 8.50247 29.0962C9.98667 29.0962 11.4101 28.5066 12.4596 27.4571L22.2031 17.7136L22.2047 17.7119L26.5426 13.374L29.3187 12.4486C29.4804 12.3947 29.6257 12.3004 29.7407 12.1746C29.8557 12.0488 29.9366 11.8956 29.9757 11.7297C30.0149 11.5638 30.011 11.3907 29.9644 11.2267C29.9178 11.0627 29.8301 10.9134 29.7096 10.7929H29.7096ZM25.6862 11.5513C25.539 11.6004 25.4051 11.6831 25.2953 11.7929L20.8455 16.2427C20.577 16.4326 18.6087 17.6851 15.4497 16.1056C14.0749 15.4181 12.8483 15.1517 11.802 15.1146L21.5025 5.41422L27.1513 11.063L25.6862 11.5513Z"/>
</svg>
