<svg   viewBox="0 0 32 32" fill="none" xmlns="http://www.w3.org/2000/svg">
<path d="M23 15C23 15.1313 22.9741 15.2614 22.9239 15.3827C22.8736 15.504 22.8 15.6143 22.7071 15.7071C22.6143 15.8 22.504 15.8736 22.3827 15.9239C22.2614 15.9741 22.1313 16 22 16H20C19.7348 16 19.4804 15.8946 19.2929 15.7071C19.1054 15.5196 19 15.2652 19 15C19 14.7348 19.1054 14.4804 19.2929 14.2929C19.4804 14.1054 19.7348 14 20 14H22C22.1313 14 22.2614 14.0259 22.3827 14.0761C22.504 14.1264 22.6143 14.2 22.7071 14.2929C22.8 14.3857 22.8736 14.496 22.9239 14.6173C22.9741 14.7386 23 14.8687 23 15ZM30 15V26C29.9994 26.5302 29.7885 27.0386 29.4135 27.4135C29.0386 27.7885 28.5302 27.9994 28 28H14C13.4698 27.9994 12.9614 27.7885 12.5865 27.4135C12.2115 27.0386 12.0006 26.5302 12 26V23.2932C10.9215 25.0461 9.52281 26 8 26C6.26593 26 4.69263 24.7635 3.57007 22.5182C2.55756 20.4933 2 17.8233 2 15C2 12.1767 2.55756 9.50662 3.57007 7.48172C4.69263 5.23648 6.26593 4 8 4H24C25.7341 4 27.3074 5.23648 28.4299 7.48172C29.4424 9.50662 30 12.1767 30 15ZM9.5 15C9.5 14.7033 9.41203 14.4133 9.2472 14.1666C9.08238 13.92 8.84811 13.7277 8.57403 13.6142C8.29994 13.5006 7.99834 13.4709 7.70736 13.5288C7.41639 13.5867 7.14912 13.7296 6.93934 13.9393C6.72956 14.1491 6.5867 14.4164 6.52882 14.7074C6.47094 14.9983 6.50065 15.2999 6.61418 15.574C6.72771 15.8481 6.91997 16.0824 7.16664 16.2472C7.41332 16.412 7.70333 16.5 8 16.5C8.39782 16.5 8.77936 16.342 9.06066 16.0607C9.34196 15.7794 9.5 15.3978 9.5 15ZM28 16H26C25.7348 16 25.4804 15.8946 25.2929 15.7071C25.1054 15.5196 25 15.2652 25 15C25 14.7348 25.1054 14.4804 25.2929 14.2929C25.4804 14.1054 25.7348 14 26 14H27.9743C27.7302 9.23746 25.7706 6 24 6H11.5151C11.8665 6.46369 12.1728 6.95985 12.4299 7.48172C13.322 9.26575 13.8604 11.5508 13.976 14H16C16.2652 14 16.5196 14.1054 16.7071 14.2929C16.8946 14.4804 17 14.7348 17 15C17 15.2652 16.8946 15.5196 16.7071 15.7071C16.5196 15.8946 16.2652 16 16 16H14V26H28V16Z" fill="black"/>
</svg>
