<svg   viewBox="0 0 32 32" fill="none" xmlns="http://www.w3.org/2000/svg">
<path d="M26.2546 26.2531C28.4024 24.1052 25.5532 17.7735 19.8906 12.1109C14.228 6.44832 7.89635 3.59908 5.74846 5.74696C3.60058 7.89484 6.44982 14.2265 12.1124 19.8891C17.775 25.5517 24.1067 28.4009 26.2546 26.2531Z" stroke="black" stroke-width="2" stroke-linecap="round" stroke-linejoin="round"/>
<path d="M19.8906 19.8891C25.5532 14.2265 28.4024 7.89483 26.2546 5.74694C24.1067 3.59906 17.775 6.4483 12.1124 12.1109C6.44982 17.7735 3.60058 24.1052 5.74846 26.253C7.89635 28.4009 14.228 25.5517 19.8906 19.8891Z" stroke="black" stroke-width="2" stroke-linecap="round" stroke-linejoin="round"/>
<path d="M16 17.5C16.8284 17.5 17.5 16.8284 17.5 16C17.5 15.1716 16.8284 14.5 16 14.5C15.1716 14.5 14.5 15.1716 14.5 16C14.5 16.8284 15.1716 17.5 16 17.5Z" fill="black"/>
</svg>
