<svg viewBox="0 0 32 32" xmlns="http://www.w3.org/2000/svg">
<path d="M20.5 10C21.3284 10 22 9.32843 22 8.5C22 7.67157 21.3284 7 20.5 7C19.6716 7 19 7.67157 19 8.5C19 9.32843 19.6716 10 20.5 10Z"/>
<path d="M15 17L10 23" stroke-width="2" stroke-linecap="round" stroke-linejoin="round"/>
<path d="M26 12V15C26 18.1826 24.7357 21.2349 22.4853 23.4853C20.2348 25.7357 17.1826 27 14 27H1L13 12V9.50001C13.0002 7.91912 13.5765 6.39248 14.621 5.20578C15.6655 4.01909 17.1066 3.25366 18.6747 3.05273C20.2428 2.85181 21.8303 3.22917 23.1403 4.11418C24.4502 4.9992 25.3928 6.33122 25.7916 7.86098L29 10L26 12Z" stroke-width="2" stroke-linecap="round" stroke-linejoin="round"/>
</svg>
