<svg   viewBox="0 0 32 32" fill="none" xmlns="http://www.w3.org/2000/svg">
<path d="M16 24V28" stroke="black" stroke-width="2" stroke-linecap="round" stroke-linejoin="round"/>
<path d="M10.5 19C11.3284 19 12 18.3284 12 17.5C12 16.6716 11.3284 16 10.5 16C9.67157 16 9 16.6716 9 17.5C9 18.3284 9.67157 19 10.5 19Z" fill="black"/>
<path d="M21.5 19C22.3284 19 23 18.3284 23 17.5C23 16.6716 22.3284 16 21.5 16C20.6716 16 20 16.6716 20 17.5C20 18.3284 20.6716 19 21.5 19Z" fill="black"/>
<path d="M16 6V11" stroke="black" stroke-width="2" stroke-linecap="round" stroke-linejoin="round"/>
<path d="M18 22L16 24L14 22" stroke="black" stroke-width="2" stroke-linecap="round" stroke-linejoin="round"/>
<path d="M12 6.6261V11" stroke="black" stroke-width="2" stroke-linecap="round" stroke-linejoin="round"/>
<path d="M20 6.6261V11" stroke="black" stroke-width="2" stroke-linecap="round" stroke-linejoin="round"/>
<path d="M4 17V6.41419C4 6.2164 4.05865 6.02306 4.16853 5.85861C4.27841 5.69417 4.43459 5.56599 4.61732 5.49031C4.80004 5.41462 5.00111 5.39481 5.19509 5.4334C5.38907 5.47198 5.56725 5.56723 5.70711 5.70708L8.44979 8.44976L8.44975 8.44971C10.6452 6.85741 13.2879 5.99997 16 5.99997C18.7121 5.99997 21.3548 6.85741 23.5503 8.44971L23.5502 8.44976L26.2929 5.70708C26.4327 5.56722 26.6109 5.47198 26.8049 5.4334C26.9989 5.39481 27.2 5.41462 27.3827 5.49031C27.5654 5.56599 27.7216 5.69417 27.8315 5.85862C27.9414 6.02306 28 6.2164 28 6.41419V17C28 23.0751 22.6274 28 16 28C9.37258 28 4 23.0751 4 17Z" stroke="black" stroke-width="2" stroke-linecap="round" stroke-linejoin="round"/>
</svg>
