<svg   viewBox="0 0 32 32" fill="none" xmlns="http://www.w3.org/2000/svg">
<path d="M11.0032 18.5C11.0032 16.8189 11.5017 15.1755 12.4357 13.7777C13.3697 12.3798 14.6972 11.2904 16.2504 10.647C17.8036 10.0037 19.5126 9.83535 21.1615 10.1633C22.8103 10.4913 24.3249 11.3008 25.5136 12.4896C26.7023 13.6783 27.5119 15.1929 27.8399 16.8417C28.1678 18.4906 27.9995 20.1996 27.3562 21.7528C26.7128 23.306 25.6234 24.6335 24.2255 25.5675C22.8277 26.5015 21.1843 27 19.5032 27H9.50319C8.70462 26.9993 7.91577 26.8248 7.19147 26.4884C6.46717 26.1521 5.82479 25.6621 5.30899 25.0525C4.79319 24.4428 4.41634 23.7281 4.20462 22.9581C3.99291 22.1881 3.95141 21.3813 4.08301 20.5936C4.21461 19.806 4.51616 19.0564 4.96669 18.3971C5.41723 17.7377 6.00594 17.1844 6.69191 16.7755C7.37789 16.3667 8.14467 16.1121 8.93896 16.0295C9.73325 15.9469 10.536 16.0383 11.2914 16.2972" stroke="black" stroke-width="2" stroke-linecap="round" stroke-linejoin="round"/>
<path d="M5.87415 17.3661C4.7119 16.8715 3.68297 16.1093 2.87123 15.1416C2.05949 14.1738 1.48793 13.028 1.20312 11.7974L1.20315 11.7973C2.52508 12.1005 3.90236 12.063 5.20581 11.6882C6.50927 11.3135 7.69617 10.6138 8.65519 9.65475C9.6142 8.69574 10.3139 7.50883 10.6887 6.20538C11.0634 4.90193 11.1009 3.52465 10.7977 2.20272L10.7978 2.2027C12.5609 2.60979 14.134 3.60234 15.2605 5.01841C16.3869 6.43449 17.0003 8.1905 17.0004 9.99997C17.0004 10.1262 16.9975 10.2517 16.9917 10.3764" stroke="black" stroke-width="2" stroke-linecap="round" stroke-linejoin="round"/>
</svg>
