<svg viewBox="0 0 32 32" xmlns="http://www.w3.org/2000/svg">
<path d="M11.0032 18.5C11.0032 16.8189 11.5017 15.1755 12.4357 13.7777C13.3697 12.3798 14.6972 11.2904 16.2504 10.647C17.8036 10.0037 19.5126 9.83535 21.1615 10.1633C22.8103 10.4913 24.3249 11.3008 25.5136 12.4896C26.7023 13.6783 27.5119 15.1929 27.8399 16.8417C28.1678 18.4906 27.9995 20.1996 27.3562 21.7528C26.7128 23.306 25.6234 24.6335 24.2255 25.5675C22.8277 26.5015 21.1843 27 19.5032 27H9.50319C8.70462 26.9993 7.91577 26.8248 7.19147 26.4884C6.46717 26.1521 5.82479 25.6621 5.30899 25.0525C4.79319 24.4428 4.41634 23.7281 4.20462 22.9581C3.99291 22.1881 3.95141 21.3813 4.08301 20.5936C4.21461 19.806 4.51616 19.0564 4.96669 18.3971C5.41723 17.7377 6.00594 17.1844 6.69191 16.7755C7.37789 16.3667 8.14467 16.1121 8.93896 16.0295C9.73325 15.9469 10.536 16.0383 11.2914 16.2972" stroke-width="2" stroke-linecap="round" stroke-linejoin="round"/>
<path d="M9.95844 7.09126L9.4375 4.13684" stroke-width="2" stroke-linecap="round" stroke-linejoin="round"/>
<path d="M6.08246 9.55722L3.625 7.83649" stroke-width="2" stroke-linecap="round" stroke-linejoin="round"/>
<path d="M5.09505 14.0391L2.14062 14.56" stroke-width="2" stroke-linecap="round" stroke-linejoin="round"/>
<path d="M14.4375 8.08569L16.1582 5.62823" stroke-width="2" stroke-linecap="round" stroke-linejoin="round"/>
<path d="M6.45713 16.9192C5.89419 16.2666 5.4784 15.5005 5.23807 14.6728C4.99773 13.8452 4.93848 12.9755 5.06434 12.1229C5.19021 11.2703 5.49824 10.4549 5.96748 9.73199C6.43672 9.0091 7.05616 8.39577 7.78365 7.93372C8.51115 7.47166 9.32963 7.17172 10.1834 7.05431C11.0372 6.93689 11.9063 7.00475 12.7315 7.25328C13.5567 7.5018 14.3187 7.92515 14.9657 8.49454C15.6126 9.06392 16.1294 9.76597 16.4807 10.5529" stroke-width="2" stroke-linecap="round" stroke-linejoin="round"/>
</svg>
