<svg   viewBox="0 0 32 32" fill="none" xmlns="http://www.w3.org/2000/svg">
<path d="M11.0032 11.5C11.0032 9.81886 11.5017 8.17547 12.4357 6.77766C13.3697 5.37984 14.6972 4.29037 16.2504 3.64703C17.8036 3.00368 19.5126 2.83535 21.1615 3.16333C22.8103 3.4913 24.3249 4.30085 25.5136 5.4896C26.7023 6.67834 27.5119 8.1929 27.8399 9.84174C28.1678 11.4906 27.9995 13.1996 27.3562 14.7528C26.7128 16.306 25.6234 17.6335 24.2255 18.5675C22.8277 19.5015 21.1843 20 19.5032 20H9.50319C8.70462 19.9993 7.91577 19.8248 7.19147 19.4884C6.46717 19.1521 5.82479 18.6621 5.30899 18.0525C4.79319 17.4428 4.41634 16.7281 4.20462 15.9581C3.99291 15.1881 3.95141 14.3813 4.08301 13.5936C4.21461 12.806 4.51616 12.0564 4.96669 11.3971C5.41723 10.7377 6.00594 10.1844 6.69191 9.77553C7.37789 9.36667 8.14467 9.1121 8.93896 9.0295C9.73325 8.94691 10.536 9.03827 11.2914 9.29724" stroke="black" stroke-width="2" stroke-linecap="round" stroke-linejoin="round"/>
<path d="M9.5 26C10.3284 26 11 25.3284 11 24.5C11 23.6716 10.3284 23 9.5 23C8.67157 23 8 23.6716 8 24.5C8 25.3284 8.67157 26 9.5 26Z" fill="black"/>
<path d="M14.5 28C15.3284 28 16 27.3284 16 26.5C16 25.6716 15.3284 25 14.5 25C13.6716 25 13 25.6716 13 26.5C13 27.3284 13.6716 28 14.5 28Z" fill="black"/>
<path d="M20.5 26C21.3284 26 22 25.3284 22 24.5C22 23.6716 21.3284 23 20.5 23C19.6716 23 19 23.6716 19 24.5C19 25.3284 19.6716 26 20.5 26Z" fill="black"/>
<path d="M8.5 31C9.32843 31 10 30.3284 10 29.5C10 28.6716 9.32843 28 8.5 28C7.67157 28 7 28.6716 7 29.5C7 30.3284 7.67157 31 8.5 31Z" fill="black"/>
<path d="M19.5 31C20.3284 31 21 30.3284 21 29.5C21 28.6716 20.3284 28 19.5 28C18.6716 28 18 28.6716 18 29.5C18 30.3284 18.6716 31 19.5 31Z" fill="black"/>
</svg>
