<svg   viewBox="0 0 32 32" fill="none" xmlns="http://www.w3.org/2000/svg">
<path d="M15 24H9" stroke="black" stroke-width="2" stroke-linecap="round" stroke-linejoin="round"/>
<path d="M23 24H20" stroke="black" stroke-width="2" stroke-linecap="round" stroke-linejoin="round"/>
<path d="M20 28H13" stroke="black" stroke-width="2" stroke-linecap="round" stroke-linejoin="round"/>
<path d="M11.0032 11.5C11.0032 9.81886 11.5017 8.17547 12.4357 6.77766C13.3697 5.37984 14.6972 4.29037 16.2504 3.64703C17.8036 3.00368 19.5126 2.83535 21.1615 3.16333C22.8103 3.4913 24.3249 4.30085 25.5136 5.4896C26.7023 6.67834 27.5119 8.1929 27.8399 9.84174C28.1678 11.4906 27.9995 13.1996 27.3562 14.7528C26.7128 16.306 25.6234 17.6335 24.2255 18.5675C22.8277 19.5015 21.1843 20 19.5032 20H9.50319C8.70462 19.9993 7.91577 19.8248 7.19147 19.4884C6.46717 19.1521 5.82479 18.6621 5.30899 18.0525C4.79319 17.4428 4.41634 16.7281 4.20462 15.9581C3.99291 15.1881 3.95141 14.3813 4.08301 13.5936C4.21461 12.806 4.51616 12.0564 4.96669 11.3971C5.41723 10.7377 6.00594 10.1844 6.69191 9.77553C7.37789 9.36667 8.14467 9.1121 8.93896 9.0295C9.73325 8.94691 10.536 9.03827 11.2914 9.29724" stroke="black" stroke-width="2" stroke-linecap="round" stroke-linejoin="round"/>
</svg>
