<svg   viewBox="0 0 32 32" fill="none" xmlns="http://www.w3.org/2000/svg">
<path d="M22.4235 18.5C22.2108 19.8621 21.571 21.1214 20.5962 22.0962C19.6214 23.071 18.3621 23.7109 17 23.9235" stroke="black" stroke-width="2" stroke-linecap="round" stroke-linejoin="round"/>
<path d="M9.00449 8.16968C7.07472 11.0788 5.5 14.4019 5.5 17.5C5.5 20.2848 6.60625 22.9555 8.57538 24.9246C10.5445 26.8938 13.2152 28 16 28C18.7848 28 21.4555 26.8938 23.4246 24.9246C25.3938 22.9555 26.5 20.2848 26.5 17.5C26.5 11 22 6.00001 18.3529 2.35895L18.3528 2.35905L14 11.5L9.00463 8.16976L9.00449 8.16968Z" stroke="black" stroke-width="2" stroke-linecap="round" stroke-linejoin="round"/>
</svg>
