<svg viewBox="0 0 32 32" xmlns="http://www.w3.org/2000/svg">
<path d="M16 19.5C17.933 19.5 19.5 17.933 19.5 16C19.5 14.067 17.933 12.5 16 12.5C14.067 12.5 12.5 14.067 12.5 16C12.5 17.933 14.067 19.5 16 19.5Z" stroke-width="2" stroke-linecap="round" stroke-linejoin="round"/>
<path d="M14.3785 12.8978C13.4629 10.9723 12.5 8.5735 12.5 7C12.5 6.07174 12.8687 5.1815 13.5251 4.52513C14.1815 3.86875 15.0717 3.5 16 3.5C16.9283 3.5 17.8185 3.86875 18.4749 4.52513C19.1313 5.1815 19.5 6.07174 19.5 7C19.5 8.5735 18.5371 10.9723 17.6215 12.8978" stroke-width="2" stroke-linecap="round" stroke-linejoin="round"/>
<path d="M12.4992 15.8531C10.3738 15.6834 7.81497 15.3178 6.45227 14.5311C5.64866 14.0668 5.06234 13.3024 4.82226 12.4059C4.58219 11.5094 4.708 10.5542 5.17204 9.7505C5.63609 8.94675 6.40036 8.36022 7.29679 8.11989C8.19321 7.87955 9.1484 8.0051 9.95227 8.46891C11.315 9.25566 12.911 11.2889 14.1207 13.0447" stroke-width="2" stroke-linecap="round" stroke-linejoin="round"/>
<path d="M14.1207 18.9553C12.911 20.7111 11.315 22.7443 9.95227 23.5311C9.1484 23.9949 8.19321 24.1204 7.29679 23.8801C6.40036 23.6398 5.63609 23.0532 5.17204 22.2495C4.708 21.4457 4.58219 20.4906 4.82226 19.5941C5.06234 18.6976 5.64866 17.9332 6.45227 17.4689C7.81497 16.6822 10.3738 16.3166 12.4992 16.1469" stroke-width="2" stroke-linecap="round" stroke-linejoin="round"/>
<path d="M17.6215 19.1022C18.5371 21.0277 19.5 23.4265 19.5 25C19.5 25.9282 19.1313 26.8185 18.4749 27.4749C17.8185 28.1312 16.9283 28.5 16 28.5C15.0717 28.5 14.1815 28.1312 13.5251 27.4749C12.8687 26.8185 12.5 25.9282 12.5 25C12.5 23.4265 13.4629 21.0277 14.3785 19.1022" stroke-width="2" stroke-linecap="round" stroke-linejoin="round"/>
<path d="M19.4965 16.1469C21.6218 16.3166 24.1807 16.6821 25.5434 17.4689C26.347 17.9332 26.9333 18.6976 27.1734 19.5941C27.4135 20.4906 27.2877 21.4457 26.8236 22.2495C26.3596 23.0532 25.5953 23.6398 24.6989 23.8801C23.8024 24.1204 22.8473 23.9949 22.0434 23.5311C20.6807 22.7443 19.0847 20.7111 17.875 18.9553" stroke-width="2" stroke-linecap="round" stroke-linejoin="round"/>
<path d="M17.875 13.0447C19.0847 11.2889 20.6807 9.25566 22.0434 8.46891C22.8473 8.0051 23.8024 7.87955 24.6989 8.11989C25.5953 8.36022 26.3596 8.94675 26.8236 9.7505C27.2877 10.5542 27.4135 11.5094 27.1734 12.4059C26.9333 13.3024 26.347 14.0668 25.5434 14.5311C24.1807 15.3178 21.6218 15.6834 19.4965 15.8531" stroke-width="2" stroke-linecap="round" stroke-linejoin="round"/>
</svg>
