<svg viewBox="0 0 32 32" xmlns="http://www.w3.org/2000/svg">
<path d="M16 25C18 25 21.307 24.9775 25.1112 22.7811C28.9154 20.5847 30.1465 17.8333 30.5404 16.4247C30.5758 16.2973 30.5854 16.1642 30.5687 16.0331C30.5521 15.902 30.5095 15.7756 30.4434 15.6611C30.3773 15.5467 30.2891 15.4465 30.1839 15.3665C30.0787 15.2866 29.9586 15.2283 29.8306 15.1953C28.9079 14.9588 27.3145 14.745 25.2645 15.2313" stroke-width="2" stroke-linecap="round" stroke-linejoin="round"/>
<path d="M6.73379 15.2312C4.68395 14.745 3.09059 14.9588 2.16791 15.1953C2.03995 15.2283 1.91987 15.2866 1.81466 15.3665C1.70945 15.4465 1.62123 15.5467 1.55516 15.6611C1.48908 15.7755 1.44647 15.902 1.42981 16.0331C1.41315 16.1642 1.42278 16.2973 1.45814 16.4247C1.85206 17.8333 3.08311 20.5847 6.88734 22.7811C10.6916 24.9775 13.9986 25 15.9986 25" stroke-width="2" stroke-linecap="round" stroke-linejoin="round"/>
<path d="M16 25C16 25 21 22.2727 21 15C21 9.30196 17.9308 6.39411 16.6017 5.40203C16.428 5.27204 16.2169 5.20178 16 5.20178C15.7831 5.20178 15.572 5.27204 15.3983 5.40203C14.0692 6.39411 11 9.30196 11 15C11 22.2727 16 25 16 25Z" stroke-width="2" stroke-linecap="round" stroke-linejoin="round"/>
<path d="M16 25C17.4988 24.6812 21.5413 22.4023 23.9641 18.2058C26.387 14.0093 25.7902 10.6584 25.3169 9.20099C25.2407 8.96583 25.0801 8.76726 24.866 8.64367C24.6519 8.52007 24.3996 8.48023 24.1579 8.53185C22.7247 8.85677 21.3843 9.50375 20.2383 10.4237" stroke-width="2" stroke-linecap="round" stroke-linejoin="round"/>
<path d="M11.7655 10.4237C10.6195 9.50373 9.27912 8.85676 7.84596 8.53185C7.60422 8.48023 7.35193 8.52007 7.13786 8.64367C6.92379 8.76726 6.76314 8.96583 6.68698 9.20099C6.21365 10.6584 5.6169 14.0093 8.03975 18.2058C10.4626 22.4023 14.5051 24.6812 16.0039 25" stroke-width="2" stroke-linecap="round" stroke-linejoin="round"/>
</svg>
