<svg viewBox="0 0 32 32" xmlns="http://www.w3.org/2000/svg">
<path d="M27 14V8" stroke-width="2" stroke-linecap="round" stroke-linejoin="round"/>
<path d="M30 11H24" stroke-width="2" stroke-linecap="round" stroke-linejoin="round"/>
<path d="M21 3V7" stroke-width="2" stroke-linecap="round" stroke-linejoin="round"/>
<path d="M23 5H19" stroke-width="2" stroke-linecap="round" stroke-linejoin="round"/>
<path d="M27.0828 19.0812C25.1198 19.6267 23.0471 19.641 21.0767 19.1228C19.1064 18.6046 17.3089 17.5724 15.8683 16.1317C14.4276 14.6911 13.3954 12.8937 12.8772 10.9233C12.359 8.95291 12.3733 6.88025 12.9188 4.91724L12.9191 4.91733C10.983 5.45595 9.22171 6.49249 7.81085 7.92367C6.39998 9.35486 5.38873 11.1307 4.87785 13.0744C4.36696 15.0181 4.37427 17.0617 4.89905 19.0016C5.42382 20.9416 6.44774 22.7102 7.86881 24.1313C9.28988 25.5523 11.0585 26.5762 12.9985 27.101C14.9384 27.6257 16.982 27.633 18.9257 27.1221C20.8694 26.6112 22.6452 25.5999 24.0764 24.1891C25.5076 22.7782 26.5441 21.0169 27.0827 19.0808L27.0828 19.0812Z" stroke-width="2" stroke-linecap="round" stroke-linejoin="round"/>
</svg>
