<svg viewBox="0 0 32 32" xmlns="http://www.w3.org/2000/svg">
<path d="M26.5 16C27.8807 16 29 14.8807 29 13.5C29 12.1193 27.8807 11 26.5 11C25.1193 11 24 12.1193 24 13.5C24 14.8807 25.1193 16 26.5 16Z" stroke-width="2" stroke-linecap="round" stroke-linejoin="round"/>
<path d="M5.5 16C6.88071 16 8 14.8807 8 13.5C8 12.1193 6.88071 11 5.5 11C4.11929 11 3 12.1193 3 13.5C3 14.8807 4.11929 16 5.5 16Z" stroke-width="2" stroke-linecap="round" stroke-linejoin="round"/>
<path d="M11.5 10C12.8807 10 14 8.88071 14 7.5C14 6.11929 12.8807 5 11.5 5C10.1193 5 9 6.11929 9 7.5C9 8.88071 10.1193 10 11.5 10Z" stroke-width="2" stroke-linecap="round" stroke-linejoin="round"/>
<path d="M20.5 10C21.8807 10 23 8.88071 23 7.5C23 6.11929 21.8807 5 20.5 5C19.1193 5 18 6.11929 18 7.5C18 8.88071 19.1193 10 20.5 10Z" stroke-width="2" stroke-linecap="round" stroke-linejoin="round"/>
<path d="M22.9032 19.4817C21.649 18.785 20.7205 17.6213 20.3198 16.2437L20.3197 16.2438C20.0478 15.3082 19.4795 14.4862 18.7003 13.9012C17.9211 13.3162 16.9731 13 15.9987 13C15.0244 13 14.0764 13.3162 13.2972 13.9012C12.518 14.4862 11.9497 15.3082 11.6778 16.2438L11.6777 16.2437C11.277 17.6213 10.3485 18.785 9.09428 19.4817C8.19079 19.9714 7.5104 20.7901 7.19415 21.7679C6.8779 22.7457 6.95004 23.8077 7.39562 24.7338C7.84119 25.6598 8.62603 26.3789 9.58745 26.742C10.5489 27.1051 11.6131 27.0843 12.5596 26.6839C14.7633 25.7803 17.2342 25.7803 19.4379 26.6839C20.3844 27.0847 21.449 27.1058 22.4107 26.7428C23.3724 26.3799 24.1575 25.6607 24.6031 24.7344C25.0488 23.8081 25.1209 22.7458 24.8044 21.7678C24.4879 20.7899 23.8071 19.9712 22.9032 19.4817H22.9032Z" stroke-width="2" stroke-linecap="round" stroke-linejoin="round"/>
</svg>
