<svg viewBox="0 0 32 32" xmlns="http://www.w3.org/2000/svg">
<path d="M19 25C17.3431 25 16 23.6071 16 21.8889C16 20.1707 17.3431 18.7778 19 18.7778C19.3777 18.7774 19.7519 18.8509 20.1014 18.9941L20.1012 18.9941C20.2914 18.0675 20.7405 17.2139 21.3964 16.5323C22.0523 15.8507 22.888 15.3691 23.8066 15.1435C24.7252 14.9178 25.689 14.9573 26.586 15.2574C27.4831 15.5575 28.2766 16.1059 28.8745 16.8389C29.4723 17.5719 29.8501 18.4595 29.9637 19.3985C30.0774 20.3376 29.9225 21.2896 29.5168 22.1441C29.1111 22.9986 28.4714 23.7205 27.6719 24.226C26.8724 24.7315 25.9459 24.9999 25 25H19Z" stroke-width="2" stroke-linecap="round" stroke-linejoin="round"/>
<path d="M2 22V20C2 17.6409 2.69534 15.3342 3.99911 13.3681C5.30287 11.402 7.15722 9.86386 9.33035 8.94585C11.5035 8.02785 13.899 7.77074 16.2174 8.20666C18.5359 8.64259 20.6744 9.75221 22.3657 11.3968" stroke-width="2" stroke-linecap="round" stroke-linejoin="round"/>
<path d="M6 22V20C6.00013 18.5214 6.40999 17.0718 7.1841 15.812C7.95821 14.5522 9.06627 13.5316 10.3853 12.8635C11.7043 12.1953 13.1827 11.9057 14.6563 12.0269C16.13 12.1481 17.5412 12.6752 18.7333 13.5499" stroke-width="2" stroke-linecap="round" stroke-linejoin="round"/>
<path d="M10 22V20C10.0005 19.396 10.1377 18.7999 10.4013 18.2564C10.6649 17.7129 11.0481 17.2361 11.5221 16.8617C11.9962 16.4873 12.5488 16.2251 13.1385 16.0946C13.7283 15.9641 14.34 15.9687 14.9277 16.1081" stroke-width="2" stroke-linecap="round" stroke-linejoin="round"/>
</svg>
