<svg viewBox="0 0 32 32" xmlns="http://www.w3.org/2000/svg">
<path d="M17.3384 21.9331L14.9363 28.4531C14.8656 28.645 14.7377 28.8106 14.57 28.9276C14.4022 29.0446 14.2025 29.1074 13.998 29.1074C13.7934 29.1074 13.5938 29.0446 13.426 28.9276C13.2582 28.8106 13.1304 28.645 13.0596 28.4531L10.6575 21.9331C10.6075 21.7973 10.5286 21.674 10.4263 21.5717C10.324 21.4694 10.2007 21.3905 10.0649 21.3404L3.54492 18.9383C3.35298 18.8676 3.18734 18.7398 3.07035 18.572C2.95335 18.4042 2.89062 18.2046 2.89062 18C2.89062 17.7955 2.95335 17.5958 3.07035 17.428C3.18734 17.2602 3.35298 17.1324 3.54492 17.0617L10.0649 14.6596C10.2007 14.6095 10.324 14.5306 10.4263 14.4283C10.5286 14.326 10.6075 14.2027 10.6575 14.0669L13.0596 7.54693C13.1304 7.35499 13.2582 7.18936 13.426 7.07236C13.5938 6.95537 13.7934 6.89264 13.998 6.89264C14.2025 6.89264 14.4022 6.95537 14.57 7.07236C14.7377 7.18936 14.8656 7.35499 14.9363 7.54693L17.3384 14.0669C17.3885 14.2027 17.4673 14.326 17.5697 14.4283C17.672 14.5306 17.7953 14.6095 17.9311 14.6596L24.4511 17.0617C24.643 17.1324 24.8086 17.2602 24.9256 17.428C25.0426 17.5958 25.1053 17.7955 25.1053 18C25.1053 18.2046 25.0426 18.4042 24.9256 18.572C24.8086 18.7398 24.643 18.8676 24.4511 18.9383L17.9311 21.3404C17.7953 21.3905 17.672 21.4694 17.5697 21.5717C17.4673 21.674 17.3885 21.7973 17.3384 21.9331V21.9331Z" stroke-width="2" stroke-linecap="round" stroke-linejoin="round"/>
<path d="M22 2V8" stroke-width="2" stroke-linecap="round" stroke-linejoin="round"/>
<path d="M25 5H19" stroke-width="2" stroke-linecap="round" stroke-linejoin="round"/>
<path d="M28 9V13" stroke-width="2" stroke-linecap="round" stroke-linejoin="round"/>
<path d="M30 11H26" stroke-width="2" stroke-linecap="round" stroke-linejoin="round"/>
</svg>
