<svg   viewBox="0 0 32 32" fill="none" xmlns="http://www.w3.org/2000/svg">
<path d="M19.844 20.4385L16.9433 28.4155C16.8732 28.6085 16.7453 28.7751 16.5772 28.8929C16.4091 29.0106 16.2088 29.0738 16.0035 29.0738C15.7982 29.0738 15.5979 29.0106 15.4298 28.8929C15.2617 28.7751 15.1339 28.6085 15.0637 28.4155L12.163 20.4385C12.1131 20.3012 12.0336 20.1765 11.9303 20.0732C11.827 19.9699 11.7023 19.8904 11.5649 19.8405L3.58795 16.9398C3.39503 16.8696 3.22838 16.7418 3.11062 16.5737C2.99286 16.4055 2.92969 16.2052 2.92969 16C2.92969 15.7947 2.99286 15.5944 3.11062 15.4263C3.22838 15.2581 3.39503 15.1303 3.58795 15.0602L11.5649 12.1595C11.7023 12.1095 11.827 12.0301 11.9303 11.9268C12.0336 11.8234 12.1131 11.6987 12.163 11.5614L15.0637 3.58441C15.1339 3.39149 15.2617 3.22484 15.4298 3.10708C15.5979 2.98932 15.7982 2.92615 16.0035 2.92615C16.2088 2.92615 16.4091 2.98932 16.5772 3.10708C16.7453 3.22484 16.8732 3.39149 16.9433 3.58441L19.844 11.5614C19.894 11.6987 19.9734 11.8234 20.0767 11.9268C20.18 12.0301 20.3048 12.1095 20.4421 12.1595L28.4191 15.0602C28.612 15.1303 28.7786 15.2581 28.8964 15.4263C29.0142 15.5944 29.0773 15.7947 29.0773 16C29.0773 16.2052 29.0142 16.4055 28.8964 16.5737C28.7786 16.7418 28.612 16.8696 28.4191 16.9398L20.4421 19.8405C20.3048 19.8904 20.18 19.9699 20.0767 20.0732C19.9734 20.1765 19.894 20.3012 19.844 20.4385Z" stroke="black" stroke-width="2" stroke-linecap="round" stroke-linejoin="round"/>
</svg>
