<svg viewBox="0 0 32 32" xmlns="http://www.w3.org/2000/svg">
<path d="M12 18.3782V6C12 4.93913 12.4214 3.92172 13.1716 3.17157C13.9217 2.42143 14.9391 2 16 2C17.0609 2 18.0783 2.42143 18.8284 3.17157C19.5786 3.92172 20 4.93913 20 6V18.3782L20.001 18.3769C21.0676 19.21 21.8476 20.3552 22.2321 21.6528C22.6166 22.9504 22.5866 24.3357 22.146 25.6153C21.7055 26.895 20.8766 28.0053 19.7748 28.7912C18.673 29.5772 17.3534 29.9996 16 29.9996C14.6466 29.9996 13.327 29.5772 12.2252 28.7912C11.1234 28.0053 10.2945 26.895 9.85396 25.6153C9.41345 24.3357 9.38336 22.9504 9.76789 21.6528C10.1524 20.3552 10.9324 19.21 11.999 18.3769L12 18.3782Z" stroke-width="2" stroke-linecap="round" stroke-linejoin="round"/>
<path d="M16 26C17.3807 26 18.5 24.8807 18.5 23.5C18.5 22.1193 17.3807 21 16 21C14.6193 21 13.5 22.1193 13.5 23.5C13.5 24.8807 14.6193 26 16 26Z" stroke-width="2" stroke-linecap="round" stroke-linejoin="round"/>
<path d="M16 21V11" stroke-width="2" stroke-linecap="round" stroke-linejoin="round"/>
</svg>
