<svg viewBox="0 0 32 32" xmlns="http://www.w3.org/2000/svg">
<path d="M15 26C16.3807 26 17.5 24.8807 17.5 23.5C17.5 22.1193 16.3807 21 15 21C13.6193 21 12.5 22.1193 12.5 23.5C12.5 24.8807 13.6193 26 15 26Z" stroke-width="2" stroke-linecap="round" stroke-linejoin="round"/>
<path d="M15 21V6" stroke-width="2" stroke-linecap="round" stroke-linejoin="round"/>
<path d="M30.032 9.99999C29.5632 10.4688 28.9273 10.7322 28.2642 10.7322C27.6012 10.7322 26.9653 10.4688 26.4965 9.99999C26.0276 9.53115 25.3917 9.26776 24.7287 9.26776C24.0657 9.26776 23.4298 9.53115 22.9609 9.99999" stroke-width="2" stroke-linecap="round" stroke-linejoin="round"/>
<path d="M30.032 15C29.5632 15.4688 28.9273 15.7322 28.2642 15.7322C27.6012 15.7322 26.9653 15.4688 26.4965 15C26.0276 14.5312 25.3917 14.2678 24.7287 14.2678C24.0657 14.2678 23.4298 14.5312 22.9609 15" stroke-width="2" stroke-linecap="round" stroke-linejoin="round"/>
<path d="M11 18.3782V6C11 4.93913 11.4214 3.92172 12.1716 3.17157C12.9217 2.42143 13.9391 2 15 2C16.0609 2 17.0783 2.42143 17.8284 3.17157C18.5786 3.92172 19 4.93913 19 6V18.3782L19.001 18.3769C20.0676 19.21 20.8476 20.3552 21.2321 21.6528C21.6166 22.9504 21.5866 24.3357 21.146 25.6153C20.7055 26.895 19.8766 28.0053 18.7748 28.7912C17.673 29.5772 16.3534 29.9996 15 29.9996C13.6466 29.9996 12.327 29.5772 11.2252 28.7912C10.1234 28.0053 9.29448 26.895 8.85396 25.6153C8.41345 24.3357 8.38336 22.9504 8.76789 21.6528C9.15243 20.3552 9.93241 19.21 10.999 18.3769L11 18.3782Z" stroke-width="2" stroke-linecap="round" stroke-linejoin="round"/>
</svg>
