<svg viewBox="0 0 32 32" xmlns="http://www.w3.org/2000/svg">
<path d="M16 29V11" stroke-width="2" stroke-linecap="round" stroke-linejoin="round"/>
<path d="M16 19L10 16" stroke-width="2" stroke-linecap="round" stroke-linejoin="round"/>
<path d="M16 16L22 13" stroke-width="2" stroke-linecap="round" stroke-linejoin="round"/>
<path d="M16.5606 22.6533C17.4785 23.2659 18.5131 23.6821 19.5996 23.8755C20.686 24.0689 21.8007 24.0355 22.8736 23.7772C23.9464 23.519 24.9543 23.0416 25.8337 22.375C26.7132 21.7085 27.4452 20.8671 27.9837 19.904C28.5223 18.9408 28.8558 17.8766 28.9632 16.7783C29.0705 15.6801 28.9495 14.5714 28.6077 13.5222C28.2659 12.473 27.7107 11.5058 26.9771 10.6815C26.2434 9.85717 25.3471 9.19358 24.3446 8.73243C24.1177 8.62787 23.9382 8.44203 23.8417 8.21162C23.1933 6.66734 22.1033 5.34892 20.7084 4.42176C19.3136 3.4946 17.676 3 16.0011 3C14.3263 3 12.6887 3.4946 11.2938 4.42176C9.89897 5.34892 8.80898 6.66734 8.16059 8.21162C8.06402 8.44204 7.88458 8.62787 7.65768 8.73244C6.65497 9.19349 5.7585 9.85703 5.02467 10.6813C4.29083 11.5056 3.73549 12.4729 3.39358 13.5222C3.05167 14.5715 2.93058 15.6802 3.03794 16.7786C3.14529 17.877 3.47877 18.9413 4.01738 19.9046C4.556 20.8679 5.28811 21.7093 6.16767 22.3759C7.04723 23.0425 8.05521 23.5199 9.12821 23.7781C10.2012 24.0362 11.316 24.0696 12.4026 23.876C13.4891 23.6824 14.5238 23.2662 15.4416 22.6533C15.6071 22.5423 15.8019 22.483 16.0011 22.483C16.2004 22.483 16.3952 22.5423 16.5606 22.6533Z" stroke-width="2" stroke-linecap="round" stroke-linejoin="round"/>
</svg>
