<svg viewBox="0 0 32 32" xmlns="http://www.w3.org/2000/svg">
<path d="M22 25C22 25.7956 21.6839 26.5587 21.1213 27.1213C20.5587 27.6839 19.7956 28 19 28C18.2044 28 17.4413 27.6839 16.8787 27.1213C16.3161 26.5587 16 25.7956 16 25V17" stroke-width="2" stroke-linecap="round" stroke-linejoin="round"/>
<path d="M4.03965 17C3.9009 16.9997 3.76372 16.9706 3.63679 16.9146C3.50986 16.8586 3.39594 16.7768 3.30223 16.6745C3.20853 16.5722 3.13709 16.4515 3.09243 16.3201C3.04777 16.1888 3.03085 16.0496 3.04276 15.9113C3.3159 12.6634 4.7991 9.63649 7.19849 7.43041C9.59788 5.22433 12.7384 4 15.9978 4C19.2573 4 22.3978 5.22433 24.7972 7.43041C27.1966 9.63649 28.6797 12.6634 28.9529 15.9113C28.9648 16.0496 28.9479 16.1888 28.9032 16.3201C28.8586 16.4515 28.7871 16.5722 28.6934 16.6745C28.5997 16.7768 28.4858 16.8586 28.3589 16.9146C28.2319 16.9706 28.0948 16.9997 27.956 17H4.03965Z" stroke-width="2" stroke-linecap="round" stroke-linejoin="round"/>
<path d="M11 17C11 8 16 4 16 4C16 4 21 8 21 17" stroke-width="2" stroke-linecap="round" stroke-linejoin="round"/>
</svg>
