<svg viewBox="0 0 32 32" xmlns="http://www.w3.org/2000/svg">
<path d="M16.1856 24.0411C16.3757 24.5552 16.7031 25.0075 17.1322 25.3487C17.5613 25.6899 18.0756 25.9071 18.6194 25.9765C19.1632 26.046 19.7157 25.9651 20.2168 25.7428C20.7178 25.5204 21.1484 25.165 21.4617 24.7151C21.775 24.2652 21.9591 23.7381 21.9939 23.191C22.0288 22.6439 21.913 22.0977 21.6593 21.6118C21.4056 21.1258 21.0236 20.7186 20.5548 20.4345C20.0859 20.1503 19.5482 20.0001 19 20H5" stroke-width="2" stroke-linecap="round" stroke-linejoin="round"/>
<path d="M12.1856 7.95894C12.3757 7.44477 12.7031 6.99251 13.1322 6.6513C13.5613 6.31009 14.0756 6.09296 14.6194 6.02349C15.1632 5.95402 15.7157 6.03487 16.2168 6.25725C16.7178 6.47964 17.1484 6.83506 17.4617 7.28492C17.775 7.73478 17.9591 8.26189 17.9939 8.80899C18.0288 9.3561 17.913 9.90229 17.6593 10.3883C17.4056 10.8742 17.0236 11.2814 16.5548 11.5655C16.0859 11.8497 15.5482 11.9999 15 12H3" stroke-width="2" stroke-linecap="round" stroke-linejoin="round"/>
<path d="M23.1856 11.9589C23.3757 11.4448 23.7031 10.9925 24.1322 10.6513C24.5613 10.3101 25.0756 10.093 25.6194 10.0235C26.1632 9.95402 26.7157 10.0349 27.2168 10.2573C27.7178 10.4796 28.1484 10.8351 28.4617 11.2849C28.775 11.7348 28.9591 12.2619 28.9939 12.809C29.0288 13.3561 28.913 13.9023 28.6593 14.3883C28.4056 14.8742 28.0236 15.2814 27.5548 15.5655C27.0859 15.8497 26.5482 15.9999 26 16H4" stroke-width="2" stroke-linecap="round" stroke-linejoin="round"/>
</svg>
