<svg   viewBox="0 0 32 32" fill="none" xmlns="http://www.w3.org/2000/svg">
<path d="M16 28C22.6274 28 28 22.6274 28 16C28 9.37258 22.6274 4 16 4C9.37258 4 4 9.37258 4 16C4 22.6274 9.37258 28 16 28Z" stroke="black" stroke-width="2" stroke-linecap="round" stroke-linejoin="round"/>
<path d="M11.5 17.5C12.3284 17.5 13 16.8284 13 16C13 15.1716 12.3284 14.5 11.5 14.5C10.6716 14.5 10 15.1716 10 16C10 16.8284 10.6716 17.5 11.5 17.5Z" fill="black"/>
<path d="M20.5 17.5C21.3284 17.5 22 16.8284 22 16C22 15.1716 21.3284 14.5 20.5 14.5C19.6716 14.5 19 15.1716 19 16C19 16.8284 19.6716 17.5 20.5 17.5Z" fill="black"/>
<path d="M19.3141 21.0004C18.3306 21.6523 17.1768 22 15.9969 22C14.817 22.0001 13.6632 21.6524 12.6797 21.0005" stroke="black" stroke-width="2" stroke-linecap="round" stroke-linejoin="round"/>
<path d="M16 4C14 6.5 14 9 14 9C14 9.53043 14.2107 10.0391 14.5858 10.4142C14.9609 10.7893 15.4696 11 16 11C16.5304 11 17.0391 10.7893 17.4142 10.4142C17.7893 10.0391 18 9.53043 18 9" stroke="black" stroke-width="2" stroke-linecap="round" stroke-linejoin="round"/>
</svg>
