<svg viewBox="0 0 32 32" xmlns="http://www.w3.org/2000/svg">
<path d="M14.998 13.3024L11.748 7.67324C11.4171 7.09907 11.3277 6.41703 11.4995 5.777C11.6713 5.13697 12.0902 4.59133 12.6641 4.25999C13.238 3.92865 13.9199 3.83872 14.5601 4.00997C15.2003 4.18122 15.7463 4.59963 16.0781 5.17324L21.0781 13.8335" stroke-width="2" stroke-linecap="round" stroke-linejoin="round"/>
<path d="M11.1719 16.6684L6.42192 8.44114C6.25744 8.15681 6.15061 7.84285 6.10753 7.5172C6.06445 7.19156 6.08597 6.86062 6.17085 6.54329C6.25574 6.22597 6.40232 5.92849 6.60224 5.66784C6.80215 5.4072 7.05146 5.18851 7.33594 5.02427C7.62041 4.86003 7.93446 4.75346 8.26014 4.71065C8.58582 4.66784 8.91674 4.68964 9.23399 4.77479C9.55125 4.85994 9.84861 5.00677 10.1091 5.2069C10.3696 5.40703 10.588 5.65653 10.752 5.94114L15.002 13.3024" stroke-width="2" stroke-linecap="round" stroke-linejoin="round"/>
<path d="M19.252 20.6636C18.5889 19.5152 18.4093 18.1504 18.7525 16.8695C19.0957 15.5886 19.9337 14.4965 21.0821 13.8335L19.8321 11.6684C19.6676 11.3841 19.5608 11.0701 19.5177 10.7445C19.4746 10.4189 19.4961 10.0879 19.581 9.77059C19.6659 9.45327 19.8125 9.15578 20.0124 8.89514C20.2123 8.63449 20.4616 8.4158 20.7461 8.25156C21.0306 8.08732 21.3446 7.98075 21.6703 7.93795C21.996 7.89514 22.3269 7.91693 22.6442 8.00208C22.9614 8.08723 23.2588 8.23407 23.5193 8.4342C23.7797 8.63433 23.9982 8.88383 24.1622 9.16844L26.6622 13.4986C27.3192 14.6359 27.7457 15.8914 27.9173 17.1936C28.089 18.4957 28.0024 19.8189 27.6626 21.0876C27.3228 22.3563 26.7364 23.5456 25.937 24.5877C25.1375 25.6297 24.1405 26.504 23.0031 27.1607C21.8656 27.8175 20.61 28.2437 19.3078 28.415C18.0056 28.5864 16.6824 28.4995 15.4138 28.1595C14.1452 27.8194 12.956 27.2327 11.9141 26.433C10.8723 25.6333 9.99816 24.6362 9.34171 23.4986L4.09171 14.4053C3.76085 13.8311 3.67149 13.1491 3.84327 12.509C4.01506 11.869 4.43392 11.3234 5.00782 10.992C5.58171 10.6607 6.26369 10.5708 6.90386 10.742C7.54403 10.9133 8.09002 11.3317 8.42184 11.9053L11.1718 16.6684" stroke-width="2" stroke-linecap="round" stroke-linejoin="round"/>
<path d="M10.1368 30.0003C8.44183 28.8243 7.02895 27.2868 6 25.4988" stroke-width="2" stroke-linecap="round" stroke-linejoin="round"/>
<path d="M22 3.875C23.141 3.87485 24.2618 4.17519 25.2498 4.74581C26.2379 5.31643 27.0582 6.1372 27.6282 7.12554" stroke-width="2" stroke-linecap="round" stroke-linejoin="round"/>
</svg>
