<svg   viewBox="0 0 32 32" fill="none" xmlns="http://www.w3.org/2000/svg">
<path d="M16 13C16 13.7956 15.6839 14.5587 15.1213 15.1213C14.5587 15.6839 13.7956 16 13 16C12.2044 16 11.4413 15.6839 10.8787 15.1213C10.3161 14.5587 10 13.7956 10 13V8C10 7.20435 10.3161 6.44129 10.8787 5.87868C11.4413 5.31607 12.2044 5 13 5C13.7956 5 14.5587 5.31607 15.1213 5.87868C15.6839 6.44129 16 7.20435 16 8V13Z" stroke="black" stroke-width="2" stroke-linecap="round" stroke-linejoin="round"/>
<path d="M16 8C16 7.20435 16.3161 6.44129 16.8787 5.87868C17.4413 5.31607 18.2044 5 19 5C19.7956 5 20.5587 5.31607 21.1213 5.87868C21.6839 6.44129 22 7.20435 22 8V11" stroke="black" stroke-width="2" stroke-linecap="round" stroke-linejoin="round"/>
<path d="M16 22C16 20.6739 16.5268 19.4021 17.4645 18.4645C18.4021 17.5268 19.6739 17 21 17H19C18.2044 17 17.4413 16.6839 16.8787 16.1213C16.3161 15.5587 16 14.7956 16 14V12C16 11.7348 16.1054 11.4804 16.2929 11.2929C16.4804 11.1054 16.7348 11 17 11H25C25.7956 11 26.5587 11.3161 27.1213 11.8787C27.6839 12.4413 28 13.2044 28 14V16C28 19.1826 26.7357 22.2348 24.4853 24.4853C22.2348 26.7357 19.1826 28 16 28C12.8174 28 9.76516 26.7357 7.51472 24.4853C5.26428 22.2348 4 19.1826 4 16V11C4 10.2044 4.31607 9.44129 4.87868 8.87868C5.44129 8.31607 6.20435 8 7 8C7.79565 8 8.55871 8.31607 9.12132 8.87868C9.68393 9.44129 10 10.2044 10 11V13C10 13.7956 9.68393 14.5587 9.12132 15.1213C8.55871 15.6839 7.79565 16 7 16C6.20435 16 5.44129 15.6839 4.87868 15.1213C4.31607 14.5587 4 13.7956 4 13" stroke="black" stroke-width="2" stroke-linecap="round" stroke-linejoin="round"/>
</svg>
