<svg   viewBox="0 0 32 32" fill="none" xmlns="http://www.w3.org/2000/svg">
<path d="M6.47252 15.2378C6.32486 14.9817 6.1282 14.7573 5.89378 14.5773C5.65935 14.3973 5.39176 14.2652 5.10629 14.1886C4.82081 14.1121 4.52305 14.0925 4.23001 14.1311C3.93698 14.1696 3.6544 14.2655 3.39844 14.4133C3.14247 14.5611 2.91813 14.7578 2.73823 14.9923C2.55833 15.2268 2.4264 15.4945 2.34997 15.78C2.27354 16.0655 2.25411 16.3633 2.29279 16.6563C2.33147 16.9493 2.42751 17.2319 2.57541 17.4878L7.20041 25.4985C8.39388 27.5656 10.3596 29.074 12.6653 29.6918C14.9709 30.3096 17.4275 29.9862 19.4946 28.7927C21.5618 27.5992 23.0702 25.6335 23.688 23.3279C24.3058 21.0222 23.9823 18.5656 22.7889 16.4985L20.6639 12.8179C20.3655 12.3011 19.8741 11.924 19.2976 11.7695C18.7212 11.6151 18.1071 11.696 17.5903 11.9943C17.0735 12.2927 16.6964 12.7841 16.542 13.3605C16.3875 13.9369 16.4684 14.5511 16.7667 15.0679" stroke="black" stroke-width="2" stroke-linecap="round" stroke-linejoin="round"/>
<path d="M13.3704 18.1839L8.62044 9.95667C8.32207 9.43988 7.83063 9.06278 7.25422 8.90834C6.67782 8.75389 6.06367 8.83475 5.54688 9.13311C5.03009 9.43148 4.65299 9.92292 4.49855 10.4993C4.3441 11.0757 4.42495 11.6899 4.72332 12.2067L9.47332 20.4339" stroke="black" stroke-width="2" stroke-linecap="round" stroke-linejoin="round"/>
<path d="M18.7683 18.5319L13.5183 9.43867C13.2198 8.92218 12.7284 8.54538 12.1522 8.39111C11.5759 8.23685 10.9619 8.31775 10.4453 8.61602C9.92869 8.9143 9.55166 9.40554 9.39712 9.98173C9.24259 10.5579 9.3232 11.1719 9.62124 11.6887" stroke="black" stroke-width="2" stroke-linecap="round" stroke-linejoin="round"/>
<path d="M12.3826 8.4641L11.0897 6.22467C10.942 5.96863 10.7454 5.7442 10.511 5.56419C10.2765 5.38418 10.0089 5.25212 9.72348 5.17556C9.438 5.09899 9.14024 5.07943 8.8472 5.11797C8.55416 5.15651 8.27159 5.25242 8.01563 5.4002C7.75966 5.54798 7.53532 5.74474 7.35542 5.97925C7.17552 6.21376 7.04359 6.48141 6.96716 6.76692C6.89073 7.05243 6.8713 7.3502 6.90998 7.64322C6.94866 7.93624 7.04469 8.21877 7.19259 8.47466L7.48548 8.98196" stroke="black" stroke-width="2" stroke-linecap="round" stroke-linejoin="round"/>
<path d="M23.5015 23.9394C25.0265 22.5577 26.0321 20.6953 26.3509 18.6624C26.6697 16.6295 26.2825 14.5487 25.2538 12.7665L23.1288 9.08587C22.9811 8.82984 22.7844 8.60541 22.55 8.4254C22.3156 8.24539 22.048 8.11333 21.7625 8.03676C21.4771 7.9602 21.1793 7.94063 20.8863 7.97918C20.5932 8.01772 20.3107 8.11362 20.0547 8.2614C19.7987 8.40919 19.5744 8.60595 19.3945 8.84046C19.2146 9.07496 19.0826 9.34262 19.0062 9.62813C18.9298 9.91364 18.9104 10.2114 18.949 10.5044C18.9877 10.7974 19.0838 11.08 19.2317 11.3359" stroke="black" stroke-width="2" stroke-linecap="round" stroke-linejoin="round"/>
<path d="M19.5306 11.8433L15.9876 5.70667C15.8399 5.45078 15.6432 5.2265 15.4088 5.04663C15.1744 4.86675 14.9068 4.73481 14.6214 4.65834C14.045 4.50389 13.4309 4.58474 12.9141 4.88311C12.3973 5.18148 12.0202 5.67292 11.8657 6.24933C11.7113 6.82573 11.7921 7.43988 12.0905 7.95667" stroke="black" stroke-width="2" stroke-linecap="round" stroke-linejoin="round"/>
<path d="M22.1036 1.40894L21.5859 3.34079" stroke="black" stroke-width="2" stroke-linecap="round" stroke-linejoin="round"/>
<path d="M25.8815 3.17017L24.7344 4.80847" stroke="black" stroke-width="2" stroke-linecap="round" stroke-linejoin="round"/>
<path d="M28.8336 6.11707L27.1953 7.26422" stroke="black" stroke-width="2" stroke-linecap="round" stroke-linejoin="round"/>
</svg>
