<svg viewBox="0 0 32 32" xmlns="http://www.w3.org/2000/svg">
<path d="M30.0897 15.2231L27 16.7679L23 9.10768L26.1212 7.5471C26.3557 7.42986 26.6268 7.40939 26.8763 7.4901C27.1257 7.57082 27.3335 7.74626 27.4548 7.97866L30.5289 13.8658C30.5904 13.9835 30.6278 14.1123 30.639 14.2446C30.6501 14.377 30.6348 14.5102 30.5939 14.6365C30.553 14.7629 30.4874 14.8798 30.4008 14.9805C30.3142 15.0812 30.2085 15.1637 30.0897 15.2231V15.2231Z" stroke-width="2" stroke-linecap="round" stroke-linejoin="round"/>
<path d="M5.00187 16.634L1.91216 15.0892C1.79338 15.0298 1.68762 14.9473 1.60105 14.8466C1.51448 14.7459 1.44883 14.629 1.40795 14.5026C1.36706 14.3763 1.35175 14.243 1.36291 14.1107C1.37407 13.9784 1.41148 13.8496 1.47295 13.7319L4.54707 7.84475C4.66842 7.61236 4.87618 7.43691 5.12561 7.35619C5.37505 7.27548 5.64621 7.29594 5.88071 7.41319L9.00187 8.97377L5.00187 16.634Z" stroke-width="2" stroke-linecap="round" stroke-linejoin="round"/>
<path d="M27 16.768L25 19.1078L20.4004 23.7074C20.2783 23.8295 20.1266 23.9179 19.9602 23.964C19.7938 24.0101 19.6182 24.0123 19.4507 23.9704L12.2061 22.1593C12.0702 22.1253 11.943 22.0632 11.8326 21.9769L5 16.634" stroke-width="2" stroke-linecap="round" stroke-linejoin="round"/>
<path d="M25.001 19.1077L19.501 15.1077L17.901 16.3077C17.2086 16.827 16.3665 17.1077 15.501 17.1077C14.6355 17.1077 13.7934 16.827 13.101 16.3077L12.4234 15.7995C12.3088 15.7135 12.214 15.6039 12.1454 15.4781C12.0769 15.3523 12.0361 15.2133 12.026 15.0704C12.0158 14.9274 12.0365 14.784 12.0866 14.6498C12.1367 14.5156 12.215 14.3937 12.3163 14.2924L17.2081 9.40056C17.301 9.3077 17.4112 9.23404 17.5326 9.18379C17.6539 9.13353 17.7839 9.10767 17.9152 9.10767H23.001" stroke-width="2" stroke-linecap="round" stroke-linejoin="round"/>
<path d="M9.07031 8.97376L15.4853 7.10356C15.7145 7.03676 15.96 7.05412 16.1774 7.15253L20.4985 9.10773" stroke-width="2" stroke-linecap="round" stroke-linejoin="round"/>
<path d="M14 26.6077L10.2326 25.6658C10.0797 25.6276 9.938 25.5538 9.81907 25.4504L7 23" stroke-width="2" stroke-linecap="round" stroke-linejoin="round"/>
</svg>
