<svg   viewBox="0 0 32 32" fill="none" xmlns="http://www.w3.org/2000/svg">
<path d="M16.0008 13V4.5C16.0008 3.83696 15.7374 3.20107 15.2686 2.73223C14.7997 2.26339 14.1638 2 13.5008 2C12.8378 2 12.2019 2.26339 11.733 2.73223C11.2642 3.20107 11.0008 3.83696 11.0008 4.5V19.6583L8.25986 14.9108C8.09586 14.6262 7.87737 14.3767 7.6169 14.1766C7.35642 13.9764 7.05906 13.8296 6.74181 13.7445C6.42455 13.6593 6.09363 13.6375 5.76795 13.6803C5.44227 13.7231 5.12822 13.8297 4.84375 13.9939C4.55928 14.1582 4.30996 14.3769 4.11005 14.6375C3.91014 14.8982 3.76355 15.1956 3.67867 15.513C3.59378 15.8303 3.57226 16.1612 3.61534 16.4869C3.65842 16.8125 3.76525 17.1265 3.92973 17.4108C8.0008 26 10.478 29 16.0008 29C17.314 29 18.6144 28.7413 19.8276 28.2388C21.0409 27.7362 22.1433 26.9997 23.0719 26.0711C24.0005 25.1425 24.737 24.0401 25.2396 22.8268C25.7421 21.6136 26.0008 20.3132 26.0008 19V14C26.0008 13.337 25.7374 12.7011 25.2686 12.2322C24.7997 11.7634 24.1638 11.5 23.5008 11.5C22.8378 11.5 22.2019 11.7634 21.733 12.2322C21.2642 12.7011 21.0008 13.337 21.0008 14" stroke="black" stroke-width="2" stroke-linecap="round" stroke-linejoin="round"/>
<path d="M21 14V12.5C21 11.837 20.7366 11.2011 20.2678 10.7322C19.7989 10.2634 19.163 10 18.5 10C17.837 10 17.2011 10.2634 16.7322 10.7322C16.2634 11.2011 16 11.837 16 12.5V13" stroke="black" stroke-width="2" stroke-linecap="round" stroke-linejoin="round"/>
</svg>
