<svg   viewBox="0 0 32 32" fill="none" xmlns="http://www.w3.org/2000/svg">
<path d="M16 13V6.5C16 5.83696 16.2634 5.20107 16.7322 4.73223C17.2011 4.26339 17.837 4 18.5 4C19.163 4 19.7989 4.26339 20.2678 4.73223C20.7366 5.20107 21 5.83696 21 6.5V16.5" stroke="black" stroke-width="2" stroke-linecap="round" stroke-linejoin="round"/>
<path d="M11 14V4.5C11 3.83696 11.2634 3.20107 11.7322 2.73223C12.2011 2.26339 12.837 2 13.5 2C14.163 2 14.7989 2.26339 15.2678 2.73223C15.7366 3.20107 16 3.83696 16 4.5V13" stroke="black" stroke-width="2" stroke-linecap="round" stroke-linejoin="round"/>
<path d="M16 21.5C16 20.1739 16.5268 18.9021 17.4645 17.9645C18.4021 17.0268 19.6739 16.5 21 16.5V14C21 13.337 21.2634 12.7011 21.7322 12.2322C22.2011 11.7634 22.837 11.5 23.5 11.5C24.163 11.5 24.7989 11.7634 25.2678 12.2322C25.7366 12.7011 26 13.337 26 14V19C26 21.6522 24.9464 24.1957 23.0711 26.0711C21.1957 27.9464 18.6522 29 16 29C13.3478 29 10.8043 27.9464 8.92893 26.0711C7.05357 24.1957 6 21.6522 6 19V8.5C6 7.83696 6.26339 7.20107 6.73223 6.73223C7.20107 6.26339 7.83696 6 8.5 6C9.16304 6 9.79893 6.26339 10.2678 6.73223C10.7366 7.20107 11 7.83696 11 8.5V14" stroke="black" stroke-width="2" stroke-linecap="round" stroke-linejoin="round"/>
</svg>
