<svg   viewBox="0 0 32 32" fill="none" xmlns="http://www.w3.org/2000/svg">
<path d="M21.0008 15V8.5C21.0008 7.83696 21.2642 7.20107 21.733 6.73223C22.2019 6.26339 22.8378 6 23.5008 6C24.1638 6 24.7997 6.26339 25.2686 6.73223C25.7374 7.20107 26.0008 7.83696 26.0008 8.5V19C26.0008 20.3132 25.7421 21.6136 25.2396 22.8268C24.7371 24.0401 24.0005 25.1425 23.0719 26.0711C22.1433 26.9997 21.0409 27.7362 19.8276 28.2388C18.6144 28.7413 17.314 29 16.0008 29C10.478 29 8.0008 26 3.92973 17.4108C3.76525 17.1265 3.65842 16.8125 3.61534 16.4869C3.57226 16.1612 3.59378 15.8303 3.67867 15.513C3.76355 15.1956 3.91014 14.8982 4.11005 14.6375C4.30996 14.3769 4.55928 14.1582 4.84375 13.9939C5.12822 13.8297 5.44227 13.7231 5.76795 13.6803C6.09363 13.6375 6.42455 13.6593 6.74181 13.7445C7.05906 13.8296 7.35642 13.9764 7.6169 14.1766C7.87737 14.3767 8.09586 14.6262 8.25986 14.9108L11.0008 19.6583V6.5C11.0008 5.83696 11.2642 5.20107 11.733 4.73223C12.2019 4.26339 12.8378 4 13.5008 4C14.1638 4 14.7997 4.26339 15.2686 4.73223C15.7374 5.20107 16.0008 5.83696 16.0008 6.5V15" stroke="black" stroke-width="2" stroke-linecap="round" stroke-linejoin="round"/>
<path d="M21 15V4.5C21 3.83696 20.7366 3.20107 20.2678 2.73223C19.7989 2.26339 19.163 2 18.5 2C17.837 2 17.2011 2.26339 16.7322 2.73223C16.2634 3.20107 16 3.83696 16 4.5V15" stroke="black" stroke-width="2" stroke-linecap="round" stroke-linejoin="round"/>
</svg>
