<svg   viewBox="0 0 32 32" fill="none" xmlns="http://www.w3.org/2000/svg">
<path d="M15.9844 9C17.9174 9 19.4844 7.433 19.4844 5.5C19.4844 3.567 17.9174 2 15.9844 2C14.0514 2 12.4844 3.567 12.4844 5.5C12.4844 7.433 14.0514 9 15.9844 9Z" stroke="black" stroke-width="2" stroke-linecap="round" stroke-linejoin="round"/>
<path d="M19.2379 16.8394L23.5812 20.2175C23.8625 20.4988 24.244 20.6569 24.6418 20.6569C25.0397 20.6569 25.4212 20.4988 25.7025 20.2175C25.9838 19.9362 26.1418 19.5547 26.1418 19.1569C26.1418 18.759 25.9838 18.3775 25.7025 18.0962L20.7527 11.7322C20.5209 11.4997 20.2453 11.3154 19.9419 11.1897C19.6386 11.064 19.3133 10.9996 18.985 11H12.985C12.6566 10.9996 12.3314 11.064 12.028 11.1897C11.7247 11.3154 11.4491 11.4997 11.2172 11.7322L6.26747 18.0962C6.12818 18.2355 6.01769 18.4008 5.94231 18.5828C5.86692 18.7648 5.82813 18.9599 5.82812 19.1569C5.82812 19.3538 5.86692 19.5489 5.94231 19.7309C6.01769 19.9129 6.12818 20.0782 6.26747 20.2175C6.40675 20.3568 6.57211 20.4673 6.7541 20.5427C6.93609 20.6181 7.13114 20.6569 7.32813 20.6569C7.52511 20.6569 7.72016 20.6181 7.90215 20.5427C8.08414 20.4673 8.2495 20.3568 8.38879 20.2175L12.7321 16.8394L9.26541 27.7886C9.09728 28.1492 9.07927 28.5617 9.21533 28.9356C9.3514 29.3094 9.63039 29.6139 9.99094 29.782C10.3515 29.9501 10.7641 29.9681 11.1379 29.8321C11.5117 29.696 11.8162 29.417 11.9843 29.0565L15.985 22.7601L19.9856 29.0565C20.1543 29.4162 20.4587 29.6943 20.8322 29.8298C21.2057 29.9653 21.6176 29.9471 21.9777 29.7792C22.3378 29.6113 22.6165 29.3074 22.7528 28.9342C22.8891 28.561 22.8717 28.149 22.7045 27.7886L19.2379 16.8394Z" stroke="black" stroke-width="2" stroke-linecap="round" stroke-linejoin="round"/>
</svg>
