<svg   viewBox="0 0 32 32" fill="none" xmlns="http://www.w3.org/2000/svg">
<path d="M19.5251 27.4733C16.9672 28.2577 14.2204 28.1638 11.722 27.2066C9.22363 26.2494 7.11728 24.4839 5.73831 22.1911C4.35934 19.8984 3.78702 17.2102 4.11247 14.5546C4.43792 11.899 5.64243 9.42861 7.53424 7.53671C9.42605 5.64482 11.8964 4.44019 14.552 4.11462C17.2076 3.78904 19.8958 4.36123 22.1886 5.74009C24.4814 7.11895 26.247 9.22522 27.2043 11.7236C28.1616 14.2219 28.2556 16.9687 27.4714 19.5267L19.5251 27.4733Z" stroke="black" stroke-width="2" stroke-linecap="round" stroke-linejoin="round"/>
<path d="M11.5 15C12.3284 15 13 14.3284 13 13.5C13 12.6716 12.3284 12 11.5 12C10.6716 12 10 12.6716 10 13.5C10 14.3284 10.6716 15 11.5 15Z" fill="black"/>
<path d="M20.5 15C21.3284 15 22 14.3284 22 13.5C22 12.6716 21.3284 12 20.5 12C19.6716 12 19 12.6716 19 13.5C19 14.3284 19.6716 15 20.5 15Z" fill="black"/>
<path d="M21.1996 18.9996C20.6728 19.9119 19.9152 20.6694 19.0028 21.196C18.0905 21.7227 17.0556 22 16.0022 22C14.9488 22 13.9139 21.7227 13.0015 21.1961C12.0892 20.6694 11.3315 19.9119 10.8047 18.9997" stroke="black" stroke-width="2" stroke-linecap="round" stroke-linejoin="round"/>
</svg>
