<svg   viewBox="0 0 32 32" fill="none" xmlns="http://www.w3.org/2000/svg">
<path d="M16 20C18.7614 20 21 17.7614 21 15C21 12.2386 18.7614 10 16 10C13.2386 10 11 12.2386 11 15C11 17.7614 13.2386 20 16 20Z" stroke="black" stroke-width="2" stroke-miterlimit="10"/>
<path d="M7.97656 24.9218C8.72983 23.4408 9.87821 22.1971 11.2946 21.3284C12.711 20.4598 14.3401 20 16.0017 20C17.6632 20 19.2923 20.4598 20.7087 21.3284C22.1251 22.1971 23.2735 23.4407 24.0268 24.9217" stroke="black" stroke-width="2" stroke-linecap="round" stroke-linejoin="round"/>
<path d="M22 7H28" stroke="black" stroke-width="2" stroke-linecap="round" stroke-linejoin="round"/>
<path d="M25 4V10" stroke="black" stroke-width="2" stroke-linecap="round" stroke-linejoin="round"/>
<path d="M27.8507 14.1072C28.248 16.6079 27.8432 19.1702 26.6944 21.4267C25.5456 23.6831 23.7119 25.5179 21.4561 26.6679C19.2003 27.818 16.6382 28.2242 14.1373 27.8284C11.6364 27.4325 9.32503 26.255 7.53461 24.4646C5.74418 22.6741 4.56664 20.3628 4.17083 17.8618C3.77501 15.3609 4.18124 12.7989 5.33128 10.5431C6.48131 8.28727 8.31609 6.45353 10.5726 5.30477C12.829 4.15601 15.3913 3.75122 17.892 4.14845" stroke="black" stroke-width="2" stroke-linecap="round" stroke-linejoin="round"/>
</svg>
