<svg   viewBox="0 0 32 32" fill="none" xmlns="http://www.w3.org/2000/svg">
<path d="M10 18C12.7614 18 15 15.7614 15 13C15 10.2386 12.7614 8 10 8C7.23858 8 5 10.2386 5 13C5 15.7614 7.23858 18 10 18Z" stroke="black" stroke-width="2" stroke-linecap="round" stroke-linejoin="round"/>
<path d="M19 10H31" stroke="black" stroke-width="2" stroke-linecap="round" stroke-linejoin="round"/>
<path d="M19 16H31" stroke="black" stroke-width="2" stroke-linecap="round" stroke-linejoin="round"/>
<path d="M22 22H31" stroke="black" stroke-width="2" stroke-linecap="round" stroke-linejoin="round"/>
<path d="M2.25 24C2.69388 22.2826 3.69575 20.7614 5.0982 19.6754C6.50064 18.5893 8.22417 18 9.99796 18C11.7718 18 13.4953 18.5893 14.8977 19.6754C16.3002 20.7614 17.302 22.2826 17.7459 24" stroke="black" stroke-width="2" stroke-linecap="round" stroke-linejoin="round"/>
</svg>
