<svg   viewBox="0 0 32 32" fill="none" xmlns="http://www.w3.org/2000/svg">
<path d="M11 20C14.5899 20 17.5 17.0899 17.5 13.5C17.5 9.91015 14.5899 7 11 7C7.41015 7 4.5 9.91015 4.5 13.5C4.5 17.0899 7.41015 20 11 20Z" stroke="black" stroke-width="2" stroke-miterlimit="10"/>
<path d="M19.4297 7.24215C20.3237 6.99026 21.2613 6.93287 22.1794 7.07386C23.0975 7.21486 23.9747 7.55095 24.7519 8.0595C25.5292 8.56805 26.1884 9.23726 26.6852 10.022C27.1821 10.8068 27.5049 11.689 27.6321 12.6091C27.7593 13.5291 27.6879 14.4658 27.4226 15.3559C27.1573 16.2461 26.7044 17.069 26.0942 17.7694C25.4841 18.4697 24.731 19.0312 23.8856 19.416C23.0402 19.8008 22.1222 19.9999 21.1934 20" stroke="black" stroke-width="2" stroke-linecap="round" stroke-linejoin="round"/>
<path d="M2 24.6746C3.01517 23.2306 4.36287 22.052 5.92931 21.2384C7.49576 20.4248 9.23497 20.0001 11.0001 20C12.7652 19.9999 14.5045 20.4246 16.071 21.238C17.6375 22.0515 18.9853 23.23 20.0006 24.6739" stroke="black" stroke-width="2" stroke-linecap="round" stroke-linejoin="round"/>
<path d="M21.1875 20C22.9528 19.9987 24.6924 20.4228 26.259 21.2364C27.8257 22.05 29.1732 23.2291 30.1875 24.6739" stroke="black" stroke-width="2" stroke-linecap="round" stroke-linejoin="round"/>
</svg>
