<svg viewBox="0 0 32 32" xmlns="http://www.w3.org/2000/svg">
<path d="M16 20C18.7614 20 21 17.7614 21 15C21 12.2386 18.7614 10 16 10C13.2386 10 11 12.2386 11 15C11 17.7614 13.2386 20 16 20Z" stroke-width="2" stroke-miterlimit="10"/>
<path d="M7.97656 24.9218C8.72983 23.4408 9.87821 22.1971 11.2946 21.3284C12.711 20.4598 14.3401 20 16.0017 20C17.6632 20 19.2923 20.4598 20.7087 21.3284C22.1251 22.1971 23.2735 23.4407 24.0268 24.9217" stroke-width="2" stroke-linecap="round" stroke-linejoin="round"/>
<path d="M22 7H28" stroke-width="2" stroke-linecap="round" stroke-linejoin="round"/>
<path d="M27.3162 12C28.1894 14.4756 28.2259 17.1694 27.4201 19.6677C26.6142 22.166 25.0106 24.3307 22.8555 25.8295C20.7003 27.3283 18.1128 28.0782 15.4902 27.9641C12.8677 27.8501 10.355 26.8783 8.33814 25.1981C6.32127 23.5178 4.91168 21.222 4.32581 18.6632C3.73995 16.1043 4.0102 13.4239 5.09508 11.0335C6.17996 8.6431 8.01947 6.67488 10.3312 5.43108C12.6429 4.18727 15.2989 3.73665 17.8915 4.1484" stroke-width="2" stroke-linecap="round" stroke-linejoin="round"/>
</svg>
