<svg viewBox="0 0 32 32" xmlns="http://www.w3.org/2000/svg">
<path d="M16 20C18.7614 20 21 17.7614 21 15C21 12.2386 18.7614 10 16 10C13.2386 10 11 12.2386 11 15C11 17.7614 13.2386 20 16 20Z" stroke-width="2" stroke-linecap="round" stroke-linejoin="round"/>
<path d="M27 6H5C4.44772 6 4 6.44772 4 7V25C4 25.5523 4.44772 26 5 26H27C27.5523 26 28 25.5523 28 25V7C28 6.44772 27.5523 6 27 6Z" stroke-width="2" stroke-linecap="round" stroke-linejoin="round"/>
<path d="M7.51562 25.9994C8.1367 24.2447 9.28635 22.7257 10.8063 21.6513C12.3263 20.5769 14.1419 20 16.0033 20C17.8647 20 19.6803 20.5769 21.2003 21.6513C22.7203 22.7257 23.8699 24.2447 24.491 25.9994" stroke-width="2" stroke-linecap="round" stroke-linejoin="round"/>
</svg>
