<svg viewBox="0 0 32 32" xmlns="http://www.w3.org/2000/svg">
<path d="M13.5 20C17.6421 20 21 16.6421 21 12.5C21 8.35786 17.6421 5 13.5 5C9.35786 5 6 8.35786 6 12.5C6 16.6421 9.35786 20 13.5 20Z" stroke-width="2" stroke-miterlimit="10"/>
<path d="M2.77344 24.9997C4.08761 23.434 5.72868 22.1751 7.58135 21.3113C9.43403 20.4476 11.4534 20 13.4975 20C15.5416 20 17.561 20.4476 19.4136 21.3114C21.2663 22.1751 22.9074 23.4341 24.2215 24.9998" stroke-width="2" stroke-linecap="round" stroke-linejoin="round"/>
<path d="M27.5 19C28.6046 19 29.5 18.1046 29.5 17C29.5 15.8954 28.6046 15 27.5 15C26.3954 15 25.5 15.8954 25.5 17C25.5 18.1046 26.3954 19 27.5 19Z" stroke-width="2" stroke-linecap="round" stroke-linejoin="round"/>
<path d="M27.5 15V13.5" stroke-width="2" stroke-linecap="round" stroke-linejoin="round"/>
<path d="M25.7678 16L24.4688 15.25" stroke-width="2" stroke-linecap="round" stroke-linejoin="round"/>
<path d="M25.7678 18L24.4688 18.75" stroke-width="2" stroke-linecap="round" stroke-linejoin="round"/>
<path d="M27.5 19V20.5" stroke-width="2" stroke-linecap="round" stroke-linejoin="round"/>
<path d="M29.2344 18L30.5334 18.75" stroke-width="2" stroke-linecap="round" stroke-linejoin="round"/>
<path d="M29.2344 16L30.5334 15.25" stroke-width="2" stroke-linecap="round" stroke-linejoin="round"/>
</svg>
