<svg   viewBox="0 0 32 32" fill="none" xmlns="http://www.w3.org/2000/svg">
<path d="M11.9844 7.5C13.3651 7.5 14.4844 6.38071 14.4844 5C14.4844 3.61929 13.3651 2.5 11.9844 2.5C10.6037 2.5 9.48438 3.61929 9.48438 5C9.48438 6.38071 10.6037 7.5 11.9844 7.5Z" stroke="black" stroke-width="2" stroke-linecap="round" stroke-linejoin="round"/>
<path d="M11.9844 7.5V16.5H22.9844L26.9844 24.5L29.9844 23.5" stroke="black" stroke-width="2" stroke-linecap="round" stroke-linejoin="round"/>
<path d="M20.969 20.5C20.8715 22.0579 20.3203 23.5533 19.3834 24.8018C18.4465 26.0504 17.1648 26.9976 15.6962 27.5267C14.2276 28.0558 12.6364 28.1437 11.1184 27.7796C9.60053 27.4155 8.22229 26.6153 7.15355 25.4775C6.0848 24.3398 5.37225 22.9143 5.10368 21.3766C4.83511 19.8389 5.02226 18.2562 5.64207 16.8235C6.26188 15.3909 7.28727 14.1709 8.5919 13.3138C9.89653 12.4567 11.4234 12 12.9844 12H19.9844" stroke="black" stroke-width="2" stroke-linecap="round" stroke-linejoin="round"/>
</svg>
