<svg   viewBox="0 0 32 32" fill="none" xmlns="http://www.w3.org/2000/svg">
<path d="M26 3.99963H23V2.99963C23 2.73442 22.8946 2.48006 22.7071 2.29253C22.5196 2.10499 22.2652 1.99963 22 1.99963C21.7348 1.99963 21.4804 2.10499 21.2929 2.29253C21.1054 2.48006 21 2.73442 21 2.99963V3.99963H11V2.99963C11 2.73442 10.8946 2.48006 10.7071 2.29253C10.5196 2.10499 10.2652 1.99963 10 1.99963C9.73478 1.99963 9.48043 2.10499 9.29289 2.29253C9.10536 2.48006 9 2.73442 9 2.99963V3.99963H6C5.46973 4.00016 4.96132 4.21104 4.58636 4.586C4.21141 4.96096 4.00052 5.46936 4 5.99963V25.9996C4.00052 26.5299 4.21141 27.0383 4.58636 27.4133C4.96132 27.7882 5.46973 27.9991 6 27.9996H26C26.5303 27.9991 27.0387 27.7882 27.4136 27.4133C27.7886 27.0383 27.9995 26.5299 28 25.9996V5.99963C27.9995 5.46936 27.7886 4.96096 27.4136 4.586C27.0387 4.21104 26.5303 4.00016 26 3.99963V3.99963ZM19.707 21.2926C19.8 21.3854 19.8738 21.4957 19.9242 21.617C19.9746 21.7384 20.0006 21.8685 20.0006 21.9999C20.0007 22.1313 19.9749 22.2614 19.9246 22.3828C19.8744 22.5042 19.8007 22.6145 19.7078 22.7074C19.6149 22.8003 19.5046 22.874 19.3832 22.9243C19.2617 22.9745 19.1316 23.0004 19.0002 23.0003C18.8688 23.0002 18.7387 22.9742 18.6174 22.9239C18.496 22.8735 18.3858 22.7997 18.293 22.7067L16 20.4137L13.707 22.7067C13.5194 22.8939 13.2652 22.9989 13.0002 22.9988C12.7352 22.9986 12.4811 22.8933 12.2937 22.7059C12.1063 22.5185 12.001 22.2644 12.0009 21.9994C12.0007 21.7344 12.1058 21.4802 12.293 21.2926L14.5859 18.9996L12.293 16.7067C12.2 16.6139 12.1262 16.5036 12.0758 16.3823C12.0254 16.2609 11.9994 16.1308 11.9994 15.9994C11.9993 15.868 12.0251 15.7379 12.0754 15.6165C12.1256 15.4951 12.1993 15.3848 12.2922 15.2918C12.3851 15.1989 12.4954 15.1252 12.6168 15.075C12.7383 15.0247 12.8684 14.9989 12.9998 14.999C13.1312 14.9991 13.2613 15.025 13.3826 15.0754C13.504 15.1258 13.6142 15.1996 13.707 15.2926L16 17.5856L18.293 15.2926C18.3858 15.1996 18.496 15.1258 18.6174 15.0754C18.7387 15.025 18.8688 14.9991 19.0002 14.999C19.1316 14.9989 19.2617 15.0247 19.3832 15.075C19.5046 15.1252 19.6149 15.1989 19.7078 15.2918C19.8007 15.3848 19.8744 15.4951 19.9246 15.6165C19.9749 15.7379 20.0007 15.868 20.0006 15.9994C20.0006 16.1308 19.9746 16.2609 19.9242 16.3823C19.8738 16.5036 19.8 16.6139 19.707 16.7067L17.4141 18.9996L19.707 21.2926ZM26 9.99963H6V5.99963H9V6.99963C9 7.26485 9.10536 7.5192 9.29289 7.70674C9.48043 7.89428 9.73478 7.99963 10 7.99963C10.2652 7.99963 10.5196 7.89428 10.7071 7.70674C10.8946 7.5192 11 7.26485 11 6.99963V5.99963H21V6.99963C21 7.26485 21.1054 7.5192 21.2929 7.70674C21.4804 7.89428 21.7348 7.99963 22 7.99963C22.2652 7.99963 22.5196 7.89428 22.7071 7.70674C22.8946 7.5192 23 7.26485 23 6.99963V5.99963H26V9.99963Z" fill="black"/>
</svg>
