<svg viewBox="0 0 32 32" xmlns="http://www.w3.org/2000/svg">
<path d="M26 3.99963H23V2.99963C23 2.73442 22.8946 2.48006 22.7071 2.29253C22.5196 2.10499 22.2652 1.99963 22 1.99963C21.7348 1.99963 21.4804 2.10499 21.2929 2.29253C21.1054 2.48006 21 2.73442 21 2.99963V3.99963H11V2.99963C11 2.73442 10.8946 2.48006 10.7071 2.29253C10.5196 2.10499 10.2652 1.99963 10 1.99963C9.73478 1.99963 9.48043 2.10499 9.29289 2.29253C9.10536 2.48006 9 2.73442 9 2.99963V3.99963H6C5.46973 4.00016 4.96132 4.21104 4.58636 4.586C4.21141 4.96096 4.00052 5.46936 4 5.99963V25.9996C4.00052 26.5299 4.21141 27.0383 4.58636 27.4133C4.96132 27.7882 5.46973 27.9991 6 27.9996H26C26.5303 27.9991 27.0387 27.7882 27.4136 27.4133C27.7886 27.0383 27.9995 26.5299 28 25.9996V5.99963C27.9995 5.46936 27.7886 4.96096 27.4136 4.586C27.0387 4.21104 26.5303 4.00016 26 3.99963V3.99963ZM19.5007 20H17.0007V22.5C17.0007 22.7652 16.8954 23.0196 16.7078 23.2071C16.5203 23.3946 16.2659 23.5 16.0007 23.5C15.7355 23.5 15.4812 23.3946 15.2936 23.2071C15.1061 23.0196 15.0007 22.7652 15.0007 22.5V20H12.5007C12.2355 20 11.9812 19.8946 11.7936 19.7071C11.6061 19.5196 11.5007 19.2652 11.5007 19C11.5007 18.7348 11.6061 18.4804 11.7936 18.2929C11.9812 18.1054 12.2355 18 12.5007 18H15.0007V15.5C15.0007 15.2348 15.1061 14.9804 15.2936 14.7929C15.4812 14.6054 15.7355 14.5 16.0007 14.5C16.2659 14.5 16.5203 14.6054 16.7078 14.7929C16.8954 14.9804 17.0007 15.2348 17.0007 15.5V18H19.5007C19.7659 18 20.0203 18.1054 20.2078 18.2929C20.3954 18.4804 20.5007 18.7348 20.5007 19C20.5007 19.2652 20.3954 19.5196 20.2078 19.7071C20.0203 19.8946 19.7659 20 19.5007 20ZM26 9.99963H6V5.99963H9V6.99963C9 7.26485 9.10536 7.5192 9.29289 7.70674C9.48043 7.89428 9.73478 7.99963 10 7.99963C10.2652 7.99963 10.5196 7.89428 10.7071 7.70674C10.8946 7.5192 11 7.26485 11 6.99963V5.99963H21V6.99963C21 7.26485 21.1054 7.5192 21.2929 7.70674C21.4804 7.89428 21.7348 7.99963 22 7.99963C22.2652 7.99963 22.5196 7.89428 22.7071 7.70674C22.8946 7.5192 23 7.26485 23 6.99963V5.99963H26V9.99963Z"/>
</svg>
