<svg   viewBox="0 0 32 32" fill="none" xmlns="http://www.w3.org/2000/svg">
<path d="M26 3.99963H23V2.99963C23 2.73442 22.8946 2.48006 22.7071 2.29253C22.5196 2.10499 22.2652 1.99963 22 1.99963C21.7348 1.99963 21.4804 2.10499 21.2929 2.29253C21.1054 2.48006 21 2.73442 21 2.99963V3.99963H11V2.99963C11 2.73442 10.8946 2.48006 10.7071 2.29253C10.5196 2.10499 10.2652 1.99963 10 1.99963C9.73478 1.99963 9.48043 2.10499 9.29289 2.29253C9.10536 2.48006 9 2.73442 9 2.99963V3.99963H6C5.46973 4.00016 4.96132 4.21104 4.58636 4.586C4.21141 4.96096 4.00052 5.46936 4 5.99963V25.9996C4.00052 26.5299 4.21141 27.0383 4.58636 27.4133C4.96132 27.7882 5.46973 27.9991 6 27.9996H26C26.5303 27.9991 27.0387 27.7882 27.4136 27.4133C27.7886 27.0383 27.9995 26.5299 28 25.9996V5.99963C27.9995 5.46936 27.7886 4.96096 27.4136 4.586C27.0387 4.21104 26.5303 4.00016 26 3.99963V3.99963ZM13.0007 23.4996C12.6069 23.5007 12.2168 23.4237 11.8529 23.2731C11.489 23.1225 11.1586 22.9013 10.8807 22.6222C10.693 22.4348 10.5875 22.1805 10.5874 21.9153C10.5872 21.65 10.6924 21.3956 10.8799 21.208C11.0673 21.0203 11.3216 20.9148 11.5868 20.9147C11.852 20.9145 12.1064 21.0197 12.2941 21.2072C12.4104 21.3233 12.5536 21.4091 12.711 21.4567C12.8683 21.5044 13.035 21.5125 13.1963 21.4803C13.3575 21.4482 13.5084 21.3767 13.6354 21.2724C13.7625 21.168 13.8619 21.034 13.9247 20.882C13.9876 20.7301 14.012 20.565 13.9959 20.4014C13.9797 20.2377 13.9235 20.0806 13.8321 19.9439C13.7407 19.8072 13.6171 19.6952 13.4721 19.6177C13.327 19.5402 13.1652 19.4996 13.0007 19.4996H13.0001C12.969 19.4996 12.9379 19.4978 12.9068 19.4949C12.8969 19.494 12.8871 19.4924 12.8773 19.4912C12.8565 19.4887 12.8358 19.4856 12.8151 19.4818C12.8035 19.4796 12.7921 19.4771 12.7807 19.4746C12.7619 19.4703 12.7432 19.4655 12.7246 19.4601C12.7132 19.4569 12.7018 19.4537 12.6907 19.45C12.6719 19.4439 12.6533 19.4369 12.6348 19.4296C12.6247 19.4256 12.6145 19.422 12.6046 19.4177C12.5831 19.4084 12.5619 19.3979 12.5408 19.387C12.5347 19.3838 12.5283 19.3811 12.5222 19.3778C12.4959 19.3634 12.47 19.3477 12.4446 19.3306C12.436 19.3249 12.4281 19.3185 12.4197 19.3125C12.4051 19.302 12.3903 19.2919 12.376 19.2805C12.3742 19.2791 12.3726 19.2774 12.3708 19.2759C12.3557 19.2636 12.3416 19.2504 12.3272 19.2372C12.3168 19.2277 12.3058 19.2186 12.2958 19.2087C12.2862 19.1991 12.2775 19.1887 12.2682 19.1787C12.1472 19.0482 12.063 18.8878 12.0244 18.714C12.0237 18.7109 12.0226 18.7078 12.0219 18.7046C12.0184 18.6877 12.0164 18.6704 12.0137 18.6533C12.0114 18.6377 12.0083 18.6223 12.0067 18.6067C12.0053 18.5938 12.0051 18.5807 12.0042 18.5677C12.0028 18.5472 12.0012 18.5268 12.0011 18.5062C12.001 18.504 12.0007 18.5019 12.0007 18.4996C12.0007 18.4893 12.002 18.4792 12.0023 18.4689C12.0029 18.4482 12.0035 18.4275 12.0054 18.4068C12.0067 18.3928 12.0089 18.3791 12.0108 18.3654C12.0133 18.3467 12.0158 18.3282 12.0193 18.3097C12.0222 18.2948 12.0259 18.2803 12.0294 18.2657C12.0335 18.2487 12.0375 18.2316 12.0425 18.2147C12.047 18.1996 12.0523 18.1848 12.0575 18.17C12.0631 18.1542 12.0685 18.1383 12.0748 18.1227C12.0811 18.1074 12.0881 18.0926 12.0951 18.0777C12.1019 18.0631 12.1085 18.0485 12.1161 18.0341C12.1243 18.0185 12.1334 18.0035 12.1424 17.9885C12.1502 17.9755 12.1576 17.9624 12.166 17.9497C12.1766 17.9337 12.1881 17.9184 12.1996 17.903C12.2065 17.8937 12.2125 17.884 12.2199 17.8749L12.9201 16.9996H11.5007C11.2355 16.9996 10.9812 16.8943 10.7936 16.7067C10.6061 16.5192 10.5007 16.2649 10.5007 15.9996C10.5007 15.7344 10.6061 15.4801 10.7936 15.2925C10.9812 15.105 11.2355 14.9996 11.5007 14.9996H15.0007C15.1891 14.9996 15.3736 15.0528 15.5331 15.1531C15.6926 15.2534 15.8205 15.3967 15.9021 15.5665C15.9837 15.7362 16.0157 15.9256 15.9943 16.1128C15.973 16.3 15.8993 16.4773 15.7816 16.6244L14.673 18.0102C15.2068 18.3685 15.6114 18.8889 15.8271 19.4946C16.0427 20.1004 16.0579 20.7594 15.8706 21.3744C15.6832 21.9895 15.3031 22.5281 14.7864 22.9107C14.2697 23.2934 13.6437 23.4998 13.0007 23.4996V23.4996ZM21.0007 22.4996C21.0007 22.7649 20.8954 23.0192 20.7078 23.2067C20.5203 23.3943 20.2659 23.4996 20.0007 23.4996C19.7355 23.4996 19.4812 23.3943 19.2936 23.2067C19.1061 23.0192 19.0007 22.7649 19.0007 22.4996V17.9996L18.6007 18.2997C18.3885 18.4588 18.1218 18.5271 17.8593 18.4896C17.5967 18.4521 17.3598 18.3118 17.2007 18.0996C17.0416 17.8874 16.9732 17.6207 17.0108 17.3582C17.0483 17.0956 17.1886 16.8587 17.4008 16.6996L19.4008 15.1996C19.5493 15.0882 19.726 15.0203 19.911 15.0037C20.0959 14.987 20.2819 15.0222 20.448 15.1052C20.6141 15.1883 20.7537 15.316 20.8514 15.4739C20.949 15.6319 21.0007 15.8139 21.0007 15.9996V22.4996ZM26 9.99963H6V5.99963H9V6.99963C9 7.26485 9.10536 7.5192 9.29289 7.70674C9.48043 7.89428 9.73478 7.99963 10 7.99963C10.2652 7.99963 10.5196 7.89428 10.7071 7.70674C10.8946 7.5192 11 7.26485 11 6.99963V5.99963H21V6.99963C21 7.26485 21.1054 7.5192 21.2929 7.70674C21.4804 7.89428 21.7348 7.99963 22 7.99963C22.2652 7.99963 22.5196 7.89428 22.7071 7.70674C22.8946 7.5192 23 7.26485 23 6.99963V5.99963H26V9.99963Z" fill="black"/>
</svg>
