<svg viewBox="0 0 32 32" xmlns="http://www.w3.org/2000/svg">
<path d="M26 3.99963H23V2.99963C23 2.73442 22.8946 2.48006 22.7071 2.29253C22.5196 2.10499 22.2652 1.99963 22 1.99963C21.7348 1.99963 21.4804 2.10499 21.2929 2.29253C21.1054 2.48006 21 2.73442 21 2.99963V3.99963H11V2.99963C11 2.73442 10.8946 2.48006 10.7071 2.29253C10.5196 2.10499 10.2652 1.99963 10 1.99963C9.73478 1.99963 9.48043 2.10499 9.29289 2.29253C9.10536 2.48006 9 2.73442 9 2.99963V3.99963H6C5.46973 4.00016 4.96132 4.21104 4.58636 4.586C4.21141 4.96096 4.00052 5.46936 4 5.99963V25.9996C4.00052 26.5299 4.21141 27.0383 4.58636 27.4133C4.96132 27.7882 5.46973 27.9991 6 27.9996H26C26.5303 27.9991 27.0387 27.7882 27.4136 27.4133C27.7886 27.0383 27.9995 26.5299 28 25.9996V5.99963C27.9995 5.46936 27.7886 4.96096 27.4136 4.586C27.0387 4.21104 26.5303 4.00016 26 3.99963V3.99963ZM21.186 16.7269L15.3527 22.2269C15.1669 22.4022 14.921 22.4997 14.6655 22.4994C14.4101 22.4991 14.1644 22.401 13.979 22.2253L10.8123 19.2253C10.7167 19.1351 10.6399 19.0269 10.5862 18.9069C10.5325 18.7869 10.503 18.6575 10.4993 18.5261C10.4957 18.3947 10.518 18.2639 10.5649 18.1411C10.6119 18.0183 10.6826 17.906 10.773 17.8106C10.8634 17.7151 10.9717 17.6385 11.0918 17.585C11.2118 17.5314 11.3413 17.5021 11.4727 17.4987C11.6041 17.4952 11.7349 17.5177 11.8576 17.5649C11.9803 17.612 12.0925 17.6829 12.1878 17.7734L14.6683 20.1234L19.8141 15.2718C19.9096 15.1818 20.022 15.1114 20.1447 15.0647C20.2675 15.0181 20.3982 14.996 20.5294 14.9999C20.6607 15.0037 20.7899 15.0334 20.9097 15.0872C21.0295 15.141 21.1375 15.2179 21.2276 15.3134C21.3177 15.409 21.3881 15.5213 21.4347 15.644C21.4814 15.7668 21.5034 15.8975 21.4996 16.0288C21.4957 16.16 21.466 16.2892 21.4122 16.409C21.3584 16.5288 21.2816 16.6368 21.186 16.7269H21.186ZM26 9.99963H6V5.99963H9V6.99963C9 7.26485 9.10536 7.5192 9.29289 7.70674C9.48043 7.89428 9.73478 7.99963 10 7.99963C10.2652 7.99963 10.5196 7.89428 10.7071 7.70674C10.8946 7.5192 11 7.26485 11 6.99963V5.99963H21V6.99963C21 7.26485 21.1054 7.5192 21.2929 7.70674C21.4804 7.89428 21.7348 7.99963 22 7.99963C22.2652 7.99963 22.5196 7.89428 22.7071 7.70674C22.8946 7.5192 23 7.26485 23 6.99963V5.99963H26V9.99963Z"/>
</svg>
