<svg viewBox="0 0 32 32" xmlns="http://www.w3.org/2000/svg">
<path d="M17.0021 10V15.4227L21.6983 18.134C21.812 18.1996 21.9117 18.2871 21.9916 18.3912C22.0716 18.4954 22.1302 18.6143 22.1642 18.7412C22.1982 18.868 22.2069 19.0003 22.1897 19.1305C22.1726 19.2607 22.13 19.3863 22.0643 19.5C21.9987 19.6137 21.9112 19.7134 21.807 19.7934C21.7029 19.8733 21.584 19.9319 21.4571 19.9659C21.3303 19.9999 21.198 20.0086 21.0678 19.9915C20.9376 19.9743 20.812 19.9317 20.6983 19.866L15.5021 16.866C15.4941 16.8614 15.487 16.856 15.4792 16.8512C15.4622 16.8407 15.4453 16.8302 15.4291 16.8188C15.4161 16.8097 15.4038 16.8002 15.3914 16.7906C15.3786 16.7808 15.3659 16.7709 15.3537 16.7605C15.3398 16.7486 15.3265 16.7363 15.3134 16.7238C15.3035 16.7144 15.2937 16.705 15.2842 16.6952C15.2708 16.6814 15.2581 16.6672 15.2456 16.6528C15.237 16.6428 15.2284 16.6327 15.2201 16.6223C15.2087 16.6079 15.1977 16.5931 15.1871 16.5781C15.1787 16.5663 15.1705 16.5544 15.1626 16.5421C15.1535 16.5282 15.145 16.514 15.1367 16.4996C15.1285 16.4853 15.1205 16.4708 15.1129 16.4561C15.1062 16.4431 15.1 16.4299 15.0939 16.4166C15.0863 16.4 15.079 16.3833 15.0723 16.3662C15.0674 16.3537 15.0628 16.3411 15.0585 16.3285C15.0522 16.3107 15.0464 16.2927 15.0412 16.2745C15.0374 16.2611 15.0341 16.2476 15.0308 16.2341C15.0267 16.2167 15.0226 16.1993 15.0194 16.1815C15.0164 16.1655 15.0142 16.1493 15.012 16.1331C15.0099 16.1179 15.0079 16.1026 15.0065 16.0871C15.0047 16.0671 15.0041 16.047 15.0035 16.0269C15.0032 16.0179 15.0021 16.0091 15.0021 16V10C15.0021 9.73479 15.1075 9.48044 15.295 9.2929C15.4825 9.10537 15.7369 9.00001 16.0021 9.00001C16.2673 9.00001 16.5217 9.10537 16.7092 9.2929C16.8968 9.48044 17.0021 9.73479 17.0021 10V10ZM28.4056 6.5406C28.2229 6.46491 28.0218 6.44511 27.8278 6.48369C27.6339 6.52228 27.4557 6.61753 27.3158 6.75739L25.5229 8.55029L24.4873 7.51472C22.8095 5.8384 20.6722 4.69716 18.3459 4.23527C16.0195 3.77337 13.6084 4.01156 11.4174 4.91972C9.22633 5.82787 7.35373 7.36523 6.03626 9.33745C4.7188 11.3097 4.01563 13.6282 4.01562 16C4.01562 18.3718 4.7188 20.6903 6.03626 22.6626C7.35373 24.6348 9.22633 26.1721 11.4174 27.0803C13.6084 27.9885 16.0195 28.2266 18.3459 27.7647C20.6722 27.3029 22.8095 26.1616 24.4873 24.4853C24.6749 24.2978 24.7802 24.0434 24.7802 23.7782C24.7802 23.513 24.6749 23.2586 24.4873 23.0711C24.3945 22.9783 24.2843 22.9046 24.1629 22.8543C24.0416 22.8041 23.9116 22.7782 23.7803 22.7782C23.515 22.7782 23.2607 22.8836 23.0732 23.0711C21.6746 24.4696 19.8928 25.422 17.953 25.8079C16.0132 26.1937 14.0025 25.9957 12.1753 25.2388C10.348 24.4819 8.78622 23.2002 7.6874 21.5557C6.58859 19.9112 6.0021 17.9778 6.0021 16C6.0021 14.0222 6.58859 12.0888 7.6874 10.4443C8.78622 8.79982 10.348 7.51809 12.1753 6.76121C14.0025 6.00433 16.0132 5.80629 17.953 6.19214C19.8928 6.57798 21.6746 7.53038 23.0732 8.9289L24.1087 9.96449L22.3158 11.7574C22.176 11.8972 22.0807 12.0754 22.0421 12.2694C22.0036 12.4634 22.0234 12.6645 22.099 12.8472C22.1747 13.0299 22.3029 13.1861 22.4674 13.296C22.6318 13.4058 22.8251 13.4645 23.0229 13.4645H28.0229C28.1543 13.4645 28.2843 13.4386 28.4056 13.3884C28.5269 13.3381 28.6372 13.2645 28.73 13.1716C28.8229 13.0787 28.8966 12.9685 28.9468 12.8472C28.9971 12.7258 29.0229 12.5958 29.0229 12.4645V7.46449C29.0229 7.2667 28.9643 7.07336 28.8544 6.90891C28.7445 6.74446 28.5883 6.61629 28.4056 6.5406V6.5406Z"/>
</svg>
