<svg   viewBox="0 0 32 32" fill="none" xmlns="http://www.w3.org/2000/svg">
<path d="M16.9974 10V15.4227L21.6935 18.134C21.8073 18.1997 21.907 18.2871 21.9869 18.3913C22.0668 18.4955 22.1255 18.6144 22.1595 18.7412C22.1935 18.8681 22.2021 19.0004 22.185 19.1306C22.1678 19.2608 22.1252 19.3863 22.0596 19.5C21.9939 19.6138 21.9065 19.7134 21.8023 19.7934C21.6981 19.8733 21.5792 19.932 21.4524 19.966C21.3255 19.9999 21.1932 20.0086 21.063 19.9915C20.9328 19.9743 20.8073 19.9317 20.6935 19.8661L15.4974 16.8661C15.4894 16.8614 15.4822 16.856 15.4744 16.8512C15.4575 16.8407 15.4406 16.8302 15.4243 16.8188C15.4114 16.8098 15.399 16.8002 15.3867 16.7906C15.3739 16.7808 15.3612 16.7709 15.349 16.7605C15.335 16.7486 15.3218 16.7363 15.3087 16.7238C15.2988 16.7144 15.2889 16.705 15.2794 16.6952C15.2661 16.6814 15.2534 16.6673 15.2409 16.6528C15.2322 16.6428 15.2237 16.6327 15.2154 16.6223C15.2039 16.6079 15.193 16.5932 15.1824 16.5782C15.174 16.5663 15.1657 16.5544 15.1578 16.5422C15.1488 16.5282 15.1403 16.514 15.132 16.4996C15.1237 16.4853 15.1157 16.4709 15.1082 16.4561C15.1015 16.4431 15.0952 16.4299 15.0892 16.4167C15.0816 16.4001 15.0743 16.3833 15.0675 16.3662C15.0626 16.3538 15.0581 16.3412 15.0537 16.3285C15.0475 16.3107 15.0416 16.2928 15.0364 16.2745C15.0327 16.2611 15.0294 16.2477 15.0261 16.2342C15.0219 16.2168 15.0179 16.1993 15.0147 16.1816C15.0117 16.1655 15.0095 16.1494 15.0073 16.1332C15.0052 16.1179 15.0031 16.1027 15.0018 16.0872C15 16.0672 14.9993 16.0471 14.9987 16.0269C14.9985 16.0179 14.9974 16.0091 14.9974 16V10C14.9974 9.73481 15.1027 9.48046 15.2903 9.29292C15.4778 9.10539 15.7322 9.00003 15.9974 9.00003C16.2626 9.00003 16.5169 9.10539 16.7045 9.29292C16.892 9.48046 16.9974 9.73481 16.9974 10V10ZM24.4826 7.51474C22.2304 5.26761 19.1788 4.00562 15.9973 4.00562C12.8159 4.00562 9.76427 5.26761 7.51208 7.51474L6.4765 8.55029L4.68365 6.75742C4.5438 6.61756 4.36562 6.52232 4.17164 6.48373C3.97766 6.44514 3.7766 6.46494 3.59387 6.54062C3.41114 6.61631 3.25496 6.74448 3.14508 6.90894C3.0352 7.07339 2.97656 7.26673 2.97656 7.46451V12.4645C2.97656 12.5958 3.00242 12.7259 3.05268 12.8472C3.10293 12.9685 3.17659 13.0788 3.26945 13.1716C3.36231 13.2645 3.47255 13.3381 3.59387 13.3884C3.7152 13.4386 3.84524 13.4645 3.97656 13.4645H8.97656C9.17435 13.4645 9.36769 13.4059 9.53214 13.296C9.69659 13.1861 9.82476 13.0299 9.90045 12.8472C9.97614 12.6645 9.99594 12.4634 9.95735 12.2694C9.91876 12.0754 9.82351 11.8973 9.68365 11.7574L7.89075 9.9645L8.92633 8.92892C10.3249 7.53039 12.1067 6.57798 14.0465 6.19212C15.9863 5.80626 17.997 6.00429 19.8243 6.76117C21.6515 7.51805 23.2133 8.79978 24.3122 10.4443C25.411 12.0888 25.9975 14.0222 25.9975 16C25.9975 17.9778 25.411 19.9112 24.3122 21.5557C23.2133 23.2002 21.6515 24.482 19.8243 25.2388C17.997 25.9957 15.9863 26.1937 14.0465 25.8079C12.1067 25.422 10.3249 24.4696 8.92633 23.0711C8.73879 22.8835 8.48442 22.7782 8.21919 22.7782C7.95396 22.7782 7.6996 22.8836 7.51206 23.0711C7.32451 23.2587 7.21916 23.513 7.21916 23.7782C7.21917 24.0435 7.32453 24.2978 7.51208 24.4854C9.76253 26.7358 12.8148 28.0001 15.9974 28.0001C19.18 28.0001 22.2322 26.7358 24.4827 24.4853C26.7331 22.2349 27.9974 19.1826 27.9974 16C27.9973 12.8174 26.7331 9.76517 24.4826 7.51474V7.51474Z" fill="black"/>
</svg>
