<svg   viewBox="0 0 32 32" fill="none" xmlns="http://www.w3.org/2000/svg">
<path d="M16 3C13.4288 3 10.9154 3.76244 8.77759 5.1909C6.63975 6.61935 4.97351 8.64968 3.98957 11.0251C3.00563 13.4006 2.74819 16.0144 3.2498 18.5362C3.75141 21.0579 4.98953 23.3743 6.80762 25.1924C8.6257 27.0105 10.9421 28.2486 13.4638 28.7502C15.9856 29.2518 18.5995 28.9944 20.9749 28.0104C23.3503 27.0265 25.3807 25.3603 26.8091 23.2224C28.2376 21.0846 29 18.5712 29 16C28.9961 12.5534 27.6252 9.24905 25.1881 6.81192C22.751 4.37479 19.4466 3.0039 16 3V3ZM23 17H18.4142L21.6569 20.2427C21.8444 20.4302 21.9498 20.6846 21.9498 20.9498C21.9498 21.215 21.8444 21.4693 21.6569 21.6569C21.4693 21.8444 21.215 21.9497 20.9498 21.9497C20.6846 21.9497 20.4302 21.8444 20.2427 21.6569L15.293 16.7072C15.2697 16.6838 15.2476 16.6593 15.2266 16.6338C15.2174 16.6226 15.2094 16.6107 15.2008 16.5992C15.1898 16.5847 15.1785 16.5703 15.1683 16.5551C15.159 16.5411 15.1509 16.5267 15.1423 16.5123C15.1342 16.4987 15.1256 16.4854 15.1181 16.4713C15.1103 16.4567 15.1036 16.4416 15.0966 16.4266C15.0897 16.412 15.0823 16.3976 15.0761 16.3825C15.0701 16.368 15.0653 16.3533 15.0601 16.3386C15.0543 16.3226 15.0481 16.3066 15.0431 16.2902C15.0386 16.2754 15.0354 16.2604 15.0316 16.2456C15.0274 16.2288 15.0228 16.2123 15.0194 16.1953C15.016 16.1781 15.0139 16.1608 15.0115 16.1434C15.0093 16.1284 15.0065 16.1138 15.005 16.0986C15.0018 16.0667 15.0002 16.0348 15.0001 16.0028L15 16L15.0001 15.9972C15.0003 15.9652 15.0019 15.9333 15.005 15.9014C15.0065 15.8862 15.0093 15.8716 15.0115 15.8566C15.0139 15.8392 15.016 15.8219 15.0194 15.8047C15.0228 15.7877 15.0274 15.7712 15.0316 15.7545C15.0354 15.7396 15.0386 15.7246 15.0431 15.7098C15.0481 15.6934 15.0543 15.6774 15.0601 15.6614C15.0653 15.6467 15.0701 15.632 15.0761 15.6175C15.0823 15.6024 15.0897 15.588 15.0966 15.5734C15.1036 15.5584 15.1103 15.5433 15.1181 15.5287C15.1256 15.5146 15.1342 15.5013 15.1423 15.4877C15.1509 15.4733 15.159 15.4589 15.1683 15.4449C15.1785 15.4297 15.1898 15.4153 15.2008 15.4008C15.2094 15.3893 15.2174 15.3774 15.2266 15.3662C15.2685 15.3152 15.3152 15.2685 15.3662 15.2266C15.3777 15.2172 15.3897 15.2091 15.4014 15.2003C15.4158 15.1895 15.4298 15.1784 15.4448 15.1685C15.4591 15.1589 15.4738 15.1506 15.4885 15.1419C15.5018 15.1339 15.5149 15.1255 15.5286 15.1182C15.5436 15.1102 15.559 15.1034 15.5742 15.0962C15.5886 15.0894 15.6027 15.0823 15.6173 15.0762C15.6322 15.07 15.6474 15.0651 15.6625 15.0597C15.6782 15.054 15.6936 15.048 15.7097 15.0432C15.7249 15.0386 15.7404 15.0352 15.7558 15.0313C15.772 15.0272 15.788 15.0227 15.8045 15.0194C15.8224 15.0159 15.8405 15.0137 15.8586 15.0112C15.8728 15.0092 15.8868 15.0064 15.9013 15.005C15.9342 15.0017 15.9671 15 16.0002 15H23C23.2652 15 23.5196 15.1054 23.7071 15.2929C23.8946 15.4804 24 15.7348 24 16C24 16.2652 23.8946 16.5196 23.7071 16.7071C23.5196 16.8947 23.2652 17 23 17V17Z" fill="black"/>
</svg>
