<svg viewBox="0 0 32 32" xmlns="http://www.w3.org/2000/svg">
<path d="M25 9.4555V5.00043C24.9993 4.47021 24.7884 3.9619 24.4135 3.58698C24.0385 3.21205 23.5302 3.00112 23 3.00043H9C8.46978 3.00112 7.96147 3.21205 7.58655 3.58698C7.21162 3.9619 7.00069 4.47021 7 5.00043V9.50043C7.00093 9.81078 7.07371 10.1167 7.21264 10.3942C7.35157 10.6717 7.55288 10.9133 7.80078 11.1L14.334 16.0004L7.79981 20.9008C7.55203 21.0876 7.35087 21.3292 7.21211 21.6067C7.07335 21.8843 7.00075 22.1901 7 22.5004V27.0004C7.00069 27.5306 7.21162 28.039 7.58655 28.4139C7.96147 28.7888 8.46978 28.9997 9 29.0004H23C23.5302 28.9997 24.0385 28.7888 24.4135 28.4139C24.7884 28.039 24.9993 27.5306 25 27.0004V22.5453C24.9996 22.2361 24.9276 21.9311 24.7897 21.6542C24.6518 21.3774 24.4517 21.1363 24.2051 20.9496L17.658 16.0004L24.2051 11.0512C24.4516 10.8645 24.6516 10.6233 24.7894 10.3465C24.9273 10.0697 24.9994 9.76475 25 9.4555V9.4555Z"/>
</svg>
