<svg   viewBox="0 0 32 32" fill="none" xmlns="http://www.w3.org/2000/svg">
<path d="M17.4143 15.9998L25.9998 7.41419C26.2795 7.13448 26.47 6.77812 26.5472 6.39016C26.6244 6.00221 26.5847 5.60008 26.4334 5.23463C26.282 4.86919 26.0257 4.55683 25.6968 4.33707C25.3679 4.11731 24.9812 4.00001 24.5857 4H7.41402C7.01847 4.00001 6.63179 4.11731 6.3029 4.33707C5.97401 4.55683 5.71767 4.86919 5.5663 5.23463C5.41493 5.60008 5.37532 6.00221 5.45249 6.39016C5.52966 6.77812 5.72014 7.13448 5.99984 7.41419L14.5854 16.0002L5.99984 24.5858C5.72014 24.8655 5.52966 25.2219 5.45249 25.6098C5.37532 25.9978 5.41493 26.3999 5.5663 26.7654C5.71767 27.1308 5.97401 27.4432 6.3029 27.6629C6.63179 27.8827 7.01847 28 7.41402 28H24.5856C24.9812 28 25.3679 27.8827 25.6968 27.6629C26.0257 27.4432 26.282 27.1308 26.4334 26.7654C26.5848 26.3999 26.6244 25.9978 26.5472 25.6098C26.47 25.2219 26.2795 24.8655 25.9998 24.5858L17.4143 15.9998ZM7.41488 6L24.585 6.00061L16.0001 14.5856L7.41488 6ZM15.9996 17.4144L19.585 21H12.414L15.9996 17.4144Z" fill="black"/>
</svg>
