<svg   viewBox="0 0 32 32" fill="none" xmlns="http://www.w3.org/2000/svg">
<path d="M25 9.45514V5C24.9994 4.46975 24.7885 3.9614 24.4135 3.58646C24.0386 3.21151 23.5302 3.00061 23 3H9C8.46975 3.00061 7.9614 3.21151 7.58646 3.58646C7.21151 3.9614 7.00061 4.46975 7 5V9.5C7.00073 9.81036 7.07335 10.1163 7.21214 10.3939C7.35094 10.6715 7.55214 10.9132 7.79999 11.1L14.3334 16L7.80005 20.9C7.5675 21.0759 7.37605 21.3003 7.23902 21.5577C7.10198 21.8151 7.02265 22.0992 7.00653 22.3903C7.00233 22.4267 7.00015 22.4633 7 22.5V27C7.00061 27.5302 7.21151 28.0386 7.58646 28.4135C7.9614 28.7885 8.46975 28.9994 9 29H23C23.5302 28.9994 24.0386 28.7885 24.4135 28.4135C24.7885 28.0386 24.9994 27.5302 25 27V22.5449C24.9999 22.5076 24.9977 22.4703 24.9934 22.4332C24.977 22.1437 24.8982 21.8612 24.7623 21.605C24.6263 21.3489 24.4366 21.1252 24.206 20.9494L17.6583 16L24.2061 11.0506C24.4521 10.8636 24.6518 10.6224 24.7895 10.3457C24.9272 10.0689 24.9992 9.76421 25 9.45514ZM10.3246 21.5065L15.9977 17.2518L21.6684 21.5383L10.3246 21.5065ZM23 9.45517L15.9977 14.7482L9 9.5V5H23V9.45517Z" fill="black"/>
</svg>
