<svg   viewBox="0 0 32 32" fill="none" xmlns="http://www.w3.org/2000/svg">
<path d="M13 2H19C19.2652 2 19.5196 1.89464 19.7071 1.70711C19.8946 1.51957 20 1.26522 20 1C20 0.734784 19.8946 0.48043 19.7071 0.292893C19.5196 0.105357 19.2652 0 19 0L13 0C12.7348 0 12.4804 0.105357 12.2929 0.292893C12.1054 0.48043 12 0.734784 12 1C12 1.26522 12.1054 1.51957 12.2929 1.70711C12.4804 1.89464 12.7348 2 13 2V2Z" fill="black"/>
<path d="M16 4C13.6266 4 11.3066 4.70379 9.33316 6.02236C7.35977 7.34094 5.8217 9.21509 4.91345 11.4078C4.0052 13.6005 3.76756 16.0133 4.23058 18.3411C4.6936 20.6689 5.83649 22.8071 7.51472 24.4853C9.19295 26.1635 11.3312 27.3064 13.6589 27.7694C15.9867 28.2324 18.3995 27.9948 20.5922 27.0866C22.7849 26.1783 24.6591 24.6402 25.9776 22.6668C27.2962 20.6935 28 18.3734 28 16C27.9964 12.8185 26.731 9.76835 24.4813 7.51869C22.2317 5.26903 19.1815 4.0036 16 4V4ZM21.6569 11.7573L16.7072 16.7071C16.6143 16.8 16.5041 16.8736 16.3827 16.9239C16.2614 16.9741 16.1314 17 16 17C15.8687 17 15.7387 16.9742 15.6174 16.9239C15.496 16.8737 15.3858 16.8 15.2929 16.7072C15.2 16.6143 15.1264 16.5041 15.0761 16.3827C15.0259 16.2614 15 16.1314 15 16C15 15.8687 15.0258 15.7387 15.0761 15.6173C15.1263 15.496 15.2 15.3858 15.2929 15.2929L20.2426 10.3431C20.3355 10.2503 20.4457 10.1766 20.567 10.1264C20.6884 10.0761 20.8184 10.0502 20.9497 10.0502C21.081 10.0502 21.2111 10.0761 21.3324 10.1263C21.4537 10.1766 21.564 10.2503 21.6568 10.3431C21.7497 10.436 21.8234 10.5462 21.8736 10.6675C21.9239 10.7889 21.9497 10.9189 21.9497 11.0502C21.9498 11.1815 21.9239 11.3116 21.8736 11.4329C21.8234 11.5542 21.7497 11.6645 21.6569 11.7573H21.6569Z" fill="black"/>
</svg>
