<svg   viewBox="0 0 32 32" fill="none" xmlns="http://www.w3.org/2000/svg">
<path d="M21.9121 7.94138L21.1329 3.64319C21.0496 3.18205 20.8068 2.76487 20.4471 2.46452C20.0874 2.16418 19.6336 1.99976 19.165 2H12.835C12.3664 1.99976 11.9126 2.16418 11.5529 2.46452C11.1932 2.76487 10.9504 3.18205 10.8671 3.64319L10.0879 7.94138C8.82104 8.86876 7.79067 10.0818 7.08041 11.4819C6.37015 12.8821 6 14.43 6 16C6 17.57 6.37015 19.1179 7.08041 20.5181C7.79067 21.9182 8.82104 23.1312 10.0879 24.0586L10.8671 28.3568C10.9504 28.8179 11.1932 29.2351 11.5529 29.5355C11.9126 29.8358 12.3664 30.0002 12.835 30H19.165C19.6336 30.0002 20.0874 29.8358 20.4471 29.5355C20.8068 29.2351 21.0496 28.8179 21.1329 28.3568L21.9121 24.0586C23.179 23.1312 24.2093 21.9182 24.9196 20.5181C25.6298 19.1179 26 17.57 26 16C26 14.43 25.6298 12.8821 24.9196 11.4819C24.2093 10.0818 23.179 8.86876 21.9121 7.94138V7.94138ZM12.835 4H19.165L19.6534 6.69415C17.3057 5.76862 14.6943 5.76862 12.3466 6.69415L12.835 4ZM19.165 28H12.835L12.3466 25.3059C14.6943 26.2314 17.3057 26.2314 19.6534 25.3059L19.165 28ZM21 17H16C15.7348 17 15.4804 16.8946 15.2929 16.7071C15.1054 16.5196 15 16.2652 15 16V11C15 10.7348 15.1054 10.4804 15.2929 10.2929C15.4804 10.1054 15.7348 10 16 10C16.2652 10 16.5196 10.1054 16.7071 10.2929C16.8946 10.4804 17 10.7348 17 11V15H21C21.2652 15 21.5196 15.1054 21.7071 15.2929C21.8946 15.4804 22 15.7348 22 16C22 16.2652 21.8946 16.5196 21.7071 16.7071C21.5196 16.8946 21.2652 17 21 17Z" fill="black"/>
</svg>
