<svg viewBox="0 0 32 32" xmlns="http://www.w3.org/2000/svg">
<path d="M26.1908 10.0503L21.9844 14L25.9844 25L22.9844 28L17.0084 19.2526L13.9844 22V25L10.9844 28L9.21032 22.7682L3.98438 21L6.98438 18H9.98438L12.9844 15L3.98438 9.00001L6.98438 6.00001L17.9844 10L21.9482 5.80762L21.8631 5.87869C22.1415 5.59961 22.4723 5.37816 22.8364 5.22699C23.2005 5.07582 23.5908 4.9979 23.9851 4.99768C24.3793 4.99746 24.7697 5.07496 25.134 5.22573C25.4983 5.3765 25.8293 5.59759 26.108 5.87636C26.3868 6.15513 26.6079 6.48612 26.7587 6.85039C26.9094 7.21467 26.9869 7.60509 26.9867 7.99933C26.9865 8.39357 26.9086 8.78391 26.7574 9.14802C26.6062 9.51212 26.3848 9.84287 26.1057 10.1213L26.1908 10.0503Z" stroke-width="2" stroke-linecap="round" stroke-linejoin="round"/>
</svg>
