<svg viewBox="0 0 32 32" xmlns="http://www.w3.org/2000/svg">
<path d="M9 27H27" stroke-width="2" stroke-linecap="round" stroke-linejoin="round"/>
<path d="M3.34375 10H5.49972L7.99972 13H11.9997L10.4385 8.31623C10.3884 8.16591 10.3747 8.00583 10.3986 7.84919C10.4225 7.69255 10.4833 7.54383 10.5759 7.41529C10.6686 7.28675 10.7904 7.18206 10.9315 7.10986C11.0725 7.03765 11.2287 7 11.3871 7H13.4997L18.9997 13H25.9997C27.0606 13 28.078 13.4214 28.8281 14.1716C29.5783 14.9217 29.9997 15.9391 29.9997 17V20H7.97584C7.11561 20 6.27829 19.7227 5.58812 19.2092C4.89796 18.6957 4.39173 17.9734 4.14454 17.1494L2.38592 11.2873C2.34113 11.138 2.33186 10.9803 2.35887 10.8268C2.38587 10.6732 2.4484 10.5281 2.54146 10.4031C2.63451 10.278 2.75552 10.1764 2.89482 10.1064C3.03413 10.0364 3.18786 10 3.34375 10Z" stroke-width="2" stroke-linecap="round" stroke-linejoin="round"/>
</svg>
