<svg viewBox="0 0 32 32" xmlns="http://www.w3.org/2000/svg">
<path d="M12 27H30" stroke-width="2" stroke-linecap="round" stroke-linejoin="round"/>
<path d="M3 12.9662V6.38745C3 6.229 3.03765 6.07282 3.10986 5.93177C3.18206 5.79073 3.28675 5.66886 3.41529 5.57621C3.54383 5.48356 3.69255 5.42278 3.84919 5.39889C4.00583 5.37499 4.16591 5.38866 4.31623 5.43877L6 6.00003L8 9.75003L12 11V6.38745C12 6.229 12.0377 6.07282 12.1099 5.93177C12.1821 5.79073 12.2867 5.66886 12.4153 5.57621C12.5438 5.48356 12.6926 5.42278 12.8492 5.39889C13.0058 5.37499 13.1659 5.38866 13.3162 5.43877L15 6.00003L19 13L25.0706 14.6863C25.913 14.9203 26.6555 15.4238 27.1845 16.1199C27.7136 16.8159 28 17.6661 28 18.5404V23L5.92148 16.818C5.08095 16.5827 4.34046 16.0789 3.81299 15.3834C3.28551 14.688 3 13.839 3 12.9662V12.9662Z" stroke-width="2" stroke-linecap="round" stroke-linejoin="round"/>
</svg>
