<svg viewBox="0 0 32 32" xmlns="http://www.w3.org/2000/svg">
<path d="M3 27H21" stroke-width="2" stroke-linecap="round" stroke-linejoin="round"/>
<path d="M2.11293 17.5462L6.82485 21.9636C7.45265 22.5522 8.25352 22.9226 9.10854 23.0198C9.96357 23.1171 10.8272 22.936 11.5711 22.5035L30.497 11.5L28.1671 8.65236C27.5627 7.9136 26.714 7.41534 25.7743 7.24757C24.8346 7.07981 23.866 7.25361 23.0432 7.73757L17.497 11L9.99704 8.50003L7.93467 9.38391C7.78037 9.45003 7.6452 9.55394 7.54163 9.68605C7.43805 9.81815 7.3694 9.97421 7.342 10.1398C7.3146 10.3054 7.32933 10.4753 7.38484 10.6337C7.44035 10.7921 7.53484 10.934 7.65962 11.0463L11.497 14.5L7.99704 16.5L4.49704 15L2.40295 15.8975C2.25024 15.9629 2.11624 16.0654 2.01306 16.1956C1.90989 16.3259 1.84078 16.4798 1.812 16.6434C1.78321 16.807 1.79565 16.9753 1.84819 17.1329C1.90074 17.2905 1.99172 17.4325 2.11293 17.5462V17.5462Z" stroke-width="2" stroke-linecap="round" stroke-linejoin="round"/>
</svg>
