<svg   viewBox="0 0 32 32" fill="none" xmlns="http://www.w3.org/2000/svg">
<path d="M16 6V3" stroke="black" stroke-width="2" stroke-linecap="round" stroke-linejoin="round"/>
<path d="M28 20C26.1787 26.3745 17.7232 28.6026 16.2267 28.9499C16.0776 28.9846 15.9224 28.9846 15.7733 28.9499C14.2768 28.6026 5.82129 26.3745 4 20V15.7207C4 15.5109 4.06604 15.3063 4.18876 15.136C4.31148 14.9658 4.48466 14.8384 4.68377 14.7721L15.6838 11.1054C15.889 11.037 16.111 11.037 16.3162 11.1054L27.3162 14.7721C27.5153 14.8384 27.6885 14.9658 27.8112 15.136C27.934 15.3063 28 15.5109 28 15.7207V20Z" stroke="black" stroke-width="2" stroke-linecap="round" stroke-linejoin="round"/>
<path d="M16 21V11.0541" stroke="black" stroke-width="2" stroke-linecap="round" stroke-linejoin="round"/>
<path d="M7 14V7C7 6.73478 7.10536 6.48043 7.29289 6.29289C7.48043 6.10536 7.73478 6 8 6H24C24.2652 6 24.5196 6.10536 24.7071 6.29289C24.8946 6.48043 25 6.73478 25 7V14" stroke="black" stroke-width="2" stroke-linecap="round" stroke-linejoin="round"/>
</svg>
