<svg viewBox="0 0 32 32" xmlns="http://www.w3.org/2000/svg">
<path d="M5.25 9H26.75" stroke-width="2" stroke-linecap="round" stroke-linejoin="round"/>
<path d="M5.25 15H26.75" stroke-width="2" stroke-linecap="round" stroke-linejoin="round"/>
<path d="M26.75 24H5.25V8C5.25 7.20435 5.56607 6.44129 6.12868 5.87868C6.69129 5.31607 7.45435 5 8.25 5H23.75C24.5456 5 25.3087 5.31607 25.8713 5.87868C26.4339 6.44129 26.75 7.20435 26.75 8V24Z" stroke-width="2" stroke-linecap="round" stroke-linejoin="round"/>
<path d="M26.75 24V27C26.75 27.2652 26.6446 27.5196 26.4571 27.7071C26.2696 27.8946 26.0152 28 25.75 28H22.75C22.4848 28 22.2304 27.8946 22.0429 27.7071C21.8554 27.5196 21.75 27.2652 21.75 27V24" stroke-width="2" stroke-linecap="round" stroke-linejoin="round"/>
<path d="M10.25 24V27C10.25 27.2652 10.1446 27.5196 9.95711 27.7071C9.76957 27.8946 9.51522 28 9.25 28H6.25C5.98478 28 5.73043 27.8946 5.54289 27.7071C5.35536 27.5196 5.25 27.2652 5.25 27V24" stroke-width="2" stroke-linecap="round" stroke-linejoin="round"/>
<path d="M10.5 21C11.3284 21 12 20.3284 12 19.5C12 18.6716 11.3284 18 10.5 18C9.67157 18 9 18.6716 9 19.5C9 20.3284 9.67157 21 10.5 21Z"/>
<path d="M21.5 21C22.3284 21 23 20.3284 23 19.5C23 18.6716 22.3284 18 21.5 18C20.6716 18 20 18.6716 20 19.5C20 20.3284 20.6716 21 21.5 21Z"/>
</svg>
