<svg viewBox="0 0 32 32" xmlns="http://www.w3.org/2000/svg">
<path d="M2 15H30" stroke-width="2" stroke-linecap="round" stroke-linejoin="round"/>
<path d="M28 23V26C28 26.2652 27.8946 26.5196 27.7071 26.7071C27.5196 26.8946 27.2652 27 27 27H24C23.7348 27 23.4804 26.8946 23.2929 26.7071C23.1054 26.5196 23 26.2652 23 26V23" stroke-width="2" stroke-linecap="round" stroke-linejoin="round"/>
<path d="M9 23V26C9 26.2652 8.89464 26.5196 8.70711 26.7071C8.51957 26.8946 8.26522 27 8 27H5C4.73478 27 4.48043 26.8946 4.29289 26.7071C4.10536 26.5196 4 26.2652 4 26V23" stroke-width="2" stroke-linecap="round" stroke-linejoin="round"/>
<path d="M8 19H10" stroke-width="2" stroke-linecap="round" stroke-linejoin="round"/>
<path d="M22 19H24" stroke-width="2" stroke-linecap="round" stroke-linejoin="round"/>
<path d="M28 15L24.2639 6.59386C24.1854 6.4171 24.0572 6.26691 23.895 6.16151C23.7328 6.0561 23.5436 6 23.3501 6H8.64987C8.45644 6 8.26716 6.0561 8.10496 6.16151C7.94277 6.26691 7.81463 6.4171 7.73606 6.59386L4 15V23H28V15Z" stroke-width="2" stroke-linecap="round" stroke-linejoin="round"/>
</svg>
