<svg viewBox="0 0 32 32" xmlns="http://www.w3.org/2000/svg">
<path d="M2 15H30" stroke-width="2" stroke-linecap="round" stroke-linejoin="round"/>
<path d="M27 27H24C23.7348 27 23.4804 26.8946 23.2929 26.7071C23.1054 26.5196 23 26.2652 23 26V23H9V26C9 26.2652 8.89464 26.5196 8.70711 26.7071C8.51957 26.8946 8.26522 27 8 27H5C4.73478 27 4.48043 26.8946 4.29289 26.7071C4.10536 26.5196 4 26.2652 4 26V15L7.73606 6.59386C7.81462 6.4171 7.94277 6.26691 8.10496 6.16151C8.26716 6.0561 8.45644 6 8.64987 6H23.3501C23.5436 6 23.7328 6.0561 23.895 6.16151C24.0572 6.26691 24.1854 6.4171 24.2639 6.59386L28 15V26C28 26.2652 27.8946 26.5196 27.7071 26.7071C27.5196 26.8946 27.2652 27 27 27Z" stroke-width="2" stroke-linecap="round" stroke-linejoin="round"/>
</svg>
