<svg viewBox="0 0 32 32" xmlns="http://www.w3.org/2000/svg">
<path d="M16 28C22.6274 28 28 22.6274 28 16C28 9.37258 22.6274 4 16 4C9.37258 4 4 9.37258 4 16C4 22.6274 9.37258 28 16 28Z" stroke-width="2" stroke-linecap="round" stroke-linejoin="round"/>
<path d="M6.19531 22.9242L7.65504 22.043C7.80167 21.9545 7.92311 21.8298 8.00772 21.6809C8.09232 21.532 8.13726 21.3638 8.13822 21.1926L8.16357 16.6764C8.16463 16.4877 8.21905 16.3032 8.32055 16.1441L10.8009 12.2569C10.8742 12.142 10.9702 12.0433 11.083 11.9669C11.1959 11.8905 11.3232 11.8379 11.457 11.8124C11.5909 11.787 11.7286 11.7892 11.8616 11.8188C11.9947 11.8485 12.1202 11.9051 12.2306 11.985L14.6876 13.7651C14.8957 13.9159 15.1538 13.9808 15.4085 13.9463L19.3435 13.4134C19.5849 13.3807 19.806 13.261 19.9654 13.0768L22.7351 9.87672C22.9032 9.68245 22.9901 9.43091 22.9778 9.17428L22.8318 6.13635" stroke-width="2" stroke-linecap="round" stroke-linejoin="round"/>
<path d="M23.3802 25.4603L22.0387 24.1162C21.9132 23.9905 21.7565 23.9005 21.5847 23.8554L18.9024 23.1515C18.6643 23.089 18.4577 22.9409 18.322 22.7356C18.1863 22.5302 18.1311 22.2821 18.1669 22.0386L18.465 20.014C18.4902 19.8432 18.5592 19.6817 18.6653 19.5454C18.7714 19.4091 18.911 19.3026 19.0705 19.2363L22.8769 17.6542C23.0527 17.5811 23.2457 17.5598 23.4332 17.5926C23.6208 17.6255 23.7951 17.7112 23.9356 17.8397L27.0474 20.6857" stroke-width="2" stroke-linecap="round" stroke-linejoin="round"/>
</svg>
