<svg   viewBox="0 0 32 32" fill="none" xmlns="http://www.w3.org/2000/svg">
<path d="M16 28C22.6274 28 28 22.6274 28 16C28 9.37258 22.6274 4 16 4C9.37258 4 4 9.37258 4 16C4 22.6274 9.37258 28 16 28Z" stroke="black" stroke-width="2" stroke-linecap="round" stroke-linejoin="round"/>
<path d="M26.7728 21.2965L19.987 17.1229C19.8681 17.0498 19.7351 17.0023 19.5967 16.9837L16.7444 16.5992C16.5302 16.5703 16.3124 16.6116 16.1237 16.7169C15.9349 16.8221 15.7854 16.9857 15.6974 17.1831L13.985 21.0254C13.9054 21.2041 13.8799 21.4022 13.9118 21.5953C13.9436 21.7883 14.0314 21.9677 14.1642 22.1114L16.5142 24.6532C16.6207 24.7684 16.6986 24.9071 16.7416 25.058C16.7846 25.209 16.7915 25.3679 16.7617 25.522L16.283 27.9965" stroke="black" stroke-width="2" stroke-linecap="round" stroke-linejoin="round"/>
<path d="M8.11888 6.95081L7.00085 9.59452C6.90116 9.83025 6.89565 10.0952 6.98545 10.3349L8.42181 14.1684C8.48062 14.3254 8.57797 14.4651 8.70488 14.5746C8.83179 14.6841 8.9842 14.76 9.1481 14.7952L11.8268 15.371C11.9755 15.4029 12.1149 15.4683 12.2344 15.5622C12.354 15.6562 12.4506 15.7761 12.5168 15.9129L12.9925 16.8957C13.0744 17.0648 13.2022 17.2074 13.3614 17.3072C13.5206 17.4071 13.7047 17.46 13.8926 17.46H15.5717" stroke="black" stroke-width="2" stroke-linecap="round" stroke-linejoin="round"/>
<path d="M19.0593 4.39355L20.226 6.48335C20.3363 6.68091 20.3763 6.91003 20.3396 7.13329C20.3028 7.35654 20.1914 7.56073 20.0236 7.7125L16.6597 10.7547C16.6027 10.8063 16.5398 10.8512 16.4724 10.8884L14.9422 11.7334C14.7942 11.8152 14.6279 11.8581 14.4588 11.8581H11.7906C11.5938 11.8581 11.4014 11.9161 11.2375 12.0249C11.0736 12.1338 10.9454 12.2885 10.869 12.4699L9.82812 14.9409" stroke="black" stroke-width="2" stroke-linecap="round" stroke-linejoin="round"/>
</svg>
