<svg viewBox="0 0 32 32" xmlns="http://www.w3.org/2000/svg">
<path d="M26.6727 13.7024L16.672 4.61054C16.4879 4.44318 16.2481 4.35046 15.9993 4.35046C15.7505 4.35047 15.5106 4.44322 15.3266 4.61058L5.32726 13.7024C5.22418 13.7962 5.14183 13.9104 5.08547 14.0378C5.02911 14.1652 5 14.303 5 14.4423V26C5 26.2652 5.10536 26.5196 5.29289 26.7071C5.48043 26.8946 5.73478 27 6 27H26C26.2652 27 26.5196 26.8946 26.7071 26.7071C26.8946 26.5196 27 26.2652 27 26V14.4424C27 14.303 26.9709 14.1652 26.9145 14.0378C26.8582 13.9104 26.7758 13.7962 26.6727 13.7024Z" stroke-width="2" stroke-linecap="round" stroke-linejoin="round"/>
</svg>
