<svg   viewBox="0 0 32 32" fill="none" xmlns="http://www.w3.org/2000/svg">
<path d="M4.6722 5.94552L11.9978 27.1084C12.0668 27.3077 12.197 27.4801 12.3699 27.6009C12.5427 27.7218 12.7493 27.7849 12.9602 27.7812C13.171 27.7775 13.3753 27.7073 13.5439 27.5805C13.7124 27.4538 13.8366 27.277 13.8986 27.0754L16.843 17.506C16.891 17.3501 16.9764 17.2083 17.0917 17.0929C17.207 16.9776 17.3488 16.8922 17.5047 16.8443L27.0742 13.8998C27.2758 13.8378 27.4526 13.7136 27.5793 13.5451C27.7061 13.3766 27.7763 13.1723 27.78 12.9614C27.7836 12.7506 27.7205 12.5439 27.5997 12.3711C27.4789 12.1983 27.3065 12.068 27.1072 11.9991L5.9443 4.67342C5.76696 4.61204 5.57592 4.60179 5.39303 4.64385C5.21014 4.68592 5.04278 4.7786 4.91008 4.9113C4.77738 5.044 4.6847 5.21136 4.64263 5.39425C4.60057 5.57714 4.61081 5.76818 4.6722 5.94552V5.94552Z" stroke="black" stroke-width="2" stroke-linecap="round" stroke-linejoin="round"/>
</svg>
