<svg viewBox="0 0 32 32" xmlns="http://www.w3.org/2000/svg">
<path d="M18 28H14" stroke-width="2" stroke-linecap="round" stroke-linejoin="round"/>
<path d="M15.3743 2.47029C13.0003 4.37205 5.05981 11.9714 12.003 23.9999H20.003C26.8019 11.9799 18.9775 4.38281 16.6284 2.47433C16.4513 2.33039 16.2303 2.25147 16.0021 2.25074C15.7739 2.25 15.5523 2.32749 15.3743 2.47029V2.47029Z" stroke-width="2" stroke-linecap="round" stroke-linejoin="round"/>
<path d="M9.23649 13.92L5.31772 18.6226C5.21983 18.74 5.15019 18.8784 5.11413 19.027C5.07808 19.1755 5.07658 19.3304 5.10975 19.4797L6.65512 26.4338C6.69195 26.5996 6.7704 26.7533 6.88306 26.8803C6.99572 27.0074 7.13888 27.1037 7.29905 27.1601C7.45922 27.2165 7.63111 27.2312 7.79854 27.2028C7.96596 27.1744 8.12339 27.1039 8.256 26.9978L12.0032 24" stroke-width="2" stroke-linecap="round" stroke-linejoin="round"/>
<path d="M22.6914 13.8297L26.6854 18.6225C26.7833 18.74 26.853 18.8783 26.889 19.0269C26.9251 19.1755 26.9266 19.3304 26.8934 19.4796L25.348 26.4338C25.3112 26.5996 25.2328 26.7532 25.1201 26.8803C25.0074 27.0073 24.8643 27.1036 24.7041 27.16C24.5439 27.2165 24.372 27.2312 24.2046 27.2028C24.0372 27.1744 23.8798 27.1038 23.7472 26.9977L20 24" stroke-width="2" stroke-linecap="round" stroke-linejoin="round"/>
<path d="M16 13.5C16.8284 13.5 17.5 12.8284 17.5 12C17.5 11.1716 16.8284 10.5 16 10.5C15.1716 10.5 14.5 11.1716 14.5 12C14.5 12.8284 15.1716 13.5 16 13.5Z"/>
</svg>
