<svg viewBox="0 0 32 32" xmlns="http://www.w3.org/2000/svg">
<path d="M11.7586 23.0711C10.3444 27.3137 4.6875 27.3137 4.6875 27.3137C4.6875 27.3137 4.6875 21.6569 8.93014 20.2427" stroke-width="2" stroke-linecap="round" stroke-linejoin="round"/>
<path d="M24.4859 13.1715L16.0006 21.6568L10.3438 15.9999L18.829 7.51466C22.0421 4.30164 25.2551 4.33298 26.6253 4.53743C26.8363 4.56888 27.0316 4.66727 27.1824 4.8181C27.3333 4.96894 27.4317 5.16423 27.4631 5.37521C27.6676 6.74548 27.6989 9.9585 24.4859 13.1715Z" stroke-width="2" stroke-linecap="round" stroke-linejoin="round"/>
<path d="M23.0711 14.5858V22.6569C23.0711 22.7882 23.0452 22.9182 22.9949 23.0396C22.9447 23.1609 22.871 23.2711 22.7782 23.364L18.7355 27.4067C18.6075 27.5347 18.4471 27.6255 18.2716 27.6696C18.096 27.7136 17.9118 27.7091 17.7386 27.6567C17.5653 27.6042 17.4096 27.5058 17.2879 27.3717C17.1663 27.2377 17.0833 27.0732 17.0478 26.8957L16 21.6569" stroke-width="2" stroke-linecap="round" stroke-linejoin="round"/>
<path d="M17.4107 8.92896H9.3396C9.20827 8.92895 9.07824 8.95482 8.95691 9.00508C8.83559 9.05533 8.72535 9.12899 8.63249 9.22185L4.58977 13.2646C4.46178 13.3926 4.37093 13.5529 4.32691 13.7284C4.28288 13.904 4.28733 14.0882 4.33978 14.2615C4.39223 14.4347 4.49072 14.5904 4.62474 14.7121C4.75875 14.8338 4.92327 14.9168 5.10076 14.9523L10.3396 16" stroke-width="2" stroke-linecap="round" stroke-linejoin="round"/>
</svg>
