<svg viewBox="0 0 24 24" xmlns="http://www.w3.org/2000/svg">
<path d="M12.0005 23C13.1005 23 13.9905 22.11 13.9905 21.01H10.0105C10.0105 22.11 10.9005 23 12.0005 23ZM19.0005 17V11C19.0005 7.65 16.6405 4.85 13.5005 4.17V3C13.5005 2.17 12.8305 1.5 12.0005 1.5C11.1705 1.5 10.5005 2.17 10.5005 3V4.17C7.36054 4.85 5.00054 7.65 5.00054 11V17L3.71054 18.29C3.08054 18.92 3.52054 20 4.41054 20H19.5805C20.4705 20 20.9205 18.92 20.2905 18.29L19.0005 17ZM15.0005 13.01H13.0005V15.01C13.0005 15.56 12.5505 16.01 12.0005 16.01C11.4505 16.01 11.0005 15.56 11.0005 15.01V13.01H9.00054C8.45054 13.01 8.00054 12.56 8.00054 12.01V12C8.00054 11.45 8.45054 11 9.00054 11H11.0005V9C11.0005 8.45 11.4505 8 12.0005 8C12.5505 8 13.0005 8.45 13.0005 9V11H15.0005C15.5505 11 16.0005 11.45 16.0005 12V12.01C16.0005 12.56 15.5505 13.01 15.0005 13.01Z"/>
</svg>
