<svg   viewBox="0 0 24 24" fill="none" xmlns="http://www.w3.org/2000/svg">
<g clip-path="url(#clip0_61_16817)">
<path d="M17.7461 16.001H7.16612C5.07612 16.001 3.21612 14.471 3.01612 12.391C2.78612 10.011 4.65612 8.00098 6.99612 8.00098H19.3561C20.6661 8.00098 21.8561 8.94098 21.9861 10.241C22.1361 11.741 20.9661 13.001 19.4961 13.001H8.99612C8.44612 13.001 7.99612 12.551 7.99612 12.001C7.99612 11.451 8.44612 11.001 8.99612 11.001H17.7461C18.1561 11.001 18.4961 10.661 18.4961 10.251C18.4961 9.84098 18.1561 9.50098 17.7461 9.50098H9.13612C7.82612 9.50098 6.63612 10.441 6.50612 11.741C6.35612 13.241 7.52612 14.501 8.99612 14.501H19.3261C21.4161 14.501 23.2761 12.971 23.4761 10.891C23.7061 8.50098 21.8361 6.50098 19.4961 6.50098H7.22612C4.35612 6.50098 1.78612 8.60098 1.51612 11.461C1.21612 14.751 3.77612 17.501 6.99612 17.501H17.7461C18.1561 17.501 18.4961 17.161 18.4961 16.751C18.4961 16.341 18.1561 16.001 17.7461 16.001Z" fill="black"/>
</g>
<defs>
<clipPath id="clip0_61_16817">
<rect width="24" height="24" fill="white" transform="translate(0 0.000976562)"/>
</clipPath>
</defs>
</svg>
