<svg   viewBox="0 0 24 24" fill="none" xmlns="http://www.w3.org/2000/svg">
<g clip-path="url(#clip0_61_16818)">
<path d="M21 10.001V4.00098C21 2.90098 20.1 2.00098 19 2.00098H3C1.9 2.00098 1.01 2.90098 1.01 4.00098L1 16.001C1 17.101 1.9 18.001 3 18.001H14V13.001C14 11.341 15.34 10.001 17 10.001H21ZM11.53 10.671C11.21 10.871 10.79 10.871 10.47 10.671L3.4 6.25098C3.15 6.09098 3 5.82098 3 5.53098C3 4.86098 3.73 4.46098 4.3 4.81098L11 9.00098L17.7 4.81098C18.27 4.46098 19 4.86098 19 5.53098C19 5.82098 18.85 6.09098 18.6 6.25098L11.53 10.671Z" fill="black"/>
<path d="M22 14.001C21.45 14.001 21 14.451 21 15.001V18.001C21 19.101 20.1 20.001 19 20.001C17.9 20.001 17 19.101 17 18.001V13.501C17 13.221 17.22 13.001 17.5 13.001C17.78 13.001 18 13.221 18 13.501V17.001C18 17.551 18.45 18.001 19 18.001C19.55 18.001 20 17.551 20 17.001V13.501C20 12.121 18.88 11.001 17.5 11.001C16.12 11.001 15 12.121 15 13.501V18.001C15 20.211 16.79 22.001 19 22.001C21.21 22.001 23 20.211 23 18.001V15.001C23 14.451 22.55 14.001 22 14.001Z" fill="black"/>
</g>
<defs>
<clipPath id="clip0_61_16818">
<rect width="24" height="24" fill="white" transform="translate(0 0.000976562)"/>
</clipPath>
</defs>
</svg>
