<svg   viewBox="0 0 24 24" fill="none" xmlns="http://www.w3.org/2000/svg">
<g clip-path="url(#clip0_61_16824)">
<path d="M19.35 10.041C18.67 6.59098 15.64 4.00098 12 4.00098C9.11 4.00098 6.6 5.64098 5.35 8.04098C2.34 8.36098 0 10.911 0 14.001C0 17.311 2.69 20.001 6 20.001H19C21.76 20.001 24 17.761 24 15.001C24 12.361 21.95 10.221 19.35 10.041ZM19 18.001H6C3.79 18.001 2 16.211 2 14.001C2 11.791 3.79 10.001 6 10.001H6.71C7.37 7.69098 9.48 6.00098 12 6.00098C15.04 6.00098 17.5 8.46098 17.5 11.501V12.001H19C20.66 12.001 22 13.341 22 15.001C22 16.661 20.66 18.001 19 18.001Z" fill="black"/>
</g>
<defs>
<clipPath id="clip0_61_16824">
<rect width="24" height="24" fill="white" transform="translate(0 0.000976562)"/>
</clipPath>
</defs>
</svg>
