<svg   viewBox="0 0 24 24" fill="none" xmlns="http://www.w3.org/2000/svg">
<g clip-path="url(#clip0_61_16823)">
<path d="M23.9973 15.001C23.9973 12.361 21.9473 10.221 19.3473 10.041C18.6673 6.59098 15.6373 4.00098 11.9973 4.00098C10.6673 4.00098 9.4273 4.36098 8.3473 4.97098L9.8373 6.46098C10.5073 6.17098 11.2273 6.00098 11.9973 6.00098C15.0373 6.00098 17.4973 8.46098 17.4973 11.501V12.001H18.9973C20.6573 12.001 21.9973 13.341 21.9973 15.001C21.9973 15.991 21.5173 16.851 20.7873 17.401L22.1973 18.811C23.2873 17.891 23.9973 16.541 23.9973 15.001V15.001ZM3.7073 4.56098C3.3173 4.95098 3.3173 5.58098 3.7073 5.97098L5.7673 8.03098H5.3473C2.0673 8.38098 -0.412702 11.371 0.0572982 14.821C0.457298 17.841 3.1873 20.001 6.2173 20.001H17.7273L19.0173 21.291C19.4073 21.681 20.0373 21.681 20.4273 21.291C20.8173 20.901 20.8173 20.271 20.4273 19.881L5.1173 4.56098C4.7273 4.17098 4.0973 4.17098 3.7073 4.56098ZM5.9973 18.001C3.7873 18.001 1.9973 16.211 1.9973 14.001C1.9973 11.791 3.7873 10.001 5.9973 10.001H7.7273L15.7273 18.001H5.9973Z" fill="black"/>
</g>
<defs>
<clipPath id="clip0_61_16823">
<rect width="24" height="24" fill="white" transform="translate(0 0.000976562)"/>
</clipPath>
</defs>
</svg>
