<svg   viewBox="0 0 24 24" fill="none" xmlns="http://www.w3.org/2000/svg">
<g clip-path="url(#clip0_61_16821)">
<path d="M19.35 10.041C18.67 6.59098 15.64 4.00098 12 4.00098C9.11 4.00098 6.6 5.64098 5.35 8.04098C2.34 8.36098 0 10.911 0 14.001C0 17.311 2.69 20.001 6 20.001H19C21.76 20.001 24 17.761 24 15.001C24 12.361 21.95 10.221 19.35 10.041ZM10.71 16.291C10.32 16.681 9.69 16.681 9.3 16.291L7.2 14.201C6.81 13.811 6.81 13.181 7.2 12.791C7.59 12.401 8.22 12.401 8.61 12.791L10 14.181L14.48 9.70098C14.87 9.31098 15.5 9.31098 15.89 9.70098C16.28 10.091 16.28 10.721 15.89 11.111L10.71 16.291Z" fill="black"/>
</g>
<defs>
<clipPath id="clip0_61_16821">
<rect width="24" height="24" fill="white" transform="translate(0 0.000976562)"/>
</clipPath>
</defs>
</svg>
