<svg   viewBox="0 0 24 24" fill="none" xmlns="http://www.w3.org/2000/svg">
<g clip-path="url(#clip0_61_16822)">
<path d="M19.35 10.041C18.67 6.59098 15.64 4.00098 12 4.00098C9.11 4.00098 6.6 5.64098 5.35 8.04098C2.34 8.36098 0 10.911 0 14.001C0 17.311 2.69 20.001 6 20.001H19C21.76 20.001 24 17.761 24 15.001C24 12.361 21.95 10.221 19.35 10.041ZM17 13.001L12.35 17.651C12.15 17.851 11.84 17.851 11.64 17.651L7 13.001H10V9.00098H14V13.001H17Z" fill="black"/>
</g>
<defs>
<clipPath id="clip0_61_16822">
<rect width="24" height="24" fill="white" transform="translate(0 0.000976562)"/>
</clipPath>
</defs>
</svg>
