<svg   viewBox="0 0 24 24" fill="none" xmlns="http://www.w3.org/2000/svg">
<g clip-path="url(#clip0_61_16820)">
<path d="M12 2.00098C6.48 2.00098 2 6.48098 2 12.001C2 17.521 6.48 22.001 12 22.001C17.52 22.001 22 17.521 22 12.001C22 6.48098 17.52 2.00098 12 2.00098ZM16.5 16.001H8C6.34 16.001 5 14.661 5 13.001C5 11.341 6.34 10.001 8 10.001H8.14C8.58 8.27098 10.13 7.00098 12 7.00098C14.21 7.00098 16 8.79098 16 11.001H16.5C17.88 11.001 19 12.121 19 13.501C19 14.881 17.88 16.001 16.5 16.001Z" fill="black"/>
</g>
<defs>
<clipPath id="clip0_61_16820">
<rect width="24" height="24" fill="white" transform="translate(0 0.000976562)"/>
</clipPath>
</defs>
</svg>
