<svg   viewBox="0 0 24 24" fill="none" xmlns="http://www.w3.org/2000/svg">
<g clip-path="url(#clip0_61_16826)">
<path d="M20 6.00098H12L10.59 4.59098C10.21 4.21098 9.7 4.00098 9.17 4.00098H4C2.89 4.00098 2.01 4.89098 2.01 6.00098L2 18.001C2 19.111 2.89 20.001 4 20.001H20C21.1 20.001 22 19.101 22 18.001V8.00098C22 6.90098 21.1 6.00098 20 6.00098ZM18 14.001H16V16.001C16 16.551 15.55 17.001 15 17.001C14.45 17.001 14 16.551 14 16.001V14.001H12C11.45 14.001 11 13.551 11 13.001C11 12.451 11.45 12.001 12 12.001H14V10.001C14 9.45098 14.45 9.00098 15 9.00098C15.55 9.00098 16 9.45098 16 10.001V12.001H18C18.55 12.001 19 12.451 19 13.001C19 13.551 18.55 14.001 18 14.001Z" fill="black"/>
</g>
<defs>
<clipPath id="clip0_61_16826">
<rect width="24" height="24" fill="white" transform="translate(0 0.000976562)"/>
</clipPath>
</defs>
</svg>
