<svg   viewBox="0 0 24 24" fill="none" xmlns="http://www.w3.org/2000/svg">
<g clip-path="url(#clip0_61_16828)">
<path d="M6 18.0009H18C18.55 18.0009 19 18.4509 19 19.0009C19 19.5509 18.55 20.0009 18 20.0009H6C5.45 20.0009 5 19.5509 5 19.0009C5 18.4509 5.45 18.0009 6 18.0009ZM11.01 13.9009C10.23 14.6709 8.97 14.6709 8.19 13.8909L6 11.7009C5.45 11.1509 5.46 10.2609 6.03 9.73092C6.57 9.21092 7.43 9.23092 7.95 9.75092L9.6 11.4009L16.03 4.97092C16.57 4.43092 17.44 4.43092 17.98 4.97092L18.02 5.01092C18.56 5.55092 18.56 6.43092 18.01 6.97092L11.01 13.9009V13.9009Z" fill="black"/>
</g>
<defs>
<clipPath id="clip0_61_16828">
<rect width="24" height="24" fill="white" transform="translate(0 0.000976562)"/>
</clipPath>
</defs>
</svg>
