<svg viewBox="0 0 24 24" xmlns="http://www.w3.org/2000/svg">
<g clip-path="url(#clip0_61_16831)">
<path d="M20 6.00098H12L10.59 4.59098C10.21 4.21098 9.7 4.00098 9.17 4.00098H4C2.9 4.00098 2.01 4.90098 2.01 6.00098L2 18.001C2 19.101 2.9 20.001 4 20.001H20C21.1 20.001 22 19.101 22 18.001V8.00098C22 6.90098 21.1 6.00098 20 6.00098ZM15 9.00098C16.1 9.00098 17 9.90098 17 11.001C17 12.101 16.1 13.001 15 13.001C13.9 13.001 13 12.101 13 11.001C13 9.90098 13.9 9.00098 15 9.00098ZM19 17.001H11V16.001C11 14.671 13.67 14.001 15 14.001C16.33 14.001 19 14.671 19 16.001V17.001Z"/>
</g>
<defs>
<clipPath id="clip0_61_16831">
<rect transform="translate(0 0.000976562)"/>
</clipPath>
</defs>
</svg>
