<svg viewBox="0 0 24 24" xmlns="http://www.w3.org/2000/svg">
<g clip-path="url(#clip0_61_16830)">
<path d="M20 6.00098H12L10.59 4.59098C10.21 4.21098 9.7 4.00098 9.17 4.00098H4C2.9 4.00098 2.01 4.90098 2.01 6.00098L2 18.001C2 19.101 2.9 20.001 4 20.001H20C21.1 20.001 22 19.101 22 18.001V8.00098C22 6.90098 21.1 6.00098 20 6.00098ZM19 18.001H5C4.45 18.001 4 17.551 4 17.001V9.00098C4 8.45098 4.45 8.00098 5 8.00098H19C19.55 8.00098 20 8.45098 20 9.00098V17.001C20 17.551 19.55 18.001 19 18.001Z"/>
</g>
<defs>
<clipPath id="clip0_61_16830">
<rect transform="translate(0 0.000976562)"/>
</clipPath>
</defs>
</svg>
