<svg   viewBox="0 0 24 24" fill="none" xmlns="http://www.w3.org/2000/svg">
<g clip-path="url(#clip0_61_16832)">
<path d="M19.41 7.41098L14.58 2.58098C14.21 2.21098 13.7 2.00098 13.17 2.00098H6C4.9 2.00098 4.01 2.90098 4.01 4.00098L4 20.001C4 21.101 4.89 22.001 5.99 22.001H18C19.1 22.001 20 21.101 20 20.001V8.83098C20 8.30098 19.79 7.79098 19.41 7.41098ZM14 13.001C14.55 13.001 15 13.451 15 14.001V17.001C15 17.551 14.55 18.001 14 18.001H13C13 18.551 12.55 19.001 12 19.001C11.45 19.001 11 18.551 11 18.001H10C9.45 18.001 9 17.551 9 17.001C9 16.451 9.45 16.001 10 16.001H13V15.001H10C9.45 15.001 9 14.551 9 14.001V11.001C9 10.451 9.45 10.001 10 10.001H11C11 9.45098 11.45 9.00098 12 9.00098C12.55 9.00098 13 9.45098 13 10.001H14C14.55 10.001 15 10.451 15 11.001C15 11.551 14.55 12.001 14 12.001H11V13.001H14ZM14 8.00098C13.45 8.00098 13 7.55098 13 7.00098V3.50098L17.5 8.00098H14Z" fill="black"/>
</g>
<defs>
<clipPath id="clip0_61_16832">
<rect width="24" height="24" fill="white" transform="translate(0 0.000976562)"/>
</clipPath>
</defs>
</svg>
