<svg viewBox="0 0 24 24" xmlns="http://www.w3.org/2000/svg">
<g clip-path="url(#clip0_61_16833)">
<path d="M20 6.00098H12L10.59 4.59098C10.21 4.21098 9.7 4.00098 9.17 4.00098H4C2.9 4.00098 2.01 4.90098 2.01 6.00098L2 18.001C2 19.101 2.9 20.001 4 20.001H20C21.1 20.001 22 19.101 22 18.001V8.00098C22 6.90098 21.1 6.00098 20 6.00098ZM7.12 15.291L5.71 13.881C5.32 13.491 5.32 12.861 5.71 12.471C6.1 12.081 6.73 12.081 7.12 12.471L7.83 13.181L10.66 10.351C11.05 9.96098 11.68 9.96098 12.07 10.351C12.46 10.741 12.46 11.371 12.07 11.761L8.53 15.301C8.14 15.681 7.51 15.681 7.12 15.291ZM17.41 13.001L18.29 13.881C18.68 14.271 18.68 14.901 18.29 15.291C17.9 15.681 17.27 15.681 16.88 15.291L16 14.411L15.12 15.291C14.73 15.681 14.1 15.681 13.71 15.291C13.32 14.901 13.32 14.271 13.71 13.881L14.59 13.001L13.71 12.121C13.32 11.731 13.32 11.101 13.71 10.711C14.1 10.321 14.73 10.321 15.12 10.711L16 11.591L16.88 10.711C17.27 10.321 17.9 10.321 18.29 10.711C18.68 11.101 18.68 11.731 18.29 12.121L17.41 13.001Z"/>
</g>
<defs>
<clipPath id="clip0_61_16833">
<rect transform="translate(0 0.000976562)"/>
</clipPath>
</defs>
</svg>
