<svg   viewBox="0 0 24 24" fill="none" xmlns="http://www.w3.org/2000/svg">
<g clip-path="url(#clip0_61_16834)">
<path d="M15.88 10.501L17.5 12.121V15.501H14.5V10.501H15.88ZM22 8.00098V18.001C22 19.101 21.1 20.001 20 20.001H4C2.9 20.001 2 19.101 2 18.001L2.01 6.00098C2.01 4.90098 2.9 4.00098 4 4.00098H9.17C9.7 4.00098 10.21 4.21098 10.58 4.59098L12 6.00098H20C21.1 6.00098 22 6.90098 22 8.00098ZM19 11.911C19 11.641 18.89 11.391 18.71 11.201L16.8 9.29098C16.61 9.11098 16.35 9.00098 16.09 9.00098H14C13.45 9.00098 13 9.45098 13 10.001V16.001C13 16.551 13.45 17.001 14 17.001H18C18.55 17.001 19 16.551 19 16.001V11.911Z" fill="black"/>
</g>
<defs>
<clipPath id="clip0_61_16834">
<rect width="24" height="24" fill="white" transform="translate(0 0.000976562)"/>
</clipPath>
</defs>
</svg>
