<svg viewBox="0 0 24 24" xmlns="http://www.w3.org/2000/svg">
<g clip-path="url(#clip0_61_16835)">
<path d="M14.17 3.00098H5C3.9 3.00098 3 3.90098 3 5.00098V19.001C3 20.101 3.9 21.001 5 21.001H19C20.1 21.001 21 20.101 21 19.001V9.83098C21 9.30098 20.79 8.79098 20.41 8.42098L15.58 3.59098C15.21 3.21098 14.7 3.00098 14.17 3.00098ZM8 15.001H16C16.55 15.001 17 15.451 17 16.001C17 16.551 16.55 17.001 16 17.001H8C7.45 17.001 7 16.551 7 16.001C7 15.451 7.45 15.001 8 15.001ZM8 11.001H16C16.55 11.001 17 11.451 17 12.001C17 12.551 16.55 13.001 16 13.001H8C7.45 13.001 7 12.551 7 12.001C7 11.451 7.45 11.001 8 11.001ZM8 7.00098H13C13.55 7.00098 14 7.45098 14 8.00098C14 8.55098 13.55 9.00098 13 9.00098H8C7.45 9.00098 7 8.55098 7 8.00098C7 7.45098 7.45 7.00098 8 7.00098Z"/>
</g>
<defs>
<clipPath id="clip0_61_16835">
<rect transform="translate(0 0.000976562)"/>
</clipPath>
</defs>
</svg>
