<svg viewBox="0 0 24 24" xmlns="http://www.w3.org/2000/svg">
<g clip-path="url(#clip0_61_16836)">
<path d="M20 6.00098H12L10.59 4.59098C10.21 4.21098 9.7 4.00098 9.17 4.00098H4C2.9 4.00098 2.01 4.90098 2.01 6.00098L2 18.001C2 19.101 2.9 20.001 4 20.001H20C21.1 20.001 22 19.101 22 18.001V8.00098C22 6.90098 21.1 6.00098 20 6.00098ZM13 16.001H7C6.45 16.001 6 15.551 6 15.001C6 14.451 6.45 14.001 7 14.001H13C13.55 14.001 14 14.451 14 15.001C14 15.551 13.55 16.001 13 16.001ZM17 12.001H7C6.45 12.001 6 11.551 6 11.001C6 10.451 6.45 10.001 7 10.001H17C17.55 10.001 18 10.451 18 11.001C18 11.551 17.55 12.001 17 12.001Z"/>
</g>
<defs>
<clipPath id="clip0_61_16836">
<rect transform="translate(0 0.000976562)"/>
</clipPath>
</defs>
</svg>
