<svg   viewBox="0 0 24 24" fill="none" xmlns="http://www.w3.org/2000/svg">
<g clip-path="url(#clip0_61_16837)">
<path d="M10 16.0012H14C14.55 16.0012 15 15.5512 15 15.0012V10.0012H16.59C17.48 10.0012 17.93 8.92119 17.3 8.29119L12.71 3.70119C12.32 3.31119 11.69 3.31119 11.3 3.70119L6.71 8.29119C6.08 8.92119 6.52 10.0012 7.41 10.0012H9V15.0012C9 15.5512 9.45 16.0012 10 16.0012ZM6 18.0012H18C18.55 18.0012 19 18.4512 19 19.0012C19 19.5512 18.55 20.0012 18 20.0012H6C5.45 20.0012 5 19.5512 5 19.0012C5 18.4512 5.45 18.0012 6 18.0012Z" fill="black"/>
</g>
<defs>
<clipPath id="clip0_61_16837">
<rect width="24" height="24" fill="white" transform="translate(0 0.000976562)"/>
</clipPath>
</defs>
</svg>
