<svg   viewBox="0 0 24 24" fill="none" xmlns="http://www.w3.org/2000/svg">
<path d="M7.00714 12.0001C7.00714 11.5858 7.34293 11.2501 7.75714 11.2501H11.2498V7.75742C11.2498 7.3432 11.5855 7.00742 11.9998 7.00742C12.414 7.00742 12.7498 7.3432 12.7498 7.75742V11.2501H16.2424C16.6566 11.2501 16.9924 11.5858 16.9924 12.0001C16.9924 12.4143 16.6566 12.7501 16.2424 12.7501H12.7498V16.2427C12.7498 16.6569 12.414 16.9927 11.9998 16.9927C11.5855 16.9927 11.2498 16.6569 11.2498 16.2427V12.7501H7.75714C7.34293 12.7501 7.00714 12.4143 7.00714 12.0001Z" fill="black"/>
<path fill-rule="evenodd" clip-rule="evenodd" d="M7.31649 3.76882C10.404 3.42374 13.5954 3.42374 16.683 3.76882C18.5094 3.97294 19.9843 5.41159 20.1991 7.24855C20.5683 10.4055 20.5683 13.5947 20.1991 16.7516C19.9843 18.5885 18.5094 20.0272 16.683 20.2313C13.5954 20.5764 10.404 20.5764 7.31649 20.2313C5.49011 20.0272 4.01521 18.5885 3.80036 16.7516C3.43113 13.5947 3.43113 10.4055 3.80036 7.24855C4.01521 5.41159 5.49011 3.97294 7.31649 3.76882ZM16.5164 5.25954C13.5396 4.92683 10.4599 4.92683 7.4831 5.25954C6.33867 5.38744 5.42262 6.29069 5.29021 7.4228C4.93451 10.4639 4.93451 13.5362 5.29021 16.5773C5.42262 17.7094 6.33867 18.6127 7.4831 18.7406C10.4599 19.0733 13.5396 19.0733 16.5164 18.7406C17.6608 18.6127 18.5769 17.7094 18.7093 16.5773C19.065 13.5362 19.065 10.4639 18.7093 7.4228C18.5769 6.29069 17.6608 5.38744 16.5164 5.25954Z" fill="black"/>
</svg>
