<svg   viewBox="0 0 24 24" fill="none" xmlns="http://www.w3.org/2000/svg">
<path fill-rule="evenodd" clip-rule="evenodd" d="M6.06857 3.87384C5.36589 3.79531 4.63789 3.79531 3.93521 3.87384C3.92215 3.8753 3.90924 3.88121 3.89863 3.89167C3.88827 3.90189 3.88422 3.91222 3.8832 3.92098C3.79935 4.63786 3.79935 5.36206 3.8832 6.07893C3.88422 6.0877 3.88827 6.09802 3.89863 6.10824C3.90924 6.1187 3.92215 6.12461 3.93521 6.12607C4.63789 6.2046 5.36589 6.2046 6.06857 6.12607C6.08162 6.12461 6.09453 6.1187 6.10515 6.10824C6.11551 6.09802 6.11955 6.0877 6.12058 6.07893C6.20442 5.36206 6.20442 4.63786 6.12058 3.92098C6.11955 3.91222 6.11551 3.90189 6.10515 3.89167C6.09453 3.88121 6.08162 3.8753 6.06857 3.87384ZM3.7686 2.38312C4.58201 2.29221 5.42177 2.29221 6.23518 2.38312C6.94751 2.46274 7.5258 3.02317 7.61042 3.74673C7.70781 4.57938 7.70781 5.42053 7.61042 6.25318C7.5258 6.97674 6.94751 7.53717 6.23518 7.61679C5.42177 7.7077 4.58201 7.7077 3.7686 7.61679C3.05627 7.53717 2.47798 6.97674 2.39335 6.25318C2.29597 5.42053 2.29597 4.57938 2.39335 3.74673C2.47798 3.02317 3.05627 2.46274 3.7686 2.38312Z" fill="black"/>
<path fill-rule="evenodd" clip-rule="evenodd" d="M13.0686 3.87384C12.3659 3.79531 11.6379 3.79531 10.9352 3.87384C10.9222 3.8753 10.9092 3.88121 10.8986 3.89167C10.8883 3.90189 10.8842 3.91222 10.8832 3.92098C10.7994 4.63786 10.7994 5.36206 10.8832 6.07893C10.8842 6.0877 10.8883 6.09802 10.8986 6.10824C10.9092 6.1187 10.9222 6.12461 10.9352 6.12607C11.6379 6.2046 12.3659 6.2046 13.0686 6.12607C13.0816 6.12461 13.0945 6.1187 13.1051 6.10824C13.1155 6.09802 13.1196 6.0877 13.1206 6.07893C13.2044 5.36206 13.2044 4.63786 13.1206 3.92098C13.1196 3.91222 13.1155 3.90189 13.1051 3.89167C13.0945 3.88121 13.0816 3.8753 13.0686 3.87384ZM10.7686 2.38312C11.582 2.29221 12.4218 2.29221 13.2352 2.38312C13.9475 2.46274 14.5258 3.02317 14.6104 3.74673C14.7078 4.57938 14.7078 5.42053 14.6104 6.25318C14.5258 6.97674 13.9475 7.53717 13.2352 7.61679C12.4218 7.7077 11.582 7.7077 10.7686 7.61679C10.0563 7.53717 9.47798 6.97674 9.39335 6.25318C9.29597 5.42053 9.29597 4.57938 9.39335 3.74673C9.47798 3.02317 10.0563 2.46274 10.7686 2.38312Z" fill="black"/>
<path fill-rule="evenodd" clip-rule="evenodd" d="M20.0686 3.87384C19.3659 3.79531 18.6379 3.79531 17.9352 3.87384C17.9222 3.8753 17.9092 3.88121 17.8986 3.89167C17.8883 3.90189 17.8842 3.91222 17.8832 3.92098C17.7994 4.63786 17.7994 5.36206 17.8832 6.07893C17.8842 6.0877 17.8883 6.09802 17.8986 6.10824C17.9092 6.1187 17.9222 6.12461 17.9352 6.12607C18.6379 6.2046 19.3659 6.2046 20.0686 6.12607C20.0816 6.12461 20.0945 6.1187 20.1051 6.10824C20.1155 6.09802 20.1196 6.0877 20.1206 6.07893C20.2044 5.36206 20.2044 4.63786 20.1206 3.92098C20.1196 3.91222 20.1155 3.90189 20.1051 3.89167C20.0945 3.88121 20.0816 3.8753 20.0686 3.87384ZM17.7686 2.38312C18.582 2.29221 19.4218 2.29221 20.2352 2.38312C20.9475 2.46274 21.5258 3.02317 21.6104 3.74673C21.7078 4.57938 21.7078 5.42053 21.6104 6.25318C21.5258 6.97674 20.9475 7.53717 20.2352 7.61679C19.4218 7.7077 18.582 7.7077 17.7686 7.61679C17.0563 7.53717 16.478 6.97674 16.3934 6.25318C16.296 5.42053 16.296 4.57938 16.3934 3.74673C16.478 3.02317 17.0563 2.46274 17.7686 2.38312Z" fill="black"/>
<path fill-rule="evenodd" clip-rule="evenodd" d="M6.06857 10.8738C5.36589 10.7953 4.63789 10.7953 3.93521 10.8738C3.92215 10.8753 3.90924 10.8812 3.89863 10.8917C3.88827 10.9019 3.88422 10.9122 3.8832 10.921C3.79935 11.6379 3.79935 12.3621 3.8832 13.0789C3.88422 13.0877 3.88827 13.098 3.89863 13.1082C3.90924 13.1187 3.92215 13.1246 3.93521 13.1261C4.63789 13.2046 5.36589 13.2046 6.06857 13.1261C6.08162 13.1246 6.09453 13.1187 6.10515 13.1082C6.11551 13.098 6.11955 13.0877 6.12058 13.0789C6.20442 12.3621 6.20442 11.6379 6.12058 10.921C6.11955 10.9122 6.11551 10.9019 6.10515 10.8917C6.09453 10.8812 6.08162 10.8753 6.06857 10.8738ZM3.7686 9.38312C4.58201 9.29221 5.42177 9.29221 6.23518 9.38312C6.94751 9.46274 7.5258 10.0232 7.61042 10.7467C7.70781 11.5794 7.70781 12.4205 7.61042 13.2532C7.5258 13.9767 6.94751 14.5372 6.23518 14.6168C5.42177 14.7077 4.58201 14.7077 3.7686 14.6168C3.05627 14.5372 2.47798 13.9767 2.39335 13.2532C2.29597 12.4205 2.29597 11.5794 2.39335 10.7467C2.47798 10.0232 3.05627 9.46274 3.7686 9.38312Z" fill="black"/>
<path fill-rule="evenodd" clip-rule="evenodd" d="M13.0686 10.8738C12.3659 10.7953 11.6379 10.7953 10.9352 10.8738C10.9222 10.8753 10.9092 10.8812 10.8986 10.8917C10.8883 10.9019 10.8842 10.9122 10.8832 10.921C10.7994 11.6379 10.7994 12.3621 10.8832 13.0789C10.8842 13.0877 10.8883 13.098 10.8986 13.1082C10.9092 13.1187 10.9222 13.1246 10.9352 13.1261C11.6379 13.2046 12.3659 13.2046 13.0686 13.1261C13.0816 13.1246 13.0945 13.1187 13.1051 13.1082C13.1155 13.098 13.1196 13.0877 13.1206 13.0789C13.2044 12.3621 13.2044 11.6379 13.1206 10.921C13.1196 10.9122 13.1155 10.9019 13.1051 10.8917C13.0945 10.8812 13.0816 10.8753 13.0686 10.8738ZM10.7686 9.38312C11.582 9.29221 12.4218 9.29221 13.2352 9.38312C13.9475 9.46274 14.5258 10.0232 14.6104 10.7467C14.7078 11.5794 14.7078 12.4205 14.6104 13.2532C14.5258 13.9767 13.9475 14.5372 13.2352 14.6168C12.4218 14.7077 11.582 14.7077 10.7686 14.6168C10.0563 14.5372 9.47798 13.9767 9.39335 13.2532C9.29597 12.4205 9.29597 11.5794 9.39335 10.7467C9.47798 10.0232 10.0563 9.46274 10.7686 9.38312Z" fill="black"/>
<path fill-rule="evenodd" clip-rule="evenodd" d="M20.0686 10.8738C19.3659 10.7953 18.6379 10.7953 17.9352 10.8738C17.9222 10.8753 17.9092 10.8812 17.8986 10.8917C17.8883 10.9019 17.8842 10.9122 17.8832 10.921C17.7994 11.6379 17.7994 12.3621 17.8832 13.0789C17.8842 13.0877 17.8883 13.098 17.8986 13.1082C17.9092 13.1187 17.9222 13.1246 17.9352 13.1261C18.6379 13.2046 19.3659 13.2046 20.0686 13.1261C20.0816 13.1246 20.0945 13.1187 20.1051 13.1082C20.1155 13.098 20.1196 13.0877 20.1206 13.0789C20.2044 12.3621 20.2044 11.6379 20.1206 10.921C20.1196 10.9122 20.1155 10.9019 20.1051 10.8917C20.0945 10.8812 20.0816 10.8753 20.0686 10.8738ZM17.7686 9.38312C18.582 9.29221 19.4218 9.29221 20.2352 9.38312C20.9475 9.46274 21.5258 10.0232 21.6104 10.7467C21.7078 11.5794 21.7078 12.4205 21.6104 13.2532C21.5258 13.9767 20.9475 14.5372 20.2352 14.6168C19.4218 14.7077 18.582 14.7077 17.7686 14.6168C17.0563 14.5372 16.478 13.9767 16.3934 13.2532C16.296 12.4205 16.296 11.5794 16.3934 10.7467C16.478 10.0232 17.0563 9.46274 17.7686 9.38312Z" fill="black"/>
<path fill-rule="evenodd" clip-rule="evenodd" d="M6.06857 17.8738C5.36589 17.7953 4.63789 17.7953 3.93521 17.8738C3.92215 17.8753 3.90924 17.8812 3.89863 17.8917C3.88827 17.9019 3.88422 17.9122 3.8832 17.921C3.79935 18.6379 3.79935 19.3621 3.8832 20.0789C3.88422 20.0877 3.88827 20.098 3.89863 20.1082C3.90924 20.1187 3.92215 20.1246 3.93521 20.1261C4.63789 20.2046 5.36589 20.2046 6.06857 20.1261C6.08162 20.1246 6.09453 20.1187 6.10515 20.1082C6.11551 20.098 6.11955 20.0877 6.12058 20.0789C6.20442 19.3621 6.20442 18.6379 6.12058 17.921C6.11955 17.9122 6.11551 17.9019 6.10515 17.8917C6.09453 17.8812 6.08162 17.8753 6.06857 17.8738ZM3.7686 16.3831C4.58201 16.2922 5.42177 16.2922 6.23518 16.3831C6.94751 16.4627 7.5258 17.0232 7.61042 17.7467C7.70781 18.5794 7.70781 19.4205 7.61042 20.2532C7.5258 20.9767 6.94751 21.5372 6.23518 21.6168C5.42177 21.7077 4.58201 21.7077 3.7686 21.6168C3.05627 21.5372 2.47798 20.9767 2.39335 20.2532C2.29597 19.4205 2.29597 18.5794 2.39335 17.7467C2.47798 17.0232 3.05627 16.4627 3.7686 16.3831Z" fill="black"/>
<path fill-rule="evenodd" clip-rule="evenodd" d="M13.0686 17.8738C12.3659 17.7953 11.6379 17.7953 10.9352 17.8738C10.9222 17.8753 10.9092 17.8812 10.8986 17.8917C10.8883 17.9019 10.8842 17.9122 10.8832 17.921C10.7994 18.6379 10.7994 19.3621 10.8832 20.0789C10.8842 20.0877 10.8883 20.098 10.8986 20.1082C10.9092 20.1187 10.9222 20.1246 10.9352 20.1261C11.6379 20.2046 12.3659 20.2046 13.0686 20.1261C13.0816 20.1246 13.0945 20.1187 13.1051 20.1082C13.1155 20.098 13.1196 20.0877 13.1206 20.0789C13.2044 19.3621 13.2044 18.6379 13.1206 17.921C13.1196 17.9122 13.1155 17.9019 13.1051 17.8917C13.0945 17.8812 13.0816 17.8753 13.0686 17.8738ZM10.7686 16.3831C11.582 16.2922 12.4218 16.2922 13.2352 16.3831C13.9475 16.4627 14.5258 17.0232 14.6104 17.7467C14.7078 18.5794 14.7078 19.4205 14.6104 20.2532C14.5258 20.9767 13.9475 21.5372 13.2352 21.6168C12.4218 21.7077 11.582 21.7077 10.7686 21.6168C10.0563 21.5372 9.47798 20.9767 9.39335 20.2532C9.29597 19.4205 9.29597 18.5794 9.39335 17.7467C9.47798 17.0232 10.0563 16.4627 10.7686 16.3831Z" fill="black"/>
<path fill-rule="evenodd" clip-rule="evenodd" d="M20.0686 17.8738C19.3659 17.7953 18.6379 17.7953 17.9352 17.8738C17.9222 17.8753 17.9092 17.8812 17.8986 17.8917C17.8883 17.9019 17.8842 17.9122 17.8832 17.921C17.7994 18.6379 17.7994 19.3621 17.8832 20.0789C17.8842 20.0877 17.8883 20.098 17.8986 20.1082C17.9092 20.1187 17.9222 20.1246 17.9352 20.1261C18.6379 20.2046 19.3659 20.2046 20.0686 20.1261C20.0816 20.1246 20.0945 20.1187 20.1051 20.1082C20.1155 20.098 20.1196 20.0877 20.1206 20.0789C20.2044 19.3621 20.2044 18.6379 20.1206 17.921C20.1196 17.9122 20.1155 17.9019 20.1051 17.8917C20.0945 17.8812 20.0816 17.8753 20.0686 17.8738ZM17.7686 16.3831C18.582 16.2922 19.4218 16.2922 20.2352 16.3831C20.9475 16.4627 21.5258 17.0232 21.6104 17.7467C21.7078 18.5794 21.7078 19.4205 21.6104 20.2532C21.5258 20.9767 20.9475 21.5372 20.2352 21.6168C19.4218 21.7077 18.582 21.7077 17.7686 21.6168C17.0563 21.5372 16.478 20.9767 16.3934 20.2532C16.296 19.4205 16.296 18.5794 16.3934 17.7467C16.478 17.0232 17.0563 16.4627 17.7686 16.3831Z" fill="black"/>
</svg>
