<svg   viewBox="0 0 24 24" fill="none" xmlns="http://www.w3.org/2000/svg">
<path d="M10.4716 8.4696C10.7645 8.17671 11.2394 8.17671 11.5323 8.4696L14.002 10.9393L16.4716 8.46961C16.7645 8.17672 17.2394 8.17672 17.5323 8.46961C17.8252 8.7625 17.8252 9.23738 17.5323 9.53027L15.0626 11.9999L17.5323 14.4696C17.8252 14.7625 17.8252 15.2374 17.5323 15.5303C17.2394 15.8232 16.7645 15.8232 16.4716 15.5303L14.002 13.0606L11.5323 15.5303C11.2394 15.8232 10.7645 15.8232 10.4716 15.5303C10.1787 15.2374 10.1787 14.7625 10.4716 14.4696L12.9413 11.9999L10.4716 9.53026C10.1787 9.23737 10.1787 8.76249 10.4716 8.4696Z" fill="black"/>
<path fill-rule="evenodd" clip-rule="evenodd" d="M8.4079 4.94995C7.25683 4.94995 6.16953 5.47859 5.45861 6.38388L1.8971 10.9191C1.39888 11.5536 1.39888 12.4464 1.8971 13.0808L5.45861 17.616C6.16953 18.5213 7.25683 19.05 8.4079 19.05H19.0546C20.5734 19.05 21.8046 17.8187 21.8046 16.3V7.69995C21.8046 6.18117 20.5734 4.94995 19.0546 4.94995H8.4079ZM6.63832 7.31031C7.06488 6.76714 7.71726 6.44995 8.4079 6.44995H19.0546C19.7449 6.44995 20.3046 7.0096 20.3046 7.69995V16.3C20.3046 16.9903 19.7449 17.55 19.0546 17.55H8.4079C7.71726 17.55 7.06488 17.2328 6.63832 16.6896L3.07682 12.1544C3.00564 12.0637 3.00564 11.9362 3.07682 11.8455L6.63832 7.31031Z" fill="black"/>
</svg>
