<svg viewBox="0 0 24 24" xmlns="http://www.w3.org/2000/svg">
<path fill-rule="evenodd" clip-rule="evenodd" d="M6.02045 6.48009C5.72756 6.1872 5.72756 5.71232 6.02045 5.41943C6.31334 5.12654 6.78822 5.12654 7.08111 5.41943L11.7505 10.0888L11.7505 2.60357C11.7505 1.71266 12.8277 1.26649 13.4576 1.89646L17.8038 6.24266C18.1944 6.63318 18.1944 7.26634 17.8038 7.65687L13.5109 11.9498L17.8038 16.2427C18.1944 16.6332 18.1944 17.2663 17.8038 17.6569L13.4576 22.0031C12.8277 22.633 11.7505 22.1869 11.7505 21.296V13.8107L7.08111 18.4801C6.78822 18.773 6.31334 18.773 6.02045 18.4801C5.72756 18.1872 5.72756 17.7123 6.02045 17.4194L11.4901 11.9498L6.02045 6.48009ZM13.2505 3.81067V10.0888L16.3896 6.94976L13.2505 3.81067ZM16.3896 16.9498L13.2505 13.8107L13.2505 20.0888L16.3896 16.9498Z"/>
</svg>
