<svg viewBox="0 0 24 24" xmlns="http://www.w3.org/2000/svg">
<path d="M8.46943 8.46972C8.76232 8.17683 9.23719 8.17683 9.53009 8.46972L11.9998 10.9394L14.4694 8.46973C14.7623 8.17684 15.2372 8.17684 15.5301 8.46973C15.823 8.76262 15.823 9.2375 15.5301 9.53039L13.0604 12.0001L15.5301 14.4697C15.823 14.7626 15.823 15.2375 15.5301 15.5304C15.2372 15.8233 14.7623 15.8233 14.4694 15.5304L11.9998 13.0607L9.53009 15.5304C9.2372 15.8233 8.76233 15.8233 8.46943 15.5304C8.17654 15.2375 8.17654 14.7626 8.46943 14.4697L10.9391 12.0001L8.46943 9.53038C8.17653 9.23749 8.17653 8.76262 8.46943 8.46972Z"/>
<path fill-rule="evenodd" clip-rule="evenodd" d="M7.31649 3.76882C10.404 3.42374 13.5954 3.42374 16.683 3.76882C18.5094 3.97294 19.9843 5.41159 20.1991 7.24855C20.5683 10.4055 20.5683 13.5947 20.1991 16.7516C19.9843 18.5885 18.5094 20.0272 16.683 20.2313C13.5954 20.5764 10.404 20.5764 7.31649 20.2313C5.49011 20.0272 4.01521 18.5885 3.80036 16.7516C3.43113 13.5947 3.43113 10.4055 3.80036 7.24855C4.01521 5.41159 5.49011 3.97294 7.31649 3.76882ZM16.5164 5.25954C13.5396 4.92683 10.4599 4.92683 7.4831 5.25954C6.33867 5.38744 5.42262 6.29069 5.29021 7.4228C4.93451 10.4639 4.93451 13.5362 5.29021 16.5773C5.42262 17.7094 6.33867 18.6127 7.4831 18.7406C10.4599 19.0733 13.5396 19.0733 16.5164 18.7406C17.6608 18.6127 18.5769 17.7094 18.7093 16.5773C19.065 13.5362 19.065 10.4639 18.7093 7.4228C18.5769 6.29069 17.6608 5.38744 16.5164 5.25954Z"/>
</svg>
