<svg viewBox="0 0 24 24" xmlns="http://www.w3.org/2000/svg">
<path fill-rule="evenodd" clip-rule="evenodd" d="M18.029 9.96444C18.029 9.55023 17.6932 9.21444 17.279 9.21444L14.7863 9.21444V6.7218C14.7863 6.30759 14.4506 5.9718 14.0363 5.9718C13.6221 5.9718 13.2863 6.30759 13.2863 6.7218V9.96444C13.2863 10.3787 13.6221 10.7144 14.0363 10.7144L17.279 10.7144C17.6932 10.7144 18.029 10.3787 18.029 9.96444Z"/>
<path fill-rule="evenodd" clip-rule="evenodd" d="M14.0364 18.0281C14.4506 18.0281 14.7864 17.6923 14.7864 17.2781L14.7864 14.7855L17.279 14.7855C17.6932 14.7855 18.029 14.4497 18.029 14.0355C18.029 13.6213 17.6932 13.2855 17.279 13.2855L14.0364 13.2855C13.6222 13.2855 13.2864 13.6213 13.2864 14.0355L13.2864 17.2781C13.2864 17.6923 13.6222 18.0281 14.0364 18.0281Z"/>
<path fill-rule="evenodd" clip-rule="evenodd" d="M9.9653 18.0281C9.55108 18.0281 9.2153 17.6923 9.2153 17.2781V14.7855H6.72266C6.30844 14.7855 5.97266 14.4497 5.97266 14.0355C5.97266 13.6213 6.30844 13.2855 6.72266 13.2855L9.9653 13.2855C10.3795 13.2855 10.7153 13.6213 10.7153 14.0355L10.7153 17.2781C10.7153 17.6923 10.3795 18.0281 9.9653 18.0281Z"/>
<path fill-rule="evenodd" clip-rule="evenodd" d="M5.97268 9.96444C5.97268 9.55023 6.30847 9.21444 6.72268 9.21444H9.21532L9.21532 6.7218C9.21532 6.30759 9.55111 5.9718 9.96532 5.9718C10.3795 5.9718 10.7153 6.30759 10.7153 6.7218L10.7153 9.96444C10.7153 10.3787 10.3795 10.7144 9.96532 10.7144L6.72268 10.7144C6.30847 10.7144 5.97268 10.3787 5.97268 9.96444Z"/>
</svg>
