<svg   viewBox="0 0 24 24" fill="none" xmlns="http://www.w3.org/2000/svg">
<path fill-rule="evenodd" clip-rule="evenodd" d="M18.8093 4.95727C17.4752 4.54566 16.0282 4.54566 14.6941 4.95727C14.2426 9.64158 14.2426 14.3585 14.6941 19.0428C16.0282 19.4544 17.4752 19.4544 18.8093 19.0428C19.2608 14.3585 19.2608 9.64159 18.8093 4.95727ZM20.2922 4.70878C20.7664 9.55804 20.7664 14.442 20.2922 19.2913C20.2399 19.8258 19.8736 20.2751 19.3679 20.4393C17.6748 20.9889 15.8286 20.9889 14.1355 20.4393C13.6297 20.2751 13.2634 19.8258 13.2111 19.2913C12.7369 14.442 12.7369 9.55804 13.2111 4.70877C13.2634 4.17422 13.6297 3.72495 14.1355 3.56077C15.8286 3.01116 17.6748 3.01116 19.3679 3.56077C19.8736 3.72495 20.2399 4.17422 20.2922 4.70878Z" fill="black"/>
<path fill-rule="evenodd" clip-rule="evenodd" d="M9.30929 4.95726C7.9752 4.54566 6.52816 4.54566 5.19407 4.95726C4.7426 9.64158 4.7426 14.3585 5.19407 19.0428C6.52816 19.4544 7.9752 19.4544 9.30929 19.0428C9.76075 14.3585 9.76075 9.64158 9.30929 4.95726ZM10.7922 4.70877C11.2664 9.55804 11.2664 14.442 10.7922 19.2913C10.7399 19.8258 10.3736 20.2751 9.86787 20.4393C8.17478 20.9889 6.32857 20.9889 4.63548 20.4393C4.12971 20.2751 3.76342 19.8258 3.71114 19.2913C3.23691 14.442 3.23691 9.55804 3.71114 4.70877C3.76342 4.17422 4.12971 3.72495 4.63548 3.56077C6.32857 3.01116 8.17478 3.01116 9.86787 3.56077C10.3736 3.72495 10.7399 4.17422 10.7922 4.70877Z" fill="black"/>
</svg>
