<svg   viewBox="0 0 24 24" fill="none" xmlns="http://www.w3.org/2000/svg">
<path fill-rule="evenodd" clip-rule="evenodd" d="M21.4555 5.41575C21.6477 5.70687 21.6157 6.10248 21.3594 6.35876L12.167 15.5511C12.0728 15.6454 11.9552 15.7128 11.8263 15.7465L7.99783 16.7465C7.87296 16.7791 7.74425 16.7784 7.62332 16.7476C7.49475 16.7149 7.37498 16.6482 7.27797 16.5511C7.08969 16.3629 7.01535 16.0889 7.08264 15.8313L8.08264 12.0028C8.11211 11.89 8.1674 11.7786 8.24389 11.6912L17.4703 2.46967C17.5511 2.38891 17.6484 2.32846 17.7543 2.29163C17.8328 2.26432 17.916 2.25 18.0007 2.25C18.1996 2.25 18.3903 2.32902 18.531 2.46967L21.3594 5.2981C21.396 5.33471 21.4281 5.37416 21.4555 5.41575ZM19.7684 5.82843L18.0007 4.06066L9.48251 12.5788L8.85752 14.9716L11.2503 14.3466L19.7684 5.82843Z" fill="black"/>
<path d="M19.642 17.1603C19.9154 14.8227 20.0024 12.4688 19.903 10.1208C19.8982 10.0084 19.9405 9.89898 20.0201 9.81942L21.0034 8.83609C21.1243 8.71519 21.3309 8.79194 21.3422 8.96254C21.5271 11.7522 21.457 14.5545 21.1319 17.3346C20.8953 19.3571 19.271 20.9421 17.2589 21.167C13.7924 21.5544 10.209 21.5544 6.74244 21.167C4.73038 20.9421 3.10605 19.3571 2.8695 17.3346C2.45496 13.7903 2.45496 10.2097 2.8695 6.66543C3.10605 4.6429 4.73038 3.05789 6.74244 2.83301C9.37219 2.5391 12.0691 2.46815 14.7313 2.62016C14.9029 2.62996 14.9811 2.83757 14.8596 2.95909L13.867 3.95165C13.7883 4.03034 13.6804 4.07261 13.5692 4.06885C11.3428 3.99376 9.10122 4.07872 6.90905 4.32373C5.57894 4.47239 4.51346 5.522 4.35934 6.83968C3.95834 10.2682 3.95834 13.7318 4.35934 17.1603C4.51346 18.478 5.57894 19.5276 6.90905 19.6763C10.2649 20.0513 13.7365 20.0513 17.0923 19.6763C18.4224 19.5276 19.4879 18.478 19.642 17.1603Z" fill="black"/>
</svg>
