<svg   viewBox="0 0 24 24" fill="none" xmlns="http://www.w3.org/2000/svg">
<path fill-rule="evenodd" clip-rule="evenodd" d="M8.93052 4.47033C7.6593 4.32825 6.3434 4.32825 5.07218 4.47033C4.76329 4.50485 4.51969 4.74944 4.48495 5.0465C4.33314 6.34444 4.33314 7.65565 4.48495 8.95359C4.51969 9.25065 4.76329 9.49524 5.07218 9.52976C6.3434 9.67184 7.6593 9.67184 8.93052 9.52976C9.23941 9.49524 9.48301 9.25065 9.51775 8.95359C9.66956 7.65565 9.66956 6.34444 9.51775 5.0465C9.48301 4.74944 9.23941 4.50485 8.93052 4.47033ZM4.90557 2.97961C6.28752 2.82516 7.71519 2.82516 9.09713 2.97961C10.088 3.09035 10.8904 3.87034 11.0076 4.87225C11.1729 6.28596 11.1729 7.71413 11.0076 9.12784C10.8904 10.1298 10.088 10.9097 9.09713 11.0205C7.71519 11.1749 6.28752 11.1749 4.90557 11.0205C3.91473 10.9097 3.11229 10.1298 2.9951 9.12784C2.82976 7.71413 2.82976 6.28596 2.9951 4.87225C3.11229 3.87034 3.91473 3.09035 4.90557 2.97961Z" fill="black"/>
<path fill-rule="evenodd" clip-rule="evenodd" d="M8.93052 14.4703C7.6593 14.3282 6.3434 14.3282 5.07218 14.4703C4.76329 14.5049 4.51969 14.7494 4.48495 15.0465C4.33314 16.3444 4.33314 17.6557 4.48495 18.9536C4.51969 19.2506 4.76329 19.4952 5.07218 19.5298C6.3434 19.6718 7.6593 19.6718 8.93052 19.5298C9.23941 19.4952 9.48301 19.2506 9.51775 18.9536C9.66956 17.6556 9.66956 16.3444 9.51775 15.0465C9.48301 14.7494 9.23941 14.5049 8.93052 14.4703ZM4.90557 12.9796C6.28752 12.8252 7.71519 12.8252 9.09713 12.9796C10.088 13.0904 10.8904 13.8703 11.0076 14.8722C11.1729 16.286 11.1729 17.7141 11.0076 19.1278C10.8904 20.1298 10.088 20.9097 9.09713 21.0205C7.71519 21.1749 6.28752 21.1749 4.90557 21.0205C3.91473 20.9097 3.11229 20.1298 2.9951 19.1278C2.82976 17.7141 2.82976 16.286 2.9951 14.8722C3.11229 13.8703 3.91473 13.0904 4.90557 12.9796Z" fill="black"/>
<path fill-rule="evenodd" clip-rule="evenodd" d="M18.9305 4.47033C17.6593 4.32825 16.3434 4.32825 15.0722 4.47033C14.7633 4.50485 14.5197 4.74944 14.4849 5.0465C14.3331 6.34444 14.3331 7.65565 14.4849 8.95359C14.5197 9.25065 14.7633 9.49524 15.0722 9.52976C16.3434 9.67184 17.6593 9.67184 18.9305 9.52976C19.2394 9.49524 19.483 9.25065 19.5178 8.95359C19.6696 7.65565 19.6696 6.34444 19.5178 5.0465C19.483 4.74944 19.2394 4.50485 18.9305 4.47033ZM14.9056 2.97961C16.2875 2.82516 17.7152 2.82516 19.0971 2.97961C20.088 3.09035 20.8904 3.87034 21.0076 4.87225C21.1729 6.28596 21.1729 7.71413 21.0076 9.12784C20.8904 10.1298 20.088 10.9097 19.0971 11.0205C17.7152 11.1749 16.2875 11.1749 14.9056 11.0205C13.9147 10.9097 13.1123 10.1298 12.9951 9.12784C12.8298 7.71413 12.8298 6.28596 12.9951 4.87225C13.1123 3.87034 13.9147 3.09035 14.9056 2.97961Z" fill="black"/>
<path fill-rule="evenodd" clip-rule="evenodd" d="M18.9305 14.4703C17.6593 14.3282 16.3434 14.3282 15.0722 14.4703C14.7633 14.5049 14.5197 14.7494 14.4849 15.0465C14.3331 16.3444 14.3331 17.6557 14.4849 18.9536C14.5197 19.2506 14.7633 19.4952 15.0722 19.5298C16.3434 19.6718 17.6593 19.6718 18.9305 19.5298C19.2394 19.4952 19.483 19.2506 19.5178 18.9536C19.6696 17.6556 19.6696 16.3444 19.5178 15.0465C19.483 14.7494 19.2394 14.5049 18.9305 14.4703ZM14.9056 12.9796C16.2875 12.8252 17.7152 12.8252 19.0971 12.9796C20.088 13.0904 20.8904 13.8703 21.0076 14.8722C21.1729 16.286 21.1729 17.7141 21.0076 19.1278C20.8904 20.1298 20.088 20.9097 19.0971 21.0205C17.7152 21.1749 16.2875 21.1749 14.9056 21.0205C13.9147 20.9097 13.1123 20.1298 12.9951 19.1278C12.8298 17.7141 12.8298 16.286 12.9951 14.8722C13.1123 13.8703 13.9147 13.0904 14.9056 12.9796Z" fill="black"/>
</svg>
