<svg   viewBox="0 0 24 24" fill="none" xmlns="http://www.w3.org/2000/svg">
<path d="M6.54421 8.16277C6.32899 8.10599 6.15011 7.95655 6.05594 7.75486C5.96178 7.55318 5.96207 7.32009 6.05673 7.11863L7.71748 3.58424C7.84124 3.32086 8.1062 3.15284 8.39721 3.1532C8.68822 3.15356 8.95276 3.32223 9.07587 3.58592L9.80849 5.15516C9.83469 5.14486 9.86173 5.13594 9.88956 5.12848C14.2369 3.96361 18.7054 6.54352 19.8703 10.8909C21.0352 15.2382 18.4553 19.7068 14.1079 20.8716C9.76057 22.0365 5.29204 19.4566 4.12717 15.1092C3.75675 13.7268 3.76508 12.3299 4.08952 11.0312C4.1899 10.6293 4.59706 10.3849 4.99892 10.4853C5.40079 10.5857 5.64518 10.9929 5.54479 11.3947C5.2805 12.4527 5.27322 13.5908 5.57606 14.721C6.52652 18.2682 10.1725 20.3732 13.7197 19.4227C17.2668 18.4723 19.3719 14.8262 18.4214 11.2791C17.4865 7.78995 13.9434 5.69613 10.4519 6.53319L11.191 8.11649C11.3142 8.38018 11.2736 8.69128 11.087 8.91462C10.9005 9.13795 10.6015 9.23319 10.3201 9.15895L6.54421 8.16277Z" fill="black"/>
</svg>
