<svg viewBox="0 0 24 24" xmlns="http://www.w3.org/2000/svg">
<path fill-rule="evenodd" clip-rule="evenodd" d="M4.95714 5.19236C4.54554 6.52645 4.54554 7.97349 4.95714 9.30758C9.64146 9.75904 14.3583 9.75904 19.0427 9.30758C19.4543 7.97349 19.4543 6.52645 19.0427 5.19236C14.3583 4.74089 9.64146 4.74089 4.95714 5.19236ZM4.70865 3.70943C9.55792 3.2352 14.4419 3.2352 19.2912 3.70943C19.8257 3.76171 20.275 4.128 20.4392 4.63377C20.9888 6.32686 20.9888 8.17307 20.4392 9.86617C20.275 10.3719 19.8257 10.7382 19.2912 10.7905C14.4419 11.2647 9.55792 11.2647 4.70865 10.7905C4.1741 10.7382 3.72483 10.3719 3.56065 9.86617C3.01103 8.17307 3.01103 6.32686 3.56065 4.63377C3.72483 4.128 4.1741 3.76171 4.70865 3.70943Z"/>
<path fill-rule="evenodd" clip-rule="evenodd" d="M4.95714 14.6924C4.54554 16.0265 4.54554 17.4735 4.95714 18.8076C9.64146 19.259 14.3583 19.259 19.0427 18.8076C19.4543 17.4735 19.4543 16.0265 19.0427 14.6924C14.3583 14.2409 9.64146 14.2409 4.95714 14.6924ZM4.70865 13.2094C9.55792 12.7352 14.4419 12.7352 19.2912 13.2094C19.8257 13.2617 20.275 13.628 20.4392 14.1338C20.9888 15.8269 20.9888 17.6731 20.4392 19.3662C20.275 19.8719 19.8257 20.2382 19.2912 20.2905C14.4419 20.7647 9.55792 20.7647 4.70865 20.2905C4.1741 20.2382 3.72483 19.8719 3.56065 19.3662C3.01103 17.6731 3.01103 15.8269 3.56065 14.1338C3.72483 13.628 4.1741 13.2617 4.70865 13.2094Z"/>
</svg>
