<svg viewBox="0 0 24 24" xmlns="http://www.w3.org/2000/svg">
<path fill-rule="evenodd" clip-rule="evenodd" d="M3.48783 6.2367C3.65365 4.81893 4.85489 3.75 6.28233 3.75H17.025C17.2071 3.75 17.383 3.81626 17.5198 3.93641L20.2803 6.3602C20.9009 6.90511 21.2438 7.70008 21.2141 8.52543L20.8701 18.0988C20.8169 19.5781 19.6022 20.75 18.1219 20.75H6.11163C4.782 20.75 3.65948 19.762 3.49063 18.4432C2.99413 14.565 2.97275 10.6407 3.42694 6.75728L3.48783 6.2367ZM6.28233 5.25C5.6159 5.25 5.05509 5.74905 4.97767 6.41096L4.91679 6.93153C4.47677 10.6937 4.49749 14.4955 4.97849 18.2527C5.05148 18.8229 5.53679 19.25 6.11163 19.25H6.74872V15C6.74872 14.0335 7.53222 13.25 8.49872 13.25H15.4987C16.4652 13.25 17.2487 14.0335 17.2487 15V19.25H18.1219C18.7948 19.25 19.3469 18.7173 19.3711 18.0449L19.7151 8.47157C19.7286 8.09641 19.5727 7.73505 19.2906 7.48737L16.7487 5.2555V7.59998C16.7487 8.56647 15.9652 9.34998 14.9987 9.34998H8.99872C8.03222 9.34998 7.24872 8.56647 7.24872 7.59998V5.25H6.28233ZM8.74872 5.25V7.59998C8.74872 7.73805 8.86065 7.84998 8.99872 7.84998H14.9987C15.1368 7.84998 15.2487 7.73805 15.2487 7.59998V5.25H8.74872ZM15.7487 19.25H8.24872V15C8.24872 14.8619 8.36065 14.75 8.49872 14.75H15.4987C15.6368 14.75 15.7487 14.8619 15.7487 15V19.25Z"/>
</svg>
