<svg viewBox="0 0 24 24" xmlns="http://www.w3.org/2000/svg">
<path fill-rule="evenodd" clip-rule="evenodd" d="M11.1971 2.58716C11.6955 2.3103 12.3014 2.3103 12.7997 2.58716L19.9997 6.58716C20.5236 6.87817 20.8484 7.43029 20.8484 8.02952V15.9704C20.8484 16.5696 20.5236 17.1217 19.9998 17.4128L12.7998 21.4128C12.3014 21.6896 11.6955 21.6896 11.1971 21.4128L3.99713 17.4128C3.47331 17.1217 3.14844 16.5696 3.14844 15.9704V8.02952C3.14844 7.43029 3.47331 6.87817 3.99713 6.58716L11.1971 2.58716ZM12.0713 3.89839C12.026 3.87322 11.9709 3.87322 11.9256 3.89839L4.72559 7.89839C4.67797 7.92485 4.64844 7.97504 4.64844 8.02952V15.9704C4.64844 16.0249 4.67797 16.0751 4.72559 16.1015L11.9256 20.1015C11.9709 20.1267 12.026 20.1267 12.0713 20.1015L19.2713 16.1015C19.3189 16.0751 19.3484 16.0249 19.3484 15.9704V8.02952C19.3484 7.97504 19.3189 7.92485 19.2713 7.89839L12.0713 3.89839Z"/>
<path fill-rule="evenodd" clip-rule="evenodd" d="M7.24844 12C7.24844 9.3766 9.37509 7.24995 11.9984 7.24995C14.6218 7.24995 16.7484 9.3766 16.7484 12C16.7484 14.6233 14.6218 16.75 11.9984 16.75C9.37509 16.75 7.24844 14.6233 7.24844 12ZM11.9984 8.74995C10.2035 8.74995 8.74844 10.205 8.74844 12C8.74844 13.7949 10.2035 15.25 11.9984 15.25C13.7934 15.25 15.2484 13.7949 15.2484 12C15.2484 10.205 13.7934 8.74995 11.9984 8.74995Z"/>
</svg>
