<svg   viewBox="0 0 24 24" fill="none" xmlns="http://www.w3.org/2000/svg">
<path fill-rule="evenodd" clip-rule="evenodd" d="M11.9993 3.07922L9.78648 5.36872C9.55096 5.6124 9.22658 5.75002 8.88767 5.75002H5.74928V8.8884C5.74928 9.22731 5.61167 9.55169 5.36798 9.78722L3.07848 12L5.36798 14.2128C5.61167 14.4483 5.74928 14.7727 5.74928 15.1116V18.25H8.88767C9.22658 18.25 9.55096 18.3876 9.78648 18.6313L11.9993 20.9208L14.2121 18.6313C14.4476 18.3876 14.772 18.25 15.1109 18.25H18.2493V15.1116C18.2493 14.7727 18.3869 14.4483 18.6306 14.2128L20.9201 12L18.6306 9.78722C18.3869 9.5517 18.2493 9.22732 18.2493 8.88841V5.75002H15.1109C14.772 5.75002 14.4476 5.61241 14.2121 5.36872L11.9993 3.07922ZM11.1005 1.85078C11.5918 1.34238 12.4067 1.34238 12.8981 1.85078L15.2169 4.25002H18.4993C19.1896 4.25002 19.7493 4.80966 19.7493 5.50002V8.78235L22.1485 11.1012C22.6569 11.5926 22.6569 12.4075 22.1485 12.8988L19.7493 15.2177V18.5C19.7493 19.1904 19.1896 19.75 18.4993 19.75H15.2169L12.8981 22.1492C12.4067 22.6576 11.5918 22.6576 11.1005 22.1492L8.78161 19.75H5.49928C4.80893 19.75 4.24928 19.1904 4.24928 18.5V15.2177L1.85005 12.8988C1.34165 12.4075 1.34165 11.5926 1.85005 11.1012L4.24928 8.78235V5.50002C4.24928 4.80966 4.80893 4.25002 5.49928 4.25002H8.78162L11.1005 1.85078Z" fill="black"/>
<path fill-rule="evenodd" clip-rule="evenodd" d="M7.24928 12C7.24928 9.37666 9.37593 7.25002 11.9993 7.25002C14.6226 7.25002 16.7493 9.37666 16.7493 12C16.7493 14.6234 14.6226 16.75 11.9993 16.75C9.37593 16.75 7.24928 14.6234 7.24928 12ZM11.9993 8.75002C10.2044 8.75002 8.74928 10.2051 8.74928 12C8.74928 13.7949 10.2044 15.25 11.9993 15.25C13.7942 15.25 15.2493 13.7949 15.2493 12C15.2493 10.2051 13.7942 8.75002 11.9993 8.75002Z" fill="black"/>
</svg>
