<svg   viewBox="0 0 24 24" fill="none" xmlns="http://www.w3.org/2000/svg">
<path fill-rule="evenodd" clip-rule="evenodd" d="M13.153 3.36026C12.4819 3.00999 11.5725 3.00459 10.896 3.35396C8.30308 4.6931 5.95121 6.22853 3.89023 7.93154C3.57152 8.19489 3.34534 8.57758 3.3492 9.02802C3.35304 9.47662 3.58383 9.85419 3.9006 10.1132C5.94445 11.7844 8.29826 13.3212 10.8438 14.6497C11.5149 15 12.4243 15.0054 13.1007 14.656C15.6937 13.3169 18.0456 11.7815 20.1065 10.0785C20.4253 9.8151 20.6514 9.43242 20.6476 8.98197C20.6437 8.53338 20.4129 8.1558 20.0962 7.89679C18.0523 6.22562 15.6985 4.6888 13.153 3.36026ZM11.5843 4.68671C11.824 4.56294 12.2177 4.56411 12.459 4.69004C14.8883 5.95796 17.1267 7.41666 19.066 8.99223C17.1152 10.5932 14.8834 12.0471 12.4124 13.3233C12.1728 13.4471 11.7791 13.4459 11.5378 13.32C9.10845 12.052 6.87004 10.5933 4.93082 9.01777C6.88162 7.41684 9.11337 5.96285 11.5843 4.68671Z" fill="black"/>
<path d="M21.1954 12.698C21.4148 13.0494 21.3078 13.512 20.9564 13.7314L14.8492 17.5443C14.0204 18.0617 12.9922 18.3009 11.9983 18.301C11.0044 18.301 9.97611 18.0619 9.14725 17.5446L3.10692 13.7749C2.75553 13.5556 2.64845 13.093 2.86775 12.7416C3.08705 12.3902 3.5497 12.2831 3.90109 12.5024L9.94142 16.2721C10.4856 16.6117 11.2248 16.801 11.9982 16.801C12.7717 16.8009 13.5108 16.6116 14.0548 16.2719L20.162 12.459C20.5134 12.2397 20.9761 12.3467 21.1954 12.698Z" fill="black"/>
<path d="M21.1954 16.4527C21.4148 16.804 21.3078 17.2667 20.9565 17.4861L15.6676 20.7889C14.61 21.4494 13.287 21.7602 11.9983 21.7602C10.7095 21.7603 9.38649 21.4497 8.32871 20.7894L3.10684 17.5296C2.75548 17.3102 2.64845 16.8476 2.8678 16.4962C3.08714 16.1448 3.5498 16.0378 3.90117 16.2572L9.12303 19.517C9.89605 19.9995 10.93 20.2603 11.9982 20.2602C13.0664 20.2602 14.1002 19.9993 14.8731 19.5167L20.162 16.2138C20.5133 15.9944 20.976 16.1013 21.1954 16.4527Z" fill="black"/>
</svg>
