<svg   viewBox="0 0 24 24" fill="none" xmlns="http://www.w3.org/2000/svg">
<path d="M7.70032 9.45007C7.2861 9.45007 6.95032 9.78586 6.95032 10.2001C6.95032 10.6143 7.2861 10.9501 7.70032 10.9501H12.7003C13.1145 10.9501 13.4503 10.6143 13.4503 10.2001C13.4503 9.78586 13.1145 9.45007 12.7003 9.45007H7.70032Z" fill="black"/>
<path fill-rule="evenodd" clip-rule="evenodd" d="M5.3989 14.9446C7.85569 17.4014 11.7351 17.5685 14.3854 15.4458L19.541 20.6014C19.8339 20.8943 20.3088 20.8943 20.6017 20.6014C20.8946 20.3085 20.8946 19.8337 20.6017 19.5408L15.446 14.3851C17.5687 11.7349 17.4016 7.85544 14.9448 5.39866C12.3088 2.76262 8.03494 2.76262 5.3989 5.39866C2.76287 8.0347 2.76287 12.3086 5.3989 14.9446ZM6.45956 6.45932C4.40931 8.50957 4.40931 11.8337 6.45956 13.8839C8.50831 15.9327 11.8291 15.9342 13.8797 13.8884L13.8842 13.8839L13.8887 13.8794C15.9344 11.8288 15.9329 8.50807 13.8842 6.45932C11.8339 4.40907 8.50982 4.40907 6.45956 6.45932Z" fill="black"/>
</svg>
