<svg viewBox="0 0 24 24" xmlns="http://www.w3.org/2000/svg">
<path fill-rule="evenodd" clip-rule="evenodd" d="M7.34426 4.01727C10.4134 3.67426 13.5861 3.67426 16.6552 4.01727C18.3679 4.20869 19.7497 5.5581 19.9508 7.27759C20.3178 10.4152 20.3178 13.5849 19.9508 16.7225C19.7497 18.442 18.3679 19.7914 16.6552 19.9829C13.5861 20.3259 10.4134 20.3259 7.34426 19.9829C5.63153 19.7914 4.24978 18.442 4.04867 16.7225C3.68169 13.5849 3.68169 10.4152 4.04867 7.27759C4.24978 5.5581 5.63154 4.20869 7.34426 4.01727ZM11.9998 7.00742C12.414 7.00742 12.7498 7.3432 12.7498 7.75742V11.2501H16.2424C16.6566 11.2501 16.9924 11.5858 16.9924 12.0001C16.9924 12.4143 16.6566 12.7501 16.2424 12.7501H12.7498V16.2427C12.7498 16.6569 12.414 16.9927 11.9998 16.9927C11.5855 16.9927 11.2498 16.6569 11.2498 16.2427V12.7501H7.75714C7.34293 12.7501 7.00714 12.4143 7.00714 12.0001C7.00714 11.5858 7.34293 11.2501 7.75714 11.2501H11.2498V7.75742C11.2498 7.3432 11.5855 7.00742 11.9998 7.00742Z"/>
</svg>
