<svg viewBox="0 0 24 24" xmlns="http://www.w3.org/2000/svg">
<path d="M6.20741 2.63158C5.41245 2.54273 4.59132 2.54273 3.79637 2.63158C3.1977 2.69849 2.71255 3.16969 2.64166 3.77577C2.54653 4.58912 2.54653 5.41079 2.64166 6.22414C2.71255 6.83022 3.1977 7.30142 3.79637 7.36833C4.59132 7.45718 5.41245 7.45718 6.20741 7.36833C6.80608 7.30142 7.29123 6.83022 7.36212 6.22414C7.45725 5.41079 7.45725 4.58912 7.36212 3.77577C7.29123 3.16969 6.80608 2.69849 6.20741 2.63158Z"/>
<path d="M13.2074 2.63158C12.4124 2.54273 11.5913 2.54273 10.7964 2.63158C10.1977 2.69849 9.71254 3.16969 9.64165 3.77577C9.54652 4.58912 9.54652 5.41079 9.64165 6.22414C9.71254 6.83022 10.1977 7.30142 10.7964 7.36833C11.5913 7.45718 12.4124 7.45718 13.2074 7.36833C13.8061 7.30142 14.2912 6.83022 14.3621 6.22414C14.4572 5.41079 14.4572 4.58912 14.3621 3.77577C14.2912 3.16969 13.8061 2.69849 13.2074 2.63158Z"/>
<path d="M20.2074 2.63158C19.4124 2.54273 18.5913 2.54273 17.7964 2.63158C17.1977 2.69849 16.7125 3.16969 16.6417 3.77577C16.5465 4.58912 16.5465 5.41079 16.6417 6.22414C16.7125 6.83022 17.1977 7.30142 17.7964 7.36833C18.5913 7.45718 19.4124 7.45718 20.2074 7.36833C20.8061 7.30142 21.2912 6.83022 21.3621 6.22414C21.4572 5.41079 21.4572 4.58912 21.3621 3.77577C21.2912 3.16969 20.8061 2.69849 20.2074 2.63158Z"/>
<path d="M6.20741 9.63158C5.41245 9.54273 4.59132 9.54273 3.79637 9.63158C3.1977 9.69849 2.71255 10.1697 2.64166 10.7758C2.54653 11.5891 2.54653 12.4108 2.64166 13.2241C2.71255 13.8302 3.1977 14.3014 3.79637 14.3683C4.59132 14.4572 5.41245 14.4572 6.20741 14.3683C6.80608 14.3014 7.29123 13.8302 7.36212 13.2241C7.45725 12.4108 7.45725 11.5891 7.36212 10.7758C7.29123 10.1697 6.80608 9.69849 6.20741 9.63158Z"/>
<path d="M13.2074 9.63158C12.4124 9.54273 11.5913 9.54273 10.7964 9.63158C10.1977 9.69849 9.71254 10.1697 9.64165 10.7758C9.54652 11.5891 9.54652 12.4108 9.64165 13.2241C9.71254 13.8302 10.1977 14.3014 10.7964 14.3683C11.5913 14.4572 12.4124 14.4572 13.2074 14.3683C13.8061 14.3014 14.2912 13.8302 14.3621 13.2241C14.4572 12.4108 14.4572 11.5891 14.3621 10.7758C14.2912 10.1697 13.8061 9.69849 13.2074 9.63158Z"/>
<path d="M20.2074 9.63158C19.4124 9.54273 18.5913 9.54273 17.7964 9.63158C17.1977 9.69849 16.7125 10.1697 16.6417 10.7758C16.5465 11.5891 16.5465 12.4108 16.6417 13.2241C16.7125 13.8302 17.1977 14.3014 17.7964 14.3683C18.5913 14.4572 19.4124 14.4572 20.2074 14.3683C20.8061 14.3014 21.2912 13.8302 21.3621 13.2241C21.4572 12.4108 21.4572 11.5891 21.3621 10.7758C21.2912 10.1697 20.8061 9.69849 20.2074 9.63158Z"/>
<path d="M6.20741 16.6316C5.41245 16.5427 4.59132 16.5427 3.79637 16.6316C3.1977 16.6985 2.71255 17.1697 2.64166 17.7758C2.54653 18.5891 2.54653 19.4108 2.64166 20.2241C2.71255 20.8302 3.1977 21.3014 3.79637 21.3683C4.59132 21.4572 5.41245 21.4572 6.20741 21.3683C6.80608 21.3014 7.29123 20.8302 7.36212 20.2241C7.45725 19.4108 7.45725 18.5891 7.36212 17.7758C7.29123 17.1697 6.80608 16.6985 6.20741 16.6316Z"/>
<path d="M13.2074 16.6316C12.4124 16.5427 11.5913 16.5427 10.7964 16.6316C10.1977 16.6985 9.71254 17.1697 9.64165 17.7758C9.54652 18.5891 9.54652 19.4108 9.64165 20.2241C9.71254 20.8302 10.1977 21.3014 10.7964 21.3683C11.5913 21.4572 12.4124 21.4572 13.2074 21.3683C13.8061 21.3014 14.2912 20.8302 14.3621 20.2241C14.4572 19.4108 14.4572 18.5891 14.3621 17.7758C14.2912 17.1697 13.8061 16.6985 13.2074 16.6316Z"/>
<path d="M20.2074 16.6316C19.4124 16.5427 18.5913 16.5427 17.7964 16.6316C17.1977 16.6985 16.7125 17.1697 16.6417 17.7758C16.5465 18.5891 16.5465 19.4108 16.6417 20.2241C16.7125 20.8302 17.1977 21.3014 17.7964 21.3683C18.5913 21.4572 19.4124 21.4572 20.2074 21.3683C20.8061 21.3014 21.2912 20.8302 21.3621 20.2241C21.4572 19.4108 21.4572 18.5891 21.3621 17.7758C21.2912 17.1697 20.8061 16.6985 20.2074 16.6316Z"/>
</svg>
