<svg   viewBox="0 0 24 24" fill="none" xmlns="http://www.w3.org/2000/svg">
<path fill-rule="evenodd" clip-rule="evenodd" d="M4.75391 12C4.75391 7.99594 7.99984 4.75 12.0039 4.75C16.008 4.75 19.2539 7.99594 19.2539 12C19.2539 12.0337 19.2561 12.0668 19.2604 12.0993C19.2572 12.1307 19.2559 12.1626 19.2567 12.1949C19.2628 12.4495 19.2302 12.8444 19.1466 13.2219C19.0555 13.6331 18.9369 13.8694 18.8675 13.9423C18.5656 14.2591 18.1502 14.4429 17.7127 14.4535C17.2752 14.464 16.8515 14.3003 16.5347 13.9984C16.3276 13.801 16.2682 13.5113 16.252 12.8381L16.1365 8.04002C16.1265 7.62592 15.7828 7.29831 15.3687 7.30828C14.9546 7.31825 14.627 7.66201 14.6369 8.07611L14.6536 8.76875C13.9325 8.17672 13.0097 7.82135 12.0039 7.82135C9.69613 7.82135 7.82532 9.69216 7.82532 11.9999C7.82532 14.3077 9.69613 16.1785 12.0039 16.1785C13.2783 16.1785 14.4195 15.608 15.1859 14.7084C15.2718 14.8392 15.3753 14.9655 15.4999 15.0843C16.1047 15.6606 16.9136 15.9731 17.7488 15.953C18.584 15.9329 19.377 15.5819 19.9534 14.9771C20.3231 14.5892 20.5101 14.0022 20.6111 13.5463C20.7196 13.0566 20.7655 12.5406 20.7563 12.1588C20.7556 12.1313 20.7535 12.1042 20.75 12.0775C20.7526 12.052 20.7539 12.0262 20.7539 12C20.7539 7.16751 16.8364 3.25 12.0039 3.25C7.17141 3.25 3.25391 7.16751 3.25391 12C3.25391 16.8325 7.17141 20.75 12.0039 20.75C14.0469 20.75 15.9283 20.0489 17.4175 18.8747C17.7428 18.6182 17.7986 18.1466 17.5421 17.8213C17.2857 17.4961 16.8141 17.4403 16.4888 17.6968C15.2547 18.6698 13.6981 19.25 12.0039 19.25C7.99984 19.25 4.75391 16.0041 4.75391 12ZM12.0039 9.32135C10.5246 9.32135 9.32532 10.5206 9.32532 11.9999C9.32532 13.4793 10.5246 14.6785 12.0039 14.6785C13.4832 14.6785 14.6825 13.4793 14.6825 11.9999C14.6825 10.5206 13.4832 9.32135 12.0039 9.32135Z" fill="black"/>
</svg>
