<svg viewBox="0 0 24 24" xmlns="http://www.w3.org/2000/svg">
<path fill-rule="evenodd" clip-rule="evenodd" d="M8.4079 5.19995C7.33357 5.19995 6.31875 5.69335 5.65523 6.53829L2.09372 11.0735C1.66668 11.6173 1.66668 12.3826 2.09372 12.9264L5.65523 17.4616C6.31875 18.3066 7.33357 18.8 8.4079 18.8H19.0546C20.4353 18.8 21.5546 17.6807 21.5546 16.3V7.69995C21.5546 6.31924 20.4353 5.19995 19.0546 5.19995H8.4079ZM10.4716 8.4696C10.7645 8.17671 11.2394 8.17671 11.5323 8.4696L14.002 10.9393L16.4716 8.46961C16.7645 8.17672 17.2394 8.17672 17.5323 8.46961C17.8252 8.7625 17.8252 9.23738 17.5323 9.53027L15.0626 11.9999L17.5323 14.4696C17.8252 14.7625 17.8252 15.2374 17.5323 15.5303C17.2394 15.8232 16.7645 15.8232 16.4716 15.5303L14.002 13.0606L11.5323 15.5303C11.2394 15.8232 10.7645 15.8232 10.4716 15.5303C10.1787 15.2374 10.1787 14.7625 10.4716 14.4696L12.9413 11.9999L10.4716 9.53026C10.1787 9.23737 10.1787 8.76249 10.4716 8.4696Z"/>
</svg>
