<svg viewBox="0 0 24 24" xmlns="http://www.w3.org/2000/svg">
<path fill-rule="evenodd" clip-rule="evenodd" d="M7.34426 4.01727C10.4134 3.67426 13.5861 3.67426 16.6552 4.01727C18.3679 4.20869 19.7497 5.5581 19.9508 7.27759C20.3178 10.4152 20.3178 13.5849 19.9508 16.7225C19.7497 18.442 18.3679 19.7914 16.6552 19.9829C13.5861 20.3259 10.4134 20.3259 7.34426 19.9829C5.63153 19.7914 4.24978 18.442 4.04867 16.7225C3.68169 13.5849 3.68169 10.4152 4.04867 7.27759C4.24978 5.5581 5.63154 4.20869 7.34426 4.01727ZM8.46943 8.46973C8.76232 8.17684 9.23719 8.17684 9.53009 8.46973L11.9998 10.9394L14.4694 8.46974C14.7623 8.17685 15.2372 8.17685 15.5301 8.46974C15.823 8.76263 15.823 9.23751 15.5301 9.5304L13.0604 12.0001L15.5301 14.4697C15.823 14.7626 15.823 15.2375 15.5301 15.5304C15.2372 15.8233 14.7623 15.8233 14.4694 15.5304L11.9998 13.0607L9.53009 15.5304C9.2372 15.8233 8.76233 15.8233 8.46943 15.5304C8.17654 15.2375 8.17654 14.7626 8.46943 14.4697L10.9391 12.0001L8.46943 9.53039C8.17653 9.2375 8.17653 8.76262 8.46943 8.46973Z"/>
</svg>
