<svg   viewBox="0 0 24 24" fill="none" xmlns="http://www.w3.org/2000/svg">
<path d="M10.5434 19.2669C11.016 14.4339 11.016 9.56619 10.5434 4.73311C10.5009 4.29839 10.2027 3.93232 9.79068 3.79855C8.14777 3.26523 6.35559 3.26523 4.71267 3.79855C4.30061 3.93232 4.00247 4.29839 3.95995 4.73311C3.48731 9.56619 3.48731 14.4339 3.95995 19.2669C4.00247 19.7017 4.30061 20.0677 4.71267 20.2015C6.35559 20.7348 8.14776 20.7348 9.79068 20.2015C10.2027 20.0677 10.5009 19.7017 10.5434 19.2669Z" fill="black"/>
<path d="M20.0434 19.2669C20.516 14.4339 20.516 9.56619 20.0434 4.73311C20.0009 4.29839 19.7027 3.93232 19.2907 3.79855C17.6478 3.26523 15.8556 3.26523 14.2127 3.79855C13.8006 3.93232 13.5025 4.29839 13.46 4.73311C12.9873 9.56619 12.9873 14.4339 13.46 19.2669C13.5025 19.7017 13.8006 20.0677 14.2127 20.2015C15.8556 20.7348 17.6478 20.7348 19.2907 20.2015C19.7027 20.0677 20.0009 19.7017 20.0434 19.2669Z" fill="black"/>
</svg>
