<svg   viewBox="0 0 24 24" fill="none" xmlns="http://www.w3.org/2000/svg">
<path d="M16.4772 3.00356C16.6448 3.01949 16.7171 3.22296 16.598 3.34199L8.27794 11.6621C8.18372 11.7563 8.1163 11.8739 8.08262 12.0029L7.08262 15.8313C7.01533 16.0889 7.08967 16.3629 7.27794 16.5512C7.46622 16.7395 7.7402 16.8138 7.99782 16.7465L11.8262 15.7465C11.9552 15.7128 12.0728 15.6454 12.167 15.5512L20.605 7.11325C20.7233 6.99486 20.9257 7.06569 20.9432 7.2322C21.2948 10.5814 21.2749 13.9597 20.8836 17.3056C20.6607 19.2106 19.1296 20.7064 17.2312 20.9186C13.783 21.304 10.2183 21.304 6.77021 20.9186C4.87181 20.7064 3.34062 19.2106 3.1178 17.3056C2.70552 13.7806 2.70552 10.2195 3.1178 6.69452C3.34062 4.78947 4.87181 3.29369 6.77021 3.08151C9.9676 2.72416 13.2652 2.69817 16.4772 3.00356Z" fill="black"/>
<path d="M17.824 4.23732C17.9216 4.13988 18.0797 4.13988 18.1773 4.23732L19.5917 5.65168C19.6893 5.74931 19.6893 5.9076 19.5917 6.00523L11.2982 14.2987C11.267 14.3299 11.2273 14.3525 11.1846 14.3638L9.27022 14.8638C9.08558 14.9119 8.91743 14.7433 8.96536 14.5587L9.46536 12.6445C9.47658 12.6015 9.49906 12.5623 9.53046 12.5309L17.824 4.23732Z" fill="black"/>
</svg>
