<svg viewBox="0 0 24 24" xmlns="http://www.w3.org/2000/svg">
<path fill-rule="evenodd" clip-rule="evenodd" d="M13.6649 6.34314C13.6649 6.75735 14.0006 7.09314 14.4149 7.09314L16.9075 7.09314V9.58578C16.9075 9.99999 17.2433 10.3358 17.6575 10.3358C18.0717 10.3358 18.4075 9.99999 18.4075 9.58578V6.34314C18.4075 5.92893 18.0717 5.59314 17.6575 5.59314L14.4149 5.59314C14.0006 5.59314 13.6649 5.92893 13.6649 6.34314Z"/>
<path fill-rule="evenodd" clip-rule="evenodd" d="M17.6575 13.6642C17.2433 13.6642 16.9075 14 16.9075 14.4142L16.9075 16.9069L14.4148 16.9069C14.0006 16.9069 13.6648 17.2426 13.6648 17.6569C13.6648 18.0711 14.0006 18.4069 14.4148 18.4069L17.6575 18.4069C18.0717 18.4069 18.4075 18.0711 18.4075 17.6569L18.4075 14.4142C18.4075 14 18.0717 13.6642 17.6575 13.6642Z"/>
<path fill-rule="evenodd" clip-rule="evenodd" d="M6.34378 13.6642C6.75799 13.6642 7.09378 14 7.09378 14.4142L7.09378 16.9069L9.58642 16.9069C10.0006 16.9069 10.3364 17.2426 10.3364 17.6569C10.3364 18.0711 10.0006 18.4069 9.58642 18.4069L6.34378 18.4069C5.92956 18.4069 5.59378 18.0711 5.59378 17.6569L5.59378 14.4142C5.59378 14 5.92956 13.6642 6.34378 13.6642Z"/>
<path fill-rule="evenodd" clip-rule="evenodd" d="M10.3364 6.34314C10.3364 6.75735 10.0006 7.09314 9.58639 7.09314L7.09375 7.09314L7.09375 9.58578C7.09375 9.99999 6.75796 10.3358 6.34375 10.3358C5.92954 10.3358 5.59375 9.99999 5.59375 9.58578L5.59375 6.34314C5.59375 5.92893 5.92954 5.59314 6.34375 5.59314L9.58639 5.59314C10.0006 5.59314 10.3364 5.92893 10.3364 6.34314Z"/>
</svg>
