<svg viewBox="0 0 24 24" xmlns="http://www.w3.org/2000/svg">
<path fill-rule="evenodd" clip-rule="evenodd" d="M12.001 11.6495C11.3106 11.6495 10.751 12.2091 10.751 12.8995C10.751 13.5898 11.3106 14.1495 12.001 14.1495C12.6913 14.1495 13.251 13.5898 13.251 12.8995C13.251 12.2091 12.6913 11.6495 12.001 11.6495ZM9.25098 12.8995C9.25098 11.3807 10.4822 10.1495 12.001 10.1495C13.5198 10.1495 14.751 11.3807 14.751 12.8995C14.751 14.4183 13.5198 15.6495 12.001 15.6495C10.4822 15.6495 9.25098 14.4183 9.25098 12.8995Z"/>
<path fill-rule="evenodd" clip-rule="evenodd" d="M12.001 7.64948C10.9626 7.64948 9.94759 7.95738 9.08424 8.53426C8.22088 9.11114 7.54797 9.93108 7.15061 10.8904C6.75325 11.8497 6.64928 12.9053 6.85186 13.9237C7.05443 14.9421 7.55444 15.8776 8.28867 16.6118C8.58156 16.9047 8.58156 17.3796 8.28867 17.6724C7.99578 17.9653 7.5209 17.9653 7.22801 17.6724C6.284 16.7284 5.64113 15.5257 5.38068 14.2163C5.12023 12.907 5.2539 11.5498 5.76479 10.3164C6.27568 9.08296 7.14085 8.02876 8.25088 7.28706C9.36091 6.54536 10.666 6.14948 12.001 6.14948C13.336 6.14948 14.641 6.54536 15.7511 7.28706C16.8611 8.02876 17.7263 9.08296 18.2372 10.3164C18.7481 11.5498 18.8817 12.907 18.6213 14.2163C18.3608 15.5257 17.718 16.7284 16.7739 17.6724C16.4811 17.9653 16.0062 17.9653 15.7133 17.6724C15.4204 17.3796 15.4204 16.9047 15.7133 16.6118C16.4475 15.8776 16.9475 14.9421 17.1501 13.9237C17.3527 12.9053 17.2487 11.8497 16.8513 10.8904C16.454 9.93108 15.7811 9.11114 14.9177 8.53426C14.0544 7.95738 13.0393 7.64948 12.001 7.64948Z"/>
<path fill-rule="evenodd" clip-rule="evenodd" d="M12.0011 3.75C10.1915 3.75 8.4225 4.28661 6.91787 5.29197C5.41325 6.29733 4.24053 7.72628 3.54803 9.39813C2.85553 11.07 2.67434 12.9096 3.02737 14.6845C3.38041 16.4593 4.25181 18.0896 5.53139 19.3692C5.82428 19.662 5.82428 20.1369 5.53139 20.4298C5.2385 20.7227 4.76362 20.7227 4.47073 20.4298C2.98137 18.9405 1.96711 17.0429 1.55619 14.9771C1.14528 12.9113 1.35618 10.77 2.16221 8.82411C2.96824 6.87817 4.33322 5.21494 6.08452 4.04476C7.83582 2.87458 9.89478 2.25 12.0011 2.25C14.1073 2.25 16.1663 2.87458 17.9176 4.04476C19.6689 5.21494 21.0339 6.87817 21.8399 8.82411C22.6459 10.77 22.8568 12.9113 22.4459 14.9771C22.035 17.0429 21.0207 18.9405 19.5314 20.4298C19.2385 20.7227 18.7636 20.7227 18.4707 20.4298C18.1778 20.1369 18.1778 19.662 18.4707 19.3692C19.7503 18.0896 20.6217 16.4593 20.9747 14.6845C21.3278 12.9096 21.1466 11.07 20.4541 9.39813C19.7616 7.72628 18.5889 6.29733 17.0842 5.29197C15.5796 4.28661 13.8107 3.75 12.0011 3.75Z"/>
</svg>
