<svg   viewBox="0 0 24 24" fill="none" xmlns="http://www.w3.org/2000/svg">
<path d="M9.06936 3.22806C7.70587 3.07567 6.29683 3.07567 4.93334 3.22806C4.05616 3.3261 3.34685 4.01685 3.24341 4.90129C3.08032 6.29571 3.08032 7.70438 3.24341 9.0988C3.34685 9.98323 4.05616 10.674 4.93334 10.772C6.29683 10.9244 7.70587 10.9244 9.06936 10.772C9.94655 10.674 10.6558 9.98323 10.7593 9.0988C10.9224 7.70438 10.9224 6.29571 10.7593 4.90129C10.6558 4.01685 9.94655 3.3261 9.06936 3.22806Z" fill="black"/>
<path d="M9.06936 13.2281C7.70587 13.0757 6.29683 13.0757 4.93334 13.2281C4.05616 13.3261 3.34685 14.0169 3.24341 14.9013C3.08032 16.2957 3.08032 17.7044 3.24341 19.0988C3.34685 19.9832 4.05616 20.674 4.93334 20.772C6.29683 20.9244 7.70587 20.9244 9.06936 20.772C9.94655 20.674 10.6558 19.9832 10.7593 19.0988C10.9224 17.7044 10.9224 16.2957 10.7593 14.9013C10.6558 14.0169 9.94655 13.3261 9.06936 13.2281Z" fill="black"/>
<path d="M19.0694 3.22806C17.7059 3.07567 16.2968 3.07567 14.9334 3.22806C14.0562 3.3261 13.3469 4.01685 13.2434 4.90129C13.0803 6.29571 13.0803 7.70438 13.2434 9.0988C13.3469 9.98323 14.0562 10.674 14.9334 10.772C16.2968 10.9244 17.7059 10.9244 19.0694 10.772C19.9466 10.674 20.6559 9.98323 20.7593 9.0988C20.9224 7.70438 20.9224 6.29571 20.7593 4.90129C20.6559 4.01685 19.9466 3.3261 19.0694 3.22806Z" fill="black"/>
<path d="M19.0694 13.2281C17.7059 13.0757 16.2968 13.0757 14.9334 13.2281C14.0562 13.3261 13.3469 14.0169 13.2434 14.9013C13.0803 16.2957 13.0803 17.7044 13.2434 19.0988C13.3469 19.9832 14.0562 20.674 14.9334 20.772C16.2968 20.9244 17.7059 20.9244 19.0694 20.772C19.9466 20.674 20.6559 19.9832 20.7593 19.0988C20.9224 17.7044 20.9224 16.2957 20.7593 14.9013C20.6559 14.0169 19.9466 13.3261 19.0694 13.2281Z" fill="black"/>
</svg>
