<svg viewBox="0 0 24 24" xmlns="http://www.w3.org/2000/svg">
<path d="M19.2668 3.95825C14.4337 3.4856 9.56607 3.4856 4.73299 3.95825C4.29827 4.00076 3.9322 4.2989 3.79843 4.71096C3.26511 6.35388 3.26511 8.14606 3.79843 9.78898C3.9322 10.201 4.29826 10.4992 4.73298 10.5417C9.56607 11.0143 14.4337 11.0143 19.2668 10.5417C19.7015 10.4992 20.0676 10.201 20.2014 9.78898C20.7347 8.14606 20.7347 6.35388 20.2014 4.71096C20.0676 4.2989 19.7015 4.00076 19.2668 3.95825Z"/>
<path d="M19.2668 13.4582C14.4337 12.9856 9.56607 12.9856 4.73299 13.4582C4.29827 13.5008 3.9322 13.7989 3.79843 14.211C3.26511 15.8539 3.26511 17.6461 3.79843 19.289C3.9322 19.701 4.29826 19.9992 4.73298 20.0417C9.56607 20.5143 14.4337 20.5143 19.2668 20.0417C19.7015 19.9992 20.0676 19.701 20.2014 19.289C20.7347 17.6461 20.7347 15.8539 20.2014 14.211C20.0676 13.7989 19.7015 13.5008 19.2668 13.4582Z"/>
</svg>
