<svg   viewBox="0 0 24 24" fill="none" xmlns="http://www.w3.org/2000/svg">
<path d="M7.24872 7.59998C7.24872 8.56647 8.03222 9.34998 8.99872 9.34998H14.9987C15.9652 9.34998 16.7487 8.56647 16.7487 7.59998V4.27627C16.7487 4.12369 16.8724 4 17.025 4C17.1709 4 17.3095 4.06373 17.4045 4.17448L20.3672 7.62867C20.7778 8.1074 20.9923 8.72364 20.9676 9.35387L20.626 18.0976C20.5736 19.4393 19.4707 20.5 18.1279 20.5H17.7487C17.4726 20.5 17.2487 20.2761 17.2487 20V15C17.2487 14.0335 16.4652 13.25 15.4987 13.25H8.49872C7.53222 13.25 6.74872 14.0335 6.74872 15V20C6.74872 20.2761 6.52486 20.5 6.24872 20.5H6.11163C4.9078 20.5 3.89148 19.6055 3.73861 18.4114C3.24469 14.5534 3.22342 10.6495 3.67525 6.78632L3.73614 6.26575C3.88722 4.97395 4.98172 4 6.28233 4H6.74872C7.02486 4 7.24872 4.22386 7.24872 4.5V7.59998Z" fill="black"/>
<path d="M8.24872 20C8.24872 20.2761 8.47258 20.5 8.74872 20.5H15.2487C15.5249 20.5 15.7487 20.2761 15.7487 20V15C15.7487 14.8619 15.6368 14.75 15.4987 14.75H8.49872C8.36065 14.75 8.24872 14.8619 8.24872 15V20Z" fill="black"/>
<path d="M15.2487 4.5C15.2487 4.22386 15.0249 4 14.7487 4H9.24872C8.97258 4 8.74872 4.22386 8.74872 4.5V7.59998C8.74872 7.73805 8.86065 7.84998 8.99872 7.84998H14.9987C15.1368 7.84998 15.2487 7.73805 15.2487 7.59998V4.5Z" fill="black"/>
</svg>
