<svg   viewBox="0 0 24 24" fill="none" xmlns="http://www.w3.org/2000/svg">
<path d="M8.74963 12C8.74963 10.2051 10.2047 8.75001 11.9996 8.75001C13.7946 8.75001 15.2496 10.2051 15.2496 12C15.2496 13.7949 13.7946 15.25 11.9996 15.25C10.2047 15.25 8.74963 13.7949 8.74963 12Z" fill="black"/>
<path fill-rule="evenodd" clip-rule="evenodd" d="M11.4604 1.83852C11.7552 1.53348 12.2441 1.53348 12.5389 1.83852L15.1112 4.50001H18.7496C19.1639 4.50001 19.4996 4.83579 19.4996 5.25001V8.8884L22.1611 11.4607C22.4662 11.7555 22.4662 12.2445 22.1611 12.5393L19.4996 15.1116V18.75C19.4996 19.1642 19.1639 19.5 18.7496 19.5H15.1112L12.5389 22.1615C12.2441 22.4665 11.7552 22.4665 11.4604 22.1615L8.88803 19.5H5.24964C4.83543 19.5 4.49964 19.1642 4.49964 18.75V15.1116L1.83816 12.5393C1.53312 12.2445 1.53311 11.7555 1.83816 11.4607L4.49964 8.8884V5.25001C4.49964 4.83579 4.83543 4.50001 5.24964 4.50001H8.88803L11.4604 1.83852ZM11.9996 7.25001C9.37628 7.25001 7.24963 9.37666 7.24963 12C7.24963 14.6234 9.37628 16.75 11.9996 16.75C14.623 16.75 16.7496 14.6234 16.7496 12C16.7496 9.37666 14.623 7.25001 11.9996 7.25001Z" fill="black"/>
</svg>
