<svg viewBox="0 0 24 24" xmlns="http://www.w3.org/2000/svg">
<path d="M11.9984 8.75006C10.2035 8.75006 8.74841 10.2051 8.74841 12.0001C8.74841 13.795 10.2035 15.2501 11.9984 15.2501C13.7933 15.2501 15.2484 13.795 15.2484 12.0001C15.2484 10.2051 13.7933 8.75006 11.9984 8.75006Z"/>
<path fill-rule="evenodd" clip-rule="evenodd" d="M12.6783 2.80582C12.2555 2.57091 11.7414 2.57091 11.3185 2.80582L4.11854 6.80582C3.67409 7.05274 3.39844 7.5212 3.39844 8.02964V15.9705C3.39844 16.4789 3.67408 16.9474 4.11854 17.1943L11.3185 21.1943C11.7414 21.4292 12.2555 21.4292 12.6783 21.1943L19.8783 17.1943C20.3228 16.9474 20.5984 16.4789 20.5984 15.9705V8.02964C20.5984 7.5212 20.3228 7.05274 19.8783 6.80582L12.6783 2.80582ZM7.24841 12.0001C7.24841 9.37671 9.37506 7.25006 11.9984 7.25006C14.6218 7.25006 16.7484 9.37671 16.7484 12.0001C16.7484 14.6234 14.6218 16.7501 11.9984 16.7501C9.37506 16.7501 7.24841 14.6234 7.24841 12.0001Z"/>
</svg>
