<svg   viewBox="0 0 24 24" fill="none" xmlns="http://www.w3.org/2000/svg">
<path d="M13.0374 3.58189C12.4379 3.26901 11.6144 3.26431 11.0108 3.57608C8.43212 4.90782 6.09544 6.43365 4.04947 8.12426C3.77665 8.3497 3.5961 8.66523 3.59919 9.02588C3.60227 9.3853 3.78692 9.69732 4.05885 9.91966C6.08835 11.5791 8.42766 13.1067 10.9594 14.4281C11.5589 14.741 12.3823 14.7457 12.986 14.4339C15.5647 13.1022 17.9013 11.5763 19.9473 9.88574C20.2201 9.6603 20.4007 9.34477 20.3976 8.98411C20.3945 8.62469 20.2099 8.31268 19.9379 8.09033C17.9084 6.43089 15.5691 4.90327 13.0374 3.58189Z" fill="black"/>
<path d="M20.9564 13.7314C21.3078 13.512 21.4148 13.0494 21.1954 12.698C20.9761 12.3467 20.5134 12.2397 20.162 12.459L14.0548 16.2719C13.5108 16.6116 12.7717 16.8009 11.9982 16.801C11.2248 16.801 10.4856 16.6117 9.94142 16.2721L3.90109 12.5024C3.5497 12.2831 3.08705 12.3902 2.86775 12.7416C2.64845 13.093 2.75553 13.5556 3.10692 13.7749L9.14725 17.5446C9.97611 18.0619 11.0044 18.301 11.9983 18.301C12.9922 18.3009 14.0204 18.0617 14.8492 17.5443L20.9564 13.7314Z" fill="black"/>
<path d="M20.9565 17.4861C21.3078 17.2667 21.4148 16.804 21.1954 16.4527C20.976 16.1013 20.5133 15.9944 20.162 16.2138L14.8731 19.5167C14.1002 19.9993 13.0664 20.2602 11.9982 20.2602C10.93 20.2603 9.89605 19.9995 9.12303 19.517L3.90117 16.2572C3.5498 16.0378 3.08714 16.1448 2.8678 16.4962C2.64845 16.8476 2.75548 17.3102 3.10684 17.5296L8.32871 20.7894C9.38649 21.4497 10.7095 21.7603 11.9983 21.7602C13.287 21.7602 14.61 21.4494 15.6676 20.7889L20.9565 17.4861Z" fill="black"/>
</svg>
