<svg   viewBox="0 0 24 24" fill="none" xmlns="http://www.w3.org/2000/svg">
<path fill-rule="evenodd" clip-rule="evenodd" d="M14.3854 15.4458C11.7351 17.5685 7.85569 17.4014 5.3989 14.9446C2.76287 12.3086 2.76287 8.0347 5.3989 5.39866C8.03494 2.76262 12.3088 2.76262 14.9448 5.39866C17.4016 7.85544 17.5687 11.7349 15.446 14.3851L20.6017 19.5408C20.8946 19.8337 20.8946 20.3085 20.6017 20.6014C20.3088 20.8943 19.8339 20.8943 19.541 20.6014L14.3854 15.4458ZM6.95032 10.2001C6.95032 9.78586 7.2861 9.45007 7.70032 9.45007H9.45032V7.70007C9.45032 7.28586 9.7861 6.95007 10.2003 6.95007C10.6145 6.95007 10.9503 7.28586 10.9503 7.70007V9.45007H12.7003C13.1145 9.45007 13.4503 9.78586 13.4503 10.2001C13.4503 10.6143 13.1145 10.9501 12.7003 10.9501H10.9503V12.7001C10.9503 13.1143 10.6145 13.4501 10.2003 13.4501C9.7861 13.4501 9.45032 13.1143 9.45032 12.7001V10.9501H7.70032C7.2861 10.9501 6.95032 10.6143 6.95032 10.2001Z" fill="black"/>
</svg>
