<svg viewBox="0 0 24 24" xmlns="http://www.w3.org/2000/svg">
<g clip-path="url(#clip0_61_16597)">
<path d="M13.9993 8H15.9993V10C15.9993 10.55 16.4493 11 16.9993 11C17.5493 11 17.9993 10.55 17.9993 10V8H19.9993C20.5493 8 20.9993 7.55 20.9993 7C20.9993 6.45 20.5493 6 19.9993 6H17.9993V4C17.9993 3.45 17.5493 3 16.9993 3C16.4493 3 15.9993 3.45 15.9993 4V6H13.9993C13.4493 6 12.9993 6.45 12.9993 7C12.9993 7.55 13.4493 8 13.9993 8ZM19.2093 15.27L16.6693 14.98C16.0593 14.91 15.4593 15.12 15.0293 15.55L13.1893 17.39C10.3593 15.95 8.0393 13.64 6.5993 10.8L8.4493 8.95C8.8793 8.52 9.0893 7.91 9.0193 7.31L8.7293 4.79C8.6193 3.78 7.7593 3.01 6.7493 3.01H5.0193C3.8893 3.01 2.9493 3.95 3.0193 5.08C3.5493 13.62 10.3793 20.44 18.9093 20.97C20.0393 21.04 20.9793 20.1 20.9793 18.97V17.24C20.9893 16.24 20.2193 15.38 19.2093 15.27V15.27Z"/>
</g>
<defs>
<clipPath id="clip0_61_16597">
<rect/>
</clipPath>
</defs>
</svg>
