<svg viewBox="0 0 24 24" xmlns="http://www.w3.org/2000/svg">
<g clip-path="url(#clip0_61_16598)">
<path d="M12.7235 2.03007C6.63349 1.60007 1.60349 6.63007 2.03349 12.7201C2.39349 18.0101 7.01349 22.0001 12.3135 22.0001H16.0035C16.5535 22.0001 17.0035 21.5501 17.0035 21.0001C17.0035 20.4501 16.5535 20.0001 16.0035 20.0001H12.3335C8.60349 20.0001 5.18349 17.5801 4.25349 13.9701C2.76349 8.17007 8.16349 2.76007 13.9635 4.26007C17.5835 5.18007 20.0035 8.60007 20.0035 12.3301V13.4301C20.0035 14.2201 19.2935 15.0001 18.5035 15.0001C17.7135 15.0001 17.0035 14.2201 17.0035 13.4301V12.1801C17.0035 9.67007 15.2235 7.41007 12.7435 7.06007C9.34349 6.57007 6.47349 9.51007 7.08349 12.9301C7.42349 14.8401 8.91349 16.4201 10.8035 16.8701C12.6435 17.3001 14.3935 16.7101 15.5435 15.5401C16.4335 16.7601 18.2135 17.4001 19.8435 16.7501C21.1835 16.2201 22.0035 14.8501 22.0035 13.4101V12.3201C22.0035 7.01007 18.0135 2.39007 12.7235 2.03007V2.03007ZM12.0035 15.0001C10.3435 15.0001 9.00349 13.6601 9.00349 12.0001C9.00349 10.3401 10.3435 9.00007 12.0035 9.00007C13.6635 9.00007 15.0035 10.3401 15.0035 12.0001C15.0035 13.6601 13.6635 15.0001 12.0035 15.0001Z"/>
</g>
<defs>
<clipPath id="clip0_61_16598">
<rect/>
</clipPath>
</defs>
</svg>
