<svg viewBox="0 0 24 24" xmlns="http://www.w3.org/2000/svg">
<g clip-path="url(#clip0_61_16603)">
<path d="M17.7025 19.7C18.0925 19.31 18.0925 18.68 17.7025 18.29L15.0025 15.59L13.5925 17L16.2925 19.7C16.6825 20.09 17.3225 20.09 17.7025 19.7ZM8.7125 7.99996H11.0025V13.59L6.2925 18.29C5.9025 18.68 5.9025 19.31 6.2925 19.7C6.6825 20.09 7.3125 20.09 7.7025 19.7L13.0025 14.4V7.99996H15.2925C15.7425 7.99996 15.9625 7.45996 15.6425 7.14996L12.3525 3.85996C12.1525 3.65996 11.8425 3.65996 11.6425 3.85996L8.3525 7.14996C8.0425 7.45996 8.2625 7.99996 8.7125 7.99996V7.99996Z"/>
</g>
<defs>
<clipPath id="clip0_61_16603">
<rect/>
</clipPath>
</defs>
</svg>
