<svg   viewBox="0 0 24 24" fill="none" xmlns="http://www.w3.org/2000/svg">
<g clip-path="url(#clip0_61_16605)">
<path d="M3.69906 9.11L11.2891 16.7C11.6791 17.09 12.3091 17.09 12.6991 16.7L18.9991 10.4V14C18.9991 14.55 19.4491 15 19.9991 15C20.5491 15 20.9991 14.55 20.9991 14V8C20.9991 7.45 20.5491 7 19.9991 7H13.9991C13.4491 7 12.9991 7.45 12.9991 8C12.9991 8.55 13.4491 9 13.9991 9H17.5891L11.9991 14.59L5.10906 7.7C4.71906 7.31 4.08906 7.31 3.69906 7.7C3.31906 8.09 3.31906 8.73 3.69906 9.11Z" fill="black"/>
</g>
<defs>
<clipPath id="clip0_61_16605">
<rect width="24" height="24" fill="white"/>
</clipPath>
</defs>
</svg>
