<svg   viewBox="0 0 24 24" fill="none" xmlns="http://www.w3.org/2000/svg">
<g clip-path="url(#clip0_61_16601)">
<path d="M4.51077 15.4801L6.51077 13.8901C6.99077 13.5101 7.27077 12.9301 7.27077 12.3201V9.72011C10.2908 8.74011 13.5608 8.73011 16.5908 9.72011V12.3301C16.5908 12.9401 16.8708 13.5201 17.3508 13.9001L19.3408 15.4801C20.1408 16.1101 21.2808 16.0501 22.0008 15.3301L23.2208 14.1101C24.0208 13.3101 24.0208 11.9801 23.1708 11.2301C16.7608 5.57011 7.10077 5.57011 0.690767 11.2301C-0.159233 11.9801 -0.159233 13.3101 0.640767 14.1101L1.86077 15.3301C2.57077 16.0501 3.71077 16.1101 4.51077 15.4801V15.4801Z" fill="black"/>
</g>
<defs>
<clipPath id="clip0_61_16601">
<rect width="24" height="24" fill="white"/>
</clipPath>
</defs>
</svg>
