<svg   viewBox="0 0 24 24" fill="none" xmlns="http://www.w3.org/2000/svg">
<g clip-path="url(#clip0_61_16617)">
<path d="M0.308125 2.00002C-0.081875 2.39002 -0.081875 3.02002 0.308125 3.41002L0.998125 4.09002V16C0.998125 17.1 1.89813 18 2.99813 18H9.99813V20H8.99813C8.44813 20 7.99813 20.45 7.99813 21C7.99813 21.55 8.44813 22 8.99813 22H14.9981C15.5481 22 15.9981 21.55 15.9981 21C15.9981 20.45 15.5481 20 14.9981 20H13.9981V18H14.8981L20.1881 23.29C20.5781 23.68 21.2081 23.68 21.5981 23.29C21.9881 22.9 21.9881 22.27 21.5981 21.88L1.71812 2.00002C1.32812 1.61002 0.698125 1.61002 0.308125 2.00002ZM2.98813 15V6.09002L12.8981 16H3.98813C3.43813 16 2.98813 15.55 2.98813 15ZM4.54813 2.00002L6.54813 4.00002H19.9981C20.5481 4.00002 20.9981 4.45002 20.9981 5.00002V15C20.9981 15.55 20.5481 16 19.9981 16H18.5481L20.5481 18H20.9881C22.0881 18 22.9881 17.1 22.9881 16V4.00002C22.9881 2.90002 22.0881 2.00002 20.9881 2.00002H4.54813Z" fill="black"/>
</g>
<defs>
<clipPath id="clip0_61_16617">
<rect width="24" height="24" fill="white"/>
</clipPath>
</defs>
</svg>
