<svg   viewBox="0 0 24 24" fill="none" xmlns="http://www.w3.org/2000/svg">
<g clip-path="url(#clip0_61_16618)">
<path d="M16.4993 8C16.7793 8 16.9993 7.78 16.9993 7.5V3.5C16.9993 3.22 16.7793 3 16.4993 3C16.2193 3 15.9993 3.22 15.9993 3.5V7.5C15.9993 7.78 16.2193 8 16.4993 8ZM12.4993 7C12.2193 7 11.9993 7.22 11.9993 7.5C11.9993 7.78 12.2193 8 12.4993 8H14.4493C14.7493 8 14.9993 7.75 14.9993 7.45V5.55C14.9993 5.25 14.7493 5 14.4493 5H12.9993V4H14.4993C14.7793 4 14.9993 3.78 14.9993 3.5C14.9993 3.22 14.7793 3 14.4993 3H12.5493C12.2493 3 11.9993 3.25 11.9993 3.55V5.44C11.9993 5.75 12.2493 6 12.5493 6H13.9993V7H12.4993ZM20.4493 3H18.5593C18.2493 3 17.9993 3.25 17.9993 3.55V7.5C17.9993 7.78 18.2193 8 18.4993 8C18.7793 8 18.9993 7.78 18.9993 7.5V6H20.4493C20.7493 6 20.9993 5.75 20.9993 5.45V3.55C20.9993 3.25 20.7493 3 20.4493 3ZM19.9993 5H18.9993V4H19.9993V5ZM19.2093 15.27L16.6693 14.98C16.0593 14.91 15.4593 15.12 15.0293 15.55L13.1893 17.39C10.3593 15.95 8.0393 13.64 6.5993 10.8L8.4493 8.95C8.8793 8.52 9.0893 7.91 9.0193 7.31L8.7293 4.79C8.6193 3.78 7.7593 3.01 6.7493 3.01H5.0193C3.8893 3.01 2.9493 3.95 3.0193 5.08C3.5493 13.62 10.3793 20.44 18.9093 20.97C20.0393 21.04 20.9793 20.1 20.9793 18.97V17.24C20.9893 16.24 20.2193 15.38 19.2093 15.27V15.27Z" fill="black"/>
</g>
<defs>
<clipPath id="clip0_61_16618">
<rect width="24" height="24" fill="white"/>
</clipPath>
</defs>
</svg>
