<svg viewBox="0 0 24 24" xmlns="http://www.w3.org/2000/svg">
<g clip-path="url(#clip0_61_16621)">
<path d="M10.2309 15.8299C10.6209 16.2199 11.2509 16.2199 11.6409 15.8299L15.8809 11.5899C16.2709 11.1999 16.2709 10.5699 15.8809 10.1699C15.4909 9.77994 14.8609 9.77994 14.4709 10.1699L10.9309 13.6999L9.52095 12.2899C9.13095 11.8999 8.50095 11.8999 8.10095 12.2899C7.70095 12.6799 7.71095 13.3099 8.10095 13.6999L10.2309 15.8299Z"/>
<path d="M19 4H5C3.89 4 3 4.9 3 6V18C3 19.1 3.89 20 5 20H19C20.1 20 21 19.1 21 18V6C21 4.9 20.11 4 19 4ZM19 17C19 17.55 18.55 18 18 18H6C5.45 18 5 17.55 5 17V8H19V17Z"/>
</g>
<defs>
<clipPath id="clip0_61_16621">
<rect/>
</clipPath>
</defs>
</svg>
