<svg viewBox="0 0 24 24" xmlns="http://www.w3.org/2000/svg">
<g clip-path="url(#clip0_61_16620)">
<path d="M0.706562 2.39016C0.316563 2.78016 0.316563 3.41016 0.706562 3.80016L1.99656 5.10016V19.0002C1.99656 20.1002 2.89656 21.0002 3.99656 21.0002H17.8966L20.1866 23.2902C20.5766 23.6802 21.2066 23.6802 21.5966 23.2902C21.9866 22.9002 21.9866 22.2702 21.5966 21.8802L2.11656 2.39016C1.72656 2.00016 1.09656 2.00016 0.706562 2.39016ZM5.99656 19.0002H3.99656V17.0002H5.99656V19.0002ZM5.99656 15.0002H3.99656V13.0002H5.99656V15.0002ZM3.99656 11.0002V9.00016H5.99656V11.0002H3.99656ZM9.99656 19.0002H7.99656V17.0002H9.99656V19.0002ZM7.99656 15.0002V13.0002H9.99656V15.0002H7.99656ZM11.9966 19.0002V17.0002H13.8966L15.8966 19.0002H11.9966ZM7.99656 5.00016H9.99656V7.00016H9.54656L11.9966 9.45016V9.00016H18.9966C19.5466 9.00016 19.9966 9.45016 19.9966 10.0002V17.4502L21.9966 19.4502V9.00016C21.9966 7.90016 21.0966 7.00016 19.9966 7.00016H11.9966V5.00016C11.9966 3.90016 11.0966 3.00016 9.99656 3.00016H5.54656L7.99656 5.45016V5.00016ZM15.9966 11.0002H17.9966V13.0002H15.9966V11.0002Z"/>
</g>
<defs>
<clipPath id="clip0_61_16620">
<rect/>
</clipPath>
</defs>
</svg>
