<svg viewBox="0 0 24 24" xmlns="http://www.w3.org/2000/svg">
<g clip-path="url(#clip0_61_16629)">
<path d="M8.65247 3.35002L5.86247 6.14002C5.54247 6.45002 5.76247 6.99002 6.21247 6.99002H8.00247V13C8.00247 13.55 8.45247 14 9.00247 14C9.55247 14 10.0025 13.55 10.0025 13V6.99002H11.7925C12.2425 6.99002 12.4625 6.45002 12.1425 6.14002L9.35247 3.35002C9.16247 3.16002 8.84247 3.16002 8.65247 3.35002ZM16.0025 17.01V11C16.0025 10.45 15.5525 10 15.0025 10C14.4525 10 14.0025 10.45 14.0025 11V17.01H12.2125C11.7625 17.01 11.5425 17.55 11.8625 17.86L14.6525 20.64C14.8525 20.83 15.1625 20.83 15.3625 20.64L18.1525 17.86C18.4725 17.55 18.2425 17.01 17.8025 17.01H16.0025V17.01Z"/>
</g>
<defs>
<clipPath id="clip0_61_16629">
<rect/>
</clipPath>
</defs>
</svg>
