<svg   viewBox="0 0 24 24" fill="none" xmlns="http://www.w3.org/2000/svg">
<g clip-path="url(#clip0_61_16630)">
<path d="M12.0009 5.09977V9.14977L19.4009 16.5498C20.5509 13.6698 19.9909 10.2698 17.6509 7.93977L12.7109 2.98977C12.3209 2.59977 11.6909 2.59977 11.3009 2.98977L8.56094 5.70977L9.97094 7.11977L12.0009 5.09977ZM3.69094 5.07977C3.30094 5.46977 3.30094 6.09977 3.69094 6.48977L5.77094 8.56977C3.23094 11.7098 3.42094 16.3198 6.34094 19.2498C7.90094 20.7998 9.95094 21.5798 12.0009 21.5798C13.7809 21.5798 15.5609 20.9898 17.0209 19.8098L19.0209 21.8098C19.4109 22.1998 20.0409 22.1998 20.4309 21.8098C20.8209 21.4198 20.8209 20.7898 20.4309 20.3998L5.11094 5.07977C4.72094 4.68977 4.08094 4.68977 3.69094 5.07977V5.07977ZM12.0009 19.5898C10.4009 19.5898 8.89094 18.9698 7.76094 17.8298C6.62094 16.6898 6.00094 15.1898 6.00094 13.5898C6.00094 12.2698 6.43094 11.0298 7.21094 9.99977L12.0009 14.7898V19.5898Z" fill="black"/>
</g>
<defs>
<clipPath id="clip0_61_16630">
<rect width="24" height="24" fill="white"/>
</clipPath>
</defs>
</svg>
