<svg viewBox="0 0 24 24" xmlns="http://www.w3.org/2000/svg">
<g clip-path="url(#clip0_61_16633)">
<path d="M2.70656 3.56C2.31656 3.95 2.31656 4.58 2.70656 4.97L5.17656 7.44C5.06656 7.95 4.99656 8.47 4.99656 9C4.99656 13.17 9.41656 18.92 11.2266 21.11C11.6266 21.59 12.3566 21.59 12.7566 21.11C13.4066 20.33 14.3766 19.1 15.3666 17.65L18.0166 20.3C18.4066 20.69 19.0366 20.69 19.4266 20.3C19.8166 19.91 19.8166 19.28 19.4266 18.89L4.11656 3.56C3.72656 3.17 3.09656 3.17 2.70656 3.56ZM11.9966 2C10.1566 2 8.49656 2.71 7.24656 3.86L10.4366 7.05C10.8666 6.71 11.4066 6.5 11.9966 6.5C13.3766 6.5 14.4966 7.62 14.4966 9C14.4966 9.59 14.2866 10.13 13.9366 10.56L17.4866 14.11C18.3666 12.36 18.9966 10.57 18.9966 9C18.9966 5.13 15.8666 2 11.9966 2Z"/>
</g>
<defs>
<clipPath id="clip0_61_16633">
<rect/>
</clipPath>
</defs>
</svg>
