<svg   viewBox="0 0 24 24" fill="none" xmlns="http://www.w3.org/2000/svg">
<g clip-path="url(#clip0_61_16641)">
<path d="M16.9978 1H6.99781C5.89781 1 5.00781 1.9 5.00781 3V21C5.00781 22.1 5.89781 23 6.99781 23H16.9978C18.0978 23 18.9978 22.1 18.9978 21V3C18.9978 1.9 18.0978 1 16.9978 1ZM16.9978 19H6.99781V5H16.9978V19ZM12.7978 13.22V14.97L15.6078 12.35C15.8178 12.15 15.8178 11.82 15.6078 11.62L12.7978 9V10.7C9.68781 11.13 8.44781 13.26 7.99781 15.4C9.10781 13.9 10.5778 13.22 12.7978 13.22Z" fill="black"/>
</g>
<defs>
<clipPath id="clip0_61_16641">
<rect width="24" height="24" fill="white"/>
</clipPath>
</defs>
</svg>
