<svg   viewBox="0 0 24 24" fill="none" xmlns="http://www.w3.org/2000/svg">
<g clip-path="url(#clip0_61_16644)">
<path d="M3.08937 4.44C2.69938 4.83 2.69938 5.46 3.08937 5.85L5.11937 7.88L4.99938 8.01V19C4.99938 20.1 5.89937 21 6.99937 21H16.9994C17.3494 21 17.6794 20.9 17.9694 20.74L19.1394 21.91C19.5294 22.3 20.1594 22.3 20.5494 21.91C20.9394 21.52 20.9394 20.89 20.5494 20.5L4.49938 4.44C4.10938 4.05 3.47937 4.05 3.08937 4.44ZM18.9994 16.11V5C18.9994 3.9 18.0994 3 16.9994 3H10.0094L7.94937 5.06L18.9994 16.11Z" fill="black"/>
</g>
<defs>
<clipPath id="clip0_61_16644">
<rect width="24" height="24" fill="white"/>
</clipPath>
</defs>
</svg>
