<svg   viewBox="0 0 24 24" fill="none" xmlns="http://www.w3.org/2000/svg">
<g clip-path="url(#clip0_61_16646)">
<path d="M14.4766 11.9499C14.6466 11.9699 14.8166 11.9999 14.9966 11.9999C17.2066 11.9999 18.9966 10.2099 18.9966 7.99994C18.9966 5.78994 17.2066 3.99994 14.9966 3.99994C12.7866 3.99994 10.9966 5.78994 10.9966 7.99994C10.9966 8.17994 11.0266 8.34994 11.0466 8.51994L14.4766 11.9499ZM16.6866 14.1599L22.4266 19.8999C22.7566 19.7299 22.9966 19.3999 22.9966 18.9999V17.9999C22.9966 15.8599 19.4366 14.4999 16.6866 14.1599ZM2.11656 2.41994C1.72656 2.02994 1.09656 2.02994 0.706562 2.41994C0.316563 2.80994 0.316563 3.43994 0.706562 3.82994L3.99656 7.11994V9.99994H1.99656C1.44656 9.99994 0.996562 10.4499 0.996562 10.9999C0.996562 11.5499 1.44656 11.9999 1.99656 11.9999H3.99656V13.9999C3.99656 14.5499 4.44656 14.9999 4.99656 14.9999C5.54656 14.9999 5.99656 14.5499 5.99656 13.9999V11.9999H8.87656L11.3866 14.5099C9.18656 15.1099 6.99656 16.2999 6.99656 17.9999V18.9999C6.99656 19.5499 7.44656 19.9999 7.99656 19.9999H16.8766L20.1666 23.2899C20.5566 23.6799 21.1866 23.6799 21.5766 23.2899C21.9666 22.8999 21.9666 22.2699 21.5766 21.8799L2.11656 2.41994ZM5.99656 9.99994V9.11994L6.87656 9.99994H5.99656Z" fill="black"/>
</g>
<defs>
<clipPath id="clip0_61_16646">
<rect width="24" height="24" fill="white"/>
</clipPath>
</defs>
</svg>
