<svg viewBox="0 0 24 24" xmlns="http://www.w3.org/2000/svg">
<g clip-path="url(#clip0_61_16647)">
<path d="M10 12C12.2091 12 14 10.2091 14 8C14 5.79086 12.2091 4 10 4C7.79086 4 6 5.79086 6 8C6 10.2091 7.79086 12 10 12Z"/>
<path d="M10.35 14.01C7.62 13.91 2 15.27 2 18V19C2 19.55 2.45 20 3 20H11.54C9.07 17.24 10.31 14.11 10.35 14.01Z"/>
<path d="M19.4286 18.02C19.8986 17.22 20.1286 16.25 19.9086 15.2C19.5686 13.56 18.1887 12.25 16.5287 12.04C13.8987 11.7 11.6786 13.91 12.0286 16.54C12.2486 18.2 13.5486 19.58 15.1886 19.92C16.2386 20.14 17.2086 19.91 18.0086 19.44L19.8687 21.3C20.2587 21.69 20.8887 21.69 21.2787 21.3C21.6687 20.91 21.6687 20.28 21.2787 19.89L19.4286 18.02ZM15.9986 18C14.8986 18 13.9986 17.1 13.9986 16C13.9986 14.9 14.8986 14 15.9986 14C17.0986 14 17.9986 14.9 17.9986 16C17.9986 17.1 17.0986 18 15.9986 18Z"/>
</g>
<defs>
<clipPath id="clip0_61_16647">
<rect/>
</clipPath>
</defs>
</svg>
