<svg viewBox="0 0 24 24" xmlns="http://www.w3.org/2000/svg">
<g clip-path="url(#clip0_61_16648)">
<path d="M19.2271 15.2598L16.6871 14.9698C16.0771 14.8998 15.4771 15.1098 15.0471 15.5398L13.2071 17.3798C10.3771 15.9398 8.05711 13.6298 6.61711 10.7898L8.46711 8.93976C8.89711 8.50976 9.10711 7.90977 9.03711 7.29977L8.74711 4.77977C8.62711 3.76977 7.77711 3.00977 6.75711 3.00977H5.02711C3.89711 3.00977 2.95711 3.94977 3.02711 5.07977C3.55711 13.6198 10.3871 20.4398 18.9171 20.9698C20.0471 21.0398 20.9871 20.0998 20.9871 18.9698V17.2398C20.9971 16.2298 20.2371 15.3798 19.2271 15.2598V15.2598Z"/>
</g>
<defs>
<clipPath id="clip0_61_16648">
<rect/>
</clipPath>
</defs>
</svg>
