<svg   viewBox="0 0 24 24" fill="none" xmlns="http://www.w3.org/2000/svg">
<g clip-path="url(#clip0_61_16649)">
<path d="M12.4991 7.7C12.2191 7.42 11.7791 7.42 11.4991 7.7L7.99906 11.2L4.49906 7.7C4.21906 7.42 3.77906 7.42 3.49906 7.7C3.21906 7.98 3.21906 8.42 3.49906 8.7L6.99906 12.2L3.49906 15.7C3.21906 15.98 3.21906 16.42 3.49906 16.7C3.77906 16.98 4.21906 16.98 4.49906 16.7L7.99906 13.2L11.4991 16.7C11.7791 16.98 12.2191 16.98 12.4991 16.7C12.7791 16.42 12.7791 15.98 12.4991 15.7L8.99906 12.2L12.4991 8.7C12.7791 8.42 12.7791 7.98 12.4991 7.7V7.7ZM18.9991 1H8.99906C7.89906 1 6.99906 1.9 6.99906 3V5C6.99906 5.55 7.44906 6 7.99906 6C8.54906 6 8.99906 5.55 8.99906 5V4H18.9991V20H8.99906V19C8.99906 18.45 8.54906 18 7.99906 18C7.44906 18 6.99906 18.45 6.99906 19V21C6.99906 22.1 7.89906 23 8.99906 23H18.9991C20.0991 23 20.9991 22.1 20.9991 21V3C20.9991 1.9 20.0991 1 18.9991 1Z" fill="black"/>
</g>
<defs>
<clipPath id="clip0_61_16649">
<rect width="24" height="24" fill="white"/>
</clipPath>
</defs>
</svg>
