<svg viewBox="0 0 24 24" xmlns="http://www.w3.org/2000/svg">
<g clip-path="url(#clip0_61_16652)">
<path d="M7.00241 3V5C7.00241 5.55 7.45241 6 8.00241 6C8.55241 6 9.00241 5.55 9.00241 5V4H19.0024V20H9.00241V19C9.00241 18.45 8.55241 18 8.00241 18C7.45241 18 7.00241 18.45 7.00241 19V21C7.00241 22.1 7.90241 23 9.00241 23H19.0024C20.1024 23 21.0024 22.1 21.0024 21V3C21.0024 1.9 20.1024 1 19.0024 1H9.00241C7.90241 1 7.00241 1.9 7.00241 3ZM9.50241 15.5C9.79241 15.38 10.0524 15.21 10.3024 15.02L10.2824 15.05L11.2924 15.44C11.5224 15.53 11.7824 15.44 11.9024 15.22L12.7424 13.76C12.8624 13.55 12.8124 13.27 12.6224 13.12L11.7724 12.44L11.7524 12.47C11.7724 12.31 11.8024 12.15 11.8024 11.99C11.8024 11.83 11.7724 11.67 11.7524 11.51L11.7724 11.54L12.6224 10.86C12.8124 10.71 12.8624 10.43 12.7424 10.22L11.9024 8.76C11.7824 8.55 11.5224 8.45 11.2924 8.54L10.2824 8.93L10.3024 8.96C10.0524 8.79 9.79241 8.62 9.50241 8.5L9.33241 7.42C9.30241 7.18 9.09241 7 8.84241 7H7.16241C6.91241 7 6.70241 7.18 6.67241 7.42L6.50241 8.5C6.21241 8.62 5.95241 8.79 5.70241 8.98L5.72241 8.95L4.70241 8.56C4.47241 8.47 4.21241 8.56 4.09241 8.78L3.25241 10.24C3.13241 10.45 3.18241 10.73 3.37241 10.88L4.22241 11.56L4.24241 11.53C4.22241 11.68 4.19241 11.84 4.19241 12C4.19241 12.16 4.22241 12.32 4.24241 12.48L4.22241 12.45L3.37241 13.13C3.18241 13.28 3.13241 13.56 3.25241 13.77L4.09241 15.23C4.21241 15.44 4.47241 15.54 4.70241 15.45L5.71241 15.06L5.70241 15.02C5.95241 15.21 6.21241 15.38 6.50241 15.5L6.67241 16.57C6.70241 16.82 6.91241 17 7.16241 17H8.84241C9.09241 17 9.30241 16.82 9.33241 16.58L9.50241 15.5V15.5ZM6.00241 12C6.00241 10.9 6.90241 10 8.00241 10C9.10241 10 10.0024 10.9 10.0024 12C10.0024 13.1 9.10241 14 8.00241 14C6.90241 14 6.00241 13.1 6.00241 12Z"/>
</g>
<defs>
<clipPath id="clip0_61_16652">
<rect/>
</clipPath>
</defs>
</svg>
