<svg   viewBox="0 0 24 24" fill="none" xmlns="http://www.w3.org/2000/svg">
<g clip-path="url(#clip0_61_16653)">
<path d="M14.5372 17.37C11.9072 19.45 8.64719 20.76 5.08719 20.98C3.95719 21.05 3.01719 20.11 3.01719 18.98V17.25C3.00719 16.24 3.76719 15.39 4.77719 15.27L7.31719 14.98C7.92719 14.91 8.52719 15.12 8.95719 15.55L10.7972 17.39C11.6072 16.98 12.3872 16.49 13.1072 15.94L2.09719 4.93002C1.70719 4.54002 1.70719 3.91002 2.09719 3.52002C2.48719 3.13002 3.12719 3.13002 3.51719 3.52002L20.4872 20.5C20.8772 20.89 20.8772 21.52 20.4872 21.91C20.0972 22.3 19.4672 22.3 19.0772 21.91L14.5372 17.37ZM17.3872 10.8L15.5372 8.95002C15.1072 8.52002 14.8972 7.92002 14.9672 7.31002L15.2572 4.79002C15.3772 3.78002 16.2272 3.02002 17.2472 3.02002H18.9772C20.1072 3.02002 21.0472 3.96002 20.9772 5.09002C20.7572 8.66002 19.4372 11.92 17.3572 14.56L15.9272 13.13C16.4772 12.4 16.9672 11.62 17.3872 10.8Z" fill="black"/>
</g>
<defs>
<clipPath id="clip0_61_16653">
<rect width="24" height="24" fill="white"/>
</clipPath>
</defs>
</svg>
