<svg viewBox="0 0 24 24" xmlns="http://www.w3.org/2000/svg">
<g clip-path="url(#clip0_61_16654)">
<path d="M4.78354 15.27L7.32354 14.98C7.93354 14.91 8.53354 15.12 8.96354 15.55L10.8035 17.39C13.6335 15.95 15.9535 13.64 17.3935 10.8L15.5435 8.95002C15.1135 8.52002 14.9035 7.92002 14.9735 7.31002L15.2635 4.79002C15.3835 3.78002 16.2335 3.02002 17.2535 3.02002H18.9835C20.1135 3.02002 21.0535 3.96002 20.9835 5.09002C20.4535 13.63 13.6235 20.45 5.09354 20.98C3.96354 21.05 3.02354 20.11 3.02354 18.98V17.25C3.01354 16.24 3.77354 15.39 4.78354 15.27Z"/>
</g>
<defs>
<clipPath id="clip0_61_16654">
<rect/>
</clipPath>
</defs>
</svg>
