<svg   viewBox="0 0 24 24" fill="none" xmlns="http://www.w3.org/2000/svg">
<g clip-path="url(#clip0_61_16657)">
<path d="M2.11656 2.31984C1.72656 1.92984 1.09656 1.92984 0.706562 2.31984C0.316563 2.70984 0.316563 3.33984 0.706562 3.72984L4.97656 7.99984C3.32656 8.00984 1.99656 9.34984 1.99656 10.9998V14.9998C1.99656 16.0998 2.89656 16.9998 3.99656 16.9998H5.99656V18.9998C5.99656 20.0998 6.89656 20.9998 7.99656 20.9998H15.9966C16.5466 20.9998 17.0366 20.7798 17.3966 20.4198L20.2266 23.2498C20.6166 23.6398 21.2466 23.6398 21.6366 23.2498C22.0266 22.8598 22.0266 22.2298 21.6366 21.8398L2.11656 2.31984ZM14.9966 18.9998H8.99656C8.44656 18.9998 7.99656 18.5498 7.99656 17.9998V13.9998H10.9766L15.6966 18.7198C15.5066 18.8898 15.2666 18.9998 14.9966 18.9998ZM18.9966 7.99984H10.6266L19.6266 16.9998H19.9966C21.0966 16.9998 21.9966 16.0998 21.9966 14.9998V10.9998C21.9966 9.33984 20.6566 7.99984 18.9966 7.99984ZM18.9966 11.9998C18.4466 11.9998 17.9966 11.5498 17.9966 10.9998C17.9966 10.4498 18.4466 9.99984 18.9966 9.99984C19.5466 9.99984 19.9966 10.4498 19.9966 10.9998C19.9966 11.5498 19.5466 11.9998 18.9966 11.9998ZM16.9966 6.99984C17.5466 6.99984 17.9966 6.54984 17.9966 5.99984V3.99984C17.9966 3.44984 17.5466 2.99984 16.9966 2.99984H6.99656C6.62656 2.99984 6.31656 3.20984 6.14656 3.50984L9.62656 6.99984H16.9966Z" fill="black"/>
</g>
<defs>
<clipPath id="clip0_61_16657">
<rect width="24" height="24" fill="white"/>
</clipPath>
</defs>
</svg>
