<svg   viewBox="0 0 24 24" fill="none" xmlns="http://www.w3.org/2000/svg">
<g clip-path="url(#clip0_61_16661)">
<path d="M11.978 7H12.008C12.558 7 12.998 6.56 12.998 6.02V2.98C12.998 2.44 12.558 2 12.018 2H11.988C11.438 2 10.998 2.44 10.998 2.98V6.01C10.998 6.56 11.438 7 11.978 7ZM16.898 9.11C17.288 9.5 17.908 9.5 18.298 9.11C18.918 8.48 19.818 7.57 20.448 6.94C20.838 6.56 20.838 5.93 20.448 5.55C20.068 5.17 19.438 5.17 19.058 5.55L16.888 7.7C16.498 8.08 16.498 8.71 16.888 9.09L16.898 9.11V9.11ZM5.70795 9.1C6.08795 9.49 6.71795 9.49 7.10795 9.1C7.48795 8.72 7.48795 8.09 7.10795 7.71L4.95795 5.54C4.57795 5.15 3.94795 5.15 3.56795 5.54L3.54795 5.55C3.15795 5.94 3.15795 6.56 3.54795 6.94C4.17795 7.56 5.08795 8.47 5.70795 9.1V9.1ZM23.288 16.23C16.878 10.57 7.21795 10.57 0.807955 16.23C-0.0420454 16.98 -0.0420454 18.31 0.757955 19.11L1.97795 20.33C2.69795 21.05 3.83795 21.11 4.63795 20.48L6.63795 18.89C7.11795 18.51 7.39795 17.93 7.39795 17.32V14.72C10.418 13.74 13.688 13.73 16.718 14.72V17.33C16.718 17.94 16.998 18.52 17.478 18.9L19.468 20.48C20.268 21.11 21.408 21.05 22.128 20.33L23.348 19.11C24.138 18.31 24.138 16.98 23.288 16.23Z" fill="black"/>
</g>
<defs>
<clipPath id="clip0_61_16661">
<rect width="24" height="24" fill="white"/>
</clipPath>
</defs>
</svg>
