<svg   viewBox="0 0 24 24" fill="none" xmlns="http://www.w3.org/2000/svg">
<g clip-path="url(#clip0_61_16662)">
<path d="M6.18 20.0001C7.38398 20.0001 8.36 19.0241 8.36 17.8201C8.36 16.6162 7.38398 15.6401 6.18 15.6401C4.97602 15.6401 4 16.6162 4 17.8201C4 19.0241 4.97602 20.0001 6.18 20.0001Z" fill="black"/>
<path d="M5.59 10.2298C4.75 10.0898 4 10.7798 4 11.6298C4 12.3398 4.53 12.9098 5.23 13.0298C8.15 13.5398 10.45 15.8498 10.97 18.7698C11.09 19.4698 11.66 19.9998 12.37 19.9998C13.22 19.9998 13.91 19.2498 13.78 18.4098C13.1 14.2098 9.79 10.8998 5.59 10.2298V10.2298ZM5.56 4.51984C4.73 4.42984 4 5.09984 4 5.92984C4 6.65984 4.55 7.25984 5.27 7.32984C11.28 7.92984 16.06 12.7098 16.66 18.7198C16.73 19.4498 17.33 19.9998 18.06 19.9998C18.9 19.9998 19.56 19.2698 19.48 18.4398C18.75 11.0998 12.91 5.24984 5.56 4.51984V4.51984Z" fill="black"/>
</g>
<defs>
<clipPath id="clip0_61_16662">
<rect width="24" height="24" fill="white"/>
</clipPath>
</defs>
</svg>
