<svg   viewBox="0 0 24 24" fill="none" xmlns="http://www.w3.org/2000/svg">
<g clip-path="url(#clip0_61_16665)">
<path d="M7.75865 7.83L7.77865 7.85C8.12865 8.2 8.66865 8.23 9.07865 7.94C9.90865 7.37 10.9187 7.02 11.9987 7.02C13.0787 7.02 14.0887 7.37 14.9187 7.95C15.3187 8.24 15.8687 8.21 16.2187 7.86L16.2387 7.84C16.6587 7.42 16.6287 6.7 16.1487 6.35C14.9787 5.5 13.5487 5 11.9987 5C10.4487 5 9.01865 5.5 7.85865 6.34C7.36865 6.69 7.33865 7.41 7.75865 7.83V7.83ZM11.9987 1C9.37865 1 6.96865 1.93 5.07865 3.47C4.61865 3.84 4.56865 4.53 4.99865 4.96C5.35865 5.32 5.92865 5.35 6.31865 5.03C7.85865 3.76 9.84865 3 11.9987 3C14.1487 3 16.1387 3.76 17.6887 5.03C18.0787 5.35 18.6487 5.32 19.0087 4.96C19.4287 4.54 19.3887 3.85 18.9287 3.47C17.0287 1.93 14.6187 1 11.9987 1ZM14.8587 10.01L9.13865 10C8.50865 10 7.99865 10.51 7.99865 11.14V20.85C7.99865 21.48 8.50865 21.99 9.13865 21.99H14.8487C15.4787 21.99 15.9887 21.48 15.9887 20.85V11.14C15.9987 10.51 15.4887 10.01 14.8587 10.01V10.01ZM14.9987 20H8.99865V12H14.9987V20Z" fill="black"/>
</g>
<defs>
<clipPath id="clip0_61_16665">
<rect width="24" height="24" fill="white"/>
</clipPath>
</defs>
</svg>
