<svg   viewBox="0 0 24 24" fill="none" xmlns="http://www.w3.org/2000/svg">
<g clip-path="url(#clip0_61_16671)">
<path d="M17.6525 4.35015L14.8625 7.14015C14.5425 7.46015 14.7625 8.00015 15.2125 8.00015H17.0025V14.8801C17.0025 15.8801 16.3325 16.8101 15.3425 16.9701C14.0925 17.1801 13.0025 16.2101 13.0025 15.0001V8.17015C13.0025 6.08015 11.4725 4.22015 9.39247 4.02015C7.01247 3.79015 5.00247 5.66015 5.00247 8.00015V15.0001H3.21247C2.76247 15.0001 2.54247 15.5401 2.86247 15.8501L5.65247 18.6401C5.85247 18.8401 6.16247 18.8401 6.36247 18.6401L9.15247 15.8501C9.46247 15.5401 9.24247 15.0001 8.79247 15.0001H7.00247V8.12015C7.00247 7.12015 7.67247 6.19015 8.66247 6.03015C9.91247 5.82015 11.0025 6.79015 11.0025 8.00015V14.8301C11.0025 16.9201 12.5325 18.7801 14.6125 18.9801C16.9925 19.2101 19.0025 17.3401 19.0025 15.0001V8.00015H20.7925C21.2425 8.00015 21.4625 7.46015 21.1425 7.15015L18.3525 4.36015C18.1625 4.16015 17.8425 4.16015 17.6525 4.35015V4.35015Z" fill="black"/>
</g>
<defs>
<clipPath id="clip0_61_16671">
<rect width="24" height="24" fill="white"/>
</clipPath>
</defs>
</svg>
