<svg   viewBox="0 0 24 24" fill="none" xmlns="http://www.w3.org/2000/svg">
<g clip-path="url(#clip0_61_16675)">
<path d="M12.6482 10.0001C11.6982 7.31012 8.89823 5.50012 5.76823 6.12012C3.47823 6.58012 1.61823 8.41012 1.13823 10.7001C0.318231 14.5701 3.25823 18.0001 6.99823 18.0001C9.60823 18.0001 11.8282 16.3301 12.6482 14.0001H16.9982V16.0001C16.9982 17.1001 17.8982 18.0001 18.9982 18.0001C20.0982 18.0001 20.9982 17.1001 20.9982 16.0001V14.0001C22.0982 14.0001 22.9982 13.1001 22.9982 12.0001C22.9982 10.9001 22.0982 10.0001 20.9982 10.0001H12.6482ZM6.99823 14.0001C5.89823 14.0001 4.99823 13.1001 4.99823 12.0001C4.99823 10.9001 5.89823 10.0001 6.99823 10.0001C8.09823 10.0001 8.99823 10.9001 8.99823 12.0001C8.99823 13.1001 8.09823 14.0001 6.99823 14.0001Z" fill="black"/>
</g>
<defs>
<clipPath id="clip0_61_16675">
<rect width="24" height="24" fill="white"/>
</clipPath>
</defs>
</svg>
