<svg viewBox="0 0 24 24" xmlns="http://www.w3.org/2000/svg">
<g clip-path="url(#clip0_61_16676)">
<path d="M22 4.95C21.79 4.78 19.67 3 16.5 3C13.32 3 11.21 4.78 11 4.95L16.5 12L22 4.95Z"/>
<path d="M19.2037 15.2798L16.6637 14.9898C16.0537 14.9198 15.4537 15.1298 15.0237 15.5598L13.1837 17.3998C10.3537 15.9598 8.03367 13.6498 6.59367 10.8098L8.44367 8.95979C8.87367 8.52979 9.08367 7.91979 9.01367 7.31979L8.72367 4.79979C8.60367 3.78979 7.75367 3.02979 6.73367 3.02979H5.00367C3.87367 3.02979 2.93367 3.96979 3.00367 5.09979C3.53367 13.6398 10.3637 20.4698 18.9037 20.9998C20.0337 21.0698 20.9737 20.1298 20.9737 18.9998V17.2698C20.9737 16.2498 20.2137 15.3998 19.2037 15.2798Z"/>
</g>
<defs>
<clipPath id="clip0_61_16676">
<rect/>
</clipPath>
</defs>
</svg>
