<svg   viewBox="0 0 32 32" fill="none" xmlns="http://www.w3.org/2000/svg">
<path d="M6.17157 11.8284C5.42143 11.0783 5 10.0609 5 9C5 7.93913 5.42143 6.92172 6.17157 6.17157C6.92172 5.42143 7.93913 5 9 5C10.0609 5 11.0783 5.42143 11.8284 6.17157L25.8284 20.1716C26.5786 20.9217 27 21.9391 27 23C27 24.0609 26.5786 25.0783 25.8284 25.8284C25.0783 26.5786 24.0609 27 23 27C21.9391 27 20.9217 26.5786 20.1716 25.8284L6.17157 11.8284Z" stroke="black" stroke-width="2" stroke-linecap="round" stroke-linejoin="round"/>
<path d="M20.1716 6.17157C20.9217 5.42143 21.9391 5 23 5C23.5253 5 24.0454 5.10346 24.5307 5.30448C25.016 5.5055 25.457 5.80014 25.8284 6.17157C26.1999 6.54301 26.4945 6.98396 26.6955 7.46927C26.8965 7.95457 27 8.47471 27 9C27 9.52529 26.8965 10.0454 26.6955 10.5307C26.4945 11.016 26.1999 11.457 25.8284 11.8284L11.8284 25.8284C11.457 26.1999 11.016 26.4945 10.5307 26.6955C10.0454 26.8965 9.52529 27 9 27C8.47471 27 7.95457 26.8965 7.46927 26.6955C6.98396 26.4945 6.54301 26.1999 6.17157 25.8284C5.42143 25.0783 5 24.0609 5 23C5 21.9391 5.42143 20.9217 6.17157 20.1716L20.1716 6.17157Z" stroke="black" stroke-width="2" stroke-linecap="round" stroke-linejoin="round"/>
<path opacity="0.5" d="M16 16.5C16.2761 16.5 16.5 16.2761 16.5 16C16.5 15.7239 16.2761 15.5 16 15.5C15.7239 15.5 15.5 15.7239 15.5 16C15.5 16.2761 15.7239 16.5 16 16.5Z" stroke="black" stroke-width="2" stroke-linecap="round" stroke-linejoin="round"/>
<path d="M16 17.5C16.8284 17.5 17.5 16.8284 17.5 16C17.5 15.1716 16.8284 14.5 16 14.5C15.1716 14.5 14.5 15.1716 14.5 16C14.5 16.8284 15.1716 17.5 16 17.5Z" fill="black"/>
</svg>
