<svg   viewBox="0 0 32 32" fill="none" xmlns="http://www.w3.org/2000/svg">
<path d="M16 22V10" stroke="black" stroke-width="2" stroke-linecap="round" stroke-linejoin="round"/>
<path d="M11 18C11.9889 18 12.9556 18.2932 13.7779 18.8427C14.6001 19.3921 15.241 20.173 15.6194 21.0866C15.9978 22.0002 16.0969 23.0055 15.9039 23.9755C15.711 24.9454 15.2348 25.8363 14.5355 26.5355C13.8363 27.2348 12.9454 27.711 11.9755 27.9039C11.0055 28.0969 10.0002 27.9978 9.08658 27.6194C8.17295 27.241 7.39206 26.6001 6.84265 25.7779C6.29324 24.9556 6 23.9889 6 23V22.1583" stroke="black" stroke-width="2" stroke-linecap="round" stroke-linejoin="round"/>
<path d="M21 18C20.0111 18 19.0444 18.2932 18.2222 18.8427C17.3999 19.3921 16.759 20.173 16.3806 21.0866C16.0022 22.0002 15.9031 23.0055 16.0961 23.9755C16.289 24.9454 16.7652 25.8363 17.4645 26.5355C18.1637 27.2348 19.0546 27.711 20.0246 27.9039C20.9945 28.0969 21.9998 27.9978 22.9134 27.6194C23.8271 27.241 24.6079 26.6001 25.1574 25.7779C25.7068 24.9556 26 23.9889 26 23V22.1585" stroke="black" stroke-width="2" stroke-linecap="round" stroke-linejoin="round"/>
<path d="M9.00001 22.5H8.00001C6.58456 22.4998 5.21474 21.9992 4.13263 21.0868C3.05051 20.1743 2.32575 18.9087 2.08642 17.5137C1.84709 16.1186 2.10858 14.6838 2.82471 13.4629C3.54083 12.242 4.66548 11.3134 5.99992 10.8414L6.00001 9C6.00001 7.67392 6.5268 6.40215 7.46448 5.46447C8.40216 4.52678 9.67393 4 11 4C12.3261 4 13.5979 4.52678 14.5355 5.46447C15.4732 6.40215 16 7.67392 16 9V23" stroke="black" stroke-width="2" stroke-linecap="round" stroke-linejoin="round"/>
<path d="M23 22.5H24C25.4155 22.4998 26.7853 21.9992 27.8674 21.0868C28.9495 20.1743 29.6743 18.9087 29.9136 17.5137C30.1529 16.1186 29.8914 14.6838 29.1753 13.4629C28.4592 12.242 27.3345 11.3134 26.0001 10.8414L26 9C26 7.67392 25.4732 6.40215 24.5355 5.46447C23.5979 4.52678 22.3261 4 21 4C19.6739 4 18.4021 4.52678 17.4645 5.46447C16.5268 6.40215 16 7.67392 16 9" stroke="black" stroke-width="2" stroke-linecap="round" stroke-linejoin="round"/>
<path d="M11 10.5V11.5C11 12.4283 10.6313 13.3185 9.97487 13.9749C9.3185 14.6313 8.42826 15 7.5 15" stroke="black" stroke-width="2" stroke-linecap="round" stroke-linejoin="round"/>
<path d="M21 10.5V11.5C21 12.4283 21.3687 13.3185 22.0251 13.9749C22.6815 14.6313 23.5717 15 24.5 15" stroke="black" stroke-width="2" stroke-linecap="round" stroke-linejoin="round"/>
</svg>
