<svg   viewBox="0 0 32 32" fill="none" xmlns="http://www.w3.org/2000/svg">
<path d="M27 16.9999C27 23.438 17.695 25.6466 16.2013 25.9597C16.0685 25.9877 15.9315 25.9877 15.7988 25.9597C14.305 25.6466 5 23.438 5 16.9999V9.70033C5 9.49506 5.06317 9.29476 5.18093 9.12663C5.2987 8.9585 5.46535 8.83068 5.65826 8.76053L15.6583 5.12417C15.879 5.0439 16.121 5.0439 16.3417 5.12417L26.3417 8.76053C26.5347 8.83068 26.7013 8.9585 26.8191 9.12663C26.9368 9.29476 27 9.49506 27 9.70033V16.9999Z" stroke="black" stroke-width="2" stroke-linecap="round" stroke-linejoin="round"/>
<path d="M11 14H21" stroke="black" stroke-width="2" stroke-linecap="round" stroke-linejoin="round"/>
<path d="M11 18H21" stroke="black" stroke-width="2" stroke-linecap="round" stroke-linejoin="round"/>
<path d="M26.6797 19H28.0035C28.7991 19 29.5622 18.6839 30.1248 18.1213C30.6874 17.5587 31.0035 16.7956 31.0035 16V13C31.0035 12.2044 30.6874 11.4413 30.1248 10.8787C29.5622 10.3161 28.7991 10 28.0035 10H27.0035" stroke="black" stroke-width="2" stroke-linecap="round" stroke-linejoin="round"/>
<path d="M5.3239 19H4C3.20435 19 2.44129 18.6839 1.87868 18.1213C1.31607 17.5587 1 16.7956 1 16V13C1 12.2044 1.31607 11.4413 1.87868 10.8787C2.44129 10.3161 3.20435 10 4 10H5" stroke="black" stroke-width="2" stroke-linecap="round" stroke-linejoin="round"/>
</svg>
