<svg viewBox="0 0 32 32" xmlns="http://www.w3.org/2000/svg">
<path d="M12.9994 4V11.723C12.9994 11.9043 12.9502 12.0821 12.8569 12.2375L4.90813 25.4855C4.81709 25.6372 4.76794 25.8104 4.7657 25.9874C4.76347 26.1643 4.80824 26.3387 4.89542 26.4927C4.98261 26.6467 5.10911 26.7748 5.26199 26.8639C5.41487 26.953 5.58866 27 5.76563 27H26.2333C26.4102 27 26.584 26.953 26.7369 26.8639C26.8898 26.7748 27.0163 26.6467 27.1035 26.4927C27.1906 26.3387 27.2354 26.1643 27.2332 25.9874C27.2309 25.8104 27.1818 25.6372 27.0907 25.4855L19.1419 12.2375C19.0487 12.0821 18.9994 11.9043 18.9994 11.723V4" stroke-width="2" stroke-linecap="round" stroke-linejoin="round"/>
<path d="M11 4H21" stroke-width="2" stroke-linecap="round" stroke-linejoin="round"/>
<path d="M7.82812 20.6206C9.3061 19.5433 11.8432 18.9211 16.001 21C20.4641 23.2315 23.0597 22.3507 24.4825 21.1357" stroke-width="2" stroke-linecap="round" stroke-linejoin="round"/>
</svg>
