<svg   viewBox="0 0 32 32" fill="none" xmlns="http://www.w3.org/2000/svg">
<path d="M26.0024 12.5L11.7524 26.75C11.3257 27.1768 10.819 27.5154 10.2613 27.7463C9.7037 27.9773 9.10603 28.0962 8.50245 28.0962C7.89887 28.0962 7.3012 27.9773 6.74356 27.7463C6.18592 27.5154 5.67924 27.1768 5.25245 26.75V26.75C4.82565 26.3232 4.4871 25.8165 4.25612 25.2589C4.02513 24.7013 3.90625 24.1036 3.90625 23.5C3.90625 22.8964 4.02513 22.2987 4.25612 21.7411C4.4871 21.1835 4.82565 20.6768 5.25245 20.25L21.5024 4L29.0024 11.5L26.0024 12.5Z" stroke="black" stroke-width="2" stroke-linecap="round" stroke-linejoin="round"/>
<path d="M8.5 17C8.5 17 11 15 15 17C19 19 21.5 17 21.5 17" stroke="black" stroke-width="2" stroke-linecap="round" stroke-linejoin="round"/>
</svg>
