<svg viewBox="0 0 32 32" xmlns="http://www.w3.org/2000/svg">
<path d="M8 16.5C8.82843 16.5 9.5 15.8284 9.5 15C9.5 14.1716 8.82843 13.5 8 13.5C7.17157 13.5 6.5 14.1716 6.5 15C6.5 15.8284 7.17157 16.5 8 16.5Z"/>
<path d="M8 25C10.7614 25 13 20.5228 13 15C13 9.47715 10.7614 5 8 5C5.23858 5 3 9.47715 3 15C3 20.5228 5.23858 25 8 25Z" stroke-width="2" stroke-linecap="round" stroke-linejoin="round"/>
<path d="M13 15V26C13 26.2652 13.1054 26.5196 13.2929 26.7071C13.4804 26.8946 13.7348 27 14 27H28C28.2652 27 28.5196 26.8946 28.7071 26.7071C28.8946 26.5196 29 26.2652 29 26V15C29 9.47715 26.7614 5 24 5H8" stroke-width="2" stroke-linecap="round" stroke-linejoin="round"/>
<path d="M13 15H16" stroke-width="2" stroke-linecap="round" stroke-linejoin="round"/>
<path d="M20 15H22" stroke-width="2" stroke-linecap="round" stroke-linejoin="round"/>
<path d="M26 15H29" stroke-width="2" stroke-linecap="round" stroke-linejoin="round"/>
</svg>
