<svg   viewBox="0 0 24 24" fill="none" xmlns="http://www.w3.org/2000/svg">
<path fill-rule="evenodd" clip-rule="evenodd" d="M8.38082 7.19396C9.34256 5.69967 11.0213 4.70825 12.9327 4.70825C15.8132 4.70825 18.1679 6.9597 18.3329 9.79883C18.3963 9.79616 18.46 9.79481 18.524 9.79481C20.9969 9.79481 23.0016 11.7995 23.0016 14.2724C23.0016 16.7453 20.9969 18.7499 18.524 18.7499H6.8754C3.63051 18.7499 1 16.1194 1 12.8745C1 9.62964 3.63051 6.99913 6.8754 6.99913C7.39506 6.99913 7.89978 7.06678 8.38082 7.19396ZM12.0008 15.7499C12.1808 15.7499 12.3461 15.6865 12.4753 15.5807L14.9693 13.5856C15.2927 13.3268 15.3452 12.8549 15.0864 12.5314C14.8277 12.208 14.3557 12.1555 14.0322 12.4143L12.7508 13.4394V9.99994C12.7508 9.58573 12.415 9.24994 12.0008 9.24994C11.5866 9.24994 11.2508 9.58573 11.2508 9.99994V13.4395L9.96928 12.4143C9.64583 12.1555 9.17387 12.208 8.91511 12.5314C8.65635 12.8549 8.70879 13.3268 9.03224 13.5856L11.5296 15.5835C11.6568 15.6863 11.8184 15.7485 11.9945 15.7499L12.0008 15.7499Z" fill="black"/>
</svg>
