<svg viewBox="0 0 24 24" xmlns="http://www.w3.org/2000/svg">
<path fill-rule="evenodd" clip-rule="evenodd" d="M8.38082 7.19396C9.34256 5.69967 11.0213 4.70825 12.9327 4.70825C15.8132 4.70825 18.1679 6.9597 18.3329 9.79883C18.3963 9.79616 18.46 9.79481 18.524 9.79481C20.9969 9.79481 23.0016 11.7995 23.0016 14.2724C23.0016 16.7453 20.9969 18.7499 18.524 18.7499H6.8754C3.63051 18.7499 1 16.1194 1 12.8745C1 9.62964 3.63051 6.99913 6.8754 6.99913C7.39506 6.99913 7.89978 7.06678 8.38082 7.19396ZM15.0311 11.5303C15.324 11.2374 15.324 10.7625 15.0311 10.4696C14.7382 10.1767 14.2634 10.1767 13.9705 10.4696L11.0008 13.4393L9.53112 11.9696C9.23823 11.6767 8.76336 11.6767 8.47046 11.9696C8.17757 12.2625 8.17757 12.7374 8.47046 13.0303L10.4705 15.0303C10.7634 15.3232 11.2382 15.3232 11.5311 15.0303L15.0311 11.5303Z"/>
</svg>
