<svg viewBox="0 0 24 24" xmlns="http://www.w3.org/2000/svg">
<path d="M21.0311 4.83038C21.324 4.53749 21.324 4.06261 21.0311 3.76972C20.7382 3.47683 20.2634 3.47683 19.9705 3.76972L3.97046 19.7697C3.67757 20.0626 3.67757 20.5375 3.97046 20.8304C4.26336 21.1233 4.73823 21.1233 5.03112 20.8304L7.11144 18.7501H18.524C20.9969 18.7501 23.0016 16.7454 23.0016 14.2725C23.0016 11.7996 20.9969 9.79493 18.524 9.79493C18.46 9.79493 18.3963 9.79628 18.3329 9.79895C18.2952 9.15027 18.1432 8.53227 17.8967 7.96479L21.0311 4.83038Z"/>
<path d="M12.9327 4.70837C14.0396 4.70837 15.0688 5.04083 15.926 5.61134C16.0529 5.69579 16.0657 5.87451 15.9579 5.9823L4.0972 17.843C4.01745 17.9227 3.89387 17.9397 3.79785 17.8805C2.1191 16.8462 1 14.9911 1 12.8747C1 9.62976 3.63051 6.99925 6.8754 6.99925C7.39506 6.99925 7.89978 7.0669 8.38082 7.19408C9.34256 5.69979 11.0213 4.70837 12.9327 4.70837Z"/>
</svg>
