<svg   viewBox="0 0 24 24" fill="none" xmlns="http://www.w3.org/2000/svg">
<path fill-rule="evenodd" clip-rule="evenodd" d="M8.46038 7.28393C9.40301 5.8274 11.0427 4.86182 12.9091 4.86182C15.7228 4.86182 18.024 7.05632 18.1944 9.82714C18.2506 9.825 18.307 9.82392 18.3636 9.82392C20.7862 9.82392 22.75 11.7878 22.75 14.2103C22.75 16.6328 20.7862 18.5966 18.3636 18.5966L7 18.5966C3.82436 18.5966 1.25 16.0223 1.25 12.8466C1.25 9.67101 3.82436 7.09665 7 7.09665C7.50391 7.09665 7.99348 7.16164 8.46038 7.28393ZM15.0856 12.4686C14.8269 12.792 14.3549 12.8445 14.0314 12.5857L12.75 11.5606V15.0001C12.75 15.4143 12.4142 15.7501 12 15.7501C11.5858 15.7501 11.25 15.4143 11.25 15.0001V11.5605L9.96849 12.5857C9.64504 12.8445 9.17307 12.792 8.91431 12.4686C8.65556 12.1451 8.708 11.6732 9.03145 11.4144L11.5288 9.41655C11.656 9.31365 11.8176 9.25154 11.9937 9.25009L12 9.25006L12.0024 9.25006C12.1815 9.25063 12.3459 9.31398 12.4745 9.41926L14.9685 11.4144C15.2919 11.6732 15.3444 12.1451 15.0856 12.4686Z" fill="black"/>
</svg>
