<svg viewBox="0 0 24 24" xmlns="http://www.w3.org/2000/svg">
<path fill-rule="evenodd" clip-rule="evenodd" d="M20.6694 9.8256C21.0573 12.2559 21.0295 14.7345 20.5871 17.1555C20.4258 18.0387 19.687 18.7008 18.7914 18.7649L17.1536 18.8821C13.7235 19.1275 10.2802 19.1275 6.85015 18.8821L5.33615 18.7738C4.36763 18.7045 3.56879 17.9885 3.39427 17.0333C2.96661 14.6927 2.8934 12.3011 3.17708 9.93877L3.44957 7.66965C3.5811 6.57432 4.51033 5.75 5.61353 5.75H7.9051C8.89742 5.75 9.70186 6.55444 9.70186 7.54677C9.70186 7.57955 9.72844 7.60612 9.76122 7.60612L18.4741 7.60612C19.5347 7.60612 20.4381 8.37679 20.6053 9.42416L20.6694 9.8256ZM9.7038 11.2019C9.9967 10.909 10.4716 10.909 10.7645 11.2019L12.0019 12.4393L13.2393 11.2019C13.5322 10.909 14.0071 10.909 14.3 11.2019C14.5929 11.4948 14.5929 11.9697 14.3 12.2626L13.0626 13.5L14.3 14.7374C14.5929 15.0303 14.5929 15.5052 14.3 15.7981C14.0071 16.091 13.5322 16.091 13.2393 15.7981L12.0019 14.5607L10.7645 15.7981C10.4716 16.091 9.99669 16.091 9.7038 15.7981C9.41091 15.5052 9.41091 15.0303 9.7038 14.7374L10.9412 13.5L9.7038 12.2626C9.41091 11.9697 9.41091 11.4948 9.7038 11.2019Z"/>
</svg>
