<svg   viewBox="0 0 24 24" fill="none" xmlns="http://www.w3.org/2000/svg">
<path d="M10.5019 16.5C10.5019 17.3061 10.6609 18.0751 10.9492 18.7773C11.0049 18.9131 10.9078 19.0662 10.761 19.0657C9.12298 19.0603 7.48508 18.999 5.85015 18.8821L4.33615 18.7738C3.36763 18.7045 2.56879 17.9885 2.39427 17.0333C1.96661 14.6927 1.8934 12.3011 2.17708 9.93877L2.44957 7.66965C2.5811 6.57432 3.51033 5.75 4.61353 5.75H6.9051C7.89742 5.75 8.70186 6.55444 8.70186 7.54677C8.70186 7.57955 8.72844 7.60612 8.76122 7.60612L17.4741 7.60612C18.5347 7.60612 19.4381 8.37679 19.6053 9.42416L19.6694 9.8256C19.7381 10.256 19.7937 10.6878 19.8364 11.1206C19.8528 11.2877 19.6656 11.3981 19.5206 11.3136C18.6339 10.7963 17.6025 10.5 16.5019 10.5C13.1882 10.5 10.5019 13.1863 10.5019 16.5Z" fill="black"/>
<path fill-rule="evenodd" clip-rule="evenodd" d="M12.0019 16.5C12.0019 17.4719 12.31 18.3718 12.8338 19.1074C13.1257 19.5173 13.4846 19.8762 13.8945 20.1681C14.6301 20.6919 15.53 21 16.5019 21C18.9872 21 21.0019 18.9853 21.0019 16.5C21.0019 15.5281 20.6938 14.6282 20.17 13.8926C19.8781 13.4827 19.5192 13.1238 19.1093 12.8319C18.3737 12.3081 17.4738 12 16.5019 12C14.0166 12 12.0019 14.0147 12.0019 16.5ZM16.5019 19.5C15.9455 19.5 15.4246 19.3486 14.9779 19.0846L19.0865 14.976C19.3504 15.4227 19.5019 15.9436 19.5019 16.5C19.5019 18.1569 18.1587 19.5 16.5019 19.5ZM13.9173 18.024L18.0259 13.9154C17.5792 13.6514 17.0582 13.5 16.5019 13.5C14.845 13.5 13.5019 14.8431 13.5019 16.5C13.5019 17.0564 13.6533 17.5773 13.9173 18.024Z" fill="black"/>
</svg>
