<svg   viewBox="0 0 24 24" fill="none" xmlns="http://www.w3.org/2000/svg">
<path fill-rule="evenodd" clip-rule="evenodd" d="M21.4898 10.25C21.4655 10.0689 21.4388 9.88801 21.41 9.70739L21.3459 9.30595C21.1207 7.8946 19.9033 6.85612 18.4741 6.85612L10.3571 6.85612C10.0561 5.78516 9.07227 5 7.9051 5H5.61353C4.1307 5 2.88171 6.10798 2.70492 7.58023L2.43243 9.84935C2.13978 12.2864 2.21531 14.7535 2.65648 17.1681C2.8925 18.4599 3.97284 19.4281 5.28263 19.5218L6.79663 19.6302C10.2624 19.8781 13.7414 19.8781 17.2071 19.6302L18.845 19.513C19.6535 19.4551 20.3695 19.0444 20.8307 18.426C21.4443 17.8374 21.9272 17.1184 22.2397 16.315L23.4891 13.1021C24.0228 11.7298 23.0105 10.25 21.5381 10.25H21.4898ZM5.61353 6.5C4.88996 6.5 4.28049 7.04066 4.19422 7.75907L3.92173 10.0282C3.64702 12.3159 3.71792 14.6319 4.13205 16.8985C4.24508 17.5171 4.76243 17.9808 5.38967 18.0257L5.47567 18.0318L7.80776 12.0073C8.21774 10.9481 9.23662 10.25 10.3723 10.25H19.9753C19.9606 10.1479 19.945 10.0458 19.9288 9.94381L19.8647 9.54238C19.7556 8.85897 19.1661 8.35612 18.4741 8.35612L9.76122 8.35612C9.31422 8.35612 8.95186 7.99375 8.95186 7.54677C8.95186 6.96865 8.48321 6.5 7.9051 6.5H5.61353Z" fill="black"/>
</svg>
