<svg   viewBox="0 0 24 24" fill="none" xmlns="http://www.w3.org/2000/svg">
<path d="M20.5871 17.1555C21.0295 14.7345 21.0573 12.2559 20.6694 9.8256L20.6053 9.42416C20.4381 8.37679 19.5347 7.60612 18.4741 7.60612L9.76122 7.60612C9.72844 7.60612 9.70186 7.57955 9.70186 7.54677C9.70186 6.55444 8.89742 5.75 7.9051 5.75H5.61353C4.51033 5.75 3.5811 6.57432 3.44957 7.66965L3.17708 9.93877C2.8934 12.3011 2.96661 14.6927 3.39427 17.0333C3.56879 17.9885 4.36763 18.7045 5.33615 18.7738L6.85015 18.8821C10.2802 19.1275 13.7235 19.1275 17.1536 18.8821L18.7914 18.7649C19.687 18.7008 20.4258 18.0387 20.5871 17.1555Z" fill="black"/>
</svg>
