<svg viewBox="0 0 24 24" xmlns="http://www.w3.org/2000/svg">
<path fill-rule="evenodd" clip-rule="evenodd" d="M18.5019 11.25C17.2294 11.25 16.1304 12.14 15.8659 13.3847L15.8437 13.4891C15.7758 13.8088 15.7638 14.1379 15.8083 14.4617L15.9613 15.5744C15.9042 15.5813 15.847 15.5885 15.7899 15.5959C14.9102 15.7102 14.2519 16.4595 14.2519 17.3466V19.6534C14.2519 20.5405 14.9102 21.2899 15.7899 21.4041C17.5903 21.6379 19.4134 21.6379 21.2139 21.4041C22.0936 21.2899 22.7519 20.5405 22.7519 19.6534V17.3466C22.7519 16.4595 22.0936 15.7102 21.2139 15.5959C21.1568 15.5885 21.0996 15.5813 21.0425 15.5744L21.1955 14.4617C21.24 14.1379 21.228 13.8088 21.1601 13.4891L21.1379 13.3847C20.8734 12.14 19.7743 11.25 18.5019 11.25ZM19.5459 15.4464L19.7094 14.2574C19.7303 14.1054 19.7247 13.951 19.6928 13.8009L19.6706 13.6965C19.5534 13.1446 19.0661 12.75 18.5019 12.75C17.9377 12.75 17.4504 13.1446 17.3331 13.6965L17.3109 13.8009C17.2791 13.951 17.2734 14.1054 17.2943 14.2574L17.4578 15.4464C18.1534 15.4119 18.8503 15.4119 19.5459 15.4464Z"/>
<path d="M20.6936 9.98094C20.7192 10.1489 20.5328 10.2703 20.381 10.1941C19.8122 9.90882 19.1725 9.75 18.5019 9.75C16.5212 9.75 14.8104 11.1355 14.3987 13.0729L14.3765 13.1773C14.2973 13.5497 14.2678 13.9304 14.2882 14.3096C14.2966 14.4645 14.2236 14.6131 14.0981 14.7044C13.2769 15.3016 12.7519 16.2692 12.7519 17.3466V18.7653C12.7519 18.9298 12.6195 19.0637 12.455 19.0647C10.5857 19.0764 8.71596 19.0156 6.85015 18.8821L5.33615 18.7738C4.36763 18.7045 3.56879 17.9885 3.39427 17.0333C2.96661 14.6927 2.8934 12.3011 3.17708 9.93877L3.44957 7.66965C3.5811 6.57432 4.51033 5.75 5.61353 5.75H7.9051C8.89742 5.75 9.70186 6.55444 9.70186 7.54677C9.70186 7.57955 9.72844 7.60612 9.76122 7.60612L18.4741 7.60612C19.5347 7.60612 20.4381 8.37679 20.6053 9.42416L20.6694 9.8256C20.6776 9.87736 20.6857 9.92914 20.6936 9.98094Z"/>
</svg>
