<svg viewBox="0 0 24 24" xmlns="http://www.w3.org/2000/svg">
<path d="M15.1894 16.0836C15.2721 16.195 15.232 16.3591 15.1062 16.4176C14.085 16.8926 13.2718 17.7395 12.8406 18.7842C12.7766 18.9391 12.631 19.0479 12.4635 19.0513C10.2583 19.096 8.0515 19.0396 5.85015 18.8821L4.33615 18.7738C3.36763 18.7045 2.56879 17.9885 2.39427 17.0333C1.96661 14.6927 1.8934 12.3011 2.17708 9.93877L2.44957 7.66965C2.5811 6.57432 3.51033 5.75 4.61353 5.75H6.9051C7.89742 5.75 8.70186 6.55444 8.70186 7.54677C8.70186 7.57955 8.72844 7.60612 8.76122 7.60612L17.4741 7.60612C18.5347 7.60612 19.4381 8.37679 19.6053 9.42416L19.6694 9.8256C19.711 10.0866 19.7479 10.3482 19.78 10.6102C19.8001 10.7746 19.6193 10.8909 19.469 10.8214C19.0228 10.6151 18.5258 10.5 18.0019 10.5C16.0689 10.5 14.5019 12.067 14.5019 14C14.5019 14.7806 14.7574 15.5015 15.1894 16.0836Z"/>
<path d="M18.0019 12C16.8973 12 16.0019 12.8954 16.0019 14C16.0019 15.1046 16.8973 16 18.0019 16C19.1065 16 20.0019 15.1046 20.0019 14C20.0019 12.8954 19.1065 12 18.0019 12Z"/>
<path d="M14.0019 20.5C14.0019 18.8431 15.345 17.5 17.0019 17.5H19.0019C20.6587 17.5 22.0019 18.8431 22.0019 20.5C22.0019 21.0523 21.5542 21.5 21.0019 21.5H15.0019C14.4496 21.5 14.0019 21.0523 14.0019 20.5Z"/>
</svg>
