<svg viewBox="0 0 24 24" xmlns="http://www.w3.org/2000/svg">
<path fill-rule="evenodd" clip-rule="evenodd" d="M20.6694 9.8256C21.0573 12.2559 21.0295 14.7345 20.5871 17.1555C20.4258 18.0387 19.687 18.7008 18.7914 18.7649L17.1536 18.8821C13.7235 19.1275 10.2802 19.1275 6.85015 18.8821L5.33615 18.7738C4.36763 18.7045 3.56879 17.9885 3.39427 17.0333C2.96661 14.6927 2.8934 12.3011 3.17708 9.93877L3.44957 7.66965C3.5811 6.57432 4.51033 5.75 5.61353 5.75H7.9051C8.89742 5.75 9.70186 6.55444 9.70186 7.54677C9.70186 7.57955 9.72844 7.60612 9.76122 7.60612L18.4741 7.60612C19.5347 7.60612 20.4381 8.37679 20.6053 9.42416L20.6694 9.8256ZM12.7519 11C12.7519 10.5858 12.4161 10.25 12.0019 10.25C11.5877 10.25 11.2519 10.5858 11.2519 11V12.75H9.50189C9.08768 12.75 8.75189 13.0858 8.75189 13.5C8.75189 13.9142 9.08768 14.25 9.50189 14.25H11.2519V16C11.2519 16.4142 11.5877 16.75 12.0019 16.75C12.4161 16.75 12.7519 16.4142 12.7519 16V14.25H14.5019C14.9161 14.25 15.2519 13.9142 15.2519 13.5C15.2519 13.0858 14.9161 12.75 14.5019 12.75H12.7519V11Z"/>
</svg>
