<svg viewBox="0 0 24 24" xmlns="http://www.w3.org/2000/svg">
<path fill-rule="evenodd" clip-rule="evenodd" d="M7.26784 4.65855C10.4169 4.38481 13.5837 4.38481 16.7328 4.65855L18.243 4.78983C19.6881 4.91545 20.8588 6.0151 21.0745 7.44949C21.5281 10.4662 21.5281 13.5338 21.0745 16.5505C21.0348 16.8144 20.9628 17.067 20.8627 17.3042C20.7963 17.4615 20.5915 17.4854 20.4767 17.3591L16.0553 12.4955C15.8555 12.2757 15.5449 12.1946 15.2631 12.2885L12.7323 13.1321L9.06086 9.00173C8.92363 8.84734 8.7288 8.75639 8.52233 8.75032C8.31586 8.74426 8.11603 8.82361 7.96997 8.96967L3.05585 13.8838C2.90461 14.035 2.64667 13.9388 2.63461 13.7252C2.51637 11.6313 2.61356 9.52834 2.92617 7.44949C3.14187 6.0151 4.31254 4.91545 5.7576 4.78983L7.26784 4.65855ZM14.0003 9C14.0003 8.17157 14.6719 7.5 15.5003 7.5C16.3287 7.5 17.0003 8.17157 17.0003 9C17.0003 9.82843 16.3287 10.5 15.5003 10.5C14.6719 10.5 14.0003 9.82843 14.0003 9Z"/>
<path d="M2.96164 16.0993C2.90629 16.1547 2.87999 16.2328 2.89102 16.3103C2.90241 16.3904 2.91413 16.4705 2.92617 16.5505C3.14187 17.9849 4.31254 19.0845 5.75761 19.2102L7.26784 19.3414C10.4169 19.6152 13.5837 19.6152 16.7328 19.3414L18.243 19.2102C18.6677 19.1732 19.0686 19.0522 19.4286 18.8633C19.565 18.7917 19.588 18.6114 19.4843 18.4974L15.3835 13.9865C15.3169 13.9133 15.2134 13.8862 15.1195 13.9175L12.7375 14.7115C12.4528 14.8064 12.1391 14.7225 11.9397 14.4983L8.64434 10.7909C8.54877 10.6834 8.38242 10.6785 8.28071 10.7803L2.96164 16.0993Z"/>
</svg>
