<svg   viewBox="0 0 24 24" fill="none" xmlns="http://www.w3.org/2000/svg">
<path fill-rule="evenodd" clip-rule="evenodd" d="M5 16.25C5.41421 16.25 5.75 16.5858 5.75 17V19C5.75 19.1381 5.86193 19.25 6 19.25H18C18.1381 19.25 18.25 19.1381 18.25 19V17C18.25 16.5858 18.5858 16.25 19 16.25C19.4142 16.25 19.75 16.5858 19.75 17V19C19.75 19.9665 18.9665 20.75 18 20.75H6C5.0335 20.75 4.25 19.9665 4.25 19V17C4.25 16.5858 4.58579 16.25 5 16.25Z" fill="black"/>
<path fill-rule="evenodd" clip-rule="evenodd" d="M10.7379 16.1273C10.2235 16.1273 9.79438 15.7342 9.74946 15.2217C9.59582 13.469 9.56872 11.7077 9.66829 9.95145C9.42131 9.9378 9.17443 9.92198 8.92765 9.904L7.4381 9.79541C6.8638 9.75355 6.54276 9.11319 6.85281 8.62796C7.91486 6.96588 9.28333 5.52095 10.8853 4.37021L11.4821 3.94152C11.7916 3.7192 12.2084 3.7192 12.5179 3.94152L13.1147 4.37021C14.7166 5.52095 16.0851 6.96587 17.1472 8.62796C17.4572 9.11319 17.1362 9.75355 16.5619 9.79541L15.0723 9.90399C14.8256 9.92198 14.5787 9.9378 14.3317 9.95145C14.4313 11.7077 14.4042 13.469 14.2505 15.2218C14.2056 15.7342 13.7765 16.1273 13.2621 16.1273H10.7379Z" fill="black"/>
</svg>
