
<svg  viewBox="-3 0 32 32" version="1.1" xmlns="http://www.w3.org/2000/svg" xmlns:xlink="http://www.w3.org/1999/xlink"  fill="#00a8e8">

<g id="SVGRepo_bgCarrier" stroke-width="0"/>

<g id="SVGRepo_tracerCarrier" stroke-linecap="round" stroke-linejoin="round"/>

<g id="SVGRepo_iconCarrier"> <g id="icomoon-ignore"> </g> <path d="M12.8 3.2c-7.093 0-12.8 5.707-12.8 12.8s5.707 12.8 12.8 12.8c7.093 0 12.8-5.707 12.8-12.8s-5.707-12.8-12.8-12.8zM12.8 27.733c-6.453 0-11.733-5.28-11.733-11.733s5.28-11.733 11.733-11.733c6.453 0 11.733 5.28 11.733 11.733s-5.28 11.733-11.733 11.733z" > </path>  <path d="M10.133 13.333c0 0.884-0.716 1.6-1.6 1.6s-1.6-0.716-1.6-1.6c0-0.884 0.716-1.6 1.6-1.6s1.6 0.716 1.6 1.6z" > </path> <path d="M18.667 13.333c0 0.884-0.716 1.6-1.6 1.6s-1.6-0.716-1.6-1.6c0-0.884 0.716-1.6 1.6-1.6s1.6 0.716 1.6 1.6z" > </path> </g>

</svg>