<svg viewBox="0 0 32 32" xmlns="http://www.w3.org/2000/svg">
<path d="M6 10C7.41749 10.0018 8.78872 10.5046 9.8714 11.4195C10.9541 12.3345 11.6785 13.6027 11.9167 15H20.0833C20.2141 14.2228 20.4968 13.479 20.9153 12.8112C21.3338 12.1434 21.8799 11.5646 22.5224 11.1081C23.1648 10.6516 23.891 10.3262 24.6593 10.1506C25.4276 9.97506 26.223 9.95272 27 10.0849V9C26.9985 7.67438 26.4712 6.40348 25.5339 5.46612C24.5965 4.52876 23.3256 4.0015 22 4H10C8.67438 4.0015 7.40348 4.52876 6.46612 5.46612C5.52876 6.40348 5.0015 7.67438 5 9V10.0849C5.33039 10.0288 5.66488 10.0004 6 10V10Z"/>
<path d="M29.9915 15.7513C29.9887 15.7061 29.9855 15.661 29.9812 15.6161C29.9792 15.5955 29.9769 15.575 29.9746 15.5545C29.9696 15.5101 29.964 15.4659 29.9577 15.422C29.955 15.4038 29.9524 15.3856 29.9495 15.3676C29.9415 15.3176 29.9327 15.2679 29.9228 15.2186C29.9206 15.2075 29.9187 15.1964 29.9164 15.1854C29.7147 14.2161 29.1609 13.3561 28.3618 12.7716C27.5628 12.1871 26.5754 11.9197 25.5906 12.021C24.6059 12.1224 23.6936 12.5853 23.0304 13.3203C22.3672 14.0552 22 15.01 22 16V21C22 21.2652 21.8946 21.5196 21.7071 21.7071C21.5196 21.8947 21.2652 22 21 22C20.7348 22 20.4804 21.8947 20.2929 21.7071C20.1054 21.5196 20 21.2652 20 21V17H12V21C12 21.2652 11.8946 21.5196 11.7071 21.7071C11.5196 21.8947 11.2652 22 11 22C10.7348 22 10.4804 21.8947 10.2929 21.7071C10.1054 21.5196 10 21.2652 10 21V16C9.99996 15.01 9.63283 14.0552 8.96959 13.3203C8.30635 12.5853 7.39413 12.1224 6.40935 12.0211C5.42457 11.9197 4.4372 12.1872 3.63818 12.7716C2.83917 13.3561 2.28527 14.2162 2.08363 15.1854C2.08134 15.1964 2.07937 15.2075 2.07717 15.2186C2.06736 15.268 2.05847 15.3176 2.0505 15.3676C2.04761 15.3856 2.04494 15.4038 2.0423 15.422C2.03592 15.4659 2.0303 15.51 2.02543 15.5545C2.02316 15.575 2.02079 15.5955 2.01884 15.6161C2.01453 15.661 2.01131 15.7061 2.00852 15.7513C2.00736 15.7702 2.00577 15.789 2.00489 15.808C2.00185 15.8717 2 15.9356 2 16C2.00007 16.8869 2.29476 17.7486 2.83777 18.4498C3.38079 19.151 4.14136 19.652 5 19.874V25C5.00061 25.5303 5.21151 26.0386 5.58646 26.4136C5.9614 26.7885 6.46975 26.9994 7 27H25C25.5302 26.9994 26.0386 26.7885 26.4135 26.4136C26.7885 26.0386 26.9994 25.5303 27 25V19.874C27.8586 19.652 28.6192 19.151 29.1622 18.4498C29.7052 17.7486 29.9999 16.8869 30 16C30 15.9356 29.9982 15.8717 29.9951 15.808C29.9942 15.789 29.9926 15.7702 29.9915 15.7513Z"/>
</svg>
