<svg   viewBox="0 0 32 32" fill="none" xmlns="http://www.w3.org/2000/svg">
<path d="M27 8H21.9151C21.679 6.60197 20.9554 5.33275 19.8726 4.41747C18.7898 3.50218 17.4178 3 16 3C14.5822 3 13.2102 3.50218 12.1274 4.41747C11.0446 5.33275 10.321 6.60197 10.0849 8H5C4.46975 8.0006 3.9614 8.21151 3.58646 8.58645C3.21151 8.9614 3.00061 9.46975 3 10V26C3.00061 26.5302 3.21151 27.0386 3.58646 27.4135C3.9614 27.7885 4.46975 27.9994 5 28H27C27.5302 27.9994 28.0386 27.7885 28.4135 27.4135C28.7885 27.0386 28.9994 26.5302 29 26V10C28.9994 9.46975 28.7885 8.9614 28.4135 8.58645C28.0386 8.21151 27.5302 8.0006 27 8V8ZM11.999 13C11.999 13.2652 11.8937 13.5196 11.7061 13.7071C11.5186 13.8946 11.2642 14 10.999 14C10.7338 14 10.4795 13.8946 10.2919 13.7071C10.1044 13.5196 9.99902 13.2652 9.99902 13V11C9.99902 10.7348 10.1044 10.4804 10.2919 10.2929C10.4795 10.1054 10.7338 10 10.999 10C11.2642 10 11.5186 10.1054 11.7061 10.2929C11.8937 10.4804 11.999 10.7348 11.999 11V13ZM12.1266 8C12.3484 7.14135 12.8492 6.38074 13.5503 5.8377C14.2515 5.29467 15.1132 5 16 5C16.8868 5 17.7485 5.29467 18.4497 5.8377C19.1508 6.38074 19.6516 7.14135 19.8734 8H12.1266ZM21.999 13C21.999 13.2652 21.8937 13.5196 21.7061 13.7071C21.5186 13.8946 21.2642 14 20.999 14C20.7338 14 20.4795 13.8946 20.2919 13.7071C20.1044 13.5196 19.999 13.2652 19.999 13V11C19.999 10.7348 20.1044 10.4804 20.2919 10.2929C20.4795 10.1054 20.7338 10 20.999 10C21.2642 10 21.5186 10.1054 21.7061 10.2929C21.8937 10.4804 21.999 10.7348 21.999 11V13Z" fill="black"/>
</svg>
