<svg   viewBox="0 0 32 32" fill="none" xmlns="http://www.w3.org/2000/svg">
<path d="M27 8H21.9151C21.679 6.60197 20.9554 5.33275 19.8726 4.41747C18.7898 3.50218 17.4178 3 16 3C14.5822 3 13.2102 3.50218 12.1274 4.41747C11.0446 5.33275 10.321 6.60197 10.0849 8H5C4.46975 8.0006 3.9614 8.21151 3.58646 8.58645C3.21151 8.9614 3.00061 9.46975 3 10V26C3.00061 26.5302 3.21151 27.0386 3.58646 27.4135C3.9614 27.7885 4.46975 27.9994 5 28H27C27.5302 27.9994 28.0386 27.7885 28.4135 27.4135C28.7885 27.0386 28.9994 26.5302 29 26V10C28.9994 9.46975 28.7885 8.9614 28.4135 8.58645C28.0386 8.21151 27.5302 8.0006 27 8V8ZM16 5C16.8865 5.00114 17.7477 5.29624 18.4486 5.8391C19.1495 6.38195 19.6506 7.14192 19.8734 8H12.1266C12.3494 7.14192 12.8505 6.38195 13.5514 5.8391C14.2523 5.29624 15.1135 5.00114 16 5V5Z" fill="black"/>
</svg>
