<svg viewBox="0 0 32 32" xmlns="http://www.w3.org/2000/svg">
<path d="M28 5H23C22.7348 5 22.4804 5.10536 22.2929 5.29289C22.1054 5.48043 22 5.73478 22 6C22 6.26522 22.1054 6.51957 22.2929 6.70711C22.4804 6.89464 22.7348 7 23 7H27V11C27 11.2652 27.1054 11.5196 27.2929 11.7071C27.4804 11.8946 27.7348 12 28 12C28.2652 12 28.5196 11.8946 28.7071 11.7071C28.8946 11.5196 29 11.2652 29 11V6C29 5.73479 28.8946 5.48044 28.7071 5.29291C28.5196 5.10537 28.2652 5.00001 28 5V5Z"/>
<path d="M9 25H5V21C5 20.7348 4.89464 20.4804 4.70711 20.2929C4.51957 20.1054 4.26522 20 4 20C3.73478 20 3.48043 20.1054 3.29289 20.2929C3.10536 20.4804 3 20.7348 3 21V26C3.00001 26.2652 3.10537 26.5196 3.29291 26.7071C3.48044 26.8946 3.73479 27 4 27H9C9.26522 27 9.51957 26.8946 9.70711 26.7071C9.89464 26.5196 10 26.2652 10 26C10 25.7348 9.89464 25.4804 9.70711 25.2929C9.51957 25.1054 9.26522 25 9 25Z"/>
<path d="M28 20C27.7348 20 27.4804 20.1054 27.2929 20.2929C27.1054 20.4804 27 20.7348 27 21V25H23C22.7348 25 22.4804 25.1054 22.2929 25.2929C22.1054 25.4804 22 25.7348 22 26C22 26.2652 22.1054 26.5196 22.2929 26.7071C22.4804 26.8946 22.7348 27 23 27H28C28.2652 27 28.5196 26.8946 28.7071 26.7071C28.8946 26.5196 29 26.2652 29 26V21C29 20.7348 28.8946 20.4804 28.7071 20.2929C28.5196 20.1054 28.2652 20 28 20V20Z"/>
<path d="M4 12C4.26521 12 4.51956 11.8946 4.70709 11.7071C4.89463 11.5196 4.99999 11.2652 5 11V7H9C9.26522 7 9.51957 6.89464 9.70711 6.70711C9.89464 6.51957 10 6.26522 10 6C10 5.73478 9.89464 5.48043 9.70711 5.29289C9.51957 5.10536 9.26522 5 9 5H4C3.73479 5.00001 3.48044 5.10537 3.29291 5.29291C3.10537 5.48044 3.00001 5.73479 3 6V11C3.00001 11.2652 3.10537 11.5196 3.29291 11.7071C3.48044 11.8946 3.73479 12 4 12V12Z"/>
<path d="M10 10C9.73479 10 9.48044 10.1054 9.29291 10.2929C9.10537 10.4804 9.00001 10.7348 9 11V21C9 21.2652 9.10536 21.5196 9.29289 21.7071C9.48043 21.8946 9.73478 22 10 22C10.2652 22 10.5196 21.8946 10.7071 21.7071C10.8946 21.5196 11 21.2652 11 21V11C11 10.7348 10.8946 10.4804 10.7071 10.2929C10.5196 10.1054 10.2652 10 10 10V10Z"/>
<path d="M23 21V11C23 10.7348 22.8946 10.4804 22.7071 10.2929C22.5196 10.1054 22.2652 10 22 10C21.7348 10 21.4804 10.1054 21.2929 10.2929C21.1054 10.4804 21 10.7348 21 11V21C21 21.2652 21.1054 21.5196 21.2929 21.7071C21.4804 21.8946 21.7348 22 22 22C22.2652 22 22.5196 21.8946 22.7071 21.7071C22.8946 21.5196 23 21.2652 23 21Z"/>
<path d="M18 10C17.7348 10 17.4804 10.1054 17.2929 10.2929C17.1054 10.4804 17 10.7348 17 11V21C17 21.2652 17.1054 21.5196 17.2929 21.7071C17.4804 21.8946 17.7348 22 18 22C18.2652 22 18.5196 21.8946 18.7071 21.7071C18.8946 21.5196 19 21.2652 19 21V11C19 10.7348 18.8946 10.4804 18.7071 10.2929C18.5196 10.1054 18.2652 10 18 10V10Z"/>
<path d="M14 10C13.7348 10 13.4804 10.1054 13.2929 10.2929C13.1054 10.4804 13 10.7348 13 11V21C13 21.2652 13.1054 21.5196 13.2929 21.7071C13.4804 21.8946 13.7348 22 14 22C14.2652 22 14.5196 21.8946 14.7071 21.7071C14.8946 21.5196 15 21.2652 15 21V11C15 10.7348 14.8946 10.4804 14.7071 10.2929C14.5196 10.1054 14.2652 10 14 10Z"/>
</svg>
