<svg viewBox="0 0 32 32" xmlns="http://www.w3.org/2000/svg">
<path d="M28 11C28.0031 8.67548 27.3284 6.40048 26.0585 4.45349C25.9676 4.31414 25.8434 4.19965 25.6972 4.1204C25.5509 4.04115 25.3872 3.99964 25.2208 3.99963H6.77918C6.61283 3.99962 6.44911 4.04111 6.30285 4.12034C6.15658 4.19957 6.03239 4.31404 5.94153 4.45337C4.80954 6.1934 4.14822 8.19727 4.02216 10.2693C3.89609 12.3413 4.30959 14.4105 5.22227 16.275C6.13495 18.1394 7.51561 19.7352 9.22937 20.9066C10.9431 22.0779 12.9314 22.7847 15 22.958V27H11C10.7348 27 10.4804 27.1054 10.2929 27.2929C10.1054 27.4804 10 27.7348 10 28C10 28.2652 10.1054 28.5196 10.2929 28.7071C10.4804 28.8946 10.7348 29 11 29H21C21.2652 29 21.5196 28.8946 21.7071 28.7071C21.8946 28.5196 22 28.2652 22 28C22 27.7348 21.8946 27.4804 21.7071 27.2929C21.5196 27.1054 21.2652 27 21 27H17V22.958C19.9976 22.7037 22.7908 21.3341 24.8275 19.12C26.8642 16.9059 27.9963 14.0084 28 11ZM7.33789 5.99963H24.6622C25.3716 7.22609 25.8108 8.59 25.9503 10H6.04975C6.18918 8.58999 6.62837 7.22607 7.33789 5.99963V5.99963Z"/>
</svg>
