<svg   viewBox="0 0 32 32" fill="none" xmlns="http://www.w3.org/2000/svg">
<path d="M30 25.9979H28.9993V12.9979C28.9987 12.4677 28.7878 11.9593 28.4128 11.5844C28.0379 11.2094 27.5295 10.9985 26.9993 10.9979H18.9993V4.99792C18.9987 4.46768 18.7878 3.95932 18.4128 3.58438C18.0379 3.20944 17.5295 2.99853 16.9993 2.99792H4.99927C4.46902 2.99853 3.96067 3.20944 3.58572 3.58438C3.21078 3.95932 2.99987 4.46768 2.99927 4.99792V25.9979H2C1.73478 25.9979 1.48043 26.1033 1.29289 26.2908C1.10536 26.4784 1 26.7327 1 26.9979C1 27.2631 1.10536 27.5175 1.29289 27.705C1.48043 27.8926 1.73478 27.9979 2 27.9979H30C30.2652 27.9979 30.5196 27.8926 30.7071 27.705C30.8946 27.5175 31 27.2631 31 26.9979C31 26.7327 30.8946 26.4784 30.7071 26.2908C30.5196 26.1033 30.2652 25.9979 30 25.9979ZM14.9993 16.9979C14.9993 17.2631 14.8939 17.5175 14.7064 17.705C14.5188 17.8926 14.2645 17.9979 13.9993 17.9979H9.99927C9.73405 17.9979 9.4797 17.8926 9.29216 17.705C9.10462 17.5175 8.99927 17.2631 8.99927 16.9979C8.99927 16.7327 9.10462 16.4784 9.29216 16.2908C9.4797 16.1033 9.73405 15.9979 9.99927 15.9979H13.9993C14.2645 15.9979 14.5188 16.1033 14.7064 16.2908C14.8939 16.4784 14.9993 16.7327 14.9993 16.9979ZM7.99927 7.99792H11.9993C12.2645 7.99792 12.5188 8.10328 12.7064 8.29082C12.8939 8.47835 12.9993 8.73271 12.9993 8.99792C12.9993 9.26314 12.8939 9.5175 12.7064 9.70503C12.5188 9.89257 12.2645 9.99792 11.9993 9.99792H7.99927C7.73405 9.99792 7.4797 9.89257 7.29216 9.70503C7.10462 9.5175 6.99927 9.26314 6.99927 8.99792C6.99927 8.73271 7.10462 8.47835 7.29216 8.29082C7.4797 8.10328 7.73405 7.99792 7.99927 7.99792V7.99792ZM7.99927 20.9979H11.9993C12.2645 20.9979 12.5188 21.1033 12.7064 21.2908C12.8939 21.4784 12.9993 21.7327 12.9993 21.9979C12.9993 22.2631 12.8939 22.5175 12.7064 22.705C12.5188 22.8926 12.2645 22.9979 11.9993 22.9979H7.99927C7.73405 22.9979 7.4797 22.8926 7.29216 22.705C7.10462 22.5175 6.99927 22.2631 6.99927 21.9979C6.99927 21.7327 7.10462 21.4784 7.29216 21.2908C7.4797 21.1033 7.73405 20.9979 7.99927 20.9979ZM18.9993 12.9979H26.9993V25.9979H18.9993V12.9979Z" fill="black"/>
<path d="M24 20.9979H22C21.7348 20.9979 21.4804 21.1033 21.2929 21.2908C21.1054 21.4784 21 21.7327 21 21.9979C21 22.2631 21.1054 22.5175 21.2929 22.705C21.4804 22.8926 21.7348 22.9979 22 22.9979H24C24.2652 22.9979 24.5196 22.8926 24.7071 22.705C24.8946 22.5175 25 22.2631 25 21.9979C25 21.7327 24.8946 21.4784 24.7071 21.2908C24.5196 21.1033 24.2652 20.9979 24 20.9979Z" fill="black"/>
<path d="M22 17.9979H24C24.2652 17.9979 24.5196 17.8926 24.7071 17.705C24.8946 17.5175 25 17.2631 25 16.9979C25 16.7327 24.8946 16.4784 24.7071 16.2908C24.5196 16.1033 24.2652 15.9979 24 15.9979H22C21.7348 15.9979 21.4804 16.1033 21.2929 16.2908C21.1054 16.4784 21 16.7327 21 16.9979C21 17.2631 21.1054 17.5175 21.2929 17.705C21.4804 17.8926 21.7348 17.9979 22 17.9979Z" fill="black"/>
</svg>
