<svg viewBox="0 0 32 32" xmlns="http://www.w3.org/2000/svg">
<path d="M25.75 10H17V8.67987C18.4371 8.03833 19.2802 7.11432 19.5088 5.92609C20.0237 3.2497 17.0007 0.543582 16.6544 0.243839C16.4751 0.0886531 16.2465 0.00224561 16.0093 4.31642e-05C15.7722 -0.00215928 15.542 0.0799867 15.3599 0.231816C15.0024 0.529546 11.8831 3.21869 12.389 5.90021C12.617 7.10852 13.4942 8.0448 15 8.69007V10H6.25C5.1895 10.0012 4.17279 10.423 3.4229 11.1729C2.67302 11.9228 2.2512 12.9395 2.25 14V15.666C2.25254 16.3797 2.39645 17.0857 2.67341 17.7434C2.95038 18.4011 3.35491 18.9974 3.86365 19.4979C3.90826 19.5417 3.95422 19.5834 4 19.6254V26C4.00061 26.5302 4.21151 27.0386 4.58646 27.4135C4.9614 27.7885 5.46975 27.9994 6 28H26C26.5302 27.9994 27.0386 27.7885 27.4135 27.4135C27.7885 27.0386 27.9994 26.5302 28 26V19.6255C28.0458 19.5836 28.0917 19.5417 28.1364 19.4979C28.6451 18.9974 29.0496 18.4011 29.3266 17.7434C29.6036 17.0857 29.7475 16.3797 29.75 15.666V14C29.7488 12.9395 29.327 11.9228 28.5771 11.1729C27.8272 10.423 26.8105 10.0012 25.75 10ZM26 26H6V20.7754C6.51886 20.9341 7.05958 21.0095 7.60205 20.999C8.41408 20.9809 9.21085 20.7747 9.92982 20.3968C10.6488 20.0189 11.2704 19.4795 11.7458 18.821C12.2314 19.4954 12.8704 20.0447 13.6101 20.4236C14.3498 20.8024 15.1689 21 16 21C16.8311 21 17.6502 20.8024 18.3899 20.4236C19.1296 20.0447 19.7686 19.4954 20.2542 18.821C20.7296 19.4795 21.3512 20.0189 22.0702 20.3968C22.7891 20.7747 23.5859 20.9809 24.3979 20.999C24.4314 20.9996 24.4648 21 24.498 21C25.007 21.0003 25.5132 20.9248 26 20.7761V26Z"/>
</svg>
