<svg viewBox="0 0 32 32" xmlns="http://www.w3.org/2000/svg">
<path d="M26 6H6C5.20463 6.00091 4.4421 6.31727 3.87968 6.87968C3.31727 7.4421 3.00091 8.20463 3 9V23C3.00091 23.7954 3.31727 24.5579 3.87968 25.1203C4.4421 25.6827 5.20463 25.9991 6 26H26C26.7954 25.9991 27.5579 25.6827 28.1203 25.1203C28.6827 24.5579 28.9991 23.7954 29 23V9C28.9991 8.20463 28.6827 7.4421 28.1203 6.87968C27.5579 6.31727 26.7954 6.00091 26 6V6ZM18.9401 15.601C18.8014 16.2783 18.433 16.887 17.8973 17.3241C17.3617 17.7612 16.6915 18 16.0001 18C15.3086 18 14.6384 17.7613 14.1027 17.3242C13.567 16.8871 13.1987 16.2784 13.0599 15.6011C12.9671 15.1498 12.7217 14.7442 12.365 14.4526C12.0082 14.161 11.5619 14.0012 11.1012 14H5V12H27V14H20.8988C20.4381 14.0012 19.9918 14.161 19.6351 14.4526C19.2783 14.7441 19.0329 15.1497 18.9401 15.601ZM6 8H26C26.2651 8.0003 26.5193 8.10576 26.7068 8.29323C26.8942 8.4807 26.9997 8.73488 27 9V10H5V9C5.0003 8.73488 5.10576 8.4807 5.29323 8.29323C5.4807 8.10576 5.73488 8.0003 6 8V8Z"/>
</svg>
