<svg viewBox="0 0 32 32" xmlns="http://www.w3.org/2000/svg">
<path d="M10 7V3C10 2.73478 10.1054 2.48043 10.2929 2.29289C10.4804 2.10536 10.7348 2 11 2C11.2652 2 11.5196 2.10536 11.7071 2.29289C11.8946 2.48043 12 2.73478 12 3V7C12 7.26522 11.8946 7.51957 11.7071 7.70711C11.5196 7.89464 11.2652 8 11 8C10.7348 8 10.4804 7.89464 10.2929 7.70711C10.1054 7.51957 10 7.26522 10 7ZM15 8C15.2652 8 15.5196 7.89464 15.7071 7.7071C15.8946 7.51957 16 7.26522 16 7V3C16 2.73478 15.8946 2.48043 15.7071 2.29289C15.5196 2.10536 15.2652 2 15 2C14.7348 2 14.4804 2.10536 14.2929 2.29289C14.1054 2.48043 14 2.73478 14 3V7C14 7.26522 14.1054 7.51957 14.2929 7.7071C14.4804 7.89464 14.7348 8 15 8V8ZM19 8C19.2652 8 19.5196 7.89464 19.7071 7.7071C19.8946 7.51957 20 7.26522 20 7V3C20 2.73478 19.8946 2.48043 19.7071 2.29289C19.5196 2.10536 19.2652 2 19 2C18.7348 2 18.4804 2.10536 18.2929 2.29289C18.1054 2.48043 18 2.73478 18 3V7C18 7.26522 18.1054 7.51957 18.2929 7.7071C18.4804 7.89464 18.7348 8 19 8V8ZM31 15V16C30.9984 17.2716 30.5129 18.4949 29.6421 19.4215C28.7713 20.3482 27.5806 20.9087 26.3115 20.9893C25.628 22.9188 24.4654 24.6429 22.933 26H26C26.2652 26 26.5196 26.1054 26.7071 26.2929C26.8946 26.4804 27 26.7348 27 27C27 27.2652 26.8946 27.5196 26.7071 27.7071C26.5196 27.8946 26.2652 28 26 28H19.6026C19.5979 28.0001 19.5931 28.0007 19.5885 28.0007C19.585 28.0007 19.5815 28.0001 19.5779 28H10.3948C10.3892 27.9999 10.3835 28.0002 10.3779 28H4C3.73478 28 3.48043 27.8946 3.29289 27.7071C3.10536 27.5196 3 27.2652 3 27C3 26.7348 3.10536 26.4804 3.29289 26.2929C3.48043 26.1054 3.73478 26 4 26H7.06702C5.79135 24.8726 4.76927 23.4876 4.06822 21.9362C3.36716 20.3848 3.00308 18.7024 3 17V11C3 10.7348 3.10536 10.4804 3.2929 10.2929C3.48043 10.1054 3.73478 10 4 10H26C27.3256 10.0015 28.5965 10.5288 29.5339 11.4661C30.4712 12.4035 30.9985 13.6744 31 15V15ZM29 15C28.9992 14.3799 28.8066 13.7751 28.4485 13.2688C28.0904 12.7625 27.5844 12.3794 27 12.172V17C26.9994 17.6286 26.9492 18.2561 26.8496 18.8767C27.47 18.6927 28.0144 18.3133 28.4019 17.795C28.7893 17.2767 28.9991 16.6471 29 16V15Z"/>
</svg>
