<svg   viewBox="0 0 32 32" fill="none" xmlns="http://www.w3.org/2000/svg">
<path d="M25.9473 7.98059C23.3558 6.68482 19.9161 6 16 6C12.0839 6 8.64416 6.68482 6.05273 7.98059C3.47717 9.26843 2 11.0979 2 13V19C2 20.9021 3.47717 22.7316 6.05273 24.0194C8.64416 25.3152 12.0839 26 16 26C19.9161 26 23.3558 25.3152 25.9473 24.0194C28.5228 22.7316 30 20.9021 30 19V13C30 11.0979 28.5228 9.26843 25.9473 7.98059ZM15 19.9829V23.9819C12.6269 23.9041 10.6217 23.5533 9 23.0451V19.1307C10.959 19.6525 12.9732 19.9386 15 19.9829V19.9829ZM17 19.9829C19.0268 19.9386 21.041 19.6525 23 19.1307V23.0451C21.3783 23.5533 19.3731 23.9041 17 23.9819V19.9829ZM4 19V16.6913C4.62924 17.2138 5.31831 17.6596 6.05273 18.0194C6.35669 18.1714 6.67334 18.3142 7 18.4492V22.2534C5.02167 21.2706 4 20.0367 4 19ZM25 22.2534V18.4492C25.3267 18.3142 25.6433 18.1714 25.9473 18.0194C26.6817 17.6596 27.3708 17.2138 28 16.6913V19C28 20.0367 26.9783 21.2706 25 22.2534Z" fill="black"/>
</svg>
