<svg   viewBox="0 0 32 32" fill="none" xmlns="http://www.w3.org/2000/svg">
<path d="M11 6V2C11 1.73478 11.1053 1.48043 11.2929 1.29289C11.4804 1.10536 11.7348 1 12 1C12.2652 1 12.5195 1.10536 12.7071 1.29289C12.8946 1.48043 13 1.73478 13 2V6C13 6.26522 12.8946 6.51957 12.7071 6.70711C12.5195 6.89464 12.2652 7 12 7C11.7348 7 11.4804 6.89464 11.2929 6.70711C11.1053 6.51957 11 6.26522 11 6ZM16 7C16.2652 6.99999 16.5195 6.89463 16.7071 6.70709C16.8946 6.51956 17 6.26521 17 6V2C17 1.73478 16.8946 1.48043 16.7071 1.29289C16.5196 1.10536 16.2652 1 16 1C15.7348 1 15.4804 1.10536 15.2929 1.29289C15.1053 1.48043 15 1.73478 15 2V6C15 6.26521 15.1054 6.51956 15.2929 6.70709C15.4804 6.89463 15.7348 6.99999 16 7V7ZM20 7C20.2652 6.99999 20.5195 6.89463 20.7071 6.70709C20.8946 6.51956 21 6.26521 21 6V2C21 1.73478 20.8946 1.48043 20.7071 1.29289C20.5196 1.10536 20.2652 1 20 1C19.7348 1 19.4804 1.10536 19.2929 1.29289C19.1053 1.48043 19 1.73478 19 2V6C19 6.26521 19.1054 6.51956 19.2929 6.70709C19.4804 6.89463 19.7348 6.99999 20 7V7ZM31.8 11.4C31.7212 11.295 31.6225 11.2064 31.5095 11.1395C31.3965 11.0726 31.2714 11.0286 31.1414 11.01C31.0114 10.9915 30.879 10.9987 30.7518 11.0313C30.6246 11.0639 30.5051 11.1212 30.4 11.2L28 13V11C27.9994 10.4698 27.7885 9.9614 27.4135 9.58646C27.0386 9.21151 26.5302 9.00061 26 9H5.99998C5.46973 9.00061 4.96138 9.21151 4.58644 9.58646C4.21149 9.9614 4.00059 10.4698 3.99998 11V13L1.59995 11.2C1.38778 11.0409 1.12109 10.9726 0.858549 11.0101C0.596005 11.0476 0.359115 11.1879 0.199992 11.4C0.0408683 11.6122 -0.0274535 11.8789 0.0100561 12.1414C0.0475657 12.404 0.187834 12.6409 0.400004 12.8L3.99998 15.5V23C4.00119 24.0605 4.42301 25.0772 5.17289 25.8271C5.92277 26.577 6.93949 26.9988 7.99998 27H24C25.0605 26.9988 26.0772 26.577 26.8271 25.8271C27.5769 25.0772 27.9988 24.0605 28 23V15.5L31.6 12.8C31.705 12.7212 31.7935 12.6225 31.8604 12.5095C31.9274 12.3965 31.9714 12.2714 31.9899 12.1414C32.0085 12.0114 32.0013 11.879 31.9687 11.7518C31.9361 11.6246 31.8788 11.5051 31.8 11.4V11.4Z" fill="black"/>
</svg>
