<svg viewBox="0 0 32 32" xmlns="http://www.w3.org/2000/svg">
<path d="M28.243 14.3623C28.0095 14.1758 27.737 14.0443 27.4457 13.9775C27.1544 13.9108 26.8518 13.9105 26.5604 13.9767C26.1242 14.0752 25.6715 14.0749 25.2353 13.9759C24.7992 13.8768 24.3908 13.6815 24.0399 13.4042C23.6891 13.1268 23.4047 12.7746 23.2075 12.3732C23.0104 11.9717 22.9056 11.5313 22.9006 11.0841C22.8982 10.5586 22.6884 10.0553 22.3169 9.68364C21.9453 9.31202 21.442 9.10216 20.9164 9.09973C20.4692 9.09485 20.0288 8.99001 19.6273 8.79289C19.2259 8.59578 18.8736 8.31138 18.5963 7.96051C18.319 7.60964 18.1236 7.20119 18.0246 6.76506C17.9255 6.32894 17.9253 5.87618 18.0238 5.43994C18.0892 5.14782 18.0883 4.84475 18.0211 4.55303C17.9539 4.26131 17.8222 3.98838 17.6355 3.75433C17.4489 3.52029 17.2121 3.33109 16.9426 3.20067C16.6732 3.07025 16.3779 3.00192 16.0786 3.00073C16.0514 3.00061 16.0248 3.00049 15.9977 3.00049C13.4232 3.00095 10.9068 3.7658 8.76757 5.19809C6.6283 6.63037 4.96247 8.66559 3.98125 11.0457C3.00003 13.4259 2.74761 16.0438 3.25599 18.5676C3.76436 21.0914 5.01065 23.4074 6.83684 25.222C8.66304 27.0366 10.9869 28.2682 13.5139 28.7605C16.0408 29.2529 18.6571 28.9839 21.0309 27.9876C23.4048 26.9912 25.4294 25.3125 26.8481 23.1642C28.2668 21.0159 29.0156 18.4947 28.9998 15.9203V15.9202C28.9987 15.6203 28.9301 15.3246 28.7991 15.0549C28.6681 14.7852 28.478 14.5485 28.243 14.3623ZM9.43976 12.4393C9.64954 12.2296 9.91682 12.0867 10.2078 12.0288C10.4988 11.9709 10.8004 12.0006 11.0745 12.1142C11.3486 12.2277 11.5828 12.42 11.7476 12.6666C11.9125 12.9133 12.0004 13.2033 12.0004 13.5C12.0004 13.7967 11.9125 14.0867 11.7476 14.3334C11.5828 14.58 11.3486 14.7723 11.0745 14.8858C10.8004 14.9994 10.4988 15.0291 10.2078 14.9712C9.91682 14.9133 9.64954 14.7704 9.43976 14.5607C9.15847 14.2794 9.00044 13.8978 9.00044 13.5C9.00044 13.1022 9.15847 12.7206 9.43976 12.4393V12.4393ZM12.5611 21.5607C12.3513 21.7704 12.084 21.9133 11.7931 21.9712C11.5021 22.0291 11.2005 21.9994 10.9264 21.8858C10.6523 21.7723 10.418 21.58 10.2532 21.3334C10.0884 21.0867 10.0004 20.7967 10.0004 20.5C10.0004 20.2033 10.0884 19.9133 10.2532 19.6666C10.418 19.42 10.6523 19.2277 10.9264 19.1142C11.2005 19.0006 11.5021 18.9709 11.7931 19.0288C12.084 19.0867 12.3513 19.2296 12.5611 19.4393C12.8424 19.7206 13.0004 20.1022 13.0004 20.5C13.0004 20.8978 12.8424 21.2794 12.5611 21.5607V21.5607ZM15.9398 16.5607C15.73 16.3509 15.5871 16.0836 15.5292 15.7926C15.4714 15.5017 15.5011 15.2001 15.6146 14.926C15.7281 14.6519 15.9204 14.4176 16.1671 14.2528C16.4137 14.088 16.7038 14 17.0004 14C17.2971 14 17.5871 14.088 17.8338 14.2528C18.0805 14.4176 18.2727 14.6519 18.3863 14.926C18.4998 15.2001 18.5295 15.5017 18.4716 15.7926C18.4137 16.0836 18.2709 16.3509 18.0611 16.5607C17.7798 16.842 17.3983 17 17.0004 17C16.6026 17 16.2211 16.842 15.9398 16.5607V16.5607ZM20.5611 22.5607C20.3513 22.7704 20.084 22.9133 19.7931 22.9712C19.5021 23.0291 19.2005 22.9994 18.9264 22.8858C18.6523 22.7723 18.418 22.58 18.2532 22.3334C18.0884 22.0867 18.0004 21.7967 18.0004 21.5C18.0004 21.2033 18.0884 20.9133 18.2532 20.6666C18.418 20.42 18.6523 20.2277 18.9264 20.1142C19.2005 20.0006 19.5021 19.9709 19.7931 20.0288C20.084 20.0867 20.3513 20.2296 20.5611 20.4393C20.8424 20.7206 21.0004 21.1022 21.0004 21.5C21.0004 21.8978 20.8424 22.2794 20.5611 22.5607V22.5607Z"/>
</svg>
