<svg viewBox="0 0 32 32" xmlns="http://www.w3.org/2000/svg">
<path d="M28.0007 6H4.00073C3.47049 6.00061 2.96213 6.21151 2.58719 6.58646C2.21225 6.9614 2.00134 7.46975 2.00073 8V12.092C2.00067 12.0969 2 12.1017 2 12.1066C2 12.1114 2.00067 12.1162 2.00073 12.1211V24C2.00134 24.5302 2.21225 25.0386 2.58719 25.4135C2.96213 25.7885 3.47049 25.9994 4.00073 26H28.0007C28.531 25.9994 29.0393 25.7885 29.4143 25.4135C29.7892 25.0386 30.0001 24.5302 30.0007 24V8C30.0001 7.46975 29.7892 6.9614 29.4143 6.58646C29.0393 6.21151 28.531 6.00061 28.0007 6V6ZM17 22H15C14.7348 22 14.4804 21.8946 14.2929 21.7071C14.1054 21.5196 14 21.2652 14 21C14 20.7348 14.1054 20.4804 14.2929 20.2929C14.4804 20.1054 14.7348 20 15 20H17C17.2652 20 17.5196 20.1054 17.7071 20.2929C17.8946 20.4804 18 20.7348 18 21C18 21.2652 17.8946 21.5196 17.7071 21.7071C17.5196 21.8946 17.2652 22 17 22ZM25 22H21C20.7348 22 20.4804 21.8946 20.2929 21.7071C20.1054 21.5196 20 21.2652 20 21C20 20.7348 20.1054 20.4804 20.2929 20.2929C20.4804 20.1054 20.7348 20 21 20H25C25.2652 20 25.5196 20.1054 25.7071 20.2929C25.8946 20.4804 26 20.7348 26 21C26 21.2652 25.8946 21.5196 25.7071 21.7071C25.5196 21.8946 25.2652 22 25 22ZM4.00073 11.1066V8H28.0007L28.001 11.1066H4.00073Z"/>
</svg>
