<svg viewBox="0 0 32 32" xmlns="http://www.w3.org/2000/svg">
<path d="M21.3112 14.4626C22.0716 13.7324 22.6061 12.7989 22.8507 11.7734C23.0954 10.7479 23.0399 9.67362 22.691 8.67874C22.3421 7.68386 21.7144 6.81031 20.8828 6.16226C20.0512 5.51421 19.0507 5.119 18.0007 5.02374V3C18.0007 2.73478 17.8954 2.48043 17.7078 2.29289C17.5203 2.10536 17.266 2 17.0007 2C16.7355 2 16.4812 2.10536 16.2936 2.29289C16.1061 2.48043 16.0007 2.73478 16.0007 3V4.99988L14.0007 4.99969V3C14.0007 2.73478 13.8954 2.48043 13.7078 2.29289C13.5203 2.10536 13.266 2 13.0007 2C12.7355 2 12.4812 2.10536 12.2936 2.29289C12.1061 2.48043 12.0007 2.73478 12.0007 3V4.99957L10.0001 4.99939H8C7.73478 4.99939 7.48043 5.10475 7.29289 5.29228C7.10536 5.47982 7 5.73417 7 5.99939C7 6.26461 7.10536 6.51896 7.29289 6.7065C7.48043 6.89403 7.73478 6.99939 8 6.99939H9V23.9994H8C7.73478 23.9994 7.48043 24.1047 7.29289 24.2923C7.10536 24.4798 7 24.7342 7 24.9994C7 25.2646 7.10536 25.519 7.29289 25.7065C7.48043 25.894 7.73478 25.9994 8 25.9994H9.99987L12.0007 25.9995V28C12.0007 28.2652 12.1061 28.5196 12.2936 28.7071C12.4812 28.8946 12.7355 29 13.0007 29C13.266 29 13.5203 28.8946 13.7078 28.7071C13.8954 28.5196 14.0007 28.2652 14.0007 28V25.9996L16.0007 25.9998V28C16.0007 28.2652 16.1061 28.5196 16.2936 28.7071C16.4812 28.8946 16.7355 29 17.0007 29C17.266 29 17.5203 28.8946 17.7078 28.7071C17.8954 28.5196 18.0007 28.2652 18.0007 28V25.9999L19.0007 26C20.3875 26 21.7315 25.5196 22.8041 24.6405C23.8767 23.7614 24.6116 22.5379 24.8839 21.1781C25.1562 19.8183 24.9491 18.4062 24.2977 17.1819C23.6464 15.9575 22.591 14.9967 21.3112 14.4626V14.4626ZM21.0007 10.5C20.9997 11.4279 20.6306 12.3176 19.9745 12.9737C19.3183 13.6299 18.4287 13.999 17.5007 14H11V6.99951L12.994 6.99964C12.9963 6.9997 12.9985 7 13.0007 7C13.003 7 13.0052 6.9997 13.0074 6.99964L17 6.99994L17.0007 7L17.0015 6.99994L17.5007 7C18.4287 7.00104 19.3183 7.37012 19.9745 8.02628C20.6306 8.68243 20.9997 9.57206 21.0007 10.5V10.5ZM19.0009 24L11 23.9995V16H19.0007C20.0616 16 21.079 16.4214 21.8292 17.1715C22.5793 17.9217 23.0008 18.9391 23.0008 19.9999C23.0008 21.0608 22.5794 22.0782 21.8293 22.8284C21.0791 23.5785 20.0617 24 19.0009 24V24Z"/>
</svg>
