<svg viewBox="0 0 32 32" xmlns="http://www.w3.org/2000/svg">
<path d="M19 15H17V7H18C19.0605 7.0012 20.0772 7.42302 20.8271 8.1729C21.577 8.92279 21.9988 9.9395 22 11C22 11.2652 22.1054 11.5196 22.2929 11.7071C22.4804 11.8946 22.7348 12 23 12C23.2652 12 23.5196 11.8946 23.7071 11.7071C23.8946 11.5196 24 11.2652 24 11C23.9982 9.40925 23.3655 7.88416 22.2407 6.75933C21.1158 5.6345 19.5908 5.00179 18 5H17V3C17 2.73478 16.8946 2.48043 16.7071 2.29289C16.5196 2.10536 16.2652 2 16 2C15.7348 2 15.4804 2.10536 15.2929 2.29289C15.1054 2.48043 15 2.73478 15 3V5H13.5C11.9087 5 10.3826 5.63214 9.25736 6.75736C8.13214 7.88258 7.5 9.4087 7.5 11C7.5 12.5913 8.13214 14.1174 9.25736 15.2426C10.3826 16.3679 11.9087 17 13.5 17H15V25H13C11.9395 24.9988 10.9228 24.577 10.1729 23.8271C9.42302 23.0772 9.0012 22.0605 9 21C9 20.7348 8.89464 20.4804 8.70711 20.2929C8.51957 20.1054 8.26522 20 8 20C7.73478 20 7.48043 20.1054 7.29289 20.2929C7.10536 20.4804 7 20.7348 7 21C7.00179 22.5908 7.6345 24.1158 8.75933 25.2407C9.88416 26.3655 11.4092 26.9982 13 27H15V29C15 29.2652 15.1054 29.5196 15.2929 29.7071C15.4804 29.8946 15.7348 30 16 30C16.2652 30 16.5196 29.8946 16.7071 29.7071C16.8946 29.5196 17 29.2652 17 29V27H19C20.5913 27 22.1174 26.3679 23.2426 25.2426C24.3679 24.1174 25 22.5913 25 21C25 19.4087 24.3679 17.8826 23.2426 16.7574C22.1174 15.6321 20.5913 15 19 15ZM15 15H13.5C12.4391 15 11.4217 14.5786 10.6716 13.8284C9.92143 13.0783 9.5 12.0609 9.5 11C9.5 9.93913 9.92143 8.92172 10.6716 8.17157C11.4217 7.42143 12.4391 7 13.5 7H15V15ZM19 25H17V17H19C20.0609 17 21.0783 17.4214 21.8284 18.1716C22.5786 18.9217 23 19.9391 23 21C23 22.0609 22.5786 23.0783 21.8284 23.8284C21.0783 24.5786 20.0609 25 19 25Z"/>
</svg>
