<svg viewBox="0 0 32 32" xmlns="http://www.w3.org/2000/svg">
<path d="M26 10C26 10.2652 25.8947 10.5196 25.7071 10.7071C25.5196 10.8946 25.2652 11 25 11H20.9815C20.9925 11.1655 21 11.3318 21 11.5C20.9978 13.4884 20.2069 15.3948 18.8008 16.8008C17.3948 18.2068 15.4885 18.9977 13.5 19H11.5866L20.6728 27.26C20.869 27.4384 20.9864 27.6875 20.999 27.9524C21.0116 28.2174 20.9184 28.4765 20.74 28.6727C20.5616 28.869 20.3125 28.9863 20.0476 28.9989C19.7827 29.0116 19.5236 28.9184 19.3273 28.74L8.3273 18.74C8.17796 18.6042 8.0732 18.4264 8.02679 18.23C7.98039 18.0336 7.9945 17.8277 8.06729 17.6394C8.14008 17.4512 8.26812 17.2893 8.4346 17.1752C8.60108 17.0611 8.79819 17 9.00003 17H13.5C14.9582 16.9984 16.3562 16.4184 17.3873 15.3873C18.4184 14.3562 18.9984 12.9582 19 11.5C19 11.3314 18.9912 11.1648 18.9763 11H9.00003C8.73482 11 8.48046 10.8946 8.29293 10.7071C8.10539 10.5196 8.00003 10.2652 8.00003 10C8.00003 9.73478 8.10539 9.48043 8.29293 9.29289C8.48046 9.10536 8.73482 9 9.00003 9H18.3965C17.9355 8.09775 17.2344 7.34024 16.3705 6.81091C15.5065 6.28158 14.5132 6.00098 13.5 6H9.00003C8.73482 6 8.48046 5.89464 8.29293 5.70711C8.10539 5.51957 8.00003 5.26522 8.00003 5C8.00003 4.73478 8.10539 4.48043 8.29293 4.29289C8.48046 4.10536 8.73482 4 9.00003 4H25C25.2652 4 25.5196 4.10536 25.7071 4.29289C25.8947 4.48043 26 4.73478 26 5C26 5.26522 25.8947 5.51957 25.7071 5.70711C25.5196 5.89464 25.2652 6 25 6H18.592C19.484 6.82546 20.1628 7.85485 20.57 9H25C25.2652 9.00001 25.5196 9.10537 25.7071 9.29291C25.8947 9.48044 26 9.73479 26 10V10Z"/>
</svg>
