<svg   viewBox="0 0 32 32" fill="none" xmlns="http://www.w3.org/2000/svg">
<path d="M30 16H27.2357L29.9265 9.37634C30.026 9.13068 30.0239 8.85557 29.9207 8.61146C29.8174 8.36735 29.6215 8.1742 29.3759 8.07446C29.1304 7.97471 28.8553 7.97653 28.6111 8.07951C28.3668 8.18249 28.1735 8.3782 28.0735 8.62366L25.0769 16H19.9231L16.9265 8.62366C16.8516 8.43933 16.7235 8.28153 16.5584 8.17044C16.3934 8.05934 16.199 8 16 8C15.801 8 15.6066 8.05934 15.4416 8.17044C15.2765 8.28153 15.1484 8.43933 15.0735 8.62366L12.0769 16H6.9231L3.92651 8.62366C3.82651 8.3782 3.63316 8.18249 3.38894 8.07951C3.14472 7.97653 2.86961 7.97471 2.62405 8.07446C2.37849 8.1742 2.18257 8.36735 2.07934 8.61146C1.9761 8.85557 1.974 9.13068 2.07349 9.37634L4.76434 16H2C1.73478 16 1.48043 16.1054 1.29289 16.2929C1.10536 16.4804 1 16.7348 1 17C1 17.2652 1.10536 17.5196 1.29289 17.7071C1.48043 17.8946 1.73478 18 2 18H5.57684L8.57349 25.3763C8.64837 25.5607 8.77652 25.7185 8.94157 25.8296C9.10661 25.9407 9.30105 26 9.5 26C9.69895 26 9.89339 25.9407 10.0584 25.8296C10.2235 25.7185 10.3516 25.5607 10.4265 25.3763L13.4231 18H18.5769L21.5735 25.3763C21.6484 25.5607 21.7765 25.7185 21.9416 25.8296C22.1066 25.9407 22.301 26 22.5 26C22.699 26 22.8934 25.9407 23.0584 25.8296C23.2235 25.7185 23.3516 25.5607 23.4265 25.3763L26.4232 18H30C30.2652 18 30.5196 17.8946 30.7071 17.7071C30.8946 17.5196 31 17.2652 31 17C31 16.7348 30.8946 16.4804 30.7071 16.2929C30.5196 16.1054 30.2652 16 30 16ZM9.5 22.3431L7.7356 18H11.2644L9.5 22.3431ZM14.2356 16L16 11.6569L17.7644 16H14.2356ZM22.5 22.3431L20.7356 18H24.2644L22.5 22.3431Z" fill="black"/>
</svg>
