<svg viewBox="0 0 32 32" xmlns="http://www.w3.org/2000/svg">
<path d="M25.7742 6.63325L18.1105 16H22.0003C22.2655 16 22.5199 16.1054 22.7074 16.2929C22.8949 16.4804 23.0003 16.7348 23.0003 17C23.0003 17.2652 22.8949 17.5196 22.7074 17.7071C22.5199 17.8947 22.2655 18 22.0003 18H17.0003V20H22.0003C22.2655 20 22.5199 20.1054 22.7074 20.2929C22.8949 20.4804 23.0003 20.7348 23.0003 21C23.0003 21.2652 22.8949 21.5196 22.7074 21.7071C22.5199 21.8947 22.2655 22 22.0003 22H17.0003V27C17.0003 27.2652 16.8949 27.5196 16.7074 27.7071C16.5199 27.8947 16.2655 28 16.0003 28C15.7351 28 15.4807 27.8947 15.2932 27.7071C15.1057 27.5196 15.0003 27.2652 15.0003 27V22H10.0003C9.73509 22 9.48073 21.8947 9.2932 21.7071C9.10566 21.5196 9.0003 21.2652 9.0003 21C9.0003 20.7348 9.10566 20.4804 9.2932 20.2929C9.48073 20.1054 9.73509 20 10.0003 20H15.0003V18H10.0003C9.73509 18 9.48073 17.8947 9.2932 17.7071C9.10566 17.5196 9.0003 17.2652 9.0003 17C9.0003 16.7348 9.10566 16.4804 9.2932 16.2929C9.48073 16.1054 9.73509 16 10.0003 16H13.8901L6.22638 6.63325C6.14314 6.53162 6.08074 6.4146 6.04274 6.28885C6.00475 6.1631 5.9919 6.0311 6.00494 5.90039C6.01797 5.76967 6.05663 5.64281 6.11871 5.52704C6.18079 5.41127 6.26507 5.30887 6.36674 5.22569C6.4684 5.1425 6.58546 5.08016 6.71123 5.04223C6.837 5.0043 6.96901 4.99152 7.09971 5.00462C7.23042 5.01772 7.35726 5.05645 7.473 5.11859C7.58874 5.18073 7.69109 5.26506 7.77423 5.36677L16.0003 15.4208L24.2264 5.36677C24.3095 5.26506 24.4119 5.18073 24.5276 5.11859C24.6433 5.05645 24.7702 5.01772 24.9009 5.00462C25.0316 4.99152 25.1636 5.0043 25.2894 5.04223C25.4151 5.08016 25.5322 5.1425 25.6339 5.22569C25.7355 5.30887 25.8198 5.41127 25.8819 5.52704C25.944 5.64281 25.9826 5.76967 25.9957 5.90039C26.0087 6.0311 25.9959 6.1631 25.9579 6.28885C25.9199 6.4146 25.8575 6.53162 25.7742 6.63325V6.63325Z"/>
</svg>
