<svg   viewBox="0 0 32 32" fill="none" xmlns="http://www.w3.org/2000/svg">
<path d="M7 8C7 7.73478 7.10536 7.48043 7.2929 7.2929C7.48043 7.10536 7.73478 7 8 7H24C24.2652 7 24.5196 7.10536 24.7071 7.29289C24.8946 7.48043 25 7.73478 25 8C25 8.26522 24.8946 8.51957 24.7071 8.70711C24.5196 8.89464 24.2652 9 24 9H8C7.73478 9 7.48043 8.89464 7.2929 8.7071C7.10536 8.51957 7 8.26522 7 8V8ZM27 21C26.7348 21 26.4804 21.1054 26.2929 21.2929C26.1054 21.4804 26 21.7348 26 22V24H22C21.4698 23.9994 20.9614 23.7885 20.5865 23.4135C20.2115 23.0386 20.0006 22.5302 20 22V16H26C26.2652 16 26.5196 15.8946 26.7071 15.7071C26.8946 15.5196 27 15.2652 27 15C27 14.7348 26.8946 14.4804 26.7071 14.2929C26.5196 14.1054 26.2652 14 26 14H6C5.73478 14 5.48043 14.1054 5.29289 14.2929C5.10536 14.4804 5 14.7348 5 15C5 15.2652 5.10536 15.5196 5.29289 15.7071C5.48043 15.8946 5.73478 16 6 16H12V17C11.9979 18.8559 11.2598 20.6351 9.94745 21.9474C8.63514 23.2598 6.85588 23.9979 5 24C4.73478 24 4.48043 24.1054 4.29289 24.2929C4.10536 24.4804 4 24.7348 4 25C4 25.2652 4.10536 25.5196 4.29289 25.7071C4.48043 25.8946 4.73478 26 5 26C7.38612 25.9973 9.67375 25.0482 11.361 23.361C13.0482 21.6737 13.9973 19.3861 14 17V16H18V22C18.0012 23.0605 18.423 24.0772 19.1729 24.8271C19.9228 25.577 20.9395 25.9988 22 26H27C27.2652 26 27.5196 25.8946 27.7071 25.7071C27.8946 25.5196 28 25.2652 28 25V22C28 21.7348 27.8946 21.4804 27.7071 21.2929C27.5196 21.1054 27.2652 21 27 21V21Z" fill="black"/>
</svg>
