<svg   viewBox="0 0 32 32" fill="none" xmlns="http://www.w3.org/2000/svg">
<path d="M25 21C24.9982 22.5908 24.3655 24.1158 23.2407 25.2407C22.1158 26.3655 20.5908 26.9982 19 27H17V29C17 29.2652 16.8946 29.5196 16.7071 29.7071C16.5196 29.8946 16.2652 30 16 30C15.7348 30 15.4804 29.8946 15.2929 29.7071C15.1054 29.5196 15 29.2652 15 29V27H13C11.4092 26.9982 9.88416 26.3655 8.75933 25.2407C7.6345 24.1158 7.00179 22.5908 7 21C7 20.7348 7.10536 20.4804 7.29289 20.2929C7.48043 20.1054 7.73478 20 8 20C8.26522 20 8.51957 20.1054 8.70711 20.2929C8.89464 20.4804 9 20.7348 9 21C9.0012 22.0605 9.42302 23.0772 10.1729 23.8271C10.9228 24.577 11.9395 24.9988 13 25H19C20.0609 25 21.0783 24.5786 21.8284 23.8284C22.5786 23.0783 23 22.0609 23 21C23 19.9391 22.5786 18.9217 21.8284 18.1716C21.0783 17.4214 20.0609 17 19 17H13.5C11.9087 17 10.3826 16.3679 9.25736 15.2426C8.13214 14.1174 7.5 12.5913 7.5 11C7.5 9.4087 8.13214 7.88258 9.25736 6.75736C10.3826 5.63214 11.9087 5 13.5 5H15V3C15 2.73478 15.1054 2.48043 15.2929 2.29289C15.4804 2.10536 15.7348 2 16 2C16.2652 2 16.5196 2.10536 16.7071 2.29289C16.8946 2.48043 17 2.73478 17 3V5H18C19.5908 5.00179 21.1158 5.6345 22.2407 6.75933C23.3655 7.88416 23.9982 9.40925 24 11C24 11.2652 23.8946 11.5196 23.7071 11.7071C23.5196 11.8946 23.2652 12 23 12C22.7348 12 22.4804 11.8946 22.2929 11.7071C22.1054 11.5196 22 11.2652 22 11C21.9988 9.9395 21.577 8.92279 20.8271 8.1729C20.0772 7.42302 19.0605 7.0012 18 7H13.5C12.4391 7 11.4217 7.42143 10.6716 8.17157C9.92143 8.92172 9.5 9.93913 9.5 11C9.5 12.0609 9.92143 13.0783 10.6716 13.8284C11.4217 14.5786 12.4391 15 13.5 15H19C20.5908 15.0018 22.1158 15.6345 23.2407 16.7593C24.3655 17.8842 24.9982 19.4092 25 21V21Z" fill="black"/>
</svg>
