<svg   viewBox="0 0 32 32" fill="none" xmlns="http://www.w3.org/2000/svg">
<path d="M24 26C24 26.2652 23.8946 26.5196 23.7071 26.7071C23.5196 26.8946 23.2652 27 23 27H7C6.73478 27 6.48043 26.8946 6.29289 26.7071C6.10536 26.5196 6 26.2652 6 26C6 25.7348 6.10536 25.4804 6.29289 25.2929C6.48043 25.1054 6.73478 25 7 25C7.92794 24.999 8.81757 24.6299 9.47372 23.9737C10.1299 23.3176 10.499 22.4279 10.5 21.5V17.5H7C6.73478 17.5 6.48043 17.3946 6.29289 17.2071C6.10536 17.0196 6 16.7652 6 16.5C6 16.2348 6.10536 15.9804 6.29289 15.7929C6.48043 15.6054 6.73478 15.5 7 15.5H10.5V10.5C10.5 9.21442 10.8812 7.95771 11.5954 6.88879C12.3097 5.81988 13.3248 4.98675 14.5126 4.49479C15.7003 4.00282 17.0072 3.87409 18.2681 4.1249C19.529 4.3757 20.6872 4.99477 21.5962 5.90381C21.7837 6.09135 21.8891 6.34572 21.8891 6.61094C21.8891 6.87617 21.7837 7.13052 21.5961 7.31805C21.4086 7.50559 21.1542 7.61094 20.889 7.61093C20.6238 7.61092 20.3694 7.50555 20.1819 7.318C19.5526 6.68867 18.7507 6.26009 17.8778 6.08647C17.0049 5.91284 16.1001 6.00196 15.2779 6.34255C14.4556 6.68315 13.7528 7.25993 13.2584 7.99995C12.7639 8.73997 12.5 9.60999 12.5 10.5V15.5H17C17.2652 15.5 17.5196 15.6054 17.7071 15.7929C17.8946 15.9804 18 16.2348 18 16.5C18 16.7652 17.8946 17.0196 17.7071 17.2071C17.5196 17.3946 17.2652 17.5 17 17.5H12.5V21.5C12.5013 22.778 12.0554 24.0162 11.2396 25H23C23.2652 25 23.5196 25.1054 23.7071 25.2929C23.8946 25.4804 24 25.7348 24 26Z" fill="black"/>
</svg>
