<svg viewBox="0 0 32 32" xmlns="http://www.w3.org/2000/svg">
<path d="M24.0712 23.6569C24.164 23.7497 24.2377 23.86 24.2879 23.9813C24.3382 24.1026 24.364 24.2327 24.364 24.364C24.364 24.4953 24.3381 24.6254 24.2879 24.7467C24.2376 24.868 24.1639 24.9783 24.071 25.0711C22.7328 26.4094 21.0422 27.3404 19.1958 27.7559C17.3495 28.1715 15.423 28.0546 13.6405 27.4188C11.8579 26.783 10.2923 25.6543 9.12573 24.1641C7.95912 22.6738 7.23937 20.8831 7.05011 19H5C4.73478 19 4.48043 18.8946 4.29289 18.7071C4.10536 18.5196 4 18.2652 4 18C4 17.7348 4.10536 17.4804 4.29289 17.2929C4.48043 17.1054 4.73478 17 5 17H7V15H5C4.73478 15 4.48043 14.8946 4.29289 14.7071C4.10536 14.5196 4 14.2652 4 14C4 13.7348 4.10536 13.4804 4.29289 13.2929C4.48043 13.1054 4.73478 13 5 13H7.05011C7.23937 11.1169 7.95912 9.32619 9.12573 7.83592C10.2923 6.34565 11.8579 5.21704 13.6405 4.58122C15.423 3.9454 17.3495 3.82849 19.1958 4.24406C21.0422 4.65964 22.7328 5.59065 24.071 6.9289C24.164 7.02172 24.2378 7.13196 24.2881 7.2533C24.3384 7.37465 24.3644 7.50472 24.3644 7.63609C24.3645 7.76746 24.3387 7.89756 24.2884 8.01894C24.2382 8.14032 24.1645 8.25062 24.0716 8.34352C23.9787 8.43642 23.8684 8.51011 23.7471 8.56038C23.6257 8.61064 23.4956 8.6365 23.3642 8.63647C23.2329 8.63644 23.1028 8.61052 22.9814 8.5602C22.8601 8.50988 22.7498 8.43615 22.657 8.3432C21.5986 7.28468 20.2645 6.54437 18.8063 6.20647C17.3481 5.86857 15.8243 5.94663 14.4082 6.43177C12.9922 6.91692 11.7407 7.78969 10.7961 8.95082C9.85143 10.112 9.25157 11.5149 9.0647 13H17C17.2652 13 17.5196 13.1054 17.7071 13.2929C17.8946 13.4804 18 13.7348 18 14C18 14.2652 17.8946 14.5196 17.7071 14.7071C17.5196 14.8946 17.2652 15 17 15H9V17H15C15.2652 17 15.5196 17.1054 15.7071 17.2929C15.8946 17.4804 16 17.7348 16 18C16 18.2652 15.8946 18.5196 15.7071 18.7071C15.5196 18.8946 15.2652 19 15 19H9.0647C9.25157 20.4851 9.85143 21.888 10.7961 23.0492C11.7407 24.2103 12.9922 25.0831 14.4082 25.5682C15.8243 26.0534 17.3481 26.1314 18.8063 25.7935C20.2645 25.4556 21.5986 24.7153 22.657 23.6568C22.8445 23.4693 23.0989 23.364 23.3641 23.364C23.6293 23.364 23.8836 23.4694 24.0712 23.6569Z"/>
</svg>
