<svg   viewBox="0 0 32 32" fill="none" xmlns="http://www.w3.org/2000/svg">
<path d="M30 25.9979H28V17C28 16.994 27.9992 16.9883 27.9991 16.9824C27.9988 16.9645 27.9977 16.9465 27.9964 16.9285C27.9952 16.9113 27.9938 16.8941 27.9917 16.8771C27.9909 16.8709 27.9909 16.8648 27.99 16.8586L26.1127 3.71704C26.0426 3.24133 25.8043 2.8065 25.441 2.49146C25.0777 2.17643 24.6135 2.00206 24.1327 2H21.8673C21.3865 2.00207 20.9223 2.17645 20.559 2.49151C20.1957 2.80657 19.9574 3.24143 19.8873 3.71716L18.4424 13.8318L13.6 10.2C13.4514 10.0886 13.2747 10.0207 13.0898 10.004C12.9048 9.98737 12.7189 10.0225 12.5528 10.1056C12.3867 10.1886 12.247 10.3163 12.1493 10.4743C12.0517 10.6322 12 10.8143 12 11V15L5.59998 10.2C5.45141 10.0886 5.27475 10.0207 5.08979 10.004C4.90483 9.98737 4.71888 10.0225 4.55277 10.1056C4.38667 10.1886 4.24697 10.3163 4.14934 10.4743C4.05171 10.6322 4 10.8143 4 11V25.9979H2C1.73478 25.9979 1.48043 26.1033 1.29289 26.2908C1.10536 26.4784 1 26.7327 1 26.9979C1 27.2631 1.10536 27.5175 1.29289 27.705C1.48043 27.8926 1.73478 27.9979 2 27.9979H4.95831C4.97226 27.9985 4.98594 28 5 28C5.01406 28 5.02774 27.9985 5.04169 27.9979H26.9583C26.9723 27.9985 26.9859 28 27 28C27.0141 28 27.0277 27.9985 27.0417 27.9979H30C30.2652 27.9979 30.5196 27.8926 30.7071 27.705C30.8946 27.5175 31 27.2631 31 26.9979C31 26.7327 30.8946 26.4784 30.7071 26.2908C30.5196 26.1033 30.2652 25.9979 30 25.9979ZM12.5 23H9C8.73478 23 8.48043 22.8946 8.29289 22.7071C8.10536 22.5196 8 22.2652 8 22C8 21.7348 8.10536 21.4804 8.29289 21.2929C8.48043 21.1054 8.73478 21 9 21H12.5C12.7652 21 13.0196 21.1054 13.2071 21.2929C13.3946 21.4804 13.5 21.7348 13.5 22C13.5 22.2652 13.3946 22.5196 13.2071 22.7071C13.0196 22.8946 12.7652 23 12.5 23ZM23 23H19.5C19.2348 23 18.9804 22.8946 18.7929 22.7071C18.6054 22.5196 18.5 22.2652 18.5 22C18.5 21.7348 18.6054 21.4804 18.7929 21.2929C18.9804 21.1054 19.2348 21 19.5 21H23C23.2652 21 23.5196 21.1054 23.7071 21.2929C23.8946 21.4804 24 21.7348 24 22C24 22.2652 23.8946 22.5196 23.7071 22.7071C23.5196 22.8946 23.2652 23 23 23ZM21.3334 16L20.2673 15.2004L21.8673 4H24.1327L25.8469 16H21.3334Z" fill="black"/>
</svg>
