<svg viewBox="0 0 32 32" xmlns="http://www.w3.org/2000/svg">
<path d="M15.9986 9.97192C15.998 9.95386 15.9974 9.93579 15.9958 9.9176C15.9943 9.89935 15.9921 9.88135 15.9896 9.8634C15.9883 9.85412 15.9879 9.84491 15.9864 9.83557L14.9864 3.83557C14.9649 3.70597 14.918 3.58188 14.8485 3.47038C14.779 3.35889 14.6882 3.26219 14.5814 3.1858C14.4745 3.1094 14.3536 3.05482 14.2256 3.02517C14.0976 2.99551 13.965 2.99137 13.8355 3.01297C13.7059 3.03457 13.5818 3.0815 13.4704 3.15106C13.3589 3.22063 13.2623 3.31148 13.186 3.41841C13.1096 3.52534 13.0551 3.64627 13.0256 3.77427C12.996 3.90228 12.9919 4.03485 13.0136 4.16443L13.8195 9H11.5V4C11.5 3.73478 11.3946 3.48043 11.2071 3.29289C11.0196 3.10536 10.7652 3 10.5 3C10.2348 3 9.98043 3.10536 9.79289 3.29289C9.60536 3.48043 9.5 3.73478 9.5 4V9H7.18048L7.98639 4.16443C8.00807 4.03485 8.00402 3.90228 7.97444 3.77427C7.94487 3.64627 7.89037 3.52534 7.81405 3.41841C7.73772 3.31148 7.64108 3.22063 7.52963 3.15106C7.41819 3.0815 7.29412 3.03457 7.16454 3.01297C7.03495 2.99137 6.90237 2.99551 6.77439 3.02517C6.6464 3.05482 6.52551 3.1094 6.41863 3.1858C6.31175 3.26219 6.22096 3.35889 6.15147 3.47038C6.08197 3.58188 6.03513 3.70597 6.01361 3.83557L5.01361 9.83557C5.01209 9.84491 5.01172 9.85412 5.01038 9.8634C5.00794 9.88135 5.00568 9.89935 5.00415 9.9176C5.00262 9.93579 5.00195 9.95385 5.0014 9.97192C5.00116 9.98132 5 9.99054 5 10C5 10.0089 5.00061 10.0176 5.00067 10.0265C5.00086 10.0327 5.00086 10.0388 5.00116 10.0449C5.01324 11.3216 5.46853 12.5545 6.28916 13.5326C7.1098 14.5108 8.24479 15.1734 9.5 15.4072V28C9.5 28.2652 9.60536 28.5196 9.79289 28.7071C9.98043 28.8946 10.2348 29 10.5 29C10.7652 29 11.0196 28.8946 11.2071 28.7071C11.3946 28.5196 11.5 28.2652 11.5 28V15.4072C12.7552 15.1734 13.8902 14.5108 14.7108 13.5326C15.5315 12.5545 15.9868 11.3216 15.9988 10.0449C15.9991 10.0388 15.9991 10.0327 15.9993 10.0265C15.9994 10.0176 16 10.0089 16 10C16 9.99054 15.9988 9.98132 15.9986 9.97192Z"/>
<path d="M26.499 3.9823C26.4987 3.96168 26.4976 3.94104 26.4959 3.92035C26.4948 3.90631 26.4935 3.8924 26.4918 3.87854C26.4897 3.86127 26.487 3.84399 26.484 3.82672C26.4809 3.80933 26.4775 3.79211 26.4736 3.77508C26.4705 3.76154 26.4669 3.74805 26.4632 3.73456C26.4577 3.71448 26.4517 3.6947 26.4449 3.67517C26.443 3.66956 26.4418 3.66388 26.4398 3.65826C26.4375 3.65222 26.4346 3.64661 26.4323 3.64062C26.4248 3.62103 26.4166 3.60179 26.4079 3.58289C26.4023 3.57055 26.3964 3.55839 26.3903 3.54639C26.3821 3.53027 26.3734 3.51443 26.3643 3.49884C26.3563 3.48486 26.348 3.47113 26.3394 3.45764C26.3311 3.44495 26.3225 3.43262 26.3137 3.42029C26.3032 3.4054 26.2924 3.39081 26.2811 3.37665C26.2728 3.36621 26.2641 3.35614 26.2554 3.34607C26.2429 3.33167 26.2302 3.31744 26.217 3.30383C26.2077 3.29431 26.1981 3.28516 26.1884 3.276C26.1751 3.26331 26.1617 3.25085 26.1477 3.23895C26.1365 3.22937 26.1248 3.22034 26.1132 3.21124C26.1001 3.20111 26.087 3.19104 26.0734 3.18152C26.0596 3.17181 26.0453 3.16272 26.031 3.15375C26.0188 3.14612 26.0067 3.13843 25.9942 3.13135C25.9779 3.12207 25.9612 3.11353 25.9444 3.10516C25.9328 3.09943 25.9213 3.09369 25.9096 3.08838C25.8919 3.08044 25.8739 3.07324 25.8556 3.06628C25.8435 3.06171 25.8315 3.05713 25.8192 3.05298C25.8017 3.04706 25.784 3.04187 25.7661 3.03693C25.7518 3.03296 25.7376 3.02924 25.7232 3.02588C25.7073 3.02228 25.6912 3.01916 25.6751 3.0163C25.6575 3.01312 25.64 3.01044 25.6223 3.00824C25.6087 3.00659 25.595 3.00525 25.5812 3.00409C25.5607 3.00244 25.5402 3.0014 25.5195 3.00098C25.5129 3.00086 25.5065 3 25.5 3C25.4939 3 25.488 3.00079 25.482 3.00092C25.4615 3.00128 25.441 3.00238 25.4204 3.00403C25.4063 3.00513 25.3923 3.0064 25.3784 3.00812C25.3612 3.01025 25.3439 3.01294 25.3267 3.01599C25.3093 3.01904 25.2921 3.0224 25.275 3.02637C25.2615 3.02948 25.248 3.03302 25.2345 3.03674C25.2144 3.04223 25.1947 3.04828 25.1751 3.05505C25.1695 3.05695 25.1638 3.05817 25.1582 3.06018C25.1459 3.06469 25.1337 3.07006 25.1215 3.07464C25.1168 3.07653 25.1121 3.07818 25.1074 3.08014C22.5312 4.04834 20.4681 7.2088 18.9753 12.4774C18.2981 14.9086 17.8069 17.3877 17.5057 19.8934C17.4907 20.0329 17.5053 20.174 17.5485 20.3075C17.5916 20.441 17.6624 20.564 17.7562 20.6683C17.8499 20.7727 17.9646 20.8562 18.0928 20.9133C18.2209 20.9704 18.3596 21 18.5 21H24.5V28C24.5 28.2652 24.6053 28.5196 24.7928 28.7071C24.9804 28.8946 25.2347 29 25.5 29C25.7652 29 26.0195 28.8946 26.2071 28.7071C26.3946 28.5196 26.5 28.2652 26.5 28V4C26.5 3.99402 26.4992 3.98828 26.499 3.9823Z"/>
</svg>
