<svg viewBox="0 0 32 32" xmlns="http://www.w3.org/2000/svg">
<path d="M27 9.00001H22.6291C23.2799 8.20598 23.6005 7.1921 23.5245 6.16825C23.4485 5.14439 22.9817 4.18897 22.2207 3.49975C21.4598 2.81052 20.463 2.44028 19.4366 2.46565C18.4103 2.49102 17.433 2.91008 16.707 3.63606C16.4175 3.9378 16.1787 4.28442 16 4.66249C15.8212 4.28442 15.5824 3.93777 15.2928 3.636C14.5669 2.91003 13.5896 2.491 12.5632 2.46564C11.5369 2.44028 10.5401 2.81054 9.77916 3.49977C9.01824 4.189 8.55147 5.14443 8.47548 6.16828C8.39948 7.19213 8.72008 8.20599 9.37091 9.00001H5C4.46975 9.00061 3.96139 9.21152 3.58645 9.58646C3.21151 9.9614 3.0006 10.4698 3 11V15C3.0006 15.5303 3.21151 16.0386 3.58645 16.4136C3.96139 16.7885 4.46975 16.9994 5 17V25C5.00061 25.5303 5.21151 26.0386 5.58646 26.4136C5.9614 26.7885 6.46975 26.9994 7 27H25C25.5302 26.9994 26.0386 26.7885 26.4135 26.4136C26.7885 26.0386 26.9994 25.5303 27 25V17C27.5302 16.9994 28.0386 16.7885 28.4135 16.4136C28.7885 16.0386 28.9994 15.5303 29 15V11C28.9994 10.4698 28.7885 9.9614 28.4135 9.58646C28.0386 9.21152 27.5302 9.00061 27 9.00001V9.00001ZM18.1212 5.05027C18.3069 4.86448 18.5274 4.71708 18.7701 4.61651C19.0127 4.51593 19.2729 4.46415 19.5355 4.46411C19.7982 4.46408 20.0584 4.51579 20.3011 4.6163C20.5438 4.71681 20.7643 4.86414 20.95 5.04989C21.1358 5.23564 21.2831 5.45616 21.3836 5.69886C21.4841 5.94155 21.5359 6.20167 21.5358 6.46436C21.5358 6.72705 21.484 6.98716 21.3835 7.22984C21.2829 7.47251 21.1355 7.693 20.9497 7.8787C20.3322 8.49635 18.5465 8.84318 17.0426 8.95738C17.1569 7.45335 17.5037 5.66786 18.1212 5.05027ZM11.0502 5.05027C11.4256 4.67577 11.9342 4.46545 12.4644 4.46544C12.9947 4.46544 13.5033 4.67575 13.8787 5.05024C14.4963 5.66789 14.8431 7.45353 14.9574 8.95735C13.4534 8.84312 11.6678 8.49629 11.0503 7.8787C10.6758 7.50333 10.4655 6.99475 10.4654 6.46451C10.4654 5.93427 10.6757 5.42567 11.0502 5.05027ZM27 15H17V24C17 24.2652 16.8946 24.5196 16.7071 24.7071C16.5196 24.8947 16.2652 25 16 25C15.7348 25 15.4804 24.8947 15.2929 24.7071C15.1054 24.5196 15 24.2652 15 24V15H5V11H15V15H17V11H27L27.0012 14.9999L27 15Z"/>
</svg>
