<svg   viewBox="0 0 32 32" fill="none" xmlns="http://www.w3.org/2000/svg">
<path d="M29.8704 25.7792L28.0927 9.77911C28.0387 9.28976 27.806 8.83754 27.4392 8.5092C27.0723 8.18087 26.5972 7.99954 26.1049 8H21.915C21.6789 6.60197 20.9553 5.33275 19.8725 4.41747C18.7897 3.50218 17.4177 3 15.9999 3C14.5821 3 13.2101 3.50218 12.1273 4.41747C11.0445 5.33275 10.3209 6.60197 10.0848 8H5.89493C5.4026 7.99954 4.92743 8.18088 4.56058 8.50923C4.19374 8.83757 3.96104 9.2898 3.90712 9.77917L2.12941 25.7792C2.09836 26.0587 2.12663 26.3417 2.21236 26.6096C2.29809 26.8775 2.43937 27.1243 2.62696 27.3339C2.81455 27.5434 3.04424 27.7111 3.30103 27.8259C3.55782 27.9407 3.83593 28 4.11721 28H27.8826C28.1639 28 28.442 27.9407 28.6988 27.8259C28.9555 27.7111 29.1852 27.5434 29.3728 27.3339C29.5604 27.1243 29.7017 26.8775 29.7874 26.6096C29.8732 26.3417 29.9014 26.0587 29.8704 25.7792H29.8704ZM11.9989 13C11.9989 13.2652 11.8936 13.5196 11.706 13.7071C11.5185 13.8946 11.2641 14 10.9989 14C10.7337 14 10.4793 13.8946 10.2918 13.7071C10.1043 13.5196 9.99892 13.2652 9.99892 13V11C9.99892 10.7348 10.1043 10.4804 10.2918 10.2929C10.4793 10.1054 10.7337 10 10.9989 10C11.2641 10 11.5185 10.1054 11.706 10.2929C11.8936 10.4804 11.9989 10.7348 11.9989 11V13ZM12.1265 8C12.3483 7.14135 12.8491 6.38074 13.5502 5.8377C14.2514 5.29467 15.1131 5 15.9999 5C16.8867 5 17.7484 5.29467 18.4496 5.8377C19.1507 6.38074 19.6515 7.14135 19.8733 8H12.1265ZM21.9989 13C21.9989 13.2652 21.8936 13.5196 21.706 13.7071C21.5185 13.8946 21.2641 14 20.9989 14C20.7337 14 20.4793 13.8946 20.2918 13.7071C20.1043 13.5196 19.9989 13.2652 19.9989 13V11C19.9989 10.7348 20.1043 10.4804 20.2918 10.2929C20.4793 10.1054 20.7337 10 20.9989 10C21.2641 10 21.5185 10.1054 21.706 10.2929C21.8936 10.4804 21.9989 10.7348 21.9989 11V13Z" fill="black"/>
</svg>
