<svg viewBox="0 0 32 32" xmlns="http://www.w3.org/2000/svg">
<path d="M29.8704 25.7792L28.0927 9.77911C28.0387 9.28976 27.806 8.83754 27.4392 8.5092C27.0723 8.18087 26.5972 7.99954 26.1049 8H21.915C21.6789 6.60197 20.9553 5.33275 19.8725 4.41747C18.7897 3.50218 17.4177 3 15.9999 3C14.5821 3 13.2101 3.50218 12.1273 4.41747C11.0445 5.33275 10.3209 6.60197 10.0848 8H5.89493C5.4026 7.99954 4.92743 8.18088 4.56058 8.50923C4.19374 8.83757 3.96104 9.2898 3.90712 9.77917L2.12941 25.7792C2.09836 26.0587 2.12663 26.3417 2.21236 26.6096C2.29809 26.8775 2.43937 27.1243 2.62696 27.3339C2.81455 27.5434 3.04424 27.7111 3.30103 27.8259C3.55782 27.9407 3.83593 28 4.11721 28H27.8826C28.1639 28 28.442 27.9407 28.6988 27.8259C28.9555 27.7111 29.1852 27.5434 29.3728 27.3339C29.5604 27.1243 29.7017 26.8775 29.7874 26.6096C29.8732 26.3417 29.9014 26.0587 29.8704 25.7792H29.8704ZM15.9999 5C16.8864 5.00114 17.7476 5.29624 18.4485 5.8391C19.1494 6.38195 19.6505 7.14192 19.8733 8H12.1265C12.3493 7.14192 12.8504 6.38195 13.5513 5.8391C14.2522 5.29624 15.1134 5.00114 15.9999 5V5Z"/>
</svg>
