<svg viewBox="0 0 32 32" xmlns="http://www.w3.org/2000/svg">
<path d="M28.9749 4.02503C28.3161 3.36885 27.4237 3.00116 26.4939 3.00278C25.5641 3.00441 24.673 3.37522 24.0165 4.03369L2.28434 26.3015C2.16038 26.4285 2.07246 26.5862 2.0296 26.7585C1.98674 26.9307 1.99048 27.1112 2.04045 27.2815C2.09042 27.4518 2.18481 27.6057 2.31393 27.7275C2.44305 27.8493 2.60225 27.9345 2.77519 27.9744C4.20802 28.3064 5.674 28.4743 7.14481 28.4747C11.3224 28.4746 15.5044 27.1161 19.4358 24.4529C23.404 21.7649 25.704 18.7279 25.8001 18.6C25.9445 18.4074 26.0146 18.1692 25.9975 17.9291C25.9805 17.689 25.8774 17.4631 25.7072 17.2929L23.3649 14.9507L28.9871 8.96277C29.6372 8.30472 30.0007 7.41636 29.9984 6.49138C29.9961 5.5664 29.6282 4.67985 28.9749 4.02503V4.02503ZM23.6509 18.0652C22.0659 19.8776 20.2551 21.4795 18.263 22.8317C13.9543 25.7356 9.5131 26.9148 5.03312 26.3485L18.32 12.7341L21.2327 15.6469C21.25 15.6659 21.2683 15.6844 21.2875 15.7024L21.2978 15.7119L23.6509 18.0652Z"/>
</svg>
