<svg   viewBox="0 0 32 32" fill="none" xmlns="http://www.w3.org/2000/svg">
<path d="M30.1523 19.101C29.9704 19.3776 29.7226 19.6046 29.4311 19.7616C29.1396 19.9185 28.8136 20.0005 28.4825 20H25.9991V24C25.9991 24.2652 25.8937 24.5196 25.7062 24.7071C25.5187 24.8946 25.2643 25 24.9991 25C24.7339 25 24.4795 24.8946 24.292 24.7071C24.1044 24.5196 23.9991 24.2652 23.9991 24V20H16.9991V26H19.9991C20.2643 26 20.5187 26.1054 20.7062 26.2929C20.8937 26.4804 20.9991 26.7348 20.9991 27C20.9991 27.2652 20.8937 27.5196 20.7062 27.7071C20.5187 27.8946 20.2643 28 19.9991 28H11.9991C11.7339 28 11.4795 27.8946 11.292 27.7071C11.1044 27.5196 10.9991 27.2652 10.9991 27C10.9991 26.7348 11.1044 26.4804 11.292 26.2929C11.4795 26.1054 11.7339 26 11.9991 26H14.9991V20H3.51562C3.18465 20 2.85886 19.9179 2.56744 19.761C2.27603 19.6041 2.02811 19.3773 1.84592 19.101C1.66373 18.8247 1.55296 18.5075 1.52354 18.1778C1.49412 17.8482 1.54698 17.5164 1.67737 17.2122L6.8202 5.21216C6.97415 4.85223 7.23046 4.54546 7.55728 4.32996C7.8841 4.11446 8.26703 3.99972 8.65851 4H23.3397C23.7311 3.99972 24.1141 4.11445 24.4409 4.32995C24.7677 4.54546 25.024 4.85223 25.178 5.21216L30.3208 17.2122C30.4516 17.5163 30.5047 17.8481 30.4753 18.1779C30.4459 18.5076 30.3349 18.8248 30.1523 19.101V19.101Z" fill="black"/>
</svg>
