<svg   viewBox="0 0 32 32" fill="none" xmlns="http://www.w3.org/2000/svg">
<path d="M29.7072 5.70709C29.847 5.56723 29.9422 5.38905 29.9808 5.19507C30.0194 5.00109 29.9996 4.80002 29.9239 4.6173C29.8482 4.43458 29.72 4.2784 29.5556 4.16852C29.3911 4.05865 29.1978 4 29 4H3.00002C2.80224 4 2.6089 4.05865 2.44445 4.16852C2.28 4.2784 2.15182 4.43458 2.07613 4.6173C2.00044 4.80002 1.98063 5.00109 2.01921 5.19507C2.05779 5.38905 2.15302 5.56723 2.29286 5.70709L15 18.4142V26H11C10.7348 26 10.4804 26.1054 10.2929 26.2929C10.1054 26.4804 10 26.7348 10 27C10 27.2652 10.1054 27.5196 10.2929 27.7071C10.4804 27.8946 10.7348 28 11 28H21C21.2652 28 21.5196 27.8946 21.7071 27.7071C21.8947 27.5196 22 27.2652 22 27C22 26.7348 21.8947 26.4804 21.7071 26.2929C21.5196 26.1054 21.2652 26 21 26H17V18.4142L29.7072 5.70709ZM26.5858 6L24.5858 8H7.4142L5.4142 6H26.5858Z" fill="black"/>
</svg>
