<svg   viewBox="0 0 32 32" fill="none" xmlns="http://www.w3.org/2000/svg">
<path d="M29 7H3C2.46975 7.00061 1.9614 7.21151 1.58646 7.58646C1.21151 7.9614 1.00061 8.46975 1 9V23C1.00061 23.5302 1.21151 24.0386 1.58646 24.4135C1.9614 24.7885 2.46975 24.9994 3 25H29C29.5302 24.9994 30.0386 24.7885 30.4135 24.4135C30.7885 24.0386 30.9994 23.5302 31 23V9C30.9994 8.46975 30.7885 7.9614 30.4135 7.58646C30.0386 7.21151 29.5302 7.00061 29 7V7ZM9.36993 23L3 17.5401V14.4599L9.36993 9H22.6301L29.0005 14.4603L29.0007 17.5394L22.6301 23H9.36993ZM21 16C21 16.9889 20.7068 17.9556 20.1573 18.7779C19.6079 19.6001 18.827 20.241 17.9134 20.6194C16.9998 20.9978 15.9945 21.0969 15.0245 20.9039C14.0546 20.711 13.1637 20.2348 12.4645 19.5355C11.7652 18.8363 11.289 17.9454 11.0961 16.9755C10.9031 16.0055 11.0022 15.0002 11.3806 14.0866C11.759 13.173 12.3999 12.3921 13.2221 11.8427C14.0444 11.2932 15.0111 11 16 11C17.3256 11.0015 18.5965 11.5288 19.5339 12.4661C20.4712 13.4035 20.9985 14.6744 21 16V16Z" fill="black"/>
</svg>
