<svg viewBox="0 0 32 32" xmlns="http://www.w3.org/2000/svg">
<path d="M28.7409 8.85271C28.7376 8.84661 28.7351 8.84038 28.7317 8.83433C28.7302 8.83177 28.7284 8.82945 28.7269 8.82689C28.5479 8.51978 28.2903 8.26597 27.9805 8.09166L16.9806 1.90416C16.6809 1.73687 16.3433 1.64905 16.0001 1.64905C15.6568 1.64905 15.3193 1.73687 15.0195 1.90416L4.0194 8.09172C3.70846 8.26685 3.45005 8.52202 3.27103 8.83074C3.2691 8.83409 3.26678 8.83715 3.26489 8.84056C3.26184 8.846 3.25964 8.85167 3.25671 8.85716C3.08875 9.15566 3.00035 9.49232 3 9.83483V22.1651C3.00028 22.52 3.09482 22.8684 3.27396 23.1746C3.4531 23.4809 3.7104 23.7341 4.01953 23.9083L15.0197 30.0959C15.2967 30.2508 15.6068 30.3374 15.924 30.3486C15.9467 30.3503 15.9694 30.3524 15.9926 30.3526H16.0016C16.0331 30.3526 16.0641 30.3508 16.0949 30.3479C16.4057 30.3341 16.709 30.2478 16.9805 30.0958L27.9805 23.9083C28.2896 23.7342 28.5469 23.481 28.7261 23.1747C28.9052 22.8684 28.9998 22.52 29 22.1651V9.83483C28.9997 9.4906 28.9104 9.15229 28.7409 8.85271V8.85271ZM16 3.64733L25.968 9.25433L22.1404 11.4288L12.055 5.86638L16 3.64733ZM16.1138 14.8526L6.04736 9.24571L10.0048 7.01964L20.1005 12.5878L16.1138 14.8526ZM17.0152 27.7816L17.1136 16.5849L21.1278 14.3043V19.0638C21.1278 19.329 21.2332 19.5834 21.4207 19.7709C21.6082 19.9585 21.8626 20.0638 22.1278 20.0638C22.393 20.0638 22.6474 19.9585 22.8349 19.7709C23.0224 19.5834 23.1278 19.329 23.1278 19.0638V13.1681L27 10.9682V22.1651L17.0152 27.7816Z"/>
</svg>
