<svg viewBox="0 0 32 32" xmlns="http://www.w3.org/2000/svg">
<path d="M29.912 9.99841C30.1861 9.56564 30.2842 9.04433 30.1861 8.5415C30.088 8.03868 29.8011 7.59249 29.3843 7.29456C25.4796 4.50163 20.7991 3 15.9983 3C11.1976 3 6.51706 4.50163 2.61235 7.29456C2.19558 7.59249 1.90869 8.03868 1.81056 8.5415C1.71244 9.04433 1.81053 9.56564 2.0847 9.99841H2.08476L14.311 29.2111C14.4916 29.495 14.741 29.7287 15.0359 29.8906C15.3308 30.0525 15.6619 30.1374 15.9983 30.1374C16.3348 30.1374 16.6658 30.0525 16.9607 29.8906C17.2557 29.7287 17.505 29.495 17.6856 29.2111L24.9872 17.7373C24.9895 17.7336 24.9919 17.73 24.9942 17.7263L29.912 9.99841ZM15.9983 28.1374L11.9409 21.7614C12.5865 21.5422 13.1738 21.1792 13.6585 20.6998C14.1432 20.2204 14.5127 19.6371 14.739 18.994C14.9653 18.3509 15.0425 17.6648 14.9648 16.9875C14.8871 16.3101 14.6566 15.6593 14.2906 15.0842C13.9245 14.509 13.4326 14.0245 12.8519 13.6673C12.2713 13.31 11.617 13.0894 10.9386 13.022C10.2602 12.9547 9.57533 13.0423 8.93574 13.2784C8.29615 13.5144 7.71855 13.8927 7.24656 14.3846L5.92424 12.3067C8.84385 10.1586 12.3736 9 15.9983 9C19.623 9 23.1528 10.1586 26.0724 12.3067L23.911 15.7032C22.9044 15.0627 21.6845 14.8482 20.5198 15.107C19.3551 15.3659 18.3409 16.0768 17.7003 17.0834C17.0597 18.09 16.8452 19.3098 17.1041 20.4746C17.3629 21.6393 18.0738 22.6535 19.0804 23.2941L15.9983 28.1374Z"/>
</svg>
