<svg   viewBox="0 0 32 32" fill="none" xmlns="http://www.w3.org/2000/svg">
<path d="M27 5H5C4.46975 5.00061 3.9614 5.21151 3.58646 5.58646C3.21151 5.9614 3.00061 6.46975 3 7V26C3 26.1705 3.04357 26.3381 3.12658 26.487C3.20959 26.6359 3.32928 26.7611 3.47429 26.8507C3.6193 26.9403 3.7848 26.9913 3.95509 26.999C4.12538 27.0067 4.2948 26.9707 4.44727 26.8944L8 25.118L11.5527 26.8944C11.6916 26.9638 11.8447 27 12 27C12.1553 27 12.3084 26.9638 12.4473 26.8944L16 25.118L19.5527 26.8944C19.6916 26.9638 19.8447 27 20 27C20.1553 27 20.3084 26.9638 20.4473 26.8944L24 25.118L27.5527 26.8944C27.7052 26.9707 27.8746 27.0067 28.0449 26.999C28.2152 26.9913 28.3807 26.9403 28.5257 26.8507C28.6707 26.7611 28.7904 26.6359 28.8734 26.487C28.9564 26.3381 29 26.1705 29 26V7C28.9994 6.46975 28.7885 5.9614 28.4135 5.58646C28.0386 5.21151 27.5302 5.00061 27 5ZM22.5 18H9.5C9.23478 18 8.98043 17.8946 8.79289 17.7071C8.60536 17.5196 8.5 17.2652 8.5 17C8.5 16.7348 8.60536 16.4804 8.79289 16.2929C8.98043 16.1054 9.23478 16 9.5 16H22.5C22.7652 16 23.0196 16.1054 23.2071 16.2929C23.3946 16.4804 23.5 16.7348 23.5 17C23.5 17.2652 23.3946 17.5196 23.2071 17.7071C23.0196 17.8946 22.7652 18 22.5 18ZM22.5 14H9.5C9.23478 14 8.98043 13.8946 8.79289 13.7071C8.60536 13.5196 8.5 13.2652 8.5 13C8.5 12.7348 8.60536 12.4804 8.79289 12.2929C8.98043 12.1054 9.23478 12 9.5 12H22.5C22.7652 12 23.0196 12.1054 23.2071 12.2929C23.3946 12.4804 23.5 12.7348 23.5 13C23.5 13.2652 23.3946 13.5196 23.2071 13.7071C23.0196 13.8946 22.7652 14 22.5 14Z" fill="black"/>
</svg>
