<svg   viewBox="0 0 32 32" fill="none" xmlns="http://www.w3.org/2000/svg">
<path d="M29.9285 16.6287L25.9285 6.62866C25.9269 6.62482 25.9246 6.62146 25.923 6.61762C25.9058 6.57539 25.8857 6.5344 25.8629 6.49493C25.8611 6.49188 25.859 6.48907 25.8572 6.48602C25.8356 6.45027 25.8117 6.41592 25.7858 6.38318C25.7803 6.37616 25.775 6.36902 25.7692 6.36218C25.7417 6.32876 25.712 6.29718 25.6803 6.26763C25.6746 6.26232 25.6685 6.25763 25.6626 6.25244C25.635 6.2281 25.6062 6.2053 25.5761 6.18414C25.5676 6.17816 25.5593 6.17193 25.5507 6.16614C25.5156 6.14302 25.4792 6.12209 25.4416 6.10346C25.4331 6.0993 25.4244 6.09577 25.4158 6.09186C25.3821 6.07639 25.3477 6.06282 25.3125 6.05121C25.3044 6.04852 25.2964 6.04547 25.2882 6.04297C25.2462 6.03036 25.2034 6.02051 25.1601 6.01349C25.152 6.01221 25.1439 6.01141 25.1359 6.01025C25.0947 6.00454 25.0532 6.0014 25.0117 6.00086C25.0077 6.00086 25.004 6 25 6C24.9985 6 24.997 6.00037 24.9955 6.00037C24.9507 6.00069 24.906 6.00408 24.8617 6.01049C24.8507 6.01202 24.84 6.01409 24.8291 6.01599C24.8137 6.01868 24.7985 6.02039 24.7831 6.0238L17 7.75336V5C17 4.73478 16.8946 4.48043 16.7071 4.29289C16.5196 4.10536 16.2652 4 16 4C15.7348 4 15.4804 4.10536 15.2929 4.29289C15.1054 4.48043 15 4.73478 15 5V8.19781L6.78308 10.0238C6.76239 10.0284 6.74261 10.0347 6.72253 10.0405C6.71387 10.043 6.70502 10.045 6.69641 10.0477C6.65471 10.061 6.61393 10.077 6.57434 10.0957C6.56714 10.0991 6.56024 10.1029 6.55316 10.1065C6.51794 10.1241 6.48381 10.1437 6.45092 10.1653C6.44543 10.1689 6.43976 10.1722 6.43432 10.1759C6.39807 10.2008 6.36351 10.2281 6.33087 10.2576C6.32483 10.2631 6.31921 10.2689 6.31329 10.2745C6.28544 10.3009 6.25911 10.3288 6.23443 10.3582C6.22937 10.3643 6.224 10.3699 6.21906 10.3762C6.19224 10.4099 6.16763 10.4454 6.14539 10.4824C6.14027 10.4909 6.13556 10.4995 6.13068 10.5081C6.10911 10.5457 6.09001 10.5846 6.07349 10.6247C6.07294 10.6261 6.07209 10.6273 6.07154 10.6287L6.07032 10.6318L6.06855 10.6361L2.07153 20.6287C2.02428 20.7468 2 20.8728 2 21C2 23.9141 5.0669 25 7 25C8.9331 25 12 23.9141 12 21C12 20.8728 11.9757 20.7468 11.9285 20.6287L8.36542 11.7209L15 10.2466V26H13C12.7348 26 12.4804 26.1054 12.2929 26.2929C12.1054 26.4804 12 26.7348 12 27C12 27.2652 12.1054 27.5196 12.2929 27.7071C12.4804 27.8946 12.7348 28 13 28H19C19.2652 28 19.5196 27.8946 19.7071 27.7071C19.8946 27.5196 20 27.2652 20 27C20 26.7348 19.8946 26.4804 19.7071 26.2929C19.5196 26.1054 19.2652 26 19 26H17V9.80219L23.3682 8.38702L20.0715 16.6287C20.0243 16.7468 20 16.8728 20 17C20 19.9141 23.0669 21 25 21C26.9331 21 30 19.9141 30 17C30 16.8728 29.9757 16.7468 29.9285 16.6287V16.6287ZM4.07703 21L7 13.6926L9.92297 21H4.07703ZM22.077 17L25 9.69263L27.923 17H22.077Z" fill="black"/>
</svg>
