<svg   viewBox="0 0 32 32" fill="none" xmlns="http://www.w3.org/2000/svg">
<path d="M12 27C12 27.3956 11.8827 27.7822 11.6629 28.1111C11.4432 28.44 11.1308 28.6964 10.7654 28.8478C10.3999 28.9991 9.99778 29.0387 9.60982 28.9616C9.22186 28.8844 8.86549 28.6939 8.58579 28.4142C8.30608 28.1345 8.1156 27.7781 8.03843 27.3902C7.96126 27.0022 8.00087 26.6001 8.15224 26.2346C8.30362 25.8692 8.55996 25.5568 8.88886 25.3371C9.21776 25.1173 9.60444 25 10 25C10.5304 25 11.0391 25.2107 11.4142 25.5858C11.7893 25.9609 12 26.4696 12 27V27ZM23 25C22.6044 25 22.2178 25.1173 21.8889 25.3371C21.56 25.5568 21.3036 25.8692 21.1522 26.2346C21.0009 26.6001 20.9613 27.0022 21.0384 27.3902C21.1156 27.7781 21.3061 28.1345 21.5858 28.4142C21.8655 28.6939 22.2219 28.8844 22.6098 28.9616C22.9978 29.0387 23.3999 28.9991 23.7654 28.8478C24.1308 28.6964 24.4432 28.44 24.6629 28.1111C24.8827 27.7822 25 27.3956 25 27C25 26.4696 24.7893 25.9609 24.4142 25.5858C24.0391 25.2107 23.5304 25 23 25V25ZM28.5126 8.39783C28.4194 8.27425 28.2988 8.17399 28.1602 8.10495C28.0217 8.03592 27.869 7.99999 27.7142 8H6.04004L5.02588 4.4505C4.90519 4.03334 4.65257 3.66652 4.30587 3.40502C3.95916 3.14351 3.53705 3.00141 3.10278 3H1C0.734784 3 0.48043 3.10536 0.292893 3.29289C0.105357 3.48043 0 3.73478 0 4C0 4.26522 0.105357 4.51957 0.292893 4.70711C0.48043 4.89464 0.734784 5 1 5H3.10278L4.31909 9.25684C4.32239 9.26916 4.32581 9.28143 4.32959 9.29364L7.62402 20.8241C7.80494 21.4499 8.18383 22.0002 8.70388 22.3925C9.22393 22.7848 9.85713 22.9979 10.5085 23H22.4915C23.1429 22.9979 23.7761 22.7848 24.2961 22.3925C24.8162 22.0002 25.195 21.4499 25.376 20.8242L28.6758 9.27472C28.7183 9.12589 28.7257 8.96923 28.6974 8.81707C28.669 8.66491 28.6058 8.52139 28.5126 8.39783Z" fill="black"/>
</svg>
