<svg viewBox="0 0 32 32" xmlns="http://www.w3.org/2000/svg">
<path d="M27.9839 8.17889L26.4642 16.5367C26.3388 17.228 25.9746 17.8534 25.4352 18.3036C24.8958 18.7538 24.2153 19.0003 23.5127 19H9.01642L9.56189 22H23C23.6372 21.9997 24.258 22.2022 24.7725 22.5782C25.287 22.9542 25.6685 23.4842 25.8616 24.0915C26.0548 24.6988 26.0497 25.3517 25.8471 25.9559C25.6445 26.5601 25.2548 27.0841 24.7345 27.452C24.2142 27.82 23.5903 28.0128 22.9532 28.0025C22.316 27.9923 21.6987 27.7795 21.1905 27.395C20.6823 27.0105 20.3097 26.4743 20.1266 25.8639C19.9435 25.2535 19.9594 24.6007 20.172 24H12.828C13.0042 24.4965 13.0466 25.0307 12.9508 25.5488C12.855 26.0669 12.6245 26.5506 12.2825 26.9514C11.9404 27.3521 11.4988 27.6557 11.0022 27.8316C10.5056 28.0075 9.97138 28.0496 9.45334 27.9535C8.9353 27.8575 8.45169 27.6267 8.05115 27.2844C7.65061 26.9421 7.34727 26.5004 7.17163 26.0037C6.99598 25.5069 6.95424 24.9727 7.0506 24.4547C7.14695 23.9367 7.378 23.4533 7.72052 23.0529L4.25635 4H2C1.73478 4 1.48043 3.89464 1.29289 3.70711C1.10536 3.51957 1 3.26522 1 3C1 2.73478 1.10536 2.48043 1.29289 2.29289C1.48043 2.10536 1.73478 2 2 2H4.25635C4.72479 1.99979 5.17843 2.16411 5.53808 2.46426C5.89772 2.76442 6.14053 3.18135 6.22412 3.64227L6.8346 7H27C27.1465 7.00001 27.2911 7.0322 27.4238 7.09428C27.5565 7.15637 27.6739 7.24683 27.7677 7.35928C27.8616 7.47173 27.9296 7.60343 27.9669 7.74506C28.0043 7.88668 28.0101 8.03478 27.9839 8.17889V8.17889Z"/>
</svg>
