<svg viewBox="0 0 32 32" xmlns="http://www.w3.org/2000/svg">
<path d="M9 28.5C9 28.7967 8.91203 29.0867 8.74721 29.3334C8.58238 29.58 8.34811 29.7723 8.07403 29.8858C7.79994 29.9994 7.49834 30.0291 7.20737 29.9712C6.91639 29.9133 6.64912 29.7704 6.43934 29.5607C6.22956 29.3509 6.0867 29.0836 6.02882 28.7926C5.97094 28.5017 6.00065 28.2001 6.11418 27.926C6.22771 27.6519 6.41997 27.4176 6.66665 27.2528C6.91332 27.088 7.20333 27 7.5 27C7.89783 27 8.27936 27.158 8.56066 27.4393C8.84197 27.7207 9 28.1022 9 28.5ZM11 23.5C10.7033 23.5 10.4133 23.588 10.1666 23.7528C9.91997 23.9176 9.72771 24.1519 9.61418 24.426C9.50065 24.7001 9.47094 25.0017 9.52882 25.2926C9.5867 25.5836 9.72956 25.8509 9.93934 26.0607C10.1491 26.2704 10.4164 26.4133 10.7074 26.4712C10.9983 26.5291 11.2999 26.4994 11.574 26.3858C11.8481 26.2723 12.0824 26.08 12.2472 25.8334C12.412 25.5867 12.5 25.2967 12.5 25C12.5 24.6022 12.342 24.2207 12.0607 23.9393C11.7794 23.658 11.3978 23.5 11 23.5V23.5ZM3.5 23C3.20333 23 2.91332 23.088 2.66665 23.2528C2.41997 23.4176 2.22771 23.6519 2.11418 23.926C2.00065 24.2001 1.97094 24.5017 2.02882 24.7926C2.0867 25.0836 2.22956 25.3509 2.43934 25.5607C2.64912 25.7704 2.91639 25.9133 3.20737 25.9712C3.49834 26.0291 3.79994 25.9994 4.07403 25.8858C4.34811 25.7723 4.58238 25.58 4.7472 25.3334C4.91203 25.0867 5 24.7967 5 24.5C5 24.1022 4.84197 23.7207 4.56066 23.4393C4.27936 23.158 3.89783 23 3.5 23ZM8.5 21C8.5 20.7033 8.41203 20.4133 8.24721 20.1667C8.08238 19.92 7.84811 19.7277 7.57403 19.6142C7.29994 19.5007 6.99834 19.471 6.70737 19.5288C6.41639 19.5867 6.14912 19.7296 5.93934 19.9393C5.72956 20.1491 5.5867 20.4164 5.52882 20.7074C5.47094 20.9983 5.50065 21.2999 5.61418 21.574C5.72771 21.8481 5.91997 22.0824 6.16665 22.2472C6.41332 22.412 6.70333 22.5 7 22.5C7.39783 22.5 7.77936 22.342 8.06066 22.0607C8.34197 21.7794 8.5 21.3978 8.5 21V21ZM31 4.00001H27.4142C27.1514 3.99929 26.8912 4.05069 26.6484 4.15125C26.4057 4.2518 26.1853 4.39951 26 4.58582L22.5195 8.06629L6.75232 10.6942C6.38985 10.7546 6.05103 10.9137 5.77306 11.1541C5.49509 11.3944 5.28871 11.7067 5.17656 12.0566C5.06442 12.4066 5.05086 12.7806 5.13736 13.1378C5.22387 13.4949 5.40709 13.8213 5.66693 14.0812L17.9188 26.333C18.1787 26.5929 18.5051 26.7761 18.8622 26.8626C19.2194 26.9492 19.5934 26.9356 19.9434 26.8235C20.2933 26.7113 20.6056 26.505 20.846 26.227C21.0863 25.949 21.2454 25.6102 21.3058 25.2477L23.9337 9.48054V9.48048L27.4142 6.00001H31C31.2652 6.00001 31.5196 5.89465 31.7071 5.70711C31.8946 5.51958 32 5.26522 32 5.00001C32 4.73479 31.8946 4.48044 31.7071 4.2929C31.5196 4.10536 31.2652 4.00001 31 4.00001V4.00001Z"/>
</svg>
