<svg   viewBox="0 0 32 32" fill="none" xmlns="http://www.w3.org/2000/svg">
<path d="M28.9987 11.9749C28.9984 11.96 28.9975 11.9452 28.9965 11.9303C28.9949 11.9073 28.9925 11.8847 28.9894 11.8622C28.9876 11.8493 28.9858 11.8364 28.9835 11.8236C28.9788 11.7972 28.9728 11.7712 28.9661 11.7455C28.9643 11.7388 28.9635 11.732 28.9615 11.7253L27.1688 5.4505C27.0481 5.03334 26.7955 4.66652 26.4488 4.40501C26.1021 4.14351 25.68 4.00141 25.2457 4H6.75427C6.32 4.00141 5.89788 4.14352 5.55117 4.40504C5.20446 4.66655 4.95184 5.03339 4.83118 5.45056L3.03845 11.7253C3.03653 11.732 3.0357 11.7388 3.03394 11.7455C3.02716 11.7712 3.02121 11.7972 3.01648 11.8236C3.01419 11.8364 3.01239 11.8493 3.01059 11.8622C3.00748 11.8847 3.00513 11.9073 3.00354 11.9303C3.00247 11.9452 3.00165 11.96 3.00128 11.9749C3.00107 11.9833 3 11.9915 3 12V14C3.00006 14.7758 3.18083 15.541 3.52798 16.2348C3.87513 16.9286 4.37912 17.532 5 17.9972V26C5.00061 26.5302 5.21151 27.0386 5.58646 27.4135C5.9614 27.7885 6.46975 27.9994 7 28H25C25.5302 27.9994 26.0386 27.7885 26.4135 27.4135C26.7885 27.0386 26.9994 26.5302 27 26V17.9972C27.6209 17.532 28.1249 16.9286 28.472 16.2348C28.8192 15.541 28.9999 14.7758 29 14V12C29 11.9915 28.9989 11.9833 28.9987 11.9749ZM5 13H11V14C11.0003 14.5161 10.8674 15.0236 10.6141 15.4733C10.3608 15.923 9.99573 16.2997 9.55417 16.5669C9.1126 16.8341 8.60953 16.9828 8.09365 16.9986C7.57776 17.0144 7.06654 16.8967 6.60947 16.657C6.54007 16.6031 6.46387 16.5587 6.38284 16.5248C5.95912 16.2537 5.6104 15.8803 5.36875 15.4391C5.1271 14.9979 5.0003 14.503 5 14V13ZM19 14C19 14.7956 18.6839 15.5587 18.1213 16.1213C17.5587 16.6839 16.7956 17 16 17C15.2044 17 14.4413 16.6839 13.8787 16.1213C13.3161 15.5587 13 14.7956 13 14V13H19V14ZM25.6165 16.5252C25.536 16.559 25.4603 16.6031 25.3913 16.6566C24.9342 16.8965 24.423 17.0143 23.907 16.9986C23.391 16.9829 22.8879 16.8343 22.4462 16.5671C22.0045 16.2999 21.6393 15.9232 21.386 15.4735C21.1326 15.0237 20.9997 14.5162 21 14V13H27V14C26.9997 14.5032 26.8728 14.9982 26.6311 15.4395C26.3893 15.8807 26.0404 16.2541 25.6165 16.5252V16.5252Z" fill="black"/>
</svg>
