<svg viewBox="0 0 32 32" xmlns="http://www.w3.org/2000/svg">
<path d="M30.0036 15.8578L16.9471 2.80127C16.7146 2.56806 16.4279 2.39605 16.1126 2.30061C15.7974 2.20516 15.4635 2.18924 15.1406 2.25427L5.05869 4.27063C4.86513 4.30939 4.68737 4.40455 4.54778 4.54414C4.40819 4.68373 4.31303 4.86149 4.27427 5.05505L2.25791 15.137C2.193 15.4598 2.20897 15.7938 2.30441 16.109C2.39986 16.4242 2.5718 16.7109 2.80491 16.9435L15.8613 29.9999C16.047 30.1856 16.2675 30.333 16.5102 30.4335C16.7528 30.5341 17.0129 30.5858 17.2756 30.5858C17.5383 30.5858 17.7983 30.5341 18.041 30.4336C18.2837 30.3331 18.5042 30.1857 18.6899 30L30.0035 18.6864C30.1893 18.5007 30.3366 18.2802 30.4372 18.0375C30.5377 17.7949 30.5894 17.5348 30.5895 17.2721C30.5895 17.0095 30.5377 16.7494 30.4372 16.5067C30.3367 16.264 30.1894 16.0435 30.0036 15.8578V15.8578ZM10.5029 12C10.2062 12 9.91623 11.912 9.66955 11.7472C9.42288 11.5824 9.23062 11.3481 9.11709 11.074C9.00356 10.7999 8.97385 10.4983 9.03173 10.2074C9.08961 9.91639 9.23247 9.64912 9.44225 9.43934C9.65203 9.22956 9.9193 9.0867 10.2103 9.02882C10.5012 8.97095 10.8028 9.00065 11.0769 9.11418C11.351 9.22771 11.5853 9.41997 11.7501 9.66665C11.9149 9.91332 12.0029 10.2033 12.0029 10.5C12.0029 10.8978 11.8449 11.2794 11.5636 11.5607C11.2823 11.842 10.9007 12 10.5029 12Z"/>
</svg>
