<svg viewBox="0 0 32 32" xmlns="http://www.w3.org/2000/svg">
<path d="M29.4623 17.1084L24.1289 25.1084C23.9465 25.3826 23.6991 25.6074 23.4088 25.7628C23.1185 25.9181 22.7942 25.9993 22.4649 25.9989H3.00002C2.81902 25.9989 2.64141 25.9498 2.48614 25.8568C2.33086 25.7638 2.20375 25.6304 2.11834 25.4708C2.03294 25.3112 1.99245 25.1314 2.00119 24.9506C2.00993 24.7698 2.06758 24.5948 2.16799 24.4442L7.79811 16L2.16793 7.55359C2.06753 7.40299 2.0099 7.22796 2.00116 7.04717C1.99243 6.86638 2.03293 6.68661 2.11834 6.52703C2.20375 6.36745 2.33087 6.23404 2.48614 6.14103C2.64142 6.04803 2.81902 5.9989 3.00002 5.9989H22.4649C22.7942 5.99855 23.1185 6.07969 23.4088 6.23509C23.6992 6.39049 23.9466 6.61531 24.1289 6.88953L29.4623 14.8895C29.682 15.2178 29.7992 15.604 29.7992 15.999C29.7992 16.394 29.682 16.7801 29.4623 17.1084Z"/>
</svg>
