<svg   viewBox="0 0 32 32" fill="none" xmlns="http://www.w3.org/2000/svg">
<path d="M30.832 15.4453L25.129 6.89069C24.9467 6.61645 24.6993 6.39159 24.4089 6.23617C24.1185 6.08075 23.7942 5.9996 23.4648 5.99994H5C4.46975 6.00055 3.9614 6.21145 3.58646 6.5864C3.21151 6.96134 3.00061 7.46969 3 7.99994V23.9999C3.00061 24.5302 3.21151 25.0385 3.58646 25.4135C3.9614 25.7884 4.46975 25.9993 5 25.9999H23.4648C23.7942 26.0003 24.1185 25.9192 24.4089 25.7638C24.6993 25.6084 24.9467 25.3836 25.129 25.1093L25.1289 25.1094L30.832 16.5546C30.9416 16.3904 31 16.1974 31 15.9999C31 15.8025 30.9416 15.6095 30.832 15.4453V15.4453Z" fill="black"/>
</svg>
