<svg viewBox="0 0 32 32" xmlns="http://www.w3.org/2000/svg">
<path d="M28.3989 13.06C28.8502 12.9672 29.2558 12.7217 29.5474 12.365C29.839 12.0082 29.9988 11.562 30 11.1012V8C29.9994 7.46975 29.7885 6.9614 29.4135 6.58646C29.0386 6.21151 28.5302 6.00061 28 6H4C3.46975 6.00061 2.9614 6.21151 2.58646 6.58646C2.21151 6.9614 2.00061 7.46975 2 8V11.1012C2.00118 11.562 2.16101 12.0082 2.4526 12.365C2.7442 12.7217 3.14977 12.9672 3.60107 13.06C4.2784 13.1987 4.88706 13.5671 5.32416 14.1027C5.76126 14.6384 5.99999 15.3086 5.99999 16C5.99999 16.6914 5.76126 17.3616 5.32416 17.8973C4.88706 18.4329 4.2784 18.8013 3.60107 18.94C3.14977 19.0328 2.7442 19.2783 2.4526 19.635C2.16101 19.9918 2.00118 20.438 2 20.8988V24C2.00061 24.5302 2.21151 25.0386 2.58646 25.4135C2.9614 25.7885 3.46975 25.9994 4 26H28C28.5302 25.9994 29.0386 25.7885 29.4135 25.4135C29.7885 25.0386 29.9994 24.5302 30 24V20.8988C29.9988 20.438 29.839 19.9918 29.5474 19.635C29.2558 19.2783 28.8502 19.0328 28.3989 18.94C27.7216 18.8013 27.1129 18.4329 26.6758 17.8973C26.2387 17.3616 26 16.6914 26 16C26 15.3086 26.2387 14.6384 26.6758 14.1027C27.1129 13.5671 27.7216 13.1987 28.3989 13.06V13.06ZM4 20.8998C5.12921 20.6692 6.14411 20.0556 6.873 19.1629C7.60188 18.2701 8 17.153 8 16.0005C8 14.848 7.60188 13.7308 6.873 12.8381C6.14411 11.9453 5.12921 11.3318 4 11.1012V8H11V24H4V20.8998Z"/>
</svg>
