<svg viewBox="0 0 32 32" xmlns="http://www.w3.org/2000/svg">
<path d="M29.3728 8.66614C29.1851 8.45667 28.9554 8.28909 28.6987 8.17432C28.4419 8.05954 28.1638 8.00015 27.8826 8H21.915C21.6789 6.60197 20.9553 5.33275 19.8725 4.41747C18.7897 3.50218 17.4177 3 15.9999 3C14.5821 3 13.2101 3.50218 12.1273 4.41747C11.0445 5.33275 10.3209 6.60197 10.0848 8H4.11721C3.83593 8 3.55782 8.05933 3.30103 8.17412C3.04424 8.2889 2.81455 8.45656 2.62696 8.66615C2.43937 8.87573 2.29809 9.12252 2.21236 9.39041C2.12663 9.6583 2.09836 9.94127 2.12941 10.2208L3.90712 26.2209C3.96105 26.7102 4.19375 27.1625 4.5606 27.4908C4.92744 27.8191 5.4026 28.0005 5.89492 28H26.1049C26.5972 28.0005 27.0724 27.8191 27.4392 27.4908C27.8061 27.1624 28.0388 26.7102 28.0927 26.2208L29.8704 10.2208C29.9013 9.94127 29.8729 9.65834 29.7872 9.39047C29.7015 9.1226 29.5603 8.8758 29.3728 8.66614V8.66614ZM15.9999 5C16.8864 5.00114 17.7476 5.29624 18.4485 5.8391C19.1494 6.38195 19.6505 7.14192 19.8733 8H12.1265C12.3493 7.14192 12.8504 6.38195 13.5513 5.8391C14.2522 5.29624 15.1134 5.00114 15.9999 5V5Z"/>
</svg>
