<svg viewBox="0 0 32 32" xmlns="http://www.w3.org/2000/svg">
<path d="M30.6773 7.66241L24.4987 4.13177C24.4963 4.13037 24.4937 4.1294 24.4912 4.12799C24.4715 4.11688 24.451 4.10693 24.4304 4.09716C24.4207 4.09256 24.4111 4.08746 24.4014 4.08319C24.3827 4.07507 24.3635 4.06817 24.3443 4.06119C24.3319 4.05664 24.3196 4.0516 24.3071 4.04758C24.2922 4.04282 24.2768 4.03918 24.2616 4.03509C24.2442 4.03043 24.227 4.02542 24.2096 4.02173C24.1988 4.01947 24.1877 4.01807 24.1768 4.01614C24.1545 4.01221 24.1323 4.00836 24.11 4.00595C24.1012 4.00501 24.0922 4.00479 24.0834 4.00409C24.0588 4.00211 24.0343 4.00052 24.0098 4.00037C24.0073 4.00037 24.005 4 24.0025 4H20.0025C19.8712 4 19.7412 4.02586 19.6199 4.07611C19.4985 4.12637 19.3883 4.20003 19.2954 4.29288C19.2026 4.38574 19.1289 4.49598 19.0787 4.61731C19.0284 4.73864 19.0025 4.86868 19.0025 5C19.0025 5.79565 18.6865 6.55871 18.1239 7.12132C17.5613 7.68393 16.7982 8 16.0025 8C15.2069 8 14.4438 7.68393 13.8812 7.12132C13.3186 6.55871 13.0025 5.79565 13.0025 5C13.0025 4.86868 12.9767 4.73864 12.9264 4.61731C12.8762 4.49598 12.8025 4.38574 12.7097 4.29288C12.6168 4.20003 12.5066 4.12637 12.3852 4.07611C12.2639 4.02586 12.1339 4 12.0025 4H8.00254C7.99932 4 7.99622 4.00046 7.993 4.00049C7.97199 4.00067 7.95099 4.00214 7.92997 4.00366C7.9177 4.00455 7.90531 4.00494 7.89316 4.00626C7.87424 4.00833 7.85541 4.01172 7.83654 4.01489C7.82233 4.01727 7.80799 4.01913 7.79398 4.02212C7.77935 4.02524 7.76487 4.02954 7.75031 4.03336C7.7324 4.03802 7.71439 4.04236 7.69687 4.04797C7.68619 4.05142 7.67571 4.05579 7.66511 4.05963C7.6442 4.06711 7.62336 4.07465 7.60314 4.08347C7.59408 4.08743 7.58521 4.09219 7.57621 4.09644C7.55507 4.10645 7.53409 4.11664 7.5138 4.12802C7.51136 4.1294 7.50882 4.13037 7.50638 4.13177L1.32767 7.66241C0.883992 7.91624 0.554271 8.33023 0.406159 8.81946C0.258047 9.30868 0.302774 9.83604 0.531163 10.2933L2.8317 14.8943C2.99678 15.2274 3.25188 15.5075 3.56807 15.7029C3.88426 15.8983 4.24888 16.0013 4.62058 16H7.00254V26C7.00314 26.5302 7.21405 27.0386 7.58899 27.4135C7.96394 27.7885 8.47229 27.9994 9.00254 28H23.0025C23.5328 27.9994 24.0411 27.7885 24.4161 27.4135C24.791 27.0386 25.0019 26.5302 25.0025 26V16H27.3845C27.7562 16.0013 28.1208 15.8984 28.437 15.7029C28.7531 15.5075 29.0082 15.2274 29.1733 14.8944L31.474 10.2933C31.7023 9.83597 31.747 9.30861 31.5989 8.8194C31.4508 8.33019 31.121 7.91621 30.6773 7.66241V7.66241ZM4.62058 14L2.32004 9.39886L7.00254 6.72317V14H4.62058ZM27.3845 14H25.0025V6.72317L29.6851 9.39892L27.3845 14Z"/>
</svg>
