<svg   viewBox="0 0 32 32" fill="none" xmlns="http://www.w3.org/2000/svg">
<path d="M26.214 13.7516L22.9568 2.71692C22.8957 2.50992 22.7693 2.32825 22.5964 2.19903C22.4235 2.06982 22.2135 1.99999 21.9977 2H9.99767C9.78185 1.99999 9.57182 2.06982 9.39895 2.19903C9.22608 2.32825 9.09966 2.50992 9.03856 2.71692L5.78136 13.7517C5.50946 14.671 5.57695 15.6575 5.97155 16.5312C6.77605 18.3025 8.03476 19.8295 9.61998 20.9572C11.2052 22.085 13.0605 22.7733 14.9977 22.9525V28H10.9977C10.7325 28 10.4781 28.1054 10.2906 28.2929C10.103 28.4804 9.99767 28.7348 9.99767 29C9.99767 29.2652 10.103 29.5196 10.2906 29.7071C10.4781 29.8946 10.7325 30 10.9977 30H20.9977C21.2629 30 21.5172 29.8946 21.7048 29.7071C21.8923 29.5196 21.9977 29.2652 21.9977 29C21.9977 28.7348 21.8923 28.4804 21.7048 28.2929C21.5172 28.1054 21.2629 28 20.9977 28H16.9977V22.9525C18.9348 22.7733 20.7902 22.085 22.3754 20.9572C23.9606 19.8294 25.2193 18.3024 26.0238 16.5311C26.4184 15.6574 26.4859 14.671 26.214 13.7516V13.7516ZM16.4449 12.1056C13.1724 10.4694 10.5457 10.4704 8.70635 10.907L10.7451 4H21.2502L23.8518 12.8135C22.5048 13.3751 19.9672 13.8667 16.4449 12.1056Z" fill="black"/>
</svg>
