<svg   viewBox="0 0 32 32" fill="none" xmlns="http://www.w3.org/2000/svg">
<path d="M16.0002 20L22 27H10L16.0002 20Z" stroke="black" stroke-width="2" stroke-linecap="round" stroke-linejoin="round"/>
<path d="M8 24H6C5.46957 24 4.96086 23.7893 4.58579 23.4142C4.21071 23.0391 4 22.5304 4 22V8C4 7.46957 4.21071 6.96086 4.58579 6.58579C4.96086 6.21071 5.46957 6 6 6H26C26.5304 6 27.0391 6.21071 27.4142 6.58579C27.7893 6.96086 28 7.46957 28 8V22C28 22.5304 27.7893 23.0391 27.4142 23.4142C27.0391 23.7893 26.5304 24 26 24H24" stroke="black" stroke-width="2" stroke-linecap="round" stroke-linejoin="round"/>
</svg>
