<svg viewBox="0 0 32 32" xmlns="http://www.w3.org/2000/svg">
<path d="M26 26H6C5.46957 26 4.96086 25.7893 4.58579 25.4142C4.21071 25.0391 4 24.5304 4 24V10C4 9.46957 4.21071 8.96086 4.58579 8.58579C4.96086 8.21071 5.46957 8 6 8H9.99927L11.9993 5H19.9993L21.9993 8H26C26.5304 8 27.0391 8.21071 27.4142 8.58579C27.7893 8.96086 28 9.46957 28 10V24C28 24.5304 27.7893 25.0391 27.4142 25.4142C27.0391 25.7893 26.5304 26 26 26Z" stroke-width="2" stroke-linecap="round" stroke-linejoin="round"/>
<path d="M16 21C18.4853 21 20.5 18.9853 20.5 16.5C20.5 14.0147 18.4853 12 16 12C13.5147 12 11.5 14.0147 11.5 16.5C11.5 18.9853 13.5147 21 16 21Z" stroke-width="2" stroke-linecap="round" stroke-linejoin="round"/>
</svg>
