<svg   viewBox="0 0 32 32" fill="none" xmlns="http://www.w3.org/2000/svg">
<path d="M4.17969 3L27.8161 29" stroke="black" stroke-width="2" stroke-linecap="round" stroke-linejoin="round"/>
<path d="M11.75 5.37661L12.0011 5H20.0011L22.0011 8H26.0018C26.5322 8 27.0409 8.21071 27.416 8.58579C27.7911 8.96086 28.0018 9.46957 28.0018 10V23.2536" stroke="black" stroke-width="2" stroke-linecap="round" stroke-linejoin="round"/>
<path d="M25.0909 26H6C5.46957 26 4.96086 25.7893 4.58579 25.4142C4.21071 25.0391 4 24.5304 4 24V10C4 9.46957 4.21071 8.96086 4.58579 8.58579C4.96086 8.21071 5.46957 8 6 8H8.72726" stroke="black" stroke-width="2" stroke-linecap="round" stroke-linejoin="round"/>
<path d="M19.2674 19.5942C18.8416 20.0438 18.3275 20.4007 17.7574 20.6426C17.1873 20.8844 16.5734 21.006 15.9542 20.9997C15.3349 20.9933 14.7236 20.8593 14.1586 20.6059C13.5935 20.3524 13.0869 19.9851 12.6703 19.5269C12.2537 19.0686 11.9362 18.5294 11.7376 17.9428C11.539 17.3562 11.4637 16.7349 11.5162 16.1179C11.5688 15.5008 11.7481 14.9013 12.0431 14.3567C12.338 13.8122 12.7421 13.3344 13.2302 12.9532" stroke="black" stroke-width="2" stroke-linecap="round" stroke-linejoin="round"/>
</svg>
