<svg viewBox="0 0 32 32" xmlns="http://www.w3.org/2000/svg">
<path d="M27 6H5C4.44772 6 4 6.44772 4 7V25C4 25.5523 4.44772 26 5 26H27C27.5523 26 28 25.5523 28 25V7C28 6.44772 27.5523 6 27 6Z" stroke-width="2" stroke-linecap="round" stroke-linejoin="round"/>
<path d="M14.5 18.4495C14.0134 18.9461 13.3899 19.2866 12.7091 19.4274C12.0282 19.5683 11.3208 19.5032 10.6771 19.2404C10.0334 18.9776 9.48257 18.529 9.09482 17.9519C8.70708 17.3748 8.5 16.6953 8.5 16C8.5 15.3047 8.70708 14.6252 9.09484 14.0481C9.48259 13.471 10.0334 13.0224 10.6771 12.7596C11.3209 12.4968 12.0282 12.4317 12.7091 12.5726C13.39 12.7134 14.0134 13.0539 14.5 13.5505" stroke-width="2" stroke-linecap="round" stroke-linejoin="round"/>
<path d="M23.5 18.4495C23.0134 18.9461 22.3899 19.2866 21.7091 19.4274C21.0282 19.5683 20.3208 19.5032 19.6771 19.2404C19.0334 18.9776 18.4826 18.529 18.0948 17.9519C17.7071 17.3748 17.5 16.6953 17.5 16C17.5 15.3047 17.7071 14.6252 18.0948 14.0481C18.4826 13.471 19.0334 13.0224 19.6771 12.7596C20.3209 12.4968 21.0282 12.4317 21.7091 12.5726C22.39 12.7134 23.0134 13.0539 23.5 13.5505" stroke-width="2" stroke-linecap="round" stroke-linejoin="round"/>
</svg>
