<svg viewBox="0 0 32 32" xmlns="http://www.w3.org/2000/svg">
<path d="M16 28C22.6274 28 28 22.6274 28 16C28 9.37258 22.6274 4 16 4C9.37258 4 4 9.37258 4 16C4 22.6274 9.37258 28 16 28Z" stroke-width="2" stroke-linecap="round" stroke-linejoin="round"/>
<path d="M19.9994 19.0002C19.3696 19.8395 18.4918 20.4594 17.4901 20.7722C16.4885 21.0849 15.4139 21.0746 14.4184 20.7427C13.423 20.4107 12.5572 19.774 11.9437 18.9228C11.3301 18.0715 11 17.0487 11 15.9994C11 14.9501 11.3301 13.9274 11.9436 13.0761C12.5571 12.2248 13.4229 11.5881 14.4184 11.2561C15.4138 10.9242 16.4884 10.9139 17.4901 11.2266C18.4917 11.5393 19.3696 12.1592 19.9994 12.9986" stroke-width="2" stroke-linecap="round" stroke-linejoin="round"/>
</svg>
