<svg   viewBox="0 0 32 32" fill="none" xmlns="http://www.w3.org/2000/svg">
<path d="M22.5 19C22.5 19.663 22.2366 20.2989 21.7678 20.7678C21.2989 21.2366 20.663 21.5 20 21.5C19.337 21.5 18.7011 21.2366 18.2322 20.7678C17.7634 20.2989 17.5 19.663 17.5 19C17.5 16 21 16 21 13C21 11.6739 20.4732 10.4021 19.5355 9.46447C18.5979 8.52678 17.3261 8 16 8C14.6739 8 13.4021 8.52678 12.4645 9.46447C11.5268 10.4021 11 11.6739 11 13" stroke="black" stroke-width="2" stroke-linecap="round" stroke-linejoin="round"/>
<path d="M20.2424 27.0005C19.5216 27.8741 18.5486 28.5038 17.4565 28.8037C16.3643 29.1036 15.2062 29.059 14.1403 28.676C13.0745 28.2931 12.1528 27.5904 11.5012 26.664C10.8497 25.7375 10.5 24.6326 10.5 23.5C10.5 18.3137 6 20 6 13C6 10.3478 7.05357 7.8043 8.92893 5.92893C10.8043 4.05357 13.3478 3 16 3C18.6522 3 21.1957 4.05357 23.0711 5.92893C24.9464 7.8043 26 10.3478 26 13" stroke="black" stroke-width="2" stroke-linecap="round" stroke-linejoin="round"/>
</svg>
