<svg   viewBox="0 0 32 32" fill="none" xmlns="http://www.w3.org/2000/svg">
<path d="M6 5L26 27" stroke="black" stroke-width="2" stroke-linecap="round" stroke-linejoin="round"/>
<path d="M11.4286 10.9715C11.1451 11.6101 10.9991 12.3013 11 13" stroke="black" stroke-width="2" stroke-linecap="round" stroke-linejoin="round"/>
<path d="M10.875 4.41301C12.3931 3.50714 14.1241 3.01979 15.8918 3.00059C17.6595 2.98139 19.4007 3.43101 20.9381 4.30368C22.4755 5.17635 23.7541 6.44088 24.6438 7.96849C25.5334 9.4961 26.0024 11.2322 26.0028 13" stroke="black" stroke-width="2" stroke-linecap="round" stroke-linejoin="round"/>
<path d="M20.2424 27.0005C19.5216 27.8741 18.5486 28.5038 17.4565 28.8037C16.3643 29.1036 15.2062 29.059 14.1403 28.676C13.0745 28.2931 12.1528 27.5904 11.5013 26.664C10.8497 25.7376 10.5 24.6326 10.5 23.5C10.5 18.3137 6.00001 20 6.00001 13C5.99664 10.8826 6.66851 8.81926 7.91798 7.1098" stroke="black" stroke-width="2" stroke-linecap="round" stroke-linejoin="round"/>
<path d="M20.3813 14.8761C20.7933 14.3386 21.0104 13.6771 20.997 13C20.9964 12.2043 20.8061 11.4201 20.4417 10.7127C20.0774 10.0052 19.5496 9.39489 18.9021 8.93231C18.2546 8.46972 17.5062 8.16823 16.7188 8.05286C15.9315 7.9375 15.128 8.01158 14.375 8.26896" stroke="black" stroke-width="2" stroke-linecap="round" stroke-linejoin="round"/>
<path d="M20.8617 21.3476C20.4838 21.4859 20.0781 21.531 19.6791 21.4791C19.28 21.4272 18.8994 21.2797 18.5695 21.0493C18.2396 20.8189 17.9701 20.5123 17.784 20.1556C17.5978 19.7988 17.5005 19.4024 17.5002 19C17.4957 18.6138 17.563 18.2301 17.6987 17.8684" stroke="black" stroke-width="2" stroke-linecap="round" stroke-linejoin="round"/>
</svg>
