<svg viewBox="0 0 32 32" xmlns="http://www.w3.org/2000/svg">
<path d="M15.2625 4.79602L5.54645 15.3217C5.4146 15.4645 5.32725 15.6427 5.29506 15.8344C5.26287 16.0261 5.28725 16.223 5.3652 16.4011C5.44316 16.5791 5.57133 16.7306 5.73402 16.837C5.89671 16.9433 6.08687 17 6.28125 17H25.7133C25.9077 17 26.0978 16.9433 26.2605 16.837C26.4232 16.7306 26.5514 16.5791 26.6293 16.4011C26.7073 16.223 26.7317 16.0261 26.6995 15.8344C26.6673 15.6427 26.5799 15.4645 26.4481 15.3217L16.7321 4.79602C16.6384 4.69458 16.5248 4.61363 16.3983 4.55826C16.2719 4.50289 16.1353 4.4743 15.9973 4.4743C15.8592 4.4743 15.7227 4.50289 15.5962 4.55826C15.4697 4.61363 15.3561 4.69458 15.2625 4.79602V4.79602Z" stroke-width="2" stroke-linecap="round" stroke-linejoin="round"/>
<path d="M5 22V25C5 25.5523 5.44772 26 6 26H26C26.5523 26 27 25.5523 27 25V22C27 21.4477 26.5523 21 26 21H6C5.44772 21 5 21.4477 5 22Z" stroke-width="2" stroke-linecap="round" stroke-linejoin="round"/>
</svg>
