<svg   viewBox="0 0 32 32" fill="none" xmlns="http://www.w3.org/2000/svg">
<path d="M15.2245 4.95522L4.32545 18.3694C4.20626 18.5161 4.13109 18.6936 4.10864 18.8812C4.08619 19.0689 4.11739 19.2591 4.19863 19.4298C4.27986 19.6004 4.40779 19.7446 4.5676 19.8455C4.72741 19.9464 4.91255 20 5.10156 20H26.8996C27.0886 20 27.2738 19.9464 27.4336 19.8455C27.5934 19.7446 27.7213 19.6004 27.8026 19.4298C27.8838 19.2591 27.915 19.0689 27.8925 18.8812C27.8701 18.6936 27.7949 18.5161 27.6757 18.3694L16.7767 4.95522C16.6829 4.83982 16.5646 4.74678 16.4304 4.68288C16.2961 4.61897 16.1493 4.58582 16.0006 4.58582C15.8519 4.58582 15.7051 4.61897 15.5708 4.68288C15.4366 4.74678 15.3182 4.83982 15.2245 4.95522Z" stroke="black" stroke-width="2" stroke-linecap="round" stroke-linejoin="round"/>
<path d="M28 26H4" stroke="black" stroke-width="2" stroke-linecap="round" stroke-linejoin="round"/>
</svg>
