<svg viewBox="0 0 24 24" xmlns="http://www.w3.org/2000/svg">
<path fill-rule="evenodd" clip-rule="evenodd" d="M12.5317 13.3094C10.3916 14.953 8.00627 16.2503 5.46303 17.1536L4.99698 17.3191C3.97345 17.6826 2.89664 16.9901 2.75867 15.9381C2.41899 13.348 2.41899 10.6521 2.75867 8.06204C2.89665 7.00997 3.97345 6.31748 4.99698 6.681L5.46303 6.84652C8.00627 7.74979 10.3916 9.04706 12.5317 10.6907C12.5693 9.80792 12.645 8.92905 12.7587 8.06204C12.8966 7.00997 13.9735 6.31748 14.997 6.681L15.463 6.84652C18.0355 7.76018 20.4464 9.07696 22.6055 10.7476C23.4249 11.3816 23.4249 12.6185 22.6055 13.2525C20.4464 14.9231 18.0355 16.2399 15.463 17.1536L14.997 17.3191C13.9735 17.6826 12.8966 16.9901 12.7587 15.9381C12.645 15.0711 12.5693 14.1922 12.5317 13.3094ZM11.6876 11.9339C11.7308 11.9674 11.7308 12.0327 11.6876 12.0662C9.65422 13.6395 7.38371 14.8796 4.96101 15.7401L4.49496 15.9056C4.39475 15.9412 4.26302 15.8733 4.24593 15.743C3.92323 13.2824 3.92323 10.7177 4.24593 8.25709C4.26302 8.12679 4.39475 8.05891 4.49495 8.0945L4.961 8.26002C7.3837 9.12047 9.65423 10.3606 11.6876 11.9339ZM21.6876 11.9339C21.7308 11.9674 21.7308 12.0327 21.6876 12.0662C19.6542 13.6395 17.3837 14.8796 14.961 15.7401L14.495 15.9056C14.3948 15.9412 14.263 15.8733 14.2459 15.743C13.9232 13.2824 13.9232 10.7177 14.2459 8.25709C14.263 8.12679 14.3948 8.05891 14.495 8.0945L14.961 8.26002C17.3837 9.12047 19.6542 10.3606 21.6876 11.9339Z"/>
</svg>
