<svg   viewBox="0 0 32 32" fill="none" xmlns="http://www.w3.org/2000/svg">
<path d="M30.1915 15.1588L19.0408 7.99049C18.8897 7.89337 18.7153 7.83873 18.5358 7.83231C18.3563 7.82588 18.1784 7.8679 18.0208 7.95395C17.8632 8.04001 17.7316 8.16692 17.64 8.32136C17.5484 8.47581 17.5 8.65208 17.5 8.83166V23.1683C17.5 23.3479 17.5484 23.5242 17.64 23.6786C17.7316 23.8331 17.8632 23.96 18.0208 24.046C18.1784 24.1321 18.3563 24.1741 18.5358 24.1677C18.7153 24.1613 18.8897 24.1066 19.0408 24.0095L30.1915 16.8412C30.3324 16.7506 30.4482 16.6262 30.5285 16.4792C30.6087 16.3322 30.6507 16.1674 30.6507 16C30.6507 15.8326 30.6087 15.6678 30.5285 15.5208C30.4482 15.3738 30.3324 15.2494 30.1915 15.1588Z" stroke="black" stroke-width="2" stroke-linecap="round" stroke-linejoin="round"/>
<path d="M16.1915 15.1588L5.04076 7.99049C4.88969 7.89337 4.71527 7.83873 4.5358 7.83231C4.35633 7.82588 4.17844 7.8679 4.02081 7.95395C3.86319 8.04001 3.73165 8.16692 3.64 8.32136C3.54836 8.47581 3.5 8.65208 3.5 8.83166V23.1683C3.5 23.3479 3.54836 23.5242 3.64 23.6786C3.73165 23.8331 3.86319 23.96 4.02081 24.046C4.17844 24.1321 4.35633 24.1741 4.5358 24.1677C4.71527 24.1613 4.88969 24.1066 5.04076 24.0095L16.1915 16.8412C16.3324 16.7506 16.4482 16.6262 16.5285 16.4792C16.6087 16.3322 16.6507 16.1674 16.6507 16C16.6507 15.8326 16.6087 15.6678 16.5285 15.5208C16.4482 15.3738 16.3324 15.2494 16.1915 15.1588Z" stroke="black" stroke-width="2" stroke-linecap="round" stroke-linejoin="round"/>
</svg>
