<svg   viewBox="0 0 24 24" fill="none" xmlns="http://www.w3.org/2000/svg">
<path fill-rule="evenodd" clip-rule="evenodd" d="M1.39186 13.2524C0.572506 12.6184 0.572505 11.3814 1.39186 10.7474C3.55093 9.07684 5.96184 7.76006 8.53434 6.8464L9.00039 6.68088C10.0239 6.31736 11.1007 7.00984 11.2387 8.06192C11.3524 8.92893 11.4281 9.80779 11.4656 10.6906C13.6058 9.04693 15.9911 7.74967 18.5343 6.8464L19.0004 6.68088C20.0239 6.31736 21.1007 7.00984 21.2387 8.06192C21.5784 10.652 21.5784 13.3479 21.2387 15.9379C21.1007 16.99 20.0239 17.6825 19.0004 17.319L18.5343 17.1535C15.9911 16.2502 13.6058 14.9529 11.4656 13.3093C11.4281 14.1921 11.3524 15.0709 11.2387 15.9379C11.1007 16.99 10.0239 17.6825 9.00039 17.319L8.53434 17.1535C5.96184 16.2398 3.55093 14.923 1.39186 13.2524ZM2.3098 11.9338C2.26653 11.9673 2.26653 12.0326 2.3098 12.0661C4.34314 13.6394 6.61366 14.8795 9.03636 15.74L9.50241 15.9055C9.60262 15.9411 9.73435 15.8732 9.75144 15.7429C10.0741 13.2823 10.0741 10.7176 9.75144 8.25697C9.73435 8.12667 9.60262 8.05878 9.50242 8.09437L9.03636 8.2599C6.61367 9.12035 4.34314 10.3605 2.3098 11.9338ZM12.3098 11.9338C12.2665 11.9673 12.2665 12.0326 12.3098 12.0661C14.3431 13.6394 16.6137 14.8795 19.0364 15.74L19.5024 15.9055C19.6026 15.9411 19.7343 15.8732 19.7514 15.7429C20.0741 13.2823 20.0741 10.7176 19.7514 8.25697C19.7343 8.12667 19.6026 8.05878 19.5024 8.09437L19.0364 8.2599C16.6137 9.12035 14.3431 10.3605 12.3098 11.9338Z" fill="black"/>
</svg>
