<svg viewBox="0 0 32 32" xmlns="http://www.w3.org/2000/svg">
<path d="M28.182 17H24.182C23.6515 17 23.1428 17.2107 22.7678 17.5858C22.3927 17.9609 22.182 18.4696 22.182 19V24C22.182 24.5304 22.3927 25.0391 22.7678 25.4142C23.1428 25.7893 23.6515 26 24.182 26H26.182C26.7124 26 27.2211 25.7893 27.5962 25.4142C27.9713 25.0391 28.182 24.5304 28.182 24V17ZM28.182 17C28.182 15.4165 27.8686 13.8486 27.2598 12.3868C26.651 10.925 25.759 9.59808 24.635 8.48262C23.5111 7.36715 22.1775 6.48517 20.7111 5.88751C19.2447 5.28986 17.6745 4.98834 16.091 5.00034C14.5075 4.98834 12.9373 5.28986 11.4709 5.88751C10.0045 6.48517 8.6709 7.36715 7.54695 8.48262C6.423 9.59808 5.53093 10.925 4.92217 12.3868C4.31341 13.8486 4 15.4165 4 17V24C4 24.5304 4.21071 25.0391 4.58579 25.4142C4.96086 25.7893 5.46957 26 6 26H8C8.53043 26 9.03914 25.7893 9.41421 25.4142C9.78929 25.0391 10 24.5304 10 24V19C10 18.4696 9.78929 17.9609 9.41421 17.5858C9.03914 17.2107 8.53043 17 8 17H4" stroke-width="2" stroke-linecap="round" stroke-linejoin="round"/>
</svg>
