<svg viewBox="0 0 32 32" xmlns="http://www.w3.org/2000/svg">
<path d="M26 5H6C5.44772 5 5 5.44772 5 6V26C5 26.5523 5.44772 27 6 27H26C26.5523 27 27 26.5523 27 26V6C27 5.44772 26.5523 5 26 5Z" stroke-width="2" stroke-linecap="round" stroke-linejoin="round"/>
<path d="M27 20L21.7071 14.7071C21.5196 14.5195 21.2652 14.4142 21 14.4142C20.7348 14.4142 20.4804 14.5195 20.2929 14.7071L14.7071 20.2929C14.5196 20.4804 14.2652 20.5858 14 20.5858C13.7348 20.5858 13.4804 20.4804 13.2929 20.2929L10.7071 17.7071C10.5196 17.5195 10.2652 17.4142 10 17.4142C9.73478 17.4142 9.48043 17.5195 9.29289 17.7071L5 22" stroke-width="2" stroke-linecap="round" stroke-linejoin="round"/>
<path d="M12.5 13C13.3284 13 14 12.3284 14 11.5C14 10.6716 13.3284 10 12.5 10C11.6716 10 11 10.6716 11 11.5C11 12.3284 11.6716 13 12.5 13Z"/>
</svg>
