<svg   viewBox="0 0 24 24" fill="none" xmlns="http://www.w3.org/2000/svg">
<path fill-rule="evenodd" clip-rule="evenodd" d="M9.73374 2.6988C11.2291 2.39239 12.7711 2.39239 14.2664 2.6988C14.9133 2.83133 15.4113 3.34907 15.5187 4.00053L15.5729 4.32952C16.028 7.09121 16.028 9.90879 15.5729 12.6705L15.5187 12.9995C15.4113 13.6509 14.9133 14.1687 14.2665 14.3012C12.7711 14.6076 11.2291 14.6076 9.73374 14.3012C9.08693 14.1687 8.58888 13.6509 8.48151 12.9995L8.42729 12.6705C7.97215 9.90879 7.97215 7.09121 8.42729 4.32952L8.48151 4.00053C8.58888 3.34907 9.08693 2.83133 9.73374 2.6988ZM13.9654 4.16827C12.6686 3.90257 11.3315 3.90257 10.0348 4.16827C9.99698 4.17602 9.96783 4.20632 9.96155 4.24445L9.90733 4.57344C9.47881 7.17361 9.47881 9.82639 9.90733 12.4266L9.96155 12.7556C9.96783 12.7937 9.99698 12.824 10.0348 12.8317C11.3315 13.0974 12.6686 13.0974 13.9654 12.8317C14.0032 12.824 14.0324 12.7937 14.0386 12.7556L14.0929 12.4266C14.5214 9.82639 14.5214 7.17361 14.0929 4.57344L14.0386 4.24445C14.0324 4.20632 14.0032 4.17602 13.9654 4.16827Z" fill="black"/>
<path d="M4.89487 11.2574C5.30499 11.1993 5.68456 11.4847 5.74268 11.8948L6.19318 15.0741C6.3149 15.9331 6.99582 16.6047 7.8564 16.7146C10.6077 17.0661 13.3925 17.0661 16.1438 16.7146C17.0044 16.6047 17.6853 15.9331 17.807 15.0741L18.2575 11.8948C18.3156 11.4847 18.6952 11.1993 19.1053 11.2574C19.5154 11.3155 19.8008 11.6951 19.7427 12.1052L19.2922 15.2845C19.0757 16.8124 17.8645 18.007 16.3338 18.2025C15.1436 18.3546 13.9474 18.4437 12.7501 18.47V22.5C12.7501 22.9142 12.4143 23.25 12.0001 23.25C11.5859 23.25 11.2501 22.9142 11.2501 22.5V18.47C10.0528 18.4437 8.8566 18.3546 7.66635 18.2025C6.13565 18.007 4.92452 16.8124 4.70802 15.2845L4.25751 12.1052C4.1994 11.6951 4.48475 11.3155 4.89487 11.2574Z" fill="black"/>
</svg>
