<svg   viewBox="0 0 32 32" fill="none" xmlns="http://www.w3.org/2000/svg">
<path d="M22.0531 22.6602C20.8259 23.7755 19.3143 24.5301 17.6853 24.8407C16.0563 25.1513 14.3732 25.0058 12.8216 24.4203C11.2701 23.8348 9.91047 22.832 8.89282 21.5226C7.87518 20.2132 7.23906 18.6481 7.05469 17" stroke="black" stroke-width="2" stroke-linecap="round" stroke-linejoin="round"/>
<path d="M19.3628 19.7002C18.4435 20.5381 17.2439 21.0017 16 21H16C14.6739 21 13.4021 20.4732 12.4645 19.5355C11.5268 18.5978 11 17.3261 11 16V10.5002" stroke="black" stroke-width="2" stroke-linecap="round" stroke-linejoin="round"/>
<path d="M16 25V29" stroke="black" stroke-width="2" stroke-linecap="round" stroke-linejoin="round"/>
<path d="M6 5L26 27" stroke="black" stroke-width="2" stroke-linecap="round" stroke-linejoin="round"/>
<path d="M11.7422 5.37304C12.19 4.64726 12.8161 4.04816 13.5609 3.63278C14.3057 3.2174 15.1445 2.99956 15.9973 3H15.9973C16.6539 3 17.3041 3.12933 17.9107 3.3806C18.5174 3.63187 19.0685 4.00017 19.5328 4.46446C19.9971 4.92875 20.3654 5.47995 20.6167 6.08658C20.868 6.6932 20.9973 7.34338 20.9973 7.99999V15.5536" stroke="black" stroke-width="2" stroke-linecap="round" stroke-linejoin="round"/>
<path d="M24.9431 17C24.857 17.7803 24.6687 18.5458 24.3828 19.2769" stroke="black" stroke-width="2" stroke-linecap="round" stroke-linejoin="round"/>
</svg>
