<svg   viewBox="0 0 32 32" fill="none" xmlns="http://www.w3.org/2000/svg">
<path d="M25 5H20.5C19.9477 5 19.5 5.44772 19.5 6V26C19.5 26.5523 19.9477 27 20.5 27H25C25.5523 27 26 26.5523 26 26V6C26 5.44772 25.5523 5 25 5Z" stroke="black" stroke-width="2" stroke-linecap="round" stroke-linejoin="round"/>
<path d="M11.5 5H7C6.44772 5 6 5.44772 6 6V26C6 26.5523 6.44772 27 7 27H11.5C12.0523 27 12.5 26.5523 12.5 26V6C12.5 5.44772 12.0523 5 11.5 5Z" stroke="black" stroke-width="2" stroke-linecap="round" stroke-linejoin="round"/>
</svg>
