<svg viewBox="0 0 24 24" xmlns="http://www.w3.org/2000/svg">
<path fill-rule="evenodd" clip-rule="evenodd" d="M18.535 4.76619C19.265 5.03516 19.75 5.7307 19.75 6.50872V17.4912C19.75 18.2692 19.265 18.9648 18.535 19.2337C17.5442 19.5987 16.4558 19.5987 15.465 19.2337C14.735 18.9648 14.25 18.2692 14.25 17.4912L14.25 6.50872C14.25 5.7307 14.735 5.03516 15.465 4.76619C16.4558 4.40118 17.5442 4.40118 18.535 4.76619ZM18.25 6.50872C18.25 6.35914 18.1568 6.22542 18.0164 6.17371C17.3604 5.93201 16.6396 5.93201 15.9836 6.17371C15.8432 6.22542 15.75 6.35914 15.75 6.50872L15.75 17.4912C15.75 17.6408 15.8432 17.7745 15.9836 17.8262C16.6396 18.0679 17.3604 18.0679 18.0164 17.8262C18.1568 17.7745 18.25 17.6408 18.25 17.4912V6.50872Z"/>
<path fill-rule="evenodd" clip-rule="evenodd" d="M8.53496 4.76619C9.26501 5.03516 9.75 5.7307 9.75 6.50872L9.75 17.4912C9.75 18.2692 9.26501 18.9648 8.53496 19.2337C7.5442 19.5987 6.4558 19.5987 5.46504 19.2337C4.73499 18.9648 4.25 18.2692 4.25 17.4912L4.25 6.50872C4.25 5.7307 4.73499 5.03516 5.46504 4.76619C6.4558 4.40118 7.5442 4.40118 8.53496 4.76619ZM8.25 6.50872C8.25 6.35914 8.15676 6.22542 8.0164 6.17371C7.36035 5.93201 6.63965 5.93201 5.9836 6.17371C5.84324 6.22542 5.75 6.35914 5.75 6.50872L5.75 17.4912C5.75 17.6408 5.84324 17.7745 5.9836 17.8262C6.63965 18.0679 7.36035 18.0679 8.0164 17.8262C8.15676 17.7745 8.25 17.6408 8.25 17.4912L8.25 6.50872Z"/>
</svg>
