<svg   viewBox="0 0 32 32" fill="none" xmlns="http://www.w3.org/2000/svg">
<path d="M28.5185 15.1467L10.5215 4.14813C10.3699 4.05549 10.1963 4.00491 10.0187 4.00158C9.8411 3.99825 9.6658 4.04231 9.51085 4.1292C9.3559 4.2161 9.2269 4.34271 9.13711 4.49601C9.04733 4.6493 9 4.82375 9 5.0014V26.9986C9 27.1762 9.04733 27.3507 9.13711 27.504C9.2269 27.6573 9.3559 27.7839 9.51085 27.8708C9.6658 27.9577 9.8411 28.0017 10.0187 27.9984C10.1963 27.9951 10.3699 27.9445 10.5215 27.8518L28.5185 16.8533C28.6647 16.7639 28.7855 16.6385 28.8693 16.4891C28.9531 16.3397 28.9971 16.1713 28.9971 16C28.9971 15.8287 28.9531 15.6602 28.8693 15.5108C28.7855 15.3614 28.6647 15.236 28.5185 15.1467Z" stroke="black" stroke-width="2" stroke-linecap="round" stroke-linejoin="round"/>
</svg>
