<svg   viewBox="0 0 24 24" fill="none" xmlns="http://www.w3.org/2000/svg">
<path fill-rule="evenodd" clip-rule="evenodd" d="M19.2641 10.4837C20.256 11.2512 20.256 12.7487 19.2641 13.5162C16.2666 15.8356 12.9194 17.6637 9.34784 18.9322L8.69536 19.1639C7.44709 19.6073 6.12858 18.7627 5.95959 17.4742C5.48743 13.8739 5.48743 10.126 5.95959 6.52574C6.12858 5.23719 7.44709 4.39263 8.69536 4.83597L9.34784 5.06771C12.9194 6.33619 16.2666 8.16434 19.2641 10.4837ZM18.3462 12.3298C18.562 12.1628 18.562 11.837 18.3462 11.6701C15.4744 9.44796 12.2676 7.69648 8.84582 6.4812L8.19334 6.24947C7.86839 6.13406 7.49495 6.35401 7.44685 6.72079C6.99167 10.1915 6.99167 13.8084 7.44685 17.2791C7.49495 17.6459 7.86839 17.8658 8.19334 17.7504L8.84581 17.5187C12.2676 16.3034 15.4744 14.5519 18.3462 12.3298Z" fill="black"/>
</svg>
