<svg   viewBox="0 0 32 32" fill="none" xmlns="http://www.w3.org/2000/svg">
<path d="M1.81081 15.1588L12.9615 7.99049C13.1126 7.89337 13.287 7.83873 13.4665 7.83231C13.646 7.82588 13.8239 7.8679 13.9815 7.95395C14.1391 8.04001 14.2707 8.16692 14.3623 8.32136C14.4539 8.47581 14.5023 8.65208 14.5023 8.83166V23.1683C14.5023 23.3479 14.4539 23.5242 14.3623 23.6786C14.2707 23.8331 14.1391 23.96 13.9815 24.046C13.8239 24.1321 13.646 24.1741 13.4665 24.1677C13.287 24.1613 13.1126 24.1066 12.9615 24.0095L1.81081 16.8412C1.66995 16.7506 1.55409 16.6262 1.47385 16.4792C1.39361 16.3322 1.35156 16.1674 1.35156 16C1.35156 15.8326 1.39361 15.6678 1.47385 15.5208C1.55409 15.3738 1.66995 15.2494 1.81081 15.1588V15.1588Z" stroke="black" stroke-width="2" stroke-linecap="round" stroke-linejoin="round"/>
<path d="M15.8108 15.1588L26.9615 7.99049C27.1126 7.89337 27.287 7.83873 27.4665 7.83231C27.646 7.82588 27.8239 7.8679 27.9815 7.95395C28.1391 8.04001 28.2707 8.16692 28.3623 8.32136C28.4539 8.47581 28.5023 8.65208 28.5023 8.83166V23.1683C28.5023 23.3479 28.4539 23.5242 28.3623 23.6786C28.2707 23.8331 28.1391 23.96 27.9815 24.046C27.8239 24.1321 27.646 24.1741 27.4665 24.1677C27.287 24.1613 27.1126 24.1066 26.9615 24.0095L15.8108 16.8412C15.67 16.7506 15.5541 16.6262 15.4739 16.4792C15.3936 16.3322 15.3516 16.1674 15.3516 16C15.3516 15.8326 15.3936 15.6678 15.4739 15.5208C15.5541 15.3738 15.67 15.2494 15.8108 15.1588Z" stroke="black" stroke-width="2" stroke-linecap="round" stroke-linejoin="round"/>
</svg>
