<svg viewBox="0 0 32 32" xmlns="http://www.w3.org/2000/svg">
<path d="M4 9H6.88306C8.15645 9 9.41145 9.30398 10.5437 9.88666C11.676 10.4693 12.6528 11.3139 13.3929 12.3501L18.6071 19.6499C19.3472 20.6861 20.324 21.5307 21.4563 22.1133C22.5886 22.696 23.8436 23 25.1169 23H29" stroke-width="2" stroke-linecap="round" stroke-linejoin="round"/>
<path d="M26 6L29 9L26 12" stroke-width="2" stroke-linecap="round" stroke-linejoin="round"/>
<path d="M26 20L29 23L26 26" stroke-width="2" stroke-linecap="round" stroke-linejoin="round"/>
<path d="M18.4609 12.559L18.6102 12.3501C19.3503 11.3139 20.3271 10.4693 21.4594 9.88666C22.5916 9.30398 23.8466 9 25.12 9H29.0031" stroke-width="2" stroke-linecap="round" stroke-linejoin="round"/>
<path d="M4 23H6.88306C8.15645 23 9.41145 22.696 10.5437 22.1133C11.676 21.5307 12.6528 20.6861 13.3929 19.6499L13.5422 19.441" stroke-width="2" stroke-linecap="round" stroke-linejoin="round"/>
</svg>
