<svg   viewBox="0 0 24 24" fill="none" xmlns="http://www.w3.org/2000/svg">
<path fill-rule="evenodd" clip-rule="evenodd" d="M14.6055 10.7475C15.4249 11.3815 15.4249 12.6185 14.6055 13.2525C12.4464 14.9231 10.0355 16.2399 7.46303 17.1535L6.99698 17.3191C5.97345 17.6826 4.89664 16.9901 4.75867 15.938C4.41899 13.3479 4.41899 10.6521 4.75867 8.06199C4.89665 7.00991 5.97345 6.31743 6.99698 6.68095L7.46303 6.84647C10.0355 7.76013 12.4464 9.07691 14.6055 10.7475ZM13.6876 12.0661C13.7308 12.0327 13.7308 11.9673 13.6876 11.9339C11.6542 10.3605 9.3837 9.12042 6.961 8.25997L6.49495 8.09444C6.39475 8.05885 6.26302 8.12674 6.24593 8.25704C5.92323 10.7176 5.92323 13.2824 6.24593 15.743C6.26302 15.8733 6.39475 15.9411 6.49496 15.9056L6.96101 15.74C9.38371 14.8796 11.6542 13.6395 13.6876 12.0661Z" fill="black"/>
<path fill-rule="evenodd" clip-rule="evenodd" d="M17.9986 6.25C18.4128 6.25 18.7486 6.58579 18.7486 7V17C18.7486 17.4142 18.4128 17.75 17.9986 17.75C17.5844 17.75 17.2486 17.4142 17.2486 17V7C17.2486 6.58579 17.5844 6.25 17.9986 6.25Z" fill="black"/>
</svg>
