<svg   viewBox="0 0 32 32" fill="none" xmlns="http://www.w3.org/2000/svg">
<path d="M8.39261 15.1467L23.4749 5.92977C23.6265 5.83713 23.8 5.78655 23.9776 5.78323C24.1552 5.7799 24.3305 5.82396 24.4855 5.91085C24.6404 5.99775 24.7694 6.12436 24.8592 6.27766C24.949 6.43095 24.9963 6.6054 24.9963 6.78305V25.2169C24.9963 25.3946 24.949 25.569 24.8592 25.7223C24.7694 25.8756 24.6404 26.0022 24.4855 26.0891C24.3305 26.176 24.1552 26.2201 23.9776 26.2168C23.8 26.2134 23.6265 26.1629 23.4749 26.0702L8.39261 16.8533C8.24644 16.7639 8.12566 16.6386 8.04187 16.4892C7.95807 16.3397 7.91406 16.1713 7.91406 16C7.91406 15.8287 7.95807 15.6603 8.04187 15.5108C8.12566 15.3614 8.24644 15.236 8.39261 15.1467Z" stroke="black" stroke-width="2" stroke-linecap="round" stroke-linejoin="round"/>
<path d="M7 5V27" stroke="black" stroke-width="2" stroke-linecap="round" stroke-linejoin="round"/>
</svg>
