<svg viewBox="0 0 32 32" xmlns="http://www.w3.org/2000/svg">
<path d="M23.6037 15.1467L8.52145 5.92977C8.36986 5.83713 8.19633 5.78655 8.01871 5.78323C7.84109 5.7799 7.66579 5.82396 7.51084 5.91085C7.3559 5.99775 7.22689 6.12436 7.13711 6.27766C7.04733 6.43095 7 6.6054 7 6.78305V25.2169C7 25.3946 7.04733 25.569 7.13711 25.7223C7.22689 25.8756 7.3559 26.0022 7.51084 26.0891C7.66579 26.176 7.84109 26.2201 8.01871 26.2168C8.19633 26.2134 8.36986 26.1629 8.52145 26.0702L23.6037 16.8533C23.7499 16.7639 23.8707 16.6386 23.9545 16.4892C24.0383 16.3397 24.0823 16.1713 24.0823 16C24.0823 15.8287 24.0383 15.6603 23.9545 15.5108C23.8707 15.3614 23.7499 15.236 23.6037 15.1467V15.1467Z" stroke-width="2" stroke-linecap="round" stroke-linejoin="round"/>
<path d="M25 5V27" stroke-width="2" stroke-linecap="round" stroke-linejoin="round"/>
</svg>
