<svg viewBox="0 0 32 32" xmlns="http://www.w3.org/2000/svg">
<path d="M16 13.5L16 27" stroke-width="2" stroke-linecap="round" stroke-linejoin="round"/>
<path d="M16 5L16 8.5" stroke-width="2" stroke-linecap="round" stroke-linejoin="round"/>
<path d="M16 13.5C17.3807 13.5 18.5 12.3807 18.5 11C18.5 9.61929 17.3807 8.5 16 8.5C14.6193 8.5 13.5 9.61929 13.5 11C13.5 12.3807 14.6193 13.5 16 13.5Z" stroke-width="2" stroke-linecap="round" stroke-linejoin="round"/>
<path d="M25 23.5L25.0001 27" stroke-width="2" stroke-linecap="round" stroke-linejoin="round"/>
<path d="M25.0001 5L25 18.5" stroke-width="2" stroke-linecap="round" stroke-linejoin="round"/>
<path d="M25 23.5C26.3807 23.5 27.5 22.3807 27.5 21C27.5 19.6193 26.3807 18.5 25 18.5C23.6193 18.5 22.5 19.6193 22.5 21C22.5 22.3807 23.6193 23.5 25 23.5Z" stroke-width="2" stroke-linecap="round" stroke-linejoin="round"/>
<path d="M7.00007 19.5L7 27" stroke-width="2" stroke-linecap="round" stroke-linejoin="round"/>
<path d="M7 5L7.00007 14.5" stroke-width="2" stroke-linecap="round" stroke-linejoin="round"/>
<path d="M7 19.5C8.38071 19.5 9.5 18.3807 9.5 17C9.5 15.6193 8.38071 14.5 7 14.5C5.61929 14.5 4.5 15.6193 4.5 17C4.5 18.3807 5.61929 19.5 7 19.5Z" stroke-width="2" stroke-linecap="round" stroke-linejoin="round"/>
</svg>
