<svg   viewBox="0 0 32 32" fill="none" xmlns="http://www.w3.org/2000/svg">
<path d="M27.3594 9.63748C29.0472 11.3253 29.9954 13.6145 29.9954 16.0014C29.9954 18.3884 29.0472 20.6776 27.3594 22.3654" stroke="black" stroke-width="2" stroke-linecap="round" stroke-linejoin="round"/>
<path d="M10 11.0014V21.0014" stroke="black" stroke-width="2" stroke-linecap="round" stroke-linejoin="round"/>
<path d="M23.8281 13.173C24.5783 13.9232 24.9997 14.9406 24.9997 16.0015C24.9997 17.0623 24.5783 18.0797 23.8281 18.8299" stroke="black" stroke-width="2" stroke-linecap="round" stroke-linejoin="round"/>
<path d="M6 5L26 27" stroke="black" stroke-width="2" stroke-linecap="round" stroke-linejoin="round"/>
<path d="M19 19.3V28.0015L10 21.0015H4C3.73478 21.0015 3.48043 20.8961 3.29289 20.7086C3.10536 20.521 3 20.2667 3 20.0015V12.0015C3 11.7362 3.10536 11.4819 3.29289 11.2944C3.48043 11.1068 3.73478 11.0015 4 11.0015H10L10.8528 10.3381" stroke="black" stroke-width="2" stroke-linecap="round" stroke-linejoin="round"/>
<path d="M14.0156 7.87512L18.9961 4.0015V13.3536" stroke="black" stroke-width="2" stroke-linecap="round" stroke-linejoin="round"/>
</svg>
