<svg   viewBox="0 0 32 32" fill="none" xmlns="http://www.w3.org/2000/svg">
<path d="M30 22L23 18V14L30 10V22Z" stroke="black" stroke-width="2" stroke-linecap="round" stroke-linejoin="round"/>
<path d="M4.36719 3L28.0035 29" stroke="black" stroke-width="2" stroke-linecap="round" stroke-linejoin="round"/>
<path d="M13.8594 7.5H18.999C20.0599 7.5 21.0773 7.92143 21.8275 8.67157C22.5776 9.42172 22.999 10.4391 22.999 11.5V18" stroke="black" stroke-width="2" stroke-linecap="round" stroke-linejoin="round"/>
<path d="M23 23.5C23 23.7652 22.8946 24.0196 22.7071 24.2071C22.5196 24.3946 22.2652 24.5 22 24.5H6C4.93913 24.5 3.92172 24.0786 3.17157 23.3284C2.42143 22.5783 2 21.5609 2 20.5V8.5C2 8.23478 2.10536 7.98043 2.29289 7.79289C2.48043 7.60536 2.73478 7.5 3 7.5H8.45455" stroke="black" stroke-width="2" stroke-linecap="round" stroke-linejoin="round"/>
</svg>
