<svg viewBox="0 0 24 24" xmlns="http://www.w3.org/2000/svg">
<g clip-path="url(#clip0_61_16893)">
<path d="M21.02 5.00098H19V2.98098C19 2.44098 18.56 2.00098 18.02 2.00098H17.99C17.44 2.00098 17 2.44098 17 2.98098V5.00098H14.99C14.45 5.00098 14.01 5.44098 14 5.98098V6.01098C14 6.56098 14.44 7.00098 14.99 7.00098H17V9.01098C17 9.55098 17.44 10.001 17.99 9.99098H18.02C18.56 9.99098 19 9.55098 19 9.01098V7.00098H21.02C21.56 7.00098 22 6.56098 22 6.02098V5.98098C22 5.44098 21.56 5.00098 21.02 5.00098ZM16 9.01098V8.00098H14.99C14.46 8.00098 13.96 7.79098 13.58 7.42098C13.21 7.04098 13 6.54098 13 5.98098C13 5.62098 13.1 5.29098 13.27 5.00098H5C3.9 5.00098 3 5.90098 3 7.00098V19.001C3 20.101 3.9 21.001 5 21.001H17C18.1 21.001 19 20.101 19 19.001V10.721C18.7 10.891 18.36 11.001 17.98 11.001C16.89 10.991 16 10.101 16 9.01098ZM15.96 19.001H6C5.59 19.001 5.35 18.531 5.6 18.201L7.58 15.571C7.79 15.291 8.2 15.311 8.4 15.591L10 18.001L12.61 14.521C12.81 14.261 13.2 14.251 13.4 14.511L16.35 18.191C16.61 18.521 16.38 19.001 15.96 19.001V19.001Z"/>
</g>
<defs>
<clipPath id="clip0_61_16893">
<rect transform="translate(0 0.000976562)"/>
</clipPath>
</defs>
</svg>
