<svg viewBox="0 0 24 24" xmlns="http://www.w3.org/2000/svg">
<g clip-path="url(#clip0_61_16892)">
<path d="M3 8.00098C3 8.55098 3.45 9.00098 4 9.00098C4.55 9.00098 5 8.55098 5 8.00098V6.00098H7C7.55 6.00098 8 5.55098 8 5.00098C8 4.45098 7.55 4.00098 7 4.00098H5V2.00098C5 1.45098 4.55 1.00098 4 1.00098C3.45 1.00098 3 1.45098 3 2.00098V4.00098H1C0.45 4.00098 0 4.45098 0 5.00098C0 5.55098 0.45 6.00098 1 6.00098H3V8.00098Z"/>
<path d="M13 17.001C14.6569 17.001 16 15.6578 16 14.001C16 12.3441 14.6569 11.001 13 11.001C11.3431 11.001 10 12.3441 10 14.001C10 15.6578 11.3431 17.001 13 17.001Z"/>
<path d="M21 6.00098H17.83L16.59 4.65098C16.22 4.24098 15.68 4.00098 15.12 4.00098H8.72C8.89 4.30098 9 4.63098 9 5.00098C9 6.10098 8.1 7.00098 7 7.00098H6V8.00098C6 9.10098 5.1 10.001 4 10.001C3.63 10.001 3.3 9.89098 3 9.72098V20.001C3 21.101 3.9 22.001 5 22.001H21C22.1 22.001 23 21.101 23 20.001V8.00098C23 6.90098 22.1 6.00098 21 6.00098ZM13 19.001C10.24 19.001 8 16.761 8 14.001C8 11.241 10.24 9.00098 13 9.00098C15.76 9.00098 18 11.241 18 14.001C18 16.761 15.76 19.001 13 19.001Z"/>
</g>
<defs>
<clipPath id="clip0_61_16892">
<rect transform="translate(0 0.000976562)"/>
</clipPath>
</defs>
</svg>
