<svg   viewBox="0 0 24 24" fill="none" xmlns="http://www.w3.org/2000/svg">
<g clip-path="url(#clip0_61_16895)">
<path d="M12 2.00098C6.49 2.00098 2 6.49098 2 12.001C2 17.511 6.49 22.001 12 22.001C17.51 22.001 22 17.511 22 12.001C22 6.49098 17.51 2.00098 12 2.00098ZM12 20.001C7.59 20.001 4 16.411 4 12.001C4 7.59098 7.59 4.00098 12 4.00098C16.41 4.00098 20 7.59098 20 12.001C20 16.411 16.41 20.001 12 20.001ZM15 12.001C15 13.661 13.66 15.001 12 15.001C10.34 15.001 9 13.661 9 12.001C9 10.341 10.34 9.00098 12 9.00098C13.66 9.00098 15 10.341 15 12.001Z" fill="black"/>
</g>
<defs>
<clipPath id="clip0_61_16895">
<rect width="24" height="24" fill="white" transform="translate(0 0.000976562)"/>
</clipPath>
</defs>
</svg>
