<svg viewBox="0 0 24 24" xmlns="http://www.w3.org/2000/svg">
<g clip-path="url(#clip0_61_16896)">
<path d="M19 2.00098H5C3.9 2.00098 3 2.90098 3 4.00098V18.001C3 19.101 3.9 20.001 5 20.001H9L11.29 22.291C11.68 22.681 12.31 22.681 12.7 22.291L15 20.001H19C20.1 20.001 21 19.101 21 18.001V4.00098C21 2.90098 20.1 2.00098 19 2.00098ZM13.88 12.881L12 17.001L10.12 12.881L6 11.001L10.12 9.12098L12 5.00098L13.88 9.12098L18 11.001L13.88 12.881V12.881Z"/>
</g>
<defs>
<clipPath id="clip0_61_16896">
<rect transform="translate(0 0.000976562)"/>
</clipPath>
</defs>
</svg>
