<svg   viewBox="0 0 24 24" fill="none" xmlns="http://www.w3.org/2000/svg">
<g clip-path="url(#clip0_61_16900)">
<path d="M10 9.00098C9.45 9.00098 9 9.45098 9 10.001C9 10.551 9.45 11.001 10 11.001C10.55 11.001 11 10.551 11 10.001C11 9.45098 10.55 9.00098 10 9.00098ZM10 13.001C9.45 13.001 9 13.451 9 14.001C9 14.551 9.45 15.001 10 15.001C10.55 15.001 11 14.551 11 14.001C11 13.451 10.55 13.001 10 13.001ZM7 9.50098C6.72 9.50098 6.5 9.72098 6.5 10.001C6.5 10.281 6.72 10.501 7 10.501C7.28 10.501 7.5 10.281 7.5 10.001C7.5 9.72098 7.28 9.50098 7 9.50098ZM10 16.501C9.72 16.501 9.5 16.721 9.5 17.001C9.5 17.281 9.72 17.501 10 17.501C10.28 17.501 10.5 17.281 10.5 17.001C10.5 16.721 10.28 16.501 10 16.501ZM7 13.501C6.72 13.501 6.5 13.721 6.5 14.001C6.5 14.281 6.72 14.501 7 14.501C7.28 14.501 7.5 14.281 7.5 14.001C7.5 13.721 7.28 13.501 7 13.501ZM10 7.50098C10.28 7.50098 10.5 7.28098 10.5 7.00098C10.5 6.72098 10.28 6.50098 10 6.50098C9.72 6.50098 9.5 6.72098 9.5 7.00098C9.5 7.28098 9.72 7.50098 10 7.50098ZM14 9.00098C13.45 9.00098 13 9.45098 13 10.001C13 10.551 13.45 11.001 14 11.001C14.55 11.001 15 10.551 15 10.001C15 9.45098 14.55 9.00098 14 9.00098ZM14 7.50098C14.28 7.50098 14.5 7.28098 14.5 7.00098C14.5 6.72098 14.28 6.50098 14 6.50098C13.72 6.50098 13.5 6.72098 13.5 7.00098C13.5 7.28098 13.72 7.50098 14 7.50098ZM17 13.501C16.72 13.501 16.5 13.721 16.5 14.001C16.5 14.281 16.72 14.501 17 14.501C17.28 14.501 17.5 14.281 17.5 14.001C17.5 13.721 17.28 13.501 17 13.501ZM17 9.50098C16.72 9.50098 16.5 9.72098 16.5 10.001C16.5 10.281 16.72 10.501 17 10.501C17.28 10.501 17.5 10.281 17.5 10.001C17.5 9.72098 17.28 9.50098 17 9.50098ZM12 2.00098C6.48 2.00098 2 6.48098 2 12.001C2 17.521 6.48 22.001 12 22.001C17.52 22.001 22 17.521 22 12.001C22 6.48098 17.52 2.00098 12 2.00098ZM12 20.001C7.58 20.001 4 16.421 4 12.001C4 7.58098 7.58 4.00098 12 4.00098C16.42 4.00098 20 7.58098 20 12.001C20 16.421 16.42 20.001 12 20.001ZM14 16.501C13.72 16.501 13.5 16.721 13.5 17.001C13.5 17.281 13.72 17.501 14 17.501C14.28 17.501 14.5 17.281 14.5 17.001C14.5 16.721 14.28 16.501 14 16.501ZM14 13.001C13.45 13.001 13 13.451 13 14.001C13 14.551 13.45 15.001 14 15.001C14.55 15.001 15 14.551 15 14.001C15 13.451 14.55 13.001 14 13.001Z" fill="black"/>
</g>
<defs>
<clipPath id="clip0_61_16900">
<rect width="24" height="24" fill="white" transform="translate(0 0.000976562)"/>
</clipPath>
</defs>
</svg>
