<svg   viewBox="0 0 24 24" fill="none" xmlns="http://www.w3.org/2000/svg">
<g clip-path="url(#clip0_61_16903)">
<path d="M6 13.001C5.45 13.001 5 13.451 5 14.001C5 14.551 5.45 15.001 6 15.001C6.55 15.001 7 14.551 7 14.001C7 13.451 6.55 13.001 6 13.001ZM6 17.001C5.45 17.001 5 17.451 5 18.001C5 18.551 5.45 19.001 6 19.001C6.55 19.001 7 18.551 7 18.001C7 17.451 6.55 17.001 6 17.001ZM6 9.00098C5.45 9.00098 5 9.45098 5 10.001C5 10.551 5.45 11.001 6 11.001C6.55 11.001 7 10.551 7 10.001C7 9.45098 6.55 9.00098 6 9.00098ZM3 9.50098C2.72 9.50098 2.5 9.72098 2.5 10.001C2.5 10.281 2.72 10.501 3 10.501C3.28 10.501 3.5 10.281 3.5 10.001C3.5 9.72098 3.28 9.50098 3 9.50098ZM6 5.00098C5.45 5.00098 5 5.45098 5 6.00098C5 6.55098 5.45 7.00098 6 7.00098C6.55 7.00098 7 6.55098 7 6.00098C7 5.45098 6.55 5.00098 6 5.00098ZM21 10.501C21.28 10.501 21.5 10.281 21.5 10.001C21.5 9.72098 21.28 9.50098 21 9.50098C20.72 9.50098 20.5 9.72098 20.5 10.001C20.5 10.281 20.72 10.501 21 10.501ZM14 7.00098C14.55 7.00098 15 6.55098 15 6.00098C15 5.45098 14.55 5.00098 14 5.00098C13.45 5.00098 13 5.45098 13 6.00098C13 6.55098 13.45 7.00098 14 7.00098ZM14 3.50098C14.28 3.50098 14.5 3.28098 14.5 3.00098C14.5 2.72098 14.28 2.50098 14 2.50098C13.72 2.50098 13.5 2.72098 13.5 3.00098C13.5 3.28098 13.72 3.50098 14 3.50098ZM3 13.501C2.72 13.501 2.5 13.721 2.5 14.001C2.5 14.281 2.72 14.501 3 14.501C3.28 14.501 3.5 14.281 3.5 14.001C3.5 13.721 3.28 13.501 3 13.501ZM10 20.501C9.72 20.501 9.5 20.721 9.5 21.001C9.5 21.281 9.72 21.501 10 21.501C10.28 21.501 10.5 21.281 10.5 21.001C10.5 20.721 10.28 20.501 10 20.501ZM10 3.50098C10.28 3.50098 10.5 3.28098 10.5 3.00098C10.5 2.72098 10.28 2.50098 10 2.50098C9.72 2.50098 9.5 2.72098 9.5 3.00098C9.5 3.28098 9.72 3.50098 10 3.50098ZM10 7.00098C10.55 7.00098 11 6.55098 11 6.00098C11 5.45098 10.55 5.00098 10 5.00098C9.45 5.00098 9 5.45098 9 6.00098C9 6.55098 9.45 7.00098 10 7.00098ZM10 12.501C9.17 12.501 8.5 13.171 8.5 14.001C8.5 14.831 9.17 15.501 10 15.501C10.83 15.501 11.5 14.831 11.5 14.001C11.5 13.171 10.83 12.501 10 12.501ZM18 13.001C17.45 13.001 17 13.451 17 14.001C17 14.551 17.45 15.001 18 15.001C18.55 15.001 19 14.551 19 14.001C19 13.451 18.55 13.001 18 13.001ZM18 17.001C17.45 17.001 17 17.451 17 18.001C17 18.551 17.45 19.001 18 19.001C18.55 19.001 19 18.551 19 18.001C19 17.451 18.55 17.001 18 17.001ZM18 9.00098C17.45 9.00098 17 9.45098 17 10.001C17 10.551 17.45 11.001 18 11.001C18.55 11.001 19 10.551 19 10.001C19 9.45098 18.55 9.00098 18 9.00098ZM18 5.00098C17.45 5.00098 17 5.45098 17 6.00098C17 6.55098 17.45 7.00098 18 7.00098C18.55 7.00098 19 6.55098 19 6.00098C19 5.45098 18.55 5.00098 18 5.00098ZM21 13.501C20.72 13.501 20.5 13.721 20.5 14.001C20.5 14.281 20.72 14.501 21 14.501C21.28 14.501 21.5 14.281 21.5 14.001C21.5 13.721 21.28 13.501 21 13.501ZM14 17.001C13.45 17.001 13 17.451 13 18.001C13 18.551 13.45 19.001 14 19.001C14.55 19.001 15 18.551 15 18.001C15 17.451 14.55 17.001 14 17.001ZM14 20.501C13.72 20.501 13.5 20.721 13.5 21.001C13.5 21.281 13.72 21.501 14 21.501C14.28 21.501 14.5 21.281 14.5 21.001C14.5 20.721 14.28 20.501 14 20.501ZM10 8.50098C9.17 8.50098 8.5 9.17098 8.5 10.001C8.5 10.831 9.17 11.501 10 11.501C10.83 11.501 11.5 10.831 11.5 10.001C11.5 9.17098 10.83 8.50098 10 8.50098ZM10 17.001C9.45 17.001 9 17.451 9 18.001C9 18.551 9.45 19.001 10 19.001C10.55 19.001 11 18.551 11 18.001C11 17.451 10.55 17.001 10 17.001ZM14 12.501C13.17 12.501 12.5 13.171 12.5 14.001C12.5 14.831 13.17 15.501 14 15.501C14.83 15.501 15.5 14.831 15.5 14.001C15.5 13.171 14.83 12.501 14 12.501ZM14 8.50098C13.17 8.50098 12.5 9.17098 12.5 10.001C12.5 10.831 13.17 11.501 14 11.501C14.83 11.501 15.5 10.831 15.5 10.001C15.5 9.17098 14.83 8.50098 14 8.50098Z" fill="black"/>
</g>
<defs>
<clipPath id="clip0_61_16903">
<rect width="24" height="24" fill="white" transform="translate(0 0.000976562)"/>
</clipPath>
</defs>
</svg>
