<svg   viewBox="0 0 24 24" fill="none" xmlns="http://www.w3.org/2000/svg">
<g clip-path="url(#clip0_61_16902)">
<path d="M14 7.00098C14.5523 7.00098 15 6.55326 15 6.00098C15 5.44869 14.5523 5.00098 14 5.00098C13.4477 5.00098 13 5.44869 13 6.00098C13 6.55326 13.4477 7.00098 14 7.00098Z" fill="black"/>
<path d="M13.8 11.481L14 11.501C14.83 11.501 15.5 10.831 15.5 10.001C15.5 9.17098 14.83 8.50098 14 8.50098C13.17 8.50098 12.5 9.17098 12.5 10.001L12.52 10.201C12.61 10.871 13.13 11.391 13.8 11.481V11.481ZM14 3.50098C14.28 3.50098 14.5 3.28098 14.5 3.00098C14.5 2.72098 14.28 2.50098 14 2.50098C13.72 2.50098 13.5 2.72098 13.5 3.00098C13.5 3.28098 13.72 3.50098 14 3.50098ZM10 3.50098C10.28 3.50098 10.5 3.28098 10.5 3.00098C10.5 2.72098 10.28 2.50098 10 2.50098C9.72 2.50098 9.5 2.72098 9.5 3.00098C9.5 3.28098 9.72 3.50098 10 3.50098Z" fill="black"/>
<path d="M18 11.001C18.5523 11.001 19 10.5533 19 10.001C19 9.44869 18.5523 9.00098 18 9.00098C17.4477 9.00098 17 9.44869 17 10.001C17 10.5533 17.4477 11.001 18 11.001Z" fill="black"/>
<path d="M18 7.00098C18.5523 7.00098 19 6.55326 19 6.00098C19 5.44869 18.5523 5.00098 18 5.00098C17.4477 5.00098 17 5.44869 17 6.00098C17 6.55326 17.4477 7.00098 18 7.00098Z" fill="black"/>
<path d="M21 10.501C21.28 10.501 21.5 10.281 21.5 10.001C21.5 9.72098 21.28 9.50098 21 9.50098C20.72 9.50098 20.5 9.72098 20.5 10.001C20.5 10.281 20.72 10.501 21 10.501Z" fill="black"/>
<path d="M10 7.00098C10.5523 7.00098 11 6.55326 11 6.00098C11 5.44869 10.5523 5.00098 10 5.00098C9.44772 5.00098 9 5.44869 9 6.00098C9 6.55326 9.44772 7.00098 10 7.00098Z" fill="black"/>
<path d="M18 15.001C18.5523 15.001 19 14.5533 19 14.001C19 13.4487 18.5523 13.001 18 13.001C17.4477 13.001 17 13.4487 17 14.001C17 14.5533 17.4477 15.001 18 15.001Z" fill="black"/>
<path d="M6 19.001C6.55228 19.001 7 18.5533 7 18.001C7 17.4487 6.55228 17.001 6 17.001C5.44772 17.001 5 17.4487 5 18.001C5 18.5533 5.44772 19.001 6 19.001Z" fill="black"/>
<path d="M14 20.501C13.72 20.501 13.5 20.721 13.5 21.001C13.5 21.281 13.72 21.501 14 21.501C14.28 21.501 14.5 21.281 14.5 21.001C14.5 20.721 14.28 20.501 14 20.501ZM21 13.501C20.72 13.501 20.5 13.721 20.5 14.001C20.5 14.281 20.72 14.501 21 14.501C21.28 14.501 21.5 14.281 21.5 14.001C21.5 13.721 21.28 13.501 21 13.501ZM3 13.501C2.72 13.501 2.5 13.721 2.5 14.001C2.5 14.281 2.72 14.501 3 14.501C3.28 14.501 3.5 14.281 3.5 14.001C3.5 13.721 3.28 13.501 3 13.501Z" fill="black"/>
<path d="M10 19.001C10.5523 19.001 11 18.5533 11 18.001C11 17.4487 10.5523 17.001 10 17.001C9.44772 17.001 9 17.4487 9 18.001C9 18.5533 9.44772 19.001 10 19.001Z" fill="black"/>
<path d="M3 9.50098C2.72 9.50098 2.5 9.72098 2.5 10.001C2.5 10.281 2.72 10.501 3 10.501C3.28 10.501 3.5 10.281 3.5 10.001C3.5 9.72098 3.28 9.50098 3 9.50098ZM10 20.501C9.72 20.501 9.5 20.721 9.5 21.001C9.5 21.281 9.72 21.501 10 21.501C10.28 21.501 10.5 21.281 10.5 21.001C10.5 20.721 10.28 20.501 10 20.501Z" fill="black"/>
<path d="M6 15.001C6.55228 15.001 7 14.5533 7 14.001C7 13.4487 6.55228 13.001 6 13.001C5.44772 13.001 5 13.4487 5 14.001C5 14.5533 5.44772 15.001 6 15.001Z" fill="black"/>
<path d="M3.20656 4.56105C2.81656 4.95105 2.81656 5.58105 3.20656 5.97105L6.27656 9.04105L5.99656 9.00105C5.44656 9.00105 4.99656 9.45105 4.99656 10.0011C4.99656 10.5511 5.44656 11.0011 5.99656 11.0011C6.54656 11.0011 6.99656 10.5511 6.99656 10.0011C6.99656 9.90105 6.96656 9.81106 6.93656 9.72106L9.74656 12.5311C9.03656 12.6411 8.49656 13.2611 8.49656 14.0011C8.49656 14.8311 9.16656 15.5011 9.99656 15.5011C10.7366 15.5011 11.3566 14.9611 11.4666 14.2511L14.2766 17.0611C14.1866 17.0311 14.0966 17.0011 13.9966 17.0011C13.4466 17.0011 12.9966 17.4511 12.9966 18.0011C12.9966 18.5511 13.4466 19.0011 13.9966 19.0011C14.5466 19.0011 14.9966 18.5511 14.9966 18.0011C14.9966 17.9011 14.9666 17.8111 14.9366 17.7211L18.0166 20.7911C18.4066 21.1811 19.0366 21.1811 19.4266 20.7911C19.8166 20.4011 19.8166 19.7711 19.4266 19.3711L4.61656 4.56105C4.22656 4.17105 3.59656 4.17105 3.20656 4.56105Z" fill="black"/>
</g>
<defs>
<clipPath id="clip0_61_16902">
<rect width="24" height="24" fill="white" transform="translate(0 0.000976562)"/>
</clipPath>
</defs>
</svg>
