<svg   viewBox="0 0 24 24" fill="none" xmlns="http://www.w3.org/2000/svg">
<g clip-path="url(#clip0_61_16901)">
<path d="M5 17.501C5.83 17.501 6.5 16.831 6.5 16.001C6.5 15.171 5.83 14.501 5 14.501C4.17 14.501 3.5 15.171 3.5 16.001C3.5 16.831 4.17 17.501 5 17.501ZM9 13.001C9.55 13.001 10 12.551 10 12.001C10 11.451 9.55 11.001 9 11.001C8.45 11.001 8 11.451 8 12.001C8 12.551 8.45 13.001 9 13.001ZM9 9.00098C9.55 9.00098 10 8.55098 10 8.00098C10 7.45098 9.55 7.00098 9 7.00098C8.45 7.00098 8 7.45098 8 8.00098C8 8.55098 8.45 9.00098 9 9.00098ZM4 21.001H20C20.55 21.001 21 20.551 21 20.001C21 19.451 20.55 19.001 20 19.001H4C3.45 19.001 3 19.451 3 20.001C3 20.551 3.45 21.001 4 21.001ZM5 9.50098C5.83 9.50098 6.5 8.83098 6.5 8.00098C6.5 7.17098 5.83 6.50098 5 6.50098C4.17 6.50098 3.5 7.17098 3.5 8.00098C3.5 8.83098 4.17 9.50098 5 9.50098ZM5 13.501C5.83 13.501 6.5 12.831 6.5 12.001C6.5 11.171 5.83 10.501 5 10.501C4.17 10.501 3.5 11.171 3.5 12.001C3.5 12.831 4.17 13.501 5 13.501ZM9 17.001C9.55 17.001 10 16.551 10 16.001C10 15.451 9.55 15.001 9 15.001C8.45 15.001 8 15.451 8 16.001C8 16.551 8.45 17.001 9 17.001ZM17 16.501C17.28 16.501 17.5 16.281 17.5 16.001C17.5 15.721 17.28 15.501 17 15.501C16.72 15.501 16.5 15.721 16.5 16.001C16.5 16.281 16.72 16.501 17 16.501ZM3 4.00098C3 4.55098 3.45 5.00098 4 5.00098H20C20.55 5.00098 21 4.55098 21 4.00098C21 3.45098 20.55 3.00098 20 3.00098H4C3.45 3.00098 3 3.45098 3 4.00098ZM17 8.50098C17.28 8.50098 17.5 8.28098 17.5 8.00098C17.5 7.72098 17.28 7.50098 17 7.50098C16.72 7.50098 16.5 7.72098 16.5 8.00098C16.5 8.28098 16.72 8.50098 17 8.50098ZM17 12.501C17.28 12.501 17.5 12.281 17.5 12.001C17.5 11.721 17.28 11.501 17 11.501C16.72 11.501 16.5 11.721 16.5 12.001C16.5 12.281 16.72 12.501 17 12.501ZM13 9.00098C13.55 9.00098 14 8.55098 14 8.00098C14 7.45098 13.55 7.00098 13 7.00098C12.45 7.00098 12 7.45098 12 8.00098C12 8.55098 12.45 9.00098 13 9.00098ZM13 13.001C13.55 13.001 14 12.551 14 12.001C14 11.451 13.55 11.001 13 11.001C12.45 11.001 12 11.451 12 12.001C12 12.551 12.45 13.001 13 13.001ZM13 17.001C13.55 17.001 14 16.551 14 16.001C14 15.451 13.55 15.001 13 15.001C12.45 15.001 12 15.451 12 16.001C12 16.551 12.45 17.001 13 17.001Z" fill="black"/>
</g>
<defs>
<clipPath id="clip0_61_16901">
<rect width="24" height="24" fill="white" transform="translate(0 0.000976562)"/>
</clipPath>
</defs>
</svg>
