<svg   viewBox="0 0 24 24" fill="none" xmlns="http://www.w3.org/2000/svg">
<g clip-path="url(#clip0_61_16910)">
<path d="M20.0019 8.6909V5.0009C20.0019 4.4509 19.5519 4.0009 19.0019 4.0009H15.3119L12.7119 1.4009C12.3219 1.0109 11.6919 1.0109 11.3019 1.4009L8.69187 4.0009H5.00187C4.45187 4.0009 4.00187 4.4509 4.00187 5.0009V8.6909L1.40187 11.2909C1.01188 11.6809 1.01188 12.3109 1.40187 12.7009L4.00187 15.3009V19.0009C4.00187 19.5509 4.45187 20.0009 5.00187 20.0009H8.69187L11.2919 22.6009C11.6819 22.9909 12.3119 22.9909 12.7019 22.6009L15.3019 20.0009H19.0019C19.5519 20.0009 20.0019 19.5509 20.0019 19.0009V15.3109L22.6019 12.7109C22.9919 12.3209 22.9919 11.6909 22.6019 11.3009L20.0019 8.6909ZM12.0019 18.0009C8.69187 18.0009 6.00187 15.3109 6.00187 12.0009C6.00187 8.6909 8.69187 6.0009 12.0019 6.0009C15.3119 6.0009 18.0019 8.6909 18.0019 12.0009C18.0019 15.3109 15.3119 18.0009 12.0019 18.0009ZM12.0019 8.0009C9.79187 8.0009 8.00187 9.7909 8.00187 12.0009C8.00187 14.2109 9.79187 16.0009 12.0019 16.0009C14.2119 16.0009 16.0019 14.2109 16.0019 12.0009C16.0019 9.7909 14.2119 8.0009 12.0019 8.0009Z" fill="black"/>
</g>
<defs>
<clipPath id="clip0_61_16910">
<rect width="24" height="24" fill="white" transform="translate(0 0.000976562)"/>
</clipPath>
</defs>
</svg>
