<svg   viewBox="0 0 24 24" fill="none" xmlns="http://www.w3.org/2000/svg">
<g clip-path="url(#clip0_61_16907)">
<path d="M22.6019 11.2909L20.0019 8.6909V5.0009C20.0019 4.4509 19.5519 4.0009 19.0019 4.0009H15.3119L12.7119 1.4009C12.3219 1.0109 11.6919 1.0109 11.3019 1.4009L8.69187 4.0009H5.00187C4.45187 4.0009 4.00187 4.4509 4.00187 5.0009V8.6909L1.40187 11.2909C1.01188 11.6809 1.01188 12.3109 1.40187 12.7009L4.00187 15.3009V19.0009C4.00187 19.5509 4.45187 20.0009 5.00187 20.0009H8.69187L11.2919 22.6009C11.6819 22.9909 12.3119 22.9909 12.7019 22.6009L15.3019 20.0009H19.0019C19.5519 20.0009 20.0019 19.5509 20.0019 19.0009V15.3109L22.6019 12.7109C22.9919 12.3209 22.9919 11.6809 22.6019 11.2909V11.2909ZM17.9219 12.9809C17.5819 15.1009 16.0719 16.9209 14.0419 17.6409C12.8319 18.0709 11.6319 18.0909 10.5419 17.8209C10.1319 17.7209 10.0619 17.1709 10.4119 16.9209C11.9819 15.8409 13.0019 14.0409 13.0019 12.0009C13.0019 9.9609 11.9819 8.1609 10.4219 7.0809C10.0719 6.8409 10.1319 6.2909 10.5519 6.1809C11.6419 5.9109 12.8419 5.9309 14.0519 6.3609C16.0719 7.0809 17.5919 8.9009 17.9319 11.0209C17.9819 11.3509 18.0019 11.6809 18.0019 12.0009C17.9919 12.3209 17.9719 12.6509 17.9219 12.9809V12.9809Z" fill="black"/>
</g>
<defs>
<clipPath id="clip0_61_16907">
<rect width="24" height="24" fill="white" transform="translate(0 0.000976562)"/>
</clipPath>
</defs>
</svg>
