<svg viewBox="0 0 24 24" xmlns="http://www.w3.org/2000/svg">
<g clip-path="url(#clip0_61_16906)">
<path d="M18.8675 10.371C18.1175 5.61098 13.8675 2.02098 9.04746 2.00098C8.55746 2.00098 8.07746 2.03098 7.60746 2.10098C7.10746 2.17098 7.00746 2.83098 7.46746 3.06098C10.7475 4.69098 12.9975 8.08098 12.9975 12.001C12.9975 15.921 10.7475 19.311 7.46746 20.951C7.01746 21.181 7.10746 21.841 7.60746 21.911C8.07746 21.971 8.55746 22.001 9.04746 22.001C13.8675 21.981 18.1175 18.391 18.8675 13.631C18.9575 13.081 18.9775 12.541 18.9775 12.001C18.9775 11.461 18.9575 10.921 18.8675 10.371V10.371Z"/>
</g>
<defs>
<clipPath id="clip0_61_16906">
<rect transform="translate(0 0.000976562)"/>
</clipPath>
</defs>
</svg>
