<svg   viewBox="0 0 24 24" fill="none" xmlns="http://www.w3.org/2000/svg">
<g clip-path="url(#clip0_61_16911)">
<path d="M21 5.00098V11.591L18.71 9.29098C18.32 8.90098 17.68 8.90098 17.29 9.29098L14 12.591L10.71 9.30098C10.32 8.91098 9.69 8.91098 9.3 9.30098L6 12.591L3 9.58098V5.00098C3 3.90098 3.9 3.00098 5 3.00098H19C20.1 3.00098 21 3.90098 21 5.00098ZM18 11.421L21 14.431V19.001C21 20.101 20.1 21.001 19 21.001H5C3.9 21.001 3 20.101 3 19.001V12.421L5.29 14.711C5.68 15.101 6.31 15.101 6.7 14.711L10 11.411L13.29 14.701C13.68 15.091 14.31 15.091 14.7 14.701L18 11.421Z" fill="black"/>
</g>
<defs>
<clipPath id="clip0_61_16911">
<rect width="24" height="24" fill="white" transform="translate(0 0.000976562)"/>
</clipPath>
</defs>
</svg>
