<svg viewBox="0 0 24 24" xmlns="http://www.w3.org/2000/svg">
<g clip-path="url(#clip0_61_16913)">
<path d="M2 5.00098C2.55 5.00098 3 5.45098 3 6.00098V18.001C3 18.551 2.55 19.001 2 19.001C1.45 19.001 1 18.551 1 18.001V6.00098C1 5.45098 1.45 5.00098 2 5.00098ZM6 5.00098C6.55 5.00098 7 5.45098 7 6.00098V18.001C7 18.551 6.55 19.001 6 19.001C5.45 19.001 5 18.551 5 18.001V6.00098C5 5.45098 5.45 5.00098 6 5.00098ZM22 5.00098H10C9.45 5.00098 9 5.45098 9 6.00098V18.001C9 18.551 9.45 19.001 10 19.001H22C22.55 19.001 23 18.551 23 18.001V6.00098C23 5.45098 22.55 5.00098 22 5.00098ZM11.64 16.191L13.11 14.331C13.31 14.081 13.68 14.081 13.89 14.321L15.29 16.001L17.39 13.291C17.59 13.031 17.98 13.031 18.18 13.291L20.39 16.191C20.64 16.521 20.41 16.991 19.99 16.991H12.03C11.62 17.001 11.38 16.521 11.64 16.191Z"/>
</g>
<defs>
<clipPath id="clip0_61_16913">
<rect transform="translate(0 0.000976562)"/>
</clipPath>
</defs>
</svg>
