<svg viewBox="0 0 24 24" xmlns="http://www.w3.org/2000/svg">
<g clip-path="url(#clip0_61_16916)">
<path d="M17 0.000976562H7C5.9 0.000976562 5 0.900977 5 2.00098V16.001C5 17.101 5.9 18.001 7 18.001H17C18.1 18.001 19 17.101 19 16.001V2.00098C19 0.900977 18.1 0.000976562 17 0.000976562ZM17 12.501C17 10.831 13.67 10.001 12 10.001C10.33 10.001 7 10.831 7 12.501V3.00098C7 2.45098 7.45 2.00098 8 2.00098H16C16.55 2.00098 17 2.45098 17 3.00098V12.501ZM10.85 18.851C10.54 18.541 10 18.761 10 19.211V20.001H6C5.45 20.001 5 20.451 5 21.001C5 21.551 5.45 22.001 6 22.001H10V22.791C10 23.241 10.54 23.461 10.85 23.141L12.64 21.351C12.84 21.151 12.84 20.841 12.64 20.641L10.85 18.851V18.851ZM18 20.001H15C14.45 20.001 14 20.451 14 21.001C14 21.551 14.45 22.001 15 22.001H18C18.55 22.001 19 21.551 19 21.001C19 20.451 18.55 20.001 18 20.001ZM12 8.00098C13.1 8.00098 14 7.10098 14 6.00098C14 4.90098 13.1 4.00098 12 4.00098C10.9 4.00098 10.01 4.90098 10.01 6.00098C10.01 7.10098 10.9 8.00098 12 8.00098Z"/>
</g>
<defs>
<clipPath id="clip0_61_16916">
<rect transform="translate(0 0.000976562)"/>
</clipPath>
</defs>
</svg>
