<svg viewBox="0 0 24 24" xmlns="http://www.w3.org/2000/svg">
<g clip-path="url(#clip0_61_16918)">
<path d="M14 5.00098C14 3.90098 13.1 3.00098 12 3.00098H11V2.00098C11 1.45098 10.55 1.00098 10 1.00098H6C5.45 1.00098 5 1.45098 5 2.00098V3.00098H4C2.9 3.00098 2 3.90098 2 5.00098V20.001C2 21.101 2.9 22.001 4 22.001H12C13.1 22.001 14 21.101 14 20.001H20C21.1 20.001 22 19.101 22 18.001V7.00098C22 5.90098 21.1 5.00098 20 5.00098H14ZM12 18.001H10V16.001H12V18.001ZM12 9.00098H10V7.00098H12V9.00098ZM16 18.001H14V16.001H16V18.001ZM16 9.00098H14V7.00098H16V9.00098ZM20 18.001H18V16.001H20V18.001ZM20 9.00098H18V7.00098H20V9.00098Z"/>
</g>
<defs>
<clipPath id="clip0_61_16918">
<rect transform="translate(0 0.000976562)"/>
</clipPath>
</defs>
</svg>
