<svg   viewBox="0 0 24 24" fill="none" xmlns="http://www.w3.org/2000/svg">
<g clip-path="url(#clip0_61_16917)">
<path d="M10.85 18.851C10.54 18.541 10 18.761 10 19.211V20.001H6C5.45 20.001 5 20.451 5 21.001C5 21.551 5.45 22.001 6 22.001H10V22.791C10 23.241 10.54 23.461 10.85 23.141L12.64 21.351C12.84 21.151 12.84 20.841 12.64 20.641L10.85 18.851V18.851ZM18 20.001H15C14.45 20.001 14 20.451 14 21.001C14 21.551 14.45 22.001 15 22.001H18C18.55 22.001 19 21.551 19 21.001C19 20.451 18.55 20.001 18 20.001ZM17 0.000976562H7C5.9 0.000976562 5 0.900977 5 2.00098V16.001C5 17.101 5.9 18.001 7 18.001H17C18.1 18.001 19 17.101 19 16.001V2.00098C19 0.900977 18.1 0.000976562 17 0.000976562ZM12 6.00098C10.89 6.00098 10 5.10098 10 4.00098C10 2.90098 10.89 2.00098 11.99 2.00098C13.09 2.00098 13.99 2.90098 13.99 4.00098C14 5.10098 13.1 6.00098 12 6.00098Z" fill="black"/>
</g>
<defs>
<clipPath id="clip0_61_16917">
<rect width="24" height="24" fill="white" transform="translate(0 0.000976562)"/>
</clipPath>
</defs>
</svg>
