<svg   viewBox="0 0 24 24" fill="none" xmlns="http://www.w3.org/2000/svg">
<g clip-path="url(#clip0_61_16914)">
<path d="M13.8066 2.86074C13.9766 2.56074 13.8066 2.16074 13.4566 2.12074C10.8366 1.75074 8.15657 2.40074 6.01657 3.98074C5.82657 4.13074 5.76657 4.41074 5.89657 4.63074L8.90657 9.85074C9.09657 10.1807 9.57657 10.1807 9.77657 9.85074L13.8066 2.86074V2.86074ZM21.2966 8.33074C20.3166 5.86074 18.3766 3.87074 15.9466 2.83074C15.7166 2.73074 15.4466 2.83074 15.3166 3.05074L12.3066 8.26074C12.1166 8.58074 12.3566 9.00074 12.7466 9.00074H20.8266C21.1766 9.00074 21.4266 8.65074 21.2966 8.33074V8.33074ZM21.3666 10.0007H15.1666C14.7866 10.0007 14.5366 10.4207 14.7366 10.7507L18.9966 18.1407C19.1666 18.4407 19.5966 18.4907 19.8166 18.2207C21.5566 16.0407 22.2966 13.1907 21.8666 10.4307C21.8366 10.1807 21.6166 10.0007 21.3666 10.0007ZM4.17657 5.79074C2.44657 7.98074 1.69657 10.8107 2.12657 13.5807C2.15657 13.8207 2.37657 14.0007 2.62657 14.0007H8.82657C9.20657 14.0007 9.45657 13.5807 9.25657 13.2507L4.99657 5.87074C4.81657 5.57074 4.38657 5.52074 4.17657 5.79074ZM2.69657 15.6707C3.67657 18.1407 5.61657 20.1307 8.04657 21.1707C8.27657 21.2707 8.54657 21.1707 8.67657 20.9507L11.6866 15.7407C11.8766 15.4107 11.6366 14.9907 11.2566 14.9907H3.16657C2.81657 15.0007 2.56657 15.3507 2.69657 15.6707V15.6707ZM10.5266 21.8907C13.1466 22.2607 15.8266 21.6107 17.9666 20.0307C18.1666 19.8807 18.2266 19.5907 18.0966 19.3707L15.0866 14.1507C14.8966 13.8207 14.4166 13.8207 14.2166 14.1507L10.1766 21.1407C10.0066 21.4407 10.1866 21.8407 10.5266 21.8907V21.8907Z" fill="black"/>
</g>
<defs>
<clipPath id="clip0_61_16914">
<rect width="24" height="24" fill="white" transform="translate(0 0.000976562)"/>
</clipPath>
</defs>
</svg>
