<svg   viewBox="0 0 24 24" fill="none" xmlns="http://www.w3.org/2000/svg">
<g clip-path="url(#clip0_61_16921)">
<path d="M22 16.001V4.00098C22 2.90098 21.1 2.00098 20 2.00098H8C6.9 2.00098 6 2.90098 6 4.00098V16.001C6 17.101 6.9 18.001 8 18.001H20C21.1 18.001 22 17.101 22 16.001ZM11.4 12.531L13.03 14.711L15.61 11.491C15.81 11.241 16.19 11.241 16.39 11.491L19.35 15.191C19.61 15.521 19.38 16.001 18.96 16.001H9C8.59 16.001 8.35 15.531 8.6 15.201L10.6 12.531C10.8 12.271 11.2 12.271 11.4 12.531V12.531ZM2 7.00098V20.001C2 21.101 2.9 22.001 4 22.001H17C17.55 22.001 18 21.551 18 21.001C18 20.451 17.55 20.001 17 20.001H5C4.45 20.001 4 19.551 4 19.001V7.00098C4 6.45098 3.55 6.00098 3 6.00098C2.45 6.00098 2 6.45098 2 7.00098Z" fill="black"/>
</g>
<defs>
<clipPath id="clip0_61_16921">
<rect width="24" height="24" fill="white" transform="translate(0 0.000976562)"/>
</clipPath>
</defs>
</svg>
