<svg viewBox="0 0 24 24" xmlns="http://www.w3.org/2000/svg">
<g clip-path="url(#clip0_61_16923)">
<path d="M20.71 5.63104L18.37 3.29104C17.98 2.90104 17.35 2.90104 16.96 3.29104L13.84 6.41104L12.61 5.20104C12.22 4.81104 11.59 4.82104 11.2 5.20104C10.81 5.59104 10.81 6.22104 11.2 6.61104L11.92 7.33104L3.15 16.101C3.05 16.201 3 16.321 3 16.461V20.501C3 20.781 3.22 21.001 3.5 21.001H7.54C7.67 21.001 7.8 20.951 7.89 20.851L16.66 12.081L17.38 12.801C17.77 13.191 18.4 13.191 18.79 12.801C19.18 12.411 19.18 11.781 18.79 11.391L17.57 10.171L20.69 7.05104C21.1 6.65104 21.1 6.02104 20.71 5.63104V5.63104ZM6.92 19.001L5 17.081L13.06 9.02104L14.98 10.941L6.92 19.001Z"/>
</g>
<defs>
<clipPath id="clip0_61_16923">
<rect transform="translate(0 0.000976562)"/>
</clipPath>
</defs>
</svg>
