<svg   viewBox="0 0 24 24" fill="none" xmlns="http://www.w3.org/2000/svg">
<g clip-path="url(#clip0_61_16925)">
<path d="M10 3.00098H5C3.9 3.00098 3 3.90098 3 5.00098V19.001C3 20.101 3.9 21.001 5 21.001H10V22.001C10 22.551 10.45 23.001 11 23.001C11.55 23.001 12 22.551 12 22.001V2.00098C12 1.45098 11.55 1.00098 11 1.00098C10.45 1.00098 10 1.45098 10 2.00098V3.00098ZM10 18.001H5L10 12.001V18.001ZM19 3.00098H14V5.00098H18C18.55 5.00098 19 5.45098 19 6.00098V18.001L14 12.001V21.001H19C20.1 21.001 21 20.101 21 19.001V5.00098C21 3.90098 20.1 3.00098 19 3.00098Z" fill="black"/>
</g>
<defs>
<clipPath id="clip0_61_16925">
<rect width="24" height="24" fill="white" transform="translate(0 0.000976562)"/>
</clipPath>
</defs>
</svg>
