<svg   viewBox="0 0 24 24" fill="none" xmlns="http://www.w3.org/2000/svg">
<g clip-path="url(#clip0_61_16927)">
<path d="M15 8.00098C14.45 8.00098 14 8.45098 14 9.00098V11.001H12C11.45 11.001 11 11.451 11 12.001C11 12.551 11.45 13.001 12 13.001H14V15.001C14 15.551 14.45 16.001 15 16.001C15.55 16.001 16 15.551 16 15.001V13.001H18C18.55 13.001 19 12.551 19 12.001C19 11.451 18.55 11.001 18 11.001H16V9.00098C16 8.45098 15.55 8.00098 15 8.00098ZM2 12.001C2 9.42098 3.4 7.17098 5.48 5.96098C5.8 5.77098 6.01 5.45098 6.01 5.08098C6.01 4.31098 5.17 3.83098 4.5 4.22098C1.82 5.78098 0 8.68098 0 12.001C0 15.321 1.82 18.221 4.5 19.781C5.17 20.171 6.01 19.691 6.01 18.921C6.01 18.551 5.8 18.231 5.48 18.041C3.4 16.831 2 14.581 2 12.001ZM15 3.00098C10.04 3.00098 6 7.04098 6 12.001C6 16.961 10.04 21.001 15 21.001C19.96 21.001 24 16.961 24 12.001C24 7.04098 19.96 3.00098 15 3.00098ZM15 19.001C11.14 19.001 8 15.861 8 12.001C8 8.14098 11.14 5.00098 15 5.00098C18.86 5.00098 22 8.14098 22 12.001C22 15.861 18.86 19.001 15 19.001Z" fill="black"/>
</g>
<defs>
<clipPath id="clip0_61_16927">
<rect width="24" height="24" fill="white" transform="translate(0 0.000976562)"/>
</clipPath>
</defs>
</svg>
