<svg viewBox="0 0 24 24" xmlns="http://www.w3.org/2000/svg">
<g clip-path="url(#clip0_61_16937)">
<path d="M17 3.00098H7C5.9 3.00098 5 3.90098 5 5.00098V19.001C5 20.101 5.9 21.001 7 21.001H17C18.1 21.001 19 20.101 19 19.001V5.00098C19 3.90098 18.1 3.00098 17 3.00098ZM16 19.001H8C7.45 19.001 7 18.551 7 18.001V6.00098C7 5.45098 7.45 5.00098 8 5.00098H16C16.55 5.00098 17 5.45098 17 6.00098V18.001C17 18.551 16.55 19.001 16 19.001Z"/>
</g>
<defs>
<clipPath id="clip0_61_16937">
<rect transform="translate(0 0.000976562)"/>
</clipPath>
</defs>
</svg>
