<svg   viewBox="0 0 24 24" fill="none" xmlns="http://www.w3.org/2000/svg">
<g clip-path="url(#clip0_61_16928)">
<path d="M17 15.001H19V7.00098C19 5.90098 18.1 5.00098 17 5.00098H9V7.00098H16C16.55 7.00098 17 7.45098 17 8.00098V15.001ZM8 17.001C7.45 17.001 7 16.551 7 16.001V2.00098C7 1.45098 6.55 1.00098 6 1.00098C5.45 1.00098 5 1.45098 5 2.00098V5.00098H2C1.45 5.00098 1 5.45098 1 6.00098C1 6.55098 1.45 7.00098 2 7.00098H5V17.001C5 18.101 5.9 19.001 7 19.001H17V22.001C17 22.551 17.45 23.001 18 23.001C18.55 23.001 19 22.551 19 22.001V19.001H22C22.55 19.001 23 18.551 23 18.001C23 17.451 22.55 17.001 22 17.001H8Z" fill="black"/>
</g>
<defs>
<clipPath id="clip0_61_16928">
<rect width="24" height="24" fill="white" transform="translate(0 0.000976562)"/>
</clipPath>
</defs>
</svg>
