<svg   viewBox="0 0 24 24" fill="none" xmlns="http://www.w3.org/2000/svg">
<g clip-path="url(#clip0_61_16939)">
<path d="M18 4.00098H6C4.9 4.00098 4 4.90098 4 6.00098V18.001C4 19.101 4.9 20.001 6 20.001H18C19.1 20.001 20 19.101 20 18.001V6.00098C20 4.90098 19.1 4.00098 18 4.00098ZM17 18.001H7C6.45 18.001 6 17.551 6 17.001V7.00098C6 6.45098 6.45 6.00098 7 6.00098H17C17.55 6.00098 18 6.45098 18 7.00098V17.001C18 17.551 17.55 18.001 17 18.001Z" fill="black"/>
</g>
<defs>
<clipPath id="clip0_61_16939">
<rect width="24" height="24" fill="white" transform="translate(0 0.000976562)"/>
</clipPath>
</defs>
</svg>
