<svg viewBox="0 0 24 24" xmlns="http://www.w3.org/2000/svg">
<g clip-path="url(#clip0_61_16938)">
<path d="M15.9967 9.00096V14.001H17.9967V8.00096C17.9967 6.90096 17.0967 6.00096 15.9967 6.00096H9.99667V8.00096H14.9967C15.5467 8.00096 15.9967 8.45096 15.9967 9.00096ZM18.9967 16.001H8.99667C8.44667 16.001 7.99667 15.551 7.99667 15.001V5.00096C7.99667 4.45096 7.54667 4.00096 6.99667 4.00096C6.44667 4.00096 5.99667 4.45096 5.99667 5.00096V6.00096H4.99667C4.44667 6.00096 3.99667 6.45096 3.99667 7.00096C3.99667 7.55096 4.44667 8.00096 4.99667 8.00096H5.99667V16.001C5.99667 17.101 6.89667 18.001 7.99667 18.001H15.9967V19.001C15.9967 19.551 16.4467 20.001 16.9967 20.001C17.5467 20.001 17.9967 19.551 17.9967 19.001V18.001H18.9967C19.5467 18.001 19.9967 17.551 19.9967 17.001C19.9967 16.451 19.5467 16.001 18.9967 16.001ZM17.6567 1.40096C15.9867 0.510956 13.8267 -0.109044 11.3867 0.0409557L15.1967 3.85096L16.5267 2.52096C19.6167 3.98096 21.8667 6.89096 22.4167 10.381C22.4767 10.791 22.8567 11.071 23.2767 11.001C23.6867 10.941 23.9667 10.551 23.8967 10.141C23.2967 6.34096 20.9367 3.14096 17.6567 1.40096V1.40096ZM7.46667 21.491C4.37667 20.031 2.12667 17.121 1.57667 13.631C1.51667 13.221 1.13667 12.941 0.716669 13.011C0.306669 13.071 0.0266686 13.461 0.0966686 13.871C0.696669 17.681 3.05667 20.881 6.33667 22.621C8.00667 23.511 10.1667 24.131 12.6067 23.981L8.79667 20.161L7.46667 21.491V21.491Z"/>
</g>
<defs>
<clipPath id="clip0_61_16938">
<rect transform="translate(0 0.000976562)"/>
</clipPath>
</defs>
</svg>
