<svg   viewBox="0 0 24 24" fill="none" xmlns="http://www.w3.org/2000/svg">
<g clip-path="url(#clip0_61_16931)">
<path d="M19 5.00098H5C3.9 5.00098 3 5.90098 3 7.00098V17.001C3 18.101 3.9 19.001 5 19.001H19C20.1 19.001 21 18.101 21 17.001V7.00098C21 5.90098 20.1 5.00098 19 5.00098ZM18 17.001H6C5.45 17.001 5 16.551 5 16.001V8.00098C5 7.45098 5.45 7.00098 6 7.00098H18C18.55 7.00098 19 7.45098 19 8.00098V16.001C19 16.551 18.55 17.001 18 17.001Z" fill="black"/>
</g>
<defs>
<clipPath id="clip0_61_16931">
<rect width="24" height="24" fill="white" transform="translate(0 0.000976562)"/>
</clipPath>
</defs>
</svg>
