<svg   viewBox="0 0 24 24" fill="none" xmlns="http://www.w3.org/2000/svg">
<g clip-path="url(#clip0_61_16930)">
<path d="M19 4.00098H5C3.9 4.00098 3 4.90098 3 6.00098V18.001C3 19.101 3.9 20.001 5 20.001H19C20.1 20.001 21 19.101 21 18.001V6.00098C21 4.90098 20.1 4.00098 19 4.00098ZM18 18.001H6C5.45 18.001 5 17.551 5 17.001V7.00098C5 6.45098 5.45 6.00098 6 6.00098H18C18.55 6.00098 19 6.45098 19 7.00098V17.001C19 17.551 18.55 18.001 18 18.001Z" fill="black"/>
</g>
<defs>
<clipPath id="clip0_61_16930">
<rect width="24" height="24" fill="white" transform="translate(0 0.000976562)"/>
</clipPath>
</defs>
</svg>
