<svg viewBox="0 0 24 24" xmlns="http://www.w3.org/2000/svg">
<g clip-path="url(#clip0_61_16932)">
<path d="M19 7.00098H5C3.9 7.00098 3 7.90098 3 9.00098V15.001C3 16.101 3.9 17.001 5 17.001H19C20.1 17.001 21 16.101 21 15.001V9.00098C21 7.90098 20.1 7.00098 19 7.00098ZM18 15.001H6C5.45 15.001 5 14.551 5 14.001V10.001C5 9.45098 5.45 9.00098 6 9.00098H18C18.55 9.00098 19 9.45098 19 10.001V14.001C19 14.551 18.55 15.001 18 15.001Z"/>
</g>
<defs>
<clipPath id="clip0_61_16932">
<rect transform="translate(0 0.000976562)"/>
</clipPath>
</defs>
</svg>
