<svg viewBox="0 0 24 24" xmlns="http://www.w3.org/2000/svg">
<g clip-path="url(#clip0_61_16929)">
<path d="M19 6.00098H5C3.9 6.00098 3 6.90098 3 8.00098V16.001C3 17.101 3.9 18.001 5 18.001H19C20.1 18.001 21 17.101 21 16.001V8.00098C21 6.90098 20.1 6.00098 19 6.00098ZM18 16.001H6C5.45 16.001 5 15.551 5 15.001V9.00098C5 8.45098 5.45 8.00098 6 8.00098H18C18.55 8.00098 19 8.45098 19 9.00098V15.001C19 15.551 18.55 16.001 18 16.001Z"/>
</g>
<defs>
<clipPath id="clip0_61_16929">
<rect transform="translate(0 0.000976562)"/>
</clipPath>
</defs>
</svg>
