<svg   viewBox="0 0 24 24" fill="none" xmlns="http://www.w3.org/2000/svg">
<g clip-path="url(#clip0_61_16936)">
<path d="M19 3.00098H5C3.9 3.00098 3 3.90098 3 5.00098V19.001C3 20.101 3.9 21.001 5 21.001H19C20.1 21.001 21 20.101 21 19.001V5.00098C21 3.90098 20.1 3.00098 19 3.00098ZM18 19.001H6C5.45 19.001 5 18.551 5 18.001V6.00098C5 5.45098 5.45 5.00098 6 5.00098H18C18.55 5.00098 19 5.45098 19 6.00098V18.001C19 18.551 18.55 19.001 18 19.001ZM13.56 12.811L11.21 15.831L9.65 13.951C9.45 13.701 9.07 13.711 8.87 13.961L7.13 16.191C6.87 16.521 7.11 17.001 7.52 17.001H16.5C16.91 17.001 17.15 16.531 16.9 16.201L14.35 12.811C14.16 12.551 13.76 12.551 13.56 12.811V12.811Z" fill="black"/>
</g>
<defs>
<clipPath id="clip0_61_16936">
<rect width="24" height="24" fill="white" transform="translate(0 0.000976562)"/>
</clipPath>
</defs>
</svg>
