<svg viewBox="0 0 24 24" xmlns="http://www.w3.org/2000/svg">
<g clip-path="url(#clip0_61_16934)">
<path d="M3 5.00098V8.00098C3 8.55098 3.45 9.00098 4 9.00098C4.55 9.00098 5 8.55098 5 8.00098V6.00098C5 5.45098 5.45 5.00098 6 5.00098H8C8.55 5.00098 9 4.55098 9 4.00098C9 3.45098 8.55 3.00098 8 3.00098H5C3.9 3.00098 3 3.90098 3 5.00098ZM4 15.001C3.45 15.001 3 15.451 3 16.001V19.001C3 20.101 3.9 21.001 5 21.001H8C8.55 21.001 9 20.551 9 20.001C9 19.451 8.55 19.001 8 19.001H6C5.45 19.001 5 18.551 5 18.001V16.001C5 15.451 4.55 15.001 4 15.001ZM19 18.001C19 18.551 18.55 19.001 18 19.001H16C15.45 19.001 15 19.451 15 20.001C15 20.551 15.45 21.001 16 21.001H19C20.1 21.001 21 20.101 21 19.001V16.001C21 15.451 20.55 15.001 20 15.001C19.45 15.001 19 15.451 19 16.001V18.001ZM19 3.00098H16C15.45 3.00098 15 3.45098 15 4.00098C15 4.55098 15.45 5.00098 16 5.00098H18C18.55 5.00098 19 5.45098 19 6.00098V8.00098C19 8.55098 19.45 9.00098 20 9.00098C20.55 9.00098 21 8.55098 21 8.00098V5.00098C21 3.90098 20.1 3.00098 19 3.00098Z"/>
</g>
<defs>
<clipPath id="clip0_61_16934">
<rect transform="translate(0 0.000976562)"/>
</clipPath>
</defs>
</svg>
