<svg viewBox="0 0 24 24" xmlns="http://www.w3.org/2000/svg">
<g clip-path="url(#clip0_61_16940)">
<path d="M2 17.001C2 17.551 2.45 18.001 3 18.001H21C21.55 18.001 22 17.551 22 17.001C22 16.451 21.55 16.001 21 16.001H3C2.45 16.001 2 16.451 2 17.001ZM2 12.001C2 12.551 2.45 13.001 3 13.001H21C21.55 13.001 22 12.551 22 12.001C22 11.451 21.55 11.001 21 11.001H3C2.45 11.001 2 11.451 2 12.001ZM2 7.00098C2 7.55098 2.45 8.00098 3 8.00098H21C21.55 8.00098 22 7.55098 22 7.00098C22 6.45098 21.55 6.00098 21 6.00098H3C2.45 6.00098 2 6.45098 2 7.00098Z"/>
</g>
<defs>
<clipPath id="clip0_61_16940">
<rect transform="translate(0 0.000976562)"/>
</clipPath>
</defs>
</svg>
