<svg   viewBox="0 0 24 24" fill="none" xmlns="http://www.w3.org/2000/svg">
<g clip-path="url(#clip0_61_16943)">
<path d="M15.0031 18.501C12.4931 18.501 10.3231 17.081 9.24313 15.001H14.3831C14.7631 15.001 15.1131 14.791 15.2731 14.451C15.6031 13.791 15.1231 13.001 14.3831 13.001H8.58313C8.53313 12.671 8.50313 12.341 8.50313 12.001C8.50313 11.661 8.53313 11.331 8.58313 11.001H14.3831C14.7631 11.001 15.1131 10.791 15.2731 10.451C15.6131 9.78098 15.1331 9.00098 14.3831 9.00098H9.24313C10.3231 6.92098 12.5031 5.50098 15.0031 5.50098C16.2531 5.50098 17.4231 5.86098 18.4231 6.47098C18.9231 6.78098 19.5731 6.73098 19.9931 6.31098C20.5731 5.73098 20.4431 4.78098 19.7431 4.35098C18.3631 3.50098 16.7331 3.00098 15.0031 3.00098C11.0831 3.00098 7.76313 5.51098 6.52313 9.00098H3.62313C3.24313 9.00098 2.89313 9.21098 2.72313 9.55098C2.39313 10.221 2.87313 11.001 3.62313 11.001H6.06313C6.02313 11.331 6.00313 11.661 6.00313 12.001C6.00313 12.341 6.02313 12.671 6.06313 13.001H3.62313C3.24313 13.001 2.89313 13.211 2.73313 13.551C2.39313 14.221 2.87313 15.001 3.62313 15.001H6.52313C7.76313 18.491 11.0831 21.001 15.0031 21.001C16.7431 21.001 18.3631 20.511 19.7431 19.651C20.4331 19.221 20.5631 18.261 19.9831 17.681C19.5631 17.261 18.9131 17.211 18.4131 17.531C17.4231 18.151 16.2631 18.501 15.0031 18.501Z" fill="black"/>
</g>
<defs>
<clipPath id="clip0_61_16943">
<rect width="24" height="24" fill="white" transform="translate(0 0.000976562)"/>
</clipPath>
</defs>
</svg>
