<svg   viewBox="0 0 24 24" fill="none" xmlns="http://www.w3.org/2000/svg">
<g clip-path="url(#clip0_61_16947)">
<path d="M9 7.00098C8.45 7.00098 8 7.45098 8 8.00098V11.001H5C4.45 11.001 4 11.451 4 12.001C4 12.551 4.45 13.001 5 13.001H8V16.001C8 16.551 8.45 17.001 9 17.001C9.55 17.001 10 16.551 10 16.001V13.001H13C13.55 13.001 14 12.551 14 12.001C14 11.451 13.55 11.001 13 11.001H10V8.00098C10 7.45098 9.55 7.00098 9 7.00098ZM20 18.001H18V7.38098L15 8.40098V6.70098L19.7 5.00098H20V18.001Z" fill="black"/>
</g>
<defs>
<clipPath id="clip0_61_16947">
<rect width="24" height="24" fill="white" transform="translate(0 0.000976562)"/>
</clipPath>
</defs>
</svg>
