<svg viewBox="0 0 24 24" xmlns="http://www.w3.org/2000/svg">
<g clip-path="url(#clip0_61_16949)">
<path d="M16.1394 12.501C16.1394 13.501 16.0394 14.351 15.8394 15.051C15.6394 15.751 15.3594 16.321 15.0094 16.751C14.6494 17.191 14.2194 17.501 13.7094 17.701C13.1994 17.901 12.6394 18.001 12.0094 18.001C11.3894 18.001 10.8294 17.901 10.3194 17.701C9.80937 17.501 9.36938 17.191 9.00938 16.751C8.64938 16.311 8.35937 15.741 8.15937 15.051C7.95937 14.351 7.85938 13.501 7.85938 12.501V10.461C7.85938 9.46098 7.95937 8.61098 8.15937 7.91098C8.35937 7.21098 8.63937 6.65098 8.99937 6.22098C9.35937 5.79098 9.79938 5.48098 10.3094 5.29098C10.8094 5.10098 11.3794 5.00098 11.9994 5.00098C12.6294 5.00098 13.1894 5.10098 13.6994 5.29098C14.2094 5.48098 14.6494 5.79098 15.0094 6.22098C15.3694 6.65098 15.6494 7.21098 15.8494 7.91098C16.0494 8.61098 16.1494 9.45098 16.1494 10.461V12.501H16.1394V12.501ZM14.0294 10.141C14.0294 9.50098 13.9794 8.96098 13.8994 8.52098C13.8094 8.08098 13.6794 7.73098 13.4994 7.46098C13.3294 7.19098 13.1094 7.00098 12.8594 6.88098C12.6094 6.75098 12.3194 6.69098 11.9994 6.69098C11.6794 6.69098 11.3894 6.75098 11.1394 6.87098C10.8894 6.99098 10.6694 7.18098 10.4994 7.45098C10.3294 7.72098 10.1894 8.07098 10.0994 8.51098C10.0094 8.95098 9.96938 9.49098 9.96938 10.131V12.801C9.96938 13.441 10.0194 13.981 10.1094 14.421C10.1994 14.871 10.3394 15.231 10.5094 15.511C10.6794 15.791 10.8994 15.991 11.1494 16.121C11.3994 16.251 11.6894 16.311 12.0194 16.311C12.3494 16.311 12.6394 16.251 12.8894 16.121C13.1394 15.991 13.3494 15.791 13.5194 15.511C13.6894 15.231 13.8194 14.871 13.9094 14.421C13.9994 13.971 14.0394 13.431 14.0394 12.801V10.141H14.0294V10.141Z"/>
</g>
<defs>
<clipPath id="clip0_61_16949">
<rect transform="translate(0 0.000976562)"/>
</clipPath>
</defs>
</svg>
