<svg viewBox="0 0 24 24" xmlns="http://www.w3.org/2000/svg">
<g clip-path="url(#clip0_61_16946)">
<path d="M15.05 16.291L17.91 13.221C18.29 12.831 18.63 12.431 18.95 12.041C19.27 11.651 19.54 11.261 19.77 10.871C20 10.481 20.18 10.091 20.31 9.70098C20.44 9.31098 20.5 8.91098 20.5 8.52098C20.5 7.99098 20.41 7.50098 20.23 7.06098C20.05 6.62098 19.79 6.25098 19.45 5.95098C19.11 5.64098 18.68 5.41098 18.19 5.24098C17.68 5.08098 17.11 5.00098 16.47 5.00098C15.78 5.00098 15.16 5.11098 14.62 5.32098C14.08 5.53098 13.62 5.83098 13.26 6.20098C12.89 6.57098 12.61 7.00098 12.42 7.50098C12.24 7.97098 12.15 8.47098 12.14 9.00098H14.28C14.29 8.69098 14.33 8.40098 14.41 8.13098C14.5 7.84098 14.64 7.59098 14.81 7.38098C14.99 7.17098 15.22 7.01098 15.49 6.89098C15.76 6.77098 16.09 6.71098 16.45 6.71098C16.76 6.71098 17.03 6.76098 17.26 6.86098C17.49 6.96098 17.69 7.11098 17.85 7.29098C18.01 7.47098 18.13 7.69098 18.22 7.94098C18.3 8.19098 18.35 8.46098 18.35 8.75098C18.35 8.97098 18.32 9.18098 18.27 9.40098C18.21 9.62098 18.12 9.85098 17.98 10.101C17.84 10.351 17.66 10.631 17.42 10.931C17.19 11.231 16.9 11.581 16.54 11.961L12.37 16.511V18.001H21V16.291H15.05ZM2 12.001C2 12.551 2.45 13.001 3 13.001H9C9.55 13.001 10 12.551 10 12.001C10 11.451 9.55 11.001 9 11.001H3C2.45 11.001 2 11.451 2 12.001Z"/>
</g>
<defs>
<clipPath id="clip0_61_16946">
<rect transform="translate(0 0.000976562)"/>
</clipPath>
</defs>
</svg>
