<svg viewBox="0 0 24 24" xmlns="http://www.w3.org/2000/svg">
<g clip-path="url(#clip0_61_16944)">
<path d="M19 3.00098H5C3.9 3.00098 3 3.90098 3 5.00098V19.001C3 20.101 3.9 21.001 5 21.001H19C20.1 21.001 21 20.101 21 19.001V5.00098C21 3.90098 20.1 3.00098 19 3.00098ZM6.75 7.00098H10.25C10.66 7.00098 11 7.34098 11 7.75098C11 8.16098 10.66 8.50098 10.25 8.50098H6.75C6.34 8.50098 6 8.16098 6 7.75098C6 7.34098 6.34 7.00098 6.75 7.00098ZM18 19.001H5L19 5.00098V18.001C19 18.551 18.55 19.001 18 19.001ZM14.5 16.001V17.251C14.5 17.661 14.84 18.001 15.25 18.001C15.66 18.001 16 17.661 16 17.251V16.001H17.25C17.66 16.001 18 15.661 18 15.251C18 14.841 17.66 14.501 17.25 14.501H16V13.251C16 12.841 15.66 12.501 15.25 12.501C14.84 12.501 14.5 12.841 14.5 13.251V14.501H13.25C12.84 14.501 12.5 14.841 12.5 15.251C12.5 15.661 12.84 16.001 13.25 16.001H14.5Z"/>
</g>
<defs>
<clipPath id="clip0_61_16944">
<rect transform="translate(0 0.000976562)"/>
</clipPath>
</defs>
</svg>
