<svg viewBox="0 0 24 24" xmlns="http://www.w3.org/2000/svg">
<g clip-path="url(#clip0_61_16948)">
<path d="M16.05 16.291L18.91 13.221C19.29 12.831 19.63 12.431 19.95 12.041C20.27 11.651 20.54 11.261 20.77 10.871C21 10.481 21.18 10.091 21.31 9.70098C21.44 9.31098 21.5 8.91098 21.5 8.52098C21.5 7.99098 21.41 7.50098 21.23 7.06098C21.05 6.62098 20.79 6.25098 20.45 5.95098C20.11 5.64098 19.68 5.41098 19.19 5.24098C18.68 5.08098 18.11 5.00098 17.47 5.00098C16.78 5.00098 16.16 5.11098 15.62 5.32098C15.08 5.53098 14.62 5.83098 14.26 6.20098C13.89 6.57098 13.61 7.00098 13.42 7.50098C13.24 7.97098 13.15 8.47098 13.14 9.00098H15.28C15.29 8.69098 15.33 8.40098 15.41 8.13098C15.5 7.84098 15.64 7.59098 15.81 7.38098C15.99 7.17098 16.22 7.01098 16.49 6.89098C16.76 6.77098 17.09 6.71098 17.45 6.71098C17.76 6.71098 18.03 6.76098 18.26 6.86098C18.49 6.96098 18.69 7.11098 18.85 7.29098C19.01 7.47098 19.13 7.69098 19.22 7.94098C19.3 8.19098 19.35 8.46098 19.35 8.75098C19.35 8.97098 19.32 9.18098 19.27 9.40098C19.21 9.62098 19.12 9.85098 18.98 10.101C18.84 10.351 18.66 10.631 18.42 10.931C18.19 11.231 17.9 11.581 17.54 11.961L13.37 16.511V18.001H22V16.291H16.05ZM7 7.00098C6.45 7.00098 6 7.45098 6 8.00098V11.001H3C2.45 11.001 2 11.451 2 12.001C2 12.551 2.45 13.001 3 13.001H6V16.001C6 16.551 6.45 17.001 7 17.001C7.55 17.001 8 16.551 8 16.001V13.001H11C11.55 13.001 12 12.551 12 12.001C12 11.451 11.55 11.001 11 11.001H8V8.00098C8 7.45098 7.55 7.00098 7 7.00098Z"/>
</g>
<defs>
<clipPath id="clip0_61_16948">
<rect transform="translate(0 0.000976562)"/>
</clipPath>
</defs>
</svg>
