<svg viewBox="0 0 24 24" xmlns="http://www.w3.org/2000/svg">
<g clip-path="url(#clip0_61_16956)">
<path d="M2 5.00098C1.45 5.00098 1 5.45098 1 6.00098V21.001C1 22.101 1.9 23.001 3 23.001H18C18.55 23.001 19 22.551 19 22.001C19 21.451 18.55 21.001 18 21.001H4C3.45 21.001 3 20.551 3 20.001V6.00098C3 5.45098 2.55 5.00098 2 5.00098ZM21 1.00098H7C5.9 1.00098 5 1.90098 5 3.00098V17.001C5 18.101 5.9 19.001 7 19.001H21C22.1 19.001 23 18.101 23 17.001V3.00098C23 1.90098 22.1 1.00098 21 1.00098ZM20 17.001H8C7.45 17.001 7 16.551 7 16.001V4.00098C7 3.45098 7.45 3.00098 8 3.00098H20C20.55 3.00098 21 3.45098 21 4.00098V16.001C21 16.551 20.55 17.001 20 17.001ZM13 15.001H15C16.1 15.001 17 14.101 17 13.001V11.001C17 9.90098 16.1 9.00098 15 9.00098H13V7.00098H16C16.55 7.00098 17 6.55098 17 6.00098C17 5.45098 16.55 5.00098 16 5.00098H13C11.9 5.00098 11 5.90098 11 7.00098V13.001C11 14.101 11.9 15.001 13 15.001ZM13 11.001H15V13.001H13V11.001Z"/>
</g>
<defs>
<clipPath id="clip0_61_16956">
<rect transform="translate(0 0.000976562)"/>
</clipPath>
</defs>
</svg>
