<svg   viewBox="0 0 24 24" fill="none" xmlns="http://www.w3.org/2000/svg">
<g clip-path="url(#clip0_61_16968)">
<path d="M18.6969 12.401C18.4169 12.241 18.1269 12.111 17.8369 12.001C18.1269 11.891 18.4169 11.761 18.6969 11.601C20.6169 10.491 21.6869 8.48103 21.6969 6.41104C19.9069 5.38104 17.6269 5.30104 15.6969 6.41104C15.4169 6.57104 15.1569 6.76104 14.9169 6.95104C14.9669 6.64104 14.9969 6.32104 14.9969 6.00104C14.9969 3.78104 13.7869 1.85104 11.9969 0.811035C10.2069 1.85104 8.99687 3.78104 8.99687 6.00104C8.99687 6.32104 9.02687 6.64104 9.07687 6.95104C8.83687 6.75104 8.57688 6.56104 8.29688 6.40104C6.37688 5.29104 4.09687 5.37104 2.29688 6.40104C2.29688 8.47104 3.36688 10.481 5.29688 11.591C5.57688 11.751 5.86687 11.881 6.15687 11.991C5.86687 12.101 5.57688 12.231 5.29688 12.391C3.37688 13.501 2.30687 15.511 2.29688 17.581C4.08687 18.611 6.36688 18.691 8.29688 17.581C8.57688 17.421 8.83687 17.231 9.07687 17.041C9.02687 17.361 8.99687 17.681 8.99687 18.001C8.99687 20.221 10.2069 22.151 11.9969 23.191C13.7869 22.151 14.9969 20.221 14.9969 18.001C14.9969 17.681 14.9669 17.361 14.9169 17.051C15.1569 17.251 15.4169 17.431 15.6969 17.591C17.6169 18.701 19.8969 18.621 21.6969 17.591C21.6869 15.521 20.6169 13.511 18.6969 12.401V12.401ZM11.9969 16.001C9.78687 16.001 7.99687 14.211 7.99687 12.001C7.99687 9.79103 9.78687 8.00104 11.9969 8.00104C14.2069 8.00104 15.9969 9.79103 15.9969 12.001C15.9969 14.211 14.2069 16.001 11.9969 16.001Z" fill="black"/>
</g>
<defs>
<clipPath id="clip0_61_16968">
<rect width="24" height="24" fill="white" transform="translate(0 0.000976562)"/>
</clipPath>
</defs>
</svg>
