<svg viewBox="0 0 24 24" xmlns="http://www.w3.org/2000/svg">
<g clip-path="url(#clip0_61_16950)">
<path d="M15.56 10.811L13.21 13.831L11.65 11.951C11.45 11.701 11.07 11.711 10.87 11.961L9.13 14.191C8.87 14.521 9.11 15.001 9.52 15.001H18.5C18.91 15.001 19.15 14.531 18.9 14.201L16.35 10.811C16.16 10.551 15.76 10.551 15.56 10.811V10.811ZM2 5.00098C1.45 5.00098 1 5.45098 1 6.00098V21.001C1 22.101 1.9 23.001 3 23.001H18C18.55 23.001 19 22.551 19 22.001C19 21.451 18.55 21.001 18 21.001H4C3.45 21.001 3 20.551 3 20.001V6.00098C3 5.45098 2.55 5.00098 2 5.00098ZM21 1.00098H7C5.9 1.00098 5 1.90098 5 3.00098V17.001C5 18.101 5.9 19.001 7 19.001H21C22.1 19.001 23 18.101 23 17.001V3.00098C23 1.90098 22.1 1.00098 21 1.00098ZM20 17.001H8C7.45 17.001 7 16.551 7 16.001V4.00098C7 3.45098 7.45 3.00098 8 3.00098H20C20.55 3.00098 21 3.45098 21 4.00098V16.001C21 16.551 20.55 17.001 20 17.001Z"/>
</g>
<defs>
<clipPath id="clip0_61_16950">
<rect transform="translate(0 0.000976562)"/>
</clipPath>
</defs>
</svg>
