<svg   viewBox="0 0 24 24" fill="none" xmlns="http://www.w3.org/2000/svg">
<g clip-path="url(#clip0_61_16967)">
<path d="M11.0028 3.23083C11.0028 2.59083 10.4128 2.10083 9.79279 2.24083C8.67279 2.50083 7.61279 2.94083 6.67279 3.54083C6.14279 3.88083 6.06279 4.64083 6.51279 5.09083C6.83279 5.41083 7.34279 5.49083 7.72279 5.25083C8.49279 4.76083 9.34279 4.40083 10.2628 4.20083C10.7028 4.10083 11.0028 3.69083 11.0028 3.23083V3.23083ZM17.3328 3.55083C16.3928 2.95083 15.3328 2.51083 14.2128 2.25083C13.5928 2.11083 13.0028 2.59083 13.0028 3.23083C13.0028 3.68083 13.3028 4.10083 13.7428 4.19083C14.6528 4.39083 15.5128 4.76083 16.2728 5.24083C16.6628 5.48083 17.1628 5.41083 17.4828 5.08083C17.9428 4.64083 17.8728 3.89083 17.3328 3.55083V3.55083ZM20.7728 11.0008C21.4128 11.0008 21.9028 10.4108 21.7628 9.79083C21.5028 8.67083 21.0628 7.61083 20.4628 6.67083C20.1228 6.14083 19.3628 6.06083 18.9128 6.51083C18.5928 6.83083 18.5128 7.34083 18.7528 7.72083C19.2428 8.49083 19.6028 9.34083 19.8028 10.2508C19.9028 10.7008 20.3128 11.0008 20.7728 11.0008V11.0008ZM5.10279 6.51083C4.64279 6.06083 3.89279 6.13083 3.55279 6.67083C2.95279 7.61083 2.51279 8.67083 2.25279 9.79083C2.11279 10.4108 2.59279 11.0008 3.23279 11.0008C3.68279 11.0008 4.10279 10.7008 4.19279 10.2608C4.39279 9.35083 4.76279 8.49083 5.24279 7.73083C5.50279 7.34083 5.42279 6.83083 5.10279 6.51083V6.51083ZM3.23279 13.0008C2.59279 13.0008 2.10279 13.5908 2.24279 14.2108C2.50279 15.3308 2.94279 16.3808 3.54279 17.3308C3.88279 17.8708 4.64279 17.9408 5.09279 17.4908C5.41279 17.1708 5.49279 16.6608 5.24279 16.2808C4.75279 15.5208 4.39279 14.6708 4.19279 13.7508C4.10279 13.3008 3.69279 13.0008 3.23279 13.0008V13.0008ZM15.0028 12.0008C15.0028 10.3408 13.6628 9.00083 12.0028 9.00083C10.3428 9.00083 9.00279 10.3408 9.00279 12.0008C9.00279 13.6608 10.3428 15.0008 12.0028 15.0008C13.6628 15.0008 15.0028 13.6608 15.0028 12.0008ZM18.9028 17.4908C19.3528 17.9408 20.1128 17.8708 20.4528 17.3408C21.0528 16.4008 21.4928 15.3408 21.7528 14.2308C21.8928 13.6108 21.4028 13.0208 20.7728 13.0208C20.3228 13.0208 19.9028 13.3208 19.8128 13.7608C19.6128 14.6708 19.2428 15.5208 18.7628 16.2908C18.5028 16.6608 18.5828 17.1708 18.9028 17.4908ZM13.0028 20.7708C13.0028 21.4108 13.5928 21.9008 14.2128 21.7608C15.3328 21.5008 16.3828 21.0608 17.3328 20.4608C17.8728 20.1208 17.9428 19.3608 17.4928 18.9108C17.1728 18.5908 16.6628 18.5108 16.2828 18.7608C15.5228 19.2508 14.6728 19.6108 13.7528 19.8108C13.3028 19.9008 13.0028 20.3108 13.0028 20.7708V20.7708ZM6.67279 20.4508C7.62279 21.0508 8.67279 21.4908 9.79279 21.7508C10.4128 21.8908 11.0028 21.4008 11.0028 20.7708C11.0028 20.3208 10.7028 19.9008 10.2628 19.8108C9.35279 19.6108 8.49279 19.2408 7.73279 18.7608C7.34279 18.5208 6.84279 18.5908 6.52279 18.9208C6.06279 19.3608 6.13279 20.1108 6.67279 20.4508V20.4508Z" fill="black"/>
</g>
<defs>
<clipPath id="clip0_61_16967">
<rect width="24" height="24" fill="white" transform="translate(0 0.000976562)"/>
</clipPath>
</defs>
</svg>
