<svg   viewBox="0 0 24 24" fill="none" xmlns="http://www.w3.org/2000/svg">
<g clip-path="url(#clip0_61_16963)">
<path d="M19.35 10.041C18.67 6.59098 15.64 4.00098 12 4.00098C9.11 4.00098 6.61 5.64098 5.36 8.04098C2.35 8.36098 0 10.901 0 14.001C0 17.311 2.69 20.001 6 20.001H19C21.76 20.001 24 17.761 24 15.001C24 12.361 21.95 10.221 19.35 10.041ZM19 18.001H6.17C4.08 18.001 2.22 16.471 2.02 14.391C1.79 12.011 3.66 10.001 6 10.001C7.92 10.001 9.53 11.361 9.91 13.171C10.01 13.651 10.41 14.001 10.89 14.001C11.5 14.001 12 13.451 11.88 12.851C11.45 10.611 9.77 8.82098 7.59 8.22098C8.69 6.76098 10.48 5.85098 12.48 6.02098C15.36 6.27098 17.49 8.84098 17.49 11.731V12.001H18.86C20.31 12.001 21.65 12.971 21.93 14.401C22.32 16.311 20.85 18.001 19 18.001V18.001Z" fill="black"/>
</g>
<defs>
<clipPath id="clip0_61_16963">
<rect width="24" height="24" fill="white" transform="translate(0 0.000976562)"/>
</clipPath>
</defs>
</svg>
