<svg viewBox="0 0 24 24" xmlns="http://www.w3.org/2000/svg">
<g clip-path="url(#clip0_61_16953)">
<path d="M21 1.00098H7C5.9 1.00098 5 1.90098 5 3.00098V17.001C5 18.101 5.9 19.001 7 19.001H21C22.1 19.001 23 18.101 23 17.001V3.00098C23 1.90098 22.1 1.00098 21 1.00098ZM20 17.001H8C7.45 17.001 7 16.551 7 16.001V4.00098C7 3.45098 7.45 3.00098 8 3.00098H20C20.55 3.00098 21 3.45098 21 4.00098V16.001C21 16.551 20.55 17.001 20 17.001ZM2 5.00098C1.45 5.00098 1 5.45098 1 6.00098V21.001C1 22.101 1.9 23.001 3 23.001H18C18.55 23.001 19 22.551 19 22.001C19 21.451 18.55 21.001 18 21.001H4C3.45 21.001 3 20.551 3 20.001V6.00098C3 5.45098 2.55 5.00098 2 5.00098ZM17 13.001V11.501C17 10.671 16.33 10.001 15.5 10.001C16.33 10.001 17 9.33098 17 8.50098V7.00098C17 5.90098 16.1 5.00098 15 5.00098H12C11.45 5.00098 11 5.45098 11 6.00098C11 6.55098 11.45 7.00098 12 7.00098H15V9.00098H14C13.45 9.00098 13 9.45098 13 10.001C13 10.551 13.45 11.001 14 11.001H15V13.001H12C11.45 13.001 11 13.451 11 14.001C11 14.551 11.45 15.001 12 15.001H15C16.1 15.001 17 14.101 17 13.001Z"/>
</g>
<defs>
<clipPath id="clip0_61_16953">
<rect transform="translate(0 0.000976562)"/>
</clipPath>
</defs>
</svg>
