<svg   viewBox="0 0 24 24" fill="none" xmlns="http://www.w3.org/2000/svg">
<g clip-path="url(#clip0_61_16960)">
<path d="M2 5.00098C1.45 5.00098 1 5.45098 1 6.00098V21.001C1 22.101 1.9 23.001 3 23.001H18C18.55 23.001 19 22.551 19 22.001C19 21.451 18.55 21.001 18 21.001H4C3.45 21.001 3 20.551 3 20.001V6.00098C3 5.45098 2.55 5.00098 2 5.00098ZM14 12.001V8.00098C14 6.90098 13.1 6.00098 12 6.00098H11C9.9 6.00098 9 6.90098 9 8.00098V9.00098C9 10.101 9.9 11.001 11 11.001H12V12.001H10C9.45 12.001 9 12.451 9 13.001C9 13.551 9.45 14.001 10 14.001H12C13.1 14.001 14 13.101 14 12.001ZM11 9.00098V8.00098H12V9.00098H11ZM21 1.00098H7C5.9 1.00098 5 1.90098 5 3.00098V17.001C5 18.101 5.9 19.001 7 19.001H21C22.1 19.001 23 18.101 23 17.001V3.00098C23 1.90098 22.1 1.00098 21 1.00098ZM20 17.001H8C7.45 17.001 7 16.551 7 16.001V4.00098C7 3.45098 7.45 3.00098 8 3.00098H20C20.55 3.00098 21 3.45098 21 4.00098V16.001C21 16.551 20.55 17.001 20 17.001ZM21 10.001C21 9.45098 20.55 9.00098 20 9.00098H19V8.00098C19 7.45098 18.55 7.00098 18 7.00098C17.45 7.00098 17 7.45098 17 8.00098V9.00098H16C15.45 9.00098 15 9.45098 15 10.001C15 10.551 15.45 11.001 16 11.001H17V12.001C17 12.551 17.45 13.001 18 13.001C18.55 13.001 19 12.551 19 12.001V11.001H20C20.55 11.001 21 10.551 21 10.001Z" fill="black"/>
</g>
<defs>
<clipPath id="clip0_61_16960">
<rect width="24" height="24" fill="white" transform="translate(0 0.000976562)"/>
</clipPath>
</defs>
</svg>
