<svg   viewBox="0 0 24 24" fill="none" xmlns="http://www.w3.org/2000/svg">
<g clip-path="url(#clip0_61_16951)">
<path d="M2 5.00098C1.45 5.00098 1 5.45098 1 6.00098V21.001C1 22.101 1.9 23.001 3 23.001H18C18.55 23.001 19 22.551 19 22.001C19 21.451 18.55 21.001 18 21.001H4C3.45 21.001 3 20.551 3 20.001V6.00098C3 5.45098 2.55 5.00098 2 5.00098ZM15 15.001C15.55 15.001 16 14.551 16 14.001V6.00098C16 5.45098 15.55 5.00098 15 5.00098H13C12.45 5.00098 12 5.45098 12 6.00098C12 6.55098 12.45 7.00098 13 7.00098H14V14.001C14 14.551 14.45 15.001 15 15.001ZM21 1.00098H7C5.9 1.00098 5 1.90098 5 3.00098V17.001C5 18.101 5.9 19.001 7 19.001H21C22.1 19.001 23 18.101 23 17.001V3.00098C23 1.90098 22.1 1.00098 21 1.00098ZM20 17.001H8C7.45 17.001 7 16.551 7 16.001V4.00098C7 3.45098 7.45 3.00098 8 3.00098H20C20.55 3.00098 21 3.45098 21 4.00098V16.001C21 16.551 20.55 17.001 20 17.001Z" fill="black"/>
</g>
<defs>
<clipPath id="clip0_61_16951">
<rect width="24" height="24" fill="white" transform="translate(0 0.000976562)"/>
</clipPath>
</defs>
</svg>
