<svg   viewBox="0 0 24 24" fill="none" xmlns="http://www.w3.org/2000/svg">
<g clip-path="url(#clip0_61_16964)">
<path d="M20 4.00096H16L12.71 0.710957C12.32 0.320957 11.69 0.320957 11.3 0.710957L8 4.00096H4C2.9 4.00096 2 4.90096 2 6.00096V20.001C2 21.101 2.9 22.001 4 22.001H20C21.1 22.001 22 21.101 22 20.001V6.00096C22 4.90096 21.1 4.00096 20 4.00096ZM19 20.001H5C4.45 20.001 4 19.551 4 19.001V7.00096C4 6.45096 4.45 6.00096 5 6.00096H8.52L12.04 2.50096L15.52 6.00096H19C19.55 6.00096 20 6.45096 20 7.00096V19.001C20 19.551 19.55 20.001 19 20.001ZM17 8.00096H7C6.45 8.00096 6 8.45096 6 9.00096V17.001C6 17.551 6.45 18.001 7 18.001H17C17.55 18.001 18 17.551 18 17.001V9.00096C18 8.45096 17.55 8.00096 17 8.00096Z" fill="black"/>
</g>
<defs>
<clipPath id="clip0_61_16964">
<rect width="24" height="24" fill="white" transform="translate(0 0.000976562)"/>
</clipPath>
</defs>
</svg>
