<svg viewBox="0 0 24 24" xmlns="http://www.w3.org/2000/svg">
<g clip-path="url(#clip0_61_16969)">
<path d="M6 11.001H2C1.45 11.001 1 11.451 1 12.001C1 12.551 1.45 13.001 2 13.001H6C6.55 13.001 7 12.551 7 12.001C7 11.451 6.55 11.001 6 11.001ZM8.47 7.06098L7.75 6.34098C7.36 5.95098 6.73 5.95098 6.34 6.34098C5.95 6.73098 5.95 7.36098 6.34 7.75098L7.05 8.46098C7.44 8.85098 8.07 8.85098 8.46 8.46098C8.85 8.08098 8.85 7.44098 8.47 7.06098ZM12 1.00098C11.44 1.00098 11 1.45098 11 2.00098V6.00098C11 6.55098 11.45 7.00098 12 7.00098C12.55 7.00098 13 6.55098 13 6.00098V2.00098C13 1.45098 12.55 1.00098 12 1.00098ZM17.66 6.35098C17.27 5.96098 16.64 5.96098 16.25 6.35098L15.54 7.06098C15.15 7.45098 15.15 8.08098 15.54 8.47098C15.93 8.86098 16.56 8.86098 16.95 8.47098L17.66 7.76098C18.04 7.37098 18.04 6.73098 17.66 6.35098V6.35098ZM17 12.001C17 12.561 17.45 13.001 18 13.001H22C22.55 13.001 23 12.551 23 12.001C23 11.451 22.55 11.001 22 11.001H18C17.45 11.001 17 11.451 17 12.001ZM12 9.00098C10.34 9.00098 9 10.341 9 12.001C9 13.661 10.34 15.001 12 15.001C13.66 15.001 15 13.661 15 12.001C15 10.341 13.66 9.00098 12 9.00098ZM15.53 16.941L16.24 17.651C16.63 18.041 17.26 18.041 17.65 17.651C18.04 17.261 18.04 16.631 17.65 16.241L16.94 15.531C16.55 15.141 15.92 15.141 15.53 15.531C15.15 15.921 15.15 16.561 15.53 16.941V16.941ZM6.34 17.651C6.73 18.041 7.36 18.041 7.75 17.651L8.46 16.941C8.85 16.551 8.85 15.921 8.46 15.531C8.07 15.141 7.44 15.141 7.05 15.531L6.34 16.241C5.96 16.631 5.96 17.271 6.34 17.651V17.651ZM12 23.001C12.56 23.001 13 22.551 13 22.001V18.001C13 17.451 12.55 17.001 12 17.001C11.45 17.001 11 17.451 11 18.001V22.001C11 22.551 11.45 23.001 12 23.001Z"/>
</g>
<defs>
<clipPath id="clip0_61_16969">
<rect transform="translate(0 0.000976562)"/>
</clipPath>
</defs>
</svg>
