<svg   viewBox="0 0 24 24" fill="none" xmlns="http://www.w3.org/2000/svg">
<g clip-path="url(#clip0_61_16971)">
<path d="M16.1166 11.501C16.5066 10.831 16.0266 10.001 15.2566 10.001H13.3866L15.6666 12.281L16.1166 11.501ZM16.2766 3.45098C16.6066 2.78098 16.1266 2.00098 15.3766 2.00098H7.99656C7.44656 2.00098 6.99656 2.45098 6.99656 3.00098V3.61098L13.1266 9.74098L16.2766 3.45098V3.45098ZM18.4366 17.881L4.11656 3.56098C3.72656 3.17098 3.09656 3.17098 2.70656 3.56098C2.31656 3.95098 2.31656 4.58098 2.70656 4.97098L6.99656 9.27098V12.001C6.99656 12.551 7.44656 13.001 7.99656 13.001H9.99656V20.151C9.99656 20.661 10.6666 20.841 10.9266 20.401L13.5766 15.851L17.0166 19.291C17.4066 19.681 18.0366 19.681 18.4266 19.291C18.8266 18.901 18.8266 18.271 18.4366 17.881Z" fill="black"/>
</g>
<defs>
<clipPath id="clip0_61_16971">
<rect width="24" height="24" fill="white" transform="translate(0 0.000976562)"/>
</clipPath>
</defs>
</svg>
