<svg   viewBox="0 0 24 24" fill="none" xmlns="http://www.w3.org/2000/svg">
<g clip-path="url(#clip0_61_16970)">
<path d="M3 3.00098V13.001C3 13.551 3.45 14.001 4 14.001H6V21.151C6 21.661 6.67 21.841 6.93 21.401L12.12 12.501C12.51 11.831 12.03 11.001 11.26 11.001H9L12.38 3.41098C12.67 2.74098 12.18 2.00098 11.46 2.00098H4C3.45 2.00098 3 2.45098 3 3.00098V3.00098ZM18 2.00098C17.4 2.00098 16.87 2.38098 16.66 2.94098L14.22 9.80098C14.02 10.391 14.45 11.001 15.07 11.001C15.45 11.001 15.79 10.761 15.91 10.401L16.4 9.00098H19.6L20.09 10.401C20.22 10.761 20.55 11.001 20.93 11.001C21.55 11.001 21.98 10.391 21.77 9.81098L19.33 2.95098C19.13 2.38098 18.6 2.00098 18 2.00098ZM16.85 7.65098L18 4.00098L19.15 7.65098H16.85V7.65098Z" fill="black"/>
</g>
<defs>
<clipPath id="clip0_61_16970">
<rect width="24" height="24" fill="white" transform="translate(0 0.000976562)"/>
</clipPath>
</defs>
</svg>
