<svg   viewBox="0 0 24 24" fill="none" xmlns="http://www.w3.org/2000/svg">
<g clip-path="url(#clip0_61_16974)">
<path d="M9 12.001C9 13.661 10.34 15.001 12 15.001C13.66 15.001 15 13.661 15 12.001C15 10.341 13.66 9.00098 12 9.00098C10.34 9.00098 9 10.341 9 12.001Z" fill="black"/>
<path d="M8 9.00098C8 8.45098 7.55 8.00098 7 8.00098H5.09C6.47 5.61098 9.05 4.00098 12 4.00098C15.49 4.00098 18.45 6.24098 19.54 9.36098C19.68 9.75098 20.07 10.001 20.48 10.001C21.16 10.001 21.66 9.33098 21.44 8.69098C20.07 4.79098 16.36 2.00098 12 2.00098C8.73 2.00098 5.82 3.58098 4 6.01098V5.00098C4 4.45098 3.55 4.00098 3 4.00098C2.45 4.00098 2 4.45098 2 5.00098V9.00098C2 9.55098 2.45 10.001 3 10.001H7C7.55 10.001 8 9.55098 8 9.00098Z" fill="black"/>
<path d="M16.0003 15.001C16.0003 15.551 16.4503 16.001 17.0003 16.001H18.9103C17.5303 18.391 14.9503 20.001 12.0003 20.001C8.51034 20.001 5.55034 17.761 4.46034 14.641C4.32034 14.251 3.93034 14.001 3.52034 14.001C2.84034 14.001 2.34034 14.671 2.56034 15.311C3.93034 19.211 7.64034 22.001 12.0003 22.001C15.2703 22.001 18.1803 20.421 20.0003 17.991V19.001C20.0003 19.551 20.4503 20.001 21.0003 20.001C21.5503 20.001 22.0003 19.551 22.0003 19.001V15.001C22.0003 14.451 21.5503 14.001 21.0003 14.001H17.0003C16.4503 14.001 16.0003 14.451 16.0003 15.001Z" fill="black"/>
</g>
<defs>
<clipPath id="clip0_61_16974">
<rect width="24" height="24" fill="white" transform="translate(0 0.000976562)"/>
</clipPath>
</defs>
</svg>
