<svg   viewBox="0 0 24 24" fill="none" xmlns="http://www.w3.org/2000/svg">
<g clip-path="url(#clip0_61_16973)">
<path d="M15 21.001H17V19.001H15V21.001ZM19 9.00098H21V7.00098H19V9.00098ZM3 5.00098V19.001C3 20.101 3.9 21.001 5 21.001H8C8.55 21.001 9 20.551 9 20.001C9 19.451 8.55 19.001 8 19.001H6C5.45 19.001 5 18.551 5 18.001V6.00098C5 5.45098 5.45 5.00098 6 5.00098H8C8.55 5.00098 9 4.55098 9 4.00098C9 3.45098 8.55 3.00098 8 3.00098H5C3.9 3.00098 3 3.90098 3 5.00098ZM19 3.00098V5.00098H21C21 3.90098 20.1 3.00098 19 3.00098ZM12 23.001C12.55 23.001 13 22.551 13 22.001V2.00098C13 1.45098 12.55 1.00098 12 1.00098C11.45 1.00098 11 1.45098 11 2.00098V22.001C11 22.551 11.45 23.001 12 23.001ZM19 17.001H21V15.001H19V17.001ZM15 5.00098H17V3.00098H15V5.00098ZM19 13.001H21V11.001H19V13.001ZM19 21.001C20.1 21.001 21 20.101 21 19.001H19V21.001Z" fill="black"/>
</g>
<defs>
<clipPath id="clip0_61_16973">
<rect width="24" height="24" fill="white" transform="translate(0 0.000976562)"/>
</clipPath>
</defs>
</svg>
