<svg viewBox="0 0 24 24" xmlns="http://www.w3.org/2000/svg">
<g clip-path="url(#clip0_61_16975)">
<path d="M20 5.00098H16.83L15.59 3.65098C15.22 3.24098 14.68 3.00098 14.12 3.00098H9.88C9.32 3.00098 8.78 3.24098 8.4 3.65098L7.17 5.00098H4C2.9 5.00098 2 5.90098 2 7.00098V19.001C2 20.101 2.9 21.001 4 21.001H20C21.1 21.001 22 20.101 22 19.001V7.00098C22 5.90098 21.1 5.00098 20 5.00098ZM13.67 17.701C13.15 17.891 12.59 18.001 12 18.001C9.24 18.001 7 15.761 7 13.001H5L7.5 10.501L10 13.001H8C8 15.211 9.79 17.001 12 17.001C12.46 17.001 12.91 16.921 13.32 16.771C13.51 16.701 13.71 16.741 13.85 16.881C14.11 17.141 14.01 17.571 13.67 17.701ZM16.5 15.501L14 13.001H16C16 10.791 14.21 9.00098 12 9.00098C11.54 9.00098 11.09 9.08098 10.68 9.23098C10.49 9.30098 10.29 9.26098 10.15 9.12098C9.89 8.86098 9.99 8.43098 10.33 8.30098C10.85 8.11098 11.41 8.00098 12 8.00098C14.76 8.00098 17 10.241 17 13.001H19L16.5 15.501Z"/>
</g>
<defs>
<clipPath id="clip0_61_16975">
<rect transform="translate(0 0.000976562)"/>
</clipPath>
</defs>
</svg>
