<svg   viewBox="0 0 24 24" fill="none" xmlns="http://www.w3.org/2000/svg">
<g clip-path="url(#clip0_61_16976)">
<path d="M11 9.00098H13V11.001H11V9.00098ZM9 11.001H11V13.001H9V11.001ZM13 11.001H15V13.001H13V11.001ZM15 9.00098H17V11.001H15V9.00098ZM7 9.00098H9V11.001H7V9.00098ZM19 3.00098H5C3.9 3.00098 3 3.90098 3 5.00098V19.001C3 20.101 3.9 21.001 5 21.001H19C20.1 21.001 21 20.101 21 19.001V5.00098C21 3.90098 20.1 3.00098 19 3.00098ZM9 18.001H7V16.001H9V18.001ZM13 18.001H11V16.001H13V18.001ZM17 18.001H15V16.001H17V18.001ZM19 11.001H17V13.001H19V15.001H17V13.001H15V15.001H13V13.001H11V15.001H9V13.001H7V15.001H5V13.001H7V11.001H5V6.00098C5 5.45098 5.45 5.00098 6 5.00098H18C18.55 5.00098 19 5.45098 19 6.00098V11.001Z" fill="black"/>
</g>
<defs>
<clipPath id="clip0_61_16976">
<rect width="24" height="24" fill="white" transform="translate(0 0.000976562)"/>
</clipPath>
</defs>
</svg>
