<svg viewBox="0 0 24 24" xmlns="http://www.w3.org/2000/svg">
<g clip-path="url(#clip0_61_16977)">
<path d="M10 12.001C8.9 12.001 8 12.901 8 14.001C8 15.101 8.9 16.001 10 16.001C11.1 16.001 12 15.101 12 14.001C12 12.901 11.1 12.001 10 12.001ZM6 8.00098C4.9 8.00098 4 8.90098 4 10.001C4 11.101 4.9 12.001 6 12.001C7.1 12.001 8 11.101 8 10.001C8 8.90098 7.1 8.00098 6 8.00098ZM6 16.001C4.9 16.001 4 16.901 4 18.001C4 19.101 4.9 20.001 6 20.001C7.1 20.001 8 19.101 8 18.001C8 16.901 7.1 16.001 6 16.001ZM18 8.00098C19.1 8.00098 20 7.10098 20 6.00098C20 4.90098 19.1 4.00098 18 4.00098C16.9 4.00098 16 4.90098 16 6.00098C16 7.10098 16.9 8.00098 18 8.00098ZM14 16.001C12.9 16.001 12 16.901 12 18.001C12 19.101 12.9 20.001 14 20.001C15.1 20.001 16 19.101 16 18.001C16 16.901 15.1 16.001 14 16.001ZM18 12.001C16.9 12.001 16 12.901 16 14.001C16 15.101 16.9 16.001 18 16.001C19.1 16.001 20 15.101 20 14.001C20 12.901 19.1 12.001 18 12.001ZM14 8.00098C12.9 8.00098 12 8.90098 12 10.001C12 11.101 12.9 12.001 14 12.001C15.1 12.001 16 11.101 16 10.001C16 8.90098 15.1 8.00098 14 8.00098ZM10 4.00098C8.9 4.00098 8 4.90098 8 6.00098C8 7.10098 8.9 8.00098 10 8.00098C11.1 8.00098 12 7.10098 12 6.00098C12 4.90098 11.1 4.00098 10 4.00098Z"/>
</g>
<defs>
<clipPath id="clip0_61_16977">
<rect transform="translate(0 0.000976562)"/>
</clipPath>
</defs>
</svg>
