<svg viewBox="0 0 24 24" xmlns="http://www.w3.org/2000/svg">
<g clip-path="url(#clip0_61_16979)">
<path d="M20 2.00098H4C2.9 2.00098 2 2.90098 2 4.00098V20.001C2 21.101 2.9 22.001 4 22.001H20C21.1 22.001 22 21.101 22 20.001V4.00098C22 2.90098 21.1 2.00098 20 2.00098ZM8 20.001H5C4.45 20.001 4 19.551 4 19.001V16.001H8V20.001ZM8 14.001H4V10.001H8V14.001ZM8 8.00098H4V5.00098C4 4.45098 4.45 4.00098 5 4.00098H8V8.00098ZM14 20.001H10V16.001H14V20.001ZM14 14.001H10V10.001H14V14.001ZM14 8.00098H10V4.00098H14V8.00098ZM19 20.001H16V16.001H20V19.001C20 19.551 19.55 20.001 19 20.001ZM20 14.001H16V10.001H20V14.001ZM20 8.00098H16V4.00098H19C19.55 4.00098 20 4.45098 20 5.00098V8.00098Z"/>
</g>
<defs>
<clipPath id="clip0_61_16979">
<rect transform="translate(0 0.000976562)"/>
</clipPath>
</defs>
</svg>
