<svg viewBox="0 0 24 24" xmlns="http://www.w3.org/2000/svg">
<g clip-path="url(#clip0_61_16978)">
<path d="M7.99656 4.00084V4.89084L9.99656 6.89084V4.00084H13.9966V8.00084H11.1066L13.1066 10.0008H13.9966V10.8908L15.9966 12.8908V10.0008H19.9966V14.0008H17.1066L19.1066 16.0008H19.9966V16.8908L21.9966 18.8908V4.00084C21.9966 2.90084 21.0966 2.00084 19.9966 2.00084H5.10656L7.10656 4.00084H7.99656ZM15.9966 4.00084H18.9966C19.5466 4.00084 19.9966 4.45084 19.9966 5.00084V8.00084H15.9966V4.00084ZM22.1566 21.8808L2.11656 1.84084C1.72656 1.45084 1.09656 1.45084 0.706562 1.84084C0.316563 2.23084 0.316563 2.86084 0.706562 3.25084L1.99656 4.55084V20.0008C1.99656 21.1008 2.89656 22.0008 3.99656 22.0008H19.4466L20.7466 23.3008C21.1366 23.6908 21.7666 23.6908 22.1566 23.3008C22.5466 22.9108 22.5466 22.2708 22.1566 21.8808V21.8808ZM9.99656 12.5508L11.4466 14.0008H9.99656V12.5508ZM3.99656 6.55084L5.44656 8.00084H3.99656V6.55084V6.55084ZM7.99656 20.0008H4.99656C4.44656 20.0008 3.99656 19.5508 3.99656 19.0008V16.0008H7.99656V20.0008ZM7.99656 14.0008H3.99656V10.0008H7.44656L7.99656 10.5508V14.0008ZM13.9966 20.0008H9.99656V16.0008H13.4466L13.9966 16.5508V20.0008ZM15.9966 20.0008V18.5508L17.4466 20.0008H15.9966Z"/>
</g>
<defs>
<clipPath id="clip0_61_16978">
<rect transform="translate(0 0.000976562)"/>
</clipPath>
</defs>
</svg>
