<svg viewBox="0 0 24 24" xmlns="http://www.w3.org/2000/svg">
<g clip-path="url(#clip0_61_16982)">
<path d="M17 6.00098C13.69 6.00098 11 8.69098 11 12.001C11 15.311 13.69 18.001 17 18.001C20.31 18.001 23 15.311 23 12.001C23 8.69098 20.31 6.00098 17 6.00098ZM5 8.00098C2.79 8.00098 1 9.79098 1 12.001C1 14.211 2.79 16.001 5 16.001C7.21 16.001 9 14.211 9 12.001C9 9.79098 7.21 8.00098 5 8.00098ZM5 14.001C3.9 14.001 3 13.101 3 12.001C3 10.901 3.9 10.001 5 10.001C6.1 10.001 7 10.901 7 12.001C7 13.101 6.1 14.001 5 14.001Z"/>
</g>
<defs>
<clipPath id="clip0_61_16982">
<rect transform="translate(0 0.000976562)"/>
</clipPath>
</defs>
</svg>
