<svg   viewBox="0 0 24 24" fill="none" xmlns="http://www.w3.org/2000/svg">
<g clip-path="url(#clip0_61_16981)">
<path d="M7.25 9.00098C6.84 9.00098 6.5 9.34098 6.5 9.75098V11.001H4.5V9.75098C4.5 9.34098 4.16 9.00098 3.75 9.00098C3.34 9.00098 3 9.34098 3 9.75098V14.251C3 14.661 3.34 15.001 3.75 15.001C4.16 15.001 4.5 14.661 4.5 14.251V12.501H6.5V14.251C6.5 14.661 6.84 15.001 7.25 15.001C7.66 15.001 8 14.661 8 14.251V9.75098C8 9.34098 7.66 9.00098 7.25 9.00098ZM21 11.501V10.501C21 9.67098 20.33 9.00098 19.5 9.00098H17C16.45 9.00098 16 9.45098 16 10.001V14.251C16 14.661 16.34 15.001 16.75 15.001C17.16 15.001 17.5 14.661 17.5 14.251V13.001H18.6L19.32 14.591C19.43 14.841 19.68 15.001 19.95 15.001C20.45 15.001 20.78 14.491 20.59 14.041L20.1 12.901C20.6 12.601 21 12.101 21 11.501V11.501ZM17.5 11.501V10.501H19.5V11.501H17.5ZM13 9.00098H10C9.72 9.00098 9.5 9.22098 9.5 9.50098V14.501C9.5 14.781 9.72 15.001 10 15.001H13C13.82 15.001 14.5 14.321 14.5 13.501V10.501C14.5 9.68098 13.82 9.00098 13 9.00098ZM13 13.501H11V10.501H13V13.501Z" fill="black"/>
</g>
<defs>
<clipPath id="clip0_61_16981">
<rect width="24" height="24" fill="white" transform="translate(0 0.000976562)"/>
</clipPath>
</defs>
</svg>
