<svg   viewBox="0 0 24 24" fill="none" xmlns="http://www.w3.org/2000/svg">
<g clip-path="url(#clip0_61_16983)">
<path d="M5 8.00098C2.79 8.00098 1 9.79098 1 12.001C1 14.211 2.79 16.001 5 16.001C7.21 16.001 9 14.211 9 12.001C9 9.79098 7.21 8.00098 5 8.00098ZM17 6.00098C13.69 6.00098 11 8.69098 11 12.001C11 15.311 13.69 18.001 17 18.001C20.31 18.001 23 15.311 23 12.001C23 8.69098 20.31 6.00098 17 6.00098ZM17 16.001C14.79 16.001 13 14.211 13 12.001C13 9.79098 14.79 8.00098 17 8.00098C19.21 8.00098 21 9.79098 21 12.001C21 14.211 19.21 16.001 17 16.001Z" fill="black"/>
</g>
<defs>
<clipPath id="clip0_61_16983">
<rect width="24" height="24" fill="white" transform="translate(0 0.000976562)"/>
</clipPath>
</defs>
</svg>
