<svg viewBox="0 0 24 24" xmlns="http://www.w3.org/2000/svg">
<g clip-path="url(#clip0_61_16980)">
<path d="M17.5031 14.251V13.001H18.6031L19.3231 14.591C19.4331 14.841 19.6831 15.001 19.9531 15.001C20.4531 15.001 20.7831 14.491 20.5931 14.041L20.1031 12.901C20.6031 12.601 21.0031 12.101 21.0031 11.501V10.501C21.0031 9.67098 20.3331 9.00098 19.5031 9.00098H17.0031C16.4531 9.00098 16.0031 9.45098 16.0031 10.001V13.901L17.0431 14.941C17.3131 14.831 17.5031 14.561 17.5031 14.251V14.251ZM17.5031 10.501H19.5031V11.501H17.5031V10.501ZM13.0031 10.501V10.901L14.5031 12.401V10.501C14.5031 9.68098 13.8231 9.00098 13.0031 9.00098H11.1031L12.6031 10.501H13.0031ZM21.0331 21.031L3.03312 3.03098C2.74312 2.74098 2.27312 2.74098 1.98313 3.03098C1.69313 3.32098 1.69313 3.79098 1.98313 4.08098L6.96313 9.06098C6.69313 9.17098 6.50313 9.44098 6.50313 9.75098V11.001H4.50312V9.75098C4.50312 9.34098 4.16312 9.00098 3.75312 9.00098C3.34312 9.00098 3.00312 9.34098 3.00312 9.75098V14.251C3.00312 14.661 3.34312 15.001 3.75312 15.001C4.16312 15.001 4.50312 14.661 4.50312 14.251V12.501H6.50313V14.251C6.50313 14.661 6.84313 15.001 7.25313 15.001C7.66313 15.001 8.00313 14.661 8.00313 14.251V10.101L9.50313 11.601V14.501C9.50313 14.781 9.72313 15.001 10.0031 15.001H12.5031C12.6231 15.001 12.7431 14.991 12.8631 14.961L19.9731 22.071C20.2631 22.361 20.7331 22.361 21.0231 22.071C21.3131 21.791 21.3131 21.321 21.0331 21.031Z"/>
</g>
<defs>
<clipPath id="clip0_61_16980">
<rect transform="translate(0 0.000976562)"/>
</clipPath>
</defs>
</svg>
