<svg   viewBox="0 0 24 24" fill="none" xmlns="http://www.w3.org/2000/svg">
<g clip-path="url(#clip0_61_16984)">
<path d="M17.7334 12.021L21.7134 8.04104C22.1034 7.65104 22.1034 7.02104 21.7134 6.63104L17.3734 2.29104C16.9834 1.90104 16.3534 1.90104 15.9634 2.29104L11.9834 6.27104L8.00344 2.29104C7.80344 2.10104 7.55344 2.00104 7.29344 2.00104C7.04344 2.00104 6.78344 2.10104 6.59344 2.29104L2.25344 6.63104C1.86344 7.02104 1.86344 7.65104 2.25344 8.04104L6.23344 12.021L2.25344 16.001C1.86344 16.391 1.86344 17.021 2.25344 17.411L6.59344 21.751C6.98344 22.141 7.61344 22.141 8.00344 21.751L11.9834 17.771L15.9634 21.751C16.1634 21.951 16.4134 22.041 16.6734 22.041C16.9334 22.041 17.1834 21.941 17.3834 21.751L21.7234 17.411C22.1134 17.021 22.1134 16.391 21.7234 16.001L17.7334 12.021V12.021ZM12.0034 9.00104C12.5534 9.00104 13.0034 9.45103 13.0034 10.001C13.0034 10.551 12.5534 11.001 12.0034 11.001C11.4534 11.001 11.0034 10.551 11.0034 10.001C11.0034 9.45103 11.4534 9.00104 12.0034 9.00104ZM7.29344 10.961L3.66344 7.34104L7.29344 3.71104L10.9134 7.33104L7.29344 10.961ZM10.0034 13.001C9.45344 13.001 9.00344 12.551 9.00344 12.001C9.00344 11.451 9.45344 11.001 10.0034 11.001C10.5534 11.001 11.0034 11.451 11.0034 12.001C11.0034 12.551 10.5534 13.001 10.0034 13.001ZM12.0034 15.001C11.4534 15.001 11.0034 14.551 11.0034 14.001C11.0034 13.451 11.4534 13.001 12.0034 13.001C12.5534 13.001 13.0034 13.451 13.0034 14.001C13.0034 14.551 12.5534 15.001 12.0034 15.001ZM14.0034 11.001C14.5534 11.001 15.0034 11.451 15.0034 12.001C15.0034 12.551 14.5534 13.001 14.0034 13.001C13.4534 13.001 13.0034 12.551 13.0034 12.001C13.0034 11.451 13.4534 11.001 14.0034 11.001ZM16.6634 20.341L13.0334 16.721L16.6634 13.091L20.2834 16.711L16.6634 20.341Z" fill="black"/>
</g>
<defs>
<clipPath id="clip0_61_16984">
<rect width="24" height="24" fill="white" transform="translate(0 0.000976562)"/>
</clipPath>
</defs>
</svg>
