<svg viewBox="0 0 24 24" xmlns="http://www.w3.org/2000/svg">
<g clip-path="url(#clip0_61_16987)">
<path d="M21.1928 21.1911L20.4128 20.4111L18.0028 18.0011L13.4128 13.4111L3.59282 3.59105L2.81282 2.81105C2.42282 2.42105 1.79282 2.42105 1.40282 2.81105C1.00282 3.20105 1.00282 3.83105 1.39282 4.22105L3.00282 5.83105V19.0011C3.00282 20.1011 3.90282 21.0011 5.00282 21.0011H18.1728L19.7828 22.6111C20.1728 23.0011 20.8028 23.0011 21.1928 22.6111C21.5828 22.2211 21.5828 21.5811 21.1928 21.1911ZM6.02282 18.0011C5.60282 18.0011 5.37282 17.5211 5.63282 17.1911L8.12282 13.9911C8.32282 13.7411 8.70282 13.7311 8.90282 13.9811L11.0028 16.5111L12.1728 15.0011L15.1728 18.0011H6.02282ZM21.0028 18.1711L5.83282 3.00105H19.0028C20.1028 3.00105 21.0028 3.90105 21.0028 5.00105V18.1711Z"/>
</g>
<defs>
<clipPath id="clip0_61_16987">
<rect transform="translate(0 0.000976562)"/>
</clipPath>
</defs>
</svg>
