<svg viewBox="0 0 24 24" xmlns="http://www.w3.org/2000/svg">
<g clip-path="url(#clip0_61_16988)">
<path d="M18 15.0009V19.0009C18 19.5509 17.55 20.0009 17 20.0009H5C4.45 20.0009 4 19.5509 4 19.0009V7.00092C4 6.45092 4.45 6.00092 5 6.00092H8.02C8.57 6.00092 9.02 5.55092 9.02 5.00092C9.02 4.45092 8.57 4.00092 8.02 4.00092H4C2.9 4.00092 2 4.90092 2 6.00092V20.0009C2 21.1009 2.9 22.0009 4 22.0009H18C19.1 22.0009 20 21.1009 20 20.0009V15.0009C20 14.4509 19.55 14.0009 19 14.0009C18.45 14.0009 18 14.4509 18 15.0009ZM15.5 18.0009H6.52C6.1 18.0009 5.87 17.5209 6.13 17.1909L7.87 14.9609C8.07 14.7109 8.45 14.7009 8.65 14.9509L10.21 16.8309L12.56 13.8109C12.76 13.5509 13.16 13.5509 13.35 13.8209L15.9 17.2109C16.15 17.5309 15.91 18.0009 15.5 18.0009V18.0009ZM19.3 8.89092C19.78 8.12092 20.05 7.22092 19.99 6.23092C19.86 4.08091 18.15 2.26092 16.02 2.03092C13.3 1.73092 11 3.84091 11 6.50092C11 8.99092 13.01 11.0009 15.49 11.0009C16.37 11.0009 17.19 10.7409 17.88 10.3009L20.29 12.7109C20.68 13.1009 21.32 13.1009 21.71 12.7109C22.1 12.3209 22.1 11.6809 21.71 11.2909L19.3 8.89092ZM15.5 9.00092C14.12 9.00092 13 7.88092 13 6.50092C13 5.12092 14.12 4.00092 15.5 4.00092C16.88 4.00092 18 5.12092 18 6.50092C18 7.88092 16.88 9.00092 15.5 9.00092Z"/>
</g>
<defs>
<clipPath id="clip0_61_16988">
<rect transform="translate(0 0.000976562)"/>
</clipPath>
</defs>
</svg>
