<svg viewBox="0 0 24 24" xmlns="http://www.w3.org/2000/svg">
<g clip-path="url(#clip0_61_16986)">
<path d="M16 10.001H14V12.001H16V10.001ZM16 14.001H14V16.001H16V14.001ZM8 10.001H6V12.001H8V10.001ZM12 10.001H10V12.001H12V10.001ZM20 4.00098H4C2.9 4.00098 2 4.90098 2 6.00098V18.001C2 19.101 2.9 20.001 4 20.001H20C21.1 20.001 22 19.101 22 18.001V6.00098C22 4.90098 21.1 4.00098 20 4.00098ZM19 18.001H5C4.45 18.001 4 17.551 4 17.001V7.00098C4 6.45098 4.45 6.00098 5 6.00098H19C19.55 6.00098 20 6.45098 20 7.00098V17.001C20 17.551 19.55 18.001 19 18.001Z"/>
</g>
<defs>
<clipPath id="clip0_61_16986">
<rect transform="translate(0 0.000976562)"/>
</clipPath>
</defs>
</svg>
