<svg   viewBox="0 0 24 24" fill="none" xmlns="http://www.w3.org/2000/svg">
<g clip-path="url(#clip0_61_16989)">
<path d="M19 3.00098H5C3.9 3.00098 3 3.90098 3 5.00098V19.001C3 20.101 3.9 21.001 5 21.001H19C20.1 21.001 21 20.101 21 19.001V5.00098C21 3.90098 20.1 3.00098 19 3.00098ZM6.25 7.50098H7.5V6.25098C7.5 5.84098 7.84 5.50098 8.25 5.50098C8.66 5.50098 9 5.84098 9 6.25098V7.50098H10.25C10.66 7.50098 11 7.84098 11 8.25098C11 8.66098 10.66 9.00098 10.25 9.00098H9V10.251C9 10.661 8.66 11.001 8.25 11.001C7.84 11.001 7.5 10.661 7.5 10.251V9.00098H6.25C5.84 9.00098 5.5 8.66098 5.5 8.25098C5.5 7.84098 5.84 7.50098 6.25 7.50098ZM18 19.001H5L19 5.00098V18.001C19 18.551 18.55 19.001 18 19.001ZM17 16.251C17 15.841 16.66 15.501 16.25 15.501H12.75C12.34 15.501 12 15.841 12 16.251C12 16.661 12.34 17.001 12.75 17.001H16.25C16.66 17.001 17 16.661 17 16.251Z" fill="black"/>
</g>
<defs>
<clipPath id="clip0_61_16989">
<rect width="24" height="24" fill="white" transform="translate(0 0.000976562)"/>
</clipPath>
</defs>
</svg>
