<svg viewBox="0 0 24 24" xmlns="http://www.w3.org/2000/svg">
<g clip-path="url(#clip0_61_16992)">
<path d="M20.1213 12.041C20.6213 11.991 21.0012 11.561 21.0012 11.051C21.0012 10.461 20.4912 9.991 19.9012 10.051C18.4012 10.201 17.0013 10.661 15.7413 11.351L17.2212 12.831C18.1212 12.421 19.0913 12.141 20.1213 12.041V12.041ZM21.0012 15.091C21.0012 14.481 20.4612 14.001 19.8612 14.091C19.4812 14.151 19.1113 14.251 18.7513 14.371L20.3713 15.991C20.7413 15.841 21.0012 15.501 21.0012 15.091V15.091ZM13.9713 4.141C14.0313 3.551 13.5713 3.031 12.9713 3.031C12.4713 3.031 12.0312 3.401 11.9812 3.901C11.8812 4.931 11.6012 5.911 11.1912 6.811L12.6713 8.291C13.3613 7.031 13.8213 5.631 13.9713 4.141V4.141ZM9.93125 4.161C10.0313 3.561 9.54125 3.021 8.93125 3.021C8.52125 3.021 8.18125 3.281 8.03125 3.641L9.65125 5.261C9.78125 4.911 9.87125 4.541 9.93125 4.161V4.161ZM20.4412 18.881L5.12125 3.561C4.73125 3.171 4.10125 3.171 3.71125 3.561C3.32125 3.951 3.32125 4.581 3.71125 4.971L5.86125 7.121C5.27125 7.531 4.60125 7.821 3.87125 7.941C3.39125 8.041 3.03125 8.441 3.03125 8.941C3.03125 9.551 3.57125 10.031 4.17125 9.941C5.34125 9.751 6.40125 9.261 7.30125 8.571L8.73125 10.001C7.39125 11.101 5.73125 11.821 3.92125 11.991C3.42125 12.041 3.04125 12.471 3.04125 12.981C3.04125 13.571 3.55125 14.041 4.14125 13.981C6.42125 13.751 8.50125 12.831 10.1512 11.421L12.6313 13.901C11.2313 15.551 10.3012 17.621 10.0712 19.901C10.0112 20.491 10.4712 21.011 11.0712 21.011C11.5712 21.011 12.0113 20.641 12.0613 20.141C12.2413 18.321 12.9613 16.661 14.0513 15.321L15.4812 16.751C14.7912 17.651 14.3012 18.711 14.1112 19.881C14.0112 20.481 14.5012 21.021 15.1112 21.021C15.6012 21.021 16.0113 20.661 16.0913 20.171C16.2113 19.441 16.5113 18.771 16.9113 18.181L19.0413 20.311C19.4313 20.701 20.0613 20.701 20.4513 20.311C20.8313 19.901 20.8312 19.271 20.4412 18.881V18.881Z"/>
</g>
<defs>
<clipPath id="clip0_61_16992">
<rect transform="translate(0 0.000976562)"/>
</clipPath>
</defs>
</svg>
