<svg   viewBox="0 0 24 24" fill="none" xmlns="http://www.w3.org/2000/svg">
<g clip-path="url(#clip0_61_16991)">
<path d="M11.0534 21.001C11.5534 21.001 11.9934 20.631 12.0434 20.131C12.4534 15.861 15.8534 12.461 20.1234 12.051C20.6234 12.001 21.0034 11.571 21.0034 11.061C21.0034 10.471 20.4934 10.001 19.9034 10.061C14.7134 10.581 10.5834 14.711 10.0634 19.891C10.0034 20.481 10.4634 21.001 11.0534 21.001V21.001ZM18.0034 21.001H21.0034V18.001C19.3434 18.001 18.0034 19.341 18.0034 21.001ZM15.0934 21.001C15.5834 21.001 15.9934 20.641 16.0734 20.151C16.4334 18.071 18.0734 16.431 20.1534 16.071C20.6434 15.991 21.0034 15.581 21.0034 15.091C21.0034 14.481 20.4634 14.001 19.8634 14.091C16.9034 14.571 14.5734 16.901 14.0934 19.861C13.9934 20.461 14.4834 21.001 15.0934 21.001ZM12.9734 3.021C12.4734 3.021 12.0334 3.391 11.9834 3.891C11.5734 8.161 8.17344 11.561 3.90344 11.971C3.40344 12.021 3.02344 12.451 3.02344 12.961C3.02344 13.551 3.53344 14.021 4.12344 13.961C9.31344 13.441 13.4434 9.311 13.9634 4.131C14.0334 3.551 13.5734 3.021 12.9734 3.021V3.021ZM6.03344 3.021H3.03344V6.021C4.69344 6.021 6.03344 4.681 6.03344 3.021V3.021ZM8.94344 3.021C8.45344 3.021 8.04344 3.381 7.96344 3.871C7.60344 5.951 5.96344 7.591 3.88344 7.951C3.39344 8.041 3.03344 8.441 3.03344 8.941C3.03344 9.551 3.57344 10.031 4.17344 9.941C7.13344 9.461 9.46344 7.131 9.94344 4.171C10.0334 3.561 9.54344 3.021 8.94344 3.021Z" fill="black"/>
</g>
<defs>
<clipPath id="clip0_61_16991">
<rect width="24" height="24" fill="white" transform="translate(0 0.000976562)"/>
</clipPath>
</defs>
</svg>
