<svg   viewBox="0 0 24 24" fill="none" xmlns="http://www.w3.org/2000/svg">
<g clip-path="url(#clip0_61_16994)">
<path d="M12 17.001C13.6569 17.001 15 15.6578 15 14.001C15 12.3441 13.6569 11.001 12 11.001C10.3431 11.001 9 12.3441 9 14.001C9 15.6578 10.3431 17.001 12 17.001Z" fill="black"/>
<path d="M16.6 3.37106C18.7 3.64106 20.37 5.30106 20.63 7.40106C20.67 7.74106 20.95 8.00106 21.29 8.00106C21.68 8.00106 22 7.66106 21.95 7.27106C21.62 4.55106 19.45 2.38106 16.73 2.05106C16.34 2.00106 16 2.32106 16 2.71106C16 3.05106 16.26 3.33106 16.6 3.37106V3.37106ZM19.23 7.19106C18.93 6.00106 18 5.07106 16.81 4.77106C16.4 4.67106 16 4.99106 16 5.42106C16 5.71106 16.19 5.99106 16.48 6.06106C17.2 6.24106 17.77 6.80106 17.94 7.52106C18.01 7.81106 18.28 8.00106 18.58 8.00106C19.01 8.00106 19.33 7.60106 19.23 7.19106V7.19106ZM17 9.00106C17 7.90106 16.1 7.00106 15 7.00106V5.00106C15 4.45106 14.55 4.00106 14 4.00106H9.88C9.32 4.00106 8.78 4.24106 8.4 4.65106L7.17 6.00106H4C2.9 6.00106 2 6.90106 2 8.00106V20.0011C2 21.1011 2.9 22.0011 4 22.0011H20C21.1 22.0011 22 21.1011 22 20.0011V11.0011C22 9.90106 21.1 9.00106 20 9.00106H17ZM12 19.0011C9.24 19.0011 7 16.7611 7 14.0011C7 11.2411 9.24 9.00106 12 9.00106C14.76 9.00106 17 11.2411 17 14.0011C17 16.7611 14.76 19.0011 12 19.0011Z" fill="black"/>
</g>
<defs>
<clipPath id="clip0_61_16994">
<rect width="24" height="24" fill="white" transform="translate(0 0.000976562)"/>
</clipPath>
</defs>
</svg>
