<svg viewBox="0 0 24 24" xmlns="http://www.w3.org/2000/svg">
<g clip-path="url(#clip0_61_16996)">
<path d="M18.9978 3.00098H5.00781C3.90781 3.00098 3.00781 3.90098 3.00781 5.00098V19.001C3.00781 20.101 3.90781 21.001 5.00781 21.001H18.9978C20.0978 21.001 20.9978 20.101 20.9978 19.001V5.00098C20.9978 3.90098 20.0978 3.00098 18.9978 3.00098ZM15.0078 10.501C15.0078 11.331 14.3378 12.001 13.5078 12.001C14.3378 12.001 15.0078 12.671 15.0078 13.501V15.001C15.0078 16.111 14.1078 17.001 13.0078 17.001H9.99781C9.44781 17.001 8.99781 16.551 8.99781 16.001C8.99781 15.451 9.44781 15.001 9.99781 15.001H13.0078L12.9978 13.001H11.9978C11.4478 13.001 10.9978 12.551 10.9978 12.001C10.9978 11.451 11.4478 11.001 11.9978 11.001H12.9978L13.0078 9.00098H9.99781C9.44781 9.00098 9.00781 8.55098 9.00781 8.00098C9.00781 7.45098 9.44781 7.00098 9.99781 7.00098H13.0078C14.1078 7.00098 15.0078 7.90098 15.0078 9.00098V10.501Z"/>
</g>
<defs>
<clipPath id="clip0_61_16996">
<rect transform="translate(0 0.000976562)"/>
</clipPath>
</defs>
</svg>
