<svg viewBox="0 0 24 24" xmlns="http://www.w3.org/2000/svg">
<g clip-path="url(#clip0_61_16995)">
<path d="M12.0006 10.001C8.5306 10.001 5.6406 12.541 5.0906 15.861C4.9906 16.461 5.4806 17.001 6.0906 17.001C6.5806 17.001 6.9906 16.641 7.0706 16.151C7.4806 13.791 9.5306 12.001 12.0006 12.001C14.4706 12.001 16.5206 13.791 16.9306 16.151C17.0106 16.641 17.4206 17.001 17.9106 17.001C18.5206 17.001 19.0006 16.461 18.9006 15.861C18.3606 12.541 15.4706 10.001 12.0006 10.001ZM12.0006 6.00098C6.3006 6.00098 1.6106 10.341 1.0506 15.901C1.0006 16.491 1.4606 17.001 2.0606 17.001C2.5706 17.001 3.0006 16.621 3.0506 16.121C3.4906 11.571 7.3406 8.00098 12.0006 8.00098C16.6606 8.00098 20.5106 11.571 20.9606 16.121C21.0106 16.621 21.4406 17.001 21.9506 17.001C22.5406 17.001 23.0106 16.491 22.9506 15.901C22.3906 10.341 17.7006 6.00098 12.0006 6.00098Z"/>
</g>
<defs>
<clipPath id="clip0_61_16995">
<rect transform="translate(0 0.000976562)"/>
</clipPath>
</defs>
</svg>
