<svg viewBox="0 0 24 24" xmlns="http://www.w3.org/2000/svg">
<g clip-path="url(#clip0_61_17001)">
<path d="M19 3.00098H5C3.9 3.00098 3 3.90098 3 5.00098V19.001C3 20.101 3.9 21.001 5 21.001H19C20.1 21.001 21 20.101 21 19.001V5.00098C21 3.90098 20.1 3.00098 19 3.00098ZM15 11.001C15 12.101 14.1 13.001 13 13.001H11V15.001H14C14.55 15.001 15 15.451 15 16.001C15 16.551 14.55 17.001 14 17.001H10C9.45 17.001 9 16.551 9 16.001V13.001C9 11.901 9.9 11.001 11 11.001H13V9.00098H10C9.45 9.00098 9 8.55098 9 8.00098C9 7.45098 9.45 7.00098 10 7.00098H13C14.1 7.00098 15 7.90098 15 9.00098V11.001Z"/>
</g>
<defs>
<clipPath id="clip0_61_17001">
<rect transform="translate(0 0.000976562)"/>
</clipPath>
</defs>
</svg>
