<svg viewBox="0 0 24 24" xmlns="http://www.w3.org/2000/svg">
<g clip-path="url(#clip0_61_16998)">
<path d="M19 3.00098H5C3.9 3.00098 3 3.90098 3 5.00098V19.001C3 20.101 3.9 21.001 5 21.001H19C20.1 21.001 21 20.101 21 19.001V5.00098C21 3.90098 20.1 3.00098 19 3.00098ZM14 9.00098H11V11.001H13C14.1 11.001 15 11.901 15 13.001V15.001C15 16.111 14.1 17.001 13 17.001H10C9.45 17.001 9 16.551 9 16.001C9 15.451 9.45 15.001 10 15.001H13V13.001H10C9.45 13.001 9 12.551 9 12.001V8.00098C9 7.45098 9.45 7.00098 10 7.00098H14C14.55 7.00098 15 7.45098 15 8.00098C15 8.55098 14.55 9.00098 14 9.00098Z"/>
</g>
<defs>
<clipPath id="clip0_61_16998">
<rect transform="translate(0 0.000976562)"/>
</clipPath>
</defs>
</svg>
