<svg   viewBox="0 0 24 24" fill="none" xmlns="http://www.w3.org/2000/svg">
<g clip-path="url(#clip0_61_17000)">
<path d="M19 3.00098H5C3.9 3.00098 3 3.90098 3 5.00098V19.001C3 20.101 3.9 21.001 5 21.001H19C20.1 21.001 21 20.101 21 19.001V5.00098C21 3.90098 20.1 3.00098 19 3.00098ZM13 17.001C12.45 17.001 12 16.551 12 16.001V9.00098H11C10.45 9.00098 10 8.55098 10 8.00098C10 7.45098 10.45 7.00098 11 7.00098H13C13.55 7.00098 14 7.45098 14 8.00098V16.001C14 16.551 13.55 17.001 13 17.001Z" fill="black"/>
</g>
<defs>
<clipPath id="clip0_61_17000">
<rect width="24" height="24" fill="white" transform="translate(0 0.000976562)"/>
</clipPath>
</defs>
</svg>
