<svg viewBox="0 0 24 24" xmlns="http://www.w3.org/2000/svg">
<g clip-path="url(#clip0_61_16997)">
<path d="M19.0391 3.00098H5.03906C3.93906 3.00098 3.03906 3.90098 3.03906 5.00098V19.001C3.03906 20.101 3.93906 21.001 5.03906 21.001H19.0391C20.1391 21.001 21.0391 20.101 21.0391 19.001V5.00098C21.0391 3.90098 20.1391 3.00098 19.0391 3.00098ZM14.0391 17.001C13.4891 17.001 13.0391 16.551 13.0391 16.001V13.001H10.0391C9.48906 13.001 9.03906 12.551 9.03906 12.001V8.00098C9.03906 7.45098 9.48906 7.00098 10.0391 7.00098C10.5891 7.00098 11.0391 7.45098 11.0391 8.00098V11.001H13.0391V8.00098C13.0391 7.45098 13.4891 7.00098 14.0391 7.00098C14.5891 7.00098 15.0391 7.45098 15.0391 8.00098V16.001C15.0391 16.551 14.5891 17.001 14.0391 17.001Z"/>
</g>
<defs>
<clipPath id="clip0_61_16997">
<rect transform="translate(0 0.000976562)"/>
</clipPath>
</defs>
</svg>
