<svg   viewBox="0 0 24 24" fill="none" xmlns="http://www.w3.org/2000/svg">
<g clip-path="url(#clip0_61_17002)">
<path d="M12 7.00098C11.45 7.00098 11 7.45098 11 8.00098V11.001H8C7.45 11.001 7 11.451 7 12.001C7 12.551 7.45 13.001 8 13.001H11V16.001C11 16.551 11.45 17.001 12 17.001C12.55 17.001 13 16.551 13 16.001V13.001H16C16.55 13.001 17 12.551 17 12.001C17 11.451 16.55 11.001 16 11.001H13V8.00098C13 7.45098 12.55 7.00098 12 7.00098ZM12 2.00098C6.49 2.00098 2 6.49098 2 12.001C2 17.511 6.49 22.001 12 22.001H20C21.1 22.001 22 21.101 22 20.001V12.001C22 6.49098 17.51 2.00098 12 2.00098ZM12 20.001C7.59 20.001 4 16.411 4 12.001C4 7.59098 7.59 4.00098 12 4.00098C16.41 4.00098 20 7.59098 20 12.001C20 16.411 16.41 20.001 12 20.001Z" fill="black"/>
</g>
<defs>
<clipPath id="clip0_61_17002">
<rect width="24" height="24" fill="white" transform="translate(0 0.000976562)"/>
</clipPath>
</defs>
</svg>
