<svg viewBox="0 0 24 24" xmlns="http://www.w3.org/2000/svg">
<g clip-path="url(#clip0_61_17003)">
<path d="M20 5.00098H16.8L15.6 3.66098C15.22 3.24098 14.68 3.00098 14.11 3.00098H9.89C9.32 3.00098 8.78 3.24098 8.4 3.66098L7.2 5.00098H4C2.9 5.00098 2 5.90098 2 7.00098V19.001C2 20.101 2.9 21.001 4 21.001H20C21.1 21.001 22 20.101 22 19.001V7.00098C22 5.90098 21.1 5.00098 20 5.00098ZM20 18.001C20 18.551 19.55 19.001 19 19.001H12V18.001C9.2 18.001 7 15.801 7 13.001C7 10.201 9.2 8.00098 12 8.00098V7.00098H19C19.55 7.00098 20 7.45098 20 8.00098V18.001ZM17 13.001C17 10.201 14.8 8.00098 12 8.00098V9.80098C13.8 9.80098 15.2 11.201 15.2 13.001C15.2 14.801 13.8 16.201 12 16.201V18.001C14.8 18.001 17 15.801 17 13.001ZM8.8 13.001C8.8 14.801 10.2 16.201 12 16.201V9.80098C10.2 9.80098 8.8 11.201 8.8 13.001Z"/>
</g>
<defs>
<clipPath id="clip0_61_17003">
<rect transform="translate(0 0.000976562)"/>
</clipPath>
</defs>
</svg>
