<svg   viewBox="0 0 24 24" fill="none" xmlns="http://www.w3.org/2000/svg">
<g clip-path="url(#clip0_61_17004)">
<path d="M9.99964 15.5012V8.50119C9.99964 8.09119 10.4696 7.85119 10.7996 8.10119L15.4696 11.6012C15.7396 11.8012 15.7396 12.2012 15.4696 12.4012L10.7996 15.9012C10.4696 16.1512 9.99964 15.9112 9.99964 15.5012ZM21.9596 11.0512C22.5396 17.3112 17.3196 22.5312 11.0596 21.9512C6.62964 21.5412 2.93964 18.1012 2.15964 13.7212C1.89964 12.3012 1.96964 10.9412 2.27964 9.68119C2.41964 9.10119 3.03964 8.78119 3.58964 8.98119C4.05964 9.15119 4.33964 9.65119 4.21964 10.1412C4.01964 10.9612 3.94964 11.8412 4.02964 12.7512C4.39964 16.7912 7.91964 20.0012 11.9796 20.0112C16.7696 20.0212 20.5896 15.8012 19.9196 10.8912C19.4096 7.19119 16.2596 4.27119 12.5296 4.03119C11.6996 3.97119 10.8996 4.05119 10.1496 4.23119C9.65964 4.34119 9.15964 4.07119 8.98964 3.59119C8.78964 3.03119 9.10964 2.42119 9.67964 2.28119C11.4696 1.85119 13.4296 1.87119 15.4596 2.65119C19.0196 4.00119 21.6096 7.27119 21.9596 11.0512ZM5.49964 4.00119C4.66964 4.00119 3.99964 4.67119 3.99964 5.50119C3.99964 6.33119 4.66964 7.00119 5.49964 7.00119C6.32964 7.00119 6.99964 6.33119 6.99964 5.50119C6.99964 4.67119 6.32964 4.00119 5.49964 4.00119Z" fill="black"/>
</g>
<defs>
<clipPath id="clip0_61_17004">
<rect width="24" height="24" fill="white" transform="translate(0 0.000976562)"/>
</clipPath>
</defs>
</svg>
