<svg viewBox="0 0 24 24" xmlns="http://www.w3.org/2000/svg">
<g clip-path="url(#clip0_61_17006)">
<path d="M21.9596 11.0512C22.5396 17.3112 17.3196 22.5312 11.0596 21.9512C6.62964 21.5412 2.93964 18.1012 2.15964 13.7212C1.89964 12.3012 1.96964 10.9412 2.27964 9.68119C2.41964 9.10119 3.03964 8.78119 3.58964 8.98119C4.05964 9.15119 4.33964 9.65119 4.21964 10.1412C4.01964 10.9612 3.94964 11.8412 4.02964 12.7512C4.39964 16.7912 7.91964 20.0012 11.9796 20.0112C16.7696 20.0212 20.5896 15.8012 19.9196 10.8912C19.4096 7.19119 16.2596 4.27119 12.5296 4.03119C11.6996 3.97119 10.8996 4.05119 10.1496 4.23119C9.65964 4.34119 9.15964 4.07119 8.98964 3.59119C8.78964 3.03119 9.10964 2.42119 9.67964 2.28119C11.4696 1.85119 13.4296 1.87119 15.4596 2.65119C19.0196 4.00119 21.6096 7.27119 21.9596 11.0512ZM5.49964 4.00119C4.66964 4.00119 3.99964 4.67119 3.99964 5.50119C3.99964 6.33119 4.66964 7.00119 5.49964 7.00119C6.32964 7.00119 6.99964 6.33119 6.99964 5.50119C6.99964 4.67119 6.32964 4.00119 5.49964 4.00119ZM10.9996 15.0012V9.00119C10.9996 8.45119 10.5496 8.00119 9.99964 8.00119C9.44964 8.00119 8.99964 8.45119 8.99964 9.00119V15.0012C8.99964 15.5512 9.44964 16.0012 9.99964 16.0012C10.5496 16.0012 10.9996 15.5512 10.9996 15.0012ZM14.9996 15.0012V9.00119C14.9996 8.45119 14.5496 8.00119 13.9996 8.00119C13.4496 8.00119 12.9996 8.45119 12.9996 9.00119V15.0012C12.9996 15.5512 13.4496 16.0012 13.9996 16.0012C14.5496 16.0012 14.9996 15.5512 14.9996 15.0012Z"/>
</g>
<defs>
<clipPath id="clip0_61_17006">
<rect transform="translate(0 0.000976562)"/>
</clipPath>
</defs>
</svg>
