<svg viewBox="0 0 24 24" xmlns="http://www.w3.org/2000/svg">
<g clip-path="url(#clip0_61_17007)">
<path d="M18 4.00098L19.82 7.64098C19.9 7.80098 19.78 8.00098 19.6 8.00098H17.62C17.24 8.00098 16.89 7.79098 16.73 7.45098L15 4.00098H13L14.82 7.64098C14.9 7.80098 14.78 8.00098 14.6 8.00098H12.62C12.24 8.00098 11.89 7.79098 11.73 7.45098L10 4.00098H8L9.82 7.64098C9.9 7.80098 9.78 8.00098 9.6 8.00098H7.62C7.24 8.00098 6.89 7.79098 6.72 7.45098L5 4.00098H4C2.9 4.00098 2 4.90098 2 6.00098V18.001C2 19.101 2.9 20.001 4 20.001H20C21.1 20.001 22 19.101 22 18.001V5.00098C22 4.45098 21.55 4.00098 21 4.00098H18Z"/>
</g>
<defs>
<clipPath id="clip0_61_17007">
<rect transform="translate(0 0.000976562)"/>
</clipPath>
</defs>
</svg>
