<svg   viewBox="0 0 24 24" fill="none" xmlns="http://www.w3.org/2000/svg">
<g clip-path="url(#clip0_61_17008)">
<path d="M21.5 4.00098H18L19.74 6.61098C19.85 6.78098 19.73 7.00098 19.53 7.00098H17.53C17.2 7.00098 16.88 6.83098 16.7 6.55098L15 4.00098H13L14.74 6.61098C14.85 6.78098 14.73 7.00098 14.53 7.00098H12.53C12.2 7.00098 11.88 6.83098 11.7 6.55098L10 4.00098H8L9.74 6.61098C9.85 6.78098 9.73 7.00098 9.53 7.00098H7.53C7.2 7.00098 6.89 6.83098 6.7 6.55098L5 4.00098H4C2.9 4.00098 2.01 4.90098 2.01 6.00098L2 18.001C2 19.101 2.9 20.001 4 20.001H20C21.1 20.001 22 19.101 22 18.001V4.50098C22 4.22098 21.78 4.00098 21.5 4.00098ZM11.25 15.251L10 18.001L8.75 15.251L6 14.001L8.75 12.751L10 10.001L11.25 12.751L14 14.001L11.25 15.251ZM16.94 11.941L16 14.001L15.06 11.941L13 11.001L15.06 10.061L16 8.00098L16.94 10.061L19 11.001L16.94 11.941Z" fill="black"/>
</g>
<defs>
<clipPath id="clip0_61_17008">
<rect width="24" height="24" fill="white" transform="translate(0 0.000976562)"/>
</clipPath>
</defs>
</svg>
