<svg viewBox="0 0 24 24" xmlns="http://www.w3.org/2000/svg">
<g clip-path="url(#clip0_61_17010)">
<path d="M13.9966 9.61098V7.00098H15.9966C17.0966 7.00098 17.9966 6.10098 17.9966 5.00098C17.9966 3.90098 17.0966 3.00098 15.9966 3.00098H12.9966C12.4466 3.00098 11.9966 3.45098 11.9966 4.00098V7.61098L13.9966 9.61098ZM5.11656 3.56098C4.72656 3.17098 4.09656 3.17098 3.70656 3.56098C3.31656 3.95098 3.31656 4.58098 3.70656 4.97098L11.9966 13.271V13.551C11.0566 13.011 9.89656 12.801 8.66656 13.231C7.32656 13.711 6.29656 14.901 6.05656 16.301C5.59656 19.041 7.91656 21.381 10.6466 20.951C12.6066 20.641 13.9966 18.841 13.9966 16.851V15.271L19.0166 20.291C19.4066 20.681 20.0366 20.681 20.4266 20.291C20.8166 19.901 20.8166 19.271 20.4266 18.881L5.11656 3.56098Z"/>
</g>
<defs>
<clipPath id="clip0_61_17010">
<rect transform="translate(0 0.000976562)"/>
</clipPath>
</defs>
</svg>
