<svg viewBox="0 0 24 24" xmlns="http://www.w3.org/2000/svg">
<g clip-path="url(#clip0_61_17012)">
<path d="M4.5 11.001C5.32843 11.001 6 10.3294 6 9.50098C6 8.67255 5.32843 8.00098 4.5 8.00098C3.67157 8.00098 3 8.67255 3 9.50098C3 10.3294 3.67157 11.001 4.5 11.001Z"/>
<path d="M22.17 9.17076C22.17 5.26076 18.98 2.11077 15.06 2.17077C11.23 2.23077 8.07 5.54076 8.18 9.36076C8.27 12.7408 10.76 15.5208 14.01 16.0608V20.0008H6V17.0008H6.5C6.78 17.0008 7 16.7808 7 16.5008V13.0008C7 12.4508 6.55 12.0008 6 12.0008H3C2.45 12.0008 2 12.4508 2 13.0008V16.5008C2 16.7808 2.22 17.0008 2.5 17.0008H3V21.0008C3 21.5508 3.45 22.0008 4 22.0008H18C18.55 22.0008 19 21.5508 19 21.0008C19 20.4508 18.55 20.0008 18 20.0008H16V16.1208C19.47 15.7108 22.17 12.7608 22.17 9.17076V9.17076Z"/>
</g>
<defs>
<clipPath id="clip0_61_17012">
<rect transform="translate(0 0.000976562)"/>
</clipPath>
</defs>
</svg>
