<svg viewBox="0 0 24 24" xmlns="http://www.w3.org/2000/svg">
<g clip-path="url(#clip0_61_17015)">
<path d="M12 3.00098C7.03 3.00098 3 7.03098 3 12.001C3 16.971 7.03 21.001 12 21.001C12.83 21.001 13.5 20.331 13.5 19.501C13.5 19.111 13.35 18.761 13.11 18.491C12.88 18.231 12.73 17.881 12.73 17.501C12.73 16.671 13.4 16.001 14.23 16.001H16C18.76 16.001 21 13.761 21 11.001C21 6.58098 16.97 3.00098 12 3.00098ZM6.5 12.001C5.67 12.001 5 11.331 5 10.501C5 9.67098 5.67 9.00098 6.5 9.00098C7.33 9.00098 8 9.67098 8 10.501C8 11.331 7.33 12.001 6.5 12.001ZM9.5 8.00098C8.67 8.00098 8 7.33098 8 6.50098C8 5.67098 8.67 5.00098 9.5 5.00098C10.33 5.00098 11 5.67098 11 6.50098C11 7.33098 10.33 8.00098 9.5 8.00098ZM14.5 8.00098C13.67 8.00098 13 7.33098 13 6.50098C13 5.67098 13.67 5.00098 14.5 5.00098C15.33 5.00098 16 5.67098 16 6.50098C16 7.33098 15.33 8.00098 14.5 8.00098ZM17.5 12.001C16.67 12.001 16 11.331 16 10.501C16 9.67098 16.67 9.00098 17.5 9.00098C18.33 9.00098 19 9.67098 19 10.501C19 11.331 18.33 12.001 17.5 12.001Z"/>
</g>
<defs>
<clipPath id="clip0_61_17015">
<rect transform="translate(0 0.000976562)"/>
</clipPath>
</defs>
</svg>
