<svg viewBox="0 0 24 24" xmlns="http://www.w3.org/2000/svg">
<g clip-path="url(#clip0_61_17020)">
<path d="M12 6.00098C14.45 6.00098 16.71 6.20098 19.29 6.64098C19.76 8.42098 20 10.221 20 12.001C20 13.781 19.76 15.581 19.29 17.361C16.71 17.801 14.45 18.001 12 18.001C9.55 18.001 7.29 17.801 4.71 17.361C4.24 15.581 4 13.781 4 12.001C4 10.221 4.24 8.42098 4.71 6.64098C7.29 6.20098 9.55 6.00098 12 6.00098ZM12 4.00098C9.27 4.00098 6.78 4.24098 4.05 4.72098L3.12 4.88098L2.87 5.78098C2.29 7.85098 2 9.93098 2 12.001C2 14.071 2.29 16.151 2.87 18.221L3.12 19.111L4.05 19.271C6.78 19.761 9.27 20.001 12 20.001C14.73 20.001 17.22 19.761 19.95 19.281L20.88 19.121L21.13 18.231C21.71 16.151 22 14.071 22 12.001C22 9.93098 21.71 7.85098 21.13 5.78098L20.88 4.89098L19.95 4.73098C17.22 4.24098 14.73 4.00098 12 4.00098Z"/>
</g>
<defs>
<clipPath id="clip0_61_17020">
<rect transform="translate(0 0.000976562)"/>
</clipPath>
</defs>
</svg>
