<svg   viewBox="0 0 24 24" fill="none" xmlns="http://www.w3.org/2000/svg">
<g clip-path="url(#clip0_61_17018)">
<path d="M20 6.54098V17.451C17.4 16.681 14.72 16.291 12 16.291C9.28 16.291 6.6 16.681 4 17.451V6.54098C6.6 7.31098 9.28 7.70098 12 7.70098C14.72 7.71098 17.4 7.32098 20 6.54098ZM21.43 4.00098C21.33 4.00098 21.23 4.02098 21.12 4.06098C18.18 5.16098 15.09 5.70098 12 5.70098C8.91 5.70098 5.82 5.15098 2.88 4.06098C2.77 4.02098 2.66 4.00098 2.57 4.00098C2.23 4.00098 2 4.23098 2 4.63098V19.381C2 19.771 2.23 20.001 2.57 20.001C2.67 20.001 2.77 19.981 2.88 19.941C5.82 18.841 8.91 18.301 12 18.301C15.09 18.301 18.18 18.851 21.12 19.941C21.23 19.981 21.33 20.001 21.43 20.001C21.76 20.001 22 19.771 22 19.371V4.63098C22 4.23098 21.76 4.00098 21.43 4.00098V4.00098Z" fill="black"/>
</g>
<defs>
<clipPath id="clip0_61_17018">
<rect width="24" height="24" fill="white" transform="translate(0 0.000976562)"/>
</clipPath>
</defs>
</svg>
