<svg viewBox="0 0 24 24" xmlns="http://www.w3.org/2000/svg">
<g clip-path="url(#clip0_61_17016)">
<path d="M23 18.001V6.00098C23 4.90098 22.1 4.00098 21 4.00098H3C1.9 4.00098 1 4.90098 1 6.00098V18.001C1 19.101 1.9 20.001 3 20.001H21C22.1 20.001 23 19.101 23 18.001ZM8.9 12.981L11 15.511L14.1 11.521C14.3 11.261 14.7 11.261 14.9 11.531L18.41 16.211C18.66 16.541 18.42 17.011 18.01 17.011H6.02C5.6 17.011 5.37 16.531 5.63 16.201L8.12 13.001C8.31 12.741 8.69 12.731 8.9 12.981V12.981Z"/>
</g>
<defs>
<clipPath id="clip0_61_17016">
<rect transform="translate(0 0.000976562)"/>
</clipPath>
</defs>
</svg>
