<svg   viewBox="0 0 24 24" fill="none" xmlns="http://www.w3.org/2000/svg">
<g clip-path="url(#clip0_61_17019)">
<path d="M19.94 21.121C18.84 18.181 18.3 15.091 18.3 12.001C18.3 8.91098 18.85 5.82098 19.94 2.88098C19.98 2.77098 20 2.66098 20 2.57098C20 2.23098 19.77 2.00098 19.37 2.00098H4.63C4.23 2.00098 4 2.23098 4 2.57098C4 2.67098 4.02 2.77098 4.06 2.88098C5.16 5.82098 5.71 8.91098 5.71 12.001C5.71 15.091 5.16 18.181 4.07 21.121C4.02 21.231 4 21.341 4 21.431C4 21.761 4.23 22.001 4.63 22.001H19.38C19.77 22.001 20.01 21.761 20.01 21.431C20 21.331 19.98 21.231 19.94 21.121V21.121ZM6.54 20.001C7.31 17.401 7.7 14.721 7.7 12.001C7.7 9.28098 7.31 6.60098 6.54 4.00098H17.45C16.68 6.60098 16.29 9.28098 16.29 12.001C16.29 14.721 16.68 17.401 17.45 20.001H6.54Z" fill="black"/>
</g>
<defs>
<clipPath id="clip0_61_17019">
<rect width="24" height="24" fill="white" transform="translate(0 0.000976562)"/>
</clipPath>
</defs>
</svg>
