<svg viewBox="0 0 24 24" xmlns="http://www.w3.org/2000/svg">
<g clip-path="url(#clip0_61_17027)">
<path d="M21 15.001H23V17.001H21V15.001ZM21 11.001H23V13.001H21V11.001ZM23 19.001H21V21.001C22 21.001 23 20.001 23 19.001ZM13 3.00098H15V5.00098H13V3.00098ZM21 7.00098H23V9.00098H21V7.00098ZM21 3.00098V5.00098H23C23 4.00098 22 3.00098 21 3.00098ZM1 7.00098H3V9.00098H1V7.00098ZM17 3.00098H19V5.00098H17V3.00098ZM17 19.001H19V21.001H17V19.001ZM3 3.00098C2 3.00098 1 4.00098 1 5.00098H3V3.00098ZM9 3.00098H11V5.00098H9V3.00098ZM5 3.00098H7V5.00098H5V3.00098ZM1 11.001V19.001C1 20.101 1.9 21.001 3 21.001H15V13.001C15 11.901 14.1 11.001 13 11.001H1ZM3.63 18.191L5.12 16.281C5.32 16.031 5.69 16.021 5.9 16.271L7.29 17.941L9.39 15.241C9.59 14.981 9.99 14.981 10.18 15.251L12.4 18.211C12.65 18.541 12.41 19.011 12 19.011H4.02C3.61 19.001 3.37 18.521 3.63 18.191V18.191Z"/>
</g>
<defs>
<clipPath id="clip0_61_17027">
<rect transform="translate(0 0.000976562)"/>
</clipPath>
</defs>
</svg>
