<svg viewBox="0 0 24 24" xmlns="http://www.w3.org/2000/svg">
<g clip-path="url(#clip0_61_17026)">
<path d="M21 3.00098H3C2 3.00098 1 4.00098 1 5.00098V19.001C1 20.101 1.9 21.001 3 21.001H21C22 21.001 23 20.001 23 19.001V5.00098C23 4.00098 22 3.00098 21 3.00098ZM5.63 16.191L8.12 12.991C8.32 12.741 8.7 12.731 8.9 12.981L11 15.511L14.1 11.521C14.3 11.261 14.7 11.261 14.9 11.531L18.41 16.211C18.66 16.541 18.42 17.011 18.01 17.011H6.02C5.61 17.001 5.37 16.521 5.63 16.191Z"/>
</g>
<defs>
<clipPath id="clip0_61_17026">
<rect transform="translate(0 0.000976562)"/>
</clipPath>
</defs>
</svg>
