<svg viewBox="0 0 24 24" xmlns="http://www.w3.org/2000/svg">
<g clip-path="url(#clip0_61_17028)">
<path d="M23 15.001H21V17.001H23V15.001ZM23 11.001H21V13.001H23V11.001ZM23 19.001H21V21.001C22 21.001 23 20.001 23 19.001ZM15 3.00098H13V5.00098H15V3.00098ZM23 7.00098H21V9.00098H23V7.00098ZM21 3.00098V5.00098H23C23 4.00098 22 3.00098 21 3.00098ZM3 21.001H11V17.001C11 15.901 10.1 15.001 9 15.001H1V19.001C1 20.101 1.9 21.001 3 21.001ZM3 7.00098H1V9.00098H3V7.00098ZM15 19.001H13V21.001H15V19.001ZM19 3.00098H17V5.00098H19V3.00098ZM19 19.001H17V21.001H19V19.001ZM3 3.00098C2 3.00098 1 4.00098 1 5.00098H3V3.00098ZM3 11.001H1V13.001H3V11.001ZM11 3.00098H9V5.00098H11V3.00098ZM7 3.00098H5V5.00098H7V3.00098Z"/>
</g>
<defs>
<clipPath id="clip0_61_17028">
<rect transform="translate(0 0.000976562)"/>
</clipPath>
</defs>
</svg>
