<svg viewBox="0 0 24 24" xmlns="http://www.w3.org/2000/svg">
<g clip-path="url(#clip0_61_17021)">
<path d="M21 19.001V5.00098C21 3.90098 20.1 3.00098 19 3.00098H5C3.9 3.00098 3 3.90098 3 5.00098V19.001C3 20.101 3.9 21.001 5 21.001H19C20.1 21.001 21 20.101 21 19.001ZM8.9 13.981L11 16.511L14.1 12.521C14.3 12.261 14.7 12.261 14.9 12.531L18.41 17.211C18.66 17.541 18.42 18.011 18.01 18.011H6.02C5.6 18.011 5.37 17.531 5.63 17.201L8.12 14.001C8.31 13.741 8.69 13.731 8.9 13.981V13.981Z"/>
</g>
<defs>
<clipPath id="clip0_61_17021">
<rect transform="translate(0 0.000976562)"/>
</clipPath>
</defs>
</svg>
