<svg   viewBox="0 0 24 24" fill="none" xmlns="http://www.w3.org/2000/svg">
<g clip-path="url(#clip0_61_17024)">
<path d="M19.0234 10.991V18.001C19.0234 18.551 18.5734 19.001 18.0234 19.001H6.00344C5.45344 19.001 5.00344 18.551 5.00344 18.001V6.00098C5.00344 5.45098 5.45344 5.00098 6.00344 5.00098H13.0034C13.5534 5.00098 14.0034 4.55098 14.0034 4.00098C14.0034 3.45098 13.5534 3.00098 13.0034 3.00098H5.02344C3.92344 3.00098 3.02344 3.90098 3.02344 5.00098V19.001C3.02344 20.101 3.92344 21.001 5.02344 21.001H19.0034C20.1034 21.001 21.0034 20.111 21.0034 19.001V10.991C21.0034 10.441 20.5634 10.001 20.0134 10.001C19.4634 10.001 19.0234 10.441 19.0234 10.991V10.991ZM13.2534 10.751L12.4634 9.00098C12.2834 8.61098 11.7334 8.61098 11.5534 9.00098L10.7634 10.751L9.00344 11.541C8.61344 11.721 8.61344 12.271 9.00344 12.451L10.7534 13.241L11.5434 15.001C11.7234 15.391 12.2734 15.391 12.4534 15.001L13.2434 13.251L15.0034 12.461C15.3934 12.281 15.3934 11.731 15.0034 11.551L13.2534 10.751V10.751ZM17.9434 6.06098L17.3434 4.74098C17.2134 4.45098 16.7934 4.45098 16.6534 4.74098L16.0534 6.06098L14.7334 6.66098C14.4434 6.79098 14.4434 7.21098 14.7334 7.35098L16.0534 7.95098L16.6534 9.27098C16.7834 9.56098 17.2034 9.56098 17.3434 9.27098L17.9434 7.95098L19.2634 7.35098C19.5534 7.22098 19.5534 6.80098 19.2634 6.66098L17.9434 6.06098V6.06098Z" fill="black"/>
</g>
<defs>
<clipPath id="clip0_61_17024">
<rect width="24" height="24" fill="white" transform="translate(0 0.000976562)"/>
</clipPath>
</defs>
</svg>
