<svg   viewBox="0 0 24 24" fill="none" xmlns="http://www.w3.org/2000/svg">
<g clip-path="url(#clip0_61_17023)">
<path d="M12 15.001C13.6569 15.001 15 13.6578 15 12.001C15 10.3441 13.6569 9.00098 12 9.00098C10.3431 9.00098 9 10.3441 9 12.001C9 13.6578 10.3431 15.001 12 15.001Z" fill="black"/>
<path d="M20 4.00098H16.83L15.59 2.65098C15.22 2.24098 14.68 2.00098 14.12 2.00098H9.88C9.32 2.00098 8.78 2.24098 8.4 2.65098L7.17 4.00098H4C2.9 4.00098 2 4.90098 2 6.00098V18.001C2 19.101 2.9 20.001 4 20.001H20C21.1 20.001 22 19.101 22 18.001V6.00098C22 4.90098 21.1 4.00098 20 4.00098ZM12 17.001C9.24 17.001 7 14.761 7 12.001C7 9.24098 9.24 7.00098 12 7.00098C14.76 7.00098 17 9.24098 17 12.001C17 14.761 14.76 17.001 12 17.001Z" fill="black"/>
</g>
<defs>
<clipPath id="clip0_61_17023">
<rect width="24" height="24" fill="white" transform="translate(0 0.000976562)"/>
</clipPath>
</defs>
</svg>
