<svg   viewBox="0 0 24 24" fill="none" xmlns="http://www.w3.org/2000/svg">
<g clip-path="url(#clip0_61_17029)">
<path d="M20 2.00098H8C6.9 2.00098 6 2.90098 6 4.00098V16.001C6 17.101 6.9 18.001 8 18.001H20C21.1 18.001 22 17.101 22 16.001V4.00098C22 2.90098 21.1 2.00098 20 2.00098ZM11.5 9.50098C11.5 10.331 10.83 11.001 10 11.001H9V12.251C9 12.661 8.66 13.001 8.25 13.001C7.84 13.001 7.5 12.661 7.5 12.251V8.00098C7.5 7.45098 7.95 7.00098 8.5 7.00098H10C10.83 7.00098 11.5 7.67098 11.5 8.50098V9.50098ZM16.5 11.501C16.5 12.331 15.83 13.001 15 13.001H13C12.72 13.001 12.5 12.781 12.5 12.501V7.50098C12.5 7.22098 12.72 7.00098 13 7.00098H15C15.83 7.00098 16.5 7.67098 16.5 8.50098V11.501ZM20.5 7.75098C20.5 8.16098 20.16 8.50098 19.75 8.50098H19V9.50098H19.75C20.16 9.50098 20.5 9.84098 20.5 10.251C20.5 10.661 20.16 11.001 19.75 11.001H19V12.251C19 12.661 18.66 13.001 18.25 13.001C17.84 13.001 17.5 12.661 17.5 12.251V8.00098C17.5 7.45098 17.95 7.00098 18.5 7.00098H19.75C20.16 7.00098 20.5 7.34098 20.5 7.75098ZM9 9.50098H10V8.50098H9V9.50098ZM3 6.00098C2.45 6.00098 2 6.45098 2 7.00098V20.001C2 21.101 2.9 22.001 4 22.001H17C17.55 22.001 18 21.551 18 21.001C18 20.451 17.55 20.001 17 20.001H5C4.45 20.001 4 19.551 4 19.001V7.00098C4 6.45098 3.55 6.00098 3 6.00098ZM14 11.501H15V8.50098H14V11.501Z" fill="black"/>
</g>
<defs>
<clipPath id="clip0_61_17029">
<rect width="24" height="24" fill="white" transform="translate(0 0.000976562)"/>
</clipPath>
</defs>
</svg>
