<svg   viewBox="0 0 24 24" fill="none" xmlns="http://www.w3.org/2000/svg">
<g clip-path="url(#clip0_61_17030)">
<path d="M12 12.251C13.24 12.251 14.25 11.241 14.25 10.001C14.25 8.76098 13.24 7.75098 12 7.75098C10.76 7.75098 9.75 8.76098 9.75 10.001C9.75 11.241 10.76 12.251 12 12.251ZM16.5 16.251C16.5 14.751 13.5 14.001 12 14.001C10.5 14.001 7.5 14.751 7.5 16.251V17.001H16.5V16.251ZM19 3.00098H5C3.9 3.00098 3 3.90098 3 5.00098V19.001C3 20.101 3.9 21.001 5 21.001H19C20.1 21.001 21 20.101 21 19.001V5.00098C21 3.90098 20.1 3.00098 19 3.00098ZM18 19.001H6C5.45 19.001 5 18.551 5 18.001V6.00098C5 5.45098 5.45 5.00098 6 5.00098H18C18.55 5.00098 19 5.45098 19 6.00098V18.001C19 18.551 18.55 19.001 18 19.001Z" fill="black"/>
</g>
<defs>
<clipPath id="clip0_61_17030">
<rect width="24" height="24" fill="white" transform="translate(0 0.000976562)"/>
</clipPath>
</defs>
</svg>
