<svg   viewBox="0 0 24 24" fill="none" xmlns="http://www.w3.org/2000/svg">
<g clip-path="url(#clip0_61_17031)">
<path d="M14 9.00098H10C9.45 9.00098 9 8.55098 9 8.00098C9 7.45098 9.45 7.00098 10 7.00098H14C14.55 7.00098 15 7.45098 15 8.00098C15 8.55098 14.55 9.00098 14 9.00098Z" fill="black"/>
<path d="M14 12.001H10C9.45 12.001 9 11.551 9 11.001C9 10.451 9.45 10.001 10 10.001H14C14.55 10.001 15 10.451 15 11.001C15 11.551 14.55 12.001 14 12.001Z" fill="black"/>
<path d="M19.5 3.50098L18 2.00098L16.5 3.50098L15 2.00098L13.5 3.50098L12 2.00098L10.5 3.50098L9 2.00098L7.5 3.50098L6 2.00098V16.001H4C3.45 16.001 3 16.451 3 17.001V19.001C3 20.661 4.34 22.001 6 22.001H18C19.66 22.001 21 20.661 21 19.001V2.00098L19.5 3.50098ZM15 20.001H6C5.45 20.001 5 19.551 5 19.001V18.001H8H12H15V20.001ZM19 19.001C19 19.551 18.55 20.001 18 20.001C17.45 20.001 17 19.551 17 19.001V17.001C17 16.451 16.55 16.001 16 16.001H14H12H8V5.00098H19V19.001Z" fill="black"/>
<path d="M17 9.00098C17.5523 9.00098 18 8.55326 18 8.00098C18 7.44869 17.5523 7.00098 17 7.00098C16.4477 7.00098 16 7.44869 16 8.00098C16 8.55326 16.4477 9.00098 17 9.00098Z" fill="black"/>
<path d="M17 12.001C17.5523 12.001 18 11.5533 18 11.001C18 10.4487 17.5523 10.001 17 10.001C16.4477 10.001 16 10.4487 16 11.001C16 11.5533 16.4477 12.001 17 12.001Z" fill="black"/>
</g>
<defs>
<clipPath id="clip0_61_17031">
<rect width="24" height="24" fill="white" transform="translate(0 0.000976562)"/>
</clipPath>
</defs>
</svg>
