<svg viewBox="0 0 24 24" xmlns="http://www.w3.org/2000/svg">
<g clip-path="url(#clip0_61_17032)">
<path d="M12 4.50098C7 4.50098 2.73 7.61098 1 12.001C2.73 16.391 7 19.501 12 19.501C17 19.501 21.27 16.391 23 12.001C21.27 7.61098 17 4.50098 12 4.50098ZM12 17.001C9.24 17.001 7 14.761 7 12.001C7 9.24098 9.24 7.00098 12 7.00098C14.76 7.00098 17 9.24098 17 12.001C17 14.761 14.76 17.001 12 17.001ZM12 9.00098C10.34 9.00098 9 10.341 9 12.001C9 13.661 10.34 15.001 12 15.001C13.66 15.001 15 13.661 15 12.001C15 10.341 13.66 9.00098 12 9.00098Z"/>
</g>
<defs>
<clipPath id="clip0_61_17032">
<rect transform="translate(0 0.000976562)"/>
</clipPath>
</defs>
</svg>
