<svg   viewBox="0 0 24 24" fill="none" xmlns="http://www.w3.org/2000/svg">
<g clip-path="url(#clip0_61_17034)">
<path d="M6.55984 7.98075C6.09984 7.52075 5.30984 7.60075 4.99984 8.17075C4.71984 8.68075 4.49984 9.20075 4.32984 9.75075C4.13984 10.3808 4.63984 11.0007 5.28984 11.0007H5.29984C5.72984 11.0007 6.11984 10.7208 6.23984 10.3008C6.35984 9.90075 6.51984 9.51075 6.71984 9.13075C6.93984 8.76075 6.86984 8.29075 6.55984 7.98075V7.98075ZM5.30984 13.0007H5.28984C4.63984 13.0007 4.13984 13.6207 4.32984 14.2507C4.48984 14.7907 4.70984 15.3207 4.98984 15.8307C5.29984 16.4007 6.09984 16.4908 6.55984 16.0308C6.85984 15.7208 6.93984 15.2607 6.72984 14.8807C6.52984 14.5107 6.36984 14.1207 6.24984 13.7207C6.12984 13.2807 5.73984 13.0007 5.30984 13.0007V13.0007ZM8.15984 19.0208C8.66984 19.3008 9.19984 19.5207 9.74984 19.6807C10.3698 19.8607 10.9898 19.3607 10.9898 18.7207V18.6908C10.9898 18.2608 10.7098 17.8707 10.2898 17.7507C9.88984 17.6307 9.50984 17.4708 9.13984 17.2708C8.75984 17.0608 8.27984 17.1308 7.97984 17.4408L7.94984 17.4707C7.49984 17.9207 7.58984 18.7108 8.15984 19.0208ZM12.9998 4.07075V3.41075C12.9998 2.52075 11.9198 2.07075 11.2898 2.70075L9.16984 4.83075C8.76984 5.23075 8.76984 5.87075 9.16984 6.26075L11.2998 8.34075C11.9298 8.96075 12.9998 8.51075 12.9998 7.62075V6.09075C15.8398 6.57075 17.9998 9.03075 17.9998 12.0007C17.9998 14.7307 16.1798 17.0207 13.6798 17.7507C13.2698 17.8707 12.9998 18.2608 12.9998 18.6908V18.7107C12.9998 19.3607 13.6098 19.8507 14.2298 19.6707C17.5698 18.7107 19.9998 15.6407 19.9998 12.0007C19.9998 7.92075 16.9498 4.56075 12.9998 4.07075Z" fill="black"/>
</g>
<defs>
<clipPath id="clip0_61_17034">
<rect width="24" height="24" fill="white" transform="translate(0 0.000976562)"/>
</clipPath>
</defs>
</svg>
