<svg   viewBox="0 0 24 24" fill="none" xmlns="http://www.w3.org/2000/svg">
<g clip-path="url(#clip0_61_17033)">
<path d="M5.93031 7.831L2.28031 11.491C1.50031 12.271 1.50031 13.541 2.28031 14.321L5.94031 17.981C6.72031 18.761 7.99031 18.761 8.77031 17.981L12.4303 14.331C13.2103 13.551 13.2103 12.281 12.4303 11.501L8.76031 7.821C7.97031 7.041 6.71031 7.041 5.93031 7.831ZM4.40031 12.191L6.65031 9.941C7.04031 9.551 7.67031 9.551 8.07031 9.941L10.3103 12.181C10.7003 12.571 10.7003 13.201 10.3103 13.591L8.06031 15.841C7.67031 16.231 7.04031 16.231 6.64031 15.841L4.40031 13.611C4.01031 13.221 4.01031 12.581 4.40031 12.191ZM19.3603 6.641C17.6103 4.881 15.3003 4.001 13.0003 4.001V3.171C13.0003 2.281 11.9203 1.831 11.2903 2.461L9.47031 4.291C9.08031 4.681 9.08031 5.311 9.47031 5.701L11.3003 7.531C11.9203 8.161 13.0003 7.721 13.0003 6.831V6.001C15.0203 6.001 17.0303 6.861 18.4503 8.611C20.5003 11.131 20.5003 14.881 18.4503 17.401C17.0303 19.141 15.0203 20.001 13.0003 20.001C12.2203 20.001 11.4503 19.871 10.7103 19.611C10.3503 19.491 9.96031 19.601 9.69031 19.871C9.19031 20.371 9.35031 21.261 10.0303 21.491C10.9903 21.831 11.9903 22.001 13.0003 22.001C15.3003 22.001 17.6103 21.121 19.3603 19.361C22.8803 15.851 22.8803 10.151 19.3603 6.641V6.641Z" fill="black"/>
</g>
<defs>
<clipPath id="clip0_61_17033">
<rect width="24" height="24" fill="white" transform="translate(0 0.000976562)"/>
</clipPath>
</defs>
</svg>
