<svg viewBox="0 0 24 24" xmlns="http://www.w3.org/2000/svg">
<g clip-path="url(#clip0_61_17035)">
<path d="M14.83 4.83119L12.7 2.70119C12.08 2.08119 11 2.52119 11 3.41119V4.07119C7.06 4.56119 4 7.92119 4 12.0012C4 15.6412 6.43 18.7112 9.77 19.6812C10.39 19.8612 11 19.3612 11 18.7212V18.6912C11 18.2612 10.73 17.8712 10.32 17.7512C7.82 17.0312 6 14.7312 6 12.0012C6 9.03119 8.16 6.57119 11 6.09119V7.62119C11 8.51119 12.07 8.95119 12.7 8.33119L14.83 6.25119C15.23 5.87119 15.23 5.23119 14.83 4.83119V4.83119ZM19.67 9.76119C19.51 9.21119 19.29 8.68119 19.01 8.17119C18.7 7.60119 17.91 7.51119 17.45 7.97119L17.44 7.98119C17.13 8.29119 17.06 8.76119 17.27 9.14119C17.47 9.51119 17.63 9.90119 17.75 10.3012C17.87 10.7212 18.26 11.0012 18.69 11.0012H18.71C19.36 11.0012 19.86 10.3812 19.67 9.76119V9.76119ZM13 18.6812V18.7012C13 19.3512 13.62 19.8412 14.24 19.6612C14.79 19.5012 15.32 19.2812 15.83 19.0012C16.4 18.6912 16.49 17.9012 16.03 17.4412L16.01 17.4212C15.7 17.1112 15.23 17.0412 14.85 17.2512C14.48 17.4612 14.09 17.6212 13.69 17.7412C13.28 17.8612 13 18.2512 13 18.6812V18.6812ZM17.44 16.0312C17.9 16.4912 18.69 16.4012 19 15.8312C19.28 15.3212 19.5 14.7912 19.67 14.2412C19.85 13.6212 19.36 13.0012 18.71 13.0012H18.69C18.25 13.0012 17.87 13.2812 17.75 13.7012C17.63 14.1012 17.47 14.4912 17.27 14.8712C17.06 15.2512 17.14 15.7312 17.44 16.0312Z"/>
</g>
<defs>
<clipPath id="clip0_61_17035">
<rect transform="translate(0 0.000976562)"/>
</clipPath>
</defs>
</svg>
