<svg   viewBox="0 0 24 24" fill="none" xmlns="http://www.w3.org/2000/svg">
<g clip-path="url(#clip0_61_17036)">
<path d="M10.003 3.00098H14.003C14.553 3.00098 15.003 2.55098 15.003 2.00098C15.003 1.45098 14.553 1.00098 14.003 1.00098H10.003C9.45303 1.00098 9.00303 1.45098 9.00303 2.00098C9.00303 2.55098 9.45303 3.00098 10.003 3.00098ZM19.033 7.39098L19.783 6.64098C20.163 6.26098 20.173 5.63098 19.783 5.24098L19.773 5.23098C19.383 4.84098 18.763 4.85098 18.373 5.23098L17.623 5.98098C16.073 4.74098 14.123 4.00098 12.003 4.00098C7.20303 4.00098 3.12303 7.96098 3.00303 12.761C2.87303 17.841 6.94303 22.001 12.003 22.001C16.983 22.001 21.003 17.971 21.003 13.001C21.003 10.881 20.263 8.93098 19.033 7.39098ZM12.003 20.001C8.13303 20.001 5.00303 16.871 5.00303 13.001C5.00303 9.13098 8.13303 6.00098 12.003 6.00098C15.873 6.00098 19.003 9.13098 19.003 13.001C19.003 16.871 15.873 20.001 12.003 20.001ZM10.813 15.001H7.11303C6.73303 15.001 6.49303 15.401 6.66303 15.741C7.22303 16.861 8.10303 17.751 9.23303 18.311C9.46303 18.421 9.75303 18.331 9.88303 18.101L11.253 15.751C11.443 15.421 11.203 15.001 10.813 15.001V15.001ZM14.733 7.65098C14.503 7.53098 14.213 7.63098 14.083 7.85098L12.703 10.241C12.503 10.581 12.743 11.001 13.133 11.001H16.893C17.273 11.001 17.513 10.601 17.343 10.271C16.763 9.14098 15.853 8.23098 14.733 7.65098V7.65098ZM13.883 14.701C13.693 14.361 13.203 14.351 13.013 14.691L10.973 18.211C10.793 18.531 10.993 18.931 11.363 18.961C12.703 19.101 14.053 18.781 15.193 18.071C15.413 17.931 15.473 17.641 15.353 17.411L13.883 14.701V14.701ZM10.313 13.231L7.93303 9.57098C7.73303 9.27098 7.29303 9.27098 7.09303 9.57098C6.28303 10.731 5.92303 12.141 6.04303 13.551C6.06303 13.811 6.28303 14.001 6.54303 14.001H9.89303C10.283 14.001 10.523 13.561 10.313 13.231V13.231ZM13.973 12.741L15.993 16.481C16.173 16.811 16.633 16.831 16.853 16.531C17.713 15.351 18.093 13.911 17.973 12.451C17.953 12.191 17.723 12.001 17.473 12.001H14.423C14.033 12.001 13.793 12.401 13.973 12.741V12.741ZM10.173 11.171C10.373 11.481 10.833 11.471 11.023 11.151L12.963 7.80098C13.153 7.48098 12.933 7.08098 12.563 7.04098C11.203 6.92098 9.83303 7.25098 8.68303 8.01098C8.46303 8.16098 8.41303 8.47098 8.55303 8.69098L10.173 11.171V11.171Z" fill="black"/>
</g>
<defs>
<clipPath id="clip0_61_17036">
<rect width="24" height="24" fill="white" transform="translate(0 0.000976562)"/>
</clipPath>
</defs>
</svg>
