<svg   viewBox="0 0 24 24" fill="none" xmlns="http://www.w3.org/2000/svg">
<g clip-path="url(#clip0_61_17037)">
<path d="M10 9.04098V14.961C10 15.381 10.48 15.611 10.81 15.351L14.51 12.391C14.76 12.191 14.76 11.811 14.51 11.611L10.81 8.65098C10.48 8.39098 10 8.62098 10 9.04098V9.04098ZM19 3.00098H5C3.9 3.00098 3 3.90098 3 5.00098V19.001C3 20.101 3.9 21.001 5 21.001H19C20.1 21.001 21 20.101 21 19.001V5.00098C21 3.90098 20.1 3.00098 19 3.00098ZM18 19.001H6C5.45 19.001 5 18.551 5 18.001V6.00098C5 5.45098 5.45 5.00098 6 5.00098H18C18.55 5.00098 19 5.45098 19 6.00098V18.001C19 18.551 18.55 19.001 18 19.001Z" fill="black"/>
</g>
<defs>
<clipPath id="clip0_61_17037">
<rect width="24" height="24" fill="white" transform="translate(0 0.000976562)"/>
</clipPath>
</defs>
</svg>
