<svg viewBox="0 0 24 24" xmlns="http://www.w3.org/2000/svg">
<g clip-path="url(#clip0_61_17038)">
<path d="M21 6.00098H3C1.9 6.00098 1 6.90098 1 8.00098V16.001C1 17.101 1.9 18.001 3 18.001H21C22.1 18.001 23 17.101 23 16.001V8.00098C23 6.90098 22.1 6.00098 21 6.00098ZM20 16.001H4C3.45 16.001 3 15.551 3 15.001V9.00098C3 8.45098 3.45 8.00098 4 8.00098H5V11.001C5 11.551 5.45 12.001 6 12.001C6.55 12.001 7 11.551 7 11.001V8.00098H9V11.001C9 11.551 9.45 12.001 10 12.001C10.55 12.001 11 11.551 11 11.001V8.00098H13V11.001C13 11.551 13.45 12.001 14 12.001C14.55 12.001 15 11.551 15 11.001V8.00098H17V11.001C17 11.551 17.45 12.001 18 12.001C18.55 12.001 19 11.551 19 11.001V8.00098H20C20.55 8.00098 21 8.45098 21 9.00098V15.001C21 15.551 20.55 16.001 20 16.001Z"/>
</g>
<defs>
<clipPath id="clip0_61_17038">
<rect transform="translate(0 0.000976562)"/>
</clipPath>
</defs>
</svg>
