<svg viewBox="0 0 24 24" xmlns="http://www.w3.org/2000/svg">
<g clip-path="url(#clip0_61_17039)">
<path d="M2.53181 19.651L3.87181 20.211V11.181L1.44181 17.041C1.03181 18.061 1.52181 19.231 2.53181 19.651V19.651ZM22.0318 15.951L17.0718 3.98098C16.7618 3.23098 16.0318 2.77098 15.2618 2.75098C15.0018 2.75098 14.7318 2.79098 14.4718 2.90098L7.10181 5.95098C6.35181 6.26098 5.89181 6.98098 5.87181 7.75098C5.86181 8.02098 5.91181 8.29098 6.02181 8.55098L10.9818 20.521C11.2918 21.281 12.0318 21.741 12.8118 21.751C13.0718 21.751 13.3318 21.701 13.5818 21.601L20.9418 18.551C21.9618 18.131 22.4518 16.961 22.0318 15.951V15.951ZM7.88181 8.75098C7.33181 8.75098 6.88181 8.30098 6.88181 7.75098C6.88181 7.20098 7.33181 6.75098 7.88181 6.75098C8.43181 6.75098 8.88181 7.20098 8.88181 7.75098C8.88181 8.30098 8.43181 8.75098 7.88181 8.75098V8.75098ZM5.88181 19.751C5.88181 20.851 6.78181 21.751 7.88181 21.751H9.33181L5.88181 13.411V19.751Z"/>
</g>
<defs>
<clipPath id="clip0_61_17039">
<rect transform="translate(0 0.000976562)"/>
</clipPath>
</defs>
</svg>
