<svg viewBox="0 0 24 24" xmlns="http://www.w3.org/2000/svg">
<g clip-path="url(#clip0_61_17040)">
<path d="M20 4.00098H16.83L15.59 2.65098C15.22 2.24098 14.68 2.00098 14.12 2.00098H9.88C9.32 2.00098 8.78 2.24098 8.4 2.65098L7.17 4.00098H4C2.9 4.00098 2 4.90098 2 6.00098V18.001C2 19.101 2.9 20.001 4 20.001H20C21.1 20.001 22 19.101 22 18.001V6.00098C22 4.90098 21.1 4.00098 20 4.00098ZM15 15.501V13.001H9V15.501L5.85 12.351C5.65 12.151 5.65 11.841 5.85 11.641L9 8.50098V11.001H15V8.50098L18.15 11.651C18.35 11.851 18.35 12.161 18.15 12.361L15 15.501Z"/>
</g>
<defs>
<clipPath id="clip0_61_17040">
<rect transform="translate(0 0.000976562)"/>
</clipPath>
</defs>
</svg>
