<svg viewBox="0 0 24 24" xmlns="http://www.w3.org/2000/svg">
<g clip-path="url(#clip0_61_17041)">
<path d="M18 9.50098V6.00098C18 5.45098 17.55 5.00098 17 5.00098H3C2.45 5.00098 2 5.45098 2 6.00098V18.001C2 18.551 2.45 19.001 3 19.001H17C17.55 19.001 18 18.551 18 18.001V14.501L20.29 16.791C20.92 17.421 22 16.971 22 16.081V7.91098C22 7.02098 20.92 6.57098 20.29 7.20098L18 9.50098ZM13 15.501V13.001H7V15.501L3.85 12.351C3.65 12.151 3.65 11.841 3.85 11.641L7 8.50098V11.001H13V8.50098L16.15 11.651C16.35 11.851 16.35 12.161 16.15 12.361L13 15.501Z"/>
</g>
<defs>
<clipPath id="clip0_61_17041">
<rect transform="translate(0 0.000976562)"/>
</clipPath>
</defs>
</svg>
