<svg viewBox="0 0 24 24" xmlns="http://www.w3.org/2000/svg">
<g clip-path="url(#clip0_61_17042)">
<path d="M12.0134 2.00098C6.49344 2.00098 2.02344 6.48098 2.02344 12.001C2.02344 17.521 6.49344 22.001 12.0134 22.001C17.5434 22.001 22.0234 17.521 22.0234 12.001C22.0234 6.48098 17.5434 2.00098 12.0134 2.00098ZM12.0234 20.001C7.60344 20.001 4.02344 16.421 4.02344 12.001C4.02344 7.58098 7.60344 4.00098 12.0234 4.00098C16.4434 4.00098 20.0234 7.58098 20.0234 12.001C20.0234 16.421 16.4434 20.001 12.0234 20.001ZM15.5234 11.001C16.3534 11.001 17.0234 10.331 17.0234 9.50098C17.0234 8.67098 16.3534 8.00098 15.5234 8.00098C14.6934 8.00098 14.0234 8.67098 14.0234 9.50098C14.0234 10.331 14.6934 11.001 15.5234 11.001ZM8.52344 11.001C9.35344 11.001 10.0234 10.331 10.0234 9.50098C10.0234 8.67098 9.35344 8.00098 8.52344 8.00098C7.69344 8.00098 7.02344 8.67098 7.02344 9.50098C7.02344 10.331 7.69344 11.001 8.52344 11.001ZM12.0234 17.501C14.0534 17.501 15.8234 16.391 16.7734 14.751C16.9634 14.421 16.7234 14.001 16.3334 14.001H7.71344C7.33344 14.001 7.08344 14.421 7.27344 14.751C8.22344 16.391 9.99344 17.501 12.0234 17.501Z"/>
</g>
<defs>
<clipPath id="clip0_61_17042">
<rect transform="translate(0 0.000976562)"/>
</clipPath>
</defs>
</svg>
