<svg   viewBox="0 0 24 24" fill="none" xmlns="http://www.w3.org/2000/svg">
<g clip-path="url(#clip0_61_17043)">
<path d="M19.5803 3.08098L3.15031 19.511C3.24031 19.851 3.42031 20.161 3.66031 20.411C3.91031 20.651 4.22031 20.831 4.56031 20.921L21.0003 4.49098C20.8103 3.80098 20.2703 3.26098 19.5803 3.08098ZM11.9503 3.00098L3.07031 11.881V14.711L14.7803 3.00098H11.9503ZM5.07031 3.00098C3.97031 3.00098 3.07031 3.90098 3.07031 5.00098V7.00098L7.07031 3.00098H5.07031ZM19.0703 21.001C19.6203 21.001 20.1203 20.781 20.4803 20.411C20.8503 20.051 21.0703 19.551 21.0703 19.001V17.001L17.0703 21.001H19.0703ZM9.36031 21.001H12.1903L21.0703 12.121V9.29098L9.36031 21.001Z" fill="black"/>
</g>
<defs>
<clipPath id="clip0_61_17043">
<rect width="24" height="24" fill="white" transform="translate(0 0.000976562)"/>
</clipPath>
</defs>
</svg>
