<svg   viewBox="0 0 24 24" fill="none" xmlns="http://www.w3.org/2000/svg">
<g clip-path="url(#clip0_61_17048)">
<path d="M9.99656 3.00098H13.9966C14.5466 3.00098 14.9966 2.55098 14.9966 2.00098C14.9966 1.45098 14.5466 1.00098 13.9966 1.00098H9.99656C9.44656 1.00098 8.99656 1.45098 8.99656 2.00098C8.99656 2.55098 9.44656 3.00098 9.99656 3.00098ZM11.9966 8.00098C11.4866 8.00098 11.0766 8.39098 11.0166 8.89098L12.9966 10.861V9.00098C12.9966 8.45098 12.5466 8.00098 11.9966 8.00098ZM11.9966 6.00098C15.8666 6.00098 18.9966 9.13098 18.9966 13.001C18.9966 14.121 18.7266 15.181 18.2566 16.121L19.7266 17.591C20.5266 16.251 20.9966 14.681 20.9966 13.001C20.9966 10.881 20.2566 8.93098 19.0266 7.39098L19.7766 6.64098C20.1566 6.26098 20.1666 5.63098 19.7766 5.24098L19.7666 5.23098C19.3766 4.84098 18.7566 4.85098 18.3666 5.23098L17.6166 5.98098C16.0666 4.74098 14.1166 4.00098 11.9966 4.00098C10.3366 4.00098 8.77656 4.48098 7.42656 5.29098L8.87656 6.74098C9.81656 6.27098 10.8766 6.00098 11.9966 6.00098ZM20.1866 20.881L3.86656 4.56098C3.47656 4.17098 2.84656 4.17098 2.45656 4.56098C2.06656 4.95098 2.06656 5.58098 2.45656 5.97098L4.52656 8.04098C3.60656 9.42098 3.04656 11.031 2.99656 12.761C2.86656 17.841 6.93656 22.001 11.9966 22.001C13.8366 22.001 15.5466 21.451 16.9766 20.501L18.7666 22.291C19.1566 22.681 19.7866 22.681 20.1766 22.291C20.5766 21.901 20.5766 21.271 20.1866 20.881V20.881ZM11.9966 20.001C8.12656 20.001 4.99656 16.871 4.99656 13.001C4.99656 11.711 5.34656 10.511 5.95656 9.48098L15.5266 19.051C14.4866 19.651 13.2866 20.001 11.9966 20.001V20.001Z" fill="black"/>
</g>
<defs>
<clipPath id="clip0_61_17048">
<rect width="24" height="24" fill="white" transform="translate(0 0.000976562)"/>
</clipPath>
</defs>
</svg>
