<svg viewBox="0 0 24 24" xmlns="http://www.w3.org/2000/svg">
<g clip-path="url(#clip0_61_17044)">
<path d="M16.24 7.76098C15.07 6.59098 13.54 6.00098 12 6.00098V12.001L7.76 16.241C10.1 18.581 13.9 18.581 16.25 16.241C18.59 13.901 18.59 10.101 16.24 7.76098V7.76098ZM12 2.00098C6.48 2.00098 2 6.48098 2 12.001C2 17.521 6.48 22.001 12 22.001C17.52 22.001 22 17.521 22 12.001C22 6.48098 17.52 2.00098 12 2.00098ZM12 20.001C7.58 20.001 4 16.421 4 12.001C4 7.58098 7.58 4.00098 12 4.00098C16.42 4.00098 20 7.58098 20 12.001C20 16.421 16.42 20.001 12 20.001Z"/>
</g>
<defs>
<clipPath id="clip0_61_17044">
<rect transform="translate(0 0.000976562)"/>
</clipPath>
</defs>
</svg>
