<svg viewBox="0 0 24 24" xmlns="http://www.w3.org/2000/svg">
<g clip-path="url(#clip0_61_17046)">
<path d="M-0.0078125 7.72088V9.40088L2.99219 8.40088V18.0009H4.99219V6.00088H4.74219L-0.0078125 7.72088ZM23.7722 14.3709C23.6322 14.0909 23.4222 13.8409 23.1422 13.6309C22.8622 13.4209 22.5322 13.2409 22.1322 13.1009C21.7322 12.9609 21.2822 12.8309 20.7822 12.7209C20.4322 12.6509 20.1422 12.5709 19.9122 12.4909C19.6822 12.4109 19.5022 12.3309 19.3622 12.2409C19.2222 12.1509 19.1322 12.0509 19.0822 11.9409C19.0322 11.8309 19.0022 11.7009 19.0022 11.5509C19.0022 11.4109 19.0322 11.2709 19.0922 11.1409C19.1522 11.0109 19.2422 10.8909 19.3622 10.8009C19.4822 10.7009 19.6322 10.6209 19.8122 10.5609C19.9922 10.5009 20.2122 10.4709 20.4522 10.4709C20.7022 10.4709 20.9222 10.5109 21.1122 10.5809C21.3022 10.6509 21.4622 10.7509 21.5922 10.8709C21.7222 10.9909 21.8122 11.1309 21.8822 11.2909C21.9422 11.4509 21.9822 11.6109 21.9822 11.7809H23.9322C23.9322 11.3909 23.8522 11.0309 23.6922 10.6909C23.5322 10.3509 23.3022 10.0609 23.0022 9.81088C22.7022 9.56088 22.3422 9.37088 21.9122 9.22088C21.4822 9.07088 20.9922 9.00088 20.4522 9.00088C19.9422 9.00088 19.4722 9.07088 19.0622 9.21088C18.6522 9.35088 18.2922 9.54088 18.0022 9.78088C17.7122 10.0209 17.4922 10.3009 17.3322 10.6209C17.1722 10.9409 17.1022 11.2709 17.1022 11.6309C17.1022 11.9909 17.1822 12.3209 17.3322 12.5909C17.4822 12.8709 17.6922 13.1109 17.9722 13.3209C18.2422 13.5309 18.5722 13.7009 18.9522 13.8509C19.3322 13.9909 19.7622 14.1109 20.2222 14.2109C20.6122 14.2909 20.9322 14.3809 21.1722 14.4709C21.4122 14.5609 21.6022 14.6609 21.7422 14.7609C21.8722 14.8609 21.9622 14.9809 22.0122 15.1009C22.0622 15.2209 22.0822 15.3509 22.0822 15.4909C22.0822 15.8109 21.9522 16.0609 21.6822 16.2609C21.4122 16.4609 21.0222 16.5509 20.5122 16.5509C20.2922 16.5509 20.0822 16.5309 19.8722 16.4709C19.6622 16.4209 19.4722 16.3409 19.3122 16.2309C19.1422 16.1209 19.0122 15.9709 18.9022 15.7909C18.7922 15.6109 18.7322 15.3809 18.7222 15.1209H16.8322C16.8322 15.4809 16.9122 15.8309 17.0722 16.1709C17.2322 16.5109 17.4622 16.8209 17.7722 17.1009C18.0822 17.3709 18.4622 17.5909 18.9222 17.7609C19.3822 17.9309 19.9022 18.0109 20.5022 18.0109C21.0322 18.0109 21.5122 17.9509 21.9422 17.8209C22.3722 17.6909 22.7422 17.5109 23.0522 17.2809C23.3622 17.0509 23.5922 16.7709 23.7622 16.4509C23.9322 16.1309 24.0122 15.7809 24.0122 15.3909C23.9922 14.9909 23.9222 14.6509 23.7722 14.3709V14.3709ZM13.8122 7.05088C13.4722 6.65088 13.0622 6.35088 12.5822 6.17088C12.1122 5.99088 11.5722 5.90088 10.9922 5.90088C10.4122 5.90088 9.88219 5.99088 9.40219 6.17088C8.92219 6.35088 8.51219 6.64088 8.17219 7.05088C7.83219 7.46088 7.57219 7.98088 7.38219 8.64088C7.20219 9.29088 7.10219 10.0909 7.10219 11.0309V12.9509C7.10219 13.8909 7.19219 14.6909 7.38219 15.3409C7.57219 16.0009 7.83219 16.5309 8.18219 16.9409C8.52219 17.3509 8.93219 17.6509 9.41219 17.8309C9.89219 18.0109 10.4222 18.1109 11.0022 18.1109C11.5922 18.1109 12.1222 18.0209 12.5922 17.8309C13.0722 17.6509 13.4722 17.3509 13.8122 16.9409C14.1522 16.5309 14.4122 16.0009 14.5922 15.3409C14.7722 14.6909 14.8722 13.8909 14.8722 12.9509V11.0309C14.8722 10.0909 14.7822 9.29088 14.5922 8.64088C14.4122 7.98088 14.1522 7.45088 13.8122 7.05088ZM12.8922 13.2209C12.8922 13.8209 12.8522 14.3309 12.7722 14.7509C12.6922 15.1709 12.5722 15.5109 12.4122 15.7709C12.2522 16.0309 12.0522 16.2209 11.8222 16.3409C11.5922 16.4609 11.3122 16.5209 11.0022 16.5209C10.7022 16.5209 10.4222 16.4609 10.1822 16.3409C9.94219 16.2209 9.74219 16.0309 9.58219 15.7709C9.42219 15.5109 9.29219 15.1709 9.20219 14.7509C9.11219 14.3309 9.07219 13.8209 9.07219 13.2209V10.7209C9.07219 10.1209 9.11219 9.61088 9.20219 9.20088C9.29219 8.79088 9.41219 8.46088 9.58219 8.20088C9.74219 7.95088 9.94219 7.77088 10.1822 7.65088C10.4222 7.54088 10.6922 7.48088 10.9922 7.48088C11.3022 7.48088 11.5722 7.54088 11.8022 7.65088C12.0422 7.76088 12.2422 7.94088 12.4022 8.20088C12.5622 8.45088 12.6922 8.78088 12.7722 9.19088C12.8522 9.60088 12.9022 10.1109 12.9022 10.7109V13.2209H12.8922V13.2209Z"/>
</g>
<defs>
<clipPath id="clip0_61_17046">
<rect transform="translate(0 0.000976562)"/>
</clipPath>
</defs>
</svg>
