<svg   viewBox="0 0 24 24" fill="none" xmlns="http://www.w3.org/2000/svg">
<g clip-path="url(#clip0_61_17047)">
<path d="M11.6075 12.9709C11.4475 12.7309 11.2475 12.5109 10.9875 12.3209C10.7375 12.1309 10.4275 11.9709 10.0575 11.8409C10.3575 11.7009 10.6275 11.5409 10.8575 11.3409C11.0875 11.1409 11.2775 10.9309 11.4275 10.7009C11.5775 10.4709 11.6975 10.2409 11.7675 9.99088C11.8475 9.75088 11.8775 9.50088 11.8775 9.26088C11.8775 8.71088 11.7875 8.22088 11.5975 7.80088C11.4175 7.38088 11.1575 7.03088 10.8175 6.74088C10.4875 6.46088 10.0875 6.24088 9.6175 6.10088C9.1675 5.97088 8.6475 5.90088 8.0875 5.90088C7.5375 5.90088 7.0275 5.98088 6.5675 6.14088C6.0975 6.31088 5.6975 6.54088 5.3675 6.83088C5.0375 7.12088 4.7675 7.46088 4.5875 7.86088C4.3875 8.25088 4.2975 8.69088 4.2975 9.15088H6.2775C6.2775 8.89088 6.3275 8.66088 6.4175 8.46088C6.5075 8.26088 6.6375 8.08088 6.7975 7.94088C6.9675 7.80088 7.1575 7.69088 7.3775 7.61088C7.5975 7.53088 7.8375 7.49088 8.1075 7.49088C8.7175 7.49088 9.1675 7.65088 9.4675 7.96088C9.7675 8.27088 9.9075 8.71088 9.9075 9.28088C9.9075 9.55088 9.8675 9.80088 9.7875 10.0209C9.7075 10.2409 9.5775 10.4309 9.4075 10.5909C9.2375 10.7509 9.0275 10.8709 8.7775 10.9609C8.5275 11.0509 8.2275 11.0909 7.8875 11.0909H6.7175V12.6609H7.8975C8.2375 12.6609 8.5375 12.7009 8.8075 12.7709C9.0775 12.8509 9.3075 12.9609 9.4975 13.1209C9.6875 13.2809 9.8375 13.4809 9.9375 13.7309C10.0375 13.9709 10.0975 14.2709 10.0975 14.6009C10.0975 15.2209 9.9175 15.6909 9.5675 16.0209C9.2175 16.3509 8.7275 16.5109 8.1175 16.5109C7.8275 16.5109 7.5575 16.4709 7.3175 16.3809C7.0775 16.3009 6.8775 16.1809 6.7075 16.0209C6.5375 15.8609 6.4075 15.6809 6.3175 15.4609C6.2275 15.2409 6.1775 15.0009 6.1775 14.7409H4.1875C4.1875 15.2909 4.2975 15.7709 4.5075 16.1909C4.7175 16.6109 5.0075 16.9609 5.3675 17.2409C5.7275 17.5209 6.1375 17.7309 6.6075 17.8709C7.0775 18.0109 7.5675 18.0809 8.0875 18.0809C8.6575 18.0809 9.1775 18.0009 9.6675 17.8509C10.1575 17.7009 10.5775 17.4709 10.9275 17.1709C11.2875 16.8709 11.5675 16.5109 11.7675 16.0709C11.9675 15.6409 12.0675 15.1409 12.0675 14.5909C12.0675 14.3009 12.0275 14.0109 11.9575 13.7309C11.8775 13.4809 11.7675 13.2209 11.6075 12.9709V12.9709ZM20.8675 14.3709C20.7275 14.0909 20.5175 13.8409 20.2375 13.6309C19.9575 13.4209 19.6275 13.2409 19.2275 13.1009C18.8275 12.9609 18.3775 12.8309 17.8775 12.7209C17.5275 12.6509 17.2375 12.5709 17.0075 12.4909C16.7775 12.4109 16.5975 12.3309 16.4575 12.2409C16.3175 12.1509 16.2275 12.0509 16.1775 11.9409C16.1275 11.8309 16.0975 11.7009 16.0975 11.5509C16.0975 11.4009 16.1275 11.2709 16.1875 11.1409C16.2475 11.0109 16.3375 10.8909 16.4575 10.8009C16.5775 10.7009 16.7275 10.6209 16.9075 10.5609C17.0875 10.5009 17.3075 10.4709 17.5475 10.4709C17.7975 10.4709 18.0175 10.5109 18.2075 10.5809C18.3975 10.6509 18.5575 10.7509 18.6875 10.8709C18.8175 10.9909 18.9075 11.1309 18.9775 11.2909C19.0375 11.4509 19.0775 11.6109 19.0775 11.7809H21.0275C21.0275 11.3909 20.9475 11.0309 20.7875 10.6909C20.6275 10.3509 20.3975 10.0609 20.0975 9.81088C19.7975 9.56088 19.4375 9.37088 19.0075 9.22088C18.5775 9.07088 18.0875 9.00088 17.5475 9.00088C17.0375 9.00088 16.5675 9.07088 16.1575 9.21088C15.7475 9.35088 15.3875 9.54088 15.0975 9.78088C14.8075 10.0209 14.5875 10.3009 14.4275 10.6209C14.2675 10.9409 14.1975 11.2709 14.1975 11.6309C14.1975 11.9909 14.2775 12.3109 14.4275 12.5909C14.5775 12.8709 14.7975 13.1109 15.0675 13.3209C15.3375 13.5309 15.6675 13.7009 16.0475 13.8509C16.4275 13.9909 16.8575 14.1109 17.3175 14.2109C17.7075 14.2909 18.0275 14.3809 18.2675 14.4709C18.5075 14.5609 18.6975 14.6609 18.8375 14.7609C18.9675 14.8609 19.0575 14.9809 19.1075 15.1009C19.1575 15.2209 19.1775 15.3509 19.1775 15.4909C19.1775 15.8109 19.0475 16.0609 18.7775 16.2609C18.5075 16.4609 18.1175 16.5509 17.6075 16.5509C17.3875 16.5509 17.1775 16.5309 16.9675 16.4709C16.7575 16.4209 16.5675 16.3409 16.4075 16.2309C16.2375 16.1209 16.1075 15.9709 15.9975 15.7909C15.8875 15.6109 15.8275 15.3809 15.8175 15.1209H13.9275C13.9275 15.4809 14.0075 15.8309 14.1675 16.1709C14.3275 16.5109 14.5575 16.8209 14.8675 17.1009C15.1775 17.3709 15.5575 17.5909 16.0175 17.7609C16.4775 17.9309 16.9975 18.0109 17.5975 18.0109C18.1275 18.0109 18.6075 17.9509 19.0375 17.8209C19.4675 17.6909 19.8375 17.5109 20.1475 17.2809C20.4575 17.0509 20.6875 16.7709 20.8575 16.4509C21.0275 16.1309 21.1075 15.7809 21.1075 15.3909C21.0875 14.9909 21.0175 14.6509 20.8675 14.3709V14.3709Z" fill="black"/>
</g>
<defs>
<clipPath id="clip0_61_17047">
<rect width="24" height="24" fill="white" transform="translate(0 0.000976562)"/>
</clipPath>
</defs>
</svg>
