<svg   viewBox="0 0 24 24" fill="none" xmlns="http://www.w3.org/2000/svg">
<g clip-path="url(#clip0_61_17045)">
<path d="M14.003 1.00098H10.003C9.45303 1.00098 9.00303 1.45098 9.00303 2.00098C9.00303 2.55098 9.45303 3.00098 10.003 3.00098H14.003C14.553 3.00098 15.003 2.55098 15.003 2.00098C15.003 1.45098 14.553 1.00098 14.003 1.00098ZM12.003 14.001C12.553 14.001 13.003 13.551 13.003 13.001V9.00098C13.003 8.45098 12.553 8.00098 12.003 8.00098C11.453 8.00098 11.003 8.45098 11.003 9.00098V13.001C11.003 13.551 11.453 14.001 12.003 14.001ZM19.033 7.39098L19.783 6.64098C20.163 6.26098 20.173 5.63098 19.783 5.24098L19.773 5.23098C19.383 4.84098 18.763 4.85098 18.373 5.23098L17.623 5.98098C16.073 4.74098 14.123 4.00098 12.003 4.00098C7.20303 4.00098 3.12303 7.96098 3.00303 12.761C2.87303 17.841 6.94303 22.001 12.003 22.001C16.983 22.001 21.003 17.971 21.003 13.001C21.003 10.881 20.263 8.93098 19.033 7.39098ZM12.003 20.001C8.13303 20.001 5.00303 16.871 5.00303 13.001C5.00303 9.13098 8.13303 6.00098 12.003 6.00098C15.873 6.00098 19.003 9.13098 19.003 13.001C19.003 16.871 15.873 20.001 12.003 20.001Z" fill="black"/>
</g>
<defs>
<clipPath id="clip0_61_17045">
<rect width="24" height="24" fill="white" transform="translate(0 0.000976562)"/>
</clipPath>
</defs>
</svg>
