<svg viewBox="0 0 24 24" xmlns="http://www.w3.org/2000/svg">
<g clip-path="url(#clip0_61_17049)">
<path d="M12 2.00098C6.48 2.00098 2 6.48098 2 12.001C2 17.521 6.48 22.001 12 22.001C17.52 22.001 22 17.521 22 12.001C22 6.48098 17.52 2.00098 12 2.00098ZM11 19.931C7.06 19.441 4 16.081 4 12.001C4 7.92098 7.05 4.56098 11 4.07098V19.931ZM13 4.07098C14.03 4.20098 15 4.52098 15.87 5.00098H13V4.07098ZM13 7.00098H18.24C18.49 7.31098 18.72 7.65098 18.92 8.00098H13V7.00098ZM13 10.001H19.74C19.82 10.331 19.89 10.661 19.93 11.001H13V10.001ZM13 19.931V19.001H15.87C15 19.481 14.03 19.801 13 19.931ZM18.24 17.001H13V16.001H18.92C18.72 16.351 18.49 16.691 18.24 17.001V17.001ZM19.74 14.001H13V13.001H19.93C19.89 13.341 19.82 13.671 19.74 14.001Z"/>
</g>
<defs>
<clipPath id="clip0_61_17049">
<rect transform="translate(0 0.000976562)"/>
</clipPath>
</defs>
</svg>
