<svg   viewBox="0 0 24 24" fill="none" xmlns="http://www.w3.org/2000/svg">
<g clip-path="url(#clip0_61_17050)">
<path d="M21 16.0012H9C8.45 16.0012 8 15.5512 8 15.0012V4.00117H8.79C9.24 4.00117 9.46 3.46117 9.14 3.15117L7.35 1.35117C7.15 1.15117 6.84 1.15117 6.64 1.35117L4.85 3.15117C4.54 3.46117 4.76 4.00117 5.21 4.00117H6V6.00117H3C2.45 6.00117 2 6.45117 2 7.00117C2 7.55117 2.45 8.00117 3 8.00117H6V16.0012C6 17.1012 6.9 18.0012 8 18.0012H16V20.0012H15.21C14.76 20.0012 14.54 20.5412 14.86 20.8512L16.65 22.6412C16.85 22.8412 17.16 22.8412 17.36 22.6412L19.15 20.8512C19.47 20.5412 19.24 20.0012 18.8 20.0012H18V18.0012H21C21.55 18.0012 22 17.5512 22 17.0012C22 16.4512 21.55 16.0012 21 16.0012ZM16 14.0012H18V8.00117C18 6.90117 17.1 6.00117 16 6.00117H10V8.00117H15C15.55 8.00117 16 8.45117 16 9.00117V14.0012Z" fill="black"/>
</g>
<defs>
<clipPath id="clip0_61_17050">
<rect width="24" height="24" fill="white" transform="translate(0 0.000976562)"/>
</clipPath>
</defs>
</svg>
