<svg viewBox="0 0 24 24" xmlns="http://www.w3.org/2000/svg">
<g clip-path="url(#clip0_61_17051)">
<path d="M3 18.001C3 18.551 3.45 19.001 4 19.001H9V17.001H4C3.45 17.001 3 17.451 3 18.001ZM3 6.00098C3 6.55098 3.45 7.00098 4 7.00098H13V5.00098H4C3.45 5.00098 3 5.45098 3 6.00098ZM13 20.001V19.001H20C20.55 19.001 21 18.551 21 18.001C21 17.451 20.55 17.001 20 17.001H13V16.001C13 15.451 12.55 15.001 12 15.001C11.45 15.001 11 15.451 11 16.001V20.001C11 20.551 11.45 21.001 12 21.001C12.55 21.001 13 20.551 13 20.001ZM7 10.001V11.001H4C3.45 11.001 3 11.451 3 12.001C3 12.551 3.45 13.001 4 13.001H7V14.001C7 14.551 7.45 15.001 8 15.001C8.55 15.001 9 14.551 9 14.001V10.001C9 9.45098 8.55 9.00098 8 9.00098C7.45 9.00098 7 9.45098 7 10.001ZM21 12.001C21 11.451 20.55 11.001 20 11.001H11V13.001H20C20.55 13.001 21 12.551 21 12.001ZM16 9.00098C16.55 9.00098 17 8.55098 17 8.00098V7.00098H20C20.55 7.00098 21 6.55098 21 6.00098C21 5.45098 20.55 5.00098 20 5.00098H17V4.00098C17 3.45098 16.55 3.00098 16 3.00098C15.45 3.00098 15 3.45098 15 4.00098V8.00098C15 8.55098 15.45 9.00098 16 9.00098Z"/>
</g>
<defs>
<clipPath id="clip0_61_17051">
<rect transform="translate(0 0.000976562)"/>
</clipPath>
</defs>
</svg>
