<svg   viewBox="0 0 24 24" fill="none" xmlns="http://www.w3.org/2000/svg">
<g clip-path="url(#clip0_61_17052)">
<path d="M3 9.00098H7V5.00098H5C3.9 5.00098 3 5.90098 3 7.00098V9.00098ZM3 14.001H7V10.001H3V14.001ZM8 14.001H12V10.001H8V14.001ZM13 14.001H17V10.001H13V14.001ZM8 9.00098H12V5.00098H8V9.00098ZM13 5.00098V9.00098H17V5.00098H13ZM18 14.001H22V10.001H18V14.001ZM5 19.001H7V15.001H3V17.001C3 18.101 3.9 19.001 5 19.001ZM8 19.001H12V15.001H8V19.001ZM13 19.001H17V15.001H13V19.001ZM18 19.001H20C21.1 19.001 22 18.101 22 17.001V15.001H18V19.001ZM18 5.00098V9.00098H22V7.00098C22 5.90098 21.1 5.00098 20 5.00098H18Z" fill="black"/>
</g>
<defs>
<clipPath id="clip0_61_17052">
<rect width="24" height="24" fill="white" transform="translate(0 0.000976562)"/>
</clipPath>
</defs>
</svg>
