<svg viewBox="0 0 24 24" xmlns="http://www.w3.org/2000/svg">
<g clip-path="url(#clip0_61_17055)">
<path d="M6.85 12.651H9.15L8 9.00098L6.85 12.651ZM22.72 7.00098C22.3 7.00098 21.95 7.30098 21.87 7.70098L20.8 13.291L19.49 7.78098C19.38 7.32098 18.97 7.00098 18.5 7.00098C18.03 7.00098 17.62 7.32098 17.52 7.78098L16.21 13.291L15.14 7.70098C15.06 7.30098 14.7 7.00098 14.29 7.00098C14.28 7.00098 14.26 7.01098 14.25 7.01098C12.78 5.18098 10.53 4.00098 8 4.00098C3.58 4.00098 0 7.58098 0 12.001C0 16.421 3.58 20.001 8 20.001C11.17 20.001 13.9 18.151 15.2 15.481C15.4 15.801 15.75 16.001 16.14 16.001C16.65 16.001 17.09 15.651 17.21 15.161L18.5 9.90098L19.79 15.161C19.91 15.651 20.36 16.001 20.86 16.001C21.38 16.001 21.82 15.641 21.94 15.141L23.55 8.06098C23.68 7.52098 23.27 7.00098 22.72 7.00098ZM10.93 16.001C10.55 16.001 10.21 15.761 10.09 15.401L9.6 14.001H6.4L5.91 15.401C5.78 15.761 5.45 16.001 5.07 16.001C4.45 16.001 4.02 15.391 4.23 14.811L6.67 7.95098C6.87 7.38098 7.4 7.00098 8 7.00098C8.6 7.00098 9.13 7.38098 9.34 7.94098L11.78 14.801C11.98 15.391 11.55 16.001 10.93 16.001Z"/>
</g>
<defs>
<clipPath id="clip0_61_17055">
<rect transform="translate(0 0.000976562)"/>
</clipPath>
</defs>
</svg>
