<svg viewBox="0 0 24 24" xmlns="http://www.w3.org/2000/svg">
<g clip-path="url(#clip0_61_17058)">
<path d="M6.00375 15.001H18.0037C18.5537 15.001 19.0037 14.551 19.0037 14.001V10.051C19.0037 9.50098 18.5537 9.05098 18.0037 9.05098H6.00375C5.45375 9.05098 5.00375 9.50098 5.00375 10.051V14.001C5.00375 14.551 5.45375 15.001 6.00375 15.001ZM11.0037 2.00098V3.05098C11.0037 3.60098 11.4537 4.00098 12.0037 4.00098C12.5537 4.00098 13.0037 3.60098 13.0037 3.05098V2.00098C13.0037 1.45098 12.5537 1.00098 12.0037 1.00098C11.4537 1.00098 11.0037 1.45098 11.0037 2.00098ZM18.3438 4.30098L17.9637 4.68098C17.5737 5.07098 17.5737 5.70098 17.9637 6.09098C18.3537 6.48098 18.9838 6.48098 19.3738 6.09098L19.7537 5.71098C20.1437 5.32098 20.1437 4.69098 19.7537 4.30098C19.3637 3.91098 18.7337 3.91098 18.3438 4.30098ZM13.0037 22.001V21.041C13.0037 20.491 12.5537 20.041 12.0037 20.041C11.4537 20.041 11.0037 20.491 11.0037 21.041V22.001C11.0037 22.551 11.4537 23.001 12.0037 23.001C12.5537 23.001 13.0037 22.551 13.0037 22.001ZM19.7437 18.391L19.3538 18.001C18.9638 17.611 18.3338 17.611 17.9438 18.001C17.5538 18.391 17.5538 19.021 17.9438 19.411L18.3237 19.801C18.7137 20.191 19.3437 20.191 19.7337 19.801L19.7437 19.791C20.1337 19.411 20.1337 18.771 19.7437 18.391ZM4.25375 5.71098L4.64375 6.10098C5.03375 6.49098 5.66375 6.49098 6.05375 6.10098C6.44375 5.71098 6.44375 5.08098 6.05375 4.69098L5.66375 4.30098C5.27375 3.91098 4.64375 3.91098 4.25375 4.30098C3.87375 4.69098 3.87375 5.33098 4.25375 5.71098ZM5.67375 19.791L6.05375 19.411C6.44375 19.021 6.44375 18.391 6.05375 18.001C5.66375 17.611 5.03375 17.611 4.64375 18.001L4.26375 18.381C3.87375 18.771 3.87375 19.401 4.26375 19.791C4.64375 20.181 5.28375 20.181 5.67375 19.791Z"/>
</g>
<defs>
<clipPath id="clip0_61_17058">
<rect transform="translate(0 0.000976562)"/>
</clipPath>
</defs>
</svg>
