<svg viewBox="0 0 24 24" xmlns="http://www.w3.org/2000/svg">
<g clip-path="url(#clip0_61_17057)">
<path d="M4.25 19.7908C4.64 20.1808 5.27 20.1808 5.66 19.7908L6.05 19.4008C6.44 19.0108 6.43 18.3808 6.05 18.0008L6.04 17.9908C5.65 17.6008 5.02 17.6008 4.63 17.9908L4.24 18.3808C3.86 18.7808 3.86 19.4008 4.25 19.7908ZM11.99 23.0008H12C12.55 23.0008 12.99 22.5608 12.99 22.0108V21.0508C12.99 20.5008 12.55 20.0608 12 20.0608H11.99C11.44 20.0608 11 20.5008 11 21.0508V22.0108C11 22.5608 11.44 23.0008 11.99 23.0008ZM3.01 11.0508H1.99C1.44 11.0508 1 11.4908 1 12.0408V12.0508C1 12.6008 1.44 13.0408 1.99 13.0408H3C3.55 13.0408 3.99 12.6008 3.99 12.0508V12.0408C4 11.4908 3.56 11.0508 3.01 11.0508V11.0508ZM15 6.86078V3.05078C15 2.50078 14.55 2.05078 14 2.05078H10C9.45 2.05078 9 2.50078 9 3.05078V6.86078C6.96 8.04078 5.68 10.3808 6.07 12.9908C6.47 15.6008 8.63 17.6908 11.25 18.0108C14.89 18.4508 18 15.6108 18 12.0608C18 9.83078 16.79 7.90078 15 6.86078V6.86078ZM20 12.0408V12.0508C20 12.6008 20.44 13.0408 20.99 13.0408H22C22.55 13.0408 22.99 12.6008 22.99 12.0508V12.0408C22.99 11.4908 22.55 11.0508 22 11.0508H20.99C20.44 11.0508 20 11.4908 20 12.0408ZM17.94 19.4108L18.33 19.8008C18.72 20.1908 19.35 20.1908 19.74 19.8008C20.13 19.4108 20.13 18.7808 19.74 18.3908L19.35 18.0008C18.96 17.6108 18.33 17.6208 17.95 18.0008C17.55 18.4008 17.55 19.0208 17.94 19.4108Z"/>
</g>
<defs>
<clipPath id="clip0_61_17057">
<rect transform="translate(0 0.000976562)"/>
</clipPath>
</defs>
</svg>
