<svg viewBox="0 0 24 24" xmlns="http://www.w3.org/2000/svg">
<g clip-path="url(#clip0_61_17059)">
<path d="M6.05 4.14078L5.66 3.75078C5.27 3.36078 4.64 3.37078 4.26 3.75078L4.25 3.76078C3.86 4.15078 3.86 4.78078 4.25 5.16078L4.64 5.55078C5.03 5.94078 5.65 5.94078 6.04 5.55078L6.05 5.54078C6.44 5.16078 6.44 4.52078 6.05 4.14078V4.14078ZM3.01 10.5008H1.99C1.44 10.5008 1 10.9408 1 11.4908V11.5008C1 12.0508 1.44 12.4908 1.99 12.4908H3C3.56 12.5008 4 12.0608 4 11.5108V11.5008C4 10.9408 3.56 10.5008 3.01 10.5008ZM12.01 0.550781H12C11.44 0.550781 11 0.990781 11 1.54078V2.50078C11 3.05078 11.44 3.49078 11.99 3.49078H12C12.56 3.50078 13 3.06078 13 2.51078V1.54078C13 0.990781 12.56 0.550781 12.01 0.550781V0.550781ZM19.75 3.76078C19.36 3.37078 18.73 3.37078 18.34 3.75078L17.95 4.14078C17.56 4.53078 17.56 5.16078 17.95 5.54078L17.96 5.55078C18.35 5.94078 18.98 5.94078 19.36 5.55078L19.75 5.16078C20.14 4.77078 20.14 4.15078 19.75 3.76078V3.76078ZM17.94 18.8608L18.33 19.2508C18.72 19.6408 19.35 19.6408 19.74 19.2508C20.13 18.8608 20.13 18.2308 19.74 17.8408L19.35 17.4508C18.96 17.0608 18.33 17.0708 17.95 17.4508C17.55 17.8508 17.55 18.4708 17.94 18.8608ZM20 11.4908V11.5008C20 12.0508 20.44 12.4908 20.99 12.4908H22C22.55 12.4908 22.99 12.0508 22.99 11.5008V11.4908C22.99 10.9408 22.55 10.5008 22 10.5008H20.99C20.44 10.5008 20 10.9408 20 11.4908ZM12 5.50078C8.69 5.50078 6 8.19078 6 11.5008C6 14.8108 8.69 17.5008 12 17.5008C15.31 17.5008 18 14.8108 18 11.5008C18 8.19078 15.31 5.50078 12 5.50078ZM11.99 22.4508H12C12.55 22.4508 12.99 22.0108 12.99 21.4608V20.5008C12.99 19.9508 12.55 19.5108 12 19.5108H11.99C11.44 19.5108 11 19.9508 11 20.5008V21.4608C11 22.0108 11.44 22.4508 11.99 22.4508ZM4.25 19.2408C4.64 19.6308 5.27 19.6308 5.66 19.2408L6.05 18.8508C6.44 18.4608 6.43 17.8308 6.05 17.4508L6.04 17.4408C5.65 17.0508 5.02 17.0508 4.63 17.4408L4.24 17.8308C3.86 18.2308 3.86 18.8508 4.25 19.2408Z"/>
</g>
<defs>
<clipPath id="clip0_61_17059">
<rect transform="translate(0 0.000976562)"/>
</clipPath>
</defs>
</svg>
