<svg viewBox="0 0 24 24" xmlns="http://www.w3.org/2000/svg">
<g clip-path="url(#clip0_61_17127)">
<path d="M21.81 12.741L20.99 12.111C20.99 12.021 20.99 11.981 20.99 11.891L21.79 11.261C21.95 11.141 21.99 10.921 21.89 10.751L21.04 9.27098C20.97 9.14098 20.83 9.07098 20.69 9.07098C20.64 9.07098 20.59 9.08098 20.54 9.10098L19.59 9.48098C19.51 9.43098 19.48 9.41098 19.4 9.37098L19.25 8.36098C19.22 8.15098 19.05 8.00098 18.85 8.00098H17.14C16.94 8.00098 16.77 8.15098 16.74 8.34098L16.6 9.35098C16.57 9.37098 16.53 9.38098 16.5 9.40098C16.47 9.42098 16.44 9.44098 16.41 9.46098L15.46 9.08098C15.41 9.06098 15.36 9.05098 15.31 9.05098C15.17 9.05098 15.04 9.12098 14.96 9.25098L14.11 10.731C14.01 10.901 14.05 11.121 14.21 11.241L15.01 11.871C15.01 11.961 15.01 12.001 15.01 12.101L14.21 12.731C14.05 12.851 14.01 13.071 14.11 13.241L14.96 14.721C15.03 14.851 15.17 14.921 15.31 14.921C15.36 14.921 15.41 14.911 15.46 14.891L16.41 14.521C16.49 14.571 16.53 14.591 16.61 14.631L16.76 15.641C16.79 15.841 16.96 15.981 17.16 15.981H18.87C19.07 15.981 19.24 15.831 19.27 15.641L19.42 14.631C19.45 14.611 19.49 14.601 19.52 14.581C19.55 14.561 19.58 14.541 19.61 14.521L20.56 14.901C20.61 14.921 20.66 14.931 20.71 14.931C20.85 14.931 20.98 14.861 21.06 14.731L21.91 13.251C22.01 13.081 21.97 12.861 21.81 12.741ZM18 13.501C17.17 13.501 16.5 12.831 16.5 12.001C16.5 11.171 17.17 10.501 18 10.501C18.83 10.501 19.5 11.171 19.5 12.001C19.5 12.831 18.83 13.501 18 13.501ZM17 17.001H19V21.001C19 22.101 18.1 23.001 17 23.001H7C5.9 23.001 5 22.101 5 21.001V3.00098C5 1.90098 5.9 1.00098 7 1.00098H17C18.1 1.00098 19 1.90098 19 3.00098V7.00098H17V6.00098H7V18.001H17V17.001Z"/>
</g>
<defs>
<clipPath id="clip0_61_17127">
<rect transform="translate(0 0.000976562)"/>
</clipPath>
</defs>
</svg>
