<svg   viewBox="0 0 24 24" fill="none" xmlns="http://www.w3.org/2000/svg">
<g clip-path="url(#clip0_61_17139)">
<path d="M18 12.001C18 12.551 18.45 13.001 19 13.001H21C21.55 13.001 22 12.551 22 12.001C22 11.451 21.55 11.001 21 11.001H19C18.45 11.001 18 11.451 18 12.001Z" fill="black"/>
<path d="M16.5896 16.8209C16.2596 17.2609 16.3496 17.8709 16.7896 18.1909C17.3196 18.5809 17.8796 19.0009 18.4096 19.4009C18.8496 19.7309 19.4696 19.6409 19.7896 19.2009C19.7896 19.1909 19.7996 19.1909 19.7996 19.1809C20.1296 18.7409 20.0396 18.1209 19.5996 17.8009C19.0696 17.4009 18.5096 16.9809 17.9896 16.5909C17.5496 16.2609 16.9296 16.3609 16.5996 16.8009C16.5996 16.8109 16.5896 16.8209 16.5896 16.8209Z" fill="black"/>
<path d="M19.8088 4.81102C19.8088 4.80102 19.7988 4.80102 19.7988 4.79102C19.4688 4.35102 18.8488 4.26102 18.4188 4.59102C17.8888 4.99102 17.3188 5.41102 16.7988 5.81102C16.3588 6.14102 16.2788 6.76102 16.6088 7.19102C16.6088 7.20102 16.6188 7.20102 16.6188 7.21102C16.9488 7.65102 17.5588 7.74102 17.9988 7.41102C18.5288 7.02102 19.0888 6.59102 19.6188 6.19102C20.0488 5.87102 20.1288 5.25102 19.8088 4.81102Z" fill="black"/>
<path d="M8 9.00098H4C2.9 9.00098 2 9.90098 2 11.001V13.001C2 14.101 2.9 15.001 4 15.001H5V18.001C5 18.551 5.45 19.001 6 19.001C6.55 19.001 7 18.551 7 18.001V15.001H8L13 18.001V6.00098L8 9.00098Z" fill="black"/>
<path d="M15.5 12.0009C15.5 10.6709 14.92 9.47088 14 8.65088V15.3409C14.92 14.5309 15.5 13.3309 15.5 12.0009Z" fill="black"/>
</g>
<defs>
<clipPath id="clip0_61_17139">
<rect width="24" height="24" fill="white" transform="translate(0 0.000976562)"/>
</clipPath>
</defs>
</svg>
