<svg   viewBox="0 0 24 24" fill="none" xmlns="http://www.w3.org/2000/svg">
<g clip-path="url(#clip0_61_17140)">
<path d="M12 2.00098C6.47 2.00098 2 6.47098 2 12.001C2 17.531 6.47 22.001 12 22.001C17.53 22.001 22 17.531 22 12.001C22 6.47098 17.53 2.00098 12 2.00098ZM16.3 16.301C15.91 16.691 15.28 16.691 14.89 16.301L12 13.411L9.11 16.301C8.72 16.691 8.09 16.691 7.7 16.301C7.31 15.911 7.31 15.281 7.7 14.891L10.59 12.001L7.7 9.11098C7.31 8.72098 7.31 8.09098 7.7 7.70098C8.09 7.31098 8.72 7.31098 9.11 7.70098L12 10.591L14.89 7.70098C15.28 7.31098 15.91 7.31098 16.3 7.70098C16.69 8.09098 16.69 8.72098 16.3 9.11098L13.41 12.001L16.3 14.891C16.68 15.271 16.68 15.911 16.3 16.301Z" fill="black"/>
</g>
<defs>
<clipPath id="clip0_61_17140">
<rect width="24" height="24" fill="white" transform="translate(0 0.000976562)"/>
</clipPath>
</defs>
</svg>
