<svg viewBox="0 0 24 24" xmlns="http://www.w3.org/2000/svg">
<g clip-path="url(#clip0_61_17144)">
<path d="M18.2987 5.71119C17.9087 5.32119 17.2787 5.32119 16.8887 5.71119L11.9988 10.5912L7.10875 5.70119C6.71875 5.31119 6.08875 5.31119 5.69875 5.70119C5.30875 6.09119 5.30875 6.72119 5.69875 7.11119L10.5888 12.0012L5.69875 16.8912C5.30875 17.2812 5.30875 17.9112 5.69875 18.3012C6.08875 18.6912 6.71875 18.6912 7.10875 18.3012L11.9988 13.4112L16.8887 18.3012C17.2787 18.6912 17.9087 18.6912 18.2987 18.3012C18.6887 17.9112 18.6887 17.2812 18.2987 16.8912L13.4087 12.0012L18.2987 7.11119C18.6787 6.73119 18.6787 6.09119 18.2987 5.71119V5.71119Z"/>
</g>
<defs>
<clipPath id="clip0_61_17144">
<rect transform="translate(0 0.000976562)"/>
</clipPath>
</defs>
</svg>
