<svg   viewBox="0 0 24 24" fill="none" xmlns="http://www.w3.org/2000/svg">
<g clip-path="url(#clip0_61_17145)">
<path d="M20.0828 11.421L16.0428 5.77098C15.7028 5.29098 15.1528 5.00098 14.5628 5.00098C13.0728 5.00098 12.2128 6.68098 13.0728 7.89098L16.0028 12.001L13.0728 16.111C12.2028 17.321 13.0728 19.001 14.5628 19.001C15.1528 19.001 15.7128 18.711 16.0528 18.231L20.0928 12.581C20.3328 12.231 20.3328 11.771 20.0828 11.421Z" fill="black"/>
<path d="M13.0828 11.421L9.05285 5.77098C8.70285 5.29098 8.15285 5.00098 7.56285 5.00098C6.07285 5.00098 5.20285 6.68098 6.07285 7.89098L9.00285 12.001L6.07285 16.111C5.20285 17.321 6.07285 19.001 7.56285 19.001C8.15285 19.001 8.71285 18.711 9.05285 18.231L13.0928 12.581C13.3328 12.231 13.3328 11.771 13.0828 11.421Z" fill="black"/>
</g>
<defs>
<clipPath id="clip0_61_17145">
<rect width="24" height="24" fill="white" transform="translate(0 0.000976562)"/>
</clipPath>
</defs>
</svg>
