<svg viewBox="0 0 24 24" xmlns="http://www.w3.org/2000/svg">
<g clip-path="url(#clip0_61_17149)">
<path d="M17.7 15.891L13.82 12.001L17.71 8.11098C18.1 7.72098 18.1 7.09098 17.71 6.70098C17.32 6.31098 16.69 6.31098 16.3 6.70098L11.71 11.291C11.32 11.681 11.32 12.311 11.71 12.701L16.3 17.291C16.69 17.681 17.32 17.681 17.71 17.291C18.09 16.911 18.09 16.271 17.7 15.891V15.891ZM7 6.00098C7.55 6.00098 8 6.45098 8 7.00098V17.001C8 17.551 7.55 18.001 7 18.001C6.45 18.001 6 17.551 6 17.001V7.00098C6 6.45098 6.45 6.00098 7 6.00098Z"/>
</g>
<defs>
<clipPath id="clip0_61_17149">
<rect transform="translate(0 0.000976562)"/>
</clipPath>
</defs>
</svg>
