<svg   viewBox="0 0 24 24" fill="none" xmlns="http://www.w3.org/2000/svg">
<g clip-path="url(#clip0_61_17151)">
<path d="M6 16.001H8V18.001C8 18.551 8.45 19.001 9 19.001C9.55 19.001 10 18.551 10 18.001V15.001C10 14.451 9.55 14.001 9 14.001H6C5.45 14.001 5 14.451 5 15.001C5 15.551 5.45 16.001 6 16.001ZM8 8.00098H6C5.45 8.00098 5 8.45098 5 9.00098C5 9.55098 5.45 10.001 6 10.001H9C9.55 10.001 10 9.55098 10 9.00098V6.00098C10 5.45098 9.55 5.00098 9 5.00098C8.45 5.00098 8 5.45098 8 6.00098V8.00098ZM15 19.001C15.55 19.001 16 18.551 16 18.001V16.001H18C18.55 16.001 19 15.551 19 15.001C19 14.451 18.55 14.001 18 14.001H15C14.45 14.001 14 14.451 14 15.001V18.001C14 18.551 14.45 19.001 15 19.001ZM16 8.00098V6.00098C16 5.45098 15.55 5.00098 15 5.00098C14.45 5.00098 14 5.45098 14 6.00098V9.00098C14 9.55098 14.45 10.001 15 10.001H18C18.55 10.001 19 9.55098 19 9.00098C19 8.45098 18.55 8.00098 18 8.00098H16Z" fill="black"/>
</g>
<defs>
<clipPath id="clip0_61_17151">
<rect width="24" height="24" fill="white" transform="translate(0 0.000976562)"/>
</clipPath>
</defs>
</svg>
