<svg   viewBox="0 0 24 24" fill="none" xmlns="http://www.w3.org/2000/svg">
<g clip-path="url(#clip0_61_17150)">
<path d="M6 14.001C5.45 14.001 5 14.451 5 15.001V18.001C5 18.551 5.45 19.001 6 19.001H9C9.55 19.001 10 18.551 10 18.001C10 17.451 9.55 17.001 9 17.001H7V15.001C7 14.451 6.55 14.001 6 14.001ZM6 10.001C6.55 10.001 7 9.55098 7 9.00098V7.00098H9C9.55 7.00098 10 6.55098 10 6.00098C10 5.45098 9.55 5.00098 9 5.00098H6C5.45 5.00098 5 5.45098 5 6.00098V9.00098C5 9.55098 5.45 10.001 6 10.001ZM17 17.001H15C14.45 17.001 14 17.451 14 18.001C14 18.551 14.45 19.001 15 19.001H18C18.55 19.001 19 18.551 19 18.001V15.001C19 14.451 18.55 14.001 18 14.001C17.45 14.001 17 14.451 17 15.001V17.001ZM14 6.00098C14 6.55098 14.45 7.00098 15 7.00098H17V9.00098C17 9.55098 17.45 10.001 18 10.001C18.55 10.001 19 9.55098 19 9.00098V6.00098C19 5.45098 18.55 5.00098 18 5.00098H15C14.45 5.00098 14 5.45098 14 6.00098Z" fill="black"/>
</g>
<defs>
<clipPath id="clip0_61_17150">
<rect width="24" height="24" fill="white" transform="translate(0 0.000976562)"/>
</clipPath>
</defs>
</svg>
