<svg viewBox="0 0 24 24" xmlns="http://www.w3.org/2000/svg">
<g clip-path="url(#clip0_61_17152)">
<path d="M20 3.00098H12C11.45 3.00098 11 3.45098 11 4.00098V5.61098C11 5.61098 11 5.61098 11.01 5.62098L16.01 10.121C16.64 10.681 17 11.501 17 12.351V13.001H19V15.001H17V17.001H19V19.001H17V21.001H20C20.55 21.001 21 20.551 21 20.001V4.00098C21 3.45098 20.55 3.00098 20 3.00098ZM15 7.00098H13V5.00098H15V7.00098ZM19 11.001H17V9.00098H19V11.001ZM19 7.00098H17V5.00098H19V7.00098Z"/>
<path d="M15 20.0011V12.3511C15 12.0711 14.88 11.8011 14.67 11.6111L9.67 7.11107C9.48 6.93107 9.24 6.85107 9 6.85107C8.76 6.85107 8.52 6.94107 8.33 7.11107L3.33 11.6111C3.12 11.7911 3 12.0611 3 12.3511V20.0011C3 20.5511 3.45 21.0011 4 21.0011H6C6.55 21.0011 7 20.5511 7 20.0011V16.0011H11V20.0011C11 20.5511 11.45 21.0011 12 21.0011H14C14.55 21.0011 15 20.5511 15 20.0011Z"/>
</g>
<defs>
<clipPath id="clip0_61_17152">
<rect transform="translate(0 0.000976562)"/>
</clipPath>
</defs>
</svg>
