<svg   viewBox="0 0 24 24" fill="none" xmlns="http://www.w3.org/2000/svg">
<g clip-path="url(#clip0_61_17153)">
<path d="M6.2925 8.11098L10.1825 12.001L6.2925 15.891C5.9025 16.281 5.9025 16.911 6.2925 17.301C6.6825 17.691 7.3125 17.691 7.7025 17.301L12.2925 12.711C12.6825 12.321 12.6825 11.691 12.2925 11.301L7.7025 6.70098C7.3125 6.31098 6.6825 6.31098 6.2925 6.70098C5.9125 7.09098 5.9125 7.73098 6.2925 8.11098ZM17.0025 6.00098C17.5525 6.00098 18.0025 6.45098 18.0025 7.00098V17.001C18.0025 17.551 17.5525 18.001 17.0025 18.001C16.4525 18.001 16.0025 17.551 16.0025 17.001V7.00098C16.0025 6.45098 16.4525 6.00098 17.0025 6.00098Z" fill="black"/>
</g>
<defs>
<clipPath id="clip0_61_17153">
<rect width="24" height="24" fill="white" transform="translate(0 0.000976562)"/>
</clipPath>
</defs>
</svg>
