<svg viewBox="0 0 24 24" xmlns="http://www.w3.org/2000/svg">
<g clip-path="url(#clip0_61_17154)">
<path d="M19 15.001H5C4.45 15.001 4 14.551 4 14.001C4 13.451 4.45 13.001 5 13.001H19C19.55 13.001 20 13.451 20 14.001C20 14.551 19.55 15.001 19 15.001ZM19 17.001H5C4.45 17.001 4 17.451 4 18.001C4 18.551 4.45 19.001 5 19.001H19C19.55 19.001 20 18.551 20 18.001C20 17.451 19.55 17.001 19 17.001ZM15 11.001L19.58 7.75098C19.84 7.56098 20 7.26098 20 6.94098C20 6.13098 19.08 5.65098 18.42 6.12098L15 8.55098L10 5.00098L4.48 8.36098C4.18 8.55098 4 8.87098 4 9.22098C4 10.001 4.85 10.481 5.52 10.071L9.92 7.39098L15 11.001Z"/>
</g>
<defs>
<clipPath id="clip0_61_17154">
<rect transform="translate(0 0.000976562)"/>
</clipPath>
</defs>
</svg>
