<svg   viewBox="0 0 24 24" fill="none" xmlns="http://www.w3.org/2000/svg">
<g clip-path="url(#clip0_61_17156)">
<path d="M4 18.001H15C15.55 18.001 16 17.551 16 17.001C16 16.451 15.55 16.001 15 16.001H4C3.45 16.001 3 16.451 3 17.001C3 17.551 3.45 18.001 4 18.001ZM4 13.001H12C12.55 13.001 13 12.551 13 12.001C13 11.451 12.55 11.001 12 11.001H4C3.45 11.001 3 11.451 3 12.001C3 12.551 3.45 13.001 4 13.001ZM3 7.00098C3 7.55098 3.45 8.00098 4 8.00098H15C15.55 8.00098 16 7.55098 16 7.00098C16 6.45098 15.55 6.00098 15 6.00098H4C3.45 6.00098 3 6.45098 3 7.00098ZM20.3 14.881L17.42 12.001L20.3 9.12098C20.69 8.73098 20.69 8.10098 20.3 7.71098C19.91 7.32098 19.28 7.32098 18.89 7.71098L15.3 11.301C14.91 11.691 14.91 12.321 15.3 12.711L18.89 16.301C19.28 16.691 19.91 16.691 20.3 16.301C20.68 15.911 20.69 15.271 20.3 14.881Z" fill="black"/>
</g>
<defs>
<clipPath id="clip0_61_17156">
<rect width="24" height="24" fill="white" transform="translate(0 0.000976562)"/>
</clipPath>
</defs>
</svg>
