<svg viewBox="0 0 24 24" xmlns="http://www.w3.org/2000/svg">
<g clip-path="url(#clip0_61_17158)">
<path d="M12 8.00098C13.1 8.00098 14 7.10098 14 6.00098C14 4.90098 13.1 4.00098 12 4.00098C10.9 4.00098 10 4.90098 10 6.00098C10 7.10098 10.9 8.00098 12 8.00098ZM12 10.001C10.9 10.001 10 10.901 10 12.001C10 13.101 10.9 14.001 12 14.001C13.1 14.001 14 13.101 14 12.001C14 10.901 13.1 10.001 12 10.001ZM12 16.001C10.9 16.001 10 16.901 10 18.001C10 19.101 10.9 20.001 12 20.001C13.1 20.001 14 19.101 14 18.001C14 16.901 13.1 16.001 12 16.001Z"/>
</g>
<defs>
<clipPath id="clip0_61_17158">
<rect transform="translate(0 0.000976562)"/>
</clipPath>
</defs>
</svg>
