<svg viewBox="0 0 24 24" xmlns="http://www.w3.org/2000/svg">
<g clip-path="url(#clip0_61_17157)">
<path d="M6 10.001C4.9 10.001 4 10.901 4 12.001C4 13.101 4.9 14.001 6 14.001C7.1 14.001 8 13.101 8 12.001C8 10.901 7.1 10.001 6 10.001ZM18 10.001C16.9 10.001 16 10.901 16 12.001C16 13.101 16.9 14.001 18 14.001C19.1 14.001 20 13.101 20 12.001C20 10.901 19.1 10.001 18 10.001ZM12 10.001C10.9 10.001 10 10.901 10 12.001C10 13.101 10.9 14.001 12 14.001C13.1 14.001 14 13.101 14 12.001C14 10.901 13.1 10.001 12 10.001Z"/>
</g>
<defs>
<clipPath id="clip0_61_17157">
<rect transform="translate(0 0.000976562)"/>
</clipPath>
</defs>
</svg>
