<svg viewBox="0 0 24 24" xmlns="http://www.w3.org/2000/svg">
<g clip-path="url(#clip0_61_17162)">
<path d="M23 8.00098V18.001C23 19.101 22.1 20.001 21 20.001H5C4.45 20.001 4 19.551 4 19.001C4 18.451 4.45 18.001 5 18.001H21V8.00098C21 7.45098 21.45 7.00098 22 7.00098C22.55 7.00098 23 7.45098 23 8.00098ZM4 16.001C2.34 16.001 1 14.661 1 13.001V7.00098C1 5.34098 2.34 4.00098 4 4.00098H16C17.66 4.00098 19 5.34098 19 7.00098V14.001C19 15.101 18.1 16.001 17 16.001H4ZM7 10.001C7 11.661 8.34 13.001 10 13.001C11.66 13.001 13 11.661 13 10.001C13 8.34098 11.66 7.00098 10 7.00098C8.34 7.00098 7 8.34098 7 10.001Z"/>
</g>
<defs>
<clipPath id="clip0_61_17162">
<rect transform="translate(0 0.000976562)"/>
</clipPath>
</defs>
</svg>
