<svg   viewBox="0 0 24 24" fill="none" xmlns="http://www.w3.org/2000/svg">
<g clip-path="url(#clip0_61_17163)">
<path d="M17.6493 6.35097C16.0193 4.72097 13.7093 3.78097 11.1693 4.04097C7.49929 4.41097 4.47929 7.39097 4.06929 11.061C3.51929 15.911 7.26929 20.001 11.9993 20.001C15.1893 20.001 17.9293 18.131 19.2093 15.441C19.5293 14.771 19.0493 14.001 18.3093 14.001C17.9393 14.001 17.5893 14.201 17.4293 14.531C16.2993 16.961 13.5893 18.501 10.6293 17.841C8.40929 17.351 6.61929 15.541 6.14929 13.321C5.30929 9.44097 8.25929 6.00097 11.9993 6.00097C13.6593 6.00097 15.1393 6.69097 16.2193 7.78097L14.7093 9.29097C14.0793 9.92097 14.5193 11.001 15.4093 11.001H18.9993C19.5493 11.001 19.9993 10.551 19.9993 10.001V6.41097C19.9993 5.52097 18.9193 5.07097 18.2893 5.70097L17.6493 6.35097V6.35097Z" fill="black"/>
</g>
<defs>
<clipPath id="clip0_61_17163">
<rect width="24" height="24" fill="white" transform="translate(0 0.000976562)"/>
</clipPath>
</defs>
</svg>
