<svg viewBox="0 0 24 24" xmlns="http://www.w3.org/2000/svg">
<g clip-path="url(#clip0_61_17168)">
<path d="M18.29 15.711L13.71 20.291C13.32 20.681 12.68 20.681 12.29 20.291C11.9 19.901 11.9 19.261 12.29 18.871L15.17 16.001H5C4.45 16.001 4 15.551 4 15.001V5.00098C4 4.45098 4.45 4.00098 5 4.00098C5.55 4.00098 6 4.45098 6 5.00098V14.001H15.17L12.29 11.131C11.9 10.741 11.9 10.101 12.29 9.71098C12.68 9.32098 13.32 9.32098 13.71 9.71098L18.29 14.291C18.68 14.681 18.68 15.321 18.29 15.711V15.711Z"/>
</g>
<defs>
<clipPath id="clip0_61_17168">
<rect transform="translate(0 0.000976562)"/>
</clipPath>
</defs>
</svg>
