<svg viewBox="0 0 24 24" xmlns="http://www.w3.org/2000/svg">
<g clip-path="url(#clip0_61_17167)">
<path d="M5.70656 15.711L10.2866 20.291C10.6766 20.681 11.3166 20.681 11.7066 20.291C12.0966 19.901 12.0966 19.261 11.7066 18.871L8.82656 16.001H18.9966C19.5466 16.001 19.9966 15.551 19.9966 15.001V5.00098C19.9966 4.45098 19.5466 4.00098 18.9966 4.00098C18.4466 4.00098 17.9966 4.45098 17.9966 5.00098V14.001H8.82656L11.7066 11.131C12.0966 10.741 12.0966 10.101 11.7066 9.71098C11.3166 9.32098 10.6766 9.32098 10.2866 9.71098L5.70656 14.291C5.31656 14.681 5.31656 15.321 5.70656 15.711V15.711Z"/>
</g>
<defs>
<clipPath id="clip0_61_17167">
<rect transform="translate(0 0.000976562)"/>
</clipPath>
</defs>
</svg>
