<svg   viewBox="0 0 24 24" fill="none" xmlns="http://www.w3.org/2000/svg">
<g clip-path="url(#clip0_61_17169)">
<path d="M8.49656 8.62075V15.3808L5.11656 12.0008L8.49656 8.62075ZM3.70656 11.2908C3.31656 11.6808 3.31656 12.3107 3.70656 12.7007L8.29656 17.2908C8.91656 17.9208 9.99656 17.4808 9.99656 16.5908V7.41075C9.99656 6.52075 8.91656 6.07075 8.28656 6.70075L3.70656 11.2908ZM13.9966 7.41075V16.5808C13.9966 17.4708 15.0766 17.9208 15.7066 17.2908L20.2966 12.7007C20.6866 12.3107 20.6866 11.6808 20.2966 11.2908L15.7066 6.70075C15.0766 6.08075 13.9966 6.52075 13.9966 7.41075Z" fill="black"/>
</g>
<defs>
<clipPath id="clip0_61_17169">
<rect width="24" height="24" fill="white" transform="translate(0 0.000976562)"/>
</clipPath>
</defs>
</svg>
