<svg   viewBox="0 0 24 24" fill="none" xmlns="http://www.w3.org/2000/svg">
<g clip-path="url(#clip0_61_17170)">
<path d="M15.4987 15.3808V8.62075L18.8787 12.0008L15.4987 15.3808ZM20.2888 12.7108C20.6788 12.3208 20.6788 11.6908 20.2888 11.3008L15.6987 6.71075C15.0787 6.08075 13.9987 6.52075 13.9987 7.41075V16.5808C13.9987 17.4708 15.0787 17.9208 15.7087 17.2908L20.2888 12.7108ZM9.99875 16.5908V7.41075C9.99875 6.52075 8.91875 6.07075 8.28875 6.70075L3.69875 11.2908C3.30875 11.6808 3.30875 12.3107 3.69875 12.7007L8.28875 17.2908C8.91875 17.9208 9.99875 17.4808 9.99875 16.5908Z" fill="black"/>
</g>
<defs>
<clipPath id="clip0_61_17170">
<rect width="24" height="24" fill="white" transform="translate(0 0.000976562)"/>
</clipPath>
</defs>
</svg>
