<svg   viewBox="0 0 24 24" fill="none" xmlns="http://www.w3.org/2000/svg">
<g clip-path="url(#clip0_61_17172)">
<path d="M12.0006 5.83119L14.4606 8.29119C14.8506 8.68119 15.4806 8.68119 15.8706 8.29119C16.2606 7.90119 16.2606 7.27119 15.8706 6.88119L12.7006 3.70119C12.3106 3.31119 11.6806 3.31119 11.2906 3.70119L8.12062 6.88119C7.73063 7.27119 7.73063 7.90119 8.12062 8.29119C8.51062 8.68119 9.14062 8.68119 9.53062 8.29119L12.0006 5.83119ZM12.0006 18.1712L9.54063 15.7112C9.15063 15.3212 8.52063 15.3212 8.13063 15.7112C7.74063 16.1012 7.74063 16.7312 8.13063 17.1212L11.3006 20.3012C11.6906 20.6912 12.3206 20.6912 12.7106 20.3012L15.8806 17.1312C16.2706 16.7412 16.2706 16.1112 15.8806 15.7212C15.4906 15.3312 14.8606 15.3312 14.4706 15.7212L12.0006 18.1712Z" fill="black"/>
</g>
<defs>
<clipPath id="clip0_61_17172">
<rect width="24" height="24" fill="white" transform="translate(0 0.000976562)"/>
</clipPath>
</defs>
</svg>
