<svg viewBox="0 0 24 24" xmlns="http://www.w3.org/2000/svg">
<g clip-path="url(#clip0_61_17171)">
<path d="M8.12062 19.3012C8.51062 19.6912 9.14062 19.6912 9.53062 19.3012L12.0006 16.8312L14.4706 19.3012C14.8606 19.6912 15.4906 19.6912 15.8806 19.3012C16.2706 18.9112 16.2706 18.2812 15.8806 17.8912L12.7106 14.7212C12.3206 14.3312 11.6906 14.3312 11.3006 14.7212L8.13063 17.8912C7.73063 18.2712 7.73063 18.9112 8.12062 19.3012V19.3012ZM15.8806 4.70119C15.4906 4.31119 14.8606 4.31119 14.4706 4.70119L12.0006 7.17119L9.53062 4.70119C9.14062 4.31119 8.51062 4.31119 8.12062 4.70119C7.73063 5.09119 7.73063 5.73119 8.12062 6.12119L11.2906 9.29119C11.6806 9.68119 12.3106 9.68119 12.7006 9.29119L15.8706 6.12119C16.2706 5.73119 16.2706 5.09119 15.8806 4.70119V4.70119Z"/>
</g>
<defs>
<clipPath id="clip0_61_17171">
<rect transform="translate(0 0.000976562)"/>
</clipPath>
</defs>
</svg>
