<svg   viewBox="0 0 32 32" fill="none" xmlns="http://www.w3.org/2000/svg">
<path d="M24.514 16C25.4446 14.7177 26.2484 13.3481 26.914 11.9103C28.2986 8.83339 28.3158 6.39332 26.9622 5.03981C24.7811 2.8592 20.3197 4.42616 16.0021 7.50044C11.6845 4.4261 7.22302 2.85908 5.04193 5.03981C3.68836 6.39332 3.70551 8.83339 5.09015 11.9103C5.7558 13.3481 6.55958 14.7177 7.49018 16C6.55958 17.2823 5.7558 18.652 5.09015 20.0897C3.70551 23.1666 3.68836 25.6067 5.04193 26.9602C5.74414 27.6624 6.68262 27.9761 7.77674 27.9761C10.0809 27.9761 13.0745 26.5837 16.0021 24.4991C18.9296 26.5837 21.9232 27.9761 24.2274 27.9761C25.3212 27.9761 26.2601 27.6622 26.9622 26.9602C28.3158 25.6067 28.2986 23.1666 26.914 20.0897C26.2484 18.652 25.4446 17.2823 24.514 16V16ZM24.224 6.03749C24.8209 6.03749 25.2733 6.17946 25.548 6.45411C26.2511 7.15711 26.08 8.89003 25.0902 11.0896C24.5685 12.2214 23.9499 13.3059 23.2413 14.3311C22.4111 13.3106 21.5289 12.3336 20.5983 11.4038C19.6668 10.4725 18.6869 9.59076 17.6628 8.76234C20.4001 6.9015 22.7521 6.03749 24.224 6.03749V6.03749ZM22.0172 16C21.1363 17.1156 20.1903 18.178 19.1841 19.1819C18.1803 20.1896 17.1179 21.137 16.0023 22.0192C14.8865 21.137 13.8239 20.1896 12.8201 19.1819C11.8138 18.178 10.8678 17.1156 9.987 16C11.7541 13.7692 13.7724 11.7495 16.0021 9.98091C17.1178 10.8631 18.1803 11.8105 19.1841 12.8181C20.1903 13.822 21.1363 14.8845 22.0172 16V16ZM6.914 11.0896C5.9242 8.89003 5.75305 7.15711 6.45612 6.45411C6.73084 6.17933 7.18299 6.03749 7.78015 6.03749C9.25208 6.03749 11.6041 6.90159 14.3414 8.76237C13.3172 9.59077 12.3374 10.4725 11.4059 11.4038C10.4752 12.3336 9.59304 13.3106 8.76282 14.3311C8.05426 13.3059 7.43568 12.2214 6.914 11.0896V11.0896ZM6.45612 25.5459C5.75305 24.8429 5.9242 23.11 6.914 20.9104C7.43568 19.7786 8.05426 18.6941 8.76282 17.6689C9.59304 18.6894 10.4752 19.6664 11.4059 20.5962C12.3377 21.5276 13.3179 22.4093 14.3423 23.2377C10.494 25.8541 7.4082 26.4978 6.45612 25.5459ZM25.548 25.5459C25.2733 25.8207 24.8212 25.9625 24.224 25.9625C22.752 25.9624 20.3998 25.0982 17.6624 23.2373C18.6866 22.409 19.6666 21.5274 20.5983 20.5962C21.5289 19.6664 22.4111 18.6894 23.2413 17.6689C23.9499 18.6941 24.5685 19.7786 25.0902 20.9104C26.08 23.11 26.2511 24.8429 25.548 25.5459V25.5459ZM17.5021 16C17.5021 16.2967 17.4141 16.5867 17.2493 16.8334C17.0845 17.08 16.8502 17.2723 16.5761 17.3858C16.302 17.4994 16.0004 17.5291 15.7094 17.4712C15.4185 17.4133 15.1512 17.2705 14.9414 17.0607C14.7316 16.8509 14.5888 16.5836 14.5309 16.2926C14.473 16.0017 14.5027 15.7001 14.6163 15.426C14.7298 15.1519 14.922 14.9176 15.1687 14.7528C15.4154 14.588 15.7054 14.5 16.0021 14.5C16.3999 14.5 16.7814 14.658 17.0627 14.9394C17.344 15.2207 17.5021 15.6022 17.5021 16Z" fill="black"/>
</svg>
