<svg viewBox="0 0 32 32" xmlns="http://www.w3.org/2000/svg">
<path d="M29.5548 9.16797L26.6509 7.23194C26.1093 5.52548 24.9752 4.06901 23.4535 3.12569C21.9319 2.18237 20.123 1.81442 18.3537 2.08832C16.5844 2.36222 14.9714 3.2599 13.8062 4.61917C12.641 5.97844 12.0003 7.70965 12.0001 9.50001V11.6492L0.219182 26.3753C0.10149 26.5224 0.0277395 26.6997 0.00642327 26.8869C-0.0148929 27.0741 0.0170926 27.2634 0.098696 27.4332C0.180299 27.603 0.308201 27.7463 0.467671 27.8466C0.62714 27.9468 0.81169 28 1.00007 28H14.0001C17.4467 27.9961 20.751 26.6252 23.1881 24.1881C25.6253 21.751 26.9962 18.4466 27.0001 15V12.5352L29.5548 10.832C29.6917 10.7407 29.8041 10.617 29.8817 10.4719C29.9594 10.3267 30.0001 10.1646 30.0001 10C30.0001 9.83538 29.9594 9.6733 29.8817 9.52815C29.8041 9.38301 29.6917 9.25929 29.5548 9.16797V9.16797ZM13.7683 17.6402L8.76825 23.6402C8.59831 23.8434 8.35466 23.9709 8.0908 23.9947C7.82694 24.0185 7.56443 23.9366 7.3609 23.7669C7.15738 23.5973 7.02949 23.3539 7.0053 23.0901C6.98111 22.8262 7.0626 22.5636 7.23188 22.3598L12.2319 16.3598C12.4018 16.1566 12.6455 16.0291 12.9093 16.0053C13.1732 15.9815 13.4357 16.0635 13.6392 16.2331C13.8427 16.4027 13.9706 16.6461 13.9948 16.9099C14.019 17.1738 13.9375 17.4364 13.7683 17.6402V17.6402ZM20.5001 10C20.2034 10 19.9134 9.91203 19.6667 9.74721C19.42 9.58239 19.2278 9.34812 19.1142 9.07403C19.0007 8.79994 18.971 8.49834 19.0289 8.20737C19.0868 7.9164 19.2296 7.64912 19.4394 7.43935C19.6492 7.22957 19.9165 7.08671 20.2074 7.02883C20.4984 6.97095 20.8 7.00065 21.0741 7.11419C21.3482 7.22772 21.5824 7.41998 21.7473 7.66665C21.9121 7.91332 22.0001 8.20333 22.0001 8.50001C22.0001 8.89783 21.842 9.27936 21.5607 9.56067C21.2794 9.84197 20.8979 10 20.5001 10Z"/>
</svg>
