<svg   viewBox="0 0 32 32" fill="none" xmlns="http://www.w3.org/2000/svg">
<path d="M27.6766 4.53208C27.3097 4.40661 26.9148 4.38773 26.5376 4.47764C26.1604 4.56755 25.8165 4.76256 25.5457 5.04004L23.4325 7.15332C21.2087 5.7467 18.6314 5 16.0001 5C13.3687 5 10.7914 5.7467 8.56764 7.15332L6.45423 5.03998C6.1834 4.76252 5.83946 4.56753 5.4623 4.47764C5.08514 4.38774 4.69023 4.40663 4.32337 4.53211C3.93544 4.67077 3.59996 4.92613 3.363 5.26313C3.12605 5.60013 2.99924 6.00222 3 6.41419V17C3 22.938 7.69657 27.8825 13.8408 28.8345C13.9838 28.8571 14.1299 28.8485 14.2692 28.8093C14.4086 28.7701 14.5377 28.7011 14.6479 28.6072C14.758 28.5134 14.8465 28.3967 14.9073 28.2654C14.9681 28.134 14.9997 27.9911 15 27.8463V24.4143L13.3223 22.7365C13.1321 22.5519 13.0206 22.3009 13.0111 22.0359C13.0016 21.771 13.0949 21.5126 13.2715 21.3149C13.3633 21.2174 13.4737 21.1392 13.5962 21.0852C13.7187 21.0311 13.8508 21.0022 13.9847 21.0001C14.1186 20.9981 14.2515 21.023 14.3756 21.0732C14.4997 21.1235 14.6125 21.1982 14.7072 21.2929L16 22.5858L17.2929 21.2929C17.3875 21.1982 17.5003 21.1235 17.6244 21.0732C17.7485 21.023 17.8814 20.9981 18.0153 21.0001C18.1492 21.0022 18.2813 21.0311 18.4038 21.0852C18.5263 21.1392 18.6367 21.2174 18.7285 21.3149C18.9051 21.5126 18.9984 21.771 18.9889 22.0359C18.9794 22.3009 18.8679 22.5519 18.6777 22.7365L17 24.4143V27.8464C17.0003 27.9911 17.0319 28.134 17.0927 28.2654C17.1535 28.3967 17.242 28.5134 17.3521 28.6072C17.4623 28.7011 17.5915 28.7701 17.7308 28.8093C17.8701 28.8485 18.0162 28.8571 18.1592 28.8345C24.3034 27.8825 29 22.938 29 17V6.41419C29.0008 6.00221 28.874 5.60011 28.637 5.2631C28.4 4.9261 28.0645 4.67073 27.6766 4.53208V4.53208ZM10.5 19C10.2033 19 9.91332 18.912 9.66665 18.7472C9.41997 18.5824 9.22772 18.3481 9.11418 18.074C9.00065 17.7999 8.97095 17.4983 9.02883 17.2074C9.0867 16.9164 9.22956 16.6491 9.43934 16.4393C9.64912 16.2296 9.9164 16.0867 10.2074 16.0288C10.4983 15.9709 10.7999 16.0007 11.074 16.1142C11.3481 16.2277 11.5824 16.42 11.7472 16.6666C11.912 16.9133 12 17.2033 12 17.5C12 17.8978 11.842 18.2794 11.5607 18.5607C11.2794 18.842 10.8978 19 10.5 19ZM13 11C13 11.2652 12.8946 11.5196 12.7071 11.7071C12.5196 11.8946 12.2652 12 12 12C11.7348 12 11.4804 11.8946 11.2929 11.7071C11.1054 11.5196 11 11.2652 11 11V8.6261C11 8.36089 11.1054 8.10653 11.2929 7.919C11.4804 7.73146 11.7348 7.6261 12 7.6261C12.2652 7.6261 12.5196 7.73146 12.7071 7.919C12.8946 8.10653 13 8.36089 13 8.6261V11ZM17 11C17 11.2652 16.8946 11.5196 16.7071 11.7071C16.5196 11.8946 16.2652 12 16 12C15.7348 12 15.4804 11.8946 15.2929 11.7071C15.1054 11.5196 15 11.2652 15 11V8C15 7.73479 15.1054 7.48043 15.2929 7.2929C15.4804 7.10536 15.7348 7 16 7C16.2652 7 16.5196 7.10536 16.7071 7.2929C16.8946 7.48043 17 7.73479 17 8V11ZM19 11V8.6261C19 8.36089 19.1054 8.10653 19.2929 7.919C19.4804 7.73146 19.7348 7.6261 20 7.6261C20.2652 7.6261 20.5196 7.73146 20.7071 7.919C20.8946 8.10653 21 8.36089 21 8.6261V11C21 11.2652 20.8946 11.5196 20.7071 11.7071C20.5196 11.8946 20.2652 12 20 12C19.7348 12 19.4804 11.8946 19.2929 11.7071C19.1054 11.5196 19 11.2652 19 11ZM21.5 19C21.2033 19 20.9133 18.912 20.6666 18.7472C20.42 18.5824 20.2277 18.3481 20.1142 18.074C20.0007 17.7999 19.9709 17.4983 20.0288 17.2074C20.0867 16.9164 20.2296 16.6491 20.4393 16.4393C20.6491 16.2296 20.9164 16.0867 21.2074 16.0288C21.4983 15.9709 21.7999 16.0007 22.074 16.1142C22.3481 16.2277 22.5824 16.42 22.7472 16.6666C22.912 16.9133 23 17.2033 23 17.5C23 17.8978 22.842 18.2794 22.5607 18.5607C22.2794 18.842 21.8978 19 21.5 19Z" fill="black"/>
</svg>
