<svg viewBox="0 0 32 32" xmlns="http://www.w3.org/2000/svg">
<path d="M19.5005 8.99998C18.983 9.00011 18.4665 9.04241 17.956 9.12648C17.7738 7.24926 17.0063 5.47675 15.762 4.05945C14.5176 2.64214 12.8594 1.65171 11.0215 1.22813C10.8564 1.19021 10.6844 1.19486 10.5215 1.24165C10.3587 1.28844 10.2104 1.37583 10.0906 1.49562C9.97083 1.61541 9.88343 1.76368 9.83663 1.9265C9.78984 2.08933 9.78518 2.26137 9.82309 2.42649C9.94118 2.94265 10.0007 3.47048 10.0005 3.99998C9.99837 5.85585 9.2602 7.63512 7.94789 8.94742C6.63559 10.2597 4.85633 10.9979 3.00046 11C2.47085 11.0002 1.9429 10.9407 1.4266 10.8227C1.2615 10.7849 1.08948 10.7896 0.926692 10.8364C0.763902 10.8832 0.615676 10.9707 0.495916 11.0904C0.376157 11.2102 0.288791 11.3585 0.242013 11.5213C0.195235 11.6841 0.190578 11.8561 0.22848 12.0212C0.496889 13.1797 0.991652 14.2738 1.68432 15.2404C2.37699 16.2071 3.25391 17.0273 4.26465 17.6539C3.55232 18.6217 3.12244 19.7682 3.02281 20.9658C2.92319 22.1634 3.15774 23.3651 3.70036 24.4373C4.24298 25.5096 5.07241 26.4103 6.09638 27.0392C7.12036 27.6682 8.29874 28.0008 9.50046 28H19.5005C22.02 28 24.4364 26.9991 26.218 25.2175C27.9996 23.4359 29.0005 21.0195 29.0005 18.5C29.0005 15.9804 27.9996 13.5641 26.218 11.7825C24.4364 10.0009 22.02 8.99998 19.5005 8.99998V8.99998ZM2.67148 12.994C2.78104 12.998 2.8907 13 3.00046 13C5.38658 12.9973 7.6742 12.0482 9.36145 10.361C11.0487 8.67373 11.9978 6.3861 12.0005 3.99998C12.0005 3.88853 11.9984 3.77716 11.9943 3.66587C13.1462 4.20579 14.128 5.05125 14.8329 6.11029C15.5378 7.16933 15.9387 8.40139 15.9921 9.67243C14.7736 10.1599 13.6686 10.8933 12.7461 11.8267C11.8235 12.7602 11.1032 13.8737 10.6301 15.0979C10.2571 15.0326 9.87913 14.9998 9.50046 15C8.15505 14.9989 6.84287 15.4179 5.74695 16.1983C4.40254 15.4905 3.32354 14.3663 2.67148 12.994V12.994Z"/>
</svg>
