<svg   viewBox="0 0 32 32" fill="none" xmlns="http://www.w3.org/2000/svg">
<path d="M20 5C17.9571 5.00168 15.9549 5.57159 14.2173 6.646C12.4797 7.72041 11.0752 9.25697 10.1609 11.0839L10.1602 11.0838C9.39453 12.6094 8.99668 14.2931 8.99854 16C8.99854 16.2652 8.89319 16.5196 8.70565 16.7071C8.51811 16.8946 8.26376 17 7.99854 17C7.73333 17 7.47897 16.8946 7.29144 16.7071C7.1039 16.5196 6.99854 16.2652 6.99854 16C6.99697 14.3083 7.32738 12.6328 7.97104 11.0684C5.9555 11.3296 4.11496 12.3482 2.82328 13.9173C1.5316 15.4865 0.885651 17.4884 1.01664 19.5166C1.14764 21.5448 2.04575 23.447 3.52854 24.8369C5.01134 26.2269 6.96762 27.0003 9.00001 27H20C22.9174 27 25.7153 25.8411 27.7782 23.7782C29.8411 21.7153 31 18.9174 31 16C31 13.0826 29.8411 10.2847 27.7782 8.22183C25.7153 6.15893 22.9174 5 20 5Z" fill="black"/>
</svg>
