<svg viewBox="0 0 32 32" xmlns="http://www.w3.org/2000/svg">
<path d="M20.1173 25.5486L16.8361 30.5486C16.6906 30.7704 16.4629 30.9252 16.2032 30.9791C15.9436 31.033 15.6731 30.9816 15.4514 30.8361C15.2296 30.6906 15.0748 30.4629 15.0209 30.2032C14.967 29.9436 15.0184 29.6731 15.1639 29.4514L18.4452 24.4514C18.5173 24.3416 18.6102 24.247 18.7188 24.1732C18.8274 24.0993 18.9494 24.0476 19.078 24.0209C19.2066 23.9942 19.3392 23.9931 19.4682 24.0176C19.5972 24.0422 19.7201 24.0919 19.8299 24.1639C19.9397 24.236 20.0342 24.329 20.1081 24.4375C20.182 24.5461 20.2337 24.6682 20.2604 24.7968C20.2871 24.9253 20.2882 25.0579 20.2636 25.1869C20.2391 25.3159 20.1894 25.4389 20.1173 25.5486V25.5486ZM19.5 2C17.5791 2.00218 15.7039 2.58562 14.1208 3.67361C12.5377 4.7616 11.321 6.30319 10.6305 8.0957L10.6297 8.0979C10.2123 9.18354 9.99881 10.3369 10 11.5C10 11.7652 9.89466 12.0196 9.70712 12.2071C9.51959 12.3946 9.26523 12.5 9.00002 12.5C8.7348 12.5 8.48045 12.3946 8.29291 12.2071C8.10537 12.0196 8.00002 11.7652 8.00002 11.5C7.99908 10.3381 8.17482 9.18284 8.52122 8.07379C6.90095 8.32063 5.43374 9.17043 4.41337 10.453C3.393 11.7356 2.89482 13.3563 3.01857 14.9906C3.14232 16.6249 3.87887 18.1521 5.08073 19.2665C6.2826 20.3808 7.86105 21 9.50002 21H14.4289L11.5077 25.4514C11.3622 25.6731 11.3107 25.9435 11.3646 26.2032C11.4185 26.4629 11.5734 26.6905 11.7951 26.8361C12.0169 26.9816 12.2873 27.033 12.547 26.9791C12.8067 26.9252 13.0343 26.7704 13.1798 26.5486L16.8211 21H19.5C22.0196 21 24.4359 19.9991 26.2175 18.2175C27.9991 16.4359 29 14.0196 29 11.5C29 8.98044 27.9991 6.56408 26.2175 4.78249C24.4359 3.00089 22.0196 2 19.5 2H19.5Z"/>
</svg>
