<svg viewBox="0 0 32 32" xmlns="http://www.w3.org/2000/svg">
<path d="M22 24.5C22 24.7967 21.912 25.0867 21.7472 25.3334C21.5824 25.58 21.3481 25.7723 21.074 25.8858C20.8 25.9993 20.4984 26.0291 20.2074 25.9712C19.9164 25.9133 19.6491 25.7704 19.4394 25.5607C19.2296 25.3509 19.0867 25.0836 19.0288 24.7926C18.971 24.5017 19.0007 24.2001 19.1142 23.926C19.2277 23.6519 19.42 23.4176 19.6667 23.2528C19.9133 23.088 20.2033 23 20.5 23C20.8977 23.0005 21.279 23.1586 21.5602 23.4398C21.8414 23.721 21.9996 24.1023 22 24.5V24.5ZM9.50002 23C9.20334 23 8.91333 23.088 8.66666 23.2528C8.41999 23.4176 8.22773 23.6519 8.1142 23.926C8.00067 24.2001 7.97096 24.5017 8.02884 24.7926C8.08672 25.0836 8.22958 25.3509 8.43936 25.5607C8.64914 25.7704 8.91641 25.9133 9.20738 25.9712C9.49835 26.0291 9.79995 25.9993 10.074 25.8858C10.3481 25.7723 10.5824 25.58 10.7472 25.3334C10.912 25.0867 11 24.7967 11 24.5C10.9996 24.1023 10.8414 23.721 10.5602 23.4398C10.279 23.1586 9.8977 23.0005 9.50002 23V23ZM14.5 25C14.2033 25 13.9133 25.088 13.6667 25.2528C13.42 25.4176 13.2277 25.6519 13.1142 25.926C13.0007 26.2001 12.971 26.5017 13.0288 26.7926C13.0867 27.0836 13.2296 27.3509 13.4394 27.5607C13.6491 27.7704 13.9164 27.9133 14.2074 27.9712C14.4984 28.0291 14.8 27.9993 15.074 27.8858C15.3481 27.7723 15.5824 27.58 15.7472 27.3334C15.912 27.0867 16 26.7967 16 26.5C15.9996 26.1023 15.8414 25.721 15.5602 25.4398C15.279 25.1586 14.8977 25.0005 14.5 25V25ZM8.50002 28C8.20334 28 7.91333 28.088 7.66666 28.2528C7.41999 28.4176 7.22773 28.6519 7.1142 28.926C7.00067 29.2001 6.97096 29.5017 7.02884 29.7926C7.08672 30.0836 7.22958 30.3509 7.43936 30.5607C7.64914 30.7704 7.91641 30.9133 8.20738 30.9712C8.49835 31.0291 8.79995 30.9993 9.07404 30.8858C9.34813 30.7723 9.5824 30.58 9.74722 30.3334C9.91204 30.0867 10 29.7967 10 29.5C9.99956 29.1023 9.84138 28.721 9.56017 28.4398C9.27897 28.1586 8.8977 28.0005 8.50002 28V28ZM19.5 28C19.2033 28 18.9133 28.088 18.6667 28.2528C18.42 28.4176 18.2277 28.6519 18.1142 28.926C18.0007 29.2001 17.971 29.5017 18.0288 29.7926C18.0867 30.0836 18.2296 30.3509 18.4394 30.5607C18.6491 30.7704 18.9164 30.9133 19.2074 30.9712C19.4984 31.0291 19.8 30.9993 20.074 30.8858C20.3481 30.7723 20.5824 30.58 20.7472 30.3334C20.912 30.0867 21 29.7967 21 29.5C20.9996 29.1023 20.8414 28.721 20.5602 28.4398C20.279 28.1586 19.8977 28.0005 19.5 28V28ZM19.5 2C17.5791 2.00218 15.7039 2.58562 14.1208 3.67361C12.5377 4.7616 11.321 6.30319 10.6305 8.0957L10.6297 8.0979C10.2123 9.18354 9.99881 10.3369 10 11.5C10 11.7652 9.89466 12.0196 9.70712 12.2071C9.51959 12.3946 9.26523 12.5 9.00002 12.5C8.7348 12.5 8.48045 12.3946 8.29291 12.2071C8.10537 12.0196 8.00002 11.7652 8.00002 11.5C7.99908 10.3381 8.17482 9.18284 8.52122 8.07379C6.90095 8.32063 5.43374 9.17043 4.41337 10.453C3.393 11.7356 2.89482 13.3563 3.01857 14.9906C3.14232 16.6249 3.87887 18.1521 5.08073 19.2665C6.2826 20.3808 7.86105 21 9.50002 21H19.5C22.0196 21 24.4359 19.9991 26.2175 18.2175C27.9991 16.4359 29 14.0196 29 11.5C29 8.98044 27.9991 6.56408 26.2175 4.78249C24.4359 3.00089 22.0196 2 19.5 2V2Z"/>
</svg>
