<svg   viewBox="0 0 32 32" fill="none" xmlns="http://www.w3.org/2000/svg">
<path d="M19.5038 8.99998C18.649 8.99948 17.7981 9.11463 16.9743 9.3423C16.6488 8.80928 16.2531 8.32246 15.7979 7.89491L16.9834 6.20188C17.1349 5.98461 17.194 5.71612 17.1477 5.45534C17.1014 5.19456 16.9536 4.96278 16.7367 4.81086C16.5197 4.65894 16.2514 4.59929 15.9905 4.645C15.7296 4.6907 15.4975 4.83804 15.3451 5.05467L14.1596 6.74769C13.115 6.22048 11.9546 5.96421 10.7851 6.00242L10.4256 3.96323C10.4029 3.83379 10.3549 3.71009 10.2844 3.59919C10.2139 3.48829 10.1222 3.39238 10.0146 3.31694C9.90705 3.2415 9.78563 3.18801 9.65734 3.15952C9.52905 3.13103 9.39641 3.12811 9.26699 3.15092C9.13757 3.17374 9.01392 3.22183 8.9031 3.29246C8.79228 3.3631 8.69648 3.45488 8.62115 3.56256C8.54583 3.67025 8.49247 3.79172 8.46413 3.92004C8.43578 4.04836 8.43301 4.18101 8.45597 4.3104L8.81531 6.34837C7.70259 6.71082 6.69988 7.34936 5.90082 8.20435L4.20554 7.01731C3.98827 6.8652 3.71947 6.80562 3.45828 6.8517C3.19709 6.89777 2.96489 7.04571 2.81278 7.26298C2.66066 7.48025 2.60109 7.74904 2.64716 8.01024C2.69323 8.27143 2.84117 8.50363 3.05844 8.65574L4.75342 9.84257C4.22295 10.8857 3.96549 12.0462 4.00508 13.2157L1.96696 13.5751C1.72073 13.6185 1.4997 13.7526 1.34744 13.9509C1.19518 14.1493 1.12274 14.3974 1.14438 14.6465C1.16603 14.8956 1.28019 15.1276 1.46438 15.2967C1.64857 15.4657 1.88941 15.5597 2.13944 15.56C2.19804 15.56 2.25653 15.5549 2.31425 15.5448L4.3531 15.1853C4.53235 15.7312 4.77819 16.253 5.08506 16.7387C4.12682 17.6265 3.45847 18.7825 3.16725 20.0559C2.87603 21.3292 2.97548 22.6608 3.45262 23.8768C3.92975 25.0928 4.7624 26.1367 5.84187 26.8722C6.92135 27.6078 8.19751 28.0008 9.50376 28H19.5038C22.0233 28 24.4397 26.9991 26.2213 25.2175C28.0029 23.4359 29.0038 21.0195 29.0038 18.5C29.0038 15.9804 28.0029 13.5641 26.2213 11.7825C24.4397 10.0009 22.0233 8.99998 19.5038 8.99998V8.99998ZM6.08246 13.8868C6.08136 13.8796 6.08106 13.8726 6.07981 13.8655C6.07843 13.8576 6.07611 13.8503 6.07456 13.8425C5.84965 12.5511 6.14448 11.2231 6.89475 10.1482C6.89917 10.1422 6.9043 10.137 6.9086 10.1308C6.91342 10.1239 6.91724 10.1167 6.92185 10.1097C7.6749 9.03983 8.81973 8.31035 10.1076 8.07978C10.1169 8.0784 10.1261 8.07776 10.1354 8.07615C10.1441 8.07463 10.1524 8.07203 10.161 8.07029C11.4325 7.85149 12.7393 8.13318 13.8077 8.85636C13.8279 8.87297 13.8481 8.88951 13.8699 8.90476C13.8857 8.91587 13.9028 8.92372 13.919 8.93376C14.3669 9.25484 14.7582 9.64812 15.0771 10.0975C13.0418 11.1745 11.4638 12.9501 10.6334 15.0979C10.2604 15.0326 9.88243 14.9998 9.50376 15C8.54969 14.9992 7.6073 15.2098 6.74431 15.6166C6.41799 15.0862 6.19353 14.4995 6.08246 13.8868V13.8868Z" fill="black"/>
</svg>
