<svg viewBox="0 0 32 32" xmlns="http://www.w3.org/2000/svg">
<path d="M21 28C21 28.2652 20.8947 28.5196 20.7071 28.7071C20.5196 28.8946 20.2652 29 20 29H13C12.7348 29 12.4804 28.8946 12.2929 28.7071C12.1054 28.5196 12 28.2652 12 28C12 27.7348 12.1054 27.4804 12.2929 27.2929C12.4804 27.1054 12.7348 27 13 27H20C20.2652 27 20.5196 27.1054 20.7071 27.2929C20.8947 27.4804 21 27.7348 21 28V28ZM16 24C16 23.7348 15.8947 23.4804 15.7071 23.2929C15.5196 23.1054 15.2652 23 15 23H9.00002C8.7348 23 8.48045 23.1054 8.29291 23.2929C8.10538 23.4804 8.00002 23.7348 8.00002 24C8.00002 24.2652 8.10538 24.5196 8.29291 24.7071C8.48045 24.8946 8.7348 25 9.00002 25H15C15.2652 25 15.5196 24.8946 15.7071 24.7071C15.8947 24.5196 16 24.2652 16 24ZM23 23H20C19.7348 23 19.4804 23.1054 19.2929 23.2929C19.1054 23.4804 19 23.7348 19 24C19 24.2652 19.1054 24.5196 19.2929 24.7071C19.4804 24.8946 19.7348 25 20 25H23C23.2652 25 23.5196 24.8946 23.7071 24.7071C23.8947 24.5196 24 24.2652 24 24C24 23.7348 23.8947 23.4804 23.7071 23.2929C23.5196 23.1054 23.2652 23 23 23ZM19.5 2C17.5787 2.00219 15.7031 2.58587 14.1198 3.67428C12.5366 4.76269 11.3198 6.30485 10.6297 8.0979L10.629 8.09778C10.2133 9.18393 10.0002 10.337 10 11.5C10 11.7652 9.89466 12.0196 9.70713 12.2071C9.51959 12.3946 9.26524 12.5 9.00002 12.5C8.7348 12.5 8.48045 12.3946 8.29291 12.2071C8.10538 12.0196 8.00002 11.7652 8.00002 11.5C8.0004 10.3381 8.17641 9.18295 8.52207 8.07367C6.90169 8.32031 5.43431 9.16998 4.41377 10.4525C3.39323 11.7351 2.89489 13.3558 3.01853 14.9902C3.14218 16.6246 3.8787 18.1519 5.08058 19.2663C6.28246 20.3807 7.86098 21 9.50002 21H19.5C22.0196 21 24.4359 19.9991 26.2175 18.2175C27.9991 16.4359 29 14.0196 29 11.5C29 8.98044 27.9991 6.56408 26.2175 4.78249C24.4359 3.00089 22.0196 2 19.5 2V2Z"/>
</svg>
