<svg   viewBox="0 0 32 32" fill="none" xmlns="http://www.w3.org/2000/svg">
<path d="M16.8211 21L14.8524 24H19.2813C19.4617 24 19.6387 24.0488 19.7936 24.1412C19.9485 24.2336 20.0755 24.3662 20.1612 24.525C20.2469 24.6837 20.2881 24.8626 20.2803 25.0429C20.2726 25.2231 20.2163 25.3978 20.1173 25.5487L16.8361 30.5487C16.6906 30.7704 16.4629 30.9252 16.2033 30.9791C15.9436 31.0331 15.6731 30.9816 15.4514 30.8361C15.2296 30.6906 15.0748 30.4629 15.0209 30.2032C14.967 29.9436 15.0184 29.6731 15.164 29.4514L17.4289 26H13C12.8196 26 12.6426 25.9512 12.4877 25.8588C12.3328 25.7664 12.2058 25.6338 12.1201 25.4751C12.0344 25.3163 11.9932 25.1374 12.0009 24.9572C12.0087 24.777 12.065 24.6022 12.164 24.4514L14.4289 21H9.50002C7.86105 21 6.2826 20.3808 5.08073 19.2665C3.87887 18.1521 3.14232 16.6249 3.01857 14.9906C2.89482 13.3564 3.393 11.7356 4.41337 10.453C5.43374 9.17044 6.90095 8.32064 8.52122 8.07381C8.17482 9.18285 7.99908 10.3381 8.00002 11.5C8.00002 11.7652 8.10537 12.0196 8.29291 12.2071C8.48045 12.3947 8.7348 12.5 9.00002 12.5C9.26523 12.5 9.51959 12.3947 9.70712 12.2071C9.89466 12.0196 10 11.7652 10 11.5C9.99881 10.3369 10.2123 9.18355 10.6297 8.09791L10.6305 8.09572C11.2508 6.47972 12.3007 5.06389 13.667 4.00114C15.0333 2.93839 16.6639 2.26911 18.3829 2.06559C20.1018 1.86208 21.8437 2.13206 23.4203 2.84637C24.997 3.56068 26.3486 4.69218 27.329 6.11866C28.3095 7.54514 28.8816 9.21238 28.9835 10.9403C29.0855 12.6682 28.7134 14.3912 27.9075 15.9231C27.1016 17.4549 25.8925 18.7375 24.4107 19.6323C22.929 20.527 21.231 21 19.5 21H16.8211Z" fill="black"/>
</svg>
