<svg viewBox="0 0 32 32" xmlns="http://www.w3.org/2000/svg">
<path d="M13.0033 17.5C13.0033 17.7967 12.9153 18.0867 12.7505 18.3333C12.5857 18.58 12.3514 18.7723 12.0773 18.8858C11.8032 18.9993 11.5016 19.029 11.2106 18.9712C10.9197 18.9133 10.6524 18.7704 10.4426 18.5606C10.2328 18.3509 10.09 18.0836 10.0321 17.7926C9.97423 17.5016 10.0039 17.2 10.1175 16.926C10.231 16.6519 10.4233 16.4176 10.6699 16.2528C10.9166 16.088 11.2066 16 11.5033 16C11.9011 16 12.2826 16.158 12.5639 16.4393C12.8452 16.7206 13.0033 17.1022 13.0033 17.5ZM20.5033 16C20.2066 16 19.9166 16.088 19.6699 16.2528C19.4233 16.4176 19.231 16.6519 19.1175 16.926C19.0039 17.2 18.9742 17.5016 19.0321 17.7926C19.09 18.0836 19.2328 18.3509 19.4426 18.5606C19.6524 18.7704 19.9197 18.9133 20.2106 18.9712C20.5016 19.029 20.8032 18.9993 21.0773 18.8858C21.3514 18.7723 21.5857 18.58 21.7505 18.3333C21.9153 18.0867 22.0033 17.7967 22.0033 17.5C22.0033 17.1022 21.8452 16.7206 21.5639 16.4393C21.2826 16.158 20.9011 16 20.5033 16ZM29.0941 17.9949C28.8303 18.1156 28.5438 18.1786 28.2536 18.1794C27.7963 18.1789 27.3538 18.0176 27.0033 17.7239V23C27.0018 24.3256 26.4745 25.5965 25.5372 26.5338C24.5998 27.4712 23.3289 27.9985 22.0033 28H10.0033C8.67766 27.9985 7.40677 27.4712 6.46941 26.5338C5.53206 25.5965 5.00479 24.3256 5.00328 23V17.7239C4.65278 18.0176 4.21022 18.1789 3.75292 18.1794C3.4628 18.1786 3.17622 18.1157 2.91246 17.9948C2.50143 17.8142 2.16437 17.4986 1.95707 17.1004C1.74977 16.7021 1.68463 16.245 1.77245 15.8047L3.8247 4.85898C3.87496 4.59096 3.9795 4.33605 4.13189 4.10992C4.28428 3.88378 4.4813 3.6912 4.71084 3.54399C4.94039 3.39679 5.19761 3.29808 5.4667 3.25394C5.7358 3.20979 6.01107 3.22113 6.27562 3.28727L13.1265 4.99998H18.8801L25.7309 3.28727C25.9955 3.22113 26.2707 3.20978 26.5398 3.25391C26.8089 3.29805 27.0661 3.39675 27.2956 3.54393C27.5252 3.69112 27.7222 3.88368 27.8746 4.1098C28.0269 4.33592 28.1315 4.59081 28.1817 4.8588L30.2341 15.8047C30.3219 16.245 30.2568 16.7021 30.0495 17.1004C29.8422 17.4987 29.5051 17.8142 29.0941 17.9949V17.9949ZM25.0033 23V15.255L18.5172 6.99998H13.4894L7.00328 15.255V23C7.00419 23.7953 7.32056 24.5579 7.88297 25.1203C8.44538 25.6827 9.20791 25.9991 10.0033 26H15.0033V24.4142L13.2961 22.7071C13.1086 22.5195 13.0032 22.2652 13.0033 21.9999C13.0033 21.7347 13.1086 21.4804 13.2962 21.2928C13.4837 21.1053 13.7381 20.9999 14.0033 21C14.2685 21 14.5229 21.1053 14.7104 21.2929L16.0033 22.5858L17.2961 21.2929C17.4837 21.1053 17.738 21 18.0032 21C18.2685 20.9999 18.5228 21.1053 18.7104 21.2928C18.8979 21.4804 19.0033 21.7347 19.0033 21.9999C19.0033 22.2652 18.898 22.5195 18.7104 22.7071L17.0033 24.4142V26H22.0033C22.7987 25.9991 23.5612 25.6827 24.1236 25.1203C24.686 24.5579 25.0024 23.7953 25.0033 23Z"/>
</svg>
