<svg viewBox="0 0 32 32" xmlns="http://www.w3.org/2000/svg">
<path d="M21.7546 5.96884C20.2103 4.18574 18.4726 2.57986 16.5735 1.18082C16.4054 1.06313 16.2052 1 16 1C15.7948 1 15.5946 1.06313 15.4265 1.18082C13.5274 2.57986 11.7897 4.18574 10.2454 5.96884C6.81384 9.91513 5 14.0755 5 18C5 20.9174 6.15893 23.7153 8.22183 25.7782C10.2847 27.8411 13.0826 29 16 29C18.9174 29 21.7153 27.8411 23.7782 25.7782C25.8411 23.7153 27 20.9174 27 18C27 14.0755 25.1862 9.91513 21.7546 5.96884ZM22.9016 19.1746C22.6587 20.6028 21.9775 21.92 20.9525 22.9438C19.9274 23.9675 18.6093 24.647 17.1808 24.8882C16.9193 24.9322 16.651 24.8705 16.4349 24.7166C16.2189 24.5628 16.0728 24.3294 16.0288 24.0679C15.9848 23.8064 16.0465 23.5381 16.2003 23.322C16.3542 23.106 16.5875 22.9599 16.8491 22.9159C17.868 22.7439 18.8082 22.2592 19.5394 21.5289C20.2705 20.7987 20.7564 19.8591 20.9296 18.8404C20.9739 18.5789 21.1203 18.3457 21.3366 18.1921C21.5528 18.0386 21.8212 17.9772 22.0827 18.0215C22.3442 18.0658 22.5774 18.2122 22.7309 18.4285C22.8845 18.6447 22.9459 18.9131 22.9016 19.1746V19.1746Z"/>
</svg>
