<svg viewBox="0 0 32 32" xmlns="http://www.w3.org/2000/svg">
<path d="M27.4844 17.5C27.4844 20.55 26.2728 23.475 24.1161 25.6317C21.9594 27.7884 19.0344 29 15.9844 29C12.9344 29 10.0093 27.7884 7.85265 25.6317C5.69598 23.475 4.48438 20.55 4.48438 17.5C4.48438 14.6144 5.71954 11.2892 8.15558 7.61692C8.22827 7.50732 8.32186 7.41313 8.43101 7.33975C8.54015 7.26638 8.6627 7.21525 8.79163 7.18931C8.92057 7.16336 9.05335 7.16311 9.18238 7.18856C9.31141 7.21401 9.43415 7.26467 9.54358 7.33763L13.5781 10.0273L17.4344 1.92906C17.5032 1.78458 17.6056 1.65872 17.7331 1.56205C17.8606 1.46538 18.0095 1.40072 18.1671 1.37351C18.3248 1.3463 18.4867 1.35733 18.6393 1.40568C18.7918 1.45403 18.9305 1.53827 19.0437 1.65135C20.8867 3.49107 22.991 5.72288 24.6254 8.32554C26.5492 11.3893 27.4844 14.3902 27.4844 17.5Z"/>
</svg>
