<svg   viewBox="0 0 32 32" fill="none" xmlns="http://www.w3.org/2000/svg">
<path d="M20.9999 9.49998C20.9999 9.79666 20.912 10.0867 20.7472 10.3333C20.5823 10.58 20.3481 10.7723 20.074 10.8858C19.7999 10.9993 19.4983 11.029 19.2073 10.9712C18.9163 10.9133 18.6491 10.7704 18.4393 10.5606C18.2295 10.3509 18.0866 10.0836 18.0288 9.79262C17.9709 9.50165 18.0006 9.20005 18.1141 8.92596C18.2277 8.65187 18.4199 8.4176 18.6666 8.25278C18.9133 8.08796 19.2033 7.99998 19.4999 7.99998C19.8978 7.99998 20.2793 8.15802 20.5606 8.43932C20.8419 8.72063 20.9999 9.10216 20.9999 9.49998ZM25.7134 19.9366C23.16 23.1805 19.0611 24.9504 13.5237 25.2023L10.9217 31.3877C10.8454 31.5691 10.7173 31.724 10.5534 31.8329C10.3895 31.9418 10.1971 31.9999 10.0003 32C9.98029 32 9.96015 31.9994 9.94001 31.9982C9.73332 31.9858 9.53558 31.9095 9.37408 31.7799C9.21258 31.6503 9.09529 31.4738 9.0384 31.2747L7.19099 24.8085L0.724678 22.9568C0.525664 22.8998 0.349245 22.7824 0.219762 22.6209C0.0902791 22.4594 0.0141149 22.2616 0.00177792 22.055C-0.0105591 21.8483 0.0415393 21.643 0.150885 21.4672C0.26023 21.2914 0.421433 21.1539 0.612251 21.0736L6.79487 18.4734C7.04804 12.9372 8.81867 8.83915 12.0628 6.28612C17.2026 2.24138 24.4848 3.41783 26.5942 3.87487C26.9692 3.95662 27.3128 4.14434 27.5841 4.4157C27.8555 4.68705 28.0433 5.03064 28.1251 5.40559C28.5821 7.51527 29.7587 14.7976 25.7134 19.9366ZM26.1705 5.82912C24.277 5.4193 17.7526 4.35329 13.2998 7.85777C12.8308 8.22738 12.3965 8.63892 12.0021 9.08729C12.0263 10.3974 12.5633 11.6458 13.4977 12.5643C14.4322 13.4829 15.6896 13.9983 16.9999 14C17.2652 14 17.5195 14.1054 17.707 14.2929C17.8946 14.4804 17.9999 14.7348 17.9999 15C18.0016 16.3101 18.5169 17.5673 19.4351 18.5017C20.3534 19.4361 21.6014 19.9732 22.9113 19.9977C23.3601 19.6033 23.772 19.1688 24.1419 18.6995C27.6467 14.2472 26.5806 7.72276 26.1705 5.82912H26.1705Z" fill="black"/>
</svg>
