<svg   viewBox="0 0 32 32" fill="none" xmlns="http://www.w3.org/2000/svg">
<path d="M21 9.50001C21 9.79668 20.912 10.0867 20.7472 10.3334C20.5824 10.58 20.3481 10.7723 20.074 10.8858C19.7999 10.9994 19.4983 11.0291 19.2074 10.9712C18.9164 10.9133 18.6491 10.7704 18.4393 10.5607C18.2296 10.3509 18.0867 10.0836 18.0288 9.79265C17.971 9.50167 18.0007 9.20007 18.1142 8.92598C18.2277 8.6519 18.42 8.41763 18.6667 8.25281C18.9133 8.08798 19.2033 8.00001 19.5 8.00001C19.8978 8.00001 20.2794 8.15805 20.5607 8.43935C20.842 8.72065 21 9.10219 21 9.50001ZM24.7708 20.9973C21.4618 24.2985 16.2191 25.673 9.13831 25.1085C9.33887 26.5879 9.61841 28.1472 9.97694 29.7863C10.005 29.9146 10.0075 30.0472 9.98435 30.1764C9.96118 30.3057 9.91277 30.4291 9.8419 30.5397C9.77103 30.6503 9.67907 30.7458 9.57128 30.8208C9.46349 30.8958 9.34198 30.9489 9.21369 30.9769C9.0854 31.005 8.95284 31.0075 8.82357 30.9843C8.69431 30.9612 8.57087 30.9128 8.46031 30.8419C8.34975 30.771 8.25424 30.6791 8.17922 30.5713C8.1042 30.4635 8.05114 30.342 8.02308 30.2137C7.61525 28.3489 7.30661 26.5772 7.09718 24.8985C5.42005 24.6888 3.64971 24.3801 1.78614 23.9723C1.65786 23.9442 1.53636 23.8911 1.42859 23.8161C1.32082 23.7411 1.22888 23.6455 1.15803 23.535C1.01494 23.3116 0.96642 23.0406 1.02314 22.7816C1.07986 22.5225 1.23718 22.2965 1.46049 22.1535C1.68379 22.0104 1.95479 21.9618 2.21388 22.0186C3.85121 22.377 5.40911 22.6565 6.88758 22.8572C6.32496 15.7778 7.70033 10.5379 11.0015 7.22956C16.1259 2.09401 24.23 3.36293 26.5916 3.87428C26.9674 3.95616 27.3117 4.14428 27.5837 4.41625C27.8556 4.68822 28.0438 5.0326 28.1256 5.4084C28.637 7.77009 29.906 15.8738 24.7708 20.9973ZM26.1709 5.83161C24.2957 5.42377 18.3929 4.47511 14.0065 7.35071C14.095 10.1452 15.2447 12.801 17.2218 14.778C19.1988 16.755 21.8546 17.9046 24.6491 17.9931C27.5251 13.6072 26.5765 7.70466 26.1709 5.83161L26.1709 5.83161Z" fill="black"/>
</svg>
