<svg viewBox="0 0 32 32" xmlns="http://www.w3.org/2000/svg">
<path d="M31.308 15.1611C31.1761 14.9308 30.9992 14.7293 30.7878 14.5688C30.5764 14.4082 30.3348 14.2919 30.0775 14.2267C28.9353 13.9447 27.7523 13.8663 26.5829 13.9951C26.8907 12.2934 26.7821 10.5426 26.2665 8.89196C26.1147 8.42128 25.7935 8.02376 25.3652 7.77649C24.9369 7.52922 24.432 7.44983 23.9485 7.55371C22.7894 7.81004 21.6833 8.26442 20.6787 8.89685C19.8766 7.20862 18.6836 5.73591 17.1987 4.60083C16.8529 4.34002 16.4315 4.19895 15.9984 4.19897C15.5653 4.199 15.144 4.34011 14.7982 4.60095C13.3133 5.73598 12.1204 7.20865 11.3184 8.89684C10.3139 8.26445 9.20779 7.81007 8.04882 7.5537C7.56526 7.44989 7.06038 7.52933 6.63206 7.77661C6.20373 8.02389 5.88248 8.4214 5.73059 8.89208C5.21496 10.5426 5.1064 12.2934 5.41418 13.995C4.24475 13.8661 3.06174 13.9445 1.91956 14.2267C1.66262 14.2928 1.42145 14.4095 1.21017 14.5699C0.998887 14.7304 0.821736 14.9314 0.689089 15.1611C0.556442 15.3909 0.470962 15.6448 0.437656 15.908C0.404349 16.1712 0.423885 16.4384 0.495118 16.694C0.937378 18.2756 2.29108 21.2821 6.38733 23.6472C10.4581 25.9974 14.0556 26 15.9918 26C15.9938 26 15.9956 26.0002 15.9976 26.0002L15.9985 26.0002L15.9995 26.0002C16.0015 26.0002 16.0033 26 16.0052 26C17.9415 26 21.5389 25.9974 25.6097 23.6471C29.706 21.2821 31.0597 18.2756 31.5019 16.694C31.5742 16.4385 31.5942 16.1712 31.5609 15.9078C31.5276 15.6445 31.4415 15.3905 31.308 15.1611V15.1611ZM16.0023 6.20348C17.2039 7.10058 19.9985 9.75353 19.9985 15C19.9985 20.2465 17.2039 22.8994 16.0025 23.7964C16.002 23.7969 16.0014 23.7973 16.0007 23.7976C16 23.7979 15.9993 23.798 15.9985 23.798C15.9978 23.798 15.9971 23.7979 15.9964 23.7976C15.9957 23.7973 15.9951 23.7969 15.9946 23.7964C14.7929 22.899 11.9985 20.2461 11.9985 15C11.9985 9.75353 14.7932 7.10058 16.0023 6.20348ZM2.41626 16.1639C3.57847 15.8852 4.78717 15.8605 5.95977 16.0917C6.27999 16.999 6.68464 17.8742 7.1684 18.7058C8.24496 20.5544 9.65521 22.1872 11.3275 23.5212C9.94542 23.1729 8.61907 22.6323 7.38733 21.9152C3.9057 19.9049 2.78149 17.4436 2.41626 16.1639ZM24.6097 21.915C23.378 22.6322 22.0517 23.1729 20.6696 23.5212C22.3419 22.1871 23.7521 20.5544 24.8287 18.7058C25.3124 17.8742 25.7171 16.999 26.0373 16.0917C27.2081 15.8624 28.4142 15.8841 29.5759 16.1554C29.2156 17.4436 28.0914 19.9049 24.6097 21.915V21.915Z"/>
</svg>
