<svg   viewBox="0 0 32 32" fill="none" xmlns="http://www.w3.org/2000/svg">
<path d="M26.0476 16.6029C25.5949 16.3516 25.1166 16.1494 24.6209 16C25.1166 15.8505 25.5949 15.6484 26.0476 15.3971C26.56 15.1019 27.0091 14.7086 27.3693 14.2398C27.7296 13.7709 27.9939 13.2357 28.1472 12.6646C28.3005 12.0935 28.3397 11.4978 28.2627 10.9116C28.1856 10.3254 27.9938 9.76006 27.6981 9.248C27.4025 8.73593 27.0088 8.28716 26.5396 7.92732C26.0705 7.56747 25.535 7.30362 24.9638 7.15084C24.3926 6.99806 23.7969 6.95935 23.2107 7.03692C22.6245 7.11449 22.0594 7.30681 21.5476 7.6029C21.1036 7.86926 20.6894 8.18241 20.3122 8.53699C20.4306 8.03295 20.4947 7.51769 20.5034 7C20.5034 5.80653 20.0293 4.66193 19.1854 3.81802C18.3415 2.97411 17.1969 2.5 16.0034 2.5C14.8099 2.5 13.6653 2.97411 12.8214 3.81802C11.9775 4.66193 11.5034 5.80653 11.5034 7C11.5121 7.51767 11.5762 8.03291 11.6946 8.53693C11.3173 8.18233 10.9031 7.86917 10.4591 7.60278C9.42559 7.00671 8.19763 6.84549 7.04523 7.15457C5.89284 7.46365 4.91036 8.21772 4.31381 9.251C3.71726 10.2843 3.55548 11.5122 3.86403 12.6647C4.17258 13.8172 4.9262 14.8001 5.95921 15.3971C6.41188 15.6484 6.89017 15.8506 7.38591 16C6.89016 16.1495 6.41185 16.3516 5.95915 16.6029C4.92669 17.2002 4.17361 18.183 3.86541 19.3353C3.55721 20.4876 3.71909 21.7151 4.3155 22.7481C4.9119 23.781 5.89402 24.535 7.04604 24.8442C8.19805 25.1534 9.4257 24.9926 10.4592 24.3971C10.9032 24.1307 11.3174 23.8176 11.6946 23.463C11.5762 23.967 11.5121 24.4823 11.5034 25C11.5034 26.1935 11.9775 27.3381 12.8214 28.182C13.6653 29.0259 14.8099 29.5 16.0034 29.5C17.1969 29.5 18.3415 29.0259 19.1854 28.182C20.0293 27.3381 20.5034 26.1935 20.5034 25C20.4947 24.4823 20.4306 23.9671 20.3122 23.4631C20.6895 23.8177 21.1037 24.1308 21.5476 24.3972C22.5812 24.9933 23.8092 25.1545 24.9616 24.8454C26.114 24.5364 27.0964 23.7823 27.693 22.749C28.2895 21.7157 28.4513 20.4878 28.1428 19.3353C27.8342 18.1828 27.0806 17.1999 26.0476 16.6029V16.6029ZM16.0034 19C15.4101 19 14.83 18.8241 14.3367 18.4944C13.8433 18.1648 13.4588 17.6962 13.2318 17.1481C13.0047 16.5999 12.9453 15.9967 13.061 15.4147C13.1768 14.8328 13.4625 14.2982 13.8821 13.8787C14.3016 13.4591 14.8362 13.1734 15.4181 13.0576C16.0001 12.9419 16.6033 13.0013 17.1514 13.2284C17.6996 13.4554 18.1682 13.8399 18.4978 14.3333C18.8275 14.8266 19.0034 15.4067 19.0034 16C19.0025 16.7954 18.6862 17.5579 18.1237 18.1203C17.5613 18.6828 16.7988 18.9991 16.0034 19V19Z" fill="black"/>
</svg>
