<svg   viewBox="0 0 32 32" fill="none" xmlns="http://www.w3.org/2000/svg">
<path d="M30 10H28V8C28 7.73478 27.8946 7.48043 27.7071 7.29289C27.5196 7.10536 27.2652 7 27 7C26.7348 7 26.4804 7.10536 26.2929 7.29289C26.1054 7.48043 26 7.73478 26 8V10H24C23.7348 10 23.4804 10.1054 23.2929 10.2929C23.1054 10.4804 23 10.7348 23 11C23 11.2652 23.1054 11.5196 23.2929 11.7071C23.4804 11.8946 23.7348 12 24 12H26V14C26 14.2652 26.1054 14.5196 26.2929 14.7071C26.4804 14.8946 26.7348 15 27 15C27.2652 15 27.5196 14.8946 27.7071 14.7071C27.8946 14.5196 28 14.2652 28 14V12H30C30.2652 12 30.5196 11.8946 30.7071 11.7071C30.8946 11.5196 31 11.2652 31 11C31 10.7348 30.8946 10.4804 30.7071 10.2929C30.5196 10.1054 30.2652 10 30 10Z" fill="black"/>
<path d="M19 6H20V7C20 7.26522 20.1054 7.51957 20.2929 7.70711C20.4804 7.89464 20.7348 8 21 8C21.2652 8 21.5196 7.89464 21.7071 7.70711C21.8946 7.51957 22 7.26522 22 7V6H23C23.2652 6 23.5196 5.89464 23.7071 5.70711C23.8946 5.51957 24 5.26522 24 5C24 4.73478 23.8946 4.48043 23.7071 4.29289C23.5196 4.10536 23.2652 4 23 4H22V3C22 2.73478 21.8946 2.48043 21.7071 2.29289C21.5196 2.10536 21.2652 2 21 2C20.7348 2 20.4804 2.10536 20.2929 2.29289C20.1054 2.48043 20 2.73478 20 3V4H19C18.7348 4 18.4804 4.10536 18.2929 4.29289C18.1054 4.48043 18 4.73478 18 5C18 5.26522 18.1054 5.51957 18.2929 5.70711C18.4804 5.89464 18.7348 6 19 6Z" fill="black"/>
<path d="M27.0571 18.0812C26.9657 18.0834 26.875 18.0983 26.7876 18.1252C24.9979 18.6173 23.1097 18.6264 21.3154 18.1515C19.521 17.6766 17.8846 16.7348 16.5726 15.4218C15.2606 14.1088 14.3199 12.4716 13.8464 10.6769C13.3729 8.88217 13.3834 6.99403 13.8768 5.20469C13.9287 5.0317 13.9328 4.84789 13.8886 4.67278C13.8444 4.49766 13.7536 4.33777 13.6259 4.21009C13.4982 4.0824 13.3383 3.99168 13.1631 3.94755C12.988 3.90342 12.8042 3.90754 12.6312 3.95945C10.5291 4.54798 8.61773 5.67668 7.08726 7.23325C5.55678 8.78983 4.46056 10.72 3.90765 12.8318C3.35475 14.9436 3.36443 17.1633 3.93575 19.2702C4.50706 21.377 5.62008 23.2976 7.16409 24.8407C8.70809 26.3839 10.6292 27.4959 12.7364 28.066C14.8436 28.6362 17.0633 28.6447 19.1748 28.0906C21.2863 27.5365 23.2159 26.4393 24.7716 24.9079C26.3273 23.3766 27.455 21.4646 28.0424 19.3622C28.0867 19.211 28.0946 19.0515 28.0656 18.8967C28.0366 18.7419 27.9714 18.5961 27.8753 18.4712C27.7793 18.3464 27.6551 18.2459 27.5129 18.1782C27.3707 18.1104 27.2145 18.0771 27.0571 18.0812H27.0571Z" fill="black"/>
</svg>
