<svg viewBox="0 0 32 32" xmlns="http://www.w3.org/2000/svg">
<path d="M28.0385 18.7867C27.9998 18.661 27.9367 18.5442 27.8528 18.443C27.7689 18.3417 27.6659 18.258 27.5496 18.1966C27.4334 18.1352 27.3062 18.0973 27.1752 18.0851C27.0443 18.0729 26.9123 18.0866 26.7867 18.1255C24.997 18.6174 23.109 18.6263 21.3147 18.1513C19.5205 17.6763 17.8841 16.7344 16.5723 15.4214C15.2604 14.1085 14.3199 12.4713 13.8464 10.6767C13.3729 8.88202 13.3835 6.99397 13.8769 5.20471C13.9288 5.03171 13.9328 4.84789 13.8886 4.67277C13.8444 4.49764 13.7537 4.33775 13.6259 4.21007C13.4982 4.08238 13.3383 3.99166 13.1631 3.94754C12.988 3.90342 12.8042 3.90754 12.6312 3.95947C10.5291 4.54801 8.61767 5.67672 7.08721 7.23331C5.55674 8.78989 4.46052 10.7201 3.90763 12.8319C3.35474 14.9437 3.36444 17.1634 3.93577 19.2703C4.5071 21.3771 5.62014 23.2977 7.16416 24.8408C8.70817 26.384 10.6293 27.4959 12.7365 28.0661C14.8437 28.6362 17.0635 28.6447 19.1749 28.0906C21.2864 27.5365 23.216 26.4392 24.7717 24.9079C26.3274 23.3765 27.4551 21.4645 28.0424 19.3621C28.0975 19.174 28.0961 18.9739 28.0385 18.7867V18.7867Z"/>
</svg>
