<svg   viewBox="0 0 32 32" fill="none" xmlns="http://www.w3.org/2000/svg">
<path d="M30 13.5C30 14.1922 29.7947 14.8689 29.4101 15.4445C29.0256 16.0201 28.4789 16.4687 27.8394 16.7336C27.1999 16.9985 26.4961 17.0678 25.8172 16.9327C25.1383 16.7977 24.5146 16.4644 24.0251 15.9749C23.5356 15.4854 23.2023 14.8618 23.0673 14.1828C22.9322 13.5039 23.0015 12.8002 23.2664 12.1606C23.5313 11.5211 23.9799 10.9744 24.5555 10.5899C25.1311 10.2053 25.8078 10 26.5 10C27.4279 10.001 28.3176 10.3701 28.9737 11.0263C29.6299 11.6824 29.999 12.5721 30 13.5V13.5ZM9 13.5C9 12.8078 8.79473 12.1311 8.41015 11.5555C8.02556 10.9799 7.47894 10.5313 6.83939 10.2664C6.19985 10.0015 5.49612 9.9322 4.81719 10.0673C4.13825 10.2023 3.51461 10.5356 3.02513 11.0251C2.53564 11.5146 2.2023 12.1383 2.06725 12.8172C1.9322 13.4961 2.00152 14.1999 2.26642 14.8394C2.53133 15.4789 2.97993 16.0256 3.55551 16.4101C4.13108 16.7947 4.80777 17 5.5 17C6.42794 16.999 7.31757 16.6299 7.97373 15.9737C8.62988 15.3176 8.99896 14.4279 9 13.5V13.5ZM11.5 11C12.1922 11 12.8689 10.7947 13.4445 10.4101C14.0201 10.0256 14.4687 9.47893 14.7336 8.83939C14.9985 8.19985 15.0678 7.49612 14.9328 6.81719C14.7977 6.13825 14.4644 5.51461 13.9749 5.02513C13.4854 4.53564 12.8618 4.2023 12.1828 4.06725C11.5039 3.9322 10.8002 4.00152 10.1606 4.26642C9.52107 4.53133 8.97444 4.97993 8.58986 5.55551C8.20527 6.13108 8 6.80777 8 7.5C8.00104 8.42794 8.37013 9.31757 9.02628 9.97373C9.68243 10.6299 10.5721 10.999 11.5 11V11ZM20.5 11C21.1922 11 21.8689 10.7947 22.4445 10.4101C23.0201 10.0256 23.4687 9.47893 23.7336 8.83939C23.9985 8.19985 24.0678 7.49612 23.9328 6.81719C23.7977 6.13825 23.4644 5.51461 22.9749 5.02513C22.4854 4.53564 21.8618 4.2023 21.1828 4.06725C20.5039 3.9322 19.8002 4.00152 19.1606 4.26642C18.5211 4.53133 17.9744 4.97993 17.5899 5.55551C17.2053 6.13108 17 6.80777 17 7.5C17.001 8.42794 17.3701 9.31757 18.0263 9.97373C18.6824 10.6299 19.5721 10.999 20.5 11V11ZM23.3865 18.6056C22.3627 18.0391 21.6055 17.0894 21.2813 15.9651C20.9489 14.8215 20.2544 13.8167 19.3021 13.1017C18.3498 12.3867 17.1911 12.0001 16.0002 12C14.8093 11.9999 13.6506 12.3864 12.6982 13.1013C11.7458 13.8163 11.0512 14.821 10.7188 15.9645C10.3958 17.0874 9.64058 18.0362 8.61878 18.6027C7.49034 19.2144 6.64032 20.2366 6.24469 21.4577C5.84905 22.6788 5.93809 24.0053 6.49338 25.1625C7.04866 26.3198 8.02766 27.2192 9.22774 27.6746C10.4278 28.1301 11.7571 28.1066 12.9403 27.6091C14.8958 26.801 17.0917 26.7993 19.0485 27.6045C20.2311 28.1055 21.5611 28.1323 22.7629 27.6793C23.9647 27.2263 24.9462 26.3283 25.5039 25.1714C26.0616 24.0144 26.1528 22.6873 25.7586 21.4649C25.3644 20.2426 24.515 19.2187 23.3865 18.6056V18.6056Z" fill="black"/>
</svg>
