<svg viewBox="0 0 32 32" xmlns="http://www.w3.org/2000/svg">
<path d="M27.9058 14.4998C28.118 16.1889 27.9685 17.9038 27.4672 19.5307C26.966 21.1576 26.1244 22.6593 24.9983 23.9361C23.8723 25.2129 22.4876 26.2355 20.9361 26.9362C19.3846 27.6368 17.7018 27.9995 15.9994 28C13.3821 28.0027 10.8365 27.1451 8.75435 25.5594C11.8231 24.7901 15.4346 23.2543 18.9994 21.1962C22.5672 19.1363 25.705 16.7745 27.9058 14.4998ZM30.7218 7.50001C30.0382 6.31611 28.1823 5.19654 23.2439 6.44019C21.4646 5.08971 19.3436 4.26295 17.1197 4.05306C14.8958 3.84318 12.6576 4.25852 10.6571 5.25229C8.65658 6.24605 6.97336 7.77874 5.79707 9.67766C4.62078 11.5766 3.99818 13.7663 3.99941 16C3.99939 16.5012 4.03062 17.0019 4.09291 17.4993C0.551592 21.1511 0.593767 23.3167 1.27699 24.5C1.73866 25.2997 2.76137 26.0985 5.00368 26.0985C6.07672 26.0804 7.14456 25.9449 8.18813 25.6945C8.37453 25.6527 8.56362 25.6072 8.75435 25.5594C8.10667 25.0673 7.51023 24.5111 6.97408 23.8994C4.64217 24.3142 3.30959 24.0205 3.00905 23.5C2.82143 23.1751 2.92678 22.5643 3.29799 21.8245C3.66956 21.1246 4.12004 20.4696 4.64064 19.8722C5.1483 21.3539 5.94101 22.7221 6.97408 23.8994C7.22164 23.8554 7.48036 23.8032 7.75026 23.7429C10.7435 23.0714 14.3834 21.5518 17.9994 19.4641C21.6154 17.3765 24.7513 14.984 26.8296 12.7275C27.019 12.5219 27.1952 12.3219 27.3581 12.1277C26.8504 10.6459 26.0577 9.27783 25.0246 8.1005C25.8045 7.94762 26.5994 7.88453 27.3937 7.91248C28.2204 7.96082 28.8021 8.17493 28.9898 8.50001C29.29 9.01997 28.8792 10.3187 27.3581 12.1277C27.6213 12.8976 27.8048 13.6925 27.9058 14.4998C28.0407 14.3604 28.1729 14.2212 28.3007 14.0825C31.4615 10.6506 31.362 8.60865 30.7218 7.50001Z"/>
</svg>
