<svg viewBox="0 0 32 32" xmlns="http://www.w3.org/2000/svg">
<path d="M31 20C30.9982 21.5908 30.3655 23.1158 29.2407 24.2407C28.1158 25.3655 26.5908 25.9982 25 26H19C16.7944 26 15 24.1558 15 21.8889C15 19.6221 16.7944 17.7778 19 17.7778C19.1393 17.7778 19.2784 17.7851 19.4169 17.7998C19.9293 16.5001 20.8792 15.4199 22.1027 14.7455C23.3262 14.0711 24.7466 13.8447 26.1192 14.1054C27.4917 14.3661 28.7302 15.0976 29.6212 16.1736C30.5122 17.2497 30.9999 18.6029 31 20V20ZM14 9.00001C16.8653 8.99381 19.6187 10.1118 21.6685 12.1138C21.8587 12.2987 22.1145 12.4005 22.3797 12.3968C22.6449 12.3931 22.8977 12.2842 23.0826 12.0941C23.2676 11.9039 23.3694 11.6481 23.3657 11.3829C23.362 11.1177 23.2531 10.8648 23.0629 10.6799C21.2307 8.89826 18.9139 7.69616 16.4023 7.22389C13.8906 6.75163 11.2955 7.03016 8.94125 8.02466C6.58701 9.01916 4.57813 10.6855 3.16571 12.8154C1.75329 14.9454 1 17.4443 1 20V22C1 22.2652 1.10536 22.5196 1.29289 22.7071C1.48043 22.8946 1.73478 23 2 23C2.26522 23 2.51957 22.8946 2.70711 22.7071C2.89464 22.5196 3 22.2652 3 22V20C3.00329 17.0836 4.16328 14.2877 6.22546 12.2255C8.28765 10.1633 11.0836 9.0033 14 9.00001V9.00001ZM14 13C15.49 12.9959 16.9419 13.4711 18.1411 14.3556C18.2469 14.4334 18.3669 14.4896 18.4945 14.5209C18.622 14.5523 18.7544 14.5582 18.8842 14.5384C19.014 14.5186 19.1387 14.4734 19.251 14.4054C19.3634 14.3375 19.4612 14.248 19.539 14.1422C19.6168 14.0364 19.673 13.9163 19.7043 13.7888C19.7357 13.6613 19.7417 13.5289 19.7218 13.3991C19.702 13.2692 19.6568 13.1446 19.5889 13.0323C19.5209 12.9199 19.4314 12.822 19.3256 12.7443C17.9845 11.7601 16.3969 11.1668 14.739 11.0303C13.0811 10.8939 11.4178 11.2195 9.93378 11.9712C8.44977 12.7228 7.20309 13.871 6.33215 15.2883C5.46122 16.7056 5.0001 18.3365 5 20V22C5 22.2652 5.10536 22.5196 5.29289 22.7071C5.48043 22.8946 5.73478 23 6 23C6.26522 23 6.51957 22.8946 6.70711 22.7071C6.89464 22.5196 7 22.2652 7 22V20C7.00209 18.1441 7.74026 16.3649 9.05256 15.0526C10.3649 13.7403 12.1441 13.0021 14 13V13ZM15.9006 16.3391C15.931 16.2114 15.9358 16.0789 15.915 15.9492C15.8941 15.8196 15.8479 15.6953 15.779 15.5835C15.7101 15.4717 15.6198 15.3746 15.5134 15.2977C15.4069 15.2208 15.2864 15.1656 15.1586 15.1353C14.424 14.9609 13.6595 14.955 12.9223 15.1181C12.1851 15.2813 11.4944 15.6091 10.9019 16.0771C10.3095 16.5451 9.83059 17.1411 9.50121 17.8205C9.17183 18.4999 9.00048 19.245 9 20V22C9 22.2652 9.10536 22.5196 9.29289 22.7071C9.48043 22.8946 9.73478 23 10 23C10.2652 23 10.5196 22.8946 10.7071 22.7071C10.8946 22.5196 11 22.2652 11 22V20C11.0005 19.5469 11.1036 19.0999 11.3014 18.6922C11.4992 18.2846 11.7867 17.9271 12.1423 17.6463C12.4978 17.3655 12.9123 17.1688 13.3547 17.0709C13.7971 16.9731 14.2559 16.9765 14.6967 17.0811C14.8245 17.1115 14.957 17.1164 15.0867 17.0956C15.2163 17.0747 15.3406 17.0285 15.4525 16.9596C15.5643 16.8907 15.6614 16.8004 15.7383 16.694C15.8152 16.5875 15.8704 16.4669 15.9006 16.3391Z"/>
</svg>
