<svg viewBox="0 0 32 32" xmlns="http://www.w3.org/2000/svg">
<path d="M23 21V23C23 23.2652 22.8946 23.5196 22.7071 23.7071C22.5196 23.8946 22.2652 24 22 24C21.7348 24 21.4804 23.8946 21.2929 23.7071C21.1054 23.5196 21 23.2652 21 23V21C21 19.6739 20.4732 18.4021 19.5355 17.4645C18.5979 16.5268 17.3261 16 16 16C14.6739 16 13.4021 16.5268 12.4645 17.4645C11.5268 18.4021 11 19.6739 11 21V23C11 23.2652 10.8946 23.5196 10.7071 23.7071C10.5196 23.8946 10.2652 24 10 24C9.73478 24 9.48043 23.8946 9.29289 23.7071C9.10536 23.5196 9 23.2652 9 23V21C9 19.1435 9.7375 17.363 11.0503 16.0503C12.363 14.7375 14.1435 14 16 14C17.8565 14 19.637 14.7375 20.9497 16.0503C22.2625 17.363 23 19.1435 23 21V21ZM16 10C13.0836 10.0033 10.2877 11.1633 8.22546 13.2255C6.16328 15.2877 5.00329 18.0836 5 21V23C5 23.2652 5.10536 23.5196 5.29289 23.7071C5.48043 23.8946 5.73478 24 6 24C6.26522 24 6.51957 23.8946 6.70711 23.7071C6.89464 23.5196 7 23.2652 7 23V21C7 18.6131 7.94821 16.3239 9.63604 14.636C11.3239 12.9482 13.6131 12 16 12C18.3869 12 20.6761 12.9482 22.364 14.636C24.0518 16.3239 25 18.6131 25 21V23C25 23.2652 25.1054 23.5196 25.2929 23.7071C25.4804 23.8946 25.7348 24 26 24C26.2652 24 26.5196 23.8946 26.7071 23.7071C26.8946 23.5196 27 23.2652 27 23V21C26.9967 18.0836 25.8367 15.2877 23.7745 13.2255C21.7123 11.1633 18.9164 10.0033 16 10V10ZM16 6C12.0231 6.00451 8.21045 7.58631 5.39838 10.3984C2.58631 13.2104 1.00451 17.0231 1 21V23C1 23.2652 1.10536 23.5196 1.29289 23.7071C1.48043 23.8946 1.73478 24 2 24C2.26522 24 2.51957 23.8946 2.70711 23.7071C2.89464 23.5196 3 23.2652 3 23V21C3 17.5522 4.36964 14.2456 6.80761 11.8076C9.24558 9.36964 12.5522 8 16 8C19.4478 8 22.7544 9.36964 25.1924 11.8076C27.6304 14.2456 29 17.5522 29 21V23C29 23.2652 29.1054 23.5196 29.2929 23.7071C29.4804 23.8946 29.7348 24 30 24C30.2652 24 30.5196 23.8946 30.7071 23.7071C30.8946 23.5196 31 23.2652 31 23V21C30.9955 17.0231 29.4137 13.2104 26.6016 10.3984C23.7896 7.58631 19.9769 6.00451 16 6V6Z"/>
</svg>
