<svg   viewBox="0 0 32 32" fill="none" xmlns="http://www.w3.org/2000/svg">
<path d="M27.9961 18.6432C28.0301 18.77 28.0387 18.9023 28.0216 19.0325C28.0044 19.1627 27.9618 19.2883 27.8962 19.402C27.8305 19.5157 27.7431 19.6154 27.6389 19.6954C27.5347 19.7753 27.4158 19.8339 27.2889 19.8679L24.1568 20.7071L24.9961 23.8392C25.0302 23.9661 25.039 24.0985 25.0219 24.2288C25.0049 24.3591 24.9623 24.4847 24.8967 24.5986C24.831 24.7124 24.7436 24.8122 24.6393 24.8922C24.5351 24.9722 24.4161 25.0309 24.2892 25.0649C24.1623 25.0989 24.0299 25.1076 23.8996 25.0904C23.7693 25.0732 23.6437 25.0305 23.5299 24.9647C23.4162 24.899 23.3165 24.8114 23.2366 24.7071C23.1566 24.6028 23.0981 24.4838 23.0642 24.3568L22.0733 20.6588L17.0038 17.732V23.5857L19.7109 26.2928C19.8985 26.4804 20.0038 26.7347 20.0039 26.9999C20.0039 27.2652 19.8985 27.5195 19.711 27.7071C19.5235 27.8946 19.2691 28 19.0039 28C18.7387 28 18.4843 27.8947 18.2967 27.7071L16.0038 25.4142L13.7109 27.7071C13.5234 27.8947 13.269 28 13.0038 28C12.7386 28 12.4842 27.8946 12.2967 27.7071C12.1091 27.5195 12.0038 27.2652 12.0038 26.9999C12.0038 26.7347 12.1092 26.4804 12.2967 26.2928L15.0038 23.5857V17.732L9.93434 20.6588L8.94347 24.3568C8.87483 24.613 8.70724 24.8314 8.47756 24.964C8.24788 25.0966 7.97492 25.1326 7.71873 25.064C7.46255 24.9953 7.24412 24.8277 7.11151 24.598C6.97889 24.3684 6.94294 24.0954 7.01158 23.8392L7.85087 20.7071L4.71873 19.8679C4.59177 19.834 4.47273 19.7755 4.36842 19.6955C4.2641 19.6156 4.17656 19.5159 4.1108 19.4022C4.04504 19.2884 4.00234 19.1628 3.98515 19.0325C3.96797 18.9022 3.97662 18.7699 4.01063 18.6429C4.04463 18.516 4.10332 18.397 4.18334 18.2928C4.26336 18.1885 4.36313 18.1011 4.47696 18.0355C4.5908 17.9698 4.71645 17.9272 4.84674 17.9102C4.97704 17.8931 5.10942 17.9019 5.23631 17.936L8.9344 18.9269L14.0039 16L8.9344 13.0731L5.23631 14.064C5.10942 14.0981 4.97704 14.1069 4.84674 14.0898C4.71645 14.0728 4.5908 14.0302 4.47697 13.9645C4.36313 13.8989 4.26336 13.8114 4.18334 13.7072C4.10332 13.603 4.04464 13.484 4.01063 13.3571C3.97662 13.2301 3.96797 13.0977 3.98516 12.9675C4.00234 12.8372 4.04504 12.7116 4.1108 12.5978C4.17657 12.484 4.26411 12.3844 4.36842 12.3044C4.47273 12.2245 4.59177 12.166 4.71873 12.1321L7.85088 11.2928L7.01158 8.16076C6.97745 8.03386 6.96866 7.90148 6.98572 7.77119C7.00278 7.6409 7.04535 7.51524 7.11101 7.40141C7.17666 7.28758 7.2641 7.18781 7.36833 7.10779C7.47257 7.02777 7.59155 6.96908 7.71848 6.93508C7.84541 6.90107 7.9778 6.89241 8.10807 6.9096C8.23835 6.92679 8.36396 6.96949 8.47773 7.03525C8.59149 7.10101 8.69118 7.18855 8.7711 7.29287C8.85101 7.39718 8.90958 7.51622 8.94347 7.64318L9.93434 11.3411L15.0038 14.268V8.41424L12.2967 5.70715C12.1092 5.51961 12.0038 5.26526 12.0038 5.00004C12.0038 4.73481 12.1091 4.48045 12.2967 4.2929C12.4842 4.10535 12.7386 3.99998 13.0038 3.99997C13.269 3.99996 13.5234 4.10531 13.7109 4.29284L16.0038 6.58581L18.2967 4.29284C18.3896 4.19998 18.4998 4.12633 18.6212 4.07608C18.7425 4.02582 18.8725 3.99996 19.0039 3.99997C19.1352 3.99998 19.2652 4.02585 19.3866 4.07611C19.5079 4.12637 19.6181 4.20004 19.711 4.2929C19.8038 4.38576 19.8775 4.49601 19.9277 4.61734C19.978 4.73867 20.0039 4.86871 20.0039 5.00004C20.0038 5.13136 19.978 5.2614 19.9277 5.38273C19.8775 5.50405 19.8038 5.61429 19.7109 5.70715L17.0038 8.41424V14.268L22.0733 11.3411L23.0642 7.64318C23.0982 7.51633 23.1568 7.39741 23.2368 7.29323C23.3167 7.18904 23.4164 7.10161 23.5301 7.03595C23.6438 6.97028 23.7694 6.92766 23.8996 6.91052C24.0298 6.89337 24.1621 6.90204 24.2889 6.93602C24.4158 6.97001 24.5347 7.02865 24.6389 7.10859C24.7431 7.18853 24.8305 7.28821 24.8962 7.40194C24.9618 7.51566 25.0044 7.64121 25.0216 7.77141C25.0387 7.90161 25.0301 8.03391 24.9961 8.16076L24.1568 11.2928L27.2889 12.1321C27.4159 12.166 27.5349 12.2245 27.6392 12.3044C27.7436 12.3844 27.8311 12.484 27.8969 12.5978C27.9626 12.7116 28.0053 12.8372 28.0225 12.9675C28.0397 13.0977 28.031 13.2301 27.997 13.3571C27.963 13.484 27.9043 13.603 27.8243 13.7072C27.7443 13.8114 27.6445 13.8989 27.5307 13.9645C27.4169 14.0302 27.2912 14.0728 27.1609 14.0898C27.0306 14.1069 26.8982 14.0981 26.7713 14.064L23.0733 13.0731L18.0037 16L23.0733 18.9269L26.7713 17.936C27.0275 17.8674 27.3005 17.9034 27.5302 18.036C27.7598 18.1686 27.9274 18.387 27.9961 18.6432Z" fill="black"/>
</svg>
