<svg viewBox="0 0 32 32" xmlns="http://www.w3.org/2000/svg">
<path d="M26.1052 18C26.1078 18.4097 25.9834 18.8101 25.7491 19.1462C25.5148 19.4823 25.1821 19.7375 24.7968 19.8767L18.2767 22.2788L15.8746 28.7988C15.7332 29.1827 15.4774 29.5139 15.1418 29.7479C14.8063 29.9819 14.407 30.1073 13.9979 30.1073C13.5888 30.1073 13.1896 29.9819 12.854 29.7479C12.5184 29.5139 12.2627 29.1827 12.1212 28.7988L9.71912 22.2788L3.1991 19.8767C2.81525 19.7352 2.484 19.4795 2.25004 19.1439C2.01607 18.8083 1.89063 18.4091 1.89063 18C1.89062 17.5909 2.01607 17.1917 2.25004 16.8561C2.484 16.5205 2.81525 16.2648 3.1991 16.1233L9.71912 13.7212L12.1212 7.20117C12.2627 6.81732 12.5184 6.48608 12.854 6.25211C13.1896 6.01814 13.5888 5.8927 13.9979 5.8927C14.407 5.8927 14.8063 6.01814 15.1418 6.25211C15.4774 6.48608 15.7332 6.81732 15.8746 7.20117L18.2767 13.7212L24.7968 16.1233C25.1821 16.2625 25.5148 16.5177 25.7491 16.8538C25.9834 17.1899 26.1078 17.5903 26.1052 18V18ZM18.9979 6H20.9979V8C20.9979 8.26522 21.1033 8.51957 21.2908 8.70711C21.4784 8.89464 21.7327 9 21.9979 9C22.2631 9 22.5175 8.89464 22.705 8.70711C22.8926 8.51957 22.9979 8.26522 22.9979 8V6H24.9979C25.2631 6 25.5175 5.89464 25.705 5.70711C25.8926 5.51957 25.9979 5.26522 25.9979 5C25.9979 4.73478 25.8926 4.48043 25.705 4.29289C25.5175 4.10536 25.2631 4 24.9979 4H22.9979V2C22.9979 1.73478 22.8926 1.48043 22.705 1.29289C22.5175 1.10536 22.2631 1 21.9979 1C21.7327 1 21.4784 1.10536 21.2908 1.29289C21.1033 1.48043 20.9979 1.73478 20.9979 2V4H18.9979C18.7327 4 18.4784 4.10536 18.2908 4.29289C18.1033 4.48043 17.9979 4.73478 17.9979 5C17.9979 5.26522 18.1033 5.51957 18.2908 5.70711C18.4784 5.89464 18.7327 6 18.9979 6ZM29.9979 10H28.9979V9C28.9979 8.73478 28.8926 8.48043 28.705 8.29289C28.5175 8.10536 28.2631 8 27.9979 8C27.7327 8 27.4784 8.10536 27.2908 8.29289C27.1033 8.48043 26.9979 8.73478 26.9979 9V10H25.9979C25.7327 10 25.4784 10.1054 25.2908 10.2929C25.1033 10.4804 24.9979 10.7348 24.9979 11C24.9979 11.2652 25.1033 11.5196 25.2908 11.7071C25.4784 11.8946 25.7327 12 25.9979 12H26.9979V13C26.9979 13.2652 27.1033 13.5196 27.2908 13.7071C27.4784 13.8946 27.7327 14 27.9979 14C28.2631 14 28.5175 13.8946 28.705 13.7071C28.8926 13.5196 28.9979 13.2652 28.9979 13V12H29.9979C30.2631 12 30.5175 11.8946 30.705 11.7071C30.8926 11.5196 30.9979 11.2652 30.9979 11C30.9979 10.7348 30.8926 10.4804 30.705 10.2929C30.5175 10.1054 30.2631 10 29.9979 10Z"/>
</svg>
