<svg viewBox="0 0 32 32" xmlns="http://www.w3.org/2000/svg">
<path d="M29.8968 12.1764C29.772 11.7844 29.5319 11.4392 29.2079 11.1857C28.8838 10.9322 28.4909 10.7823 28.0804 10.7555L20.6566 10.236L17.9027 3.30139C17.7537 2.91802 17.4923 2.5886 17.1528 2.35632C16.8134 2.12403 16.4117 1.9997 16.0003 1.99963H15.9984C15.5877 2.00037 15.1868 2.12501 14.8481 2.35726C14.5094 2.58951 14.2486 2.91856 14.1 3.30139L11.305 10.276L3.92222 10.7555C3.51171 10.7823 3.11882 10.9322 2.79479 11.1857C2.47077 11.4392 2.23067 11.7844 2.10582 12.1764C1.9741 12.5739 1.96514 13.0019 2.0801 13.4046C2.19506 13.8073 2.42861 14.1661 2.75035 14.4342L8.43004 19.235L6.74058 25.8805C6.62413 26.3281 6.64555 26.8005 6.80202 27.2358C6.95849 27.671 7.24273 28.0489 7.61753 28.3199C7.97939 28.5832 8.41212 28.7315 8.8594 28.7454C9.30668 28.7593 9.7478 28.6383 10.1253 28.3981L15.9847 24.6862C15.9925 24.6803 16.0003 24.6764 16.0179 24.6862L22.3226 28.6803C22.6649 28.899 23.0652 29.0093 23.4712 28.9967C23.8771 28.9842 24.2699 28.8494 24.598 28.61C24.9376 28.3645 25.1952 28.0222 25.337 27.6279C25.4789 27.2336 25.4983 26.8056 25.3929 26.4L23.598 19.1403L29.2523 14.4342C29.574 14.1661 29.8076 13.8073 29.9225 13.4046C30.0375 13.0019 30.0285 12.5739 29.8968 12.1764Z"/>
</svg>
