<svg   viewBox="0 0 32 32" fill="none" xmlns="http://www.w3.org/2000/svg">
<path d="M30.0772 16C30.0799 16.4112 29.9547 16.813 29.7188 17.1499C29.483 17.4867 29.1481 17.7417 28.7608 17.8796L20.7838 20.7804L17.8831 28.7573C17.7427 29.1431 17.4871 29.4764 17.1508 29.7119C16.8146 29.9474 16.414 30.0737 16.0034 30.0737C15.5929 30.0737 15.1923 29.9474 14.856 29.7119C14.5198 29.4764 14.2641 29.1431 14.1238 28.7573L11.223 20.7804L3.2461 17.8797C2.8603 17.7393 2.52703 17.4837 2.29152 17.1474C2.05601 16.8111 1.92969 16.4105 1.92969 16C1.92969 15.5895 2.05601 15.1889 2.29152 14.8526C2.52703 14.5164 2.8603 14.2607 3.2461 14.1204L11.223 11.2196L14.1238 3.24269C14.2641 2.85688 14.5198 2.52361 14.856 2.2881C15.1923 2.0526 15.5929 1.92627 16.0034 1.92627C16.414 1.92627 16.8146 2.0526 17.1508 2.2881C17.4871 2.52361 17.7427 2.85688 17.8831 3.24269L20.7838 11.2196L28.7607 14.1204C29.1481 14.2583 29.483 14.5134 29.7188 14.8502C29.9547 15.187 30.0799 15.5888 30.0772 16V16Z" fill="black"/>
</svg>
