<svg viewBox="0 0 32 32" xmlns="http://www.w3.org/2000/svg">
<path d="M16 24.5C20.6944 24.5 24.5 20.6944 24.5 16C24.5 11.3056 20.6944 7.5 16 7.5C11.3056 7.5 7.5 11.3056 7.5 16C7.5 20.6944 11.3056 24.5 16 24.5Z"/>
<path d="M16 5.5C16.2652 5.5 16.5196 5.39464 16.7071 5.2071C16.8946 5.01957 17 4.76522 17 4.5V2C17 1.73478 16.8946 1.48043 16.7071 1.29289C16.5196 1.10536 16.2652 1 16 1C15.7348 1 15.4804 1.10536 15.2929 1.29289C15.1054 1.48043 15 1.73478 15 2V4.5C15 4.76522 15.1054 5.01957 15.2929 5.2071C15.4804 5.39464 15.7348 5.5 16 5.5Z"/>
<path d="M7.16265 8.57537C7.25543 8.66859 7.36569 8.74259 7.4871 8.79314C7.60852 8.84369 7.73872 8.86979 7.87024 8.86995C8.00176 8.8701 8.13202 8.84432 8.25356 8.79406C8.3751 8.7438 8.48553 8.67006 8.57853 8.57706C8.67152 8.48406 8.74526 8.37363 8.79552 8.25209C8.84578 8.13055 8.87157 8.00029 8.87141 7.86877C8.87126 7.73725 8.84516 7.60706 8.79461 7.48564C8.74406 7.36422 8.67006 7.25397 8.57684 7.16119L6.80908 5.39343C6.71624 5.30048 6.606 5.22673 6.48465 5.1764C6.3633 5.12607 6.23323 5.10014 6.10186 5.1001C5.97048 5.10006 5.84039 5.1259 5.71901 5.17616C5.59763 5.22641 5.48734 5.30009 5.39445 5.39298C5.30156 5.48588 5.22788 5.59617 5.17762 5.71755C5.12737 5.83893 5.10152 5.96902 5.10156 6.10039C5.1016 6.23176 5.12753 6.36184 5.17786 6.48319C5.22819 6.60454 5.30194 6.71478 5.39489 6.80761L7.16265 8.57537Z"/>
<path d="M5.5 16C5.5 15.7348 5.39464 15.4804 5.2071 15.2929C5.01957 15.1054 4.76522 15 4.5 15H2C1.73478 15 1.48043 15.1054 1.29289 15.2929C1.10536 15.4804 1 15.7348 1 16C1 16.2652 1.10536 16.5196 1.29289 16.7071C1.48043 16.8946 1.73478 17 2 17H4.5C4.76522 17 5.01957 16.8946 5.2071 16.7071C5.39464 16.5196 5.5 16.2652 5.5 16V16Z"/>
<path d="M7.16265 23.4246L5.39489 25.1924C5.30194 25.2852 5.22819 25.3954 5.17786 25.5168C5.12753 25.6381 5.1016 25.7682 5.10156 25.8996C5.10152 26.031 5.12737 26.1611 5.17762 26.2824C5.22788 26.4038 5.30156 26.5141 5.39445 26.607C5.48734 26.6999 5.59763 26.7736 5.71901 26.8238C5.84039 26.8741 5.97048 26.8999 6.10186 26.8999C6.23323 26.8998 6.3633 26.8739 6.48465 26.8236C6.606 26.7733 6.71624 26.6995 6.80908 26.6066L8.57684 24.8388C8.67006 24.746 8.74406 24.6358 8.79461 24.5143C8.84516 24.3929 8.87126 24.2627 8.87141 24.1312C8.87157 23.9997 8.84578 23.8694 8.79552 23.7479C8.74526 23.6264 8.67152 23.5159 8.57853 23.4229C8.48553 23.3299 8.3751 23.2562 8.25356 23.2059C8.13202 23.1557 8.00176 23.1299 7.87024 23.13C7.73872 23.1302 7.60852 23.1563 7.4871 23.2068C7.36569 23.2574 7.25543 23.3314 7.16265 23.4246V23.4246Z"/>
<path d="M16 26.5C15.7348 26.5 15.4804 26.6054 15.2929 26.7929C15.1054 26.9804 15 27.2348 15 27.5V30C15 30.2652 15.1054 30.5196 15.2929 30.7071C15.4804 30.8946 15.7348 31 16 31C16.2652 31 16.5196 30.8946 16.7071 30.7071C16.8946 30.5196 17 30.2652 17 30V27.5C17 27.2348 16.8946 26.9804 16.7071 26.7929C16.5196 26.6054 16.2652 26.5 16 26.5V26.5Z"/>
<path d="M24.8416 23.4246C24.7488 23.3314 24.6385 23.2574 24.5171 23.2068C24.3957 23.1563 24.2655 23.1302 24.134 23.13C24.0025 23.1299 23.8722 23.1557 23.7507 23.2059C23.6291 23.2562 23.5187 23.3299 23.4257 23.4229C23.3327 23.5159 23.259 23.6264 23.2087 23.7479C23.1584 23.8694 23.1327 23.9997 23.1328 24.1312C23.133 24.2627 23.1591 24.3929 23.2096 24.5143C23.2602 24.6358 23.3342 24.746 23.4274 24.8388L25.1952 26.6066C25.288 26.6995 25.3982 26.7733 25.5196 26.8236C25.6409 26.8739 25.771 26.8998 25.9024 26.8999C26.0337 26.8999 26.1638 26.8741 26.2852 26.8238C26.4066 26.7736 26.5169 26.6999 26.6098 26.607C26.7027 26.5141 26.7764 26.4038 26.8266 26.2824C26.8769 26.1611 26.9027 26.031 26.9027 25.8996C26.9026 25.7682 26.8767 25.6381 26.8264 25.5168C26.776 25.3954 26.7023 25.2852 26.6093 25.1924L24.8416 23.4246Z"/>
<path d="M30 15H27.5C27.2348 15 26.9804 15.1054 26.7929 15.2929C26.6054 15.4804 26.5 15.7348 26.5 16C26.5 16.2652 26.6054 16.5196 26.7929 16.7071C26.9804 16.8946 27.2348 17 27.5 17H30C30.2652 17 30.5196 16.8946 30.7071 16.7071C30.8946 16.5196 31 16.2652 31 16C31 15.7348 30.8946 15.4804 30.7071 15.2929C30.5196 15.1054 30.2652 15 30 15Z"/>
<path d="M24.1328 8.86828C24.2642 8.86845 24.3943 8.84266 24.5156 8.79239C24.6369 8.74212 24.7472 8.66837 24.8399 8.57537L26.6077 6.80761C26.7006 6.71478 26.7744 6.60454 26.8247 6.48319C26.875 6.36184 26.901 6.23176 26.901 6.10039C26.901 5.96902 26.8752 5.83893 26.8249 5.71755C26.7747 5.59617 26.701 5.48588 26.6081 5.39298C26.5152 5.30009 26.4049 5.22641 26.2836 5.17616C26.1622 5.1259 26.0321 5.10006 25.9007 5.1001C25.7693 5.10014 25.6393 5.12607 25.5179 5.1764C25.3966 5.22673 25.2863 5.30048 25.1935 5.39343L23.4257 7.16119C23.2859 7.30104 23.1906 7.47922 23.152 7.6732C23.1134 7.86718 23.1332 8.06825 23.2089 8.25098C23.2846 8.43371 23.4128 8.58989 23.5772 8.69977C23.7417 8.80965 23.935 8.86829 24.1328 8.86828H24.1328Z"/>
</svg>
