<svg   viewBox="0 0 32 32" fill="none" xmlns="http://www.w3.org/2000/svg">
<path d="M16 24.5C20.6944 24.5 24.5 20.6944 24.5 16C24.5 11.3056 20.6944 7.5 16 7.5C11.3056 7.5 7.5 11.3056 7.5 16C7.5 20.6944 11.3056 24.5 16 24.5Z" fill="black"/>
<path d="M16 5.5C16.1313 5.5 16.2614 5.47414 16.3827 5.42388C16.504 5.37363 16.6143 5.29997 16.7071 5.20711C16.8 5.11425 16.8736 5.00401 16.9239 4.88268C16.9741 4.76136 17 4.63132 17 4.5V3.5C17 3.23478 16.8946 2.98043 16.7071 2.79289C16.5196 2.60536 16.2652 2.5 16 2.5C15.7348 2.5 15.4804 2.60536 15.2929 2.79289C15.1054 2.98043 15 3.23478 15 3.5V4.5C15 4.63132 15.0259 4.76136 15.0761 4.88268C15.1264 5.00401 15.2 5.11425 15.2929 5.20711C15.3857 5.29997 15.496 5.37363 15.6173 5.42388C15.7386 5.47414 15.8687 5.5 16 5.5Z" fill="black"/>
<path d="M7.15743 8.57537C7.25024 8.66847 7.36049 8.74235 7.48187 8.7928C7.60326 8.84325 7.7334 8.86927 7.86485 8.86937C7.99631 8.86948 8.12649 8.84366 8.24795 8.79341C8.36942 8.74315 8.47979 8.66944 8.57274 8.57649C8.66569 8.48355 8.73941 8.37318 8.78967 8.25172C8.83993 8.13026 8.86575 8.00007 8.86565 7.86862C8.86555 7.73717 8.83953 7.60703 8.78909 7.48564C8.73865 7.36425 8.66477 7.254 8.57168 7.16119L7.86458 6.45406C7.77179 6.36094 7.66154 6.28702 7.54014 6.23655C7.41875 6.18607 7.28859 6.16003 7.15712 6.15991C7.02565 6.15979 6.89545 6.1856 6.77397 6.23586C6.65248 6.28612 6.5421 6.35984 6.44914 6.4528C6.35617 6.54576 6.28245 6.65614 6.2322 6.77763C6.18194 6.89911 6.15613 7.02932 6.15625 7.16078C6.15637 7.29225 6.18241 7.42241 6.23288 7.5438C6.28336 7.6652 6.35727 7.77545 6.4504 7.86825L7.15743 8.57537Z" fill="black"/>
<path d="M4.5 15H3.5C3.23478 15 2.98043 15.1054 2.79289 15.2929C2.60536 15.4804 2.5 15.7348 2.5 16C2.5 16.2652 2.60536 16.5196 2.79289 16.7071C2.98043 16.8946 3.23478 17 3.5 17H4.5C4.76522 17 5.01957 16.8946 5.20711 16.7071C5.39464 16.5196 5.5 16.2652 5.5 16C5.5 15.7348 5.39464 15.4804 5.20711 15.2929C5.01957 15.1054 4.76522 15 4.5 15Z" fill="black"/>
<path d="M7.16449 23.4246L6.45739 24.1317C6.36444 24.2245 6.29069 24.3348 6.24036 24.4561C6.19003 24.5775 6.1641 24.7076 6.16406 24.8389C6.16402 24.9703 6.18987 25.1004 6.24012 25.2218C6.29038 25.3432 6.36406 25.4534 6.45695 25.5463C6.54984 25.6392 6.66013 25.7129 6.78151 25.7632C6.90289 25.8134 7.03298 25.8393 7.16436 25.8392C7.29573 25.8392 7.4258 25.8133 7.54715 25.7629C7.6685 25.7126 7.77874 25.6388 7.87158 25.5459L8.57867 24.8388C8.76601 24.6512 8.8712 24.3969 8.87111 24.1318C8.87103 23.8667 8.76568 23.6125 8.57823 23.4251C8.39077 23.2376 8.13655 23.1323 7.87145 23.1322C7.60635 23.1321 7.35206 23.2373 7.16449 23.4246V23.4246Z" fill="black"/>
<path d="M16 26.5C15.8687 26.5 15.7386 26.5259 15.6173 26.5761C15.496 26.6264 15.3857 26.7 15.2929 26.7929C15.2 26.8857 15.1264 26.996 15.0761 27.1173C15.0259 27.2386 15 27.3687 15 27.5V28.5C15 28.7652 15.1054 29.0196 15.2929 29.2071C15.4804 29.3946 15.7348 29.5 16 29.5C16.2652 29.5 16.5196 29.3946 16.7071 29.2071C16.8946 29.0196 17 28.7652 17 28.5V27.5C17 27.3687 16.9741 27.2386 16.9239 27.1173C16.8736 26.996 16.8 26.8857 16.7071 26.7929C16.6143 26.7 16.504 26.6264 16.3827 26.5761C16.2614 26.5259 16.1313 26.5 16 26.5V26.5Z" fill="black"/>
<path d="M24.8382 23.4246C24.6505 23.2378 24.3964 23.1331 24.1316 23.1334C23.8668 23.1337 23.6129 23.2391 23.4257 23.4263C23.2385 23.6136 23.1331 23.8674 23.1328 24.1322C23.1325 24.397 23.2372 24.6511 23.424 24.8388L24.1311 25.5459C24.3187 25.7332 24.573 25.8384 24.8381 25.8383C25.1032 25.8383 25.3574 25.7329 25.5448 25.5455C25.7323 25.358 25.8377 25.1038 25.8377 24.8387C25.8378 24.5736 25.7326 24.3193 25.5453 24.1317L24.8382 23.4246Z" fill="black"/>
<path d="M28.5 15H27.5C27.2348 15 26.9804 15.1054 26.7929 15.2929C26.6054 15.4804 26.5 15.7348 26.5 16C26.5 16.2652 26.6054 16.5196 26.7929 16.7071C26.9804 16.8946 27.2348 17 27.5 17H28.5C28.7652 17 29.0196 16.8946 29.2071 16.7071C29.3946 16.5196 29.5 16.2652 29.5 16C29.5 15.7348 29.3946 15.4804 29.2071 15.2929C29.0196 15.1054 28.7652 15 28.5 15Z" fill="black"/>
<path d="M24.1328 8.8683C24.2642 8.86846 24.3943 8.84267 24.5156 8.7924C24.637 8.74213 24.7472 8.66838 24.84 8.57539L25.547 7.86827C25.6398 7.77541 25.7135 7.66517 25.7638 7.54385C25.814 7.42253 25.8399 7.29249 25.8399 7.16117C25.8399 7.02985 25.814 6.89982 25.7638 6.7785C25.7135 6.65717 25.6398 6.54694 25.547 6.45408C25.4541 6.36122 25.3439 6.28757 25.2226 6.23731C25.1012 6.18706 24.9712 6.16119 24.8399 6.16119C24.7086 6.16119 24.5785 6.18706 24.4572 6.23731C24.3359 6.28757 24.2257 6.36122 24.1328 6.45408L23.4257 7.16121C23.2859 7.30106 23.1906 7.47924 23.152 7.67322C23.1134 7.8672 23.1332 8.06826 23.2089 8.25099C23.2846 8.43371 23.4128 8.58989 23.5772 8.69977C23.7417 8.80965 23.935 8.8683 24.1328 8.8683V8.8683Z" fill="black"/>
</svg>
