<svg   viewBox="0 0 32 32" fill="none" xmlns="http://www.w3.org/2000/svg">
<path d="M9.71857 5.44836C9.61755 5.20342 9.61787 4.9284 9.71945 4.68369C9.82103 4.43899 10.0156 4.24459 10.2604 4.1432C10.5051 4.04181 10.7802 4.0417 11.025 4.14291C11.2699 4.24411 11.4646 4.43835 11.5663 4.68298L12.523 6.99268C12.5735 7.11404 12.5996 7.24418 12.5997 7.37563C12.5999 7.50708 12.5741 7.63728 12.5239 7.75876C12.4737 7.88025 12.4 7.99064 12.3071 8.08362C12.2142 8.17661 12.1038 8.25037 11.9824 8.30067C11.8609 8.35098 11.7308 8.37684 11.5993 8.37679C11.4679 8.37674 11.3377 8.35078 11.2163 8.30038C11.0949 8.24998 10.9846 8.17614 10.8918 8.08308C10.7989 7.99002 10.7254 7.87957 10.6752 7.75805L9.71857 5.44836ZM2.68298 13.5663L4.99268 14.5229C5.11403 14.5734 5.24415 14.5995 5.37558 14.5996C5.50701 14.5997 5.63718 14.574 5.75864 14.5237C5.8801 14.4735 5.99048 14.3999 6.08345 14.307C6.17641 14.2141 6.25016 14.1038 6.30046 13.9823C6.35076 13.8609 6.37663 13.7308 6.37658 13.5993C6.37654 13.4679 6.35059 13.3378 6.30021 13.2164C6.24984 13.095 6.17602 12.9847 6.08299 12.8919C5.98996 12.799 5.87955 12.7254 5.75805 12.6753L3.44836 11.7186C3.32701 11.6682 3.19689 11.6421 3.06546 11.642C2.93403 11.6418 2.80386 11.6676 2.6824 11.7178C2.56094 11.768 2.45056 11.8417 2.35759 11.9346C2.26463 12.0275 2.19088 12.1378 2.14058 12.2592C2.09028 12.3807 2.06441 12.5108 2.06446 12.6422C2.0645 12.7737 2.09045 12.9038 2.14083 13.0252C2.1912 13.1466 2.26502 13.2569 2.35805 13.3497C2.45108 13.4426 2.56149 13.5161 2.68299 13.5663L2.68298 13.5663ZM26.625 14.5994C26.7562 14.5993 26.8862 14.5733 27.0073 14.5229L29.317 13.5663C29.4385 13.5161 29.5489 13.4426 29.642 13.3497C29.735 13.2569 29.8088 13.1466 29.8592 13.0252C29.9096 12.9038 29.9355 12.7737 29.9355 12.6422C29.9356 12.5108 29.9097 12.3807 29.8594 12.2592C29.8091 12.1378 29.7354 12.0275 29.6424 11.9346C29.5494 11.8417 29.4391 11.768 29.3176 11.7178C29.1961 11.6676 29.066 11.6418 28.9345 11.642C28.8031 11.6421 28.673 11.6682 28.5516 11.7186L26.2419 12.6753C26.0282 12.7639 25.8517 12.9238 25.7427 13.1279C25.6336 13.332 25.5987 13.5676 25.6439 13.7945C25.6891 14.0214 25.8116 14.2257 25.9905 14.3725C26.1694 14.5192 26.3936 14.5994 26.625 14.5994ZM20.0182 8.29919C20.1395 8.34957 20.2695 8.37554 20.4009 8.37561C20.5323 8.37567 20.6623 8.34983 20.7837 8.29957C20.9051 8.24931 21.0153 8.17561 21.1082 8.08269C21.201 7.98977 21.2746 7.87945 21.3248 7.75805L22.2814 5.44836C22.3825 5.20342 22.3821 4.9284 22.2806 4.68369C22.179 4.43899 21.9844 4.24459 21.7396 4.1432C21.4949 4.04181 21.2198 4.0417 20.975 4.14291C20.7301 4.24411 20.5354 4.43835 20.4337 4.68298L19.477 6.99268C19.4267 7.114 19.4009 7.24403 19.4009 7.37535C19.4009 7.50667 19.4267 7.6367 19.477 7.75803C19.5272 7.87935 19.6009 7.98958 19.6938 8.08244C19.7866 8.17529 19.8969 8.24894 20.0182 8.29919ZM30 19H24.4404C24.5824 17.8074 24.47 16.5982 24.1107 15.4522C23.7514 14.3061 23.1532 13.2493 22.3557 12.3512C21.5583 11.4531 20.5795 10.7343 19.484 10.242C18.3885 9.7497 17.201 9.49517 16 9.49517C14.799 9.49517 13.6115 9.7497 12.516 10.242C11.4205 10.7343 10.4417 11.4531 9.64425 12.3512C8.84676 13.2493 8.24865 14.3061 7.88932 15.4522C7.53 16.5982 7.41762 17.8074 7.5596 19H2C1.73478 19 1.48043 19.1054 1.29289 19.2929C1.10536 19.4804 1 19.7348 1 20C1 20.2652 1.10536 20.5196 1.29289 20.7071C1.48043 20.8946 1.73478 21 2 21H23.2273L23.2309 21.0002L23.2339 21H30C30.2652 21 30.5196 20.8946 30.7071 20.7071C30.8946 20.5196 31 20.2652 31 20C31 19.7348 30.8946 19.4804 30.7071 19.2929C30.5196 19.1054 30.2652 19 30 19ZM26 24H6C5.73478 24 5.48043 24.1054 5.29289 24.2929C5.10536 24.4804 5 24.7348 5 25C5 25.2652 5.10536 25.5196 5.29289 25.7071C5.48043 25.8946 5.73478 26 6 26H26C26.2652 26 26.5196 25.8946 26.7071 25.7071C26.8946 25.5196 27 25.2652 27 25C27 24.7348 26.8946 24.4804 26.7071 24.2929C26.5196 24.1054 26.2652 24 26 24Z" fill="black"/>
</svg>
