<svg viewBox="0 0 32 32" xmlns="http://www.w3.org/2000/svg">
<path d="M26.5 6.5C25.8078 6.5 25.1311 6.70527 24.5555 7.08986C23.9799 7.47444 23.5313 8.02107 23.2664 8.66061C23.0015 9.30015 22.9322 10.0039 23.0673 10.6828C23.2023 11.3618 23.5356 11.9854 24.0251 12.4749C24.5146 12.9644 25.1383 13.2977 25.8172 13.4327C26.4961 13.5678 27.1999 13.4985 27.8394 13.2336C28.4789 12.9687 29.0256 12.5201 29.4101 11.9445C29.7947 11.3689 30 10.6922 30 10C29.999 9.07206 29.6299 8.18243 28.9737 7.52628C28.3176 6.87012 27.4279 6.50104 26.5 6.5V6.5ZM26.5 11.5C26.2033 11.5 25.9133 11.412 25.6666 11.2472C25.42 11.0824 25.2277 10.8481 25.1142 10.574C25.0007 10.2999 24.9709 9.99834 25.0288 9.70736C25.0867 9.41639 25.2296 9.14912 25.4393 8.93934C25.6491 8.72956 25.9164 8.5867 26.2074 8.52882C26.4983 8.47094 26.7999 8.50065 27.074 8.61418C27.3481 8.72771 27.5824 8.91997 27.7472 9.16665C27.912 9.41332 28 9.70333 28 10C27.9996 10.3977 27.8414 10.779 27.5602 11.0602C27.279 11.3414 26.8977 11.4996 26.5 11.5ZM20 17.9093V6C20 4.67392 19.4732 3.40215 18.5355 2.46447C17.5979 1.52678 16.3261 1 15 1C13.6739 1 12.4021 1.52678 11.4645 2.46447C10.5268 3.40215 10 4.67392 10 6V17.9093C8.86785 18.9219 8.06985 20.2544 7.7116 21.7305C7.35334 23.2066 7.45172 24.7567 7.99371 26.1756C8.5357 27.5946 9.49576 28.8155 10.7468 29.6769C11.9979 30.5383 13.4811 30.9995 15 30.9995C16.5189 30.9995 18.0021 30.5383 19.2532 29.6769C20.5042 28.8155 21.4643 27.5946 22.0063 26.1756C22.5483 24.7567 22.6467 23.2066 22.2884 21.7305C21.9302 20.2544 21.1322 18.9219 20 17.9093V17.9093ZM15 3C15.7954 3.0009 16.5579 3.31726 17.1203 3.87967C17.6827 4.44209 17.9991 5.20463 18 6V10H12V6C12.0009 5.20463 12.3173 4.44209 12.8797 3.87967C13.4421 3.31726 14.2046 3.0009 15 3V3Z"/>
</svg>
