<svg viewBox="0 0 32 32" xmlns="http://www.w3.org/2000/svg">
<path d="M20 17.9093V6C20 4.67392 19.4732 3.40215 18.5355 2.46447C17.5979 1.52678 16.3261 1 15 1C13.6739 1 12.4021 1.52678 11.4645 2.46447C10.5268 3.40215 10 4.67392 10 6V17.9093C8.86785 18.9219 8.06985 20.2544 7.7116 21.7305C7.35334 23.2066 7.45172 24.7567 7.99371 26.1756C8.5357 27.5946 9.49576 28.8155 10.7468 29.6769C11.9979 30.5383 13.4811 30.9995 15 30.9995C16.5189 30.9995 18.0021 30.5383 19.2532 29.6769C20.5042 28.8155 21.4643 27.5946 22.0063 26.1756C22.5483 24.7567 22.6467 23.2066 22.2884 21.7305C21.9302 20.2544 21.1322 18.9219 20 17.9093V17.9093ZM15 3C15.7954 3.0009 16.5579 3.31726 17.1203 3.87967C17.6827 4.44209 17.9991 5.20463 18 6V7H12V6C12.0009 5.20463 12.3173 4.44209 12.8797 3.87967C13.4421 3.31726 14.2046 3.0009 15 3V3ZM22.2574 10.7072C22.1645 10.6143 22.0909 10.504 22.0406 10.3827C21.9903 10.2614 21.9645 10.1313 21.9645 10C21.9645 9.86867 21.9903 9.73862 22.0406 9.61729C22.0909 9.49596 22.1645 9.38571 22.2574 9.29285C22.5824 8.96784 22.9682 8.71002 23.3929 8.53413C23.8175 8.35823 24.2726 8.2677 24.7322 8.2677C25.1919 8.2677 25.647 8.35823 26.0716 8.53413C26.4963 8.71002 26.8821 8.96784 27.2071 9.29285C27.4886 9.57379 27.8701 9.73157 28.2678 9.73157C28.6655 9.73157 29.0469 9.57379 29.3284 9.29285C29.516 9.10531 29.7703 8.99997 30.0356 8.99998C30.3008 8.99999 30.5551 9.10536 30.7427 9.29291C30.9302 9.48046 31.0356 9.73482 31.0355 10C31.0355 10.2653 30.9302 10.5196 30.7426 10.7072C30.4176 11.0322 30.0318 11.29 29.6071 11.4659C29.1825 11.6418 28.7274 11.7323 28.2678 11.7323C27.8081 11.7323 27.353 11.6418 26.9284 11.4659C26.5037 11.29 26.1179 11.0322 25.7929 10.7072C25.5114 10.4262 25.1299 10.2684 24.7322 10.2684C24.3345 10.2684 23.9531 10.4262 23.6716 10.7072C23.484 10.8946 23.2297 10.9999 22.9645 10.9999C22.6993 10.9999 22.445 10.8946 22.2574 10.7072V10.7072ZM30.7426 14.2928C30.8355 14.3857 30.9092 14.496 30.9594 14.6173C31.0097 14.7386 31.0355 14.8687 31.0355 15C31.0355 15.1313 31.0097 15.2614 30.9594 15.3827C30.9092 15.504 30.8355 15.6143 30.7426 15.7072C30.4176 16.0322 30.0318 16.29 29.6071 16.4659C29.1825 16.6418 28.7274 16.7323 28.2678 16.7323C27.8081 16.7323 27.353 16.6418 26.9284 16.4659C26.5037 16.29 26.1179 16.0322 25.7929 15.7072C25.5114 15.4262 25.1299 15.2684 24.7322 15.2684C24.3345 15.2684 23.9531 15.4262 23.6716 15.7072C23.484 15.8947 23.2297 16 22.9644 16C22.6992 16 22.4449 15.8946 22.2573 15.7071C22.0698 15.5195 21.9644 15.2652 21.9645 15C21.9645 14.7347 22.0698 14.4804 22.2574 14.2928C22.5824 13.9678 22.9682 13.71 23.3929 13.5341C23.8175 13.3582 24.2726 13.2677 24.7322 13.2677C25.1919 13.2677 25.647 13.3582 26.0716 13.5341C26.4963 13.71 26.8821 13.9678 27.2071 14.2928C27.4886 14.5738 27.8701 14.7316 28.2678 14.7316C28.6655 14.7316 29.0469 14.5738 29.3284 14.2928C29.516 14.1054 29.7703 14.0001 30.0355 14.0001C30.3007 14.0001 30.5551 14.1054 30.7426 14.2928V14.2928Z"/>
</svg>
