<svg viewBox="0 0 32 32" xmlns="http://www.w3.org/2000/svg">
<path d="M21 17.9093V6C21 4.67392 20.4732 3.40215 19.5355 2.46447C18.5979 1.52678 17.3261 1 16 1C14.6739 1 13.4021 1.52678 12.4645 2.46447C11.5268 3.40215 11 4.67392 11 6V17.9093C9.86785 18.9219 9.06985 20.2544 8.7116 21.7305C8.35334 23.2066 8.45172 24.7567 8.99371 26.1756C9.5357 27.5946 10.4958 28.8155 11.7468 29.6769C12.9979 30.5383 14.4811 30.9995 16 30.9995C17.5189 30.9995 19.0021 30.5383 20.2532 29.6769C21.5042 28.8155 22.4643 27.5946 23.0063 26.1756C23.5483 24.7567 23.6467 23.2066 23.2884 21.7305C22.9302 20.2544 22.1322 18.9219 21 17.9093V17.9093ZM16 3C16.7954 3.0009 17.5579 3.31726 18.1203 3.87967C18.6827 4.44209 18.9991 5.20463 19 6V10H13V6C13.0009 5.20463 13.3173 4.44209 13.8797 3.87967C14.4421 3.31726 15.2046 3.0009 16 3Z"/>
</svg>
