<svg viewBox="0 0 32 32" xmlns="http://www.w3.org/2000/svg">
<path d="M30.6132 9.71497L28.118 10.5258L29.6602 12.6483C29.7379 12.7545 29.7939 12.875 29.825 13.0029C29.856 13.1308 29.8615 13.2636 29.8412 13.3936C29.8208 13.5237 29.775 13.6484 29.7063 13.7607C29.6376 13.873 29.5475 13.9706 29.441 14.048C29.3345 14.1253 29.2138 14.1809 29.0858 14.2115C28.9578 14.2421 28.825 14.2472 28.695 14.2264C28.5651 14.2055 28.4405 14.1593 28.3284 14.0902C28.2164 14.0211 28.1191 13.9306 28.0421 13.8239L26.5 11.7013L24.9579 13.8239C24.802 14.0384 24.5673 14.1822 24.3053 14.2237C24.0434 14.2652 23.7757 14.2009 23.5612 14.045C23.3466 13.8891 23.2028 13.6544 23.1613 13.3925C23.1198 13.1306 23.184 12.8629 23.3398 12.6483L24.882 10.5258L22.3868 9.71497C22.2615 9.6747 22.1454 9.61011 22.0451 9.52488C21.9449 9.43966 21.8624 9.33549 21.8025 9.21834C21.7426 9.10118 21.7063 8.97336 21.6959 8.84218C21.6855 8.711 21.7011 8.57906 21.7417 8.45391C21.7824 8.32876 21.8473 8.21287 21.9329 8.11287C22.0184 8.01288 22.1229 7.93075 22.2402 7.8712C22.3575 7.81165 22.4855 7.77584 22.6167 7.76583C22.7479 7.75582 22.8798 7.7718 23.0048 7.81287L25.5 8.6236V6C25.5 5.73478 25.6054 5.48043 25.7929 5.29289C25.9804 5.10536 26.2348 5 26.5 5C26.7652 5 27.0196 5.10536 27.2071 5.29289C27.3946 5.48043 27.5 5.73478 27.5 6V8.6236L29.9952 7.81287C30.1202 7.7718 30.2521 7.75582 30.3833 7.76583C30.5145 7.77584 30.6425 7.81165 30.7598 7.8712C30.8771 7.93075 30.9816 8.01288 31.0671 8.11287C31.1527 8.21287 31.2176 8.32876 31.2583 8.45391C31.2989 8.57906 31.3145 8.711 31.3041 8.84218C31.2937 8.97336 31.2574 9.10118 31.1975 9.21834C31.1376 9.33549 31.0551 9.43966 30.9549 9.52488C30.8546 9.61011 30.7385 9.6747 30.6132 9.71497V9.71497ZM22.5 23.5C22.4999 24.751 22.1869 25.9822 21.5894 27.0813C20.992 28.1804 20.1291 29.1127 19.0793 29.7931C18.0295 30.4735 16.8261 30.8806 15.5788 30.9771C14.3315 31.0737 13.0799 30.8567 11.9379 30.3459C10.7959 29.8351 9.79979 29.0468 9.0403 28.0527C8.2808 27.0586 7.78204 25.8903 7.58943 24.6542C7.39682 23.4181 7.51647 22.1534 7.93749 20.9754C8.35852 19.7973 9.06754 18.7433 10 17.9093V6C10 4.67392 10.5268 3.40215 11.4645 2.46447C12.4021 1.52678 13.6739 1 15 1C16.3261 1 17.5979 1.52678 18.5355 2.46447C19.4732 3.40215 20 4.67392 20 6V17.9093C20.789 18.6109 21.4199 19.4721 21.8508 20.436C22.2818 21.3998 22.5031 22.4442 22.5 23.5V23.5ZM12 6V13H18V6C18 5.20435 17.6839 4.44129 17.1213 3.87868C16.5587 3.31607 15.7957 3 15 3C14.2044 3 13.4413 3.31607 12.8787 3.87868C12.3161 4.44129 12 5.20435 12 6V6Z"/>
</svg>
