<svg viewBox="0 0 32 32" xmlns="http://www.w3.org/2000/svg">
<path d="M28.8983 24.4393C28.816 24.6075 28.6882 24.7492 28.5294 24.8483C28.3706 24.9475 28.1872 25 28 25H17V30C17 30.2652 16.8946 30.5196 16.7071 30.7071C16.5195 30.8946 16.2652 31 16 31C15.7348 31 15.4804 30.8946 15.2929 30.7071C15.1053 30.5196 15 30.2652 15 30V25H3.99997C3.81277 25 3.62933 24.9475 3.47052 24.8484C3.31172 24.7492 3.18392 24.6075 3.10168 24.4394C3.01943 24.2712 2.98604 24.0833 3.00531 23.8971C3.02458 23.7109 3.09573 23.5339 3.21066 23.3861L8.95529 16H5.99997C5.81322 16 5.63021 15.9477 5.47166 15.849C5.3131 15.7504 5.18534 15.6093 5.10285 15.4417C5.02036 15.2742 4.98643 15.0869 5.0049 14.9011C5.02337 14.7152 5.09351 14.5383 5.20737 14.3903L15.2074 1.39026C15.3008 1.26885 15.4208 1.17052 15.5582 1.10285C15.6957 1.03519 15.8468 1 16 1C16.1532 1 16.3043 1.03519 16.4417 1.10285C16.5791 1.17052 16.6992 1.26885 16.7926 1.39026L26.7926 14.3903C26.9064 14.5383 26.9766 14.7152 26.995 14.9011C27.0135 15.0869 26.9796 15.2742 26.8971 15.4417C26.8146 15.6093 26.6868 15.7504 26.5283 15.849C26.3697 15.9477 26.1867 16 26 16H23.0446L28.7893 23.3861C28.9042 23.5339 28.9754 23.7109 28.9947 23.8971C29.0139 24.0833 28.9805 24.2712 28.8983 24.4393V24.4393Z"/>
</svg>
