<svg   viewBox="0 0 32 32" fill="none" xmlns="http://www.w3.org/2000/svg">
<path d="M16.0033 23.4844C16.0005 23.4824 15.9995 23.4824 15.9967 23.4844C15.6771 23.6978 15.3442 23.8906 15 24.0615V29C15 29.2652 15.1054 29.5196 15.2929 29.7071C15.4804 29.8946 15.7348 30 16 30C16.2652 30 16.5196 29.8946 16.7071 29.7071C16.8946 29.5196 17 29.2652 17 29V24.0615C16.6559 23.8905 16.323 23.6977 16.0034 23.4844H16.0033Z" fill="black"/>
<path d="M24.7626 7.82447C24.038 6.09862 22.8199 4.62518 21.2611 3.58899C19.7023 2.55281 17.8722 2.00003 16.0005 2C14.1287 1.99997 12.2986 2.5527 10.7397 3.58884C9.1809 4.62498 7.96276 6.09839 7.23813 7.82422C5.68103 8.54501 4.36143 9.6944 3.43379 11.1379C2.50614 12.5813 2.00882 14.2592 2.00003 15.975C1.98685 20.8272 5.92008 24.8745 10.7681 24.9971C12.2341 25.0364 13.6872 24.7151 15 24.0615V19.618L9.55283 16.8944C9.43526 16.8358 9.33041 16.7545 9.24426 16.6553C9.15812 16.5561 9.09236 16.4409 9.05076 16.3162C9.00916 16.1916 8.99253 16.06 9.00182 15.929C9.01111 15.7979 9.04613 15.6699 9.10489 15.5524C9.16365 15.4349 9.24499 15.3301 9.34426 15.2441C9.44354 15.158 9.5588 15.0923 9.68347 15.0508C9.80813 15.0093 9.93975 14.9928 10.0708 15.0022C10.2019 15.0116 10.3298 15.0467 10.4472 15.1056L15 17.382V11C15 10.7348 15.1054 10.4804 15.2929 10.2929C15.4805 10.1054 15.7348 10 16 10C16.2652 10 16.5196 10.1054 16.7071 10.2929C16.8947 10.4804 17 10.7348 17 11V14.382L21.5528 12.1056C21.6703 12.0467 21.7982 12.0116 21.9293 12.0022C22.0603 11.9928 22.1919 12.0093 22.3166 12.0508C22.4413 12.0923 22.5565 12.158 22.6558 12.2441C22.7551 12.3301 22.8364 12.4349 22.8952 12.5524C22.9539 12.6699 22.989 12.7979 22.9982 12.929C23.0075 13.06 22.9909 13.1916 22.9493 13.3162C22.9077 13.4409 22.8419 13.5561 22.7558 13.6553C22.6697 13.7545 22.5648 13.8358 22.4472 13.8944L17 16.618V24.0615C18.2423 24.6805 19.6117 25.0018 20.9997 25C21.0771 25 21.1546 24.999 21.2322 24.9971C26.0802 24.8744 30.0135 20.8269 30 15.9745C29.9912 14.2589 29.4939 12.5813 28.5664 11.1379C27.6388 9.69462 26.3195 8.54531 24.7626 7.82447V7.82447Z" fill="black"/>
</svg>
