<svg   viewBox="0 0 32 32" fill="none" xmlns="http://www.w3.org/2000/svg">
<path d="M29.4262 17.355C29.2388 17.558 29.0115 17.7202 28.7585 17.8312C28.5055 17.9422 28.2323 17.9997 27.956 18H16.9978V25C16.9978 25.5304 17.2085 26.0391 17.5836 26.4142C17.9587 26.7893 18.4674 27 18.9978 27C19.5283 27 20.037 26.7893 20.412 26.4142C20.7871 26.0391 20.9978 25.5304 20.9978 25C20.9978 24.7348 21.1032 24.4804 21.2907 24.2929C21.4783 24.1054 21.7326 24 21.9978 24C22.263 24 22.5174 24.1054 22.7049 24.2929C22.8925 24.4804 22.9978 24.7348 22.9978 25C22.9978 26.0609 22.5764 27.0783 21.8263 27.8284C21.0761 28.5786 20.0587 29 18.9978 29C17.937 29 16.9196 28.5786 16.1694 27.8284C15.4193 27.0783 14.9978 26.0609 14.9978 25V18H4.03964C3.76261 17.9997 3.48866 17.942 3.23509 17.8304C2.98153 17.7188 2.75387 17.5558 2.56652 17.3517C2.37916 17.1477 2.23618 16.907 2.14662 16.6448C2.05705 16.3827 2.02285 16.1048 2.04617 15.8287C2.34011 12.3308 3.93731 9.07082 6.52131 6.69486C9.1053 4.31889 12.4875 3.00027 15.9978 3.00027C19.5081 3.00027 22.8904 4.31889 25.4744 6.69486C28.0584 9.07082 29.6556 12.3308 29.9495 15.8287C29.9722 16.1055 29.9374 16.3839 29.8474 16.6466C29.7573 16.9092 29.6139 17.1504 29.4262 17.355V17.355Z" fill="black"/>
</svg>
