<svg viewBox="0 0 32 32" xmlns="http://www.w3.org/2000/svg">
<path d="M29.9495 15.8287C29.6555 12.3309 28.0584 9.07109 25.4746 6.69511C22.8908 4.31913 19.5089 3.00034 15.9987 3H15.997C12.4868 3.00034 9.10482 4.31913 6.52103 6.69511C3.93724 9.07109 2.34015 12.3309 2.04617 15.8287C2.02285 16.1048 2.05705 16.3827 2.14662 16.6448C2.23618 16.907 2.37916 17.1477 2.56652 17.3517C2.75387 17.5558 2.98153 17.7188 3.23509 17.8304C3.48866 17.942 3.76261 17.9997 4.03964 18H14.9978V25C14.9978 26.0609 15.4193 27.0783 16.1694 27.8284C16.9196 28.5786 17.937 29 18.9978 29C20.0587 29 21.0761 28.5786 21.8263 27.8284C22.5764 27.0783 22.9978 26.0609 22.9978 25C22.9978 24.7348 22.8925 24.4804 22.7049 24.2929C22.5174 24.1054 22.263 24 21.9978 24C21.7326 24 21.4783 24.1054 21.2907 24.2929C21.1032 24.4804 20.9978 24.7348 20.9978 25C20.9978 25.5304 20.7871 26.0391 20.412 26.4142C20.037 26.7893 19.5283 27 18.9978 27C18.4674 27 17.9587 26.7893 17.5836 26.4142C17.2085 26.0391 16.9978 25.5304 16.9978 25V18H27.956C28.2331 17.9997 28.507 17.942 28.7606 17.8304C29.0141 17.7188 29.2418 17.5558 29.4292 17.3517C29.6165 17.1477 29.7595 16.907 29.8491 16.6448C29.9386 16.3827 29.9728 16.1048 29.9495 15.8287V15.8287ZM4.03933 15.994C4.25556 13.4231 5.2948 10.9904 7.00286 9.05674C8.71092 7.12312 10.9968 5.79161 13.5214 5.25977C12.0569 7.25714 10.2285 10.7662 10.0185 16H4.03964L4.03933 15.994ZM21.9771 16C21.7672 10.7662 19.9387 7.25714 18.4743 5.25977C20.9998 5.79171 23.2865 7.12404 24.9946 9.0589C26.7028 10.9938 27.7413 13.428 27.956 16H21.9771Z"/>
</svg>
