<svg viewBox="0 0 32 32" xmlns="http://www.w3.org/2000/svg">
<path d="M4.2174 9.62038C4.05272 9.41361 3.97677 9.14997 4.00621 8.88728C4.03565 8.6246 4.16808 8.38431 4.37444 8.21913C5.46194 7.42208 6.69633 6.848 8.00658 6.52992C10.0271 6.02467 13.1503 5.89894 16.5538 8.16798C21.8454 11.6959 26.1949 8.36037 26.3774 8.21669C26.585 8.05264 26.8491 7.97751 27.1119 8.00775C27.3747 8.03798 27.6148 8.17113 27.7797 8.37803C27.9445 8.58493 28.0207 8.84872 27.9915 9.11165C27.9623 9.37458 27.8301 9.61523 27.6238 9.7809C26.5363 10.5779 25.3019 11.152 23.9917 11.4701C23.1858 11.672 22.3582 11.7743 21.5273 11.7748C19.7723 11.7748 17.6683 11.3146 15.4444 9.83204C10.1528 6.30421 5.8034 9.63966 5.62084 9.78334C5.41281 9.94704 5.14846 10.0218 4.88552 9.99125C4.62257 9.96071 4.38238 9.82739 4.2174 9.62038V9.62038ZM26.3774 15.2167C26.1949 15.3604 21.8454 18.6958 16.5538 15.168C13.1503 12.8991 10.0271 13.0244 8.00658 13.5299C6.69633 13.848 5.46194 14.4221 4.37444 15.2191C4.16819 15.3848 4.03598 15.6254 4.00677 15.8884C3.97756 16.1513 4.05373 16.4151 4.21859 16.622C4.38345 16.8289 4.62358 16.962 4.88639 16.9923C5.14921 17.0225 5.4133 16.9474 5.62084 16.7833C5.8034 16.6397 10.1528 13.3041 15.4444 16.832C17.6683 18.3146 19.7723 18.7748 21.5273 18.7748C23.7184 18.7665 25.8513 18.0689 27.6238 16.7809C27.8301 16.6152 27.9623 16.3746 27.9915 16.1117C28.0207 15.8487 27.9445 15.5849 27.7797 15.378C27.6148 15.1711 27.3747 15.038 27.1119 15.0077C26.8491 14.9775 26.585 15.0526 26.3774 15.2167L26.3774 15.2167ZM26.3774 22.2167C26.1949 22.3605 21.8454 25.6957 16.5538 22.168C13.1503 19.8988 10.0271 20.0246 8.00658 20.5299C6.69633 20.848 5.46194 21.4221 4.37444 22.2191C4.16819 22.3848 4.03598 22.6254 4.00677 22.8884C3.97756 23.1513 4.05373 23.4151 4.21859 23.622C4.38345 23.8289 4.62358 23.962 4.88639 23.9923C5.14921 24.0225 5.4133 23.9474 5.62084 23.7833C5.8034 23.6395 10.1528 20.304 15.4444 23.832C17.6683 25.3146 19.7723 25.7748 21.5273 25.7748C23.7184 25.7665 25.8513 25.0689 27.6238 23.7809C27.8301 23.6152 27.9623 23.3746 27.9915 23.1117C28.0207 22.8487 27.9445 22.5849 27.7797 22.378C27.6148 22.1711 27.3747 22.038 27.1119 22.0077C26.8491 21.9775 26.585 22.0526 26.3774 22.2167L26.3774 22.2167Z"/>
</svg>
