<svg viewBox="0 0 32 32" xmlns="http://www.w3.org/2000/svg">
<path d="M23 23C22.9999 23.9386 22.6697 24.8473 22.0673 25.5671C21.4648 26.2869 20.6285 26.7719 19.7046 26.9374C18.7806 27.1028 17.8279 26.9381 17.0132 26.4721C16.1984 26.006 15.5735 25.2683 15.2477 24.3881C15.2021 24.2649 15.1812 24.134 15.1863 24.0027C15.1913 23.8715 15.2221 23.7426 15.277 23.6232C15.3318 23.5039 15.4097 23.3966 15.506 23.3074C15.6024 23.2181 15.7153 23.1487 15.8385 23.1032C15.9617 23.0576 16.0926 23.0367 16.2238 23.0417C16.3551 23.0468 16.484 23.0776 16.6033 23.1324C16.7226 23.1873 16.83 23.2651 16.9192 23.3615C17.0085 23.4578 17.0778 23.5708 17.1234 23.694C17.2502 24.0368 17.4684 24.3383 17.7544 24.5659C18.0405 24.7934 18.3834 24.9382 18.746 24.9845C19.1085 25.0309 19.4768 24.977 19.8109 24.8288C20.145 24.6806 20.4321 24.4436 20.641 24.1437C20.8499 23.8438 20.9727 23.4924 20.9959 23.1276C21.0192 22.7629 20.9421 22.3987 20.7729 22.0747C20.6038 21.7507 20.3491 21.4792 20.0366 21.2897C19.724 21.1003 19.3655 21.0001 19 21H5C4.73478 21 4.48043 20.8946 4.29289 20.7071C4.10536 20.5196 4 20.2652 4 20C4 19.7348 4.10536 19.4804 4.29289 19.2929C4.48043 19.1054 4.73478 19 5 19H19C20.0605 19.0012 21.0772 19.423 21.8271 20.1729C22.577 20.9228 22.9988 21.9395 23 23V23ZM15 13C15.7308 12.9998 16.4476 12.7995 17.0726 12.4206C17.6976 12.0418 18.2068 11.499 18.545 10.8511C18.8832 10.2033 19.0375 9.47515 18.991 8.7458C18.9446 8.01646 18.6992 7.31378 18.2816 6.71406C17.8639 6.11434 17.2899 5.6405 16.622 5.344C15.954 5.0475 15.2176 4.93966 14.4926 5.0322C13.7677 5.12474 13.082 5.41411 12.5099 5.86891C11.9378 6.3237 11.5013 6.92653 11.2477 7.61194C11.2021 7.7351 11.1812 7.86604 11.1863 7.99726C11.1913 8.12849 11.2221 8.25744 11.277 8.37676C11.3318 8.49607 11.4097 8.60341 11.506 8.69265C11.6024 8.78189 11.7153 8.85128 11.8385 8.89685C11.9617 8.94243 12.0926 8.9633 12.2238 8.95827C12.3551 8.95324 12.484 8.92242 12.6033 8.86756C12.7226 8.81269 12.83 8.73487 12.9192 8.63852C13.0085 8.54217 13.0778 8.42919 13.1234 8.30603C13.2502 7.96321 13.4684 7.66166 13.7544 7.43414C14.0405 7.20661 14.3834 7.06181 14.746 7.01546C15.1085 6.9691 15.4768 7.02297 15.8109 7.17121C16.145 7.31944 16.4321 7.55638 16.641 7.85629C16.8499 8.1562 16.9727 8.50762 16.9959 8.87238C17.0192 9.23714 16.9421 9.6013 16.7729 9.92532C16.6038 10.2493 16.3491 10.5208 16.0366 10.7103C15.724 10.8997 15.3655 10.9999 15 11H3C2.73478 11 2.48043 11.1054 2.29289 11.2929C2.10536 11.4804 2 11.7348 2 12C2 12.2652 2.10536 12.5196 2.29289 12.7071C2.48043 12.8946 2.73478 13 3 13H15ZM26 9C25.1831 9.00215 24.3864 9.25331 23.7159 9.71999C23.0455 10.1867 22.5333 10.8467 22.2477 11.6119C22.2021 11.7351 22.1812 11.866 22.1863 11.9973C22.1913 12.1285 22.2221 12.2574 22.277 12.3768C22.3318 12.4961 22.4097 12.6034 22.506 12.6927C22.6024 12.7819 22.7153 12.8513 22.8385 12.8969C22.9617 12.9424 23.0926 12.9633 23.2238 12.9583C23.3551 12.9532 23.484 12.9224 23.6033 12.8676C23.7226 12.8127 23.83 12.7349 23.9192 12.6385C24.0085 12.5422 24.0778 12.4292 24.1234 12.306C24.2502 11.9632 24.4684 11.6617 24.7544 11.4341C25.0405 11.2066 25.3834 11.0618 25.746 11.0155C26.1085 10.9691 26.4768 11.023 26.8109 11.1712C27.145 11.3194 27.4321 11.5564 27.641 11.8563C27.8499 12.1562 27.9727 12.5076 27.9959 12.8724C28.0192 13.2371 27.9421 13.6013 27.7729 13.9253C27.6038 14.2493 27.3491 14.5208 27.0366 14.7103C26.724 14.8997 26.3655 14.9999 26 15H4C3.73478 15 3.48043 15.1054 3.29289 15.2929C3.10536 15.4804 3 15.7348 3 16C3 16.2652 3.10536 16.5196 3.29289 16.7071C3.48043 16.8946 3.73478 17 4 17H26C27.0609 17 28.0783 16.5786 28.8284 15.8284C29.5786 15.0783 30 14.0609 30 13C30 11.9391 29.5786 10.9217 28.8284 10.1716C28.0783 9.42143 27.0609 9 26 9V9Z"/>
</svg>
