<svg viewBox="0 0 24 24" xmlns="http://www.w3.org/2000/svg">
<g clip-path="url(#clip0_61_16542)">
<path d="M21.9981 3H6.99813C6.30813 3 5.76812 3.35 5.40812 3.88L0.368125 11.45C0.148125 11.79 0.148125 12.22 0.368125 12.56L5.40812 20.12C5.76812 20.64 6.30813 21 6.99813 21H21.9981C23.0981 21 23.9981 20.1 23.9981 19V5C23.9981 3.9 23.0981 3 21.9981 3ZM18.2981 16.3C17.9081 16.69 17.2781 16.69 16.8881 16.3L13.9981 13.41L11.1081 16.3C10.7181 16.69 10.0881 16.69 9.69812 16.3C9.30812 15.91 9.30812 15.28 9.69812 14.89L12.5881 12L9.69812 9.11C9.30812 8.72 9.30812 8.09 9.69812 7.7C10.0881 7.31 10.7181 7.31 11.1081 7.7L13.9981 10.59L16.8881 7.7C17.2781 7.31 17.9081 7.31 18.2981 7.7C18.6881 8.09 18.6881 8.72 18.2981 9.11L15.4081 12L18.2981 14.89C18.6781 15.27 18.6781 15.91 18.2981 16.3Z"/>
</g>
<defs>
<clipPath id="clip0_61_16542">
<rect/>
</clipPath>
</defs>
</svg>
