<svg viewBox="0 0 24 24" xmlns="http://www.w3.org/2000/svg">
<g clip-path="url(#clip0_61_16560)">
<path d="M3.72062 6.04C4.19062 6.5 4.93062 6.52 5.43062 6.1C5.80062 5.78 6.12063 5.59 6.30063 5.67C6.80063 5.87 6.30062 6.7 6.00062 7.19C5.75062 7.61 3.14062 11.08 3.14062 13.5C3.14062 14.78 3.62062 15.84 4.48062 16.48C5.23062 17.04 6.22062 17.21 7.12062 16.94C8.19062 16.63 9.07062 15.54 10.1806 14.17C11.3906 12.68 13.0106 10.73 14.2606 10.73C15.8906 10.73 15.9106 11.74 16.0206 12.52C12.2406 13.16 10.6406 16.19 10.6406 17.89C10.6406 19.59 12.0806 20.98 13.8506 20.98C15.4806 20.98 18.1406 19.65 18.5406 14.88H19.7506C20.4406 14.88 21.0006 14.32 21.0006 13.63C21.0006 12.94 20.4406 12.38 19.7506 12.38H18.5306C18.3806 10.73 17.4406 8.18 14.5006 8.18C12.2506 8.18 10.3206 10.09 9.56063 11.02C8.98063 11.75 7.50063 13.5 7.27063 13.74C7.02063 14.04 6.59062 14.58 6.16062 14.58C5.71062 14.58 5.44063 13.75 5.80063 12.66C6.15063 11.57 7.20063 9.8 7.65063 9.14C8.43063 8 8.95062 7.22 8.95062 5.86C8.95062 3.69 7.31062 3 6.44062 3C5.35062 3 4.40062 3.63 3.74062 4.22C3.21062 4.7 3.21062 5.54 3.72062 6.04ZM13.8806 18.55C13.5706 18.55 13.1406 18.29 13.1406 17.83C13.1406 17.23 13.8706 15.63 16.0106 15.07C15.7106 17.76 14.5806 18.55 13.8806 18.55V18.55Z"/>
</g>
<defs>
<clipPath id="clip0_61_16560">
<rect/>
</clipPath>
</defs>
</svg>
