<svg viewBox="0 0 24 24" xmlns="http://www.w3.org/2000/svg">
<g clip-path="url(#clip0_61_16561)">
<path d="M12 20L11.14 19.14C9.96 17.96 9.97 16.04 11.16 14.88L12 14.06C11.61 14.02 11.32 14 11 14C8.33 14 3 15.34 3 18V20H12ZM11 12C13.21 12 15 10.21 15 8C15 5.79 13.21 4 11 4C8.79 4 7 5.79 7 8C7 10.21 8.79 12 11 12Z"/>
<path d="M16.1813 19.7802C15.7913 20.1702 15.1513 20.1702 14.7613 19.7802L12.6912 17.6902C12.3113 17.3002 12.3113 16.6802 12.6912 16.3002L12.7013 16.2902C13.0913 15.9002 13.7213 15.9002 14.1013 16.2902L15.4713 17.6602L19.9012 13.2002C20.2912 12.8102 20.9212 12.8102 21.3112 13.2002L21.3212 13.2102C21.7012 13.6002 21.7012 14.2202 21.3212 14.6002L16.1813 19.7802Z"/>
</g>
<defs>
<clipPath id="clip0_61_16561">
<rect/>
</clipPath>
</defs>
</svg>
