<svg   viewBox="0 0 24 24" fill="none" xmlns="http://www.w3.org/2000/svg">
<g clip-path="url(#clip0_61_16562)">
<path d="M11.34 15.0198C11.73 15.4098 12.36 15.4098 12.75 15.0198L19.11 8.6598C19.5 8.2698 19.5 7.6398 19.11 7.2498L14.16 2.2998C13.78 1.8998 13.15 1.8998 12.76 2.2898L6.39 8.6598C6 9.0498 6 9.6798 6.39 10.0698L11.34 15.0198ZM13.46 4.4098L17 7.9498L12.05 12.8998L8.51 9.3598L13.46 4.4098V4.4098ZM20.41 15.4098L18.29 13.2898C18.11 13.1098 17.85 12.9998 17.59 12.9998H17.32L15.32 14.9998H17.23L19 16.9998H5L6.78 14.9998H8.83L6.83 12.9998H6.41C6.14 12.9998 5.89 13.1098 5.7 13.2898L3.58 15.4098C3.21 15.7898 3 16.2998 3 16.8298V19.9998C3 21.0998 3.9 21.9998 5 21.9998H19C20.1 21.9998 21 21.1098 21 19.9998V16.8298C21 16.2998 20.79 15.7898 20.41 15.4098V15.4098Z" fill="black"/>
</g>
<defs>
<clipPath id="clip0_61_16562">
<rect width="24" height="24" fill="white"/>
</clipPath>
</defs>
</svg>
