<svg viewBox="0 0 24 24" xmlns="http://www.w3.org/2000/svg">
<g clip-path="url(#clip0_61_16566)">
<path d="M21.9363 11.2301C21.5663 8.76008 19.3163 7.00008 16.8163 7.00008H13.9463C13.4263 7.00008 12.9963 7.43008 12.9963 7.95008C12.9963 8.47008 13.4263 8.90008 13.9463 8.90008H16.8463C18.4463 8.90008 19.8863 10.0401 20.0663 11.6301C20.2363 13.0601 19.4263 14.3201 18.2163 14.8501L19.6163 16.2501C21.2463 15.2301 22.2563 13.3401 21.9363 11.2301V11.2301ZM4.11629 3.56008C3.72629 3.17008 3.09629 3.17008 2.70629 3.56008C2.31629 3.95008 2.31629 4.58008 2.70629 4.97008L5.10629 7.37008C3.16629 8.17008 1.83629 10.1401 2.01629 12.4101C2.22629 15.0501 4.58629 17.0001 7.22629 17.0001H10.0463C10.5663 17.0001 10.9963 16.5701 10.9963 16.0501C10.9963 15.5301 10.5663 15.1001 10.0463 15.1001H7.15629C5.52629 15.1001 4.05629 13.9101 3.90629 12.2801C3.75629 10.5601 5.01629 9.11008 6.65629 8.93008L8.75629 11.0301C8.32629 11.1201 7.99629 11.4901 7.99629 11.9501V12.0501C7.99629 12.5701 8.42629 13.0001 8.94629 13.0001H10.7263L12.9963 15.2701V17.0001H14.7263L18.0263 20.3001C18.4163 20.6901 19.0463 20.6901 19.4363 20.3001C19.8263 19.9101 19.8263 19.2801 19.4363 18.8901L4.11629 3.56008ZM15.9963 11.9501C15.9963 11.4301 15.5663 11.0001 15.0463 11.0001H14.3863L15.8763 12.4901C15.9463 12.3601 15.9963 12.2101 15.9963 12.0501V11.9501V11.9501Z"/>
</g>
<defs>
<clipPath id="clip0_61_16566">
<rect/>
</clipPath>
</defs>
</svg>
