<svg viewBox="0 0 24 24" xmlns="http://www.w3.org/2000/svg">
<g clip-path="url(#clip0_61_16567)">
<path d="M14.9971 5H20.9971C21.5471 5 21.9971 5.45 21.9971 6C21.9971 6.55 21.5471 7 20.9971 7H14.9971C14.4471 7 13.9971 6.55 13.9971 6C13.9971 5.45 14.4471 5 14.9971 5ZM14.9971 10.5H20.9971C21.5471 10.5 21.9971 10.95 21.9971 11.5C21.9971 12.05 21.5471 12.5 20.9971 12.5H14.9971C14.4471 12.5 13.9971 12.05 13.9971 11.5C13.9971 10.95 14.4471 10.5 14.9971 10.5ZM14.9971 16H20.9971C21.5471 16 21.9971 16.45 21.9971 17C21.9971 17.55 21.5471 18 20.9971 18H14.9971C14.4471 18 13.9971 17.55 13.9971 17C13.9971 16.45 14.4471 16 14.9971 16ZM9.84713 19.15L11.6371 17.36C11.8371 17.16 11.8371 16.85 11.6371 16.65L9.84713 14.86C9.53713 14.54 8.99713 14.76 8.99713 15.21V18.8C8.99713 19.24 9.53713 19.46 9.84713 19.15V19.15ZM8.99713 16H8.69713C6.34713 16 4.24713 14.29 4.01713 11.95C3.75713 9.27 5.86713 7 8.49713 7H10.9971C11.5471 7 11.9971 6.55 11.9971 6C11.9971 5.45 11.5471 5 10.9971 5H8.49713C4.63713 5 1.53713 8.4 2.05713 12.36C2.47713 15.64 5.42713 18 8.72713 18H8.99713"/>
</g>
<defs>
<clipPath id="clip0_61_16567">
<rect/>
</clipPath>
</defs>
</svg>
