<svg viewBox="0 0 24 24" xmlns="http://www.w3.org/2000/svg">
<g clip-path="url(#clip0_61_16575)">
<path d="M18.403 10.6C16.553 8.99 14.153 8 11.503 8C7.34297 8 3.76297 10.42 2.06297 13.93C1.74297 14.6 2.10297 15.4 2.81297 15.64C3.40297 15.84 4.04297 15.56 4.31297 15C5.61297 12.34 8.34297 10.5 11.503 10.5C13.453 10.5 15.233 11.22 16.623 12.38L14.713 14.29C14.083 14.92 14.523 16 15.413 16H21.003C21.553 16 22.003 15.55 22.003 15V9.41C22.003 8.52 20.923 8.07 20.293 8.7L18.403 10.6Z"/>
</g>
<defs>
<clipPath id="clip0_61_16575">
<rect/>
</clipPath>
</defs>
</svg>
