<svg   viewBox="0 0 24 24" fill="none" xmlns="http://www.w3.org/2000/svg">
<g clip-path="url(#clip0_61_16580)">
<path d="M6.99656 7.55977C6.99656 6.61977 5.85656 6.13977 5.18656 6.80977L0.706562 11.2898C0.316563 11.6798 0.316563 12.3098 0.706562 12.6998L5.18656 17.1798C5.85656 17.8598 6.99656 17.3798 6.99656 16.4398C6.99656 16.1598 6.88656 15.8898 6.68656 15.6898L2.99656 11.9998L6.68656 8.30977C6.88656 8.10977 6.99656 7.83977 6.99656 7.55977V7.55977ZM12.9966 8.99977V7.40977C12.9966 6.51977 11.9166 6.06977 11.2866 6.69977L6.69656 11.2898C6.30656 11.6798 6.30656 12.3098 6.69656 12.6998L11.2866 17.2898C11.9166 17.9198 12.9966 17.4698 12.9966 16.5798V14.8998C17.9966 14.8998 21.4966 16.4998 23.9966 19.9998C22.9966 14.9998 19.9966 9.99977 12.9966 8.99977Z" fill="black"/>
</g>
<defs>
<clipPath id="clip0_61_16580">
<rect width="24" height="24" fill="white"/>
</clipPath>
</defs>
</svg>
