<svg   viewBox="0 0 24 24" fill="none" xmlns="http://www.w3.org/2000/svg">
<g clip-path="url(#clip0_61_16593)">
<path d="M17 16.9902C15.65 16.9902 14.8 17.4102 14.05 17.7902C13.4 18.1202 12.87 18.3902 12 18.3902C11.1 18.3902 10.6 18.1402 9.95 17.7902C9.2 17.4102 8.38 16.9902 7 16.9902C5.62 16.9902 4.8 17.4102 4.05 17.7902C3.62 18.0102 3.24 18.2002 2.78 18.3102C2.33 18.4102 2 18.7702 2 19.2202V19.3202C2 19.9202 2.56 20.3502 3.14 20.2302C3.88 20.0802 4.44 19.8002 4.95 19.5402C5.6 19.2102 6.12 18.9402 7 18.9402C7.88 18.9402 8.4 19.1902 9.05 19.5402C9.8 19.9202 10.62 20.3402 12 20.3402C13.38 20.3402 14.2 19.9202 14.95 19.5402C15.6 19.2102 16.13 18.9402 17 18.9402C17.9 18.9402 18.4 19.1902 19.05 19.5402C19.57 19.8002 20.13 20.0902 20.88 20.2402C21.46 20.3502 22 19.9102 22 19.3302V19.2402C22 18.7802 21.66 18.4202 21.21 18.3202C20.75 18.2202 20.38 18.0302 19.95 17.8002C19.2 17.4102 18.35 16.9902 17 16.9902V16.9902ZM17 12.5402C15.65 12.5402 14.8 12.9702 14.05 13.3402C13.4 13.6602 12.87 13.9402 12 13.9402C11.1 13.9402 10.6 13.6902 9.95 13.3402C9.2 12.9602 8.38 12.5402 7 12.5402C5.62 12.5402 4.8 12.9702 4.05 13.3402C3.62 13.5502 3.24 13.7502 2.77 13.8602C2.33 13.9602 2 14.3202 2 14.7702V14.8702C2 15.4602 2.54 15.9002 3.12 15.7802C3.87 15.6302 4.43 15.3402 4.95 15.0902C5.6 14.7402 6.1 14.4902 7 14.4902C7.9 14.4902 8.4 14.7402 9.05 15.0902C9.8 15.4702 10.62 15.8902 12 15.8902C13.38 15.8902 14.2 15.4602 14.95 15.0902C15.6 14.7402 16.1 14.4902 17 14.4902C17.9 14.4902 18.4 14.7402 19.05 15.0902C19.57 15.3502 20.13 15.6402 20.88 15.7902C21.46 15.9002 22 15.4602 22 14.8702V14.7802C22 14.3202 21.66 13.9602 21.21 13.8602C20.75 13.7602 20.38 13.5702 19.95 13.3402C19.2 12.9602 18.35 12.5402 17 12.5402V12.5402ZM19.95 4.46016C19.2 4.08016 18.37 3.66016 17 3.66016C15.63 3.66016 14.8 4.08016 14.05 4.46016C13.4 4.78016 12.87 5.06016 12 5.06016C11.1 5.06016 10.6 4.81016 9.95 4.46016C9.2 4.09016 8.38 3.66016 7 3.66016C5.62 3.66016 4.8 4.08016 4.05 4.46016C3.62 4.68016 3.24 4.87016 2.78 4.98016C2.33 5.08016 2 5.44016 2 5.89016V5.96016C2 6.56016 2.54 7.00016 3.12 6.88016C3.87 6.73016 4.43 6.44016 4.95 6.19016C5.6 5.86016 6.12 5.59016 7 5.59016C7.88 5.59016 8.4 5.84016 9.05 6.19016C9.8 6.57016 10.62 6.99016 12 6.99016C13.38 6.99016 14.2 6.56016 14.95 6.19016C15.6 5.87016 16.13 5.59016 17 5.59016C17.9 5.59016 18.4 5.84016 19.05 6.19016C19.57 6.45016 20.13 6.74016 20.88 6.89016C21.46 7.00016 22 6.56016 22 5.97016V5.88016C22 5.42016 21.66 5.06016 21.21 4.96016C20.75 4.86016 20.38 4.68016 19.95 4.46016V4.46016ZM17 8.09016C15.65 8.09016 14.8 8.52016 14.05 8.89016C13.4 9.24016 12.9 9.49016 12 9.49016C11.1 9.49016 10.6 9.24016 9.95 8.89016C9.2 8.51016 8.38 8.09016 7 8.09016C5.62 8.09016 4.8 8.52016 4.05 8.89016C3.62 9.12016 3.25 9.31016 2.79 9.41016C2.34 9.51016 2 9.87016 2 10.3302V10.4202C2 11.0102 2.54 11.4502 3.12 11.3302C3.87 11.1802 4.43 10.8902 4.95 10.6402C5.6 10.3202 6.13 10.0402 7 10.0402C7.87 10.0402 8.4 10.2902 9.05 10.6402C9.8 11.0202 10.62 11.4402 12 11.4402C13.38 11.4402 14.2 11.0102 14.95 10.6402C15.6 10.3202 16.13 10.0402 17 10.0402C17.9 10.0402 18.4 10.2902 19.05 10.6402C19.57 10.9002 20.13 11.1902 20.88 11.3402C21.46 11.4502 22 11.0102 22 10.4302V10.3402C22 9.88016 21.66 9.52016 21.21 9.42016C20.75 9.32016 20.38 9.13016 19.95 8.90016C19.2 8.51016 18.35 8.09016 17 8.09016V8.09016Z" fill="black"/>
</g>
<defs>
<clipPath id="clip0_61_16593">
<rect width="24" height="24" fill="white"/>
</clipPath>
</defs>
</svg>
