<svg viewBox="0 0 32 32" xmlns="http://www.w3.org/2000/svg">
<path d="M16 28C22.6274 28 28 22.6274 28 16C28 9.37258 22.6274 4 16 4C9.37258 4 4 9.37258 4 16C4 22.6274 9.37258 28 16 28Z" stroke-width="2" stroke-linecap="round" stroke-linejoin="round"/>
<path d="M21.1484 14.129C21.2529 13.4692 21.412 12.8193 21.6239 12.1859" stroke-width="2" stroke-linecap="round" stroke-linejoin="round"/>
<path d="M21.6239 19.8137C21.4119 19.1803 21.2529 18.5303 21.1484 17.8706" stroke-width="2" stroke-linecap="round" stroke-linejoin="round"/>
<path d="M10.8505 14.129C10.746 13.4692 10.587 12.8193 10.375 12.1859" stroke-width="2" stroke-linecap="round" stroke-linejoin="round"/>
<path d="M10.375 19.8137C10.587 19.1803 10.746 18.5303 10.8504 17.8706" stroke-width="2" stroke-linecap="round" stroke-linejoin="round"/>
<path d="M23.3516 8.86704C23.7018 8.39372 24.0862 7.94665 24.5016 7.52942" stroke-width="2" stroke-linecap="round" stroke-linejoin="round"/>
<path d="M24.5019 24.4706C24.0863 24.0533 23.7019 23.6061 23.3516 23.1326" stroke-width="2" stroke-linecap="round" stroke-linejoin="round"/>
<path d="M7.5 24.4706C7.91557 24.0532 8.30005 23.6061 8.65035 23.1326" stroke-width="2" stroke-linecap="round" stroke-linejoin="round"/>
<path d="M8.65011 8.86706C8.29987 8.39372 7.91547 7.94664 7.5 7.52939" stroke-width="2" stroke-linecap="round" stroke-linejoin="round"/>
</svg>
