<svg   viewBox="0 0 32 32" fill="none" xmlns="http://www.w3.org/2000/svg">
<path d="M16 28C22.6274 28 28 22.6274 28 16C28 9.37258 22.6274 4 16 4C9.37258 4 4 9.37258 4 16C4 22.6274 9.37258 28 16 28Z" stroke="black" stroke-width="2" stroke-linecap="round" stroke-linejoin="round"/>
<path d="M7.5 7.52948C8.61156 8.642 9.49284 9.96278 10.0934 11.4163C10.694 12.8697 11.0021 14.4274 11 16C11.0021 17.5727 10.694 19.1303 10.0934 20.5837C9.49288 22.0372 8.61163 23.3579 7.50009 24.4705" stroke="black" stroke-width="2" stroke-linecap="round" stroke-linejoin="round"/>
<path d="M24.5 7.52948C22.2586 9.77869 21 12.8246 21 16C21 19.1753 22.2585 22.2212 24.4999 24.4705" stroke="black" stroke-width="2" stroke-linecap="round" stroke-linejoin="round"/>
<path d="M4 16H28" stroke="black" stroke-width="2" stroke-linecap="round" stroke-linejoin="round"/>
<path d="M16 4V28" stroke="black" stroke-width="2" stroke-linecap="round" stroke-linejoin="round"/>
</svg>
