<svg   viewBox="0 0 32 32" fill="none" xmlns="http://www.w3.org/2000/svg">
<path d="M14.0634 22.3943C13.3709 23.2043 12.475 23.8152 11.468 24.1641C10.461 24.5129 9.37922 24.5871 8.33401 24.379C7.28879 24.1709 6.31791 23.688 5.52128 22.9801C4.72466 22.2722 4.13106 21.3648 3.80159 20.3512C3.47213 19.3377 3.41869 18.2547 3.64678 17.2137C3.87486 16.1726 4.37624 15.2112 5.09931 14.4283C5.82237 13.6454 6.741 13.0693 7.76065 12.7593C8.7803 12.4493 9.86413 12.4166 10.9006 12.6646L10.9005 12.665C10.3367 11.7563 10.026 10.7135 10.0005 9.64436C9.97506 8.57526 10.2358 7.51879 10.7558 6.58431C11.2757 5.64982 12.036 4.87128 12.9578 4.32928C13.8797 3.78728 14.9297 3.50151 15.9991 3.50156C17.0685 3.5016 18.1184 3.78747 19.0403 4.32955C19.9621 4.87164 20.7223 5.65024 21.2421 6.58478C21.762 7.51931 22.0226 8.5758 21.9971 9.6449C21.9716 10.714 21.6607 11.7568 21.0968 12.6655L21.0959 12.6649C22.1332 12.4155 23.2183 12.4471 24.2393 12.7565C25.2603 13.0659 26.1804 13.6419 26.9047 14.4252C27.6291 15.2085 28.1315 16.1708 28.3602 17.2128C28.5889 18.2549 28.5357 19.3391 28.206 20.3538C27.8763 21.3684 27.282 22.2768 26.4844 22.9854C25.6868 23.694 24.7147 24.1771 23.6683 24.385C22.6219 24.5929 21.539 24.518 20.5311 24.1681C19.5232 23.8183 18.6268 23.206 17.9343 22.3945L19.9988 29H11.9988L14.0634 22.3943Z" stroke="black" stroke-width="2" stroke-linecap="round" stroke-linejoin="round"/>
</svg>
