<svg viewBox="0 0 32 32" xmlns="http://www.w3.org/2000/svg">
<path d="M5.64464 24.5021C5.67582 24.6335 5.73327 24.7573 5.81352 24.866C5.89378 24.9747 5.9952 25.066 6.11167 25.1344C6.22814 25.2029 6.35725 25.2471 6.49124 25.2643C6.62523 25.2816 6.76133 25.2716 6.89134 25.2349C12.8525 23.5889 19.1481 23.5884 25.1096 25.2331C25.2396 25.2698 25.3756 25.2798 25.5095 25.2626C25.6435 25.2453 25.7725 25.2011 25.889 25.1327C26.0054 25.0643 26.1068 24.973 26.1871 24.8644C26.2673 24.7558 26.3248 24.6321 26.356 24.5007L29.5421 10.9611C29.5847 10.7798 29.5759 10.5903 29.5167 10.4137C29.4574 10.2372 29.35 10.0808 29.2066 9.96196C29.0632 9.84317 28.8895 9.76677 28.7051 9.74137C28.5206 9.71598 28.3327 9.74259 28.1625 9.81822L21.8396 12.6284C21.6113 12.7299 21.3532 12.7422 21.1163 12.663C20.8793 12.5837 20.6806 12.4187 20.5593 12.2003L16.8777 5.57347C16.7911 5.41758 16.6644 5.28768 16.5107 5.19724C16.357 5.1068 16.1819 5.05911 16.0036 5.05911C15.8252 5.05911 15.6501 5.1068 15.4964 5.19724C15.3427 5.28768 15.216 5.41758 15.1294 5.57347L11.4479 12.2003C11.3265 12.4187 11.1278 12.5837 10.8909 12.663C10.6539 12.7422 10.3959 12.7299 10.1676 12.6284L3.84364 9.81779C3.67351 9.74218 3.48566 9.71556 3.30122 9.74094C3.11679 9.76631 2.94309 9.84266 2.7997 9.9614C2.65631 10.0801 2.54892 10.2366 2.4896 10.413C2.43029 10.5895 2.42142 10.779 2.46399 10.9603L5.64464 24.5021Z" stroke-width="2" stroke-linecap="round" stroke-linejoin="round"/>
<path d="M12 20.2098C14.6593 19.9301 17.3407 19.9301 20 20.2098" stroke-width="2" stroke-linecap="round" stroke-linejoin="round"/>
</svg>
