<svg   viewBox="0 0 32 32" fill="none" xmlns="http://www.w3.org/2000/svg">
<path d="M24 5H8C6.34315 5 5 6.34315 5 8V24C5 25.6569 6.34315 27 8 27H24C25.6569 27 27 25.6569 27 24V8C27 6.34315 25.6569 5 24 5Z" stroke="black" stroke-width="2" stroke-linecap="round" stroke-linejoin="round"/>
<path d="M11.5 13C12.3284 13 13 12.3284 13 11.5C13 10.6716 12.3284 10 11.5 10C10.6716 10 10 10.6716 10 11.5C10 12.3284 10.6716 13 11.5 13Z" fill="black"/>
<path d="M20.5 13C21.3284 13 22 12.3284 22 11.5C22 10.6716 21.3284 10 20.5 10C19.6716 10 19 10.6716 19 11.5C19 12.3284 19.6716 13 20.5 13Z" fill="black"/>
<path d="M11.5 22C12.3284 22 13 21.3284 13 20.5C13 19.6716 12.3284 19 11.5 19C10.6716 19 10 19.6716 10 20.5C10 21.3284 10.6716 22 11.5 22Z" fill="black"/>
<path d="M16 17.5C16.8284 17.5 17.5 16.8284 17.5 16C17.5 15.1716 16.8284 14.5 16 14.5C15.1716 14.5 14.5 15.1716 14.5 16C14.5 16.8284 15.1716 17.5 16 17.5Z" fill="black"/>
<path d="M20.5 22C21.3284 22 22 21.3284 22 20.5C22 19.6716 21.3284 19 20.5 19C19.6716 19 19 19.6716 19 20.5C19 21.3284 19.6716 22 20.5 22Z" fill="black"/>
</svg>
