<svg viewBox="0 0 32 32" xmlns="http://www.w3.org/2000/svg">
<path d="M23.0737 23.0711C17.8825 28.2622 10.6743 27.8485 7.20838 27.2615C6.59177 27.1576 6.02286 26.8641 5.5807 26.4219C5.13853 25.9798 4.84507 25.4109 4.74109 24.7942C4.15416 21.3284 3.7404 14.1201 8.93154 8.92895C14.1227 3.73781 21.331 4.15156 24.7968 4.73849C25.4134 4.84248 25.9824 5.13594 26.4245 5.5781C26.8667 6.02027 27.1601 6.58918 27.2641 7.20579C27.8511 10.6717 28.2648 17.8799 23.0737 23.0711Z" stroke-width="2" stroke-linecap="round" stroke-linejoin="round"/>
<path d="M20 12L12 20" stroke-width="2" stroke-linecap="round" stroke-linejoin="round"/>
<path d="M15.5859 12.7574L19.2428 16.4142" stroke-width="2" stroke-linecap="round" stroke-linejoin="round"/>
<path d="M12.7578 15.5858L16.4147 19.2426" stroke-width="2" stroke-linecap="round" stroke-linejoin="round"/>
<path d="M18.5312 4.52805L27.4752 13.472" stroke-width="2" stroke-linecap="round" stroke-linejoin="round"/>
<path d="M4.53125 18.528L13.4753 27.472" stroke-width="2" stroke-linecap="round" stroke-linejoin="round"/>
</svg>
