<svg   viewBox="0 0 32 32" fill="none" xmlns="http://www.w3.org/2000/svg">
<path d="M19 13.5H23" stroke="black" stroke-width="2" stroke-linecap="round" stroke-linejoin="round"/>
<path d="M9 13.5H13" stroke="black" stroke-width="2" stroke-linecap="round" stroke-linejoin="round"/>
<path d="M11 11.5V15.5" stroke="black" stroke-width="2" stroke-linecap="round" stroke-linejoin="round"/>
<path d="M21.5017 6.96747L10.4999 6.99999C8.97172 7.00011 7.49237 7.53852 6.32159 8.52073C5.1508 9.50293 4.36341 10.8662 4.09762 12.3711L4.09869 12.3713L2.05314 22.8916C1.92393 23.6247 2.03178 24.3798 2.36102 25.0474C2.69025 25.715 3.22373 26.2602 3.88397 26.6039C4.54421 26.9476 5.29683 27.0719 6.03252 26.9587C6.76821 26.8455 7.44866 26.5008 7.97504 25.9745L7.97484 25.9743L13.3793 20L21.5017 19.9675C23.2256 19.9675 24.8789 19.2826 26.0979 18.0637C27.3168 16.8447 28.0017 15.1914 28.0017 13.4675C28.0017 11.7436 27.3168 10.0903 26.0979 8.87127C24.8789 7.65229 23.2256 6.96747 21.5017 6.96747V6.96747Z" stroke="black" stroke-width="2" stroke-linecap="round" stroke-linejoin="round"/>
<path d="M27.9035 12.3388L29.9474 22.8916C30.0766 23.6247 29.9688 24.3798 29.6395 25.0474C29.3103 25.715 28.7768 26.2602 28.1166 26.6039C27.4563 26.9477 26.7037 27.0719 25.968 26.9588C25.2323 26.8456 24.5519 26.5008 24.0255 25.9745L24.0257 25.9743L18.625 19.979" stroke="black" stroke-width="2" stroke-linecap="round" stroke-linejoin="round"/>
</svg>
