<svg viewBox="0 0 32 32" xmlns="http://www.w3.org/2000/svg">
<path d="M12.5 16C13.3284 16 14 15.3284 14 14.5C14 13.6716 13.3284 13 12.5 13C11.6716 13 11 13.6716 11 14.5C11 15.3284 11.6716 16 12.5 16Z"/>
<path d="M19.5 16C20.3284 16 21 15.3284 21 14.5C21 13.6716 20.3284 13 19.5 13C18.6716 13 18 13.6716 18 14.5C18 15.3284 18.6716 16 19.5 16Z"/>
<path d="M27 27L23.3333 24L19.6667 27L16 24L12.3333 27L8.66667 24L5 27V15C5 12.0826 6.15893 9.28473 8.22183 7.22183C10.2847 5.15893 13.0826 4 16 4C18.9174 4 21.7153 5.15893 23.7782 7.22183C25.8411 9.28473 27 12.0826 27 15V27Z" stroke-width="2" stroke-linecap="round" stroke-linejoin="round"/>
</svg>
