<svg   viewBox="0 0 32 32" fill="none" xmlns="http://www.w3.org/2000/svg">
<path d="M16.7071 26.4853L26.8361 16.3563C29.3249 13.8675 29.6921 9.773 27.3369 7.15747C26.7469 6.50042 26.0293 5.97047 25.2278 5.59994C24.4262 5.22941 23.5576 5.02607 22.6749 5.00233C21.7922 4.9786 20.9139 5.13496 20.0936 5.46187C19.2733 5.78879 18.5282 6.27941 17.9038 6.9038L16 8.8076L14.3563 7.16386C11.8675 4.67505 7.77302 4.30787 5.15748 6.66312C4.50044 7.25307 3.97048 7.97071 3.59995 8.77224C3.22942 9.57377 3.02609 10.4424 3.00235 11.3251C2.97861 12.2078 3.13497 13.0861 3.46189 13.9064C3.78881 14.7267 4.27943 15.4718 4.90381 16.0962L15.2929 26.4853C15.4804 26.6728 15.7348 26.7782 16 26.7782C16.2652 26.7782 16.5196 26.6728 16.7071 26.4853V26.4853Z" stroke="black" stroke-width="2" stroke-linecap="round" stroke-linejoin="round"/>
</svg>
