<svg viewBox="0 0 32 32" xmlns="http://www.w3.org/2000/svg">
<path d="M7.99809 27C7.86677 27 7.73673 26.9741 7.6154 26.9239C7.49408 26.8736 7.38384 26.8 7.29098 26.7071C7.19812 26.6142 7.12446 26.504 7.07421 26.3827C7.02395 26.2613 6.99809 26.1313 6.99809 26L6.99815 20.6632C6.46468 20.9158 5.87598 21.0295 5.28679 20.9935C4.69761 20.9575 4.12709 20.7732 3.62831 20.4575C3.12952 20.1418 2.71868 19.7051 2.43398 19.1881C2.14929 18.671 2 18.0903 2 17.5C2 16.9097 2.14929 16.329 2.43398 15.8119C2.71868 15.2949 3.12952 14.8582 3.62831 14.5425C4.12709 14.2268 4.69761 14.0425 5.28679 14.0065C5.87598 13.9705 6.46468 14.0842 6.99815 14.3368L6.99809 9.00001C6.99809 8.86869 7.02395 8.73865 7.07421 8.61732C7.12446 8.49599 7.19812 8.38575 7.29098 8.29289C7.38384 8.20003 7.49409 8.12637 7.61541 8.07612C7.73674 8.02586 7.86678 8 7.99811 8L13.8349 8.00006C13.5823 7.4666 13.4686 6.87789 13.5046 6.28871C13.5405 5.69953 13.7249 5.12901 14.0406 4.63023C14.3562 4.13144 14.7929 3.7206 15.31 3.4359C15.8271 3.15121 16.4078 3.00192 16.9981 3.00192C17.5883 3.00192 18.169 3.15121 18.6861 3.4359C19.2032 3.7206 19.6399 4.13144 19.9556 4.63023C20.2712 5.12901 20.4556 5.69953 20.4916 6.28871C20.5275 6.87789 20.4139 7.4666 20.1612 8.00006L25.998 8C26.2632 8 26.5176 8.10535 26.7051 8.29288C26.8927 8.48042 26.998 8.73477 26.998 8.99999L26.9981 14.3368C26.4646 14.0842 25.8759 13.9705 25.2867 14.0065C24.6976 14.0425 24.127 14.2268 23.6283 14.5425C23.1295 14.8582 22.7186 15.2949 22.4339 15.8119C22.1492 16.329 22 16.9097 22 17.5C22 18.0903 22.1492 18.671 22.4339 19.1881C22.7186 19.7051 23.1295 20.1418 23.6283 20.4575C24.127 20.7732 24.6976 20.9575 25.2867 20.9935C25.8759 21.0295 26.4646 20.9158 26.9981 20.6632L26.998 26C26.998 26.2652 26.8927 26.5196 26.7051 26.7071C26.5176 26.8946 26.2633 27 25.998 27L7.99809 27Z" stroke-width="2" stroke-linecap="round" stroke-linejoin="round"/>
</svg>
