<svg   viewBox="0 0 32 32" fill="none" xmlns="http://www.w3.org/2000/svg">
<path d="M16 3C16 3 28.5 11 28.5 17.5C28.5 18.7366 28.1472 19.9475 27.4831 20.9907C26.819 22.0338 25.8711 22.8659 24.7507 23.3892C23.6303 23.9125 22.3839 24.1054 21.1577 23.9452C19.9315 23.785 18.7765 23.2784 17.8281 22.4847L20 29H12L14.1719 22.4847C13.2235 23.2784 12.0685 23.785 10.8423 23.9452C9.61613 24.1054 8.36969 23.9125 7.24929 23.3892C6.12889 22.8659 5.18101 22.0338 4.51691 20.9907C3.8528 19.9475 3.50003 18.7366 3.5 17.5C3.5 11 16 3 16 3Z" stroke="black" stroke-width="2" stroke-linecap="round" stroke-linejoin="round"/>
</svg>
