<svg   viewBox="0 0 32 32" fill="none" xmlns="http://www.w3.org/2000/svg">
<path d="M16 3V23.681" stroke="black" stroke-width="2" stroke-linecap="round" stroke-linejoin="round"/>
<path d="M27.519 14.5731L28.6087 13.6661C29.3515 13.0478 28.9681 11.815 28.0137 11.7531L26.5703 11.6594" stroke="black" stroke-width="2" stroke-linecap="round" stroke-linejoin="round"/>
<path d="M23.019 21.1105L22.6048 19.481C22.5535 19.2815 22.5596 19.0715 22.6223 18.8752C22.685 18.6789 22.8019 18.5044 22.9595 18.3716L24.2135 17.3278" stroke="black" stroke-width="2" stroke-linecap="round" stroke-linejoin="round"/>
<path d="M22.2738 11.3805L20.6318 11.2739C20.4329 11.2597 20.2422 11.1893 20.0818 11.0709C19.9214 10.9525 19.7979 10.791 19.7258 10.6051L19.0884 9.00001L16.9722 3.67097C16.8974 3.4737 16.7643 3.30387 16.5906 3.18403C16.417 3.06418 16.211 3 16 3C15.789 3 15.583 3.06418 15.4094 3.18403C15.2357 3.30387 15.1026 3.4737 15.0278 3.67097L12.2742 10.6051C12.2021 10.791 12.0786 10.9525 11.9182 11.0709C11.7578 11.1893 11.5671 11.2597 11.3682 11.2739L3.98525 11.7531C3.03087 11.815 2.64746 13.0478 3.3903 13.6661L9.04371 18.3716C9.20126 18.5044 9.31813 18.6789 9.38088 18.8752C9.44362 19.0715 9.4497 19.2815 9.39841 19.481L7.70918 26.1261C7.42222 27.2549 8.62287 28.1661 9.58991 27.5534L15.4486 23.8416C15.6134 23.7367 15.8047 23.681 16 23.681C16.1953 23.681 16.3866 23.7367 16.5514 23.8416L17.9909 24.7536" stroke="black" stroke-width="2" stroke-linecap="round" stroke-linejoin="round"/>
<path d="M21.625 27.0577L22.8532 27.8358C23.6591 28.3464 24.6596 27.587 24.4205 26.6463L24.0737 25.2823" stroke="black" stroke-width="2" stroke-linecap="round" stroke-linejoin="round"/>
</svg>
