<svg viewBox="0 0 32 32" xmlns="http://www.w3.org/2000/svg">
<path d="M9.52344 16.5251L19.0234 5.02513L26.9983 5L26.9732 12.9749L15.4732 22.4749" stroke-width="2" stroke-linecap="round" stroke-linejoin="round"/>
<path d="M12.5 19.5L20 12" stroke-width="2" stroke-linecap="round" stroke-linejoin="round"/>
<path d="M10.2665 24.682L6.52389 28.4246C6.43103 28.5175 6.3208 28.5911 6.19947 28.6414C6.07814 28.6917 5.94811 28.7175 5.81679 28.7175C5.68546 28.7175 5.55543 28.6917 5.4341 28.6414C5.31278 28.5911 5.20254 28.5175 5.10968 28.4246L3.57414 26.8891C3.48128 26.7962 3.40763 26.686 3.35737 26.5647C3.30712 26.4433 3.28125 26.3133 3.28125 26.182C3.28125 26.0507 3.30712 25.9206 3.35737 25.7993C3.40763 25.678 3.48128 25.5677 3.57414 25.4749L7.31678 21.7322C7.40964 21.6394 7.4833 21.5291 7.53356 21.4078C7.58381 21.2865 7.60968 21.1564 7.60968 21.0251C7.60968 20.8938 7.58381 20.7638 7.53356 20.6424C7.4833 20.5211 7.40964 20.4109 7.31678 20.318L4.70587 17.7071C4.51834 17.5196 4.41298 17.2652 4.41298 17C4.41298 16.7348 4.51834 16.4804 4.70587 16.2929L6.29166 14.7071C6.4792 14.5196 6.73355 14.4142 6.99877 14.4142C7.26398 14.4142 7.51834 14.5196 7.70587 14.7071L17.2917 24.2929C17.4792 24.4804 17.5846 24.7348 17.5846 25C17.5846 25.2652 17.4792 25.5196 17.2917 25.7071L15.7059 27.2929C15.5183 27.4804 15.264 27.5858 14.9988 27.5858C14.7336 27.5858 14.4792 27.4804 14.2917 27.2929L11.6807 24.682C11.4932 24.4944 11.2389 24.3891 10.9736 24.3891C10.7084 24.3891 10.4541 24.4944 10.2665 24.682V24.682Z" stroke-width="2" stroke-linecap="round" stroke-linejoin="round"/>
</svg>
