<svg   viewBox="0 0 32 32" fill="none" xmlns="http://www.w3.org/2000/svg">
<path d="M16.7597 19.3492C16.6658 19.2397 16.5493 19.1518 16.4183 19.0915C16.2872 19.0312 16.1447 19 16.0004 19C15.8562 19 15.7136 19.0312 15.5825 19.0915C15.4515 19.1517 15.335 19.2397 15.2411 19.3492L9.24076 26.3492C9.11629 26.4944 9.03607 26.6722 9.00962 26.8617C8.98316 27.0511 9.01157 27.2441 9.09149 27.4179C9.17141 27.5916 9.29948 27.7388 9.46051 27.842C9.62154 27.9452 9.80879 28 10 28H22C22.1913 28 22.3785 27.9451 22.5395 27.8419C22.7005 27.7388 22.8286 27.5916 22.9085 27.4178C22.9884 27.2441 23.0168 27.0511 22.9904 26.8617C22.9639 26.6723 22.8838 26.4945 22.7593 26.3492L16.7597 19.3492Z" fill="black"/>
<path d="M26.0004 5H6C5.20463 5.00091 4.4421 5.31727 3.87968 5.87968C3.31727 6.4421 3.00091 7.20463 3 8V22C3.00091 22.7954 3.31727 23.5579 3.87968 24.1203C4.4421 24.6827 5.20463 24.9991 6 25H7.763L13.7229 18.0472C14.0046 17.7187 14.354 17.455 14.7472 17.2743C15.1403 17.0935 15.5679 17 16.0007 17C16.4334 17 16.861 17.0937 17.2541 17.2745C17.6472 17.4554 17.9966 17.7191 18.2782 18.0477L24.2369 25H26.0004C26.7957 24.9991 27.5583 24.6827 28.1207 24.1203C28.6831 23.5579 28.9995 22.7954 29.0004 22V8C28.9995 7.20463 28.6831 6.4421 28.1207 5.87969C27.5583 5.31727 26.7957 5.00091 26.0004 5V5Z" fill="black"/>
</svg>
