<svg viewBox="0 0 32 32" xmlns="http://www.w3.org/2000/svg">
<path d="M29 16C29 13.4288 28.2376 10.9154 26.8091 8.77759C25.3807 6.63975 23.3503 4.97351 20.9749 3.98957C18.5995 3.00563 15.9856 2.74819 13.4638 3.2498C10.9421 3.75141 8.62572 4.98954 6.80764 6.80762C4.98977 8.62547 3.75171 10.9415 3.24998 13.4629C2.74825 15.9843 3.00538 18.5979 3.98885 20.9731C4.97233 23.3484 6.638 25.3788 8.77526 26.8075C10.9125 28.2363 13.4254 28.9992 15.9963 28.9999C15.9975 28.9999 15.9988 29.0002 16 29.0002C16.0027 29.0002 16.0054 28.9999 16.0081 28.9999C19.4545 28.9978 22.759 27.6272 25.1953 25.1895C27.6315 22.7518 29 19.4464 29 16V16ZM6.14696 11.115L12.549 12.2838L5.83137 20.192C5.2381 18.743 4.95945 17.1844 5.01385 15.6196C5.06826 14.0548 5.45449 12.5193 6.14696 11.115V11.115ZM26.1687 11.808C26.762 13.257 27.0406 14.8156 26.9862 16.3804C26.9318 17.9453 26.5456 19.4807 25.8531 20.885L19.451 19.7162L26.1687 11.808ZM25.1588 9.90748L20.9438 14.8695L17.4538 5.09754C19.0066 5.30432 20.4973 5.84042 21.8261 6.66994C23.1549 7.49946 24.2911 8.60327 25.1588 9.90748V9.90748ZM15.304 5.02418L17.4929 11.1533L7.28701 9.29004C7.57539 8.91433 7.88764 8.55755 8.22182 8.22193C10.1104 6.32347 12.631 5.18539 15.304 5.02418V5.02418ZM6.84123 22.0925L11.0562 17.1305L14.5462 26.9025C12.9935 26.6957 11.5028 26.1596 10.174 25.3301C8.84518 24.5006 7.70891 23.3967 6.84122 22.0925L6.84123 22.0925ZM16.6961 26.9758L14.5071 20.8467L17.3924 21.3735L17.3981 21.3745L24.713 22.71C24.4247 23.0857 24.1124 23.4425 23.7782 23.7781C21.8896 25.6765 19.3691 26.8146 16.6961 26.9758H16.6961Z"/>
</svg>
