<svg viewBox="0 0 32 32" xmlns="http://www.w3.org/2000/svg">
<path d="M27 5H5C4.46975 5.00061 3.9614 5.21151 3.58646 5.58646C3.21151 5.9614 3.00061 6.46975 3 7V25C3.00061 25.5302 3.21151 26.0386 3.58646 26.4135C3.9614 26.7885 4.46975 26.9994 5 27H27C27.5302 26.9994 28.0386 26.7885 28.4135 26.4135C28.7885 26.0386 28.9994 25.5302 29 25V7C28.9994 6.46975 28.7885 5.9614 28.4135 5.58646C28.0386 5.21151 27.5302 5.00061 27 5ZM22.5 21H9.5C9.23478 21 8.98043 20.8946 8.79289 20.7071C8.60536 20.5196 8.5 20.2652 8.5 20C8.5 19.7348 8.60536 19.4804 8.79289 19.2929C8.98043 19.1054 9.23478 19 9.5 19H22.5C22.7652 19 23.0196 19.1054 23.2071 19.2929C23.3946 19.4804 23.5 19.7348 23.5 20C23.5 20.2652 23.3946 20.5196 23.2071 20.7071C23.0196 20.8946 22.7652 21 22.5 21ZM22.5 17H9.5C9.23478 17 8.98043 16.8946 8.79289 16.7071C8.60536 16.5196 8.5 16.2652 8.5 16C8.5 15.7348 8.60536 15.4804 8.79289 15.2929C8.98043 15.1054 9.23478 15 9.5 15H22.5C22.7652 15 23.0196 15.1054 23.2071 15.2929C23.3946 15.4804 23.5 15.7348 23.5 16C23.5 16.2652 23.3946 16.5196 23.2071 16.7071C23.0196 16.8946 22.7652 17 22.5 17ZM22.5 13H9.5C9.23478 13 8.98043 12.8946 8.79289 12.7071C8.60536 12.5196 8.5 12.2652 8.5 12C8.5 11.7348 8.60536 11.4804 8.79289 11.2929C8.98043 11.1054 9.23478 11 9.5 11H22.5C22.7652 11 23.0196 11.1054 23.2071 11.2929C23.3946 11.4804 23.5 11.7348 23.5 12C23.5 12.2652 23.3946 12.5196 23.2071 12.7071C23.0196 12.8946 22.7652 13 22.5 13Z"/>
</svg>
