<svg   viewBox="0 0 32 32" fill="none" xmlns="http://www.w3.org/2000/svg">
<path d="M19.001 13C19.001 12.7348 19.1063 12.4804 19.2939 12.2929C19.4814 12.1054 19.7358 12 20.001 12H30.001C30.2662 12 30.5205 12.1054 30.7081 12.2929C30.8956 12.4804 31.001 12.7348 31.001 13C31.001 13.2652 30.8956 13.5196 30.7081 13.7071C30.5205 13.8946 30.2662 14 30.001 14H20.001C19.7358 14 19.4814 13.8946 19.2939 13.7071C19.1063 13.5196 19.001 13.2652 19.001 13V13ZM30.001 16H20.001C19.7358 16 19.4814 16.1054 19.2939 16.2929C19.1063 16.4804 19.001 16.7348 19.001 17C19.001 17.2652 19.1063 17.5196 19.2939 17.7071C19.4814 17.8946 19.7358 18 20.001 18H30.001C30.2662 18 30.5205 17.8946 30.7081 17.7071C30.8956 17.5196 31.001 17.2652 31.001 17C31.001 16.7348 30.8956 16.4804 30.7081 16.2929C30.5205 16.1054 30.2662 16 30.001 16ZM30.001 20H20.001C19.7358 20 19.4814 20.1054 19.2939 20.2929C19.1063 20.4804 19.001 20.7348 19.001 21C19.001 21.2652 19.1063 21.5196 19.2939 21.7071C19.4814 21.8946 19.7358 22 20.001 22H30.001C30.2662 22 30.5205 21.8946 30.7081 21.7071C30.8956 21.5196 31.001 21.2652 31.001 21C31.001 20.7348 30.8956 20.4804 30.7081 20.2929C30.5205 20.1054 30.2662 20 30.001 20ZM30.001 24H9.00098C8.73576 24 8.48141 24.1054 8.29387 24.2929C8.10633 24.4804 8.00098 24.7348 8.00098 25C8.00098 25.2652 8.10633 25.5196 8.29387 25.7071C8.48141 25.8946 8.73576 26 9.00098 26H30.001C30.2662 26 30.5205 25.8946 30.7081 25.7071C30.8956 25.5196 31.001 25.2652 31.001 25C31.001 24.7348 30.8956 24.4804 30.7081 24.2929C30.5205 24.1054 30.2662 24 30.001 24ZM9.99219 22C8.78562 22.0007 7.59938 21.6893 6.5487 21.0961C5.49802 20.5029 4.61862 19.6481 3.99591 18.6146C3.3732 17.5812 3.02836 16.4042 2.99488 15.1981C2.9614 13.992 3.24042 12.7977 3.80484 11.7313C3.23874 11.2782 2.82738 10.6604 2.62761 9.96341C2.42784 9.26637 2.44954 8.52449 2.6897 7.84031C2.92986 7.15614 3.37663 6.56347 3.96824 6.14422C4.55985 5.72498 5.26709 5.49986 5.99219 5.5C6.17961 5.5 6.36327 5.55266 6.52222 5.65198L14.2449 10.4787C14.6154 10.4153 14.9486 10.2152 15.1786 9.9179C15.4086 9.6206 15.5186 9.24778 15.4868 8.87325C15.455 8.49872 15.2838 8.14977 15.007 7.89546C14.7302 7.64115 14.3681 7.50002 13.9922 7.5C13.727 7.5 13.4726 7.39464 13.2851 7.20711C13.0975 7.01957 12.9922 6.76522 12.9922 6.5C12.9922 6.23478 13.0975 5.98043 13.2851 5.79289C13.4726 5.60536 13.727 5.5 13.9922 5.5C14.9204 5.5 15.8107 5.86875 16.4671 6.52513C17.1234 7.1815 17.4922 8.07174 17.4922 9C17.4922 9.92826 17.1234 10.8185 16.4671 11.4749C15.8107 12.1313 14.9204 12.5 13.9922 12.5C13.8048 12.5 13.6211 12.4473 13.4622 12.348L9.7179 10.0078C8.50478 10.0745 7.35745 10.5806 6.49027 11.4315C5.6231 12.2825 5.09541 13.42 5.0058 14.6317C4.9162 15.8433 5.27081 17.0461 6.00338 18.0154C6.73595 18.9846 7.79636 19.654 8.98646 19.8984L8.99219 14.3086C8.99246 14.0435 9.09793 13.7895 9.28544 13.6021C9.47294 13.4148 9.72714 13.3096 9.99219 13.3096H9.99322C10.2584 13.3099 10.5127 13.4155 10.7 13.6032C10.8874 13.7909 10.9924 14.0454 10.9922 14.3106L10.9865 19.9004C11.9132 19.7144 12.768 19.2688 13.4511 18.6155C14.1343 17.9622 14.6177 17.1282 14.8449 16.2107C14.8765 16.0832 14.9329 15.9632 15.011 15.8575C15.089 15.7518 15.187 15.6625 15.2996 15.5947C15.4121 15.527 15.5369 15.482 15.6668 15.4625C15.7967 15.4429 15.9292 15.4492 16.0566 15.4809C16.1841 15.5125 16.3041 15.569 16.4098 15.6471C16.5154 15.7252 16.6047 15.8233 16.6724 15.9359C16.7401 16.0484 16.785 16.1732 16.8044 16.3031C16.8239 16.433 16.8176 16.5655 16.7858 16.693C16.4102 18.21 15.5368 19.5573 14.3052 20.5194C13.0736 21.4815 11.555 22.0028 9.99219 22V22ZM4.98669 10.1135C5.65507 9.42826 6.45646 8.88693 7.34166 8.52271L5.73944 7.5213C5.4619 7.56881 5.20333 7.69345 4.9933 7.88098C4.78326 8.06852 4.63023 8.31137 4.55171 8.58177C4.47318 8.85217 4.47233 9.13921 4.54926 9.41008C4.62618 9.68094 4.77777 9.92469 4.98669 10.1135H4.98669Z" fill="black"/>
</svg>
