<svg   viewBox="0 0 32 32" fill="none" xmlns="http://www.w3.org/2000/svg">
<path d="M5.99999 16.0001V10.4869L9.15197 15.5302C9.24187 15.674 9.36687 15.7926 9.51522 15.8748C9.66357 15.957 9.83039 16.0001 9.99999 16.0001C10.1696 16.0001 10.3364 15.957 10.4848 15.8748C10.6331 15.7926 10.7581 15.674 10.848 15.5302L14 10.4869V16.0001C13.7348 16.0001 13.4804 16.1055 13.2929 16.293C13.1054 16.4806 13 16.7349 13 17.0001C13 17.2653 13.1054 17.5197 13.2929 17.7072C13.4804 17.8948 13.7348 18.0001 14 18.0001H17C17.2652 18.0001 17.5196 17.8948 17.7071 17.7072C17.8946 17.5197 18 17.2653 18 17.0001C18 16.7349 17.8946 16.4806 17.7071 16.293C17.5196 16.1055 17.2652 16.0001 17 16.0001H16V8.00013H17C17.2652 8.00013 17.5196 7.89477 17.7071 7.70724C17.8946 7.5197 18 7.26535 18 7.00013C18 6.73491 17.8946 6.48056 17.7071 6.29302C17.5196 6.10549 17.2652 6.00013 17 6.00013H15C14.995 6.00013 14.9902 6.0008 14.9852 6.00086C14.9659 6.00117 14.9467 6.00239 14.9275 6.00379C14.9128 6.00483 14.898 6.00581 14.8835 6.00746C14.8675 6.00935 14.8517 6.01209 14.8358 6.01478C14.8186 6.01759 14.8014 6.02033 14.7845 6.02406C14.7716 6.02686 14.7589 6.03053 14.7461 6.03388C14.7273 6.03883 14.7084 6.04371 14.69 6.04969C14.6782 6.05354 14.6667 6.05824 14.6551 6.06251C14.6403 6.06794 14.6252 6.07264 14.6108 6.07874C14.6072 6.08021 14.6039 6.08216 14.6003 6.08374C14.5873 6.08936 14.5748 6.09601 14.5619 6.10218C14.5463 6.10987 14.5305 6.11725 14.5153 6.12568C14.5001 6.1341 14.4855 6.14362 14.4706 6.15284C14.4586 6.16034 14.4464 6.16749 14.4348 6.17548C14.4186 6.18653 14.4032 6.19867 14.3876 6.2107C14.3779 6.21832 14.3679 6.22559 14.3583 6.23353C14.3434 6.24598 14.3293 6.25947 14.3151 6.27289C14.3078 6.27973 14.2999 6.28595 14.2929 6.29304C14.2906 6.29523 14.2888 6.29773 14.2866 6.29999C14.2744 6.31244 14.2628 6.32569 14.2512 6.33893C14.2437 6.34742 14.2355 6.35529 14.2283 6.36402C14.2254 6.36756 14.223 6.37147 14.2201 6.37507C14.2109 6.3866 14.2022 6.39869 14.1935 6.41071C14.1821 6.42621 14.1709 6.44184 14.1605 6.45801C14.1578 6.46216 14.1547 6.46589 14.152 6.4701L10 13.1133L5.84802 6.4701C5.84533 6.46589 5.84222 6.46216 5.83954 6.45801C5.8291 6.44184 5.81787 6.42621 5.80652 6.41071C5.79779 6.39869 5.78912 6.3866 5.7799 6.37507C5.77704 6.37147 5.77453 6.36756 5.77167 6.36402C5.76446 6.35529 5.75635 6.34742 5.74884 6.33893C5.73718 6.32575 5.72564 6.31244 5.71344 6.29993C5.71124 6.29774 5.70929 6.29523 5.70709 6.29304C5.70007 6.28602 5.69226 6.27979 5.68506 6.27296C5.67077 6.25947 5.65656 6.24598 5.6416 6.23347C5.6322 6.22559 5.62231 6.21845 5.61261 6.21094C5.59698 6.1988 5.58142 6.18659 5.56518 6.17548C5.55359 6.16748 5.54138 6.16035 5.52942 6.15284C5.51459 6.14362 5.49994 6.13416 5.48468 6.12574C5.46936 6.11719 5.45343 6.10975 5.43762 6.10199C5.42505 6.09589 5.4126 6.08936 5.39978 6.0838C5.39618 6.08221 5.39282 6.0802 5.38922 6.07874C5.37463 6.07251 5.35931 6.06775 5.34436 6.06226C5.33294 6.05811 5.32165 6.05353 5.31012 6.04974C5.29156 6.0437 5.27246 6.03876 5.25342 6.03381C5.24084 6.03052 5.22833 6.02686 5.21563 6.02405C5.19848 6.02032 5.18109 6.01752 5.16363 6.01465C5.14801 6.01209 5.13251 6.00934 5.11676 6.00751C5.10199 6.0058 5.08697 6.00482 5.07202 6.00378C5.05304 6.00238 5.03412 6.00122 5.01507 6.00085C5.01001 6.00079 5.00507 6.00012 5 6.00012H3C2.73478 6.00012 2.48043 6.10548 2.29289 6.29302C2.10536 6.48055 2 6.73491 2 7.00012C2 7.26534 2.10536 7.51969 2.29289 7.70723C2.48043 7.89477 2.73478 8.00012 3 8.00012H4V16.0001H3C2.73478 16.0001 2.48043 16.1055 2.29289 16.293C2.10536 16.4806 2 16.7349 2 17.0001C2 17.2653 2.10536 17.5197 2.29289 17.7072C2.48043 17.8948 2.73478 18.0001 3 18.0001H6C6.26522 18.0001 6.51957 17.8948 6.70711 17.7072C6.89464 17.5197 7 17.2653 7 17.0001C7 16.7349 6.89464 16.4806 6.70711 16.293C6.51957 16.1055 6.26522 16.0001 6 16.0001L5.99999 16.0001Z" fill="black"/>
<path d="M21 14.0001H30C30.2652 14.0001 30.5196 13.8948 30.7071 13.7072C30.8946 13.5197 31 13.2653 31 13.0001C31 12.7349 30.8946 12.4806 30.7071 12.293C30.5196 12.1055 30.2652 12.0001 30 12.0001H21C20.7348 12.0001 20.4804 12.1055 20.2929 12.293C20.1054 12.4806 20 12.7349 20 13.0001C20 13.2653 20.1054 13.5197 20.2929 13.7072C20.4804 13.8948 20.7348 14.0001 21 14.0001Z" fill="black"/>
<path d="M30 16.0001H21C20.7348 16.0001 20.4804 16.1055 20.2929 16.293C20.1054 16.4806 20 16.7349 20 17.0001C20 17.2653 20.1054 17.5197 20.2929 17.7072C20.4804 17.8948 20.7348 18.0001 21 18.0001H30C30.2652 18.0001 30.5196 17.8948 30.7071 17.7072C30.8946 17.5197 31 17.2653 31 17.0001C31 16.7349 30.8946 16.4806 30.7071 16.293C30.5196 16.1055 30.2652 16.0001 30 16.0001Z" fill="black"/>
<path d="M30 20.0001H9C8.73478 20.0001 8.48043 20.1055 8.29289 20.293C8.10536 20.4806 8 20.7349 8 21.0001C8 21.2653 8.10536 21.5197 8.29289 21.7072C8.48043 21.8948 8.73478 22.0001 9 22.0001H30C30.2652 22.0001 30.5196 21.8948 30.7071 21.7072C30.8946 21.5197 31 21.2653 31 21.0001C31 20.7349 30.8946 20.4806 30.7071 20.293C30.5196 20.1055 30.2652 20.0001 30 20.0001Z" fill="black"/>
<path d="M30 24.0001H9C8.73478 24.0001 8.48043 24.1055 8.29289 24.293C8.10536 24.4806 8 24.7349 8 25.0001C8 25.2653 8.10536 25.5197 8.29289 25.7072C8.48043 25.8948 8.73478 26.0001 9 26.0001H30C30.2652 26.0001 30.5196 25.8948 30.7071 25.7072C30.8946 25.5197 31 25.2653 31 25.0001C31 24.7349 30.8946 24.4806 30.7071 24.293C30.5196 24.1055 30.2652 24.0001 30 24.0001Z" fill="black"/>
</svg>
