<svg viewBox="0 0 32 32" xmlns="http://www.w3.org/2000/svg">
<path d="M4.92188 2.32731C4.74347 2.13105 4.49441 2.0137 4.22949 2.00107C3.96456 1.98845 3.70547 2.08158 3.50922 2.25998C3.31296 2.43839 3.19561 2.68745 3.18298 2.95237C3.17036 3.2173 3.26349 3.47639 3.4419 3.67264L6.46674 6.99997H6C5.20463 7.00088 4.4421 7.31725 3.87968 7.87966C3.31727 8.44207 3.00091 9.2046 3 9.99997V24C3.00091 24.7953 3.31727 25.5579 3.87968 26.1203C4.4421 26.6827 5.20463 26.9991 6 27H24.6486L27.0782 29.6726C27.2567 29.8689 27.5057 29.9863 27.7706 29.9989C28.0356 30.0115 28.2947 29.9184 28.4909 29.74C28.6872 29.5616 28.8045 29.3125 28.8171 29.0476C28.8298 28.7827 28.7366 28.5236 28.5582 28.3273L4.92188 2.32731ZM16.0001 21C15.1485 21.0006 14.3142 20.7594 13.5944 20.3045C12.8745 19.8495 12.2986 19.1995 11.9338 18.4301C11.5689 17.6606 11.43 16.8034 11.5332 15.9581C11.6365 15.1128 11.9777 14.3142 12.517 13.6552L18.5029 20.2397C17.7629 20.7367 16.8914 21.0014 16.0001 21Z"/>
<path d="M26.0017 7H22.5361L20.833 4.44531C20.7417 4.30833 20.618 4.19601 20.4728 4.11833C20.3277 4.04064 20.1656 4 20.001 4H12.001C11.8363 3.99999 11.6742 4.04065 11.529 4.11835C11.3839 4.19606 11.2601 4.30841 11.1688 4.44544L10.9178 4.82208C10.7942 5.00764 10.7361 5.2292 10.7528 5.45155C10.7695 5.67391 10.86 5.88431 11.01 6.04932L27.2617 23.9263C27.3975 24.0756 27.5753 24.1804 27.7717 24.2268C27.9681 24.2732 28.174 24.2591 28.3623 24.1863C28.5505 24.1135 28.7123 23.9855 28.8265 23.819C28.9406 23.6525 29.0017 23.4554 29.0017 23.2536V10C29.0008 9.20463 28.6844 8.4421 28.122 7.87968C27.5596 7.31727 26.7971 7.00091 26.0017 7V7Z"/>
</svg>
