<svg   viewBox="0 0 32 32" fill="none" xmlns="http://www.w3.org/2000/svg">
<path d="M26 7H22.5344L20.8313 4.44531C20.74 4.30833 20.6163 4.19601 20.4711 4.11833C20.326 4.04064 20.1639 4 19.9993 4H11.9993C11.8346 4 11.6726 4.04064 11.5274 4.11833C11.3823 4.19601 11.2585 4.30833 11.1672 4.44531L9.46411 7H6C5.20463 7.00091 4.4421 7.31727 3.87968 7.87968C3.31727 8.4421 3.00091 9.20463 3 10V24C3.00091 24.7954 3.31727 25.5579 3.87968 26.1203C4.4421 26.6827 5.20463 26.9991 6 27H26C26.7954 26.9991 27.5579 26.6827 28.1203 26.1203C28.6827 25.5579 28.9991 24.7954 29 24V10C28.9991 9.20463 28.6827 8.4421 28.1203 7.87968C27.5579 7.31727 26.7954 7.00091 26 7V7ZM20.5 16.5C20.5 17.39 20.2361 18.26 19.7416 19.0001C19.2471 19.7401 18.5443 20.3169 17.7221 20.6575C16.8998 20.9981 15.995 21.0872 15.1221 20.9135C14.2492 20.7399 13.4474 20.3113 12.818 19.682C12.1887 19.0526 11.7601 18.2508 11.5865 17.3779C11.4128 16.505 11.5019 15.6002 11.8425 14.7779C12.1831 13.9557 12.7599 13.2529 13.4999 12.7584C14.24 12.2639 15.11 12 16 12C17.1931 12.0013 18.3369 12.4759 19.1805 13.3195C20.0241 14.1631 20.4987 15.3069 20.5 16.5Z" fill="black"/>
</svg>
