<svg viewBox="0 0 32 32" xmlns="http://www.w3.org/2000/svg">
<path d="M27 5H5C4.46975 5.00061 3.9614 5.21151 3.58646 5.58646C3.21151 5.9614 3.00061 6.46975 3 7V25C3.00061 25.5302 3.21151 26.0386 3.58646 26.4135C3.9614 26.7885 4.46975 26.9994 5 27H27C27.5302 26.9994 28.0386 26.7885 28.4135 26.4135C28.7885 26.0386 28.9994 25.5302 29 25V7C28.9994 6.46975 28.7885 5.9614 28.4135 5.58646C28.0386 5.21151 27.5302 5.00061 27 5ZM12 18.5C12.3328 18.501 12.6623 18.4352 12.9691 18.3062C13.2759 18.1773 13.5536 17.988 13.7858 17.7496C13.9714 17.5602 14.2246 17.4523 14.4898 17.4496C14.755 17.4469 15.0104 17.5496 15.1998 17.7352C15.3893 17.9208 15.4972 18.1741 15.4999 18.4393C15.5026 18.7045 15.3998 18.9599 15.2142 19.1493C14.5886 19.7878 13.787 20.2256 12.9116 20.4067C12.0362 20.5878 11.1267 20.5041 10.2991 20.1662C9.47147 19.8283 8.76323 19.2516 8.26468 18.5096C7.76614 17.7676 7.4999 16.8939 7.4999 16C7.4999 15.1061 7.76614 14.2324 8.26468 13.4904C8.76323 12.7484 9.47147 12.1717 10.2991 11.8338C11.1267 11.4959 12.0362 11.4122 12.9116 11.5933C13.787 11.7744 14.5886 12.2122 15.2142 12.8507C15.3998 13.0401 15.5026 13.2955 15.4999 13.5607C15.4972 13.8259 15.3893 14.0792 15.1998 14.2648C15.0104 14.4504 14.755 14.5531 14.4898 14.5504C14.2246 14.5477 13.9714 14.4398 13.7858 14.2504C13.4973 13.9559 13.1405 13.7374 12.7471 13.6142C12.3537 13.491 11.936 13.467 11.5311 13.5443C11.1262 13.6217 10.7467 13.7979 10.4264 14.0574C10.1061 14.3168 9.85491 14.6515 9.69522 15.0315C9.53553 15.4115 9.47229 15.8251 9.51112 16.2355C9.54995 16.6459 9.68965 17.0403 9.91778 17.3836C10.1459 17.7269 10.4554 18.0085 10.8187 18.2033C11.182 18.3981 11.5878 18.5 12 18.5V18.5ZM21 18.5C21.3328 18.501 21.6623 18.4352 21.9691 18.3062C22.2759 18.1773 22.5536 17.988 22.7858 17.7496C22.9714 17.5602 23.2246 17.4523 23.4898 17.4496C23.755 17.4469 24.0104 17.5496 24.1998 17.7352C24.3893 17.9208 24.4972 18.1741 24.4999 18.4393C24.5026 18.7045 24.3998 18.9599 24.2142 19.1493C23.5886 19.7878 22.787 20.2256 21.9116 20.4067C21.0362 20.5878 20.1267 20.5041 19.2991 20.1662C18.4715 19.8283 17.7632 19.2516 17.2647 18.5096C16.7661 17.7676 16.4999 16.8939 16.4999 16C16.4999 15.1061 16.7661 14.2324 17.2647 13.4904C17.7632 12.7484 18.4715 12.1717 19.2991 11.8338C20.1267 11.4959 21.0362 11.4122 21.9116 11.5933C22.787 11.7744 23.5886 12.2122 24.2142 12.8507C24.3998 13.0401 24.5026 13.2955 24.4999 13.5607C24.4972 13.8259 24.3893 14.0792 24.1998 14.2648C24.0104 14.4504 23.755 14.5531 23.4898 14.5504C23.2246 14.5477 22.9714 14.4398 22.7858 14.2504C22.4973 13.9559 22.1405 13.7374 21.7471 13.6142C21.3537 13.491 20.936 13.467 20.5311 13.5443C20.1262 13.6217 19.7467 13.7979 19.4264 14.0574C19.1061 14.3168 18.8549 14.6515 18.6952 15.0315C18.5355 15.4115 18.4723 15.8251 18.5111 16.2355C18.5499 16.6459 18.6896 17.0403 18.9178 17.3836C19.1459 17.7269 19.4554 18.0085 19.8187 18.2033C20.182 18.3981 20.5878 18.5 21 18.5Z"/>
</svg>
