<svg viewBox="0 0 32 32" xmlns="http://www.w3.org/2000/svg">
<path d="M16 2.5C13.33 2.5 10.7199 3.29176 8.49981 4.77516C6.27974 6.25856 4.54942 8.36697 3.52763 10.8338C2.50585 13.3006 2.2385 16.015 2.7594 18.6337C3.28031 21.2525 4.56606 23.6579 6.45406 25.5459C8.34207 27.434 10.7475 28.7197 13.3663 29.2406C15.985 29.7615 18.6994 29.4942 21.1662 28.4724C23.633 27.4506 25.7414 25.7203 27.2248 23.5002C28.7082 21.2801 29.5 18.67 29.5 16C29.496 12.4208 28.0723 8.9894 25.5415 6.45853C23.0106 3.92767 19.5792 2.50405 16 2.5V2.5ZM16 27C13.8244 27 11.6977 26.3549 9.88873 25.1462C8.07979 23.9375 6.6699 22.2195 5.83733 20.2095C5.00477 18.1995 4.78693 15.9878 5.21137 13.854C5.63581 11.7202 6.68345 9.7602 8.22183 8.22183C9.76021 6.68345 11.7202 5.6358 13.854 5.21136C15.9878 4.78692 18.1995 5.00476 20.2095 5.83733C22.2195 6.66989 23.9375 8.07979 25.1462 9.88873C26.3549 11.6977 27 13.8244 27 16C26.9967 18.9164 25.8367 21.7123 23.7745 23.7745C21.7124 25.8367 18.9164 26.9967 16 27ZM16 7C14.22 7 12.4799 7.52784 10.9999 8.51677C9.51983 9.50571 8.36628 10.9113 7.68509 12.5558C7.0039 14.2004 6.82567 16.01 7.17294 17.7558C7.52021 19.5016 8.37737 21.1053 9.63604 22.364C10.8947 23.6226 12.4984 24.4798 14.2442 24.8271C15.99 25.1743 17.7996 24.9961 19.4442 24.3149C21.0887 23.6337 22.4943 22.4802 23.4832 21.0001C24.4722 19.5201 25 17.78 25 16C24.9973 13.6139 24.0482 11.3263 22.361 9.63901C20.6738 7.95176 18.3861 7.00269 16 7V7ZM16.0004 19.9994C16.6218 20.0018 17.2351 19.8582 17.791 19.5803C18.3468 19.3024 18.8297 18.8979 19.2007 18.3994C19.3604 18.1884 19.5972 18.0494 19.8592 18.0127C20.1213 17.976 20.3872 18.0446 20.5987 18.2036C20.8103 18.3625 20.9502 18.5988 20.9878 18.8607C21.0255 19.1226 20.9578 19.3888 20.7996 19.6009C20.0438 20.6079 18.9903 21.3517 17.7884 21.7268C16.5864 22.102 15.2969 22.0895 14.1025 21.6911C12.908 21.2928 11.8692 20.5287 11.133 19.5072C10.3969 18.4857 10.0008 17.2585 10.0008 15.9994C10.0008 14.7402 10.3969 13.513 11.133 12.4915C11.8692 11.47 12.908 10.706 14.1025 10.3076C15.2969 9.90923 16.5864 9.89673 17.7884 10.2719C18.9903 10.647 20.0438 11.3908 20.7996 12.3978C20.9577 12.6099 21.0254 12.8761 20.9878 13.138C20.9501 13.3998 20.8102 13.6361 20.5987 13.7951C20.3872 13.954 20.1213 14.0227 19.8592 13.986C19.5972 13.9493 19.3604 13.8102 19.2007 13.5993C18.7916 13.0538 18.2499 12.6219 17.6269 12.3447C17.004 12.0675 16.3205 11.9541 15.6414 12.0153C14.9623 12.0765 14.3101 12.3103 13.7468 12.6944C13.1835 13.0786 12.7277 13.6004 12.4227 14.2102C12.1178 14.8201 11.9738 15.4978 12.0044 16.1789C12.035 16.8601 12.2393 17.5221 12.5977 18.1021C12.9562 18.6822 13.4569 19.1609 14.0525 19.493C14.648 19.8251 15.3185 19.9994 16.0004 19.9994V19.9994Z"/>
</svg>
