<svg viewBox="0 0 32 32" xmlns="http://www.w3.org/2000/svg">
<path d="M19 12V6.00002C19 5.80223 19.0586 5.60889 19.1685 5.44444C19.2784 5.27998 19.4346 5.15181 19.6173 5.07612C19.8 5.00043 20.0011 4.98063 20.1951 5.01923C20.3891 5.05782 20.5673 5.15307 20.7071 5.29293L26.7071 11.2929C26.8469 11.4328 26.9422 11.611 26.9807 11.805C27.0193 11.9989 26.9995 12.2 26.9238 12.3827C26.8481 12.5654 26.7199 12.7216 26.5555 12.8315C26.3911 12.9413 26.1977 13 26 13H20C19.7348 13 19.4804 12.8947 19.2929 12.7071C19.1053 12.5196 19 12.2652 19 12ZM12 19H5.99997C5.80219 19 5.60887 19.0587 5.44443 19.1686C5.27999 19.2785 5.15182 19.4346 5.07613 19.6173C5.00045 19.8001 4.98063 20.0011 5.0192 20.1951C5.05777 20.3891 5.15299 20.5672 5.29281 20.7071L11.2928 26.7071C11.4327 26.847 11.6108 26.9422 11.8048 26.9808C11.9988 27.0194 12.1999 26.9996 12.3826 26.9239C12.5654 26.8482 12.7215 26.7201 12.8314 26.5556C12.9413 26.3912 13 26.1978 13 26V20C13 19.7348 12.8946 19.4805 12.7071 19.2929C12.5195 19.1054 12.2652 19 12 19ZM12.3827 5.07613C12.1999 5.00043 11.9988 4.98063 11.8048 5.01922C11.6109 5.05781 11.4327 5.15306 11.2928 5.29293L5.29281 11.2929C5.15299 11.4328 5.05777 11.611 5.0192 11.805C4.98063 11.9989 5.00045 12.2 5.07613 12.3827C5.15182 12.5654 5.27999 12.7216 5.44443 12.8315C5.60887 12.9413 5.80219 13 5.99997 13H12C12.2652 13 12.5195 12.8947 12.7071 12.7071C12.8946 12.5196 13 12.2652 13 12V6.00002C13 5.80224 12.9413 5.6089 12.8314 5.44445C12.7216 5.28 12.5654 5.15182 12.3827 5.07613V5.07613ZM26 19H20C19.7348 19 19.4804 19.1054 19.2929 19.2929C19.1053 19.4805 19 19.7348 19 20V26C19 26.1978 19.0586 26.3911 19.1685 26.5556C19.2784 26.72 19.4346 26.8482 19.6173 26.9239C19.8 26.9996 20.0011 27.0194 20.1951 26.9808C20.3891 26.9422 20.5673 26.847 20.7071 26.7071L26.7071 20.7071C26.8469 20.5672 26.9422 20.3891 26.9807 20.1951C27.0193 20.0011 26.9995 19.8001 26.9238 19.6173C26.8481 19.4346 26.7199 19.2785 26.5555 19.1686C26.3911 19.0587 26.1977 19 26 19V19Z"/>
</svg>
