<svg   viewBox="0 0 32 32" fill="none" xmlns="http://www.w3.org/2000/svg">
<path d="M23.5351 5.41391C23.4827 5.36866 23.4258 5.32897 23.3653 5.29547C20.5376 3.35722 17.0572 2.61831 13.6859 3.24048C10.3147 3.86266 7.32727 5.79524 5.37774 8.61513C3.42822 11.435 2.6754 14.9125 3.28411 18.2862C3.89281 21.6599 5.81345 24.655 8.62553 26.6158C11.4376 28.5765 14.912 29.3432 18.2881 28.748C21.6643 28.1528 24.667 26.2441 26.639 23.4399C28.611 20.6357 29.3916 17.1644 28.8098 13.7859C28.2281 10.4074 26.3314 7.39709 23.5351 5.41391V5.41391ZM15.9978 19C15.4044 19 14.8244 18.8241 14.3311 18.4944C13.8377 18.1648 13.4532 17.6962 13.2261 17.148C12.9991 16.5999 12.9397 15.9967 13.0554 15.4147C13.1712 14.8328 13.4569 14.2982 13.8764 13.8787C14.296 13.4591 14.8306 13.1734 15.4125 13.0576C15.9944 12.9419 16.5976 13.0013 17.1458 13.2284C17.694 13.4554 18.1625 13.8399 18.4922 14.3333C18.8218 14.8266 18.9978 15.4067 18.9978 16C18.9969 16.7954 18.6805 17.5579 18.1181 18.1203C17.5557 18.6827 16.7931 18.9991 15.9978 19ZM26.9978 16C26.9978 16.309 26.9843 16.6148 26.9592 16.9174L20.9943 15.8656C20.9621 14.6334 20.4741 13.4569 19.6246 12.5637L23.0969 7.60478C24.3192 8.63568 25.3016 9.9211 25.9753 11.3712C26.6491 12.8213 26.9981 14.401 26.9978 16V16Z" fill="black"/>
</svg>
