<svg   viewBox="0 0 32 32" fill="none" xmlns="http://www.w3.org/2000/svg">
<path d="M23.5 19C23.5 19.9283 23.1313 20.8185 22.4749 21.4749C21.8185 22.1313 20.9283 22.5 20 22.5C19.0717 22.5 18.1815 22.1313 17.5251 21.4749C16.8687 20.8185 16.5 19.9283 16.5 19C16.5 17.04 17.6639 16.0424 18.5992 15.2407C19.4938 14.4739 20 13.9918 20 13C20 11.9391 19.5786 10.9217 18.8284 10.1716C18.0783 9.42143 17.0609 9 16 9C14.9391 9 13.9217 9.42143 13.1716 10.1716C12.4214 10.9217 12 11.9391 12 13C12 13.2652 11.8946 13.5196 11.7071 13.7071C11.5196 13.8946 11.2652 14 11 14C10.7348 14 10.4804 13.8946 10.2929 13.7071C10.1054 13.5196 10 13.2652 10 13C10 11.4087 10.6321 9.88258 11.7574 8.75736C12.8826 7.63214 14.4087 7 16 7C17.5913 7 19.1174 7.63214 20.2426 8.75736C21.3679 9.88258 22 11.4087 22 13C22 14.96 20.8361 15.9576 19.9008 16.7593C19.0062 17.5261 18.5 18.0082 18.5 19C18.5 19.3978 18.658 19.7794 18.9393 20.0607C19.2206 20.342 19.6022 20.5 20 20.5C20.3978 20.5 20.7794 20.342 21.0607 20.0607C21.342 19.7794 21.5 19.3978 21.5 19C21.5 18.7348 21.6054 18.4804 21.7929 18.2929C21.9804 18.1054 22.2348 18 22.5 18C22.7652 18 23.0196 18.1054 23.2071 18.2929C23.3946 18.4804 23.5 18.7348 23.5 19ZM16 2C13.0836 2.00329 10.2877 3.16328 8.22546 5.22546C6.16328 7.28765 5.00329 10.0836 5 13C5 17.1869 6.55695 18.6881 7.80798 19.8944C8.79028 20.8416 9.5 21.5259 9.5 23.5C9.50003 24.8385 9.91324 26.1443 10.6832 27.2391C11.4532 28.3339 12.5423 29.1644 13.8019 29.617C15.0615 30.0697 16.4302 30.1224 17.7209 29.7681C19.0116 29.4138 20.1615 28.6696 21.0134 27.6373C21.0971 27.5361 21.1599 27.4193 21.1984 27.2938C21.237 27.1683 21.2504 27.0364 21.2379 26.9056C21.2255 26.7749 21.1874 26.6479 21.1258 26.5319C21.0643 26.4159 20.9805 26.3131 20.8793 26.2295C20.778 26.1459 20.6613 26.083 20.5357 26.0445C20.4102 26.006 20.2783 25.9925 20.1476 26.005C20.0168 26.0175 19.8898 26.0555 19.7738 26.1171C19.6578 26.1786 19.5551 26.2624 19.4714 26.3636C18.8817 27.0785 18.0857 27.5938 17.192 27.8393C16.2984 28.0847 15.3508 28.0483 14.4787 27.735C13.6066 27.4217 12.8524 26.8468 12.3193 26.0888C11.7861 25.3308 11.5 24.4267 11.5 23.5C11.5 20.676 10.2761 19.4958 9.19623 18.4546C8.06677 17.3656 7 16.337 7 13C7 10.6131 7.94821 8.32387 9.63604 6.63604C11.3239 4.94821 13.6131 4 16 4C18.3869 4 20.6761 4.94821 22.364 6.63604C24.0518 8.32387 25 10.6131 25 13C25 13.2652 25.1054 13.5196 25.2929 13.7071C25.4804 13.8946 25.7348 14 26 14C26.2652 14 26.5196 13.8946 26.7071 13.7071C26.8946 13.5196 27 13.2652 27 13C26.9967 10.0836 25.8367 7.28765 23.7745 5.22546C21.7123 3.16328 18.9164 2.00329 16 2Z" fill="black"/>
</svg>
