<svg viewBox="0 0 32 32" xmlns="http://www.w3.org/2000/svg">
<path d="M26.74 26.3273C26.9184 26.5235 27.0115 26.7826 26.9989 27.0475C26.9863 27.3124 26.869 27.5615 26.6728 27.7399C26.4765 27.9183 26.2174 28.0115 25.9525 27.9989C25.6876 27.9863 25.4385 27.869 25.2601 27.6727L20.5201 22.4587C20.0219 22.5361 19.5128 22.5045 19.028 22.3661C18.5432 22.2277 18.0942 21.9857 17.712 21.6569C17.3298 21.3281 17.0236 20.9202 16.8143 20.4615C16.6051 20.0028 16.4978 19.5042 16.5 19C16.4996 18.7083 16.5284 18.4173 16.5861 18.1313L11.9959 13.0821C11.9748 13.3393 11.8551 13.5784 11.6617 13.7493C11.4684 13.9202 11.2164 14.0098 10.9585 13.9992C10.7007 13.9886 10.4569 13.8786 10.2783 13.6924C10.0996 13.5062 9.99992 13.2581 10 13C9.99933 12.3868 10.0931 11.7771 10.278 11.1924L8.06267 8.75555C7.36213 10.0604 6.99697 11.519 7.00003 13C7.00003 16.337 8.0668 17.3656 9.19626 18.4546C10.2761 19.4958 11.5 20.676 11.5 23.5C11.5001 24.4267 11.7862 25.3308 12.3193 26.0888C12.8524 26.8468 13.6066 27.4217 14.4787 27.735C15.3509 28.0483 16.2985 28.0847 17.1921 27.8393C18.0857 27.5938 18.8817 27.0785 19.4715 26.3636C19.6404 26.1592 19.8836 26.0302 20.1476 26.005C20.4116 25.9798 20.6748 26.0606 20.8793 26.2295C21.0838 26.3984 21.2128 26.6416 21.238 26.9056C21.2631 27.1696 21.1824 27.4328 21.0135 27.6373C20.1615 28.6696 19.0116 29.4138 17.7209 29.7681C16.4302 30.1224 15.0616 30.0697 13.802 29.617C12.5424 29.1644 11.4532 28.3339 10.6832 27.2391C9.91327 26.1443 9.50006 24.8385 9.50003 23.5C9.50003 21.5259 8.79032 20.8416 7.80802 19.8944C6.55698 18.6881 5.00003 17.1869 5.00003 13C4.99507 10.9508 5.56714 8.9417 6.65078 7.20252L5.2601 5.67273C5.17176 5.57556 5.10342 5.46194 5.05898 5.33836C5.01455 5.21478 4.99489 5.08366 5.00113 4.95248C5.00737 4.82131 5.03939 4.69264 5.09535 4.57384C5.15132 4.45503 5.23013 4.34842 5.3273 4.26007C5.42447 4.17173 5.53809 4.10339 5.66167 4.05895C5.78525 4.01452 5.91637 3.99486 6.04755 4.0011C6.17873 4.00734 6.30739 4.03936 6.42619 4.09532C6.545 4.15128 6.65162 4.2301 6.73996 4.32727L8.65552 6.43439L8.66109 6.44049L12.1572 10.2862L12.1607 10.2901L21.592 20.6646L21.5933 20.666L26.74 26.3273ZM11.3858 5.27113C12.7521 4.45607 14.31 4.01766 15.9008 4.00053C17.4916 3.9834 19.0586 4.38816 20.4421 5.17359C21.8257 5.95903 22.9763 7.09708 23.777 8.47187C24.5776 9.84666 24.9996 11.4091 25 13C25 13.2652 25.1054 13.5196 25.2929 13.7071C25.4805 13.8946 25.7348 14 26 14C26.2652 14 26.5196 13.8946 26.7071 13.7071C26.8947 13.5196 27 13.2652 27 13C26.9996 11.0553 26.4838 9.14555 25.5051 7.46514C24.5264 5.78472 23.1198 4.39372 21.4285 3.43381C19.7373 2.47391 17.8219 1.9794 15.8773 2.00066C13.9328 2.02191 12.0286 2.55817 10.3588 3.55481C10.1312 3.691 9.96702 3.91202 9.90239 4.16925C9.83775 4.42648 9.87794 4.69886 10.0141 4.92646C10.1503 5.15405 10.3713 5.31823 10.6286 5.38287C10.8858 5.44751 11.1582 5.40731 11.3858 5.27113ZM19.784 15.6759C19.9961 15.8351 20.2628 15.9035 20.5254 15.8661C20.7879 15.8287 21.0249 15.6885 21.1841 15.4764C21.7263 14.7659 22.0136 13.8936 22 13C21.9995 12.0451 21.7711 11.1041 21.334 10.2551C20.8968 9.40614 20.2634 8.6737 19.4864 8.11859C18.7094 7.56348 17.8112 7.20173 16.8664 7.06336C15.9216 6.92499 14.9573 7.014 14.0538 7.323C13.9296 7.36558 13.815 7.4322 13.7165 7.51908C13.618 7.60595 13.5376 7.71137 13.4799 7.82931C13.4222 7.94726 13.3882 8.07542 13.38 8.20647C13.3718 8.33753 13.3895 8.46892 13.4321 8.59314C13.4747 8.71736 13.5413 8.83198 13.6282 8.93045C13.7151 9.02892 13.8205 9.10932 13.9384 9.16705C14.0564 9.22478 14.1845 9.25871 14.3156 9.26692C14.4466 9.27512 14.578 9.25742 14.7022 9.21485C15.3047 9.00912 15.9474 8.95001 16.5773 9.04239C17.2071 9.13478 17.8058 9.37602 18.3238 9.74608C18.8417 10.1161 19.264 10.6044 19.5555 11.1703C19.847 11.7362 19.9994 12.3634 20 13C20.0128 13.4604 19.866 13.9111 19.5846 14.2758C19.4254 14.4879 19.357 14.7546 19.3944 15.0171C19.4318 15.2797 19.5719 15.5167 19.784 15.6759L19.784 15.6759Z"/>
</svg>
