<svg   viewBox="0 0 32 32" fill="none" xmlns="http://www.w3.org/2000/svg">
<path d="M4.4519 16.8022C4.29271 16.4467 4.24219 16.0521 4.3067 15.668C4.37121 15.2839 4.54787 14.9274 4.81445 14.6434L14.5303 4.11777H14.5304C14.7177 3.91488 14.9449 3.75296 15.1979 3.64222C15.4508 3.53148 15.7239 3.4743 16 3.4743C16.2761 3.4743 16.5492 3.53148 16.8022 3.64222C17.0551 3.75296 17.2823 3.91488 17.4696 4.11777L27.1857 14.6434C27.4493 14.9291 27.624 15.2854 27.6884 15.6688C27.7528 16.0522 27.704 16.446 27.5481 16.8021C27.3922 17.1582 27.1359 17.4612 26.8105 17.6739C26.4851 17.8867 26.1048 18 25.7161 18H6.28394C5.89447 18.0033 5.51275 17.8913 5.18677 17.6781C4.86079 17.465 4.60511 17.1602 4.4519 16.8022V16.8022ZM26 20H6C5.46975 20.0006 4.9614 20.2115 4.58646 20.5865C4.21151 20.9614 4.00061 21.4698 4 22V25C4.00061 25.5302 4.21151 26.0386 4.58646 26.4135C4.9614 26.7885 5.46975 26.9994 6 27H26C26.5302 26.9994 27.0386 26.7885 27.4135 26.4135C27.7885 26.0386 27.9994 25.5302 28 25V22C27.9994 21.4698 27.7885 20.9614 27.4135 20.5865C27.0386 20.2115 26.5302 20.0006 26 20Z" fill="black"/>
</svg>
