<svg viewBox="0 0 32 32" xmlns="http://www.w3.org/2000/svg">
<path d="M3.29504 19.8596C3.13061 19.5187 3.06712 19.1379 3.11206 18.7621C3.15701 18.3864 3.30852 18.0313 3.54871 17.7388L14.4478 4.32458C14.6353 4.09377 14.8719 3.90769 15.1404 3.77988C15.409 3.65207 15.7026 3.58575 16 3.58575C16.2974 3.58576 16.591 3.65209 16.8596 3.77991C17.1281 3.90773 17.3647 4.09383 17.5522 4.32465L28.4513 17.7388C28.6897 18.0322 28.84 18.3871 28.8849 18.7625C28.9298 19.1378 28.8674 19.5182 28.705 19.8595C28.5425 20.2009 28.2866 20.4892 27.967 20.691C27.6474 20.8929 27.2771 21 26.899 21H5.10095C4.72251 21.002 4.3514 20.8956 4.03142 20.6936C3.71143 20.4915 3.45592 20.2021 3.29504 19.8596V19.8596ZM28 25H4C3.73478 25 3.48043 25.1054 3.29289 25.2929C3.10536 25.4804 3 25.7348 3 26C3 26.2652 3.10536 26.5196 3.29289 26.7071C3.48043 26.8946 3.73478 27 4 27H28C28.2652 27 28.5196 26.8946 28.7071 26.7071C28.8946 26.5196 29 26.2652 29 26C29 25.7348 28.8946 25.4804 28.7071 25.2929C28.5196 25.1054 28.2652 25 28 25Z"/>
</svg>
