<svg   viewBox="0 0 32 32" fill="none" xmlns="http://www.w3.org/2000/svg">
<path d="M16 14C15.7348 14 15.4804 14.1054 15.2929 14.2929C15.1054 14.4804 15 14.7348 15 15V27C15 27.2652 15.1054 27.5196 15.2929 27.7071C15.4804 27.8946 15.7348 28 16 28C16.2652 28 16.5196 27.8946 16.7071 27.7071C16.8946 27.5196 17 27.2652 17 27V15C17 14.7348 16.8946 14.4804 16.7071 14.2929C16.5196 14.1054 16.2652 14 16 14V14Z" fill="black"/>
<path d="M25 24C24.8687 24 24.7386 24.0259 24.6173 24.0761C24.496 24.1264 24.3857 24.2 24.2929 24.2929C24.2 24.3858 24.1263 24.496 24.0761 24.6174C24.0258 24.7387 24 24.8687 24 25.0001L24.0001 27.0001C24.0001 27.2653 24.1055 27.5196 24.2931 27.7071C24.4806 27.8947 24.735 28 25.0002 28C25.2654 28 25.5198 27.8946 25.7073 27.7071C25.8948 27.5195 26.0001 27.2652 26.0001 26.9999L26 24.9999C26 24.7347 25.8946 24.4804 25.7071 24.2929C25.5195 24.1053 25.2652 24 25 24Z" fill="black"/>
<path d="M28 20H26L26.0001 5C26.0001 4.73478 25.8948 4.48043 25.7072 4.29289C25.5197 4.10536 25.2653 4 25.0001 4C24.7349 4 24.4806 4.10536 24.293 4.29289C24.1055 4.48043 24.0001 4.73478 24.0001 5L24 20H22C21.7348 20 21.4804 20.1054 21.2929 20.2929C21.1054 20.4804 21 20.7348 21 21C21 21.2652 21.1054 21.5196 21.2929 21.7071C21.4804 21.8946 21.7348 22 22 22H28C28.2652 22 28.5196 21.8946 28.7071 21.7071C28.8946 21.5196 29 21.2652 29 21C29 20.7348 28.8946 20.4804 28.7071 20.2929C28.5196 20.1054 28.2652 20 28 20Z" fill="black"/>
<path d="M7.00006 20C6.73485 20 6.4805 20.1054 6.29297 20.2929C6.10544 20.4804 6.00007 20.7348 6.00006 21L6 27C6 27.2652 6.10536 27.5196 6.29289 27.7071C6.48043 27.8946 6.73478 28 7 28C7.26522 28 7.51957 27.8946 7.70711 27.7071C7.89464 27.5196 8 27.2652 8 27L8.00006 21C8.00006 20.7348 7.8947 20.4804 7.70716 20.2929C7.51963 20.1054 7.26528 20 7.00006 20Z" fill="black"/>
<path d="M10 16H8L7.99994 5C7.99994 4.73478 7.89458 4.48043 7.70705 4.29289C7.51951 4.10536 7.26516 4 6.99994 4C6.73472 4 6.48037 4.10536 6.29283 4.29289C6.1053 4.48043 5.99994 4.73478 5.99994 5L6 16H4C3.73478 16 3.48043 16.1054 3.29289 16.2929C3.10536 16.4804 3 16.7348 3 17C3 17.2652 3.10536 17.5196 3.29289 17.7071C3.48043 17.8946 3.73478 18 4 18H10C10.2652 18 10.5196 17.8946 10.7071 17.7071C10.8946 17.5196 11 17.2652 11 17C11 16.7348 10.8946 16.4804 10.7071 16.2929C10.5196 16.1054 10.2652 16 10 16V16Z" fill="black"/>
<path d="M19 10H17V5C17 4.73478 16.8946 4.48043 16.7071 4.29289C16.5196 4.10536 16.2652 4 16 4C15.7348 4 15.4804 4.10536 15.2929 4.29289C15.1054 4.48043 15 4.73478 15 5V10H13C12.7348 10 12.4804 10.1054 12.2929 10.2929C12.1054 10.4804 12 10.7348 12 11C12 11.2652 12.1054 11.5196 12.2929 11.7071C12.4804 11.8946 12.7348 12 13 12H19C19.2652 12 19.5196 11.8946 19.7071 11.7071C19.8946 11.5196 20 11.2652 20 11C20 10.7348 19.8946 10.4804 19.7071 10.2929C19.5196 10.1054 19.2652 10 19 10Z" fill="black"/>
</svg>
