<svg viewBox="0 0 32 32" xmlns="http://www.w3.org/2000/svg">
<path d="M17 20.4992H5C4.73478 20.4992 4.48043 20.6046 4.29289 20.7921C4.10536 20.9796 4 21.234 4 21.4992C4 21.7644 4.10536 22.0188 4.29289 22.2063C4.48043 22.3939 4.73478 22.4992 5 22.4992H17C17.2652 22.4992 17.5196 22.3939 17.7071 22.2063C17.8946 22.0188 18 21.7644 18 21.4992C18 21.234 17.8946 20.9796 17.7071 20.7921C17.5196 20.6046 17.2652 20.4992 17 20.4992Z"/>
<path d="M27 20.4992H22V18.4992C22 18.234 21.8946 17.9796 21.7071 17.7921C21.5196 17.6046 21.2652 17.4992 21 17.4992C20.7348 17.4992 20.4804 17.6046 20.2929 17.7921C20.1054 17.9796 20 18.234 20 18.4992V24.4992C20 24.7644 20.1054 25.0188 20.2929 25.2063C20.4804 25.3939 20.7348 25.4992 21 25.4992C21.2652 25.4992 21.5196 25.3939 21.7071 25.2063C21.8946 25.0188 22 24.7644 22 24.4992V22.4992H27C27.2652 22.4992 27.5196 22.3939 27.7071 22.2063C27.8946 22.0188 28 21.7644 28 21.4992C28 21.234 27.8946 20.9796 27.7071 20.7921C27.5196 20.6046 27.2652 20.4992 27 20.4992Z"/>
<path d="M5 11.4991L9 11.4992C9.26522 11.4992 9.51957 11.3939 9.70711 11.2063C9.89464 11.0188 10 10.7644 10 10.4992C10 10.234 9.89464 9.97964 9.70711 9.7921C9.51957 9.60457 9.26522 9.49921 9 9.49921L5 9.49908C4.73478 9.49908 4.48043 9.60444 4.29289 9.79198C4.10536 9.97951 4 10.2339 4 10.4991C4 10.7643 4.10536 11.0187 4.29289 11.2062C4.48043 11.3937 4.73478 11.4991 5 11.4991V11.4991Z"/>
<path d="M13 14.4992C13.2652 14.4992 13.5196 14.3938 13.7071 14.2063C13.8946 14.0188 14 13.7644 14 13.4992V11.4992L27 11.4991C27.2652 11.4991 27.5196 11.3937 27.7071 11.2062C27.8946 11.0187 28 10.7643 28 10.4991C28 10.2339 27.8946 9.97951 27.7071 9.79198C27.5196 9.60444 27.2652 9.49908 27 9.49908L14 9.49921V7.49921C14 7.23399 13.8946 6.97964 13.7071 6.7921C13.5196 6.60456 13.2652 6.49921 13 6.49921C12.7348 6.49921 12.4804 6.60456 12.2929 6.7921C12.1054 6.97964 12 7.23399 12 7.49921V13.4992C12 13.7644 12.1054 14.0188 12.2929 14.2063C12.4804 14.3938 12.7348 14.4992 13 14.4992V14.4992Z"/>
</svg>
