<svg   viewBox="0 0 24 24" fill="none" xmlns="http://www.w3.org/2000/svg">
<path d="M1.54485 13.0547C0.854842 12.5208 0.854842 11.4791 1.54485 10.9452C3.68297 9.29083 6.07048 7.98683 8.61801 7.08204L9.08406 6.91652C9.9537 6.60765 10.873 7.19604 10.9908 8.09448C11.1286 9.14469 11.21 10.2125 11.2351 11.2836C11.3152 11.1579 11.4184 11.043 11.5448 10.9452C13.683 9.29083 16.0705 7.98683 18.618 7.08204L19.0841 6.91652C19.9537 6.60765 20.873 7.19604 20.9908 8.09448C21.3277 10.663 21.3277 13.337 20.9908 15.9055C20.873 16.8039 19.9537 17.3923 19.0841 17.0835L18.618 16.9179C16.0705 16.0131 13.683 14.7091 11.5448 13.0547C11.4184 12.9569 11.3152 12.8421 11.2351 12.7164C11.21 13.7874 11.1286 14.8553 10.9908 15.9055C10.873 16.8039 9.9537 17.3923 9.08406 17.0835L8.61801 16.9179C6.07048 16.0131 3.68297 14.7091 1.54485 13.0547Z" fill="black"/>
</svg>
