<svg viewBox="0 0 32 32" xmlns="http://www.w3.org/2000/svg">
<path d="M16 3C13.4288 3 10.9154 3.76244 8.77759 5.1909C6.63975 6.61935 4.97351 8.64968 3.98957 11.0251C3.00563 13.4006 2.74819 16.0144 3.2498 18.5362C3.75141 21.0579 4.98953 23.3743 6.80762 25.1924C8.6257 27.0105 10.9421 28.2486 13.4638 28.7502C15.9856 29.2518 18.5995 28.9944 20.9749 28.0104C23.3503 27.0265 25.3807 25.3603 26.8091 23.2224C28.2376 21.0846 29 18.5712 29 16C28.9961 12.5534 27.6252 9.24905 25.1881 6.81192C22.751 4.37479 19.4466 3.0039 16 3V3ZM23.0735 16.8192L18.0735 20.3192C17.9236 20.4241 17.7479 20.4859 17.5653 20.4978C17.3828 20.5098 17.2005 20.4714 17.0382 20.387C16.876 20.3025 16.74 20.1751 16.6451 20.0187C16.5502 19.8623 16.5 19.6829 16.5 19.5V16C16.5 16.1608 16.4612 16.3192 16.387 16.4618C16.3127 16.6044 16.2052 16.727 16.0735 16.8192L11.0735 20.3192C10.9236 20.4241 10.7479 20.4859 10.5653 20.4978C10.3828 20.5098 10.2005 20.4714 10.0382 20.387C9.87596 20.3025 9.73999 20.1751 9.64509 20.0187C9.5502 19.8623 9.50001 19.6829 9.50001 19.5V12.5C9.50001 12.3171 9.5502 12.1376 9.64509 11.9813C9.73999 11.8249 9.87596 11.6975 10.0382 11.613C10.2005 11.5286 10.3828 11.4902 10.5653 11.5022C10.7479 11.5141 10.9236 11.5759 11.0735 11.6808L16.0735 15.1808C16.2052 15.273 16.3127 15.3956 16.387 15.5382C16.4612 15.6808 16.5 15.8392 16.5 16V12.5C16.5 12.3171 16.5502 12.1376 16.6451 11.9813C16.74 11.8249 16.876 11.6975 17.0382 11.613C17.2005 11.5286 17.3828 11.4902 17.5653 11.5022C17.7479 11.5141 17.9236 11.5759 18.0735 11.6808L23.0735 15.1808C23.2052 15.273 23.3127 15.3956 23.387 15.5382C23.4612 15.6808 23.5 15.8392 23.5 16C23.5 16.1608 23.4612 16.3192 23.387 16.4618C23.3127 16.6044 23.2052 16.727 23.0735 16.8192V16.8192Z"/>
</svg>
