<svg viewBox="0 0 32 32" xmlns="http://www.w3.org/2000/svg">
<path d="M31.6508 16C31.6515 16.335 31.5677 16.6648 31.4072 16.9589C31.2467 17.253 31.0145 17.5018 30.7323 17.6824L19.5815 24.8507C19.2794 25.0449 18.9306 25.1542 18.5716 25.167C18.2127 25.1799 17.8569 25.0958 17.5417 24.9237C17.2264 24.7516 16.9633 24.4978 16.78 24.1889C16.5968 23.88 16.5 23.5275 16.5 23.1683V17.8317L5.58154 24.8507C5.27941 25.0449 4.93055 25.1542 4.57162 25.167C4.21268 25.1799 3.85691 25.0958 3.54166 24.9237C3.22642 24.7516 2.96333 24.4978 2.78004 24.1889C2.59675 23.88 2.50002 23.5275 2.5 23.1683V8.83164C2.50002 8.47247 2.59675 8.11994 2.78004 7.81106C2.96333 7.50218 3.22641 7.24836 3.54166 7.07625C3.85691 6.90414 4.21268 6.8201 4.57162 6.83295C4.93055 6.84579 5.27941 6.95506 5.58154 7.14927L16.5 14.1683V8.83164C16.5 8.47247 16.5968 8.11994 16.78 7.81106C16.9633 7.50218 17.2264 7.24836 17.5417 7.07625C17.8569 6.90414 18.2127 6.8201 18.5716 6.83295C18.9306 6.84579 19.2794 6.95506 19.5815 7.14927L30.7323 14.3176C31.0145 14.4982 31.2467 14.747 31.4072 15.0411C31.5677 15.3351 31.6515 15.6649 31.6508 16V16Z"/>
</svg>
