<svg   viewBox="0 0 24 24" fill="none" xmlns="http://www.w3.org/2000/svg">
<path d="M12.7623 11.2836C12.6822 11.1579 12.5789 11.043 12.4525 10.9452C10.3144 9.29083 7.92689 7.98683 5.37936 7.08204L4.91331 6.91652C4.04367 6.60765 3.12437 7.19604 3.00655 8.09448C2.66969 10.663 2.66969 13.337 3.00655 15.9055C3.12437 16.8039 4.04367 17.3923 4.91331 17.0835L5.37936 16.9179C7.92689 16.0131 10.3144 14.7091 12.4525 13.0547C12.5789 12.9569 12.6822 12.8421 12.7623 12.7164C12.7874 13.7874 12.8688 14.8553 13.0065 15.9055C13.1244 16.8039 14.0437 17.3923 14.9133 17.0835L15.3794 16.9179C17.9269 16.0131 20.3144 14.7091 22.4525 13.0547C23.1425 12.5208 23.1425 11.4791 22.4525 10.9452C20.3144 9.29083 17.9269 7.98683 15.3794 7.08204L14.9133 6.91652C14.0437 6.60765 13.1244 7.19604 13.0065 8.09448C12.8688 9.14469 12.7874 10.2125 12.7623 11.2836Z" fill="black"/>
</svg>
