<svg   viewBox="0 0 32 32" fill="none" xmlns="http://www.w3.org/2000/svg">
<path d="M17 8C16.7348 8.00001 16.4804 8.10537 16.2929 8.29291C16.1054 8.48044 16 8.73479 16 9V23C16 23.2652 16.1054 23.5196 16.2929 23.7071C16.4804 23.8946 16.7348 24 17 24C17.2652 24 17.5196 23.8946 17.7071 23.7071C17.8946 23.5196 18 23.2652 18 23V9C18 8.73479 17.8946 8.48044 17.7071 8.29291C17.5196 8.10537 17.2652 8.00001 17 8Z" fill="black"/>
<path d="M28.5 8H22.5C22.2348 8.00001 21.9804 8.10537 21.7929 8.29291C21.6054 8.48044 21.5 8.73479 21.5 9V23C21.5 23.2652 21.6054 23.5196 21.7929 23.7071C21.9804 23.8946 22.2348 24 22.5 24C22.7652 24 23.0196 23.8946 23.2071 23.7071C23.3946 23.5196 23.5 23.2652 23.5 23V17H27C27.2652 17 27.5196 16.8946 27.7071 16.7071C27.8946 16.5196 28 16.2652 28 16C28 15.7348 27.8946 15.4804 27.7071 15.2929C27.5196 15.1054 27.2652 15 27 15H23.5V10H28.5C28.7652 10 29.0196 9.89464 29.2071 9.70711C29.3946 9.51957 29.5 9.26522 29.5 9C29.5 8.73478 29.3946 8.48043 29.2071 8.29289C29.0196 8.10536 28.7652 8 28.5 8Z" fill="black"/>
<path d="M12 15H9C8.73478 15 8.48043 15.1054 8.29289 15.2929C8.10536 15.4804 8 15.7348 8 16C8 16.2652 8.10536 16.5196 8.29289 16.7071C8.48043 16.8947 8.73478 17 9 17H11V19C11 19.7957 10.6839 20.5587 10.1213 21.1213C9.55871 21.6839 8.79565 22 8 22C7.20435 22 6.44129 21.6839 5.87868 21.1213C5.31607 20.5587 5 19.7957 5 19V13C5.00015 12.2698 5.26654 11.5648 5.74925 11.0169C6.23196 10.4691 6.89788 10.116 7.62222 10.024C8.34656 9.93189 9.07962 10.1071 9.68405 10.5167C10.2885 10.9264 10.7228 11.5424 10.9056 12.2493C10.9383 12.3766 10.9957 12.4962 11.0745 12.6013C11.1534 12.7064 11.2522 12.7949 11.3653 12.8618C11.4785 12.9287 11.6036 12.9726 11.7337 12.9911C11.8638 13.0095 11.9963 13.0022 12.1236 12.9694C12.2508 12.9367 12.3704 12.8792 12.4754 12.8002C12.5804 12.7212 12.6688 12.6223 12.7356 12.5091C12.8023 12.3959 12.8461 12.2707 12.8645 12.1405C12.8828 12.0104 12.8753 11.878 12.8424 11.7507C12.5382 10.5723 11.8147 9.54523 10.8074 8.86207C9.80014 8.17891 8.5783 7.88656 7.3709 8.03981C6.16351 8.19306 5.05345 8.7814 4.2488 9.69454C3.44414 10.6077 3.00014 11.7829 3 13V19C3 20.3261 3.52678 21.5979 4.46447 22.5355C5.40215 23.4732 6.67392 24 8 24C9.32608 24 10.5979 23.4732 11.5355 22.5355C12.4732 21.5979 13 20.3261 13 19V16C13 15.7348 12.8946 15.4805 12.7071 15.2929C12.5196 15.1054 12.2652 15 12 15V15Z" fill="black"/>
</svg>
