<svg viewBox="0 0 32 32" xmlns="http://www.w3.org/2000/svg">
<path d="M29.182 16V26C29.1805 27.3256 28.6532 28.5965 27.7159 29.5339C26.7785 30.4712 25.5076 30.9985 24.182 31H17C16.7348 31 16.4804 30.8947 16.2929 30.7071C16.1054 30.5196 16 30.2652 16 30C16 29.7348 16.1054 29.4804 16.2929 29.2929C16.4804 29.1054 16.7348 29 17 29H24.182C24.9774 28.9991 25.7399 28.6827 26.3023 28.1203C26.8647 27.5579 27.1811 26.7954 27.182 26V25.828C26.8609 25.942 26.5227 26.0001 26.182 26H24.182C23.3866 25.9991 22.6241 25.6827 22.0617 25.1203C21.4993 24.5579 21.1829 23.7954 21.182 23V18C21.1829 17.2046 21.4993 16.4421 22.0617 15.8797C22.6241 15.3173 23.3866 15.0009 24.182 15H27.1376C26.8863 12.2527 25.6121 9.70012 23.5675 7.84803C21.5228 5.99595 18.8571 4.97957 16.0984 5.00032C16.0933 5.00038 16.0886 5.00038 16.0835 5.00032C13.3249 4.97965 10.6591 5.99607 8.61456 7.84814C6.56998 9.70021 5.29577 12.2528 5.04443 15H8C8.79537 15.0009 9.5579 15.3173 10.1203 15.8797C10.6827 16.4421 10.9991 17.2046 11 18V23C10.9991 23.7954 10.6827 24.5579 10.1203 25.1203C9.5579 25.6827 8.79537 25.9991 8 26H6C5.20463 25.9991 4.4421 25.6827 3.87968 25.1203C3.31727 24.5579 3.00091 23.7954 3 23V16C3 14.2852 3.33928 12.5873 3.99829 11.0041C4.6573 9.42098 5.62302 7.98385 6.83983 6.77553C8.05663 5.5672 9.50048 4.61156 11.0882 3.96364C12.6759 3.31572 14.3761 2.98833 16.0909 3.00032C16.1215 3.00014 16.1523 3.00001 16.1829 3.00001C19.6305 3.00024 22.9369 4.36998 25.3747 6.80793C27.8125 9.24588 29.182 12.5523 29.182 16V16Z"/>
</svg>
