<svg   viewBox="0 0 24 24" fill="none" xmlns="http://www.w3.org/2000/svg">
<path d="M4.28547 8.34374C3.11311 8.65832 2.25 9.72836 2.25 11V14C2.25 15.5188 3.48122 16.75 5 16.75H7.5C7.91421 16.75 8.25 16.4142 8.25 16V9C8.25 8.58579 7.91421 8.25 7.5 8.25H5.81483C6.24399 5.78002 8.75862 3.75 12 3.75C15.2414 3.75 17.756 5.78002 18.1852 8.25H16.5C16.0858 8.25 15.75 8.58579 15.75 9V16C15.75 16.4142 16.0858 16.75 16.5 16.75H18.163C17.8244 18.1834 16.5368 19.25 15 19.25H13.8546C13.5579 18.517 12.8393 18 12 18C10.8954 18 10 18.8954 10 20C10 21.1046 10.8954 22 12 22C12.8393 22 13.5579 21.483 13.8546 20.75H15C17.3998 20.75 19.3839 18.9704 19.7047 16.6589C20.882 16.3477 21.75 15.2752 21.75 14V11C21.75 9.72836 20.8869 8.65832 19.7145 8.34375C19.3331 4.83959 15.9262 2.25 12 2.25C8.0738 2.25 4.66693 4.83959 4.28547 8.34374Z" fill="black"/>
</svg>
