<svg   viewBox="0 0 32 32" fill="none" xmlns="http://www.w3.org/2000/svg">
<path d="M25.3401 7.77343C24.1372 6.57265 22.7091 5.62119 21.1377 4.97365C19.5663 4.32611 17.8825 3.99523 16.1829 3.99999C16.1523 3.99999 16.1215 4.00011 16.0909 4.00029C14.3761 3.9883 12.6759 4.3157 11.0882 4.96362C9.50048 5.61154 8.05663 6.56718 6.83983 7.77551C5.62302 8.98383 4.6573 10.421 3.99829 12.0041C3.33928 13.5873 3 15.2852 3 17V24C3.00091 24.7954 3.31727 25.5579 3.87968 26.1203C4.4421 26.6827 5.20463 26.9991 6 27H8C8.79537 26.9991 9.5579 26.6827 10.1203 26.1203C10.6827 25.5579 10.9991 24.7954 11 24V19C10.9991 18.2046 10.6827 17.4421 10.1203 16.8797C9.5579 16.3173 8.79537 16.0009 8 16H5.04443C5.29577 13.2528 6.56999 10.7002 8.61456 8.84811C10.6591 6.99604 13.3249 5.97963 16.0835 6.00029C16.0886 6.00036 16.0933 6.00036 16.0984 6.00029C18.8571 5.97955 21.5228 6.99593 23.5675 8.84801C25.6121 10.7001 26.8863 13.2527 27.1376 16H24.182C23.3866 16.0009 22.6241 16.3173 22.0617 16.8797C21.4993 17.4421 21.1829 18.2046 21.182 19V24C21.1829 24.7954 21.4993 25.5579 22.0617 26.1203C22.6241 26.6827 23.3866 26.9991 24.182 27H26.182C26.9774 26.9991 27.7399 26.6827 28.3023 26.1203C28.8647 25.5579 29.1811 24.7954 29.182 24V17C29.187 15.2839 28.8498 13.5841 28.1901 11.9999C27.5304 10.4156 26.5615 8.97882 25.3401 7.77343V7.77343Z" fill="black"/>
</svg>
