<svg   viewBox="0 0 32 32" fill="none" xmlns="http://www.w3.org/2000/svg">
<path d="M12.5 13C13.3284 13 14 12.3284 14 11.5C14 10.6716 13.3284 10 12.5 10C11.6716 10 11 10.6716 11 11.5C11 12.3284 11.6716 13 12.5 13Z" fill="black"/>
<path d="M26.0001 3.99994H6.00012C5.46988 4.00055 4.96152 4.21145 4.58658 4.5864C4.21164 4.96134 4.00073 5.46969 4.00012 5.99994V21.9967L4 22.0005L4.00012 25.9999C4.00073 26.5302 4.21164 27.0385 4.58658 27.4135C4.96152 27.7884 5.46988 27.9993 6.00012 27.9999H26.0001C26.5304 27.9993 27.0387 27.7884 27.4137 27.4135C27.7886 27.0385 27.9995 26.5302 28.0001 25.9999V5.99994C27.9995 5.46969 27.7886 4.96134 27.4137 4.5864C27.0387 4.21145 26.5304 4.00055 26.0001 3.99994ZM22.4143 13.9999C22.0389 13.6254 21.5303 13.4151 21.0001 13.4151C20.4698 13.4151 19.9612 13.6254 19.5858 13.9999L14.0001 19.5858L11.4143 16.9999C11.0389 16.6255 10.5303 16.4152 10.0001 16.4152C9.46984 16.4152 8.96125 16.6255 8.58582 16.9999L6.00012 19.5856V5.99994H26.0001L26.0009 17.5865L22.4143 13.9999Z" fill="black"/>
</svg>
