<svg   viewBox="0 0 32 32" fill="none" xmlns="http://www.w3.org/2000/svg">
<path d="M26.7401 26.3273L6.74007 4.32728C6.65172 4.23011 6.5451 4.15128 6.42629 4.09531C6.30749 4.03934 6.17882 4.00732 6.04764 4.00107C5.91645 3.99482 5.78532 4.01448 5.66174 4.05891C5.53815 4.10334 5.42452 4.17168 5.32735 4.26002C5.23017 4.34837 5.15134 4.45499 5.09537 4.5738C5.0394 4.6926 5.00738 4.82127 5.00113 4.95245C4.99489 5.08364 5.01454 5.21477 5.05897 5.33835C5.1034 5.46194 5.17174 5.57557 5.26009 5.67274L10.0001 10.8867V16C9.99986 17.077 10.2896 18.1343 10.8389 19.0607C11.3882 19.9871 12.1768 20.7486 13.1219 21.2651C14.067 21.7816 15.1337 22.0342 16.21 21.9963C17.2864 21.9584 18.3327 21.6314 19.2391 21.0496L20.5985 22.5449C19.4621 23.3437 18.1374 23.8329 16.7546 23.9642C15.3718 24.0955 13.9786 23.8645 12.7122 23.2938C11.4458 22.7232 10.3499 21.8327 9.53218 20.7098C8.7145 19.587 8.2033 18.2706 8.0489 16.8902C8.01965 16.6266 7.88696 16.3855 7.67999 16.2198C7.47301 16.0542 7.20871 15.9774 6.94519 16.0066C6.68167 16.0357 6.44051 16.1683 6.27472 16.3752C6.10893 16.5821 6.0321 16.8463 6.06111 17.1099C6.31146 19.385 7.33624 21.5049 8.96369 23.1142C10.5911 24.7236 12.7223 25.7247 15.0001 25.9496V29C15.0001 29.2652 15.1054 29.5196 15.293 29.7071C15.4805 29.8947 15.7349 30 16.0001 30C16.2653 30 16.5196 29.8947 16.7072 29.7071C16.8947 29.5196 17.0001 29.2652 17.0001 29V25.9489C18.7937 25.7704 20.5053 25.1088 21.9526 24.0345L25.2601 27.6727C25.4385 27.869 25.6876 27.9863 25.9525 27.999C26.2175 28.0116 26.4766 27.9184 26.6728 27.74C26.8691 27.5616 26.9864 27.3125 26.999 27.0476C27.0116 26.7826 26.9185 26.5235 26.7401 26.3273H26.7401Z" fill="black"/>
<path d="M20.2574 16.2263C20.3931 16.3757 20.5709 16.4804 20.7674 16.5268C20.9638 16.5732 21.1697 16.5591 21.3579 16.4863C21.5462 16.4135 21.708 16.2855 21.8221 16.119C21.9363 15.9525 21.9974 15.7554 21.9974 15.5536V8C21.9972 6.69441 21.5713 5.42448 20.7842 4.38285C19.997 3.34122 18.8916 2.58474 17.6357 2.22815C16.3797 1.87156 15.0417 1.93433 13.8247 2.40693C12.6076 2.87953 11.5779 3.73618 10.8918 4.84693C10.7775 5.03165 10.7265 5.24855 10.7464 5.46484C10.7663 5.68113 10.8561 5.88505 11.0022 6.04578L20.2574 16.2263Z" fill="black"/>
<path d="M24.0185 20.2081C24.1408 20.2561 24.2714 20.2794 24.4027 20.2769C24.534 20.2743 24.6635 20.2459 24.7839 20.1933C24.9042 20.1406 25.013 20.0647 25.104 19.97C25.1949 19.8752 25.2663 19.7635 25.3141 19.6411C25.6317 18.8283 25.8411 17.9773 25.9369 17.1098C25.966 16.8463 25.8892 16.5819 25.7234 16.3749C25.5577 16.1679 25.3164 16.0352 25.0528 16.0061C24.7892 15.9769 24.5249 16.0537 24.3179 16.2195C24.1109 16.3853 23.9782 16.6265 23.9491 16.8901C23.8725 17.5832 23.7052 18.2631 23.4515 18.9126C23.3549 19.1596 23.3604 19.4348 23.4667 19.6778C23.573 19.9207 23.7715 20.1115 24.0185 20.2081V20.2081Z" fill="black"/>
</svg>
