<svg viewBox="0 0 24 24" xmlns="http://www.w3.org/2000/svg">
<path d="M14.1661 3.18862C12.7369 2.89579 11.2632 2.89579 9.8341 3.18862C9.39028 3.27956 9.04853 3.63482 8.97486 4.08184L8.92064 4.41083C8.47437 7.11868 8.47437 9.88132 8.92064 12.5892L8.97486 12.9182C9.04853 13.3652 9.39028 13.7204 9.8341 13.8114C11.2632 14.1042 12.7369 14.1042 14.1661 13.8114C14.6099 13.7204 14.9517 13.3652 15.0253 12.9182L15.0795 12.5892C15.5258 9.88132 15.5258 7.11868 15.0795 4.41083L15.0253 4.08183C14.9517 3.63482 14.6099 3.27956 14.1661 3.18862Z"/>
<path d="M4.89487 10.2574C5.30499 10.1993 5.68456 10.4847 5.74268 10.8948L6.19318 14.0741C6.3149 14.9331 6.99582 15.6047 7.8564 15.7146C10.6077 16.0661 13.3925 16.0661 16.1438 15.7146C17.0044 15.6047 17.6853 14.9331 17.807 14.0741L18.2575 10.8948C18.3156 10.4847 18.6952 10.1993 19.1053 10.2574C19.5154 10.3155 19.8008 10.6951 19.7427 11.1052L19.2922 14.2845C19.0757 15.8124 17.8645 17.007 16.3338 17.2025C15.1436 17.3546 13.9474 17.4437 12.7501 17.47V21.5C12.7501 21.9142 12.4143 22.25 12.0001 22.25C11.5859 22.25 11.2501 21.9142 11.2501 21.5V17.47C10.0528 17.4437 8.8566 17.3546 7.66635 17.2025C6.13565 17.007 4.92452 15.8124 4.70802 14.2845L4.25751 11.1052C4.1994 10.6951 4.48475 10.3155 4.89487 10.2574Z"/>
</svg>
