<svg viewBox="0 0 32 32" xmlns="http://www.w3.org/2000/svg">
<path d="M16 21.9995C17.5906 21.9978 19.1156 21.3653 20.2404 20.2406C21.3653 19.116 21.9981 17.5911 22 16.0005V7.99951C22 6.40821 21.3679 4.88209 20.2426 3.75687C19.1174 2.63165 17.5913 1.99951 16 1.99951C14.4087 1.99951 12.8826 2.63165 11.7574 3.75687C10.6321 4.88209 10 6.40821 10 7.99951V15.9995C10.0017 17.5903 10.6344 19.1154 11.7593 20.2402C12.8841 21.3651 14.4092 21.9978 16 21.9995V21.9995Z"/>
<path d="M25.0548 16.0063C24.7917 15.9799 24.5286 16.0578 24.3223 16.2232C24.1159 16.3887 23.9827 16.6285 23.9513 16.8911C23.7318 18.8464 22.7995 20.6522 21.3327 21.9635C19.8658 23.2748 17.9672 23.9996 15.9997 23.9995C14.0322 23.9994 12.1337 23.2743 10.667 21.9628C9.20027 20.6513 8.26823 18.8454 8.04896 16.8901C8.01668 16.628 7.88321 16.3888 7.67704 16.2237C7.47086 16.0586 7.20832 15.9806 6.94544 16.0063C6.68172 16.0356 6.44041 16.1684 6.27452 16.3755C6.10862 16.5826 6.03171 16.8471 6.06067 17.1108C6.31523 19.3801 7.34257 21.4927 8.97028 23.0942C10.598 24.6958 12.727 25.6887 15.0001 25.9064V28.9995C15.0001 29.2647 15.1055 29.5191 15.293 29.7066C15.4806 29.8941 15.7349 29.9995 16.0001 29.9995C16.2653 29.9995 16.5197 29.8941 16.7072 29.7066C16.8948 29.5191 17.0001 29.2647 17.0001 28.9995V25.9065C19.2736 25.6893 21.403 24.6964 23.0309 23.0945C24.6587 21.4927 25.6858 19.3795 25.9396 17.1099C25.9685 16.8462 25.8916 16.5819 25.7257 16.3749C25.5597 16.168 25.3184 16.0354 25.0548 16.0063V16.0063Z"/>
</svg>
