<svg   viewBox="0 0 32 32" fill="none" xmlns="http://www.w3.org/2000/svg">
<path d="M26.2886 7.04218L16.2886 4.04218C16.1392 3.99738 15.9815 3.98811 15.828 4.01512C15.6744 4.04212 15.5293 4.10465 15.4043 4.1977C15.2792 4.29076 15.1776 4.41177 15.1076 4.55107C15.0376 4.69038 15.0012 4.84411 15.0012 5V18.5327C13.9775 17.6175 12.6708 17.0814 11.2993 17.0139C9.92783 16.9464 8.57475 17.3516 7.46614 18.1618C6.35753 18.972 5.56056 20.1381 5.20839 21.4653C4.85623 22.7925 4.97021 24.2004 5.53128 25.4536C6.09236 26.7069 7.06654 27.7296 8.29104 28.351C9.51555 28.9723 10.9162 29.1546 12.2589 28.8673C13.6017 28.5801 14.8052 27.8407 15.6683 26.7728C16.5315 25.7049 17.002 24.3731 17.0012 23V6.34406L25.7138 8.95783C25.9679 9.03404 26.2418 9.00622 26.4753 8.88048C26.7088 8.75474 26.8828 8.54139 26.959 8.28736C27.0352 8.03333 27.0074 7.75943 26.8817 7.52591C26.7559 7.29239 26.5426 7.11839 26.2886 7.04218V7.04218Z" fill="black"/>
</svg>
