<svg   viewBox="0 0 32 32" fill="none" xmlns="http://www.w3.org/2000/svg">
<path d="M26.6126 3.2118C26.4929 3.11828 26.3533 3.05328 26.2047 3.02176C26.056 2.99023 25.9021 2.993 25.7547 3.02985L9.75472 7.02985C9.53836 7.08394 9.3463 7.2088 9.20905 7.38459C9.07181 7.56037 8.99726 7.77699 8.99728 8.00001V21.7604C8.16327 21.2034 7.16703 20.941 6.16682 21.015C5.16662 21.089 4.21982 21.4951 3.47684 22.1687C2.73386 22.8424 2.2373 23.7451 2.06606 24.7333C1.89482 25.7215 2.05872 26.7386 2.53171 27.623C3.00471 28.5074 3.75967 29.2083 4.67667 29.6145C5.59366 30.0207 6.6201 30.1088 7.59291 29.8649C8.56572 29.6209 9.42911 29.0589 10.0459 28.2681C10.6627 27.4772 10.9976 26.5029 10.9973 25.5V8.78077L24.9973 5.28077V17.7604C24.1633 17.2034 23.167 16.941 22.1668 17.015C21.1666 17.089 20.2198 17.4951 19.4768 18.1687C18.7339 18.8424 18.2373 19.7451 18.0661 20.7333C17.8948 21.7215 18.0587 22.7386 18.5317 23.623C19.0047 24.5074 19.7597 25.2083 20.6767 25.6145C21.5937 26.0207 22.6201 26.1088 23.5929 25.8649C24.5657 25.6209 25.4291 25.0589 26.0459 24.2681C26.6627 23.4772 26.9976 22.5029 26.9973 21.5V4.00001C26.9973 3.84803 26.9626 3.69806 26.896 3.56148C26.8293 3.4249 26.7324 3.30531 26.6126 3.2118V3.2118Z" fill="black"/>
</svg>
