<svg   viewBox="0 0 32 32" fill="none" xmlns="http://www.w3.org/2000/svg">
<path d="M26.6183 3.21142C26.4991 3.11715 26.3596 3.05172 26.2109 3.02021C26.0622 2.9887 25.9082 2.99198 25.7609 3.02978L9.76091 7.02978C9.54453 7.08372 9.35239 7.20848 9.21508 7.38419C9.07776 7.55991 9.00314 7.7765 9.0031 7.99951V21.7615C8.16919 21.2046 7.17312 20.9424 6.17313 21.0165C5.17314 21.0906 4.22658 21.4967 3.48385 22.1704C2.74111 22.8441 2.24479 23.7466 2.07374 24.7346C1.90269 25.7227 2.06672 26.7395 2.53977 27.6237C3.01282 28.5078 3.76775 29.2085 4.68464 29.6145C5.60152 30.0204 6.62777 30.1083 7.60034 29.8642C8.57291 29.6201 9.43601 29.058 10.0525 28.2672C10.6691 27.4764 11.0036 26.5022 11.0031 25.4995V13.7798L25.0031 10.2798V17.7615C24.1692 17.2046 23.1731 16.9424 22.1731 17.0165C21.1731 17.0906 20.2266 17.4967 19.4838 18.1704C18.7411 18.8441 18.2448 19.7466 18.0737 20.7346C17.9027 21.7227 18.0667 22.7395 18.5398 23.6237C19.0128 24.5078 19.7678 25.2085 20.6846 25.6145C21.6015 26.0204 22.6278 26.1083 23.6003 25.8642C24.5729 25.6201 25.436 25.058 26.0525 24.2672C26.6691 23.4764 27.0036 22.5022 27.0031 21.4995V3.99951C27.0029 3.84757 26.9682 3.69766 26.9015 3.56113C26.8349 3.42459 26.738 3.30501 26.6183 3.21142V3.21142Z" fill="black"/>
</svg>
