<svg   viewBox="0 0 24 24" fill="none" xmlns="http://www.w3.org/2000/svg">
<path d="M17.2757 5.46995C17.7109 5.63029 18 6.04492 18 6.50872L18 17.4912C18 17.955 17.7109 18.3696 17.2757 18.53C16.4523 18.8333 15.5477 18.8333 14.7243 18.53C14.2891 18.3696 14 17.955 14 17.4912L14 6.50872C14 6.04492 14.2891 5.63029 14.7243 5.46995C15.5477 5.16659 16.4523 5.16659 17.2757 5.46995Z" fill="black"/>
<path d="M9.27568 5.46995C9.71088 5.63029 10 6.04492 10 6.50872L10 17.4912C10 17.955 9.71088 18.3696 9.27568 18.53C8.45228 18.8333 7.54772 18.8333 6.72432 18.53C6.28912 18.3696 6 17.955 6 17.4912L6 6.50872C6 6.04492 6.28912 5.63029 6.72432 5.46995C7.54772 5.16659 8.45228 5.16659 9.27568 5.46995Z" fill="black"/>
</svg>
