<svg viewBox="0 0 32 32" xmlns="http://www.w3.org/2000/svg">
<path d="M27 6H5C4.46975 6.00061 3.9614 6.21151 3.58646 6.58646C3.21151 6.9614 3.00061 7.46975 3 8V24C3.00061 24.5302 3.21151 25.0386 3.58646 25.4135C3.9614 25.7885 4.46975 25.9994 5 26H27C27.5302 25.9994 28.0386 25.7885 28.4135 25.4135C28.7885 25.0386 28.9994 24.5302 29 24V8C28.9994 7.46975 28.7885 6.9614 28.4135 6.58646C28.0386 6.21151 27.5302 6.00061 27 6V6ZM5 8H27L27.0005 15H18C17.4698 15.0006 16.9614 15.2115 16.5865 15.5865C16.2115 15.9614 16.0006 16.4698 16 17V24H5V8Z"/>
</svg>
