<svg viewBox="0 0 32 32" xmlns="http://www.w3.org/2000/svg">
<path d="M4 8C4 7.73478 4.10536 7.48043 4.2929 7.2929C4.48043 7.10536 4.73478 7 5 7H27C27.2652 7 27.5196 7.10536 27.7071 7.29289C27.8946 7.48043 28 7.73478 28 8C28 8.26522 27.8946 8.51957 27.7071 8.70711C27.5196 8.89464 27.2652 9 27 9H5C4.73478 9 4.48043 8.89464 4.2929 8.7071C4.10536 8.51957 4 8.26522 4 8V8ZM5 17H20C20.2652 17 20.5196 16.8946 20.7071 16.7071C20.8946 16.5196 21 16.2652 21 16C21 15.7348 20.8946 15.4804 20.7071 15.2929C20.5196 15.1054 20.2652 15 20 15H5C4.73478 15 4.48043 15.1054 4.29289 15.2929C4.10536 15.4804 4 15.7348 4 16C4 16.2652 4.10536 16.5196 4.29289 16.7071C4.48043 16.8946 4.73478 17 5 17ZM14 23H5C4.73478 23 4.48043 23.1054 4.29289 23.2929C4.10536 23.4804 4 23.7348 4 24C4 24.2652 4.10536 24.5196 4.29289 24.7071C4.48043 24.8946 4.73478 25 5 25H14C14.2652 25 14.5196 24.8946 14.7071 24.7071C14.8946 24.5196 15 24.2652 15 24C15 23.7348 14.8946 23.4804 14.7071 23.2929C14.5196 23.1054 14.2652 23 14 23ZM30.2874 14.5422L25.2874 13.0422C25.138 12.9974 24.9803 12.9881 24.8268 13.0151C24.6732 13.0421 24.5281 13.1046 24.4031 13.1977C24.278 13.2908 24.1764 13.4118 24.1064 13.5511C24.0364 13.6904 24 13.8441 24 14V20.5381C23.2376 20.0982 22.3513 19.9221 21.4786 20.0372C20.6059 20.1523 19.7956 20.5521 19.1733 21.1747C18.551 21.7973 18.1516 22.6078 18.0369 23.4805C17.9223 24.3533 18.0988 25.2395 18.5391 26.0017C18.9795 26.7639 19.659 27.3595 20.4723 27.6961C21.2857 28.0327 22.1874 28.0915 23.0376 27.8634C23.8877 27.6353 24.6389 27.1331 25.1745 26.4345C25.7102 25.736 26.0003 24.8802 26 24V15.3441L29.7126 16.4578C29.9667 16.534 30.2406 16.5062 30.4741 16.3805C30.7076 16.2547 30.8816 16.0414 30.9578 15.7874C31.034 15.5333 31.0062 15.2594 30.8805 15.0259C30.7547 14.7924 30.5414 14.6184 30.2874 14.5422V14.5422Z"/>
</svg>
