<svg   viewBox="0 0 32 32" fill="none" xmlns="http://www.w3.org/2000/svg">
<path d="M16 3C13.4288 3 10.9154 3.76244 8.77759 5.1909C6.63975 6.61935 4.97351 8.64968 3.98957 11.0251C3.00563 13.4006 2.74819 16.0144 3.2498 18.5362C3.75141 21.0579 4.98953 23.3743 6.80762 25.1924C8.6257 27.0105 10.9421 28.2486 13.4638 28.7502C15.9856 29.2518 18.5995 28.9944 20.9749 28.0104C23.3503 27.0265 25.3807 25.3603 26.8091 23.2224C28.2376 21.0846 29 18.5712 29 16C28.996 12.5534 27.6251 9.24912 25.188 6.81201C22.7509 4.3749 19.4466 3.00398 16 3V3ZM20.5547 16.832L14.5547 20.832C14.4041 20.9326 14.2291 20.9904 14.0482 20.9992C13.8674 21.008 13.6875 20.9676 13.5279 20.8821C13.3683 20.7967 13.2348 20.6695 13.1418 20.5141C13.0489 20.3588 12.9998 20.1811 13 20V12C12.9998 11.8189 13.0489 11.6412 13.1418 11.4859C13.2348 11.3305 13.3683 11.2033 13.5279 11.1179C13.6875 11.0324 13.8674 10.992 14.0482 11.0008C14.2291 11.0096 14.4041 11.0674 14.5547 11.168L20.5547 15.168C20.6917 15.2593 20.804 15.383 20.8817 15.5281C20.9594 15.6733 21 15.8354 21 16C21 16.1646 20.9594 16.3267 20.8817 16.4719C20.804 16.617 20.6917 16.7407 20.5547 16.832V16.832Z" fill="black"/>
</svg>
