<svg   viewBox="0 0 32 32" fill="none" xmlns="http://www.w3.org/2000/svg">
<path d="M4 8C4 7.73478 4.10536 7.48043 4.2929 7.2929C4.48043 7.10536 4.73478 7 5 7H27C27.2652 7 27.5196 7.10536 27.7071 7.29289C27.8946 7.48043 28 7.73478 28 8C28 8.26522 27.8946 8.51957 27.7071 8.70711C27.5196 8.89464 27.2652 9 27 9H5C4.73478 9 4.48043 8.89464 4.2929 8.7071C4.10536 8.51957 4 8.26522 4 8V8ZM17 15H5C4.73478 15 4.48043 15.1054 4.29289 15.2929C4.10536 15.4804 4 15.7348 4 16C4 16.2652 4.10536 16.5196 4.29289 16.7071C4.48043 16.8946 4.73478 17 5 17H17C17.2652 17 17.5196 16.8946 17.7071 16.7071C17.8946 16.5196 18 16.2652 18 16C18 15.7348 17.8946 15.4804 17.7071 15.2929C17.5196 15.1054 17.2652 15 17 15ZM17 23H5C4.73478 23 4.48043 23.1054 4.29289 23.2929C4.10536 23.4804 4 23.7348 4 24C4 24.2652 4.10536 24.5196 4.29289 24.7071C4.48043 24.8946 4.73478 25 5 25H17C17.2652 25 17.5196 24.8946 17.7071 24.7071C17.8946 24.5196 18 24.2652 18 24C18 23.7348 17.8946 23.4804 17.7071 23.2929C17.5196 23.1054 17.2652 23 17 23ZM30.53 19.152L22.53 14.152C22.3787 14.0574 22.2047 14.005 22.0263 14.0003C21.8478 13.9957 21.6714 14.0388 21.5153 14.1254C21.3591 14.2119 21.229 14.3386 21.1384 14.4924C21.0478 14.6462 21 14.8215 21 15V25C21 25.1785 21.0478 25.3538 21.1384 25.5076C21.229 25.6614 21.3591 25.7881 21.5153 25.8746C21.6714 25.9612 21.8478 26.0043 22.0263 25.9997C22.2047 25.995 22.3787 25.9426 22.53 25.848L30.53 20.848C30.6738 20.7581 30.7924 20.6331 30.8747 20.4848C30.9569 20.3364 31 20.1696 31 20C31 19.8304 30.9569 19.6636 30.8747 19.5152C30.7924 19.3669 30.6738 19.2419 30.53 19.152V19.152Z" fill="black"/>
</svg>
