<svg viewBox="0 0 32 32" xmlns="http://www.w3.org/2000/svg">
<path d="M3.00003 16C3.00272 13.6139 3.9518 11.3262 5.63904 9.63899C7.32629 7.95175 9.61391 7.00267 12 6.99998H24V4.99998C24 4.8022 24.0587 4.60885 24.1686 4.4444C24.2785 4.27995 24.4346 4.15177 24.6174 4.07608C24.8001 4.0004 25.0012 3.9806 25.1952 4.01919C25.3891 4.05778 25.5673 4.15303 25.7072 4.29289L28.7072 7.29289C28.8947 7.48043 29.0001 7.73478 29.0001 7.99999C29.0001 8.26519 28.8947 8.51954 28.7072 8.70708L25.7072 11.7071C25.5673 11.8469 25.3891 11.9422 25.1952 11.9808C25.0012 12.0194 24.8001 11.9996 24.6174 11.9239C24.4346 11.8482 24.2785 11.72 24.1686 11.5556C24.0587 11.3911 24 11.1978 24 11V8.99999H12C10.1442 9.00208 8.3649 9.74025 7.0526 11.0525C5.74029 12.3648 5.00212 14.1441 5.00003 16C5.00003 16.2652 4.89468 16.5196 4.70714 16.7071C4.5196 16.8946 4.26525 17 4.00003 17C3.73482 17 3.48046 16.8946 3.29293 16.7071C3.10539 16.5196 3.00003 16.2652 3.00003 16ZM28 15C27.7348 15 27.4805 15.1054 27.2929 15.2929C27.1054 15.4804 27 15.7348 27 16C26.9979 17.8559 26.2598 19.6351 24.9475 20.9474C23.6352 22.2597 21.8559 22.9979 20 23H8.00003V21C8.00003 20.8022 7.94138 20.6089 7.8315 20.4444C7.72161 20.2799 7.56543 20.1518 7.38269 20.0761C7.19996 20.0004 6.99889 19.9806 6.8049 20.0192C6.61092 20.0578 6.43273 20.153 6.29288 20.2929L3.29288 23.2929C3.10535 23.4804 3 23.7348 3 24C3 24.2652 3.10535 24.5195 3.29288 24.7071L6.29288 27.7071C6.43273 27.8469 6.61092 27.9422 6.8049 27.9808C6.99889 28.0194 7.19996 27.9996 7.38269 27.9239C7.56543 27.8482 7.72161 27.72 7.8315 27.5556C7.94138 27.3911 8.00003 27.1978 8.00003 27V25H20C22.3862 24.9973 24.6738 24.0482 26.361 22.361C28.0483 20.6737 28.9973 18.3861 29 16C29 15.7348 28.8947 15.4804 28.7071 15.2929C28.5196 15.1054 28.2652 15 28 15V15Z"/>
</svg>
