<svg viewBox="0 0 32 32" xmlns="http://www.w3.org/2000/svg">
<path d="M1.27002 14.3176L12.4208 7.1493C12.7229 6.95509 13.0718 6.84582 13.4307 6.83298C13.7896 6.82013 14.1454 6.90417 14.4607 7.07628C14.7759 7.24839 15.039 7.50221 15.2223 7.81109C15.4056 8.11997 15.5023 8.4725 15.5023 8.83167V14.1683L26.4208 7.1493C26.7229 6.95509 27.0718 6.84582 27.4307 6.83298C27.7896 6.82013 28.1454 6.90417 28.4607 7.07628C28.7759 7.24839 29.039 7.50221 29.2223 7.81109C29.4056 8.11997 29.5023 8.4725 29.5023 8.83167V23.1683C29.5024 23.5275 29.4057 23.8801 29.2224 24.189C29.0391 24.4979 28.776 24.7518 28.4608 24.9239C28.1455 25.096 27.7897 25.1801 27.4307 25.1672C27.0718 25.1543 26.7229 25.045 26.4208 24.8507L15.5023 17.8317V23.1683C15.5024 23.5275 15.4057 23.8801 15.2224 24.189C15.0391 24.4979 14.776 24.7518 14.4608 24.9239C14.1455 25.096 13.7897 25.1801 13.4307 25.1672C13.0718 25.1543 12.7229 25.045 12.4208 24.8507L1.27002 17.6824C0.98832 17.5013 0.756604 17.2523 0.59613 16.9584C0.435657 16.6644 0.351562 16.3349 0.351562 16C0.351562 15.6651 0.435657 15.3356 0.59613 15.0416C0.756604 14.7477 0.98832 14.4987 1.27002 14.3176V14.3176Z"/>
</svg>
