<svg viewBox="0 0 32 32" xmlns="http://www.w3.org/2000/svg">
<path d="M3 16C3 18.5712 3.76244 21.0846 5.1909 23.2224C6.61935 25.3603 8.64968 27.0265 11.0251 28.0104C13.4006 28.9944 16.0144 29.2518 18.5362 28.7502C21.0579 28.2486 23.3743 27.0105 25.1924 25.1924C27.0105 23.3743 28.2486 21.0579 28.7502 18.5362C29.2518 16.0144 28.9944 13.4006 28.0104 11.0251C27.0265 8.64968 25.3603 6.61935 23.2224 5.1909C21.0846 3.76244 18.5712 3 16 3C12.5534 3.0039 9.24905 4.37479 6.81192 6.81192C4.37479 9.24905 3.0039 12.5534 3 16V16ZM8.5 16C8.5 15.8392 8.53876 15.6808 8.61301 15.5382C8.68726 15.3956 8.7948 15.273 8.92651 15.1808L13.9265 11.6808C14.0764 11.5759 14.2521 11.5141 14.4347 11.5022C14.6172 11.4902 14.7995 11.5286 14.9618 11.613C15.124 11.6975 15.26 11.8249 15.3549 11.9813C15.4498 12.1376 15.5 12.3171 15.5 12.5V16C15.5 15.8392 15.5388 15.6808 15.613 15.5382C15.6873 15.3956 15.7948 15.273 15.9265 15.1808L20.9265 11.6808C21.0764 11.5759 21.2521 11.5141 21.4347 11.5022C21.6172 11.4902 21.7995 11.5286 21.9618 11.613C22.124 11.6975 22.26 11.8249 22.3549 11.9813C22.4498 12.1376 22.5 12.3171 22.5 12.5V19.5C22.5 19.6829 22.4498 19.8624 22.3549 20.0187C22.26 20.1751 22.1241 20.3025 21.9618 20.387C21.7995 20.4715 21.6172 20.5098 21.4347 20.4979C21.2521 20.4859 21.0764 20.4241 20.9265 20.3192L15.9265 16.8192C15.7948 16.727 15.6873 16.6044 15.613 16.4618C15.5388 16.3192 15.5 16.1608 15.5 16V19.5C15.5 19.6829 15.4498 19.8624 15.3549 20.0187C15.26 20.1751 15.1241 20.3025 14.9618 20.387C14.7995 20.4715 14.6172 20.5098 14.4347 20.4979C14.2521 20.4859 14.0764 20.4241 13.9265 20.3192L8.92651 16.8192C8.7948 16.727 8.68726 16.6044 8.61301 16.4618C8.53876 16.3192 8.5 16.1608 8.5 16Z"/>
</svg>
