<svg viewBox="0 0 32 32" xmlns="http://www.w3.org/2000/svg">
<path d="M4 23C3.73478 23 3.48043 23.1054 3.29289 23.2929C3.10536 23.4804 3 23.7348 3 24C3 24.2652 3.10536 24.5196 3.29289 24.7071C3.48043 24.8946 3.73478 25 4 25C4.26512 25.0003 4.5193 25.1058 4.70677 25.2932C4.89424 25.4807 4.9997 25.7349 5 26C5 26.2652 5.10536 26.5196 5.29289 26.7071C5.48043 26.8946 5.73478 27 6 27C6.26522 27 6.51957 26.8946 6.70711 26.7071C6.89464 26.5196 7 26.2652 7 26C6.9991 25.2046 6.68274 24.4421 6.12033 23.8797C5.55791 23.3173 4.79537 23.0009 4 23V23Z"/>
<path d="M4 19C3.73478 19 3.48043 19.1054 3.29289 19.2929C3.10536 19.4804 3 19.7348 3 20C3 20.2652 3.10536 20.5196 3.29289 20.7071C3.48043 20.8946 3.73478 21 4 21C5.32562 21.0015 6.59652 21.5288 7.53387 22.4661C8.47123 23.4035 8.99849 24.6744 9 26C9 26.2652 9.10536 26.5196 9.29289 26.7071C9.48043 26.8946 9.73478 27 10 27C10.2652 27 10.5196 26.8946 10.7071 26.7071C10.8946 26.5196 11 26.2652 11 26C10.9979 24.1441 10.2597 22.3649 8.94744 21.0526C7.63514 19.7403 5.85587 19.0021 4 19V19Z"/>
<path d="M4 15C3.73478 15 3.48043 15.1054 3.29289 15.2929C3.10536 15.4804 3 15.7348 3 16C3 16.2652 3.10536 16.5196 3.29289 16.7071C3.48043 16.8946 3.73478 17 4 17C6.38612 17.0027 8.67375 17.9518 10.361 19.639C12.0482 21.3263 12.9973 23.6139 13 26C13 26.2652 13.1054 26.5196 13.2929 26.7071C13.4804 26.8946 13.7348 27 14 27C14.2652 27 14.5196 26.8946 14.7071 26.7071C14.8946 26.5196 15 26.2652 15 26C14.9967 23.0836 13.8367 20.2877 11.7745 18.2255C9.71235 16.1633 6.91637 15.0033 4 15V15Z"/>
<path d="M27 5H5C4.46975 5.00061 3.9614 5.21151 3.58646 5.58646C3.21151 5.9614 3.00061 6.46975 3 7V12C3 12.2652 3.10536 12.5196 3.2929 12.7071C3.48043 12.8946 3.73478 13 4 13C7.44662 13.0039 10.751 14.3748 13.1881 16.8119C15.6252 19.249 16.9961 22.5534 17 26C17 26.2652 17.1054 26.5196 17.2929 26.7071C17.4804 26.8946 17.7348 27 18 27H27C27.5302 26.9994 28.0386 26.7885 28.4135 26.4135C28.7885 26.0386 28.9994 25.5302 29 25V7C28.9994 6.46975 28.7885 5.9614 28.4135 5.58646C28.0386 5.21151 27.5302 5.00061 27 5V5Z"/>
</svg>
