<svg viewBox="0 0 32 32" xmlns="http://www.w3.org/2000/svg">
<path d="M29.7072 22.2929C29.8947 22.4804 30 22.7348 30 23C30 23.2652 29.8947 23.5196 29.7072 23.7072L26.7072 26.7072C26.5673 26.847 26.3891 26.9422 26.1951 26.9808C26.0011 27.0194 25.8001 26.9995 25.6174 26.9239C25.4346 26.8482 25.2785 26.72 25.1686 26.5556C25.0587 26.3911 25 26.1978 25 26V24H21.5146C21.1964 23.9997 20.8827 23.9236 20.5997 23.7779C20.3167 23.6323 20.0725 23.4213 19.8872 23.1625L10.4854 9.99989L4 10C3.73478 10 3.48043 9.89465 3.29289 9.70712C3.10536 9.51958 3 9.26523 3 9.00001C3 8.73479 3.10536 8.48044 3.29289 8.2929C3.48043 8.10537 3.73478 8.00001 4 8.00001H10.4854C10.8036 8.00032 11.1173 8.07645 11.4003 8.2221C11.6833 8.36774 11.9275 8.57871 12.1128 8.83754L21.5146 22.0001L25 22.0001V20C25 19.8022 25.0587 19.6089 25.1686 19.4445C25.2785 19.28 25.4346 19.1519 25.6174 19.0762C25.8001 19.0005 26.0011 18.9807 26.1951 19.0192C26.3891 19.0578 26.5673 19.153 26.7072 19.2929L29.7072 22.2929ZM17.8765 13.3728C17.9833 13.4492 18.1042 13.5038 18.2321 13.5334C18.36 13.5631 18.4926 13.5672 18.6221 13.5456C18.7517 13.524 18.8757 13.4771 18.9871 13.4076C19.0985 13.3381 19.1952 13.2473 19.2715 13.1404L21.5146 10H25V12C25 12.1978 25.0587 12.3911 25.1686 12.5556C25.2784 12.72 25.4346 12.8482 25.6173 12.9239C25.8001 12.9996 26.0011 13.0194 26.1951 12.9808C26.3891 12.9422 26.5673 12.847 26.7072 12.7072L29.7072 9.70716C29.8947 9.5196 30 9.26524 30 9.00001C30 8.73478 29.8947 8.48042 29.7072 8.29286L26.7072 5.29286C26.5673 5.15302 26.3891 5.0578 26.1951 5.01923C26.0011 4.98066 25.8001 5.00047 25.6174 5.07616C25.4346 5.15185 25.2785 5.28002 25.1686 5.44446C25.0587 5.6089 25 5.80223 25 6.00001V8.00001H21.5146C21.1964 8.00032 20.8828 8.07644 20.5997 8.22206C20.3167 8.36769 20.0725 8.57862 19.8872 8.83741L17.644 11.9778C17.4899 12.1936 17.4278 12.4618 17.4714 12.7234C17.5149 12.985 17.6607 13.2186 17.8765 13.3728V13.3728ZM14.1235 18.6272C14.0167 18.5509 13.8958 18.4963 13.7679 18.4667C13.64 18.437 13.5074 18.4329 13.3779 18.4544C13.2483 18.476 13.1243 18.5229 13.0129 18.5924C12.9015 18.662 12.8048 18.7528 12.7285 18.8596L10.4854 22H4C3.73478 22 3.48043 22.1054 3.29289 22.2929C3.10536 22.4804 3 22.7348 3 23C3 23.2652 3.10536 23.5196 3.29289 23.7071C3.48043 23.8947 3.73478 24 4 24H10.4854C10.8036 23.9997 11.1172 23.9236 11.4003 23.778C11.6833 23.6323 11.9275 23.4214 12.1128 23.1626L14.356 20.0222C14.5101 19.8064 14.5722 19.5382 14.5286 19.2766C14.4851 19.015 14.3393 18.7814 14.1235 18.6272V18.6272Z"/>
</svg>
