<svg viewBox="0 0 32 32" xmlns="http://www.w3.org/2000/svg">
<path d="M29.7072 22.2929C29.8947 22.4804 30 22.7348 30 23C30 23.2652 29.8947 23.5196 29.7072 23.7072L26.7072 26.7072C26.5673 26.847 26.3891 26.9422 26.1951 26.9808C26.0011 27.0194 25.8001 26.9995 25.6174 26.9239C25.4346 26.8482 25.2785 26.72 25.1686 26.5556C25.0587 26.3911 25 26.1978 25 26V23.9982C23.5877 23.9786 22.1997 23.6275 20.9479 22.9731C19.6961 22.3188 18.6156 21.3796 17.7933 20.2311L12.5792 12.9313C11.9308 12.0254 11.0759 11.2871 10.0854 10.7773C9.0948 10.2676 7.99707 10.0011 6.88306 10H4C3.73478 10 3.48043 9.89465 3.29289 9.70712C3.10536 9.51958 3 9.26523 3 9.00001C3 8.73479 3.10536 8.48044 3.29289 8.2929C3.48043 8.10537 3.73478 8.00001 4 8.00001H6.88306C8.31537 8.00146 9.72674 8.34407 11.0003 8.99948C12.2739 9.65489 13.373 10.6042 14.2067 11.7689L19.4208 19.0687C20.0579 19.9581 20.8943 20.6861 21.8631 21.1945C22.8318 21.7029 23.9061 21.9775 25 21.9965V20C25 19.8022 25.0587 19.6089 25.1686 19.4445C25.2785 19.28 25.4346 19.1519 25.6174 19.0762C25.8001 19.0005 26.0011 18.9807 26.1951 19.0192C26.3891 19.0578 26.5673 19.153 26.7072 19.2929L29.7072 22.2929ZM17.8767 13.3727C17.9835 13.4491 18.1044 13.5036 18.2323 13.5333C18.3603 13.5629 18.4928 13.5671 18.6223 13.5455C18.7519 13.5239 18.8759 13.477 18.9873 13.4074C19.0987 13.3379 19.1953 13.2471 19.2716 13.1401L19.4208 12.9313C20.0579 12.0419 20.8943 11.3139 21.8631 10.8055C22.8318 10.2971 23.9061 10.0225 25 10.0036V12C25 12.1978 25.0587 12.3911 25.1686 12.5556C25.2784 12.72 25.4346 12.8482 25.6173 12.9239C25.8001 12.9996 26.0011 13.0194 26.1951 12.9808C26.3891 12.9422 26.5673 12.847 26.7072 12.7072L29.7072 9.70716C29.8947 9.5196 30 9.26524 30 9.00001C30 8.73478 29.8947 8.48042 29.7072 8.29286L26.7072 5.29286C26.5673 5.15302 26.3891 5.0578 26.1951 5.01923C26.0011 4.98066 25.8001 5.00047 25.6174 5.07616C25.4346 5.15185 25.2785 5.28002 25.1686 5.44446C25.0587 5.6089 25 5.80223 25 6.00001V8.00178C23.5877 8.0214 22.1997 8.37253 20.9479 9.02687C19.6961 9.68121 18.6156 10.6205 17.7933 11.7689L17.6442 11.9778C17.5678 12.0846 17.5133 12.2055 17.4837 12.3334C17.454 12.4614 17.4499 12.5939 17.4715 12.7234C17.4931 12.8529 17.54 12.977 17.6095 13.0884C17.679 13.1998 17.7698 13.2964 17.8767 13.3727V13.3727ZM14.1233 18.6273C14.0165 18.551 13.8956 18.4964 13.7677 18.4667C13.6397 18.4371 13.5072 18.4329 13.3777 18.4545C13.2481 18.4761 13.1241 18.5231 13.0127 18.5926C12.9013 18.6622 12.8047 18.753 12.7284 18.8599L12.5792 19.0687C11.9308 19.9746 11.0759 20.7129 10.0854 21.2227C9.0948 21.7324 7.99707 21.9989 6.88306 22H4C3.73478 22 3.48043 22.1054 3.29289 22.2929C3.10536 22.4804 3 22.7348 3 23C3 23.2652 3.10536 23.5196 3.29289 23.7071C3.48043 23.8947 3.73478 24 4 24H6.88306C8.31537 23.9986 9.72674 23.6559 11.0003 23.0005C12.2739 22.3451 13.373 21.3958 14.2067 20.2311L14.3558 20.0222C14.4322 19.9154 14.4867 19.7945 14.5163 19.6666C14.546 19.5387 14.5501 19.4061 14.5285 19.2766C14.5069 19.1471 14.46 19.0231 14.3905 18.9117C14.321 18.8003 14.2302 18.7036 14.1233 18.6273V18.6273Z"/>
</svg>
