<svg viewBox="0 0 32 32" xmlns="http://www.w3.org/2000/svg">
<path d="M27 5.99999V11C27 11.1978 26.9414 11.3911 26.8315 11.5556C26.7216 11.72 26.5654 11.8482 26.3827 11.9239C26.1999 11.9996 25.9989 12.0194 25.8049 11.9808C25.6109 11.9422 25.4327 11.8469 25.2929 11.7071L23.5 9.91424L19.5355 13.8787C19.348 14.0663 19.0936 14.1716 18.8284 14.1716C18.5632 14.1716 18.3088 14.0663 18.1213 13.8787C17.9337 13.6912 17.8284 13.4368 17.8283 13.1716C17.8283 12.9064 17.9337 12.652 18.1212 12.4645L22.0857 8.49999L20.2929 6.70708C20.153 6.56722 20.0578 6.38904 20.0193 6.19506C19.9807 6.00109 20.0005 5.80003 20.0762 5.61731C20.1519 5.4346 20.28 5.27843 20.4445 5.16855C20.6089 5.05867 20.8023 5.00001 21 4.99999H26C26.2652 5 26.5196 5.10535 26.7071 5.29289C26.8947 5.48042 27 5.73478 27 5.99999V5.99999ZM26.3827 20.0761C26.2 20.0004 25.9989 19.9806 25.8049 20.0192C25.6109 20.0578 25.4327 20.153 25.2929 20.2929L23.5 22.0857L6.70718 5.2929C6.51964 5.10535 6.26529 4.99998 6.00007 4.99997C5.73484 4.99996 5.48048 5.10531 5.29293 5.29284C5.10538 5.48037 5.00001 5.73473 5 5.99995C4.99999 6.26517 5.10534 6.51954 5.29287 6.70708L22.0858 23.5L20.2929 25.2929C20.153 25.4328 20.0578 25.611 20.0193 25.8049C19.9807 25.9989 20.0005 26.2 20.0762 26.3827C20.1519 26.5654 20.28 26.7216 20.4445 26.8314C20.6089 26.9413 20.8023 27 21 27H26C26.2652 27 26.5196 26.8946 26.7071 26.7071C26.8947 26.5196 27 26.2652 27 26V21C27 20.8022 26.9414 20.6089 26.8315 20.4444C26.7216 20.28 26.5654 20.1518 26.3827 20.0761ZM12.4645 18.1213L5.29288 25.2929C5.10534 25.4804 4.99999 25.7348 5.00001 26C5.00002 26.2653 5.10539 26.5196 5.29294 26.7071C5.48049 26.8947 5.73485 27 6.00007 27C6.2653 27 6.51965 26.8946 6.70718 26.7071L13.8788 19.5355C13.9717 19.4426 14.0453 19.3324 14.0956 19.2111C14.1458 19.0897 14.1717 18.9597 14.1717 18.8284C14.1717 18.697 14.1458 18.567 14.0956 18.4457C14.0453 18.3243 13.9716 18.2141 13.8788 18.1212C13.7859 18.0284 13.6757 17.9547 13.5543 17.9045C13.433 17.8542 13.303 17.8283 13.1716 17.8283C13.0403 17.8283 12.9103 17.8542 12.7889 17.9045C12.6676 17.9547 12.5574 18.0284 12.4645 18.1213L12.4645 18.1213Z"/>
</svg>
