<svg viewBox="0 0 32 32" xmlns="http://www.w3.org/2000/svg">
<path d="M16 3C13.4288 3 10.9154 3.76244 8.77759 5.1909C6.63975 6.61935 4.97351 8.64968 3.98957 11.0251C3.00563 13.4006 2.74819 16.0144 3.2498 18.5362C3.75141 21.0579 4.98953 23.3743 6.80762 25.1924C8.6257 27.0105 10.9421 28.2486 13.4638 28.7502C15.9856 29.2518 18.5995 28.9944 20.9749 28.0104C23.3503 27.0265 25.3807 25.3603 26.8091 23.2224C28.2376 21.0846 29 18.5712 29 16C28.996 12.5534 27.6251 9.24912 25.188 6.81201C22.7509 4.3749 19.4466 3.00398 16 3V3ZM20.5 20C20.5 20.2652 20.3946 20.5196 20.2071 20.7071C20.0196 20.8946 19.7652 21 19.5 21C19.2348 21 18.9804 20.8946 18.7929 20.7071C18.6054 20.5196 18.5 20.2652 18.5 20V17.2018L13.0547 20.832C12.9041 20.9326 12.7291 20.9904 12.5482 20.9992C12.3674 21.008 12.1875 20.9676 12.0279 20.8821C11.8683 20.7967 11.7348 20.6695 11.6418 20.5141C11.5489 20.3588 11.4998 20.1811 11.5 20V12C11.4998 11.8189 11.5489 11.6412 11.6418 11.4859C11.7348 11.3305 11.8683 11.2033 12.0279 11.1179C12.1875 11.0324 12.3674 10.992 12.5482 11.0008C12.7291 11.0096 12.9041 11.0674 13.0547 11.168L18.5 14.7982V12C18.5 11.7348 18.6054 11.4804 18.7929 11.2929C18.9804 11.1054 19.2348 11 19.5 11C19.7652 11 20.0196 11.1054 20.2071 11.2929C20.3946 11.4804 20.5 11.7348 20.5 12V20Z"/>
</svg>
