<svg viewBox="0 0 24 24" xmlns="http://www.w3.org/2000/svg">
<path d="M18.7487 7C18.7487 6.58579 18.4129 6.25 17.9987 6.25C17.5844 6.25 17.2487 6.58579 17.2487 7V17C17.2487 17.4142 17.5844 17.75 17.9987 17.75C18.4129 17.75 18.7487 17.4142 18.7487 17V7Z"/>
<path d="M14.4525 10.9452C15.1425 11.4791 15.1425 12.5208 14.4525 13.0547C12.3144 14.7091 9.92689 16.0131 7.37936 16.9179L6.91331 17.0835C6.04367 17.3923 5.12437 16.8039 5.00655 15.9055C4.66969 13.337 4.66969 10.663 5.00655 8.09448C5.12437 7.19604 6.04367 6.60765 6.91331 6.91652L7.37936 7.08204C9.92689 7.98683 12.3144 9.29083 14.4525 10.9452Z"/>
</svg>
