<svg   viewBox="0 0 32 32" fill="none" xmlns="http://www.w3.org/2000/svg">
<path d="M7 4C7.26522 4 7.51957 4.10536 7.7071 4.2929C7.89464 4.48043 8 4.73478 8 5V14.2169L22.9572 5.07642C23.2603 4.89116 23.6074 4.79002 23.9626 4.78338C24.3179 4.77675 24.6685 4.86487 24.9784 5.03868C25.2882 5.21249 25.5462 5.46571 25.7258 5.7723C25.9054 6.07889 26 6.42778 26 6.78308V25.2169C25.9999 25.5722 25.9051 25.921 25.7255 26.2275C25.5459 26.534 25.2879 26.7872 24.9781 26.9609C24.6682 27.1347 24.3177 27.2228 23.9625 27.2163C23.6073 27.2097 23.2602 27.1086 22.957 26.9235L8 17.783V27C8 27.2652 7.89464 27.5196 7.70711 27.7071C7.51957 27.8946 7.26522 28 7 28C6.73478 28 6.48043 27.8946 6.29289 27.7071C6.10536 27.5196 6 27.2652 6 27V5C6 4.73478 6.10536 4.48043 6.2929 4.2929C6.48043 4.10536 6.73478 4 7 4V4Z" fill="black"/>
</svg>
