<svg   viewBox="0 0 32 32" fill="none" xmlns="http://www.w3.org/2000/svg">
<path d="M26 5V27C26 27.2652 25.8946 27.5196 25.7071 27.7071C25.5196 27.8946 25.2652 28 25 28C24.7348 28 24.4804 27.8946 24.2929 27.7071C24.1054 27.5196 24 27.2652 24 27V17.783L9.04297 26.9235C8.73979 27.1088 8.39272 27.21 8.03747 27.2166C7.68222 27.2233 7.33161 27.1352 7.0217 26.9614C6.7118 26.7876 6.45379 26.5343 6.27422 26.2277C6.09465 25.9211 6 25.5722 6 25.2169V6.78308C6 6.42778 6.09464 6.07889 6.2742 5.7723C6.45376 5.46571 6.71175 5.21249 7.02164 5.03868C7.33153 4.86487 7.68212 4.77675 8.03736 4.78338C8.3926 4.79001 8.73966 4.89116 9.04285 5.07642L24 14.2169V5C24 4.73478 24.1054 4.48043 24.2929 4.29289C24.4804 4.10536 24.7348 4 25 4C25.2652 4 25.5196 4.10536 25.7071 4.29289C25.8946 4.48043 26 4.73478 26 5Z" fill="black"/>
</svg>
