<svg   viewBox="0 0 32 32" fill="none" xmlns="http://www.w3.org/2000/svg">
<path d="M16 3C13.4288 3 10.9154 3.76244 8.77759 5.1909C6.63975 6.61935 4.97351 8.64968 3.98957 11.0251C3.00563 13.4006 2.74819 16.0144 3.2498 18.5362C3.75141 21.0579 4.98953 23.3743 6.80762 25.1924C8.6257 27.0105 10.9421 28.2486 13.4638 28.7502C15.9856 29.2518 18.5995 28.9944 20.9749 28.0104C23.3503 27.0265 25.3807 25.3603 26.8091 23.2224C28.2376 21.0846 29 18.5712 29 16C28.996 12.5534 27.6251 9.24912 25.188 6.81201C22.7509 4.3749 19.4466 3.00398 16 3V3ZM20.5 20C20.5 20.181 20.4509 20.3586 20.3579 20.5139C20.2649 20.6692 20.1315 20.7963 19.9719 20.8817C19.8123 20.9671 19.6325 21.0076 19.4517 20.9988C19.2709 20.9901 19.0959 20.9324 18.9453 20.832L13.5 17.2018V20C13.5 20.2652 13.3946 20.5196 13.2071 20.7071C13.0196 20.8946 12.7652 21 12.5 21C12.2348 21 11.9804 20.8946 11.7929 20.7071C11.6054 20.5196 11.5 20.2652 11.5 20V12C11.5 11.7348 11.6054 11.4804 11.7929 11.2929C11.9804 11.1054 12.2348 11 12.5 11C12.7652 11 13.0196 11.1054 13.2071 11.2929C13.3946 11.4804 13.5 11.7348 13.5 12V14.7982L18.9453 11.168C19.0959 11.0674 19.2709 11.0096 19.4518 11.0008C19.6326 10.992 19.8125 11.0324 19.9721 11.1179C20.1318 11.2033 20.2652 11.3305 20.3582 11.4859C20.4511 11.6412 20.5002 11.8189 20.5 12V20Z" fill="black"/>
</svg>
