<svg   viewBox="0 0 32 32" fill="none" xmlns="http://www.w3.org/2000/svg">
<path d="M17 8.17202V5C17 4.73478 16.8947 4.48043 16.7071 4.29289C16.5196 4.10536 16.2652 4 16 4C15.7348 4 15.4804 4.10536 15.2929 4.29289C15.1054 4.48043 15 4.73478 15 5V8.17202C14.4151 8.3787 13.9087 8.76166 13.5505 9.26813C13.1923 9.7746 13 10.3797 13 11C13 11.6203 13.1923 12.2254 13.5505 12.7319C13.9087 13.2383 14.4151 13.6213 15 13.828V27C15 27.2652 15.1054 27.5196 15.2929 27.7071C15.4804 27.8946 15.7348 28 16 28C16.2652 28 16.5196 27.8946 16.7071 27.7071C16.8947 27.5196 17 27.2652 17 27V13.828C17.5849 13.6213 18.0913 13.2383 18.4495 12.7319C18.8077 12.2254 19 11.6203 19 11C19 10.3797 18.8077 9.7746 18.4495 9.26813C18.0913 8.76166 17.5849 8.3787 17 8.17201V8.17202Z" fill="black"/>
<path d="M28 21C27.9992 20.3799 27.8066 19.7751 27.4485 19.2688C27.0904 18.7625 26.5845 18.3794 26 18.172L26.0001 5C26.0001 4.73478 25.8948 4.48043 25.7072 4.29289C25.5197 4.10536 25.2654 4 25.0001 4C24.7349 4 24.4806 4.10536 24.293 4.29289C24.1055 4.48043 24.0001 4.73478 24.0001 5L24 18.172C23.4151 18.3787 22.9087 18.7617 22.5505 19.2681C22.1923 19.7746 22 20.3797 22 21C22 21.6203 22.1923 22.2254 22.5505 22.7319C22.9087 23.2383 23.4151 23.6213 24 23.828L24.0001 27C24.0001 27.2652 24.1055 27.5196 24.293 27.7071C24.4806 27.8946 24.7349 28 25.0001 28C25.2654 28 25.5197 27.8946 25.7072 27.7071C25.8948 27.5196 26.0001 27.2652 26.0001 27L26 23.828C26.5845 23.6206 27.0904 23.2375 27.4485 22.7312C27.8066 22.2249 27.9992 21.6201 28 21V21Z" fill="black"/>
<path d="M8.00001 14.172L7.99995 5C7.99995 4.73478 7.89459 4.48043 7.70705 4.29289C7.51952 4.10536 7.26516 4 6.99995 4C6.73473 4 6.48037 4.10536 6.29284 4.29289C6.1053 4.48043 5.99995 4.73478 5.99995 5L6.00001 14.172C5.41512 14.3787 4.90871 14.7617 4.55053 15.2681C4.19234 15.7746 4 16.3797 4 17C4 17.6203 4.19234 18.2254 4.55053 18.7319C4.90871 19.2383 5.41512 19.6213 6.00001 19.828L5.99995 27C5.99995 27.2652 6.1053 27.5196 6.29284 27.7071C6.48037 27.8946 6.73473 28 6.99995 28C7.26516 28 7.51952 27.8946 7.70705 27.7071C7.89459 27.5196 7.99995 27.2652 7.99995 27L8.00001 19.828C8.58489 19.6213 9.0913 19.2383 9.44949 18.7319C9.80767 18.2254 10 17.6203 10 17C10 16.3797 9.80767 15.7746 9.44949 15.2681C9.0913 14.7617 8.58489 14.3787 8.00001 14.172V14.172Z" fill="black"/>
</svg>
