<svg viewBox="0 0 32 32" xmlns="http://www.w3.org/2000/svg">
<path d="M27 20.4992H24.3537C24.1384 19.7769 23.6958 19.1434 23.0915 18.693C22.4872 18.2425 21.7537 17.9992 21 17.9992C20.2463 17.9992 19.5128 18.2425 18.9085 18.693C18.3042 19.1434 17.8616 19.7769 17.6463 20.4992H5C4.73478 20.4992 4.48043 20.6046 4.29289 20.7921C4.10536 20.9796 4 21.234 4 21.4992C4 21.7644 4.10536 22.0188 4.29289 22.2063C4.48043 22.3939 4.73478 22.4992 5 22.4992H17.6463C17.8616 23.2215 18.3042 23.855 18.9085 24.3054C19.5128 24.7559 20.2463 24.9992 21 24.9992C21.7537 24.9992 22.4872 24.7559 23.0915 24.3054C23.6958 23.855 24.1384 23.2215 24.3537 22.4992H27C27.2652 22.4992 27.5196 22.3939 27.7071 22.2063C27.8946 22.0188 28 21.7644 28 21.4992C28 21.234 27.8946 20.9796 27.7071 20.7921C27.5196 20.6046 27.2652 20.4992 27 20.4992Z"/>
<path d="M4.99997 11.4991L9.64633 11.4992C9.86158 12.2215 10.3043 12.855 10.9085 13.3054C11.5128 13.7559 12.2463 13.9992 13 13.9992C13.7537 13.9992 14.4873 13.7559 15.0915 13.3054C15.6958 12.855 16.1385 12.2215 16.3537 11.4992L27 11.4991C27.2652 11.4991 27.5196 11.3937 27.7071 11.2062C27.8947 11.0187 28 10.7643 28 10.4991C28 10.2339 27.8947 9.97951 27.7071 9.79198C27.5196 9.60444 27.2652 9.49908 27 9.49908L16.3537 9.49921C16.1385 8.77692 15.6958 8.14342 15.0915 7.69298C14.4873 7.24253 13.7537 6.99921 13 6.99921C12.2463 6.99921 11.5128 7.24253 10.9085 7.69298C10.3043 8.14342 9.86158 8.77692 9.64633 9.49921L5.00009 9.49908H5.00003C4.73481 9.49907 4.48046 9.60442 4.29291 9.79195C4.10537 9.97948 4.00001 10.2338 4 10.4991C3.99999 10.7643 4.10534 11.0186 4.29287 11.2062C4.4804 11.3937 4.73475 11.4991 4.99997 11.4991H4.99997Z"/>
</svg>
