<svg viewBox="0 0 32 32" xmlns="http://www.w3.org/2000/svg">
<path d="M19.4395 3.1012C19.2713 3.01903 19.0835 2.98571 18.8974 3.00504C18.7113 3.02438 18.5343 3.0956 18.3867 3.21058L9.65625 9.99964H4C3.46973 10.0002 2.96132 10.211 2.58637 10.586C2.21141 10.961 2.00052 11.4694 2 11.9996V19.9996C2.00052 20.5299 2.21141 21.0383 2.58637 21.4133C2.96132 21.7882 3.46973 21.9991 4 21.9996H9.65625L18.3867 28.7887C18.5344 28.9037 18.7114 28.9749 18.8976 28.9942C19.0838 29.0135 19.2716 28.9802 19.4398 28.8979C19.6079 28.8157 19.7496 28.6879 19.8486 28.5291C19.9477 28.3703 20.0001 28.1868 20 27.9996V3.99964C20.0001 3.81241 19.9476 3.62891 19.8485 3.47006C19.7494 3.31121 19.6077 3.1834 19.4395 3.1012V3.1012Z"/>
<path d="M24 12C23.7348 12 23.4804 12.1054 23.2929 12.2929C23.1054 12.4804 23 12.7348 23 13V19C23 19.2652 23.1054 19.5196 23.2929 19.7071C23.4804 19.8946 23.7348 20 24 20C24.2652 20 24.5196 19.8946 24.7071 19.7071C24.8946 19.5196 25 19.2652 25 19V13C25 12.7348 24.8946 12.4804 24.7071 12.2929C24.5196 12.1054 24.2652 12 24 12V12Z"/>
<path d="M28 10C27.7348 10 27.4804 10.1054 27.2929 10.2929C27.1054 10.4804 27 10.7348 27 11V21C27 21.2652 27.1054 21.5196 27.2929 21.7071C27.4804 21.8946 27.7348 22 28 22C28.2652 22 28.5196 21.8946 28.7071 21.7071C28.8946 21.5196 29 21.2652 29 21V11C29 10.7348 28.8946 10.4804 28.7071 10.2929C28.5196 10.1054 28.2652 10 28 10V10Z"/>
</svg>
