<svg viewBox="0 0 32 32" xmlns="http://www.w3.org/2000/svg">
<path d="M19.4393 3.10242C19.2712 3.02015 19.0833 2.98674 18.8971 3.00601C18.7109 3.02529 18.5338 3.09646 18.3861 3.21143L9.65686 10.0007H4C3.46975 10.0013 2.9614 10.2123 2.58646 10.5872C2.21151 10.9621 2.00061 11.4705 2 12.0007V20.0007C2.00061 20.531 2.21151 21.0393 2.58646 21.4143C2.9614 21.7892 3.46975 22.0001 4 22.0007H9.65686L18.3861 28.79C18.5339 28.905 18.7109 28.9761 18.8971 28.9954C19.0833 29.0147 19.2712 28.9813 19.4394 28.899C19.6075 28.8168 19.7492 28.689 19.8483 28.5302C19.9475 28.3714 20 28.1879 20 28.0007V4.00074C20 3.81353 19.9475 3.63009 19.8483 3.47127C19.7492 3.31246 19.6075 3.18466 19.4393 3.10242V3.10242ZM4 12.0007H8.99634V20.0007H4V12.0007Z"/>
<path d="M24.5351 12.4652C24.3475 12.2779 24.0933 12.1727 23.8281 12.1728C23.563 12.1729 23.3088 12.2783 23.1214 12.4658C22.934 12.6532 22.8286 12.9075 22.8286 13.1726C22.8285 13.4377 22.9337 13.692 23.1211 13.8795C23.3996 14.1581 23.6206 14.4888 23.7714 14.8527C23.9221 15.2167 23.9997 15.6068 23.9997 16.0007C23.9997 16.3947 23.9221 16.7848 23.7714 17.1487C23.6206 17.5127 23.3996 17.8434 23.1211 18.1219C23.0282 18.2148 22.9545 18.325 22.9043 18.4463C22.854 18.5677 22.8281 18.6977 22.8281 18.829C22.8281 18.9603 22.854 19.0904 22.9042 19.2117C22.9545 19.333 23.0281 19.4433 23.121 19.5361C23.2138 19.629 23.324 19.7027 23.4453 19.7529C23.5667 19.8032 23.6967 19.8291 23.828 19.8291C23.9593 19.8291 24.0894 19.8032 24.2107 19.753C24.332 19.7028 24.4423 19.6291 24.5351 19.5363C24.9995 19.072 25.3678 18.5208 25.6191 17.9142C25.8704 17.3075 25.9997 16.6574 25.9997 16.0007C25.9997 15.3441 25.8704 14.6939 25.6191 14.0873C25.3678 13.4807 24.9995 12.9295 24.5351 12.4652V12.4652Z"/>
</svg>
