<svg viewBox="0 0 32 32" xmlns="http://www.w3.org/2000/svg">
<path d="M24 20C24.2652 20 24.5196 19.8946 24.7071 19.7071C24.8946 19.5196 25 19.2652 25 19V13C25 12.7348 24.8946 12.4804 24.7071 12.2929C24.5196 12.1054 24.2652 12 24 12C23.7348 12 23.4804 12.1054 23.2929 12.2929C23.1054 12.4804 23 12.7348 23 13V19C23 19.2652 23.1054 19.5196 23.2929 19.7071C23.4804 19.8946 23.7348 20 24 20V20Z"/>
<path d="M28 10C27.7348 10 27.4804 10.1054 27.2929 10.2929C27.1054 10.4804 27 10.7348 27 11V21C27 21.2652 27.1054 21.5196 27.2929 21.7071C27.4804 21.8946 27.7348 22 28 22C28.2652 22 28.5196 21.8946 28.7071 21.7071C28.8946 21.5196 29 21.2652 29 21V11C29 10.7348 28.8946 10.4804 28.7071 10.2929C28.5196 10.1054 28.2652 10 28 10Z"/>
<path d="M6.73999 4.32727C6.56157 4.13101 6.3125 4.01367 6.04756 4.00106C5.78262 3.98844 5.52353 4.08159 5.32727 4.26001C5.13101 4.43843 5.01367 4.6875 5.00106 4.95244C4.98844 5.21738 5.08159 5.47647 5.26001 5.67273L9.19391 10H4C3.46975 10.0006 2.9614 10.2115 2.58646 10.5865C2.21151 10.9614 2.00061 11.4698 2 12V20C2.00061 20.5303 2.21151 21.0386 2.58646 21.4135C2.9614 21.7885 3.46975 21.9994 4 22H9.65686L18.3861 28.7893C18.5339 28.9042 18.7109 28.9754 18.8971 28.9947C19.0833 29.0139 19.2712 28.9805 19.4394 28.8983C19.6075 28.8161 19.7492 28.6883 19.8483 28.5294C19.9475 28.3706 20 28.1872 20 28V21.8867L25.26 27.6727C25.3484 27.7699 25.455 27.8487 25.5738 27.9047C25.6926 27.9607 25.8213 27.9927 25.9524 27.9989C26.0836 28.0052 26.2148 27.9855 26.3383 27.9411C26.4619 27.8967 26.5756 27.8283 26.6727 27.74C26.7699 27.6516 26.8487 27.545 26.9047 27.4262C26.9607 27.3074 26.9927 27.1787 26.9989 27.0476C27.0052 26.9164 26.9855 26.7852 26.9411 26.6617C26.8967 26.5381 26.8283 26.4244 26.74 26.3273L6.73999 4.32727Z"/>
<path d="M18.2569 14.0264C18.3927 14.1757 18.5704 14.2805 18.7669 14.3269C18.9633 14.3733 19.1692 14.3592 19.3574 14.2864C19.5457 14.2136 19.7075 14.0855 19.8217 13.9191C19.9358 13.7526 19.9969 13.5555 19.9969 13.3536V4C19.9969 3.8128 19.9443 3.62936 19.8452 3.47056C19.7461 3.31175 19.6044 3.18395 19.4362 3.10171C19.2681 3.01946 19.0802 2.98607 18.894 3.00534C18.7078 3.02461 18.5307 3.09576 18.383 3.2107L13.4018 7.08496C13.293 7.16954 13.2029 7.27569 13.1371 7.39674C13.0712 7.5178 13.0312 7.65115 13.0193 7.78843C13.0075 7.92571 13.0241 8.06395 13.0683 8.19449C13.1124 8.32503 13.183 8.44504 13.2757 8.547L18.2569 14.0264Z"/>
</svg>
