<svg viewBox="0 0 32 32" xmlns="http://www.w3.org/2000/svg">
<path d="M19.4393 3.10206C19.2712 3.01978 19.0833 2.98638 18.8971 3.00565C18.7109 3.02492 18.5338 3.09609 18.3861 3.21107L9.65686 10.0004H4C3.46975 10.001 2.9614 10.2119 2.58646 10.5868C2.21151 10.9618 2.00061 11.4701 2 12.0004V20.0004C2.00061 20.5306 2.21151 21.039 2.58646 21.4139C2.9614 21.7889 3.46975 21.9998 4 22.0004H9.65686L18.3861 28.7897C18.5339 28.9046 18.7109 28.9758 18.8971 28.995C19.0833 29.0143 19.2712 28.9809 19.4394 28.8987C19.6075 28.8164 19.7492 28.6886 19.8483 28.5298C19.9475 28.371 20 28.1876 20 28.0004V4.00037C20 3.81317 19.9475 3.62972 19.8483 3.47091C19.7492 3.3121 19.6075 3.1843 19.4393 3.10206ZM4 12.0004H8.99634V20.0004H4V12.0004Z"/>
</svg>
