<svg   viewBox="0 0 32 32" fill="none" xmlns="http://www.w3.org/2000/svg">
<path d="M19.4393 3.10167C19.2712 3.01937 19.0833 2.98595 18.8971 3.00522C18.7109 3.02449 18.5338 3.09568 18.3861 3.21068L9.65686 9.99999H4C3.46975 10.0006 2.9614 10.2115 2.58646 10.5864C2.21151 10.9614 2.00061 11.4697 2 12V20C2.00061 20.5302 2.21151 21.0386 2.58646 21.4135C2.9614 21.7885 3.46975 21.9994 4 22H9.65686L18.3861 28.7893C18.5339 28.9042 18.7109 28.9754 18.8971 28.9946C19.0833 29.0139 19.2712 28.9805 19.4394 28.8983C19.6075 28.816 19.7492 28.6882 19.8483 28.5294C19.9475 28.3706 20 28.1872 20 28V3.99999C20 3.81278 19.9475 3.62934 19.8483 3.47053C19.7492 3.31171 19.6075 3.18392 19.4393 3.10167V3.10167ZM4 12H8.99634V20H4V12Z" fill="black"/>
<path d="M28.4144 16L30.7072 13.7072C30.8948 13.5196 31.0001 13.2652 31.0001 13C31.0001 12.7348 30.8948 12.4804 30.7072 12.2929C30.5197 12.1053 30.2653 11.9999 30.0001 11.9999C29.7348 11.9999 29.4805 12.1053 29.2929 12.2929L27.0001 14.5857L24.7072 12.2929C24.5197 12.1053 24.2653 11.9999 24.0001 11.9999C23.7348 11.9999 23.4805 12.1053 23.2929 12.2929C23.1054 12.4804 23 12.7348 23 13C23 13.2652 23.1054 13.5196 23.2929 13.7072L25.5858 16L23.2929 18.2929C23.1054 18.4804 23 18.7348 23 19C23 19.2652 23.1054 19.5196 23.2929 19.7072C23.4805 19.8947 23.7348 20.0001 24.0001 20.0001C24.2653 20.0001 24.5197 19.8947 24.7072 19.7072L27.0001 17.4143L29.2929 19.7072C29.3858 19.8 29.496 19.8737 29.6174 19.9239C29.7387 19.9742 29.8687 20.0001 30.0001 20.0001C30.1314 20.0001 30.2614 19.9742 30.3828 19.9239C30.5041 19.8737 30.6144 19.8 30.7072 19.7072C30.8001 19.6143 30.8737 19.504 30.924 19.3827C30.9743 19.2614 31.0001 19.1313 31.0001 19C31.0001 18.8687 30.9743 18.7386 30.924 18.6173C30.8737 18.496 30.8001 18.3857 30.7072 18.2929L28.4144 16Z" fill="black"/>
</svg>
