<svg   viewBox="0 0 32 32" fill="none" xmlns="http://www.w3.org/2000/svg">
<path d="M6.73999 4.32725C6.56157 4.131 6.3125 4.01365 6.04756 4.00104C5.78262 3.98843 5.52353 4.08158 5.32727 4.25999C5.13101 4.43841 5.01367 4.68749 5.00106 4.95242C4.98844 5.21736 5.08159 5.47646 5.26001 5.67271L9.19421 10.0004H4C3.46975 10.001 2.9614 10.2119 2.58646 10.5868C2.21151 10.9617 2.00061 11.4701 2 12.0004V20.0004C2.00061 20.5306 2.21151 21.039 2.58646 21.4139C2.9614 21.7888 3.46975 21.9997 4 22.0004H9.65686L18.3861 28.7897L18.3854 28.7883L18.386 28.7887C18.5337 28.9037 18.7107 28.9749 18.8969 28.9942C19.083 29.0135 19.2709 28.9801 19.439 28.8979C19.6072 28.8157 19.7488 28.6879 19.8479 28.5291C19.9469 28.3702 19.9994 28.1868 19.9993 27.9996V21.8859L25.26 27.6727C25.4384 27.869 25.6875 27.9863 25.9524 27.9989C26.2174 28.0115 26.4765 27.9184 26.6727 27.74C26.869 27.5616 26.9863 27.3125 26.9989 27.0475C27.0116 26.7826 26.9184 26.5235 26.74 26.3273L6.73999 4.32725ZM8.99634 20.0004H4V12.0004H8.99634V20.0004Z" fill="black"/>
<path d="M18.2561 14.0264C18.3919 14.1757 18.5697 14.2805 18.7661 14.3269C18.9626 14.3733 19.1685 14.3592 19.3567 14.2864C19.545 14.2136 19.7068 14.0855 19.8209 13.9191C19.935 13.7526 19.9961 13.5555 19.9961 13.3536V4.00147C19.9961 3.81427 19.9436 3.63083 19.8445 3.47202C19.7454 3.31321 19.6037 3.18541 19.4355 3.10317C19.2673 3.02093 19.0795 2.98754 18.8933 3.00681C18.7071 3.02607 18.53 3.09722 18.3822 3.21216L13.4018 7.08582C13.293 7.1704 13.2029 7.27655 13.1371 7.3976C13.0712 7.51866 13.0312 7.65201 13.0193 7.78929C13.0075 7.92657 13.0241 8.06481 13.0683 8.19535C13.1124 8.32589 13.183 8.4459 13.2757 8.54785L18.2561 14.0264Z" fill="black"/>
<path d="M28.0675 8.93029C27.8799 8.74278 27.6256 8.63744 27.3603 8.63747C27.0951 8.63749 26.8408 8.74287 26.6533 8.93041C26.4658 9.11796 26.3604 9.37232 26.3604 9.63753C26.3605 9.90274 26.4658 10.1571 26.6534 10.3446C27.3963 11.0875 27.9855 11.9694 28.3876 12.94C28.7896 13.9106 28.9965 14.9508 28.9965 16.0014C28.9965 17.052 28.7896 18.0922 28.3876 19.0628C27.9855 20.0334 27.3963 20.9153 26.6534 21.6582C26.5603 21.751 26.4864 21.8612 26.436 21.9826C26.3855 22.104 26.3595 22.2341 26.3594 22.3656C26.3593 22.497 26.3851 22.6272 26.4353 22.7487C26.4856 22.8701 26.5593 22.9805 26.6522 23.0735C26.7451 23.1664 26.8555 23.2401 26.977 23.2904C27.0984 23.3407 27.2286 23.3665 27.36 23.3664C27.4915 23.3663 27.6216 23.3403 27.743 23.2899C27.8644 23.2394 27.9746 23.1656 28.0675 23.0725C28.9961 22.1439 29.7327 21.0415 30.2353 19.8283C30.7379 18.615 30.9965 17.3146 30.9965 16.0014C30.9965 14.6882 30.7379 13.3878 30.2353 12.1745C29.7327 10.9612 28.9961 9.85886 28.0675 8.93029V8.93029Z" fill="black"/>
<path d="M24.0002 16.0015C24.0013 16.3956 23.9242 16.786 23.7734 17.1501C23.6225 17.5142 23.401 17.8448 23.1215 18.1227C23.0286 18.2155 22.9548 18.3257 22.9045 18.4471C22.8541 18.5684 22.8282 18.6985 22.8281 18.8299C22.8281 18.9612 22.8539 19.0913 22.9042 19.2127C22.9544 19.3341 23.0281 19.4444 23.121 19.5373C23.2138 19.6302 23.3241 19.7039 23.4455 19.7542C23.5669 19.8044 23.697 19.8303 23.8283 19.8302C23.9597 19.8302 24.0898 19.8043 24.2111 19.754C24.3325 19.7037 24.4427 19.6299 24.5356 19.537C24.9999 19.0727 25.3682 18.5215 25.6195 17.9149C25.8708 17.3082 26.0002 16.658 26.0002 16.0014C26.0002 15.3448 25.8709 14.6946 25.6196 14.088C25.3683 13.4813 25 12.9301 24.5357 12.4658C24.3482 12.2783 24.0938 12.1729 23.8285 12.1729C23.5633 12.1729 23.3089 12.2783 23.1214 12.4658C22.9338 12.6534 22.8285 12.9077 22.8285 13.173C22.8285 13.4382 22.9338 13.6926 23.1214 13.8801C23.4009 14.158 23.6224 14.4886 23.7733 14.8528C23.9241 15.2169 24.0012 15.6073 24.0002 16.0015Z" fill="black"/>
</svg>
