<svg viewBox="0 0 32 32" xmlns="http://www.w3.org/2000/svg">
<path d="M28.0739 8.92992C27.8863 8.7426 27.632 8.63743 27.3669 8.63753C27.1018 8.63762 26.8476 8.74298 26.6601 8.93044C26.4726 9.1179 26.3673 9.37212 26.3672 9.63723C26.3671 9.90234 26.4723 10.1566 26.6596 10.3442C27.4025 11.0871 27.9918 11.969 28.3938 12.9396C28.7959 13.9102 29.0028 14.9505 29.0028 16.0011C29.0028 17.0517 28.7959 18.092 28.3938 19.0626C27.9918 20.0332 27.4025 20.9151 26.6596 21.6579C26.4726 21.8456 26.3677 22.0998 26.3679 22.3647C26.3682 22.6297 26.4735 22.8837 26.6608 23.071C26.8482 23.2583 27.1022 23.3637 27.3671 23.3639C27.632 23.3641 27.8862 23.2592 28.0739 23.0723C29.9493 21.1969 31.0028 18.6533 31.0028 16.0011C31.0028 13.3489 29.9493 10.8053 28.0739 8.92992V8.92992Z"/>
<path d="M19.4393 3.10277C19.2712 3.02047 19.0833 2.98704 18.8971 3.00632C18.7109 3.02559 18.5338 3.09678 18.3861 3.21178L9.65686 10.0011H4C3.46975 10.0017 2.9614 10.2126 2.58646 10.5875C2.21151 10.9625 2.00061 11.4708 2 12.0011V20.0011C2.00061 20.5313 2.21151 21.0397 2.58646 21.4146C2.9614 21.7896 3.46975 22.0005 4 22.0011H9.65686L18.3861 28.7904C18.5339 28.9053 18.7109 28.9765 18.8971 28.9957C19.0833 29.015 19.2712 28.9816 19.4394 28.8994C19.6075 28.8171 19.7492 28.6893 19.8483 28.5305C19.9475 28.3717 20 28.1883 20 28.0011V4.00109C20 3.81388 19.9475 3.63044 19.8483 3.47162C19.7492 3.31281 19.6075 3.18501 19.4393 3.10277V3.10277ZM4 12.0011H8.99634V20.0011H4V12.0011Z"/>
<path d="M23.121 12.4657C23.0281 12.5585 22.9545 12.6688 22.9042 12.7901C22.854 12.9114 22.8281 13.0415 22.8281 13.1728C22.8281 13.3041 22.854 13.4342 22.9043 13.5555C22.9546 13.6768 23.0282 13.787 23.1211 13.8799C23.3997 14.1584 23.6207 14.4891 23.7714 14.8531C23.9222 15.217 23.9998 15.6071 23.9998 16.0011C23.9998 16.395 23.9222 16.7851 23.7714 17.1491C23.6207 17.513 23.3997 17.8437 23.1211 18.1223C22.9336 18.3098 22.8282 18.5642 22.8282 18.8294C22.8281 19.0946 22.9335 19.3489 23.121 19.5365C23.3085 19.724 23.5628 19.8294 23.8281 19.8294C24.0933 19.8295 24.3476 19.7241 24.5352 19.5366C24.9995 19.0723 25.3678 18.5212 25.6191 17.9145C25.8704 17.3079 25.9998 16.6577 25.9998 16.0011C25.9998 15.3445 25.8704 14.6943 25.6191 14.0876C25.3678 13.481 24.9995 12.9298 24.5352 12.4656C24.4423 12.3727 24.3321 12.299 24.2108 12.2488C24.0894 12.1985 23.9594 12.1726 23.8281 12.1727C23.6967 12.1727 23.5667 12.1985 23.4454 12.2488C23.324 12.2991 23.2138 12.3728 23.121 12.4657Z"/>
</svg>
