<svg   viewBox="0 0 32 32" fill="none" xmlns="http://www.w3.org/2000/svg">
<path d="M19.4395 3.10119C19.2713 3.01901 19.0835 2.98569 18.8974 3.00503C18.7113 3.02437 18.5343 3.09558 18.3867 3.21056L9.65625 9.99963H4C3.46973 10.0002 2.96132 10.211 2.58637 10.586C2.21141 10.961 2.00052 11.4694 2 11.9996V19.9996C2.00052 20.5299 2.21141 21.0383 2.58637 21.4133C2.96132 21.7882 3.46973 21.9991 4 21.9996H9.65625L18.3867 28.7887C18.5344 28.9037 18.7114 28.9749 18.8976 28.9942C19.0838 29.0135 19.2716 28.9802 19.4398 28.8979C19.6079 28.8157 19.7496 28.6879 19.8486 28.5291C19.9477 28.3702 20.0001 28.1868 20 27.9996V3.99963C20.0001 3.8124 19.9476 3.6289 19.8485 3.47005C19.7494 3.3112 19.6077 3.18339 19.4395 3.10119V3.10119Z" fill="black"/>
<path d="M28.4147 15.9996L30.7077 13.7067C30.8949 13.5191 30.9999 13.2649 30.9998 12.9998C30.9996 12.7348 30.8943 12.4807 30.7069 12.2934C30.5195 12.106 30.2654 12.0006 30.0004 12.0005C29.7354 12.0003 29.4812 12.1054 29.2936 12.2926L27.0006 14.5856L24.7077 12.2926C24.5201 12.1054 24.2659 12.0003 24.0009 12.0005C23.7359 12.0006 23.4818 12.106 23.2944 12.2934C23.107 12.4807 23.0016 12.7348 23.0015 12.9998C23.0014 13.2649 23.1064 13.5191 23.2936 13.7067L25.5866 15.9996L23.2936 18.2926C23.2006 18.3854 23.1268 18.4956 23.0764 18.617C23.026 18.7384 23.0001 18.8685 23 18.9999C22.9999 19.1312 23.0258 19.2614 23.076 19.3828C23.1263 19.5042 23.2 19.6145 23.2929 19.7074C23.3858 19.8003 23.4961 19.874 23.6175 19.9243C23.7389 19.9745 23.869 20.0003 24.0004 20.0003C24.1318 20.0002 24.2619 19.9742 24.3833 19.9239C24.5046 19.8735 24.6149 19.7997 24.7077 19.7067L27.0006 17.4137L29.2936 19.7067C29.4812 19.8938 29.7354 19.9989 30.0004 19.9988C30.2654 19.9986 30.5195 19.8933 30.7069 19.7059C30.8943 19.5185 30.9996 19.2644 30.9998 18.9994C30.9999 18.7344 30.8949 18.4802 30.7077 18.2926L28.4147 15.9996Z" fill="black"/>
</svg>
