<svg viewBox="0 0 32 32" xmlns="http://www.w3.org/2000/svg">
<path d="M16 3C13.4288 3 10.9154 3.76244 8.77759 5.1909C6.63975 6.61935 4.97351 8.64968 3.98957 11.0251C3.00563 13.4006 2.74819 16.0144 3.2498 18.5362C3.75141 21.0579 4.98953 23.3743 6.80762 25.1924C8.6257 27.0105 10.9421 28.2486 13.4638 28.7502C15.9856 29.2518 18.5995 28.9944 20.9749 28.0104C23.3503 27.0265 25.3807 25.3603 26.8091 23.2224C28.2376 21.0846 29 18.5712 29 16C28.9961 12.5534 27.6252 9.24905 25.1881 6.81192C22.751 4.37479 19.4466 3.0039 16 3V3ZM20 19C20 19.2652 19.8946 19.5196 19.7071 19.7071C19.5196 19.8946 19.2652 20 19 20H13C12.7348 20 12.4804 19.8946 12.2929 19.7071C12.1054 19.5196 12 19.2652 12 19V13C12 12.7348 12.1054 12.4804 12.2929 12.2929C12.4804 12.1054 12.7348 12 13 12H19C19.2652 12 19.5196 12.1054 19.7071 12.2929C19.8946 12.4804 20 12.7348 20 13V19Z"/>
</svg>
