<svg   viewBox="0 0 32 32" fill="none" xmlns="http://www.w3.org/2000/svg">
<path d="M28.74 28.3273C28.9184 28.5235 29.0116 28.7826 28.9989 29.0476C28.9863 29.3125 28.869 29.5616 28.6727 29.74C28.4765 29.9184 28.2174 30.0116 27.9524 29.999C27.6875 29.9863 27.4384 29.869 27.26 29.6727L21.9672 23.8507C21.8846 24.3126 21.6423 24.7308 21.2828 25.0322C20.9232 25.3337 20.4692 25.4992 20 25.5H6C4.67438 25.4985 3.40349 24.9712 2.46614 24.0339C1.52879 23.0965 1.00152 21.8256 1 20.5V8.50001C1.00061 7.96976 1.21151 7.4614 1.58646 7.08646C1.9614 6.71152 2.46975 6.50061 3 6.50001H6.19391L3.62366 3.67274C3.44533 3.47647 3.35225 3.2174 3.3649 2.95251C3.37755 2.68763 3.49488 2.43861 3.69111 2.26022C3.88733 2.08184 4.14637 1.98869 4.41126 2.00126C4.67615 2.01384 4.9252 2.13111 5.10364 2.32728L28.74 28.3273ZM30.502 9.13514C30.3505 9.04725 30.1785 9.00068 30.0034 9.00008C29.8282 8.99948 29.656 9.04488 29.5039 9.13172L24.5039 11.9889C24.3508 12.0764 24.2236 12.2027 24.1351 12.3552C24.0466 12.5077 24 12.6809 24 12.8572V19.1428C24 19.3191 24.0466 19.4923 24.1351 19.6448C24.2236 19.7973 24.3508 19.9237 24.5039 20.0111L29.5039 22.8683C29.656 22.9552 29.8282 23.0006 30.0034 23C30.1785 22.9994 30.3505 22.9528 30.5019 22.8649C30.6534 22.777 30.7792 22.6508 30.8666 22.499C30.954 22.3472 31 22.1752 31 22V10C31 9.82485 30.954 9.65277 30.8666 9.50098C30.7792 9.3492 30.6535 9.22304 30.502 9.13514V9.13514ZM20.26 16.0264C20.3958 16.1757 20.5736 16.2805 20.77 16.3269C20.9664 16.3733 21.1723 16.3592 21.3606 16.2864C21.5488 16.2136 21.7107 16.0856 21.8248 15.9191C21.9389 15.7526 22 15.5555 22 15.3536V11.5C21.9985 10.1744 21.4712 8.9035 20.5339 7.96615C19.5965 7.0288 18.3256 6.50152 17 6.50001H13.8604C13.6666 6.50001 13.477 6.55628 13.3147 6.66199C13.1523 6.7677 13.0242 6.91829 12.9458 7.09547C12.8674 7.27264 12.8422 7.46877 12.8732 7.66001C12.9042 7.85126 12.99 8.02938 13.1204 8.17274L20.26 16.0264Z" fill="black"/>
</svg>
