<svg   viewBox="0 0 32 32" fill="none" xmlns="http://www.w3.org/2000/svg">
<path d="M22 11.5V23.5C21.9994 24.0302 21.7885 24.5386 21.4135 24.9135C21.0386 25.2885 20.5302 25.4994 20 25.5H6C4.67438 25.4985 3.40349 24.9712 2.46614 24.0339C1.52879 23.0965 1.00152 21.8256 1 20.5V8.5C1.00061 7.96975 1.21151 7.4614 1.58646 7.08646C1.9614 6.71151 2.46975 6.50061 3 6.5H17C18.3256 6.50152 19.5965 7.02879 20.5339 7.96614C21.4712 8.90349 21.9985 10.1744 22 11.5ZM30.502 9.13513C30.3505 9.04725 30.1785 9.00068 30.0034 9.00008C29.8282 8.99948 29.656 9.04487 29.5039 9.13171L24.5039 11.9889C24.3508 12.0764 24.2236 12.2027 24.1351 12.3552C24.0466 12.5077 24 12.6809 24 12.8572V19.1428C24 19.3191 24.0466 19.4923 24.1351 19.6448C24.2236 19.7973 24.3508 19.9236 24.5039 20.0111L29.5039 22.8683C29.656 22.9552 29.8282 23.0006 30.0034 23C30.1785 22.9994 30.3505 22.9528 30.5019 22.8649C30.6534 22.777 30.7792 22.6508 30.8666 22.499C30.954 22.3472 31 22.1752 31 22V10C31 9.82485 30.954 9.65276 30.8666 9.50097C30.7792 9.34919 30.6535 9.22303 30.502 9.13513Z" fill="black"/>
</svg>
