<svg   viewBox="0 0 24 24" fill="none" xmlns="http://www.w3.org/2000/svg">
<path d="M13.9771 4.20148C14.5846 3.69526 15.5115 4.06104 15.6096 4.84566L15.7054 5.61216C16.2357 9.85418 16.2357 14.1457 15.7054 18.3877L15.6096 19.1542C15.5115 19.9389 14.5846 20.3046 13.9771 19.7984L8.95804 15.6158C8.86818 15.541 8.75492 15.5 8.63795 15.5H4.75C4.05964 15.5 3.5 14.9403 3.5 14.25V9.74995C3.5 9.0596 4.05964 8.49995 4.75 8.49995H8.63795C8.75492 8.49995 8.86818 8.45894 8.95804 8.38406L13.9771 4.20148Z" fill="black"/>
<path d="M19.0323 7.94763C18.8894 7.55883 18.4584 7.35945 18.0696 7.5023C17.6808 7.64516 17.4815 8.07615 17.6243 8.46495C18.0288 9.56588 18.25 10.7562 18.25 11.9999C18.25 13.0315 18.0978 14.0263 17.8152 14.9636C17.7995 15.0158 17.7833 15.0679 17.7668 15.1197C17.7222 15.2595 17.6747 15.3979 17.6243 15.5349C17.4815 15.9237 17.6808 16.3547 18.0696 16.4976C18.4584 16.6404 18.8894 16.441 19.0323 16.0522C19.0901 15.895 19.1446 15.7361 19.1958 15.5758C19.2148 15.5163 19.2333 15.4565 19.2514 15.3966C19.5758 14.3204 19.75 13.1798 19.75 11.9999C19.75 10.5771 19.4968 9.2118 19.0323 7.94763Z" fill="black"/>
</svg>
