<svg   viewBox="0 0 24 24" fill="none" xmlns="http://www.w3.org/2000/svg">
<path d="M14.6096 4.84566C14.5115 4.06104 13.5846 3.69526 12.9771 4.20148L7.95804 8.38406C7.86818 8.45894 7.75492 8.49995 7.63795 8.49995H3.75C3.05964 8.49995 2.5 9.0596 2.5 9.74995V14.25C2.5 14.9403 3.05964 15.5 3.75 15.5H7.63795C7.75492 15.5 7.86818 15.541 7.95804 15.6158L12.9771 19.7984C13.5846 20.3046 14.5115 19.9389 14.6096 19.1542L14.7054 18.3877C15.2357 14.1457 15.2357 9.85418 14.7054 5.61216L14.6096 4.84566Z" fill="black"/>
<path d="M17.2374 9.70185C17.5303 9.40896 18.0052 9.40896 18.2981 9.70185L19.5355 10.9393L20.773 9.70185C21.0659 9.40896 21.5407 9.40896 21.8336 9.70185C22.1265 9.99475 22.1265 10.4696 21.8336 10.7625L20.5962 11.9999L21.8336 13.2374C22.1265 13.5303 22.1265 14.0052 21.8336 14.298C21.5407 14.5909 21.0659 14.5909 20.773 14.298L19.5355 13.0606L18.2981 14.298C18.0052 14.5909 17.5303 14.5909 17.2374 14.298C16.9445 14.0052 16.9445 13.5303 17.2374 13.2374L18.4749 11.9999L17.2374 10.7625C16.9445 10.4696 16.9445 9.99475 17.2374 9.70185Z" fill="black"/>
</svg>
