<svg   viewBox="0 0 24 24" fill="none" xmlns="http://www.w3.org/2000/svg">
<path d="M18.9538 3.10577C19.2467 2.81288 19.2467 2.338 18.9538 2.04511C18.6609 1.75222 18.186 1.75222 17.8931 2.04511L17.186 2.75222C16.6906 3.24765 16.7159 4.01752 17.1482 4.49983C20.0506 7.73859 19.9454 12.7208 16.8325 15.8337C15.2224 17.4437 13.1124 18.2492 11.0021 18.2501L10.9988 18.2501L10.9958 18.2501C9.02806 18.2494 7.06058 17.5492 5.49862 16.1494C5.0163 15.7171 4.24643 15.6918 3.751 16.1872L3.04389 16.8944C2.751 17.1872 2.751 17.6621 3.04389 17.955C3.33678 18.2479 3.81166 18.2479 4.10455 17.955L4.655 17.4046C6.27478 18.7952 8.24257 19.5674 10.2488 19.7213V21.2501H8.49884C8.08463 21.2501 7.74884 21.5858 7.74884 22.0001C7.74884 22.4143 8.08463 22.7501 8.49884 22.7501H13.4988C13.9131 22.7501 14.2488 22.4143 14.2488 22.0001C14.2488 21.5858 13.9131 21.2501 13.4988 21.2501H11.7488V19.7214C13.9885 19.5496 16.1802 18.6073 17.8931 16.8944C21.5223 13.2652 21.6924 7.4873 18.4033 3.65622L18.9538 3.10577Z" fill="black"/>
<path fill-rule="evenodd" clip-rule="evenodd" d="M4.49884 10.0001C4.49884 6.41021 7.40899 3.50006 10.9988 3.50006C14.5887 3.50006 17.4988 6.41021 17.4988 10.0001C17.4988 13.5899 14.5887 16.5001 10.9988 16.5001C7.40899 16.5001 4.49884 13.5899 4.49884 10.0001ZM12.9988 6.25006C11.4801 6.25006 10.2488 7.48128 10.2488 9.00006C10.2488 10.5188 11.4801 11.7501 12.9988 11.7501C14.5176 11.7501 15.7488 10.5188 15.7488 9.00006C15.7488 7.48128 14.5176 6.25006 12.9988 6.25006ZM6.24884 12.5001C6.24884 11.8097 6.80848 11.2501 7.49884 11.2501C8.1892 11.2501 8.74884 11.8097 8.74884 12.5001C8.74884 13.1904 8.1892 13.7501 7.49884 13.7501C6.80848 13.7501 6.24884 13.1904 6.24884 12.5001Z" fill="black"/>
</svg>
