<svg   viewBox="0 0 24 24" fill="none" xmlns="http://www.w3.org/2000/svg">
<path fill-rule="evenodd" clip-rule="evenodd" d="M3.77159 8.87739C4.11523 4.70845 7.59902 1.5 11.7821 1.5H12.214C16.3971 1.5 19.8809 4.70845 20.2246 8.87739C20.4096 11.122 19.7162 13.3508 18.2906 15.0943L13.4975 20.9561C12.7225 21.9039 11.2736 21.9039 10.4986 20.9561L5.70557 15.0943C4.27991 13.3508 3.58657 11.122 3.77159 8.87739ZM10.248 9.57143C10.248 8.54542 11.0513 7.75 11.998 7.75C12.9448 7.75 13.748 8.54542 13.748 9.57143C13.748 10.3747 13.2511 11.0438 12.5796 11.29C11.9915 11.5057 11.248 12.0764 11.248 13C11.248 13.4142 11.5838 13.75 11.998 13.75C12.4123 13.75 12.748 13.4142 12.748 13C12.748 12.9844 12.7521 12.9455 12.8093 12.8818C12.8704 12.8138 12.9716 12.744 13.0961 12.6983C14.3598 12.2348 15.248 11.0024 15.248 9.57143C15.248 7.75711 13.8127 6.25 11.998 6.25C10.1833 6.25 8.74805 7.75711 8.74805 9.57143C8.74805 9.98564 9.08383 10.3214 9.49805 10.3214C9.91226 10.3214 10.248 9.98564 10.248 9.57143ZM11.998 17C12.5503 17 12.998 16.5523 12.998 16C12.998 15.4477 12.5503 15 11.998 15C11.4458 15 10.998 15.4477 10.998 16C10.998 16.5523 11.4458 17 11.998 17Z" fill="black"/>
</svg>
