<svg   viewBox="0 0 24 24" fill="none" xmlns="http://www.w3.org/2000/svg">
<path d="M8.74805 10C8.74805 8.20507 10.2031 6.75 11.998 6.75C13.793 6.75 15.248 8.20507 15.248 10C15.248 11.7949 13.793 13.25 11.998 13.25C10.2031 13.25 8.74805 11.7949 8.74805 10Z" fill="black"/>
<path fill-rule="evenodd" clip-rule="evenodd" d="M3.77159 8.87739C4.11523 4.70845 7.59902 1.5 11.7821 1.5H12.214C16.3971 1.5 19.8809 4.70845 20.2246 8.87739C20.4096 11.122 19.7162 13.3508 18.2906 15.0943L13.4975 20.9561C12.7225 21.9039 11.2736 21.9039 10.4986 20.9561L5.70557 15.0943C4.27991 13.3508 3.58657 11.122 3.77159 8.87739ZM11.998 5.25C9.37469 5.25 7.24805 7.37665 7.24805 10C7.24805 12.6234 9.37469 14.75 11.998 14.75C14.6214 14.75 16.748 12.6234 16.748 10C16.748 7.37665 14.6214 5.25 11.998 5.25Z" fill="black"/>
</svg>
