<svg   viewBox="0 0 24 24" fill="none" xmlns="http://www.w3.org/2000/svg">
<path fill-rule="evenodd" clip-rule="evenodd" d="M3.77159 8.87739C4.11523 4.70845 7.59902 1.5 11.7821 1.5H12.214C16.3971 1.5 19.8809 4.70845 20.2246 8.87739C20.4096 11.122 19.7162 13.3508 18.2906 15.0943L13.4975 20.9561C12.7225 21.9039 11.2736 21.9039 10.4986 20.9561L5.70557 15.0943C4.27991 13.3508 3.58657 11.122 3.77159 8.87739ZM11.998 6.25C12.4123 6.25 12.748 6.58579 12.748 7V9.00003H14.748C15.1623 9.00003 15.498 9.33582 15.498 9.75003C15.498 10.1642 15.1623 10.5 14.748 10.5H12.748V12.5C12.748 12.9142 12.4123 13.25 11.998 13.25C11.5838 13.25 11.248 12.9142 11.248 12.5L11.248 10.5H9.24805C8.83383 10.5 8.49805 10.1642 8.49805 9.75003C8.49805 9.33582 8.83383 9.00003 9.24805 9.00003H11.248V7C11.248 6.58579 11.5838 6.25 11.998 6.25Z" fill="black"/>
</svg>
