<svg viewBox="0 0 24 24" xmlns="http://www.w3.org/2000/svg">
<path fill-rule="evenodd" clip-rule="evenodd" d="M3.77159 8.87739C4.11523 4.70845 7.59902 1.5 11.7821 1.5H12.214C16.3971 1.5 19.8809 4.70845 20.2246 8.87739C20.4096 11.122 19.7162 13.3508 18.2906 15.0943L13.4975 20.9561C12.7225 21.9039 11.2736 21.9039 10.4986 20.9561L5.70557 15.0943C4.27991 13.3508 3.58657 11.122 3.77159 8.87739ZM15.5284 8.53033C15.8213 8.23744 15.8213 7.76256 15.5284 7.46967C15.2355 7.17678 14.7606 7.17678 14.4677 7.46967L11.498 10.4393L10.0284 8.96967C9.73548 8.67678 9.26061 8.67678 8.96772 8.96967C8.67482 9.26256 8.67482 9.73744 8.96772 10.0303L10.9677 12.0303C11.2606 12.3232 11.7355 12.3232 12.0284 12.0303L15.5284 8.53033Z"/>
</svg>
