<svg viewBox="0 0 24 24" xmlns="http://www.w3.org/2000/svg">
<path d="M12.8212 4.10639C12.5874 3.68873 12.1498 3.50489 11.7603 3.5001C11.3716 3.49531 10.9236 3.66938 10.6936 4.09939L10.5293 4.40657C8.0292 9.08158 6.02575 13.955 4.54358 18.9678C4.3849 19.5044 4.68433 19.9512 5.04156 20.1655C5.39755 20.3791 5.90113 20.4302 6.33247 20.1578L10.964 17.2327C11.5382 16.8701 12.3521 16.8748 12.9536 17.2616L17.6811 20.3018C18.1066 20.5754 18.6082 20.5463 18.9716 20.3331C19.3415 20.1161 19.6234 19.6603 19.4497 19.1264C17.8061 14.0768 15.6458 9.15402 12.9954 4.41774L12.8212 4.10639Z"/>
</svg>
