<svg viewBox="0 0 46 39" xmlns="http://www.w3.org/2000/svg">
<path d="M13.845 27.8269C17.6685 27.8269 20.768 24.7274 20.768 20.9039C20.768 17.0803 17.6685 13.9808 13.845 13.9808C10.0214 13.9808 6.92188 17.0803 6.92188 20.9039C6.92188 24.7274 10.0214 27.8269 13.845 27.8269Z" stroke-miterlimit="10"/>
<path d="M3.35156 33.8836C4.41551 32.042 5.94535 30.5128 7.7874 29.4497C9.62945 28.3866 11.7188 27.8269 13.8457 27.8269C15.9725 27.8269 18.0619 28.3866 19.9039 29.4498C21.7459 30.513 23.2757 32.0422 24.3396 33.8838" stroke-linecap="round" stroke-linejoin="round"/>
<path d="M10.3828 10.8654V2.64423C10.3828 2.20815 10.5348 1.78994 10.8053 1.48158C11.0757 1.17323 11.4426 1 11.8251 1H43.5559C43.9384 1 44.3053 1.17323 44.5758 1.48158C44.8462 1.78994 44.9982 2.20815 44.9982 2.64423V32.2404C44.9982 32.6765 44.8462 33.0947 44.5758 33.403C44.3053 33.7114 43.9384 33.8846 43.5559 33.8846H30.5751" stroke-linecap="round" stroke-linejoin="round"/>
<line x1="21.2793" y1="30.9349" x2="29.9331" y2="22.2811"/>
</svg>
