<svg   viewBox="0 0 39 39" fill="none" xmlns="http://www.w3.org/2000/svg">
<path d="M6.09375 19.5H32.9062M6.09375 25.5938H32.9062M6.09375 31.6875H32.9062M9.14062 7.3125H29.8594C30.6675 7.3125 31.4424 7.63351 32.0138 8.20491C32.5852 8.77631 32.9062 9.55129 32.9062 10.3594C32.9062 11.1675 32.5852 11.9424 32.0138 12.5138C31.4424 13.0852 30.6675 13.4062 29.8594 13.4062H9.14062C8.33254 13.4062 7.55756 13.0852 6.98616 12.5138C6.41476 11.9424 6.09375 11.1675 6.09375 10.3594C6.09375 9.55129 6.41476 8.77631 6.98616 8.20491C7.55756 7.63351 8.33254 7.3125 9.14062 7.3125Z" stroke="black" stroke-width="1.5" stroke-linecap="round" stroke-linejoin="round"/>
</svg>
