<svg   viewBox="0 0 24 24" fill="none" xmlns="http://www.w3.org/2000/svg">
<path fill-rule="evenodd" clip-rule="evenodd" d="M11.4898 4.11072C8.68914 2.4303 5.26388 2.15584 2.23133 3.36886C1.78963 3.54554 1.5 3.97333 1.5 4.44906V16.1079C1.5 16.8889 2.28876 17.4229 3.01387 17.1329C5.49721 16.1395 8.30215 16.3643 10.5956 17.7404L11.7309 18.4216C11.8175 18.4735 11.9101 18.4962 12 18.4946C12.0899 18.4962 12.1825 18.4735 12.2691 18.4216L13.4044 17.7404C15.6979 16.3643 18.5028 16.1395 20.9861 17.1329C21.7112 17.4229 22.5 16.8889 22.5 16.1079V4.44906C22.5 3.97333 22.2104 3.54554 21.7687 3.36886C18.7361 2.15584 15.3109 2.4303 12.5102 4.11072L12 4.41681L11.4898 4.11072ZM12.75 6.49991C12.75 6.08569 12.4142 5.74991 12 5.74991C11.5858 5.74991 11.25 6.08569 11.25 6.49991V15.9999C11.25 16.4141 11.5858 16.7499 12 16.7499C12.4142 16.7499 12.75 16.4141 12.75 15.9999V6.49991Z" fill="black"/>
<path d="M2.72484 19.0421C4.7487 17.8616 7.2513 17.8616 9.27516 19.0421L10.3624 19.6764C11.3743 20.2667 12.6257 20.2667 13.6376 19.6764L14.7248 19.0421C16.7487 17.8616 19.2513 17.8616 21.2752 19.0421L21.3779 19.1021C21.7357 19.3108 21.8565 19.77 21.6478 20.1278C21.4391 20.4856 20.9799 20.6065 20.6221 20.3977L20.5194 20.3378C18.9625 19.4297 17.0375 19.4297 15.4806 20.3378L14.3934 20.972C12.9144 21.8348 11.0856 21.8348 9.60661 20.972L8.51935 20.3378C6.96254 19.4297 5.03746 19.4297 3.48065 20.3378L3.3779 20.3977C3.02011 20.6065 2.56088 20.4856 2.35217 20.1278C2.14346 19.77 2.26431 19.3108 2.6221 19.1021L2.72484 19.0421Z" fill="black"/>
</svg>
