<svg viewBox="0 0 24 24" xmlns="http://www.w3.org/2000/svg">
<path d="M7.31649 3.76882C10.404 3.42374 13.5954 3.42374 16.683 3.76882C17.8422 3.89838 18.8598 4.52525 19.5035 5.43565L11.4998 13.4394L9.03009 10.9697C8.73719 10.6768 8.26232 10.6768 7.96943 10.9697C7.67653 11.2626 7.67653 11.7375 7.96943 12.0304L10.9694 15.0304C11.2623 15.3233 11.7372 15.3233 12.0301 15.0304L20.1455 6.91497C20.168 7.02453 20.1859 7.13579 20.1991 7.24855C20.5683 10.4055 20.5683 13.5947 20.1991 16.7516C19.9843 18.5885 18.5094 20.0272 16.683 20.2313C13.5954 20.5764 10.404 20.5764 7.31649 20.2313C5.49011 20.0272 4.01521 18.5885 3.80036 16.7516C3.43113 13.5947 3.43113 10.4055 3.80036 7.24855C4.01521 5.41159 5.49011 3.97294 7.31649 3.76882Z"/>
</svg>
