<svg viewBox="0 0 24 24" xmlns="http://www.w3.org/2000/svg">
<path d="M9.37637 20.3998C9.52471 20.5322 9.74959 20.3879 9.6939 20.197L7.17443 11.5588C7.12751 11.3979 6.9853 11.2835 6.8182 11.2712C6.41045 11.2413 6.0029 11.2078 5.5956 11.1707L2.22517 10.8643C2.06782 10.85 1.95706 11.0151 2.03156 11.1544C3.85462 14.5642 6.47983 17.8132 9.37637 20.3998Z"/>
<path d="M11.8481 22.2258C11.8685 22.2955 11.9284 22.348 12.001 22.348C12.0736 22.348 12.1335 22.2955 12.1539 22.2258L15.2378 11.6525C15.2762 11.5207 15.1735 11.3903 15.0364 11.3962C13.0137 11.483 10.9883 11.483 8.96565 11.3962C8.82852 11.3903 8.72582 11.5207 8.76426 11.6525L11.8481 22.2258Z"/>
<path d="M14.3081 20.197C14.2524 20.3879 14.4773 20.5322 14.6257 20.3998C17.5222 17.8132 20.1474 14.5642 21.9705 11.1544C22.0449 11.0151 21.9342 10.85 21.7768 10.8643L18.4064 11.1707C17.9991 11.2078 17.5916 11.2413 17.1838 11.2712C17.0167 11.2835 16.8745 11.3979 16.8276 11.5588L14.3081 20.197Z"/>
<path d="M21.802 9.35587C21.9544 9.34201 22.0354 9.16912 21.9485 9.04314L18.7107 4.34835C18.4307 3.94237 17.9691 3.69995 17.4759 3.69995H14.9863C14.8441 3.69995 14.7474 3.84403 14.8011 3.9756L17.0579 9.49897C17.1235 9.65952 17.2851 9.75962 17.458 9.74595C17.7289 9.72453 17.9998 9.70152 18.2706 9.6769L21.802 9.35587Z"/>
<path d="M13.1661 3.94611C13.104 3.79705 12.9583 3.69995 12.7968 3.69995H11.2052C11.0437 3.69995 10.8981 3.79705 10.836 3.94611L8.4784 9.60423C8.42523 9.73184 8.51447 9.87361 8.65256 9.88029C10.8836 9.9883 13.1185 9.9883 15.3495 9.88029C15.4875 9.87361 15.5768 9.73184 15.5236 9.60423L13.1661 3.94611Z"/>
<path d="M9.20089 3.9756C9.25465 3.84403 9.15787 3.69995 9.01575 3.69995H6.5261C6.03293 3.69995 5.57127 3.94237 5.29128 4.34835L2.0535 9.04314C1.96662 9.16912 2.04763 9.34201 2.20003 9.35587L5.7314 9.6769C6.00218 9.70152 6.27308 9.72454 6.54407 9.74596C6.71696 9.75962 6.87855 9.65952 6.94415 9.49897L9.20089 3.9756Z"/>
</svg>
