<svg   viewBox="0 0 24 24" fill="none" xmlns="http://www.w3.org/2000/svg">
<path d="M12.0625 2.06508C11.7729 1.9381 11.4876 2.02693 11.3041 2.21382C11.1259 2.39536 11.0367 2.67243 11.0992 2.95179C11.1979 3.39273 11.25 3.85148 11.25 4.3227C11.25 5.39854 10.9789 6.15205 10.5123 6.7767C10.038 7.41168 9.35149 7.92863 8.48466 8.51192C8.47103 8.52109 8.45834 8.53158 8.44678 8.54324L8.34179 8.64903C6.48195 9.85058 5.25 11.9427 5.25 14.3227C5.25 18.0506 8.27208 21.0727 12 21.0727C15.7279 21.0727 18.75 18.0506 18.75 14.3227C18.75 13.2281 18.4893 12.1938 18.0264 11.2789C17.9887 11.2045 17.9164 11.1538 17.8336 11.1437C17.7508 11.1335 17.6684 11.1654 17.614 11.2286C17.5435 11.3103 17.4744 11.391 17.4064 11.4705C16.5281 12.4967 15.8193 13.3248 14.3662 13.6947C14.3044 13.7105 14.266 13.6988 14.2387 13.6817C14.2067 13.6617 14.1716 13.6217 14.1476 13.5579C14.0975 13.4247 14.119 13.255 14.2216 13.1437C14.9988 12.3011 15.5509 11.1573 15.7482 9.53017C16.1177 6.48227 14.7325 3.23568 12.0625 2.06508Z" fill="black"/>
</svg>
