<svg   viewBox="0 0 24 24" fill="none" xmlns="http://www.w3.org/2000/svg">
<path fill-rule="evenodd" clip-rule="evenodd" d="M7.31649 3.76882C10.404 3.42374 13.5954 3.42374 16.683 3.76882C18.5094 3.97294 19.9843 5.41159 20.1991 7.24855C20.5683 10.4055 20.5683 13.5947 20.1991 16.7516C19.9843 18.5885 18.5094 20.0272 16.683 20.2313C13.5954 20.5764 10.404 20.5764 7.31649 20.2313C5.49011 20.0272 4.01521 18.5885 3.80036 16.7516C3.43113 13.5947 3.43113 10.4055 3.80036 7.24855C4.01521 5.41159 5.49011 3.97294 7.31649 3.76882ZM12.9998 8.00007C12.9998 8.55235 12.552 9.00007 11.9998 9.00007C11.4475 9.00007 10.9998 8.55235 10.9998 8.00007C10.9998 7.44778 11.4475 7.00007 11.9998 7.00007C12.552 7.00007 12.9998 7.44778 12.9998 8.00007ZM11.9998 10.7501C12.414 10.7501 12.7498 11.0859 12.7498 11.5001V16.5001C12.7498 16.9143 12.414 17.2501 11.9998 17.2501C11.5855 17.2501 11.2498 16.9143 11.2498 16.5001V11.5001C11.2498 11.0859 11.5855 10.7501 11.9998 10.7501Z" fill="black"/>
</svg>
