<svg   viewBox="0 0 24 24" fill="none" xmlns="http://www.w3.org/2000/svg">
<path d="M14.6031 2.76067C13.0625 2.58531 11.507 2.58531 9.96642 2.76067L8.3711 2.94225C8.13512 2.96911 7.95059 3.15827 7.9296 3.39484L7.80697 4.77662C7.6008 7.09985 7.6008 9.43677 7.80697 11.76L7.9296 13.1418C7.9525 13.3998 8.16863 13.5976 8.42764 13.5976H10.4991V21C10.4991 21.2124 10.6333 21.4017 10.8338 21.4719C11.0342 21.5421 11.2572 21.478 11.3898 21.3121L11.7804 20.8229C14.1099 17.9064 15.9647 14.6408 17.2767 11.1464L17.4672 10.6392C17.5248 10.4856 17.5035 10.3135 17.4101 10.1787C17.3167 10.0439 17.1631 9.96343 16.9991 9.96343H14.286L16.6115 3.61092C16.6642 3.46694 16.6479 3.30675 16.5673 3.1763C16.4868 3.04586 16.3508 2.95959 16.1985 2.94225L14.6031 2.76067Z" fill="black"/>
</svg>
