<svg   viewBox="0 0 24 24" fill="none" xmlns="http://www.w3.org/2000/svg">
<path fill-rule="evenodd" clip-rule="evenodd" d="M5.30777 6.75828L5.65462 9.8799L5.17852 9.92171C4.07793 10.0184 3.18718 10.8571 3.02451 11.9498C2.67412 14.3037 2.67412 16.6965 3.02451 19.0504C3.18718 20.1431 4.07793 20.9818 5.17852 21.0785L6.31297 21.1781C7.53316 21.2853 8.75686 21.3391 9.98057 21.3398C10.1556 21.3398 10.2466 21.128 10.1342 20.9939C9.11512 19.778 8.50154 18.2107 8.50154 16.5001C8.50154 13.1207 10.8963 10.3006 14.0814 9.64424C14.2575 9.60796 14.3945 9.46564 14.4143 9.28695L14.6953 6.75828C14.7357 6.3943 14.7357 6.02696 14.6953 5.66298L14.6725 5.45809C14.4311 3.2847 12.7225 1.56504 10.5507 1.30953C10.1858 1.26661 9.81724 1.26661 9.45242 1.30953C7.28063 1.56504 5.57203 3.2847 5.33054 5.45809L5.30777 5.66298C5.26733 6.02696 5.26733 6.3943 5.30777 6.75828ZM10.3754 2.79926C10.127 2.77004 9.87606 2.77004 9.62768 2.79926C8.14905 2.97322 6.98578 4.14402 6.82137 5.62373L6.7986 5.82863C6.77039 6.08252 6.77039 6.33875 6.7986 6.59263L7.15019 9.75696C9.04891 9.62827 10.9542 9.62827 12.8529 9.75696L13.2045 6.59263C13.2327 6.33874 13.2327 6.08252 13.2045 5.82863L13.1817 5.62373C13.0173 4.14402 11.854 2.97322 10.3754 2.79926Z" fill="black"/>
<path d="M16.2515 15.0001C16.2515 14.5859 15.9158 14.2501 15.5015 14.2501C15.0873 14.2501 14.7515 14.5859 14.7515 15.0001V16.7728C14.7515 17.0128 14.8664 17.2382 15.0604 17.3794L16.0604 18.1067C16.3954 18.3503 16.8645 18.2762 17.1081 17.9412C17.3517 17.6062 17.2777 17.1372 16.9427 16.8936L16.2515 16.3909V15.0001Z" fill="black"/>
<path fill-rule="evenodd" clip-rule="evenodd" d="M15.5015 22.0001C18.5391 22.0001 21.0015 19.5377 21.0015 16.5001C21.0015 13.4625 18.5391 11.0001 15.5015 11.0001C12.464 11.0001 10.0015 13.4625 10.0015 16.5001C10.0015 19.5377 12.464 22.0001 15.5015 22.0001ZM15.5015 20.5001C17.7107 20.5001 19.5015 18.7092 19.5015 16.5001C19.5015 14.291 17.7107 12.5001 15.5015 12.5001C13.2924 12.5001 11.5015 14.291 11.5015 16.5001C11.5015 18.7092 13.2924 20.5001 15.5015 20.5001Z" fill="black"/>
</svg>
