<svg   viewBox="0 0 24 24" fill="none" xmlns="http://www.w3.org/2000/svg">
<path fill-rule="evenodd" clip-rule="evenodd" d="M7.30749 7.75828L7.65055 10.8458L6.95633 10.9013C5.98823 10.9785 5.19773 11.7063 5.0408 12.6647C4.67911 14.8736 4.67911 17.1266 5.0408 19.3355C5.19773 20.2939 5.98823 21.0217 6.95633 21.0989L8.45246 21.2184C10.8146 21.407 13.188 21.407 15.5502 21.2184L17.0463 21.0989C18.0144 21.0217 18.8049 20.2939 18.9618 19.3355C19.3235 17.1266 19.3235 14.8736 18.9618 12.6647C18.8049 11.7063 18.0144 10.9785 17.0463 10.9013L16.352 10.8458L16.695 7.75828C16.7355 7.3943 16.7355 7.02696 16.695 6.66298L16.6723 6.45809C16.4308 4.2847 14.7222 2.56504 12.5504 2.30953C12.1856 2.26661 11.817 2.26661 11.4521 2.30953C9.28035 2.56504 7.57175 4.2847 7.33026 6.45809L7.30749 6.66298C7.26705 7.02696 7.26705 7.3943 7.30749 7.75828ZM12.3751 3.79926C12.1267 3.77004 11.8758 3.77004 11.6274 3.79926C10.1488 3.97322 8.9855 5.14402 8.82108 6.62373L8.79832 6.82863C8.77011 7.08252 8.77011 7.33875 8.79832 7.59263L9.14712 10.7318C11.0479 10.6099 12.9546 10.6099 14.8554 10.7318L15.2042 7.59263C15.2324 7.33874 15.2324 7.08252 15.2042 6.82863L15.1814 6.62373C15.017 5.14402 13.8537 3.97322 12.3751 3.79926ZM12.0013 14.5001C11.1729 14.5001 10.5013 15.1717 10.5013 16.0001C10.5013 16.8285 11.1729 17.5001 12.0013 17.5001C12.8297 17.5001 13.5013 16.8285 13.5013 16.0001C13.5013 15.1717 12.8297 14.5001 12.0013 14.5001Z" fill="black"/>
</svg>
