<svg   viewBox="0 0 24 24" fill="none" xmlns="http://www.w3.org/2000/svg">
<path d="M6.43026 2.41309C6.70262 2.10101 6.67043 1.62723 6.35835 1.35487C6.04628 1.08251 5.5725 1.1147 5.30013 1.42678L4.00832 2.90695C3.27556 3.74655 2.86133 4.81707 2.8381 5.93122L2.78142 8.64888C2.77278 9.063 3.10149 9.40572 3.51561 9.41436C3.92974 9.42299 4.27245 9.09428 4.28109 8.68016L4.33777 5.9625C4.35367 5.20018 4.63709 4.46773 5.13845 3.89326L6.43026 2.41309Z" fill="black"/>
<path fill-rule="evenodd" clip-rule="evenodd" d="M6.23846 7.70087C6.37736 5.48013 8.21896 3.75012 10.444 3.75012H11.0014V3.00012C11.0014 2.44784 11.4492 2.00012 12.0014 2.00012C12.5537 2.00012 13.0014 2.44784 13.0014 3.00012V3.75012H13.5589C15.7839 3.75012 17.6255 5.48014 17.7644 7.70087L17.9854 11.2343C18.0697 12.5815 18.522 13.8798 19.293 14.9877C19.9897 15.9888 19.3695 17.3713 18.1586 17.5166L14.7514 17.9255V19.0001C14.7514 20.5189 13.5202 21.7501 12.0014 21.7501C10.4827 21.7501 9.25145 20.5189 9.25145 19.0001V17.9255L5.84432 17.5166C4.63339 17.3713 4.01317 15.9888 4.70985 14.9877C5.48091 13.8798 5.9332 12.5815 6.01746 11.2343L6.23846 7.70087ZM10.7514 19.0001C10.7514 19.6905 11.3111 20.2501 12.0014 20.2501C12.6918 20.2501 13.2514 19.6905 13.2514 19.0001V18.2501H10.7514V19.0001Z" fill="black"/>
<path d="M17.6445 1.35487C17.3325 1.62723 17.3003 2.10101 17.5726 2.41309L18.8644 3.89326C19.3658 4.46773 19.6492 5.20018 19.6651 5.9625L19.7218 8.68016C19.7304 9.09428 20.0732 9.42299 20.4873 9.41436C20.9014 9.40572 21.2301 9.063 21.2215 8.64888L21.1648 5.93122C21.1416 4.81707 20.7273 3.74655 19.9946 2.90695L18.7028 1.42678C18.4304 1.1147 17.9566 1.08251 17.6445 1.35487Z" fill="black"/>
</svg>
