<svg viewBox="0 0 24 24" xmlns="http://www.w3.org/2000/svg">
<path fill-rule="evenodd" clip-rule="evenodd" d="M13.0012 3C13.0012 2.44772 12.5534 2 12.0012 2C11.4489 2 11.0012 2.44772 11.0012 3V3.75H10.4437C8.21867 3.75 6.37707 5.48001 6.23818 7.70074L6.01717 11.2342C5.93291 12.5814 5.48062 13.8797 4.70956 14.9876C4.01288 15.9886 4.6331 17.3712 5.84403 17.5165L9.25116 17.9254V19C9.25116 20.5188 10.4824 21.75 12.0012 21.75C13.5199 21.75 14.7512 20.5188 14.7512 19V17.9254L18.1583 17.5165C19.3692 17.3712 19.9894 15.9886 19.2927 14.9876C18.5217 13.8797 18.0694 12.5814 17.9851 11.2342L17.7641 7.70074C17.6252 5.48001 15.7836 3.75 13.5586 3.75H13.0012V3ZM10.7512 19C10.7512 19.6904 11.3108 20.25 12.0012 20.25C12.6915 20.25 13.2512 19.6904 13.2512 19V18.25H10.7512V19Z"/>
</svg>
