<svg viewBox="0 0 24 24" xmlns="http://www.w3.org/2000/svg">
<path fill-rule="evenodd" clip-rule="evenodd" d="M10.6653 11.8387L10.8526 12.0001L10.6653 12.1614C8.68991 13.8634 7.04748 15.9173 5.82147 18.2186C5.34036 19.1217 5.93766 20.2227 6.95701 20.3119L8.13055 20.4145C10.7064 20.6397 13.2969 20.6397 15.8728 20.4145L17.0463 20.3119C18.0657 20.2227 18.663 19.1217 18.1819 18.2186C16.9558 15.9173 15.3134 13.8634 13.338 12.1614L13.1507 12.0001L13.338 11.8387C15.3134 10.1367 16.9558 8.08285 18.1819 5.78153C18.663 4.87846 18.0657 3.77738 17.0463 3.68826L15.8728 3.58565C13.2969 3.36045 10.7064 3.36045 8.13055 3.58565L6.95701 3.68826C5.93766 3.77738 5.34036 4.87846 5.82147 5.78154C7.04748 8.08285 8.68991 10.1367 10.6653 11.8387ZM12.0016 9.75006C11.8027 9.75006 11.6119 9.67104 11.4713 9.53039L9.47128 7.53039C9.25678 7.31589 9.19261 6.9933 9.3087 6.71304C9.42478 6.43279 9.69826 6.25006 10.0016 6.25006H14.0016C14.305 6.25006 14.5784 6.43279 14.6945 6.71304C14.8106 6.9933 14.7464 7.31589 14.5319 7.53039L12.5319 9.53039C12.3913 9.67104 12.2005 9.75006 12.0016 9.75006ZM12.0016 14.2501C11.8027 14.2501 11.6119 14.3291 11.4713 14.4697L9.47128 16.4697C9.25678 16.6842 9.19261 17.0068 9.3087 17.2871C9.42478 17.5673 9.69826 17.7501 10.0016 17.7501H14.0016C14.305 17.7501 14.5784 17.5673 14.6945 17.2871C14.8106 17.0068 14.7464 16.6842 14.5319 16.4697L12.5319 14.4697C12.3913 14.3291 12.2005 14.2501 12.0016 14.2501Z"/>
</svg>
