<svg viewBox="0 0 24 24" xmlns="http://www.w3.org/2000/svg">
<path d="M13.1607 4.40694C12.4466 3.97698 11.5534 3.97698 10.8393 4.40694L10.323 4.71784C9.07029 5.47218 7.66391 5.93507 6.20803 6.07223L5.88275 6.10288C5.24066 6.16337 4.75 6.70243 4.75 7.34736V8.99125C4.75 11.7699 5.87808 14.4294 7.87584 16.3607L11.1312 19.5077C11.6157 19.9761 12.3843 19.9761 12.8688 19.5077L16.1242 16.3607C18.1219 14.4294 19.25 11.7699 19.25 8.99125V7.34736C19.25 6.70243 18.7593 6.16337 18.1172 6.10288L17.792 6.07223C16.3361 5.93507 14.9297 5.47218 13.677 4.71784L13.1607 4.40694Z"/>
</svg>
