<svg   viewBox="0 0 24 24" fill="none" xmlns="http://www.w3.org/2000/svg">
<path d="M12.5 2.46206C12.5 2.20274 12.2921 1.97369 12.0499 2.06642C11.8488 2.14343 11.6688 2.28729 11.5465 2.498L8.83245 7.17531C8.64208 7.50339 8.31303 7.72729 7.93796 7.78393L2.85165 8.55216C1.99737 8.68119 1.69771 9.7598 2.36301 10.311L6.1521 13.4502C6.50285 13.7408 6.66777 14.1992 6.58256 14.6466L5.5914 19.8517C5.43471 20.6746 6.2985 21.3139 7.03965 20.9236L11.8291 18.4018C11.8759 18.3771 11.924 18.3556 11.9729 18.3373C12.2445 18.2355 12.5 18.0143 12.5 17.7243V2.46206Z" fill="black"/>
</svg>
