<svg   viewBox="0 0 24 24" fill="none" xmlns="http://www.w3.org/2000/svg">
<path d="M12.8662 2.99616C12.4808 2.33201 11.5217 2.33201 11.1363 2.99616L8.42229 7.67347C8.23192 8.00155 7.90287 8.22544 7.52781 8.28209L2.44149 9.05032C1.58721 9.17935 1.28755 10.258 1.95286 10.8092L5.74195 13.9484C6.09269 14.239 6.25761 14.6973 6.17241 15.1448L5.18124 20.3499C5.02456 21.1727 5.88834 21.812 6.62949 21.4218L11.4189 18.9C11.7834 18.708 12.2191 18.708 12.5837 18.9L17.3731 21.4218C18.1142 21.812 18.978 21.1727 18.8213 20.3499L17.8302 15.1448C17.745 14.6973 17.9099 14.239 18.2606 13.9484L22.0497 10.8092C22.715 10.258 22.4154 9.17935 21.5611 9.05032L16.4748 8.28209C16.0997 8.22544 15.7706 8.00155 15.5803 7.67347L12.8662 2.99616Z" fill="black"/>
</svg>
