<svg viewBox="0 0 24 24" xmlns="http://www.w3.org/2000/svg">
<path fill-rule="evenodd" clip-rule="evenodd" d="M22.346 13.0138C21.8472 16.1731 19.124 18.5 15.9256 18.5H8.07422C4.87574 18.5 2.1526 16.1731 1.65376 13.0138C1.54771 12.3421 1.54771 11.6579 1.65376 10.9862C2.1526 7.82691 4.87574 5.5 8.07422 5.5H15.9256C19.124 5.5 21.8472 7.8269 22.346 10.9862C22.4521 11.6579 22.4521 12.3421 22.346 13.0138ZM7.99988 15.5C6.21504 15.5 4.72206 14.137 4.53586 12.3681C4.51022 12.1245 4.51022 11.8755 4.53586 11.6319C4.72206 9.86302 6.21504 8.5 7.99988 8.5C9.78471 8.5 11.2777 9.86302 11.4639 11.6319C11.4895 11.8755 11.4895 12.1245 11.4639 12.3681C11.2777 14.137 9.78471 15.5 7.99988 15.5Z"/>
</svg>
