<svg   viewBox="0 0 24 24" fill="none" xmlns="http://www.w3.org/2000/svg">
<path fill-rule="evenodd" clip-rule="evenodd" d="M1.65376 13.0138C2.1526 16.1731 4.87574 18.5 8.07422 18.5H15.9256C19.124 18.5 21.8472 16.1731 22.346 13.0138C22.4521 12.3421 22.4521 11.6579 22.346 10.9862C21.8472 7.82691 19.124 5.5 15.9256 5.5H8.07422C4.87574 5.5 2.1526 7.8269 1.65376 10.9862C1.54771 11.6579 1.54771 12.3421 1.65376 13.0138ZM15.9999 15.5C17.7847 15.5 19.2777 14.137 19.4639 12.3681C19.4896 12.1245 19.4896 11.8755 19.4639 11.6319C19.2777 9.86302 17.7847 8.5 15.9999 8.5C14.2151 8.5 12.7221 9.86302 12.5359 11.6319C12.5103 11.8755 12.5103 12.1245 12.5359 12.3681C12.7221 14.137 14.2151 15.5 15.9999 15.5Z" fill="black"/>
</svg>
