<svg viewBox="0 0 24 24" xmlns="http://www.w3.org/2000/svg">
<path fill-rule="evenodd" clip-rule="evenodd" d="M10.534 3.81157C10.2865 3.84763 10.0441 3.91258 9.81179 4.00509C8.42857 4.55582 7.60796 5.9878 7.83213 7.45965L7.86317 7.66346C7.90163 7.91599 7.96794 8.16349 8.0609 8.40142L8.9758 10.7431C11.165 10.5943 13.3624 10.6072 15.5502 10.7818L17.0463 10.9013C18.0144 10.9786 18.8049 11.7063 18.9618 12.6647C19.3235 14.8736 19.3235 17.1266 18.9618 19.3355C18.8049 20.2939 18.0144 21.0217 17.0463 21.0989L15.5502 21.2184C13.188 21.407 10.8146 21.407 8.45246 21.2184L6.95633 21.0989C5.98823 21.0217 5.19773 20.2939 5.0408 19.3355C4.67911 17.1266 4.67911 14.8736 5.0408 12.6647C5.19773 11.7063 5.98823 10.9786 6.95633 10.9013L7.41292 10.8648L6.66375 8.94728C6.53048 8.60617 6.43541 8.25135 6.38027 7.88931L6.34923 7.6855C6.01997 5.52367 7.22527 3.42038 9.25693 2.61149C9.59821 2.47561 9.95425 2.38021 10.3178 2.32724C12.4817 2.01194 14.5771 3.23078 15.3729 5.26761L15.4479 5.45964C15.5812 5.80075 15.6763 6.15557 15.7314 6.51761L15.8727 7.44562C15.9143 7.71862 15.7267 7.97363 15.4537 8.0152L14.9594 8.09049C14.6864 8.13207 14.4314 7.94447 14.3898 7.67147L14.2485 6.74346C14.21 6.49092 14.1437 6.24343 14.0508 6.00549L13.9757 5.81347C13.434 4.42673 12.0073 3.5969 10.534 3.81157ZM12.0013 14.5001C11.1729 14.5001 10.5013 15.1717 10.5013 16.0001C10.5013 16.8285 11.1729 17.5001 12.0013 17.5001C12.8297 17.5001 13.5013 16.8285 13.5013 16.0001C13.5013 15.1717 12.8297 14.5001 12.0013 14.5001Z"/>
</svg>
