<svg viewBox="0 0 32 32" xmlns="http://www.w3.org/2000/svg">
<path d="M28.2328 12.8519C27.7612 12.3602 27.2737 11.8519 27.0895 11.4065C26.9202 10.9973 26.9099 10.3196 26.9 9.66406C26.8816 8.44421 26.8607 7.06165 25.8995 6.10046C24.9384 5.13928 23.5558 5.11841 22.3359 5.09998C21.6804 5.09009 21.0027 5.07983 20.5935 4.91052C20.1482 4.72632 19.6398 4.23877 19.1481 3.76721C18.2844 2.93884 17.3053 2 16 2C14.6947 2 13.7157 2.93884 12.8519 3.76721C12.3602 4.23877 11.8519 4.72632 11.4065 4.91052C10.9973 5.07983 10.3196 5.09009 9.66406 5.09998C8.44421 5.11841 7.06165 5.13928 6.10046 6.10046C5.13928 7.06165 5.11841 8.44421 5.09998 9.66406C5.09009 10.3196 5.07983 10.9973 4.91052 11.4065C4.72632 11.8518 4.23877 12.3602 3.76721 12.8519C2.93884 13.7156 2 14.6947 2 16C2 17.3053 2.93884 18.2843 3.76721 19.1481C4.23877 19.6398 4.72632 20.1481 4.91052 20.5935C5.07983 21.0027 5.09009 21.6804 5.09998 22.3359C5.11841 23.5558 5.13928 24.9384 6.10046 25.8995C7.06165 26.8607 8.44421 26.8816 9.66406 26.9C10.3196 26.9099 10.9973 26.9202 11.4065 27.0895C11.8518 27.2737 12.3602 27.7612 12.8519 28.2328C13.7156 29.0612 14.6947 30 16 30C17.3053 30 18.2843 29.0612 19.1481 28.2328C19.6398 27.7612 20.1481 27.2737 20.5935 27.0895C21.0027 26.9202 21.6804 26.9099 22.3359 26.9C23.5558 26.8816 24.9384 26.8607 25.8995 25.8995C26.8607 24.9384 26.8816 23.5558 26.9 22.3359C26.9099 21.6804 26.9202 21.0027 27.0895 20.5935C27.2737 20.1482 27.7612 19.6398 28.2328 19.1481C29.0612 18.2844 30 17.3053 30 16C30 14.6947 29.0612 13.7157 28.2328 12.8519ZM16 24C15.7033 24 15.4133 23.912 15.1666 23.7472C14.92 23.5824 14.7277 23.3481 14.6142 23.074C14.5006 22.7999 14.4709 22.4983 14.5288 22.2074C14.5867 21.9164 14.7296 21.6491 14.9393 21.4393C15.1491 21.2296 15.4164 21.0867 15.7074 21.0288C15.9983 20.9709 16.2999 21.0007 16.574 21.1142C16.8481 21.2277 17.0824 21.42 17.2472 21.6666C17.412 21.9133 17.5 22.2033 17.5 22.5C17.5 22.8978 17.342 23.2794 17.0607 23.5607C16.7794 23.842 16.3978 24 16 24ZM16.9999 17.8887V18.0006C16.9999 18.2658 16.8945 18.5202 16.707 18.7077C16.5194 18.8953 16.2651 19.0006 15.9999 19.0006C15.7347 19.0006 15.4803 18.8953 15.2928 18.7077C15.1052 18.5202 14.9999 18.2658 14.9999 18.0006V17.0006C14.9999 16.7354 15.1052 16.4811 15.2928 16.2935C15.4803 16.106 15.7347 16.0006 15.9999 16.0006C16.4943 16.0006 16.9777 15.854 17.3888 15.5793C17.7999 15.3046 18.1204 14.9141 18.3096 14.4573C18.4988 14.0005 18.5483 13.4978 18.4518 13.0129C18.3554 12.5279 18.1173 12.0825 17.7676 11.7328C17.418 11.3832 16.9726 11.1451 16.4876 11.0486C16.0026 10.9522 15.5 11.0017 15.0432 11.1909C14.5864 11.3801 14.1959 11.7006 13.9212 12.1117C13.6465 12.5228 13.4999 13.0062 13.4999 13.5006C13.4999 13.7658 13.3945 14.0202 13.207 14.2077C13.0194 14.3953 12.7651 14.5006 12.4999 14.5006C12.2347 14.5006 11.9803 14.3953 11.7928 14.2077C11.6052 14.0202 11.4999 13.7658 11.4999 13.5006C11.5 12.6535 11.7392 11.8237 12.19 11.1065C12.6408 10.3893 13.2848 9.8139 14.0481 9.44649C14.8114 9.07908 15.6628 8.93457 16.5046 9.02958C17.3463 9.12459 18.1442 9.45526 18.8063 9.98356C19.4685 10.5119 19.9681 11.2163 20.2477 12.016C20.5273 12.8156 20.5755 13.6779 20.3868 14.5037C20.1981 15.3295 19.7801 16.0853 19.181 16.6841C18.5818 17.2829 17.8258 17.7004 16.9999 17.8887V17.8887Z"/>
</svg>
