<svg   viewBox="0 0 32 32" fill="none" xmlns="http://www.w3.org/2000/svg">
<path d="M28.2328 12.8519C27.7612 12.3602 27.2737 11.8519 27.0895 11.4065C26.9202 10.9973 26.9099 10.3196 26.9 9.66406C26.8816 8.44421 26.8607 7.06165 25.8995 6.10046C24.9384 5.13928 23.5558 5.11841 22.3359 5.09998C21.6804 5.09009 21.0027 5.07983 20.5935 4.91052C20.1482 4.72632 19.6398 4.23877 19.1481 3.76721C18.2844 2.93884 17.3053 2 16 2C14.6947 2 13.7157 2.93884 12.8519 3.76721C12.3602 4.23877 11.8519 4.72632 11.4065 4.91052C10.9973 5.07983 10.3196 5.09009 9.66406 5.09998C8.44421 5.11841 7.06165 5.13928 6.10046 6.10046C5.13928 7.06165 5.11841 8.44421 5.09998 9.66406C5.09009 10.3196 5.07983 10.9973 4.91052 11.4065C4.72632 11.8518 4.23877 12.3602 3.76721 12.8519C2.93884 13.7156 2 14.6947 2 16C2 17.3053 2.93884 18.2843 3.76721 19.1481C4.23877 19.6398 4.72632 20.1481 4.91052 20.5935C5.07983 21.0027 5.09009 21.6804 5.09998 22.3359C5.11841 23.5558 5.13928 24.9384 6.10046 25.8995C7.06165 26.8607 8.44421 26.8816 9.66406 26.9C10.3196 26.9099 10.9973 26.9202 11.4065 27.0895C11.8518 27.2737 12.3602 27.7612 12.8519 28.2328C13.7156 29.0612 14.6947 30 16 30C17.3053 30 18.2843 29.0612 19.1481 28.2328C19.6398 27.7612 20.1481 27.2737 20.5935 27.0895C21.0027 26.9202 21.6804 26.9099 22.3359 26.9C23.5558 26.8816 24.9384 26.8607 25.8995 25.8995C26.8607 24.9384 26.8816 23.5558 26.9 22.3359C26.9099 21.6804 26.9202 21.0027 27.0895 20.5935C27.2737 20.1482 27.7612 19.6398 28.2328 19.1481C29.0612 18.2844 30 17.3053 30 16C30 14.6947 29.0612 13.7157 28.2328 12.8519ZM22.1904 13.7234L14.8571 20.7234C14.671 20.9009 14.4238 21 14.1666 21C13.9095 21 13.6622 20.9009 13.4762 20.7234L9.80957 17.2234C9.71452 17.1327 9.63826 17.0242 9.58514 16.9041C9.53203 16.784 9.50311 16.6546 9.50002 16.5232C9.49694 16.3919 9.51975 16.2613 9.56716 16.1388C9.61458 16.0163 9.68566 15.9043 9.77635 15.8093C9.86704 15.7143 9.97556 15.6381 10.0957 15.585C10.2159 15.5319 10.3453 15.5031 10.4766 15.5C10.6079 15.497 10.7386 15.5198 10.861 15.5673C10.9835 15.6148 11.0954 15.6859 11.1904 15.7766L14.1666 18.6176L20.8096 12.2766C20.9046 12.1859 21.0165 12.1148 21.139 12.0673C21.2614 12.0198 21.3921 11.997 21.5234 12C21.6547 12.0031 21.7841 12.0319 21.9043 12.085C22.0244 12.1381 22.133 12.2143 22.2236 12.3093C22.3143 12.4043 22.3854 12.5163 22.4328 12.6388C22.4802 12.7613 22.5031 12.8919 22.5 13.0232C22.4969 13.1546 22.468 13.284 22.4149 13.4041C22.3617 13.5242 22.2855 13.6327 22.1904 13.7234V13.7234Z" fill="black"/>
</svg>
