<svg viewBox="0 0 32 32" xmlns="http://www.w3.org/2000/svg">
<path d="M30 16C30 17.3053 29.0612 18.2843 28.2328 19.1481C27.7612 19.6398 27.2737 20.1481 27.0895 20.5935C26.9202 21.0027 26.9099 21.6805 26.9 22.3359C26.8816 23.5558 26.8607 24.9384 25.8995 25.8995C24.9383 26.8607 23.5557 26.8816 22.3359 26.9C21.6804 26.9099 21.0026 26.9202 20.5934 27.0895C20.1481 27.2737 19.6396 27.7612 19.1481 28.2328C18.2843 29.0612 17.3053 30 15.9999 30C14.6946 30 13.7157 29.0612 12.8519 28.2328C12.3603 27.7612 11.8519 27.2737 11.4065 27.0895C10.9974 26.9202 10.3196 26.9099 9.66406 26.9C8.44421 26.8816 7.06165 26.8607 6.10046 25.8995C5.13928 24.9384 5.11841 23.5558 5.09998 22.3359C5.09009 21.6805 5.07983 21.0027 4.91052 20.5935C4.72632 20.1481 4.23877 19.6398 3.76721 19.1481C2.93884 18.2843 2 17.3053 2 16C2 14.6947 2.93884 13.7157 3.76721 12.8519C4.23877 12.3602 4.72632 11.8519 4.91052 11.4065C5.07983 10.9973 5.09009 10.3195 5.09998 9.66406C5.11841 8.44421 5.13928 7.06165 6.10052 6.10046C7.06171 5.13928 8.44428 5.11841 9.66406 5.09998C10.3196 5.09009 10.9974 5.07983 11.4066 4.91052C11.8519 4.72632 12.3604 4.23877 12.8519 3.76721C13.7157 2.93884 14.6947 2 16.0001 2C17.3054 2 18.2843 2.93884 19.1481 3.76721C19.6397 4.23877 20.1481 4.72632 20.5935 4.91052C21.0026 5.07983 21.6804 5.09009 22.3359 5.09998C23.5558 5.11841 24.9384 5.13928 25.8995 6.10046C26.8607 7.06165 26.8816 8.44421 26.9 9.66406C26.9099 10.3195 26.9202 10.9973 27.0895 11.4065C27.2737 11.8519 27.7612 12.3602 28.2328 12.8519C29.0612 13.7157 30 14.6947 30 16Z"/>
</svg>
