<svg   viewBox="0 0 32 32" fill="none" xmlns="http://www.w3.org/2000/svg">
<path d="M21.9997 15.0012C21.7345 15.0012 21.4802 15.1065 21.2926 15.2941C21.1051 15.4816 20.9997 15.7359 20.9997 16.0012C21.0066 19.7808 20.2705 23.5249 18.8331 27.0206C18.7831 27.142 18.7575 27.2722 18.7578 27.4035C18.7581 27.5349 18.7843 27.6649 18.8349 27.7862C18.8854 27.9074 18.9594 28.0175 19.0525 28.1102C19.1456 28.2028 19.2561 28.2762 19.3776 28.3262C19.4991 28.3761 19.6293 28.4016 19.7606 28.4013C19.892 28.4009 20.022 28.3747 20.1432 28.3241C20.2644 28.2734 20.3745 28.1994 20.4671 28.1063C20.5597 28.0131 20.6331 27.9026 20.683 27.7811C22.2197 24.0442 23.0069 20.0417 22.9997 16.0012C22.9997 15.7359 22.8944 15.4816 22.7068 15.2941C22.5193 15.1065 22.2649 15.0012 21.9997 15.0012V15.0012Z" fill="black"/>
<path d="M15.9979 11.0012C16.7013 11.0017 17.3967 11.1503 18.0388 11.4375C18.6809 11.7246 19.2554 12.1438 19.7247 12.6678C19.8122 12.7658 19.9182 12.8456 20.0366 12.9026C20.155 12.9596 20.2835 12.9927 20.4147 13C20.5459 13.0073 20.6773 12.9887 20.8013 12.9452C20.9253 12.9018 21.0395 12.8343 21.1374 12.7466C21.2353 12.659 21.315 12.5529 21.3719 12.4344C21.4288 12.316 21.4618 12.1875 21.469 12.0563C21.4762 11.9251 21.4574 11.7937 21.4138 11.6698C21.3702 11.5458 21.3026 11.4316 21.2149 11.3338C20.2697 10.2773 19.026 9.5327 17.6483 9.19849C16.2707 8.86427 14.824 8.9562 13.4998 9.46212C12.1755 9.96803 11.0361 10.8641 10.2322 12.0317C9.42831 13.1994 8.99789 14.5836 8.99787 16.0012C8.99851 18.8803 8.26836 21.7126 6.8758 24.2326C6.812 24.3475 6.77147 24.4738 6.75651 24.6043C6.74154 24.7348 6.75245 24.867 6.78859 24.9933C6.82474 25.1196 6.88542 25.2375 6.96716 25.3404C7.04891 25.4432 7.15011 25.529 7.26501 25.5927C7.3799 25.6564 7.50622 25.6968 7.63675 25.7117C7.76728 25.7266 7.89946 25.7156 8.02574 25.6794C8.15202 25.6432 8.26993 25.5824 8.37272 25.5006C8.47551 25.4188 8.56118 25.3175 8.62482 25.2026C10.1818 22.3857 10.9983 19.2197 10.9979 16.0012C10.9994 14.6755 11.5267 13.4047 12.464 12.4673C13.4014 11.5299 14.6722 11.0027 15.9979 11.0012V11.0012Z" fill="black"/>
<path d="M8.66149 7.80186C8.75941 7.71431 8.83913 7.60832 8.89608 7.48995C8.95303 7.37158 8.9861 7.24315 8.9934 7.11199C9.0007 6.98084 8.98209 6.84953 8.93863 6.72557C8.89517 6.60161 8.82771 6.48743 8.74011 6.38954C8.6525 6.29166 8.54647 6.212 8.42808 6.15511C8.30968 6.09822 8.18123 6.06521 8.05007 6.05798C7.91891 6.05074 7.78761 6.06942 7.66367 6.11294C7.53974 6.15646 7.42559 6.22398 7.32775 6.31163C5.96547 7.53181 4.87553 9.02529 4.12893 10.6948C3.38234 12.3643 2.99584 14.1724 2.99462 16.0012C2.99845 17.583 2.65827 19.1468 1.99768 20.5841C1.9428 20.7035 1.91198 20.8325 1.90698 20.9637C1.90197 21.095 1.92289 21.226 1.96853 21.3492C2.01416 21.4724 2.08363 21.5854 2.17295 21.6817C2.26227 21.778 2.3697 21.8558 2.4891 21.9106C2.6085 21.9654 2.73752 21.9962 2.8688 22.0011C3.00008 22.006 3.13105 21.985 3.25421 21.9393C3.37737 21.8935 3.49031 21.824 3.58659 21.7346C3.68286 21.6452 3.76058 21.5378 3.8153 21.4183C4.59652 19.7195 4.99893 17.8711 4.99462 16.0012C4.99571 14.4536 5.3228 12.9236 5.9546 11.5109C6.5864 10.0982 7.50872 8.83439 8.66149 7.80186V7.80186Z" fill="black"/>
<path d="M15.9993 3.00117C14.5233 2.99946 13.0578 3.24972 11.666 3.74116C11.4161 3.82971 11.2117 4.01383 11.0975 4.25306C10.9833 4.4923 10.9688 4.76707 11.0572 5.01699C11.1455 5.26692 11.3294 5.47155 11.5686 5.58591C11.8077 5.70028 12.0825 5.71502 12.3325 5.6269C13.9919 5.04216 15.7673 4.86369 17.5099 5.10645C19.2525 5.34921 20.9116 6.00613 22.348 7.02216C23.7844 8.03818 24.9564 9.38371 25.7657 10.946C26.575 12.5082 26.998 14.2417 26.9993 16.0012C27.0003 18.6182 26.7094 21.2272 26.132 23.7797C26.1029 23.9078 26.0992 24.0404 26.1213 24.1699C26.1434 24.2994 26.1909 24.4233 26.2609 24.5345C26.3309 24.6457 26.4221 24.742 26.5293 24.8179C26.6365 24.8938 26.7577 24.9478 26.8858 24.9769C27.0139 25.006 27.1465 25.0095 27.276 24.9873C27.4055 24.9652 27.5293 24.9177 27.6405 24.8476C27.7516 24.7775 27.8478 24.6862 27.9237 24.579C27.9995 24.4717 28.0535 24.3505 28.0825 24.2224C28.6927 21.5246 29.0003 18.7671 28.9993 16.0012C28.9954 12.5545 27.6246 9.25021 25.1874 6.81309C22.7503 4.37596 19.446 3.00507 15.9993 3.00117V3.00117Z" fill="black"/>
<path d="M14.2377 25.0923C13.9967 24.9818 13.7216 24.9715 13.473 25.0637C13.2243 25.1559 13.0225 25.3431 12.9118 25.584C12.671 26.1087 12.4063 26.6316 12.1254 27.1385C11.9968 27.3704 11.9656 27.6439 12.0387 27.8989C12.1118 28.1538 12.2831 28.3693 12.5151 28.4979C12.747 28.6265 13.0205 28.6576 13.2755 28.5846C13.5304 28.5115 13.7459 28.3401 13.8744 28.1082C14.1799 27.5574 14.4676 26.9888 14.7294 26.4183C14.7842 26.2989 14.815 26.17 14.8199 26.0387C14.8248 25.9075 14.8039 25.7766 14.7582 25.6535C14.7126 25.5303 14.6431 25.4174 14.5538 25.3211C14.4645 25.2249 14.3571 25.1471 14.2377 25.0923V25.0923Z" fill="black"/>
<path d="M15.9984 15.001C15.7332 15.0011 15.4788 15.1064 15.2913 15.2939C15.1037 15.4815 14.9984 15.7358 14.9984 16.001C14.9994 17.9408 14.7559 19.8729 14.2738 21.7518C14.2076 22.0086 14.2463 22.2812 14.3811 22.5096C14.516 22.7379 14.7361 22.9034 14.9929 22.9695C15.2498 23.0356 15.5224 22.997 15.7507 22.8621C15.9791 22.7272 16.1445 22.5072 16.2106 22.2503C16.7347 20.2086 16.9994 18.1089 16.9984 16.001C16.9984 15.7358 16.893 15.4815 16.7055 15.2939C16.5179 15.1064 16.2636 15.0011 15.9984 15.001V15.001Z" fill="black"/>
</svg>
