<svg   viewBox="0 0 32 32" fill="none" xmlns="http://www.w3.org/2000/svg">
<path d="M16.0035 3.00104C12.5569 3.00494 9.25254 4.37583 6.81541 6.81296C4.37829 9.25009 3.00739 12.5544 3.00349 16.001C3.00511 17.25 2.79349 18.4901 2.37776 19.6678C2.33387 19.7916 2.31481 19.9229 2.32168 20.0541C2.32855 20.1854 2.36121 20.3139 2.4178 20.4325C2.47439 20.5511 2.5538 20.6574 2.65148 20.7453C2.74916 20.8332 2.86321 20.9009 2.98709 20.9447C3.11098 20.9885 3.24228 21.0075 3.3735 21.0005C3.50471 20.9935 3.63326 20.9607 3.7518 20.904C3.87034 20.8473 3.97655 20.7678 4.06435 20.6701C4.15215 20.5723 4.21982 20.4582 4.2635 20.3343C4.75496 18.9425 5.00522 17.477 5.00349 16.001C5.00349 13.0837 6.16242 10.2858 8.22532 8.22286C10.2882 6.15996 13.0861 5.00104 16.0035 5.00104C18.9209 5.00104 21.7188 6.15996 23.7817 8.22286C25.8446 10.2858 27.0035 13.0837 27.0035 16.001C27.004 18.286 26.7825 20.5656 26.3422 22.8077C26.3168 22.9366 26.3169 23.0692 26.3427 23.198C26.3685 23.3268 26.4194 23.4493 26.4926 23.5584C26.5657 23.6675 26.6596 23.7612 26.769 23.834C26.8783 23.9068 27.0009 23.9573 27.1298 23.9827C27.2587 24.0082 27.3914 24.0079 27.5202 23.982C27.649 23.9562 27.7714 23.9052 27.8805 23.8319C27.9895 23.7587 28.0831 23.6647 28.1559 23.5553C28.2286 23.446 28.2791 23.3233 28.3044 23.1944C28.7698 20.8249 29.004 18.4158 29.0035 16.001C28.9996 12.5544 27.6287 9.25008 25.1916 6.81296C22.7544 4.37583 19.4501 3.00494 16.0035 3.00104V3.00104Z" fill="black"/>
<path d="M11.6267 10.5361C11.8336 10.3702 11.9662 10.1289 11.9952 9.86528C12.0242 9.60165 11.9473 9.33729 11.7814 9.13035C11.6993 9.02788 11.5978 8.94259 11.4827 8.87936C11.3676 8.81613 11.2412 8.77618 11.1106 8.76181C10.847 8.73278 10.5826 8.80967 10.3757 8.97556C9.32054 9.81699 8.46904 10.8858 7.88473 12.1024C7.30042 13.3189 6.99839 14.6516 7.00117 16.0012C7.00792 18.3154 6.47374 20.5991 5.44124 22.6701C5.38252 22.7878 5.34757 22.9158 5.33838 23.0469C5.3292 23.1781 5.34596 23.3097 5.3877 23.4344C5.42945 23.559 5.49536 23.6742 5.58167 23.7734C5.66798 23.8725 5.773 23.9537 5.8907 24.0122C6.00841 24.0707 6.1365 24.1054 6.26765 24.1144C6.3988 24.1234 6.53043 24.1064 6.65501 24.0645C6.77959 24.0225 6.89467 23.9564 6.99368 23.8699C7.09269 23.7835 7.17367 23.6783 7.23201 23.5605C8.40276 21.213 9.0086 18.6244 9.00117 16.0012C8.99907 14.9514 9.2341 13.9146 9.68871 12.9683C10.1433 12.022 10.8058 11.1906 11.6267 10.5361V10.5361Z" fill="black"/>
<path d="M15.9973 15.0012C15.732 15.0012 15.4777 15.1065 15.2902 15.2941C15.1026 15.4816 14.9973 15.7359 14.9973 16.0012C14.9981 19.8969 14.0101 23.729 12.1258 27.1387C12.062 27.2536 12.0215 27.3799 12.0065 27.5104C11.9915 27.6409 12.0024 27.7731 12.0386 27.8994C12.0747 28.0257 12.1354 28.1437 12.2172 28.2465C12.2989 28.3494 12.4001 28.4351 12.515 28.4988C12.6299 28.5625 12.7562 28.603 12.8867 28.6178C13.0173 28.6327 13.1495 28.6217 13.2757 28.5855C13.402 28.5493 13.5199 28.4885 13.6227 28.4067C13.7255 28.3249 13.8112 28.2236 13.8748 28.1087C15.9235 24.4021 16.9979 20.2362 16.9973 16.0012C16.9972 15.7359 16.8919 15.4816 16.7043 15.2941C16.5168 15.1065 16.2625 15.0012 15.9973 15.0012Z" fill="black"/>
<path d="M16 11.0012C14.6744 11.0027 13.4035 11.5299 12.4661 12.4673C11.5288 13.4047 11.0015 14.6755 11 16.0012C11 16.2664 11.1054 16.5207 11.2929 16.7083C11.4804 16.8958 11.7348 17.0012 12 17.0012C12.2652 17.0012 12.5196 16.8958 12.7071 16.7083C12.8946 16.5207 13 16.2664 13 16.0012C13 15.2055 13.3161 14.4424 13.8787 13.8798C14.4413 13.3172 15.2044 13.0012 16 13.0012C16.7956 13.0012 17.5587 13.3172 18.1213 13.8798C18.6839 14.4424 19 15.2055 19 16.0012C19.0102 19.9772 18.1344 23.9055 16.4362 27.5005C16.3802 27.6193 16.3481 27.748 16.3418 27.8792C16.3356 28.0103 16.3552 28.1415 16.3996 28.265C16.444 28.3886 16.5123 28.5023 16.6006 28.5995C16.6889 28.6966 16.7955 28.7755 16.9143 28.8315C17.0331 28.8875 17.1617 28.9195 17.2929 28.9258C17.4241 28.9321 17.5552 28.9125 17.6788 28.8681C17.8024 28.8237 17.916 28.7553 18.0132 28.667C18.1104 28.5787 18.1892 28.4721 18.2452 28.3533C20.0696 24.4917 21.0107 20.2721 21 16.0012C20.9985 14.6755 20.4712 13.4047 19.5339 12.4673C18.5965 11.5299 17.3256 11.0027 16 11.0012V11.0012Z" fill="black"/>
<path d="M11.7994 19.0211C11.5395 18.9686 11.2695 19.0214 11.0484 19.1678C10.8274 19.3143 10.6736 19.5424 10.6206 19.8022C10.2155 21.7992 9.48919 23.7174 8.47006 25.4819C8.40434 25.5956 8.36168 25.7212 8.34451 25.8515C8.32734 25.9817 8.33601 26.1141 8.37002 26.241C8.40402 26.3679 8.46269 26.4868 8.54269 26.5911C8.62268 26.6953 8.72242 26.7827 8.83622 26.8484C8.95001 26.914 9.07563 26.9566 9.20589 26.9737C9.33615 26.9908 9.4685 26.982 9.59538 26.948C9.72226 26.9139 9.84118 26.8551 9.94535 26.7751C10.0495 26.695 10.1369 26.5952 10.2025 26.4814C11.3296 24.5299 12.1327 22.4085 12.5805 20.1999C12.6333 19.94 12.5806 19.6698 12.4341 19.4487C12.2876 19.2276 12.0593 19.0738 11.7994 19.0211V19.0211Z" fill="black"/>
<path d="M16 7.00116C15.6243 7.00117 15.249 7.02441 14.8761 7.07074C14.7458 7.08701 14.62 7.12879 14.5058 7.19369C14.3916 7.25859 14.2914 7.34534 14.2107 7.44899C14.1301 7.55264 14.0707 7.67116 14.0358 7.79778C14.001 7.9244 13.9914 8.05664 14.0077 8.18695C14.0406 8.45013 14.1766 8.68947 14.386 8.85233C14.4896 8.93297 14.6081 8.9924 14.7347 9.02724C14.8614 9.06208 14.9936 9.07163 15.1239 9.05536C15.4145 9.01921 15.7071 9.00111 16 9.00116C17.8559 9.00324 19.6352 9.74141 20.9475 11.0537C22.2598 12.366 22.9979 14.1453 23 16.0012C23 17.2969 22.9199 18.5914 22.7601 19.8773C22.7273 20.1404 22.8004 20.4059 22.9633 20.6152C23.1261 20.8245 23.3655 20.9605 23.6287 20.9934C23.8919 21.0262 24.1573 20.9531 24.3666 20.7902C24.5759 20.6274 24.7119 20.388 24.7448 20.1248C24.9147 18.7568 25 17.3797 25 16.0012C24.9973 13.615 24.0483 11.3274 22.361 9.64017C20.6738 7.95292 18.3861 7.00385 16 7.00116Z" fill="black"/>
<path d="M23.2407 23.0326C23.1135 22.9998 22.9811 22.9924 22.8511 23.0107C22.721 23.0291 22.5959 23.073 22.4828 23.1398C22.3697 23.2065 22.2709 23.295 22.192 23.4C22.1131 23.505 22.0557 23.6245 22.0231 23.7518C21.84 24.4628 21.6289 25.1756 21.3957 25.8703C21.3113 26.1217 21.3303 26.3964 21.4484 26.6338C21.5665 26.8713 21.7741 27.0521 22.0255 27.1365C22.2769 27.2209 22.5516 27.202 22.789 27.0839C23.0265 26.9658 23.2073 26.7582 23.2917 26.5068C23.5402 25.7668 23.765 25.0076 23.9598 24.2503C23.9926 24.1231 23.9999 23.9907 23.9815 23.8607C23.9631 23.7307 23.9193 23.6056 23.8525 23.4925C23.7857 23.3794 23.6973 23.2806 23.5923 23.2017C23.4874 23.1228 23.3679 23.0654 23.2407 23.0326Z" fill="black"/>
</svg>
