<svg viewBox="0 0 32 32" xmlns="http://www.w3.org/2000/svg">
<path d="M16 2.99994C13.4288 2.99994 10.9154 3.76238 8.77759 5.19083C6.63975 6.61929 4.97351 8.64962 3.98957 11.0251C3.00563 13.4005 2.74819 16.0144 3.2498 18.5361C3.75141 21.0579 4.98954 23.3742 6.80762 25.1923C8.6257 27.0104 10.9421 28.2485 13.4638 28.7501C15.9856 29.2518 18.5995 28.9943 20.9749 28.0104C23.3503 27.0264 25.3807 25.3602 26.8091 23.2224C28.2376 21.0845 29 18.5711 29 15.9999C28.9961 12.5533 27.6252 9.24899 25.1881 6.81186C22.751 4.37473 19.4466 3.00384 16 2.99994V2.99994ZM15.7501 8.99999C16.0467 8.99999 16.3368 9.08796 16.5834 9.25278C16.8301 9.4176 17.0224 9.65187 17.1359 9.92596C17.2494 10.2 17.2791 10.5016 17.2213 10.7926C17.1634 11.0836 17.0205 11.3509 16.8107 11.5606C16.601 11.7704 16.3337 11.9133 16.0427 11.9712C15.7517 12.029 15.4501 11.9993 15.176 11.8858C14.902 11.7723 14.6677 11.58 14.5029 11.3333C14.338 11.0867 14.2501 10.7967 14.2501 10.5C14.2501 10.1022 14.4081 9.72063 14.6894 9.43932C14.9707 9.15802 15.3522 8.99999 15.7501 8.99999V8.99999ZM17 22.9999H16C15.7348 22.9999 15.4805 22.8946 15.2929 22.707C15.1054 22.5195 15 22.2652 15 21.9999V15.9999C14.7348 15.9999 14.4804 15.8946 14.2929 15.707C14.1054 15.5195 14 15.2652 14 14.9999C14 14.7347 14.1054 14.4804 14.2929 14.2928C14.4804 14.1053 14.7348 13.9999 15 13.9999H16C16.2652 14 16.5196 14.1053 16.7071 14.2928C16.8946 14.4804 17 14.7347 17 14.9999V20.9999C17.2652 20.9999 17.5196 21.1053 17.7071 21.2928C17.8947 21.4804 18 21.7347 18 21.9999C18 22.2652 17.8947 22.5195 17.7071 22.707C17.5196 22.8946 17.2652 22.9999 17 22.9999Z"/>
</svg>
