<svg   viewBox="0 0 32 32" fill="none" xmlns="http://www.w3.org/2000/svg">
<path d="M20 2C18.4216 2.00115 16.8659 2.37563 15.4599 3.09287C14.0538 3.81011 12.8374 4.84976 11.9099 6.12691C10.9825 7.40406 10.3702 8.88248 10.1233 10.4414C9.87629 12.0004 10.0016 13.5956 10.4889 15.0969L3.29285 22.2928C3.10534 22.4804 3.00001 22.7348 3 23V28C3.00001 28.2652 3.10537 28.5196 3.29291 28.7071C3.48044 28.8946 3.73479 29 4 29H9C9.26521 29 9.51956 28.8946 9.70709 28.7071C9.89463 28.5196 9.99999 28.2652 10 28V26H12C12.2652 26 12.5196 25.8946 12.7071 25.7071C12.8946 25.5196 13 25.2652 13 25V23H15C15.2652 23 15.5196 22.8947 15.7072 22.7072L16.9031 21.5111C18.2779 21.9587 19.7335 22.1028 21.1694 21.9336C22.6054 21.7643 23.9875 21.2858 25.2207 20.5308C26.4538 19.7759 27.5086 18.7626 28.3123 17.5607C29.1161 16.3588 29.6497 14.997 29.8763 13.569C30.103 12.141 30.0173 10.6808 29.6253 9.28912C29.2332 7.89742 28.544 6.60729 27.6052 5.50763C26.6665 4.40797 25.5004 3.52494 24.1875 2.91939C22.8745 2.31383 21.4459 2.00017 20 2V2ZM22.4997 11.5C22.1041 11.5 21.7175 11.3827 21.3886 11.1629C21.0597 10.9432 20.8033 10.6308 20.6519 10.2654C20.5006 9.89991 20.461 9.49778 20.5381 9.10982C20.6153 8.72186 20.8058 8.36549 21.0855 8.08579C21.3652 7.80608 21.7216 7.6156 22.1095 7.53843C22.4975 7.46126 22.8996 7.50087 23.2651 7.65224C23.6305 7.80362 23.9429 8.05996 24.1626 8.38886C24.3824 8.71776 24.4997 9.10444 24.4997 9.5C24.4997 10.0304 24.289 10.5391 23.9139 10.9142C23.5388 11.2893 23.0301 11.5 22.4997 11.5V11.5Z" fill="black"/>
</svg>
