<svg   viewBox="0 0 32 32" fill="none" xmlns="http://www.w3.org/2000/svg">
<path d="M26 10H12.5V6.5C12.5 5.57174 12.8687 4.6815 13.5251 4.02513C14.1815 3.36875 15.0717 3 16 3C16.9283 3 17.8185 3.36875 18.4749 4.02513C19.1313 4.6815 19.5 5.57174 19.5 6.5C19.5 6.76522 19.6054 7.01957 19.7929 7.20711C19.9804 7.39464 20.2348 7.5 20.5 7.5C20.7652 7.5 21.0196 7.39464 21.2071 7.20711C21.3946 7.01957 21.5 6.76522 21.5 6.5C21.5 5.04131 20.9205 3.64236 19.8891 2.61091C18.8576 1.57946 17.4587 1 16 1C14.5413 1 13.1424 1.57946 12.1109 2.61091C11.0795 3.64236 10.5 5.04131 10.5 6.5V10H6C5.46975 10.0006 4.9614 10.2115 4.58646 10.5865C4.21151 10.9614 4.00061 11.4698 4 12V26C4.00061 26.5302 4.21151 27.0386 4.58646 27.4135C4.9614 27.7885 5.46975 27.9994 6 28H26C26.5302 27.9994 27.0386 27.7885 27.4135 27.4135C27.7885 27.0386 27.9994 26.5302 28 26V12C27.9994 11.4698 27.7885 10.9614 27.4135 10.5865C27.0386 10.2115 26.5302 10.0006 26 10V10ZM22.9998 24H9C8.73478 24 8.48043 23.8946 8.29289 23.7071C8.10536 23.5196 8 23.2652 8 23C8 22.7348 8.10536 22.4804 8.29289 22.2929C8.48043 22.1054 8.73478 22 9 22H22.9998C23.265 22 23.5193 22.1054 23.7069 22.2929C23.8944 22.4804 23.9998 22.7348 23.9998 23C23.9998 23.2652 23.8944 23.5196 23.7069 23.7071C23.5193 23.8946 23.265 24 22.9998 24ZM22.9998 20H9C8.73478 20 8.48043 19.8946 8.29289 19.7071C8.10536 19.5196 8 19.2652 8 19C8 18.7348 8.10536 18.4804 8.29289 18.2929C8.48043 18.1054 8.73478 18 9 18H22.9998C23.265 18 23.5193 18.1054 23.7069 18.2929C23.8944 18.4804 23.9998 18.7348 23.9998 19C23.9998 19.2652 23.8944 19.5196 23.7069 19.7071C23.5193 19.8946 23.265 20 22.9998 20ZM22.9998 16H9C8.73478 16 8.48043 15.8946 8.29289 15.7071C8.10536 15.5196 8 15.2652 8 15C8 14.7348 8.10536 14.4804 8.29289 14.2929C8.48043 14.1054 8.73478 14 9 14H22.9998C23.265 14 23.5193 14.1054 23.7069 14.2929C23.8944 14.4804 23.9998 14.7348 23.9998 15C23.9998 15.2652 23.8944 15.5196 23.7069 15.7071C23.5193 15.8946 23.265 16 22.9998 16Z" fill="black"/>
</svg>
