<svg   viewBox="0 0 32 32" fill="none" xmlns="http://www.w3.org/2000/svg">
<path d="M26 10H21.5V6.5C21.5 5.04131 20.9205 3.64236 19.8891 2.61091C18.8576 1.57946 17.4587 1 16 1C14.5413 1 13.1424 1.57946 12.1109 2.61091C11.0795 3.64236 10.5 5.04131 10.5 6.5V10H6C5.46975 10.0006 4.9614 10.2115 4.58646 10.5865C4.21151 10.9614 4.00061 11.4698 4 12V26C4.00061 26.5302 4.21151 27.0386 4.58646 27.4135C4.9614 27.7885 5.46975 27.9994 6 28H26C26.5302 27.9994 27.0386 27.7885 27.4135 27.4135C27.7885 27.0386 27.9994 26.5302 28 26V12C27.9994 11.4698 27.7885 10.9614 27.4135 10.5865C27.0386 10.2115 26.5302 10.0006 26 10V10ZM15.9993 20.5C15.7026 20.5 15.4126 20.412 15.1659 20.2472C14.9192 20.0824 14.727 19.8481 14.6134 19.574C14.4999 19.2999 14.4702 18.9983 14.5281 18.7074C14.586 18.4164 14.7288 18.1491 14.9386 17.9393C15.1484 17.7296 15.4157 17.5867 15.7066 17.5288C15.9976 17.4709 16.2992 17.5007 16.5733 17.6142C16.8474 17.7277 17.0816 17.92 17.2465 18.1666C17.4113 18.4133 17.4993 18.7033 17.4993 19C17.4993 19.197 17.4605 19.392 17.3851 19.574C17.3097 19.756 17.1992 19.9214 17.0599 20.0607C16.9206 20.1999 16.7553 20.3104 16.5733 20.3858C16.3913 20.4612 16.1963 20.5 15.9993 20.5V20.5ZM19.5 10H12.5V6.5C12.5 5.57174 12.8687 4.6815 13.5251 4.02513C14.1815 3.36875 15.0717 3 16 3C16.9283 3 17.8185 3.36875 18.4749 4.02513C19.1313 4.6815 19.5 5.57174 19.5 6.5V10Z" fill="black"/>
</svg>
