<svg   viewBox="0 0 32 32" fill="none" xmlns="http://www.w3.org/2000/svg">
<path d="M25.9922 10H21.4922V6.5C21.4922 5.04131 20.9127 3.64236 19.8813 2.61091C18.8498 1.57946 17.4509 1 15.9922 1C14.5335 1 13.1345 1.57946 12.1031 2.61091C11.0716 3.64236 10.4922 5.04131 10.4922 6.5V10H5.99219C5.46194 10.0006 4.95359 10.2115 4.57864 10.5865C4.2037 10.9614 3.99279 11.4698 3.99219 12V26C3.99279 26.5302 4.2037 27.0386 4.57864 27.4135C4.95359 27.7885 5.46194 27.9994 5.99219 28H25.9922C26.5224 27.9994 27.0308 27.7885 27.4057 27.4135C27.7807 27.0386 27.9916 26.5302 27.9922 26V12C27.9916 11.4698 27.7807 10.9614 27.4057 10.5865C27.0308 10.2115 26.5224 10.0006 25.9922 10V10ZM12.4922 6.5C12.4922 5.57174 12.8609 4.6815 13.5173 4.02513C14.1737 3.36875 15.0639 3 15.9922 3C16.9204 3 17.8107 3.36875 18.4671 4.02513C19.1234 4.6815 19.4922 5.57174 19.4922 6.5V10H12.4922V6.5ZM22.9922 24H8.99219C8.72697 24 8.47262 23.8946 8.28508 23.7071C8.09754 23.5196 7.99219 23.2652 7.99219 23C7.99219 22.7348 8.09754 22.4804 8.28508 22.2929C8.47262 22.1054 8.72697 22 8.99219 22H22.9922C23.2574 22 23.5118 22.1054 23.6993 22.2929C23.8868 22.4804 23.9922 22.7348 23.9922 23C23.9922 23.2652 23.8868 23.5196 23.6993 23.7071C23.5118 23.8946 23.2574 24 22.9922 24ZM22.9922 20H8.99219C8.72697 20 8.47262 19.8946 8.28508 19.7071C8.09754 19.5196 7.99219 19.2652 7.99219 19C7.99219 18.7348 8.09754 18.4804 8.28508 18.2929C8.47262 18.1054 8.72697 18 8.99219 18H22.9922C23.2574 18 23.5118 18.1054 23.6993 18.2929C23.8868 18.4804 23.9922 18.7348 23.9922 19C23.9922 19.2652 23.8868 19.5196 23.6993 19.7071C23.5118 19.8946 23.2574 20 22.9922 20ZM22.9922 16H8.99219C8.72697 16 8.47262 15.8946 8.28508 15.7071C8.09754 15.5196 7.99219 15.2652 7.99219 15C7.99219 14.7348 8.09754 14.4804 8.28508 14.2929C8.47262 14.1054 8.72697 14 8.99219 14H22.9922C23.2574 14 23.5118 14.1054 23.6993 14.2929C23.8868 14.4804 23.9922 14.7348 23.9922 15C23.9922 15.2652 23.8868 15.5196 23.6993 15.7071C23.5118 15.8946 23.2574 16 22.9922 16Z" fill="black"/>
</svg>
