<svg   viewBox="0 0 32 32" fill="none" xmlns="http://www.w3.org/2000/svg">
<path d="M16 19C16.8284 19 17.5 18.3284 17.5 17.5C17.5 16.6716 16.8284 16 16 16C15.1716 16 14.5 16.6716 14.5 17.5C14.5 18.3284 15.1716 19 16 19Z" fill="black"/>
<path d="M26 10H21.5V6.5C21.5 5.04131 20.9205 3.64236 19.8891 2.61091C18.8576 1.57946 17.4587 1 16 1C14.5413 1 13.1424 1.57946 12.1109 2.61091C11.0795 3.64236 10.5 5.04131 10.5 6.5V10H6C5.46975 10.0006 4.9614 10.2115 4.58646 10.5865C4.21151 10.9614 4.00061 11.4698 4 12V26C4.00061 26.5302 4.21151 27.0386 4.58646 27.4135C4.9614 27.7885 5.46975 27.9994 6 28H26C26.5302 27.9994 27.0386 27.7885 27.4135 27.4135C27.7885 27.0386 27.9994 26.5302 28 26V12C27.9994 11.4698 27.7885 10.9614 27.4135 10.5865C27.0386 10.2115 26.5302 10.0006 26 10V10ZM17 20.8537V23C17 23.2652 16.8946 23.5196 16.7071 23.7071C16.5196 23.8946 16.2652 24 16 24C15.7348 24 15.4804 23.8946 15.2929 23.7071C15.1054 23.5196 15 23.2652 15 23V20.8537C14.1943 20.6135 13.5021 20.0913 13.0497 19.3826C12.5974 18.674 12.4153 17.8262 12.5367 16.9943C12.658 16.1624 13.0748 15.402 13.7107 14.8521C14.3467 14.3022 15.1593 13.9996 16 13.9996C16.8407 13.9996 17.6533 14.3022 18.2893 14.8521C18.9252 15.402 19.342 16.1624 19.4633 16.9943C19.5847 17.8262 19.4026 18.674 18.9503 19.3826C18.4979 20.0913 17.8057 20.6135 17 20.8537ZM19.5 10H12.5V6.5C12.5 5.57174 12.8687 4.6815 13.5251 4.02513C14.1815 3.36875 15.0717 3 16 3C16.9283 3 17.8185 3.36875 18.4749 4.02513C19.1313 4.6815 19.5 5.57174 19.5 6.5V10Z" fill="black"/>
</svg>
