<svg viewBox="0 0 32 32" xmlns="http://www.w3.org/2000/svg">
<path d="M26 10H12.5V6.5C12.5 5.57174 12.8687 4.6815 13.5251 4.02513C14.1815 3.36875 15.0717 3 16 3C16.9283 3 17.8185 3.36875 18.4749 4.02513C19.1313 4.6815 19.5 5.57174 19.5 6.5C19.5 6.76522 19.6054 7.01957 19.7929 7.20711C19.9804 7.39464 20.2348 7.5 20.5 7.5C20.7652 7.5 21.0196 7.39464 21.2071 7.20711C21.3946 7.01957 21.5 6.76522 21.5 6.5C21.5 5.04131 20.9205 3.64236 19.8891 2.61091C18.8576 1.57946 17.4587 1 16 1C14.5413 1 13.1424 1.57946 12.1109 2.61091C11.0795 3.64236 10.5 5.04131 10.5 6.5V10H6C5.46975 10.0006 4.9614 10.2115 4.58646 10.5865C4.21151 10.9614 4.00061 11.4698 4 12V26C4.00061 26.5302 4.21151 27.0386 4.58646 27.4135C4.9614 27.7885 5.46975 27.9994 6 28H26C26.5302 27.9994 27.0386 27.7885 27.4135 27.4135C27.7885 27.0386 27.9994 26.5302 28 26V12C27.9994 11.4698 27.7885 10.9614 27.4135 10.5865C27.0386 10.2115 26.5302 10.0006 26 10V10Z"/>
</svg>
