<svg viewBox="0 0 32 32" xmlns="http://www.w3.org/2000/svg">
<path d="M16 3.00055C13.4288 3.00055 10.9154 3.76299 8.77759 5.19144C6.63975 6.6199 4.97351 8.65023 3.98957 11.0257C3.00563 13.4011 2.74819 16.015 3.2498 18.5367C3.75141 21.0585 4.98953 23.3749 6.80762 25.1929C8.6257 27.011 10.9421 28.2492 13.4638 28.7508C15.9856 29.2524 18.5995 28.9949 20.9749 28.011C23.3503 27.027 25.3807 25.3608 26.8091 23.223C28.2376 21.0851 29 18.5717 29 16.0005C28.996 12.554 27.6251 9.24967 25.188 6.81256C22.7509 4.37545 19.4466 3.00453 16 3.00055V3.00055ZM18.8284 20.2432L11.7574 13.1721C11.5698 12.9846 11.4645 12.7302 11.4645 12.465C11.4645 12.1998 11.5698 11.9454 11.7574 11.7579C11.9449 11.5704 12.1993 11.465 12.4645 11.465C12.7297 11.465 12.984 11.5704 13.1716 11.7579L20.2426 18.829C20.3356 18.9218 20.4094 19.0321 20.4597 19.1534C20.5101 19.2748 20.536 19.4049 20.5361 19.5362C20.5361 19.6676 20.5103 19.7977 20.4601 19.9191C20.4098 20.0405 20.3361 20.1508 20.2432 20.2437C20.1503 20.3367 20.04 20.4103 19.9186 20.4606C19.7972 20.5109 19.6671 20.5367 19.5357 20.5366C19.4043 20.5366 19.2742 20.5106 19.1529 20.4603C19.0315 20.4099 18.9213 20.3362 18.8284 20.2432Z"/>
</svg>
