<svg viewBox="0 0 32 32" xmlns="http://www.w3.org/2000/svg">
<path d="M25 16C25.0015 18.0412 24.3055 20.0216 23.0275 21.6132L10.3868 8.97253C11.7099 7.91333 13.3053 7.24958 14.9893 7.05777C16.6732 6.86597 18.3771 7.15392 19.9045 7.88844C21.4319 8.62296 22.7206 9.77415 23.6222 11.2093C24.5237 12.6445 25.0013 14.3052 25 16V16ZM7.00001 16C6.99867 17.6948 7.4763 19.3555 8.37784 20.7907C9.27938 22.2259 10.5681 23.3771 12.0955 24.1116C13.6229 24.8461 15.3268 25.134 17.0107 24.9422C18.6947 24.7504 20.2902 24.0866 21.6132 23.0274L8.97254 10.3868C7.69447 11.9783 6.99852 13.9588 7.00001 16V16ZM29.5 16C29.5 18.67 28.7082 21.2801 27.2248 23.5002C25.7414 25.7203 23.633 27.4506 21.1662 28.4724C18.6994 29.4942 15.985 29.7615 13.3663 29.2406C10.7475 28.7197 8.34207 27.4339 6.45406 25.5459C4.56606 23.6579 3.28031 21.2525 2.7594 18.6337C2.2385 16.015 2.50585 13.3006 3.52763 10.8338C4.54942 8.36697 6.27974 6.25856 8.49981 4.77516C10.7199 3.29176 13.33 2.5 16 2.5C19.5792 2.50405 23.0106 3.92767 25.5415 6.45853C28.0723 8.9894 29.496 12.4208 29.5 16V16ZM27 16C27 13.8244 26.3549 11.6977 25.1462 9.88873C23.9375 8.07979 22.2195 6.66989 20.2095 5.83733C18.1995 5.00476 15.9878 4.78692 13.854 5.21136C11.7202 5.6358 9.76021 6.68345 8.22183 8.22183C6.68345 9.7602 5.63581 11.7202 5.21137 13.854C4.78693 15.9878 5.00477 18.1995 5.83733 20.2095C6.6699 22.2195 8.07979 23.9375 9.88873 25.1462C11.6977 26.3549 13.8244 27 16 27C18.9164 26.9967 21.7124 25.8367 23.7745 23.7745C25.8367 21.7123 26.9967 18.9164 27 16Z"/>
</svg>
