<svg   viewBox="0 0 32 32" fill="none" xmlns="http://www.w3.org/2000/svg">
<path d="M16 2.99994C13.4288 2.99994 10.9154 3.76238 8.77759 5.19083C6.63975 6.61929 4.97351 8.64962 3.98957 11.0251C3.00563 13.4005 2.74819 16.0144 3.2498 18.5361C3.75141 21.0579 4.98954 23.3742 6.80762 25.1923C8.6257 27.0104 10.9421 28.2485 13.4638 28.7501C15.9856 29.2518 18.5995 28.9943 20.9749 28.0104C23.3503 27.0264 25.3807 25.3602 26.8091 23.2224C28.2376 21.0845 29 18.5711 29 15.9999C28.9961 12.5533 27.6252 9.24899 25.1881 6.81186C22.751 4.37473 19.4466 3.00384 16 2.99994V2.99994ZM16.0001 24C15.7034 24 15.4134 23.912 15.1667 23.7472C14.92 23.5824 14.7278 23.3481 14.6143 23.074C14.5007 22.7999 14.471 22.4983 14.5289 22.2073C14.5868 21.9164 14.7296 21.6491 14.9394 21.4393C15.1492 21.2295 15.4165 21.0867 15.7074 21.0288C15.9984 20.9709 16.3 21.0006 16.5741 21.1142C16.8482 21.2277 17.0825 21.42 17.2473 21.6666C17.4121 21.9133 17.5001 22.2033 17.5001 22.5C17.5001 22.8978 17.342 23.2793 17.0607 23.5606C16.7794 23.8419 16.3979 24 16.0001 24ZM17 17.8886V18.0005C17 18.2658 16.8947 18.5201 16.7071 18.7077C16.5196 18.8952 16.2652 19.0005 16 19.0005C15.7348 19.0005 15.4804 18.8952 15.2929 18.7077C15.1054 18.5201 15 18.2658 15 18.0005V17.0005C15 16.7353 15.1054 16.481 15.2929 16.2935C15.4805 16.1059 15.7348 16.0006 16 16.0005C16.4945 16.0005 16.9778 15.8539 17.3889 15.5792C17.8001 15.3045 18.1205 14.9141 18.3097 14.4573C18.4989 14.0004 18.5484 13.4978 18.452 13.0128C18.3555 12.5279 18.1174 12.0824 17.7678 11.7328C17.4181 11.3832 16.9727 11.145 16.4877 11.0486C16.0028 10.9521 15.5001 11.0016 15.0433 11.1908C14.5865 11.3801 14.196 11.7005 13.9213 12.1116C13.6466 12.5227 13.5 13.0061 13.5 13.5005C13.5 13.7658 13.3947 14.0201 13.2071 14.2077C13.0196 14.3952 12.7652 14.5005 12.5 14.5005C12.2348 14.5005 11.9804 14.3952 11.7929 14.2077C11.6054 14.0201 11.5 13.7658 11.5 13.5005C11.5001 12.6535 11.7393 11.8236 12.1901 11.1064C12.6409 10.3892 13.285 9.81384 14.0482 9.44643C14.8115 9.07902 15.663 8.93451 16.5047 9.02952C17.3465 9.12453 18.1443 9.4552 18.8065 9.9835C19.4687 10.5118 19.9683 11.2163 20.2478 12.0159C20.5274 12.8155 20.5756 13.6778 20.3869 14.5036C20.1982 15.3294 19.7802 16.0852 19.1811 16.684C18.5819 17.2828 17.8259 17.7004 17 17.8886Z" fill="black"/>
</svg>
