<svg   viewBox="0 0 32 32" fill="none" xmlns="http://www.w3.org/2000/svg">
<path d="M26 4.99939H6C5.46975 4.99999 4.96139 5.21089 4.58644 5.58583C4.2115 5.96078 4.0006 6.46914 4 6.99939V14.3328C4 25.515 13.4783 29.2234 15.3782 29.8533C15.7815 29.99 16.2185 29.99 16.6217 29.8533C18.5217 29.2234 28 25.515 28 14.3328V6.99939C27.9994 6.46914 27.7885 5.96078 27.4136 5.58583C27.0386 5.21089 26.5303 4.99999 26 4.99939V4.99939ZM20.0007 17H17.0007V20C17.0007 20.2652 16.8953 20.5196 16.7078 20.7071C16.5202 20.8946 16.2659 21 16.0007 21C15.7355 21 15.4811 20.8946 15.2936 20.7071C15.106 20.5196 15.0007 20.2652 15.0007 20V17H12.0007C11.7355 17 11.4811 16.8946 11.2936 16.7071C11.106 16.5196 11.0007 16.2652 11.0007 16C11.0007 15.7348 11.106 15.4804 11.2936 15.2929C11.4811 15.1054 11.7355 15 12.0007 15H15.0007V12C15.0007 11.7348 15.106 11.4804 15.2936 11.2929C15.4811 11.1054 15.7355 11 16.0007 11C16.2659 11 16.5202 11.1054 16.7078 11.2929C16.8953 11.4804 17.0007 11.7348 17.0007 12V15H20.0007C20.2659 15 20.5202 15.1054 20.7078 15.2929C20.8953 15.4804 21.0007 15.7348 21.0007 16C21.0007 16.2652 20.8953 16.5196 20.7078 16.7071C20.5202 16.8946 20.2659 17 20.0007 17Z" fill="black"/>
</svg>
