<svg viewBox="0 0 32 32" xmlns="http://www.w3.org/2000/svg">
<path d="M26 5H6C5.46978 5.00069 4.96147 5.21162 4.58655 5.58655C4.21162 5.96147 4.00069 6.46978 4 7V14.333C4 25.5156 13.4775 29.2236 15.3789 29.8535C15.7817 29.9902 16.2183 29.9902 16.6211 29.8535C18.5215 29.2236 28 25.5166 28 14.333V7C27.9993 6.46978 27.7884 5.96147 27.4135 5.58655C27.0385 5.21162 26.5302 5.00069 26 5V5ZM22.1904 13.7236L14.8564 20.7236C14.6704 20.901 14.4231 21 14.166 21C13.9089 21 13.6617 20.901 13.4756 20.7236L9.80957 17.2236C9.71441 17.133 9.63804 17.0245 9.58483 16.9043C9.53162 16.7842 9.50261 16.6547 9.49947 16.5233C9.49632 16.3919 9.5191 16.2612 9.5665 16.1386C9.6139 16.0161 9.685 15.904 9.77572 15.8089C9.86644 15.7139 9.97501 15.6376 10.0952 15.5845C10.2154 15.5314 10.3449 15.5025 10.4763 15.4995C10.6077 15.4964 10.7384 15.5193 10.8609 15.5669C10.9835 15.6144 11.0954 15.6856 11.1904 15.7764L14.166 18.6172L20.8096 12.2764C20.9046 12.1856 21.0165 12.1144 21.1391 12.0669C21.2616 12.0193 21.3923 11.9964 21.5237 11.9995C21.6551 12.0025 21.7846 12.0314 21.9048 12.0845C22.025 12.1376 22.1336 12.2139 22.2243 12.3089C22.315 12.404 22.3861 12.5161 22.4335 12.6386C22.4809 12.7612 22.5037 12.8919 22.5005 13.0233C22.4974 13.1547 22.4684 13.2842 22.4152 13.4043C22.362 13.5245 22.2856 13.633 22.1904 13.7236H22.1904Z"/>
</svg>
