<svg   viewBox="0 0 32 32" fill="none" xmlns="http://www.w3.org/2000/svg">
<path d="M26 4.99939H6C5.46975 4.99999 4.96139 5.21089 4.58644 5.58583C4.2115 5.96078 4.0006 6.46914 4 6.99939V14.3328C4 25.515 13.4783 29.2234 15.3782 29.8533C15.7815 29.99 16.2185 29.99 16.6217 29.8533C18.5217 29.2234 28 25.515 28 14.3328V6.99939C27.9994 6.46914 27.7885 5.96078 27.4136 5.58583C27.0386 5.21089 26.5303 4.99999 26 4.99939V4.99939ZM15.9997 27.9523C14.4099 27.4237 6.95978 24.5006 6.0849 16H16.0007V6.99939H26V14.3328C26.0003 14.8896 25.972 15.4461 25.9152 16H16.0007V27.9519L15.9997 27.9523Z" fill="black"/>
</svg>
