<svg viewBox="0 0 32 32" xmlns="http://www.w3.org/2000/svg">
<path d="M26 5H6C5.46975 5.0006 4.96139 5.21151 4.58645 5.58645C4.21151 5.96139 4.0006 6.46975 4 7V14.3333C4 25.515 13.4783 29.2239 15.3783 29.8538C15.7815 29.9906 16.2185 29.9906 16.6217 29.8539C18.5217 29.2239 28 25.515 28 14.3333V7C27.9994 6.46975 27.7885 5.96139 27.4135 5.58645C27.0386 5.21151 26.5302 5.0006 26 5V5ZM6 7H26V14.3333C26 16.5436 25.5757 18.4204 24.9005 20.0096L16.5735 14.1808C16.4054 14.0631 16.2052 14 16 14C15.7948 14 15.5946 14.0631 15.4265 14.1808L7.09949 20.0096C6.42432 18.4204 6 16.5436 6 14.3333V7Z"/>
</svg>
