<svg viewBox="0 0 32 32" xmlns="http://www.w3.org/2000/svg">
<path d="M26 5H6C5.46975 5.00061 4.9614 5.21151 4.58646 5.58646C4.21151 5.9614 4.00061 6.46975 4 7V14.3334C4 25.515 13.4783 29.2239 15.3783 29.8539C15.7815 29.9906 16.2185 29.9906 16.6217 29.8539C18.5217 29.2239 28 25.515 28 14.3334V7C27.9994 6.46975 27.7885 5.9614 27.4135 5.58646C27.0386 5.21151 26.5302 5.00061 26 5V5ZM15 12C15 11.7348 15.1054 11.4804 15.2929 11.2929C15.4804 11.1054 15.7348 11 16 11C16.2652 11 16.5196 11.1054 16.7071 11.2929C16.8946 11.4804 17 11.7348 17 12V17C17 17.2652 16.8946 17.5196 16.7071 17.7071C16.5196 17.8946 16.2652 18 16 18C15.7348 18 15.4804 17.8946 15.2929 17.7071C15.1054 17.5196 15 17.2652 15 17V12ZM16 23C15.7033 23 15.4133 22.912 15.1666 22.7472C14.92 22.5824 14.7277 22.3481 14.6142 22.074C14.5006 21.7999 14.4709 21.4983 14.5288 21.2074C14.5867 20.9164 14.7296 20.6491 14.9393 20.4393C15.1491 20.2296 15.4164 20.0867 15.7074 20.0288C15.9983 19.9709 16.2999 20.0007 16.574 20.1142C16.8481 20.2277 17.0824 20.42 17.2472 20.6666C17.412 20.9133 17.5 21.2033 17.5 21.5C17.5 21.8978 17.342 22.2794 17.0607 22.5607C16.7794 22.842 16.3978 23 16 23V23Z"/>
</svg>
