<svg viewBox="0 0 32 32" xmlns="http://www.w3.org/2000/svg">
<path d="M17 11.5H29V7C29 6.73478 28.8946 6.48043 28.7071 6.2929C28.5196 6.10536 28.2652 6 28 6H17V11.5Z"/>
<path d="M29 13.5H23V19H29V13.5Z"/>
<path d="M21 13.5H11V19H21V13.5Z"/>
<path d="M9 13.5H3V19H9V13.5Z"/>
<path d="M17 21V26H28C28.2652 26 28.5196 25.8946 28.7071 25.7071C28.8946 25.5196 29 25.2652 29 25V21H17Z"/>
<path d="M15 11.5V6H4C3.73478 6 3.48043 6.10536 3.2929 6.2929C3.10536 6.48043 3 6.73478 3 7V11.5H15Z"/>
<path d="M15 21H3V25C3 25.2652 3.10536 25.5196 3.2929 25.7071C3.48043 25.8946 3.73478 26 4 26H15V21Z"/>
</svg>
