<svg viewBox="0 0 32 32" xmlns="http://www.w3.org/2000/svg">
<path d="M29.5893 23.4957L18.5932 4.49572C18.3294 4.0407 17.9507 3.66299 17.495 3.40041C17.0392 3.13784 16.5225 2.99963 15.9966 2.99963C15.4706 2.99963 14.9539 3.13784 14.4981 3.40041C14.0424 3.66299 13.6637 4.0407 13.3999 4.49572V4.4967L2.40378 23.4957C2.13978 23.9517 2.00051 24.4691 2 24.996C1.99949 25.5228 2.13775 26.0405 2.40088 26.497C2.664 26.9535 3.0427 27.3326 3.49888 27.5962C3.95506 27.8598 4.47262 27.9986 4.99949 27.9987H26.9936C27.5205 27.9986 28.0381 27.8598 28.4942 27.5962C28.9504 27.3326 29.3291 26.9535 29.5922 26.497C29.8554 26.0405 29.9936 25.5228 29.9931 24.996C29.9926 24.4691 29.8533 23.9517 29.5893 23.4957V23.4957ZM14.9956 12.9996C14.9956 12.7344 15.1009 12.4801 15.2885 12.2925C15.476 12.105 15.7304 11.9996 15.9956 11.9996C16.2608 11.9996 16.5151 12.105 16.7027 12.2925C16.8902 12.4801 16.9956 12.7344 16.9956 12.9996V17.9996C16.9956 18.2648 16.8902 18.5192 16.7027 18.7067C16.5151 18.8943 16.2608 18.9996 15.9956 18.9996C15.7304 18.9996 15.476 18.8943 15.2885 18.7067C15.1009 18.5192 14.9956 18.2648 14.9956 17.9996V12.9996ZM15.9963 24C15.6996 24 15.4096 23.912 15.163 23.7472C14.9163 23.5824 14.724 23.3481 14.6105 23.074C14.497 22.7999 14.4673 22.4983 14.5251 22.2074C14.583 21.9164 14.7259 21.6491 14.9357 21.4393C15.1454 21.2296 15.4127 21.0867 15.7037 21.0288C15.9946 20.9709 16.2962 21.0006 16.5703 21.1142C16.8444 21.2277 17.0787 21.42 17.2435 21.6666C17.4083 21.9133 17.4963 22.2033 17.4963 22.5C17.4963 22.8978 17.3382 23.2793 17.0569 23.5606C16.7756 23.8419 16.3941 24 15.9963 24V24Z"/>
</svg>
