<svg   viewBox="0 0 32 32" fill="none" xmlns="http://www.w3.org/2000/svg">
<path d="M28.4141 10.0293L21.9707 3.58594C21.5948 3.21218 21.0867 3.00165 20.5566 3H11.4434C10.9133 3.00165 10.4052 3.21218 10.0293 3.58594L3.58594 10.0293C3.21218 10.4052 3.00165 10.9133 3 11.4434V20.5566C3.00165 21.0867 3.21218 21.5948 3.58594 21.9707L10.0293 28.4141C10.4052 28.7878 10.9133 28.9984 11.4434 29H20.5566C21.0867 28.9984 21.5948 28.7878 21.9707 28.4141L28.4141 21.9707C28.7878 21.5948 28.9984 21.0867 29 20.5566V11.4434C28.9984 10.9133 28.7878 10.4052 28.4141 10.0293V10.0293ZM15 10C15 9.73478 15.1054 9.48043 15.2929 9.29289C15.4804 9.10536 15.7348 9 16 9C16.2652 9 16.5196 9.10536 16.7071 9.29289C16.8946 9.48043 17 9.73478 17 10V17C17 17.2652 16.8946 17.5196 16.7071 17.7071C16.5196 17.8946 16.2652 18 16 18C15.7348 18 15.4804 17.8946 15.2929 17.7071C15.1054 17.5196 15 17.2652 15 17V10ZM16 23C15.7033 23 15.4133 22.912 15.1666 22.7472C14.92 22.5824 14.7277 22.3481 14.6142 22.074C14.5006 21.7999 14.4709 21.4983 14.5288 21.2074C14.5867 20.9164 14.7296 20.6491 14.9393 20.4393C15.1491 20.2296 15.4164 20.0867 15.7074 20.0288C15.9983 19.9709 16.2999 20.0007 16.574 20.1142C16.8481 20.2277 17.0824 20.42 17.2472 20.6666C17.412 20.9133 17.5 21.2033 17.5 21.5C17.5 21.8978 17.3419 22.2793 17.0606 22.5606C16.7793 22.8419 16.3978 23 16 23V23Z" fill="black"/>
</svg>
