<svg viewBox="0 0 24 24" xmlns="http://www.w3.org/2000/svg">
<g clip-path="url(#clip0_61_16735)">
<path d="M22 4.00098C22 2.90098 21.1 2.00098 20 2.00098H4C2.9 2.00098 2 2.90098 2 4.00098V16.001C2 17.101 2.9 18.001 4 18.001H18L22 22.001V4.00098ZM16 11.001H13V14.001C13 14.551 12.55 15.001 12 15.001C11.45 15.001 11 14.551 11 14.001V11.001H8C7.45 11.001 7 10.551 7 10.001C7 9.45098 7.45 9.00098 8 9.00098H11V6.00098C11 5.45098 11.45 5.00098 12 5.00098C12.55 5.00098 13 5.45098 13 6.00098V9.00098H16C16.55 9.00098 17 9.45098 17 10.001C17 10.551 16.55 11.001 16 11.001Z"/>
</g>
<defs>
<clipPath id="clip0_61_16735">
<rect transform="translate(0 0.000976562)"/>
</clipPath>
</defs>
</svg>
