<svg   viewBox="0 0 24 24" fill="none" xmlns="http://www.w3.org/2000/svg">
<g clip-path="url(#clip0_61_16736)">
<path d="M16.5 6.75112V17.3311C16.5 19.4211 14.97 21.2811 12.89 21.4811C10.5 21.7111 8.5 19.8411 8.5 17.5011V5.14112C8.5 3.83112 9.44 2.64112 10.74 2.51112C12.24 2.36112 13.5 3.53112 13.5 5.00112V15.5011C13.5 16.0511 13.05 16.5011 12.5 16.5011C11.95 16.5011 11.5 16.0511 11.5 15.5011V6.75112C11.5 6.34112 11.16 6.00112 10.75 6.00112C10.34 6.00112 10 6.34112 10 6.75112V15.3611C10 16.6711 10.94 17.8611 12.24 17.9911C13.74 18.1411 15 16.9711 15 15.5011V5.17112C15 3.08112 13.47 1.22112 11.39 1.02112C9.01 0.791123 7 2.66112 7 5.00112V17.2711C7 20.1411 9.1 22.7111 11.96 22.9811C15.25 23.2811 18 20.7211 18 17.5011V6.75112C18 6.34112 17.66 6.00112 17.25 6.00112C16.84 6.00112 16.5 6.34112 16.5 6.75112Z" fill="black"/>
</g>
<defs>
<clipPath id="clip0_61_16736">
<rect width="24" height="24" fill="white" transform="translate(0 0.000976562)"/>
</clipPath>
</defs>
</svg>
