<svg viewBox="0 0 24 24" xmlns="http://www.w3.org/2000/svg">
<g clip-path="url(#clip0_61_16737)">
<path d="M11.8 10.901C9.53 10.311 8.8 9.70098 8.8 8.75098C8.8 7.66098 9.81 6.90098 11.5 6.90098C12.92 6.90098 13.63 7.44098 13.89 8.30098C14.01 8.70098 14.34 9.00098 14.76 9.00098H15.06C15.72 9.00098 16.19 8.35098 15.96 7.73098C15.54 6.55098 14.56 5.57098 13 5.19098V4.50098C13 3.67098 12.33 3.00098 11.5 3.00098C10.67 3.00098 10 3.67098 10 4.50098V5.16098C8.06 5.58098 6.5 6.84098 6.5 8.77098C6.5 11.081 8.41 12.231 11.2 12.901C13.7 13.501 14.2 14.381 14.2 15.311C14.2 16.001 13.71 17.101 11.5 17.101C9.85 17.101 9 16.511 8.67 15.671C8.52 15.281 8.18 15.001 7.77 15.001H7.49C6.82 15.001 6.35 15.681 6.6 16.301C7.17 17.691 8.5 18.511 10 18.831V19.501C10 20.331 10.67 21.001 11.5 21.001C12.33 21.001 13 20.331 13 19.501V18.851C14.95 18.481 16.5 17.351 16.5 15.301C16.5 12.461 14.07 11.491 11.8 10.901Z"/>
</g>
<defs>
<clipPath id="clip0_61_16737">
<rect transform="translate(0 0.000976562)"/>
</clipPath>
</defs>
</svg>
