<svg   viewBox="0 0 24 24" fill="none" xmlns="http://www.w3.org/2000/svg">
<g clip-path="url(#clip0_61_16738)">
<path d="M6.4 9.20098H6.6C7.37 9.20098 8 9.83098 8 10.601V17.601C8 18.371 7.37 19.001 6.6 19.001H6.4C5.63 19.001 5 18.371 5 17.601V10.601C5 9.83098 5.63 9.20098 6.4 9.20098V9.20098ZM12 5.00098C12.77 5.00098 13.4 5.63098 13.4 6.40098V17.601C13.4 18.371 12.77 19.001 12 19.001C11.23 19.001 10.6 18.371 10.6 17.601V6.40098C10.6 5.63098 11.23 5.00098 12 5.00098ZM17.6 13.001C18.37 13.001 19 13.631 19 14.401V17.601C19 18.371 18.37 19.001 17.6 19.001C16.83 19.001 16.2 18.371 16.2 17.601V14.401C16.2 13.631 16.83 13.001 17.6 13.001V13.001Z" fill="black"/>
</g>
<defs>
<clipPath id="clip0_61_16738">
<rect width="24" height="24" fill="white" transform="translate(0 0.000976562)"/>
</clipPath>
</defs>
</svg>
