<svg   viewBox="0 0 24 24" fill="none" xmlns="http://www.w3.org/2000/svg">
<g clip-path="url(#clip0_61_16740)">
<path d="M9 11.001H7V13.001H9V11.001ZM13 15.001H11V17.001H13V15.001ZM9 3.00098H7V5.00098H9V3.00098ZM13 11.001H11V13.001H13V11.001ZM5 3.00098H3V5.00098H5V3.00098ZM13 7.00098H11V9.00098H13V7.00098ZM17 11.001H15V13.001H17V11.001ZM13 3.00098H11V5.00098H13V3.00098ZM17 3.00098H15V5.00098H17V3.00098ZM19 13.001H21V11.001H19V13.001ZM19 17.001H21V15.001H19V17.001ZM5 7.00098H3V9.00098H5V7.00098ZM19 3.00098V5.00098H21V3.00098H19ZM19 9.00098H21V7.00098H19V9.00098ZM5 11.001H3V13.001H5V11.001ZM4 21.001H20C20.55 21.001 21 20.551 21 20.001C21 19.451 20.55 19.001 20 19.001H4C3.45 19.001 3 19.451 3 20.001C3 20.551 3.45 21.001 4 21.001ZM5 15.001H3V17.001H5V15.001Z" fill="black"/>
</g>
<defs>
<clipPath id="clip0_61_16740">
<rect width="24" height="24" fill="white" transform="translate(0 0.000976562)"/>
</clipPath>
</defs>
</svg>
