<svg viewBox="0 0 24 24" xmlns="http://www.w3.org/2000/svg">
<g clip-path="url(#clip0_61_16746)">
<path d="M7 21.001H9V19.001H7V21.001ZM3 5.00098H5V3.00098H3V5.00098ZM7 5.00098H9V3.00098H7V5.00098ZM7 13.001H9V11.001H7V13.001ZM3 21.001H5V19.001H3V21.001ZM11 21.001H13V19.001H11V21.001ZM3 13.001H5V11.001H3V13.001ZM3 17.001H5V15.001H3V17.001ZM3 9.00098H5V7.00098H3V9.00098ZM11 17.001H13V15.001H11V17.001ZM15 13.001H17V11.001H15V13.001ZM19 4.00098V20.001C19 20.551 19.45 21.001 20 21.001C20.55 21.001 21 20.551 21 20.001V4.00098C21 3.45098 20.55 3.00098 20 3.00098C19.45 3.00098 19 3.45098 19 4.00098ZM15 21.001H17V19.001H15V21.001ZM15 5.00098H17V3.00098H15V5.00098ZM11 13.001H13V11.001H11V13.001ZM11 5.00098H13V3.00098H11V5.00098ZM11 9.00098H13V7.00098H11V9.00098Z"/>
</g>
<defs>
<clipPath id="clip0_61_16746">
<rect transform="translate(0 0.000976562)"/>
</clipPath>
</defs>
</svg>
