<svg viewBox="0 0 24 24" xmlns="http://www.w3.org/2000/svg">
<g clip-path="url(#clip0_61_16744)">
<path d="M11 21.001H13V19.001H11V21.001ZM11 17.001H13V15.001H11V17.001ZM11 5.00098H13V3.00098H11V5.00098ZM11 9.00098H13V7.00098H11V9.00098ZM11 13.001H13V11.001H11V13.001ZM7 21.001H9V19.001H7V21.001ZM7 5.00098H9V3.00098H7V5.00098ZM7 13.001H9V11.001H7V13.001ZM4 21.001C4.55 21.001 5 20.551 5 20.001V4.00098C5 3.45098 4.55 3.00098 4 3.00098C3.45 3.00098 3 3.45098 3 4.00098V20.001C3 20.551 3.45 21.001 4 21.001ZM19 9.00098H21V7.00098H19V9.00098ZM15 21.001H17V19.001H15V21.001ZM19 17.001H21V15.001H19V17.001ZM19 3.00098V5.00098H21V3.00098H19ZM19 13.001H21V11.001H19V13.001ZM19 21.001H21V19.001H19V21.001ZM15 13.001H17V11.001H15V13.001ZM15 5.00098H17V3.00098H15V5.00098Z"/>
</g>
<defs>
<clipPath id="clip0_61_16744">
<rect transform="translate(0 0.000976562)"/>
</clipPath>
</defs>
</svg>
