<svg viewBox="0 0 24 24" xmlns="http://www.w3.org/2000/svg">
<g clip-path="url(#clip0_61_16743)">
<path d="M3 21.001H5V19.001H3V21.001ZM7 21.001H9V19.001H7V21.001ZM5 7.00098H3V9.00098H5V7.00098ZM3 17.001H5V15.001H3V17.001ZM9 3.00098H7V5.00098H9V3.00098ZM5 3.00098H3V5.00098H5V3.00098ZM17 3.00098H15V5.00098H17V3.00098ZM19 9.00098H21V7.00098H19V9.00098ZM19 3.00098V5.00098H21V3.00098H19ZM15 21.001H17V19.001H15V21.001ZM12 3.00098C11.45 3.00098 11 3.45098 11 4.00098V11.001H4C3.45 11.001 3 11.451 3 12.001C3 12.551 3.45 13.001 4 13.001H11V20.001C11 20.551 11.45 21.001 12 21.001C12.55 21.001 13 20.551 13 20.001V13.001H20C20.55 13.001 21 12.551 21 12.001C21 11.451 20.55 11.001 20 11.001H13V4.00098C13 3.45098 12.55 3.00098 12 3.00098ZM19 21.001H21V19.001H19V21.001ZM19 17.001H21V15.001H19V17.001Z"/>
</g>
<defs>
<clipPath id="clip0_61_16743">
<rect transform="translate(0 0.000976562)"/>
</clipPath>
</defs>
</svg>
