<svg viewBox="0 0 24 24" xmlns="http://www.w3.org/2000/svg">
<g clip-path="url(#clip0_61_16745)">
<path d="M13 7.00098H11V9.00098H13V7.00098ZM13 11.001H11V13.001H13V11.001ZM17 11.001H15V13.001H17V11.001ZM3 5.00098V19.001C3 20.101 3.9 21.001 5 21.001H19C20.1 21.001 21 20.101 21 19.001V5.00098C21 3.90098 20.1 3.00098 19 3.00098H5C3.9 3.00098 3 3.90098 3 5.00098ZM18 19.001H6C5.45 19.001 5 18.551 5 18.001V6.00098C5 5.45098 5.45 5.00098 6 5.00098H18C18.55 5.00098 19 5.45098 19 6.00098V18.001C19 18.551 18.55 19.001 18 19.001ZM13 15.001H11V17.001H13V15.001ZM9 11.001H7V13.001H9V11.001Z"/>
</g>
<defs>
<clipPath id="clip0_61_16745">
<rect transform="translate(0 0.000976562)"/>
</clipPath>
</defs>
</svg>
