<svg viewBox="0 0 24 24" xmlns="http://www.w3.org/2000/svg">
<g clip-path="url(#clip0_61_16748)">
<path d="M7 21.001H9V19.001H7V21.001ZM7 13.001H9V11.001H7V13.001ZM11 13.001H13V11.001H11V13.001ZM11 21.001H13V19.001H11V21.001ZM3 17.001H5V15.001H3V17.001ZM3 21.001H5V19.001H3V21.001ZM3 13.001H5V11.001H3V13.001ZM3 9.00098H5V7.00098H3V9.00098ZM11 17.001H13V15.001H11V17.001ZM19 9.00098H21V7.00098H19V9.00098ZM19 13.001H21V11.001H19V13.001ZM3 4.00098C3 4.55098 3.45 5.00098 4 5.00098H20C20.55 5.00098 21 4.55098 21 4.00098C21 3.45098 20.55 3.00098 20 3.00098H4C3.45 3.00098 3 3.45098 3 4.00098ZM19 17.001H21V15.001H19V17.001ZM15 21.001H17V19.001H15V21.001ZM11 9.00098H13V7.00098H11V9.00098ZM19 21.001H21V19.001H19V21.001ZM15 13.001H17V11.001H15V13.001Z"/>
</g>
<defs>
<clipPath id="clip0_61_16748">
<rect transform="translate(0 0.000976562)"/>
</clipPath>
</defs>
</svg>
