<svg viewBox="0 0 24 24" xmlns="http://www.w3.org/2000/svg">
<g clip-path="url(#clip0_61_16739)">
<path d="M3 5.00098V19.001C3 20.101 3.9 21.001 5 21.001H19C20.1 21.001 21 20.101 21 19.001V5.00098C21 3.90098 20.1 3.00098 19 3.00098H5C3.9 3.00098 3 3.90098 3 5.00098ZM11 19.001H6C5.45 19.001 5 18.551 5 18.001V13.001H10C10.55 13.001 11 13.451 11 14.001V19.001ZM10 11.001H5V6.00098C5 5.45098 5.45 5.00098 6 5.00098H11V10.001C11 10.551 10.55 11.001 10 11.001ZM18 19.001H13V14.001C13 13.451 13.45 13.001 14 13.001H19V18.001C19 18.551 18.55 19.001 18 19.001ZM19 11.001H14C13.45 11.001 13 10.551 13 10.001V5.00098H18C18.55 5.00098 19 5.45098 19 6.00098V11.001Z"/>
</g>
<defs>
<clipPath id="clip0_61_16739">
<rect transform="translate(0 0.000976562)"/>
</clipPath>
</defs>
</svg>
