<svg viewBox="0 0 24 24" xmlns="http://www.w3.org/2000/svg">
<g clip-path="url(#clip0_61_16747)">
<path d="M15 21.001H17V19.001H15V21.001ZM19 21.001H21V19.001H19V21.001ZM7 21.001H9V19.001H7V21.001ZM11 21.001H13V19.001H11V21.001ZM19 17.001H21V15.001H19V17.001ZM19 13.001H21V11.001H19V13.001ZM3 5.00098V20.001C3 20.551 3.45 21.001 4 21.001C4.55 21.001 5 20.551 5 20.001V6.00098C5 5.45098 5.45 5.00098 6 5.00098H20C20.55 5.00098 21 4.55098 21 4.00098C21 3.45098 20.55 3.00098 20 3.00098H5C3.9 3.00098 3 3.90098 3 5.00098ZM19 9.00098H21V7.00098H19V9.00098Z"/>
</g>
<defs>
<clipPath id="clip0_61_16747">
<rect transform="translate(0 0.000976562)"/>
</clipPath>
</defs>
</svg>
