<svg   viewBox="0 0 24 24" fill="none" xmlns="http://www.w3.org/2000/svg">
<g clip-path="url(#clip0_61_16750)">
<path d="M7.2 17.6012C8.96731 17.6012 10.4 16.1685 10.4 14.4012C10.4 12.6339 8.96731 11.2012 7.2 11.2012C5.43269 11.2012 4 12.6339 4 14.4012C4 16.1685 5.43269 17.6012 7.2 17.6012Z" fill="black"/>
<path d="M14.7969 20.001C15.9014 20.001 16.7969 19.1055 16.7969 18.001C16.7969 16.8964 15.9014 16.001 14.7969 16.001C13.6923 16.001 12.7969 16.8964 12.7969 18.001C12.7969 19.1055 13.6923 20.001 14.7969 20.001Z" fill="black"/>
<path d="M15.1984 13.601C17.8494 13.601 19.9984 11.4519 19.9984 8.80098C19.9984 6.15001 17.8494 4.00098 15.1984 4.00098C12.5475 4.00098 10.3984 6.15001 10.3984 8.80098C10.3984 11.4519 12.5475 13.601 15.1984 13.601Z" fill="black"/>
</g>
<defs>
<clipPath id="clip0_61_16750">
<rect width="24" height="24" fill="white" transform="translate(0 0.000976562)"/>
</clipPath>
</defs>
</svg>
