<svg   viewBox="0 0 24 24" fill="none" xmlns="http://www.w3.org/2000/svg">
<g clip-path="url(#clip0_61_16751)">
<path d="M19 9.00098H5C4.45 9.00098 4 9.45098 4 10.001C4 10.551 4.45 11.001 5 11.001H19C19.55 11.001 20 10.551 20 10.001C20 9.45098 19.55 9.00098 19 9.00098ZM5 15.001H19C19.55 15.001 20 14.551 20 14.001C20 13.451 19.55 13.001 19 13.001H5C4.45 13.001 4 13.451 4 14.001C4 14.551 4.45 15.001 5 15.001Z" fill="black"/>
</g>
<defs>
<clipPath id="clip0_61_16751">
<rect width="24" height="24" fill="white" transform="translate(0 0.000976562)"/>
</clipPath>
</defs>
</svg>
