<svg   viewBox="0 0 24 24" fill="none" xmlns="http://www.w3.org/2000/svg">
<g clip-path="url(#clip0_61_16768)">
<path d="M23 6.00098V2.00098C23 1.45098 22.55 1.00098 22 1.00098H18C17.45 1.00098 17 1.45098 17 2.00098V3.00098H7V2.00098C7 1.45098 6.55 1.00098 6 1.00098H2C1.45 1.00098 1 1.45098 1 2.00098V6.00098C1 6.55098 1.45 7.00098 2 7.00098H3V17.001H2C1.45 17.001 1 17.451 1 18.001V22.001C1 22.551 1.45 23.001 2 23.001H6C6.55 23.001 7 22.551 7 22.001V21.001H17V22.001C17 22.551 17.45 23.001 18 23.001H22C22.55 23.001 23 22.551 23 22.001V18.001C23 17.451 22.55 17.001 22 17.001H21V7.00098H22C22.55 7.00098 23 6.55098 23 6.00098ZM3 3.00098H5V5.00098H3V3.00098ZM5 21.001H3V19.001H5V21.001ZM17 19.001H7V18.001C7 17.451 6.55 17.001 6 17.001H5V7.00098H6C6.55 7.00098 7 6.55098 7 6.00098V5.00098H17V6.00098C17 6.55098 17.45 7.00098 18 7.00098H19V17.001H18C17.45 17.001 17 17.451 17 18.001V19.001ZM21 21.001H19V19.001H21V21.001ZM19 5.00098V3.00098H21V5.00098H19ZM12.94 7.65098C12.79 7.26098 12.41 7.00098 11.99 7.00098C11.57 7.00098 11.19 7.26098 11.05 7.65098L8.28 14.981C8.09 15.471 8.45 16.001 8.98 16.001C9.3 16.001 9.58 15.801 9.69 15.501L10.24 14.001H13.73L14.29 15.511C14.4 15.801 14.68 16.001 15 16.001H15.01C15.54 16.001 15.9 15.471 15.72 14.981L12.94 7.65098V7.65098ZM10.69 12.741L12 8.91098L13.3 12.741H10.69Z" fill="black"/>
</g>
<defs>
<clipPath id="clip0_61_16768">
<rect width="24" height="24" fill="white" transform="translate(0 0.000976562)"/>
</clipPath>
</defs>
</svg>
