<svg   viewBox="0 0 24 24" fill="none" xmlns="http://www.w3.org/2000/svg">
<g clip-path="url(#clip0_61_16767)">
<path d="M7.17 17.001C7.68 17.001 8.15 16.711 8.37 16.261L9.79 13.421C9.93 13.141 10 12.841 10 12.531V8.00098C10 7.45098 9.55 7.00098 9 7.00098H5C4.45 7.00098 4 7.45098 4 8.00098V12.001C4 12.551 4.45 13.001 5 13.001H7L5.97 15.061C5.52 15.951 6.17 17.001 7.17 17.001ZM17.17 17.001C17.68 17.001 18.15 16.711 18.37 16.261L19.79 13.421C19.93 13.141 20 12.841 20 12.531V8.00098C20 7.45098 19.55 7.00098 19 7.00098H15C14.45 7.00098 14 7.45098 14 8.00098V12.001C14 12.551 14.45 13.001 15 13.001H17L15.97 15.061C15.52 15.951 16.17 17.001 17.17 17.001Z" fill="black"/>
</g>
<defs>
<clipPath id="clip0_61_16767">
<rect width="24" height="24" fill="white" transform="translate(0 0.000976562)"/>
</clipPath>
</defs>
</svg>
