<svg viewBox="0 0 24 24" xmlns="http://www.w3.org/2000/svg">
<g clip-path="url(#clip0_61_16765)">
<path d="M20.5 16.001H18.5C18.22 16.001 18 16.221 18 16.501C18 16.781 18.22 17.001 18.5 17.001H20V17.501H19.5C19.22 17.501 19 17.721 19 18.001C19 18.281 19.22 18.501 19.5 18.501H20V19.001H18.5C18.22 19.001 18 19.221 18 19.501C18 19.781 18.22 20.001 18.5 20.001H20.5C20.78 20.001 21 19.781 21 19.501V16.501C21 16.221 20.78 16.001 20.5 16.001ZM18.5 5.00098H19V7.50098C19 7.78098 19.22 8.00098 19.5 8.00098C19.78 8.00098 20 7.78098 20 7.50098V4.50098C20 4.22098 19.78 4.00098 19.5 4.00098H18.5C18.22 4.00098 18 4.22098 18 4.50098C18 4.78098 18.22 5.00098 18.5 5.00098ZM21 10.721V10.501C21 10.221 20.78 10.001 20.5 10.001H18.5C18.22 10.001 18 10.221 18 10.501C18 10.781 18.22 11.001 18.5 11.001H19.8L18.12 12.961C18.04 13.051 18 13.171 18 13.281V13.501C18 13.781 18.22 14.001 18.5 14.001H20.5C20.78 14.001 21 13.781 21 13.501C21 13.221 20.78 13.001 20.5 13.001H19.2L20.88 11.041C20.96 10.951 21 10.831 21 10.721ZM15 5.00098H3C2.45 5.00098 2 5.45098 2 6.00098C2 6.55098 2.45 7.00098 3 7.00098H15C15.55 7.00098 16 6.55098 16 6.00098C16 5.45098 15.55 5.00098 15 5.00098ZM15 17.001H3C2.45 17.001 2 17.451 2 18.001C2 18.551 2.45 19.001 3 19.001H15C15.55 19.001 16 18.551 16 18.001C16 17.451 15.55 17.001 15 17.001ZM15 11.001H3C2.45 11.001 2 11.451 2 12.001C2 12.551 2.45 13.001 3 13.001H15C15.55 13.001 16 12.551 16 12.001C16 11.451 15.55 11.001 15 11.001Z"/>
</g>
<defs>
<clipPath id="clip0_61_16765">
<rect transform="translate(0 0.000976562)"/>
</clipPath>
</defs>
</svg>
