<svg   viewBox="0 0 24 24" fill="none" xmlns="http://www.w3.org/2000/svg">
<g clip-path="url(#clip0_61_16756)">
<path d="M15.6 10.791C16.57 10.121 17.25 9.02098 17.25 8.00098C17.25 5.74098 15.5 4.00098 13.25 4.00098H8C7.45 4.00098 7 4.45098 7 5.00098V17.001C7 17.551 7.45 18.001 8 18.001H13.78C15.85 18.001 17.74 16.311 17.75 14.231C17.76 12.701 16.9 11.391 15.6 10.791V10.791ZM10 6.50098H13C13.83 6.50098 14.5 7.17098 14.5 8.00098C14.5 8.83098 13.83 9.50098 13 9.50098H10V6.50098ZM13.5 15.501H10V12.501H13.5C14.33 12.501 15 13.171 15 14.001C15 14.831 14.33 15.501 13.5 15.501Z" fill="black"/>
</g>
<defs>
<clipPath id="clip0_61_16756">
<rect width="24" height="24" fill="white" transform="translate(0 0.000976562)"/>
</clipPath>
</defs>
</svg>
