<svg viewBox="0 0 24 24" xmlns="http://www.w3.org/2000/svg">
<g clip-path="url(#clip0_61_16761)">
<path d="M10 5.50098C10 6.33098 10.67 7.00098 11.5 7.00098H12.21L8.79 15.001H7.5C6.67 15.001 6 15.671 6 16.501C6 17.331 6.67 18.001 7.5 18.001H12.5C13.33 18.001 14 17.331 14 16.501C14 15.671 13.33 15.001 12.5 15.001H11.79L15.21 7.00098H16.5C17.33 7.00098 18 6.33098 18 5.50098C18 4.67098 17.33 4.00098 16.5 4.00098H11.5C10.67 4.00098 10 4.67098 10 5.50098Z"/>
</g>
<defs>
<clipPath id="clip0_61_16761">
<rect transform="translate(0 0.000976562)"/>
</clipPath>
</defs>
</svg>
