<svg viewBox="0 0 24 24" xmlns="http://www.w3.org/2000/svg">
<g clip-path="url(#clip0_61_16769)">
<path d="M9 5.50098C9 6.33098 9.67 7.00098 10.5 7.00098H14V17.501C14 18.331 14.67 19.001 15.5 19.001C16.33 19.001 17 18.331 17 17.501V7.00098H20.5C21.33 7.00098 22 6.33098 22 5.50098C22 4.67098 21.33 4.00098 20.5 4.00098H10.5C9.67 4.00098 9 4.67098 9 5.50098ZM4.5 12.001H6V17.501C6 18.331 6.67 19.001 7.5 19.001C8.33 19.001 9 18.331 9 17.501V12.001H10.5C11.33 12.001 12 11.331 12 10.501C12 9.67098 11.33 9.00098 10.5 9.00098H4.5C3.67 9.00098 3 9.67098 3 10.501C3 11.331 3.67 12.001 4.5 12.001Z"/>
</g>
<defs>
<clipPath id="clip0_61_16769">
<rect transform="translate(0 0.000976562)"/>
</clipPath>
</defs>
</svg>
