<svg viewBox="0 0 24 24" xmlns="http://www.w3.org/2000/svg">
<g clip-path="url(#clip0_61_16762)">
<path d="M7.28774 7.00117C7.73774 7.00117 7.95774 6.46117 7.63774 6.15117L5.34774 3.85117C5.14774 3.65117 4.83774 3.65117 4.63774 3.85117L2.34774 6.15117C2.03774 6.46117 2.25774 7.00117 2.70774 7.00117H3.99774V17.0012H2.70774C2.25774 17.0012 2.03774 17.5412 2.35774 17.8512L4.64774 20.1412C4.84774 20.3412 5.15774 20.3412 5.35774 20.1412L7.64774 17.8512C7.95774 17.5412 7.73774 17.0012 7.28774 17.0012H5.99774V7.00117H7.28774ZM10.9977 7.00117H20.9977C21.5477 7.00117 21.9977 6.55117 21.9977 6.00117C21.9977 5.45117 21.5477 5.00117 20.9977 5.00117H10.9977C10.4477 5.00117 9.99774 5.45117 9.99774 6.00117C9.99774 6.55117 10.4477 7.00117 10.9977 7.00117ZM20.9977 17.0012H10.9977C10.4477 17.0012 9.99774 17.4512 9.99774 18.0012C9.99774 18.5512 10.4477 19.0012 10.9977 19.0012H20.9977C21.5477 19.0012 21.9977 18.5512 21.9977 18.0012C21.9977 17.4512 21.5477 17.0012 20.9977 17.0012ZM20.9977 11.0012H10.9977C10.4477 11.0012 9.99774 11.4512 9.99774 12.0012C9.99774 12.5512 10.4477 13.0012 10.9977 13.0012H20.9977C21.5477 13.0012 21.9977 12.5512 21.9977 12.0012C21.9977 11.4512 21.5477 11.0012 20.9977 11.0012Z"/>
</g>
<defs>
<clipPath id="clip0_61_16762">
<rect transform="translate(0 0.000976562)"/>
</clipPath>
</defs>
</svg>
