<svg   viewBox="0 0 24 24" fill="none" xmlns="http://www.w3.org/2000/svg">
<g clip-path="url(#clip0_61_16752)">
<path d="M7 16.001C7 16.551 7.45 17.001 8 17.001H16C16.55 17.001 17 16.551 17 16.001C17 15.451 16.55 15.001 16 15.001H8C7.45 15.001 7 15.451 7 16.001ZM4 21.001H20C20.55 21.001 21 20.551 21 20.001C21 19.451 20.55 19.001 20 19.001H4C3.45 19.001 3 19.451 3 20.001C3 20.551 3.45 21.001 4 21.001ZM4 13.001H20C20.55 13.001 21 12.551 21 12.001C21 11.451 20.55 11.001 20 11.001H4C3.45 11.001 3 11.451 3 12.001C3 12.551 3.45 13.001 4 13.001ZM7 8.00098C7 8.55098 7.45 9.00098 8 9.00098H16C16.55 9.00098 17 8.55098 17 8.00098C17 7.45098 16.55 7.00098 16 7.00098H8C7.45 7.00098 7 7.45098 7 8.00098ZM3 4.00098C3 4.55098 3.45 5.00098 4 5.00098H20C20.55 5.00098 21 4.55098 21 4.00098C21 3.45098 20.55 3.00098 20 3.00098H4C3.45 3.00098 3 3.45098 3 4.00098Z" fill="black"/>
</g>
<defs>
<clipPath id="clip0_61_16752">
<rect width="24" height="24" fill="white" transform="translate(0 0.000976562)"/>
</clipPath>
</defs>
</svg>
