<svg viewBox="0 0 24 24" xmlns="http://www.w3.org/2000/svg">
<g clip-path="url(#clip0_61_16758)">
<path d="M17.9966 14.0012C17.9966 10.9112 14.3966 6.12117 12.7666 4.13117C12.3666 3.64117 11.6166 3.64117 11.2166 4.13117C10.7566 4.70117 10.1366 5.49117 9.48656 6.40117L17.9266 14.8412C17.9666 14.5612 17.9966 14.2812 17.9966 14.0012ZM19.2866 19.0112L6.11656 5.84117C5.72656 5.45117 5.09656 5.45117 4.70656 5.84117C4.31656 6.23117 4.31656 6.86117 4.70656 7.25117L7.31656 9.86117C6.54656 11.3312 5.99656 12.7912 5.99656 14.0012C5.99656 17.3112 8.68656 20.0012 11.9966 20.0012C13.5166 20.0012 14.8966 19.4312 15.9466 18.5012L17.8666 20.4212C18.2566 20.8112 18.8866 20.8112 19.2766 20.4212C19.6766 20.0412 19.6766 19.4012 19.2866 19.0112V19.0112Z"/>
</g>
<defs>
<clipPath id="clip0_61_16758">
<rect transform="translate(0 0.000976562)"/>
</clipPath>
</defs>
</svg>
