<svg   viewBox="0 0 24 24" fill="none" xmlns="http://www.w3.org/2000/svg">
<g clip-path="url(#clip0_61_16773)">
<path d="M12.79 16.951C15.82 16.561 18 13.841 18 10.791V4.25098C18 3.56098 17.44 3.00098 16.75 3.00098C16.06 3.00098 15.5 3.56098 15.5 4.25098V10.901C15.5 12.571 14.37 14.091 12.73 14.421C10.48 14.891 8.5 13.171 8.5 11.001V4.25098C8.5 3.56098 7.94 3.00098 7.25 3.00098C6.56 3.00098 6 3.56098 6 4.25098V11.001C6 14.571 9.13 17.421 12.79 16.951ZM5 20.001C5 20.551 5.45 21.001 6 21.001H18C18.55 21.001 19 20.551 19 20.001C19 19.451 18.55 19.001 18 19.001H6C5.45 19.001 5 19.451 5 20.001Z" fill="black"/>
</g>
<defs>
<clipPath id="clip0_61_16773">
<rect width="24" height="24" fill="white" transform="translate(0 0.000976562)"/>
</clipPath>
</defs>
</svg>
