<svg   viewBox="0 0 24 24" fill="none" xmlns="http://www.w3.org/2000/svg">
<g clip-path="url(#clip0_61_16764)">
<path d="M8 7.00098H20C20.55 7.00098 21 6.55098 21 6.00098C21 5.45098 20.55 5.00098 20 5.00098H8C7.45 5.00098 7 5.45098 7 6.00098C7 6.55098 7.45 7.00098 8 7.00098ZM20 17.001H8C7.45 17.001 7 17.451 7 18.001C7 18.551 7.45 19.001 8 19.001H20C20.55 19.001 21 18.551 21 18.001C21 17.451 20.55 17.001 20 17.001ZM20 11.001H8C7.45 11.001 7 11.451 7 12.001C7 12.551 7.45 13.001 8 13.001H20C20.55 13.001 21 12.551 21 12.001C21 11.451 20.55 11.001 20 11.001ZM4.5 16.001H2.5C2.22 16.001 2 16.221 2 16.501C2 16.781 2.22 17.001 2.5 17.001H4V17.501H3.5C3.22 17.501 3 17.721 3 18.001C3 18.281 3.22 18.501 3.5 18.501H4V19.001H2.5C2.22 19.001 2 19.221 2 19.501C2 19.781 2.22 20.001 2.5 20.001H4.5C4.78 20.001 5 19.781 5 19.501V16.501C5 16.221 4.78 16.001 4.5 16.001ZM2.5 5.00098H3V7.50098C3 7.78098 3.22 8.00098 3.5 8.00098C3.78 8.00098 4 7.78098 4 7.50098V4.50098C4 4.22098 3.78 4.00098 3.5 4.00098H2.5C2.22 4.00098 2 4.22098 2 4.50098C2 4.78098 2.22 5.00098 2.5 5.00098ZM4.5 10.001H2.5C2.22 10.001 2 10.221 2 10.501C2 10.781 2.22 11.001 2.5 11.001H3.8L2.12 12.961C2.04 13.051 2 13.171 2 13.281V13.501C2 13.781 2.22 14.001 2.5 14.001H4.5C4.78 14.001 5 13.781 5 13.501C5 13.221 4.78 13.001 4.5 13.001H3.2L4.88 11.041C4.96 10.951 5 10.831 5 10.721V10.501C5 10.221 4.78 10.001 4.5 10.001V10.001Z" fill="black"/>
</g>
<defs>
<clipPath id="clip0_61_16764">
<rect width="24" height="24" fill="white" transform="translate(0 0.000976562)"/>
</clipPath>
</defs>
</svg>
