<svg   viewBox="0 0 24 24" fill="none" xmlns="http://www.w3.org/2000/svg">
<g clip-path="url(#clip0_61_16754)">
<path d="M14 15.001H4C3.45 15.001 3 15.451 3 16.001C3 16.551 3.45 17.001 4 17.001H14C14.55 17.001 15 16.551 15 16.001C15 15.451 14.55 15.001 14 15.001ZM14 7.00098H4C3.45 7.00098 3 7.45098 3 8.00098C3 8.55098 3.45 9.00098 4 9.00098H14C14.55 9.00098 15 8.55098 15 8.00098C15 7.45098 14.55 7.00098 14 7.00098ZM4 13.001H20C20.55 13.001 21 12.551 21 12.001C21 11.451 20.55 11.001 20 11.001H4C3.45 11.001 3 11.451 3 12.001C3 12.551 3.45 13.001 4 13.001ZM4 21.001H20C20.55 21.001 21 20.551 21 20.001C21 19.451 20.55 19.001 20 19.001H4C3.45 19.001 3 19.451 3 20.001C3 20.551 3.45 21.001 4 21.001ZM3 4.00098C3 4.55098 3.45 5.00098 4 5.00098H20C20.55 5.00098 21 4.55098 21 4.00098C21 3.45098 20.55 3.00098 20 3.00098H4C3.45 3.00098 3 3.45098 3 4.00098Z" fill="black"/>
</g>
<defs>
<clipPath id="clip0_61_16754">
<rect width="24" height="24" fill="white" transform="translate(0 0.000976562)"/>
</clipPath>
</defs>
</svg>
