<svg   viewBox="0 0 24 24" fill="none" xmlns="http://www.w3.org/2000/svg">
<g clip-path="url(#clip0_61_16763)">
<path d="M4 10.501C3.17 10.501 2.5 11.171 2.5 12.001C2.5 12.831 3.17 13.501 4 13.501C4.83 13.501 5.5 12.831 5.5 12.001C5.5 11.171 4.83 10.501 4 10.501ZM4 4.50098C3.17 4.50098 2.5 5.17098 2.5 6.00098C2.5 6.83098 3.17 7.50098 4 7.50098C4.83 7.50098 5.5 6.83098 5.5 6.00098C5.5 5.17098 4.83 4.50098 4 4.50098ZM4 16.501C3.17 16.501 2.5 17.181 2.5 18.001C2.5 18.821 3.18 19.501 4 19.501C4.82 19.501 5.5 18.821 5.5 18.001C5.5 17.181 4.83 16.501 4 16.501ZM8 19.001H20C20.55 19.001 21 18.551 21 18.001C21 17.451 20.55 17.001 20 17.001H8C7.45 17.001 7 17.451 7 18.001C7 18.551 7.45 19.001 8 19.001ZM8 13.001H20C20.55 13.001 21 12.551 21 12.001C21 11.451 20.55 11.001 20 11.001H8C7.45 11.001 7 11.451 7 12.001C7 12.551 7.45 13.001 8 13.001ZM7 6.00098C7 6.55098 7.45 7.00098 8 7.00098H20C20.55 7.00098 21 6.55098 21 6.00098C21 5.45098 20.55 5.00098 20 5.00098H8C7.45 5.00098 7 5.45098 7 6.00098Z" fill="black"/>
</g>
<defs>
<clipPath id="clip0_61_16763">
<rect width="24" height="24" fill="white" transform="translate(0 0.000976562)"/>
</clipPath>
</defs>
</svg>
