<svg   viewBox="0 0 24 24" fill="none" xmlns="http://www.w3.org/2000/svg">
<g clip-path="url(#clip0_61_16770)">
<path d="M12 19.001C13.1 19.001 14 18.101 14 17.001V16.001H10V17.001C10 18.101 10.9 19.001 12 19.001ZM5 5.50098C5 6.33098 5.67 7.00098 6.5 7.00098H10V10.001H14V7.00098H17.5C18.33 7.00098 19 6.33098 19 5.50098C19 4.67098 18.33 4.00098 17.5 4.00098H6.5C5.67 4.00098 5 4.67098 5 5.50098ZM4 14.001H20C20.55 14.001 21 13.551 21 13.001C21 12.451 20.55 12.001 20 12.001H4C3.45 12.001 3 12.451 3 13.001C3 13.551 3.45 14.001 4 14.001Z" fill="black"/>
</g>
<defs>
<clipPath id="clip0_61_16770">
<rect width="24" height="24" fill="white" transform="translate(0 0.000976562)"/>
</clipPath>
</defs>
</svg>
