<svg viewBox="0 0 24 24" xmlns="http://www.w3.org/2000/svg">
<g clip-path="url(#clip0_61_16772)">
<path d="M10.0009 10.001V14.001C10.0009 14.551 10.4509 15.001 11.0009 15.001C11.5509 15.001 12.0009 14.551 12.0009 14.001V4.00098H14.0009V14.001C14.0009 14.551 14.4509 15.001 15.0009 15.001C15.5509 15.001 16.0009 14.551 16.0009 14.001V4.00098H17.0009C17.5509 4.00098 18.0009 3.55098 18.0009 3.00098C18.0009 2.45098 17.5509 2.00098 17.0009 2.00098H10.1709C8.08094 2.00098 6.22094 3.53098 6.02094 5.61098C5.79094 7.99098 7.66094 10.001 10.0009 10.001ZM8.00094 17.001V15.211C8.00094 14.761 7.46094 14.541 7.15094 14.861L4.36094 17.651C4.16094 17.851 4.16094 18.161 4.36094 18.361L7.15094 21.151C7.46094 21.461 8.00094 21.241 8.00094 20.791V19.001H19.0009C19.5509 19.001 20.0009 18.551 20.0009 18.001C20.0009 17.451 19.5509 17.001 19.0009 17.001H8.00094Z"/>
</g>
<defs>
<clipPath id="clip0_61_16772">
<rect transform="translate(0 0.000976562)"/>
</clipPath>
</defs>
</svg>
