<svg viewBox="0 0 24 24" xmlns="http://www.w3.org/2000/svg">
<g clip-path="url(#clip0_61_16771)">
<path d="M9 10.001V14.001C9 14.551 9.45 15.001 10 15.001C10.55 15.001 11 14.551 11 14.001V4.00098H13V14.001C13 14.551 13.45 15.001 14 15.001C14.55 15.001 15 14.551 15 14.001V4.00098H16C16.55 4.00098 17 3.55098 17 3.00098C17 2.45098 16.55 2.00098 16 2.00098H9.17C7.08 2.00098 5.22 3.53098 5.02 5.61098C4.79 7.99098 6.66 10.001 9 10.001ZM20.65 17.651L17.86 14.861C17.54 14.541 17 14.761 17 15.211V17.001H6C5.45 17.001 5 17.451 5 18.001C5 18.551 5.45 19.001 6 19.001H17V20.791C17 21.241 17.54 21.461 17.85 21.141L20.64 18.351C20.84 18.161 20.84 17.841 20.65 17.651V17.651Z"/>
</g>
<defs>
<clipPath id="clip0_61_16771">
<rect transform="translate(0 0.000976562)"/>
</clipPath>
</defs>
</svg>
