<svg viewBox="0 0 24 24" xmlns="http://www.w3.org/2000/svg">
<g clip-path="url(#clip0_61_16766)">
<path d="M18 4.00098V3.00098C18 2.45098 17.55 2.00098 17 2.00098H5C4.45 2.00098 4 2.45098 4 3.00098V7.00098C4 7.55098 4.45 8.00098 5 8.00098H17C17.55 8.00098 18 7.55098 18 7.00098V6.00098H19V10.001H10C9.45 10.001 9 10.451 9 11.001V21.001C9 21.551 9.45 22.001 10 22.001H12C12.55 22.001 13 21.551 13 21.001V12.001H20C20.55 12.001 21 11.551 21 11.001V5.00098C21 4.45098 20.55 4.00098 20 4.00098H18Z"/>
</g>
<defs>
<clipPath id="clip0_61_16766">
<rect transform="translate(0 0.000976562)"/>
</clipPath>
</defs>
</svg>
