<svg viewBox="0 0 24 24" xmlns="http://www.w3.org/2000/svg">
<g clip-path="url(#clip0_61_16759)">
<path d="M12 17.001H20C20.55 17.001 21 16.551 21 16.001C21 15.451 20.55 15.001 20 15.001H12C11.45 15.001 11 15.451 11 16.001C11 16.551 11.45 17.001 12 17.001ZM3.35 12.351L6.14 15.141C6.46 15.461 7 15.241 7 14.791V9.21098C7 8.76098 6.46 8.54098 6.15 8.86098L3.36 11.651C3.16 11.841 3.16 12.161 3.35 12.351V12.351ZM4 21.001H20C20.55 21.001 21 20.551 21 20.001C21 19.451 20.55 19.001 20 19.001H4C3.45 19.001 3 19.451 3 20.001C3 20.551 3.45 21.001 4 21.001ZM3 4.00098C3 4.55098 3.45 5.00098 4 5.00098H20C20.55 5.00098 21 4.55098 21 4.00098C21 3.45098 20.55 3.00098 20 3.00098H4C3.45 3.00098 3 3.45098 3 4.00098ZM12 9.00098H20C20.55 9.00098 21 8.55098 21 8.00098C21 7.45098 20.55 7.00098 20 7.00098H12C11.45 7.00098 11 7.45098 11 8.00098C11 8.55098 11.45 9.00098 12 9.00098ZM12 13.001H20C20.55 13.001 21 12.551 21 12.001C21 11.451 20.55 11.001 20 11.001H12C11.45 11.001 11 11.451 11 12.001C11 12.551 11.45 13.001 12 13.001Z"/>
</g>
<defs>
<clipPath id="clip0_61_16759">
<rect transform="translate(0 0.000976562)"/>
</clipPath>
</defs>
</svg>
