<svg   viewBox="0 0 24 24" fill="none" xmlns="http://www.w3.org/2000/svg">
<g clip-path="url(#clip0_61_16757)">
<path d="M18.4966 8.00098C19.3266 8.00098 19.9966 7.33098 19.9966 6.50098C19.9966 5.67098 19.3266 5.00098 18.4966 5.00098H6.38656L9.38656 8.00098H11.2166L10.6666 9.28098L12.7566 11.371L14.2066 8.00098H18.4966ZM17.4366 18.881L4.11656 5.56098C3.72656 5.17098 3.09656 5.17098 2.70656 5.56098C2.31656 5.95098 2.31656 6.58098 2.70656 6.97098L8.96656 13.231L7.31656 17.071C6.92656 17.991 7.59656 19.001 8.58656 19.001C9.13656 19.001 9.63656 18.671 9.85656 18.161L11.0666 15.331L16.0166 20.281C16.4066 20.671 17.0366 20.671 17.4266 20.281C17.8266 19.901 17.8266 19.271 17.4366 18.881V18.881Z" fill="black"/>
</g>
<defs>
<clipPath id="clip0_61_16757">
<rect width="24" height="24" fill="white" transform="translate(0 0.000976562)"/>
</clipPath>
</defs>
</svg>
