<svg   viewBox="0 0 24 24" fill="none" xmlns="http://www.w3.org/2000/svg">
<g clip-path="url(#clip0_61_16774)">
<path d="M16.5 4.00098H7.56C6.7 4.00098 6 4.70098 6 5.56098C6 5.84098 6.12 6.11098 6.32 6.30098L12.5 12.001L6.32 17.701C6.12 17.891 6 18.161 6 18.441C6 19.301 6.7 20.001 7.56 20.001H16.5C17.33 20.001 18 19.331 18 18.501C18 17.671 17.33 17.001 16.5 17.001H11L14.59 13.411C15.37 12.631 15.37 11.361 14.59 10.581L11 7.00098H16.5C17.33 7.00098 18 6.33098 18 5.50098C18 4.67098 17.33 4.00098 16.5 4.00098Z" fill="black"/>
</g>
<defs>
<clipPath id="clip0_61_16774">
<rect width="24" height="24" fill="white" transform="translate(0 0.000976562)"/>
</clipPath>
</defs>
</svg>
