<svg   viewBox="0 0 24 24" fill="none" xmlns="http://www.w3.org/2000/svg">
<g clip-path="url(#clip0_61_16776)">
<path d="M6.28656 14.291L8.99656 17.001V21.001C8.99656 21.551 9.44656 22.001 9.99656 22.001H13.9966C14.5466 22.001 14.9966 21.551 14.9966 21.001V17.001L17.7066 14.291C17.8966 14.101 17.9966 13.851 17.9966 13.581V10.001C17.9966 9.45098 17.5466 9.00098 16.9966 9.00098H6.99656C6.44656 9.00098 5.99656 9.45098 5.99656 10.001V13.591C5.99656 13.851 6.10656 14.111 6.28656 14.291ZM11.9966 2.00098C12.5466 2.00098 12.9966 2.45098 12.9966 3.00098V4.00098C12.9966 4.55098 12.5466 5.00098 11.9966 5.00098C11.4466 5.00098 10.9966 4.55098 10.9966 4.00098V3.00098C10.9966 2.45098 11.4466 2.00098 11.9966 2.00098ZM4.20656 5.17098C4.59656 4.78098 5.22656 4.78098 5.62656 5.17098L6.33656 5.88098C6.72656 6.27098 6.72656 6.90098 6.33656 7.29098C5.94656 7.68098 5.31656 7.68098 4.92656 7.29098L4.20656 6.58098C3.81656 6.19098 3.81656 5.56098 4.20656 5.17098ZM17.6666 5.88098L18.3766 5.17098C18.7666 4.78098 19.3966 4.78098 19.7866 5.17098C20.1766 5.56098 20.1766 6.19098 19.7866 6.58098L19.0766 7.29098C18.6866 7.68098 18.0566 7.68098 17.6666 7.29098C17.2766 6.90098 17.2766 6.27098 17.6666 5.88098Z" fill="black"/>
</g>
<defs>
<clipPath id="clip0_61_16776">
<rect width="24" height="24" fill="white" transform="translate(0 0.000976562)"/>
</clipPath>
</defs>
</svg>
