<svg viewBox="0 0 24 24" xmlns="http://www.w3.org/2000/svg">
<g clip-path="url(#clip0_61_16783)">
<path d="M16 12.001H13C12.45 12.001 12 12.451 12 13.001V16.001C12 16.551 12.45 17.001 13 17.001H16C16.55 17.001 17 16.551 17 16.001V13.001C17 12.451 16.55 12.001 16 12.001ZM16 2.00098V3.00098H8V2.00098C8 1.45098 7.55 1.00098 7 1.00098C6.45 1.00098 6 1.45098 6 2.00098V3.00098H5C3.89 3.00098 3.01 3.90098 3.01 5.00098L3 19.001C3 20.101 3.89 21.001 5 21.001H19C20.1 21.001 21 20.101 21 19.001V5.00098C21 3.90098 20.1 3.00098 19 3.00098H18V2.00098C18 1.45098 17.55 1.00098 17 1.00098C16.45 1.00098 16 1.45098 16 2.00098ZM18 19.001H6C5.45 19.001 5 18.551 5 18.001V8.00098H19V18.001C19 18.551 18.55 19.001 18 19.001Z"/>
</g>
<defs>
<clipPath id="clip0_61_16783">
<rect transform="translate(0 0.000976562)"/>
</clipPath>
</defs>
</svg>
