<svg   viewBox="0 0 24 24" fill="none" xmlns="http://www.w3.org/2000/svg">
<g clip-path="url(#clip0_61_16780)">
<path d="M20 2.00098H4C2.9 2.00098 2 2.90098 2 4.00098V16.001C2 17.101 2.9 18.001 4 18.001H18L22 22.001V4.00098C22 2.90098 21.1 2.00098 20 2.00098ZM17 14.001H7C6.45 14.001 6 13.551 6 13.001C6 12.451 6.45 12.001 7 12.001H17C17.55 12.001 18 12.451 18 13.001C18 13.551 17.55 14.001 17 14.001ZM17 11.001H7C6.45 11.001 6 10.551 6 10.001C6 9.45098 6.45 9.00098 7 9.00098H17C17.55 9.00098 18 9.45098 18 10.001C18 10.551 17.55 11.001 17 11.001ZM17 8.00098H7C6.45 8.00098 6 7.55098 6 7.00098C6 6.45098 6.45 6.00098 7 6.00098H17C17.55 6.00098 18 6.45098 18 7.00098C18 7.55098 17.55 8.00098 17 8.00098Z" fill="black"/>
</g>
<defs>
<clipPath id="clip0_61_16780">
<rect width="24" height="24" fill="white" transform="translate(0 0.000976562)"/>
</clipPath>
</defs>
</svg>
