<svg   viewBox="0 0 24 24" fill="none" xmlns="http://www.w3.org/2000/svg">
<g clip-path="url(#clip0_61_16779)">
<path d="M8 17.001C7.45 17.001 7 16.551 7 16.001V11.001C7 10.451 7.45 10.001 8 10.001C8.55 10.001 9 10.451 9 11.001V16.001C9 16.551 8.55 17.001 8 17.001ZM12 17.001C11.45 17.001 11 16.551 11 16.001V8.00098C11 7.45098 11.45 7.00098 12 7.00098C12.55 7.00098 13 7.45098 13 8.00098V16.001C13 16.551 12.55 17.001 12 17.001ZM16 17.001C15.45 17.001 15 16.551 15 16.001V14.001C15 13.451 15.45 13.001 16 13.001C16.55 13.001 17 13.451 17 14.001V16.001C17 16.551 16.55 17.001 16 17.001ZM18 19.001H6C5.45 19.001 5 18.551 5 18.001V6.00098C5 5.45098 5.45 5.00098 6 5.00098H18C18.55 5.00098 19 5.45098 19 6.00098V18.001C19 18.551 18.55 19.001 18 19.001ZM19 3.00098H5C3.9 3.00098 3 3.90098 3 5.00098V19.001C3 20.101 3.9 21.001 5 21.001H19C20.1 21.001 21 20.101 21 19.001V5.00098C21 3.90098 20.1 3.00098 19 3.00098Z" fill="black"/>
</g>
<defs>
<clipPath id="clip0_61_16779">
<rect width="24" height="24" fill="white" transform="translate(0 0.000976562)"/>
</clipPath>
</defs>
</svg>
