<svg   viewBox="0 0 24 24" fill="none" xmlns="http://www.w3.org/2000/svg">
<g clip-path="url(#clip0_61_16784)">
<path d="M3.96215 11.381C4.24215 9.91098 5.62215 8.90098 7.12215 8.90098H10.0522C10.5722 8.90098 11.0022 8.47098 11.0022 7.95098C11.0022 7.43098 10.5722 7.00098 10.0522 7.00098H7.22215C4.61215 7.00098 2.28215 8.91098 2.03215 11.511C1.74215 14.491 4.08215 17.001 7.00215 17.001H10.0522C10.5722 17.001 11.0022 16.571 11.0022 16.051C11.0022 15.531 10.5722 15.101 10.0522 15.101H7.00215C5.09215 15.101 3.58215 13.361 3.96215 11.381ZM9.00215 13.001H15.0022C15.5522 13.001 16.0022 12.551 16.0022 12.001C16.0022 11.451 15.5522 11.001 15.0022 11.001H9.00215C8.45215 11.001 8.00215 11.451 8.00215 12.001C8.00215 12.551 8.45215 13.001 9.00215 13.001ZM16.7822 7.00098H13.9522C13.4322 7.00098 13.0022 7.43098 13.0022 7.95098C13.0022 8.47098 13.4322 8.90098 13.9522 8.90098H16.8821C18.3821 8.90098 19.7622 9.91098 20.0422 11.381C20.4222 13.361 18.9122 15.101 17.0022 15.101H13.9522C13.4322 15.101 13.0022 15.531 13.0022 16.051C13.0022 16.571 13.4322 17.001 13.9522 17.001H17.0022C19.9222 17.001 22.2622 14.491 21.9822 11.511C21.7322 8.91098 19.3922 7.00098 16.7822 7.00098Z" fill="black"/>
</g>
<defs>
<clipPath id="clip0_61_16784">
<rect width="24" height="24" fill="white" transform="translate(0 0.000976562)"/>
</clipPath>
</defs>
</svg>
