<svg   viewBox="0 0 24 24" fill="none" xmlns="http://www.w3.org/2000/svg">
<g clip-path="url(#clip0_61_16786)">
<path d="M19.5 9.50098C18.47 9.50098 17.6 10.121 17.21 11.001H14.29C13.9 10.121 13.03 9.50098 12 9.50098C10.97 9.50098 10.1 10.121 9.71 11.001H6.79C6.4 10.121 5.53 9.50098 4.5 9.50098C3.12 9.50098 2 10.621 2 12.001C2 13.381 3.12 14.501 4.5 14.501C5.53 14.501 6.4 13.881 6.79 13.001H9.71C10.1 13.881 10.97 14.501 12 14.501C13.03 14.501 13.9 13.881 14.29 13.001H17.21C17.6 13.881 18.47 14.501 19.5 14.501C20.88 14.501 22 13.381 22 12.001C22 10.621 20.88 9.50098 19.5 9.50098Z" fill="black"/>
</g>
<defs>
<clipPath id="clip0_61_16786">
<rect width="24" height="24" fill="white" transform="translate(0 0.000976562)"/>
</clipPath>
</defs>
</svg>
