<svg   viewBox="0 0 24 24" fill="none" xmlns="http://www.w3.org/2000/svg">
<g clip-path="url(#clip0_61_16787)">
<path d="M17.7025 19.7009C18.0925 19.3109 18.0925 18.6809 17.7025 18.2909L15.0025 15.5909L13.5925 17.0009L16.2925 19.7009C16.6825 20.0909 17.3225 20.0909 17.7025 19.7009ZM8.7125 8.00094H11.0025V13.5909L6.2925 18.2909C5.9025 18.6809 5.9025 19.3109 6.2925 19.7009C6.6825 20.0909 7.3125 20.0909 7.7025 19.7009L12.4125 15.0009C12.7925 14.6209 13.0025 14.1209 13.0025 13.5909V8.00094H15.2925C15.7425 8.00094 15.9625 7.46094 15.6425 7.15094L12.3525 3.86094C12.1525 3.66094 11.8425 3.66094 11.6425 3.86094L8.3525 7.15094C8.0425 7.46094 8.2625 8.00094 8.7125 8.00094V8.00094Z" fill="black"/>
</g>
<defs>
<clipPath id="clip0_61_16787">
<rect width="24" height="24" fill="white" transform="translate(0 0.000976562)"/>
</clipPath>
</defs>
</svg>
