<svg   viewBox="0 0 24 24" fill="none" xmlns="http://www.w3.org/2000/svg">
<g clip-path="url(#clip0_61_16791)">
<path d="M12.4991 6.90098C13.9191 6.90098 14.6291 7.44098 14.8891 8.30098C15.0191 8.73098 15.4491 9.00098 15.8991 9.00098H15.9591C16.6591 9.00098 17.1791 8.29098 16.9291 7.64098C16.4891 6.49098 15.5191 5.56098 13.9991 5.19098V4.50098C13.9991 3.67098 13.3291 3.00098 12.4991 3.00098C11.6691 3.00098 10.9991 3.67098 10.9991 4.50098V5.16098C10.6091 5.24098 10.2491 5.37098 9.89906 5.52098L11.4091 7.03098C11.7291 6.95098 12.0991 6.90098 12.4991 6.90098ZM4.76906 4.62098C4.37906 5.01098 4.37906 5.64098 4.76906 6.03098L7.49906 8.77098C7.49906 10.851 9.05906 11.991 11.4091 12.681L14.9191 16.191C14.5791 16.681 13.8691 17.101 12.4991 17.101C10.8491 17.101 9.99906 16.511 9.66906 15.671C9.51906 15.281 9.17906 15.001 8.76906 15.001H8.59906C7.87906 15.001 7.35906 15.741 7.64906 16.391C8.23906 17.721 9.53906 18.511 11.0091 18.831V19.501C11.0091 20.331 11.6791 21.001 12.5091 21.001C13.3391 21.001 14.0091 20.331 14.0091 19.501V18.851C14.9691 18.671 15.8391 18.301 16.4691 17.731L17.9791 19.241C18.3691 19.631 18.9991 19.631 19.3891 19.241C19.7791 18.851 19.7791 18.221 19.3891 17.831L6.17906 4.62098C5.78906 4.23098 5.15906 4.23098 4.76906 4.62098Z" fill="black"/>
</g>
<defs>
<clipPath id="clip0_61_16791">
<rect width="24" height="24" fill="white" transform="translate(0 0.000976562)"/>
</clipPath>
</defs>
</svg>
