<svg   viewBox="0 0 24 24" fill="none" xmlns="http://www.w3.org/2000/svg">
<g clip-path="url(#clip0_61_16790)">
<path d="M12 2.00098C6.48 2.00098 2 6.48098 2 12.001C2 17.521 6.48 22.001 12 22.001C17.52 22.001 22 17.521 22 12.001C22 6.48098 17.52 2.00098 12 2.00098ZM13.41 18.091V18.671C13.41 19.401 12.81 20.001 12.08 20.001H12.07C11.34 20.001 10.74 19.401 10.74 18.671V18.071C9.41 17.791 8.23 17.061 7.73 15.831C7.5 15.281 7.93 14.671 8.53 14.671H8.77C9.14 14.671 9.44 14.921 9.58 15.271C9.87 16.021 10.63 16.541 12.09 16.541C14.05 16.541 14.49 15.561 14.49 14.951C14.49 14.121 14.05 13.341 11.82 12.811C9.34 12.211 7.64 11.191 7.64 9.14098C7.64 7.42098 9.03 6.30098 10.75 5.93098V5.33098C10.75 4.60098 11.35 4.00098 12.08 4.00098H12.09C12.82 4.00098 13.42 4.60098 13.42 5.33098V5.95098C14.8 6.29098 15.67 7.15098 16.05 8.21098C16.25 8.76098 15.83 9.34098 15.24 9.34098H14.98C14.61 9.34098 14.31 9.08098 14.21 8.72098C13.98 7.96098 13.35 7.47098 12.09 7.47098C10.59 7.47098 9.69 8.15098 9.69 9.11098C9.69 9.95098 10.34 10.501 12.36 11.021C14.38 11.541 16.54 12.411 16.54 14.931C16.52 16.761 15.15 17.761 13.41 18.091V18.091Z" fill="black"/>
</g>
<defs>
<clipPath id="clip0_61_16790">
<rect width="24" height="24" fill="white" transform="translate(0 0.000976562)"/>
</clipPath>
</defs>
</svg>
