<svg   viewBox="0 0 24 24" fill="none" xmlns="http://www.w3.org/2000/svg">
<g clip-path="url(#clip0_61_16793)">
<path d="M21.3638 6.28098L21.3037 6.22098C20.9137 5.83098 20.2737 5.85098 19.9137 6.26098L17.7337 8.71098C15.6837 6.40098 12.8337 5.00098 9.61375 5.00098C7.11375 5.00098 4.78375 5.87098 2.86375 7.30098C2.39375 7.65098 2.34375 8.34098 2.75375 8.75098L2.81375 8.81098C3.14375 9.14098 3.67375 9.20098 4.04375 8.92098C5.63375 7.72098 7.54375 7.00098 9.61375 7.00098C12.3537 7.00098 14.7037 8.26098 16.3837 10.241L13.5037 13.481L10.2137 10.191C9.82375 9.80098 9.19375 9.80098 8.80375 10.191L2.68375 16.321C2.31375 16.691 2.31375 17.301 2.68375 17.671L2.83375 17.821C3.20375 18.191 3.81375 18.191 4.18375 17.821L9.50375 12.491L12.7537 15.741C13.1637 16.151 13.8237 16.131 14.2037 15.701L17.5537 11.941C18.1737 13.061 18.6338 14.331 18.8738 15.671C18.9538 16.141 19.3437 16.491 19.8237 16.491H19.9137C20.5137 16.491 20.9638 15.941 20.8538 15.351C20.5338 13.501 19.8737 11.811 18.9637 10.351L21.4037 7.60098C21.7437 7.22098 21.7238 6.64098 21.3638 6.28098V6.28098Z" fill="black"/>
</g>
<defs>
<clipPath id="clip0_61_16793">
<rect width="24" height="24" fill="white" transform="translate(0 0.000976562)"/>
</clipPath>
</defs>
</svg>
