<svg viewBox="0 0 24 24" xmlns="http://www.w3.org/2000/svg">
<g clip-path="url(#clip0_61_16794)">
<path d="M20 11.001H4C3.45 11.001 3 11.451 3 12.001C3 12.551 3.45 13.001 4 13.001H20C20.55 13.001 21 12.551 21 12.001C21 11.451 20.55 11.001 20 11.001ZM4 18.001H14C14.55 18.001 15 17.551 15 17.001C15 16.451 14.55 16.001 14 16.001H4C3.45 16.001 3 16.451 3 17.001C3 17.551 3.45 18.001 4 18.001ZM20 6.00098H4C3.45 6.00098 3 6.45098 3 7.00098V7.01098C3 7.56098 3.45 8.01098 4 8.01098H20C20.55 8.01098 21 7.56098 21 7.01098V7.00098C21 6.45098 20.55 6.00098 20 6.00098Z"/>
</g>
<defs>
<clipPath id="clip0_61_16794">
<rect transform="translate(0 0.000976562)"/>
</clipPath>
</defs>
</svg>
