<svg   viewBox="0 0 24 24" fill="none" xmlns="http://www.w3.org/2000/svg">
<g clip-path="url(#clip0_61_16796)">
<path d="M12 2.00098C6.5 2.00098 2 6.50098 2 12.001C2 17.501 6.5 22.001 12 22.001C17.5 22.001 22 17.501 22 12.001C22 6.50098 17.5 2.00098 12 2.00098ZM13 4.07098C16.61 4.52098 19.48 7.40098 19.93 11.001H14C13.45 11.001 13 10.551 13 10.001V4.07098ZM4 12.001C4 7.94098 7.07 4.56098 11 4.07098V19.941C7.07 19.441 4 16.061 4 12.001V12.001ZM13 19.931V14.001C13 13.451 13.45 13.001 14 13.001H19.93C19.48 16.611 16.61 19.481 13 19.931Z" fill="black"/>
</g>
<defs>
<clipPath id="clip0_61_16796">
<rect width="24" height="24" fill="white" transform="translate(0 0.000976562)"/>
</clipPath>
</defs>
</svg>
