<svg viewBox="0 0 24 24" xmlns="http://www.w3.org/2000/svg">
<g clip-path="url(#clip0_61_16797)">
<path d="M18 12.001C17.45 12.001 17 12.451 17 13.001V18.221C17 18.771 16.55 19.221 16 19.221H6C5.45 19.221 5 18.771 5 18.221V8.00098C5 7.45098 5.45 7.00098 6 7.00098H11C11.55 7.00098 12 6.55098 12 6.00098C12 5.45098 11.55 5.00098 11 5.00098H5C3.9 5.00098 3 5.90098 3 7.00098V19.001C3 20.101 3.9 21.001 5 21.001H17C18.1 21.001 19 20.101 19 19.001V13.001C19 12.451 18.55 12.001 18 12.001Z"/>
<path d="M21.02 5.00098H19V2.98098C19 2.44098 18.56 2.00098 18.02 2.00098H17.99C17.44 2.00098 17 2.44098 17 2.98098V5.00098H14.99C14.45 5.00098 14.01 5.44098 14 5.98098C14 5.99098 14 6.00098 14 6.01098C14 6.56098 14.44 7.00098 14.99 7.00098H17V9.01098C17 9.55098 17.44 10.001 17.99 9.99098C18 9.99098 18.01 9.99098 18.02 9.99098C18.56 9.99098 19 9.55098 19 9.01098V7.00098H21.02C21.56 7.00098 22 6.56098 22 6.02098V5.98098C22 5.44098 21.56 5.00098 21.02 5.00098Z"/>
<path d="M14 9.00098H8C7.45 9.00098 7 9.45098 7 10.001C7 10.551 7.45 11.001 8 11.001H14C14.55 11.001 15 10.551 15 10.001C15 9.45098 14.55 9.00098 14 9.00098Z"/>
<path d="M14 12.001H8C7.45 12.001 7 12.451 7 13.001C7 13.551 7.45 14.001 8 14.001H14C14.55 14.001 15 13.551 15 13.001C15 12.451 14.55 12.001 14 12.001Z"/>
<path d="M14 15.001H8C7.45 15.001 7 15.451 7 16.001C7 16.551 7.45 17.001 8 17.001H14C14.55 17.001 15 16.551 15 16.001C15 15.451 14.55 15.001 14 15.001Z"/>
</g>
<defs>
<clipPath id="clip0_61_16797">
<rect transform="translate(0 0.000976562)"/>
</clipPath>
</defs>
</svg>
