<svg viewBox="0 0 24 24" xmlns="http://www.w3.org/2000/svg">
<g clip-path="url(#clip0_61_16798)">
<path d="M5 5.00098C5 5.55098 5.45 6.00098 6 6.00098H18C18.55 6.00098 19 5.55098 19 5.00098C19 4.45098 18.55 4.00098 18 4.00098H6C5.45 4.00098 5 4.45098 5 5.00098ZM7.41 14.001H9V19.001C9 19.551 9.45 20.001 10 20.001H14C14.55 20.001 15 19.551 15 19.001V14.001H16.59C17.48 14.001 17.93 12.921 17.3 12.291L12.71 7.70098C12.32 7.31098 11.69 7.31098 11.3 7.70098L6.71 12.291C6.08 12.921 6.52 14.001 7.41 14.001V14.001Z"/>
</g>
<defs>
<clipPath id="clip0_61_16798">
<rect transform="translate(0 0.000976562)"/>
</clipPath>
</defs>
</svg>
