<svg viewBox="0 0 24 24" xmlns="http://www.w3.org/2000/svg">
<g clip-path="url(#clip0_61_16799)">
<path d="M7 17.001C8.65685 17.001 10 15.6578 10 14.001C10 12.3441 8.65685 11.001 7 11.001C5.34315 11.001 4 12.3441 4 14.001C4 15.6578 5.34315 17.001 7 17.001Z"/>
<path d="M11 9.00098C12.6569 9.00098 14 7.65783 14 6.00098C14 4.34412 12.6569 3.00098 11 3.00098C9.34315 3.00098 8 4.34412 8 6.00098C8 7.65783 9.34315 9.00098 11 9.00098Z"/>
<path d="M16.6016 20.6011C18.2584 20.6011 19.6016 19.2579 19.6016 17.6011C19.6016 15.9442 18.2584 14.6011 16.6016 14.6011C14.9447 14.6011 13.6016 15.9442 13.6016 17.6011C13.6016 19.2579 14.9447 20.6011 16.6016 20.6011Z"/>
</g>
<defs>
<clipPath id="clip0_61_16799">
<rect transform="translate(0 0.000976562)"/>
</clipPath>
</defs>
</svg>
