<svg   viewBox="0 0 24 24" fill="none" xmlns="http://www.w3.org/2000/svg">
<g clip-path="url(#clip0_61_16800)">
<path d="M19 3.00098H5C3.9 3.00098 3 3.90098 3 5.00098V19.001C3 20.101 3.9 21.001 5 21.001H19C20.1 21.001 21 20.101 21 19.001V5.00098C21 3.90098 20.1 3.00098 19 3.00098ZM12 5.75098C12 5.34098 12.34 5.00098 12.75 5.00098C13.16 5.00098 13.5 5.34098 13.5 5.75098V8.00098L15.29 5.31098C15.42 5.12098 15.64 5.00098 15.88 5.00098C16.44 5.00098 16.78 5.63098 16.47 6.10098L15.2 8.00098L16.47 9.90098C16.78 10.371 16.45 11.001 15.88 11.001C15.64 11.001 15.42 10.881 15.29 10.691L13.5 8.00098V10.251C13.5 10.661 13.16 11.001 12.75 11.001C12.34 11.001 12 10.661 12 10.251V5.75098ZM7 8.25098C7 7.70098 7.45 7.25098 8 7.25098H9.5V6.50098H7.75C7.34 6.50098 7 6.16098 7 5.75098C7 5.34098 7.34 5.00098 7.75 5.00098H10C10.55 5.00098 11 5.45098 11 6.00098V7.75098C11 8.30098 10.55 8.75098 10 8.75098H8.5V9.50098H10.25C10.66 9.50098 11 9.84098 11 10.251C11 10.661 10.66 11.001 10.25 11.001H8C7.45 11.001 7 10.551 7 10.001V8.25098ZM18.74 13.261L13.71 18.291C13.32 18.681 12.69 18.681 12.3 18.291L9 15.001L6.51 17.491C5.95 18.051 5 17.651 5 16.871C5 16.641 5.09 16.411 5.26 16.251L8.29 13.221C8.68 12.831 9.31 12.831 9.7 13.221L13 16.501L17.49 12.011C18.05 11.451 19 11.851 19 12.631C19 12.871 18.91 13.091 18.74 13.261Z" fill="black"/>
</g>
<defs>
<clipPath id="clip0_61_16800">
<rect width="24" height="24" fill="white" transform="translate(0 0.000976562)"/>
</clipPath>
</defs>
</svg>
