<svg   viewBox="0 0 24 24" fill="none" xmlns="http://www.w3.org/2000/svg">
<g clip-path="url(#clip0_61_16801)">
<path d="M5 9.00098H19C19.55 9.00098 20 9.45098 20 10.001C20 10.551 19.55 11.001 19 11.001H5C4.45 11.001 4 10.551 4 10.001C4 9.45098 4.45 9.00098 5 9.00098ZM5 13.001H13C13.55 13.001 14 13.451 14 14.001C14 14.551 13.55 15.001 13 15.001H5C4.45 15.001 4 14.551 4 14.001C4 13.451 4.45 13.001 5 13.001Z" fill="black"/>
</g>
<defs>
<clipPath id="clip0_61_16801">
<rect width="24" height="24" fill="white" transform="translate(0 0.000976562)"/>
</clipPath>
</defs>
</svg>
