<svg viewBox="0 0 24 24" xmlns="http://www.w3.org/2000/svg">
<g clip-path="url(#clip0_61_16804)">
<path d="M2.78875 14.781L2.69875 14.691C2.30875 14.301 2.30875 13.671 2.69875 13.281L8.78875 7.18101C9.17875 6.79101 9.80875 6.79101 10.1987 7.18101L13.4887 10.471L19.8787 3.29101C20.2587 2.86101 20.9288 2.85101 21.3288 3.25101C21.6988 3.63101 21.7188 4.231 21.3688 4.621L14.1987 12.691C13.8187 13.121 13.1587 13.141 12.7487 12.731L9.49875 9.481L4.19875 14.781C3.81875 15.171 3.17875 15.171 2.78875 14.781ZM4.19875 20.781L9.49875 15.481L12.7487 18.731C13.1587 19.141 13.8187 19.121 14.1987 18.691L21.3688 10.621C21.7188 10.231 21.6988 9.63101 21.3288 9.25101C20.9288 8.85101 20.2587 8.86101 19.8787 9.29101L13.4887 16.471L10.1987 13.181C9.80875 12.791 9.17875 12.791 8.78875 13.181L2.69875 19.281C2.30875 19.671 2.30875 20.301 2.69875 20.691L2.78875 20.781C3.17875 21.171 3.81875 21.171 4.19875 20.781Z"/>
</g>
<defs>
<clipPath id="clip0_61_16804">
<rect transform="translate(0 0.000976562)"/>
</clipPath>
</defs>
</svg>
