<svg   viewBox="0 0 24 24" fill="none" xmlns="http://www.w3.org/2000/svg">
<g clip-path="url(#clip0_61_16805)">
<path d="M14.59 7.52098C14.59 7.21098 14.54 6.93098 14.44 6.67098C14.35 6.40098 14.2 6.18098 14 5.99098C13.8 5.80098 13.55 5.66098 13.25 5.55098C12.95 5.45098 12.59 5.39098 12.19 5.39098C11.8 5.39098 11.45 5.43098 11.16 5.52098C10.87 5.61098 10.63 5.73098 10.44 5.88098C10.25 6.04098 10.1 6.22098 10 6.43098C9.9 6.64098 9.85 6.86098 9.85 7.09098C9.85 7.57098 10.1 7.97098 10.59 8.30098C10.97 8.55098 11.36 8.78098 12 9.00098H7.39C7.34 8.92098 7.28 8.83098 7.24 8.75098C6.98 8.27098 6.85 7.72098 6.85 7.08098C6.85 6.47098 6.98 5.92098 7.25 5.41098C7.51 4.91098 7.88 4.48098 8.36 4.12098C8.84 3.77098 9.41 3.49098 10.06 3.29098C10.72 3.10098 11.45 3.00098 12.24 3.00098C13.05 3.00098 13.78 3.11098 14.45 3.34098C15.11 3.56098 15.68 3.88098 16.14 4.28098C16.61 4.68098 16.97 5.16098 17.22 5.71098C17.47 6.26098 17.6 6.86098 17.6 7.52098H14.59V7.52098ZM20 10.001H4C3.45 10.001 3 10.451 3 11.001C3 11.551 3.45 12.001 4 12.001H12.62C12.8 12.071 13.02 12.141 13.17 12.201C13.54 12.371 13.83 12.541 14.04 12.711C14.25 12.881 14.39 13.071 14.47 13.281C14.54 13.481 14.58 13.711 14.58 13.971C14.58 14.201 14.53 14.421 14.44 14.631C14.35 14.831 14.21 15.011 14.02 15.161C13.83 15.311 13.6 15.421 13.31 15.511C13.02 15.591 12.68 15.641 12.3 15.641C11.87 15.641 11.47 15.601 11.12 15.511C10.77 15.421 10.46 15.281 10.21 15.091C9.96 14.901 9.76 14.651 9.62 14.341C9.48 14.031 9.37 13.581 9.37 13.131H6.4C6.4 13.681 6.48 14.261 6.64 14.711C6.8 15.161 7.01 15.561 7.29 15.921C7.57 16.271 7.89 16.581 8.27 16.841C8.64 17.101 9.05 17.321 9.49 17.491C9.93 17.661 10.39 17.791 10.87 17.881C11.35 17.961 11.83 18.011 12.31 18.011C13.11 18.011 13.84 17.921 14.49 17.731C15.14 17.541 15.7 17.281 16.16 16.941C16.62 16.601 16.98 16.171 17.23 15.671C17.48 15.171 17.61 14.601 17.61 13.961C17.61 13.361 17.51 12.821 17.3 12.351C17.25 12.241 17.19 12.121 17.13 12.021H20C20.55 12.021 21 11.571 21 11.021V11.001C21 10.451 20.55 10.001 20 10.001Z" fill="black"/>
</g>
<defs>
<clipPath id="clip0_61_16805">
<rect width="24" height="24" fill="white" transform="translate(0 0.000976562)"/>
</clipPath>
</defs>
</svg>
