<svg viewBox="0 0 24 24" xmlns="http://www.w3.org/2000/svg">
<g clip-path="url(#clip0_61_16806)">
<path d="M10.5164 10.731L7.29639 5.72098C6.81639 4.97098 7.34639 4.00098 8.22639 4.00098C8.61639 4.00098 8.96639 4.20098 9.17639 4.53098L11.9364 8.99098H12.0564L14.7964 4.54098C15.0064 4.20098 15.3664 4.00098 15.7564 4.00098C16.6364 4.00098 17.1764 4.98098 16.6964 5.72098L13.4664 10.721L17.0164 16.271C17.4964 17.021 16.9564 18.001 16.0764 18.001C15.6964 18.001 15.3364 17.801 15.1264 17.481L12.0564 12.591H11.9364L8.86639 17.481C8.66639 17.801 8.30639 18.001 7.91639 18.001C7.03639 18.001 6.49639 17.031 6.97639 16.281L10.5164 10.731ZM22.9964 19.501C22.9964 19.221 22.7764 19.001 22.4964 19.001H19.9964V18.001H21.9964C22.5464 18.001 22.9964 17.551 22.9964 17.001V16.001C22.9964 15.451 22.5464 15.001 21.9964 15.001H19.4964C19.2164 15.001 18.9964 15.221 18.9964 15.501C18.9964 15.781 19.2164 16.001 19.4964 16.001H21.9964V17.001H19.9964C19.4464 17.001 18.9964 17.451 18.9964 18.001V19.001C18.9964 19.551 19.4464 20.001 19.9964 20.001H22.4964C22.7764 20.001 22.9964 19.781 22.9964 19.501Z"/>
</g>
<defs>
<clipPath id="clip0_61_16806">
<rect transform="translate(0 0.000976562)"/>
</clipPath>
</defs>
</svg>
