<svg   viewBox="0 0 24 24" fill="none" xmlns="http://www.w3.org/2000/svg">
<g clip-path="url(#clip0_61_16807)">
<path d="M10.5064 12.731L7.29639 7.72098C6.81639 6.97098 7.34639 6.00098 8.22639 6.00098C8.61639 6.00098 8.96639 6.20098 9.17639 6.53098L11.9364 10.991H12.0564L14.7964 6.54098C14.9964 6.20098 15.3564 6.00098 15.7464 6.00098C16.6264 6.00098 17.1664 6.98098 16.6864 7.72098L13.4564 12.721L17.0064 18.271C17.4964 19.021 16.9564 20.001 16.0764 20.001C15.6964 20.001 15.3364 19.801 15.1264 19.481L12.0564 14.591H11.9364L8.86639 19.481C8.65639 19.801 8.30639 20.001 7.91639 20.001C7.03639 20.001 6.49639 19.031 6.97639 18.281L10.5064 12.731ZM22.9964 8.50098C22.9964 8.22098 22.7764 8.00098 22.4964 8.00098H19.9964V7.00098H21.9964C22.5464 7.00098 22.9964 6.55098 22.9964 6.00098V5.00098C22.9964 4.45098 22.5464 4.00098 21.9964 4.00098H19.4964C19.2164 4.00098 18.9964 4.22098 18.9964 4.50098C18.9964 4.78098 19.2164 5.00098 19.4964 5.00098H21.9964V6.00098H19.9964C19.4464 6.00098 18.9964 6.45098 18.9964 7.00098V8.00098C18.9964 8.55098 19.4464 9.00098 19.9964 9.00098H22.4964C22.7764 9.00098 22.9964 8.78098 22.9964 8.50098Z" fill="black"/>
</g>
<defs>
<clipPath id="clip0_61_16807">
<rect width="24" height="24" fill="white" transform="translate(0 0.000976562)"/>
</clipPath>
</defs>
</svg>
