<svg   viewBox="0 0 24 24" fill="none" xmlns="http://www.w3.org/2000/svg">
<g clip-path="url(#clip0_61_16809)">
<path d="M20 7.00098H4C2.9 7.00098 2 6.10098 2 5.00098V4.00098C2 2.90098 2.9 2.00098 4 2.00098H20C21.1 2.00098 22 2.90098 22 4.00098V5.00098C22 6.10098 21.1 7.00098 20 7.00098ZM20 9.50098H4C2.9 9.50098 2 10.401 2 11.501V12.501C2 13.601 2.9 14.501 4 14.501H20C21.1 14.501 22 13.601 22 12.501V11.501C22 10.401 21.1 9.50098 20 9.50098ZM20 17.001H4C2.9 17.001 2 17.901 2 19.001V20.001C2 21.101 2.9 22.001 4 22.001H20C21.1 22.001 22 21.101 22 20.001V19.001C22 17.901 21.1 17.001 20 17.001Z" fill="black"/>
</g>
<defs>
<clipPath id="clip0_61_16809">
<rect width="24" height="24" fill="white" transform="translate(0 0.000976562)"/>
</clipPath>
</defs>
</svg>
