<svg viewBox="0 0 24 24" xmlns="http://www.w3.org/2000/svg">
<g clip-path="url(#clip0_61_16810)">
<path d="M2.5 5.50098C2.5 6.33098 3.17 7.00098 4 7.00098H7.5V17.501C7.5 18.331 8.17 19.001 9 19.001C9.83 19.001 10.5 18.331 10.5 17.501V7.00098H14C14.83 7.00098 15.5 6.33098 15.5 5.50098C15.5 4.67098 14.83 4.00098 14 4.00098H4C3.17 4.00098 2.5 4.67098 2.5 5.50098ZM20 9.00098H14C13.17 9.00098 12.5 9.67098 12.5 10.501C12.5 11.331 13.17 12.001 14 12.001H15.5V17.501C15.5 18.331 16.17 19.001 17 19.001C17.83 19.001 18.5 18.331 18.5 17.501V12.001H20C20.83 12.001 21.5 11.331 21.5 10.501C21.5 9.67098 20.83 9.00098 20 9.00098Z"/>
</g>
<defs>
<clipPath id="clip0_61_16810">
<rect transform="translate(0 0.000976562)"/>
</clipPath>
</defs>
</svg>
