<svg   viewBox="0 0 24 24" fill="none" xmlns="http://www.w3.org/2000/svg">
<g clip-path="url(#clip0_61_16814)">
<path d="M9.21 11.001H11V20.001C11 20.551 11.45 21.001 12 21.001C12.55 21.001 13 20.551 13 20.001V11.001H14.79C15.24 11.001 15.46 10.461 15.14 10.151L12.35 7.36098C12.15 7.16098 11.84 7.16098 11.64 7.36098L8.85 10.151C8.54 10.461 8.76 11.001 9.21 11.001V11.001ZM4 4.00098C4 4.55098 4.45 5.00098 5 5.00098H19C19.55 5.00098 20 4.55098 20 4.00098C20 3.45098 19.55 3.00098 19 3.00098H5C4.45 3.00098 4 3.45098 4 4.00098Z" fill="black"/>
</g>
<defs>
<clipPath id="clip0_61_16814">
<rect width="24" height="24" fill="white" transform="translate(0 0.000976562)"/>
</clipPath>
</defs>
</svg>
