<svg viewBox="0 0 24 24" xmlns="http://www.w3.org/2000/svg">
<g clip-path="url(#clip0_61_16812)">
<path d="M14.79 13.001H13V4.00098C13 3.45098 12.55 3.00098 12 3.00098C11.45 3.00098 11 3.45098 11 4.00098V13.001H9.21C8.76 13.001 8.54 13.541 8.86 13.851L11.65 16.641C11.85 16.841 12.16 16.841 12.36 16.641L15.15 13.851C15.46 13.541 15.24 13.001 14.79 13.001V13.001ZM4 20.001C4 20.551 4.45 21.001 5 21.001H19C19.55 21.001 20 20.551 20 20.001C20 19.451 19.55 19.001 19 19.001H5C4.45 19.001 4 19.451 4 20.001Z"/>
</g>
<defs>
<clipPath id="clip0_61_16812">
<rect transform="translate(0 0.000976562)"/>
</clipPath>
</defs>
</svg>
