<svg   viewBox="0 0 24 24" fill="none" xmlns="http://www.w3.org/2000/svg">
<g clip-path="url(#clip0_61_16813)">
<path d="M9.21 19.001H11V22.001C11 22.551 11.45 23.001 12 23.001C12.55 23.001 13 22.551 13 22.001V19.001H14.79C15.24 19.001 15.46 18.461 15.14 18.151L12.35 15.361C12.15 15.161 11.84 15.161 11.64 15.361L8.85 18.151C8.54 18.461 8.76 19.001 9.21 19.001V19.001ZM14.79 5.00098H13V2.00098C13 1.45098 12.55 1.00098 12 1.00098C11.45 1.00098 11 1.45098 11 2.00098V5.00098H9.21C8.76 5.00098 8.54 5.54098 8.85 5.85098L11.64 8.64098C11.84 8.84098 12.15 8.84098 12.35 8.64098L15.14 5.85098C15.46 5.54098 15.24 5.00098 14.79 5.00098V5.00098ZM4 12.001C4 12.551 4.45 13.001 5 13.001H19C19.55 13.001 20 12.551 20 12.001C20 11.451 19.55 11.001 19 11.001H5C4.45 11.001 4 11.451 4 12.001Z" fill="black"/>
</g>
<defs>
<clipPath id="clip0_61_16813">
<rect width="24" height="24" fill="white" transform="translate(0 0.000976562)"/>
</clipPath>
</defs>
</svg>
