<svg   viewBox="0 0 24 24" fill="none" xmlns="http://www.w3.org/2000/svg">
<g clip-path="url(#clip0_61_16815)">
<path d="M5 7.00098H19C19.55 7.00098 20 6.55098 20 6.00098C20 5.45098 19.55 5.00098 19 5.00098H5C4.45 5.00098 4 5.45098 4 6.00098C4 6.55098 4.45 7.00098 5 7.00098ZM16.83 11.001H5C4.45 11.001 4 11.451 4 12.001C4 12.551 4.45 13.001 5 13.001H17.13C18.13 13.001 19.06 13.671 19.22 14.661C19.43 15.911 18.46 17.001 17.25 17.001H15V16.211C15 15.761 14.46 15.541 14.15 15.861L12.36 17.651C12.16 17.851 12.16 18.161 12.36 18.361L14.15 20.151C14.47 20.471 15 20.241 15 19.801V19.001H17C19.34 19.001 21.21 16.991 20.98 14.611C20.78 12.531 18.92 11.001 16.83 11.001ZM9 17.001H5C4.45 17.001 4 17.451 4 18.001C4 18.551 4.45 19.001 5 19.001H9C9.55 19.001 10 18.551 10 18.001C10 17.451 9.55 17.001 9 17.001Z" fill="black"/>
</g>
<defs>
<clipPath id="clip0_61_16815">
<rect width="24" height="24" fill="white" transform="translate(0 0.000976562)"/>
</clipPath>
</defs>
</svg>
