<svg   viewBox="0 0 24 24" fill="none" xmlns="http://www.w3.org/2000/svg">
<path fill-rule="evenodd" clip-rule="evenodd" d="M21.9981 9.99997V14C21.9981 14.8284 21.3265 15.5 20.4981 15.5H19.5981V15.8103C19.5981 16.9508 18.7206 17.8993 17.5836 17.988L16.3151 18.0869C12.7758 18.3629 9.2204 18.3629 5.68111 18.0869L4.33351 17.9818C3.23833 17.8964 2.34211 17.076 2.16049 15.9927C1.71734 13.3493 1.71734 10.6506 2.16049 8.00727C2.34211 6.92389 3.23833 6.1035 4.33351 6.01811L5.68111 5.91303C9.2204 5.63706 12.7758 5.63706 16.3151 5.91303L17.5836 6.01194C18.7206 6.1006 19.5981 7.04913 19.5981 8.18964V8.49997H20.4981C21.3265 8.49997 21.9981 9.17154 21.9981 9.99997ZM8.74811 9.25553C8.74811 9.05069 8.66432 8.85475 8.51621 8.71325C8.36809 8.57174 8.16855 8.49697 7.96391 8.50631C7.27326 8.53783 6.58301 8.58093 5.89345 8.63559L5.70471 8.65055C5.26576 8.68535 4.90067 9.00203 4.8042 9.43165C4.42573 11.1172 4.42587 12.8662 4.80432 14.5516C4.9005 14.9799 5.26382 15.2964 5.70161 15.3325L5.87589 15.3469C6.57081 15.4043 7.26649 15.4495 7.96261 15.4825C8.16745 15.4922 8.36733 15.4176 8.51573 15.2761C8.66413 15.1345 8.74811 14.9384 8.74811 14.7333V9.25553Z" fill="black"/>
</svg>
