<svg viewBox="0 0 24 24" xmlns="http://www.w3.org/2000/svg">
<path fill-rule="evenodd" clip-rule="evenodd" d="M21.9981 9.99997V14C21.9981 14.8284 21.3265 15.5 20.4981 15.5H19.5981V15.8103C19.5981 16.9508 18.7206 17.8993 17.5836 17.988L16.3151 18.0869C12.7758 18.3629 9.2204 18.3629 5.68111 18.0869L4.33351 17.9818C3.23833 17.8964 2.34211 17.076 2.16049 15.9927C1.71734 13.3493 1.71734 10.6506 2.16049 8.00727C2.34211 6.92389 3.23833 6.1035 4.33351 6.01811L5.68111 5.91303C9.2204 5.63706 12.7758 5.63706 16.3151 5.91303L17.5836 6.01194C18.7206 6.1006 19.5981 7.04913 19.5981 8.18964V8.49997H20.4981C21.3265 8.49997 21.9981 9.17154 21.9981 9.99997ZM6.74811 9.37966C6.74811 9.17054 6.6608 8.97092 6.50726 8.82896C6.35371 8.687 6.14787 8.61559 5.9394 8.63196L5.70471 8.65054C5.26576 8.68534 4.90067 9.00202 4.8042 9.43165C4.42573 11.1172 4.42587 12.8662 4.80432 14.5516C4.9005 14.9799 5.26382 15.2964 5.70161 15.3325L5.93715 15.352C6.14596 15.369 6.35238 15.2979 6.50643 15.1559C6.66048 15.0139 6.74811 14.8139 6.74811 14.6044V9.37966Z"/>
</svg>
