<svg   viewBox="0 0 24 24" fill="none" xmlns="http://www.w3.org/2000/svg">
<path fill-rule="evenodd" clip-rule="evenodd" d="M21.9981 9.99997V14C21.9981 14.8284 21.3265 15.5 20.4981 15.5H19.5981V15.8103C19.5981 16.9508 18.7206 17.8993 17.5836 17.988L16.3151 18.0869C12.7758 18.3629 9.2204 18.3629 5.68111 18.0869L4.33351 17.9818C3.23833 17.8964 2.34211 17.076 2.16049 15.9927C1.71734 13.3493 1.71734 10.6506 2.16049 8.00727C2.34211 6.92389 3.23833 6.1035 4.33351 6.01811L5.68111 5.91303C9.2204 5.63706 12.7758 5.63706 16.3151 5.91303L17.5836 6.01194C18.7206 6.1006 19.5981 7.04913 19.5981 8.18964V8.49997H20.4981C21.3265 8.49997 21.9981 9.17154 21.9981 9.99997ZM16.7481 14.2079V9.78984C16.7481 9.18585 16.2838 8.68331 15.6817 8.63558C12.4241 8.37734 9.15108 8.37734 5.89343 8.63558L5.7047 8.65054C5.26575 8.68534 4.90066 9.00202 4.80419 9.43165C4.42572 11.1172 4.42585 12.8662 4.80431 14.5516C4.90049 14.9799 5.2638 15.2964 5.70159 15.3325L5.87587 15.3469C9.14478 15.6169 12.4304 15.6169 15.6993 15.3469C16.292 15.298 16.7481 14.8026 16.7481 14.2079Z" fill="black"/>
</svg>
