<svg viewBox="0 0 24 24" xmlns="http://www.w3.org/2000/svg">
<path d="M15.2481 10.1067C12.2342 9.88368 9.20785 9.887 6.19438 10.1167C5.96227 11.3562 5.96243 12.6283 6.19473 13.8678C9.20774 14.1064 12.2347 14.1098 15.2481 13.8781V10.1067Z"/>
<path fill-rule="evenodd" clip-rule="evenodd" d="M21.9981 14V9.99997C21.9981 9.17154 21.3265 8.49997 20.4981 8.49997H19.5981V8.18964C19.5981 7.04913 18.7206 6.1006 17.5836 6.01194L16.3151 5.91303C12.7758 5.63706 9.2204 5.63706 5.68111 5.91303L4.33351 6.01811C3.23833 6.1035 2.34211 6.92389 2.16049 8.00727C1.71734 10.6506 1.71734 13.3493 2.16049 15.9927C2.34211 17.076 3.23833 17.8964 4.33351 17.9818L5.68111 18.0869C9.2204 18.3629 12.7758 18.3629 16.3151 18.0869L17.5836 17.988C18.7206 17.8993 19.5981 16.9508 19.5981 15.8103V15.5H20.4981C21.3265 15.5 21.9981 14.8284 21.9981 14ZM16.7481 9.78985V14.2079C16.7481 14.8026 16.292 15.298 15.6993 15.3469C12.4304 15.6169 9.14477 15.6169 5.87586 15.3469L5.70159 15.3325C5.2638 15.2964 4.90048 14.9799 4.8043 14.5516C4.42585 12.8662 4.42571 11.1172 4.80418 9.43165C4.90065 9.00202 5.26574 8.68534 5.70469 8.65054L5.89342 8.63558C9.15108 8.37734 12.4241 8.37734 15.6817 8.63558C16.2838 8.68331 16.7481 9.18585 16.7481 9.78985Z"/>
</svg>
