<svg viewBox="0 0 24 24" xmlns="http://www.w3.org/2000/svg">
<path fill-rule="evenodd" clip-rule="evenodd" d="M11.0959 4.90985C11.4502 5.21196 11.7613 5.57001 12 5.97118C12.2387 5.57001 12.5498 5.21196 12.9041 4.90985C13.7201 4.21403 14.8052 3.77783 15.8889 3.77783C16.647 3.77783 17.4588 3.99156 18.1599 4.35435C18.8573 4.7152 19.4925 5.24865 19.8412 5.92632C19.8497 5.9429 19.8573 5.95994 19.864 5.97736L21.9939 11.5777C22.4736 12.3645 22.75 13.2889 22.75 14.2778C22.75 17.1466 20.4244 19.4723 17.5556 19.4723C14.8554 19.4723 12.6365 17.4121 12.3849 14.7778H11.6151C11.3635 17.4121 9.14459 19.4723 6.44444 19.4723C3.57563 19.4723 1.25 17.1466 1.25 14.2778C1.25 13.2889 1.52632 12.3646 2.00597 11.5778L4.13602 5.97736C4.14265 5.95994 4.15025 5.9429 4.15877 5.92632C4.5075 5.24865 5.14265 4.7152 5.84007 4.35435C6.54121 3.99156 7.35298 3.77783 8.1111 3.77783C9.1948 3.77783 10.2799 4.21403 11.0959 4.90985ZM2.75 14.2778C2.75 12.2374 4.40406 10.5834 6.44444 10.5834C8.48483 10.5834 10.1389 12.2374 10.1389 14.2778C10.1389 16.3182 8.48483 17.9723 6.44444 17.9723C4.40406 17.9723 2.75 16.3182 2.75 14.2778ZM13.8611 14.2778C13.8611 12.2374 15.5152 10.5834 17.5556 10.5834C19.5959 10.5834 21.25 12.2374 21.25 14.2778C21.25 16.3182 19.5959 17.9723 17.5556 17.9723C15.5152 17.9723 13.8611 16.3182 13.8611 14.2778Z"/>
</svg>
