<svg   viewBox="0 0 24 24" fill="none" xmlns="http://www.w3.org/2000/svg">
<path d="M9.74811 13C9.74811 11.7574 10.7555 10.75 11.9981 10.75C13.2407 10.75 14.2481 11.7574 14.2481 13C14.2481 14.2426 13.2407 15.25 11.9981 15.25C10.7555 15.25 9.74811 14.2426 9.74811 13Z" fill="black"/>
<path fill-rule="evenodd" clip-rule="evenodd" d="M7.47177 7.64245C7.47177 5.90692 8.87869 4.5 10.6142 4.5H13.3819C15.1175 4.5 16.5244 5.90692 16.5244 7.64245C16.5244 7.65729 16.5358 7.66964 16.5506 7.67084L18.7802 7.85192C19.7789 7.93303 20.6003 8.67157 20.7867 9.65609C21.2624 12.1684 21.2978 14.7443 20.8915 17.2687L20.7943 17.8729C20.6109 19.0118 19.6736 19.8783 18.5238 19.9717L16.5815 20.1294C13.5309 20.3772 10.4653 20.3772 7.4147 20.1294L5.47237 19.9717C4.32259 19.8783 3.38522 19.0118 3.2019 17.8729L3.10465 17.2687C2.69832 14.7443 2.73379 12.1684 3.20948 9.65609C3.39589 8.67157 4.21726 7.93303 5.21598 7.85192L7.44558 7.67084C7.46037 7.66964 7.47177 7.65729 7.47177 7.64245ZM11.9981 9.25C9.92704 9.25 8.24811 10.9289 8.24811 13C8.24811 15.0711 9.92704 16.75 11.9981 16.75C14.0692 16.75 15.7481 15.0711 15.7481 13C15.7481 10.9289 14.0692 9.25 11.9981 9.25Z" fill="black"/>
</svg>
