<svg viewBox="0 0 24 24" xmlns="http://www.w3.org/2000/svg">
<path fill-rule="evenodd" clip-rule="evenodd" d="M11.9989 3.74976L19.2726 3.95541C20.5578 3.99175 21.6208 4.9674 21.767 6.2448C22.0905 9.07241 22.0905 11.9277 21.767 14.7553C21.6208 16.0327 20.5578 17.0084 19.2726 17.0447L13.249 17.215V19.2501H16.999C17.4132 19.2501 17.749 19.5858 17.749 20.0001C17.749 20.4143 17.4132 20.7501 16.999 20.7501H6.99896C6.58475 20.7501 6.24896 20.4143 6.24896 20.0001C6.24896 19.5858 6.58475 19.2501 6.99896 19.2501H10.749V17.215L4.72532 17.0447C3.4401 17.0084 2.37708 16.0327 2.23093 14.7553C1.9074 11.9277 1.9074 9.07241 2.23093 6.2448C2.37708 4.9674 3.4401 3.99175 4.72532 3.95541L11.9989 3.74976ZM4.99896 13.7501C4.58475 13.7501 4.24896 14.0858 4.24896 14.5001C4.24896 14.9143 4.58475 15.2501 4.99896 15.2501H18.999C19.4132 15.2501 19.749 14.9143 19.749 14.5001C19.749 14.0858 19.4132 13.7501 18.999 13.7501H4.99896Z"/>
</svg>
