<svg viewBox="0 0 24 24" xmlns="http://www.w3.org/2000/svg">
<path d="M6.91749 1.59946C6.31204 1.53179 5.68688 1.53179 5.08144 1.59946C4.57561 1.65599 4.16517 2.05401 4.10514 2.56731C4.03266 3.18697 4.03266 3.81296 4.10514 4.43262C4.16517 4.94593 4.57561 5.34394 5.08144 5.40048C5.68688 5.46814 6.31204 5.46814 6.91749 5.40048C7.42332 5.34394 7.83375 4.94593 7.89379 4.43262C7.96626 3.81296 7.96626 3.18697 7.89379 2.56731C7.83375 2.05401 7.42332 1.65599 6.91749 1.59946Z"/>
<path d="M12.9175 1.59946C12.312 1.53179 11.6869 1.53179 11.0814 1.59946C10.5756 1.65599 10.1652 2.05401 10.1051 2.56731C10.0327 3.18697 10.0327 3.81296 10.1051 4.43262C10.1652 4.94593 10.5756 5.34394 11.0814 5.40048C11.6869 5.46814 12.312 5.46814 12.9175 5.40048C13.4233 5.34394 13.8338 4.94593 13.8938 4.43262C13.9663 3.81296 13.9663 3.18697 13.8938 2.56731C13.8338 2.05401 13.4233 1.65599 12.9175 1.59946Z"/>
<path d="M18.9175 1.59946C18.312 1.53179 17.6869 1.53179 17.0814 1.59946C16.5756 1.65599 16.1652 2.05401 16.1051 2.56731C16.0327 3.18697 16.0327 3.81296 16.1051 4.43262C16.1652 4.94593 16.5756 5.34394 17.0814 5.40048C17.6869 5.46814 18.312 5.46814 18.9175 5.40048C19.4233 5.34394 19.8338 4.94593 19.8938 4.43262C19.9663 3.81296 19.9663 3.18697 19.8938 2.56731C19.8338 2.05401 19.4233 1.65599 18.9175 1.59946Z"/>
<path d="M6.91749 7.09946C6.31204 7.03179 5.68688 7.03179 5.08144 7.09946C4.57561 7.15599 4.16517 7.55401 4.10514 8.06731C4.03266 8.68697 4.03266 9.31296 4.10514 9.93262C4.16517 10.4459 4.57561 10.8439 5.08144 10.9005C5.68688 10.9681 6.31204 10.9681 6.91749 10.9005C7.42332 10.8439 7.83375 10.4459 7.89379 9.93262C7.96626 9.31296 7.96626 8.68697 7.89379 8.06731C7.83375 7.55401 7.42332 7.15599 6.91749 7.09946Z"/>
<path d="M12.9175 7.09946C12.312 7.03179 11.6869 7.03179 11.0814 7.09946C10.5756 7.15599 10.1652 7.55401 10.1051 8.06731C10.0327 8.68697 10.0327 9.31296 10.1051 9.93262C10.1652 10.4459 10.5756 10.8439 11.0814 10.9005C11.6869 10.9681 12.312 10.9681 12.9175 10.9005C13.4233 10.8439 13.8338 10.4459 13.8938 9.93262C13.9663 9.31296 13.9663 8.68697 13.8938 8.06731C13.8338 7.55401 13.4233 7.15599 12.9175 7.09946Z"/>
<path d="M18.9175 7.09946C18.312 7.03179 17.6869 7.03179 17.0814 7.09946C16.5756 7.15599 16.1652 7.55401 16.1051 8.06731C16.0327 8.68697 16.0327 9.31296 16.1051 9.93262C16.1652 10.4459 16.5756 10.8439 17.0814 10.9005C17.6869 10.9681 18.312 10.9681 18.9175 10.9005C19.4233 10.8439 19.8338 10.4459 19.8938 9.93262C19.9663 9.31296 19.9663 8.68697 19.8938 8.06731C19.8338 7.55401 19.4233 7.15599 18.9175 7.09946Z"/>
<path d="M6.91749 12.5995C6.31204 12.5318 5.68688 12.5318 5.08144 12.5995C4.57561 12.656 4.16517 13.054 4.10514 13.5673C4.03266 14.187 4.03266 14.813 4.10514 15.4326C4.16517 15.9459 4.57561 16.3439 5.08144 16.4005C5.68688 16.4681 6.31204 16.4681 6.91749 16.4005C7.42332 16.3439 7.83375 15.9459 7.89379 15.4326C7.96626 14.813 7.96626 14.187 7.89379 13.5673C7.83375 13.054 7.42332 12.656 6.91749 12.5995Z"/>
<path d="M12.9175 12.5995C12.312 12.5318 11.6869 12.5318 11.0814 12.5995C10.5756 12.656 10.1652 13.054 10.1051 13.5673C10.0327 14.187 10.0327 14.813 10.1051 15.4326C10.1652 15.9459 10.5756 16.3439 11.0814 16.4005C11.6869 16.4681 12.312 16.4681 12.9175 16.4005C13.4233 16.3439 13.8338 15.9459 13.8938 15.4326C13.9663 14.813 13.9663 14.187 13.8938 13.5673C13.8338 13.054 13.4233 12.656 12.9175 12.5995Z"/>
<path d="M12.9175 18.0995C12.312 18.0318 11.6869 18.0318 11.0814 18.0995C10.5756 18.156 10.1652 18.554 10.1051 19.0673C10.0327 19.687 10.0327 20.313 10.1051 20.9326C10.1652 21.4459 10.5756 21.8439 11.0814 21.9005C11.6869 21.9681 12.312 21.9681 12.9175 21.9005C13.4233 21.8439 13.8338 21.4459 13.8938 20.9326C13.9663 20.313 13.9663 19.687 13.8938 19.0673C13.8338 18.554 13.4233 18.156 12.9175 18.0995Z"/>
<path d="M18.9175 12.5995C18.312 12.5318 17.6869 12.5318 17.0814 12.5995C16.5756 12.656 16.1652 13.054 16.1051 13.5673C16.0327 14.187 16.0327 14.813 16.1051 15.4326C16.1652 15.9459 16.5756 16.3439 17.0814 16.4005C17.6869 16.4681 18.312 16.4681 18.9175 16.4005C19.4233 16.3439 19.8338 15.9459 19.8938 15.4326C19.9663 14.813 19.9663 14.187 19.8938 13.5673C19.8338 13.054 19.4233 12.656 18.9175 12.5995Z"/>
</svg>
