<svg viewBox="0 0 24 24" xmlns="http://www.w3.org/2000/svg">
<path fill-rule="evenodd" clip-rule="evenodd" d="M11.9987 2.25C12.4129 2.25 12.7487 2.58579 12.7487 3V4.7369C14.1801 4.75655 15.6109 4.83247 17.0378 4.96464L17.3694 4.99536C19.6342 5.20514 21.3781 7.0858 21.4166 9.3599L21.4287 10.0734C21.4757 12.8482 21.2521 15.621 20.7609 18.3524C20.5373 19.5955 19.4556 20.5 18.1926 20.5H17.9716C16.8351 20.5 15.8054 19.8302 15.3446 18.7914L14.284 16.4001C13.405 14.4182 10.5924 14.4182 9.71337 16.4001L8.65277 18.7914C8.19199 19.8302 7.16226 20.5 6.02577 20.5H5.80472C4.54172 20.5 3.46001 19.5955 3.23647 18.3524C2.74527 15.621 2.5216 12.8482 2.56863 10.0734L2.58072 9.3599C2.61926 7.0858 4.36317 5.20514 6.62791 4.99536L6.95951 4.96464C8.38643 4.83247 9.81726 4.75655 11.2487 4.7369V3C11.2487 2.58579 11.5845 2.25 11.9987 2.25ZM16.9987 8C16.9987 7.44772 16.551 7 15.9987 7C15.4464 7 14.9987 7.44772 14.9987 8V8.25C14.9987 8.80228 15.4464 9.25 15.9987 9.25C16.551 9.25 16.9987 8.80228 16.9987 8.25V8ZM7.99867 7.25C8.41289 7.25 8.74867 7.58579 8.74867 8V9.25H9.99867C10.4129 9.25 10.7487 9.58579 10.7487 10C10.7487 10.4142 10.4129 10.75 9.99867 10.75H8.74867V12C8.74867 12.4142 8.41289 12.75 7.99867 12.75C7.58446 12.75 7.24867 12.4142 7.24867 12V10.75H5.99867C5.58446 10.75 5.24867 10.4142 5.24867 10C5.24867 9.58579 5.58446 9.25 5.99867 9.25L7.24867 9.25V8C7.24867 7.58579 7.58446 7.25 7.99867 7.25ZM15.9987 10.75C16.551 10.75 16.9987 11.1977 16.9987 11.75V12C16.9987 12.5523 16.551 13 15.9987 13C15.4464 13 14.9987 12.5523 14.9987 12V11.75C14.9987 11.1977 15.4464 10.75 15.9987 10.75ZM17.9987 11C18.551 11 18.9987 10.5523 18.9987 10C18.9987 9.44772 18.551 9 17.9987 9H17.7487C17.1964 9 16.7487 9.44771 16.7487 10C16.7487 10.5523 17.1964 11 17.7487 11H17.9987ZM15.2487 10C15.2487 10.5523 14.801 11 14.2487 11H13.9987C13.4464 11 12.9987 10.5523 12.9987 10C12.9987 9.44771 13.4464 9 13.9987 9H14.2487C14.801 9 15.2487 9.44772 15.2487 10Z"/>
</svg>
