<svg   viewBox="0 0 24 24" fill="none" xmlns="http://www.w3.org/2000/svg">
<path fill-rule="evenodd" clip-rule="evenodd" d="M18.7505 11L18.7443 11.2433L18.7505 11.5L18.7446 11.7449L18.7504 12L18.5617 20.2533C18.5383 21.2804 17.7571 22.131 16.7357 22.2416C13.5879 22.5825 10.4125 22.5825 7.26477 22.2416C6.24337 22.131 5.46219 21.2804 5.43871 20.2533L5.25003 12L5.2559 11.7432L5.25005 11.5L5.2562 11.2443L5.25 11L5.4187 4.35857C5.41982 4.31468 5.42194 4.27103 5.42506 4.22764L5.43618 3.76547C5.46161 2.70876 6.26868 1.83575 7.32014 1.72757C7.40765 1.71857 7.49517 1.70982 7.58272 1.70132C7.70145 1.67373 7.8232 1.65361 7.94747 1.64149C10.6429 1.37878 13.3576 1.37878 16.053 1.64149C16.1773 1.65361 16.299 1.67372 16.4177 1.70131C16.5053 1.70981 16.5929 1.71857 16.6804 1.72757C17.7319 1.83575 18.5389 2.70876 18.5644 3.76547L18.5755 4.22869C18.5786 4.27173 18.5807 4.31503 18.5818 4.35857L18.7505 11ZM16.0002 17.75C16.4145 17.75 16.7502 17.4142 16.7502 17C16.7502 16.5858 16.4145 16.25 16.0002 16.25H8.00024C7.58603 16.25 7.25024 16.5858 7.25024 17C7.25024 17.4142 7.58603 17.75 8.00024 17.75H16.0002ZM12.0002 21.7C12.8287 21.7 13.5002 21.0285 13.5002 20.2C13.5002 19.3716 12.8287 18.7 12.0002 18.7C11.1718 18.7 10.5002 19.3716 10.5002 20.2C10.5002 21.0285 11.1718 21.7 12.0002 21.7Z" fill="black"/>
</svg>
