<svg viewBox="0 0 24 24" xmlns="http://www.w3.org/2000/svg">
<path fill-rule="evenodd" clip-rule="evenodd" d="M13.0138 2.65388C16.1731 3.15272 18.5 5.87586 18.5 9.07434L18.5 14.9257C18.5 18.1242 16.1731 20.8473 13.0138 21.3461C12.3421 21.4522 11.6579 21.4522 10.9862 21.3461C7.82691 20.8473 5.5 18.1242 5.5 14.9257V9.07434C5.5 5.87586 7.82691 3.15272 10.9862 2.65388C11.6579 2.54783 12.3421 2.54783 13.0138 2.65388ZM11.25 10C11.25 10.4142 11.5858 10.75 12 10.75C12.4142 10.75 12.75 10.4142 12.75 10V7.00001C12.75 6.58579 12.4142 6.25001 12 6.25001C11.5858 6.25001 11.25 6.58579 11.25 7.00001V10Z"/>
</svg>
