<svg viewBox="0 0 24 24" xmlns="http://www.w3.org/2000/svg">
<path d="M12.9726 2.64747C12.8543 2.62958 12.75 2.72269 12.75 2.84229L12.75 8.94997C12.75 9.11566 12.8843 9.24997 13.05 9.24997H18.2C18.3657 9.24997 18.5007 9.11556 18.4932 8.95005C18.3533 5.87207 16.074 3.13704 13.0138 2.65384C13 2.65167 12.9863 2.64955 12.9726 2.64747Z"/>
<path d="M11.0274 2.64747C11.1457 2.62958 11.25 2.72269 11.25 2.84229L11.25 8.94997C11.25 9.11566 11.1157 9.24997 10.95 9.24997H5.8C5.63431 9.24997 5.49929 9.11556 5.50682 8.95005C5.64674 5.87207 7.92597 3.13704 10.9862 2.65384C11 2.65167 11.0137 2.64955 11.0274 2.64747Z"/>
<path d="M5.8 10.75C5.63431 10.75 5.5 10.8843 5.5 11.05V14.9256C5.5 18.1241 7.82691 20.8473 10.9862 21.3461C11.6579 21.4522 12.3421 21.4522 13.0138 21.3461C16.1731 20.8473 18.5 18.1241 18.5 14.9256L18.5 11.05C18.5 10.8843 18.3657 10.75 18.2 10.75H5.8Z"/>
</svg>
