<svg viewBox="0 0 24 24" xmlns="http://www.w3.org/2000/svg">
<path fill-rule="evenodd" clip-rule="evenodd" d="M4.20033 8.36376L6.24957 8.136V3.91299C6.24957 3.2697 6.73963 2.73233 7.38019 2.6732C10.4532 2.38953 13.5459 2.38953 16.619 2.6732C17.2595 2.73233 17.7496 3.2697 17.7496 3.91299V8.13599L19.7989 8.36376C20.4612 8.43738 21.0076 8.91569 21.1681 9.56245C21.7241 11.8017 21.7241 14.143 21.1681 16.3823L21.0154 16.9975C20.9421 17.2927 20.6771 17.5 20.3729 17.5H17.7496V20.083C17.7496 20.705 17.2782 21.2259 16.6593 21.2877C13.5605 21.5976 10.4386 21.5976 7.33989 21.2877C6.72093 21.2259 6.24957 20.705 6.24957 20.083V17.5H3.62633C3.32214 17.5 3.05709 17.2927 2.98379 16.9975L2.83105 16.3823C2.27507 14.143 2.27507 11.8017 2.83105 9.56245C2.99163 8.91569 3.53802 8.43738 4.20033 8.36376ZM7.74957 7.99039C10.5781 7.75732 13.421 7.75731 16.2496 7.99038V4.14604C13.4216 3.89859 10.5775 3.89859 7.74957 4.14604V7.99039ZM7.74957 16.1795V19.8205C10.5767 20.0867 13.4225 20.0867 16.2496 19.8205V16.1795C13.4225 15.9132 10.5767 15.9132 7.74957 16.1795ZM17.7496 11C17.0592 11 16.4996 11.5596 16.4996 12.25C16.4996 12.9403 17.0592 13.5 17.7496 13.5C18.4399 13.5 18.9996 12.9403 18.9996 12.25C18.9996 11.5596 18.4399 11 17.7496 11Z"/>
</svg>
