<svg viewBox="0 0 24 24" xmlns="http://www.w3.org/2000/svg">
<path fill-rule="evenodd" clip-rule="evenodd" d="M3.94922 5C3.94922 4.17157 4.62079 3.5 5.44922 3.5H18.4492C19.2776 3.5 19.9492 4.17157 19.9492 5V9C19.9492 9.82843 19.2776 10.5 18.4492 10.5H5.44922C4.62079 10.5 3.94922 9.82843 3.94922 9V5ZM6.00186 7C6.00186 6.44772 6.44958 6 7.00186 6C7.55415 6 8.00186 6.44772 8.00186 7C8.00186 7.55228 7.55415 8 7.00186 8C6.44958 8 6.00186 7.55228 6.00186 7ZM10.0019 6C9.44958 6 9.00186 6.44772 9.00186 7C9.00186 7.55228 9.44958 8 10.0019 8C10.5541 8 11.0019 7.55228 11.0019 7C11.0019 6.44772 10.5541 6 10.0019 6Z"/>
<path fill-rule="evenodd" clip-rule="evenodd" d="M3.94922 13C3.94922 12.1716 4.62079 11.5 5.44922 11.5H18.4492C19.2776 11.5 19.9492 12.1716 19.9492 13V17C19.9492 17.8284 19.2776 18.5 18.4492 18.5H12.7519V20.25H19.0019C19.4161 20.25 19.7519 20.5858 19.7519 21C19.7519 21.4142 19.4161 21.75 19.0019 21.75H5.00186C4.58765 21.75 4.25186 21.4142 4.25186 21C4.25186 20.5858 4.58765 20.25 5.00186 20.25H11.2519V18.5H5.44922C4.62079 18.5 3.94922 17.8284 3.94922 17V13ZM6.00186 15C6.00186 14.4477 6.44958 14 7.00186 14C7.55415 14 8.00186 14.4477 8.00186 15C8.00186 15.5523 7.55415 16 7.00186 16C6.44958 16 6.00186 15.5523 6.00186 15ZM9.00186 15C9.00186 14.4477 9.44958 14 10.0019 14C10.5541 14 11.0019 14.4477 11.0019 15C11.0019 15.5523 10.5541 16 10.0019 16C9.44958 16 9.00186 15.5523 9.00186 15Z"/>
</svg>
