<svg viewBox="0 0 24 24" xmlns="http://www.w3.org/2000/svg">
<path fill-rule="evenodd" clip-rule="evenodd" d="M6.96663 5.81396C9.3194 5.60359 11.687 5.62195 14.0363 5.86878L14.644 5.93264C15.8039 6.05451 16.7375 6.93433 16.9317 8.07943L20.21 6.33767C20.4322 6.21964 20.6987 6.22085 20.9198 6.34091C21.1409 6.46097 21.2871 6.68388 21.309 6.9345L21.3339 7.21834C21.6129 10.4 21.6129 13.6 21.3339 16.7817L21.309 17.0655C21.2871 17.3161 21.1409 17.539 20.9198 17.6591C20.6987 17.7791 20.4322 17.7804 20.21 17.6623L16.9317 15.9206C16.7375 17.0657 15.8039 17.9455 14.644 18.0674L14.0363 18.1312C11.687 18.3781 9.31941 18.3964 6.96663 18.1861L5.38484 18.0446C4.19295 17.9381 3.22992 17.0275 3.05681 15.8434C2.68419 13.2947 2.68419 10.7053 3.05681 8.15658C3.22992 6.97251 4.19294 6.06196 5.38484 5.95539L6.96663 5.81396ZM17.1167 14.3666C17.1969 14.3792 17.2764 14.4052 17.3522 14.4454L19.9072 15.8029C20.0885 13.2709 20.0885 10.7291 19.9072 8.19714L17.3522 9.55459C17.2764 9.59483 17.1969 9.62078 17.1167 9.63338C17.2568 11.208 17.2568 12.792 17.1167 14.3666Z"/>
</svg>
