<svg viewBox="0 0 24 24" xmlns="http://www.w3.org/2000/svg">
<path fill-rule="evenodd" clip-rule="evenodd" d="M7.57347 7.24021L7.65736 3.67376C7.67326 2.99788 8.11988 2.40801 8.7661 2.20939C10.8734 1.56171 13.1266 1.56171 15.2339 2.20939C15.8801 2.40801 16.3268 2.99788 16.3427 3.67376L16.4266 7.24023C17.3037 8.0563 17.9549 9.11188 18.2762 10.3029C18.3628 9.98432 18.654 9.75006 19 9.75006C19.4142 9.75006 19.75 10.0858 19.75 10.5001V13.5001C19.75 13.9143 19.4142 14.2501 19 14.2501C18.654 14.2501 18.3628 14.0158 18.2762 13.6973C17.9549 14.8882 17.3037 15.9438 16.4266 16.7599L16.3427 20.3264C16.3268 21.0023 15.8801 21.5921 15.2339 21.7907C13.1266 22.4384 10.8734 22.4384 8.7661 21.7907C8.11988 21.5921 7.67326 21.0023 7.65736 20.3264L7.57347 16.7599C6.29789 15.5731 5.5 13.8798 5.5 12.0001C5.5 10.1203 6.29789 8.427 7.57347 7.24021ZM9.20679 3.6432C11.0269 3.08378 12.9731 3.08378 14.7932 3.6432C14.8223 3.65213 14.8424 3.67865 14.8431 3.70903L14.9012 6.18187C14.0279 5.74555 13.0426 5.50006 12 5.50006C10.9574 5.50006 9.97209 5.74554 9.09878 6.18186L9.15695 3.70903C9.15766 3.67865 9.17774 3.65213 9.20679 3.6432ZM9.09878 17.8183L9.15695 20.2911C9.15766 20.3215 9.17774 20.348 9.20679 20.3569C11.0269 20.9164 12.9731 20.9164 14.7932 20.3569C14.8223 20.348 14.8424 20.3215 14.8431 20.2911L14.9012 17.8183C14.0279 18.2546 13.0426 18.5001 12 18.5001C10.9574 18.5001 9.97209 18.2546 9.09878 17.8183ZM9.70189 14.2982C9.409 14.0053 8.93412 14.0053 8.64123 14.2982C8.34834 14.5911 8.34834 15.0659 8.64123 15.3588C10.4962 17.2138 13.5038 17.2138 15.3587 15.3588C15.6516 15.0659 15.6516 14.5911 15.3587 14.2982C15.0659 14.0053 14.591 14.0053 14.2981 14.2982C13.0289 15.5674 10.9711 15.5674 9.70189 14.2982Z"/>
</svg>
