<svg   viewBox="0 0 32 32" fill="none" xmlns="http://www.w3.org/2000/svg">
<path d="M16 20.9995C18.7614 20.9995 21 18.7609 21 15.9995C21 13.2381 18.7614 10.9995 16 10.9995C13.2386 10.9995 11 13.2381 11 15.9995C11 18.7609 13.2386 20.9995 16 20.9995Z" stroke="black" stroke-width="2" stroke-linecap="round" stroke-linejoin="round"/>
<path d="M22.6372 25.9995C20.4094 27.4781 17.7516 28.1703 15.0856 27.9663C12.4196 27.7624 9.89801 26.6739 7.92102 24.8737C5.94403 23.0735 4.62484 20.6646 4.17278 18.0293C3.72072 15.394 4.16168 12.6831 5.42569 10.327C6.6897 7.97079 8.70436 6.10422 11.15 5.02341C13.5956 3.94261 16.3322 3.70948 18.9254 4.36103C21.5186 5.01257 23.82 6.51147 25.4643 8.61988C27.1087 10.7283 28.0018 13.3255 28.002 15.9993C28.002 18.7607 27.002 20.9993 24.502 20.9993C22.002 20.9993 21.002 18.7607 21.002 15.9993V10.9993" stroke="black" stroke-width="2" stroke-linecap="round" stroke-linejoin="round"/>
</svg>
