<svg viewBox="0 0 32 32" xmlns="http://www.w3.org/2000/svg">
<path d="M16 20C18.2091 20 20 18.2091 20 16C20 13.7909 18.2091 12 16 12C13.7909 12 12 13.7909 12 16C12 18.2091 13.7909 20 16 20Z" stroke-width="2" stroke-linecap="round" stroke-linejoin="round"/>
<path d="M9.63922 22.3639C8.80258 21.5287 8.13884 20.5367 7.68597 19.4447C7.2331 18.3527 7 17.1821 7 15.9999C7 14.8178 7.2331 13.6472 7.68597 12.5552C8.13884 11.4632 8.80258 10.4712 9.63922 9.63599" stroke-width="2" stroke-linecap="round" stroke-linejoin="round"/>
<path d="M22.3672 9.63599C23.2038 10.4712 23.8676 11.4632 24.3204 12.5552C24.7733 13.6472 25.0064 14.8178 25.0064 15.9999C25.0064 17.1821 24.7733 18.3527 24.3204 19.4447C23.8676 20.5367 23.2038 21.5287 22.3672 22.3639" stroke-width="2" stroke-linecap="round" stroke-linejoin="round"/>
<path d="M6.09765 25.8996C4.7962 24.6004 3.76371 23.0573 3.05925 21.3586C2.35479 19.6599 1.99219 17.839 1.99219 16.0001C1.99219 14.1611 2.35479 12.3402 3.05925 10.6416C3.76371 8.9429 4.7962 7.39981 6.09765 6.10059" stroke-width="2" stroke-linecap="round" stroke-linejoin="round"/>
<path d="M25.8984 6.10059C27.1999 7.39981 28.2324 8.9429 28.9368 10.6416C29.6413 12.3402 30.0039 14.1611 30.0039 16.0001C30.0039 17.839 29.6413 19.6599 28.9368 21.3586C28.2324 23.0573 27.1999 24.6004 25.8984 25.8996" stroke-width="2" stroke-linecap="round" stroke-linejoin="round"/>
</svg>
