<svg viewBox="0 0 32 32" xmlns="http://www.w3.org/2000/svg">
<path d="M9.66887 25.2345L5.64348 28.6184C5.49771 28.741 5.31998 28.8193 5.1312 28.8443C4.94241 28.8693 4.75042 28.8399 4.57779 28.7595C4.40516 28.6791 4.25908 28.551 4.15673 28.3905C4.05437 28.2299 4 28.0434 4 27.853V8C4 7.73478 4.10536 7.48043 4.29289 7.29289C4.48043 7.10536 4.73478 7 5 7H27C27.2652 7 27.5196 7.10536 27.7071 7.29289C27.8946 7.48043 28 7.73478 28 8V24C28 24.2652 27.8946 24.5196 27.7071 24.7071C27.5196 24.8946 27.2652 25 27 25H10.3123C10.0769 25 9.84907 25.0831 9.66887 25.2345Z" stroke-width="2" stroke-linecap="round" stroke-linejoin="round"/>
</svg>
