<svg viewBox="0 0 32 32" xmlns="http://www.w3.org/2000/svg">
<path d="M4 6.33325V23.6666C4 23.8218 4.03614 23.9749 4.10557 24.1138C4.175 24.2527 4.2758 24.3734 4.4 24.4666C4.5242 24.5597 4.66837 24.6227 4.82111 24.6505C4.97386 24.6782 5.13096 24.6701 5.28 24.6266L27.28 18.2099C27.4877 18.1493 27.6702 18.023 27.8 17.8499C27.9298 17.6768 28 17.4663 28 17.2499V12.7499C28 12.5335 27.9298 12.323 27.8 12.1499C27.6702 11.9768 27.4877 11.8505 27.28 11.7899L5.28 5.37325C5.13096 5.32978 4.97386 5.32161 4.82111 5.34938C4.66837 5.37715 4.5242 5.4401 4.4 5.53325C4.2758 5.6264 4.175 5.74718 4.10557 5.88604C4.03614 6.02489 4 6.17801 4 6.33325V6.33325Z" stroke-width="2" stroke-linecap="round" stroke-linejoin="round"/>
<path d="M23 19.4582V24.0001C23 24.2653 22.8946 24.5197 22.7071 24.7072C22.5196 24.8948 22.2652 25.0001 22 25.0001H18C17.7348 25.0001 17.4804 24.8948 17.2929 24.7072C17.1054 24.5197 17 24.2653 17 24.0001V8.79199" stroke-width="2" stroke-linecap="round" stroke-linejoin="round"/>
</svg>
