<svg viewBox="0 0 32 32" xmlns="http://www.w3.org/2000/svg">
<path d="M19 10V25.4648C19 25.6294 19.0406 25.7915 19.1183 25.9367C19.196 26.0818 19.3083 26.2055 19.4453 26.2969L20.8193 27.2129C20.9527 27.3018 21.1054 27.3573 21.2647 27.3748C21.424 27.3924 21.5851 27.3713 21.7346 27.3135C21.8841 27.2558 22.0175 27.1629 22.1236 27.0428C22.2296 26.9227 22.3053 26.7788 22.3442 26.6234L24 20" stroke-width="2" stroke-linecap="round" stroke-linejoin="round"/>
<path d="M24 20.0001C25.3261 20.0001 26.5979 19.4733 27.5355 18.5356C28.4732 17.5979 29 16.3261 29 15.0001C29 13.674 28.4732 12.4022 27.5355 11.4645C26.5979 10.5268 25.3261 10.0001 24 10.0001H19C19 10.0001 12.1935 10.0001 5.64362 4.50661C5.49795 4.384 5.32029 4.30554 5.13155 4.28045C4.94281 4.25536 4.75083 4.28468 4.57819 4.36498C4.40554 4.44527 4.25942 4.57319 4.15699 4.73369C4.05457 4.8942 4.0001 5.08061 4 5.27101V24.7291C4.0001 24.9195 4.05457 25.1059 4.15699 25.2664C4.25942 25.4269 4.40554 25.5549 4.57819 25.6351C4.75083 25.7154 4.94281 25.7448 5.13155 25.7197C5.32029 25.6946 5.49795 25.6161 5.64362 25.4935C12.1935 20.0001 19 20.0001 19 20.0001H24Z" stroke-width="2" stroke-linecap="round" stroke-linejoin="round"/>
</svg>
