<svg   viewBox="0 0 32 32" fill="none" xmlns="http://www.w3.org/2000/svg">
<path d="M26.2851 4.48482L2.99416 11.0541C2.79822 11.1093 2.62382 11.2231 2.49426 11.3801C2.3647 11.5372 2.28616 11.73 2.26913 11.9329C2.2521 12.1358 2.2974 12.339 2.39897 12.5154C2.50055 12.6919 2.65355 12.8331 2.83754 12.9203L13.5389 17.9893C13.7476 18.0882 13.9157 18.2562 14.0145 18.465L19.0836 29.1663C19.1708 29.3503 19.312 29.5033 19.4884 29.6049C19.6649 29.7065 19.8681 29.7518 20.071 29.7347C20.2738 29.7177 20.4667 29.6392 20.6237 29.5096C20.7808 29.38 20.8945 29.2056 20.9498 29.0097L27.519 5.71873C27.5673 5.54764 27.5691 5.36678 27.5242 5.19478C27.4793 5.02278 27.3894 4.86585 27.2637 4.74016C27.138 4.61446 26.9811 4.52455 26.8091 4.47966C26.6371 4.43478 26.4562 4.43656 26.2851 4.48482Z" stroke="black" stroke-width="2" stroke-linecap="round" stroke-linejoin="round"/>
<path d="M13.8594 18.1422L19.5162 12.4854" stroke="black" stroke-width="2" stroke-linecap="round" stroke-linejoin="round"/>
</svg>
