<svg   viewBox="0 0 32 32" fill="none" xmlns="http://www.w3.org/2000/svg">
<path d="M27.4389 15.1276L6.32454 3.30352C6.14691 3.20405 5.94315 3.16116 5.74049 3.18059C5.53784 3.20002 5.34594 3.28085 5.19045 3.41226C5.03495 3.54367 4.92328 3.71941 4.87034 3.916C4.8174 4.11258 4.82572 4.32064 4.8942 4.51236L8.87683 15.6637C8.95451 15.8812 8.95451 16.1189 8.87683 16.3364L4.8942 27.4878C4.82572 27.6795 4.8174 27.8876 4.87034 28.0841C4.92328 28.2807 5.03495 28.4565 5.19045 28.5879C5.34594 28.7193 5.53784 28.8001 5.7405 28.8195C5.94315 28.839 6.14691 28.7961 6.32454 28.6966L27.4389 16.8726C27.594 16.7857 27.7231 16.6591 27.813 16.5057C27.9029 16.3524 27.9503 16.1778 27.9503 16.0001C27.9503 15.8223 27.9029 15.6478 27.813 15.4944C27.7231 15.341 27.594 15.2144 27.4389 15.1276V15.1276Z" stroke="black" stroke-width="2" stroke-linecap="round" stroke-linejoin="round"/>
<path d="M9 16H17" stroke="black" stroke-width="2" stroke-linecap="round" stroke-linejoin="round"/>
</svg>
