<svg viewBox="0 0 32 32" xmlns="http://www.w3.org/2000/svg">
<path d="M15.1156 4.55803L3.29156 25.6724C3.19208 25.85 3.1492 26.0538 3.16863 26.2564C3.18806 26.4591 3.26888 26.651 3.4003 26.8065C3.53171 26.962 3.70745 27.0737 3.90404 27.1266C4.10062 27.1795 4.30868 27.1712 4.50041 27.1027L15.6518 23.1201C15.8693 23.0424 16.107 23.0424 16.3245 23.1201L27.4758 27.1027C27.6676 27.1712 27.8756 27.1795 28.0722 27.1266C28.2688 27.0737 28.4445 26.962 28.5759 26.8065C28.7073 26.651 28.7882 26.4591 28.8076 26.2564C28.827 26.0538 28.7841 25.85 28.6847 25.6724L16.8606 4.55803C16.7738 4.40293 16.6471 4.27379 16.4938 4.1839C16.3404 4.09401 16.1659 4.04663 15.9881 4.04663C15.8103 4.04663 15.6358 4.09401 15.4824 4.1839C15.3291 4.27379 15.2025 4.40293 15.1156 4.55803V4.55803Z" stroke-width="2" stroke-linecap="round" stroke-linejoin="round"/>
<path d="M15.9844 23V15" stroke-width="2" stroke-linecap="round" stroke-linejoin="round"/>
</svg>
