<svg   viewBox="0 0 32 32" fill="none" xmlns="http://www.w3.org/2000/svg">
<path d="M19.4184 12.6563C17.1854 11.8903 14.7599 11.8958 12.5304 12.672C12.3683 12.7299 12.2241 12.8289 12.1119 12.9594C11.9998 13.0899 11.9236 13.2474 11.8908 13.4163L11.1535 17.1048C11.1209 17.2679 11.0481 17.4203 10.9417 17.5482C10.8353 17.6761 10.6987 17.7755 10.5443 17.8372L4.63019 20.2029C4.42982 20.2838 4.20859 20.2973 3.99983 20.2416C3.79107 20.1858 3.60609 20.0637 3.47276 19.8936C2.57971 18.7389 2.13819 17.2982 2.23086 15.8414C2.32354 14.3846 2.94405 13.0115 3.97621 11.9792C7.16433 8.79106 11.4883 7 15.997 7C20.5057 7 24.8297 8.79106 28.0178 11.9792C29.05 13.0115 29.6705 14.3846 29.7632 15.8414C29.8559 17.2982 29.4143 18.7389 28.5213 19.8936C28.388 20.0637 28.203 20.1858 27.9942 20.2416C27.7855 20.2973 27.5642 20.2838 27.3639 20.2029L21.4446 17.8352C21.2915 17.7739 21.1559 17.6758 21.05 17.5495C20.944 17.4231 20.8709 17.2726 20.8371 17.1111L20.0608 13.3939C20.0267 13.2259 19.9495 13.0696 19.8369 12.9403C19.7243 12.8111 19.5801 12.7132 19.4184 12.6563Z" stroke="black" stroke-width="2" stroke-linecap="round" stroke-linejoin="round"/>
<path d="M5 25H27" stroke="black" stroke-width="2" stroke-linecap="round" stroke-linejoin="round"/>
</svg>
