<svg viewBox="0 0 32 32" xmlns="http://www.w3.org/2000/svg">
<path d="M6 5L26 27" stroke-width="2" stroke-linecap="round" stroke-linejoin="round"/>
<path d="M14.3714 14.2117C13.7451 14.3092 13.1289 14.4633 12.5304 14.672C12.3683 14.7299 12.2241 14.8289 12.1119 14.9595C11.9998 15.09 11.9236 15.2474 11.8908 15.4164L11.1535 19.1048C11.1209 19.2679 11.0481 19.4203 10.9417 19.5482C10.8353 19.6761 10.6987 19.7755 10.5443 19.8373L4.63019 22.2029C4.42982 22.2838 4.20859 22.2974 3.99983 22.2416C3.79107 22.1858 3.60609 22.0637 3.47276 21.8937C2.57971 20.7389 2.13819 19.2983 2.23086 17.8414C2.32354 16.3846 2.94405 15.0115 3.97621 13.9792C5.80222 12.1479 8.02347 10.7592 10.4695 9.91968" stroke-width="2" stroke-linecap="round" stroke-linejoin="round"/>
<path d="M15.0625 9.02558C17.4491 8.89156 19.837 9.2636 22.0697 10.1173C24.3023 10.971 26.3293 12.2871 28.0176 13.9792C29.0498 15.0115 29.6703 16.3846 29.763 17.8414C29.8556 19.2983 29.4141 20.739 28.5211 21.8937C28.3877 22.0637 28.2028 22.1858 27.994 22.2416C27.7852 22.2974 27.564 22.2838 27.3636 22.2029L26.8575 22.0005" stroke-width="2" stroke-linecap="round" stroke-linejoin="round"/>
</svg>
