<svg   viewBox="0 0 32 32" fill="none" xmlns="http://www.w3.org/2000/svg">
<path d="M13.5 18H5C4.73478 18 4.48043 17.8946 4.29289 17.7071C4.10536 17.5196 4 17.2652 4 17V9C4 8.73478 4.10536 8.48043 4.29289 8.29289C4.48043 8.10536 4.73478 8 5 8H12.5C12.7652 8 13.0196 8.10536 13.2071 8.29289C13.3946 8.48043 13.5 8.73478 13.5 9V20C13.5 21.3261 12.9732 22.5979 12.0355 23.5355C11.0979 24.4732 9.82608 25 8.5 25" stroke="black" stroke-width="2" stroke-linecap="round" stroke-linejoin="round"/>
<path d="M28 18H19.5C19.2348 18 18.9804 17.8946 18.7929 17.7071C18.6054 17.5196 18.5 17.2652 18.5 17V9C18.5 8.73478 18.6054 8.48043 18.7929 8.29289C18.9804 8.10536 19.2348 8 19.5 8H27C27.2652 8 27.5196 8.10536 27.7071 8.29289C27.8946 8.48043 28 8.73478 28 9V20C28 21.3261 27.4732 22.5979 26.5355 23.5355C25.5979 24.4732 24.3261 25 23 25" stroke="black" stroke-width="2" stroke-linecap="round" stroke-linejoin="round"/>
</svg>
