<svg viewBox="0 0 32 32" xmlns="http://www.w3.org/2000/svg">
<path d="M6 18C8.12173 18 10.1566 18.8429 11.6569 20.3431C13.1571 21.8434 14 23.8783 14 26" stroke-width="2" stroke-linecap="round" stroke-linejoin="round"/>
<path d="M6 12C9.71303 12 13.274 13.475 15.8995 16.1005C18.525 18.726 20 22.287 20 26" stroke-width="2" stroke-linecap="round" stroke-linejoin="round"/>
<path d="M6 6C11.3043 6 16.3914 8.10714 20.1421 11.8579C23.8929 15.6086 26 20.6957 26 26" stroke-width="2" stroke-linecap="round" stroke-linejoin="round"/>
<path d="M6.5 27C7.32843 27 8 26.3284 8 25.5C8 24.6716 7.32843 24 6.5 24C5.67157 24 5 24.6716 5 25.5C5 26.3284 5.67157 27 6.5 27Z"/>
</svg>
