<svg   viewBox="0 0 32 32" fill="none" xmlns="http://www.w3.org/2000/svg">
<path d="M7 6C12.0391 6 16.8718 8.00178 20.435 11.565C23.9982 15.1282 26 19.9609 26 25" stroke="black" stroke-width="2" stroke-linecap="round" stroke-linejoin="round"/>
<path d="M7 15C8.31322 15 9.61358 15.2587 10.8268 15.7612C12.0401 16.2638 13.1425 17.0003 14.0711 17.9289C14.9997 18.8575 15.7362 19.9599 16.2388 21.1732C16.7413 22.3864 17 23.6868 17 25" stroke="black" stroke-width="2" stroke-linecap="round" stroke-linejoin="round"/>
<path d="M7 26.5C7.82843 26.5 8.5 25.8284 8.5 25C8.5 24.1716 7.82843 23.5 7 23.5C6.17157 23.5 5.5 24.1716 5.5 25C5.5 25.8284 6.17157 26.5 7 26.5Z" fill="black"/>
</svg>
