<svg   viewBox="0 0 32 32" fill="none" xmlns="http://www.w3.org/2000/svg">
<path d="M4 6H10V19H4C3.73478 19 3.48043 18.8946 3.29289 18.7071C3.10536 18.5196 3 18.2652 3 18V7C3 6.73478 3.10536 6.48043 3.29289 6.29289C3.48043 6.10536 3.73478 6 4 6V6Z" stroke="black" stroke-width="2" stroke-linecap="round" stroke-linejoin="round"/>
<path d="M10 19L15 29C15.5253 29 16.0454 28.8965 16.5307 28.6955C17.016 28.4945 17.457 28.1999 17.8284 27.8284C18.1999 27.457 18.4945 27.016 18.6955 26.5307C18.8965 26.0454 19 25.5253 19 25V22H26.7344C27.018 22 27.2984 21.9397 27.5569 21.8231C27.8154 21.7065 28.0461 21.5362 28.2338 21.3236C28.4215 21.111 28.5618 20.8609 28.6454 20.59C28.7291 20.319 28.7542 20.0333 28.719 19.7519L27.219 7.75193C27.1585 7.26822 26.9235 6.82325 26.558 6.50064C26.1926 6.17803 25.7219 6 25.2344 6H10" stroke="black" stroke-width="2" stroke-linecap="round" stroke-linejoin="round"/>
</svg>
