<svg   viewBox="0 0 32 32" fill="none" xmlns="http://www.w3.org/2000/svg">
<path d="M24 3H12C11.4698 3.00061 10.9614 3.21151 10.5865 3.58646C10.2115 3.9614 10.0006 4.46975 10 5V7H8C7.46975 7.00061 6.9614 7.21151 6.58646 7.58646C6.21151 7.9614 6.00061 8.46975 6 9V28C6.00001 28.1837 6.05063 28.3639 6.14633 28.5208C6.24202 28.6776 6.37908 28.8051 6.54246 28.8892C6.70583 28.9732 6.88922 29.0107 7.07248 28.9974C7.25573 28.9841 7.43178 28.9205 7.5813 28.8137L13.9991 24.2289L20.4188 28.8137C20.5683 28.9205 20.7444 28.9841 20.9276 28.9974C21.1109 29.0107 21.2943 28.9732 21.4576 28.8892C21.621 28.8051 21.758 28.6776 21.8537 28.5208C21.9494 28.3639 22 28.1837 22 28V23.0862L24.4188 24.8137C24.5683 24.9205 24.7444 24.9841 24.9276 24.9974C25.1109 25.0107 25.2943 24.9732 25.4576 24.8892C25.621 24.8051 25.758 24.6776 25.8537 24.5208C25.9494 24.3639 26 24.1837 26 24V5C25.9994 4.46975 25.7885 3.9614 25.4135 3.58646C25.0386 3.21151 24.5302 3.00061 24 3V3ZM24 22.0569L22 20.6285V9C21.9994 8.46975 21.7885 7.9614 21.4135 7.58646C21.0386 7.21151 20.5302 7.00061 20 7H12V5H24V22.0569Z" fill="black"/>
</svg>
