<svg viewBox="0 0 32 32" xmlns="http://www.w3.org/2000/svg">
<path d="M27 4V24C27 24.2652 26.8946 24.5196 26.7071 24.7071C26.5196 24.8946 26.2652 25 26 25H9C8.46975 25.0006 7.9614 25.2115 7.58646 25.5865C7.21151 25.9614 7.00061 26.4698 7 27H24C24.2652 27 24.5196 27.1054 24.7071 27.2929C24.8946 27.4804 25 27.7348 25 28C25 28.2652 24.8946 28.5196 24.7071 28.7071C24.5196 28.8946 24.2652 29 24 29H6C5.73479 29 5.48044 28.8946 5.29291 28.7071C5.10537 28.5196 5.00001 28.2652 5 28V7C5.00121 5.93951 5.42303 4.9228 6.17291 4.17291C6.9228 3.42303 7.93951 3.00121 9 3H26C26.2652 3.00001 26.5196 3.10537 26.7071 3.29291C26.8946 3.48044 27 3.73479 27 4V4Z"/>
</svg>
