<svg   viewBox="0 0 32 32" fill="none" xmlns="http://www.w3.org/2000/svg">
<path d="M20 7H8C7.46975 7.00061 6.9614 7.21151 6.58646 7.58646C6.21151 7.9614 6.00061 8.46975 6 9V28C6.00001 28.1837 6.05063 28.3639 6.14633 28.5208C6.24202 28.6776 6.37908 28.8051 6.54246 28.8892C6.70583 28.9732 6.88922 29.0107 7.07248 28.9974C7.25573 28.9841 7.43178 28.9205 7.5813 28.8137L13.9991 24.2289L20.4188 28.8137C20.5683 28.9205 20.7444 28.9841 20.9276 28.9974C21.1109 29.0107 21.2943 28.9732 21.4576 28.8892C21.621 28.8051 21.758 28.6776 21.8537 28.5208C21.9494 28.3639 22 28.1837 22 28V9C21.9994 8.46975 21.7885 7.9614 21.4135 7.58646C21.0386 7.21151 20.5302 7.00061 20 7V7Z" fill="black"/>
<path d="M24 3H11C10.7348 3 10.4804 3.10536 10.2929 3.29289C10.1054 3.48043 10 3.73478 10 4C10 4.26522 10.1054 4.51957 10.2929 4.70711C10.4804 4.89464 10.7348 5 11 5H24V24C24 24.2652 24.1054 24.5196 24.2929 24.7071C24.4804 24.8946 24.7348 25 25 25C25.2652 25 25.5196 24.8946 25.7071 24.7071C25.8946 24.5196 26 24.2652 26 24V5C25.9994 4.46975 25.7885 3.9614 25.4135 3.58646C25.0386 3.21151 24.5302 3.00061 24 3V3Z" fill="black"/>
</svg>
