<svg viewBox="0 0 32 32" xmlns="http://www.w3.org/2000/svg">
<path d="M12 26C12.7954 26.0009 13.5579 26.3173 14.1203 26.8797C14.6827 27.4421 14.9991 28.2046 15 29C15 29.2652 15.1054 29.5196 15.2929 29.7071C15.4804 29.8946 15.7348 30 16 30C16.2652 30 16.5196 29.8946 16.7071 29.7071C16.8946 29.5196 17 29.2652 17 29C17.0009 28.2046 17.3173 27.4421 17.8797 26.8797C18.4421 26.3173 19.2046 26.0009 20 26H28C28.5302 25.9994 29.0386 25.7885 29.4135 25.4135C29.7885 25.0386 29.9994 24.5302 30 24V8C29.9994 7.46975 29.7885 6.9614 29.4135 6.58646C29.0386 6.21151 28.5302 6.00061 28 6H22C20.6744 6.00151 19.4035 6.52877 18.4661 7.46613C17.5288 8.40348 17.0015 9.67438 17 11V21C17 21.2652 16.8946 21.5196 16.7071 21.7071C16.5196 21.8946 16.2652 22 16 22C15.7348 22 15.4804 21.8946 15.2929 21.7071C15.1054 21.5196 15 21.2652 15 21V11C14.9985 9.67438 14.4712 8.40348 13.5339 7.46613C12.5965 6.52877 11.3256 6.00151 10 6H4C3.46975 6.00061 2.9614 6.21151 2.58646 6.58646C2.21151 6.9614 2.00061 7.46975 2 8V24C2.00061 24.5302 2.21151 25.0386 2.58646 25.4135C2.9614 25.7885 3.46975 25.9994 4 26H12Z"/>
</svg>
