<svg   viewBox="0 0 32 32" fill="none" xmlns="http://www.w3.org/2000/svg">
<path d="M26 3H9C7.93951 3.00121 6.9228 3.42303 6.17291 4.17291C5.42303 4.9228 5.00121 5.93951 5 7V28C5.00001 28.2652 5.10537 28.5196 5.29291 28.7071C5.48044 28.8946 5.73479 29 6 29H24C24.2652 29 24.5196 28.8946 24.7071 28.7071C24.8946 28.5196 25 28.2652 25 28C25 27.7348 24.8946 27.4804 24.7071 27.2929C24.5196 27.1054 24.2652 27 24 27H7C7.00061 26.4698 7.21151 25.9614 7.58646 25.5865C7.9614 25.2115 8.46975 25.0006 9 25H26C26.2652 25 26.5196 24.8946 26.7071 24.7071C26.8946 24.5196 27 24.2652 27 24V4C27 3.73479 26.8946 3.48044 26.7071 3.29291C26.5196 3.10537 26.2652 3.00001 26 3V3ZM23 15.0001L19.7989 12.6C19.7124 12.5351 19.6071 12.5 19.499 12.5C19.3908 12.5 19.2855 12.5351 19.199 12.6L16 14.9999V5H23V15.0001Z" fill="black"/>
</svg>
