<svg viewBox="0 0 32 32" xmlns="http://www.w3.org/2000/svg">
<path d="M23 4H9C8.46975 4.00061 7.9614 4.21151 7.58646 4.58646C7.21151 4.9614 7.00061 5.46975 7 6V28C7.00001 28.1785 7.0478 28.3538 7.1384 28.5076C7.22901 28.6614 7.35913 28.7881 7.51526 28.8746C7.67138 28.9612 7.84783 29.0043 8.02627 28.9997C8.20471 28.995 8.37865 28.9426 8.53003 28.848L15.9991 24.1792L23.47 28.848C23.6214 28.9426 23.7953 28.995 23.9738 28.9997C24.1522 29.0043 24.3287 28.9612 24.4848 28.8746C24.6409 28.7881 24.771 28.6614 24.8616 28.5076C24.9522 28.3538 25 28.1785 25 28V6C24.9994 5.46975 24.7885 4.9614 24.4135 4.58646C24.0386 4.21151 23.5302 4.00061 23 4ZM16.5291 22.152C16.3701 22.0527 16.1865 22 15.9991 22C15.8116 22 15.628 22.0527 15.4691 22.152L9 26.1957V22.5543L15.9991 18.1792L23 22.5543V26.1959L16.5291 22.152Z"/>
</svg>
