<svg viewBox="0 0 32 32" xmlns="http://www.w3.org/2000/svg">
<path d="M29.2019 24.4469L24.0255 5.12829C23.8878 4.61623 23.5525 4.17973 23.0933 3.9146C22.634 3.64947 22.0884 3.57736 21.576 3.71411L17.7123 4.74939C17.6699 4.76075 17.6293 4.77554 17.5883 4.78944C17.4023 4.54433 17.1622 4.34553 16.8866 4.20859C16.6111 4.07164 16.3077 4.00025 16 4H12C11.6486 4.00009 11.3035 4.09348 11 4.27061C10.6965 4.09348 10.3514 4.00009 10 4H6C5.46975 4.0006 4.9614 4.21151 4.58646 4.58645C4.21151 4.96139 4.00061 5.46975 4 6V26C4.00061 26.5302 4.21151 27.0386 4.58646 27.4135C4.9614 27.7885 5.46975 27.9994 6 28H10C10.3514 27.9999 10.6965 27.9065 11 27.7294C11.3035 27.9065 11.6486 27.9999 12 28H16C16.5302 27.9994 17.0386 27.7885 17.4135 27.4135C17.7885 27.0386 17.9994 26.5302 18 26V13.5504L21.4745 26.5173C21.5423 26.7711 21.6595 27.009 21.8194 27.2175C21.9792 27.4259 22.1786 27.6008 22.4061 27.7321C22.6336 27.8635 22.8847 27.9487 23.1452 27.983C23.4056 28.0172 23.6702 27.9997 23.924 27.9316L27.7877 26.8964C28.2997 26.7585 28.7362 26.4232 29.0013 25.964C29.2664 25.5048 29.3386 24.9592 29.2019 24.4469V24.4469ZM22.0936 5.64587L22.8703 8.54367L19.0064 9.57898L18.23 6.68127L22.0936 5.64587ZM16 6L16.0009 21H12V6H16ZM10 6V9H6V6H10ZM16 26H12V23H16.001L16.0012 26H16ZM27.27 24.9645L23.4063 25.9998L22.6299 23.102L26.4946 22.0664L27.2712 24.9641L27.27 24.9645Z"/>
</svg>
