<svg viewBox="0 0 32 32" xmlns="http://www.w3.org/2000/svg">
<path d="M30 24H29V7C28.9994 6.46975 28.7885 5.9614 28.4135 5.58646C28.0386 5.21151 27.5302 5.00061 27 5H5C4.46975 5.00061 3.9614 5.21151 3.58646 5.58646C3.21151 5.9614 3.00061 6.46975 3 7V24H2C1.73478 24 1.48043 24.1054 1.29289 24.2929C1.10536 24.4804 1 24.7348 1 25C1 25.2652 1.10536 25.5196 1.29289 25.7071C1.48043 25.8946 1.73478 26 2 26H30C30.2652 26 30.5196 25.8946 30.7071 25.7071C30.8946 25.5196 31 25.2652 31 25C31 24.7348 30.8946 24.4804 30.7071 24.2929C30.5196 24.1054 30.2652 24 30 24ZM27 24H18V22C18 21.8687 18.0259 21.7386 18.0761 21.6173C18.1264 21.496 18.2 21.3857 18.2929 21.2929C18.3857 21.2 18.496 21.1264 18.6173 21.0761C18.7386 21.0259 18.8687 21 19 21H26C26.1313 21 26.2614 21.0259 26.3827 21.0761C26.504 21.1264 26.6143 21.2 26.7071 21.2929C26.8 21.3857 26.8736 21.496 26.9239 21.6173C26.9741 21.7386 27 21.8687 27 22V24ZM27 18C27 18.2652 26.8946 18.5196 26.7071 18.7071C26.5196 18.8946 26.2652 19 26 19C25.7348 19 25.4804 18.8946 25.2929 18.7071C25.1054 18.5196 25 18.2652 25 18V9H7V23C7 23.2652 6.89464 23.5196 6.70711 23.7071C6.51957 23.8946 6.26522 24 6 24C5.73478 24 5.48043 23.8946 5.29289 23.7071C5.10536 23.5196 5 23.2652 5 23V8C5 7.73478 5.10536 7.48043 5.2929 7.2929C5.48043 7.10536 5.73478 7 6 7H26C26.2652 7 26.5196 7.10536 26.7071 7.2929C26.8946 7.48043 27 7.73478 27 8V18Z"/>
</svg>
