<svg viewBox="0 0 32 32" xmlns="http://www.w3.org/2000/svg">
<path d="M27 5H5C4.46975 5.00061 3.9614 5.21151 3.58646 5.58646C3.21151 5.9614 3.00061 6.46975 3 7V25.0001C3 25.2628 3.05174 25.5228 3.15226 25.7655C3.25278 26.0082 3.40011 26.2286 3.58584 26.4143C3.77157 26.6 3.99207 26.7473 4.23473 26.8478C4.4774 26.9483 4.73748 27 5.00012 27L6.67383 26.9998C6.86293 26.9998 7.04815 26.9461 7.208 26.8451C7.36784 26.7441 7.49576 26.5998 7.57691 26.429C8.06389 25.4029 8.83196 24.5361 9.7919 23.9291C10.7518 23.3222 11.8643 23 13 23C14.1357 23 15.2482 23.3222 16.2081 23.9291C17.168 24.5361 17.9361 25.4029 18.4231 26.429C18.5043 26.5998 18.6322 26.7441 18.7921 26.8451C18.9519 26.9462 19.1372 26.9998 19.3263 26.9998L27 27C27.5302 26.9994 28.0386 26.7885 28.4135 26.4135C28.7885 26.0386 28.9994 25.5302 29 25V7C28.9994 6.46975 28.7885 5.9614 28.4135 5.58646C28.0386 5.21151 27.5302 5.00061 27 5ZM13 21C12.2089 21 11.4355 20.7654 10.7777 20.3259C10.1199 19.8864 9.60723 19.2616 9.30448 18.5307C9.00173 17.7998 8.92252 16.9956 9.07686 16.2196C9.2312 15.4437 9.61216 14.731 10.1716 14.1716C10.731 13.6122 11.4437 13.2312 12.2196 13.0769C12.9956 12.9225 13.7998 13.0017 14.5307 13.3045C15.2616 13.6072 15.8864 14.1199 16.3259 14.7777C16.7654 15.4355 17 16.2089 17 17C16.9988 18.0605 16.577 19.0772 15.8271 19.8271C15.0772 20.577 14.0605 20.9988 13 21ZM27 25L19.9292 24.9998C19.493 24.2481 18.937 23.5726 18.2832 23H24C24.2652 23 24.5196 22.8946 24.7071 22.7071C24.8946 22.5196 25 22.2652 25 22V10C25 9.73478 24.8946 9.48043 24.7071 9.2929C24.5196 9.10536 24.2652 9 24 9H8C7.73478 9 7.48043 9.10536 7.2929 9.2929C7.10536 9.48043 7 9.73478 7 10V22C7.00014 22.2222 7.07431 22.438 7.21078 22.6133C7.34725 22.7886 7.53825 22.9135 7.7536 22.9681C7.08395 23.5475 6.51526 24.2341 6.0708 24.9999L5 25.0001V7H27V25Z"/>
</svg>
