<svg   viewBox="0 0 32 32" fill="none" xmlns="http://www.w3.org/2000/svg">
<path d="M30 24H29V7C28.9994 6.46975 28.7885 5.9614 28.4135 5.58646C28.0386 5.21151 27.5302 5.00061 27 5H5C4.46975 5.00061 3.9614 5.21151 3.58646 5.58646C3.21151 5.9614 3.00061 6.46975 3 7V24H2C1.73478 24 1.48043 24.1054 1.29289 24.2929C1.10536 24.4804 1 24.7348 1 25C1 25.2652 1.10536 25.5196 1.29289 25.7071C1.48043 25.8946 1.73478 26 2 26H30C30.2652 26 30.5196 25.8946 30.7071 25.7071C30.8946 25.5196 31 25.2652 31 25C31 24.7348 30.8946 24.4804 30.7071 24.2929C30.5196 24.1054 30.2652 24 30 24ZM25 24H16V22C16 21.8687 16.0259 21.7386 16.0761 21.6173C16.1264 21.496 16.2 21.3857 16.2929 21.2929C16.3857 21.2 16.496 21.1264 16.6173 21.0761C16.7386 21.0259 16.8687 21 17 21H24C24.1313 21 24.2614 21.0259 24.3827 21.0761C24.504 21.1264 24.6143 21.2 24.7071 21.2929C24.8 21.3857 24.8736 21.496 24.9239 21.6173C24.9741 21.7386 25 21.8687 25 22V24Z" fill="black"/>
</svg>
