<svg viewBox="0 0 32 32" xmlns="http://www.w3.org/2000/svg">
<path d="M22.5 26.199C23.1927 25.8978 23.8613 25.544 24.5 25.1407V30C24.5 30.2652 24.3946 30.5196 24.2071 30.7071C24.0196 30.8946 23.7652 31 23.5 31C23.2348 31 22.9804 30.8946 22.7929 30.7071C22.6054 30.5196 22.5 30.2652 22.5 30V26.199ZM15.1177 11.5294C15.0559 11.6453 15.0175 11.7722 15.0048 11.9029C14.992 12.0336 15.0051 12.1655 15.0433 12.2911C15.0816 12.4168 15.1442 12.5336 15.2276 12.6351C15.311 12.7365 15.4135 12.8205 15.5294 12.8823L21.3751 16L23.5 14.8667L16.4706 11.1177C16.3547 11.0558 16.2278 11.0174 16.0971 11.0047C15.9664 10.9919 15.8345 11.005 15.7088 11.0433C15.5832 11.0815 15.4663 11.1441 15.3649 11.2275C15.2635 11.3109 15.1794 11.4135 15.1177 11.5294ZM31.4706 11.1177L16.4706 3.11768C16.3258 3.04043 16.1641 3.00003 16 3.00003C15.8359 3.00003 15.6742 3.04043 15.5294 3.11768L0.529419 11.1177C0.369497 11.203 0.235761 11.3301 0.14251 11.4855C0.0492589 11.6409 0 11.8188 0 12C0 12.1812 0.0492589 12.3591 0.14251 12.5145C0.235761 12.6699 0.369497 12.797 0.529419 12.8823L3.5 14.4666V20.6818C3.50051 21.1141 3.64055 21.5346 3.89929 21.8809C4.88989 23.1991 8.68994 27.5 16 27.5C18.2339 27.5204 20.4476 27.0753 22.5 26.1931V16.6L21.3751 16L16 18.8667L4.97955 12.9891L4.97241 12.9853L3.125 12L16 5.1333L28.875 12L27.0276 12.9853L27.0204 12.9891L23.5 14.8667L23.9706 15.1177C24.1296 15.204 24.2626 15.3314 24.3557 15.4866C24.4488 15.6418 24.4986 15.819 24.5 16V25.1333C25.8828 24.2703 27.1018 23.1692 28.1006 21.881C28.3594 21.5347 28.4995 21.1141 28.5 20.6818V14.4666L31.4706 12.8823C31.6305 12.797 31.7642 12.6699 31.8575 12.5145C31.9507 12.3591 32 12.1812 32 12C32 11.8188 31.9507 11.6409 31.8575 11.4855C31.7642 11.3301 31.6305 11.203 31.4706 11.1177V11.1177Z"/>
</svg>
