<svg viewBox="0 0 32 32" xmlns="http://www.w3.org/2000/svg">
<path d="M28.3162 7.05127L16.3162 3.05127C16.1109 2.98291 15.8891 2.98291 15.6838 3.05127L3.70299 7.04486L3.70177 7.04529L3.68378 7.05127C3.68025 7.05243 3.67715 7.05435 3.67365 7.05557C3.63034 7.07049 3.58813 7.0884 3.5473 7.10916C3.54262 7.11154 3.53775 7.11356 3.53311 7.116C3.49267 7.13759 3.45377 7.16195 3.41669 7.1889C3.40851 7.19476 3.40056 7.20081 3.39258 7.2069C3.35651 7.23421 3.32232 7.26391 3.29024 7.2958C3.28726 7.29882 3.28468 7.30212 3.28175 7.30514C3.25215 7.33597 3.22456 7.36866 3.19913 7.40302C3.19393 7.40997 3.18854 7.41675 3.18353 7.42386C3.15729 7.46095 3.1336 7.49979 3.11264 7.5401C3.10941 7.54633 3.10663 7.5527 3.10352 7.55899C3.08395 7.59849 3.06704 7.63925 3.05287 7.681C3.05154 7.68494 3.0499 7.68866 3.04862 7.69263C3.0345 7.73703 3.02352 7.78236 3.01576 7.8283C3.0141 7.83789 3.01276 7.84744 3.01139 7.85706C3.00419 7.90437 3.00038 7.95214 3 8V18C3 18.2652 3.10536 18.5196 3.29289 18.7071C3.48043 18.8946 3.73478 19 4 19C4.26522 19 4.51957 18.8946 4.70711 18.7071C4.89464 18.5196 5 18.2652 5 18V9.38748L9.19815 10.7869C8.08521 12.5839 7.72907 14.7485 8.20761 16.8074C8.68615 18.8664 9.96043 20.652 11.7518 21.774C9.36645 22.676 7.33097 24.3154 5.94135 26.4537C5.86946 26.5637 5.81996 26.6868 5.79568 26.816C5.7714 26.9451 5.77281 27.0778 5.79983 27.2064C5.82685 27.335 5.87895 27.457 5.95315 27.5654C6.02736 27.6739 6.12221 27.7666 6.23228 27.8384C6.34236 27.9102 6.4655 27.9595 6.59466 27.9837C6.72383 28.0078 6.85649 28.0063 6.98506 27.9791C7.11363 27.952 7.23558 27.8997 7.34395 27.8254C7.45232 27.7511 7.54498 27.6562 7.61664 27.546C8.52513 26.1503 9.76772 25.0035 11.2317 24.2096C12.6956 23.4158 14.3346 23 16 23C17.6653 23 19.3043 23.4158 20.7683 24.2096C22.2322 25.0035 23.4748 26.1503 24.3833 27.546C24.455 27.656 24.5477 27.7508 24.6561 27.825C24.7644 27.8992 24.8863 27.9513 25.0148 27.9784C25.1433 28.0054 25.2759 28.0069 25.405 27.9828C25.534 27.9586 25.6571 27.9092 25.7671 27.8375C25.8771 27.7658 25.9719 27.6731 26.0461 27.5648C26.1203 27.4564 26.1724 27.3345 26.1994 27.206C26.2265 27.0775 26.228 26.9449 26.2038 26.8159C26.1797 26.6868 26.1303 26.5637 26.0586 26.4537C24.669 24.3154 22.6335 22.6761 20.2482 21.7741C22.0396 20.652 23.3139 18.8664 23.7924 16.8075C24.2709 14.7486 23.9148 12.5839 22.8018 10.7869L28.3162 8.94873C28.5153 8.88235 28.6885 8.755 28.8112 8.58473C28.934 8.41446 29 8.20989 29 8C29 7.79011 28.934 7.58554 28.8112 7.41527C28.6885 7.245 28.5153 7.11765 28.3162 7.05127V7.05127ZM16 21C14.8903 21.0002 13.8022 20.6926 12.8569 20.1113C11.9116 19.5301 11.146 18.6981 10.6453 17.7077C10.1446 16.7174 9.92844 15.6075 10.0208 14.5017C10.1132 13.3958 10.5105 12.3372 11.1686 11.4437L15.6838 12.9487C15.8891 13.0171 16.1109 13.0171 16.3162 12.9487L20.8314 11.4437C21.4895 12.3372 21.8868 13.3958 21.9792 14.5017C22.0716 15.6075 21.8554 16.7174 21.3547 17.7077C20.854 18.6981 20.0884 19.5301 19.1431 20.1113C18.1978 20.6926 17.1097 21.0002 16 21Z"/>
</svg>
