<svg viewBox="0 0 24 24" xmlns="http://www.w3.org/2000/svg">
<path fill-rule="evenodd" clip-rule="evenodd" d="M7.25009 6.63104V5.46126C7.25009 4.59501 7.88384 3.85912 8.7405 3.73062L9.96041 3.54763C11.3126 3.3448 12.6875 3.3448 14.0398 3.54763L15.2597 3.73062C16.1163 3.85912 16.7501 4.59501 16.7501 5.46126V6.63104L18.4641 6.76939C19.7765 6.87533 20.847 7.86347 21.0575 9.16319C21.5227 12.0357 21.5227 14.9644 21.0575 17.8369C20.847 19.1367 19.7765 20.1248 18.4641 20.2307L16.5922 20.3818C13.5358 20.6285 10.4644 20.6285 7.40796 20.3818L5.53605 20.2307C4.22366 20.1248 3.15312 19.1367 2.94264 17.8369C2.47745 14.9644 2.47745 12.0357 2.94264 9.16319C3.15312 7.86347 4.22366 6.87533 5.53605 6.76939L7.25009 6.63104ZM10.1829 5.03104C11.3876 4.85033 12.6126 4.85033 13.8173 5.03104L15.0372 5.21402C15.1596 5.23238 15.2501 5.33751 15.2501 5.46126V6.52586C13.0852 6.40239 10.915 6.40239 8.75009 6.52586V5.46126C8.75009 5.33751 8.84063 5.23238 8.96301 5.21402L10.1829 5.03104ZM7.52865 8.11343C10.5048 7.8732 13.4954 7.8732 16.4715 8.11343L18.3434 8.26453C18.9676 8.31491 19.4767 8.78485 19.5768 9.40298C19.6392 9.78791 19.6926 10.1739 19.7373 10.5607C14.8597 12.9625 9.14047 12.9625 4.26287 10.5607C4.30752 10.1739 4.36101 9.78791 4.42335 9.40298C4.52345 8.78485 5.03258 8.31491 5.65673 8.26453L7.52865 8.11343ZM4.12898 12.1567C9.12838 14.4304 14.8718 14.4304 19.8712 12.1567C19.9665 13.9729 19.8684 15.7967 19.5768 17.5971C19.4767 18.2153 18.9676 18.6852 18.3434 18.7356L16.4715 18.8867C13.4954 19.1269 10.5048 19.1269 7.52865 18.8867L5.65673 18.7356C5.03258 18.6852 4.52345 18.2153 4.42335 17.5971C4.13178 15.7967 4.03366 13.9729 4.12898 12.1567Z"/>
</svg>
