<svg viewBox="0 0 24 24" xmlns="http://www.w3.org/2000/svg">
<path fill-rule="evenodd" clip-rule="evenodd" d="M11.4167 2.39523C11.7978 2.27809 12.2053 2.27809 12.5865 2.39523L15.5722 3.3129C17.1298 3.79164 18.6091 4.4955 19.9632 5.40216C21.0163 6.10735 20.5171 7.75009 19.2497 7.75009H4.75349C3.48604 7.75009 2.98685 6.10735 4.04 5.40216C5.39403 4.4955 6.87332 3.79164 8.43096 3.3129L11.4167 2.39523ZM12.1458 3.82903C12.0518 3.80015 11.9513 3.80015 11.8574 3.82903L8.87164 4.7467C7.69084 5.10962 6.5595 5.61466 5.50228 6.25009H18.5009C17.4437 5.61466 16.3123 5.10962 15.1315 4.7467L12.1458 3.82903Z"/>
<path d="M4.25159 21.0001C4.25159 20.5859 4.58737 20.2501 5.00159 20.2501H19.0016C19.4158 20.2501 19.7516 20.5859 19.7516 21.0001C19.7516 21.4143 19.4158 21.7501 19.0016 21.7501H5.00159C4.58737 21.7501 4.25159 21.4143 4.25159 21.0001Z"/>
<path d="M6.25159 17.0001C6.25159 17.4143 6.58737 17.7501 7.00159 17.7501C7.4158 17.7501 7.75159 17.4143 7.75159 17.0001L7.75159 11.0001C7.75159 10.5859 7.4158 10.2501 7.00159 10.2501C6.58737 10.2501 6.25159 10.5859 6.25159 11.0001L6.25159 17.0001Z"/>
<path d="M12.0016 17.7501C11.5874 17.7501 11.2516 17.4143 11.2516 17.0001L11.2516 11.0001C11.2516 10.5859 11.5874 10.2501 12.0016 10.2501C12.4158 10.2501 12.7516 10.5859 12.7516 11.0001V17.0001C12.7516 17.4143 12.4158 17.7501 12.0016 17.7501Z"/>
<path d="M16.2516 17.0001C16.2516 17.4143 16.5874 17.7501 17.0016 17.7501C17.4158 17.7501 17.7516 17.4143 17.7516 17.0001V11.0001C17.7516 10.5859 17.4158 10.2501 17.0016 10.2501C16.5874 10.2501 16.2516 10.5859 16.2516 11.0001V17.0001Z"/>
</svg>
