<svg   viewBox="0 0 24 24" fill="none" xmlns="http://www.w3.org/2000/svg">
<path d="M16.751 11.0001C16.751 11.4143 16.4152 11.7501 16.001 11.7501H8.00098C7.58676 11.7501 7.25098 11.4143 7.25098 11.0001C7.25098 10.5859 7.58676 10.2501 8.00098 10.2501H16.001C16.4152 10.2501 16.751 10.5859 16.751 11.0001Z" fill="black"/>
<path fill-rule="evenodd" clip-rule="evenodd" d="M4.38656 8.14682L5.57529 4.89923C5.87487 4.08078 6.60145 3.49431 7.46469 3.37418C10.4744 2.95535 13.5276 2.95535 16.5373 3.37418C17.4006 3.49431 18.1272 4.08079 18.4267 4.89924L19.6155 8.14713C19.8379 8.49401 19.991 8.89054 20.0553 9.31802L20.1572 9.99586C20.557 12.6545 20.5197 15.3606 20.0466 18.0072C19.8369 19.1805 18.8733 20.0717 17.6872 20.1894L16.4568 20.3115C13.4935 20.6057 10.5084 20.6057 7.54514 20.3115L6.31468 20.1894C5.1286 20.0717 4.16505 19.1805 3.95532 18.0072C3.48225 15.3606 3.44487 12.6545 3.84466 9.99586L3.94659 9.31802C4.0109 8.89042 4.16411 8.49377 4.38656 8.14682ZM7.67143 4.85987C10.544 4.46012 13.458 4.46012 16.3306 4.85987C16.6447 4.90358 16.9091 5.117 17.0181 5.41483L17.5243 6.79781C17.479 6.7912 17.4333 6.78561 17.3873 6.78105L16.4091 6.68396C13.4775 6.39299 10.5244 6.39299 7.59277 6.68396L6.61457 6.78105C6.56863 6.78561 6.52299 6.7912 6.47768 6.79779L6.98389 5.41482C7.0929 5.11699 7.35731 4.90358 7.67143 4.85987ZM5.68664 8.9011L5.70529 8.90793L5.72845 8.84468C5.97419 8.52882 6.34331 8.31534 6.76273 8.27371L7.74092 8.17662C10.574 7.89543 13.4279 7.89543 16.261 8.17662L17.2392 8.27371C17.6587 8.31535 18.0279 8.52892 18.2736 8.84488L18.2967 8.90793L18.3153 8.90112C18.4464 9.08701 18.5364 9.30456 18.572 9.54108L18.6739 10.2189C19.0494 12.7159 19.0143 15.2575 18.57 17.7432C18.4783 18.2559 18.0573 18.6453 17.5391 18.6967L16.3086 18.8189C13.4439 19.1032 10.558 19.1032 7.6933 18.8189L6.46283 18.6967C5.94458 18.6453 5.52355 18.2559 5.43191 17.7432C4.9876 15.2575 4.95249 12.7159 5.32799 10.2189L5.42992 9.54108C5.46548 9.30456 5.55551 9.087 5.68664 8.9011Z" fill="black"/>
</svg>
