<svg   viewBox="0 0 24 24" fill="none" xmlns="http://www.w3.org/2000/svg">
<path fill-rule="evenodd" clip-rule="evenodd" d="M19.1824 4.91224L11.9987 4.74976L4.81493 4.91224C3.48377 4.94235 2.35667 5.90297 2.11598 7.21254C1.53426 10.3776 1.53426 13.6223 2.11598 16.7874C2.35667 18.0969 3.48377 19.0575 4.81493 19.0876L11.9987 19.2501L19.1824 19.0876C20.5135 19.0575 21.6406 18.0969 21.8813 16.7874C22.463 13.6223 22.463 10.3776 21.8813 7.21254C21.6406 5.90297 20.5135 4.94235 19.1824 4.91224ZM4.84885 6.41186L11.9987 6.25014L19.1485 6.41186C19.7687 6.42589 20.2939 6.87349 20.406 7.48369C20.5593 8.31767 20.6698 9.15752 20.7374 9.99994H3.25987C3.32752 9.15752 3.43799 8.31767 3.59127 7.48369C3.70342 6.87349 4.22859 6.42589 4.84885 6.41186ZM3.17969 11.9999C3.17969 13.5116 3.31688 15.0233 3.59127 16.5162C3.70342 17.1264 4.22859 17.574 4.84885 17.588L11.9987 17.7498L19.1485 17.588C19.7687 17.574 20.2939 17.1264 20.406 16.5162C20.6804 15.0233 20.8176 13.5116 20.8176 11.9999H3.17969Z" fill="black"/>
</svg>
