<svg   viewBox="0 0 24 24" fill="none" xmlns="http://www.w3.org/2000/svg">
<path fill-rule="evenodd" clip-rule="evenodd" d="M11.25 5.78841C7.59833 6.16371 4.75 9.24926 4.75 13.0001C4.75 17.0042 7.99594 20.2501 12 20.2501C15.7508 20.2501 18.8364 17.4018 19.2117 13.7501H12C11.5858 13.7501 11.25 13.4143 11.25 13.0001V5.78841ZM3.25 13.0001C3.25 8.16759 7.16751 4.25009 12 4.25009C12.4142 4.25009 12.75 4.58587 12.75 5.00009V12.2501H20C20.4142 12.2501 20.75 12.5859 20.75 13.0001C20.75 17.8326 16.8325 21.7501 12 21.7501C7.16751 21.7501 3.25 17.8326 3.25 13.0001Z" fill="black"/>
<path fill-rule="evenodd" clip-rule="evenodd" d="M15.5 4.67373V9.50009H20.3264C19.7633 7.11568 17.8844 5.23676 15.5 4.67373ZM14.998 3.06173C18.6183 3.51226 21.4878 6.38176 21.9384 10.0021C22.0066 10.5501 21.5523 11.0001 21 11.0001H14.5C14.2239 11.0001 14 10.7762 14 10.5001V4.00009C14 3.4478 14.45 2.99353 14.998 3.06173Z" fill="black"/>
</svg>
