<svg viewBox="0 0 24 24" xmlns="http://www.w3.org/2000/svg">
<path d="M12.9987 15C12.4465 15 11.9987 15.4477 11.9987 16C11.9987 16.5523 12.4465 17 12.9987 17C13.551 17 13.9987 16.5523 13.9987 16C13.9987 15.4477 13.551 15 12.9987 15Z"/>
<path d="M9.99875 17C9.44646 17 8.99875 17.4477 8.99875 18C8.99875 18.5523 9.44646 19 9.99875 19C10.551 19 10.9987 18.5523 10.9987 18C10.9987 17.4477 10.551 17 9.99875 17Z"/>
<path fill-rule="evenodd" clip-rule="evenodd" d="M14.4919 3.25001L14.4889 3.25H9.50855L9.50559 3.25001H8.49875C8.08454 3.25001 7.74875 3.58579 7.74875 4.00001C7.74875 4.41422 8.08454 4.75001 8.49875 4.75001H8.75855V9.83701C8.75855 11.2914 8.32114 12.7121 7.50315 13.9147L4.40936 18.4629C3.6237 19.6179 4.34793 21.194 5.73605 21.3502C9.89805 21.8184 14.0994 21.8184 18.2614 21.3502C19.6496 21.194 20.3738 19.6179 19.5881 18.4629L16.4943 13.9147C15.6764 12.7121 15.2389 11.2914 15.2389 9.83701V4.75001H15.4987C15.913 4.75001 16.2487 4.41422 16.2487 4.00001C16.2487 3.58579 15.913 3.25001 15.4987 3.25001H14.4919ZM5.90374 19.8596C9.9543 20.3153 14.0432 20.3153 18.0938 19.8596C18.3596 19.8297 18.4984 19.5278 18.3479 19.3065L15.2541 14.7583C15.0338 14.4345 14.8364 14.0976 14.6626 13.75H9.33486C9.16108 14.0976 8.96368 14.4345 8.74341 14.7583L5.64962 19.3065C5.49913 19.5278 5.63785 19.8297 5.90374 19.8596ZM9.91926 12.25H14.0782C13.8544 11.4697 13.7389 10.6578 13.7389 9.83701V4.75L10.2585 4.75001V9.83701C10.2585 10.6578 10.1431 11.4697 9.91926 12.25Z"/>
</svg>
