<svg   viewBox="0 0 24 24" fill="none" xmlns="http://www.w3.org/2000/svg">
<path d="M13.0019 15C12.4496 15 12.0019 15.4477 12.0019 16C12.0019 16.5523 12.4496 17 13.0019 17C13.5542 17 14.0019 16.5523 14.0019 16C14.0019 15.4477 13.5542 15 13.0019 15Z" fill="black"/>
<path d="M10.0019 17C9.44964 17 9.00192 17.4477 9.00192 18C9.00192 18.5523 9.44964 19 10.0019 19C10.5542 19 11.0019 18.5523 11.0019 18C11.0019 17.4477 10.5542 17 10.0019 17Z" fill="black"/>
<path fill-rule="evenodd" clip-rule="evenodd" d="M14.4966 3.25001L14.4921 3.25H9.51171L9.50718 3.25001H8.50192C8.08771 3.25001 7.75192 3.5858 7.75192 4.00001C7.75192 4.41423 8.08771 4.75001 8.50192 4.75001H8.76171V9.81112C4.31 11.9155 3.66688 18.052 7.66811 21.0195L7.96311 21.2383C10.3618 23.0173 13.642 23.0173 16.0407 21.2383L16.3357 21.0195C20.3369 18.052 19.6938 11.9155 15.2421 9.81112V4.75001H15.5019C15.9161 4.75001 16.2519 4.41423 16.2519 4.00001C16.2519 3.5858 15.9161 3.25001 15.5019 3.25001H14.4966ZM8.85667 20.0335C10.7247 21.4189 13.2792 21.4189 15.1471 20.0335L15.4421 19.8147C17.4576 18.3199 17.9459 15.7831 17.0865 13.75H6.91733C6.05788 15.7831 6.54619 18.3199 8.56167 19.8147L8.85667 20.0335ZM7.89877 12.25H16.105C15.6528 11.7748 15.0929 11.3757 14.4295 11.0897C14.0123 10.9099 13.7421 10.4991 13.7421 10.0448V4.75001H10.2617V10.0448C10.2617 10.4991 9.99149 10.9099 9.57432 11.0897C8.91095 11.3757 8.35101 11.7748 7.89877 12.25Z" fill="black"/>
</svg>
