<svg   viewBox="0 0 24 24" fill="none" xmlns="http://www.w3.org/2000/svg">
<path fill-rule="evenodd" clip-rule="evenodd" d="M13.5569 5.53423C12.6863 4.69887 11.3118 4.69887 10.4413 5.53423L5.81482 9.97357C5.70147 10.0823 5.62522 10.224 5.59689 10.3785C5.04276 13.4004 5.00185 16.494 5.4759 19.5295L5.58842 20.25H8.56488V14.0387C8.56488 13.6244 8.90066 13.2887 9.31488 13.2887H14.6833C15.0975 13.2887 15.4333 13.6244 15.4333 14.0387V20.25H18.4098L18.5223 19.5295C18.9963 16.494 18.9554 13.4004 18.4013 10.3785C18.3729 10.224 18.2967 10.0823 18.1833 9.97357L13.5569 5.53423ZM9.40271 4.45191C10.8537 3.05965 13.1445 3.05965 14.5955 4.45191L19.2219 8.89125C19.5625 9.21804 19.7915 9.64373 19.8767 10.108C20.4612 13.2956 20.5044 16.559 20.0043 19.7609L19.8235 20.9184C19.7488 21.3971 19.3365 21.75 18.852 21.75H14.6833C14.2691 21.75 13.9333 21.4142 13.9333 21V14.7887H10.0649V21C10.0649 21.4142 9.72909 21.75 9.31488 21.75H5.14615C4.66166 21.75 4.24938 21.3971 4.17462 20.9184L3.99386 19.7609C3.49381 16.559 3.53696 13.2956 4.12149 10.108C4.20662 9.64373 4.43571 9.21804 4.77628 8.89125L9.40271 4.45191Z" fill="black"/>
</svg>
