<svg   viewBox="0 0 24 24" fill="none" xmlns="http://www.w3.org/2000/svg">
<path d="M9.50186 15.2501C9.08765 15.2501 8.75186 15.5859 8.75186 16.0001C8.75186 16.4143 9.08765 16.7501 9.50186 16.7501H11.2519V18.5001C11.2519 18.9143 11.5876 19.2501 12.0019 19.2501C12.4161 19.2501 12.7519 18.9143 12.7519 18.5001V16.7501H14.5019C14.9161 16.7501 15.2519 16.4143 15.2519 16.0001C15.2519 15.5859 14.9161 15.2501 14.5019 15.2501H12.7519V13.5001C12.7519 13.0859 12.4161 12.7501 12.0019 12.7501C11.5876 12.7501 11.2519 13.0859 11.2519 13.5001V15.2501H9.50186Z" fill="black"/>
<path fill-rule="evenodd" clip-rule="evenodd" d="M7.25186 5.46126V6.69904C6.88257 6.7269 6.51347 6.758 6.14459 6.79236C4.4755 6.94781 3.19922 8.34848 3.19922 10.0248V17.9754C3.19922 19.6517 4.4755 21.0523 6.14459 21.2078C10.041 21.5707 13.9627 21.5707 17.8591 21.2078C19.5282 21.0523 20.8045 19.6517 20.8045 17.9754V10.0248C20.8045 8.34848 19.5282 6.94781 17.8591 6.79236C17.4902 6.758 17.1211 6.7269 16.7519 6.69905V5.46126C16.7519 4.59501 16.1181 3.85912 15.2615 3.73062L14.0415 3.54763C12.6893 3.3448 11.3144 3.3448 9.96218 3.54763L8.74227 3.73062C7.88561 3.85912 7.25186 4.59501 7.25186 5.46126ZM13.819 5.03104C12.6143 4.85033 11.3894 4.85033 10.1847 5.03104L8.96478 5.21402C8.8424 5.23238 8.75186 5.33751 8.75186 5.46126V6.60385C10.9171 6.49229 13.0866 6.49229 15.2519 6.60385V5.46126C15.2519 5.33751 15.1613 5.23238 15.0389 5.21402L13.819 5.03104ZM17.72 8.28589C13.9161 7.93161 10.0876 7.93161 6.28369 8.28589C5.3858 8.36952 4.69922 9.12301 4.69922 10.0248V10.2501H19.3045V10.0248C19.3045 9.12301 18.6179 8.36952 17.72 8.28589ZM19.3045 11.7501H4.69922V17.9754C4.69922 18.8771 5.3858 19.6306 6.28369 19.7143C10.0876 20.0685 13.9161 20.0685 17.72 19.7143C18.6179 19.6306 19.3045 18.8771 19.3045 17.9754V11.7501Z" fill="black"/>
</svg>
