<svg viewBox="0 0 24 24" xmlns="http://www.w3.org/2000/svg">
<path d="M10 13.2499C10.4142 13.2499 10.75 13.5857 10.75 13.9999V15.9999C10.75 16.4141 10.4142 16.7499 10 16.7499C9.58579 16.7499 9.25 16.4141 9.25 15.9999V13.9999C9.25 13.5857 9.58579 13.2499 10 13.2499Z"/>
<path d="M14.75 13.9999C14.75 13.5857 14.4142 13.2499 14 13.2499C13.5858 13.2499 13.25 13.5857 13.25 13.9999V15.9999C13.25 16.4141 13.5858 16.7499 14 16.7499C14.4142 16.7499 14.75 16.4141 14.75 15.9999V13.9999Z"/>
<path fill-rule="evenodd" clip-rule="evenodd" d="M9.64952 3.37488C9.85662 3.01616 9.73372 2.55747 9.375 2.35036C9.01628 2.14326 8.55759 2.26616 8.35048 2.62488L6.35048 6.08898C6.32052 6.14088 6.29746 6.19487 6.28103 6.24988H6C4.48122 6.24988 3.25 7.4811 3.25 8.99988C3.25 9.85901 3.64397 10.6261 4.26109 11.1304L4.92803 15.7151L5.37478 17.8083C5.64244 19.0624 6.66623 20.015 7.93636 20.1917C10.6325 20.5668 13.3675 20.5668 16.0636 20.1917C17.3338 20.015 18.3576 19.0624 18.6252 17.8083L19.072 15.7151L19.7389 11.1304C20.356 10.6261 20.75 9.85901 20.75 8.99988C20.75 7.4811 19.5188 6.24988 18 6.24988H17.719C17.7025 6.19487 17.6795 6.14088 17.6495 6.08898L15.6495 2.62488C15.4424 2.26616 14.9837 2.14326 14.625 2.35036C14.2663 2.55747 14.1434 3.01616 14.3505 3.37488L16.0104 6.24988H7.98963L9.64952 3.37488ZM18.1335 11.7467C18.0892 11.7488 18.0447 11.7499 18 11.7499H6C5.95525 11.7499 5.91076 11.7488 5.86653 11.7467L6.4053 15.4503L6.84174 17.4952C6.97772 18.1323 7.49783 18.6162 8.14308 18.706C10.702 19.0621 13.298 19.0621 15.8569 18.706C16.5022 18.6162 17.0223 18.1323 17.1583 17.4952L17.5947 15.4503L18.1335 11.7467ZM4.75 8.99988C4.75 8.30953 5.30964 7.74988 6 7.74988H18C18.6904 7.74988 19.25 8.30953 19.25 8.99988C19.25 9.69024 18.6904 10.2499 18 10.2499H6C5.30964 10.2499 4.75 9.69024 4.75 8.99988Z"/>
</svg>
