<svg   viewBox="0 0 24 24" fill="none" xmlns="http://www.w3.org/2000/svg">
<path fill-rule="evenodd" clip-rule="evenodd" d="M7.24806 7.25V7.13012C7.24806 4.96238 8.71567 3.06964 10.8151 2.52979C11.5911 2.33024 12.405 2.33024 13.181 2.52979C15.2805 3.06964 16.7481 4.96238 16.7481 7.13013V7.25H18.2492C18.8205 7.25 19.3053 7.66898 19.3881 8.23423L19.6068 9.72668C20.0373 12.6651 20.0373 15.6507 19.6068 18.5891C19.3989 20.0081 18.2546 21.1052 16.8281 21.2531L16.1992 21.3183C13.4059 21.608 10.5902 21.608 7.79693 21.3183L7.16806 21.2531C5.74152 21.1052 4.59723 20.0081 4.38931 18.5891C3.95877 15.6507 3.95877 12.6651 4.38931 9.72668L4.60799 8.23423C4.69081 7.66898 5.17565 7.25 5.74693 7.25H7.24806ZM11.1887 3.98252C11.7196 3.84599 12.2765 3.84599 12.8074 3.98252C14.2439 4.3519 15.2481 5.64693 15.2481 7.13013V7.25H8.74806V7.13012C8.74806 5.64693 9.75222 4.3519 11.1887 3.98252ZM7.24806 8.75V11C7.24806 11.4142 7.58385 11.75 7.99806 11.75C8.41228 11.75 8.74806 11.4142 8.74806 11V8.75H15.2481V11C15.2481 11.4142 15.5838 11.75 15.9981 11.75C16.4123 11.75 16.7481 11.4142 16.7481 11V8.75H17.9477L18.1227 9.94414C18.5321 12.7384 18.5321 15.5774 18.1227 18.3717C18.0142 19.1118 17.4174 19.684 16.6733 19.7611L16.0445 19.8264C13.3541 20.1054 10.642 20.1054 7.95166 19.8264L7.32279 19.7611C6.57874 19.684 5.98191 19.1118 5.87347 18.3717C5.46405 15.5774 5.46405 12.7384 5.87347 9.94414L6.04843 8.75H7.24806Z" fill="black"/>
</svg>
