<svg   viewBox="0 0 24 24" fill="none" xmlns="http://www.w3.org/2000/svg">
<path fill-rule="evenodd" clip-rule="evenodd" d="M12.7489 2C12.7489 1.58579 12.4131 1.25 11.9989 1.25C11.5847 1.25 11.2489 1.58579 11.2489 2V2.27842C6.26534 2.65752 2.32909 6.78303 2.25011 11.8451C2.24298 12.3024 2.57312 12.6894 3.01632 12.7632C5.74256 13.2176 8.49466 13.4637 11.2489 13.5015V19C11.2489 19.4142 10.9131 19.75 10.4989 19.75C10.0847 19.75 9.7489 19.4142 9.7489 19V18.5C9.7489 18.0858 9.41312 17.75 8.9989 17.75C8.58469 17.75 8.2489 18.0858 8.2489 18.5V19C8.2489 20.2426 9.25626 21.25 10.4989 21.25C11.7415 21.25 12.7489 20.2426 12.7489 19V13.5015C15.5031 13.4637 18.2552 13.2176 20.9815 12.7632C21.4247 12.6894 21.7548 12.3025 21.7477 11.8451C21.6687 6.78303 17.7325 2.65751 12.7489 2.27842V2ZM20.2249 11.3661C19.9013 7.10606 16.342 3.75 11.9989 3.75C7.65584 3.75 4.09649 7.10606 3.77288 11.3661C9.22363 12.2202 14.7742 12.2202 20.2249 11.3661Z" fill="black"/>
</svg>
