<svg   viewBox="0 0 24 24" fill="none" xmlns="http://www.w3.org/2000/svg">
<path d="M15.4995 12.0001C15.4995 11.1717 16.171 10.5001 16.9995 10.5001C17.8279 10.5001 18.4995 11.1717 18.4995 12.0001C18.4995 12.8285 17.8279 13.5001 16.9995 13.5001C16.171 13.5001 15.4995 12.8285 15.4995 12.0001Z" fill="black"/>
<path fill-rule="evenodd" clip-rule="evenodd" d="M20.4408 6.67414C19.783 5.12848 18.3296 4.01735 16.6001 3.83535L15.9483 3.76676C12.6559 3.42031 9.3352 3.44315 6.04796 3.83487L5.61602 3.88634C3.94722 4.0852 2.62497 5.38901 2.40269 7.05485C1.96473 10.3372 1.96473 13.6631 2.40269 16.9454C2.62497 18.6113 3.94722 19.9151 5.61602 20.1139L6.04796 20.1654C9.3352 20.5571 12.6559 20.58 15.9483 20.2335L16.6001 20.1649C18.3296 19.9829 19.783 18.8718 20.4408 17.3261C21.4801 17.0167 22.2732 16.1157 22.4034 15.0025C22.6367 13.0077 22.6367 10.9925 22.4034 8.99776C22.2732 7.88454 21.4801 6.98356 20.4408 6.67414ZM15.7913 5.25852C12.6102 4.92377 9.40163 4.94585 6.22545 5.32433L5.79351 5.37581C4.80469 5.49364 4.02122 6.26618 3.88952 7.25324C3.46912 10.4039 3.46912 13.5964 3.88952 16.747C4.02122 17.7341 4.8047 18.5066 5.79351 18.6245L6.22545 18.6759C9.40164 19.0544 12.6102 19.0765 15.7913 18.7417L16.4431 18.6732C17.2937 18.5836 18.0463 18.1644 18.5678 17.5421C17.0596 17.63 15.5314 17.5907 14.0412 17.4242C12.7718 17.2823 11.7453 16.2828 11.5955 15.0025C11.3622 13.0077 11.3622 10.9925 11.5955 8.99776C11.7453 7.7175 12.7718 6.71796 14.0412 6.57609C15.5314 6.40954 17.0596 6.37024 18.5678 6.45819C18.0463 5.83587 17.2937 5.41662 16.4431 5.32712L15.7913 5.25852ZM19.2768 8.01483C19.2774 8.01867 19.278 8.02251 19.2786 8.02635L19.2847 8.06524L19.4833 8.03439C19.5861 8.04456 19.6887 8.05537 19.7911 8.06681C20.3785 8.13246 20.8463 8.59661 20.9136 9.17201C21.1334 11.051 21.1334 12.9492 20.9136 14.8283C20.8463 15.4037 20.3785 15.8678 19.7911 15.9335C19.6887 15.9449 19.5861 15.9557 19.4833 15.9659L19.2847 15.935L19.2786 15.9739C19.278 15.9778 19.2774 15.9816 19.2768 15.9854C17.5982 16.1373 15.8766 16.12 14.2078 15.9335C13.6204 15.8678 13.1527 15.4037 13.0854 14.8283C12.8656 12.9492 12.8656 11.051 13.0854 9.17201C13.1527 8.59661 13.6204 8.13246 14.2078 8.06681C15.8766 7.8803 17.5982 7.86297 19.2768 8.01483Z" fill="black"/>
</svg>
