<svg viewBox="0 0 24 24" xmlns="http://www.w3.org/2000/svg">
<g clip-path="url(#clip0_61_16682)">
<path d="M17.9987 1.01L7.99875 1C6.89875 1 5.99875 1.9 5.99875 3V6C5.99875 6.55 6.44875 7 6.99875 7C7.54875 7 7.99875 6.55 7.99875 6V5H17.9987V19H7.99875V18C7.99875 17.45 7.54875 17 6.99875 17C6.44875 17 5.99875 17.45 5.99875 18V21C5.99875 22.1 6.89875 23 7.99875 23H17.9987C19.0987 23 19.9988 22.1 19.9988 21V3C19.9988 1.9 19.0987 1.01 17.9987 1.01ZM10.9987 15C11.5487 15 11.9987 14.55 11.9987 14V9C11.9987 8.45 11.5487 8 10.9987 8H5.99875C5.44875 8 4.99875 8.45 4.99875 9C4.99875 9.55 5.44875 10 5.99875 10H8.58875L3.69875 14.89C3.30875 15.28 3.30875 15.91 3.69875 16.3C4.08875 16.69 4.71875 16.69 5.10875 16.3L9.99875 11.41V14C9.99875 14.55 10.4487 15 10.9987 15Z"/>
</g>
<defs>
<clipPath id="clip0_61_16682">
<rect/>
</clipPath>
</defs>
</svg>
