<svg   viewBox="0 0 24 24" fill="none" xmlns="http://www.w3.org/2000/svg">
<g clip-path="url(#clip0_61_16681)">
<path d="M14.9973 12.0001H12.9973V10.0001C12.9973 9.45014 12.5473 9.00014 11.9973 9.00014C11.4473 9.00014 10.9973 9.45014 10.9973 10.0001V12.0001H8.99732C8.44732 12.0001 7.99732 12.4501 7.99732 13.0001C7.99732 13.5501 8.44732 14.0001 8.99732 14.0001H10.9973V16.0001C10.9973 16.5501 11.4473 17.0001 11.9973 17.0001C12.5473 17.0001 12.9973 16.5501 12.9973 16.0001V14.0001H14.9973C15.5473 14.0001 15.9973 13.5501 15.9973 13.0001C15.9973 12.4501 15.5473 12.0001 14.9973 12.0001ZM21.1773 5.01014L18.0973 2.45014C17.6773 2.10014 17.0473 2.15014 16.6873 2.58014C16.3373 3.00014 16.3973 3.63014 16.8173 3.99014L19.8873 6.55014C20.3073 6.90014 20.9373 6.85014 21.2973 6.42014C21.6573 6.00014 21.5973 5.37014 21.1773 5.01014V5.01014ZM4.09732 6.55014L7.16732 3.99014C7.59732 3.63014 7.65732 3.00014 7.29732 2.58014C6.94732 2.15014 6.31732 2.10014 5.89732 2.45014L2.81732 5.01014C2.39732 5.37014 2.33732 6.00014 2.69732 6.42014C3.04732 6.85014 3.67732 6.90014 4.09732 6.55014ZM11.9973 4.00014C7.02732 4.00014 2.99732 8.03014 2.99732 13.0001C2.99732 17.9701 7.02732 22.0001 11.9973 22.0001C16.9673 22.0001 20.9973 17.9701 20.9973 13.0001C20.9973 8.03014 16.9673 4.00014 11.9973 4.00014ZM11.9973 20.0001C8.13732 20.0001 4.99732 16.8601 4.99732 13.0001C4.99732 9.14014 8.13732 6.00014 11.9973 6.00014C15.8573 6.00014 18.9973 9.14014 18.9973 13.0001C18.9973 16.8601 15.8573 20.0001 11.9973 20.0001Z" fill="black"/>
</g>
<defs>
<clipPath id="clip0_61_16681">
<rect width="24" height="24" fill="white"/>
</clipPath>
</defs>
</svg>
