<svg   viewBox="0 0 24 24" fill="none" xmlns="http://www.w3.org/2000/svg">
<g clip-path="url(#clip0_61_16685)">
<path d="M21.9972 14.6C21.9972 15.3 21.3272 15.8 20.6572 15.61L17.5072 14.68L10.4972 7.67V3.5C10.4972 2.67 11.1672 2 11.9972 2C12.8272 2 13.4972 2.67 13.4972 3.5V9L21.4772 13.7C21.7972 13.88 21.9972 14.23 21.9972 14.6ZM13.4972 13.5L9.55719 9.56L3.50719 3.51C3.11719 3.12 2.48719 3.12 2.09719 3.51C1.70719 3.9 1.70719 4.53 2.09719 4.92L7.76719 10.59L2.51719 13.7C2.19719 13.88 1.99719 14.23 1.99719 14.6C1.99719 15.3 2.66719 15.8 3.33719 15.61L10.4972 13.51V19L8.23719 20.35C8.08719 20.44 7.99719 20.61 7.99719 20.78V21.28V21.36C7.99719 21.69 8.30719 21.93 8.61719 21.85L11.5372 21.12L11.9972 21L12.3772 21.09L12.7972 21.2L14.6972 21.68L15.3672 21.85C15.6872 21.93 15.9872 21.69 15.9872 21.36V20.99V20.78C15.9872 20.6 15.8972 20.44 15.7472 20.35L13.4972 19V16.33L19.0672 21.9C19.4572 22.29 20.0872 22.29 20.4772 21.9C20.8672 21.51 20.8672 20.88 20.4772 20.49L13.4972 13.5Z" fill="black"/>
</g>
<defs>
<clipPath id="clip0_61_16685">
<rect width="24" height="24" fill="white"/>
</clipPath>
</defs>
</svg>
