<svg viewBox="0 0 24 24" xmlns="http://www.w3.org/2000/svg">
<g clip-path="url(#clip0_61_16691)">
<path d="M16.9987 7.00005L12.7088 2.71005C12.0788 2.08005 10.9988 2.52005 10.9988 3.41005V9.59005L7.10875 5.70005C6.71875 5.31005 6.08875 5.31005 5.69875 5.70005C5.30875 6.09005 5.30875 6.72005 5.69875 7.11005L10.5888 12.0001L5.69875 16.8901C5.30875 17.2801 5.30875 17.9101 5.69875 18.3001C6.08875 18.6901 6.71875 18.6901 7.10875 18.3001L10.9988 14.4101V20.5901C10.9988 21.4801 12.0788 21.9301 12.7088 21.3001L16.9987 17.0001C17.3887 16.6101 17.3887 15.9801 16.9987 15.5901L13.4087 12.0001L16.9987 8.42005C17.3887 8.03005 17.3887 7.39005 16.9987 7.00005ZM12.9988 5.83005L14.8787 7.71005L12.9988 9.59005V5.83005ZM14.8787 16.2901L12.9988 18.1701V14.4101L14.8787 16.2901V16.2901Z"/>
</g>
<defs>
<clipPath id="clip0_61_16691">
<rect/>
</clipPath>
</defs>
</svg>
