<svg   viewBox="0 0 24 24" fill="none" xmlns="http://www.w3.org/2000/svg">
<g clip-path="url(#clip0_61_16693)">
<path d="M19.2888 17.8901L6.10875 4.70005C5.71875 4.31005 5.08875 4.31005 4.69875 4.70005C4.30875 5.09005 4.30875 5.72005 4.69875 6.11005L10.5888 12.0001L5.69875 16.8901C5.30875 17.2801 5.30875 17.9101 5.69875 18.3001C6.08875 18.6901 6.71875 18.6901 7.10875 18.3001L10.9988 14.4101V20.5901C10.9988 21.4801 12.0787 21.9301 12.7087 21.3001L16.2987 17.7101L17.8887 19.3001C18.2787 19.6901 18.9087 19.6901 19.2987 19.3001C19.6787 18.9101 19.6788 18.2701 19.2888 17.8901ZM12.9987 18.1701V14.4101L14.8787 16.2901L12.9987 18.1701ZM12.9987 5.83005L14.8787 7.71005L13.4087 9.18005L14.8187 10.5901L16.9987 8.42005C17.3887 8.03005 17.3887 7.40005 16.9987 7.00005L12.7087 2.71005C12.0787 2.08005 10.9988 2.52005 10.9988 3.41005V6.77005L12.9987 8.77005V5.83005V5.83005Z" fill="black"/>
</g>
<defs>
<clipPath id="clip0_61_16693">
<rect width="24" height="24" fill="white"/>
</clipPath>
</defs>
</svg>
