<svg   viewBox="0 0 24 24" fill="none" xmlns="http://www.w3.org/2000/svg">
<g clip-path="url(#clip0_61_16692)">
<path d="M5.99844 13.0001C6.54844 12.4501 6.54844 11.5601 5.99844 11.0101V11.0001C5.44844 10.4501 4.54844 10.4501 3.99844 11.0001C3.44844 11.5501 3.44844 12.4501 3.99844 13.0001C4.54844 13.5501 5.44844 13.5501 5.99844 13.0001ZM19.9984 11.0001C19.4384 10.4401 18.5484 10.4401 17.9984 10.9901V11.0001C17.4484 11.5501 17.4484 12.4401 17.9984 12.9901V13.0001C18.5484 13.5501 19.4384 13.5501 19.9884 13.0001H19.9984C20.5484 12.4501 20.5484 11.5501 19.9984 11.0001ZM16.9984 7.00005L12.7084 2.71005C12.0784 2.08005 10.9984 2.52005 10.9984 3.41005V9.59005L7.10844 5.70005C6.71844 5.31005 6.08844 5.31005 5.69844 5.70005C5.30844 6.09005 5.30844 6.72005 5.69844 7.11005L10.5884 12.0001L5.69844 16.8901C5.30844 17.2801 5.30844 17.9101 5.69844 18.3001C6.08844 18.6901 6.71844 18.6901 7.10844 18.3001L10.9984 14.4101V20.5901C10.9984 21.4801 12.0784 21.9301 12.7084 21.3001L16.9984 17.0001C17.3884 16.6101 17.3884 15.9801 16.9984 15.5801L13.4084 12.0001L16.9984 8.42005C17.3884 8.03005 17.3884 7.39005 16.9984 7.00005ZM14.8784 16.2901L12.9984 18.1701V14.4101L14.8784 16.2901V16.2901ZM12.9984 9.59005V5.83005L14.8784 7.71005L12.9984 9.59005Z" fill="black"/>
</g>
<defs>
<clipPath id="clip0_61_16692">
<rect width="24" height="24" fill="white"/>
</clipPath>
</defs>
</svg>
