<svg viewBox="0 0 24 24" xmlns="http://www.w3.org/2000/svg">
<g clip-path="url(#clip0_61_16694)">
<path d="M15.9787 10.2801L14.5988 11.6601C14.3988 11.8601 14.3988 12.1701 14.5988 12.3701L15.9787 13.7501C16.2587 14.0301 16.7287 13.9001 16.8287 13.5201C16.9387 13.0201 16.9987 12.5201 16.9987 12.0001C16.9987 11.4901 16.9387 10.9901 16.8187 10.5201C16.7287 10.1401 16.2587 10.0001 15.9787 10.2801V10.2801ZM20.0988 7.78005C19.8488 7.23005 19.1188 7.11005 18.6988 7.54005C18.4388 7.80005 18.3888 8.18005 18.5288 8.52005C18.9888 9.59005 19.2487 10.7601 19.2487 11.9901C19.2487 13.2301 18.9888 14.4101 18.5188 15.4801C18.3788 15.8001 18.4288 16.1701 18.6788 16.4201C19.0888 16.8301 19.7788 16.7101 20.0288 16.1901C20.6588 14.8901 21.0088 13.4301 21.0088 11.8901C20.9988 10.4401 20.6788 9.04005 20.0988 7.78005V7.78005ZM11.4087 12.0001L14.9987 8.42005C15.3887 8.03005 15.3887 7.40005 14.9987 7.00005L10.7087 2.71005C10.0787 2.08005 8.99875 2.52005 8.99875 3.41005V9.59005L5.10875 5.70005C4.71875 5.31005 4.08875 5.31005 3.69875 5.70005C3.30875 6.09005 3.30875 6.72005 3.69875 7.11005L8.58875 12.0001L3.69875 16.8901C3.30875 17.2801 3.30875 17.9101 3.69875 18.3001C4.08875 18.6901 4.71875 18.6901 5.10875 18.3001L8.99875 14.4101V20.5901C8.99875 21.4801 10.0787 21.9301 10.7087 21.3001L14.9987 17.0001C15.3887 16.6101 15.3887 15.9801 14.9987 15.5801L11.4087 12.0001ZM10.9987 5.83005L12.8787 7.71005L10.9987 9.59005V5.83005ZM10.9987 18.1701V14.4101L12.8787 16.2901L10.9987 18.1701Z"/>
</g>
<defs>
<clipPath id="clip0_61_16694">
<rect/>
</clipPath>
</defs>
</svg>
