<svg   viewBox="0 0 24 24" fill="none" xmlns="http://www.w3.org/2000/svg">
<g clip-path="url(#clip0_61_16695)">
<path d="M10.8506 12.6501H13.1506L12.0006 9.00014L10.8506 12.6501ZM20.0006 8.69014V6.00014C20.0006 4.90014 19.1006 4.00014 18.0006 4.00014H15.3106L13.4106 2.10014C12.6306 1.32014 11.3606 1.32014 10.5806 2.10014L8.69062 4.00014H6.00063C4.90063 4.00014 4.00063 4.90014 4.00063 6.00014V8.69014L2.10062 10.5901C1.32063 11.3701 1.32063 12.6401 2.10062 13.4201L4.00063 15.3201V18.0001C4.00063 19.1001 4.90063 20.0001 6.00063 20.0001H8.69062L10.5906 21.9001C11.3706 22.6801 12.6406 22.6801 13.4206 21.9001L15.3206 20.0001H18.0006C19.1006 20.0001 20.0006 19.1001 20.0006 18.0001V15.3101L21.9006 13.4101C22.6806 12.6301 22.6806 11.3601 21.9006 10.5801L20.0006 8.69014ZM14.0906 15.4001L13.6006 14.0001H10.4006L9.91062 15.4001C9.78062 15.7601 9.45062 16.0001 9.07062 16.0001C8.45062 16.0001 8.02062 15.3901 8.23062 14.8101L10.6706 7.95014C10.8706 7.38014 11.4006 7.00014 12.0006 7.00014C12.6006 7.00014 13.1306 7.38014 13.3406 7.94014L15.7806 14.8001C15.9906 15.3801 15.5606 15.9901 14.9406 15.9901C14.5506 16.0001 14.2206 15.7601 14.0906 15.4001V15.4001Z" fill="black"/>
</g>
<defs>
<clipPath id="clip0_61_16695">
<rect width="24" height="24" fill="white"/>
</clipPath>
</defs>
</svg>
