<svg viewBox="0 0 24 24" xmlns="http://www.w3.org/2000/svg">
<g clip-path="url(#clip0_61_16698)">
<path d="M20.0006 15.3101L21.9006 13.4101C22.6806 12.6301 22.6806 11.3601 21.9006 10.5801L20.0006 8.69014V6.00014C20.0006 4.90014 19.1006 4.00014 18.0006 4.00014H15.3106L13.4106 2.10014C12.6306 1.32014 11.3606 1.32014 10.5806 2.10014L8.69062 4.00014H6.00063C4.90063 4.00014 4.00063 4.90014 4.00063 6.00014V8.69014L2.10062 10.5901C1.32063 11.3701 1.32063 12.6401 2.10062 13.4201L4.00063 15.3201V18.0001C4.00063 19.1001 4.90063 20.0001 6.00063 20.0001H8.69062L10.5906 21.9001C11.3706 22.6801 12.6406 22.6801 13.4206 21.9001L15.3206 20.0001H18.0006C19.1006 20.0001 20.0006 19.1001 20.0006 18.0001V15.3101ZM12.0006 16.9001V7.10014C12.0006 6.49014 12.5506 5.99014 13.1506 6.11014C15.9106 6.65014 18.0006 9.08014 18.0006 12.0001C18.0006 14.9201 15.9106 17.3501 13.1506 17.8901C12.5506 18.0101 12.0006 17.5101 12.0006 16.9001Z"/>
</g>
<defs>
<clipPath id="clip0_61_16698">
<rect/>
</clipPath>
</defs>
</svg>
