<svg   viewBox="0 0 24 24" fill="none" xmlns="http://www.w3.org/2000/svg">
<g clip-path="url(#clip0_61_16696)">
<path d="M20.0006 8.69014V6.00014C20.0006 4.90014 19.1006 4.00014 18.0006 4.00014H15.3106L13.4106 2.10014C12.6306 1.32014 11.3606 1.32014 10.5806 2.10014L8.69062 4.00014H6.00063C4.90063 4.00014 4.00063 4.90014 4.00063 6.00014V8.69014L2.10062 10.5901C1.32063 11.3701 1.32063 12.6401 2.10062 13.4201L4.00063 15.3201V18.0001C4.00063 19.1001 4.90063 20.0001 6.00063 20.0001H8.69062L10.5906 21.9001C11.3706 22.6801 12.6406 22.6801 13.4206 21.9001L15.3206 20.0001H18.0006C19.1006 20.0001 20.0006 19.1001 20.0006 18.0001V15.3101L21.9006 13.4101C22.6806 12.6301 22.6806 11.3601 21.9006 10.5801L20.0006 8.69014ZM12.0006 18.0001C8.69062 18.0001 6.00063 15.3101 6.00063 12.0001C6.00063 8.69014 8.69062 6.00014 12.0006 6.00014C15.3106 6.00014 18.0006 8.69014 18.0006 12.0001C18.0006 15.3101 15.3106 18.0001 12.0006 18.0001ZM12.0006 8.00014C9.79062 8.00014 8.00063 9.79014 8.00063 12.0001C8.00063 14.2101 9.79062 16.0001 12.0006 16.0001C14.2106 16.0001 16.0006 14.2101 16.0006 12.0001C16.0006 9.79014 14.2106 8.00014 12.0006 8.00014Z" fill="black"/>
</g>
<defs>
<clipPath id="clip0_61_16696">
<rect width="24" height="24" fill="white"/>
</clipPath>
</defs>
</svg>
