<svg viewBox="0 0 24 24" xmlns="http://www.w3.org/2000/svg">
<g clip-path="url(#clip0_61_16699)">
<path d="M13.0024 3.8699V3.8899C13.0024 4.5599 13.4524 5.1199 14.0824 5.3199C16.9324 6.2099 19.0024 8.8599 19.0024 11.9999C19.0024 12.5199 18.9424 13.0099 18.8324 13.4899C18.6924 14.1299 18.9524 14.7899 19.5224 15.1299L19.5324 15.1399C20.3924 15.6399 21.5124 15.1899 21.7424 14.2299C21.9124 13.5099 22.0024 12.7599 22.0024 11.9999C22.0024 7.4999 19.0224 3.6799 14.9224 2.4299C13.9724 2.1399 13.0024 2.8699 13.0024 3.8699V3.8699ZM10.9424 18.9199C7.95236 18.4899 5.52236 16.0599 5.08236 13.0799C4.54236 9.4799 6.74235 6.3099 9.91235 5.3199C10.5524 5.1299 11.0024 4.5599 11.0024 3.8899V3.8699C11.0024 2.8699 10.0324 2.1399 9.07235 2.4299C4.56235 3.8099 1.41236 8.28991 2.09236 13.3899C2.68236 17.7699 6.22236 21.3099 10.6024 21.8999C13.7424 22.3199 16.6424 21.2899 18.7324 19.3699C19.4724 18.6899 19.3424 17.4799 18.4724 16.9799C17.8924 16.6399 17.1724 16.7499 16.6724 17.1999C15.2024 18.5399 13.1624 19.2499 10.9424 18.9199V18.9199Z"/>
</g>
<defs>
<clipPath id="clip0_61_16699">
<rect/>
</clipPath>
</defs>
</svg>
