<svg   viewBox="0 0 24 24" fill="none" xmlns="http://www.w3.org/2000/svg">
<g clip-path="url(#clip0_61_16700)">
<path d="M6.99875 5H16.9987V6C16.9987 6.55 17.4487 7 17.9987 7C18.5487 7 18.9987 6.55 18.9987 6V3C18.9987 1.9 18.0987 1.01 16.9987 1.01L6.99875 1C5.89875 1 4.99875 1.9 4.99875 3V6C4.99875 6.55 5.44875 7 5.99875 7C6.54875 7 6.99875 6.55 6.99875 6V5ZM16.1188 15.88L19.2888 12.71C19.6788 12.32 19.6788 11.69 19.2888 11.3L16.1188 8.13C15.7288 7.74 15.0887 7.74 14.6987 8.13C14.3087 8.52 14.3087 9.15 14.6987 9.54L17.1687 12L14.6987 14.47C14.3087 14.86 14.3087 15.49 14.6987 15.88C15.0887 16.27 15.7288 16.27 16.1188 15.88V15.88ZM9.28875 14.46L6.82875 12L9.28875 9.54C9.67875 9.15 9.67875 8.52 9.28875 8.13C8.89875 7.74 8.25875 7.74 7.86875 8.13L4.69875 11.3C4.30875 11.69 4.30875 12.32 4.69875 12.71L7.86875 15.88C8.25875 16.27 8.89875 16.27 9.28875 15.88C9.68875 15.49 9.67875 14.85 9.28875 14.46V14.46ZM16.9987 19H6.99875V18C6.99875 17.45 6.54875 17 5.99875 17C5.44875 17 4.99875 17.45 4.99875 18V21C4.99875 22.1 5.89875 23 6.99875 23H16.9987C18.0987 23 18.9987 22.1 18.9987 21V18C18.9987 17.45 18.5487 17 17.9987 17C17.4487 17 16.9987 17.45 16.9987 18V19Z" fill="black"/>
</g>
<defs>
<clipPath id="clip0_61_16700">
<rect width="24" height="24" fill="white"/>
</clipPath>
</defs>
</svg>
