<svg   viewBox="0 0 24 24" fill="none" xmlns="http://www.w3.org/2000/svg">
<g clip-path="url(#clip0_61_16710)">
<path d="M16.9987 16.44L3.60875 3.05C3.21875 2.66 2.58875 2.66 2.19875 3.05C1.80875 3.44 1.80875 4.07 2.19875 4.46L4.99875 7.27V21C4.99875 22.1 5.89875 23 6.99875 23H16.9987C18.0187 23 18.8488 22.23 18.9788 21.25L19.9988 22.27C20.3888 22.66 21.0188 22.66 21.4088 22.27C21.7988 21.88 21.7988 21.25 21.4088 20.86L18.9988 18.44L16.9987 16.44ZM6.99875 19V9.27L16.7287 19H6.99875ZM16.9987 5V13.61L18.9988 15.61V3C18.9988 1.9 18.0987 1 16.9987 1H6.99875C6.28875 1 5.66875 1.37 5.31875 1.93L8.38875 5H16.9987Z" fill="black"/>
</g>
<defs>
<clipPath id="clip0_61_16710">
<rect width="24" height="24" fill="white"/>
</clipPath>
</defs>
</svg>
