<svg viewBox="0 0 24 24" xmlns="http://www.w3.org/2000/svg">
<g clip-path="url(#clip0_61_16709)">
<path d="M18.9972 1H8.99719C7.89719 1 6.99719 1.9 6.99719 3V5C6.99719 5.55 7.44719 6 7.99719 6C8.54719 6 8.99719 5.55 8.99719 5V4H18.9972V20H8.99719V19C8.99719 18.45 8.54719 18 7.99719 18C7.44719 18 6.99719 18.45 6.99719 19V21C6.99719 22.1 7.89719 23 8.99719 23H18.9972C20.0972 23 20.9972 22.1 20.9972 21V3C20.9972 1.9 20.0972 1 18.9972 1ZM7.00719 13.47L5.08719 11.55C4.73719 11.2 4.16719 11.2 3.81719 11.55C3.46719 11.9 3.46719 12.47 3.81719 12.82L6.28719 15.29C6.67719 15.68 7.30719 15.68 7.69719 15.29L13.5472 9.44C13.8972 9.09 13.8972 8.52 13.5472 8.17C13.1972 7.82 12.6272 7.82 12.2772 8.17L7.00719 13.47V13.47Z"/>
</g>
<defs>
<clipPath id="clip0_61_16709">
<rect/>
</clipPath>
</defs>
</svg>
