<svg   viewBox="0 0 24 24" fill="none" xmlns="http://www.w3.org/2000/svg">
<g clip-path="url(#clip0_61_16714)">
<path d="M22.3014 13.77L20.4414 11.9C20.0514 11.51 19.4214 11.51 19.0314 11.9C18.6414 12.29 18.6414 12.92 19.0314 13.31L20.5414 14.83L14.8814 20.49L3.56136 9.17L9.22136 3.51L10.6214 4.91C11.0114 5.3 11.6414 5.3 12.0314 4.91C12.4214 4.52 12.4214 3.89 12.0314 3.5L10.2814 1.75C9.69136 1.16 8.74136 1.16 8.16136 1.75L1.80136 8.11C1.21136 8.7 1.21136 9.65 1.80136 10.23L13.8214 22.25C14.4114 22.84 15.3614 22.84 15.9414 22.25L22.3014 15.89C22.8914 15.3 22.8914 14.35 22.3014 13.77ZM15.0514 10H20.0514C20.6014 10 21.0514 9.55 21.0514 9V5C21.0514 4.45 20.6014 4 20.0514 4V3.5C20.0514 2.12 18.9314 1 17.5514 1C16.1714 1 15.0514 2.12 15.0514 3.5V4C14.5014 4 14.0514 4.45 14.0514 5V9C14.0514 9.55 14.5014 10 15.0514 10ZM15.8514 3.5C15.8514 2.56 16.6114 1.8 17.5514 1.8C18.4914 1.8 19.2514 2.56 19.2514 3.5V4H15.8514V3.5V3.5ZM8.85136 20.15L7.52136 21.48C4.43136 20.02 2.18136 17.11 1.63136 13.62C1.57136 13.21 1.19136 12.93 0.771356 13C0.361356 13.06 0.0813561 13.45 0.151356 13.86C0.751356 17.67 3.11136 20.87 6.39136 22.61C7.96136 23.44 9.94136 24.04 12.1914 23.99C12.3714 23.99 12.4514 23.77 12.3314 23.64L8.85136 20.15Z" fill="black"/>
</g>
<defs>
<clipPath id="clip0_61_16714">
<rect width="24" height="24" fill="white"/>
</clipPath>
</defs>
</svg>
