<svg viewBox="0 0 24 24" xmlns="http://www.w3.org/2000/svg">
<g clip-path="url(#clip0_61_16715)">
<path d="M10.2314 1.75C9.64136 1.16 8.69136 1.16 8.11136 1.75L1.75136 8.11C1.16136 8.7 1.16136 9.65 1.75136 10.23L13.7714 22.25C14.3614 22.84 15.3114 22.84 15.8914 22.25L22.2514 15.89C22.8414 15.3 22.8414 14.35 22.2514 13.77L10.2314 1.75ZM14.1214 20.48L3.52136 9.88C3.13136 9.49 3.13136 8.86 3.52136 8.47L8.47136 3.52C8.86136 3.13 9.49136 3.13 9.88136 3.52L20.4914 14.13C20.8814 14.52 20.8814 15.15 20.4914 15.54L15.5414 20.49C15.1514 20.87 14.5114 20.87 14.1214 20.48V20.48ZM17.6114 1.4C16.0414 0.569999 14.0614 -0.0300012 11.8114 0.0199988C11.6314 0.0199988 11.5514 0.239999 11.6714 0.369999L15.1514 3.85L16.4814 2.52C19.5714 3.98 21.8214 6.89 22.3714 10.38C22.4314 10.79 22.8114 11.07 23.2314 11C23.6414 10.94 23.9214 10.55 23.8514 10.14C23.2514 6.34 20.8914 3.14 17.6114 1.4V1.4ZM8.85136 20.16L7.52136 21.49C4.43136 20.03 2.18136 17.12 1.63136 13.63C1.57136 13.22 1.19136 12.94 0.771356 13.01C0.361356 13.07 0.0813561 13.46 0.151356 13.87C0.751356 17.68 3.11136 20.88 6.39136 22.62C7.96136 23.45 9.94136 24.05 12.1914 24C12.3714 24 12.4514 23.78 12.3314 23.65L8.85136 20.16V20.16Z"/>
</g>
<defs>
<clipPath id="clip0_61_16715">
<rect/>
</clipPath>
</defs>
</svg>
