<svg viewBox="0 0 24 24" xmlns="http://www.w3.org/2000/svg">
<g clip-path="url(#clip0_61_16725)">
<path d="M21.5494 9.61L23.6394 7C23.1894 6.66 18.7094 3 11.9994 3C5.27938 3 0.809375 6.66 0.359375 7L10.4394 19.56C11.2394 20.56 12.7594 20.56 13.5594 19.56L15.4994 17.14V14.5C15.4994 11.7 17.6994 9.5 20.4994 9.5C20.8594 9.5 21.2094 9.54 21.5494 9.61ZM22.9994 16V14.5C22.9994 13.1 21.8994 12 20.4994 12C19.0994 12 17.9994 13.1 17.9994 14.5V16C17.4994 16 16.9994 16.5 16.9994 17V21C16.9994 21.5 17.4994 22 17.9994 22H22.9994C23.4994 22 23.9994 21.5 23.9994 21V17C23.9994 16.5 23.4994 16 22.9994 16ZM21.9994 16H18.9994V14.5C18.9994 13.7 19.6994 13 20.4994 13C21.2994 13 21.9994 13.7 21.9994 14.5V16Z"/>
</g>
<defs>
<clipPath id="clip0_61_16725">
<rect/>
</clipPath>
</defs>
</svg>
