<svg   viewBox="0 0 24 24" fill="none" xmlns="http://www.w3.org/2000/svg">
<g clip-path="url(#clip0_61_16726)">
<path d="M23.6394 6.99978C23.1894 6.65978 18.7094 2.99979 11.9994 2.99979C10.6794 2.99979 9.44938 3.13979 8.30938 3.37979L18.4294 13.4998L23.6394 6.99978ZM4.11937 2.00979C3.72937 1.61979 3.09937 1.61979 2.70937 2.00979C2.31937 2.39979 2.31937 3.02979 2.70937 3.41979L4.05937 4.76979C1.90937 5.75979 0.589375 6.81978 0.359375 6.99978L10.4394 19.5598C11.2394 20.5598 12.7594 20.5598 13.5594 19.5598L15.9094 16.6298L18.5194 19.2398C18.9094 19.6298 19.5394 19.6298 19.9294 19.2398C20.3194 18.8498 20.3194 18.2198 19.9294 17.8298L4.11937 2.00979Z" fill="black"/>
</g>
<defs>
<clipPath id="clip0_61_16726">
<rect width="24" height="24" fill="white"/>
</clipPath>
</defs>
</svg>
