<svg viewBox="0 0 24 24" xmlns="http://www.w3.org/2000/svg">
<g clip-path="url(#clip0_61_16720)">
<path d="M21.0005 17.9998C21.5505 17.9998 22.0005 17.5498 22.0005 16.9998V10.9998C22.0005 10.4498 21.5505 9.99977 21.0005 9.99977C20.4505 9.99977 20.0005 10.4498 20.0005 10.9998V16.9998C20.0005 17.5498 20.4505 17.9998 21.0005 17.9998ZM20.0005 21.9998H22.0005V19.9998H20.0005V21.9998ZM4.41054 21.9998H18.0005V10.9998C18.0005 9.33977 19.3405 7.99977 21.0005 7.99977H22.0005V4.40977C22.0005 3.51977 20.9205 3.06977 20.2905 3.69977L3.71054 20.2898C3.08054 20.9198 3.52054 21.9998 4.41054 21.9998Z"/>
</g>
<defs>
<clipPath id="clip0_61_16720">
<rect/>
</clipPath>
</defs>
</svg>
