<svg viewBox="0 0 24 24" xmlns="http://www.w3.org/2000/svg">
<g clip-path="url(#clip0_61_16727)">
<path d="M4 20H20C21.1 20 22 19.1 22 18C22 16.9 21.1 16 20 16H4C2.9 16 2 16.9 2 18C2 19.1 2.9 20 4 20ZM4 17H6V19H4V17ZM2 6C2 7.1 2.9 8 4 8H20C21.1 8 22 7.1 22 6C22 4.9 21.1 4 20 4H4C2.9 4 2 4.9 2 6ZM6 7H4V5H6V7ZM4 14H20C21.1 14 22 13.1 22 12C22 10.9 21.1 10 20 10H4C2.9 10 2 10.9 2 12C2 13.1 2.9 14 4 14ZM4 11H6V13H4V11Z"/>
</g>
<defs>
<clipPath id="clip0_61_16727">
<rect/>
</clipPath>
</defs>
</svg>
