<svg   viewBox="0 0 24 24" fill="none" xmlns="http://www.w3.org/2000/svg">
<g clip-path="url(#clip0_61_16729)">
<path d="M17.9969 7.00014H15.9969C15.4469 7.00014 14.9969 7.45014 14.9969 8.00014V10.0001C14.9969 10.5501 15.4469 11.0001 15.9969 11.0001V13.0001H12.9969V5.00014H13.9969C14.4069 5.00014 14.6469 4.53014 14.3969 4.20014L12.3969 1.53014C12.1969 1.26014 11.7969 1.26014 11.5969 1.53014L9.59688 4.20014C9.34688 4.53014 9.58687 5.00014 9.99687 5.00014H10.9969V13.0001H7.99687V10.9301C8.82687 10.4901 9.37688 9.57014 9.13688 8.50014C8.96688 7.73014 8.36687 7.10014 7.61687 6.89014C6.14687 6.48014 4.79688 7.59014 4.79688 9.00014C4.79688 9.85014 5.29687 10.5601 5.99687 10.9301V13.0001C5.99687 14.1001 6.89687 15.0001 7.99687 15.0001H10.9969V18.0501C10.1369 18.5001 9.60687 19.4701 9.86687 20.5401C10.0469 21.2901 10.6569 21.9201 11.4069 22.1201C12.8669 22.5101 14.2069 21.4201 14.2069 20.0001C14.2069 19.1501 13.7169 18.4201 13.0069 18.0501V15.0001H16.0069C17.1069 15.0001 18.0069 14.1001 18.0069 13.0001V11.0001C18.5569 11.0001 19.0069 10.5501 19.0069 10.0001V8.00014C18.9969 7.45014 18.5469 7.00014 17.9969 7.00014Z" fill="black"/>
</g>
<defs>
<clipPath id="clip0_61_16729">
<rect width="24" height="24" fill="white"/>
</clipPath>
</defs>
</svg>
