<svg viewBox="0 0 24 24" xmlns="http://www.w3.org/2000/svg">
<g clip-path="url(#clip0_61_16733)">
<path d="M11.9961 11.0002C10.8961 11.0002 9.99615 11.9002 9.99615 13.0002C9.99615 14.1002 10.8961 15.0002 11.9961 15.0002C13.0961 15.0002 13.9961 14.1002 13.9961 13.0002C13.9961 11.9002 13.0961 11.0002 11.9961 11.0002ZM17.9961 13.0002C17.9961 9.44019 14.8861 6.60019 11.2461 7.05019C8.62615 7.37019 6.46615 9.46019 6.06615 12.0702C5.73615 14.2202 6.55615 16.1802 7.99615 17.4702C8.47615 17.9002 9.22615 17.8002 9.55615 17.2402L9.56615 17.2302C9.80615 16.8102 9.70615 16.3002 9.34615 15.9702C8.31615 15.0402 7.75615 13.6002 8.12615 12.0302C8.45615 10.6102 9.60615 9.46019 11.0261 9.12019C13.6461 8.49019 15.9961 10.4702 15.9961 13.0002C15.9961 14.1802 15.4761 15.2302 14.6661 15.9602C14.3061 16.2802 14.1961 16.8002 14.4361 17.2202L14.4461 17.2302C14.7561 17.7602 15.4761 17.9202 15.9461 17.5102C17.1961 16.4102 17.9961 14.8002 17.9961 13.0002ZM10.8261 3.07019C6.20615 3.59019 2.47615 7.40019 2.04615 12.0302C1.69615 15.7302 3.36615 19.0502 6.06615 21.0402C6.54615 21.3902 7.22615 21.2402 7.52615 20.7302C7.77615 20.3002 7.66615 19.7402 7.26615 19.4402C4.98615 17.7502 3.61615 14.8902 4.10615 11.7402C4.64615 8.24019 7.56615 5.45019 11.0861 5.06019C15.9061 4.51019 19.9961 8.28019 19.9961 13.0002C19.9961 15.6502 18.7061 17.9802 16.7261 19.4402C16.3261 19.7402 16.2161 20.2902 16.4661 20.7302C16.7661 21.2502 17.4461 21.3902 17.9261 21.0402C20.3961 19.2202 21.9961 16.3002 21.9961 13.0002C21.9961 7.09019 16.8661 2.38019 10.8261 3.07019Z"/>
</g>
<defs>
<clipPath id="clip0_61_16733">
<rect/>
</clipPath>
</defs>
</svg>
