<svg   viewBox="0 0 24 24" fill="none" xmlns="http://www.w3.org/2000/svg">
<path fill-rule="evenodd" clip-rule="evenodd" d="M20.0853 16.9323C20.5303 12.6556 20.5303 8.34432 20.0853 4.06762C19.9266 2.54257 18.1682 1.77006 16.9377 2.68478L12.8341 5.73519C11.5836 6.6647 10.067 7.16665 8.50889 7.16665H4.67969C3.98933 7.16665 3.42969 7.72629 3.42969 8.41664V12.5833C3.42969 13.2737 3.98933 13.8333 4.67969 13.8333H5.30397L4.45861 16.9882C4.36441 17.3398 4.53622 17.7082 4.86608 17.8621L8.54723 19.5787C8.74815 19.6724 8.98023 19.6724 9.18116 19.5787C9.38208 19.485 9.53126 19.3072 9.58864 19.093L10.8513 14.3806C10.8647 14.3306 10.8728 14.2803 10.8757 14.2305C11.5732 14.4714 12.2343 14.8189 12.8341 15.2648L16.9377 18.3152C18.1682 19.2299 19.9266 18.4574 20.0853 16.9323ZM18.5933 4.22285C19.0276 8.39634 19.0276 12.6036 18.5933 16.7771C18.555 17.1457 18.13 17.3324 17.8326 17.1114L13.7289 14.0609C12.2198 12.9391 10.3893 12.3333 8.50888 12.3333L4.92969 12.3333L4.92969 8.66665H8.50888C10.3893 8.66665 12.2197 8.06085 13.7289 6.93902L17.8326 3.88861C18.13 3.66752 18.555 3.85424 18.5933 4.22285ZM9.43664 13.8929C9.13024 13.8534 8.82039 13.8333 8.50888 13.8333H6.85688L6.07038 16.7686L8.37109 17.8415L9.40245 13.9924C9.41166 13.958 9.42313 13.9248 9.43664 13.8929Z" fill="black"/>
</svg>
