<svg   viewBox="0 0 24 24" fill="none" xmlns="http://www.w3.org/2000/svg">
<path d="M11.5362 4.13112C11.6338 3.98765 11.5261 3.78849 11.3538 3.80875C5.95865 4.4432 2.47529 10.1043 4.59377 15.3042L5.52611 17.5927C5.56783 17.6951 5.53733 17.8127 5.45113 17.8819L3.47964 19.4652C3.2315 19.6645 3.13615 19.9987 3.24177 20.2989C3.3474 20.5991 3.631 20.8 3.94926 20.8H11.7695C16.5681 20.8 20.4878 16.9605 20.7391 12.2196C20.7485 12.0415 20.5325 11.9486 20.3968 12.0644C20.0796 12.3352 19.7338 12.5736 19.3647 12.7743C19.249 12.8372 19.168 12.9498 19.1459 13.0795C18.5461 16.611 15.4719 19.3 11.7695 19.3H6.08093L6.39037 19.0515C6.9938 18.5669 7.20725 17.7435 6.91525 17.0268L5.98291 14.7383C4.36013 10.7551 6.74005 6.44236 10.6632 5.45784C10.7954 5.42466 10.9046 5.33023 10.9567 5.20432C11.1138 4.82545 11.3085 4.46615 11.5362 4.13112Z" fill="black"/>
<path fill-rule="evenodd" clip-rule="evenodd" d="M12.8338 10.1074C12.31 9.37179 12.0019 8.47187 12.0019 7.5C12.0019 5.01472 14.0166 3 16.5019 3C17.4738 3 18.3737 3.30809 19.1093 3.83194C19.5192 4.12383 19.8781 4.48271 20.17 4.8926C20.6938 5.62821 21.0019 6.52813 21.0019 7.5C21.0019 9.98528 18.9872 12 16.5019 12C15.53 12 14.6301 11.6919 13.8945 11.1681C13.4846 10.8762 13.1257 10.5173 12.8338 10.1074ZM14.9779 10.0846C15.4246 10.3486 15.9455 10.5 16.5019 10.5C18.1587 10.5 19.5019 9.15685 19.5019 7.5C19.5019 6.94364 19.3504 6.42266 19.0865 5.97602L14.9779 10.0846ZM18.0259 4.91536L13.9173 9.02398C13.6533 8.57734 13.5019 8.05636 13.5019 7.5C13.5019 5.84315 14.845 4.5 16.5019 4.5C17.0582 4.5 17.5792 4.65145 18.0259 4.91536Z" fill="black"/>
</svg>
