<svg viewBox="0 0 24 24" xmlns="http://www.w3.org/2000/svg">
<path d="M15.1019 11.45C15.5161 11.45 15.8519 11.7858 15.8519 12.2C15.8519 12.6142 15.5161 12.95 15.1019 12.95H9.6019C9.18769 12.95 8.8519 12.6142 8.8519 12.2C8.8519 11.7858 9.18769 11.45 9.6019 11.45H15.1019Z"/>
<path fill-rule="evenodd" clip-rule="evenodd" d="M4.59377 15.3042C2.34591 9.78675 6.40501 3.75 12.3628 3.75H12.6843C17.1399 3.75 20.7519 7.36201 20.7519 11.8176C20.7519 16.7785 16.7304 20.8 11.7695 20.8H3.94926C3.631 20.8 3.3474 20.5991 3.24177 20.2989C3.13615 19.9987 3.2315 19.6645 3.47964 19.4652L5.45113 17.8819C5.53733 17.8127 5.56783 17.6951 5.52611 17.5927L4.59377 15.3042ZM12.3628 5.25C7.4703 5.25 4.13698 10.2074 5.98291 14.7383L6.91525 17.0268C7.20725 17.7435 6.9938 18.5669 6.39037 19.0515L6.08093 19.3H11.7695C15.9019 19.3 19.2519 15.95 19.2519 11.8176C19.2519 8.19044 16.3115 5.25 12.6843 5.25H12.3628Z"/>
</svg>
