<svg   viewBox="0 0 24 24" fill="none" xmlns="http://www.w3.org/2000/svg">
<path d="M10.0009 9.00008C10.0009 7.89551 10.8963 7.00008 12.0009 7.00008C13.1055 7.00008 14.0009 7.89551 14.0009 9.00008C14.0009 10.1047 13.1055 11.0001 12.0009 11.0001C10.8963 11.0001 10.0009 10.1047 10.0009 9.00008Z" fill="black"/>
<path d="M11.0009 12.5001C9.34406 12.5001 8.00092 13.8432 8.00092 15.5001C8.00092 16.0524 8.44863 16.5001 9.00092 16.5001H15.0009C15.5532 16.5001 16.0009 16.0524 16.0009 15.5001C16.0009 13.8432 14.6578 12.5001 13.0009 12.5001H11.0009Z" fill="black"/>
<path fill-rule="evenodd" clip-rule="evenodd" d="M7.54444 2.88277C10.5002 2.45802 13.5016 2.45802 16.4574 2.88277C17.9229 3.09335 19.052 4.28274 19.1861 5.7572L19.3131 7.15293C19.6064 10.3777 19.6064 13.6225 19.3131 16.8472L19.1861 18.243C19.052 19.7174 17.9229 20.9068 16.4574 21.1174C13.5016 21.5421 10.5002 21.5421 7.54444 21.1174C6.07895 20.9068 4.94986 19.7174 4.81573 18.243L4.68876 16.8472C4.39541 13.6225 4.39541 10.3777 4.68876 7.15293L4.81573 5.7572C4.94986 4.28274 6.07895 3.09335 7.54444 2.88277ZM16.244 4.36751C13.4298 3.96311 10.5721 3.96311 7.7578 4.36751C6.98001 4.47928 6.38075 5.11054 6.30956 5.89309L6.1826 7.28882C5.89747 10.4232 5.89747 13.577 6.1826 16.7113L6.30956 18.1071C6.38075 18.8896 6.98 19.5209 7.7578 19.6327C10.5721 20.0371 13.4298 20.0371 16.2441 19.6327C17.0218 19.5209 17.6211 18.8896 17.6923 18.1071L17.8193 16.7113C18.1044 13.577 18.1044 10.4232 17.8193 7.28882L17.6923 5.89309C17.6211 5.11054 17.0218 4.47928 16.244 4.36751Z" fill="black"/>
</svg>
