<svg   viewBox="0 0 24 24" fill="none" xmlns="http://www.w3.org/2000/svg">
<path fill-rule="evenodd" clip-rule="evenodd" d="M13.2982 18.7499C13.4644 18.7499 13.6179 18.6608 13.7002 18.5163L17.0461 12.6431C17.4897 11.8646 17.6758 10.9657 17.5779 10.0751L17.2248 6.86142C17.1619 6.28964 16.7131 5.83673 16.1419 5.76878L14.0248 5.51694C12.6273 5.35069 11.2102 5.4948 9.87475 5.939C9.21521 6.15837 8.68694 6.65896 8.43243 7.30575L6.72834 11.6363C6.68668 11.7422 6.65788 11.8527 6.64258 11.9654C6.51334 12.9175 7.34681 13.7207 8.29348 13.5563L11.7093 12.963C12.7883 12.7756 13.7202 13.7278 13.5096 14.8025L12.8442 18.1984C12.7882 18.4841 13.007 18.7499 13.2982 18.7499ZM15.0035 19.2588C14.6544 19.8716 14.0034 20.2499 13.2982 20.2499C12.0628 20.25 11.1346 19.1223 11.3722 17.9099L12.0376 14.5141C12.0405 14.4995 12.0389 14.4906 12.0369 14.4843C12.0345 14.4764 12.0294 14.4672 12.021 14.4586C12.0127 14.4501 12.0036 14.4448 11.9958 14.4422C11.9894 14.4401 11.9806 14.4383 11.966 14.4409L8.55016 15.0342C6.60398 15.3722 4.89051 13.721 5.15621 11.7637C5.18768 11.5319 5.24687 11.3047 5.33252 11.0871L7.03661 6.75649C7.45389 5.69606 8.32 4.87532 9.40133 4.51566C10.9462 4.00183 12.5854 3.83513 14.202 4.02744L16.3191 4.27928C17.5833 4.42967 18.5767 5.43207 18.7158 6.69757L19.0689 9.91125C19.2014 11.1163 18.9495 12.3323 18.3495 13.3856L15.0035 19.2588Z" fill="black"/>
</svg>
