<svg viewBox="0 0 24 24" xmlns="http://www.w3.org/2000/svg">
<path fill-rule="evenodd" clip-rule="evenodd" d="M19.8049 5.37072C20.4722 5.85234 20.9434 6.59094 21.0725 7.44945C21.1178 7.7503 21.1585 8.05166 21.1947 8.35342C21.4749 10.9563 21.4624 13.9581 21.0725 16.5505C20.8568 17.9849 19.6862 19.0845 18.2411 19.2101L16.7309 19.3414C13.5818 19.6151 10.415 19.6151 7.26591 19.3414L5.75568 19.2101C4.31061 19.0845 3.13994 17.9849 2.92424 16.5505C2.53442 13.9581 2.52193 10.9562 2.80208 8.35326C2.83829 8.05155 2.87901 7.75025 2.92424 7.44945C3.05317 6.59213 3.52324 5.85438 4.18915 5.37272L4.18839 5.36599L4.23564 5.33973C4.40815 5.21966 4.59323 5.11653 4.78846 5.03261L9.20441 2.57931C10.941 1.61451 13.0527 1.61451 14.7893 2.57931L19.1951 5.02695C19.3997 5.11377 19.5932 5.22167 19.773 5.34802L19.8054 5.36602L19.8049 5.37072ZM18.9639 6.61448L14.0608 3.89054C12.7772 3.17744 11.2165 3.17744 9.93287 3.89054L5.04121 6.60814C4.70773 6.85975 4.47313 7.23651 4.40757 7.67251C4.39587 7.75028 4.38449 7.82808 4.37343 7.90592L9.93437 10.9953C11.218 11.7084 12.7787 11.7084 14.0623 10.9953L19.6233 7.90589C19.6123 7.82806 19.6009 7.75027 19.5892 7.67251C19.5242 7.24016 19.293 6.86606 18.9639 6.61448ZM19.7039 15.4805C19.9423 13.5015 19.9766 11.5042 19.8069 9.51987L14.7908 12.3066C13.0542 13.2714 10.9425 13.2714 9.20591 12.3066L4.18988 9.5199C4.02016 11.5042 4.0545 13.5015 4.2929 15.4805C4.32696 15.7632 4.36518 16.0456 4.40757 16.3274C4.43156 16.487 4.4782 16.6386 4.54404 16.7791C4.78714 17.2977 5.29202 17.6642 5.88558 17.7158L7.39582 17.847C10.4584 18.1133 13.5384 18.1133 16.601 17.8471L18.1112 17.7158C18.5827 17.6748 18.9982 17.4352 19.271 17.0785C19.4347 16.8644 19.547 16.6082 19.5892 16.3274C19.6316 16.0456 19.6698 15.7632 19.7039 15.4805Z"/>
</svg>
