<svg viewBox="0 0 24 24" xmlns="http://www.w3.org/2000/svg">
<path fill-rule="evenodd" clip-rule="evenodd" d="M2.80208 8.3533C2.52193 10.9562 2.53442 13.9582 2.92424 16.5505C3.13994 17.9849 4.31061 19.0845 5.75568 19.2102L7.26591 19.3414C10.415 19.6152 13.5818 19.6152 16.7309 19.3414L18.2411 19.2102C19.6862 19.0845 20.8568 17.9849 21.0725 16.5505C21.4624 13.9582 21.4749 10.9564 21.1947 8.35345C21.1585 8.05169 21.1178 7.75034 21.0725 7.44949C20.8568 6.0151 19.6862 4.91545 18.2411 4.78983L16.7309 4.65855C13.5818 4.38481 10.415 4.38481 7.26591 4.65855L5.75568 4.78983C4.31061 4.91545 3.13994 6.0151 2.92424 7.44949C2.87901 7.75028 2.83829 8.05159 2.80208 8.3533ZM7.39582 6.15292C10.4584 5.88669 13.5384 5.88669 16.601 6.15292L18.1112 6.2842C18.8655 6.34977 19.4766 6.92379 19.5892 7.67254C19.6009 7.7503 19.6123 7.82809 19.6233 7.90592L14.0623 10.9954C12.7787 11.7085 11.218 11.7085 9.93437 10.9954L4.37343 7.90596C4.38449 7.82812 4.39587 7.75031 4.40757 7.67254C4.52016 6.92379 5.13125 6.34977 5.88558 6.2842L7.39582 6.15292ZM19.8069 9.51989C20.0009 11.7876 19.9283 14.0725 19.5892 16.3274C19.4766 17.0762 18.8655 17.6502 18.1112 17.7158L16.601 17.8471C13.5384 18.1133 10.4584 18.1133 7.39582 17.8471L5.88558 17.7158C5.13125 17.6502 4.52016 17.0762 4.40757 16.3274C4.06848 14.0725 3.99592 11.7877 4.18988 9.51992L9.20591 12.3066C10.9425 13.2714 13.0542 13.2714 14.7908 12.3066L19.8069 9.51989Z"/>
</svg>
