<svg viewBox="0 0 24 24" xmlns="http://www.w3.org/2000/svg">
<path fill-rule="evenodd" clip-rule="evenodd" d="M2.46014 16.8191C2.23856 16.5893 2.1867 16.2444 2.33091 15.9596L3.03241 14.5743C4.69268 11.2954 8.05563 9.2288 11.7308 9.2288H12.0757C12.1009 8.68242 12.1334 8.1363 12.1731 7.59057L12.241 6.65993C12.2961 5.90311 13.14 5.48004 13.7795 5.88863C15.8771 7.22899 17.7007 8.95608 19.153 10.9778L19.6091 11.6128C19.797 11.8742 19.797 12.2264 19.6091 12.4879L19.153 13.1228C17.7007 15.1446 15.8771 16.8717 13.7795 18.212C13.14 18.6206 12.2961 18.1976 12.241 17.4407L12.1731 16.5101C12.1256 15.8584 12.0886 15.2061 12.0619 14.5535C9.91207 14.4914 7.76486 14.9253 5.7915 15.8361L3.31431 16.9794C3.02447 17.1132 2.68173 17.0488 2.46014 16.8191ZM4.67839 14.6978L5.16291 14.4742C7.57405 13.3613 10.2196 12.8915 12.8447 13.0932C13.227 13.1225 13.5256 13.4355 13.5369 13.8188C13.5624 14.6802 13.6065 15.5411 13.6692 16.401L13.6746 16.4755C15.3181 15.3138 16.7583 13.8855 17.9348 12.2477L18.0766 12.0503L17.9348 11.853C16.7583 10.2152 15.3181 8.78683 13.6746 7.62517L13.6692 7.69962C13.6132 8.46723 13.5721 9.23565 13.5458 10.0044C13.532 10.4084 13.2005 10.7288 12.7962 10.7288L11.7308 10.7288C8.83352 10.7288 6.16555 12.2467 4.67839 14.6978Z"/>
</svg>
