<svg   viewBox="0 0 24 24" fill="none" xmlns="http://www.w3.org/2000/svg">
<path fill-rule="evenodd" clip-rule="evenodd" d="M10.7036 5.25C10.5374 5.25 10.3839 5.33919 10.3016 5.48362L6.95566 11.3569C6.51213 12.1354 6.326 13.0342 6.42387 13.9249L6.77702 17.1385C6.83985 17.7103 7.28872 18.1632 7.85992 18.2312L9.97697 18.483C11.3745 18.6493 12.7916 18.5051 14.127 18.0609C14.7866 17.8416 15.3149 17.341 15.5694 16.6942L17.2735 12.3636C17.3151 12.2578 17.3439 12.1473 17.3592 12.0345C17.4885 11.0824 16.655 10.2792 15.7083 10.4437L12.2925 11.0369C11.2135 11.2243 10.2816 10.2722 10.4922 9.19744L11.1576 5.80158C11.2136 5.51581 10.9948 5.25 10.7036 5.25ZM8.9983 4.74111C9.34739 4.12836 9.99838 3.75001 10.7036 3.75C11.939 3.74999 12.8671 4.87768 12.6296 6.09001L11.9642 9.48587C11.9613 9.50042 11.9629 9.50931 11.9649 9.51569C11.9673 9.52355 11.9724 9.53276 11.9808 9.5413C11.9891 9.54984 11.9982 9.5551 12.006 9.55774C12.0124 9.55988 12.0212 9.5616 12.0358 9.55906L15.4516 8.96579C17.3978 8.62777 19.1113 10.2789 18.8456 12.2363C18.8141 12.4681 18.7549 12.6952 18.6693 12.9129L16.9652 17.2435C16.5479 18.3039 15.6818 19.1246 14.6005 19.4843C13.0556 19.9981 11.4164 20.1648 9.79978 19.9725L7.68273 19.7207C6.41852 19.5703 5.42505 18.5679 5.28599 17.3024L4.93285 14.0887C4.80043 12.8837 5.05225 11.6677 5.65233 10.6143L8.9983 4.74111Z" fill="black"/>
</svg>
