<svg viewBox="0 0 24 24" xmlns="http://www.w3.org/2000/svg">
<path fill-rule="evenodd" clip-rule="evenodd" d="M6.66499 4.41418C6.66499 3.99997 7.00078 3.66418 7.41499 3.66418H10.2434C10.6576 3.66418 10.9934 3.99997 10.9934 4.41418C10.9934 4.8284 10.6576 5.16418 10.2434 5.16418H9.22565L11.824 7.76253C11.9216 7.86017 12.0799 7.86016 12.1776 7.76253L16.0562 3.88385C16.3491 3.59096 16.824 3.59096 17.1169 3.88385C17.4098 4.17675 17.4098 4.65162 17.1169 4.94451L13.2382 8.82319C12.5548 9.50661 11.4468 9.50661 10.7633 8.82319L8.16499 6.22484V7.24261C8.16499 7.65683 7.82921 7.99261 7.41499 7.99261C7.00078 7.99261 6.66499 7.65683 6.66499 7.24261V4.41418Z"/>
<path fill-rule="evenodd" clip-rule="evenodd" d="M17.9726 13.5721C13.9568 12.084 9.51996 12.145 5.5387 13.7552L5.52613 13.7603L4.7453 14.0596C3.75112 14.441 3.16037 15.467 3.3297 16.5182L3.67575 18.6665C3.69688 18.7977 3.817 18.8895 3.94915 18.8753L6.79139 18.5713C6.93269 18.5562 7.03299 18.4265 7.01208 18.286L6.79817 16.8475C6.74622 16.4982 6.94503 16.1599 7.27551 16.0354C10.3121 14.891 13.6718 14.891 16.7084 16.0354C17.0389 16.16 17.2377 16.4982 17.1857 16.8475L16.9718 18.286C16.9509 18.4265 17.0512 18.5562 17.1925 18.5713L20.0351 18.8754C20.1672 18.8895 20.2873 18.7978 20.3085 18.6666L20.6572 16.5075C20.8281 15.4497 20.2292 14.4182 19.2259 14.042L17.974 13.5726L17.9726 13.5721ZM4.98264 12.3621C9.30986 10.6138 14.1312 10.5485 18.4953 12.1661L18.4979 12.1671L19.7525 12.6375C21.4247 13.2644 22.4228 14.9837 22.138 16.7467L21.7893 18.9058C21.641 19.824 20.8004 20.4658 19.8756 20.3669L17.033 20.0628C16.0439 19.957 15.3418 19.0492 15.4881 18.0653L15.6107 17.2411C13.2594 16.4891 10.7245 16.4891 8.37319 17.2411L8.49577 18.0653C8.64208 19.0492 7.93997 19.957 6.95093 20.0628L4.10869 20.3668C3.18359 20.4658 2.34279 19.8236 2.19484 18.9051L1.84879 16.7568C1.56657 15.0047 2.55116 13.2947 4.20811 12.6591L4.98264 12.3621Z"/>
</svg>
