<svg   viewBox="0 0 24 24" fill="none" xmlns="http://www.w3.org/2000/svg">
<path d="M10.9957 10.8253C11.1015 10.7195 11.1128 10.5522 11.0254 10.4308C10.6838 9.95653 10.3763 9.45581 10.1064 8.93221L10.7759 8.43605C11.5751 7.84381 11.7205 6.70542 11.096 5.93125L9.30094 3.7062C8.71694 2.98231 7.66871 2.8417 6.91459 3.38611L5.1413 4.66627C3.69332 5.71158 3.18339 7.63299 3.92249 9.25874L4.47699 10.4785L4.47816 10.481C5.13184 11.9047 5.95696 13.2302 6.92788 14.4319C7.03858 14.5689 7.24328 14.5778 7.36782 14.4532L8.00857 13.8125C8.11785 13.7032 8.126 13.529 8.0296 13.4082C7.16496 12.3247 6.42844 11.1335 5.84194 9.85641L5.84134 9.85511L5.288 8.63795C4.84454 7.6625 5.1505 6.50966 6.01928 5.88247L7.79258 4.60231C7.90031 4.52454 8.05006 4.54462 8.13348 4.64804L9.92853 6.87308C10.0177 6.98368 9.99697 7.14631 9.8828 7.23091L8.71442 8.09677C8.43067 8.30705 8.33208 8.68681 8.47769 9.00857C8.86867 9.87251 9.34827 10.6869 9.90509 11.4402C10.0123 11.5852 10.2229 11.5981 10.3505 11.4706L10.9957 10.8253Z" fill="black"/>
<path fill-rule="evenodd" clip-rule="evenodd" d="M19.9988 3.94361L4.03199 19.9104C4.02302 19.9193 4.01388 19.928 4.00458 19.9365L3.97133 19.9697C3.67844 20.2626 3.67844 20.7375 3.97133 21.0304C4.26423 21.3233 4.7391 21.3233 5.03199 21.0304L9.23949 16.8229C10.7008 18.0874 12.3616 19.129 14.1716 19.8974L14.9293 20.235C16.5504 20.9572 18.4558 20.4443 19.4951 19.0058L20.7695 17.242C21.3143 16.4879 21.1739 15.4393 20.4498 14.8551L18.2251 13.0603C17.4509 12.4358 16.3125 12.5812 15.7203 13.3804L15.2241 14.0499C14.5311 13.6928 13.8782 13.2697 13.2736 12.7888L21.032 5.03036C21.3249 4.73747 21.3249 4.26259 21.032 3.9697C20.7481 3.68578 20.2931 3.67708 19.9988 3.94361ZM15.1477 15.6786C14.0854 15.1978 13.098 14.5831 12.2068 13.8555L10.3032 15.7592C11.6288 16.8919 13.1302 17.8265 14.7635 18.5191L14.776 18.5244L15.5398 18.8648C16.5124 19.2982 17.6557 18.9904 18.2793 18.1273L19.5536 16.3636C19.6315 16.2558 19.6114 16.106 19.508 16.0226L17.2832 14.2278C17.1726 14.1385 17.01 14.1593 16.9254 14.2735L16.0595 15.4419C15.8492 15.7256 15.4695 15.8242 15.1477 15.6786Z" fill="black"/>
</svg>
