<svg viewBox="0 0 24 24" xmlns="http://www.w3.org/2000/svg">
<path fill-rule="evenodd" clip-rule="evenodd" d="M5.84194 9.85641C7.62925 13.7483 10.8097 16.8425 14.7635 18.5191L14.776 18.5244L15.5398 18.8648C16.5124 19.2982 17.6557 18.9904 18.2793 18.1273L19.5536 16.3636C19.6315 16.2558 19.6114 16.106 19.508 16.0226L17.2832 14.2278C17.1726 14.1385 17.01 14.1593 16.9254 14.2735L16.0595 15.4419C15.8492 15.7256 15.4695 15.8242 15.1477 15.6786C12.1913 14.3407 9.81562 11.965 8.47769 9.00857C8.33208 8.68681 8.43067 8.30705 8.71442 8.09677L9.8828 7.23091C9.99697 7.14631 10.0177 6.98368 9.92853 6.87308L8.13348 4.64804C8.05006 4.54462 7.90031 4.52454 7.79258 4.60231L6.01928 5.88247C5.1505 6.50966 4.84454 7.6625 5.288 8.63795L5.84134 9.85511C5.84154 9.85555 5.84174 9.85598 5.84194 9.85641ZM14.1716 19.8974C9.87557 18.0738 6.42021 14.7108 4.47816 10.481L4.47699 10.4785L3.92249 9.25874C3.18339 7.63299 3.69332 5.71158 5.1413 4.66627L6.91459 3.38611C7.66871 2.8417 8.71694 2.98231 9.30094 3.7062L11.096 5.93125C11.7205 6.70542 11.5751 7.84381 10.7759 8.43605L10.1064 8.93221C11.2373 11.1266 13.0297 12.919 15.2241 14.0499L15.7203 13.3804C16.3125 12.5812 17.4509 12.4358 18.2251 13.0603L20.4498 14.8551C21.1739 15.4393 21.3143 16.4879 20.7695 17.242L19.4951 19.0058C18.4558 20.4443 16.5504 20.9572 14.9293 20.235L14.1716 19.8974Z"/>
</svg>
