<svg viewBox="0 0 24 24" xmlns="http://www.w3.org/2000/svg">
<path fill-rule="evenodd" clip-rule="evenodd" d="M4.47816 10.481C6.42021 14.7108 9.87557 18.0738 14.1716 19.8974L14.9293 20.235C16.5504 20.9572 18.4558 20.4443 19.4951 19.0058L20.7695 17.242C21.3143 16.4879 21.1739 15.4393 20.4498 14.8551L18.2251 13.0603C17.4509 12.4358 16.3125 12.5812 15.7203 13.3804L15.2241 14.0499C13.0297 12.919 11.2373 11.1266 10.1064 8.93221L10.7759 8.43605C11.5751 7.84381 11.7205 6.70542 11.096 5.93125L9.30094 3.7062C8.71694 2.98231 7.66871 2.8417 6.91459 3.38611L5.1413 4.66627C3.69332 5.71158 3.18339 7.63299 3.92249 9.25874L4.47699 10.4785L4.47816 10.481ZM14.7635 18.5191C10.8097 16.8425 7.62925 13.7483 5.84194 9.85641L5.84134 9.85511L5.288 8.63795C4.84454 7.6625 5.1505 6.50966 6.01928 5.88247L7.79258 4.60231C7.90031 4.52454 8.05006 4.54462 8.13348 4.64804L9.92853 6.87308C10.0177 6.98368 9.99697 7.14631 9.8828 7.23091L8.71442 8.09677C8.43067 8.30705 8.33208 8.68681 8.47769 9.00857C9.81562 11.965 12.1913 14.3407 15.1477 15.6786C15.4695 15.8242 15.8492 15.7256 16.0595 15.4419L16.9254 14.2735C17.01 14.1593 17.1726 14.1385 17.2832 14.2278L19.508 16.0226C19.6114 16.106 19.6315 16.2558 19.5536 16.3636L18.2793 18.1273C17.6557 18.9904 16.5124 19.2982 15.5398 18.8648L14.776 18.5244L14.7635 18.5191Z"/>
<path d="M13.7517 9.00003C13.7517 9.19894 13.8307 9.38971 13.9713 9.53036C14.112 9.67101 14.3028 9.75003 14.5017 9.75003H18.3301C18.7443 9.75003 19.0801 9.41424 19.0801 9.00003C19.0801 8.58582 18.7443 8.25003 18.3301 8.25003H16.3123L19.4713 5.09102C19.7642 4.79813 19.7642 4.32325 19.4713 4.03036C19.1784 3.73747 18.7036 3.73747 18.4107 4.03036L15.2517 7.18937V5.1716C15.2517 4.75739 14.9159 4.4216 14.5017 4.4216C14.0874 4.4216 13.7517 4.75739 13.7517 5.1716V9.00003Z"/>
</svg>
