<svg viewBox="0 0 24 24" xmlns="http://www.w3.org/2000/svg">
<path fill-rule="evenodd" clip-rule="evenodd" d="M20.5385 16.8073C20.76 16.5775 20.8119 16.2326 20.6677 15.9478L19.9376 14.5059C18.2773 11.2271 14.9143 9.16048 11.2391 9.16049H10.8353C10.8099 8.60714 10.777 8.05406 10.7367 7.50138L10.6683 6.56241C10.613 5.80389 9.7672 5.37987 9.12633 5.78937C7.01063 7.14127 5.17134 8.88321 3.70653 10.9224L3.24634 11.563C3.05851 11.8245 3.05851 12.1766 3.24634 12.4381L3.70653 13.0787C5.17134 15.1179 7.01063 16.8598 9.12633 18.2117C9.76721 18.6212 10.613 18.1972 10.6683 17.4387L10.7367 16.4997C10.7848 15.8402 10.8223 15.18 10.8492 14.5196C13.0214 14.4559 15.1911 14.8939 17.1849 15.8141L19.6843 16.9676C19.9741 17.1014 20.3169 17.0371 20.5385 16.8073ZM18.3276 14.6894L17.8135 14.4522C15.3819 13.3299 12.7138 12.856 10.0664 13.0594C9.68404 13.0888 9.38544 13.4018 9.37411 13.785C9.34842 14.6542 9.30394 15.5229 9.24069 16.3907L9.23435 16.4776C7.57154 15.3039 6.11452 13.8598 4.92478 12.2036L4.77892 12.0005L4.92478 11.7975C6.11452 10.1413 7.57154 8.69718 9.23435 7.52347L9.24069 7.61043C9.29715 8.38499 9.33865 9.16037 9.36519 9.93613C9.37901 10.3401 9.71052 10.6605 10.1147 10.6605L11.2391 10.6605C14.16 10.6605 16.8478 12.2032 18.3276 14.6894Z"/>
</svg>
