<svg viewBox="0 0 24 24" xmlns="http://www.w3.org/2000/svg">
<path fill-rule="evenodd" clip-rule="evenodd" d="M7.25091 15.0507C7.24263 15.3948 7.46965 15.7004 7.80149 15.7918C8.13333 15.8832 8.48481 15.737 8.65392 15.4372L9.55622 13.8377C10.6263 11.9407 12.7565 10.9015 14.9102 11.2256L15.0595 11.2481C15.0864 11.9259 15.1245 12.6035 15.1738 13.2804L15.2416 14.211C15.2968 14.9678 16.1407 15.3909 16.7801 14.9823C18.8778 13.6419 20.7014 11.9149 22.1537 9.8931L22.6098 9.25816C22.7976 8.99669 22.7976 8.64451 22.6098 8.38303L22.1537 7.7481C20.7014 5.72634 18.8778 3.99925 16.7801 2.65889C16.1407 2.25031 15.2968 2.67338 15.2416 3.43019L15.1738 4.36083C15.134 4.90656 15.1016 5.45269 15.0764 5.99907L14.0582 5.99907C10.3935 5.99907 7.39823 8.92317 7.31014 12.5868L7.25091 15.0507ZM15.1334 9.74232C12.7141 9.3782 10.3179 10.3522 8.83363 12.2306C9.09524 9.56748 11.3399 7.49907 14.0582 7.49907L15.7969 7.49907C16.2011 7.49907 16.5326 7.17871 16.5465 6.77471C16.5728 6.00591 16.6139 5.23749 16.6698 4.46989L16.6753 4.39543C18.3187 5.55709 19.759 6.98548 20.9355 8.62323L21.0772 8.8206L20.9355 9.01797C19.759 10.6557 18.3187 12.0841 16.6753 13.2458L16.6698 13.1713C16.6069 12.3074 16.5627 11.4425 16.5373 10.5772C16.5266 10.2146 16.2579 9.91156 15.8992 9.85757L15.1334 9.74232Z"/>
<path d="M19.642 17.4113C19.76 16.403 19.8432 15.3916 19.8918 14.379C19.897 14.2694 19.9467 14.1667 20.029 14.0941C20.3924 13.7733 20.7444 13.44 21.0846 13.0948C21.2125 12.9649 21.4361 13.0557 21.4322 13.238C21.401 14.6899 21.3009 16.1407 21.1319 17.5855C20.8953 19.6081 19.271 21.1931 17.2589 21.418C13.7924 21.8054 10.209 21.8054 6.74244 21.418C4.73038 21.1931 3.10605 19.6081 2.8695 17.5855C2.45496 14.0412 2.45496 10.4607 2.8695 6.9164C3.10605 4.89387 4.73038 3.30886 6.74244 3.08399C9.03342 2.82794 11.3754 2.7411 13.7009 2.82349C13.8967 2.83042 14.0315 3.0221 14.0071 3.2165C14.002 3.25698 13.998 3.29793 13.995 3.33932L13.9437 4.04314C13.9319 4.20473 13.794 4.32767 13.632 4.32199C11.385 4.24315 9.12185 4.32739 6.90905 4.5747C5.57894 4.72336 4.51346 5.77298 4.35934 7.09065C3.95834 10.5192 3.95834 13.9828 4.35934 17.4113C4.51346 18.729 5.57894 19.7786 6.90905 19.9272C10.2649 20.3023 13.7365 20.3023 17.0923 19.9272C18.4224 19.7786 19.4879 18.729 19.642 17.4113Z"/>
</svg>
