<svg   viewBox="0 0 32 32" fill="none" xmlns="http://www.w3.org/2000/svg">
<path d="M27 6.00073H5C4.44772 6.00073 4 6.44845 4 7.00073V25.0007C4 25.553 4.44772 26.0007 5 26.0007H27C27.5523 26.0007 28 25.553 28 25.0007V7.00073C28 6.44845 27.5523 6.00073 27 6.00073Z" stroke="black" stroke-width="2" stroke-linecap="round" stroke-linejoin="round"/>
<path d="M8.5 12.0007C9.32843 12.0007 10 11.3292 10 10.5007C10 9.67231 9.32843 9.00073 8.5 9.00073C7.67157 9.00073 7 9.67231 7 10.5007C7 11.3292 7.67157 12.0007 8.5 12.0007Z" fill="black"/>
<path d="M13.5 12.0007C14.3284 12.0007 15 11.3292 15 10.5007C15 9.67231 14.3284 9.00073 13.5 9.00073C12.6716 9.00073 12 9.67231 12 10.5007C12 11.3292 12.6716 12.0007 13.5 12.0007Z" fill="black"/>
</svg>
