<svg viewBox="0 0 32 32" xmlns="http://www.w3.org/2000/svg">
<path d="M16 11.5V16.5" stroke-width="2" stroke-linecap="round" stroke-linejoin="round"/>
<path d="M12 1H20" stroke-width="2" stroke-linecap="round" stroke-linejoin="round"/>
<path d="M23 5H9C7.89543 5 7 5.89543 7 7V26C7 27.1046 7.89543 28 9 28H23C24.1046 28 25 27.1046 25 26V7C25 5.89543 24.1046 5 23 5Z" stroke-width="2" stroke-linecap="round" stroke-linejoin="round"/>
<path d="M16 22.5C16.8284 22.5 17.5 21.8284 17.5 21C17.5 20.1716 16.8284 19.5 16 19.5C15.1716 19.5 14.5 20.1716 14.5 21C14.5 21.8284 15.1716 22.5 16 22.5Z"/>
</svg>
