<svg viewBox="0 0 32 32" xmlns="http://www.w3.org/2000/svg">
<path d="M15.5 11V16" stroke-width="2" stroke-linecap="round" stroke-linejoin="round"/>
<path d="M31 12V20" stroke-width="2" stroke-linecap="round" stroke-linejoin="round"/>
<path d="M27 23V9C27 7.89543 26.1046 7 25 7L6 7C4.89543 7 4 7.89543 4 9V23C4 24.1046 4.89543 25 6 25H25C26.1046 25 27 24.1046 27 23Z" stroke-width="2" stroke-linecap="round" stroke-linejoin="round"/>
<path d="M15.5 22C16.3284 22 17 21.3284 17 20.5C17 19.6716 16.3284 19 15.5 19C14.6716 19 14 19.6716 14 20.5C14 21.3284 14.6716 22 15.5 22Z"/>
</svg>
