<svg viewBox="0 0 32 32" xmlns="http://www.w3.org/2000/svg">
<path d="M6 5L26 27" stroke-width="2" stroke-linecap="round" stroke-linejoin="round"/>
<path d="M12 27.9973H20" stroke-width="2" stroke-linecap="round" stroke-linejoin="round"/>
<path d="M11.5625 5.17274C12.9338 4.38889 14.4887 3.98338 16.0682 3.99768C21.0169 4.03447 24.9753 8.14785 24.9753 13.1104V13.9974C24.9753 17.3341 25.4956 19.6271 26.1022 21.1665" stroke-width="2" stroke-linecap="round" stroke-linejoin="round"/>
<path d="M23.2697 23.9974H6.12231C5.94646 23.9969 5.77384 23.9501 5.62187 23.8617C5.46989 23.7732 5.34393 23.6462 5.2567 23.4935C5.16947 23.3408 5.12404 23.1678 5.12502 22.992C5.12599 22.8161 5.17332 22.6437 5.26223 22.4919C6.08764 21.072 7.02473 18.4741 7.02473 13.9974V12.9974C7.0216 11.1689 7.57698 9.3831 8.61655 7.87891" stroke-width="2" stroke-linecap="round" stroke-linejoin="round"/>
</svg>
