<svg viewBox="0 0 32 32" xmlns="http://www.w3.org/2000/svg">
<path d="M12 28H20" stroke-width="2" stroke-linecap="round" stroke-linejoin="round"/>
<path d="M7.02474 14C7.02144 12.8192 7.25115 11.6494 7.70072 10.5576C8.15028 9.46583 8.81086 8.47346 9.64461 7.63738C10.4784 6.80131 11.4689 6.13796 12.5594 5.68535C13.65 5.23274 14.8191 4.99976 15.9999 4.99976C17.1806 4.99976 18.3497 5.23274 19.4403 5.68535C20.5308 6.13796 21.5214 6.80131 22.3551 7.63738C23.1888 8.47346 23.8494 9.46583 24.299 10.5576C24.7486 11.6494 24.9783 12.8192 24.975 14V14C24.975 18.4769 25.9116 21.0748 26.7366 22.4947C26.8255 22.6465 26.8728 22.8189 26.8737 22.9948C26.8746 23.1706 26.8292 23.3435 26.7419 23.4962C26.6547 23.6489 26.5288 23.7758 26.3768 23.8643C26.2248 23.9527 26.0522 23.9995 25.8764 24H6.12231C5.94646 23.9995 5.77384 23.9527 5.62187 23.8642C5.46989 23.7758 5.34393 23.6488 5.2567 23.4961C5.16947 23.3434 5.12404 23.1704 5.12502 22.9946C5.12599 22.8187 5.17332 22.6462 5.26223 22.4945C6.08764 21.0746 7.02473 18.4767 7.02473 14H7.02474Z" stroke-width="2" stroke-linecap="round" stroke-linejoin="round"/>
<path d="M22.9297 2.99854C24.9645 4.28311 26.6048 6.10497 27.6695 8.26299" stroke-width="2" stroke-linecap="round" stroke-linejoin="round"/>
<path d="M4.32812 8.26299C5.39282 6.10497 7.03311 4.28311 9.06794 2.99854" stroke-width="2" stroke-linecap="round" stroke-linejoin="round"/>
</svg>
