<svg viewBox="0 0 32 32" xmlns="http://www.w3.org/2000/svg">
<path d="M12 28H20" stroke-width="2" stroke-linecap="round" stroke-linejoin="round"/>
<path d="M7.02474 12.9999C7.02308 11.8139 7.25618 10.6393 7.71059 9.54386C8.165 8.44838 8.83174 7.45367 9.67238 6.61707C10.513 5.78047 11.5109 5.11852 12.6086 4.66938C13.7062 4.22025 14.8819 3.99281 16.0679 4.00017C21.0166 4.03696 24.975 8.15034 24.975 13.1129V13.9999C24.975 18.4769 25.9116 21.0748 26.7366 22.4947C26.8255 22.6464 26.8728 22.8189 26.8737 22.9947C26.8746 23.1705 26.8292 23.3435 26.7419 23.4962C26.6547 23.6488 26.5288 23.7758 26.3768 23.8642C26.2248 23.9527 26.0522 23.9995 25.8764 23.9999H6.12231C5.94646 23.9995 5.77384 23.9526 5.62187 23.8642C5.46989 23.7757 5.34393 23.6487 5.2567 23.496C5.16947 23.3434 5.12404 23.1704 5.12502 22.9945C5.12599 22.8187 5.17332 22.6462 5.26223 22.4945C6.08764 21.0745 7.02473 18.4766 7.02473 13.9999L7.02474 12.9999Z" stroke-width="2" stroke-linecap="round" stroke-linejoin="round"/>
</svg>
