<svg viewBox="0 0 32 32" xmlns="http://www.w3.org/2000/svg">
<path d="M6 5L26 27" stroke-width="2" stroke-linecap="round" stroke-linejoin="round"/>
<path d="M12 24V25C12 26.0609 12.4214 27.0783 13.1716 27.8284C13.9217 28.5786 14.9391 29 16 29C17.0609 29 18.0783 28.5786 18.8284 27.8284C19.5786 27.0783 20 26.0609 20 25V24" stroke-width="2" stroke-linecap="round" stroke-linejoin="round"/>
<path d="M23.2721 24.0001H6.12231C5.94646 23.9996 5.77384 23.9528 5.62187 23.8643C5.46989 23.7759 5.34393 23.6489 5.2567 23.4962C5.16947 23.3435 5.12404 23.1705 5.12502 22.9947C5.12599 22.8188 5.17332 22.6463 5.26223 22.4946C6.08764 21.0747 7.02473 18.4768 7.02473 14.0001V13.0001C7.0216 11.171 7.57735 9.38462 8.61757 7.88013" stroke-width="2" stroke-linecap="round" stroke-linejoin="round"/>
<path d="M11.5625 5.17455C12.9335 4.39127 14.4878 3.98607 16.0667 4.00037C21.0154 4.03716 24.9737 8.15053 24.9737 13.1131V14.0001C24.9737 17.3336 25.493 19.6254 26.0989 21.1647" stroke-width="2" stroke-linecap="round" stroke-linejoin="round"/>
</svg>
