<svg   viewBox="0 0 32 32" fill="none" xmlns="http://www.w3.org/2000/svg">
<path d="M6 5.00098L26 27.001" stroke="black" stroke-width="2" stroke-linecap="round" stroke-linejoin="round"/>
<path d="M16.9297 11.0741L23.2966 4.7072C23.4364 4.56735 23.6146 4.47211 23.8086 4.43352C24.0026 4.39494 24.2036 4.41474 24.3864 4.49043C24.5691 4.56612 24.7253 4.69429 24.8351 4.85874C24.945 5.02319 25.0037 5.21653 25.0037 5.41431V19.9555" stroke="black" stroke-width="2" stroke-linecap="round" stroke-linejoin="round"/>
<path d="M25.9992 27.001L3.41406 26.9999C3.21628 26.9999 3.02294 26.9413 2.85849 26.8314C2.69404 26.7215 2.56587 26.5653 2.49018 26.3826C2.4145 26.1999 2.39469 25.9988 2.43328 25.8048C2.47186 25.6108 2.5671 25.4326 2.70696 25.2928L14.0942 13.9055" stroke="black" stroke-width="2" stroke-linecap="round" stroke-linejoin="round"/>
</svg>
