<svg viewBox="0 0 32 32" xmlns="http://www.w3.org/2000/svg">
<path d="M24.9998 5.41431V26.0001C24.9998 26.2653 24.8945 26.5197 24.707 26.7072C24.5194 26.8947 24.2651 27.0001 23.9998 27.0001H3.41406C3.21628 27.0001 3.02294 26.9414 2.85849 26.8316C2.69404 26.7217 2.56587 26.5655 2.49018 26.3828C2.4145 26.2001 2.39469 25.999 2.43328 25.805C2.47186 25.611 2.5671 25.4328 2.70696 25.293L23.2927 4.7072C23.4326 4.56735 23.6108 4.47211 23.8048 4.43352C23.9987 4.39494 24.1998 4.41474 24.3825 4.49043C24.5653 4.56612 24.7214 4.69429 24.8313 4.85874C24.9412 5.02319 24.9998 5.21653 24.9998 5.41431Z" stroke-width="2" stroke-linecap="round" stroke-linejoin="round"/>
</svg>
