<svg viewBox="0 0 32 32" xmlns="http://www.w3.org/2000/svg">
<path d="M6 5L26 27" stroke-width="2" stroke-linecap="round" stroke-linejoin="round"/>
<path d="M24.2378 25.0607C22.9117 25.6814 21.4651 26.0021 20.001 26H9.001C8.0083 25.999 7.02716 25.7869 6.12269 25.3778C5.21823 24.9686 4.41113 24.3718 3.75498 23.6268C3.09882 22.8819 2.60861 22.0059 2.31689 21.0571C2.02517 20.1082 1.9386 19.1081 2.06294 18.1232C2.18727 17.1384 2.51967 16.1912 3.03806 15.3446C3.55645 14.498 4.24898 13.7713 5.06969 13.2128C5.89039 12.6544 6.82049 12.2768 7.79827 12.1053C8.77604 11.9338 9.77911 11.9722 10.7409 12.2179" stroke-width="2" stroke-linecap="round" stroke-linejoin="round"/>
<path d="M14.0781 7.94044C16.0704 6.47688 18.5342 5.80313 20.9941 6.0492C23.4539 6.29527 25.7354 7.44372 27.3984 9.27294C29.0613 11.1021 29.9877 13.4825 29.999 15.9546C30.0102 18.4266 29.1054 20.8153 27.4591 22.6595" stroke-width="2" stroke-linecap="round" stroke-linejoin="round"/>
<path d="M10 16C9.99719 14.2138 10.4751 12.4598 11.3835 10.9219" stroke-width="2" stroke-linecap="round" stroke-linejoin="round"/>
</svg>
