<svg   viewBox="0 0 32 32" fill="none" xmlns="http://www.w3.org/2000/svg">
<path d="M14.7578 21.7573L19.0004 25.9999L23.2431 21.7573" stroke="black" stroke-width="2" stroke-linecap="round" stroke-linejoin="round"/>
<path d="M19 16V26" stroke="black" stroke-width="2" stroke-linecap="round" stroke-linejoin="round"/>
<path d="M12.001 26H9.001C8.0083 25.999 7.02716 25.7869 6.12269 25.3778C5.21823 24.9686 4.41113 24.3718 3.75498 23.6268C3.09882 22.8819 2.60861 22.0059 2.31689 21.0571C2.02517 20.1082 1.9386 19.1081 2.06294 18.1232C2.18727 17.1384 2.51967 16.1912 3.03806 15.3446C3.55645 14.498 4.24898 13.7713 5.06969 13.2128C5.89039 12.6544 6.82049 12.2768 7.79827 12.1053C8.77604 11.9338 9.77911 11.9722 10.7409 12.2179" stroke="black" stroke-width="2" stroke-linecap="round" stroke-linejoin="round"/>
<path d="M10 16C10.0002 14.4155 10.3768 12.8538 11.0989 11.4435C11.821 10.0331 12.868 8.81457 14.1534 7.8882C15.4388 6.96183 16.926 6.35417 18.4923 6.11528C20.0587 5.8764 21.6594 6.01314 23.1625 6.51422C24.6656 7.0153 26.0282 7.8664 27.1379 8.99736C28.2476 10.1283 29.0726 11.5068 29.5451 13.0192C30.0175 14.5316 30.1239 16.1346 29.8553 17.6961C29.5867 19.2576 28.9509 20.733 28.0003 22.0006" stroke="black" stroke-width="2" stroke-linecap="round" stroke-linejoin="round"/>
</svg>
