<svg viewBox="0 0 32 32" xmlns="http://www.w3.org/2000/svg">
<path d="M10.001 16C10.001 14.0222 10.5875 12.0888 11.6863 10.4443C12.7851 8.79981 14.3469 7.51809 16.1742 6.76121C18.0014 6.00433 20.0121 5.8063 21.9519 6.19215C23.8917 6.578 25.6735 7.53041 27.0721 8.92894C28.4706 10.3275 29.423 12.1093 29.8089 14.0491C30.1947 15.9889 29.9967 17.9996 29.2398 19.8268C28.4829 21.6541 27.2012 23.2159 25.5567 24.3147C23.9122 25.4135 21.9788 26 20.001 26H9.001C8.0083 25.999 7.02716 25.7869 6.12269 25.3778C5.21823 24.9686 4.41113 24.3718 3.75498 23.6269C3.09882 22.8819 2.60861 22.006 2.31689 21.0571C2.02517 20.1082 1.9386 19.1081 2.06294 18.1233C2.18727 17.1384 2.51967 16.1912 3.03806 15.3446C3.55645 14.498 4.24898 13.7713 5.06969 13.2129C5.89039 12.6544 6.82049 12.2768 7.79827 12.1053C8.77604 11.9338 9.77911 11.9722 10.7409 12.2179" stroke-width="2" stroke-linecap="round" stroke-linejoin="round"/>
<path d="M24 14.5L18 20.5L15 17.5" stroke-width="2" stroke-linecap="round" stroke-linejoin="round"/>
</svg>
