<svg   viewBox="0 0 32 32" fill="none" xmlns="http://www.w3.org/2000/svg">
<path d="M7.5 9C8.32843 9 9 8.32843 9 7.5C9 6.67157 8.32843 6 7.5 6C6.67157 6 6 6.67157 6 7.5C6 8.32843 6.67157 9 7.5 9Z" fill="black"/>
<path d="M16 9C16.8284 9 17.5 8.32843 17.5 7.5C17.5 6.67157 16.8284 6 16 6C15.1716 6 14.5 6.67157 14.5 7.5C14.5 8.32843 15.1716 9 16 9Z" fill="black"/>
<path d="M24.5 9C25.3284 9 26 8.32843 26 7.5C26 6.67157 25.3284 6 24.5 6C23.6716 6 23 6.67157 23 7.5C23 8.32843 23.6716 9 24.5 9Z" fill="black"/>
<path d="M7.5 17.5C8.32843 17.5 9 16.8284 9 16C9 15.1716 8.32843 14.5 7.5 14.5C6.67157 14.5 6 15.1716 6 16C6 16.8284 6.67157 17.5 7.5 17.5Z" fill="black"/>
<path d="M16 17.5C16.8284 17.5 17.5 16.8284 17.5 16C17.5 15.1716 16.8284 14.5 16 14.5C15.1716 14.5 14.5 15.1716 14.5 16C14.5 16.8284 15.1716 17.5 16 17.5Z" fill="black"/>
<path d="M24.5 17.5C25.3284 17.5 26 16.8284 26 16C26 15.1716 25.3284 14.5 24.5 14.5C23.6716 14.5 23 15.1716 23 16C23 16.8284 23.6716 17.5 24.5 17.5Z" fill="black"/>
<path d="M7.5 26C8.32843 26 9 25.3284 9 24.5C9 23.6716 8.32843 23 7.5 23C6.67157 23 6 23.6716 6 24.5C6 25.3284 6.67157 26 7.5 26Z" fill="black"/>
<path d="M16 26C16.8284 26 17.5 25.3284 17.5 24.5C17.5 23.6716 16.8284 23 16 23C15.1716 23 14.5 23.6716 14.5 24.5C14.5 25.3284 15.1716 26 16 26Z" fill="black"/>
<path d="M24.5 26C25.3284 26 26 25.3284 26 24.5C26 23.6716 25.3284 23 24.5 23C23.6716 23 23 23.6716 23 24.5C23 25.3284 23.6716 26 24.5 26Z" fill="black"/>
</svg>
