<svg viewBox="0 0 32 32" xmlns="http://www.w3.org/2000/svg">
<path d="M7.5 13C8.32843 13 9 12.3284 9 11.5C9 10.6716 8.32843 10 7.5 10C6.67157 10 6 10.6716 6 11.5C6 12.3284 6.67157 13 7.5 13Z"/>
<path d="M16 13C16.8284 13 17.5 12.3284 17.5 11.5C17.5 10.6716 16.8284 10 16 10C15.1716 10 14.5 10.6716 14.5 11.5C14.5 12.3284 15.1716 13 16 13Z"/>
<path d="M24.5 13C25.3284 13 26 12.3284 26 11.5C26 10.6716 25.3284 10 24.5 10C23.6716 10 23 10.6716 23 11.5C23 12.3284 23.6716 13 24.5 13Z"/>
<path d="M7.5 22C8.32843 22 9 21.3284 9 20.5C9 19.6716 8.32843 19 7.5 19C6.67157 19 6 19.6716 6 20.5C6 21.3284 6.67157 22 7.5 22Z"/>
<path d="M16 22C16.8284 22 17.5 21.3284 17.5 20.5C17.5 19.6716 16.8284 19 16 19C15.1716 19 14.5 19.6716 14.5 20.5C14.5 21.3284 15.1716 22 16 22Z"/>
<path d="M24.5 22C25.3284 22 26 21.3284 26 20.5C26 19.6716 25.3284 19 24.5 19C23.6716 19 23 19.6716 23 20.5C23 21.3284 23.6716 22 24.5 22Z"/>
</svg>
