<svg viewBox="0 0 32 32" xmlns="http://www.w3.org/2000/svg">
<path d="M22 16H28C28.2652 16 28.5196 16.1054 28.7071 16.2929C28.8946 16.4804 29 16.7348 29 17V25C29 25.2652 28.8946 25.5196 28.7071 25.7071C28.5196 25.8946 28.2652 26 28 26H4C3.73478 26 3.48043 25.8946 3.29289 25.7071C3.10536 25.5196 3 25.2652 3 25V17C3 16.7348 3.10536 16.4804 3.29289 16.2929C3.48043 16.1054 3.73478 16 4 16H10" stroke-width="2" stroke-linecap="round" stroke-linejoin="round"/>
<path d="M16 3V16" stroke-width="2" stroke-linecap="round" stroke-linejoin="round"/>
<path d="M10 10L16 16L22 10" stroke-width="2" stroke-linecap="round" stroke-linejoin="round"/>
<path d="M23.5 22.5C24.3284 22.5 25 21.8284 25 21C25 20.1716 24.3284 19.5 23.5 19.5C22.6716 19.5 22 20.1716 22 21C22 21.8284 22.6716 22.5 23.5 22.5Z"/>
</svg>
