<svg viewBox="0 0 32 32" xmlns="http://www.w3.org/2000/svg">
<path d="M9 3H23C23.2652 3 23.5196 3.10536 23.7071 3.29289C23.8946 3.48043 24 3.73478 24 4V9.66667C24 9.88304 23.9298 10.0936 23.8 10.2667L21.2 13.7333C21.0702 13.9064 21 14.117 21 14.3333V28C21 28.2652 20.8946 28.5196 20.7071 28.7071C20.5196 28.8946 20.2652 29 20 29H12C11.7348 29 11.4804 28.8946 11.2929 28.7071C11.1054 28.5196 11 28.2652 11 28V14.3333C11 14.117 10.9298 13.9064 10.8 13.7333L8.2 10.2667C8.07018 10.0936 8 9.88304 8 9.66667V4C8 3.73478 8.10536 3.48043 8.29289 3.29289C8.48043 3.10536 8.73478 3 9 3V3Z" stroke-width="2" stroke-linecap="round" stroke-linejoin="round"/>
<path d="M16 15V19" stroke-width="2" stroke-linecap="round" stroke-linejoin="round"/>
<path d="M8 8H24" stroke-width="2" stroke-linecap="round" stroke-linejoin="round"/>
</svg>
