<svg   viewBox="0 0 32 32" fill="none" xmlns="http://www.w3.org/2000/svg">
<path d="M16 22.0002C19.3137 22.0002 22 19.314 22 16.0002C22 12.6865 19.3137 10.0002 16 10.0002C12.6863 10.0002 10 12.6865 10 16.0002C10 19.314 12.6863 22.0002 16 22.0002Z" stroke="black" stroke-width="2" stroke-linecap="round" stroke-linejoin="round"/>
<path d="M24.6778 10.0813C24.9736 10.5156 25.2363 10.9714 25.4637 11.445L28.707 13.2455C29.1021 15.0598 29.1034 16.9378 28.711 18.7527L25.4659 20.5541C25.2377 21.0274 24.9743 21.4828 24.6778 21.9166L24.7403 25.6256C23.3665 26.8749 21.7408 27.815 19.9729 28.3826L16.7903 26.473C16.2663 26.512 15.7402 26.5116 15.2163 26.4718L12.0354 28.3803C10.2666 27.8153 8.63958 26.8775 7.26403 25.6302L7.32649 21.9191C7.03073 21.4849 6.76801 21.029 6.54056 20.5554L3.29729 18.755C2.90225 16.9406 2.90089 15.0627 3.29331 13.2478L6.53839 11.4463C6.76659 10.9731 7.03003 10.5176 7.32647 10.0838L7.26405 6.37485C8.63779 5.12557 10.2635 4.18541 12.0314 3.6178L15.2141 5.52741C15.738 5.48841 16.2642 5.48882 16.7881 5.52866L19.9689 3.6201C21.7377 4.18515 23.3647 5.12296 24.7403 6.37026L24.6778 10.0813Z" stroke="black" stroke-width="2" stroke-linecap="round" stroke-linejoin="round"/>
</svg>
