<svg viewBox="0 0 32 32" xmlns="http://www.w3.org/2000/svg">
<path d="M16 22C19.3137 22 22 19.3137 22 16C22 12.6863 19.3137 10 16 10C12.6863 10 10 12.6863 10 16C10 19.3137 12.6863 22 16 22Z" stroke-width="2" stroke-linecap="round" stroke-linejoin="round"/>
<path d="M22.9614 8.13582C23.2816 8.41936 23.5844 8.72209 23.8679 9.04233L27.2832 9.53003C27.8371 10.4945 28.2641 11.5264 28.5537 12.6001L26.4844 15.3591C26.4844 15.3591 26.5104 16.214 26.4845 16.6409L28.5546 19.4008C28.2643 20.4744 27.8365 21.506 27.282 22.47L23.8679 22.9577C23.8679 22.9577 23.2818 23.5806 22.9616 23.8641L22.4739 27.2794C21.5095 27.8333 20.4776 28.2603 19.4038 28.5499L16.645 26.4807C16.218 26.5066 15.7899 26.5066 15.363 26.4807L12.6032 28.5508C11.5296 28.2605 10.498 27.8328 9.5339 27.2783L9.04631 23.8643C8.72606 23.5808 8.42333 23.278 8.13978 22.9578L4.72449 22.4701C4.17064 21.5057 3.74362 20.4738 3.45402 19.4L5.52333 16.641C5.52333 16.641 5.4973 15.7861 5.52325 15.3592L3.45312 12.5994C3.74345 11.5258 4.17117 10.4942 4.72567 9.53012L8.1396 9.04252C8.42314 8.72227 8.72587 8.41954 9.04612 8.136L9.53381 4.7207C10.4982 4.16686 11.5301 3.73984 12.6039 3.45024L15.3627 5.51947C15.7897 5.49352 16.2178 5.49352 16.6447 5.51947L19.4046 3.44934C20.4781 3.73967 21.5098 4.16738 22.4738 4.72188L22.9614 8.13582Z" stroke-width="2" stroke-linecap="round" stroke-linejoin="round"/>
</svg>
