<svg viewBox="0 0 32 32" xmlns="http://www.w3.org/2000/svg">
<path d="M18.1212 22.3638L14.5857 25.8993C13.4604 27.0242 11.9344 27.6561 10.3432 27.656C8.75212 27.6558 7.2262 27.0237 6.10111 25.8986C4.97602 24.7735 4.34389 23.2476 4.34375 21.6565C4.34361 20.0654 4.97548 18.5394 6.10038 17.4141L9.63592 13.8785" stroke-width="2" stroke-linecap="round" stroke-linejoin="round"/>
<path d="M22.3603 18.1206L25.8958 14.5851C27.0207 13.4598 27.6526 11.9337 27.6525 10.3426C27.6523 8.75151 27.0202 7.22559 25.8951 6.1005C24.77 4.97541 23.2441 4.34328 21.653 4.34314C20.0618 4.343 18.5358 4.97487 17.4105 6.09977L13.875 9.6353" stroke-width="2" stroke-linecap="round" stroke-linejoin="round"/>
<path d="M18.1212 22.3638L14.5857 25.8993C13.4604 27.0242 11.9344 27.6561 10.3432 27.656C8.75212 27.6558 7.2262 27.0237 6.10111 25.8986C4.97602 24.7735 4.34389 23.2476 4.34375 21.6565C4.34361 20.0654 4.97548 18.5394 6.10038 17.4141L9.63592 13.8785" stroke-width="2" stroke-linecap="round" stroke-linejoin="round"/>
<path d="M22.3603 18.1206L25.8958 14.5851C27.0207 13.4598 27.6526 11.9337 27.6525 10.3426C27.6523 8.75151 27.0202 7.22559 25.8951 6.1005C24.77 4.97541 23.2441 4.34328 21.653 4.34314C20.0618 4.343 18.5358 4.97487 17.4105 6.09977L13.875 9.6353" stroke-width="2" stroke-linecap="round" stroke-linejoin="round"/>
</svg>
