<svg   viewBox="0 0 32 32" fill="none" xmlns="http://www.w3.org/2000/svg">
<path d="M15.295 8.92891L17.7699 6.45403C18.2805 5.94292 18.8869 5.53742 19.5543 5.26071C20.2217 4.98399 20.937 4.84148 21.6595 4.84131C22.382 4.84114 23.0975 4.98332 23.765 5.25973C24.4325 5.53613 25.039 5.94135 25.5499 6.45222C26.0608 6.9631 26.466 7.56962 26.7424 8.23714C27.0188 8.90466 27.161 9.6201 27.1608 10.3426C27.1606 11.0651 27.0181 11.7804 26.7414 12.4478C26.4647 13.1152 26.0592 13.7216 25.5481 14.2322L22.0125 17.7677C21.5018 18.2785 20.8955 18.6836 20.2282 18.96C19.5609 19.2364 18.8457 19.3787 18.1235 19.3787C17.4012 19.3787 16.686 19.2364 16.0187 18.96C15.3514 18.6836 14.7451 18.2785 14.2344 17.7677" stroke="black" stroke-width="2" stroke-linecap="round" stroke-linejoin="round"/>
<path d="M16.7095 23.0711L14.2346 25.546C13.724 26.0571 13.1177 26.4626 12.4503 26.7393C11.7829 27.016 11.0675 27.1585 10.345 27.1587C9.62254 27.1589 8.9071 27.0167 8.23958 26.7403C7.57206 26.4639 6.96554 26.0586 6.45466 25.5478C5.94379 25.0369 5.53857 24.4304 5.26217 23.7629C4.98576 23.0953 4.84358 22.3799 4.84375 21.6574C4.84392 20.9349 4.98643 20.2195 5.26315 19.5522C5.53986 18.8848 5.94536 18.2784 6.45647 17.7678L9.99201 14.2323C10.5027 13.7215 11.109 13.3164 11.7763 13.04C12.4436 12.7636 13.1588 12.6213 13.8811 12.6213C14.6034 12.6213 15.3186 12.7636 15.9859 13.04C16.6531 13.3164 17.2595 13.7215 17.7702 14.2323" stroke="black" stroke-width="2" stroke-linecap="round" stroke-linejoin="round"/>
</svg>
