<svg   viewBox="0 0 32 32" fill="none" xmlns="http://www.w3.org/2000/svg">
<path d="M11.6172 20.7577C12.7981 19.6298 14.3682 19.0004 16.0012 19.0004C17.6343 19.0004 19.2044 19.6298 20.3853 20.7577" stroke="black" stroke-width="2" stroke-linecap="round" stroke-linejoin="round"/>
<path d="M28 7L22 13" stroke="black" stroke-width="2" stroke-linecap="round" stroke-linejoin="round"/>
<path d="M28 13L22 7" stroke="black" stroke-width="2" stroke-linecap="round" stroke-linejoin="round"/>
<path d="M3.13281 12.2725C6.55705 8.8851 11.1823 6.98985 15.9989 7.00041C16.6676 7.00029 17.3359 7.03624 18.0008 7.10811" stroke="black" stroke-width="2" stroke-linecap="round" stroke-linejoin="round"/>
<path d="M7.375 16.5151C9.67642 14.2546 12.7758 12.9918 16.0017 13.0004C16.6729 13.0002 17.3429 13.054 18.0054 13.1615" stroke="black" stroke-width="2" stroke-linecap="round" stroke-linejoin="round"/>
<path d="M16 26.5C16.8284 26.5 17.5 25.8284 17.5 25C17.5 24.1716 16.8284 23.5 16 23.5C15.1716 23.5 14.5 24.1716 14.5 25C14.5 25.8284 15.1716 26.5 16 26.5Z" fill="black"/>
</svg>
