<svg   viewBox="0 0 32 32" fill="none" xmlns="http://www.w3.org/2000/svg">
<path d="M6 5L26 27" stroke="black" stroke-width="2" stroke-linecap="round" stroke-linejoin="round"/>
<path d="M13.3906 7.18389C14.2545 7.06146 15.1259 7.00015 15.9984 7.00041C20.815 6.98985 25.4402 8.8851 28.8645 12.2725" stroke="black" stroke-width="2" stroke-linecap="round" stroke-linejoin="round"/>
<path d="M3.13281 12.2725C4.83084 10.5926 6.84232 9.26278 9.05301 8.3584" stroke="black" stroke-width="2" stroke-linecap="round" stroke-linejoin="round"/>
<path d="M19.0156 13.3699C21.1329 13.8991 23.0701 14.9851 24.6264 16.5151" stroke="black" stroke-width="2" stroke-linecap="round" stroke-linejoin="round"/>
<path d="M7.375 16.5151C9.06024 14.8583 11.1891 13.725 13.5045 13.252" stroke="black" stroke-width="2" stroke-linecap="round" stroke-linejoin="round"/>
<path d="M11.6172 20.7577C12.7445 19.6816 14.228 19.0575 15.7855 19.0041C17.343 18.9507 18.8659 19.4717 20.0642 20.4681" stroke="black" stroke-width="2" stroke-linecap="round" stroke-linejoin="round"/>
<path d="M16 26.5C16.8284 26.5 17.5 25.8284 17.5 25C17.5 24.1716 16.8284 23.5 16 23.5C15.1716 23.5 14.5 24.1716 14.5 25C14.5 25.8284 15.1716 26.5 16 26.5Z" fill="black"/>
</svg>
