<svg viewBox="0 0 32 32" xmlns="http://www.w3.org/2000/svg">
<path d="M23.1227 4.63339L17.8775 9.87863L18.5846 13.4142L22.1201 14.1213L27.3653 8.87603L27.3659 8.87582C28.0151 10.4084 28.1704 12.1052 27.8101 13.7301C27.4498 15.355 26.5918 16.8272 25.3557 17.9417C24.1195 19.0561 22.5666 19.7575 20.9132 19.9481C19.2598 20.1387 17.588 19.809 16.1307 19.005L16.1309 19.0048L9.12011 27.1213C8.55739 27.6833 7.7945 27.999 6.99915 27.9987C6.20379 27.9985 5.44108 27.6825 4.87868 27.1201C4.31628 26.5577 4.00023 25.7949 4 24.9996C3.99977 24.2042 4.31539 23.4413 4.87747 22.8786L12.9939 15.8679L12.9937 15.868C12.1897 14.4107 11.8601 12.739 12.0507 11.0856C12.2412 9.43213 12.9426 7.87925 14.0571 6.64309C15.1716 5.40692 16.6437 4.54897 18.2686 4.18868C19.8936 3.82838 21.5904 3.98365 23.1229 4.63288L23.1227 4.63339Z" stroke-width="2" stroke-linecap="round" stroke-linejoin="round"/>
</svg>
