<svg viewBox="0 0 24 24" xmlns="http://www.w3.org/2000/svg">
<path fill-rule="evenodd" clip-rule="evenodd" d="M7.25009 5.46126V6.88185L5.55616 7.01858C4.35848 7.11526 3.38151 8.01703 3.18943 9.20316C3.14768 9.46094 3.10972 9.71917 3.07553 9.97778C3.05857 10.1061 3.127 10.2303 3.244 10.2857L3.32106 10.3222C8.74976 12.8927 15.2504 12.8927 20.6791 10.3222L20.7562 10.2857C20.8732 10.2303 20.9416 10.1061 20.9246 9.97779C20.8905 9.71918 20.8525 9.46094 20.8107 9.20316C20.6187 8.01703 19.6417 7.11526 18.444 7.01858L16.7501 6.88185V5.46126C16.7501 4.59501 16.1163 3.85912 15.2597 3.73062L14.0398 3.54763C12.6875 3.3448 11.3126 3.3448 9.96041 3.54763L8.7405 3.73062C7.88384 3.85912 7.25009 4.59501 7.25009 5.46126ZM13.8173 5.03104C12.6126 4.85033 11.3876 4.85033 10.1829 5.03104L8.96301 5.21402C8.84063 5.23238 8.75009 5.33751 8.75009 5.46126V6.77627C10.915 6.65225 13.0852 6.65225 15.2501 6.77627V5.46126C15.2501 5.33751 15.1596 5.23238 15.0372 5.21402L13.8173 5.03104Z"/>
<path d="M21.1184 12.0709C21.1109 11.9308 20.9643 11.8433 20.836 11.9001C15.265 14.3667 8.73513 14.3667 3.16421 11.9001C3.03591 11.8433 2.88923 11.9308 2.88177 12.0709C2.78 13.9824 2.88255 15.902 3.18943 17.797C3.38151 18.9831 4.35848 19.8849 5.55616 19.9815L7.42808 20.1326C10.4711 20.3783 13.529 20.3783 16.5721 20.1326L18.444 19.9815C19.6417 19.8849 20.6187 18.9831 20.8107 17.797C21.1176 15.902 21.2202 13.9824 21.1184 12.0709Z"/>
</svg>
