<svg viewBox="0 0 24 24" xmlns="http://www.w3.org/2000/svg">
<path d="M12.5126 2.63419C12.1793 2.53177 11.8229 2.53177 11.4897 2.63419L8.50395 3.55186C6.9696 4.02345 5.51242 4.71679 4.17863 5.60989C3.33079 6.1776 3.73267 7.50009 4.75303 7.50009H19.2492C20.2696 7.50009 20.6714 6.1776 19.8236 5.60989C18.4898 4.71679 17.0326 4.02345 15.4983 3.55186L12.5126 2.63419Z"/>
<path d="M4.2511 21.0001C4.2511 20.5859 4.58689 20.2501 5.0011 20.2501H19.0011C19.4153 20.2501 19.7511 20.5859 19.7511 21.0001C19.7511 21.4143 19.4153 21.7501 19.0011 21.7501H5.0011C4.58689 21.7501 4.2511 21.4143 4.2511 21.0001Z"/>
<path d="M6.2511 17.0001C6.2511 17.4143 6.58688 17.7501 7.0011 17.7501C7.41531 17.7501 7.7511 17.4143 7.7511 17.0001L7.7511 11.0001C7.7511 10.5859 7.41531 10.2501 7.0011 10.2501C6.58688 10.2501 6.2511 10.5859 6.2511 11.0001L6.2511 17.0001Z"/>
<path d="M12.0011 17.7501C11.5869 17.7501 11.2511 17.4143 11.2511 17.0001L11.2511 11.0001C11.2511 10.5859 11.5869 10.2501 12.0011 10.2501C12.4153 10.2501 12.7511 10.5859 12.7511 11.0001V17.0001C12.7511 17.4143 12.4153 17.7501 12.0011 17.7501Z"/>
<path d="M16.2511 17.0001C16.2511 17.4143 16.5869 17.7501 17.0011 17.7501C17.4153 17.7501 17.7511 17.4143 17.7511 17.0001V11.0001C17.7511 10.5859 17.4153 10.2501 17.0011 10.2501C16.5869 10.2501 16.2511 10.5859 16.2511 11.0001V17.0001Z"/>
</svg>
