<svg viewBox="0 0 24 24" xmlns="http://www.w3.org/2000/svg">
<path fill-rule="evenodd" clip-rule="evenodd" d="M5.59491 4.9904L4.53797 8.37812C4.36598 8.67244 4.24687 9.00227 4.19381 9.3551L4.09188 10.0329C3.69614 12.6646 3.73314 15.3433 4.20142 17.9631C4.39146 19.0263 5.2646 19.8339 6.33937 19.9405L7.56984 20.0627C10.5167 20.3552 13.4852 20.3552 16.4321 20.0627L17.6625 19.9405C18.7373 19.8339 19.6104 19.0263 19.8005 17.9631C20.2688 15.3433 20.3058 12.6646 19.91 10.0329L19.8081 9.3551C19.7529 8.98778 19.626 8.64538 19.4425 8.34204L18.4061 4.99452C18.1375 4.12695 17.3915 3.49293 16.492 3.36776C13.5123 2.95311 10.488 2.95334 7.50847 3.36798C6.6107 3.49291 5.86498 4.12473 5.59491 4.9904ZM16.2852 4.85344C13.4428 4.45789 10.5577 4.4581 7.71522 4.85366C7.3921 4.89863 7.12388 5.12609 7.02683 5.43715L6.5257 7.04337C6.56332 7.03806 6.60118 7.03351 6.63927 7.02973L7.61746 6.93264C10.5326 6.6433 13.4693 6.6433 16.3844 6.93264L17.3626 7.02973C17.3986 7.0333 17.4344 7.03756 17.4699 7.04249L16.9732 5.43814C16.8767 5.12631 16.6085 4.89843 16.2852 4.85344ZM16.001 11.75C16.4152 11.75 16.751 11.4142 16.751 11C16.751 10.5858 16.4152 10.25 16.001 10.25H8.00098C7.58676 10.25 7.25098 10.5858 7.25098 11C7.25098 11.4142 7.58676 11.75 8.00098 11.75H16.001Z"/>
</svg>
