<svg   viewBox="0 0 24 24" fill="none" xmlns="http://www.w3.org/2000/svg">
<path fill-rule="evenodd" clip-rule="evenodd" d="M19.183 4.66606L11.9989 4.49976L4.81482 4.66606C3.36307 4.69556 2.13232 5.74209 1.86984 7.17022C1.28297 10.3633 1.28297 13.6366 1.86984 16.8297C2.13232 18.2578 3.36307 19.3044 4.81482 19.3339L11.9989 19.5002L19.183 19.3339C20.6348 19.3044 21.8655 18.2578 22.128 16.8297C22.7149 13.6366 22.7149 10.3633 22.128 7.17022C21.8655 5.74209 20.6348 4.69556 19.183 4.66606ZM20.9989 10.9999C20.9989 11.5522 20.5512 11.9999 19.9989 11.9999H3.9989C3.44662 11.9999 2.9989 11.5522 2.9989 10.9999C2.9989 10.4477 3.44662 9.99994 3.9989 9.99994H19.9989C20.5512 9.99994 20.9989 10.4477 20.9989 10.9999Z" fill="black"/>
</svg>
