<svg viewBox="0 0 24 24" xmlns="http://www.w3.org/2000/svg">
<path d="M11.25 2.74552C11.25 2.62893 11.1501 2.53691 11.0341 2.54862C6.24107 3.03261 2.5 7.07948 2.5 12.0001C2.5 17.2468 6.75329 21.5001 12 21.5001C14.6367 21.5001 17.0227 20.4255 18.7434 18.6916C18.8256 18.6088 18.8165 18.4735 18.7258 18.4001L11.5286 12.5834C11.3524 12.441 11.25 12.2267 11.25 12.0001V2.74552Z"/>
<path d="M19.6695 17.2342C19.7601 17.3075 19.8942 17.2881 19.958 17.1904C20.7671 15.9523 21.2952 14.5136 21.4515 12.9656C21.4632 12.8495 21.3712 12.7501 21.2546 12.7501H14.6868C14.4983 12.7501 14.4145 12.9871 14.5611 13.1057L19.6695 17.2342Z"/>
<path d="M21.2546 11.2501C21.3712 11.2501 21.4632 11.1503 21.4515 11.0343C20.9996 6.55881 17.4413 3.00051 12.9658 2.54861C12.8498 2.5369 12.75 2.62893 12.75 2.74552V10.9501C12.75 11.1158 12.8843 11.2501 13.05 11.2501H21.2546Z"/>
</svg>
