<svg viewBox="0 0 24 24" xmlns="http://www.w3.org/2000/svg">
<path d="M21.9384 10.0021C21.4878 6.38176 18.6183 3.51226 14.998 3.06173C14.45 2.99353 14 3.4478 14 4.00009V10.5001C14 10.7762 14.2239 11.0001 14.5 11.0001H21C21.5523 11.0001 22.0066 10.5501 21.9384 10.0021Z"/>
<path d="M12 4.50009C7.30558 4.50009 3.5 8.30567 3.5 13.0001C3.5 17.6945 7.30558 21.5001 12 21.5001C16.6944 21.5001 20.5 17.6945 20.5 13.0001C20.5 12.7239 20.2761 12.5001 20 12.5001H13C12.7239 12.5001 12.5 12.2762 12.5 12.0001V5.00009C12.5 4.72395 12.2761 4.50009 12 4.50009Z"/>
</svg>
