<svg viewBox="0 0 24 24" xmlns="http://www.w3.org/2000/svg">
<path fill-rule="evenodd" clip-rule="evenodd" d="M14.4935 3.25001L14.4889 3.25H9.50855L9.50403 3.25001H8.49875C8.08454 3.25001 7.74875 3.5858 7.74875 4.00001C7.74875 4.41423 8.08454 4.75001 8.49875 4.75001H8.75855V9.83701C8.75855 11.2914 8.32114 12.7121 7.50315 13.9147L4.40936 18.4629C3.6237 19.6179 4.34793 21.194 5.73605 21.3502L5.82241 21.3598L5.83937 21.3618C9.93272 21.8223 14.0648 21.8223 18.1581 21.3618L18.1753 21.3598L18.2614 21.3502C19.6496 21.194 20.3738 19.6179 19.5881 18.4629L16.4943 13.9147C15.6764 12.7121 15.2389 11.2914 15.2389 9.83701V4.75001H15.4987C15.913 4.75001 16.2487 4.41423 16.2487 4.00001C16.2487 3.5858 15.913 3.25001 15.4987 3.25001H14.4935ZM9.82733 12.55H14.1702C13.886 11.6788 13.7389 10.7636 13.7389 9.83701V4.75001H10.2585V9.83701C10.2585 10.7636 10.1114 11.6788 9.82733 12.55ZM9.99875 17C9.44646 17 8.99875 17.4477 8.99875 18C8.99875 18.5523 9.44646 19 9.99875 19C10.551 19 10.9987 18.5523 10.9987 18C10.9987 17.4477 10.551 17 9.99875 17ZM11.9987 16C11.9987 15.4477 12.4465 15 12.9987 15C13.551 15 13.9987 15.4477 13.9987 16C13.9987 16.5523 13.551 17 12.9987 17C12.4465 17 11.9987 16.5523 11.9987 16Z"/>
</svg>
