<svg   viewBox="0 0 24 24" fill="none" xmlns="http://www.w3.org/2000/svg">
<path d="M13.7967 4.13621C12.8143 3.12159 11.1871 3.12159 10.2047 4.1362L5.40619 9.09194C5.13061 9.37655 4.94542 9.73636 4.87396 10.126C4.2912 13.304 4.24819 16.5575 4.74672 19.7497L4.92322 20.8799C4.97897 21.2369 5.28644 21.5001 5.64774 21.5001H9.0007C9.27685 21.5001 9.5007 21.2762 9.5007 21.0001V14.0001H14.5007V21.0001C14.5007 21.2762 14.7246 21.5001 15.0007 21.5001H18.3536C18.7149 21.5001 19.0224 21.2369 19.0781 20.8799L19.2546 19.7497C19.7532 16.5575 19.7102 13.304 19.1274 10.126C19.0559 9.73636 18.8708 9.37655 18.5952 9.09194L13.7967 4.13621Z" fill="black"/>
</svg>
