<svg   viewBox="0 0 24 24" fill="none" xmlns="http://www.w3.org/2000/svg">
<path fill-rule="evenodd" clip-rule="evenodd" d="M7.25186 5.46126V6.94976C6.89031 6.97713 6.52893 7.00764 6.16777 7.04128C4.72688 7.17548 3.60315 8.51218 3.46379 9.95051C3.44781 10.1154 3.58353 10.2501 3.74922 10.2501H20.2545C20.4202 10.2501 20.5559 10.1154 20.5399 9.95051C20.4005 8.51218 19.2768 7.17548 17.8359 7.04128C17.4748 7.00764 17.1134 6.97713 16.7519 6.94976V5.46126C16.7519 4.59501 16.1181 3.85912 15.2615 3.73062L14.0415 3.54763C12.6893 3.3448 11.3144 3.3448 9.96218 3.54763L8.74227 3.73062C7.88561 3.85912 7.25186 4.59501 7.25186 5.46126ZM13.819 5.03104C12.6143 4.85033 11.3894 4.85033 10.1847 5.03104L8.96478 5.21402C8.8424 5.23238 8.75186 5.33751 8.75186 5.46126V6.85418C10.9171 6.74218 13.0866 6.74218 15.2519 6.85418V5.46126C15.2519 5.33751 15.1613 5.23238 15.0389 5.21402L13.819 5.03104Z" fill="black"/>
<path fill-rule="evenodd" clip-rule="evenodd" d="M20.5545 12.0501C20.5545 11.8844 20.4202 11.7501 20.2545 11.7501H3.74922C3.58353 11.7501 3.44922 11.8844 3.44922 12.0501V17.9754C3.44922 19.5226 4.62721 20.8154 6.16777 20.9589C10.0488 21.3203 13.9549 21.3203 17.8359 20.9589C19.3765 20.8154 20.5545 19.5226 20.5545 17.9754V12.0501ZM9.50186 15.2501C9.08765 15.2501 8.75186 15.5859 8.75186 16.0001C8.75186 16.4143 9.08765 16.7501 9.50186 16.7501H11.2519V18.5001C11.2519 18.9143 11.5876 19.2501 12.0019 19.2501C12.4161 19.2501 12.7519 18.9143 12.7519 18.5001V16.7501H14.5019C14.9161 16.7501 15.2519 16.4143 15.2519 16.0001C15.2519 15.5859 14.9161 15.2501 14.5019 15.2501H12.7519V13.5001C12.7519 13.0859 12.4161 12.7501 12.0019 12.7501C11.5876 12.7501 11.2519 13.0859 11.2519 13.5001V15.2501H9.50186Z" fill="black"/>
</svg>
