<svg viewBox="0 0 24 24" xmlns="http://www.w3.org/2000/svg">
<path fill-rule="evenodd" clip-rule="evenodd" d="M12.2303 2.50285C6.98512 2.3757 2.63 6.52467 2.50285 11.7698C2.3757 17.015 6.52467 21.3701 11.7698 21.4973C12.1075 21.5055 12.4129 21.4107 12.668 21.2177C12.9156 21.0305 13.0871 20.7729 13.207 20.4973C13.4422 19.957 13.5214 19.2484 13.5254 18.5177C13.5398 15.8759 15.8573 13.5817 18.4726 13.6808C19.1921 13.7081 19.8862 13.6695 20.4211 13.4931C20.6917 13.4039 20.9551 13.2686 21.1568 13.0576C21.3687 12.836 21.4894 12.5542 21.4973 12.2303C21.6244 6.98512 17.4754 2.63 12.2303 2.50285ZM8.8901 15.4028C8.3419 15.4698 7.95184 15.9686 8.01888 16.5168C8.08593 17.065 8.58468 17.455 9.13288 17.388C9.68108 17.3209 10.0711 16.8222 10.0041 16.274C9.93705 15.7258 9.4383 15.3357 8.8901 15.4028ZM5.54812 12.7891C5.48108 12.2409 5.87113 11.7422 6.41933 11.6751C6.96753 11.6081 7.46629 11.9981 7.53333 12.5463C7.60037 13.0945 7.21032 13.5933 6.66212 13.6603C6.11391 13.7274 5.61516 13.3373 5.54812 12.7891ZM7.91897 7.46194C7.37077 7.52898 6.98071 8.02773 7.04775 8.57593C7.1148 9.12413 7.61355 9.51419 8.16175 9.44715C8.70995 9.3801 9.1 8.88135 9.03296 8.33315C8.96592 7.78495 8.46717 7.39489 7.91897 7.46194ZM15.6973 9.28116C15.6303 8.73296 16.0203 8.23421 16.5685 8.16717C17.1167 8.10012 17.6155 8.49018 17.6825 9.03838C17.7496 9.58658 17.3595 10.0853 16.8113 10.1524C16.2631 10.2194 15.7644 9.82936 15.6973 9.28116ZM11.9926 10.8787C11.4444 10.9457 11.0544 11.4445 11.1214 11.9927C11.1885 12.5409 11.6872 12.9309 12.2354 12.8639C12.7836 12.7969 13.1737 12.2981 13.1066 11.7499C13.0396 11.2017 12.5408 10.8116 11.9926 10.8787ZM11.3931 7.03705C11.326 6.48885 11.7161 5.9901 12.2643 5.92306C12.8125 5.85601 13.3113 6.24607 13.3783 6.79427C13.4453 7.34247 13.0553 7.84122 12.5071 7.90827C11.9589 7.97531 11.4601 7.58525 11.3931 7.03705Z"/>
</svg>
