<svg viewBox="0 0 24 24" xmlns="http://www.w3.org/2000/svg">
<path d="M9.64952 4.37488C9.85662 4.01616 9.73372 3.55747 9.375 3.35036C9.01628 3.14326 8.55759 3.26616 8.35048 3.62488L6.6906 6.49988H5.5C4.39543 6.49988 3.5 7.39531 3.5 8.49988C3.5 9.21587 3.87623 9.84399 4.44179 10.1973C4.49938 10.2333 4.56663 10.2499 4.63454 10.2499H19.3655C19.4334 10.2499 19.5006 10.2333 19.5582 10.1973C20.1238 9.84399 20.5 9.21587 20.5 8.49988C20.5 7.39531 19.6046 6.49988 18.5 6.49988H17.3094L15.6495 3.62488C15.4424 3.26616 14.9837 3.14326 14.625 3.35036C14.2663 3.55747 14.1434 4.01616 14.3505 4.37488L15.5774 6.49988H8.42265L9.64952 4.37488Z"/>
<path fill-rule="evenodd" clip-rule="evenodd" d="M19.3348 11.9845C19.3563 11.8621 19.2621 11.7499 19.1378 11.7499H4.86221C4.73792 11.7499 4.64373 11.8621 4.66523 11.9845L5.66574 17.683C5.87388 18.8685 6.82291 19.7844 8.01503 19.9502C10.6589 20.3181 13.3411 20.3181 15.985 19.9502C17.1771 19.7844 18.1261 18.8685 18.3343 17.683L19.3348 11.9845ZM10.75 13.9999C10.75 13.5857 10.4142 13.2499 10 13.2499C9.58579 13.2499 9.25 13.5857 9.25 13.9999V15.9999C9.25 16.4141 9.58579 16.7499 10 16.7499C10.4142 16.7499 10.75 16.4141 10.75 15.9999V13.9999ZM14 13.2499C14.4142 13.2499 14.75 13.5857 14.75 13.9999V15.9999C14.75 16.4141 14.4142 16.7499 14 16.7499C13.5858 16.7499 13.25 16.4141 13.25 15.9999V13.9999C13.25 13.5857 13.5858 13.2499 14 13.2499Z"/>
</svg>
