<svg viewBox="0 0 24 24" xmlns="http://www.w3.org/2000/svg">
<path d="M9.99999 3.57837C9.58578 3.57837 9.24999 3.24258 9.24999 2.82837C9.24999 2.41416 9.58578 2.07837 9.99999 2.07837H13.5355C13.9497 2.07837 14.2855 2.41416 14.2855 2.82837C14.2855 3.24258 13.9497 3.57837 13.5355 3.57837H9.99999Z"/>
<path d="M6.53033 4.03027C6.82322 4.32316 6.82322 4.79804 6.53033 5.09093L4.03033 7.59093C3.73744 7.88382 3.26256 7.88382 2.96967 7.59093C2.67678 7.29804 2.67678 6.82316 2.96967 6.53027L5.46967 4.03027C5.76256 3.73738 6.23744 3.73738 6.53033 4.03027Z"/>
<path fill-rule="evenodd" clip-rule="evenodd" d="M12 5.0606C7.30558 5.0606 3.5 8.86618 3.5 13.5606C3.5 18.255 7.30558 22.0606 12 22.0606C16.6944 22.0606 20.5 18.255 20.5 13.5606C20.5 8.86618 16.6944 5.0606 12 5.0606ZM16.9909 8.77138C17.1457 8.57234 17.128 8.28916 16.9497 8.11086C16.7714 7.93255 16.4883 7.91492 16.2892 8.06973L13.1153 10.5383L11.0397 12.0209C10.6629 12.29 10.4393 12.7245 10.4393 13.1876C10.4393 13.9794 11.0812 14.6213 11.873 14.6213C12.3361 14.6213 12.7706 14.3977 13.0397 14.0209L14.5223 11.9453L16.9909 8.77138Z"/>
</svg>
