<svg viewBox="0 0 24 24" xmlns="http://www.w3.org/2000/svg">
<path d="M12.7489 1.5C12.7489 1.08579 12.4131 0.75 11.9989 0.75C11.5847 0.75 11.2489 1.08579 11.2489 1.5V2.52917C6.40225 2.90769 2.57693 6.92332 2.50008 11.849C2.4949 12.1813 2.73488 12.4629 3.05742 12.5167C5.77005 12.9688 8.5084 13.2137 11.2489 13.2515V19C11.2489 19.4142 10.9131 19.75 10.4989 19.75C10.0847 19.75 9.7489 19.4142 9.7489 19V18.5C9.7489 18.0858 9.41312 17.75 8.9989 17.75C8.58469 17.75 8.2489 18.0858 8.2489 18.5V19C8.2489 20.2426 9.25626 21.25 10.4989 21.25C11.7415 21.25 12.7489 20.2426 12.7489 19V13.2515C15.4894 13.2137 18.2278 12.9688 20.9404 12.5167C21.2629 12.4629 21.5029 12.1813 21.4977 11.849C21.4209 6.92331 17.5956 2.90768 12.7489 2.52917V1.5Z"/>
</svg>
