<svg   viewBox="0 0 24 24" fill="none" xmlns="http://www.w3.org/2000/svg">
<path fill-rule="evenodd" clip-rule="evenodd" d="M21.0096 10.1714L21.0122 13.7943C20.9867 14.1394 20.9538 14.4842 20.9136 14.8283C20.8463 15.4037 20.3785 15.8678 19.7911 15.9335C17.9514 16.1391 16.0476 16.1391 14.2078 15.9335C13.6204 15.8678 13.1527 15.4037 13.0854 14.8283C12.8656 12.9492 12.8656 11.051 13.0854 9.17201C13.1527 8.59661 13.6204 8.13246 14.2078 8.06681C16.0476 7.86119 17.9514 7.86119 19.7911 8.06681C20.3785 8.13246 20.8463 8.59661 20.9136 9.17201C20.9525 9.50462 20.9845 9.83782 21.0096 10.1714ZM16.9995 10.5001C16.171 10.5001 15.4995 11.1717 15.4995 12.0001C15.4995 12.8286 16.171 13.5001 16.9995 13.5001C17.8279 13.5001 18.4995 12.8286 18.4995 12.0001C18.4995 11.1717 17.8279 10.5001 16.9995 10.5001Z" fill="black"/>
<path d="M20.4031 6.03985C20.5586 6.30911 20.2667 6.61063 19.9577 6.57609C18.0073 6.3581 15.9917 6.3581 14.0412 6.57609C12.7718 6.71796 11.7453 7.7175 11.5955 8.99776C11.3622 10.9925 11.3622 13.0077 11.5955 15.0025C11.7453 16.2828 12.7718 17.2823 14.0412 17.4242C15.9917 17.6422 18.0073 17.6422 19.9577 17.4242C20.2688 17.3894 20.563 17.693 20.406 17.9638C19.6274 19.3066 18.2393 20.2438 16.6263 20.4135L15.9744 20.4821C12.6636 20.8305 9.32413 20.8076 6.01838 20.4136L5.58644 20.3622C3.80431 20.1498 2.39226 18.7575 2.15489 16.9785C1.714 13.6742 1.714 10.326 2.15489 7.02179C2.39226 5.24282 3.80431 3.85046 5.58643 3.6381L6.01837 3.58663C9.32413 3.1927 12.6636 3.16973 15.9744 3.51813L16.6263 3.58673C18.2407 3.75661 19.6266 4.69522 20.4031 6.03985Z" fill="black"/>
</svg>
