<svg   viewBox="0 0 24 24" fill="none" xmlns="http://www.w3.org/2000/svg">
<g clip-path="url(#clip0_61_17363)">
<path d="M6 6.00098C7.1 6.00098 8 5.10098 8 4.00098C8 2.90098 7.1 2.00098 6 2.00098C4.9 2.00098 4 2.90098 4 4.00098C4 5.10098 4.9 6.00098 6 6.00098ZM10 9.43098C10 8.62098 9.52 7.90098 8.78 7.58098C7.93 7.21098 6.99 7.00098 6 7.00098C5.01 7.00098 4.07 7.21098 3.22 7.58098C2.48 7.90098 2 8.62098 2 9.43098V10.001H10V9.43098ZM18 6.00098C19.1 6.00098 20 5.10098 20 4.00098C20 2.90098 19.1 2.00098 18 2.00098C16.9 2.00098 16 2.90098 16 4.00098C16 5.10098 16.9 6.00098 18 6.00098ZM22 9.43098C22 8.62098 21.52 7.90098 20.78 7.58098C19.93 7.21098 18.99 7.00098 18 7.00098C17.01 7.00098 16.07 7.21098 15.22 7.58098C14.48 7.90098 14 8.62098 14 9.43098V10.001H22V9.43098ZM21.65 14.351L19.86 16.141C19.54 16.461 19 16.241 19 15.791V14.991L5 15.001V15.791C5 16.241 4.46 16.461 4.15 16.141L2.36 14.351C2.16 14.151 2.16 13.841 2.36 13.641L4.15 11.851C4.46 11.541 5 11.761 5 12.211V13.011L19 13.001V12.211C19 11.761 19.54 11.541 19.85 11.861L21.64 13.651C21.84 13.841 21.84 14.161 21.65 14.351ZM10 18.501C10 18.221 9.78 18.001 9.5 18.001H7.5C7.22 18.001 7 18.221 7 18.501V21.501C7 21.781 7.22 22.001 7.5 22.001H9.5C9.78 22.001 10 21.781 10 21.501V20.001C10 19.721 9.78 19.501 9.5 19.501H8V19.001H9.5C9.78 19.001 10 18.781 10 18.501ZM9 20.501V21.001H8V20.501H9ZM17 19.001H16.5V21.501C16.5 21.781 16.28 22.001 16 22.001C15.72 22.001 15.5 21.781 15.5 21.501V19.001H15C14.72 19.001 14.5 18.781 14.5 18.501C14.5 18.221 14.72 18.001 15 18.001H17C17.28 18.001 17.5 18.221 17.5 18.501C17.5 18.781 17.28 19.001 17 19.001ZM14 18.501C14 18.781 13.78 19.001 13.5 19.001H12.5V19.501H13C13.28 19.501 13.5 19.721 13.5 20.001C13.5 20.281 13.28 20.501 13 20.501H12.5V21.501C12.5 21.781 12.28 22.001 12 22.001C11.72 22.001 11.5 21.781 11.5 21.501V18.501C11.5 18.221 11.72 18.001 12 18.001H13.5C13.78 18.001 14 18.221 14 18.501Z" fill="black"/>
</g>
<defs>
<clipPath id="clip0_61_17363">
<rect width="24" height="24" fill="white" transform="translate(0 0.000976562)"/>
</clipPath>
</defs>
</svg>
