<svg viewBox="0 0 24 24" xmlns="http://www.w3.org/2000/svg">
<g clip-path="url(#clip0_61_17364)">
<path d="M6.35938 18.7809L6.60938 21.0009L8.22937 19.4609L10.9994 11.8609C10.3194 11.6909 9.71937 11.3509 9.22937 10.8809L6.35938 18.7809Z"/>
<path d="M14.77 10.8809C14.28 11.3509 13.67 11.6909 13 11.8609L15.77 19.4609L17.39 21.0009L17.65 18.7809L14.77 10.8809Z"/>
<path d="M14.94 8.60098C15.24 7.04098 14.34 5.66098 13 5.18098V4.00098C13 3.45098 12.55 3.00098 12 3.00098C11.45 3.00098 11 3.45098 11 4.00098V5.18098C9.84 5.60098 9 6.70098 9 8.00098C9 9.84098 10.66 11.301 12.56 10.951C13.74 10.731 14.71 9.78098 14.94 8.60098ZM12 9.00098C11.45 9.00098 11 8.55098 11 8.00098C11 7.45098 11.45 7.00098 12 7.00098C12.55 7.00098 13 7.45098 13 8.00098C13 8.55098 12.55 9.00098 12 9.00098Z"/>
</g>
<defs>
<clipPath id="clip0_61_17364">
<rect transform="translate(0 0.000976562)"/>
</clipPath>
</defs>
</svg>
