<svg   viewBox="0 0 24 24" fill="none" xmlns="http://www.w3.org/2000/svg">
<g clip-path="url(#clip0_61_17365)">
<path d="M12.68 5.88092C13.38 5.64092 13.9 4.98092 13.98 4.24092C14.03 3.77092 13.93 3.33092 13.7 2.97092L12.42 0.750918C12.23 0.420918 11.75 0.420918 11.55 0.750918L10.27 2.97092C10.1 3.27092 10 3.62092 10 4.00092C10 5.32092 11.3 6.35092 12.68 5.88092V5.88092ZM16.53 15.9209L15.53 14.9209L14.45 15.9909C13.15 17.2909 10.87 17.3009 9.56 15.9909L8.49 14.9209L7.4 15.9909C6.75 16.6409 5.88 17.0009 4.96 17.0009C4.23 17.0009 3.56 16.7709 3 16.3909V20.0009C3 21.1009 3.9 22.0009 5 22.0009H19C20.1 22.0009 21 21.1009 21 20.0009V16.3909C20.25 16.9009 19.29 17.1409 18.26 16.9109C17.6 16.7709 17.01 16.4009 16.53 15.9209V15.9209ZM18 9.00092H13V8.00092C13 7.45092 12.55 7.00092 12 7.00092C11.45 7.00092 11 7.45092 11 8.00092V9.00092H6C4.34 9.00092 3 10.3409 3 12.0009V13.4609C3 14.3109 3.5 15.1309 4.31 15.4009C5.04 15.6409 5.83 15.4609 6.34 14.9409L8.48 12.8109L10.61 14.9409C11.37 15.7009 12.62 15.7009 13.38 14.9409L15.52 12.8109L17.65 14.9409C18.08 15.3709 18.68 15.5709 19.3 15.4909C20.29 15.3609 20.99 14.4309 20.99 13.4309V12.0109C21 10.3409 19.66 9.00092 18 9.00092Z" fill="black"/>
</g>
<defs>
<clipPath id="clip0_61_17365">
<rect width="24" height="24" fill="white" transform="translate(0 0.000976562)"/>
</clipPath>
</defs>
</svg>
