<svg   viewBox="0 0 24 24" fill="none" xmlns="http://www.w3.org/2000/svg">
<g clip-path="url(#clip0_61_17366)">
<path d="M14.99 7.00098L16.36 6.37098L16.99 5.00098L17.62 6.37098L18.99 7.00098L17.62 7.63098L16.99 9.00098L16.36 7.63098L14.99 7.00098ZM20 14.001C21.1 14.001 22 13.101 22 12.001C22 11.221 21.01 9.56098 20.42 8.64098C20.22 8.33098 19.78 8.33098 19.58 8.64098C18.99 9.56098 18 11.221 18 12.001C18 13.101 18.9 14.001 20 14.001ZM9.24 9.50098L15 11.651V11.001C15 8.58098 13.28 6.56098 11 6.10098V4.00098H13C13.35 4.00098 13.68 4.06098 14 4.18098C14.37 4.31098 14.78 4.23098 15.05 3.96098C15.56 3.45098 15.39 2.57098 14.72 2.32098C14.19 2.11098 13.61 2.00098 13 2.00098H8.5C7.95 2.00098 7.5 2.45098 7.5 3.00098C7.5 3.55098 7.95 4.00098 8.5 4.00098H9V6.11098C7.22 6.48098 5.8 7.79098 5.25 9.50098H9.24ZM3 11.001C1.9 11.001 1 11.901 1 13.001V20.001C1 21.101 1.9 22.001 3 22.001C4.1 22.001 5 21.101 5 20.001V13.001C5 11.901 4.1 11.001 3 11.001ZM19.99 17.001H13.16C13.05 17.001 12.94 16.981 12.83 16.941L11.36 16.431C11.1 16.341 10.97 16.061 11.06 15.801C11.15 15.541 11.44 15.401 11.7 15.501L12.82 15.931C12.93 15.971 13.06 16.001 13.18 16.001H15.81C16.46 16.001 16.99 15.471 16.99 14.821C16.99 14.331 16.68 13.891 16.22 13.711L9.3 11.131C9.08 11.041 8.84 11.001 8.6 11.001H7V20.021L13.37 21.831C13.78 21.951 14.22 21.931 14.62 21.781L22 19.001C22 17.891 21.1 17.001 19.99 17.001Z" fill="black"/>
</g>
<defs>
<clipPath id="clip0_61_17366">
<rect width="24" height="24" fill="white" transform="translate(0 0.000976562)"/>
</clipPath>
</defs>
</svg>
