<svg   viewBox="0 0 24 24" fill="none" xmlns="http://www.w3.org/2000/svg">
<g clip-path="url(#clip0_61_17367)">
<path d="M7 4.00098C7 2.89098 6.11 2.00098 5 2.00098C3.89 2.00098 3 2.89098 3 4.00098C3 5.11098 3.89 6.00098 5 6.00098C6.11 6.00098 7 5.11098 7 4.00098ZM10.19 4.50098C9.78 4.50098 9.43 4.75098 9.27 5.13098C8.83 6.23098 7.76 7.00098 6.5 7.00098H3.5C2.67 7.00098 2 7.67098 2 8.50098V11.001H8V8.74098C9.43 8.29098 10.58 7.21098 11.12 5.83098C11.38 5.19098 10.88 4.50098 10.19 4.50098ZM19 17.001C20.11 17.001 21 16.111 21 15.001C21 13.891 20.11 13.001 19 13.001C17.89 13.001 17 13.891 17 15.001C17 16.111 17.89 17.001 19 17.001ZM20.5 18.001H17.5C16.24 18.001 15.17 17.231 14.73 16.131C14.58 15.751 14.22 15.501 13.81 15.501C13.12 15.501 12.62 16.191 12.87 16.831C13.42 18.211 14.56 19.291 15.99 19.741V22.001H21.99V19.501C22 18.671 21.33 18.001 20.5 18.001ZM17.25 11.091C17.25 11.091 17.25 11.081 17.26 11.091C16.2 11.361 15.36 12.201 15.09 13.261V13.251C14.98 13.681 14.58 14.001 14.11 14.001C13.56 14.001 13.11 13.551 13.11 13.001C13.11 12.951 13.13 12.861 13.13 12.861C13.56 11.011 15.02 9.55098 16.88 9.13098C16.92 9.13098 16.96 9.12098 17 9.12098C17.55 9.12098 18 9.57098 18 10.121C18 10.581 17.68 10.981 17.25 11.091ZM18 6.06098C18 6.57098 17.63 6.98098 17.14 7.05098C13.95 7.44098 11.44 9.96098 11.05 13.151C10.98 13.631 10.56 14.001 10.06 14.001C9.51 14.001 9.06 13.551 9.06 13.001C9.06 12.981 9.06 12.961 9.06 12.941C9.06 12.931 9.06 12.921 9.06 12.911C9.56 8.79098 12.85 5.53098 16.98 5.06098H16.99C17.55 5.06098 18 5.51098 18 6.06098Z" fill="black"/>
</g>
<defs>
<clipPath id="clip0_61_17367">
<rect width="24" height="24" fill="white" transform="translate(0 0.000976562)"/>
</clipPath>
</defs>
</svg>
