<svg viewBox="0 0 24 24" xmlns="http://www.w3.org/2000/svg">
<g clip-path="url(#clip0_61_17368)">
<path d="M20.9897 17.9908L16.0497 13.0508L13.9297 15.1708L18.8697 20.1108C19.4597 20.7008 20.4097 20.7008 20.9897 20.1108C21.5697 19.5208 21.5697 18.5708 20.9897 17.9908Z"/>
<path d="M17.6491 10.0008C19.5791 10.0008 21.1491 8.43078 21.1491 6.50078C21.1491 5.92078 20.9891 5.38078 20.7391 4.90078L18.0391 7.60078L16.5491 6.11078L19.2491 3.41078C18.7691 3.16078 18.2291 3.00078 17.6491 3.00078C15.7191 3.00078 14.1491 4.57078 14.1491 6.50078C14.1491 6.91078 14.2291 7.30078 14.3591 7.66078L12.5091 9.51078L10.7291 7.73078C11.1191 7.34078 11.1191 6.71078 10.7291 6.32078L10.0191 5.61078L12.1391 3.49078C10.9691 2.32078 9.06906 2.32078 7.89906 3.49078L5.07906 6.32078C4.68906 6.71078 4.68906 7.34078 5.07906 7.73078L5.78906 8.44078H3.24906C3.05906 8.44078 2.87906 8.51078 2.74906 8.65078C2.46906 8.93078 2.46906 9.37078 2.74906 9.65078L5.28906 12.1908C5.56906 12.4708 6.00906 12.4708 6.28906 12.1908C6.41906 12.0608 6.49906 11.8808 6.49906 11.6908V9.15078L7.19906 9.85078C7.58906 10.2408 8.21906 10.2408 8.60906 9.85078L10.3891 11.6308L4.03906 17.9808C3.44906 18.5708 3.44906 19.5208 4.03906 20.1008C4.62906 20.6908 5.57906 20.6908 6.15906 20.1008L16.4791 9.79078C16.8491 9.92078 17.2391 10.0008 17.6491 10.0008Z"/>
</g>
<defs>
<clipPath id="clip0_61_17368">
<rect transform="translate(0 0.000976562)"/>
</clipPath>
</defs>
</svg>
