<svg   viewBox="0 0 24 24" fill="none" xmlns="http://www.w3.org/2000/svg">
<g clip-path="url(#clip0_61_17369)">
<path d="M21.25 10.501C20.84 10.501 20.5 10.841 20.5 11.251H18.96C18.81 9.88098 18.27 8.62098 17.44 7.60098L18.53 6.51098L18.54 6.52098C18.83 6.81098 19.31 6.81098 19.6 6.52098C19.89 6.23098 19.89 5.75098 19.6 5.46098L18.54 4.40098C18.25 4.11098 17.77 4.11098 17.48 4.40098C17.19 4.69098 17.19 5.16098 17.47 5.45098L16.38 6.54098C15.36 5.72098 14.11 5.18098 12.74 5.03098V3.50098H12.75C13.16 3.50098 13.5 3.16098 13.5 2.75098C13.5 2.34098 13.16 2.00098 12.75 2.00098H11.25C10.84 2.00098 10.5 2.34098 10.5 2.75098C10.5 3.16098 10.83 3.49098 11.24 3.50098V5.05098C9.87 5.19098 8.62 5.74098 7.6 6.56098L6.51 5.47098L6.52 5.46098C6.81 5.17098 6.81 4.69098 6.52 4.40098C6.23 4.11098 5.75 4.11098 5.46 4.40098L4.4 5.46098C4.11 5.75098 4.11 6.23098 4.4 6.52098C4.69 6.81098 5.16 6.81098 5.45 6.53098L6.54 7.62098C5.72 8.64098 5.18 9.88098 5.04 11.251H3.5C3.5 10.841 3.16 10.501 2.75 10.501C2.34 10.501 2 10.841 2 11.251V12.751C2 13.161 2.34 13.501 2.75 13.501C3.16 13.501 3.5 13.161 3.5 12.751H5.04C5.19 14.121 5.73 15.361 6.54 16.381L5.45 17.471C5.16 17.181 4.69 17.191 4.4 17.481C4.11 17.771 4.11 18.251 4.4 18.541L5.46 19.601C5.75 19.891 6.23 19.891 6.52 19.601C6.81 19.311 6.81 18.831 6.52 18.541L6.51 18.531L7.6 17.441C8.62 18.261 9.86 18.801 11.23 18.951V20.501C10.82 20.511 10.49 20.841 10.49 21.251C10.49 21.661 10.83 22.001 11.24 22.001H12.74C13.15 22.001 13.49 21.661 13.49 21.251C13.49 20.841 13.15 20.501 12.74 20.501H12.73V18.961C14.1 18.821 15.35 18.271 16.37 17.451L17.46 18.541C17.17 18.831 17.18 19.301 17.47 19.591C17.76 19.881 18.24 19.881 18.53 19.591L19.59 18.531C19.88 18.241 19.88 17.761 19.59 17.471C19.3 17.181 18.82 17.181 18.53 17.471L18.52 17.481L17.43 16.391C18.25 15.371 18.8 14.121 18.95 12.741H20.49C20.49 13.151 20.83 13.491 21.24 13.491C21.65 13.491 21.99 13.151 21.99 12.741V11.241C22 10.841 21.66 10.501 21.25 10.501ZM13.75 8.00098C14.3 8.00098 14.75 8.45098 14.75 9.00098C14.75 9.55098 14.3 10.001 13.75 10.001C13.2 10.001 12.75 9.55098 12.75 9.00098C12.75 8.45098 13.2 8.00098 13.75 8.00098ZM12 13.001C11.45 13.001 11 12.551 11 12.001C11 11.451 11.45 11.001 12 11.001C12.55 11.001 13 11.451 13 12.001C13 12.551 12.55 13.001 12 13.001ZM10.25 8.00098C10.8 8.00098 11.25 8.45098 11.25 9.00098C11.25 9.55098 10.8 10.001 10.25 10.001C9.7 10.001 9.25 9.55098 9.25 9.00098C9.25 8.45098 9.7 8.00098 10.25 8.00098ZM8.5 13.001C7.95 13.001 7.5 12.551 7.5 12.001C7.5 11.451 7.95 11.001 8.5 11.001C9.05 11.001 9.5 11.451 9.5 12.001C9.5 12.551 9.05 13.001 8.5 13.001ZM10.25 16.001C9.7 16.001 9.25 15.551 9.25 15.001C9.25 14.451 9.7 14.001 10.25 14.001C10.8 14.001 11.25 14.451 11.25 15.001C11.25 15.551 10.8 16.001 10.25 16.001ZM13.75 16.001C13.2 16.001 12.75 15.551 12.75 15.001C12.75 14.451 13.2 14.001 13.75 14.001C14.3 14.001 14.75 14.451 14.75 15.001C14.75 15.551 14.3 16.001 13.75 16.001ZM14.5 12.001C14.5 11.451 14.95 11.001 15.5 11.001C16.05 11.001 16.5 11.451 16.5 12.001C16.5 12.551 16.05 13.001 15.5 13.001C14.95 13.001 14.5 12.551 14.5 12.001Z" fill="black"/>
</g>
<defs>
<clipPath id="clip0_61_17369">
<rect width="24" height="24" fill="white" transform="translate(0 0.000976562)"/>
</clipPath>
</defs>
</svg>
