<svg viewBox="0 0 24 24" xmlns="http://www.w3.org/2000/svg">
<g clip-path="url(#clip0_61_17370)">
<path d="M20.4092 9.00092C20.8992 9.00092 21.0992 8.37092 20.6992 8.09092L13.1492 2.80092C12.4592 2.32092 11.5392 2.32092 10.8592 2.80092L3.29922 8.09092C2.89922 8.37092 3.09922 9.00092 3.58922 9.00092H10.9992V21.0009C10.9992 21.5509 11.4492 22.0009 11.9992 22.0009C12.5492 22.0009 12.9992 21.5509 12.9992 21.0009V9.00092H20.4092Z"/>
<path d="M8.00043 16.0007H4.90043L4.33043 12.9807C4.23043 12.4407 3.71043 12.0807 3.16043 12.1807C2.62043 12.2807 2.26043 12.8007 2.36043 13.3507L3.00043 16.7407V21.0007C3.00043 21.5507 3.45043 22.0007 4.00043 22.0007H4.01043C4.56043 22.0007 5.01043 21.5607 5.01043 21.0107L5.02043 18.0007H7.00043V21.0007C7.00043 21.5507 7.45043 22.0007 8.00043 22.0007C8.55043 22.0007 9.00043 21.5507 9.00043 21.0007V17.0007C9.00043 16.4507 8.55043 16.0007 8.00043 16.0007Z"/>
<path d="M20.84 12.1807C20.3 12.0807 19.78 12.4407 19.67 12.9807L19.1 16.0007H16C15.45 16.0007 15 16.4507 15 17.0007V21.0007C15 21.5507 15.45 22.0007 16 22.0007C16.55 22.0007 17 21.5507 17 21.0007V18.0007H18.98L19 21.0107C19 21.5607 19.45 22.0007 20 22.0007C20.55 22.0007 21 21.5507 21 21.0007V16.7407L21.64 13.3507C21.74 12.8107 21.38 12.2807 20.84 12.1807Z"/>
</g>
<defs>
<clipPath id="clip0_61_17370">
<rect transform="translate(0 0.000976562)"/>
</clipPath>
</defs>
</svg>
