<svg viewBox="0 0 24 24" xmlns="http://www.w3.org/2000/svg">
<g clip-path="url(#clip0_61_17371)">
<path d="M12 7.00098V5.00098C12 3.90098 11.1 3.00098 10 3.00098H4C2.9 3.00098 2 3.90098 2 5.00098V19.001C2 20.101 2.9 21.001 4 21.001H20C21.1 21.001 22 20.101 22 19.001V9.00098C22 7.90098 21.1 7.00098 20 7.00098H12ZM6 19.001H4V17.001H6V19.001ZM6 15.001H4V13.001H6V15.001ZM6 11.001H4V9.00098H6V11.001ZM6 7.00098H4V5.00098H6V7.00098ZM10 19.001H8V17.001H10V19.001ZM10 15.001H8V13.001H10V15.001ZM10 11.001H8V9.00098H10V11.001ZM10 7.00098H8V5.00098H10V7.00098ZM19 19.001H12V17.001H14V15.001H12V13.001H14V11.001H12V9.00098H19C19.55 9.00098 20 9.45098 20 10.001V18.001C20 18.551 19.55 19.001 19 19.001ZM18 11.001H16V13.001H18V11.001ZM18 15.001H16V17.001H18V15.001Z"/>
</g>
<defs>
<clipPath id="clip0_61_17371">
<rect transform="translate(0 0.000976562)"/>
</clipPath>
</defs>
</svg>
