<svg viewBox="0 0 24 24" xmlns="http://www.w3.org/2000/svg">
<g clip-path="url(#clip0_61_17372)">
<path d="M11.5 3.50098C11.5 2.40098 12.4 1.50098 13.5 1.50098C14.6 1.50098 15.5 2.40098 15.5 3.50098C15.5 4.60098 14.6 5.50098 13.5 5.50098C12.4 5.50098 11.5 4.60098 11.5 3.50098ZM18.53 11.001C16.96 11.011 15.59 10.101 14.93 8.79098L14.14 7.12098C13.97 6.77098 13.7 6.47098 13.34 6.27098C12.72 5.91098 11.99 5.93098 11.4 6.24098V6.23098L7.01 8.73098C6.39 9.08098 6 9.74098 6 10.461V13.001C6 13.551 6.45 14.001 7 14.001C7.55 14.001 8 13.551 8 13.001V10.461L9.5 9.61098C9.18 10.711 9 11.851 9 13.001V18.331L7 21.001C6.67 21.441 6.76 22.071 7.2 22.401C7.64 22.731 8.27 22.641 8.6 22.201L10.64 19.481C10.87 19.171 11.01 18.791 11.04 18.401L11.22 15.461L13 18.001V22.001C13 22.551 13.45 23.001 14 23.001C14.55 23.001 15 22.551 15 22.001V17.131C15 16.721 14.87 16.321 14.64 15.981L13.04 13.691C13.04 13.691 13.04 13.691 13.04 13.681C12.93 12.521 13.11 11.361 13.5 10.281C14.31 11.511 15.55 12.421 17.01 12.801V12.831V13.001C17.01 13.281 17.23 13.501 17.51 13.501C17.79 13.501 18 13.281 18 13.001V12.841V12.501C18 12.221 18.22 12.001 18.5 12.001C18.78 12.001 19 12.221 19 12.501V22.501C19 22.781 19.22 23.001 19.5 23.001C19.78 23.001 20 22.781 20 22.501V12.501C20 11.681 19.34 10.991 18.53 11.001Z"/>
</g>
<defs>
<clipPath id="clip0_61_17372">
<rect transform="translate(0 0.000976562)"/>
</clipPath>
</defs>
</svg>
