<svg viewBox="0 0 24 24" xmlns="http://www.w3.org/2000/svg">
<g clip-path="url(#clip0_61_17381)">
<path d="M21.99 14.771L20.56 10.661C20.42 10.261 20.04 10.001 19.59 10.001H12.4C11.94 10.001 11.57 10.261 11.42 10.661L10 14.771V20.011C10 20.561 10.45 21.001 11 21.001C11.55 21.001 12 20.551 12 20.001V19.001H20V20.001C20 20.551 20.45 21.001 21 21.001C21.55 21.001 21.99 20.561 22 20.011L21.99 14.771ZM11.61 13.341L12.3 11.341C12.35 11.141 12.54 11.001 12.76 11.001H19.24C19.45 11.001 19.64 11.141 19.71 11.341L20.4 13.341C20.51 13.661 20.27 14.001 19.93 14.001H12.08C11.74 14.001 11.5 13.661 11.61 13.341ZM11.99 17.001C11.44 17.001 10.99 16.551 10.99 16.001C10.99 15.451 11.44 15.001 11.99 15.001C12.54 15.001 12.99 15.451 12.99 16.001C12.99 16.551 12.54 17.001 11.99 17.001ZM19.99 17.001C19.44 17.001 18.99 16.551 18.99 16.001C18.99 15.451 19.44 15.001 19.99 15.001C20.54 15.001 20.99 15.451 20.99 16.001C20.99 16.551 20.54 17.001 19.99 17.001Z"/>
<path d="M14 4.50098V9.00098H15V4.00098C15 3.45098 14.55 3.00098 14 3.00098H8C7.45 3.00098 7 3.45098 7 4.00098V8.00098H3C2.45 8.00098 2 8.45098 2 9.00098V21.001H3V9.50098C3 9.22098 3.22 9.00098 3.5 9.00098H7.5C7.78 9.00098 8 8.78098 8 8.50098V4.50098C8 4.22098 8.22 4.00098 8.5 4.00098H13.5C13.78 4.00098 14 4.22098 14 4.50098Z"/>
<path d="M7 11.001H5V13.001H7V11.001Z"/>
<path d="M12 5.00098H10V7.00098H12V5.00098Z"/>
<path d="M7 15.001H5V17.001H7V15.001Z"/>
<path d="M7 19.001H5V21.001H7V19.001Z"/>
</g>
<defs>
<clipPath id="clip0_61_17381">
<rect transform="translate(0 0.000976562)"/>
</clipPath>
</defs>
</svg>
