<svg   viewBox="0 0 24 24" fill="none" xmlns="http://www.w3.org/2000/svg">
<g clip-path="url(#clip0_61_17379)">
<path d="M12 6.00098C13.1046 6.00098 14 5.10555 14 4.00098C14 2.89641 13.1046 2.00098 12 2.00098C10.8954 2.00098 10 2.89641 10 4.00098C10 5.10555 10.8954 6.00098 12 6.00098Z" fill="black"/>
<path d="M15.889 8.11098C15.499 7.72098 14.829 7.00098 13.529 7.00098C13.319 7.00098 12.109 7.00098 10.989 7.00098C8.52901 6.99098 6.47901 5.20098 6.06901 2.85098C5.98901 2.36098 5.57901 2.00098 5.08901 2.00098C4.47901 2.00098 3.99901 2.54098 4.08901 3.14098C4.52901 5.80098 6.46901 7.95098 8.99901 8.71098V21.001C8.99901 21.551 9.44901 22.001 9.99901 22.001C10.549 22.001 10.999 21.551 10.999 21.001V16.001H12.999V21.001C12.999 21.551 13.449 22.001 13.999 22.001C14.549 22.001 14.999 21.551 14.999 21.001V10.051L18.239 13.291C18.629 13.681 19.259 13.681 19.649 13.291C20.039 12.901 20.039 12.271 19.649 11.881L15.889 8.11098Z" fill="black"/>
</g>
<defs>
<clipPath id="clip0_61_17379">
<rect width="24" height="24" fill="white" transform="translate(0 0.000976562)"/>
</clipPath>
</defs>
</svg>
