<svg viewBox="0 0 24 24" xmlns="http://www.w3.org/2000/svg">
<g clip-path="url(#clip0_61_17374)">
<path d="M19 5.00098H17V4.00098C17 3.45098 16.55 3.00098 16 3.00098H8C7.45 3.00098 7 3.45098 7 4.00098V5.00098H5C3.9 5.00098 3 5.90098 3 7.00098V8.00098C3 10.551 4.92 12.631 7.39 12.941C8.02 14.441 9.37 15.571 11 15.901V19.001H8C7.45 19.001 7 19.451 7 20.001C7 20.551 7.45 21.001 8 21.001H16C16.55 21.001 17 20.551 17 20.001C17 19.451 16.55 19.001 16 19.001H13V15.901C14.63 15.571 15.98 14.441 16.61 12.941C19.08 12.631 21 10.551 21 8.00098V7.00098C21 5.90098 20.1 5.00098 19 5.00098ZM5 8.00098V7.00098H7V10.821C5.84 10.401 5 9.30098 5 8.00098ZM19 8.00098C19 9.30098 18.16 10.401 17 10.821V7.00098H19V8.00098Z"/>
</g>
<defs>
<clipPath id="clip0_61_17374">
<rect transform="translate(0 0.000976562)"/>
</clipPath>
</defs>
</svg>
