<svg   viewBox="0 0 24 24" fill="none" xmlns="http://www.w3.org/2000/svg">
<g clip-path="url(#clip0_61_17375)">
<path d="M19 9.00098H14L13.28 7.55098C13.11 7.21098 12.76 7.00098 12.38 7.00098H7V5.72098C7.6 5.38098 8 4.74098 8 4.00098C8 2.90098 7.1 2.00098 6 2.00098C4.9 2.00098 4 2.90098 4 4.00098C4 4.74098 4.4 5.38098 5 5.72098V20.001C5 20.551 5.45 21.001 6 21.001C6.55 21.001 7 20.551 7 20.001V17.001H12L12.72 18.451C12.89 18.791 13.24 19.001 13.61 19.001H19C19.55 19.001 20 18.551 20 18.001V10.001C20 9.45098 19.55 9.00098 19 9.00098ZM18 17.001H14L13 15.001H7V9.00098H12L13 11.001H18V17.001Z" fill="black"/>
</g>
<defs>
<clipPath id="clip0_61_17375">
<rect width="24" height="24" fill="white" transform="translate(0 0.000976562)"/>
</clipPath>
</defs>
</svg>
