<svg   viewBox="0 0 24 24" fill="none" xmlns="http://www.w3.org/2000/svg">
<g clip-path="url(#clip0_61_17377)">
<path d="M21.9361 4.88098C21.7561 4.35098 21.2461 4.00098 20.6761 4.00098C20.6461 4.00098 20.6161 4.00098 20.5861 4.00098H19.5961L19.2861 3.03098C19.1461 2.43098 18.6061 2.00098 17.9961 2.00098C17.3861 2.00098 16.8461 2.43098 16.7061 3.04098L16.3961 4.00098H15.4161C15.3861 4.00098 15.3561 4.00098 15.3261 4.00098C14.7561 4.00098 14.2461 4.35098 14.0661 4.88098C13.8761 5.44098 14.1061 6.05098 14.6261 6.36098L15.4961 6.88098L15.0961 8.12098C14.8661 8.70098 15.0561 9.37098 15.5461 9.74098C15.7761 9.91098 16.0561 10.001 16.3261 10.001C16.6361 10.001 16.9361 9.89098 17.1861 9.68098L17.9961 8.98098L18.8061 9.68098C19.0561 9.89098 19.3561 10.001 19.6661 10.001C19.9361 10.001 20.2161 9.91098 20.4461 9.74098C20.9461 9.37098 21.1261 8.70098 20.8961 8.12098L20.5061 6.88098L21.3761 6.36098C21.8861 6.05098 22.1161 5.44098 21.9361 4.88098ZM17.9961 7.00098C17.4461 7.00098 16.9961 6.55098 16.9961 6.00098C16.9961 5.45098 17.4461 5.00098 17.9961 5.00098C18.5461 5.00098 18.9961 5.45098 18.9961 6.00098C18.9961 6.55098 18.5461 7.00098 17.9961 7.00098Z" fill="black"/>
<path d="M15.4986 12.001H14.4086C14.2186 11.461 13.9186 10.951 13.4786 10.511C13.0386 10.071 12.5386 9.78098 11.9986 9.59098V8.50098C11.9986 8.22098 11.7786 8.00098 11.4986 8.00098C11.2186 8.00098 10.9986 8.22098 10.9986 8.50098V9.38098C10.8886 9.37098 10.7686 9.35098 10.6586 9.35098C9.63856 9.35098 8.60856 9.74098 7.82856 10.521C7.66856 10.681 7.52856 10.861 7.39856 11.051L5.99856 10.521C4.43856 9.97098 2.71856 10.791 2.16856 12.341C1.89856 13.091 1.93856 13.911 2.28856 14.631C2.51856 15.111 2.86856 15.501 3.28856 15.791C2.90856 17.141 3.22856 18.641 4.28856 19.701C5.34856 20.761 6.85856 21.081 8.19856 20.701C8.48856 21.121 8.87856 21.471 9.35856 21.701C9.77856 21.901 10.2086 22.001 10.6486 22.001C10.9886 22.001 11.3286 21.941 11.6586 21.831C13.2186 21.281 14.0386 19.561 13.4786 17.981L12.9586 16.611C13.1386 16.481 13.3186 16.341 13.4886 16.181C14.3586 15.311 14.7286 14.141 14.6286 13.011H15.5086C15.7886 13.011 16.0086 12.791 16.0086 12.511C15.9986 12.221 15.7786 12.001 15.4986 12.001ZM4.66856 14.291C4.41856 14.201 4.21856 14.021 4.09856 13.781C3.97856 13.541 3.96856 13.271 4.05856 13.021C4.24856 12.501 4.81856 12.231 5.31856 12.411L8.47856 13.601C7.32856 14.201 5.84856 14.711 4.66856 14.291ZM10.9886 19.941C10.7386 20.031 10.4686 20.021 10.2286 19.901C9.98856 19.791 9.80856 19.581 9.71856 19.331C9.29856 18.151 9.80856 16.681 10.4186 15.531L11.5986 18.661C11.7786 19.181 11.5086 19.761 10.9886 19.941ZM12.1986 14.601L11.5886 12.991C11.5886 12.981 11.5786 12.971 11.5686 12.961C11.5486 12.921 11.5286 12.881 11.5086 12.841C11.4886 12.801 11.4686 12.771 11.4386 12.731C11.4086 12.701 11.3786 12.671 11.3486 12.641C11.3186 12.611 11.2886 12.581 11.2586 12.551C11.2286 12.521 11.1886 12.501 11.1486 12.481C11.1086 12.461 11.0786 12.431 11.0286 12.421C11.0186 12.421 11.0086 12.411 10.9986 12.401L9.39856 11.801C9.75856 11.511 10.1886 11.341 10.6586 11.341C11.1886 11.341 11.6986 11.551 12.0686 11.931C12.7986 12.661 12.8386 13.811 12.1986 14.601Z" fill="black"/>
</g>
<defs>
<clipPath id="clip0_61_17377">
<rect width="24" height="24" fill="white" transform="translate(0 0.000976562)"/>
</clipPath>
</defs>
</svg>
