<svg   viewBox="0 0 24 24" fill="none" xmlns="http://www.w3.org/2000/svg">
<g clip-path="url(#clip0_61_17376)">
<path d="M19 19.001H3C2.45 19.001 2 19.451 2 20.001C2 20.551 2.45 21.001 3 21.001H19C19.55 21.001 20 20.551 20 20.001C20 19.451 19.55 19.001 19 19.001Z" fill="black"/>
<path d="M20 3.00098H9V5.40098L10.81 6.85098C10.93 6.94098 11 7.09098 11 7.24098V11.501C11 11.781 10.78 12.001 10.5 12.001H6.5C6.22 12.001 6 11.781 6 11.501V7.24098C6 7.09098 6.07 6.94098 6.19 6.85098L8 5.40098V3.00098H6C4.9 3.00098 4 3.90098 4 5.00098V13.001C4 15.211 5.79 17.001 8 17.001H14C16.21 17.001 18 15.211 18 13.001V10.001H20C21.1 10.001 22 9.10098 22 8.00098V5.00098C22 3.90098 21.1 3.00098 20 3.00098ZM20 8.00098H18V5.00098H20V8.00098Z" fill="black"/>
</g>
<defs>
<clipPath id="clip0_61_17376">
<rect width="24" height="24" fill="white" transform="translate(0 0.000976562)"/>
</clipPath>
</defs>
</svg>
