<svg   viewBox="0 0 24 24" fill="none" xmlns="http://www.w3.org/2000/svg">
<g clip-path="url(#clip0_61_17378)">
<path d="M12.0032 3.00098C11.5432 3.00098 11.0732 3.04098 10.6032 3.14098C7.84325 3.67098 5.64325 5.90098 5.12325 8.66098C4.64325 11.271 5.60325 13.671 7.34325 15.221C7.77325 15.601 8.00325 16.131 8.00325 16.691V19.001C8.00325 20.101 8.90325 21.001 10.0032 21.001H10.2832C10.6332 21.601 11.2632 22.001 12.0032 22.001C12.7432 22.001 13.3832 21.601 13.7232 21.001H14.0032C15.1032 21.001 16.0032 20.101 16.0032 19.001V16.691C16.0032 16.141 16.2232 15.601 16.6432 15.231C18.0932 13.951 19.0032 12.081 19.0032 10.001C19.0032 6.13098 15.8732 3.00098 12.0032 3.00098ZM12.5032 14.001H11.5032V11.411L9.67325 9.59098L10.3832 8.88098L12.0032 10.501L13.6232 8.88098L14.3332 9.59098L12.5032 11.421V14.001V14.001ZM13.5032 19.001C13.4932 19.001 13.4832 18.991 13.4732 18.991V19.001H10.5332V18.991C10.5232 18.991 10.5132 19.001 10.5032 19.001C10.2232 19.001 10.0032 18.781 10.0032 18.501C10.0032 18.221 10.2232 18.001 10.5032 18.001C10.5132 18.001 10.5232 18.011 10.5332 18.011V18.001H13.4732V18.011C13.4832 18.011 13.4932 18.001 13.5032 18.001C13.7832 18.001 14.0032 18.221 14.0032 18.501C14.0032 18.781 13.7832 19.001 13.5032 19.001ZM13.5032 17.001H10.5032C10.2232 17.001 10.0032 16.781 10.0032 16.501C10.0032 16.221 10.2232 16.001 10.5032 16.001H13.5032C13.7832 16.001 14.0032 16.221 14.0032 16.501C14.0032 16.781 13.7832 17.001 13.5032 17.001Z" fill="black"/>
</g>
<defs>
<clipPath id="clip0_61_17378">
<rect width="24" height="24" fill="white" transform="translate(0 0.000976562)"/>
</clipPath>
</defs>
</svg>
