<svg   viewBox="0 0 24 24" fill="none" xmlns="http://www.w3.org/2000/svg">
<g clip-path="url(#clip0_61_17373)">
<path d="M11.99 2.00098C6.47 2.00098 2 6.48098 2 12.001C2 17.521 6.47 22.001 11.99 22.001C17.52 22.001 22 17.521 22 12.001C22 6.48098 17.52 2.00098 11.99 2.00098ZM8.5 8.00098C9.33 8.00098 10 8.67098 10 9.50098C10 10.331 9.33 11.001 8.5 11.001C7.67 11.001 7 10.331 7 9.50098C7 8.67098 7.67 8.00098 8.5 8.00098ZM16.71 14.721C15.8 16.671 14.04 18.001 12 18.001C9.96 18.001 8.2 16.671 7.29 14.721C7.13 14.391 7.37 14.001 7.74 14.001H16.26C16.63 14.001 16.87 14.391 16.71 14.721ZM15.5 11.001C14.67 11.001 14 10.331 14 9.50098C14 8.67098 14.67 8.00098 15.5 8.00098C16.33 8.00098 17 8.67098 17 9.50098C17 10.331 16.33 11.001 15.5 11.001Z" fill="black"/>
</g>
<defs>
<clipPath id="clip0_61_17373">
<rect width="24" height="24" fill="white" transform="translate(0 0.000976562)"/>
</clipPath>
</defs>
</svg>
