<svg viewBox="0 0 24 24" xmlns="http://www.w3.org/2000/svg">
<g clip-path="url(#clip0_61_17380)">
<path d="M10 5.00098H4C3.45 5.00098 3 5.45098 3 6.00098C3 6.55098 3.45 7.00098 4 7.00098H6V10.001C6 10.551 6.45 11.001 7 11.001C7.55 11.001 8 10.551 8 10.001V7.00098H10C10.55 7.00098 11 6.55098 11 6.00098C11 5.45098 10.55 5.00098 10 5.00098Z"/>
<path d="M10 2.00098H4C3.45 2.00098 3 2.45098 3 3.00098C3 3.55098 3.45 4.00098 4 4.00098H10C10.55 4.00098 11 3.55098 11 3.00098C11 2.45098 10.55 2.00098 10 2.00098Z"/>
<path d="M20.8906 13.1109C20.5006 12.7209 19.8706 12.7209 19.4806 13.1109L13.1206 19.4709C12.7306 19.8609 12.7306 20.4909 13.1206 20.8809C13.5106 21.2709 14.1406 21.2709 14.5306 20.8809L20.8906 14.5209C21.2806 14.1309 21.2806 13.5009 20.8906 13.1109Z"/>
<path d="M14.5 16.001C15.3284 16.001 16 15.3294 16 14.501C16 13.6725 15.3284 13.001 14.5 13.001C13.6716 13.001 13 13.6725 13 14.501C13 15.3294 13.6716 16.001 14.5 16.001Z"/>
<path d="M19.5 21.001C20.3284 21.001 21 20.3294 21 19.501C21 18.6725 20.3284 18.001 19.5 18.001C18.6716 18.001 18 18.6725 18 19.501C18 20.3294 18.6716 21.001 19.5 21.001Z"/>
<path d="M15.5 11.001C16.88 11.001 18 9.88098 18 8.50098V4.00098H20C20.55 4.00098 21 3.55098 21 3.00098C21 2.45098 20.55 2.00098 20 2.00098H18C17.45 2.00098 17 2.45098 17 3.00098V6.51098C16.58 6.19098 16.07 6.00098 15.5 6.00098C14.12 6.00098 13 7.12098 13 8.50098C13 9.88098 14.12 11.001 15.5 11.001Z"/>
<path d="M10.4494 18.091C10.8394 17.701 10.8394 17.071 10.4494 16.681C10.0594 16.291 9.42937 16.291 9.03937 16.681L8.32937 17.391L7.61937 16.681L7.96937 16.331C8.94937 15.351 8.94937 13.771 7.96937 12.791C7.47937 12.301 6.83937 12.061 6.19937 12.061C5.55937 12.061 4.91937 12.301 4.42937 12.791C3.44937 13.771 3.44937 15.351 4.42937 16.331L4.77938 16.681L3.71938 17.741C2.73937 18.721 2.73937 20.301 3.71938 21.281C4.21938 21.761 4.85937 22.001 5.49937 22.001C6.13937 22.001 6.77937 21.761 7.26937 21.271L8.32937 20.211L9.03937 20.921C9.42937 21.311 10.0594 21.311 10.4494 20.921C10.8394 20.531 10.8394 19.901 10.4494 19.511L9.73937 18.801L10.4494 18.091ZM5.84937 14.201C5.96937 14.081 6.10937 14.051 6.19937 14.051C6.28937 14.051 6.42938 14.081 6.54938 14.201C6.73938 14.401 6.73938 14.711 6.54938 14.911L6.19937 15.261L5.84937 14.901C5.72937 14.781 5.69937 14.641 5.69937 14.551C5.69937 14.461 5.72937 14.321 5.84937 14.201ZM5.84937 19.851C5.72937 19.971 5.58937 20.001 5.49937 20.001C5.40937 20.001 5.26937 19.971 5.14937 19.851C5.02937 19.731 4.99937 19.591 4.99937 19.501C4.99937 19.411 5.02937 19.271 5.14937 19.151L6.20937 18.091L6.91937 18.801L5.84937 19.851Z"/>
</g>
<defs>
<clipPath id="clip0_61_17380">
<rect transform="translate(0 0.000976562)"/>
</clipPath>
</defs>
</svg>
