<svg   viewBox="0 0 24 24" fill="none" xmlns="http://www.w3.org/2000/svg">
<g clip-path="url(#clip0_61_17382)">
<path d="M9 15.001C6.33 15.001 1 16.341 1 19.001V20.001C1 20.551 1.45 21.001 2 21.001H16C16.55 21.001 17 20.551 17 20.001V19.001C17 16.341 11.67 15.001 9 15.001Z" fill="black"/>
<path d="M4.74 9.00098H13.27C13.54 9.00098 13.76 8.78098 13.76 8.51098V8.49098C13.76 8.22098 13.54 8.00098 13.27 8.00098H13C13 6.52098 12.19 5.25098 11 4.55098V5.50098C11 5.78098 10.78 6.00098 10.5 6.00098C10.22 6.00098 10 5.78098 10 5.50098V4.14098C9.68 4.06098 9.35 4.00098 9 4.00098C8.65 4.00098 8.32 4.06098 8 4.14098V5.50098C8 5.78098 7.78 6.00098 7.5 6.00098C7.22 6.00098 7 5.78098 7 5.50098V4.55098C5.81 5.25098 5 6.52098 5 8.00098H4.74C4.47 8.00098 4.25 8.22098 4.25 8.49098V8.52098C4.25 8.78098 4.47 9.00098 4.74 9.00098Z" fill="black"/>
<path d="M9.00063 13.001C10.8606 13.001 12.4106 11.721 12.8606 10.001H5.14062C5.59062 11.721 7.14063 13.001 9.00063 13.001Z" fill="black"/>
<path d="M21.9837 6.23098L22.9137 5.40098L22.1637 4.10098L20.9737 4.49098C20.8337 4.38098 20.6737 4.29098 20.5037 4.22098L20.2537 3.00098H18.7537L18.5037 4.22098C18.3337 4.29098 18.1738 4.38098 18.0238 4.49098L16.8438 4.10098L16.0938 5.40098L17.0238 6.23098C17.0038 6.40098 17.0038 6.58098 17.0238 6.75098L16.0938 7.60098L16.8438 8.90098L18.0438 8.52098C18.1738 8.62098 18.3237 8.70098 18.4737 8.77098L18.7537 10.001H20.2537L20.5238 8.78098C20.6838 8.71098 20.8237 8.63098 20.9637 8.53098L22.1537 8.91098L22.9037 7.61098L21.9737 6.76098C22.0037 6.57098 21.9937 6.40098 21.9837 6.23098ZM19.5037 7.75098C18.8137 7.75098 18.2537 7.19098 18.2537 6.50098C18.2537 5.81098 18.8137 5.25098 19.5037 5.25098C20.1937 5.25098 20.7537 5.81098 20.7537 6.50098C20.7537 7.19098 20.1937 7.75098 19.5037 7.75098Z" fill="black"/>
<path d="M19.4003 10.791L18.5503 11.071C18.4503 10.991 18.3403 10.931 18.2203 10.881L18.0403 10.001H16.9703L16.7903 10.871C16.6703 10.921 16.5503 10.991 16.4503 11.061L15.6103 10.781L15.0703 11.711L15.7303 12.301C15.7203 12.431 15.7203 12.551 15.7303 12.671L15.0703 13.281L15.6103 14.211L16.4703 13.941C16.5703 14.011 16.6703 14.071 16.7803 14.121L16.9603 15.001H18.0303L18.2203 14.131C18.3303 14.081 18.4403 14.021 18.5403 13.951L19.3903 14.221L19.9303 13.291L19.2703 12.681C19.2803 12.551 19.2803 12.431 19.2703 12.311L19.9303 11.721L19.4003 10.791ZM17.5003 13.391C17.0103 13.391 16.6103 12.991 16.6103 12.501C16.6103 12.011 17.0103 11.611 17.5003 11.611C17.9903 11.611 18.3903 12.011 18.3903 12.501C18.3903 12.991 17.9903 13.391 17.5003 13.391Z" fill="black"/>
</g>
<defs>
<clipPath id="clip0_61_17382">
<rect width="24" height="24" fill="white" transform="translate(0 0.000976562)"/>
</clipPath>
</defs>
</svg>
