<svg viewBox="0 0 24 24" xmlns="http://www.w3.org/2000/svg">
<g clip-path="url(#clip0_61_17384)">
<path d="M20 2.00098H4C2.9 2.00098 2 2.90098 2 4.00098V20.001C2 21.101 2.9 22.001 4 22.001H20C21.1 22.001 22 21.101 22 20.001V4.00098C22 2.90098 21.1 2.00098 20 2.00098ZM20 19.001C20 19.551 19.55 20.001 19 20.001H18V19.001C18 18.451 17.55 18.001 17 18.001H15.85C16.56 17.151 17 16.111 17 15.001C17 13.111 15.91 12.161 15.15 11.641C13.29 10.371 12.92 8.86098 12.9 7.92098C12.89 7.52098 12.47 7.29098 12.13 7.49098C6.33 10.921 6.98 14.491 7 15.001C7.03 15.961 7.49 17.071 8.24 18.001H7C6.45 18.001 6 18.451 6 19.001V20.001H5C4.45 20.001 4 19.551 4 19.001V5.00098C4 4.45098 4.45 4.00098 5 4.00098H19C19.55 4.00098 20 4.45098 20 5.00098V19.001ZM13.2 13.741C13.12 13.281 13.13 12.891 13.28 12.461C13.82 13.671 15.43 14.101 15.26 15.641C15.07 17.331 13.15 18.011 11.87 16.961C12.63 16.721 13.27 15.921 13.4 15.331C13.52 14.781 13.29 14.291 13.2 13.741Z"/>
</g>
<defs>
<clipPath id="clip0_61_17384">
<rect transform="translate(0 0.000976562)"/>
</clipPath>
</defs>
</svg>
