<svg   viewBox="0 0 24 24" fill="none" xmlns="http://www.w3.org/2000/svg">
<g clip-path="url(#clip0_61_17385)">
<path d="M9.5 5.50098C10.6 5.50098 11.5 4.60098 11.5 3.50098C11.5 2.40098 10.6 1.50098 9.5 1.50098C8.4 1.50098 7.5 2.40098 7.5 3.50098C7.5 4.60098 8.4 5.50098 9.5 5.50098ZM5.75 8.90098L3.23 21.811C3.11 22.431 3.58 23.001 4.21 23.001H4.3C4.77 23.001 5.18 22.671 5.28 22.211L6.85 15.001L9 17.001V22.001C9 22.551 9.45 23.001 10 23.001C10.55 23.001 11 22.551 11 22.001V15.861C11 15.591 10.89 15.341 10.71 15.151L8.95 13.401L9.55 10.401C10.62 11.721 12.13 12.631 13.86 12.911C14.46 13.011 15 12.521 15 11.911C15 11.421 14.64 11.011 14.16 10.931C12.67 10.681 11.41 9.78098 10.65 8.55098L9.7 6.95098C9.35 6.35098 8.7 6.00098 8 6.00098C7.75 6.00098 7.5 6.05098 7.25 6.15098L2.62 8.05098C2.25 8.20098 2 8.57098 2 8.97098V12.001C2 12.551 2.45 13.001 3 13.001C3.55 13.001 4 12.551 4 12.001V9.65098L5.75 8.90098ZM21 2.00098H14C13.45 2.00098 13 2.45098 13 3.00098V8.00098C13 8.55098 13.45 9.00098 14 9.00098H16.75V22.251C16.75 22.661 17.09 23.001 17.5 23.001C17.91 23.001 18.25 22.661 18.25 22.251V9.00098H21C21.55 9.00098 22 8.55098 22 8.00098V3.00098C22 2.45098 21.55 2.00098 21 2.00098ZM20.15 5.85098L18.87 7.14098C18.56 7.46098 18.02 7.23098 18.02 6.79098V6.25098H15.26C14.85 6.25098 14.51 5.91098 14.51 5.50098C14.51 5.09098 14.85 4.75098 15.26 4.75098H18.02V4.21098C18.02 3.76098 18.56 3.54098 18.87 3.86098L20.15 5.15098C20.34 5.34098 20.34 5.66098 20.15 5.85098Z" fill="black"/>
</g>
<defs>
<clipPath id="clip0_61_17385">
<rect width="24" height="24" fill="white" transform="translate(0 0.000976562)"/>
</clipPath>
</defs>
</svg>
