<svg viewBox="0 0 24 24" xmlns="http://www.w3.org/2000/svg">
<g clip-path="url(#clip0_61_17386)">
<path d="M16 11.001C17.66 11.001 18.99 9.66098 18.99 8.00098C18.99 6.34098 17.66 5.00098 16 5.00098C14.34 5.00098 13 6.34098 13 8.00098C13 9.66098 14.34 11.001 16 11.001ZM8 11.001C9.66 11.001 10.99 9.66098 10.99 8.00098C10.99 6.34098 9.66 5.00098 8 5.00098C6.34 5.00098 5 6.34098 5 8.00098C5 9.66098 6.34 11.001 8 11.001ZM8 13.001C5.67 13.001 1 14.171 1 16.501V18.001C1 18.551 1.45 19.001 2 19.001H14C14.55 19.001 15 18.551 15 18.001V16.501C15 14.171 10.33 13.001 8 13.001ZM16 13.001C15.71 13.001 15.38 13.021 15.03 13.051C15.05 13.061 15.06 13.081 15.07 13.091C16.21 13.921 17 15.031 17 16.501V18.001C17 18.351 16.93 18.691 16.82 19.001H22C22.55 19.001 23 18.551 23 18.001V16.501C23 14.171 18.33 13.001 16 13.001Z"/>
</g>
<defs>
<clipPath id="clip0_61_17386">
<rect transform="translate(0 0.000976562)"/>
</clipPath>
</defs>
</svg>
