<svg viewBox="0 0 24 24" xmlns="http://www.w3.org/2000/svg">
<g clip-path="url(#clip0_61_17388)">
<path d="M7 10.001H5V8.00098C5 7.45098 4.55 7.00098 4 7.00098C3.45 7.00098 3 7.45098 3 8.00098V10.001H1C0.45 10.001 0 10.451 0 11.001C0 11.551 0.45 12.001 1 12.001H3V14.001C3 14.551 3.45 15.001 4 15.001C4.55 15.001 5 14.551 5 14.001V12.001H7C7.55 12.001 8 11.551 8 11.001C8 10.451 7.55 10.001 7 10.001ZM18 11.001C19.66 11.001 20.99 9.66098 20.99 8.00098C20.99 6.34098 19.66 5.00098 18 5.00098C17.68 5.00098 17.37 5.05098 17.09 5.14098C17.66 5.95098 17.99 6.93098 17.99 8.00098C17.99 9.07098 17.65 10.041 17.09 10.861C17.37 10.951 17.68 11.001 18 11.001ZM13 11.001C14.66 11.001 15.99 9.66098 15.99 8.00098C15.99 6.34098 14.66 5.00098 13 5.00098C11.34 5.00098 10 6.34098 10 8.00098C10 9.66098 11.34 11.001 13 11.001ZM13 13.001C11 13.001 7 14.001 7 16.001V17.001C7 17.551 7.45 18.001 8 18.001H18C18.55 18.001 19 17.551 19 17.001V16.001C19 14.001 15 13.001 13 13.001ZM19.62 13.161C20.45 13.891 21 14.821 21 16.001V17.501C21 17.671 20.98 17.841 20.95 18.001H23.5C23.78 18.001 24 17.781 24 17.501V16.001C24 14.461 21.63 13.511 19.62 13.161Z"/>
</g>
<defs>
<clipPath id="clip0_61_17388">
<rect transform="translate(0 0.000976562)"/>
</clipPath>
</defs>
</svg>
