<svg   viewBox="0 0 24 24" fill="none" xmlns="http://www.w3.org/2000/svg">
<g clip-path="url(#clip0_61_17387)">
<path d="M12 12.751C13.63 12.751 15.07 13.141 16.24 13.651C17.32 14.131 18 15.211 18 16.381V17.001C18 17.551 17.55 18.001 17 18.001H7C6.45 18.001 6 17.551 6 17.001V16.391C6 15.211 6.68 14.131 7.76 13.661C8.93 13.141 10.37 12.751 12 12.751ZM4 13.001C5.1 13.001 6 12.101 6 11.001C6 9.90098 5.1 9.00098 4 9.00098C2.9 9.00098 2 9.90098 2 11.001C2 12.101 2.9 13.001 4 13.001ZM5.13 14.101C4.76 14.041 4.39 14.001 4 14.001C3.01 14.001 2.07 14.211 1.22 14.581C0.48 14.901 0 15.621 0 16.431V17.001C0 17.551 0.45 18.001 1 18.001H4.5V16.391C4.5 15.561 4.73 14.781 5.13 14.101ZM20 13.001C21.1 13.001 22 12.101 22 11.001C22 9.90098 21.1 9.00098 20 9.00098C18.9 9.00098 18 9.90098 18 11.001C18 12.101 18.9 13.001 20 13.001ZM24 16.431C24 15.621 23.52 14.901 22.78 14.581C21.93 14.211 20.99 14.001 20 14.001C19.61 14.001 19.24 14.041 18.87 14.101C19.27 14.781 19.5 15.561 19.5 16.391V18.001H23C23.55 18.001 24 17.551 24 17.001V16.431ZM12 6.00098C13.66 6.00098 15 7.34098 15 9.00098C15 10.661 13.66 12.001 12 12.001C10.34 12.001 9 10.661 9 9.00098C9 7.34098 10.34 6.00098 12 6.00098Z" fill="black"/>
</g>
<defs>
<clipPath id="clip0_61_17387">
<rect width="24" height="24" fill="white" transform="translate(0 0.000976562)"/>
</clipPath>
</defs>
</svg>
