<svg   viewBox="0 0 24 24" fill="none" xmlns="http://www.w3.org/2000/svg">
<g clip-path="url(#clip0_61_17389)">
<path d="M8.99887 5.00098V5.38098C8.16887 5.05098 7.27887 4.88098 6.38887 4.88098C4.96887 4.88098 3.54887 5.31098 2.33887 6.17098C1.82887 6.53098 1.76887 7.26098 2.20887 7.70098L4.77887 10.271H5.88887V11.381C6.74887 12.241 7.86887 12.691 8.99887 12.741V15.001H6.99887C6.44887 15.001 5.99887 15.451 5.99887 16.001V18.001C5.99887 19.101 6.89887 20.001 7.99887 20.001H17.9989C19.6589 20.001 20.9989 18.661 20.9989 17.001V5.00098C20.9989 4.45098 20.5489 4.00098 19.9989 4.00098H9.99887C9.44887 4.00098 8.99887 4.45098 8.99887 5.00098ZM7.88887 10.411V8.26098H5.60887L4.56887 7.22098C5.13887 7.00098 5.75887 6.88098 6.38887 6.88098C7.72887 6.88098 8.97887 7.40098 9.92887 8.34098L11.3389 9.75098L11.1389 9.95098C10.6289 10.461 9.94887 10.751 9.21887 10.751C8.74887 10.751 8.28887 10.631 7.88887 10.411ZM18.9989 17.001C18.9989 17.551 18.5489 18.001 17.9989 18.001C17.4489 18.001 16.9989 17.551 16.9989 17.001V16.001C16.9989 15.451 16.5489 15.001 15.9989 15.001H10.9989V12.411C11.5689 12.181 12.0989 11.841 12.5589 11.381L12.7589 11.181L15.5889 14.001H16.9989V12.591L10.9989 6.62098V6.00098H18.9989V17.001Z" fill="black"/>
</g>
<defs>
<clipPath id="clip0_61_17389">
<rect width="24" height="24" fill="white" transform="translate(0 0.000976562)"/>
</clipPath>
</defs>
</svg>
