<svg viewBox="0 0 24 24" xmlns="http://www.w3.org/2000/svg">
<g clip-path="url(#clip0_61_17390)">
<path d="M20 10.001V7.00098C20 5.90098 19.1 5.00098 18 5.00098H6C4.9 5.00098 4 5.90098 4 7.00098V10.001C2.9 10.001 2 10.901 2 12.001V17.001H3.33L3.84 18.531C3.94 18.811 4.2 19.001 4.5 19.001C4.8 19.001 5.06 18.811 5.16 18.531L5.67 17.001H18.34L18.85 18.531C18.94 18.811 19.2 19.001 19.5 19.001C19.8 19.001 20.06 18.811 20.16 18.531L20.67 17.001H22V12.001C22 10.901 21.1 10.001 20 10.001ZM11 10.001H6V8.00098C6 7.45098 6.45 7.00098 7 7.00098H11V10.001ZM18 10.001H13V7.00098H17C17.55 7.00098 18 7.45098 18 8.00098V10.001Z"/>
</g>
<defs>
<clipPath id="clip0_61_17390">
<rect transform="translate(0 0.000976562)"/>
</clipPath>
</defs>
</svg>
