<svg   viewBox="0 0 24 24" fill="none" xmlns="http://www.w3.org/2000/svg">
<g clip-path="url(#clip0_61_17391)">
<path d="M15 11.001V5.83096C15 5.30096 14.79 4.79096 14.41 4.42096L12.7 2.71096C12.31 2.32096 11.68 2.32096 11.29 2.71096L9.59 4.41096C9.21 4.79096 9 5.30096 9 5.83096V7.00096H5C3.9 7.00096 3 7.90096 3 9.00096V19.001C3 20.101 3.9 21.001 5 21.001H19C20.1 21.001 21 20.101 21 19.001V13.001C21 11.901 20.1 11.001 19 11.001H15ZM7 19.001H5V17.001H7V19.001ZM7 15.001H5V13.001H7V15.001ZM7 11.001H5V9.00096H7V11.001ZM13 19.001H11V17.001H13V19.001ZM13 15.001H11V13.001H13V15.001ZM13 11.001H11V9.00096H13V11.001ZM13 7.00096H11V5.00096H13V7.00096ZM19 19.001H17V17.001H19V19.001ZM19 15.001H17V13.001H19V15.001Z" fill="black"/>
</g>
<defs>
<clipPath id="clip0_61_17391">
<rect width="24" height="24" fill="white" transform="translate(0 0.000976562)"/>
</clipPath>
</defs>
</svg>
