<svg viewBox="0 0 24 24" xmlns="http://www.w3.org/2000/svg">
<g clip-path="url(#clip0_61_17392)">
<path d="M17 6.00098H15V3.00098C15 2.45098 14.55 2.00098 14 2.00098H10C9.45 2.00098 9 2.45098 9 3.00098V6.00098H7C5.9 6.00098 5 6.90098 5 8.00098V19.001C5 20.101 5.9 21.001 7 21.001C7 21.551 7.45 22.001 8 22.001C8.55 22.001 9 21.551 9 21.001H15C15 21.551 15.45 22.001 16 22.001C16.55 22.001 17 21.551 17 21.001C18.1 21.001 19 20.101 19 19.001V8.00098C19 6.90098 18.1 6.00098 17 6.00098ZM8.75 18.001C8.34 18.001 8 17.661 8 17.251V9.75098C8 9.34098 8.34 9.00098 8.75 9.00098C9.16 9.00098 9.5 9.34098 9.5 9.75098V17.251C9.5 17.661 9.16 18.001 8.75 18.001ZM12 18.001C11.59 18.001 11.25 17.661 11.25 17.251V9.75098C11.25 9.34098 11.59 9.00098 12 9.00098C12.41 9.00098 12.75 9.34098 12.75 9.75098V17.251C12.75 17.661 12.41 18.001 12 18.001ZM13.5 6.00098H10.5V3.50098H13.5V6.00098ZM15.25 18.001C14.84 18.001 14.5 17.661 14.5 17.251V9.75098C14.5 9.34098 14.84 9.00098 15.25 9.00098C15.66 9.00098 16 9.34098 16 9.75098V17.251C16 17.661 15.66 18.001 15.25 18.001Z"/>
</g>
<defs>
<clipPath id="clip0_61_17392">
<rect transform="translate(0 0.000976562)"/>
</clipPath>
</defs>
</svg>
