<svg   viewBox="0 0 24 24" fill="none" xmlns="http://www.w3.org/2000/svg">
<g clip-path="url(#clip0_61_17393)">
<path d="M19.5 6.00098C18.19 6.00098 17.13 7.01098 17.02 8.30098C15.14 7.80098 14.18 6.50098 12 6.50098C9.81 6.50098 8.86 7.80098 6.98 8.30098C6.87 7.02098 5.81 6.00098 4.5 6.00098C3.12 6.00098 2 7.12098 2 8.50098V9.00098C2 15.001 5.6 16.811 8.52 16.981C9.53 17.621 10.72 18.001 12 18.001C13.28 18.001 14.47 17.621 15.48 16.981C18.4 16.811 22 15.001 22 9.00098V8.50098C22 7.12098 20.88 6.00098 19.5 6.00098ZM3.5 9.00098V8.50098C3.5 7.95098 3.95 7.50098 4.5 7.50098C5.05 7.50098 5.5 7.95098 5.5 8.50098V11.501C5.5 12.781 5.88 13.971 6.51 14.981C4.99 14.271 3.5 12.651 3.5 9.00098ZM14.3 11.011C13.9 10.841 13.58 10.651 13.29 10.481C12.83 10.201 12.49 10.001 12 10.001C11.51 10.001 11.16 10.201 10.69 10.481C10.41 10.651 10.09 10.831 9.71 10.991C9.37 11.141 9 10.911 9 10.541C9 10.341 9.11 10.161 9.29 10.091C9.63 9.95098 9.91 9.78098 10.17 9.63098C10.72 9.30098 11.23 9.00098 12 9.00098C12.77 9.00098 13.27 9.30098 13.8 9.62098C14.07 9.78098 14.35 9.95098 14.7 10.101C14.88 10.181 14.99 10.361 14.99 10.551C15 10.911 14.63 11.151 14.3 11.011ZM20.5 9.00098C20.5 12.651 19.01 14.271 17.49 14.981C18.13 13.971 18.5 12.781 18.5 11.501V8.50098C18.5 7.95098 18.95 7.50098 19.5 7.50098C20.05 7.50098 20.5 7.95098 20.5 8.50098V9.00098V9.00098Z" fill="black"/>
</g>
<defs>
<clipPath id="clip0_61_17393">
<rect width="24" height="24" fill="white" transform="translate(0 0.000976562)"/>
</clipPath>
</defs>
</svg>
