<svg viewBox="0 0 24 24" xmlns="http://www.w3.org/2000/svg">
<g clip-path="url(#clip0_61_17394)">
<path d="M17 10.431V3.00098C17 2.45098 16.55 2.00098 16 2.00098H8C7.45 2.00098 7 2.45098 7 3.00098V10.431C7 10.781 7.18 11.111 7.49 11.291L11.67 13.801L10.68 16.141L8.46 16.331C8 16.371 7.82 16.921 8.16 17.211L9.85 18.671L9.34 20.851C9.24 21.281 9.71 21.621 10.09 21.391L12 20.231L13.91 21.381C14.29 21.611 14.76 21.271 14.66 20.841L14.15 18.661L15.84 17.201C16.17 16.911 16 16.361 15.55 16.321L13.33 16.131L12.34 13.791L16.52 11.281C16.82 11.111 17 10.791 17 10.431ZM13 12.231L12 12.831L11 12.231V3.00098H13V12.231Z"/>
</g>
<defs>
<clipPath id="clip0_61_17394">
<rect transform="translate(0 0.000976562)"/>
</clipPath>
</defs>
</svg>
