<svg viewBox="0 0 24 24" xmlns="http://www.w3.org/2000/svg">
<g clip-path="url(#clip0_61_17396)">
<path d="M11.99 2.00098C6.47 2.00098 2 6.48098 2 12.001C2 17.521 6.47 22.001 11.99 22.001C17.52 22.001 22 17.521 22 12.001C22 6.48098 17.52 2.00098 11.99 2.00098ZM12 20.001C7.58 20.001 4 16.421 4 12.001C4 7.58098 7.58 4.00098 12 4.00098C16.42 4.00098 20 7.58098 20 12.001C20 16.421 16.42 20.001 12 20.001ZM15.5 11.001C16.33 11.001 17 10.331 17 9.50098C17 8.67098 16.33 8.00098 15.5 8.00098C14.67 8.00098 14 8.67098 14 9.50098C14 10.331 14.67 11.001 15.5 11.001ZM8.5 11.001C9.33 11.001 10 10.331 10 9.50098C10 8.67098 9.33 8.00098 8.5 8.00098C7.67 8.00098 7 8.67098 7 9.50098C7 10.331 7.67 11.001 8.5 11.001ZM12 13.501C9.97 13.501 8.2 14.611 7.25 16.251C7.06 16.581 7.31 17.001 7.69 17.001H16.31C16.69 17.001 16.94 16.581 16.75 16.251C15.8 14.611 14.03 13.501 12 13.501Z"/>
</g>
<defs>
<clipPath id="clip0_61_17396">
<rect transform="translate(0 0.000976562)"/>
</clipPath>
</defs>
</svg>
