<svg   viewBox="0 0 24 24" fill="none" xmlns="http://www.w3.org/2000/svg">
<g clip-path="url(#clip0_61_17397)">
<path d="M11.1026 12.0811C9.10259 8.20108 10.1826 4.72108 11.1726 2.81108C11.3626 2.45108 11.0526 2.04108 10.6426 2.09108C5.62259 2.77108 1.78259 7.16108 1.99259 12.4111C2.00259 12.4111 2.00259 12.4111 2.00259 12.4211C2.62259 12.1511 3.29259 12.0011 4.00259 12.0011C5.66259 12.0011 7.18259 12.8311 8.10259 14.1511C9.77259 14.6311 11.0026 16.1711 11.0026 18.0011C11.0026 19.5211 10.1326 20.8311 8.88259 21.5111C9.86259 21.8311 10.9126 22.0111 11.9926 22.0111C15.1226 22.0111 17.9126 20.5711 19.7526 18.3211C20.0126 18.0011 19.7926 17.5311 19.3826 17.5011C16.8926 17.3711 13.1026 15.9711 11.1026 12.0811Z" fill="black"/>
<path d="M7 16.001H6.82C6.4 14.841 5.3 14.001 4 14.001C2.34 14.001 1 15.341 1 17.001C1 18.661 2.34 20.001 4 20.001C4.62 20.001 6.49 20.001 7 20.001C8.1 20.001 9 19.101 9 18.001C9 16.901 8.1 16.001 7 16.001Z" fill="black"/>
</g>
<defs>
<clipPath id="clip0_61_17397">
<rect width="24" height="24" fill="white" transform="translate(0 0.000976562)"/>
</clipPath>
</defs>
</svg>
