<svg viewBox="0 0 24 24" xmlns="http://www.w3.org/2000/svg">
<g clip-path="url(#clip0_61_17403)">
<path d="M20.4872 20.491L3.50719 3.51098C3.11719 3.12098 2.48719 3.12098 2.09719 3.51098C1.70719 3.90098 1.70719 4.53098 2.09719 4.92098L5.01719 7.84098C5.01719 7.90098 4.99719 7.95098 4.99719 8.00098V19.001C4.99719 20.101 5.89719 21.001 6.99719 21.001C6.99719 21.551 7.44719 22.001 7.99719 22.001C8.54719 22.001 8.99719 21.551 8.99719 21.001H14.9972C14.9972 21.551 15.4472 22.001 15.9972 22.001C16.5472 22.001 16.9972 21.551 16.9972 21.001C17.3372 21.001 17.6472 20.911 17.9272 20.761L19.0672 21.901C19.4572 22.291 20.0872 22.291 20.4772 21.901C20.8772 21.511 20.8772 20.881 20.4872 20.491ZM8.74719 18.001C8.33719 18.001 7.99719 17.661 7.99719 17.251V10.831L9.49719 12.331V17.251C9.49719 17.661 9.15719 18.001 8.74719 18.001ZM11.9972 18.001C11.5872 18.001 11.2472 17.661 11.2472 17.251V14.081L12.7472 15.581V17.251C12.7472 17.661 12.4072 18.001 11.9972 18.001ZM11.9972 9.00098C12.4072 9.00098 12.7472 9.34098 12.7472 9.75098V9.92098L14.4972 11.671V9.75098C14.4972 9.34098 14.8372 9.00098 15.2472 9.00098C15.6572 9.00098 15.9972 9.34098 15.9972 9.75098V13.171L18.9972 16.171V8.00098C18.9972 6.90098 18.0972 6.00098 16.9972 6.00098H14.9972V3.00098C14.9972 2.45098 14.5472 2.00098 13.9972 2.00098H9.99719C9.44719 2.00098 8.99719 2.45098 8.99719 3.00098V6.00098H8.82719L11.8572 9.03098C11.9072 9.02098 11.9472 9.00098 11.9972 9.00098ZM10.4972 3.50098H13.4972V6.00098H10.4972V3.50098Z"/>
</g>
<defs>
<clipPath id="clip0_61_17403">
<rect transform="translate(0 0.000976562)"/>
</clipPath>
</defs>
</svg>
