<svg viewBox="0 0 24 24" xmlns="http://www.w3.org/2000/svg">
<g clip-path="url(#clip0_61_17401)">
<path d="M12 22.001C13.1 22.001 14 21.101 14 20.001H10C10 21.101 10.89 22.001 12 22.001ZM18 11.001C18 7.93098 16.36 5.36098 13.5 4.68098V4.00098C13.5 3.17098 12.83 2.50098 12 2.50098C11.17 2.50098 10.5 3.17098 10.5 4.00098V4.68098C10.26 4.74098 10.03 4.83098 9.81 4.91098L18 13.101V11.001ZM5.41 3.35098L4 4.76098L6.81 7.57098C6.29 8.57098 6 9.73098 6 11.001V16.001L4.71 17.291C4.08 17.921 4.52 19.001 5.41 19.001H18.24L19.98 20.741L21.39 19.331L5.41 3.35098Z"/>
</g>
<defs>
<clipPath id="clip0_61_17401">
<rect transform="translate(0 0.000976562)"/>
</clipPath>
</defs>
</svg>
