<svg   viewBox="0 0 24 24" fill="none" xmlns="http://www.w3.org/2000/svg">
<g clip-path="url(#clip0_61_17402)">
<path d="M12.0005 22.001C13.1005 22.001 14.0005 21.101 14.0005 20.001H10.0005C10.0005 21.101 10.8905 22.001 12.0005 22.001ZM19.2905 17.291L18.0005 16.001V11.001C18.0005 7.93098 16.3605 5.36098 13.5005 4.68098V4.00098C13.5005 3.17098 12.8305 2.50098 12.0005 2.50098C11.1705 2.50098 10.5005 3.17098 10.5005 4.00098V4.68098C7.63054 5.36098 6.00054 7.92098 6.00054 11.001V16.001L4.71054 17.291C4.08054 17.921 4.52054 19.001 5.41054 19.001H18.5805C19.4805 19.001 19.9205 17.921 19.2905 17.291ZM14.5005 9.33098C14.5005 9.64098 14.3905 9.93098 14.2005 10.171L11.7005 13.201H13.6005C14.1005 13.201 14.5005 13.601 14.5005 14.101C14.5005 14.601 14.1005 15.001 13.6005 15.001H10.8205C10.0905 15.001 9.50054 14.411 9.50054 13.681V13.671C9.50054 13.361 9.61054 13.071 9.80054 12.831L12.3005 9.80098H10.4005C9.90054 9.80098 9.50054 9.40098 9.50054 8.90098C9.50054 8.40098 9.90054 8.00098 10.4005 8.00098H13.1805C13.9105 8.00098 14.5005 8.59098 14.5005 9.33098Z" fill="black"/>
</g>
<defs>
<clipPath id="clip0_61_17402">
<rect width="24" height="24" fill="white" transform="translate(0 0.000976562)"/>
</clipPath>
</defs>
</svg>
