<svg viewBox="0 0 24 24" xmlns="http://www.w3.org/2000/svg">
<g clip-path="url(#clip0_61_17398)">
<path d="M12.0005 22.001C13.1005 22.001 14.0005 21.101 14.0005 20.001H10.0005C10.0005 21.101 10.8905 22.001 12.0005 22.001ZM18.0005 16.001V11.001C18.0005 7.93098 16.3605 5.36098 13.5005 4.68098V4.00098C13.5005 3.17098 12.8305 2.50098 12.0005 2.50098C11.1705 2.50098 10.5005 3.17098 10.5005 4.00098V4.68098C7.63054 5.36098 6.00054 7.92098 6.00054 11.001V16.001L4.71054 17.291C4.08054 17.921 4.52054 19.001 5.41054 19.001H18.5805C19.4705 19.001 19.9205 17.921 19.2905 17.291L18.0005 16.001Z"/>
</g>
<defs>
<clipPath id="clip0_61_17398">
<rect transform="translate(0 0.000976562)"/>
</clipPath>
</defs>
</svg>
