<svg   viewBox="0 0 24 24" fill="none" xmlns="http://www.w3.org/2000/svg">
<g clip-path="url(#clip0_61_17399)">
<path d="M18.0039 16.001V11.001C18.0039 7.93098 16.3639 5.36098 13.5039 4.68098V4.00098C13.5039 3.17098 12.8239 2.50098 11.9939 2.50098C11.1639 2.50098 10.5039 3.17098 10.5039 4.00098V4.68098C7.63388 5.36098 6.00388 7.92098 6.00388 11.001V16.001L4.70388 17.291C4.07388 17.921 4.51388 19.001 5.40388 19.001H18.5739C19.4639 19.001 19.9139 17.921 19.2839 17.291L18.0039 16.001ZM11.9939 22.001C13.0939 22.001 13.9939 21.101 13.9939 20.001H9.99388C9.99388 21.101 10.8839 22.001 11.9939 22.001ZM6.77388 4.73098C7.19388 4.35098 7.20388 3.70098 6.80388 3.30098C6.42388 2.92098 5.80388 2.91098 5.41388 3.28098C3.70388 4.84098 2.52388 6.96098 2.14388 9.34098C2.05388 9.95098 2.52388 10.501 3.14388 10.501C3.62388 10.501 4.04388 10.151 4.12388 9.67098C4.42388 7.73098 5.38388 6.00098 6.77388 4.73098V4.73098ZM18.6039 3.28098C18.2039 2.91098 17.5839 2.92098 17.2039 3.30098C16.8039 3.70098 16.8239 4.34098 17.2339 4.72098C18.6139 5.99098 19.5839 7.72098 19.8839 9.66098C19.9539 10.141 20.3739 10.491 20.8639 10.491C21.4739 10.491 21.9539 9.94098 21.8539 9.33098C21.4739 6.96098 20.3039 4.85098 18.6039 3.28098V3.28098Z" fill="black"/>
</g>
<defs>
<clipPath id="clip0_61_17399">
<rect width="24" height="24" fill="white" transform="translate(0 0.000976562)"/>
</clipPath>
</defs>
</svg>
