<svg   viewBox="0 0 24 24" fill="none" xmlns="http://www.w3.org/2000/svg">
<g clip-path="url(#clip0_61_17404)">
<path d="M17.0015 22.001C18.6615 22.001 20.0015 20.661 20.0015 19.001C20.0015 17.341 18.6615 16.001 17.0015 16.001C15.7015 16.001 14.6015 16.841 14.1815 18.001H9.1415L11.1315 14.941C11.4215 14.981 11.7115 15.001 12.0015 15.001C12.2915 15.001 12.5815 14.981 12.8715 14.941L13.8915 16.511C14.3115 15.981 14.8515 15.561 15.4915 15.301L14.8915 14.371C16.9915 13.421 18.5315 11.471 18.9115 9.13098C19.0115 8.54098 18.5215 8.00098 17.9215 8.00098C15.3115 8.00098 8.6915 8.00098 6.0815 8.00098C5.4815 8.00098 4.9915 8.54098 5.0915 9.14098C5.4715 11.481 7.0215 13.431 9.1115 14.381L5.1615 20.461C4.8615 20.921 4.9915 21.541 5.4515 21.841C5.9115 22.141 6.5315 22.011 6.8315 21.551L7.8315 20.001H14.1715C14.6015 21.161 15.7015 22.001 17.0015 22.001ZM17.0015 18.001C17.5515 18.001 18.0015 18.451 18.0015 19.001C18.0015 19.551 17.5515 20.001 17.0015 20.001C16.4515 20.001 16.0015 19.551 16.0015 19.001C16.0015 18.451 16.4515 18.001 17.0015 18.001Z" fill="black"/>
<path d="M9.50319 6.47098C9.48319 6.75098 9.68319 7.00098 9.96319 7.00098H10.0032C10.2432 7.00098 10.4432 6.82098 10.4632 6.58098C10.5632 5.71098 10.5032 5.19098 9.52319 4.04098C9.16319 3.61098 8.92319 3.35098 8.99319 2.49098C9.02319 2.23098 8.80319 2.00098 8.53319 2.00098H8.48319C8.24319 2.00098 8.03319 2.19098 8.01319 2.43098C7.93319 3.36098 8.21319 4.17098 8.96319 4.96098C9.15319 5.17098 9.60319 5.52098 9.50319 6.47098Z" fill="black"/>
<path d="M11.9897 6.47098C11.9597 6.75098 12.1697 7.00098 12.4497 7.00098H12.4797C12.7197 7.00098 12.9197 6.82098 12.9397 6.58098C13.0397 5.71098 12.9797 5.19098 11.9997 4.04098C11.6397 3.61098 11.3897 3.35098 11.4697 2.49098C11.4997 2.23098 11.2797 2.00098 11.0097 2.00098H10.9597C10.7197 2.00098 10.5097 2.19098 10.4897 2.43098C10.4097 3.36098 10.6897 4.17098 11.4397 4.96098C11.6297 5.17098 12.0797 5.52098 11.9897 6.47098Z" fill="black"/>
<path d="M14.5032 6.47098C14.4832 6.75098 14.6832 7.00098 14.9632 7.00098H15.0032C15.2432 7.00098 15.4432 6.82098 15.4632 6.58098C15.5632 5.71098 15.5032 5.19098 14.5232 4.04098C14.1632 3.61098 13.9132 3.35098 13.9932 2.49098C14.0232 2.23098 13.8032 2.00098 13.5332 2.00098H13.4832C13.2432 2.00098 13.0332 2.19098 13.0132 2.43098C12.9332 3.36098 13.2132 4.17098 13.9632 4.96098C14.1532 5.17098 14.6032 5.52098 14.5032 6.47098Z" fill="black"/>
</g>
<defs>
<clipPath id="clip0_61_17404">
<rect width="24" height="24" fill="white" transform="translate(0 0.000976562)"/>
</clipPath>
</defs>
</svg>
