<svg   viewBox="0 0 24 24" fill="none" xmlns="http://www.w3.org/2000/svg">
<g clip-path="url(#clip0_61_17405)">
<path d="M3 5.00098V11.001H8L7.4 8.62098C7.22 7.88098 7.88 7.22098 8.62 7.40098L11 8.00098V3.00098H5C3.9 3.00098 3 3.90098 3 5.00098ZM8 13.001H3V19.001C3 20.101 3.9 21.001 5 21.001H11V16.001L8.62 16.601C7.89 16.781 7.22 16.121 7.41 15.391L8 13.001ZM15.38 16.601L13 16.001V21.001H19C20.1 21.001 21 20.101 21 19.001V13.001H16L16.6 15.381C16.78 16.121 16.12 16.781 15.38 16.601V16.601ZM19 3.00098H13V8.00098L15.38 7.40098C16.11 7.22098 16.78 7.88098 16.59 8.61098L16 11.001H21V5.00098C21 3.90098 20.1 3.00098 19 3.00098Z" fill="black"/>
</g>
<defs>
<clipPath id="clip0_61_17405">
<rect width="24" height="24" fill="white" transform="translate(0 0.000976562)"/>
</clipPath>
</defs>
</svg>
