<svg viewBox="0 0 24 24" xmlns="http://www.w3.org/2000/svg">
<g clip-path="url(#clip0_61_17406)">
<path d="M20 4.00098H16.83L15.59 2.65098C15.22 2.24098 14.68 2.00098 14.12 2.00098H9.88C9.32 2.00098 8.78 2.24098 8.4 2.65098L7.17 4.00098H4C2.9 4.00098 2 4.90098 2 6.00098V18.001C2 19.101 2.9 20.001 4 20.001H20C21.1 20.001 22 19.101 22 18.001V6.00098C22 4.90098 21.1 4.00098 20 4.00098ZM12 7.00098C13.63 7.00098 15.06 7.79098 15.98 9.00098H12C10.34 9.00098 9 10.341 9 12.001C9 12.351 9.07 12.691 9.18 13.001H7.1C7.04 12.681 7 12.341 7 12.001C7 9.24098 9.24 7.00098 12 7.00098ZM12 17.001C10.37 17.001 8.94 16.211 8.02 15.001H12C13.66 15.001 15 13.661 15 12.001C15 11.651 14.93 11.311 14.82 11.001H16.9C16.97 11.321 17 11.661 17 12.001C17 14.761 14.76 17.001 12 17.001Z"/>
</g>
<defs>
<clipPath id="clip0_61_17406">
<rect transform="translate(0 0.000976562)"/>
</clipPath>
</defs>
</svg>
