<svg viewBox="0 0 24 24" xmlns="http://www.w3.org/2000/svg">
<g clip-path="url(#clip0_61_17408)">
<path fill-rule="evenodd" clip-rule="evenodd" d="M16.6719 13.1309C18.0419 14.0609 19.0019 15.3209 19.0019 17.0009V20.0009H22.0019C22.5519 20.0009 23.0019 19.5509 23.0019 19.0009V17.0009C23.0019 14.8209 19.4319 13.5309 16.6719 13.1309Z"/>
<path d="M9 12.001C11.2091 12.001 13 10.2101 13 8.00098C13 5.79184 11.2091 4.00098 9 4.00098C6.79086 4.00098 5 5.79184 5 8.00098C5 10.2101 6.79086 12.001 9 12.001Z"/>
<path fill-rule="evenodd" clip-rule="evenodd" d="M15.0019 12.001C17.2119 12.001 19.0019 10.211 19.0019 8.00098C19.0019 5.79098 17.2119 4.00098 15.0019 4.00098C14.5319 4.00098 14.0919 4.10098 13.6719 4.24098C14.5019 5.27098 15.0019 6.58098 15.0019 8.00098C15.0019 9.42098 14.5019 10.731 13.6719 11.761C14.0919 11.901 14.5319 12.001 15.0019 12.001Z"/>
<path fill-rule="evenodd" clip-rule="evenodd" d="M9 13.001C6.33 13.001 1 14.341 1 17.001V19.001C1 19.551 1.45 20.001 2 20.001H16C16.55 20.001 17 19.551 17 19.001V17.001C17 14.341 11.67 13.001 9 13.001Z"/>
</g>
<defs>
<clipPath id="clip0_61_17408">
<rect transform="translate(0 0.000976562)"/>
</clipPath>
</defs>
</svg>
