<svg viewBox="0 0 24 24" xmlns="http://www.w3.org/2000/svg">
<g clip-path="url(#clip0_61_17409)">
<path d="M9 12.001C10.93 12.001 12.5 10.431 12.5 8.50098C12.5 6.57098 10.93 5.00098 9 5.00098C7.07 5.00098 5.5 6.57098 5.5 8.50098C5.5 10.431 7.07 12.001 9 12.001ZM9 7.00098C9.83 7.00098 10.5 7.67098 10.5 8.50098C10.5 9.33098 9.83 10.001 9 10.001C8.17 10.001 7.5 9.33098 7.5 8.50098C7.5 7.67098 8.17 7.00098 9 7.00098ZM9 13.751C6.66 13.751 2 14.921 2 17.251V18.001C2 18.551 2.45 19.001 3 19.001H15C15.55 19.001 16 18.551 16 18.001V17.251C16 14.921 11.34 13.751 9 13.751ZM4.34 17.001C5.18 16.421 7.21 15.751 9 15.751C10.79 15.751 12.82 16.421 13.66 17.001H4.34ZM16.04 13.811C17.2 14.651 18 15.771 18 17.251V19.001H21C21.55 19.001 22 18.551 22 18.001V17.251C22 15.231 18.5 14.081 16.04 13.811ZM15 12.001C16.93 12.001 18.5 10.431 18.5 8.50098C18.5 6.57098 16.93 5.00098 15 5.00098C14.46 5.00098 13.96 5.13098 13.5 5.35098C14.13 6.24098 14.5 7.33098 14.5 8.50098C14.5 9.67098 14.13 10.761 13.5 11.651C13.96 11.871 14.46 12.001 15 12.001Z"/>
</g>
<defs>
<clipPath id="clip0_61_17409">
<rect transform="translate(0 0.000976562)"/>
</clipPath>
</defs>
</svg>
