<svg   viewBox="0 0 24 24" fill="none" xmlns="http://www.w3.org/2000/svg">
<g clip-path="url(#clip0_61_17411)">
<path d="M15 12.001C17.21 12.001 19 10.211 19 8.00098C19 5.79098 17.21 4.00098 15 4.00098C12.79 4.00098 11 5.79098 11 8.00098C11 10.211 12.79 12.001 15 12.001ZM6 10.001V8.00098C6 7.45098 5.55 7.00098 5 7.00098C4.45 7.00098 4 7.45098 4 8.00098V10.001H2C1.45 10.001 1 10.451 1 11.001C1 11.551 1.45 12.001 2 12.001H4V14.001C4 14.551 4.45 15.001 5 15.001C5.55 15.001 6 14.551 6 14.001V12.001H8C8.55 12.001 9 11.551 9 11.001C9 10.451 8.55 10.001 8 10.001H6ZM15 14.001C12.33 14.001 7 15.341 7 18.001V19.001C7 19.551 7.45 20.001 8 20.001H22C22.55 20.001 23 19.551 23 19.001V18.001C23 15.341 17.67 14.001 15 14.001Z" fill="black"/>
</g>
<defs>
<clipPath id="clip0_61_17411">
<rect width="24" height="24" fill="white" transform="translate(0 0.000976562)"/>
</clipPath>
</defs>
</svg>
