<svg viewBox="0 0 24 24" xmlns="http://www.w3.org/2000/svg">
<g clip-path="url(#clip0_61_17414)">
<path d="M14 8.00098C14 5.79098 12.21 4.00098 10 4.00098C7.79 4.00098 6 5.79098 6 8.00098C6 10.211 7.79 12.001 10 12.001C12.21 12.001 14 10.211 14 8.00098ZM2 18.001V19.001C2 19.551 2.45 20.001 3 20.001H17C17.55 20.001 18 19.551 18 19.001V18.001C18 15.341 12.67 14.001 10 14.001C7.33 14.001 2 15.341 2 18.001ZM18 10.001H22C22.55 10.001 23 10.451 23 11.001C23 11.551 22.55 12.001 22 12.001H18C17.45 12.001 17 11.551 17 11.001C17 10.451 17.45 10.001 18 10.001Z"/>
</g>
<defs>
<clipPath id="clip0_61_17414">
<rect transform="translate(0 0.000976562)"/>
</clipPath>
</defs>
</svg>
