<svg   viewBox="0 0 24 24" fill="none" xmlns="http://www.w3.org/2000/svg">
<g clip-path="url(#clip0_61_17412)">
<path d="M9 12.001C11.2091 12.001 13 10.2101 13 8.00098C13 5.79184 11.2091 4.00098 9 4.00098C6.79086 4.00098 5 5.79184 5 8.00098C5 10.2101 6.79086 12.001 9 12.001Z" fill="black"/>
<path d="M9 14.001C6.33 14.001 1 15.341 1 18.001V19.001C1 19.551 1.45 20.001 2 20.001H16C16.55 20.001 17 19.551 17 19.001V18.001C17 15.341 11.67 14.001 9 14.001Z" fill="black"/>
<path d="M20 10.001V7.00098H18V10.001H15V12.001H18V15.001H20V12.001H23V10.001H20Z" fill="black"/>
</g>
<defs>
<clipPath id="clip0_61_17412">
<rect width="24" height="24" fill="white" transform="translate(0 0.000976562)"/>
</clipPath>
</defs>
</svg>
