<svg viewBox="0 0 24 24" xmlns="http://www.w3.org/2000/svg">
<g clip-path="url(#clip0_61_17413)">
<path d="M12 5.90098C13.16 5.90098 14.1 6.84098 14.1 8.00098C14.1 9.16098 13.16 10.101 12 10.101C10.84 10.101 9.9 9.16098 9.9 8.00098C9.9 6.84098 10.84 5.90098 12 5.90098ZM12 14.901C14.97 14.901 18.1 16.361 18.1 17.001V18.101H5.9V17.001C5.9 16.361 9.03 14.901 12 14.901ZM12 4.00098C9.79 4.00098 8 5.79098 8 8.00098C8 10.211 9.79 12.001 12 12.001C14.21 12.001 16 10.211 16 8.00098C16 5.79098 14.21 4.00098 12 4.00098ZM12 13.001C9.33 13.001 4 14.341 4 17.001V19.001C4 19.551 4.45 20.001 5 20.001H19C19.55 20.001 20 19.551 20 19.001V17.001C20 14.341 14.67 13.001 12 13.001Z"/>
</g>
<defs>
<clipPath id="clip0_61_17413">
<rect transform="translate(0 0.000976562)"/>
</clipPath>
</defs>
</svg>
