<svg viewBox="0 0 24 24" xmlns="http://www.w3.org/2000/svg">
<g clip-path="url(#clip0_61_17416)">
<path d="M9 8.001C8.45 8.001 8 8.451 8 9.001V12.001H5C4.45 12.001 4 12.451 4 13.001C4 13.551 4.45 14.001 5 14.001H8V17.001C8 17.551 8.45 18.001 9 18.001C9.55 18.001 10 17.551 10 17.001V14.001H13C13.55 14.001 14 13.551 14 13.001C14 12.451 13.55 12.001 13 12.001H10V9.001C10 8.451 9.55 8.001 9 8.001ZM14.5 6.791C14.5 7.361 15.02 7.791 15.58 7.681L17 7.401V17.001C17 17.551 17.45 18.001 18 18.001C18.55 18.001 19 17.551 19 17.001V6.271C19 5.621 18.4 5.151 17.77 5.301L15.2 5.921C14.79 6.011 14.5 6.381 14.5 6.791Z"/>
</g>
<defs>
<clipPath id="clip0_61_17416">
<rect transform="translate(0 0.000976562)"/>
</clipPath>
</defs>
</svg>
