<svg viewBox="0 0 24 24" xmlns="http://www.w3.org/2000/svg">
<g clip-path="url(#clip0_61_17418)">
<path d="M19.9336 8.35091L16.3336 10.0309L14.0036 7.70091V6.30091L16.3336 3.97091L19.9336 5.65091C20.3136 5.83091 20.7536 5.66091 20.9336 5.29091C21.1136 4.91091 20.9436 4.47091 20.5736 4.29091L16.6536 2.46091C16.2736 2.28091 15.8236 2.36091 15.5236 2.66091L13.7836 4.40091C13.6036 4.16091 13.3236 4.00091 13.0036 4.00091C12.4536 4.00091 12.0036 4.45091 12.0036 5.00091V6.00091H8.82357C8.34357 4.66091 6.96357 3.75091 5.40357 4.06091C4.23357 4.29091 3.27357 5.25091 3.05357 6.42091C2.80357 7.76091 3.45357 8.96091 4.48357 9.58091L7.08357 18.0009H5.50357C4.67357 18.0009 4.00357 18.6709 4.00357 19.5009C4.00357 20.3309 4.67357 21.0009 5.50357 21.0009H15.5036C16.3336 21.0009 17.0036 20.3309 17.0036 19.5009C17.0036 18.6709 16.3336 18.0009 15.5036 18.0009H13.3836L8.41357 8.77091C8.58357 8.53091 8.72357 8.28091 8.82357 8.00091H12.0036V9.00091C12.0036 9.55091 12.4536 10.0009 13.0036 10.0009C13.3236 10.0009 13.6036 9.84091 13.7836 9.60091L15.5236 11.3409C15.8236 11.6409 16.2736 11.7209 16.6536 11.5409L20.5736 9.71091C20.9536 9.53091 21.1136 9.09091 20.9336 8.71091C20.7536 8.34091 20.3136 8.17091 19.9336 8.35091ZM6.00357 8.00091C5.45357 8.00091 5.00357 7.55091 5.00357 7.00091C5.00357 6.45091 5.45357 6.00091 6.00357 6.00091C6.55357 6.00091 7.00357 6.45091 7.00357 7.00091C7.00357 7.55091 6.55357 8.00091 6.00357 8.00091Z"/>
</g>
<defs>
<clipPath id="clip0_61_17418">
<rect transform="translate(0 0.000976562)"/>
</clipPath>
</defs>
</svg>
