<svg   viewBox="0 0 24 24" fill="none" xmlns="http://www.w3.org/2000/svg">
<g clip-path="url(#clip0_61_17419)">
<path d="M13.0003 8.5708C12.2103 8.5708 11.5703 9.2108 11.5703 10.0008C11.5703 10.7908 12.2103 11.4308 13.0003 11.4308C13.7903 11.4308 14.4303 10.7908 14.4303 10.0008C14.4303 9.2108 13.7903 8.5708 13.0003 8.5708Z" fill="black"/>
<path d="M13.2118 3.001C9.37178 2.891 6.21178 5.871 6.02178 9.641L4.10178 12.201C3.85178 12.531 4.09178 13.001 4.50178 13.001H6.00178V16.001C6.00178 17.101 6.90178 18.001 8.00178 18.001H9.00178V20.001C9.00178 20.551 9.45178 21.001 10.0018 21.001H15.0018C15.5518 21.001 16.0018 20.551 16.0018 20.001V16.321C18.4418 15.161 20.1018 12.641 20.0018 9.741C19.8618 6.121 16.8218 3.111 13.2118 3.001ZM16.0018 10.001C16.0018 10.131 15.9918 10.261 15.9818 10.391L16.8118 11.051C16.8918 11.111 16.9118 11.211 16.8618 11.301L16.0618 12.691C16.0118 12.781 15.9018 12.811 15.8218 12.781L14.8318 12.381C14.6218 12.541 14.4018 12.671 14.1618 12.771L14.0018 13.831C13.9918 13.931 13.9018 14.001 13.8018 14.001H12.2018C12.1018 14.001 12.0218 13.931 12.0018 13.831L11.8518 12.771C11.6018 12.671 11.3818 12.541 11.1718 12.381L10.1818 12.781C10.0918 12.811 9.98178 12.781 9.93178 12.691L9.13178 11.301C9.08178 11.221 9.10178 11.111 9.18178 11.051L10.0218 10.391C10.0118 10.261 10.0018 10.131 10.0018 10.001C10.0018 9.871 10.0218 9.731 10.0418 9.611L9.19178 8.951C9.11178 8.891 9.09178 8.791 9.14178 8.691L9.94178 7.311C9.99178 7.221 10.0918 7.191 10.1818 7.221L11.1818 7.621C11.3818 7.471 11.6118 7.331 11.8518 7.231L12.0018 6.171C12.0218 6.071 12.1018 6.001 12.2018 6.001H13.8018C13.9018 6.001 13.9818 6.071 14.0018 6.171L14.1518 7.231C14.3918 7.331 14.6118 7.461 14.8218 7.621L15.8218 7.221C15.9118 7.191 16.0218 7.221 16.0618 7.311L16.8618 8.691C16.9118 8.781 16.8918 8.891 16.8118 8.951L15.9618 9.611C15.9918 9.731 16.0018 9.861 16.0018 10.001Z" fill="black"/>
</g>
<defs>
<clipPath id="clip0_61_17419">
<rect width="24" height="24" fill="white" transform="translate(0 0.000976562)"/>
</clipPath>
</defs>
</svg>
