<svg   viewBox="0 0 24 24" fill="none" xmlns="http://www.w3.org/2000/svg">
<g clip-path="url(#clip0_61_17420)">
<path d="M12 2.00098C6.48 2.00098 2 6.48098 2 12.001C2 17.521 6.48 22.001 12 22.001C17.52 22.001 22 17.521 22 12.001C22 6.48098 17.52 2.00098 12 2.00098ZM11 19.931C7.05 19.441 4 16.081 4 12.001C4 11.381 4.08 10.791 4.21 10.211L9 15.001V16.001C9 17.101 9.9 18.001 11 18.001V19.931ZM17.9 17.391C17.64 16.581 16.9 16.001 16 16.001H15V13.001C15 12.451 14.55 12.001 14 12.001H8V10.001H10C10.55 10.001 11 9.55098 11 9.00098V7.00098H13C14.1 7.00098 15 6.10098 15 5.00098V4.59098C17.93 5.78098 20 8.65098 20 12.001C20 14.081 19.2 15.971 17.9 17.391Z" fill="black"/>
</g>
<defs>
<clipPath id="clip0_61_17420">
<rect width="24" height="24" fill="white" transform="translate(0 0.000976562)"/>
</clipPath>
</defs>
</svg>
