<svg viewBox="0 0 24 24" xmlns="http://www.w3.org/2000/svg">
<g clip-path="url(#clip0_61_17421)">
<path d="M10.9972 8.17098L6.48719 3.66098C8.06719 2.61098 9.95719 2.00098 11.9972 2.00098C17.5172 2.00098 21.9972 6.48098 21.9972 12.001C21.9972 14.041 21.3872 15.931 20.3372 17.511L18.8772 16.051C19.5872 14.871 19.9972 13.481 19.9972 12.001C19.9972 8.65098 17.9272 5.78098 14.9972 4.59098V5.00098C14.9972 6.10098 14.0972 7.00098 12.9972 7.00098H10.9972V8.17098ZM20.4872 21.901C20.0972 22.291 19.4672 22.291 19.0772 21.901L17.5172 20.341C15.4472 21.711 12.8372 22.341 10.0672 21.821C6.11719 21.071 2.93719 17.901 2.18719 13.941C1.66719 11.171 2.28719 8.56098 3.66719 6.49098L2.09719 4.93098C1.70719 4.54098 1.70719 3.91098 2.09719 3.52098C2.48719 3.13098 3.11719 3.13098 3.50719 3.52098L20.4772 20.491C20.8772 20.881 20.8772 21.511 20.4872 21.901ZM10.9972 18.001C9.89719 18.001 8.99719 17.101 8.99719 16.001V15.001L4.20719 10.211C4.07719 10.791 3.99719 11.381 3.99719 12.001C3.99719 16.081 7.04719 19.441 10.9972 19.931V18.001Z"/>
</g>
<defs>
<clipPath id="clip0_61_17421">
<rect transform="translate(0 0.000976562)"/>
</clipPath>
</defs>
</svg>
