<svg viewBox="0 0 24 24" xmlns="http://www.w3.org/2000/svg">
<g clip-path="url(#clip0_61_17422)">
<path d="M16 4.00098C16 2.90098 16.9 2.00098 18 2.00098C19.1 2.00098 20 2.90098 20 4.00098C20 5.10098 19.1 6.00098 18 6.00098C16.9 6.00098 16 5.10098 16 4.00098ZM20.78 7.58098C19.93 7.21098 18.99 7.00098 18 7.00098C17.33 7.00098 16.69 7.10098 16.08 7.28098C16.66 7.83098 17 8.60098 17 9.43098V10.001H22V9.43098C22 8.62098 21.52 7.90098 20.78 7.58098ZM6 6.00098C7.1 6.00098 8 5.10098 8 4.00098C8 2.90098 7.1 2.00098 6 2.00098C4.9 2.00098 4 2.90098 4 4.00098C4 5.10098 4.9 6.00098 6 6.00098ZM7.92 7.28098C7.31 7.10098 6.67 7.00098 6 7.00098C5.01 7.00098 4.07 7.21098 3.22 7.58098C2.48 7.90098 2 8.62098 2 9.43098V10.001H7V9.43098C7 8.60098 7.34 7.83098 7.92 7.28098ZM10 4.00098C10 2.90098 10.9 2.00098 12 2.00098C13.1 2.00098 14 2.90098 14 4.00098C14 5.10098 13.1 6.00098 12 6.00098C10.9 6.00098 10 5.10098 10 4.00098ZM16 10.001H8V9.43098C8 8.62098 8.48 7.90098 9.22 7.58098C10.07 7.21098 11.01 7.00098 12 7.00098C12.99 7.00098 13.93 7.21098 14.78 7.58098C15.52 7.90098 16 8.62098 16 9.43098V10.001ZM15 16.001C15 14.901 15.9 14.001 17 14.001C18.1 14.001 19 14.901 19 16.001C19 17.101 18.1 18.001 17 18.001C15.9 18.001 15 17.101 15 16.001ZM21 22.001H13V21.431C13 20.621 13.48 19.901 14.22 19.581C15.07 19.211 16.01 19.001 17 19.001C17.99 19.001 18.93 19.211 19.78 19.581C20.52 19.901 21 20.621 21 21.431V22.001ZM5 16.001C5 14.901 5.9 14.001 7 14.001C8.1 14.001 9 14.901 9 16.001C9 17.101 8.1 18.001 7 18.001C5.9 18.001 5 17.101 5 16.001ZM11 22.001H3V21.431C3 20.621 3.48 19.901 4.22 19.581C5.07 19.211 6.01 19.001 7 19.001C7.99 19.001 8.93 19.211 9.78 19.581C10.52 19.901 11 20.621 11 21.431V22.001ZM13.79 13.001H12.75V11.751C12.75 11.341 12.41 11.001 12 11.001C11.59 11.001 11.25 11.341 11.25 11.751V13.001H10.21C9.76 13.001 9.54 13.541 9.86 13.851L11.65 15.641C11.85 15.841 12.16 15.841 12.36 15.641L14.15 13.851C14.46 13.541 14.24 13.001 13.79 13.001Z"/>
</g>
<defs>
<clipPath id="clip0_61_17422">
<rect transform="translate(0 0.000976562)"/>
</clipPath>
</defs>
</svg>
