<svg   viewBox="0 0 24 24" fill="none" xmlns="http://www.w3.org/2000/svg">
<g clip-path="url(#clip0_61_17423)">
<path d="M15.5 6.50098C15.5 5.94098 16.17 5.01098 16.61 4.46098C16.81 4.21098 17.19 4.21098 17.38 4.46098C17.82 5.01098 18.49 5.94098 18.49 6.50098C18.5 7.33098 17.83 8.00098 17 8.00098C16.17 8.00098 15.5 7.33098 15.5 6.50098ZM19.5 15.001C20.88 15.001 22 13.881 22 12.501C22 11.251 20.59 9.34098 19.89 8.46098C19.69 8.21098 19.32 8.21098 19.12 8.46098C18.41 9.34098 17 11.251 17 12.501C17 13.881 18.12 15.001 19.5 15.001ZM12 14.001H11V13.001C11 12.451 10.55 12.001 10 12.001C9.45 12.001 9 12.451 9 13.001V14.001H8C7.45 14.001 7 14.451 7 15.001C7 15.551 7.45 16.001 8 16.001H9V17.001C9 17.551 9.45 18.001 10 18.001C10.55 18.001 11 17.551 11 17.001V16.001H12C12.55 16.001 13 15.551 13 15.001C13 14.451 12.55 14.001 12 14.001ZM16 12.001V20.001C16 21.101 15.1 22.001 14 22.001H6C4.9 22.001 4 21.101 4 20.001V12.001C4 9.03098 6.16 6.57098 9 6.09098V4.00098H8C7.45 4.00098 7 3.55098 7 3.00098C7 2.45098 7.45 2.00098 8 2.00098H13C13.61 2.00098 14.19 2.11098 14.72 2.31098C15.39 2.56098 15.55 3.44098 15.05 3.95098C14.77 4.23098 14.36 4.31098 14 4.18098C13.68 4.06098 13.35 4.00098 13 4.00098H11V6.09098C13.84 6.57098 16 9.03098 16 12.001Z" fill="black"/>
</g>
<defs>
<clipPath id="clip0_61_17423">
<rect width="24" height="24" fill="white" transform="translate(0 0.000976562)"/>
</clipPath>
</defs>
</svg>
