<svg   viewBox="0 0 24 24" fill="none" xmlns="http://www.w3.org/2000/svg">
<g clip-path="url(#clip0_61_17424)">
<path d="M5.00125 13.1808V15.9908C5.00125 16.7208 5.40125 17.4008 6.04125 17.7508L11.0413 20.4808C11.6413 20.8108 12.3613 20.8108 12.9613 20.4808L17.9612 17.7508C18.6012 17.4008 19.0012 16.7208 19.0012 15.9908V13.1808L12.9613 16.4808C12.3613 16.8108 11.6413 16.8108 11.0413 16.4808L5.00125 13.1808ZM11.0413 3.52076L2.61125 8.12076C1.92125 8.50076 1.92125 9.50076 2.61125 9.88076L11.0413 14.4808C11.6413 14.8108 12.3613 14.8108 12.9613 14.4808L21.0012 10.0908V16.0008C21.0012 16.5508 21.4512 17.0008 22.0012 17.0008C22.5512 17.0008 23.0012 16.5508 23.0012 16.0008V9.59076C23.0012 9.22076 22.8012 8.89076 22.4812 8.71076L12.9613 3.52076C12.3613 3.20076 11.6413 3.20076 11.0413 3.52076V3.52076Z" fill="black"/>
</g>
<defs>
<clipPath id="clip0_61_17424">
<rect width="24" height="24" fill="white" transform="translate(0 0.000976562)"/>
</clipPath>
</defs>
</svg>
