<svg viewBox="0 0 24 24" xmlns="http://www.w3.org/2000/svg">
<g clip-path="url(#clip0_61_17426)">
<path d="M12 8.00098C13.1046 8.00098 14 7.10555 14 6.00098C14 4.89641 13.1046 4.00098 12 4.00098C10.8954 4.00098 10 4.89641 10 6.00098C10 7.10555 10.8954 8.00098 12 8.00098Z"/>
<path d="M21 14.941C21 14.441 20.64 14.011 20.15 13.961C18.27 13.751 16.66 12.831 15.4 11.331L14.06 9.73098C13.68 9.26098 13.12 9.00098 12.53 9.00098H11.48C10.89 9.00098 10.33 9.26098 9.95 9.72098L8.61 11.321C7.36 12.821 5.74 13.741 3.86 13.951C3.36 14.011 3 14.441 3 14.941C3 15.541 3.53 16.011 4.13 15.941C6.43 15.671 8.45 14.551 10 12.751V15.001L6.24 16.501C5.59 16.761 5.08 17.331 5.01 18.031C4.91 19.101 5.74 20.001 6.79 20.001H9V19.501C9 18.121 10.12 17.001 11.5 17.001H14.5C14.78 17.001 15 17.221 15 17.501C15 17.781 14.78 18.001 14.5 18.001H11.5C10.67 18.001 10 18.671 10 19.501V20.001H17.1C17.95 20.001 18.75 19.461 18.95 18.631C19.16 17.741 18.68 16.871 17.87 16.551L14 15.001V12.751C15.56 14.551 17.57 15.661 19.87 15.941C20.47 16.001 21 15.541 21 14.941Z"/>
</g>
<defs>
<clipPath id="clip0_61_17426">
<rect transform="translate(0 0.000976562)"/>
</clipPath>
</defs>
</svg>
