<svg   viewBox="0 0 24 24" fill="none" xmlns="http://www.w3.org/2000/svg">
<g clip-path="url(#clip0_61_17431)">
<path d="M8.88 9.94098L9.41 10.471C9.7 10.761 10.18 10.761 10.47 10.471C10.76 10.181 10.76 9.70098 10.47 9.41098L9.59 8.53098C9.2 8.14098 8.57 8.14098 8.18 8.53098L7.29 9.41098C7 9.70098 7 10.181 7.29 10.471C7.58 10.761 8.06 10.761 8.35 10.471L8.88 9.94098V9.94098ZM12 17.501C14.03 17.501 15.8 16.391 16.75 14.751C16.94 14.421 16.7 14.001 16.31 14.001H7.69C7.31 14.001 7.06 14.421 7.25 14.751C8.2 16.391 9.97 17.501 12 17.501ZM13.53 10.471C13.82 10.761 14.3 10.761 14.59 10.471L15.12 9.94098L15.65 10.471C15.94 10.761 16.42 10.761 16.71 10.471C17 10.181 17 9.70098 16.71 9.41098L15.83 8.53098C15.44 8.14098 14.81 8.14098 14.42 8.53098L13.54 9.41098C13.24 9.70098 13.24 10.181 13.53 10.471V10.471ZM11.99 2.00098C6.47 2.00098 2 6.47098 2 12.001C2 17.531 6.47 22.001 11.99 22.001C17.51 22.001 22 17.531 22 12.001C22 6.47098 17.52 2.00098 11.99 2.00098ZM12 20.001C7.58 20.001 4 16.421 4 12.001C4 7.58098 7.58 4.00098 12 4.00098C16.42 4.00098 20 7.58098 20 12.001C20 16.421 16.42 20.001 12 20.001Z" fill="black"/>
</g>
<defs>
<clipPath id="clip0_61_17431">
<rect width="24" height="24" fill="white" transform="translate(0 0.000976562)"/>
</clipPath>
</defs>
</svg>
