<svg viewBox="0 0 24 24" xmlns="http://www.w3.org/2000/svg">
<g clip-path="url(#clip0_61_17430)">
<path d="M12 13.501C9.97 13.501 8.2 14.611 7.25 16.251C7.06 16.581 7.31 17.001 7.69 17.001H16.31C16.69 17.001 16.94 16.581 16.75 16.251C15.8 14.611 14.03 13.501 12 13.501ZM8.35 11.471L8.88 10.941L9.41 11.471C9.7 11.761 10.18 11.761 10.47 11.471C10.76 11.181 10.76 10.701 10.47 10.411L9.94 9.88098L10.47 9.35098C10.76 9.06098 10.76 8.58098 10.47 8.29098C10.18 8.00098 9.7 8.00098 9.41 8.29098L8.88 8.82098L8.35 8.29098C8.06 8.00098 7.58 8.00098 7.29 8.29098C7 8.58098 7 9.06098 7.29 9.35098L7.82 9.88098L7.29 10.411C7 10.701 7 11.181 7.29 11.471C7.58 11.761 8.06 11.761 8.35 11.471ZM11.99 2.00098C6.47 2.00098 2 6.47098 2 12.001C2 17.531 6.47 22.001 11.99 22.001C17.51 22.001 22 17.531 22 12.001C22 6.47098 17.52 2.00098 11.99 2.00098ZM12 20.001C7.58 20.001 4 16.421 4 12.001C4 7.58098 7.58 4.00098 12 4.00098C16.42 4.00098 20 7.58098 20 12.001C20 16.421 16.42 20.001 12 20.001ZM15.65 8.29098L15.12 8.82098L14.59 8.29098C14.3 8.00098 13.82 8.00098 13.53 8.29098C13.24 8.58098 13.24 9.06098 13.53 9.35098L14.06 9.88098L13.53 10.411C13.24 10.701 13.24 11.181 13.53 11.471C13.82 11.761 14.3 11.761 14.59 11.471L15.12 10.941L15.65 11.471C15.94 11.761 16.42 11.761 16.71 11.471C17 11.181 17 10.701 16.71 10.411L16.18 9.88098L16.71 9.35098C17 9.06098 17 8.58098 16.71 8.29098C16.42 8.00098 15.94 8.00098 15.65 8.29098Z"/>
</g>
<defs>
<clipPath id="clip0_61_17430">
<rect transform="translate(0 0.000976562)"/>
</clipPath>
</defs>
</svg>
