<svg viewBox="0 0 24 24" xmlns="http://www.w3.org/2000/svg">
<g clip-path="url(#clip0_61_17428)">
<path d="M9.75 15.501H14.25C14.66 15.501 15 15.161 15 14.751C15 14.341 14.66 14.001 14.25 14.001H9.75C9.34 14.001 9 14.341 9 14.751C9 15.161 9.34 15.501 9.75 15.501Z"/>
<path d="M15.5 11.001C16.3284 11.001 17 10.3294 17 9.50098C17 8.67255 16.3284 8.00098 15.5 8.00098C14.6716 8.00098 14 8.67255 14 9.50098C14 10.3294 14.6716 11.001 15.5 11.001Z"/>
<path d="M8.5 11.001C9.32843 11.001 10 10.3294 10 9.50098C10 8.67255 9.32843 8.00098 8.5 8.00098C7.67157 8.00098 7 8.67255 7 9.50098C7 10.3294 7.67157 11.001 8.5 11.001Z"/>
<path d="M11.99 2.00098C6.47 2.00098 2 6.48098 2 12.001C2 17.521 6.47 22.001 11.99 22.001C17.52 22.001 22 17.521 22 12.001C22 6.48098 17.52 2.00098 11.99 2.00098ZM12 20.001C7.58 20.001 4 16.421 4 12.001C4 7.58098 7.58 4.00098 12 4.00098C16.42 4.00098 20 7.58098 20 12.001C20 16.421 16.42 20.001 12 20.001Z"/>
</g>
<defs>
<clipPath id="clip0_61_17428">
<rect transform="translate(0 0.000976562)"/>
</clipPath>
</defs>
</svg>
