<svg viewBox="0 0 24 24" xmlns="http://www.w3.org/2000/svg">
<g clip-path="url(#clip0_61_17427)">
<path d="M15.5 11.001C16.3284 11.001 17 10.3294 17 9.50098C17 8.67255 16.3284 8.00098 15.5 8.00098C14.6716 8.00098 14 8.67255 14 9.50098C14 10.3294 14.6716 11.001 15.5 11.001Z"/>
<path d="M8.5 11.001C9.32843 11.001 10 10.3294 10 9.50098C10 8.67255 9.32843 8.00098 8.5 8.00098C7.67157 8.00098 7 8.67255 7 9.50098C7 10.3294 7.67157 11.001 8.5 11.001Z"/>
<path d="M11.99 2.00098C6.47 2.00098 2 6.48098 2 12.001C2 17.521 6.47 22.001 11.99 22.001C17.52 22.001 22 17.521 22 12.001C22 6.48098 17.52 2.00098 11.99 2.00098ZM12 20.001C7.58 20.001 4 16.421 4 12.001C4 7.58098 7.58 4.00098 12 4.00098C16.42 4.00098 20 7.58098 20 12.001C20 16.421 16.42 20.001 12 20.001ZM12 14.001C10.1 14.001 8.37 14.971 7.35 16.581C7.13 16.931 7.24 17.391 7.59 17.611C7.94 17.831 8.4 17.721 8.62 17.371C9.36 16.191 10.62 15.491 12 15.491C13.38 15.491 14.64 16.191 15.38 17.371C15.52 17.601 15.77 17.721 16.02 17.721C16.16 17.721 16.29 17.681 16.42 17.611C16.77 17.391 16.88 16.931 16.66 16.581C15.63 14.961 13.9 14.001 12 14.001Z"/>
</g>
<defs>
<clipPath id="clip0_61_17427">
<rect transform="translate(0 0.000976562)"/>
</clipPath>
</defs>
</svg>
