<svg   viewBox="0 0 24 24" fill="none" xmlns="http://www.w3.org/2000/svg">
<g clip-path="url(#clip0_61_17433)">
<path d="M23 7.00098C23 8.10098 22.1 9.00098 21 9.00098C19.9 9.00098 19 8.10098 19 7.00098C19 6.22098 19.99 4.56098 20.58 3.64098C20.78 3.33098 21.22 3.33098 21.42 3.64098C22.01 4.56098 23 6.22098 23 7.00098ZM21.86 10.381C21.94 10.911 22 11.451 22 12.001C22 17.521 17.52 22.001 11.99 22.001C6.47 22.001 2 17.521 2 12.001C2 6.48098 6.47 2.00098 11.99 2.00098C14.44 2.00098 16.68 2.88098 18.42 4.34098C17.91 5.29098 17.5 6.27098 17.5 7.00098C17.5 8.93098 19.07 10.501 21 10.501C21.3 10.501 21.58 10.451 21.86 10.381ZM14.03 10.031L15.09 11.091C15.38 11.381 15.86 11.381 16.15 11.091C16.44 10.801 16.44 10.321 16.15 10.031L15.62 9.50098L16.15 8.97098C16.44 8.68098 16.44 8.20098 16.15 7.91098C15.86 7.62098 15.38 7.62098 15.09 7.91098L14.03 8.97098C13.74 9.26098 13.74 9.74098 14.03 10.031ZM8.38 9.50098L7.85 10.031C7.56 10.321 7.56 10.801 7.85 11.091C8.14 11.381 8.62 11.381 8.91 11.091L9.97 10.031C10.26 9.74098 10.26 9.26098 9.97 8.97098L8.91 7.91098C8.62 7.62098 8.14 7.62098 7.85 7.91098C7.56 8.20098 7.56 8.68098 7.85 8.97098L8.38 9.50098ZM16.47 15.801C15.47 14.411 13.85 13.501 12 13.501C11.13 13.501 10.31 13.701 9.57 14.061L5.99 12.001C5.99 11.481 5.73 10.981 5.25 10.711C4.45 10.251 3.41 10.601 3.08 11.511C2.87 12.081 3.05 12.761 3.52 13.151C4.04 13.591 4.72 13.601 5.24 13.311L8.21 15.031C7.96 15.271 7.73 15.531 7.53 15.811C7.17 16.301 7.53 17.001 8.15 17.001C8.38 17.001 8.61 16.901 8.75 16.701C9.47 15.681 10.65 15.001 12 15.001C13.35 15.001 14.53 15.681 15.25 16.701C15.39 16.891 15.61 17.001 15.85 17.001C16.47 17.001 16.83 16.301 16.47 15.801Z" fill="black"/>
</g>
<defs>
<clipPath id="clip0_61_17433">
<rect width="24" height="24" fill="white" transform="translate(0 0.000976562)"/>
</clipPath>
</defs>
</svg>
