<svg viewBox="0 0 24 24" xmlns="http://www.w3.org/2000/svg">
<g clip-path="url(#clip0_61_17434)">
<path d="M18 10.001V7.00098C18 5.90098 17.1 5.00098 16 5.00098H8C6.9 5.00098 6 5.90098 6 7.00098V10.001C4.9 10.001 4 10.901 4 12.001V17.001H5.33L5.84 18.531C5.94 18.811 6.2 19.001 6.5 19.001C6.8 19.001 7.06 18.811 7.16 18.531L7.67 17.001H16.34L16.85 18.531C16.94 18.811 17.2 19.001 17.5 19.001C17.8 19.001 18.06 18.811 18.16 18.531L18.67 17.001H20V12.001C20 10.901 19.1 10.001 18 10.001ZM11 10.001H8V8.00098C8 7.45098 8.45 7.00098 9 7.00098H11V10.001ZM16 10.001H13V7.00098H15C15.55 7.00098 16 7.45098 16 8.00098V10.001Z"/>
</g>
<defs>
<clipPath id="clip0_61_17434">
<rect transform="translate(0 0.000976562)"/>
</clipPath>
</defs>
</svg>
