<svg   viewBox="0 0 24 24" fill="none" xmlns="http://www.w3.org/2000/svg">
<g clip-path="url(#clip0_61_17437)">
<path d="M17.0859 11.0006H21.9459C21.7859 9.39059 21.2359 7.89059 20.4059 6.60059C18.6759 7.43059 17.4159 9.05059 17.0859 11.0006Z" fill="black"/>
<path d="M6.90687 11.0006C6.57687 9.05059 5.31687 7.43059 3.58687 6.60059C2.75687 7.89059 2.20687 9.39059 2.04688 11.0006H6.90687Z" fill="black"/>
<path d="M15.07 11.0008C15.39 8.41078 16.95 6.21078 19.13 5.00078C17.53 3.37078 15.39 2.29078 13 2.05078V11.0008H15.07Z" fill="black"/>
<path d="M8.92719 11.0008H10.9972V2.05078C8.60719 2.29078 6.45719 3.37078 4.86719 5.00078C7.04719 6.21078 8.60719 8.41078 8.92719 11.0008Z" fill="black"/>
<path d="M15.07 13.001H13V21.951C15.39 21.711 17.54 20.631 19.13 19.001C16.95 17.791 15.39 15.591 15.07 13.001Z" fill="black"/>
<path d="M3.58687 17.401C5.30687 16.571 6.57687 14.941 6.90687 13.001H2.04688C2.20687 14.611 2.75687 16.111 3.58687 17.401Z" fill="black"/>
<path d="M17.0859 13.001C17.4159 14.951 18.6759 16.571 20.4059 17.401C21.2359 16.111 21.7859 14.611 21.9459 13.001H17.0859V13.001Z" fill="black"/>
<path d="M8.92719 13.001C8.60719 15.591 7.04719 17.791 4.86719 19.001C6.46719 20.631 8.60719 21.711 10.9972 21.951V13.001H8.92719Z" fill="black"/>
</g>
<defs>
<clipPath id="clip0_61_17437">
<rect width="24" height="24" fill="white" transform="translate(0 0.000976562)"/>
</clipPath>
</defs>
</svg>
