<svg viewBox="0 0 24 24" xmlns="http://www.w3.org/2000/svg">
<g clip-path="url(#clip0_61_17435)">
<path d="M21 6.00098H11.23C9.57 6.00098 8.01 6.66098 6.87 7.73098C6.54 6.73098 5.61 6.00098 4.5 6.00098C3.12 6.00098 2 7.12098 2 8.50098C2 9.88098 3.12 11.001 4.5 11.001C4.71 11.001 4.91 10.971 5.11 10.921C5.06 11.171 5.02 11.431 5.01 11.701C4.83 15.381 7.96 18.381 11.69 17.971C14.24 17.691 16.37 15.711 16.88 13.201C17.03 12.491 17.03 11.801 16.94 11.141C16.85 10.541 17.32 10.011 17.93 10.011H20.69C21.56 10.001 22 9.55098 22 9.00098V7.00098C22 6.45098 21.55 6.00098 21 6.00098ZM4.5 9.00098C4.22 9.00098 4 8.78098 4 8.50098C4 8.22098 4.22 8.00098 4.5 8.00098C4.78 8.00098 5 8.22098 5 8.50098C5 8.78098 4.78 9.00098 4.5 9.00098ZM11 15.001C9.34 15.001 8 13.661 8 12.001C8 10.341 9.34 9.00098 11 9.00098C12.66 9.00098 14 10.341 14 12.001C14 13.661 12.66 15.001 11 15.001Z"/>
<path d="M11 14.001C12.1046 14.001 13 13.1055 13 12.001C13 10.8964 12.1046 10.001 11 10.001C9.89543 10.001 9 10.8964 9 12.001C9 13.1055 9.89543 14.001 11 14.001Z"/>
</g>
<defs>
<clipPath id="clip0_61_17435">
<rect transform="translate(0 0.000976562)"/>
</clipPath>
</defs>
</svg>
