<svg viewBox="0 0 24 24" xmlns="http://www.w3.org/2000/svg">
<g clip-path="url(#clip0_61_17436)">
<path d="M3.81 6.28076C2.67 7.90076 2 9.87076 2 12.0008C2 14.1308 2.67 16.1008 3.81 17.7208C6.23 16.9508 8 14.6808 8 12.0008C8 9.32076 6.23 7.05076 3.81 6.28076Z"/>
<path d="M20.19 6.28076C17.77 7.05076 16 9.32076 16 12.0008C16 14.6808 17.77 16.9508 20.19 17.7208C21.33 16.1008 22 14.1308 22 12.0008C22 9.87076 21.33 7.90076 20.19 6.28076Z"/>
<path d="M14.0009 12.001C14.0009 8.72098 15.9709 5.91098 18.7909 4.67098C17.0109 3.02098 14.6309 2.00098 12.0009 2.00098C9.37094 2.00098 6.99094 3.02098 5.21094 4.67098C8.03094 5.91098 10.0009 8.72098 10.0009 12.001C10.0009 15.281 8.03094 18.091 5.21094 19.331C6.99094 20.981 9.37094 22.001 12.0009 22.001C14.6309 22.001 17.0109 20.981 18.7909 19.331C15.9709 18.091 14.0009 15.281 14.0009 12.001Z"/>
</g>
<defs>
<clipPath id="clip0_61_17436">
<rect transform="translate(0 0.000976562)"/>
</clipPath>
</defs>
</svg>
