<svg   viewBox="0 0 24 24" fill="none" xmlns="http://www.w3.org/2000/svg">
<g clip-path="url(#clip0_61_17444)">
<path d="M16.5 4.38086C17.6046 4.38086 18.5 3.48543 18.5 2.38086C18.5 1.27629 17.6046 0.380859 16.5 0.380859C15.3954 0.380859 14.5 1.27629 14.5 2.38086C14.5 3.48543 15.3954 4.38086 16.5 4.38086Z" fill="black"/>
<path d="M24.0006 10.8811V7.18109L19.0106 5.07109C18.0306 4.66109 16.8906 5.00109 16.3006 5.88109L15.3006 7.48109C14.6306 8.66109 13.3906 9.54109 11.8906 9.80109L11.9506 9.86109C12.6406 10.5511 13.4706 10.9311 14.4106 11.0311C15.2106 10.6111 15.9306 10.0511 16.5006 9.39109L17.1006 12.3911L15.9406 13.4911L15.0006 14.3811V15.1411V20.8811C15.0006 21.4311 15.4506 21.8811 16.0006 21.8811C16.5506 21.8811 17.0006 21.4311 17.0006 20.8811V15.8811L19.1006 13.8811L20.7206 21.0711C20.8306 21.5411 21.2506 21.8811 21.7406 21.8811C22.4006 21.8811 22.8906 21.2811 22.7606 20.6411L20.8206 10.8811L20.2006 7.78109L22.0006 8.48109V10.8811C22.0006 11.4311 22.4506 11.8811 23.0006 11.8811C23.5506 11.8811 24.0006 11.4311 24.0006 10.8811Z" fill="black"/>
<path d="M10.2944 8.09064C10.5144 8.24064 10.7644 8.33064 11.0144 8.38064C11.1444 8.40064 11.2644 8.42064 11.3944 8.42064C11.5244 8.42064 11.6544 8.41064 11.7744 8.38064C11.9044 8.36064 12.0244 8.32065 12.1444 8.27065C12.3844 8.17065 12.6144 8.03064 12.8044 7.83064C13.2944 7.34064 13.4744 6.66064 13.3544 6.03064C13.2844 5.66064 13.1044 5.29064 12.8044 5.00064C12.6144 4.81064 12.3844 4.66064 12.1444 4.56064C12.0244 4.51064 11.9044 4.47064 11.7744 4.45064C11.6444 4.43064 11.5244 4.41064 11.3944 4.41064C11.2744 4.41064 11.1644 4.42064 11.0444 4.44064C10.9044 4.46064 10.7644 4.50064 10.6344 4.55064C10.4044 4.66064 10.1744 4.81064 9.98436 5.00064C9.68436 5.29064 9.50436 5.66064 9.43436 6.03064C9.31436 6.66064 9.49436 7.34064 9.98436 7.83064C10.0744 7.93064 10.1844 8.01064 10.2944 8.09064Z" fill="black"/>
<path d="M11.2413 10.561L9.24125 8.56096C9.14125 8.46096 9.04125 8.38096 8.93125 8.30096C8.71125 8.16096 8.46125 8.06096 8.21125 8.02096C8.08125 7.99096 7.96125 7.98096 7.83125 7.98096C7.32125 7.98096 6.81125 8.18096 6.42125 8.57096L3.08125 11.911C2.67125 12.321 2.46125 12.891 2.50125 13.451C2.50125 13.631 2.54125 13.821 2.61125 14.001L3.68125 16.951L0.76125 19.871C0.37125 20.261 0.37125 20.891 0.76125 21.281C1.15125 21.671 1.78125 21.671 2.17125 21.281L5.71125 17.741V15.521L7.00125 16.751V20.881C7.00125 21.431 7.45125 21.881 8.00125 21.881C8.55125 21.881 9.00125 21.431 9.00125 20.881V15.881L6.88125 13.761L9.24125 11.401L9.95125 12.111C10.9713 13.111 12.2313 13.801 13.7413 14.051C14.3813 14.161 14.9512 13.601 14.9012 12.951C14.8712 12.471 14.5012 12.081 14.0312 12.011C12.9013 11.831 11.9713 11.291 11.2413 10.561Z" fill="black"/>
</g>
<defs>
<clipPath id="clip0_61_17444">
<rect width="24" height="24" fill="white" transform="translate(0 0.000976562)"/>
</clipPath>
</defs>
</svg>
