<svg viewBox="0 0 24 24" xmlns="http://www.w3.org/2000/svg">
<g clip-path="url(#clip0_61_17441)">
<path d="M12 16.001C15.87 16.001 19 12.871 19 9.00098C19 5.13098 15.87 2.00098 12 2.00098C8.13 2.00098 5 5.13098 5 9.00098C5 12.871 8.13 16.001 12 16.001ZM12 4.00098C14.76 4.00098 17 6.24098 17 9.00098C17 11.761 14.76 14.001 12 14.001C9.24 14.001 7 11.761 7 9.00098C7 6.24098 9.24 4.00098 12 4.00098Z"/>
<path d="M10 9.00098C10.5523 9.00098 11 8.55326 11 8.00098C11 7.44869 10.5523 7.00098 10 7.00098C9.44772 7.00098 9 7.44869 9 8.00098C9 8.55326 9.44772 9.00098 10 9.00098Z"/>
<path d="M14 9.00098C14.5523 9.00098 15 8.55326 15 8.00098C15 7.44869 14.5523 7.00098 14 7.00098C13.4477 7.00098 13 7.44869 13 8.00098C13 8.55326 13.4477 9.00098 14 9.00098Z"/>
<path d="M12 7.00098C12.5523 7.00098 13 6.55326 13 6.00098C13 5.44869 12.5523 5.00098 12 5.00098C11.4477 5.00098 11 5.44869 11 6.00098C11 6.55326 11.4477 7.00098 12 7.00098Z"/>
<path d="M16 17.001H8C7.45 17.001 7 17.451 7 18.001C7 18.551 7.45 19.001 8 19.001H9C10.1 19.001 11 19.901 11 21.001V22.001H13V21.001C13 19.901 13.9 19.001 15 19.001H16C16.55 19.001 17 18.551 17 18.001C17 17.451 16.55 17.001 16 17.001Z"/>
</g>
<defs>
<clipPath id="clip0_61_17441">
<rect transform="translate(0 0.000976562)"/>
</clipPath>
</defs>
</svg>
