<svg viewBox="0 0 24 24" xmlns="http://www.w3.org/2000/svg">
<g clip-path="url(#clip0_61_17446)">
<path d="M12.0006 11.3908C12.0006 10.7408 11.6106 10.1608 11.0206 9.91078L5.44062 7.55078C3.96062 9.23078 3.12062 11.2508 2.64062 13.0008H10.3906C11.2806 13.0008 12.0006 12.2808 12.0006 11.3908Z"/>
<path d="M21.96 11.2208C21.55 6.81084 17.4 3.73084 12.98 4.02084C10.47 4.18084 8.54 4.96084 7.05 6.06084L11.79 8.07084C13.12 8.64084 13.99 9.94084 13.99 11.3908C13.99 13.3808 12.37 15.0008 10.38 15.0008H2.21C2 16.3108 2 17.2008 2 17.2008V18.0008C2 19.1008 2.9 20.0008 4 20.0008H14C18.67 20.0008 22.41 15.9908 21.96 11.2208Z"/>
</g>
<defs>
<clipPath id="clip0_61_17446">
<rect transform="translate(0 0.000976562)"/>
</clipPath>
</defs>
</svg>
