<svg   viewBox="0 0 24 24" fill="none" xmlns="http://www.w3.org/2000/svg">
<g clip-path="url(#clip0_61_17440)">
<path d="M3.01814 15.6211C2.93814 18.0411 3.33814 19.9611 3.68814 20.3111C4.03814 20.6611 5.96814 21.0711 8.37814 20.9811L3.01814 15.6211Z" fill="black"/>
<path d="M13.0813 3.28076C10.7513 3.70076 8.29125 4.62076 6.46125 6.46076C4.63125 8.30076 3.70125 10.7508 3.28125 13.0808L10.9113 20.7108C13.2513 20.3008 15.7013 19.3708 17.5313 17.5308C19.3613 15.6908 20.2912 13.2408 20.7112 10.9108L13.0813 3.28076ZM14.8013 10.6008L10.6013 14.8008C10.2113 15.1908 9.59125 15.1908 9.20125 14.8008C8.81125 14.4108 8.81125 13.7908 9.20125 13.4008L13.4012 9.20076C13.7912 8.81076 14.4113 8.81076 14.8013 9.20076C15.1913 9.59076 15.1913 10.2108 14.8013 10.6008Z" fill="black"/>
<path d="M20.9772 8.38089C21.0572 5.96089 20.6572 4.04089 20.3072 3.69089C19.9572 3.34089 18.0272 2.93089 15.6172 3.02089L20.9772 8.38089Z" fill="black"/>
</g>
<defs>
<clipPath id="clip0_61_17440">
<rect width="24" height="24" fill="white" transform="translate(0 0.000976562)"/>
</clipPath>
</defs>
</svg>
