<svg   viewBox="0 0 24 24" fill="none" xmlns="http://www.w3.org/2000/svg">
<g clip-path="url(#clip0_61_17445)">
<path d="M7 20.001C7 20.551 7.45 21.001 8 21.001H16C16.55 21.001 17 20.551 17 20.001V17.001H7V20.001Z" fill="black"/>
<path d="M18 7.00098C17.45 7.00098 17 7.45098 17 8.00098V5.00098C17 3.90098 16.1 3.00098 15 3.00098H7C5.9 3.00098 5 3.90098 5 5.00098V10.801C5 10.931 5.01 11.061 5.04 11.191L5.84 15.191C5.93 15.661 6.34 15.991 6.82 15.991H17.18C17.63 15.991 18.07 15.631 18.16 15.191L18.96 11.191C18.99 11.061 19 10.931 19 10.801V8.00098C19 7.45098 18.55 7.00098 18 7.00098ZM14 10.001H8C7.45 10.001 7 9.55098 7 9.00098V8.00098C7 7.45098 7.45 7.00098 8 7.00098H14C14.55 7.00098 15 7.45098 15 8.00098V9.00098C15 9.55098 14.55 10.001 14 10.001Z" fill="black"/>
</g>
<defs>
<clipPath id="clip0_61_17445">
<rect width="24" height="24" fill="white" transform="translate(0 0.000976562)"/>
</clipPath>
</defs>
</svg>
