<svg   viewBox="0 0 24 24" fill="none" xmlns="http://www.w3.org/2000/svg">
<g clip-path="url(#clip0_61_17443)">
<path d="M2 17.001V20.001H4V16.001H3C2.45 16.001 2 16.451 2 17.001Z" fill="black"/>
<path d="M9 16.001H5V20.001L9.69 19.991C10.07 19.991 10.41 19.781 10.58 19.441L11.45 17.541L9.86 14.061L9 16.001Z" fill="black"/>
<path d="M21.71 16.291C21.53 16.111 21.28 16.001 21 16.001H20V20.001H22V17.001C22 16.721 21.89 16.471 21.71 16.291Z" fill="black"/>
<path d="M13.6016 12.841L17.6516 4.00098H14.3016L12.5416 7.97098L12.0516 9.07098L12.0016 9.21098L9.70156 4.00098H6.35156L10.4016 12.841L11.9216 16.161L12.0016 16.341L13.4216 19.441C13.5916 19.781 13.9316 19.991 14.3116 19.991L19.0016 20.001V16.001H15.0016L13.6016 12.841Z" fill="black"/>
</g>
<defs>
<clipPath id="clip0_61_17443">
<rect width="24" height="24" fill="white" transform="translate(0 0.000976562)"/>
</clipPath>
</defs>
</svg>
