<svg viewBox="0 0 24 24" xmlns="http://www.w3.org/2000/svg">
<g clip-path="url(#clip0_61_17450)">
<path d="M6 4.01074C3.58 5.84074 2 8.73074 2 12.0007C2 13.4607 2.32 14.8507 2.89 16.1107L6 14.3107V4.01074Z"/>
<path d="M11 11.4208V2.05078C9.94 2.16078 8.93 2.43078 8 2.84078V13.1608L11 11.4208Z"/>
<path d="M12.0006 13.1509L3.89062 17.8309C4.50063 18.6709 5.23063 19.4209 6.07063 20.0309L15.0006 14.8909L12.0006 13.1509Z"/>
<path d="M13 7.96094V11.4209L21.11 16.1009C21.53 15.1709 21.81 14.1709 21.93 13.1209L13 7.96094Z"/>
<path d="M8.07031 21.201C9.28031 21.711 10.6003 22.001 12.0003 22.001C15.3403 22.001 18.2903 20.351 20.1103 17.841L17.0003 16.041L8.07031 21.201Z"/>
<path d="M21.92 10.8108C21.37 6.18078 17.66 2.51078 13 2.05078V5.65078L21.92 10.8108Z"/>
</g>
<defs>
<clipPath id="clip0_61_17450">
<rect transform="translate(0 0.000976562)"/>
</clipPath>
</defs>
</svg>
