<svg viewBox="0 0 24 24" xmlns="http://www.w3.org/2000/svg">
<g clip-path="url(#clip0_61_17439)">
<path d="M21.5769 16.091L20.4869 8.43098C20.2069 6.46098 18.5169 5.00098 16.5269 5.00098H7.46689C5.47689 5.00098 3.78689 6.46098 3.50689 8.43098L2.41689 16.091C2.19689 17.631 3.38689 19.001 4.93689 19.001C5.61689 19.001 6.25689 18.731 6.73689 18.251L8.99689 16.001H14.9969L17.2469 18.251C17.7269 18.731 18.3769 19.001 19.0469 19.001C20.6069 19.001 21.7969 17.631 21.5769 16.091ZM10.9969 11.001H8.99689V13.001H7.99689V11.001H5.99689V10.001H7.99689V8.00098H8.99689V10.001H10.9969V11.001ZM14.9969 10.001C14.4469 10.001 13.9969 9.55098 13.9969 9.00098C13.9969 8.45098 14.4469 8.00098 14.9969 8.00098C15.5469 8.00098 15.9969 8.45098 15.9969 9.00098C15.9969 9.55098 15.5469 10.001 14.9969 10.001ZM16.9969 13.001C16.4469 13.001 15.9969 12.551 15.9969 12.001C15.9969 11.451 16.4469 11.001 16.9969 11.001C17.5469 11.001 17.9969 11.451 17.9969 12.001C17.9969 12.551 17.5469 13.001 16.9969 13.001Z"/>
</g>
<defs>
<clipPath id="clip0_61_17439">
<rect transform="translate(0 0.000976562)"/>
</clipPath>
</defs>
</svg>
