<svg viewBox="0 0 24 24" xmlns="http://www.w3.org/2000/svg">
<g clip-path="url(#clip0_61_17447)">
<path d="M20.4873 3.51102C19.9273 2.95102 18.3373 2.54102 16.3273 2.54102C13.2473 2.54102 9.17732 3.50102 6.34732 6.33102C1.65732 11.031 2.09732 19.071 3.50732 20.491C4.06732 21.051 5.65732 21.461 7.66732 21.461C10.7473 21.461 14.8173 20.501 17.6473 17.671C22.3373 12.971 21.8973 4.93102 20.4873 3.51102ZM7.75732 7.76102C10.3973 5.12102 14.1073 4.64102 15.7873 4.57102C13.7373 5.51102 11.3273 7.02102 9.17732 9.18102C7.01732 11.341 5.50732 13.761 4.56732 15.811C4.65732 13.331 5.43732 10.071 7.75732 7.76102ZM16.2373 16.241C13.5973 18.881 9.88732 19.361 8.20732 19.431C10.2573 18.491 12.6673 16.981 14.8173 14.821C16.9773 12.661 18.4873 10.241 19.4373 8.19102C19.3373 10.671 18.5573 13.931 16.2373 16.241Z"/>
</g>
<defs>
<clipPath id="clip0_61_17447">
<rect transform="translate(0 0.000976562)"/>
</clipPath>
</defs>
</svg>
