<svg   viewBox="0 0 24 24" fill="none" xmlns="http://www.w3.org/2000/svg">
<g clip-path="url(#clip0_61_17438)">
<path d="M15.0538 12.8108L6.56375 4.32082C6.17375 3.93082 5.54375 3.93082 5.15375 4.32082L2.32375 7.15082C1.93375 7.54082 1.93375 8.17082 2.32375 8.56082L10.8138 17.0508C11.2038 17.4408 11.8338 17.4408 12.2238 17.0508L15.0538 14.2208C15.4438 13.8308 15.4438 13.2008 15.0538 12.8108Z" fill="black"/>
<path d="M14.3438 17.7608L17.8738 21.2908C18.2638 21.6808 18.9038 21.6808 19.2938 21.2908C19.6838 20.9008 19.6838 20.2608 19.2938 19.8708L15.7638 16.3408L14.3438 17.7608Z" fill="black"/>
<path d="M18.5 9.00098C20.433 9.00098 22 7.43397 22 5.50098C22 3.56798 20.433 2.00098 18.5 2.00098C16.567 2.00098 15 3.56798 15 5.50098C15 7.43397 16.567 9.00098 18.5 9.00098Z" fill="black"/>
</g>
<defs>
<clipPath id="clip0_61_17438">
<rect width="24" height="24" fill="white" transform="translate(0 0.000976562)"/>
</clipPath>
</defs>
</svg>
