<svg viewBox="0 0 24 24" xmlns="http://www.w3.org/2000/svg">
<g clip-path="url(#clip0_61_17448)">
<path d="M12 2.00098C6.48 2.00098 2 6.48098 2 12.001C2 17.521 6.48 22.001 12 22.001C17.52 22.001 22 17.521 22 12.001C22 6.48098 17.52 2.00098 12 2.00098ZM13 5.30098L14.35 4.35098C16.17 4.91098 17.72 6.11098 18.73 7.69098L18.34 9.03098L16.99 9.49098L13 6.70098V5.30098ZM9.65 4.35098L11 5.30098V6.70098L7.01 9.49098L5.66 9.03098L5.27 7.69098C6.28 6.12098 7.83 4.92098 9.65 4.35098ZM7.08 17.111L5.94 17.211C4.73 15.811 4 13.991 4 12.001C4 11.881 4.01 11.771 4.02 11.651L5.02 10.921L6.4 11.401L7.86 15.741L7.08 17.111ZM14.5 19.591C13.71 19.851 12.87 20.001 12 20.001C11.13 20.001 10.29 19.851 9.5 19.591L8.81 18.101L9.45 17.001H14.56L15.2 18.111L14.5 19.591ZM14.27 15.001H9.73L8.38 10.981L12 8.44098L15.63 10.981L14.27 15.001ZM18.06 17.211L16.92 17.111L16.13 15.741L17.59 11.401L18.98 10.931L19.98 11.661C19.99 11.771 20 11.881 20 12.001C20 13.991 19.27 15.811 18.06 17.211Z"/>
</g>
<defs>
<clipPath id="clip0_61_17448">
<rect transform="translate(0 0.000976562)"/>
</clipPath>
</defs>
</svg>
