<svg   viewBox="0 0 24 24" fill="none" xmlns="http://www.w3.org/2000/svg">
<g clip-path="url(#clip0_61_17449)">
<path d="M19.5225 2.49118C17.1825 0.151178 12.9025 0.621178 9.9725 3.55118C8.3725 5.15118 7.4525 7.42118 7.4325 9.01118C7.4125 10.5912 7.6925 12.9012 6.0825 14.5112L2.5425 18.0412C2.1525 18.4312 2.1525 19.0612 2.5425 19.4612C2.9325 19.8512 3.5625 19.8512 3.9625 19.4612L7.4925 15.9212C9.1025 14.3112 11.4125 14.5912 12.9925 14.5712C14.5725 14.5512 16.8525 13.6312 18.4525 12.0312C21.3825 9.11118 21.8625 4.83118 19.5225 2.49118ZM10.3225 11.6812C8.7925 10.1512 9.2725 7.07118 11.3825 4.96118C13.4925 2.85118 16.5625 2.37118 18.1025 3.90118C19.6325 5.43118 19.1525 8.51118 17.0425 10.6212C14.9325 12.7312 11.8625 13.2112 10.3225 11.6812Z" fill="black"/>
<path d="M18 17.001C18.53 17.001 19.04 17.211 19.41 17.591C20.19 18.371 20.19 19.641 19.41 20.421C19.04 20.791 18.53 21.001 18 21.001C17.47 21.001 16.96 20.791 16.59 20.411C15.81 19.631 15.81 18.361 16.59 17.581C16.96 17.211 17.47 17.001 18 17.001ZM18 15.001C16.98 15.001 15.95 15.391 15.17 16.171C13.61 17.731 13.61 20.261 15.17 21.831C15.95 22.611 16.98 23.001 18 23.001C19.02 23.001 20.05 22.611 20.83 21.831C22.39 20.271 22.39 17.741 20.83 16.171C20.05 15.391 19.02 15.001 18 15.001Z" fill="black"/>
</g>
<defs>
<clipPath id="clip0_61_17449">
<rect width="24" height="24" fill="white" transform="translate(0 0.000976562)"/>
</clipPath>
</defs>
</svg>
