<svg   viewBox="0 0 24 24" fill="none" xmlns="http://www.w3.org/2000/svg">
<g clip-path="url(#clip0_61_17442)">
<path d="M14.2664 6.00124C13.7164 6.95124 14.0464 8.18124 14.9964 8.73124C15.9464 9.28124 17.1764 8.95124 17.7264 8.00124C18.2764 7.05124 17.9464 5.82124 16.9964 5.27124C16.0464 4.72124 14.8164 5.05124 14.2664 6.00124Z" fill="black"/>
<path d="M15.8402 10.4111C15.8402 10.4111 14.2102 9.47105 13.2402 8.91105C11.1102 7.67105 10.2302 5.08105 11.0602 2.84105C11.2302 2.38105 11.0502 1.87105 10.6302 1.63105C10.1002 1.33105 9.41022 1.56105 9.20022 2.13105C8.25022 4.64105 8.85022 7.48105 10.6602 9.40105L6.01022 17.4511C5.73022 17.9311 5.90022 18.5411 6.38022 18.8211C6.86022 19.1011 7.47022 18.9311 7.75022 18.4511L8.75022 16.7211L10.4802 17.7211L7.98022 22.0511C7.70022 22.5311 7.87022 23.1411 8.35022 23.4211C8.83022 23.7011 9.44022 23.5311 9.72022 23.0511L15.5102 13.0311C16.4902 14.3711 16.7702 16.1511 16.1702 17.7511C16.0002 18.2011 16.1902 18.7111 16.6002 18.9511C17.1302 19.2611 17.8202 19.0311 18.0402 18.4511C19.0102 15.8311 18.4502 12.6111 15.8402 10.4111Z" fill="black"/>
<path d="M12.7497 3.80112C13.4697 4.21112 14.3797 3.97112 14.7997 3.25112C15.2097 2.53112 14.9697 1.62112 14.2497 1.20112C13.5297 0.791119 12.6197 1.03112 12.1997 1.75112C11.7897 2.47112 12.0297 3.39112 12.7497 3.80112Z" fill="black"/>
</g>
<defs>
<clipPath id="clip0_61_17442">
<rect width="24" height="24" fill="white" transform="translate(0 0.000976562)"/>
</clipPath>
</defs>
</svg>
