<svg viewBox="0 0 24 24" xmlns="http://www.w3.org/2000/svg">
<g clip-path="url(#clip0_61_17451)">
<path d="M10.8809 21.941L16.4109 16.401C16.7809 16.031 16.9909 15.521 16.9909 14.991V5.00098C16.9909 3.90098 16.0909 3.00098 14.9909 3.00098H6.00088C5.20088 3.00098 4.48088 3.48098 4.17088 4.21098L0.910876 11.821C0.0608761 13.801 1.51088 16.001 3.66088 16.001H9.31088L8.36088 20.581C8.26088 21.081 8.41088 21.591 8.77088 21.951C9.36088 22.531 10.3009 22.531 10.8809 21.941V21.941ZM21.0009 3.00098C19.9009 3.00098 19.0009 3.90098 19.0009 5.00098V13.001C19.0009 14.101 19.9009 15.001 21.0009 15.001C22.1009 15.001 23.0009 14.101 23.0009 13.001V5.00098C23.0009 3.90098 22.1009 3.00098 21.0009 3.00098Z"/>
</g>
<defs>
<clipPath id="clip0_61_17451">
<rect transform="translate(0 0.000976562)"/>
</clipPath>
</defs>
</svg>
