<svg   viewBox="0 0 24 24" fill="none" xmlns="http://www.w3.org/2000/svg">
<g clip-path="url(#clip0_61_17453)">
<path d="M17.09 4.56081C16.39 3.53081 15.59 2.57081 14.69 1.71081C14.34 1.37081 13.75 1.69081 13.85 2.17081C14.04 3.11081 14.24 4.35081 14.24 5.46081C14.24 7.52081 12.89 9.19081 10.83 9.19081C9.29 9.19081 8.03 8.26081 7.48 6.93081C7.38 6.73081 7.34 6.61081 7.28 6.39081C7.17 5.97081 6.62 5.84081 6.38 6.21081C6.2 6.48081 6.03 6.75081 5.87 7.04081C4.68 9.08081 4 11.4608 4 14.0008C4 18.4208 7.58 22.0008 12 22.0008C16.42 22.0008 20 18.4208 20 14.0008C20 10.5108 18.92 7.27081 17.09 4.56081V4.56081ZM11.71 19.0008C9.93 19.0008 8.49 17.6008 8.49 15.8608C8.49 14.2408 9.54 13.1008 11.3 12.7408C12.77 12.4408 14.28 11.8108 15.33 10.8208C15.61 10.5608 16.07 10.6808 16.15 11.0508C16.38 12.0708 16.5 13.1308 16.5 14.2008C16.51 16.8508 14.36 19.0008 11.71 19.0008V19.0008Z" fill="black"/>
</g>
<defs>
<clipPath id="clip0_61_17453">
<rect width="24" height="24" fill="white" transform="translate(0 0.000976562)"/>
</clipPath>
</defs>
</svg>
