<svg   viewBox="0 0 24 24" fill="none" xmlns="http://www.w3.org/2000/svg">
<path fill-rule="evenodd" clip-rule="evenodd" d="M20.75 14L20.75 9.99997C20.75 9.8619 20.6381 9.74997 20.5 9.74997L19.1 9.74997C18.6858 9.74997 18.35 9.41418 18.35 8.99997L18.35 8.18964C18.35 7.7018 17.9747 7.29608 17.4883 7.25816L16.2198 7.15925C12.7452 6.88832 9.25478 6.88832 5.78018 7.15925L4.43258 7.26432C3.90974 7.30509 3.48189 7.69674 3.39518 8.21395C2.97497 10.7205 2.97497 13.2795 3.39518 15.786C3.48189 16.3032 3.90974 16.6948 4.43257 16.7356L5.78018 16.8407C9.25479 17.1116 12.7452 17.1116 16.2198 16.8407L17.4883 16.7418C17.9747 16.7039 18.35 16.2981 18.35 15.8103L18.35 15C18.35 14.5858 18.6858 14.25 19.1 14.25L20.5 14.25C20.6381 14.25 20.75 14.138 20.75 14ZM22.25 9.99997L22.25 14C22.25 14.9665 21.4665 15.75 20.5 15.75L19.85 15.75L19.85 15.8103C19.85 17.0813 18.8721 18.1384 17.6049 18.2372L16.3364 18.3361C12.7842 18.6131 9.2158 18.6131 5.66357 18.3361L4.31597 18.2311C3.10632 18.1368 2.11644 17.2306 1.91583 16.034C1.46809 13.3633 1.46809 10.6367 1.91583 7.96594C2.11644 6.76932 3.10633 5.86318 4.31597 5.76886L5.66357 5.66379C9.2158 5.38681 12.7842 5.38681 16.3364 5.66379L17.6049 5.7627C18.8721 5.8615 19.85 6.9186 19.85 8.18964L19.85 8.24997L20.5 8.24997C21.4665 8.24997 22.25 9.03347 22.25 9.99997Z" fill="black"/>
</svg>
