<svg   viewBox="0 0 24 24" fill="none" xmlns="http://www.w3.org/2000/svg">
<path fill-rule="evenodd" clip-rule="evenodd" d="M6.50724 8.82896C6.66079 8.97092 6.7481 9.17054 6.7481 9.37966L6.7481 14.6044C6.7481 14.8139 6.66046 15.0139 6.50642 15.1559C6.35237 15.2979 6.14595 15.369 5.93714 15.352L5.7016 15.3325C5.26381 15.2964 4.90049 14.9799 4.80431 14.5516C4.42586 12.8662 4.42572 11.1172 4.80419 9.43165C4.90066 9.00202 5.26575 8.68534 5.7047 8.65054M6.50724 8.82896C6.3537 8.687 5.91317 8.63417 5.7047 8.65054L6.50724 8.82896Z" fill="black"/>
<path fill-rule="evenodd" clip-rule="evenodd" d="M20.7481 14V9.99997C20.7481 9.8619 20.6362 9.74997 20.4981 9.74997H19.0981C18.6839 9.74997 18.3481 9.41418 18.3481 8.99997V8.18964C18.3481 7.7018 17.9728 7.29608 17.4864 7.25816L16.2179 7.15925C12.7433 6.88832 9.25289 6.88832 5.77828 7.15925L4.43068 7.26432C3.90784 7.30509 3.47999 7.69674 3.39328 8.21395C2.97307 10.7205 2.97307 13.2795 3.39328 15.786C3.47999 16.3032 3.90784 16.6948 4.43068 16.7356L5.77828 16.8407C9.25289 17.1116 12.7433 17.1116 16.2179 16.8407L17.4864 16.7418C17.9728 16.7039 18.3481 16.2981 18.3481 15.8103V15C18.3481 14.5858 18.6839 14.25 19.0981 14.25H20.4981C20.6362 14.25 20.7481 14.138 20.7481 14ZM22.2481 9.99997V14C22.2481 14.9665 21.4646 15.75 20.4981 15.75H19.8481V15.8103C19.8481 17.0813 18.8702 18.1384 17.603 18.2372L16.3345 18.3361C12.7823 18.6131 9.2139 18.6131 5.66167 18.3361L4.31407 18.2311C3.10443 18.1368 2.11454 17.2306 1.91393 16.034C1.46619 13.3633 1.46619 10.6367 1.91393 7.96594C2.11454 6.76932 3.10443 5.86318 4.31407 5.76886L5.66167 5.66379C9.2139 5.38681 12.7823 5.38681 16.3345 5.66379L17.603 5.7627C18.8702 5.8615 19.8481 6.9186 19.8481 8.18964V8.24997H20.4981C21.4646 8.24997 22.2481 9.03347 22.2481 9.99997Z" fill="black"/>
</svg>
