<svg   viewBox="0 0 24 24" fill="none" xmlns="http://www.w3.org/2000/svg">
<path d="M10.7876 9.1965C10.7876 8.996 10.7073 8.80384 10.5647 8.66293C10.422 8.52203 10.2289 8.4441 10.0284 8.44656C8.64888 8.46347 7.26979 8.52648 5.89344 8.63559L5.70471 8.65055C5.26576 8.68534 4.90067 9.00202 4.8042 9.43165C4.42573 11.1172 4.42586 12.8662 4.80432 14.5516C4.9005 14.9799 5.26381 15.2964 5.7016 15.3325L5.87588 15.3469C7.25779 15.461 8.64268 15.5269 10.028 15.5445C10.2286 15.5471 10.4218 15.4692 10.5645 15.3283C10.7073 15.1874 10.7876 14.9952 10.7876 14.7946V9.1965Z" fill="black"/>
<path fill-rule="evenodd" clip-rule="evenodd" d="M22.2481 14V9.99997C22.2481 9.03347 21.4646 8.24997 20.4981 8.24997H19.8481V8.18964C19.8481 6.9186 18.8702 5.8615 17.603 5.7627L16.3345 5.66379C12.7823 5.38681 9.2139 5.38681 5.66167 5.66379L4.31407 5.76886C3.10443 5.86318 2.11454 6.76932 1.91393 7.96594C1.46619 10.6367 1.46619 13.3633 1.91393 16.034C2.11454 17.2306 3.10443 18.1368 4.31407 18.2311L5.66167 18.3361C9.2139 18.6131 12.7823 18.6131 16.3345 18.3361L17.603 18.2372C18.8702 18.1384 19.8481 17.0813 19.8481 15.8103V15.75H20.4981C21.4646 15.75 22.2481 14.9665 22.2481 14ZM20.7481 9.99997V14C20.7481 14.138 20.6362 14.25 20.4981 14.25L19.0981 14.25C18.6839 14.25 18.3481 14.5858 18.3481 15V15.8103C18.3481 16.2981 17.9728 16.7039 17.4864 16.7418L16.2179 16.8407C12.7433 17.1116 9.25289 17.1116 5.77828 16.8407L4.43068 16.7356C3.90784 16.6948 3.47999 16.3032 3.39328 15.786C2.97307 13.2795 2.97307 10.7205 3.39328 8.21395C3.47999 7.69674 3.90784 7.30509 4.43068 7.26432L5.77828 7.15925C9.25289 6.88832 12.7433 6.88832 16.2179 7.15925L17.4864 7.25816C17.9728 7.29608 18.3481 7.7018 18.3481 8.18964V8.99997C18.3481 9.41418 18.6839 9.74997 19.0981 9.74997H20.4981C20.6362 9.74997 20.7481 9.8619 20.7481 9.99997Z" fill="black"/>
</svg>
