<svg viewBox="0 0 24 24" xmlns="http://www.w3.org/2000/svg">
<path fill-rule="evenodd" clip-rule="evenodd" d="M8.24808 13C8.24808 10.9289 9.92701 9.25 11.9981 9.25C14.0691 9.25 15.7481 10.9289 15.7481 13C15.7481 15.0711 14.0691 16.75 11.9981 16.75C9.92701 16.75 8.24808 15.0711 8.24808 13ZM11.9981 10.75C10.7554 10.75 9.74808 11.7574 9.74808 13C9.74808 14.2426 10.7554 15.25 11.9981 15.25C13.2407 15.25 14.2481 14.2426 14.2481 13C14.2481 11.7574 13.2407 10.75 11.9981 10.75Z"/>
<path fill-rule="evenodd" clip-rule="evenodd" d="M10.6142 5.75C9.56904 5.75 8.72177 6.59728 8.72177 7.64245C8.72177 8.30841 8.21054 8.86283 7.54677 8.91674L5.31717 9.09782C4.8794 9.13337 4.51937 9.45709 4.43766 9.88864C3.98891 12.2586 3.95545 14.6886 4.33877 17.0701L4.43602 17.6743C4.52786 18.2449 4.9975 18.679 5.57355 18.7258L7.51588 18.8835C10.4991 19.1258 13.4971 19.1258 16.4803 18.8835L18.4226 18.7258C18.9987 18.679 19.4683 18.2449 19.5601 17.6743L19.6574 17.0701C20.0407 14.6886 20.0072 12.2586 19.5585 9.88864C19.4768 9.45709 19.1168 9.13337 18.679 9.09782L16.4494 8.91674C15.7856 8.86284 15.2744 8.30841 15.2744 7.64245C15.2744 6.59728 14.4271 5.75 13.3819 5.75H10.6142ZM7.22784 7.4377C7.3337 5.65944 8.80936 4.25 10.6142 4.25H13.3819C15.1868 4.25 16.6625 5.65944 16.7683 7.4377L18.8004 7.60274C19.9113 7.69296 20.825 8.51446 21.0323 9.60958C21.5134 12.1503 21.5493 14.7554 21.1383 17.3084L21.0411 17.9126C20.8395 19.1652 19.8086 20.1182 18.544 20.2209L16.6017 20.3786C13.5377 20.6274 10.4585 20.6274 7.39446 20.3786L5.45213 20.2209C4.18761 20.1182 3.15669 19.1652 2.95508 17.9126L2.85783 17.3084C2.4469 14.7554 2.48277 12.1503 2.96384 9.60958C3.1712 8.51446 4.08483 7.69296 5.19575 7.60274L7.22784 7.4377Z"/>
</svg>
