<svg viewBox="0 0 24 24" xmlns="http://www.w3.org/2000/svg">
<path fill-rule="evenodd" clip-rule="evenodd" d="M11.9989 3.74976L19.2726 3.95541C20.5578 3.99175 21.6208 4.9674 21.767 6.2448C22.0905 9.07241 22.0905 11.9277 21.767 14.7553C21.6208 16.0327 20.5578 17.0084 19.2726 17.0447L13.749 17.2009V19.2501H16.999C17.4132 19.2501 17.749 19.5858 17.749 20.0001C17.749 20.4143 17.4132 20.7501 16.999 20.7501H6.99896C6.58475 20.7501 6.24896 20.4143 6.24896 20.0001C6.24896 19.5858 6.58475 19.2501 6.99896 19.2501H10.249V17.2009L4.72532 17.0447C3.4401 17.0084 2.37708 16.0327 2.23093 14.7553C1.9074 11.9277 1.9074 9.07241 2.23093 6.2448C2.37708 4.9674 3.4401 3.99175 4.72532 3.95541L11.9989 3.74976ZM11.9989 5.25036L4.76771 5.45481C4.22851 5.47006 3.78252 5.87939 3.7212 6.41531C3.41064 9.12962 3.41064 11.8705 3.7212 14.5848C3.78252 15.1207 4.2285 15.5301 4.76771 15.5453L11.9989 15.7498L19.2302 15.5453C19.7694 15.5301 20.2154 15.1207 20.2767 14.5848C20.5873 11.8705 20.5873 9.12962 20.2767 6.41531C20.2154 5.87939 19.7694 5.47006 19.2302 5.45481L11.9989 5.25036Z"/>
</svg>
