<svg viewBox="0 0 24 24" xmlns="http://www.w3.org/2000/svg">
<path fill-rule="evenodd" clip-rule="evenodd" d="M6.94526 1.351C6.32136 1.28127 5.67757 1.28127 5.05367 1.351C4.43418 1.42024 3.9306 1.90749 3.85683 2.53827C3.7821 3.17722 3.7821 3.82271 3.85683 4.46167C3.93061 5.09244 4.43418 5.57969 5.05367 5.64893C5.67757 5.71866 6.32136 5.71866 6.94526 5.64893C7.56475 5.57969 8.06832 5.09244 8.1421 4.46167C8.21683 3.82271 8.21683 3.17722 8.1421 2.53827C8.06832 1.90749 7.56475 1.42024 6.94526 1.351ZM5.33397 4.16995C5.28972 3.72439 5.28972 3.27554 5.33397 2.82998C5.77374 2.78828 6.22519 2.78828 6.66495 2.82998C6.70921 3.27554 6.70921 3.72439 6.66495 4.16995C6.22519 4.21165 5.77374 4.21165 5.33397 4.16995Z"/>
<path fill-rule="evenodd" clip-rule="evenodd" d="M12.9453 1.351C12.3214 1.28127 11.6776 1.28127 11.0537 1.351C10.4342 1.42024 9.9306 1.90749 9.85683 2.53827C9.7821 3.17722 9.7821 3.82271 9.85683 4.46167C9.9306 5.09244 10.4342 5.57969 11.0537 5.64893C11.6776 5.71866 12.3214 5.71866 12.9453 5.64893C13.5647 5.57969 14.0683 5.09244 14.1421 4.46167C14.2168 3.82271 14.2168 3.17722 14.1421 2.53827C14.0683 1.90749 13.5647 1.42024 12.9453 1.351ZM11.334 4.16995C11.2897 3.72439 11.2897 3.27554 11.334 2.82998C11.7737 2.78828 12.2252 2.78828 12.665 2.82998C12.7092 3.27554 12.7092 3.72439 12.665 4.16995C12.2252 4.21165 11.7737 4.21165 11.334 4.16995Z"/>
<path fill-rule="evenodd" clip-rule="evenodd" d="M17.0537 1.351C17.6776 1.28127 18.3214 1.28127 18.9453 1.351C19.5647 1.42024 20.0683 1.90749 20.1421 2.53827C20.2168 3.17722 20.2168 3.82271 20.1421 4.46167C20.0683 5.09244 19.5647 5.57969 18.9453 5.64893C18.3214 5.71866 17.6776 5.71866 17.0537 5.64893C16.4342 5.57969 15.9306 5.09244 15.8568 4.46167C15.7821 3.82271 15.7821 3.17722 15.8568 2.53827C15.9306 1.90749 16.4342 1.42024 17.0537 1.351ZM17.334 2.82998C17.2897 3.27554 17.2897 3.72439 17.334 4.16995C17.7737 4.21165 18.2252 4.21165 18.665 4.16995C18.7092 3.72439 18.7092 3.27554 18.665 2.82998C18.2252 2.78828 17.7737 2.78828 17.334 2.82998Z"/>
<path fill-rule="evenodd" clip-rule="evenodd" d="M6.94526 6.851C6.32136 6.78127 5.67757 6.78127 5.05367 6.851C4.43418 6.92024 3.9306 7.40749 3.85683 8.03827C3.7821 8.67722 3.7821 9.32271 3.85683 9.96167C3.93061 10.5924 4.43418 11.0797 5.05367 11.1489C5.67757 11.2187 6.32136 11.2187 6.94526 11.1489C7.56475 11.0797 8.06832 10.5924 8.1421 9.96167C8.21683 9.32271 8.21683 8.67722 8.1421 8.03827C8.06832 7.40749 7.56475 6.92024 6.94526 6.851ZM5.33397 9.66995C5.28972 9.22439 5.28972 8.77554 5.33397 8.32998C5.77374 8.28828 6.22519 8.28828 6.66495 8.32998C6.70921 8.77554 6.70921 9.22439 6.66495 9.66995C6.22519 9.71165 5.77374 9.71165 5.33397 9.66995Z"/>
<path fill-rule="evenodd" clip-rule="evenodd" d="M11.0537 6.851C11.6776 6.78127 12.3214 6.78127 12.9453 6.851C13.5647 6.92024 14.0683 7.40749 14.1421 8.03827C14.2168 8.67722 14.2168 9.32271 14.1421 9.96167C14.0683 10.5924 13.5647 11.0797 12.9453 11.1489C12.3214 11.2187 11.6776 11.2187 11.0537 11.1489C10.4342 11.0797 9.9306 10.5924 9.85683 9.96167C9.7821 9.32271 9.7821 8.67722 9.85683 8.03827C9.9306 7.40749 10.4342 6.92024 11.0537 6.851ZM11.334 8.32998C11.2897 8.77554 11.2897 9.22439 11.334 9.66995C11.7737 9.71165 12.2252 9.71165 12.665 9.66995C12.7092 9.22439 12.7092 8.77554 12.665 8.32998C12.2252 8.28828 11.7737 8.28828 11.334 8.32998Z"/>
<path fill-rule="evenodd" clip-rule="evenodd" d="M18.9453 6.851C18.3214 6.78127 17.6776 6.78127 17.0537 6.851C16.4342 6.92024 15.9306 7.40749 15.8568 8.03827C15.7821 8.67722 15.7821 9.32271 15.8568 9.96167C15.9306 10.5924 16.4342 11.0797 17.0537 11.1489C17.6776 11.2187 18.3214 11.2187 18.9453 11.1489C19.5647 11.0797 20.0683 10.5924 20.1421 9.96167C20.2168 9.32271 20.2168 8.67722 20.1421 8.03827C20.0683 7.40749 19.5647 6.92024 18.9453 6.851ZM17.334 9.66995C17.2897 9.22439 17.2897 8.77554 17.334 8.32998C17.7737 8.28828 18.2252 8.28828 18.665 8.32998C18.7092 8.77554 18.7092 9.22439 18.665 9.66995C18.2252 9.71165 17.7737 9.71165 17.334 9.66995Z"/>
<path fill-rule="evenodd" clip-rule="evenodd" d="M5.05367 12.351C5.67757 12.2813 6.32136 12.2813 6.94526 12.351C7.56475 12.4202 8.06832 12.9075 8.1421 13.5383C8.21683 14.1772 8.21683 14.8227 8.1421 15.4617C8.06832 16.0924 7.56475 16.5797 6.94526 16.6489C6.32136 16.7187 5.67757 16.7187 5.05367 16.6489C4.43418 16.5797 3.93061 16.0924 3.85683 15.4617C3.7821 14.8227 3.7821 14.1772 3.85683 13.5383C3.9306 12.9075 4.43418 12.4202 5.05367 12.351ZM5.33397 13.83C5.28972 14.2755 5.28972 14.7244 5.33397 15.17C5.77374 15.2117 6.22519 15.2117 6.66495 15.17C6.70921 14.7244 6.70921 14.2755 6.66495 13.83C6.22519 13.7883 5.77374 13.7883 5.33397 13.83Z"/>
<path fill-rule="evenodd" clip-rule="evenodd" d="M12.9453 12.351C12.3214 12.2813 11.6776 12.2813 11.0537 12.351C10.4342 12.4202 9.9306 12.9075 9.85683 13.5383C9.7821 14.1772 9.7821 14.8227 9.85683 15.4617C9.9306 16.0924 10.4342 16.5797 11.0537 16.6489C11.6776 16.7187 12.3214 16.7187 12.9453 16.6489C13.5647 16.5797 14.0683 16.0924 14.1421 15.4617C14.2168 14.8227 14.2168 14.1772 14.1421 13.5383C14.0683 12.9075 13.5647 12.4202 12.9453 12.351ZM11.334 15.17C11.2897 14.7244 11.2897 14.2755 11.334 13.83C11.7737 13.7883 12.2252 13.7883 12.665 13.83C12.7092 14.2755 12.7092 14.7244 12.665 15.17C12.2252 15.2117 11.7737 15.2117 11.334 15.17Z"/>
<path fill-rule="evenodd" clip-rule="evenodd" d="M11.0537 17.851C11.6776 17.7813 12.3214 17.7813 12.9453 17.851C13.5647 17.9202 14.0683 18.4075 14.1421 19.0383C14.2168 19.6772 14.2168 20.3227 14.1421 20.9617C14.0683 21.5924 13.5647 22.0797 12.9453 22.1489C12.3214 22.2187 11.6776 22.2187 11.0537 22.1489C10.4342 22.0797 9.9306 21.5924 9.85683 20.9617C9.7821 20.3227 9.7821 19.6772 9.85683 19.0383C9.9306 18.4075 10.4342 17.9202 11.0537 17.851ZM11.334 19.33C11.2897 19.7755 11.2897 20.2244 11.334 20.67C11.7737 20.7117 12.2252 20.7117 12.665 20.67C12.7092 20.2244 12.7092 19.7755 12.665 19.33C12.2252 19.2883 11.7737 19.2883 11.334 19.33Z"/>
<path fill-rule="evenodd" clip-rule="evenodd" d="M18.9453 12.351C18.3214 12.2813 17.6776 12.2813 17.0537 12.351C16.4342 12.4202 15.9306 12.9075 15.8568 13.5383C15.7821 14.1772 15.7821 14.8227 15.8568 15.4617C15.9306 16.0924 16.4342 16.5797 17.0537 16.6489C17.6776 16.7187 18.3214 16.7187 18.9453 16.6489C19.5647 16.5797 20.0683 16.0924 20.1421 15.4617C20.2168 14.8227 20.2168 14.1772 20.1421 13.5383C20.0683 12.9075 19.5647 12.4202 18.9453 12.351ZM17.334 15.17C17.2897 14.7244 17.2897 14.2755 17.334 13.83C17.7737 13.7883 18.2252 13.7883 18.665 13.83C18.7092 14.2755 18.7092 14.7244 18.665 15.17C18.2252 15.2117 17.7737 15.2117 17.334 15.17Z"/>
</svg>
