<svg viewBox="0 0 24 24" xmlns="http://www.w3.org/2000/svg">
<path d="M7.99867 7.25C8.41289 7.25 8.74867 7.58579 8.74867 8V9.25H9.99867C10.4129 9.25 10.7487 9.58579 10.7487 10C10.7487 10.4142 10.4129 10.75 9.99867 10.75H8.74867V12C8.74867 12.4142 8.41289 12.75 7.99867 12.75C7.58446 12.75 7.24867 12.4142 7.24867 12V10.75H5.99867C5.58446 10.75 5.24867 10.4142 5.24867 10C5.24867 9.58579 5.58446 9.25 5.99867 9.25H7.24867V8C7.24867 7.58579 7.58446 7.25 7.99867 7.25Z"/>
<path d="M16.9987 11.75C16.9987 11.1977 16.551 10.75 15.9987 10.75C15.4464 10.75 14.9987 11.1977 14.9987 11.75V12C14.9987 12.5523 15.4464 13 15.9987 13C16.551 13 16.9987 12.5523 16.9987 12V11.75Z"/>
<path d="M15.9987 7C16.551 7 16.9987 7.44772 16.9987 8V8.25C16.9987 8.80228 16.551 9.25 15.9987 9.25C15.4464 9.25 14.9987 8.80228 14.9987 8.25V8C14.9987 7.44772 15.4464 7 15.9987 7Z"/>
<path d="M18.9987 10C18.9987 10.5523 18.551 11 17.9987 11H17.7487C17.1964 11 16.7487 10.5523 16.7487 10C16.7487 9.44771 17.1964 9 17.7487 9H17.9987C18.551 9 18.9987 9.44772 18.9987 10Z"/>
<path d="M14.2487 11C14.801 11 15.2487 10.5523 15.2487 10C15.2487 9.44772 14.801 9 14.2487 9H13.9987C13.4464 9 12.9987 9.44771 12.9987 10C12.9987 10.5523 13.4464 11 13.9987 11H14.2487Z"/>
<path fill-rule="evenodd" clip-rule="evenodd" d="M12.7487 3C12.7487 2.58579 12.4129 2.25 11.9987 2.25C11.5845 2.25 11.2487 2.58579 11.2487 3V4.48688C9.80957 4.50654 8.37105 4.58282 6.93645 4.71571L6.60485 4.74642C4.21314 4.96797 2.37146 6.95407 2.33076 9.35566L2.31867 10.0691C2.27136 12.8602 2.49634 15.6492 2.99042 18.3967C3.23538 19.7588 4.42071 20.75 5.80472 20.75H6.02577C7.26113 20.75 8.38044 20.022 8.8813 18.8927L9.9419 16.5014C10.733 14.7177 13.2643 14.7177 14.0555 16.5014L15.1161 18.8927C15.6169 20.022 16.7362 20.75 17.9716 20.75H18.1926C19.5766 20.75 20.762 19.7588 21.0069 18.3967C21.501 15.6492 21.726 12.8602 21.6787 10.0691L21.6666 9.35566C21.6259 6.95406 19.7842 4.96797 17.3925 4.74643L17.0609 4.71571C15.6263 4.58282 14.1878 4.50654 12.7487 4.48688V3ZM7.0748 6.20931C10.3504 5.9059 13.647 5.9059 16.9225 6.20931L17.2542 6.24003C18.884 6.39101 20.1391 7.74447 20.1668 9.38108L20.1789 10.0945C20.2246 12.7881 20.0074 15.4797 19.5306 18.1312C19.4142 18.7788 18.8506 19.25 18.1926 19.25H17.9716C17.3294 19.25 16.7476 18.8716 16.4872 18.2846L15.4266 15.8933C14.1081 12.9205 9.88924 12.9205 8.57071 15.8933L7.51012 18.2846C7.24976 18.8716 6.66792 19.25 6.02577 19.25H5.80472C5.14673 19.25 4.58319 18.7788 4.46673 18.1312C3.98992 15.4797 3.7728 12.7881 3.81845 10.0945L3.83054 9.38108C3.85828 7.74447 5.11333 6.39101 6.7432 6.24003L7.0748 6.20931Z"/>
</svg>
