<svg viewBox="0 0 24 24" xmlns="http://www.w3.org/2000/svg">
<path fill-rule="evenodd" clip-rule="evenodd" d="M18.7505 10.5L18.744 10.7429L18.7505 11L18.7444 11.2433L18.7505 11.5L18.7446 11.7449L18.7505 12L18.5881 19.103C18.5496 20.7883 17.2678 22.184 15.5919 22.3655C13.2045 22.624 10.7961 22.624 8.40868 22.3655C6.73276 22.184 5.451 20.7883 5.41247 19.103L5.25009 12L5.25596 11.7432L5.25011 11.5L5.25626 11.2443L5.25006 11L5.25656 10.744L5.25 10.5L5.41401 4.40211C5.41629 4.31703 5.42227 4.23283 5.43179 4.14968L5.43552 4.11452L5.43848 4.08618C5.51909 3.26208 5.97577 2.54332 6.6413 2.11199C6.69095 2.07897 6.74177 2.04752 6.79368 2.01772C6.84446 1.98767 6.8963 1.95917 6.94912 1.93228C7.27571 1.75992 7.64021 1.6482 8.02821 1.61248C10.6707 1.36924 13.3299 1.36924 15.9723 1.61248C16.3597 1.64814 16.7237 1.75956 17.0499 1.93146C17.1027 1.95831 17.1545 1.98677 17.2053 2.01678C17.2589 2.04747 17.3113 2.07992 17.3624 2.11403C18.0244 2.5444 18.4791 3.25943 18.5614 4.07938L18.5692 4.15368C18.5785 4.23553 18.5843 4.31839 18.5865 4.40211L18.7505 10.5ZM17.0745 4.32073L17.2315 11.1874L17.1043 15.9176C17.0757 16.981 16.2566 17.8551 15.1973 17.9526C13.0704 18.1483 10.9301 18.1483 8.80322 17.9526C7.74395 17.8551 6.92485 16.981 6.89625 15.9176L6.76905 11.188L6.92604 4.32073C6.92638 4.30595 6.92699 4.29124 6.92788 4.2766C6.98736 3.87432 7.22049 3.52708 7.55104 3.31621C7.67626 3.25093 7.8152 3.20764 7.963 3.19164C10.6467 2.90101 13.3539 2.90101 16.0376 3.19164C16.1853 3.20764 16.3242 3.2509 16.4494 3.31613C16.7801 3.52705 17.0133 3.87446 17.0727 4.27693C17.0736 4.29147 17.0742 4.30606 17.0745 4.32073ZM12.0003 21.7C12.8287 21.7 13.5003 21.0285 13.5003 20.2C13.5003 19.3716 12.8287 18.7 12.0003 18.7C11.1719 18.7 10.5003 19.3716 10.5003 20.2C10.5003 21.0285 11.1719 21.7 12.0003 21.7Z"/>
</svg>
