<svg viewBox="0 0 24 24" xmlns="http://www.w3.org/2000/svg">
<path fill-rule="evenodd" clip-rule="evenodd" d="M13.0527 2.40694C16.3336 2.92497 18.75 5.75284 18.75 9.07434L18.75 14.9257C18.75 18.2472 16.3336 21.075 13.0527 21.5931C12.3552 21.7032 11.6448 21.7032 10.9473 21.5931C7.6664 21.075 5.25 18.2472 5.25 14.9257V9.07434C5.25 5.75284 7.6664 2.92497 10.9473 2.40694C11.6448 2.29681 12.3552 2.29681 13.0527 2.40694ZM17.25 9.07434C17.25 6.49095 15.3706 4.2915 12.8188 3.88859C12.7959 3.88497 12.773 3.8815 12.75 3.87819L12.75 9.25002H17.25V9.07434ZM11.25 9.25002H6.75V9.07434C6.75 6.49095 8.62943 4.2915 11.1812 3.88859C11.2041 3.88497 11.227 3.8815 11.25 3.87819L11.25 9.25002ZM6.75 14.9257L6.75 10.75H17.25L17.25 14.9257C17.25 17.5091 15.3706 19.7085 12.8188 20.1114C12.2763 20.1971 11.7237 20.1971 11.1812 20.1114C8.62942 19.7085 6.75 17.5091 6.75 14.9257Z"/>
</svg>
