<svg viewBox="0 0 24 24" xmlns="http://www.w3.org/2000/svg">
<path d="M17.7496 11C17.0592 11 16.4996 11.5596 16.4996 12.25C16.4996 12.9403 17.0592 13.5 17.7496 13.5C18.4399 13.5 18.9996 12.9403 18.9996 12.25C18.9996 11.5596 18.4399 11 17.7496 11Z"/>
<path fill-rule="evenodd" clip-rule="evenodd" d="M4.17271 8.11529L6.24957 7.88446V3.91299C6.24957 3.2697 6.73963 2.73233 7.38019 2.6732C10.4532 2.38953 13.5459 2.38953 16.619 2.6732C17.2595 2.73233 17.7496 3.2697 17.7496 3.91299V7.88445L19.8265 8.11529C20.5928 8.20047 21.225 8.75389 21.4108 9.5022C21.9766 11.781 21.9766 14.1637 21.4108 16.4425L21.2275 17.1807C21.1445 17.5152 20.8442 17.75 20.4996 17.75H17.7496V20.083C17.7496 20.705 17.2782 21.2259 16.6593 21.2877C13.5605 21.5976 10.4386 21.5976 7.33989 21.2877C6.72093 21.2259 6.24957 20.705 6.24957 20.083V17.75H3.4996C3.155 17.75 2.85474 17.5152 2.7717 17.1807L2.58841 16.4425C2.02261 14.1637 2.02261 11.781 2.58841 9.5022C2.77421 8.75389 3.4064 8.20047 4.17271 8.11529ZM16.2496 7.73954C13.421 7.5076 10.5782 7.5076 7.74957 7.73954V4.14604C10.5775 3.89859 13.4216 3.89859 16.2496 4.14604V7.73954ZM16.2496 16.5016C16.2477 16.3437 16.1465 16.2077 16.0029 16.1569C13.3393 15.9208 10.66 15.9208 7.99632 16.1569C7.85135 16.2081 7.7496 16.3462 7.7496 16.506V17L7.74957 17.0063V19.8205C10.5767 20.0867 13.4225 20.0867 16.2496 19.8205V16.5016ZM19.913 16.25H17.7496V15.917C17.7496 15.2949 17.2782 14.7741 16.6593 14.7122C16.5238 14.6987 16.3884 14.6857 16.2529 14.6734C16.1961 14.6618 16.1383 14.6528 16.0797 14.6465C13.3675 14.3543 10.6317 14.3543 7.91949 14.6465C7.86087 14.6528 7.80311 14.6618 7.74635 14.6733C7.61082 14.6857 7.47533 14.6987 7.33989 14.7122C6.72093 14.7741 6.24957 15.2949 6.24957 15.917V16.25H4.08616L4.04421 16.081C3.53735 14.0396 3.53735 11.9051 4.04421 9.86366C4.07871 9.7247 4.19611 9.62193 4.33841 9.60611L6.42074 9.37467C10.1286 8.96255 13.8706 8.96255 17.5785 9.37467L19.6608 9.60611C19.8031 9.62193 19.9205 9.7247 19.955 9.86366C20.4619 11.9051 20.4619 14.0396 19.955 16.081L19.913 16.25Z"/>
</svg>
