<svg   viewBox="0 0 24 24" fill="none" xmlns="http://www.w3.org/2000/svg">
<path d="M6.00186 7.5C6.00186 6.94772 6.44958 6.5 7.00186 6.5C7.55415 6.5 8.00186 6.94772 8.00186 7.5C8.00186 8.05228 7.55415 8.5 7.00186 8.5C6.44958 8.5 6.00186 8.05228 6.00186 7.5Z" fill="black"/>
<path d="M9.00186 7.5C9.00186 6.94772 9.44958 6.5 10.0019 6.5C10.5541 6.5 11.0019 6.94772 11.0019 7.5C11.0019 8.05228 10.5541 8.5 10.0019 8.5C9.44958 8.5 9.00186 8.05228 9.00186 7.5Z" fill="black"/>
<path d="M7.00186 13.5C6.44958 13.5 6.00186 13.9477 6.00186 14.5C6.00186 15.0523 6.44958 15.5 7.00186 15.5C7.55415 15.5 8.00186 15.0523 8.00186 14.5C8.00186 13.9477 7.55415 13.5 7.00186 13.5Z" fill="black"/>
<path d="M10.0019 13.5C9.44958 13.5 9.00186 13.9477 9.00186 14.5C9.00186 15.0523 9.44958 15.5 10.0019 15.5C10.5541 15.5 11.0019 15.0523 11.0019 14.5C11.0019 13.9477 10.5541 13.5 10.0019 13.5Z" fill="black"/>
<path fill-rule="evenodd" clip-rule="evenodd" d="M5.94922 3.25C4.43044 3.25 3.19922 4.48122 3.19922 6V9C3.19922 9.78801 3.53066 10.4986 4.06175 11C3.53066 11.5014 3.19922 12.212 3.19922 13V16C3.19922 17.5188 4.43044 18.75 5.94922 18.75H11.2519V20.25H5.00186C4.58765 20.25 4.25186 20.5858 4.25186 21C4.25186 21.4142 4.58765 21.75 5.00186 21.75H19.0019C19.4161 21.75 19.7519 21.4142 19.7519 21C19.7519 20.5858 19.4161 20.25 19.0019 20.25H12.7519V18.75H17.9492C19.468 18.75 20.6992 17.5188 20.6992 16V13C20.6992 12.212 20.3678 11.5014 19.8367 11C20.3678 10.4986 20.6992 9.78802 20.6992 9V6C20.6992 4.48122 19.468 3.25 17.9492 3.25H5.94922ZM5.94922 10.25H17.9492C18.6396 10.25 19.1992 9.69036 19.1992 9V6C19.1992 5.30964 18.6396 4.75 17.9492 4.75H5.94922C5.25886 4.75 4.69922 5.30964 4.69922 6V9C4.69922 9.69036 5.25886 10.25 5.94922 10.25ZM5.94922 11.75C5.25886 11.75 4.69922 12.3096 4.69922 13V16C4.69922 16.6904 5.25886 17.25 5.94922 17.25H17.9492C18.6396 17.25 19.1992 16.6904 19.1992 16V13C19.1992 12.3096 18.6396 11.75 17.9492 11.75H5.94922Z" fill="black"/>
</svg>
