<svg viewBox="0 0 24 24" xmlns="http://www.w3.org/2000/svg">
<path fill-rule="evenodd" clip-rule="evenodd" d="M14.0624 5.62015C11.6971 5.37163 9.31324 5.35314 6.94436 5.56495L5.36258 5.70638C4.05543 5.82325 2.99929 6.82185 2.80944 8.12041C2.43331 10.6931 2.43331 13.3069 2.80944 15.8796C2.99929 17.1782 4.05543 18.1768 5.36258 18.2936L6.94436 18.4351C9.31325 18.6469 11.6971 18.6284 14.0624 18.3799L14.6701 18.316C15.9142 18.1853 16.9208 17.2592 17.1632 16.0436L20.21 17.6623C20.4322 17.7804 20.6987 17.7792 20.9198 17.6591C21.1409 17.539 21.2871 17.3161 21.309 17.0655L21.3339 16.7817C21.6129 13.6 21.6129 10.4 21.3339 7.21835L21.309 6.93451C21.2871 6.68389 21.1409 6.46098 20.9198 6.34092C20.6987 6.22086 20.4322 6.21965 20.21 6.33768L17.1632 7.95644C16.9208 6.74079 15.9142 5.81472 14.6701 5.68401L14.0624 5.62015ZM7.07795 7.05899C9.35021 6.85582 11.6368 6.87356 13.9057 7.11194L14.5134 7.17579C15.125 7.24005 15.6152 7.71079 15.7041 8.31929C16.061 10.7601 16.061 13.2399 15.7041 15.6807C15.6152 16.2892 15.125 16.76 14.5134 16.8242L13.9057 16.8881C11.6368 17.1265 9.35021 17.1442 7.07795 16.941L5.49616 16.7996C4.88051 16.7445 4.38308 16.2742 4.29366 15.6626C3.93857 13.2338 3.93857 10.7662 4.29366 8.3374C4.38308 7.7258 4.88051 7.25547 5.49616 7.20042L7.07795 7.05899ZM17.3602 9.55034C17.509 11.1801 17.509 12.82 17.3602 14.4497L19.9072 15.8029C20.0885 13.2709 20.0885 10.7291 19.9072 8.19714L17.3602 9.55034Z"/>
</svg>
