<svg viewBox="0 0 24 24" xmlns="http://www.w3.org/2000/svg">
<path fill-rule="evenodd" clip-rule="evenodd" d="M7.56615 6.55232C7.56283 6.66186 7.58317 6.76663 7.62256 6.86172C6.17068 8.0998 5.25 9.94239 5.25 12C5.25 14.0577 6.17068 15.9003 7.62256 17.1383C7.58317 17.2334 7.56283 17.3382 7.56615 17.4477L7.65361 20.3351C7.67397 21.0073 8.11985 21.5921 8.76272 21.7897C10.8722 22.438 13.1278 22.438 15.2373 21.7897C15.8802 21.5921 16.3261 21.0073 16.3464 20.3351L16.4339 17.4477C16.4372 17.3382 16.4169 17.2334 16.3775 17.1383C17.3363 16.3206 18.0635 15.2393 18.4468 14.0064C18.5839 14.1562 18.781 14.25 19 14.25C19.4142 14.25 19.75 13.9142 19.75 13.5V10.5C19.75 10.0858 19.4142 9.75003 19 9.75003C18.781 9.75003 18.5839 9.84391 18.4468 9.99361C18.0635 8.76077 17.3363 7.67941 16.3775 6.86173C16.4169 6.76664 16.4372 6.66187 16.4339 6.55232L16.3464 3.66499C16.3261 2.99275 15.8802 2.40798 15.2373 2.21039C13.1278 1.56203 10.8722 1.56203 8.76272 2.21039C8.11985 2.40798 7.67397 2.99275 7.65361 3.66499L7.56615 6.55232ZM14.7966 3.6442C12.9743 3.0841 11.0257 3.0841 9.2034 3.6442C9.17414 3.65319 9.15385 3.67981 9.15292 3.7104L9.08631 5.90955C9.96837 5.4868 10.9565 5.25003 12 5.25003C13.0435 5.25003 14.0316 5.48681 14.9137 5.90956L14.8471 3.7104C14.8462 3.67981 14.8259 3.65319 14.7966 3.6442ZM9.15292 20.2896L9.08631 18.0905C9.96837 18.5133 10.9565 18.75 12 18.75C13.0435 18.75 14.0316 18.5133 14.9137 18.0905L14.8471 20.2896C14.8462 20.3202 14.8259 20.3469 14.7966 20.3559C12.9743 20.916 11.0257 20.916 9.2034 20.3559C9.17414 20.3469 9.15385 20.3202 9.15292 20.2896ZM12 6.75003C9.10051 6.75003 6.75 9.10054 6.75 12C6.75 14.8995 9.10051 17.25 12 17.25C14.8995 17.25 17.25 14.8995 17.25 12C17.25 9.10054 14.8995 6.75003 12 6.75003Z"/>
</svg>
