<svg   viewBox="0 0 32 32" fill="none" xmlns="http://www.w3.org/2000/svg">
<path d="M31 26C31 26.2652 30.8946 26.5196 30.7071 26.7071C30.5196 26.8946 30.2652 27 30 27H2C1.73478 27 1.48043 26.8946 1.29289 26.7071C1.10536 26.5196 1 26.2652 1 26C1 25.7348 1.10536 25.4804 1.29289 25.2929C1.48043 25.1054 1.73478 25 2 25H30C30.2652 25 30.5196 25.1054 30.7071 25.2929C30.8946 25.4804 31 25.7348 31 26V26ZM2.03784 12.2723C1.97851 12.0628 1.9892 11.8397 2.06827 11.6368C2.14735 11.4339 2.29049 11.2624 2.47595 11.1483L15.476 3.14832C15.6335 3.05134 15.815 3 16 3C16.185 3 16.3665 3.05134 16.524 3.14832L29.524 11.1483C29.7095 11.2624 29.8526 11.4339 29.9317 11.6368C30.0108 11.8397 30.0215 12.0628 29.9622 12.2723C29.9029 12.4818 29.7768 12.6662 29.6032 12.7976C29.4295 12.9289 29.2177 13 29 13H26V21H28C28.2652 21 28.5196 21.1054 28.7071 21.2929C28.8946 21.4804 29 21.7348 29 22C29 22.2652 28.8946 22.5196 28.7071 22.7071C28.5196 22.8946 28.2652 23 28 23H4C3.73478 23 3.48043 22.8946 3.29289 22.7071C3.10536 22.5196 3 22.2652 3 22C3 21.7348 3.10536 21.4804 3.29289 21.2929C3.48043 21.1054 3.73478 21 4 21H6V13H3C2.78227 13 2.57048 12.929 2.39682 12.7976C2.22316 12.6663 2.09712 12.4818 2.03784 12.2723V12.2723ZM18 20C18 20.2652 18.1054 20.5196 18.2929 20.7071C18.4804 20.8946 18.7348 21 19 21C19.2652 21 19.5196 20.8946 19.7071 20.7071C19.8946 20.5196 20 20.2652 20 20V14C20 13.7348 19.8946 13.4804 19.7071 13.2929C19.5196 13.1054 19.2652 13 19 13C18.7348 13 18.4804 13.1054 18.2929 13.2929C18.1054 13.4804 18 13.7348 18 14V20ZM12 20C12 20.2652 12.1054 20.5196 12.2929 20.7071C12.4804 20.8946 12.7348 21 13 21C13.2652 21 13.5196 20.8946 13.7071 20.7071C13.8946 20.5196 14 20.2652 14 20V14C14 13.7348 13.8946 13.4804 13.7071 13.2929C13.5196 13.1054 13.2652 13 13 13C12.7348 13 12.4804 13.1054 12.2929 13.2929C12.1054 13.4804 12 13.7348 12 14V20Z" fill="black"/>
</svg>
