<svg viewBox="0 0 32 32" xmlns="http://www.w3.org/2000/svg">
<path d="M25 3H7C6.46975 3.00061 5.9614 3.21151 5.58646 3.58646C5.21151 3.9614 5.00061 4.46975 5 5V27C5.00061 27.5302 5.21151 28.0386 5.58646 28.4135C5.9614 28.7885 6.46975 28.9994 7 29H25C25.5302 28.9994 26.0386 28.7885 26.4135 28.4135C26.7885 28.0386 26.9994 27.5302 27 27V5C26.9994 4.46975 26.7885 3.9614 26.4135 3.58646C26.0386 3.21151 25.5302 3.00061 25 3V3ZM11 24.999C10.7033 24.999 10.4133 24.911 10.1666 24.7462C9.91997 24.5814 9.72771 24.3471 9.61418 24.073C9.50065 23.799 9.47094 23.4974 9.52882 23.2064C9.5867 22.9154 9.72956 22.6481 9.93934 22.4384C10.1491 22.2286 10.4164 22.0857 10.7074 22.0278C10.9983 21.97 11.2999 21.9997 11.574 22.1132C11.8481 22.2267 12.0824 22.419 12.2472 22.6657C12.412 22.9123 12.5 23.2024 12.5 23.499C12.4995 23.8967 12.3414 24.278 12.0602 24.5592C11.779 24.8404 11.3977 24.9986 11 24.999V24.999ZM11 19.999C10.7033 19.999 10.4133 19.911 10.1666 19.7462C9.91997 19.5814 9.72771 19.3471 9.61418 19.073C9.50065 18.799 9.47094 18.4974 9.52882 18.2064C9.5867 17.9154 9.72956 17.6481 9.93934 17.4384C10.1491 17.2286 10.4164 17.0857 10.7074 17.0278C10.9983 16.97 11.2999 16.9997 11.574 17.1132C11.8481 17.2267 12.0824 17.419 12.2472 17.6657C12.412 17.9123 12.5 18.2024 12.5 18.499C12.4995 18.8967 12.3414 19.278 12.0602 19.5592C11.779 19.8404 11.3977 19.9986 11 19.999V19.999ZM16 24.999C15.7033 24.999 15.4133 24.911 15.1666 24.7462C14.92 24.5814 14.7277 24.3471 14.6142 24.073C14.5006 23.799 14.4709 23.4974 14.5288 23.2064C14.5867 22.9154 14.7296 22.6481 14.9393 22.4384C15.1491 22.2286 15.4164 22.0857 15.7074 22.0278C15.9983 21.97 16.2999 21.9997 16.574 22.1132C16.8481 22.2267 17.0824 22.419 17.2472 22.6657C17.412 22.9123 17.5 23.2024 17.5 23.499C17.4995 23.8967 17.3414 24.278 17.0602 24.5592C16.779 24.8404 16.3977 24.9986 16 24.999V24.999ZM16 19.999C15.7033 19.999 15.4133 19.911 15.1666 19.7462C14.92 19.5814 14.7277 19.3471 14.6142 19.073C14.5006 18.799 14.4709 18.4974 14.5288 18.2064C14.5867 17.9154 14.7296 17.6481 14.9393 17.4384C15.1491 17.2286 15.4164 17.0857 15.7074 17.0278C15.9983 16.97 16.2999 16.9997 16.574 17.1132C16.8481 17.2267 17.0824 17.419 17.2472 17.6657C17.412 17.9123 17.5 18.2024 17.5 18.499C17.4995 18.8967 17.3414 19.278 17.0602 19.5592C16.779 19.8404 16.3977 19.9986 16 19.999V19.999ZM21 24.999C20.7033 24.999 20.4133 24.911 20.1666 24.7462C19.92 24.5814 19.7277 24.3471 19.6142 24.073C19.5007 23.799 19.4709 23.4974 19.5288 23.2064C19.5867 22.9154 19.7296 22.6481 19.9393 22.4384C20.1491 22.2286 20.4164 22.0857 20.7074 22.0278C20.9983 21.97 21.2999 21.9997 21.574 22.1132C21.8481 22.2267 22.0824 22.419 22.2472 22.6657C22.412 22.9123 22.5 23.2024 22.5 23.499C22.4995 23.8967 22.3414 24.278 22.0602 24.5592C21.779 24.8404 21.3977 24.9986 21 24.999V24.999ZM21 19.999C20.7033 19.999 20.4133 19.911 20.1666 19.7462C19.92 19.5814 19.7277 19.3471 19.6142 19.073C19.5007 18.799 19.4709 18.4974 19.5288 18.2064C19.5867 17.9154 19.7296 17.6481 19.9393 17.4384C20.1491 17.2286 20.4164 17.0857 20.7074 17.0278C20.9983 16.97 21.2999 16.9997 21.574 17.1132C21.8481 17.2267 22.0824 17.419 22.2472 17.6657C22.412 17.9123 22.5 18.2024 22.5 18.499C22.4995 18.8967 22.3414 19.278 22.0602 19.5592C21.779 19.8404 21.3977 19.9986 21 19.999V19.999ZM23 12.999C23 13.1303 22.9741 13.2604 22.9239 13.3817C22.8736 13.503 22.8 13.6133 22.7071 13.7061C22.6143 13.799 22.504 13.8727 22.3827 13.9229C22.2614 13.9732 22.1313 13.999 22 13.999H10C9.86868 13.999 9.73864 13.9732 9.61731 13.9229C9.49599 13.8727 9.38574 13.799 9.29288 13.7061C9.20003 13.6133 9.12637 13.503 9.07611 13.3817C9.02586 13.2604 9 13.1303 9 12.999V7.99902C9 7.8677 9.02586 7.73766 9.07611 7.61634C9.12637 7.49501 9.20003 7.38477 9.29288 7.29191C9.38574 7.19905 9.49599 7.12539 9.61731 7.07514C9.73864 7.02488 9.86868 6.99902 10 6.99902H22C22.1313 6.99902 22.2614 7.02488 22.3827 7.07514C22.504 7.12539 22.6143 7.19905 22.7071 7.29191C22.8 7.38477 22.8736 7.49501 22.9239 7.61634C22.9741 7.73766 23 7.8677 23 7.99902V12.999Z"/>
</svg>
