<svg viewBox="0 0 32 32" xmlns="http://www.w3.org/2000/svg">
<path d="M27 12H22V7C22 6.86868 21.9741 6.73864 21.9239 6.61731C21.8736 6.49598 21.8 6.38574 21.7071 6.29288C21.6143 6.20003 21.504 6.12637 21.3827 6.07611C21.2614 6.02586 21.1313 6 21 6H6V5C6 4.73478 5.89464 4.48043 5.70711 4.29289C5.51957 4.10536 5.26522 4 5 4C4.73478 4 4.48043 4.10536 4.29289 4.29289C4.10536 4.48043 4 4.73478 4 5V27C4 27.2652 4.10536 27.5196 4.29289 27.7071C4.48043 27.8946 4.73478 28 5 28C5.26522 28 5.51957 27.8946 5.70711 27.7071C5.89464 27.5196 6 27.2652 6 27V26H17C17.1313 26 17.2614 25.9741 17.3827 25.9239C17.504 25.8736 17.6143 25.8 17.7071 25.7071C17.8 25.6143 17.8736 25.504 17.9239 25.3827C17.9741 25.2614 18 25.1313 18 25V20H27C27.1313 20 27.2614 19.9741 27.3827 19.9239C27.504 19.8736 27.6143 19.8 27.7071 19.7071C27.8 19.6143 27.8736 19.504 27.9239 19.3827C27.9741 19.2614 28 19.1313 28 19V13C28 12.8687 27.9741 12.7386 27.9239 12.6173C27.8736 12.496 27.8 12.3857 27.7071 12.2929C27.6143 12.2 27.504 12.1264 27.3827 12.0761C27.2614 12.0259 27.1313 12 27 12V12ZM20 8V12H6V8H20ZM16 24H6V20H16V24Z"/>
</svg>
