<svg   viewBox="0 0 32 32" fill="none" xmlns="http://www.w3.org/2000/svg">
<path d="M28 25H5V20.454L12.0488 14.2864L19.4004 19.8C19.5838 19.9375 19.8089 20.0079 20.038 19.9993C20.2671 19.9906 20.4863 19.9035 20.6588 19.7526L28.6588 12.7526C28.7578 12.6661 28.8388 12.5611 28.8972 12.4433C28.9556 12.3256 28.9902 12.1975 28.999 12.0663C29.0078 11.9352 28.9907 11.8036 28.9487 11.6791C28.9066 11.5546 28.8404 11.4396 28.7539 11.3407C28.6673 11.2418 28.5621 11.1609 28.4443 11.1027C28.3265 11.0445 28.1984 11.0101 28.0672 11.0014C27.9361 10.9927 27.8045 11.01 27.6801 11.0522C27.5556 11.0944 27.4407 11.1608 27.3419 11.2474L19.9519 17.7136L12.6003 12.2C12.4169 12.0624 12.1918 11.9921 11.9627 12.0007C11.7336 12.0094 11.5145 12.0965 11.3419 12.2474L5 17.7966V6C5 5.73478 4.89464 5.48043 4.70711 5.29289C4.51957 5.10536 4.26522 5 4 5C3.73478 5 3.48043 5.10536 3.29289 5.29289C3.10536 5.48043 3 5.73478 3 6V26C3.00001 26.2652 3.10537 26.5196 3.29291 26.7071C3.48044 26.8946 3.73479 27 4 27H28C28.2652 27 28.5196 26.8946 28.7071 26.7071C28.8946 26.5196 29 26.2652 29 26C29 25.7348 28.8946 25.4804 28.7071 25.2929C28.5196 25.1054 28.2652 25 28 25Z" fill="black"/>
</svg>
