<svg viewBox="0 0 32 32" xmlns="http://www.w3.org/2000/svg">
<path d="M29 26C29 26.2652 28.8946 26.5196 28.7071 26.7071C28.5196 26.8946 28.2652 27 28 27H4C3.73479 27 3.48044 26.8946 3.29291 26.7071C3.10537 26.5196 3.00001 26.2652 3 26V6C3 5.73478 3.10536 5.48043 3.29289 5.29289C3.48043 5.10536 3.73478 5 4 5C4.26522 5 4.51957 5.10536 4.70711 5.29289C4.89464 5.48043 5 5.73478 5 6V19.5861L11.2932 13.2928C11.4808 13.1053 11.7351 13 12.0004 13C12.2656 13 12.52 13.1053 12.7075 13.2928L16.0004 16.5858L22.0861 10.5L20.2932 8.70709C20.1534 8.56723 20.0582 8.38904 20.0196 8.19507C19.981 8.00109 20.0008 7.80004 20.0765 7.61732C20.1522 7.43461 20.2804 7.27843 20.4448 7.16855C20.6093 7.05867 20.8026 7.00002 21.0004 7H26.0004C26.2656 7.00001 26.5199 7.10537 26.7075 7.29291C26.895 7.48044 27.0004 7.73479 27.0004 8V13C27.0004 13.1978 26.9417 13.3911 26.8318 13.5556C26.7219 13.72 26.5658 13.8482 26.383 13.9239C26.2003 13.9996 25.9992 14.0194 25.8052 13.9808C25.6113 13.9422 25.4331 13.8469 25.2932 13.7071L23.5004 11.9143L16.7075 18.7072C16.52 18.8947 16.2656 19 16.0004 19C15.7351 19 15.4808 18.8947 15.2932 18.7072L12.0004 15.4142L5 22.4147V25H28C28.2652 25 28.5196 25.1054 28.7071 25.2929C28.8946 25.4804 29 25.7348 29 26V26Z"/>
</svg>
