<svg   viewBox="0 0 32 32" fill="none" xmlns="http://www.w3.org/2000/svg">
<path d="M12.4998 14.5566C12.6519 14.4688 12.7781 14.3426 12.8659 14.1906C12.9536 14.0386 12.9998 13.8662 12.9998 13.6906V4.68282C12.9998 4.52285 12.9614 4.36522 12.8879 4.22316C12.8144 4.0811 12.7078 3.95875 12.5772 3.86639C12.4466 3.77403 12.2957 3.71435 12.1373 3.69236C11.9788 3.67037 11.8174 3.68671 11.6666 3.74001C8.74736 4.77549 6.29296 6.81788 4.74423 9.50034C3.1955 12.1828 2.65392 15.3296 3.21677 18.3754C3.24583 18.5329 3.31226 18.681 3.41047 18.8074C3.50869 18.9338 3.63582 19.0348 3.78117 19.1018C3.92653 19.1689 4.08586 19.2001 4.24576 19.1928C4.40567 19.1854 4.56149 19.1398 4.7001 19.0598L12.4998 14.5566ZM10.9998 6.19869V13.1132L5.01455 16.5688C5.00491 16.3795 5.00007 16.1899 5.00003 16C5.00223 13.9725 5.56344 11.985 6.62195 10.2558C7.68045 8.52662 9.19527 7.1228 10.9998 6.19869V6.19869Z" fill="black"/>
<path d="M27.2856 9.54987C27.2772 9.5332 27.2695 9.51636 27.2601 9.5C27.2473 9.4779 27.2331 9.45721 27.219 9.43652C26.073 7.47853 24.4348 5.85435 22.467 4.72524C20.4993 3.59613 18.2704 3.00137 16.0017 3C15.7365 3 15.4821 3.10536 15.2946 3.2929C15.1071 3.48043 15.0017 3.73478 15.0017 4V15.4227L5.10936 21.134C4.87969 21.2666 4.7121 21.485 4.64345 21.7412C4.57481 21.9974 4.61074 22.2703 4.74333 22.5C4.74754 22.5073 4.75282 22.5135 4.75719 22.5206C4.76823 22.5431 4.77921 22.5655 4.7921 22.5874C6.23803 25.0471 8.45294 26.9628 11.0953 28.0392C13.7377 29.1157 16.6608 29.293 19.4139 28.5439C22.167 27.7948 24.5972 26.1608 26.3299 23.8939C28.0625 21.6271 29.0014 18.8532 29.0017 16C29.0045 13.7368 28.4127 11.5125 27.2856 9.54987V9.54987Z" fill="black"/>
</svg>
