<svg   viewBox="0 0 32 32" fill="none" xmlns="http://www.w3.org/2000/svg">
<path d="M27.2839 9.54986C27.2755 9.5332 27.2678 9.51635 27.2583 9.49999C27.2456 9.4779 27.2314 9.45721 27.2173 9.43652C25.483 6.4697 22.6443 4.31051 19.3221 3.43127C16 2.55204 12.4648 3.02432 9.49001 4.74482C6.51518 6.46532 4.34284 9.29397 3.44819 12.612C2.55354 15.93 3.00941 19.4673 4.71608 22.4501C4.7245 22.4668 4.73218 22.4836 4.74162 22.5C4.75056 22.5155 4.76144 22.529 4.77107 22.5439C6.50116 25.5155 9.33831 27.6803 12.6612 28.5645C15.9841 29.4486 19.522 28.9799 22.5001 27.261C25.4781 25.5421 27.6537 22.7131 28.5503 19.3935C29.4469 16.074 28.9916 12.5344 27.2839 9.54986V9.54986ZM24.9833 9.65881L17 14.2679V5.04595C18.5851 5.19162 20.1198 5.67948 21.4981 6.47587C22.8764 7.27226 24.0655 8.35822 24.9833 9.65881V9.65881ZM16 27C14.2389 26.9997 12.5038 26.5763 10.9404 25.7656C9.37714 24.9548 8.03145 23.7804 7.01665 22.3412L25.9857 11.3895C26.7601 13.0653 27.1001 14.9092 26.9745 16.751C26.8488 18.5929 26.2615 20.3735 25.2667 21.9286C24.2719 23.4838 22.9016 24.7635 21.2821 25.6498C19.6627 26.5361 17.8461 27.0004 16 27V27Z" fill="black"/>
</svg>
