<svg   viewBox="0 0 32 32" fill="none" xmlns="http://www.w3.org/2000/svg">
<path d="M31.0001 16C31.0001 17.3845 30.5896 18.7379 29.8204 19.889C29.0512 21.0401 27.958 21.9374 26.6789 22.4672C25.3998 22.997 23.9923 23.1356 22.6345 22.8655C21.2766 22.5954 20.0293 21.9287 19.0504 20.9497C19.0361 20.9354 19.0223 20.9207 19.0089 20.9056L11.515 12.444C10.8135 11.7506 9.92249 11.2801 8.95418 11.0919C7.98587 10.9036 6.98351 11.006 6.07326 11.3862C5.163 11.7663 4.38553 12.4072 3.83869 13.2282C3.29184 14.0492 3.00005 15.0136 3.00005 16C3.00005 16.9864 3.29184 17.9508 3.83869 18.7718C4.38553 19.5928 5.163 20.2337 6.07326 20.6138C6.98351 20.994 7.98587 21.0964 8.95418 20.9081C9.92249 20.7199 10.8135 20.2494 11.515 19.556L12.5799 18.3536C12.6669 18.2551 12.7725 18.1747 12.8906 18.1171C13.0087 18.0594 13.137 18.0256 13.2682 18.0176C13.3994 18.0095 13.5309 18.0274 13.6551 18.0702C13.7794 18.1131 13.894 18.18 13.9923 18.2671C14.0907 18.3542 14.171 18.4599 14.2285 18.5781C14.286 18.6963 14.3197 18.8246 14.3275 18.9558C14.3354 19.087 14.3173 19.2184 14.2744 19.3426C14.2314 19.4668 14.1644 19.5814 14.0771 19.6796L12.9913 20.9056C12.9779 20.9207 12.9641 20.9354 12.9498 20.9497C11.9708 21.9287 10.7235 22.5954 9.36567 22.8655C8.0078 23.1356 6.60033 22.997 5.32124 22.4672C4.04215 21.9374 2.9489 21.0402 2.17972 19.889C1.41055 18.7379 1 17.3845 1 16C1 14.6155 1.41055 13.2621 2.17972 12.111C2.9489 10.9599 4.04215 10.0626 5.32124 9.53284C6.60033 9.00303 8.0078 8.86441 9.36567 9.13451C10.7235 9.40462 11.9708 10.0713 12.9498 11.0503C12.9641 11.0646 12.9779 11.0793 12.9913 11.0944L20.4851 19.556C21.1867 20.2494 22.0777 20.7199 23.046 20.9081C24.0143 21.0964 25.0166 20.994 25.9269 20.6138C26.8372 20.2337 27.6146 19.5928 28.1615 18.7718C28.7083 17.9508 29.0001 16.9864 29.0001 16C29.0001 15.0136 28.7083 14.0492 28.1615 13.2282C27.6146 12.4072 26.8372 11.7663 25.9269 11.3862C25.0166 11.006 24.0143 10.9036 23.046 11.0919C22.0777 11.2801 21.1867 11.7506 20.4851 12.444L19.4202 13.6464C19.2443 13.8445 18.9969 13.9646 18.7324 13.9805C18.4679 13.9963 18.208 13.9065 18.0096 13.7309C17.8113 13.5552 17.6908 13.308 17.6745 13.0435C17.6583 12.7791 17.7477 12.519 17.9231 12.3204L19.0089 11.0944C19.0222 11.0793 19.0361 11.0646 19.0504 11.0503C20.0293 10.0713 21.2766 9.40467 22.6345 9.13458C23.9923 8.86449 25.3998 9.00311 26.6789 9.53292C27.9579 10.0627 29.0512 10.9599 29.8203 12.1111C30.5895 13.2622 31.0001 14.6155 31.0001 16Z" fill="black"/>
</svg>
