<svg viewBox="0 0 32 32" xmlns="http://www.w3.org/2000/svg">
<path d="M13 22H10V19C10 18.7348 9.89464 18.4804 9.70711 18.2929C9.51957 18.1054 9.26522 18 9 18C8.73478 18 8.48043 18.1054 8.29289 18.2929C8.10536 18.4804 8 18.7348 8 19V22H5C4.73478 22 4.48043 22.1054 4.29289 22.2929C4.10536 22.4804 4 22.7348 4 23C4 23.2652 4.10536 23.5196 4.29289 23.7071C4.48043 23.8946 4.73478 24 5 24H8V27C8 27.2652 8.10536 27.5196 8.29289 27.7071C8.48043 27.8946 8.73478 28 9 28C9.26522 28 9.51957 27.8946 9.70711 27.7071C9.89464 27.5196 10 27.2652 10 27V24H13C13.2652 24 13.5196 23.8946 13.7071 23.7071C13.8946 23.5196 14 23.2652 14 23C14 22.7348 13.8946 22.4804 13.7071 22.2929C13.5196 22.1054 13.2652 22 13 22Z"/>
<path d="M13 8H5C4.73478 8 4.48043 8.10536 4.29289 8.29289C4.10536 8.48043 4 8.73478 4 9C4 9.26522 4.10536 9.51957 4.29289 9.70711C4.48043 9.89464 4.73478 10 5 10H13C13.2652 10 13.5196 9.89464 13.7071 9.70711C13.8946 9.51957 14 9.26522 14 9C14 8.73478 13.8946 8.48043 13.7071 8.29289C13.5196 8.10536 13.2652 8 13 8Z"/>
<path d="M19 22.0083H27C27.2652 22.0083 27.5196 21.9029 27.7071 21.7154C27.8946 21.5279 28 21.2735 28 21.0083C28 20.7431 27.8946 20.4887 27.7071 20.3012C27.5196 20.1137 27.2652 20.0083 27 20.0083H19C18.7348 20.0083 18.4804 20.1137 18.2929 20.3012C18.1054 20.4887 18 20.7431 18 21.0083C18 21.2735 18.1054 21.5279 18.2929 21.7154C18.4804 21.9029 18.7348 22.0083 19 22.0083Z"/>
<path d="M27 23.9917H19C18.7348 23.9917 18.4804 24.0971 18.2929 24.2846C18.1054 24.4721 18 24.7265 18 24.9917C18 25.2569 18.1054 25.5113 18.2929 25.6988C18.4804 25.8863 18.7348 25.9917 19 25.9917H27C27.2652 25.9917 27.5196 25.8863 27.7071 25.6988C27.8946 25.5113 28 25.2569 28 24.9917C28 24.7265 27.8946 24.4721 27.7071 24.2846C27.5196 24.0971 27.2652 23.9917 27 23.9917Z"/>
<path d="M19.2929 12.7071C19.3858 12.8 19.496 12.8736 19.6173 12.9239C19.7387 12.9742 19.8687 13 20 13C20.1313 13 20.2614 12.9742 20.3827 12.9239C20.504 12.8736 20.6143 12.8 20.7071 12.7071L23 10.4142L25.2929 12.7071C25.3858 12.8001 25.496 12.8738 25.6173 12.9241C25.7387 12.9745 25.8688 13.0004 26.0001 13.0004C26.1315 13.0005 26.2616 12.9746 26.383 12.9244C26.5044 12.8741 26.6147 12.8005 26.7076 12.7076C26.8004 12.6147 26.8741 12.5044 26.9244 12.383C26.9746 12.2616 27.0005 12.1315 27.0004 12.0002C27.0004 11.8688 26.9745 11.7387 26.9241 11.6174C26.8738 11.496 26.8001 11.3858 26.7071 11.2929L24.4142 9.00002L26.7071 6.70712C26.8944 6.51954 26.9996 6.26526 26.9996 6.00015C26.9995 5.73505 26.8941 5.48083 26.7067 5.29338C26.5192 5.10592 26.265 5.00057 25.9999 5.00049C25.7348 5.00041 25.4805 5.10559 25.2929 5.29293L23 7.58584L20.7071 5.29293C20.5195 5.10559 20.2652 5.00041 20.0001 5.00049C19.735 5.00057 19.4808 5.10592 19.2934 5.29338C19.1059 5.48083 19.0006 5.73505 19.0005 6.00015C19.0004 6.26526 19.1056 6.51954 19.2929 6.70712L21.5858 9.00002L19.2929 11.2929C19.2001 11.3858 19.1264 11.496 19.0761 11.6173C19.0259 11.7387 19 11.8687 19 12C19 12.1313 19.0259 12.2614 19.0761 12.3827C19.1264 12.504 19.2001 12.6143 19.2929 12.7071Z"/>
</svg>
