<svg viewBox="0 0 32 32" xmlns="http://www.w3.org/2000/svg">
<path d="M16 3C13.4288 3 10.9154 3.76244 8.77759 5.1909C6.63975 6.61935 4.97351 8.64968 3.98957 11.0251C3.00563 13.4006 2.74819 16.0144 3.2498 18.5362C3.75141 21.0579 4.98953 23.3743 6.80762 25.1924C8.6257 27.0105 10.9421 28.2486 13.4638 28.7502C15.9856 29.2518 18.5995 28.9944 20.9749 28.0104C23.3503 27.0265 25.3807 25.3603 26.8091 23.2224C28.2376 21.0846 29 18.5712 29 16C28.9961 12.5534 27.6252 9.24905 25.1881 6.81192C22.751 4.37479 19.4466 3.0039 16 3V3ZM19.9487 10.8163L15.9487 22.8163C15.9073 22.941 15.8417 23.0563 15.7557 23.1556C15.6696 23.255 15.5649 23.3364 15.4473 23.3952C15.3298 23.454 15.2019 23.4891 15.0708 23.4985C14.9397 23.5078 14.8081 23.4912 14.6834 23.4497C14.5587 23.4081 14.4435 23.3424 14.3442 23.2563C14.245 23.1701 14.1637 23.0653 14.105 22.9477C14.0463 22.8301 14.0113 22.7021 14.0021 22.5711C13.9929 22.44 14.0096 22.3083 14.0513 22.1837L17.6126 11.5H13C12.7348 11.5 12.4804 11.3946 12.2929 11.2071C12.1054 11.0196 12 10.7652 12 10.5C12 10.2348 12.1054 9.98043 12.2929 9.79289C12.4804 9.60536 12.7348 9.5 13 9.5H19C19.1585 9.5 19.3147 9.53765 19.4557 9.60985C19.5968 9.68206 19.7186 9.78675 19.8113 9.9153C19.904 10.0438 19.9647 10.1926 19.9886 10.3492C20.0125 10.5059 19.9988 10.666 19.9487 10.8163V10.8163Z"/>
</svg>
