<svg viewBox="0 0 32 32" xmlns="http://www.w3.org/2000/svg">
<path d="M26 4H6C5.46975 4.00061 4.9614 4.21151 4.58646 4.58646C4.21151 4.9614 4.00061 5.46975 4 6V26C4.00061 26.5302 4.21151 27.0386 4.58646 27.4135C4.9614 27.7885 5.46975 27.9994 6 28H26C26.5302 27.9994 27.0386 27.7885 27.4135 27.4135C27.7885 27.0386 27.9994 26.5302 28 26V6C27.9994 5.46975 27.7885 4.9614 27.4135 4.58646C27.0386 4.21151 26.5302 4.00061 26 4ZM19 20.9993C19.2652 20.9993 19.5196 21.1046 19.7071 21.2922C19.8946 21.4797 20 21.7341 20 21.9993C20 22.2645 19.8946 22.5188 19.7071 22.7064C19.5196 22.8939 19.2652 22.9993 19 22.9993H13.0397C13.0264 22.9998 13.0132 23.0001 12.9999 23.0001C12.8124 23 12.6288 22.9472 12.4699 22.8478C12.311 22.7484 12.1832 22.6064 12.1011 22.4379C12.019 22.2694 11.9859 22.0812 12.0055 21.8948C12.0252 21.7084 12.0968 21.5313 12.2123 21.3836L17.6713 14.0991C17.8239 13.8668 17.9265 13.6052 17.9724 13.331C18.0184 13.0569 18.0067 12.7761 17.938 12.5067C17.8694 12.2373 17.7454 11.9852 17.5739 11.7664C17.4024 11.5476 17.1872 11.3669 16.942 11.236C16.6968 11.105 16.427 11.0265 16.1498 11.0057C15.8725 10.9848 15.594 11.0219 15.332 11.1146C15.0699 11.2074 14.83 11.3538 14.6277 11.5444C14.4253 11.735 14.2649 11.9657 14.1567 12.2218C14.0534 12.4661 13.8573 12.6593 13.6115 12.759C13.3658 12.8586 13.0905 12.8566 12.8462 12.7533C12.6019 12.65 12.4087 12.4539 12.309 12.2081C12.2093 11.9623 12.2114 11.687 12.3147 11.4427C12.5319 10.9289 12.8543 10.4661 13.261 10.0842C13.6677 9.70226 14.1498 9.40964 14.6763 9.2251C15.2028 9.04057 15.7621 8.9682 16.3182 9.01266C16.8744 9.05711 17.4151 9.2174 17.9056 9.48323C18.3961 9.74906 18.8256 10.1146 19.1665 10.5562C19.5074 10.9979 19.7521 11.506 19.8849 12.0479C20.0178 12.5897 20.0358 13.1534 19.9379 13.7027C19.84 14.2519 19.6282 14.7746 19.3163 15.2372C19.3071 15.2507 19.2977 15.264 19.2878 15.277L14.9996 20.9993L19 20.9993Z"/>
</svg>
