<svg   viewBox="0 0 32 32" fill="none" xmlns="http://www.w3.org/2000/svg">
<path d="M16 3C13.4288 3 10.9154 3.76244 8.77759 5.1909C6.63975 6.61935 4.97351 8.64968 3.98957 11.0251C3.00563 13.4006 2.74819 16.0144 3.2498 18.5362C3.75141 21.0579 4.98953 23.3743 6.80762 25.1924C8.6257 27.0105 10.9421 28.2486 13.4638 28.7502C15.9856 29.2518 18.5995 28.9944 20.9749 28.0104C23.3503 27.0265 25.3807 25.3603 26.8091 23.2224C28.2376 21.0846 29 18.5712 29 16C28.9961 12.5534 27.6252 9.24905 25.1881 6.81192C22.751 4.37479 19.4466 3.0039 16 3V3ZM15.4852 14.5002C16.2247 14.5019 16.9524 14.6859 17.6039 15.0357C18.2554 15.3856 18.8106 15.8907 19.2205 16.5062C19.6303 17.1217 19.8821 17.8288 19.9537 18.5648C20.0252 19.3008 19.9143 20.0431 19.6306 20.7261C19.347 21.409 18.8994 22.0115 18.3275 22.4803C17.7556 22.9491 17.0769 23.2697 16.3516 23.4138C15.6263 23.5579 14.8766 23.521 14.169 23.3064C13.4613 23.0917 12.8174 22.706 12.2943 22.1833C12.2011 22.0907 12.1271 21.9806 12.0765 21.8594C12.0259 21.7381 11.9997 21.6081 11.9994 21.4767C11.9991 21.3453 12.0247 21.2151 12.0747 21.0936C12.1247 20.9721 12.1982 20.8617 12.2909 20.7686C12.3836 20.6755 12.4938 20.6016 12.6151 20.5511C12.7364 20.5006 12.8665 20.4745 12.9978 20.4743C13.1292 20.4741 13.2594 20.4998 13.3808 20.5499C13.5023 20.6 13.6127 20.6736 13.7057 20.7664C14.1788 21.2363 14.8186 21.5 15.4854 21.5C16.1522 21.5 16.792 21.2362 17.265 20.7662C17.4979 20.5348 17.6828 20.2596 17.8089 19.9565C17.9351 19.6534 18 19.3283 18 19C18 18.6716 17.935 18.3466 17.8089 18.0434C17.6827 17.7403 17.4978 17.4651 17.2649 17.2338C16.7918 16.7639 16.152 16.5002 15.4852 16.5002C14.8184 16.5003 14.1787 16.764 13.7056 17.2339C13.5558 17.383 13.3627 17.4809 13.1538 17.5134C12.945 17.5459 12.7312 17.5114 12.5432 17.4149C12.3552 17.3184 12.2026 17.1648 12.1073 16.9761C12.0121 16.7875 11.979 16.5735 12.0129 16.3649L12.9923 10.3396C13.0304 10.1053 13.1506 9.89213 13.3315 9.73831C13.5123 9.58449 13.742 9.50002 13.9794 9.5H19C19.2652 9.5 19.5196 9.60536 19.7071 9.79289C19.8946 9.98043 20 10.2348 20 10.5C20 10.7652 19.8946 11.0196 19.7071 11.2071C19.5196 11.3946 19.2652 11.5 19 11.5H14.83L14.3178 14.6514C14.6987 14.5507 15.0912 14.4999 15.4852 14.5002V14.5002Z" fill="black"/>
</svg>
