<svg   viewBox="0 0 32 32" fill="none" xmlns="http://www.w3.org/2000/svg">
<path d="M16.4999 29C16.2346 29 15.9801 28.8947 15.7925 28.7071C15.6048 28.5196 15.4994 28.2652 15.4993 27.9999V5.86887L11.0562 8.83024C10.9469 8.9033 10.8243 8.9541 10.6954 8.97975C10.5665 9.0054 10.4338 9.00539 10.3049 8.97972C10.176 8.95406 10.0534 8.90324 9.94415 8.83017C9.8349 8.7571 9.74112 8.66321 9.66818 8.55388C9.59523 8.44454 9.54455 8.3219 9.51903 8.19297C9.49351 8.06404 9.49366 7.93134 9.51945 7.80246C9.54525 7.67358 9.5962 7.55105 9.66938 7.44187C9.74256 7.3327 9.83654 7.23901 9.94595 7.16618L15.9447 3.16795C16.0954 3.06751 16.2705 3.00982 16.4513 3.00105C16.6322 2.99228 16.8121 3.03275 16.9717 3.11815C17.1314 3.20355 17.2649 3.33068 17.358 3.48598C17.4511 3.64128 17.5003 3.81893 17.5004 4V27.9999C17.5003 28.2652 17.3949 28.5196 17.2072 28.7071C17.0196 28.8947 16.7651 29 16.4999 29V29Z" fill="black"/>
</svg>
