<svg viewBox="0 0 32 32" xmlns="http://www.w3.org/2000/svg">
<path d="M22.5 12V28C22.5 28.2652 22.3946 28.5196 22.2071 28.7071C22.0195 28.8946 21.7652 29 21.5 29C21.2348 29 20.9804 28.8946 20.7929 28.7071C20.6053 28.5196 20.5 28.2652 20.5 28V21H9.49997C9.34004 21 9.18245 20.9616 9.04042 20.8881C8.89839 20.8146 8.77605 20.7081 8.68368 20.5776C8.59131 20.447 8.5316 20.2962 8.50955 20.1378C8.4875 19.9794 8.50376 19.818 8.55697 19.6672L14.5566 2.66722C14.6451 2.41738 14.8291 2.21288 15.0682 2.09864C15.3074 1.9844 15.5821 1.96977 15.832 2.05797C16.0819 2.14616 16.2866 2.32997 16.4011 2.569C16.5156 2.80803 16.5305 3.08273 16.4426 3.33275L10.9133 19H20.5V12C20.5 11.7348 20.6053 11.4804 20.7929 11.2929C20.9804 11.1053 21.2348 11 21.5 11C21.7652 11 22.0195 11.1053 22.2071 11.2929C22.3946 11.4804 22.5 11.7348 22.5 12V12Z"/>
</svg>
