<svg viewBox="0 0 32 32" xmlns="http://www.w3.org/2000/svg">
<path d="M26 4H6C5.46978 4.00069 4.96147 4.21162 4.58655 4.58655C4.21162 4.96147 4.00069 5.46978 4 6V26C4.00069 26.5302 4.21162 27.0385 4.58655 27.4135C4.96147 27.7884 5.46978 27.9993 6 28H26C26.5302 27.9993 27.0385 27.7884 27.4135 27.4135C27.7884 27.0385 27.9993 26.5302 28 26V6C27.9993 5.46978 27.7884 4.96147 27.4135 4.58655C27.0385 4.21162 26.5302 4.00069 26 4V4ZM17.499 21.999C17.499 22.2642 17.3937 22.5186 17.2061 22.7061C17.0186 22.8937 16.7642 22.999 16.499 22.999C16.2338 22.999 15.9795 22.8937 15.7919 22.7061C15.6044 22.5186 15.499 22.2642 15.499 21.999V12.3691L14.0557 13.3311C13.9464 13.404 13.8238 13.4548 13.695 13.4804C13.5661 13.5059 13.4334 13.5059 13.3046 13.4802C13.1757 13.4544 13.0532 13.4036 12.944 13.3305C12.8348 13.2574 12.7411 13.1635 12.6682 13.0542C12.5953 12.9449 12.5447 12.8223 12.5192 12.6934C12.4938 12.5645 12.4939 12.4318 12.5198 12.303C12.5456 12.1741 12.5966 12.0517 12.6697 11.9425C12.7429 11.8334 12.8369 11.7398 12.9463 11.667L15.9443 9.66797C16.0949 9.56755 16.27 9.50988 16.4508 9.50113C16.6315 9.49238 16.8113 9.53287 16.9709 9.61828C17.1305 9.70369 17.2639 9.83081 17.3569 9.98609C17.4499 10.1414 17.499 10.319 17.499 10.5V21.999Z"/>
</svg>
