<svg   viewBox="0 0 32 32" fill="none" xmlns="http://www.w3.org/2000/svg">
<path d="M16.0025 12.9999C15.1755 12.9996 14.3535 13.1281 13.5661 13.3806L18.8611 4.51261C18.9971 4.28489 19.037 4.01248 18.9721 3.7553C18.9072 3.49813 18.7429 3.27726 18.5151 3.14129C18.2874 3.00532 18.015 2.96538 17.7578 3.03026C17.5007 3.09514 17.2798 3.25953 17.1438 3.48725L9.08266 16.9879C9.0696 17.0098 9.05843 17.0322 9.0472 17.0547C8.1806 18.584 7.84204 20.3563 8.08386 22.0975C8.32569 23.8386 9.13443 25.4515 10.385 26.6868C11.6356 27.9222 13.2584 28.711 15.0023 28.9315C16.7463 29.1519 18.5143 28.7916 20.0329 27.9063C21.5515 27.021 22.7361 25.66 23.4036 24.0338C24.071 22.4076 24.1841 20.6068 23.7252 18.9099C23.2664 17.213 22.2613 15.7145 20.8653 14.6462C19.4694 13.5779 17.7603 12.9994 16.0025 12.9999V12.9999ZM16.0025 27C14.9408 27.0005 13.8981 26.7192 12.9808 26.1848C12.0634 25.6504 11.3044 24.8821 10.7812 23.9583C10.2581 23.0345 9.98948 21.9884 10.0029 20.9269C10.0164 19.8653 10.3114 18.8264 10.8579 17.9162L10.8801 17.879C11.4249 16.9848 12.1943 16.2488 13.1118 15.7441C14.0293 15.2395 15.0628 14.9837 16.1098 15.0023C17.1567 15.021 18.1806 15.3133 19.0795 15.8502C19.9785 16.3871 20.7213 17.15 21.234 18.063C21.7467 18.976 22.0116 20.0073 22.0022 21.0543C21.9929 22.1014 21.7096 23.1278 21.1806 24.0315C20.6516 24.9351 19.8953 25.6846 18.9869 26.2054C18.0785 26.7261 17.0496 27.0001 16.0025 27V27Z" fill="black"/>
</svg>
