<svg   viewBox="0 0 32 32" fill="none" xmlns="http://www.w3.org/2000/svg">
<path d="M21.9878 16.2501C21.3792 15.6792 20.69 15.201 19.9423 14.8306C20.3836 14.5645 20.7958 14.2528 21.1719 13.9006C21.8571 13.2725 22.4043 12.5089 22.7786 11.658C23.1529 10.8072 23.3462 9.88788 23.3462 8.95837C23.3462 8.02886 23.1529 7.10951 22.7786 6.2587C22.4043 5.40789 21.8571 4.64421 21.1719 4.01617C19.7616 2.71958 17.9157 2 16 2C14.0843 2 12.2384 2.71958 10.8281 4.01617C10.1429 4.64421 9.59573 5.40789 9.22141 6.2587C8.8471 7.10951 8.65381 8.02886 8.65381 8.95837C8.65381 9.88788 8.8471 10.8072 9.22141 11.658C9.59573 12.5089 10.1429 13.2725 10.8281 13.9006C11.2042 14.2528 11.6164 14.5646 12.0577 14.8306C11.31 15.201 10.6208 15.6793 10.0122 16.2501C9.2205 16.9754 8.58832 17.8574 8.15583 18.8401C7.72334 19.8228 7.5 20.8847 7.5 21.9584C7.5 23.032 7.72334 24.094 8.15583 25.0767C8.58832 26.0594 9.2205 26.9414 10.0122 27.6666C11.6452 29.1673 13.7822 30 16 30C18.2178 30 20.3548 29.1672 21.9878 27.6666C22.7795 26.9413 23.4117 26.0593 23.8442 25.0766C24.2767 24.0939 24.5 23.032 24.5 21.9583C24.5 20.8846 24.2767 19.8227 23.8442 18.84C23.4117 17.8573 22.7795 16.9753 21.9878 16.2501V16.2501ZM12.197 12.4424C11.711 12.0015 11.3226 11.4637 11.0569 10.8636C10.7911 10.2636 10.6538 9.61458 10.6538 8.95832C10.6538 8.30206 10.7911 7.65305 11.0569 7.05302C11.3226 6.45298 11.711 5.91518 12.197 5.47419C13.2365 4.52578 14.5929 4 16 4C17.4071 4 18.7635 4.52578 19.803 5.47419C20.289 5.91518 20.6773 6.45298 20.9431 7.05302C21.2089 7.65305 21.3462 8.30206 21.3462 8.95832C21.3462 9.61458 21.2089 10.2636 20.9431 10.8636C20.6773 11.4637 20.289 12.0015 19.803 12.4424C18.7635 13.3909 17.4071 13.9167 16 13.9167C14.5929 13.9167 13.2365 13.3909 12.197 12.4424V12.4424ZM20.6189 26.2085C19.3567 27.361 17.7092 28 16 28C14.2908 28 12.6433 27.361 11.3811 26.2086C10.7886 25.6704 10.3152 25.0142 9.99129 24.2823C9.66734 23.5504 9.49999 22.7588 9.49999 21.9584C9.49999 21.158 9.66734 20.3664 9.99129 19.6344C10.3152 18.9025 10.7886 18.2464 11.3811 17.7082C12.6433 16.5557 14.2908 15.9167 16 15.9167C17.7092 15.9167 19.3567 16.5557 20.6189 17.7081C21.2114 18.2463 21.6848 18.9025 22.0087 19.6344C22.3327 20.3663 22.5 21.1579 22.5 21.9583C22.5 22.7587 22.3327 23.5503 22.0087 24.2822C21.6848 25.0142 21.2114 25.6703 20.6189 26.2085Z" fill="black"/>
</svg>
