<svg   viewBox="0 0 32 32" fill="none" xmlns="http://www.w3.org/2000/svg">
<path d="M14.0012 30C13.8428 29.9999 13.6866 29.9622 13.5456 29.8899C13.4046 29.8177 13.2828 29.713 13.1901 29.5844C13.0975 29.4559 13.0367 29.3072 13.0128 29.1506C12.9888 28.994 13.0024 28.8339 13.0524 28.6835L20.6137 5.99998H10.0011C9.86969 6.00013 9.73954 5.97437 9.61809 5.92418C9.49663 5.87399 9.38626 5.80036 9.29329 5.70749C9.20031 5.61461 9.12655 5.50433 9.07623 5.38293C9.0259 5.26153 9 5.13141 9 4.99999C9 4.86858 9.0259 4.73845 9.07623 4.61705C9.12655 4.49566 9.20031 4.38537 9.29329 4.2925C9.38626 4.19962 9.49663 4.12599 9.61809 4.0758C9.73954 4.02561 9.86969 3.99985 10.0011 4H22.0011C22.1596 3.99999 22.3158 4.03764 22.4568 4.10984C22.5978 4.18204 22.7197 4.28672 22.8124 4.41527C22.905 4.54381 22.9658 4.69253 22.9897 4.84917C23.0136 5.00581 22.9999 5.16589 22.9498 5.31621L14.9498 29.316C14.8834 29.5151 14.7561 29.6883 14.5859 29.811C14.4156 29.9338 14.2111 29.9999 14.0012 30V30Z" fill="black"/>
</svg>
