<svg   viewBox="0 0 32 32" fill="none" xmlns="http://www.w3.org/2000/svg">
<path d="M16 21C17.6569 21 19 18.7614 19 16C19 13.2386 17.6569 11 16 11C14.3431 11 13 13.2386 13 16C13 18.7614 14.3431 21 16 21Z" fill="black"/>
<path d="M26 4H6C5.46978 4.00069 4.96147 4.21162 4.58655 4.58655C4.21162 4.96147 4.00069 5.46978 4 6V26C4.00069 26.5302 4.21162 27.0385 4.58655 27.4135C4.96147 27.7884 5.46978 27.9993 6 28H26C26.5302 27.9993 27.0385 27.7884 27.4135 27.4135C27.7884 27.0385 27.9993 26.5302 28 26V6C27.9993 5.46978 27.7884 4.96147 27.4135 4.58655C27.0385 4.21162 26.5302 4.00069 26 4V4ZM16 23C12.5459 23 11 19.4844 11 16C11 12.5156 12.5459 9 16 9C19.4541 9 21 12.5156 21 16C21 19.4844 19.4541 23 16 23Z" fill="black"/>
</svg>
