<svg   viewBox="0 0 32 32" fill="none" xmlns="http://www.w3.org/2000/svg">
<path d="M18.5 14C18.5 14.4945 18.3534 14.9778 18.0787 15.3889C17.804 15.8 17.4135 16.1205 16.9567 16.3097C16.4999 16.4989 15.9972 16.5484 15.5123 16.452C15.0273 16.3555 14.5819 16.1174 14.2322 15.7678C13.8826 15.4181 13.6445 14.9727 13.548 14.4877C13.4516 14.0028 13.5011 13.5001 13.6903 13.0433C13.8795 12.5865 14.2 12.196 14.6111 11.9213C15.0222 11.6466 15.5056 11.5 16 11.5C16.6628 11.5007 17.2983 11.7644 17.767 12.233C18.2356 12.7017 18.4993 13.3372 18.5 14V14ZM29 16C29 18.5712 28.2376 21.0846 26.8091 23.2224C25.3807 25.3603 23.3503 27.0265 20.9749 28.0104C18.5995 28.9944 15.9856 29.2518 13.4638 28.7502C10.9421 28.2486 8.6257 27.0105 6.80762 25.1924C4.98953 23.3743 3.75141 21.0579 3.2498 18.5362C2.74819 16.0144 3.00563 13.4006 3.98957 11.0251C4.97351 8.64968 6.63975 6.61935 8.77759 5.1909C10.9154 3.76244 13.4288 3 16 3C19.4466 3.0039 22.751 4.37479 25.1881 6.81192C27.6252 9.24905 28.9961 12.5534 29 16V16ZM20.5 14C20.5 13.11 20.2361 12.24 19.7416 11.4999C19.2472 10.7599 18.5443 10.1831 17.7221 9.84254C16.8998 9.50195 15.995 9.41283 15.1221 9.58647C14.2492 9.7601 13.4474 10.1887 12.818 10.818C12.1887 11.4474 11.7601 12.2492 11.5865 13.1221C11.4128 13.995 11.502 14.8998 11.8425 15.7221C12.1831 16.5443 12.7599 17.2471 13.4999 17.7416C14.24 18.2361 15.11 18.5 16 18.5C16.0764 18.5 16.1522 18.4981 16.2277 18.4942L14.1415 21.9872C14.0741 22.0999 14.0297 22.2248 14.0106 22.3548C13.9915 22.4847 13.9982 22.6171 14.0303 22.7444C14.0624 22.8718 14.1193 22.9916 14.1977 23.0969C14.2761 23.2023 14.3744 23.2912 14.4872 23.3585C14.5999 23.4259 14.7248 23.4703 14.8548 23.4894C14.9847 23.5085 15.1171 23.5018 15.2445 23.4697C15.3718 23.4376 15.4916 23.3807 15.5969 23.3023C15.7023 23.2239 15.7912 23.1256 15.8585 23.0128L19.8897 16.2634C19.9017 16.2432 19.9119 16.2224 19.9224 16.2017C20.3017 15.5299 20.5007 14.7714 20.5 14V14Z" fill="black"/>
</svg>
