<svg   viewBox="0 0 32 32" fill="none" xmlns="http://www.w3.org/2000/svg">
<path d="M18.5 18C18.5 18.4945 18.3534 18.9778 18.0787 19.3889C17.804 19.8 17.4135 20.1205 16.9567 20.3097C16.4999 20.4989 15.9972 20.5484 15.5123 20.452C15.0273 20.3555 14.5819 20.1174 14.2322 19.7678C13.8826 19.4181 13.6445 18.9727 13.548 18.4877C13.4516 18.0028 13.5011 17.5001 13.6903 17.0433C13.8795 16.5865 14.2 16.196 14.6111 15.9213C15.0222 15.6466 15.5056 15.5 16 15.5C16.6628 15.5007 17.2983 15.7644 17.767 16.233C18.2356 16.7017 18.4993 17.3372 18.5 18V18ZM29 16C29 18.5712 28.2376 21.0846 26.8091 23.2224C25.3807 25.3603 23.3503 27.0265 20.9749 28.0104C18.5995 28.9944 15.9856 29.2518 13.4638 28.7502C10.9421 28.2486 8.6257 27.0105 6.80762 25.1924C4.98953 23.3743 3.75141 21.0579 3.2498 18.5362C2.74819 16.0144 3.00563 13.4006 3.98957 11.0251C4.97351 8.64968 6.63975 6.61935 8.77759 5.1909C10.9154 3.76244 13.4288 3 16 3C19.4466 3.0039 22.751 4.37479 25.1881 6.81192C27.6252 9.24905 28.9961 12.5534 29 16V16ZM20.5 18C20.4987 16.8069 20.0241 15.6631 19.1805 14.8195C18.3369 13.9759 17.1931 13.5013 16 13.5C15.9236 13.5 15.8476 13.5019 15.7721 13.5058L17.8585 10.0128C17.9259 9.90007 17.9703 9.77517 17.9894 9.64524C18.0085 9.51531 18.0018 9.38289 17.9697 9.25555C17.9376 9.12821 17.8807 9.00844 17.8023 8.90308C17.7239 8.79772 17.6256 8.70882 17.5128 8.64148C17.4001 8.57414 17.2752 8.52966 17.1452 8.51058C17.0153 8.49151 16.8829 8.49822 16.7556 8.53032C16.6282 8.56242 16.5084 8.61929 16.4031 8.69768C16.2977 8.77607 16.2088 8.87444 16.1415 8.98718L12.1104 15.7358C12.0964 15.7592 12.0844 15.7831 12.0726 15.8071C11.7374 16.4073 11.5442 17.0763 11.5078 17.7628C11.4715 18.4492 11.5929 19.1349 11.8628 19.7672C12.1327 20.3994 12.5439 20.9614 13.0648 21.41C13.5857 21.8586 14.2025 22.1819 14.8677 22.355C15.533 22.5281 16.2291 22.5465 16.9026 22.4087C17.5761 22.2709 18.2091 21.9806 18.7529 21.5601C19.2968 21.1396 19.737 20.6001 20.0399 19.9829C20.3427 19.3658 20.5001 18.6874 20.5 18V18Z" fill="black"/>
</svg>
