<svg   viewBox="0 0 32 32" fill="none" xmlns="http://www.w3.org/2000/svg">
<path d="M16 3C13.4288 3 10.9154 3.76244 8.77759 5.1909C6.63975 6.61935 4.97351 8.64968 3.98957 11.0251C3.00563 13.4006 2.74819 16.0144 3.2498 18.5362C3.75141 21.0579 4.98953 23.3743 6.80762 25.1924C8.6257 27.0105 10.9421 28.2486 13.4638 28.7502C15.9856 29.2518 18.5995 28.9944 20.9749 28.0104C23.3503 27.0265 25.3807 25.3603 26.8091 23.2224C28.2376 21.0846 29 18.5712 29 16C28.9961 12.5534 27.6252 9.24905 25.1881 6.81192C22.751 4.37479 19.4466 3.0039 16 3V3ZM17.5 22C17.5 22.2652 17.3946 22.5196 17.2071 22.7071C17.0196 22.8946 16.7652 23 16.5 23C16.2348 23 15.9804 22.8946 15.7929 22.7071C15.6054 22.5196 15.5 22.2652 15.5 22V12.368L14.0546 13.3313C13.9453 13.4043 13.8227 13.4551 13.6938 13.4807C13.5649 13.5063 13.4322 13.5062 13.3033 13.4805C13.1744 13.4548 13.0518 13.4039 12.9426 13.3308C12.8334 13.2577 12.7397 13.1638 12.6668 13.0544C12.5939 12.945 12.5433 12.8224 12.5179 12.6934C12.4924 12.5645 12.4926 12.4318 12.5185 12.3029C12.5444 12.1741 12.5954 12.0516 12.6687 11.9425C12.7419 11.8334 12.836 11.7397 12.9454 11.667L15.9454 9.66785C16.0961 9.5675 16.2711 9.5099 16.4518 9.50119C16.6326 9.49248 16.8124 9.53299 16.9719 9.61841C17.1315 9.70382 17.2649 9.83093 17.3579 9.98618C17.4509 10.1414 17.5 10.319 17.5 10.5V22Z" fill="black"/>
</svg>
