<svg   viewBox="0 0 32 32" fill="none" xmlns="http://www.w3.org/2000/svg">
<path d="M16.001 3C14.8467 2.99986 13.706 3.24952 12.6573 3.73185C11.6085 4.21418 10.6766 4.91775 9.92545 5.79425C9.1743 6.67076 8.62174 7.69944 8.30569 8.80966C7.98964 9.91988 7.9176 11.0853 8.09451 12.226C8.27141 13.3667 8.69308 14.4556 9.33056 15.418C9.96803 16.3803 10.8062 17.1933 11.7876 17.8011C12.7689 18.4089 13.8702 18.7972 15.0157 18.9392C16.1613 19.0812 17.324 18.9737 18.4241 18.6239L13.1121 27.4859C13.0444 27.5985 12.9996 27.7234 12.9802 27.8534C12.9608 27.9833 12.9673 28.1158 12.9991 28.2433C13.031 28.3708 13.0876 28.4908 13.1659 28.5963C13.2441 28.7019 13.3424 28.791 13.4551 28.8586C13.5678 28.9261 13.6927 28.9708 13.8227 28.99C13.9527 29.0093 14.0852 29.0027 14.2127 28.9708C14.3401 28.9388 14.46 28.882 14.5655 28.8036C14.671 28.7253 14.76 28.6269 14.8274 28.5141L22.8371 15.1516C22.8407 15.1456 22.8441 15.1397 22.8477 15.1338L22.9198 15.0135C22.9329 14.9917 22.9441 14.9692 22.9553 14.9469C23.6473 13.7305 24.0079 12.3538 24.0009 10.9543C23.994 9.55493 23.6198 8.18185 22.9157 6.9724C22.2117 5.76295 21.2025 4.75951 19.9891 4.06241C18.7756 3.3653 17.4004 2.99896 16.001 3V3ZM21.1487 14.0785L21.1202 14.1259C20.2849 15.5048 18.9368 16.4959 17.3716 16.882C15.8064 17.2681 14.152 17.0176 12.7713 16.1855C11.3906 15.3533 10.3964 14.0075 10.0067 12.4432C9.61707 10.8789 9.86381 9.22391 10.6928 7.84132C11.5218 6.45873 12.8654 5.46143 14.4288 5.06822C15.9922 4.675 17.6478 4.91798 19.0322 5.74385C20.4167 6.56972 21.4171 7.91104 21.8138 9.47354C22.2106 11.036 21.9714 12.6921 21.1487 14.0785V14.0785Z" fill="black"/>
</svg>
