<svg   viewBox="0 0 32 32" fill="none" xmlns="http://www.w3.org/2000/svg">
<path d="M16 30C12.78 30 10.126 28.4286 8.32495 25.4557C6.82568 22.981 6 19.6229 6 16C6 12.3768 6.82568 9.0186 8.32495 6.54404C10.126 3.5713 12.78 2 16 2C19.22 2 21.874 3.5713 23.675 6.54404C25.1743 9.0186 26 12.3768 26 16C26 19.6229 25.1743 22.981 23.675 25.4557C21.874 28.4286 19.22 30 16 30ZM16 4C10.4736 4 8 10.027 8 16C8 21.973 10.4736 28 16 28C21.5264 28 24 21.973 24 16C24 10.027 21.5264 4 16 4Z" fill="black"/>
</svg>
