<svg viewBox="0 0 32 32" xmlns="http://www.w3.org/2000/svg">
<path d="M16 3C13.4288 3 10.9154 3.76244 8.77759 5.1909C6.63975 6.61935 4.97351 8.64968 3.98957 11.0251C3.00563 13.4006 2.74819 16.0144 3.2498 18.5362C3.75141 21.0579 4.98953 23.3743 6.80762 25.1924C8.6257 27.0105 10.9421 28.2486 13.4638 28.7502C15.9856 29.2518 18.5995 28.9944 20.9749 28.0104C23.3503 27.0265 25.3807 25.3603 26.8091 23.2224C28.2376 21.0846 29 18.5712 29 16C28.9961 12.5534 27.6252 9.24905 25.1881 6.81192C22.751 4.37479 19.4466 3.0039 16 3V3ZM19 20.9993C19.2652 20.9993 19.5196 21.1046 19.7071 21.2922C19.8946 21.4797 20 21.7341 20 21.9993C20 22.2645 19.8946 22.5188 19.7071 22.7064C19.5196 22.8939 19.2652 22.9993 19 22.9993H13.0397C13.0264 22.9998 13.0131 23.0001 12.9999 23.0001C12.8125 23 12.6288 22.9473 12.4699 22.8479C12.311 22.7485 12.1832 22.6064 12.1011 22.4379C12.019 22.2695 11.9859 22.0813 12.0055 21.8949C12.0251 21.7085 12.0968 21.5314 12.2122 21.3837L17.6713 14.0992C17.824 13.8669 17.9265 13.6053 17.9725 13.3311C18.0184 13.057 18.0067 12.7762 17.9381 12.5068C17.8695 12.2374 17.7455 11.9853 17.574 11.7664C17.4025 11.5476 17.1873 11.367 16.9421 11.236C16.6969 11.105 16.4271 11.0266 16.1498 11.0057C15.8726 10.9848 15.5941 11.0219 15.332 11.1146C15.0699 11.2074 14.8301 11.3538 14.6277 11.5444C14.4254 11.735 14.265 11.9657 14.1567 12.2218C14.1056 12.3428 14.0311 12.4524 13.9376 12.5446C13.844 12.6368 13.7332 12.7096 13.6115 12.759C13.4898 12.8083 13.3596 12.8332 13.2283 12.8323C13.097 12.8313 12.9671 12.8045 12.8462 12.7533C12.7252 12.7021 12.6156 12.6277 12.5234 12.5341C12.4312 12.4406 12.3584 12.3298 12.309 12.2081C12.2597 12.0864 12.2348 11.9562 12.2357 11.8249C12.2367 11.6935 12.2635 11.5637 12.3147 11.4427C12.5319 10.9289 12.8543 10.4661 13.261 10.0842C13.6677 9.70226 14.1498 9.40964 14.6763 9.2251C15.2028 9.04057 15.7621 8.9682 16.3183 9.01266C16.8744 9.05711 17.4151 9.2174 17.9056 9.48323C18.3961 9.74906 18.8256 10.1146 19.1665 10.5562C19.5074 10.9979 19.7521 11.506 19.8849 12.0479C20.0178 12.5897 20.0358 13.1534 19.9379 13.7027C19.84 14.2519 19.6282 14.7746 19.3163 15.2372C19.3071 15.2507 19.2977 15.264 19.2878 15.2771L14.9996 20.9993L19 20.9993Z"/>
</svg>
