<svg viewBox="0 0 32 32" xmlns="http://www.w3.org/2000/svg">
<path d="M26 4H6C5.46975 4.00061 4.9614 4.21151 4.58646 4.58646C4.21151 4.9614 4.00061 5.46975 4 6V26C4.00061 26.5302 4.21151 27.0386 4.58646 27.4135C4.9614 27.7885 5.46975 27.9994 6 28H26C26.5302 27.9994 27.0386 27.7885 27.4135 27.4135C27.7885 27.0386 27.9994 26.5302 28 26V6C27.9994 5.46975 27.7885 4.9614 27.4135 4.58646C27.0386 4.21151 26.5302 4.00061 26 4ZM19.5 22C19.5 22.2652 19.3946 22.5196 19.2071 22.7071C19.0196 22.8946 18.7652 23 18.5 23C18.2348 23 17.9804 22.8946 17.7929 22.7071C17.6054 22.5196 17.5 22.2652 17.5 22V19H12.5C12.3401 19 12.1825 18.9616 12.0404 18.8881C11.8984 18.8146 11.7761 18.7081 11.6837 18.5775C11.5913 18.447 11.5316 18.2962 11.5096 18.1378C11.4875 17.9794 11.5038 17.818 11.557 17.6672L14.5568 9.16718C14.645 8.91708 14.829 8.71229 15.0683 8.59786C15.3076 8.48343 15.5825 8.46873 15.8326 8.557C16.0827 8.64527 16.2875 8.82928 16.4019 9.06854C16.5163 9.30781 16.531 9.58273 16.4428 9.83282L13.9133 17H17.5V14C17.5 13.7348 17.6054 13.4804 17.7929 13.2929C17.9804 13.1054 18.2348 13 18.5 13C18.7652 13 19.0196 13.1054 19.2071 13.2929C19.3946 13.4804 19.5 13.7348 19.5 14V22Z"/>
</svg>
