<svg viewBox="0 0 32 32" xmlns="http://www.w3.org/2000/svg">
<path d="M16 3C13.4288 3 10.9154 3.76244 8.77759 5.1909C6.63975 6.61935 4.97351 8.64968 3.98957 11.0251C3.00563 13.4006 2.74819 16.0144 3.2498 18.5362C3.75141 21.0579 4.98953 23.3743 6.80762 25.1924C8.6257 27.0105 10.9421 28.2486 13.4638 28.7502C15.9856 29.2518 18.5995 28.9944 20.9749 28.0104C23.3503 27.0265 25.3807 25.3603 26.8091 23.2224C28.2376 21.0846 29 18.5712 29 16C28.9961 12.5534 27.6252 9.24905 25.1881 6.81192C22.751 4.37479 19.4466 3.0039 16 3V3ZM19.5 22C19.5 22.2652 19.3946 22.5196 19.2071 22.7071C19.0196 22.8946 18.7652 23 18.5 23C18.2348 23 17.9804 22.8946 17.7929 22.7071C17.6054 22.5196 17.5 22.2652 17.5 22V19H12.5C12.3401 19 12.1825 18.9616 12.0404 18.8881C11.8984 18.8146 11.7761 18.7081 11.6837 18.5776C11.5913 18.447 11.5316 18.2962 11.5096 18.1378C11.4875 17.9794 11.5038 17.8181 11.557 17.6672L14.5568 9.16724C14.6005 9.0434 14.6681 8.92938 14.7559 8.8317C14.8436 8.73401 14.9498 8.65457 15.0683 8.5979C15.1867 8.54124 15.3152 8.50846 15.4463 8.50144C15.5775 8.49442 15.7087 8.5133 15.8325 8.557C15.9564 8.6007 16.0704 8.66836 16.1681 8.75613C16.2657 8.84389 16.3452 8.95003 16.4019 9.0685C16.4585 9.18696 16.4913 9.31543 16.4983 9.44656C16.5053 9.5777 16.4865 9.70893 16.4428 9.83276L13.9133 17H17.5V14C17.5 13.7348 17.6054 13.4804 17.7929 13.2929C17.9804 13.1054 18.2348 13 18.5 13C18.7652 13 19.0196 13.1054 19.2071 13.2929C19.3946 13.4804 19.5 13.7348 19.5 14V22Z"/>
</svg>
