<svg viewBox="0 0 32 32" xmlns="http://www.w3.org/2000/svg">
<path d="M26 4H6C5.46975 4.00061 4.9614 4.21151 4.58646 4.58646C4.21151 4.9614 4.00061 5.46975 4 6V26C4.00061 26.5302 4.21151 27.0386 4.58646 27.4135C4.9614 27.7885 5.46975 27.9994 6 28H26C26.5302 27.9994 27.0386 27.7885 27.4135 27.4135C27.7885 27.0386 27.9994 26.5302 28 26V6C27.9994 5.46975 27.7885 4.9614 27.4135 4.58646C27.0386 4.21151 26.5302 4.00061 26 4ZM18.6821 22.1821C18.2643 22.5999 17.7683 22.9313 17.2224 23.1575C16.6764 23.3836 16.0913 23.5 15.5004 23.5C14.9095 23.5 14.3244 23.3836 13.7785 23.1575C13.2326 22.9313 12.7365 22.5999 12.3187 22.1821C12.1312 21.9945 12.0258 21.7402 12.0259 21.4749C12.0259 21.2097 12.1312 20.9554 12.3188 20.7678C12.5063 20.5803 12.7607 20.4749 13.0259 20.475C13.2911 20.475 13.5455 20.5803 13.733 20.7679C14.0237 21.0585 14.3816 21.2729 14.7749 21.3922C15.1683 21.5115 15.585 21.5319 15.9881 21.4517C16.3913 21.3715 16.7684 21.1931 17.0861 20.9323C17.4038 20.6715 17.6523 20.3364 17.8096 19.9566C17.9669 19.5769 18.0281 19.1642 17.9878 18.7552C17.9476 18.3461 17.807 17.9533 17.5787 17.6115C17.3503 17.2697 17.0412 16.9895 16.6787 16.7958C16.3162 16.602 15.9115 16.5006 15.5005 16.5005C15.3176 16.5006 15.1382 16.4504 14.9818 16.3555C14.8254 16.2606 14.698 16.1247 14.6135 15.9625C14.529 15.8002 14.4907 15.6179 14.5026 15.4354C14.5145 15.2529 14.5763 15.0771 14.6811 14.9272L17.0791 11.5H13C12.7348 11.5 12.4804 11.3946 12.2929 11.2071C12.1054 11.0196 12 10.7652 12 10.5C12 10.2348 12.1054 9.98043 12.2929 9.79289C12.4804 9.60536 12.7348 9.5 13 9.5H18.9993C19.1822 9.49999 19.3616 9.55015 19.518 9.64503C19.6744 9.7399 19.8017 9.87585 19.8862 10.0381C19.9707 10.2003 20.0091 10.3826 19.9972 10.5652C19.9852 10.7477 19.9235 10.9234 19.8186 11.0733L17.1917 14.8279C17.88 15.1074 18.4885 15.5529 18.9629 16.1247C19.4372 16.6966 19.7627 17.3769 19.9103 18.105C20.0579 18.8332 20.0229 19.5865 19.8086 20.2979C19.5944 21.0093 19.2073 21.6566 18.6821 22.1821V22.1821Z"/>
</svg>
