<svg   viewBox="0 0 32 32" fill="none" xmlns="http://www.w3.org/2000/svg">
<path d="M16 21C17.6569 21 19 18.7614 19 16C19 13.2386 17.6569 11 16 11C14.3431 11 13 13.2386 13 16C13 18.7614 14.3431 21 16 21Z" fill="black"/>
<path d="M16 3C13.4288 3 10.9154 3.76244 8.77759 5.1909C6.63975 6.61935 4.97351 8.64968 3.98957 11.0251C3.00563 13.4006 2.74819 16.0144 3.2498 18.5362C3.75141 21.0579 4.98953 23.3743 6.80762 25.1924C8.6257 27.0105 10.9421 28.2486 13.4638 28.7502C15.9856 29.2518 18.5995 28.9944 20.9749 28.0104C23.3503 27.0265 25.3807 25.3603 26.8091 23.2224C28.2376 21.0846 29 18.5712 29 16C28.996 12.5534 27.6251 9.24912 25.188 6.81201C22.7509 4.3749 19.4466 3.00398 16 3V3ZM16 23C12.5459 23 11 19.4844 11 16C11 12.5156 12.5459 9 16 9C19.4541 9 21 12.5156 21 16C21 19.4844 19.4541 23 16 23Z" fill="black"/>
</svg>
