<svg viewBox="0 0 32 32" xmlns="http://www.w3.org/2000/svg">
<path d="M16 3C13.4288 3 10.9154 3.76244 8.77759 5.1909C6.63975 6.61935 4.97351 8.64968 3.98957 11.0251C3.00563 13.4006 2.74819 16.0144 3.2498 18.5362C3.75141 21.0579 4.98953 23.3743 6.80762 25.1924C8.6257 27.0105 10.9421 28.2486 13.4638 28.7502C15.9856 29.2518 18.5995 28.9944 20.9749 28.0104C23.3503 27.0265 25.3807 25.3603 26.8091 23.2224C28.2376 21.0846 29 18.5712 29 16C28.9961 12.5534 27.6252 9.24905 25.1881 6.81192C22.751 4.37479 19.4466 3.0039 16 3V3ZM18.6823 22.182C17.8383 23.0259 16.6938 23.5 15.5003 23.5C14.3069 23.5 13.1623 23.0259 12.3184 22.182C12.2255 22.0891 12.1518 21.9789 12.1016 21.8576C12.0513 21.7362 12.0255 21.6062 12.0255 21.4749C12.0255 21.3435 12.0513 21.2135 12.1016 21.0921C12.1518 20.9708 12.2255 20.8606 12.3184 20.7677C12.5059 20.5802 12.7603 20.4748 13.0255 20.4748C13.1568 20.4748 13.2869 20.5007 13.4082 20.5509C13.5296 20.6012 13.6398 20.6748 13.7327 20.7677C14.0234 21.0584 14.3813 21.2729 14.7747 21.3923C15.1681 21.5116 15.5849 21.5321 15.9881 21.4519C16.3913 21.3716 16.7686 21.1932 17.0863 20.9324C17.4041 20.6716 17.6527 20.3364 17.81 19.9566C17.9674 19.5768 18.0286 19.164 17.9883 18.7549C17.948 18.3458 17.8074 17.9529 17.579 17.611C17.3506 17.2692 17.0414 16.989 16.6788 16.7952C16.3163 16.6014 15.9115 16.5 15.5004 16.5C15.3175 16.5 15.138 16.4498 14.9816 16.355C14.8253 16.2601 14.6979 16.1241 14.6134 15.9619C14.5289 15.7996 14.4905 15.6173 14.5025 15.4348C14.5144 15.2523 14.5762 15.0765 14.681 14.9266L17.0795 11.499H12.9996C12.7344 11.499 12.4801 11.3937 12.2925 11.2061C12.105 11.0186 11.9996 10.7642 11.9996 10.499C11.9996 10.2338 12.105 9.97945 12.2925 9.79192C12.4801 9.60438 12.7344 9.49902 12.9996 9.49902H18.9996C19.1826 9.49902 19.362 9.54918 19.5184 9.64406C19.6748 9.73895 19.8021 9.8749 19.8866 10.0371C19.9711 10.1994 20.0095 10.3817 19.9975 10.5642C19.9856 10.7468 19.9239 10.9225 19.819 11.0724L17.1917 14.8273C17.8801 15.1068 18.4887 15.5523 18.9631 16.1242C19.4375 16.696 19.7631 17.3764 19.9107 18.1046C20.0582 18.8328 20.0233 19.5863 19.809 20.2977C19.5946 21.0092 19.2076 21.6565 18.6823 22.182V22.182Z"/>
</svg>
