<svg   viewBox="0 0 32 32" fill="none" xmlns="http://www.w3.org/2000/svg">
<path d="M26 4H6C5.46975 4.00061 4.9614 4.21151 4.58646 4.58646C4.21151 4.9614 4.00061 5.46975 4 6V26C4.00061 26.5302 4.21151 27.0386 4.58646 27.4135C4.9614 27.7885 5.46975 27.9994 6 28H26C26.5302 27.9994 27.0386 27.7885 27.4135 27.4135C27.7885 27.0386 27.9994 26.5302 28 26V6C27.9994 5.46975 27.7885 4.9614 27.4135 4.58646C27.0386 4.21151 26.5302 4.00061 26 4ZM19.9487 10.8163L15.9487 22.8163C15.9073 22.941 15.8417 23.0563 15.7556 23.1556C15.6696 23.255 15.5649 23.3364 15.4473 23.3952C15.3298 23.454 15.2019 23.4891 15.0708 23.4985C14.9397 23.5078 14.8081 23.4912 14.6834 23.4497C14.5587 23.4081 14.4435 23.3424 14.3442 23.2563C14.245 23.1701 14.1637 23.0653 14.105 22.9477C14.0463 22.8301 14.0113 22.7021 14.0021 22.5711C13.9929 22.44 14.0096 22.3083 14.0513 22.1837L17.6125 11.5H13C12.7348 11.5 12.4804 11.3946 12.2929 11.2071C12.1054 11.0196 12 10.7652 12 10.5C12 10.2348 12.1054 9.98043 12.2929 9.79289C12.4804 9.60536 12.7348 9.5 13 9.5H19C19.1585 9.5 19.3147 9.53765 19.4557 9.60985C19.5968 9.68206 19.7186 9.78675 19.8113 9.9153C19.9039 10.0438 19.9647 10.1926 19.9886 10.3492C20.0125 10.5059 19.9988 10.666 19.9487 10.8163V10.8163Z" fill="black"/>
</svg>
