<svg viewBox="0 0 32 32" xmlns="http://www.w3.org/2000/svg">
<path d="M20.6468 15.3419C22.141 16.8487 22.9767 18.8865 22.9705 21.0085C22.9644 23.1305 22.117 25.1634 20.6142 26.6615C19.1113 28.1597 17.0757 29.0006 14.9537 29C12.8317 28.9994 10.7965 28.1573 9.2945 26.6584C9.20143 26.5657 9.12751 26.4557 9.07698 26.3344C9.02645 26.2132 9.00029 26.0832 9 25.9519C8.99971 25.8206 9.02529 25.6905 9.07529 25.569C9.12528 25.4476 9.19871 25.3372 9.29137 25.2441C9.38404 25.1511 9.49413 25.0772 9.61535 25.0267C9.73658 24.9761 9.86657 24.95 9.9979 24.9497C10.1292 24.9495 10.2593 24.9751 10.3808 25.0251C10.5022 25.0751 10.6126 25.1485 10.7056 25.2412C11.5446 26.0807 12.6136 26.6526 13.7776 26.8844C14.9416 27.1163 16.1482 26.9977 17.2447 26.5437C18.3413 26.0897 19.2786 25.3207 19.9381 24.334C20.5975 23.3472 20.9495 22.187 20.9495 21.0002C20.9495 19.8133 20.5975 18.6532 19.9381 17.6664C19.2786 16.6796 18.3413 15.9106 17.2447 15.4566C16.1482 15.0026 14.9416 14.8841 13.7776 15.1159C12.6136 15.3478 11.5446 15.9196 10.7056 16.7592C10.5559 16.9083 10.3627 17.0061 10.1539 17.0387C9.94507 17.0712 9.73131 17.0367 9.54329 16.9402C9.35528 16.8437 9.20268 16.69 9.10741 16.5014C9.01214 16.3127 8.97909 16.0987 9.01301 15.8901L10.9717 3.8396C11.0098 3.60527 11.1301 3.39213 11.3109 3.23831C11.4917 3.08449 11.7214 3.00002 11.9588 3H22.0001C22.2653 3 22.5196 3.10536 22.7072 3.29289C22.8947 3.48043 23.0001 3.73478 23.0001 4C23.0001 4.26522 22.8947 4.51957 22.7072 4.70711C22.5196 4.89464 22.2653 5 22.0001 5H12.8094L11.3718 13.8444C12.8805 13.094 14.5863 12.8349 16.2498 13.1035C17.9133 13.3721 19.4509 14.1548 20.6468 15.3419L20.6468 15.3419Z"/>
</svg>
