<svg   viewBox="0 0 32 32" fill="none" xmlns="http://www.w3.org/2000/svg">
<path d="M18.5 18.5C18.5 18.9945 18.3534 19.4778 18.0787 19.8889C17.804 20.3 17.4135 20.6205 16.9567 20.8097C16.4999 20.9989 15.9972 21.0484 15.5123 20.952C15.0273 20.8555 14.5819 20.6174 14.2322 20.2678C13.8826 19.9181 13.6445 19.4727 13.548 18.9877C13.4516 18.5028 13.5011 18.0001 13.6903 17.5433C13.8795 17.0865 14.2 16.696 14.6111 16.4213C15.0222 16.1466 15.5055 16 16 16C16.6628 16.0007 17.2983 16.2644 17.767 16.733C18.2356 17.2017 18.4993 17.8372 18.5 18.5V18.5ZM28 6V26C27.9994 26.5302 27.7885 27.0386 27.4135 27.4135C27.0386 27.7885 26.5302 27.9994 26 28H6C5.46975 27.9994 4.9614 27.7885 4.58646 27.4135C4.21151 27.0386 4.00061 26.5302 4 26V6C4.00061 5.46975 4.21151 4.9614 4.58646 4.58646C4.9614 4.21151 5.46975 4.00061 6 4H26C26.5302 4.00061 27.0386 4.21151 27.4135 4.58646C27.7885 4.9614 27.9994 5.46975 28 6V6ZM20.5 18.5C20.4987 17.3069 20.0241 16.1631 19.1805 15.3195C18.3369 14.4759 17.1931 14.0013 16 14C15.9237 14 15.8479 14.0019 15.7726 14.0058L17.8586 10.5118C17.9942 10.2841 18.0339 10.0119 17.9689 9.75497C17.9039 9.49804 17.7396 9.27741 17.512 9.14157C17.2844 9.00572 17.0123 8.96577 16.7553 9.03048C16.4983 9.09519 16.2775 9.25928 16.1414 9.48669L12.1107 16.2377C12.103 16.2505 12.0969 16.2639 12.0899 16.277C11.7493 16.8758 11.5509 17.5449 11.5098 18.2326C11.4687 18.9202 11.5861 19.6081 11.8529 20.2433C12.1197 20.8784 12.5288 21.4438 13.0486 21.8959C13.5684 22.3479 14.1851 22.6746 14.8512 22.8506C15.5172 23.0267 16.2147 23.0474 16.89 22.9113C17.5654 22.7751 18.2004 22.4857 18.7462 22.0654C19.292 21.645 19.7339 21.1049 20.038 20.4868C20.3421 19.8686 20.5001 19.1889 20.5 18.5V18.5Z" fill="black"/>
</svg>
