<svg   viewBox="0 0 32 32" fill="none" xmlns="http://www.w3.org/2000/svg">
<path d="M23 27.9985C23 28.2638 22.8946 28.5181 22.7071 28.7056C22.5196 28.8932 22.2652 28.9985 22 28.9985H10.0544C10.0363 28.9996 10.0181 29.0001 9.99988 29.0001C9.81186 29 9.62767 28.9469 9.46844 28.8469C9.30921 28.7469 9.18137 28.6041 9.09959 28.4348C9.01781 28.2655 8.9854 28.0766 9.00606 27.8897C9.02673 27.7028 9.09964 27.5255 9.21643 27.3782L20.1598 12.7755C20.5461 12.1961 20.8072 11.5424 20.9263 10.8563C21.0454 10.1702 21.0199 9.4668 20.8514 8.79113C20.683 8.11545 20.3753 7.4824 19.948 6.93252C19.5207 6.38265 18.9833 5.92807 18.3702 5.59789C17.7571 5.26771 17.0818 5.06922 16.3875 5.01512C15.6933 4.96103 14.9954 5.05252 14.3385 5.28374C13.6816 5.51496 13.0803 5.88081 12.573 6.35786C12.0657 6.83492 11.6637 7.41266 11.3926 8.05408C11.2893 8.29835 11.0932 8.49158 10.8474 8.59125C10.6016 8.69093 10.3263 8.68889 10.082 8.58558C9.83776 8.48227 9.64454 8.28616 9.54486 8.04038C9.44519 7.79461 9.44723 7.5193 9.55054 7.27503C9.93067 6.37574 10.4947 5.56589 11.2064 4.89752C11.9181 4.22915 12.7617 3.71702 13.6831 3.39404C14.6045 3.07106 15.5832 2.94437 16.5564 3.0221C17.5297 3.09983 18.4759 3.38027 19.3343 3.8454C20.1927 4.31053 20.9444 4.95006 21.541 5.72293C22.1376 6.49579 22.5659 7.38489 22.7985 8.33313C23.031 9.28136 23.0627 10.2678 22.8914 11.229C22.7202 12.1901 22.3497 13.1049 21.804 13.9144C21.7948 13.928 21.7854 13.9413 21.7755 13.9544L12.0001 26.9985H22C22.2652 26.9986 22.5196 27.1039 22.7071 27.2915C22.8946 27.479 23 27.7333 23 27.9985Z" fill="black"/>
</svg>
