<svg   viewBox="0 0 32 32" fill="none" xmlns="http://www.w3.org/2000/svg">
<path d="M23 21.0006C23.0001 22.5827 22.531 24.1293 21.6521 25.4448C20.7731 26.7603 19.5239 27.7856 18.0622 28.3911C16.6005 28.9965 14.9921 29.155 13.4404 28.8463C11.8887 28.5376 10.4634 27.7757 9.34473 26.657C9.25187 26.5641 9.17822 26.4539 9.12797 26.3325C9.07773 26.2112 9.05187 26.0812 9.05188 25.9499C9.05189 25.8185 9.07776 25.6885 9.12802 25.5672C9.17829 25.4459 9.25195 25.3356 9.34482 25.2428C9.43768 25.1499 9.54793 25.0763 9.66926 25.026C9.79058 24.9758 9.92062 24.9499 10.0519 24.9499C10.1833 24.9499 10.3133 24.9758 10.4346 25.0261C10.5559 25.0763 10.6662 25.15 10.759 25.2429C11.4567 25.9404 12.3156 26.4551 13.2597 26.7414C14.2038 27.0277 15.2039 27.0768 16.1715 26.8843C17.1391 26.6917 18.0442 26.2636 18.8068 25.6377C19.5694 25.0118 20.1659 24.2075 20.5434 23.296C20.9209 22.3845 21.0678 21.3941 20.9711 20.4123C20.8744 19.4305 20.537 18.4877 19.989 17.6674C19.4409 16.8471 18.6989 16.1746 17.8289 15.7095C16.9588 15.2445 15.9875 15.0011 15.001 15.0011C14.8181 15.0011 14.6387 14.951 14.4823 14.8561C14.3259 14.7612 14.1985 14.6253 14.114 14.463C14.0295 14.3008 13.9912 14.1185 14.0031 13.936C14.015 13.7535 14.0768 13.5777 14.1816 13.4279L20.0783 5H10C9.73478 5 9.48043 4.89464 9.29289 4.70711C9.10536 4.51957 9 4.26522 9 4C9 3.73478 9.10536 3.48043 9.29289 3.29289C9.48043 3.10536 9.73478 3 10 3H21.9984C22.1813 2.99999 22.3607 3.05014 22.5171 3.14501C22.6735 3.23988 22.8009 3.37583 22.8854 3.53806C22.9699 3.70028 23.0082 3.88258 22.9963 4.0651C22.9844 4.24763 22.9226 4.42338 22.8178 4.57324L16.7826 13.1991C18.5488 13.6041 20.1254 14.5962 21.2548 16.0132C22.3841 17.4303 22.9994 19.1886 23 21.0006Z" fill="black"/>
</svg>
