<svg viewBox="0 0 32 32" xmlns="http://www.w3.org/2000/svg">
<path d="M16 3C13.4288 3 10.9154 3.76244 8.77759 5.1909C6.63975 6.61935 4.97351 8.64968 3.98957 11.0251C3.00563 13.4006 2.74819 16.0144 3.2498 18.5362C3.75141 21.0579 4.98953 23.3743 6.80762 25.1924C8.6257 27.0105 10.9421 28.2486 13.4638 28.7502C15.9856 29.2518 18.5995 28.9944 20.9749 28.0104C23.3503 27.0265 25.3807 25.3603 26.8091 23.2224C28.2376 21.0846 29 18.5712 29 16C28.996 12.5534 27.6251 9.24912 25.188 6.81201C22.7509 4.3749 19.4466 3.00398 16 3V3ZM19.0039 21.7559C18.6092 22.1503 18.1406 22.4632 17.625 22.6766C17.1093 22.89 16.5567 22.9997 15.9986 22.9995C15.4406 22.9994 14.888 22.8893 14.3725 22.6755C13.857 22.4618 13.3886 22.1486 12.9941 21.7539C12.5997 21.3592 12.2868 20.8906 12.0734 20.375C11.86 19.8593 11.7503 19.3067 11.7505 18.7486C11.7506 18.1906 11.8607 17.638 12.0745 17.1225C12.2882 16.607 12.6014 16.1386 12.9961 15.7441C13.1186 15.6314 13.2483 15.5267 13.3844 15.4307C13.3729 15.4194 13.359 15.4117 13.3477 15.4004C12.9995 15.0521 12.7234 14.6387 12.535 14.1837C12.3467 13.7287 12.2498 13.2411 12.25 12.7486C12.2502 12.2562 12.3474 11.7686 12.5361 11.3137C12.7247 10.8589 13.0012 10.4456 13.3496 10.0977C14.7617 8.68359 17.2363 8.68164 18.6523 10.0996C19.0005 10.4479 19.2767 10.8613 19.465 11.3163C19.6533 11.7713 19.7502 12.2589 19.75 12.7514C19.7498 13.2438 19.6526 13.7314 19.4639 14.1863C19.2753 14.6411 18.9988 15.0544 18.6504 15.4023C18.6397 15.4131 18.6265 15.4203 18.6156 15.4309C18.7524 15.5274 18.8828 15.6327 19.0059 15.7461C19.4005 16.1408 19.7135 16.6093 19.9269 17.125C20.1404 17.6406 20.2502 18.1933 20.25 18.7514C20.2498 19.3095 20.1397 19.8621 19.9259 20.3776C19.7121 20.8931 19.3988 21.3615 19.0039 21.7559V21.7559Z"/>
<path d="M17.2363 13.9883C17.4813 13.7438 17.6483 13.4321 17.7161 13.0927C17.7839 12.7532 17.7495 12.4013 17.6174 12.0814C17.4852 11.7615 17.2611 11.488 16.9734 11.2955C16.6858 11.1029 16.3475 11 16.0014 10.9998C15.6552 10.9995 15.3168 11.1019 15.0289 11.2939C14.7409 11.486 14.5164 11.7592 14.3837 12.0789C14.251 12.3986 14.2161 12.7504 14.2834 13.0899C14.3507 13.4295 14.5171 13.7414 14.7617 13.9863C15.0946 14.3053 15.5376 14.4835 15.9986 14.4839C16.4596 14.4843 16.903 14.3067 17.2363 13.9883Z"/>
<path d="M16 16.5C15.5551 16.5 15.1202 16.6318 14.7502 16.8789C14.3803 17.126 14.0919 17.4772 13.9215 17.8882C13.7511 18.2992 13.7064 18.7515 13.7931 19.1878C13.8797 19.6242 14.0938 20.0251 14.4082 20.3398C14.8366 20.7491 15.4062 20.9777 15.9986 20.978C16.5911 20.9784 17.161 20.7505 17.5898 20.3418C17.9047 20.0272 18.1192 19.6264 18.2062 19.1899C18.2933 18.7534 18.2489 18.3009 18.0787 17.8896C17.9085 17.4784 17.6202 17.1269 17.2501 16.8795C16.8801 16.6321 16.4451 16.5001 16 16.5V16.5Z"/>
</svg>
