<svg   viewBox="0 0 32 32" fill="none" xmlns="http://www.w3.org/2000/svg">
<path d="M25.7043 7.70707L7.70431 25.7071C7.51674 25.8944 7.26245 25.9996 6.99735 25.9995C6.73224 25.9994 6.47802 25.8941 6.29057 25.7066C6.10311 25.5192 5.99776 25.2649 5.99768 24.9998C5.9976 24.7347 6.10279 24.4805 6.29012 24.2929L24.2901 6.29288C24.4777 6.10554 24.732 6.00036 24.9971 6.00044C25.2622 6.00052 25.5164 6.10587 25.7039 6.29333C25.8913 6.48078 25.9967 6.735 25.9968 7.0001C25.9968 7.26521 25.8916 7.51949 25.7043 7.70707V7.70707ZM6.31527 12.682C5.5773 11.9456 5.11752 10.9762 5.01432 9.93881C4.91112 8.90145 5.17088 7.8604 5.74932 6.99312C6.32777 6.12584 7.18909 5.48601 8.18647 5.1827C9.18385 4.87938 10.2556 4.93135 11.2189 5.32975C12.1823 5.72816 12.9776 6.44832 13.4694 7.36751C13.9612 8.28669 14.119 9.34798 13.916 10.3705C13.7129 11.393 13.1614 12.3134 12.3557 12.9749C11.5499 13.6363 10.5397 13.9979 9.49722 13.9979C8.90618 13.9998 8.32064 13.8844 7.77446 13.6586C7.22829 13.4327 6.73233 13.1007 6.31527 12.682V12.682ZM6.99722 9.49998C6.99722 9.9111 7.09861 10.3159 7.29241 10.6785C7.48621 11.0411 7.76645 11.3502 8.10829 11.5787C8.45013 11.8071 8.84302 11.9477 9.25217 11.9879C9.66132 12.0282 10.0741 11.967 10.4539 11.8097C10.8338 11.6524 11.1689 11.4038 11.4297 11.086C11.6906 10.7682 11.869 10.3909 11.9492 9.98771C12.0294 9.58448 12.0089 9.16769 11.8896 8.77427C11.7702 8.38084 11.5557 8.02292 11.265 7.73221V7.73218C10.9153 7.38255 10.4699 7.14445 9.98493 7.04799C9.49998 6.95153 8.99731 7.00104 8.5405 7.19026C8.08368 7.37948 7.69324 7.69992 7.41853 8.11104C7.14383 8.52217 6.99721 9.00552 6.99722 9.49998V9.49998ZM26.9972 22.5C26.9972 23.5411 26.6362 24.55 25.9758 25.3548C25.3153 26.1596 24.3963 26.7104 23.3752 26.9136C22.3541 27.1167 21.2941 26.9595 20.3759 26.4687C19.4578 25.9779 18.7382 25.184 18.3397 24.2221C17.9413 23.2603 17.8887 22.1901 18.1909 21.1938C18.4932 20.1975 19.1315 19.3368 19.9971 18.7584C20.8627 18.18 21.9021 17.9196 22.9382 18.0217C23.9743 18.1237 24.943 18.5818 25.6792 19.318C26.0984 19.7349 26.4307 20.2308 26.6569 20.777C26.8832 21.3231 26.9988 21.9088 26.9972 22.5V22.5ZM24.9972 22.5C24.9972 21.9216 24.7967 21.3611 24.4298 20.914C24.0628 20.4669 23.5522 20.1608 22.9849 20.048C22.4177 19.9351 21.8288 20.0225 21.3187 20.2951C20.8086 20.5678 20.4088 21.0089 20.1875 21.5432C19.9661 22.0776 19.9369 22.6722 20.1048 23.2257C20.2727 23.7792 20.6273 24.2573 21.1083 24.5786C21.5892 24.9 22.1666 25.0446 22.7422 24.9879C23.3178 24.9312 23.856 24.6767 24.265 24.2677C24.4979 24.0361 24.6825 23.7606 24.8082 23.4572C24.9339 23.1538 24.9981 22.8284 24.9972 22.5V22.5Z" fill="black"/>
</svg>
