<svg   viewBox="0 0 32 32" fill="none" xmlns="http://www.w3.org/2000/svg">
<path d="M25.7075 6.29288C25.52 6.10535 25.2656 6 25.0004 6C24.7352 6 24.4809 6.10535 24.2933 6.29288L6.29333 24.2929C6.20038 24.3857 6.12663 24.496 6.0763 24.6173C6.02597 24.7387 6.00004 24.8687 6 25.0001C5.99996 25.1315 6.0258 25.2616 6.07606 25.3829C6.12631 25.5043 6.19999 25.6146 6.29289 25.7075C6.38578 25.8004 6.49607 25.8741 6.61745 25.9243C6.73883 25.9746 6.86892 26.0004 7.00029 26.0004C7.13167 26.0004 7.26174 25.9744 7.38309 25.9241C7.50444 25.8738 7.61468 25.8 7.70752 25.7071L25.7075 7.70706C25.8004 7.61421 25.8741 7.50398 25.9243 7.38265C25.9746 7.26133 26.0004 7.13129 26.0004 6.99997C26.0004 6.86865 25.9746 6.73861 25.9243 6.61729C25.8741 6.49597 25.8004 6.38573 25.7075 6.29288V6.29288Z" fill="black"/>
<path d="M8 14C8 14.2652 8.10536 14.5196 8.29289 14.7071C8.48043 14.8946 8.73478 15 9 15C9.26522 15 9.51957 14.8946 9.70711 14.7071C9.89464 14.5196 10 14.2652 10 14V10H14C14.2652 10 14.5196 9.89464 14.7071 9.70711C14.8946 9.51957 15 9.26522 15 9C15 8.73478 14.8946 8.48043 14.7071 8.29289C14.5196 8.10536 14.2652 8 14 8H10V4C10 3.73478 9.89464 3.48043 9.70711 3.29289C9.51957 3.10536 9.26522 3 9 3C8.73478 3 8.48043 3.10536 8.29289 3.29289C8.10536 3.48043 8 3.73478 8 4V8H4C3.73478 8 3.48043 8.10536 3.29289 8.29289C3.10536 8.48043 3 8.73478 3 9C3 9.26522 3.10536 9.51957 3.29289 9.70711C3.48043 9.89464 3.73478 10 4 10H8V14Z" fill="black"/>
<path d="M28 22H18C17.7348 22 17.4804 22.1054 17.2929 22.2929C17.1054 22.4804 17 22.7348 17 23C17 23.2652 17.1054 23.5196 17.2929 23.7071C17.4804 23.8946 17.7348 24 18 24H28C28.2652 24 28.5196 23.8946 28.7071 23.7071C28.8946 23.5196 29 23.2652 29 23C29 22.7348 28.8946 22.4804 28.7071 22.2929C28.5196 22.1054 28.2652 22 28 22Z" fill="black"/>
</svg>
