<svg   viewBox="0 0 32 32" fill="none" xmlns="http://www.w3.org/2000/svg">
<path d="M9.00001 26C8.79645 26 8.59773 25.9379 8.43041 25.822C8.26309 25.706 8.13515 25.5418 8.06367 25.3512L2.06367 9.35115C1.97055 9.10282 1.97988 8.82766 2.08963 8.58621C2.19938 8.34476 2.40055 8.1568 2.64888 8.06367C2.89721 7.97055 3.17237 7.97989 3.41382 8.08963C3.65527 8.19938 3.84323 8.40055 3.93635 8.64888L9.00001 22.152L14.0637 8.64888C14.1351 8.45827 14.2631 8.29402 14.4304 8.17807C14.5977 8.06213 14.7964 8 15 8.00001H29C29.1313 8.00001 29.2614 8.02587 29.3827 8.07613C29.504 8.12638 29.6143 8.20004 29.7071 8.2929C29.8 8.38576 29.8736 8.496 29.9239 8.61733C29.9742 8.73865 30 8.86869 30 9.00001V12C30 12.2652 29.8947 12.5196 29.7071 12.7071C29.5196 12.8947 29.2652 13 29 13C28.7348 13 28.4804 12.8947 28.2929 12.7071C28.1054 12.5196 28 12.2652 28 12V10H15.693L9.93635 25.3512C9.86488 25.5418 9.73694 25.706 9.56962 25.822C9.4023 25.9379 9.20358 26 9.00001 26V26Z" fill="black"/>
</svg>
