<svg   viewBox="0 0 32 32" fill="none" xmlns="http://www.w3.org/2000/svg">
<path d="M28 6H4C3.86868 6 3.73864 6.02586 3.61731 6.07611C3.49598 6.12637 3.38574 6.20003 3.29288 6.29288C3.20003 6.38574 3.12637 6.49598 3.07611 6.61731C3.02586 6.73864 3 6.86868 3 7V24C3.00061 24.5302 3.21151 25.0386 3.58646 25.4135C3.9614 25.7885 4.46975 25.9994 5 26H27C27.5302 25.9994 28.0386 25.7885 28.4135 25.4135C28.7885 25.0386 28.9994 24.5302 29 24V7C29 6.86868 28.9741 6.73864 28.9239 6.61731C28.8736 6.49598 28.8 6.38574 28.7071 6.29288C28.6143 6.20003 28.504 6.12637 28.3827 6.07611C28.2614 6.02586 28.1313 6 28 6V6ZM5 14H10V18H5V14ZM12 14H27.0005L27.0008 18H12V14ZM5 20H10V24H5V20ZM27 24H12V20H27.001L27.0013 23.9999L27 24Z" fill="black"/>
</svg>
