<svg viewBox="0 0 32 32" xmlns="http://www.w3.org/2000/svg">
<path d="M30 17V25C30 25.2652 29.8947 25.5196 29.7071 25.7071C29.5196 25.8947 29.2652 26 29 26H21C20.8022 26 20.6089 25.9413 20.4445 25.8315C20.28 25.7216 20.1519 25.5654 20.0762 25.3827C20.0005 25.2 19.9807 24.9989 20.0193 24.805C20.0578 24.611 20.153 24.4328 20.2929 24.2929L23.5858 21L17 14.4143L12.7072 18.7071C12.5196 18.8946 12.2653 19 12 19C11.7348 19 11.4804 18.8946 11.2929 18.7071L2.29287 9.70712C2.20001 9.61425 2.12636 9.50401 2.07611 9.38268C2.02586 9.26135 1.99999 9.13131 2 8.99998C2.00001 8.86866 2.02588 8.73862 2.07614 8.61729C2.1264 8.49597 2.20006 8.38573 2.29293 8.29287C2.38579 8.20001 2.49604 8.12636 2.61737 8.07611C2.7387 8.02586 2.86874 7.99999 3.00006 8C3.13139 8.00001 3.26143 8.02588 3.38275 8.07614C3.50408 8.1264 3.61432 8.20006 3.70717 8.29293L12 16.5858L16.2929 12.2929C16.4804 12.1054 16.7348 12 17 12C17.2652 12 17.5196 12.1054 17.7072 12.2929L25 19.5858L28.2929 16.2929C28.4327 16.1531 28.6109 16.0578 28.8049 16.0192C28.9989 15.9806 29.1999 16.0004 29.3827 16.0761C29.5654 16.1518 29.7216 16.28 29.8315 16.4444C29.9414 16.6089 30 16.8022 30 17V17Z"/>
</svg>
