<svg viewBox="0 0 32 32" xmlns="http://www.w3.org/2000/svg">
<path d="M30 7V15C30 15.1978 29.9414 15.3911 29.8315 15.5556C29.7216 15.72 29.5654 15.8482 29.3827 15.9239C29.1999 15.9996 28.9989 16.0194 28.8049 15.9808C28.6109 15.9422 28.4327 15.8469 28.2929 15.7071L25 12.4143L17.7072 19.7071C17.5196 19.8946 17.2653 20 17 20C16.7348 20 16.4804 19.8946 16.2929 19.7071L12 15.4143L3.70718 23.7071C3.51964 23.8946 3.26529 24 3.00007 24C2.73484 24 2.48048 23.8947 2.29293 23.7072C2.10538 23.5196 2.00001 23.2653 2 23C1.99999 22.7348 2.10534 22.4805 2.29287 22.2929L11.2929 13.2929C11.4804 13.1054 11.7348 13 12 13C12.2653 13 12.5196 13.1054 12.7072 13.2929L17 17.5858L23.5858 11L20.2929 7.70709C20.153 7.56723 20.0578 7.38904 20.0193 7.19507C19.9807 7.00109 20.0005 6.80004 20.0762 6.61732C20.1519 6.43461 20.28 6.27843 20.4445 6.16855C20.6089 6.05867 20.8023 6.00002 21 6H29C29.2652 6 29.5196 6.10536 29.7071 6.2929C29.8947 6.48043 30 6.73478 30 7V7Z"/>
</svg>
