<svg viewBox="0 0 32 32" xmlns="http://www.w3.org/2000/svg">
<path d="M17.4146 16L25.7075 7.70712C25.8949 7.51954 26 7.26526 26 7.00015C25.9999 6.73505 25.8945 6.48083 25.7071 6.29338C25.5196 6.10592 25.2654 6.00057 25.0003 6.00049C24.7352 6.00041 24.4809 6.10559 24.2933 6.29293L16.0004 14.5858L7.70752 6.29293C7.51994 6.10559 7.26566 6.00041 7.00055 6.00049C6.73545 6.00057 6.48123 6.10592 6.29377 6.29338C6.10632 6.48083 6.00097 6.73505 6.00089 7.00015C6.0008 7.26526 6.10599 7.51954 6.29333 7.70712L14.5862 16L6.29333 24.2929C6.20038 24.3858 6.12663 24.496 6.0763 24.6174C6.02597 24.7387 6.00004 24.8688 6 25.0002C5.99996 25.1315 6.0258 25.2616 6.07606 25.383C6.12631 25.5044 6.19999 25.6147 6.29289 25.7076C6.38578 25.8005 6.49607 25.8741 6.61745 25.9244C6.73883 25.9746 6.86892 26.0005 7.00029 26.0004C7.13167 26.0004 7.26174 25.9745 7.38309 25.9241C7.50444 25.8738 7.61468 25.8001 7.70752 25.7071L16.0004 17.4142L24.2933 25.7071C24.4809 25.8945 24.7352 25.9996 25.0003 25.9996C25.2654 25.9995 25.5196 25.8941 25.7071 25.7067C25.8945 25.5192 25.9999 25.265 26 24.9999C26 24.7348 25.8949 24.4805 25.7075 24.2929L17.4146 16Z"/>
</svg>
