<svg   viewBox="0 0 32 32" fill="none" xmlns="http://www.w3.org/2000/svg">
<path d="M25 10V28C25 28.2652 24.8947 28.5196 24.7071 28.7071C24.5196 28.8947 24.2652 29 24 29C23.7348 29 23.4805 28.8947 23.2929 28.7071C23.1054 28.5196 23 28.2652 23 28V11H13V16C13 16.1978 12.9414 16.3911 12.8315 16.5556C12.7216 16.72 12.5654 16.8482 12.3827 16.9239C12.2 16.9996 11.9989 17.0194 11.8049 16.9808C11.6109 16.9422 11.4327 16.847 11.2929 16.7071L5.29288 10.7071C5.10535 10.5196 5 10.2652 5 10C5 9.73481 5.10535 9.48046 5.29288 9.29292L11.2929 3.29292C11.4327 3.15306 11.6109 3.05781 11.8049 3.01922C11.9989 2.98063 12.2 3.00043 12.3827 3.07612C12.5654 3.1518 12.7216 3.27998 12.8315 3.44443C12.9414 3.60888 13 3.80223 13 4.00002V9.00002H24C24.2652 9.00002 24.5196 9.10538 24.7071 9.29291C24.8947 9.48045 25 9.7348 25 10Z" fill="black"/>
</svg>
