<svg   viewBox="0 0 32 32" fill="none" xmlns="http://www.w3.org/2000/svg">
<path d="M28.7072 13.7071L22.7072 19.7071C22.5673 19.847 22.3891 19.9422 22.1951 19.9808C22.0011 20.0193 21.8001 19.9995 21.6174 19.9238C21.4346 19.8481 21.2785 19.72 21.1686 19.5555C21.0587 19.3911 21 19.1978 21 19V14H16C13.0836 14.0033 10.2877 15.1633 8.22546 17.2254C6.16328 19.2876 5.00329 22.0836 5 25C5 25.2652 4.89464 25.5196 4.70711 25.7071C4.51957 25.8946 4.26522 26 4 26C3.73478 26 3.48043 25.8946 3.29289 25.7071C3.10536 25.5196 3 25.2652 3 25C3.0039 21.5534 4.37479 18.249 6.81192 15.8119C9.24905 13.3748 12.5534 12.0039 16 12H21V6.99998C21 6.8022 21.0587 6.60887 21.1686 6.44443C21.2785 6.27999 21.4346 6.15182 21.6174 6.07613C21.8001 6.00044 22.0011 5.98063 22.1951 6.0192C22.3891 6.05777 22.5673 6.15299 22.7072 6.29283L28.7072 12.2928C28.8947 12.4804 29 12.7348 29 13C29 13.2652 28.8947 13.5196 28.7072 13.7071V13.7071Z" fill="black"/>
</svg>
