<svg   viewBox="0 0 32 32" fill="none" xmlns="http://www.w3.org/2000/svg">
<path d="M28.9239 15.3828C28.8482 15.5655 28.72 15.7217 28.5556 15.8315C28.3911 15.9414 28.1978 16.0001 28 16.0001H23V19.0001C23 19.2653 22.8947 19.5196 22.7071 19.7072C22.5196 19.8947 22.2652 20.0001 22 20.0001H10C9.7348 20.0001 9.48045 19.8947 9.29291 19.7072C9.10538 19.5196 9.00002 19.2653 9.00002 19.0001V16.0001H4.00002C3.80223 16.0001 3.60888 15.9414 3.44443 15.8315C3.27998 15.7216 3.1518 15.5655 3.07612 15.3827C3.00043 15.2 2.98063 14.9989 3.01922 14.8049C3.05781 14.6109 3.15306 14.4328 3.29292 14.2929L15.2929 2.29291C15.4805 2.10543 15.7348 2.00012 16 2.00012C16.2652 2.00012 16.5195 2.10543 16.7071 2.29291L28.7071 14.2929C28.847 14.4328 28.9422 14.611 28.9808 14.8049C29.0194 14.9989 28.9996 15.2 28.9239 15.3828V15.3828ZM22 26.0001H10C9.7348 26.0001 9.48045 26.1054 9.29291 26.293C9.10537 26.4805 9.00002 26.7348 9.00002 27.0001C9.00002 27.2653 9.10537 27.5196 9.29291 27.7072C9.48045 27.8947 9.7348 28.0001 10 28.0001H22C22.2652 28.0001 22.5196 27.8947 22.7071 27.7072C22.8947 27.5196 23 27.2653 23 27.0001C23 26.7348 22.8947 26.4805 22.7071 26.293C22.5196 26.1054 22.2652 26.0001 22 26.0001ZM22 22.0001H10C9.7348 22.0001 9.48045 22.1054 9.29291 22.293C9.10537 22.4805 9.00002 22.7348 9.00002 23.0001C9.00002 23.2653 9.10537 23.5196 9.29291 23.7072C9.48045 23.8947 9.7348 24.0001 10 24.0001H22C22.2652 24.0001 22.5196 23.8947 22.7071 23.7072C22.8947 23.5196 23 23.2653 23 23.0001C23 22.7348 22.8947 22.4805 22.7071 22.293C22.5196 22.1054 22.2652 22.0001 22 22.0001Z" fill="black"/>
</svg>
