<svg viewBox="0 0 32 32" xmlns="http://www.w3.org/2000/svg">
<path d="M28 25.9993V5.99927C27.9995 5.469 27.7886 4.96059 27.4136 4.58563C27.0387 4.21067 26.5303 3.99979 26 3.99927H6C5.46973 3.99979 4.96132 4.21067 4.58637 4.58563C4.21141 4.96059 4.00052 5.469 4 5.99927V25.9993C4.00052 26.5295 4.21141 27.0379 4.58636 27.4129C4.96132 27.7879 5.46973 27.9987 6 27.9993H26C26.5303 27.9987 27.0387 27.7879 27.4136 27.4129C27.7886 27.0379 27.9995 26.5295 28 25.9993V25.9993ZM14.5352 20.9504L10.2942 16.7075C10.1067 16.5195 10.0014 16.2648 10.0014 15.9993C10.0014 15.7337 10.1067 15.479 10.2942 15.291L14.5352 11.0501C14.7227 10.8629 14.977 10.7578 15.242 10.7579C15.507 10.7581 15.7611 10.8634 15.9485 11.0508C16.1359 11.2382 16.2412 11.4923 16.2413 11.7573C16.2415 12.0223 16.1364 12.2765 15.9492 12.4641L13.4141 14.9993H21C21.2652 14.9993 21.5196 15.1046 21.7071 15.2922C21.8946 15.4797 22 15.7341 22 15.9993C22 16.2645 21.8946 16.5188 21.7071 16.7064C21.5196 16.8939 21.2652 16.9993 21 16.9993H13.4135L15.9492 19.5364C16.1364 19.724 16.2415 19.9782 16.2413 20.2432C16.2412 20.5082 16.1359 20.7623 15.9485 20.9497C15.7611 21.1371 15.507 21.2424 15.242 21.2425C14.977 21.2427 14.7227 21.1376 14.5352 20.9504V20.9504Z"/>
</svg>
