<svg   viewBox="0 0 32 32" fill="none" xmlns="http://www.w3.org/2000/svg">
<path d="M24.4828 24.4854C22.2305 26.7325 19.1789 27.9944 15.9974 27.9944C12.8159 27.9944 9.76433 26.7325 7.51209 24.4854C7.32454 24.2979 7.21917 24.0435 7.21917 23.7782C7.21917 23.513 7.32454 23.2586 7.51209 23.0711C7.69964 22.8835 7.95401 22.7782 8.21924 22.7782C8.48447 22.7782 8.73884 22.8835 8.92639 23.0711C10.3249 24.4696 12.1067 25.422 14.0466 25.8079C15.9864 26.1937 17.997 25.9957 19.8243 25.2388C21.6515 24.4819 23.2133 23.2002 24.3121 21.5557C25.4109 19.9112 25.9974 17.9778 25.9974 16C25.9974 14.0222 25.4109 12.0888 24.3121 10.4443C23.2133 8.79983 21.6515 7.51811 19.8243 6.76123C17.997 6.00436 15.9864 5.80632 14.0466 6.19217C12.1067 6.57802 10.3249 7.53042 8.92639 8.92894L8.39081 9.46452L10.6837 11.7574C10.8235 11.8973 10.9188 12.0755 10.9573 12.2695C10.9959 12.4634 10.9761 12.6645 10.9004 12.8472C10.8247 13.0299 10.6965 13.1861 10.5321 13.296C10.3677 13.4059 10.1743 13.4645 9.97656 13.4645H3.97656C3.71135 13.4645 3.45699 13.3592 3.26946 13.1716C3.08192 12.9841 2.97657 12.7297 2.97656 12.4645V6.46452C2.97656 6.26674 3.03521 6.07339 3.1451 5.90894C3.25498 5.74449 3.41117 5.61631 3.5939 5.54062C3.77663 5.46494 3.97771 5.44514 4.17169 5.48373C4.36568 5.52232 4.54386 5.61757 4.68371 5.75743L6.97656 8.05028L7.51208 7.51476C9.76253 5.2643 12.8148 4.00001 15.9974 4C19.18 3.99999 22.2323 5.26428 24.4828 7.51473C26.7332 9.76517 27.9975 12.8174 27.9975 16.0001C27.9975 19.1827 26.7332 22.2349 24.4828 24.4854V24.4854Z" fill="black"/>
</svg>
