<svg viewBox="0 0 32 32" xmlns="http://www.w3.org/2000/svg">
<path d="M27 6V12C27 12.1978 26.9413 12.3911 26.8315 12.5556C26.7216 12.72 26.5654 12.8482 26.3827 12.9239C26.1999 12.9996 25.9989 13.0194 25.8049 12.9808C25.6109 12.9422 25.4327 12.8469 25.2928 12.7071L23 10.4143L19.7072 13.7071C19.5196 13.8946 19.2653 14 19 14C18.7348 14 18.4805 13.8947 18.2929 13.7072C18.1054 13.5196 18 13.2653 18 13C18 12.7348 18.1053 12.4805 18.2928 12.2929L21.5858 9L19.2928 6.70709C19.153 6.56723 19.0578 6.38904 19.0192 6.19507C18.9807 6.00109 19.0005 5.80004 19.0762 5.61732C19.1519 5.43461 19.28 5.27843 19.4445 5.16855C19.6089 5.05867 19.8022 5.00002 20 5H26C26.2652 5 26.5196 5.10536 26.7071 5.2929C26.8946 5.48043 27 5.73478 27 6V6ZM12.2928 18.2929L9 21.5858L6.70715 19.2929C6.5673 19.153 6.38912 19.0578 6.19513 19.0192C6.00115 18.9806 5.80007 19.0004 5.61734 19.0761C5.43461 19.1518 5.27842 19.28 5.16854 19.4444C5.05865 19.6089 5 19.8022 5 20V26C5 26.2652 5.10536 26.5196 5.2929 26.7071C5.48043 26.8946 5.73478 27 6 27H12C12.1978 27 12.3911 26.9413 12.5555 26.8314C12.72 26.7216 12.8481 26.5654 12.9238 26.3827C12.9995 26.2 13.0193 25.9989 12.9808 25.8049C12.9422 25.611 12.847 25.4328 12.7072 25.2929L10.4143 23L13.7072 19.7071C13.8947 19.5195 14 19.2652 14 19C14 18.7347 13.8946 18.4804 13.7071 18.2928C13.5195 18.1053 13.2652 18 13 18C12.7347 18 12.4804 18.1054 12.2929 18.2929H12.2928Z"/>
</svg>
