<svg   viewBox="0 0 32 32" fill="none" xmlns="http://www.w3.org/2000/svg">
<path d="M26 4H6C5.46973 4.00052 4.96132 4.21141 4.58636 4.58637C4.21141 4.96132 4.00052 5.46973 4 6V26C4.00052 26.5303 4.21141 27.0387 4.58636 27.4136C4.96132 27.7886 5.46973 27.9995 6 28H26C26.5303 27.9995 27.0387 27.7886 27.4136 27.4136C27.7886 27.0387 27.9995 26.5303 28 26V6C27.9995 5.46973 27.7886 4.96132 27.4136 4.58636C27.0387 4.21141 26.5303 4.00052 26 4V4ZM20.9512 17.4648L16.7083 21.7058C16.5202 21.8933 16.2655 21.9986 16 21.9986C15.7345 21.9986 15.4798 21.8933 15.2918 21.7058L11.0508 17.4648C10.8636 17.2773 10.7585 17.023 10.7587 16.758C10.7588 16.493 10.8641 16.2389 11.0515 16.0515C11.2389 15.8641 11.493 15.7588 11.758 15.7587C12.023 15.7585 12.2773 15.8636 12.4648 16.0508L15 18.5859V11C15 10.7348 15.1054 10.4804 15.2929 10.2929C15.4804 10.1054 15.7348 10 16 10C16.2652 10 16.5196 10.1054 16.7071 10.2929C16.8946 10.4804 17 10.7348 17 11V18.5865L19.5371 16.0508C19.7247 15.8636 19.9789 15.7585 20.2439 15.7587C20.5089 15.7588 20.763 15.8641 20.9504 16.0515C21.1378 16.2389 21.2431 16.493 21.2433 16.758C21.2434 17.023 21.1384 17.2773 20.9512 17.4648H20.9512Z" fill="black"/>
</svg>
