<svg   viewBox="0 0 32 32" fill="none" xmlns="http://www.w3.org/2000/svg">
<path d="M25 8V21C25 21.1978 24.9414 21.3911 24.8315 21.5556C24.7216 21.72 24.5654 21.8482 24.3827 21.9239C24.2 21.9996 23.9989 22.0194 23.8049 21.9808C23.6109 21.9422 23.4327 21.847 23.2929 21.7072L17.5 15.9143L8.70712 24.7072C8.51957 24.8947 8.2652 25 7.99998 25C7.73476 25 7.4804 24.8946 7.29287 24.7071C7.10534 24.5195 6.99999 24.2652 7 24C7.00001 23.7347 7.10538 23.4804 7.29293 23.2928L16.0858 14.5L10.2929 8.70715C10.153 8.56729 10.0578 8.3891 10.0192 8.19512C9.98063 8.00113 10.0004 7.80006 10.0761 7.61733C10.1518 7.43461 10.28 7.27842 10.4444 7.16854C10.6089 7.05866 10.8022 7 11 7H24C24.2652 7.00001 24.5196 7.10537 24.7071 7.29291C24.8946 7.48044 25 7.73479 25 8V8Z" fill="black"/>
</svg>
