<svg   viewBox="0 0 32 32" fill="none" xmlns="http://www.w3.org/2000/svg">
<path d="M25.1924 6.80713C23.3743 4.98905 21.0579 3.75092 18.5362 3.24931C16.0144 2.7477 13.4006 3.00514 11.0251 3.98908C8.64968 4.97302 6.61935 6.63926 5.1909 8.7771C3.76244 10.9149 3 13.4284 3 15.9995C3 18.5707 3.76244 21.0841 5.1909 23.2219C6.61935 25.3598 8.64968 27.026 11.0251 28.01C13.4006 28.9939 16.0144 29.2513 18.5362 28.7497C21.0579 28.2481 23.3743 27.01 25.1924 25.1919C27.627 22.7522 28.9944 19.4462 28.9944 15.9995C28.9944 12.5528 27.627 9.24687 25.1924 6.80713V6.80713ZM20.499 18.4995C20.499 18.7647 20.3937 19.0191 20.2061 19.2066C20.0186 19.3942 19.7643 19.4995 19.499 19.4995C19.2338 19.4995 18.9795 19.3942 18.7919 19.2066C18.6044 19.0191 18.499 18.7647 18.499 18.4995V14.9136L13.2061 20.2066C13.0185 20.3937 12.7643 20.4988 12.4993 20.4987C12.2343 20.4985 11.9801 20.3932 11.7928 20.2058C11.6054 20.0184 11.5 19.7643 11.4999 19.4993C11.4998 19.2343 11.6048 18.9801 11.792 18.7925L17.085 13.4995H13.499C13.2338 13.4995 12.9795 13.3942 12.7919 13.2066C12.6044 13.0191 12.499 12.7647 12.499 12.4995C12.499 12.2343 12.6044 11.98 12.7919 11.7924C12.9795 11.6049 13.2338 11.4995 13.499 11.4995H19.499C19.764 11.5004 20.0178 11.6061 20.2051 11.7934C20.3925 11.9808 20.4981 12.2346 20.499 12.4995V18.4995Z" fill="black"/>
</svg>
