<svg viewBox="0 0 32 32" xmlns="http://www.w3.org/2000/svg">
<path d="M9.29285 21.7071C9.10532 21.5196 8.99997 21.2652 8.99997 21C8.99997 20.7348 9.10532 20.4804 9.29285 20.2929L16.3358 13.25L10.7928 7.70709C10.653 7.56723 10.5578 7.38905 10.5192 7.19507C10.4806 7.00109 10.5004 6.80002 10.5761 6.6173C10.6518 6.43458 10.78 6.2784 10.9444 6.16852C11.1089 6.05865 11.3022 6 11.5 6H24C24.2652 6 24.5196 6.10536 24.7071 6.2929C24.8946 6.48043 25 6.73478 25 7V19.5C25 19.6978 24.9413 19.8911 24.8315 20.0556C24.7216 20.22 24.5654 20.3482 24.3827 20.4239C24.1999 20.4996 23.9989 20.5194 23.8049 20.4808C23.6109 20.4422 23.4327 20.3469 23.2928 20.2071L17.75 14.6642L10.7072 21.7071C10.5196 21.8946 10.2652 22 10 22C9.73477 22 9.4804 21.8946 9.29285 21.7071V21.7071ZM27 25.9995H5C4.73478 25.9995 4.48043 26.1049 4.29289 26.2924C4.10536 26.4799 4 26.7343 4 26.9995C4 27.2647 4.10536 27.5191 4.29289 27.7066C4.48043 27.8942 4.73478 27.9995 5 27.9995H27C27.2652 27.9995 27.5196 27.8942 27.7071 27.7066C27.8946 27.5191 28 27.2647 28 26.9995C28 26.7343 27.8946 26.4799 27.7071 26.2924C27.5196 26.1049 27.2652 25.9995 27 25.9995Z"/>
</svg>
