<svg viewBox="0 0 32 32" xmlns="http://www.w3.org/2000/svg">
<path d="M29.7072 12.7072L17.7072 24.7072C17.5196 24.8947 17.2652 25 17 25C16.7348 25 16.4804 24.8947 16.2928 24.7072L7.5 15.9143L3.70715 19.7072C3.56729 19.847 3.3891 19.9422 3.19512 19.9808C3.00114 20.0193 2.80008 19.9995 2.61735 19.9238C2.43463 19.8482 2.27846 19.72 2.16857 19.5555C2.05868 19.3911 2.00002 19.1978 2 19V10C2.00001 9.73479 2.10537 9.48044 2.29291 9.29291C2.48044 9.10537 2.73479 9.00001 3 9H12C12.1978 9.00002 12.3911 9.05868 12.5555 9.16857C12.72 9.27846 12.8482 9.43463 12.9238 9.61735C12.9995 9.80008 13.0193 10.0011 12.9808 10.1951C12.9422 10.3891 12.847 10.5673 12.7072 10.7072L8.91428 14.5L17 22.5858L28.2928 11.2928C28.4804 11.1053 28.7348 10.9999 29 10.9999C29.2652 10.9999 29.5196 11.1053 29.7072 11.2928C29.8947 11.4804 30.0001 11.7348 30.0001 12C30.0001 12.2652 29.8947 12.5196 29.7072 12.7072V12.7072Z"/>
</svg>
