<svg   viewBox="0 0 32 32" fill="none" xmlns="http://www.w3.org/2000/svg">
<path d="M28.9238 15.3828C28.8481 15.5655 28.72 15.7216 28.5555 15.8315C28.3911 15.9414 28.1978 16.0001 28 16.0001H23V26.0001C22.9994 26.5303 22.7885 27.0387 22.4135 27.4136C22.0386 27.7885 21.5302 27.9995 21 28.0001H11C10.4697 27.9995 9.96138 27.7885 9.58644 27.4136C9.21149 27.0387 9.00059 26.5303 8.99998 26.0001V16.0001H3.99998C3.8022 16 3.60887 15.9414 3.44443 15.8315C3.27999 15.7216 3.15182 15.5654 3.07613 15.3827C3.00044 15.2 2.98063 14.9989 3.0192 14.8049C3.05777 14.611 3.15299 14.4328 3.29283 14.2929L15.2928 2.29291C15.4804 2.10543 15.7348 2.00012 16 2.00012C16.2652 2.00012 16.5195 2.10543 16.7071 2.29291L28.7071 14.2929C28.847 14.4328 28.9422 14.611 28.9807 14.805C29.0193 14.999 28.9995 15.2 28.9238 15.3828V15.3828Z" fill="black"/>
</svg>
