<svg   viewBox="0 0 32 32" fill="none" xmlns="http://www.w3.org/2000/svg">
<path d="M14.9238 21.6173C14.9995 21.8001 15.0193 22.0011 14.9808 22.1951C14.9422 22.3891 14.847 22.5673 14.7071 22.7072L10.7071 26.7072C10.5196 26.8947 10.2652 27 9.99998 27C9.73476 27 9.4804 26.8947 9.29283 26.7072L5.29283 22.7072C5.15299 22.5673 5.05777 22.3891 5.0192 22.1951C4.98063 22.0012 5.00044 21.8001 5.07613 21.6174C5.15182 21.4347 5.27999 21.2785 5.44443 21.1686C5.60887 21.0587 5.8022 21.0001 5.99998 21H8.99998V6.00003C8.99998 5.73481 9.10534 5.48046 9.29287 5.29292C9.48041 5.10539 9.73476 5.00003 9.99998 5.00003C10.2652 5.00003 10.5195 5.10539 10.7071 5.29292C10.8946 5.48046 11 5.73481 11 6.00003V21H14C14.1978 21 14.3911 21.0587 14.5555 21.1686C14.72 21.2785 14.8481 21.4346 14.9238 21.6173V21.6173ZM26.7071 9.29288L22.7071 5.29288C22.5196 5.10535 22.2652 5 22 5C21.7348 5 21.4804 5.10535 21.2928 5.29288L17.2928 9.29288C17.153 9.43275 17.0578 9.61093 17.0192 9.80491C16.9806 9.99889 17.0004 10.2 17.0761 10.3827C17.1518 10.5654 17.28 10.7216 17.4444 10.8315C17.6089 10.9413 17.8022 11 18 11H21V26C21 26.2652 21.1053 26.5196 21.2929 26.7071C21.4804 26.8947 21.7348 27 22 27C22.2652 27 22.5196 26.8947 22.7071 26.7071C22.8946 26.5196 23 26.2652 23 26V11H26C26.1978 11 26.3911 10.9413 26.5555 10.8315C26.72 10.7216 26.8481 10.5654 26.9238 10.3827C26.9995 10.2 27.0193 9.99889 26.9808 9.80491C26.9422 9.61093 26.847 9.43275 26.7071 9.29288Z" fill="black"/>
</svg>
