<svg viewBox="0 0 32 32" xmlns="http://www.w3.org/2000/svg">
<path d="M29.0183 6.46448V12.4645C29.0183 12.7297 28.9129 12.984 28.7254 13.1716C28.5379 13.3591 28.2835 13.4645 28.0183 13.4645H22.0183C21.8205 13.4645 21.6272 13.4058 21.4628 13.2959C21.2983 13.186 21.1702 13.0298 21.0945 12.8471C21.0188 12.6644 20.999 12.4633 21.0375 12.2694C21.0761 12.0754 21.1713 11.8972 21.3112 11.7573L23.604 9.46448L23.0685 8.92896C21.1917 7.05629 18.6487 6.00458 15.9974 6.00458C13.3462 6.00458 10.8032 7.05629 8.92639 8.92896C8.83353 9.02182 8.72328 9.09548 8.60195 9.14574C8.48062 9.196 8.35057 9.22187 8.21924 9.22187C8.08791 9.22187 7.95787 9.196 7.83653 9.14574C7.7152 9.09548 7.60495 9.02182 7.51209 8.92896C7.32454 8.74141 7.21917 8.48704 7.21917 8.2218C7.21917 8.09047 7.24504 7.96043 7.2953 7.83909C7.34556 7.71776 7.41922 7.60751 7.51209 7.51465C9.76433 5.26757 12.8159 4.00562 15.9974 4.00562C19.1789 4.00562 22.2305 5.26757 24.4828 7.51465L25.0183 8.05017L27.3112 5.75732C27.451 5.61749 27.6292 5.52227 27.8232 5.4837C28.0172 5.44513 28.2182 5.46494 28.401 5.54063C28.5837 5.61632 28.7399 5.74449 28.8497 5.90893C28.9596 6.07337 29.0183 6.2667 29.0183 6.46448V6.46448ZM23.0685 23.071C21.1917 24.9437 18.6487 25.9954 15.9974 25.9954C13.3462 25.9954 10.8032 24.9437 8.92639 23.071L8.39087 22.5355L10.6837 20.2427C10.8235 20.1028 10.9188 19.9246 10.9573 19.7306C10.9959 19.5367 10.9761 19.3356 10.9004 19.1529C10.8247 18.9702 10.6966 18.814 10.5321 18.7041C10.3677 18.5942 10.1743 18.5355 9.97656 18.5355H3.97656C3.71135 18.5355 3.457 18.6409 3.26947 18.8284C3.08194 19.016 2.97658 19.2703 2.97656 19.5355V25.5355C2.97658 25.7333 3.03523 25.9266 3.14512 26.0911C3.255 26.2555 3.41118 26.3837 3.59391 26.4594C3.77663 26.5351 3.9777 26.5549 4.17168 26.5163C4.36566 26.4777 4.54385 26.3825 4.68371 26.2427L6.97656 23.9498L7.51208 24.4854C9.76433 26.7324 12.8159 27.9944 15.9974 27.9944C19.1789 27.9944 22.2305 26.7324 24.4828 24.4854C24.5757 24.3925 24.6493 24.2822 24.6996 24.1609C24.7498 24.0396 24.7757 23.9095 24.7757 23.7782C24.7757 23.6469 24.7498 23.5168 24.6996 23.3955C24.6493 23.2742 24.5757 23.1639 24.4828 23.071C24.3899 22.9782 24.2797 22.9045 24.1583 22.8543C24.037 22.804 23.907 22.7781 23.7756 22.7781C23.6443 22.7781 23.5143 22.804 23.3929 22.8543C23.2716 22.9045 23.1613 22.9782 23.0685 23.071V23.071Z"/>
</svg>
