<svg   viewBox="0 0 32 32" fill="none" xmlns="http://www.w3.org/2000/svg">
<path d="M29.0005 16C29.0005 16.2652 28.8951 16.5196 28.7076 16.7071C28.5201 16.8946 28.2657 17 28.0005 17H19.0005V25C19.0005 25.1978 18.9418 25.3911 18.8319 25.5556C18.7221 25.72 18.5659 25.8482 18.3831 25.9239C18.2004 25.9996 17.9993 26.0194 17.8054 25.9808C17.6114 25.9422 17.4332 25.8469 17.2933 25.7071L8.29333 16.7071C8.10581 16.5196 8.00046 16.2652 8.00046 16C8.00046 15.7348 8.10581 15.4804 8.29333 15.2929L17.2933 6.29291C17.4332 6.15305 17.6114 6.0578 17.8054 6.01921C17.9993 5.98061 18.2004 6.00041 18.3831 6.0761C18.5659 6.15179 18.7221 6.27996 18.832 6.44441C18.9418 6.60887 19.0005 6.80221 19.0005 7V15H28.0005C28.2657 15 28.5201 15.1054 28.7076 15.2929C28.8951 15.4804 29.0005 15.7348 29.0005 16V16ZM5 4C4.73478 4 4.48043 4.10536 4.2929 4.2929C4.10536 4.48043 4 4.73478 4 5V27C4 27.2652 4.10536 27.5196 4.29289 27.7071C4.48043 27.8946 4.73478 28 5 28C5.26522 28 5.51957 27.8946 5.70711 27.7071C5.89464 27.5196 6 27.2652 6 27V5C6 4.73478 5.89464 4.48043 5.7071 4.2929C5.51957 4.10536 5.26522 4 5 4Z" fill="black"/>
</svg>
