<svg   viewBox="0 0 32 32" fill="none" xmlns="http://www.w3.org/2000/svg">
<path d="M25 12.5V25C25 25.2652 24.8946 25.5196 24.7071 25.7071C24.5196 25.8946 24.2652 26 24 26H11.5C11.3022 26 11.1089 25.9413 10.9444 25.8315C10.78 25.7216 10.6518 25.5654 10.5761 25.3827C10.5004 25.1999 10.4806 24.9989 10.5192 24.8049C10.5578 24.6109 10.653 24.4327 10.7928 24.2928L16.3358 18.75L9.29285 11.7071C9.19999 11.6142 9.12633 11.504 9.07608 11.3827C9.02583 11.2613 8.99997 11.1313 8.99998 11C8.99998 10.8686 9.02585 10.7386 9.07612 10.6173C9.12638 10.4959 9.20004 10.3857 9.29291 10.2928C9.48046 10.1053 9.73482 9.99997 10 9.99998C10.1314 9.99998 10.2614 10.0259 10.3827 10.0761C10.5041 10.1264 10.6143 10.2 10.7072 10.2929L17.75 17.3358L23.2928 11.7929C23.4327 11.653 23.6109 11.5578 23.8049 11.5192C23.9989 11.4806 24.1999 11.5004 24.3827 11.5761C24.5654 11.6518 24.7216 11.78 24.8315 11.9444C24.9414 12.1089 25 12.3022 25 12.5V12.5ZM27 4.00049H5C4.73478 4.00049 4.48043 4.10585 4.29289 4.29338C4.10536 4.48092 4 4.73527 4 5.00049C4 5.2657 4.10536 5.52006 4.29289 5.70759C4.48043 5.89513 4.73478 6.00049 5 6.00049H27C27.2652 6.00049 27.5196 5.89513 27.7071 5.70759C27.8946 5.52006 28 5.2657 28 5.00049C28 4.73527 27.8946 4.48092 27.7071 4.29338C27.5196 4.10585 27.2652 4.00049 27 4.00049Z" fill="black"/>
</svg>
