<svg   viewBox="0 0 32 32" fill="none" xmlns="http://www.w3.org/2000/svg">
<path d="M14.2928 28.7071L2.29278 16.7071C2.10531 16.5195 2 16.2652 2 16C2 15.7348 2.10531 15.4804 2.29278 15.2928L14.2928 3.29283C14.4327 3.15299 14.6108 3.05777 14.8048 3.0192C14.9988 2.98063 15.1999 3.00044 15.3826 3.07613C15.5653 3.15182 15.7215 3.27999 15.8314 3.44443C15.9413 3.60887 15.9999 3.8022 15.9999 3.99998V8.99998H25.9999C26.5302 9.00059 27.0385 9.21149 27.4135 9.58644C27.7884 9.96138 27.9993 10.4697 27.9999 11V21C27.9993 21.5302 27.7884 22.0386 27.4135 22.4135C27.0385 22.7885 26.5302 22.9994 25.9999 23H15.9999V28C15.9999 28.1978 15.9413 28.3911 15.8314 28.5555C15.7215 28.72 15.5653 28.8481 15.3826 28.9238C15.1999 28.9995 14.9988 29.0193 14.8048 28.9808C14.6108 28.9422 14.4327 28.847 14.2928 28.7071Z" fill="black"/>
</svg>
