<svg viewBox="0 0 32 32" xmlns="http://www.w3.org/2000/svg">
<path d="M6 27.9993H26C26.5303 27.9987 27.0387 27.7879 27.4136 27.4129C27.7886 27.0379 27.9995 26.5295 28 25.9993V5.99927C27.9995 5.469 27.7886 4.96059 27.4136 4.58563C27.0387 4.21067 26.5303 3.99979 26 3.99927H6C5.46973 3.99979 4.96132 4.21067 4.58637 4.58563C4.21141 4.96059 4.00052 5.469 4 5.99927V25.9993C4.00052 26.5295 4.21141 27.0379 4.58636 27.4129C4.96132 27.7879 5.46973 27.9987 6 27.9993V27.9993ZM16.0508 20.9504C15.9579 20.8576 15.8842 20.7474 15.834 20.6261C15.7837 20.5048 15.7578 20.3747 15.7578 20.2434C15.7578 20.1121 15.7837 19.9821 15.834 19.8607C15.8842 19.7394 15.9579 19.6292 16.0508 19.5364L18.5865 16.9993H11C10.7348 16.9993 10.4804 16.8939 10.2929 16.7064C10.1054 16.5188 10 16.2645 10 15.9993C10 15.7341 10.1054 15.4797 10.2929 15.2922C10.4804 15.1046 10.7348 14.9993 11 14.9993H18.5859L16.0508 12.4641C15.8636 12.2765 15.7585 12.0223 15.7587 11.7573C15.7588 11.4923 15.8641 11.2382 16.0515 11.0508C16.2389 10.8634 16.493 10.7581 16.758 10.7579C17.023 10.7578 17.2773 10.8629 17.4648 11.05L21.7058 15.291C21.8933 15.479 21.9986 15.7337 21.9986 15.9993C21.9986 16.2648 21.8933 16.5195 21.7058 16.7075L17.4648 20.9504C17.372 21.0433 17.2618 21.117 17.1405 21.1673C17.0192 21.2175 16.8891 21.2434 16.7578 21.2434C16.6265 21.2434 16.4965 21.2175 16.3752 21.1673C16.2538 21.117 16.1436 21.0433 16.0508 20.9504V20.9504Z"/>
</svg>
