<svg viewBox="0 0 32 32" xmlns="http://www.w3.org/2000/svg">
<path d="M29 14C28.9976 16.121 28.154 18.1544 26.6543 19.6542C25.1545 21.154 23.121 21.9976 21 22H11V27C11 27.1978 10.9414 27.3911 10.8315 27.5556C10.7216 27.72 10.5654 27.8482 10.3827 27.9239C10.2 27.9996 9.99889 28.0194 9.8049 27.9808C9.61092 27.9422 9.43273 27.8469 9.29288 27.7071L3.29288 21.7071C3.10535 21.5196 3 21.2652 3 21C3 20.7348 3.10535 20.4804 3.29288 20.2929L9.29288 14.2929C9.43273 14.153 9.61092 14.0578 9.8049 14.0192C9.99889 13.9806 10.2 14.0004 10.3827 14.0761C10.5654 14.1518 10.7216 14.28 10.8315 14.4444C10.9414 14.6089 11 14.8022 11 15V20H21C22.5913 20 24.1175 19.3679 25.2427 18.2426C26.3679 17.1174 27 15.5913 27 14C27 12.4087 26.3679 10.8826 25.2427 9.75736C24.1175 8.63214 22.5913 8 21 8H10C9.73482 8 9.48046 7.89464 9.29293 7.70711C9.10539 7.51957 9.00003 7.26522 9.00003 7C9.00003 6.73478 9.10539 6.48043 9.29293 6.29289C9.48046 6.10536 9.73482 6 10 6H21C23.121 6.00238 25.1545 6.846 26.6543 8.34578C28.154 9.84555 28.9976 11.879 29 14V14Z"/>
</svg>
