<svg viewBox="0 0 32 32" xmlns="http://www.w3.org/2000/svg">
<path d="M29 18C28.9976 20.121 28.154 22.1545 26.6542 23.6542C25.1545 25.154 23.121 25.9976 21 26H10C9.73482 26 9.48046 25.8947 9.29293 25.7071C9.10539 25.5196 9.00003 25.2652 9.00003 25C9.00003 24.7348 9.10539 24.4804 9.29293 24.2929C9.48046 24.1054 9.73482 24 10 24H21C22.5913 24 24.1175 23.3679 25.2427 22.2427C26.3679 21.1174 27 19.5913 27 18C27 16.4087 26.3679 14.8826 25.2427 13.7574C24.1175 12.6322 22.5913 12 21 12H11V17C11 17.1978 10.9414 17.3911 10.8315 17.5556C10.7216 17.72 10.5654 17.8482 10.3827 17.9239C10.2 17.9996 9.99889 18.0194 9.8049 17.9808C9.61092 17.9422 9.43273 17.847 9.29288 17.7071L3.29288 11.7071C3.10535 11.5196 3 11.2652 3 11C3 10.7348 3.10535 10.4805 3.29288 10.2929L9.29288 4.29292C9.43273 4.15306 9.61092 4.05781 9.8049 4.01922C9.99889 3.98063 10.2 4.00043 10.3827 4.07612C10.5654 4.1518 10.7216 4.27998 10.8315 4.44443C10.9414 4.60888 11 4.80223 11 5.00002V10H21C23.121 10.0024 25.1545 10.846 26.6543 12.3458C28.154 13.8456 28.9976 15.879 29 18V18Z"/>
</svg>
