<svg viewBox="0 0 32 32" xmlns="http://www.w3.org/2000/svg">
<path d="M25.9239 14.3826C25.8482 14.5653 25.72 14.7215 25.5556 14.8314C25.3911 14.9413 25.1978 14.9999 25 14.9999H17V26.9999C17 27.2652 16.8947 27.5195 16.7071 27.707C16.5196 27.8946 16.2652 27.9999 16 27.9999C15.7348 27.9999 15.4804 27.8946 15.2929 27.707C15.1054 27.5195 15 27.2652 15 26.9999V14.9999H7.00002C6.80223 14.9999 6.60888 14.9413 6.44443 14.8314C6.27998 14.7215 6.1518 14.5653 6.07612 14.3826C6.00043 14.1999 5.98063 13.9988 6.01922 13.8048C6.05781 13.6108 6.15306 13.4326 6.29292 13.2928L15.2929 4.29278C15.4805 4.10531 15.7348 4 16 4C16.2652 4 16.5195 4.10531 16.7071 4.29278L25.7071 13.2928C25.847 13.4327 25.9422 13.6108 25.9808 13.8048C26.0194 13.9988 25.9996 14.1999 25.9239 14.3826V14.3826Z"/>
</svg>
