<svg viewBox="0 0 32 32" xmlns="http://www.w3.org/2000/svg">
<path d="M29.0209 6.46454V12.4645C29.0209 12.7298 28.9156 12.9841 28.728 13.1716C28.5405 13.3592 28.2861 13.4645 28.0209 13.4645H22.0209C21.8232 13.4645 21.6298 13.4059 21.4654 13.296C21.301 13.1861 21.1728 13.0299 21.0971 12.8472C21.0214 12.6645 21.0016 12.4634 21.0402 12.2695C21.0787 12.0755 21.174 11.8973 21.3138 11.7574L23.6067 9.46454L23.0711 8.92895C21.6726 7.53044 19.8907 6.57804 17.9509 6.19219C16.0111 5.80634 14.0005 6.00438 12.1732 6.76126C10.3459 7.51814 8.78415 8.79987 7.68534 10.4444C6.58653 12.0889 6.00004 14.0222 6.00004 16.0001C6.00004 17.9779 6.58653 19.9113 7.68534 21.5558C8.78415 23.2003 10.3459 24.482 12.1732 25.2389C14.0005 25.9957 16.0111 26.1938 17.9509 25.8079C19.8907 25.4221 21.6726 24.4697 23.0711 23.0712C23.1639 22.9782 23.2742 22.9044 23.3955 22.8541C23.5169 22.8037 23.647 22.7778 23.7784 22.7777C23.9097 22.7777 24.0399 22.8035 24.1613 22.8538C24.2826 22.904 24.393 22.9777 24.4859 23.0706C24.5788 23.1635 24.6525 23.2738 24.7027 23.3952C24.753 23.5166 24.7788 23.6467 24.7788 23.7781C24.7788 23.9095 24.7528 24.0395 24.7025 24.1609C24.6521 24.2823 24.5784 24.3925 24.4854 24.4854C22.8072 26.1636 20.669 27.3065 18.3412 27.7695C16.0134 28.2326 13.6006 27.9949 11.4079 27.0867C9.21512 26.1784 7.34097 24.6403 6.02238 22.6669C4.70379 20.6935 4 18.3735 4 16.0001C4 13.6267 4.70379 11.3066 6.02238 9.33318C7.34097 7.35978 9.21512 5.8217 11.4079 4.91345C13.6006 4.00519 16.0134 3.76756 18.3412 4.23059C20.669 4.69362 22.8072 5.83652 24.4854 7.51477L25.0209 8.05029L27.3138 5.75745C27.4536 5.61758 27.6318 5.52233 27.8258 5.48374C28.0198 5.44515 28.2209 5.46495 28.4036 5.54063C28.5863 5.61632 28.7425 5.74449 28.8524 5.90895C28.9623 6.0734 29.0209 6.26675 29.0209 6.46454Z"/>
</svg>
