<svg   viewBox="0 0 32 32" fill="none" xmlns="http://www.w3.org/2000/svg">
<path d="M25 11V24C25 24.2652 24.8946 24.5196 24.7071 24.7071C24.5196 24.8946 24.2652 25 24 25H11C10.8022 25 10.6089 24.9414 10.4444 24.8315C10.28 24.7216 10.1518 24.5654 10.0761 24.3827C10.0004 24.2 9.98063 23.9989 10.0192 23.8049C10.0578 23.6109 10.153 23.4327 10.2929 23.2929L16.0858 17.5L7.29293 8.70718C7.10538 8.51964 7.00001 8.26529 7 8.00007C6.99999 7.73484 7.10534 7.48048 7.29287 7.29293C7.4804 7.10538 7.73476 7.00001 7.99998 7C8.2652 6.99999 8.51957 7.10534 8.70712 7.29287L17.5 16.0858L23.2929 10.2929C23.4327 10.153 23.6109 10.0578 23.8049 10.0192C23.9989 9.98067 24.1999 10.0005 24.3827 10.0762C24.5654 10.1519 24.7216 10.28 24.8315 10.4445C24.9413 10.6089 25 10.8022 25 11V11Z" fill="black"/>
</svg>
