<svg viewBox="0 0 32 32" xmlns="http://www.w3.org/2000/svg">
<path d="M28 26V6C27.9994 5.46975 27.7885 4.9614 27.4135 4.58646C27.0386 4.21151 26.5302 4.00061 26 4H6C5.46975 4.00061 4.9614 4.21151 4.58646 4.58646C4.21151 4.9614 4.00061 5.46975 4 6V26C4.00061 26.5302 4.21151 27.0386 4.58646 27.4135C4.9614 27.7885 5.46975 27.9994 6 28H26C26.5302 27.9994 27.0386 27.7885 27.4135 27.4135C27.7885 27.0386 27.9994 26.5302 28 26ZM20.2071 13.2072L14.9143 18.5H18.5C18.7652 18.5 19.0196 18.6054 19.2071 18.7929C19.3946 18.9804 19.5 19.2348 19.5 19.5C19.5 19.7652 19.3946 20.0196 19.2071 20.2071C19.0196 20.3946 18.7652 20.5 18.5 20.5H12.5C12.4925 20.5 12.4853 20.499 12.4778 20.4989C12.4525 20.4983 12.4272 20.4975 12.402 20.4951C12.3846 20.4933 12.3678 20.4902 12.3507 20.4877C12.3355 20.4854 12.3203 20.4837 12.3052 20.4807C12.2869 20.4771 12.2691 20.4721 12.2512 20.4675C12.2376 20.4641 12.2238 20.4611 12.2102 20.457C12.1931 20.4518 12.1765 20.4454 12.1597 20.4393C12.1457 20.4343 12.1315 20.4297 12.1177 20.424C12.1023 20.4176 12.0876 20.4102 12.0726 20.4031C12.058 20.3961 12.0432 20.3897 12.0288 20.382C12.0148 20.3744 12.0014 20.3658 11.9878 20.3577C11.9734 20.3491 11.9588 20.3409 11.9448 20.3315C11.9302 20.3218 11.9164 20.3109 11.9024 20.3004C11.8903 20.2914 11.8779 20.283 11.8661 20.2733C11.8433 20.2545 11.8215 20.2346 11.8005 20.214C11.798 20.2115 11.7953 20.2096 11.7929 20.2072C11.7908 20.2051 11.7891 20.2028 11.787 20.2006C11.766 20.1793 11.7458 20.1572 11.7268 20.134C11.7168 20.1218 11.7081 20.109 11.6988 20.0965C11.6886 20.0829 11.678 20.0695 11.6685 20.0554C11.6588 20.0408 11.6503 20.0257 11.6414 20.0108C11.6336 19.9977 11.6254 19.9849 11.6182 19.9714C11.6101 19.9563 11.6032 19.9407 11.5959 19.9253C11.5893 19.9111 11.5822 19.8972 11.5762 19.8827C11.57 19.8678 11.565 19.8525 11.5596 19.8373C11.554 19.8216 11.548 19.8063 11.5431 19.7904C11.5385 19.775 11.5351 19.7595 11.5312 19.7439C11.5272 19.7278 11.5226 19.7119 11.5194 19.6955C11.5158 19.6774 11.5136 19.6591 11.5111 19.6409C11.5091 19.6268 11.5064 19.613 11.505 19.5988C11.5017 19.5658 11.5 19.5328 11.5 19.4997V13.5C11.5 13.2348 11.6054 12.9804 11.7929 12.7929C11.9804 12.6054 12.2348 12.5 12.5 12.5C12.7652 12.5 13.0196 12.6054 13.2071 12.7929C13.3946 12.9804 13.5 13.2348 13.5 13.5V17.0858L18.7929 11.7928C18.8858 11.7 18.996 11.6263 19.1173 11.5761C19.2387 11.5258 19.3687 11.5 19.5 11.5C19.6314 11.5 19.7614 11.5258 19.8827 11.5761C20.0041 11.6264 20.1143 11.7 20.2071 11.7929C20.3 11.8858 20.3737 11.996 20.4239 12.1173C20.4742 12.2387 20.5 12.3687 20.5 12.5C20.5 12.6314 20.4741 12.7614 20.4239 12.8827C20.3736 13.0041 20.3 13.1143 20.2071 13.2071L20.2071 13.2072Z"/>
</svg>
