<svg   viewBox="0 0 32 32" fill="none" xmlns="http://www.w3.org/2000/svg">
<path d="M16 3C13.4288 3 10.9154 3.76244 8.77759 5.1909C6.63975 6.61935 4.97351 8.64968 3.98957 11.0251C3.00563 13.4006 2.74819 16.0144 3.2498 18.5362C3.75141 21.0579 4.98953 23.3743 6.80762 25.1924C8.6257 27.0105 10.9421 28.2486 13.4638 28.7502C15.9856 29.2518 18.5995 28.9944 20.9749 28.0104C23.3503 27.0265 25.3807 25.3603 26.8091 23.2224C28.2376 21.0846 29 18.5712 29 16C28.996 12.5534 27.6251 9.24912 25.188 6.81201C22.7509 4.3749 19.4466 3.00398 16 3V3ZM20.9492 17.4648L16.7083 21.7058C16.5202 21.8933 16.2655 21.9986 16 21.9986C15.7345 21.9986 15.4798 21.8933 15.2918 21.7058L11.0508 17.4648C10.8636 17.2773 10.7585 17.023 10.7587 16.758C10.7588 16.493 10.8642 16.2389 11.0515 16.0515C11.2389 15.8641 11.493 15.7588 11.758 15.7587C12.023 15.7585 12.2773 15.8636 12.4648 16.0508L15 18.5859V11C15 10.7348 15.1054 10.4804 15.2929 10.2929C15.4804 10.1054 15.7348 10 16 10C16.2652 10 16.5196 10.1054 16.7071 10.2929C16.8946 10.4804 17 10.7348 17 11V18.5859L19.5352 16.0508C19.7227 15.8636 19.977 15.7585 20.242 15.7587C20.507 15.7588 20.7611 15.8641 20.9485 16.0515C21.1359 16.2389 21.2412 16.493 21.2413 16.758C21.2415 17.023 21.1364 17.2773 20.9492 17.4648V17.4648Z" fill="black"/>
</svg>
