<svg viewBox="0 0 32 32" xmlns="http://www.w3.org/2000/svg">
<path d="M28 16C28 16.2652 27.8946 16.5196 27.7071 16.7071C27.5196 16.8946 27.2652 17 27 17H5C4.73478 17 4.48043 16.8946 4.29289 16.7071C4.10536 16.5196 4 16.2652 4 16C4 15.7348 4.10536 15.4804 4.29289 15.2929C4.48043 15.1054 4.73478 15 5 15H27C27.2652 15 27.5196 15.1054 27.7071 15.2929C27.8946 15.4804 28 15.7348 28 16V16ZM15.2928 12.7072C15.4804 12.8947 15.7348 13 16 13C16.2652 13 16.5196 12.8947 16.7072 12.7072L20.7072 8.70715C20.847 8.56729 20.9422 8.3891 20.9808 8.19512C21.0193 8.00114 20.9995 7.80008 20.9238 7.61735C20.8482 7.43463 20.72 7.27846 20.5555 7.16857C20.3911 7.05868 20.1978 7.00002 20 7H17V2C17 1.73478 16.8946 1.48043 16.7071 1.29289C16.5196 1.10536 16.2652 1 16 1C15.7348 1 15.4804 1.10536 15.2929 1.29289C15.1054 1.48043 15 1.73478 15 2V7H12C11.8022 7.00002 11.6089 7.05868 11.4445 7.16857C11.28 7.27846 11.1518 7.43463 11.0762 7.61735C11.0005 7.80008 10.9807 8.00114 11.0192 8.19512C11.0578 8.3891 11.153 8.56729 11.2928 8.70715L15.2928 12.7072ZM16.7072 19.2928C16.5196 19.1054 16.2652 19.0001 16 19.0001C15.7348 19.0001 15.4804 19.1054 15.2928 19.2928L11.2928 23.2928C11.153 23.4327 11.0578 23.6109 11.0192 23.8049C10.9807 23.9989 11.0005 24.1999 11.0762 24.3826C11.1518 24.5654 11.28 24.7215 11.4445 24.8314C11.6089 24.9413 11.8022 25 12 25H15V30C15 30.2652 15.1054 30.5196 15.2929 30.7071C15.4804 30.8946 15.7348 31 16 31C16.2652 31 16.5196 30.8946 16.7071 30.7071C16.8946 30.5196 17 30.2652 17 30V25H20C20.1978 25 20.3911 24.9413 20.5555 24.8314C20.72 24.7215 20.8482 24.5654 20.9238 24.3826C20.9995 24.1999 21.0193 23.9989 20.9808 23.8049C20.9422 23.6109 20.847 23.4327 20.7072 23.2928L16.7072 19.2928Z"/>
</svg>
