<svg   viewBox="0 0 32 32" fill="none" xmlns="http://www.w3.org/2000/svg">
<path d="M16 3C13.4288 3 10.9154 3.76244 8.77759 5.1909C6.63975 6.61935 4.97351 8.64968 3.98957 11.0251C3.00563 13.4006 2.74819 16.0144 3.2498 18.5362C3.75141 21.0579 4.98953 23.3743 6.80762 25.1924C8.6257 27.0105 10.9421 28.2486 13.4638 28.7502C15.9856 29.2518 18.5995 28.9944 20.9749 28.0104C23.3503 27.0265 25.3807 25.3603 26.8091 23.2224C28.2376 21.0846 29 18.5712 29 16C28.996 12.5534 27.6251 9.24912 25.188 6.81201C22.7509 4.3749 19.4466 3.00398 16 3V3ZM21.9231 16.3818C21.8729 16.5039 21.7991 16.6149 21.7058 16.7083L17.4648 20.9492C17.2773 21.1364 17.023 21.2415 16.758 21.2413C16.493 21.2412 16.2389 21.1359 16.0515 20.9485C15.8642 20.7611 15.7588 20.507 15.7587 20.242C15.7585 19.977 15.8636 19.7227 16.0508 19.5352L18.5859 17H11C10.7348 17 10.4804 16.8946 10.2929 16.7071C10.1054 16.5196 10 16.2652 10 16C10 15.7348 10.1054 15.4804 10.2929 15.2929C10.4804 15.1054 10.7348 15 11 15H18.5859L16.0508 12.4648C15.8636 12.2773 15.7585 12.023 15.7587 11.758C15.7588 11.493 15.8642 11.2389 16.0515 11.0515C16.2389 10.8641 16.493 10.7588 16.758 10.7587C17.023 10.7585 17.2773 10.8636 17.4648 11.0508L21.7058 15.2917C21.8455 15.4318 21.9406 15.61 21.9793 15.8039C22.0179 15.9979 21.9984 16.199 21.9231 16.3818V16.3818Z" fill="black"/>
</svg>
