<svg viewBox="0 0 32 32" xmlns="http://www.w3.org/2000/svg">
<path d="M27.7071 16.7071L18.7071 25.7071C18.5672 25.8469 18.389 25.9422 18.1951 25.9807C18.0011 26.0193 17.8 25.9995 17.6173 25.9238C17.4346 25.8481 17.2784 25.7199 17.1686 25.5555C17.0587 25.3911 17 25.1977 17 25V17H5C4.73478 17 4.48043 16.8946 4.29289 16.7071C4.10536 16.5195 4 16.2652 4 16C4 15.7348 4.10536 15.4804 4.29289 15.2929C4.48043 15.1053 4.73478 15 5 15H17V6.99997C17 6.8022 17.0587 6.60887 17.1686 6.44443C17.2784 6.27999 17.4346 6.15182 17.6173 6.07613C17.8 6.00045 18.0011 5.98063 18.1951 6.0192C18.389 6.05777 18.5672 6.15299 18.7071 6.29281L27.7071 15.2928C27.8 15.3857 27.8736 15.4959 27.9239 15.6173C27.9741 15.7386 28 15.8686 28 16C28 16.1313 27.9741 16.2613 27.9239 16.3827C27.8736 16.504 27.8 16.6143 27.7071 16.7071V16.7071Z"/>
</svg>
