<svg viewBox="0 0 32 32" xmlns="http://www.w3.org/2000/svg">
<path d="M26.7072 6.7071L23.4144 9.99994L25.7072 12.2928C25.8471 12.4327 25.9423 12.6108 25.9808 12.8048C26.0194 12.9988 25.9996 13.1999 25.9239 13.3826C25.8482 13.5653 25.7201 13.7215 25.5556 13.8314C25.3912 13.9413 25.1978 13.9999 25.0001 13.9999H19.0001C18.7349 13.9999 18.4805 13.8946 18.293 13.707C18.1054 13.5195 18.0001 13.2652 18.0001 12.9999V6.99994C18.0001 6.80217 18.0587 6.60884 18.1686 6.4444C18.2785 6.27995 18.4347 6.15179 18.6174 6.0761C18.8001 6.00041 19.0012 5.9806 19.1952 6.01917C19.3892 6.05774 19.5674 6.15296 19.7072 6.29279L22.0001 8.58564L25.2929 5.29279C25.3858 5.19993 25.496 5.12626 25.6174 5.076C25.7387 5.02575 25.8687 4.99988 26.0001 4.99988C26.1314 4.99988 26.2614 5.02575 26.3828 5.076C26.5041 5.12626 26.6144 5.19993 26.7072 5.29279C26.8001 5.38566 26.8737 5.4959 26.924 5.61724C26.9743 5.73857 27.0001 5.86861 27.0001 5.99994C27.0001 6.13127 26.9743 6.26132 26.924 6.38265C26.8737 6.50399 26.8001 6.61423 26.7072 6.7071ZM13.0001 17.9999H7.00007C6.80229 18 6.60896 18.0586 6.44452 18.1685C6.28008 18.2784 6.15191 18.4346 6.07622 18.6173C6.00053 18.8 5.98072 19.0011 6.01929 19.1951C6.05786 19.389 6.15308 19.5672 6.29291 19.7071L8.58576 21.9999L5.29291 25.2928C5.20005 25.3857 5.12638 25.4959 5.07613 25.6172C5.02587 25.7386 5 25.8686 5 25.9999C5 26.1313 5.02587 26.2613 5.07613 26.3827C5.12638 26.504 5.20005 26.6142 5.29291 26.7071C5.48046 26.8946 5.73483 27 6.00007 27C6.1314 27 6.26144 26.9741 6.38278 26.9239C6.50411 26.8736 6.61436 26.8 6.70722 26.7071L10.0001 23.4143L12.2929 25.7071C12.4328 25.8469 12.611 25.9422 12.8049 25.9807C12.9989 26.0193 13.2 25.9995 13.3827 25.9238C13.5654 25.8481 13.7216 25.7199 13.8315 25.5555C13.9414 25.3911 14 25.1977 14.0001 24.9999V18.9999C14.0001 18.7347 13.8947 18.4804 13.7072 18.2929C13.5196 18.1053 13.2653 18 13.0001 17.9999V17.9999Z"/>
</svg>
