<svg   viewBox="0 0 32 32" fill="none" xmlns="http://www.w3.org/2000/svg">
<path d="M9.97656 13.4645H3.97656C3.71135 13.4645 3.45699 13.3591 3.26946 13.1716C3.08192 12.9841 2.97657 12.7297 2.97656 12.4645V6.46451C2.97656 6.26672 3.03521 6.07338 3.1451 5.90892C3.25498 5.74447 3.41117 5.61629 3.5939 5.54061C3.77663 5.46492 3.97771 5.44512 4.17169 5.48371C4.36568 5.5223 4.54386 5.61755 4.68371 5.75742L6.97656 8.05026L7.51208 7.51474C9.7643 5.26761 12.8159 4.00562 15.9974 4.00562C19.179 4.00562 22.2306 5.26761 24.4828 7.51474C24.5758 7.60758 24.6495 7.71783 24.6999 7.83919C24.7502 7.96055 24.7761 8.09064 24.7762 8.22203C24.7762 8.35341 24.7504 8.48352 24.7001 8.60491C24.6498 8.72631 24.5762 8.8366 24.4832 8.9295C24.3903 9.0224 24.28 9.09609 24.1586 9.14634C24.0372 9.19659 23.9071 9.22243 23.7757 9.22237C23.6444 9.22232 23.5143 9.19638 23.3929 9.14602C23.2716 9.09567 23.1613 9.0219 23.0685 8.92892C21.1916 7.05636 18.6487 6.00473 15.9974 6.00473C13.3462 6.00473 10.8032 7.05636 8.92639 8.92892L8.39081 9.46451L10.6837 11.7574C10.8235 11.8973 10.9188 12.0755 10.9573 12.2694C10.9959 12.4634 10.9761 12.6645 10.9004 12.8472C10.8247 13.0299 10.6965 13.1861 10.5321 13.296C10.3677 13.4058 10.1743 13.4645 9.97656 13.4645V13.4645ZM28.0183 18.5356H22.0183C21.8205 18.5356 21.6272 18.5942 21.4628 18.7041C21.2983 18.814 21.1702 18.9702 21.0945 19.1529C21.0188 19.3356 20.999 19.5366 21.0375 19.7306C21.0761 19.9246 21.1713 20.1028 21.3112 20.2426L23.6041 22.5356L23.0685 23.0711C21.1916 24.9437 18.6487 25.9953 15.9974 25.9953C13.3462 25.9953 10.8032 24.9437 8.92639 23.0711C8.73881 22.8838 8.48453 22.7786 8.21943 22.7787C7.95434 22.7788 7.70012 22.8842 7.51266 23.0716C7.3252 23.259 7.21984 23.5132 7.21973 23.7783C7.21962 24.0434 7.32478 24.2977 7.51208 24.4853C9.76431 26.7324 12.8159 27.9944 15.9974 27.9944C19.1789 27.9944 22.2306 26.7324 24.4828 24.4853L25.0183 23.9498L27.3112 26.2426C27.451 26.3825 27.6292 26.4778 27.8232 26.5163C28.0172 26.5549 28.2182 26.5351 28.401 26.4595C28.5837 26.3838 28.7399 26.2556 28.8498 26.0911C28.9597 25.9267 29.0183 25.7333 29.0183 25.5356V19.5356C29.0183 19.2703 28.9129 19.016 28.7254 18.8285C28.5379 18.6409 28.2835 18.5356 28.0183 18.5356V18.5356Z" fill="black"/>
</svg>
