<svg   viewBox="0 0 32 32" fill="none" xmlns="http://www.w3.org/2000/svg">
<path d="M26 11V22C26 22.2652 25.8946 22.5196 25.7071 22.7071C25.5195 22.8946 25.2652 23 25 23C24.7348 23 24.4804 22.8946 24.2929 22.7071C24.1053 22.5196 24 22.2652 24 22V11C24 9.4087 23.3678 7.88258 22.2426 6.75736C21.1174 5.63214 19.5913 5 18 5C16.4087 5 14.8825 5.63214 13.7573 6.75736C12.6321 7.88258 12 9.4087 12 11V21H17C17.1977 21 17.3911 21.0587 17.5555 21.1686C17.7199 21.2784 17.8481 21.4346 17.9238 21.6173C17.9995 21.8 18.0193 22.0011 17.9807 22.1951C17.9422 22.389 17.8469 22.5672 17.7071 22.7071L11.7071 28.7071C11.5196 28.8946 11.2652 29 11 29C10.7347 29 10.4804 28.8946 10.2928 28.7071L4.29281 22.7071C4.15299 22.5672 4.05777 22.389 4.0192 22.1951C3.98063 22.0011 4.00045 21.8 4.07613 21.6173C4.15182 21.4346 4.27999 21.2784 4.44443 21.1686C4.60887 21.0587 4.8022 21 4.99997 21H9.99997V11C9.99997 8.87827 10.8428 6.84344 12.3431 5.34315C13.8434 3.84285 15.8782 3 18 3C20.1217 3 22.1565 3.84285 23.6568 5.34315C25.1571 6.84344 26 8.87827 26 11V11Z" fill="black"/>
</svg>
