<svg viewBox="0 0 32 32" xmlns="http://www.w3.org/2000/svg">
<path d="M20.2427 22.8284C20.3825 22.9682 20.4777 23.1464 20.5163 23.3404C20.5549 23.5344 20.5351 23.7355 20.4594 23.9182C20.3837 24.1009 20.2555 24.2571 20.0911 24.367C19.9266 24.4768 19.7333 24.5355 19.5355 24.5355H17V29C17 29.2652 16.8946 29.5196 16.7071 29.7071C16.5196 29.8946 16.2652 30 16 30C15.7348 30 15.4804 29.8946 15.2929 29.7071C15.1054 29.5196 15 29.2652 15 29V24.5355H12.4645C12.2667 24.5355 12.0734 24.4768 11.9089 24.367C11.7445 24.2571 11.6163 24.1009 11.5406 23.9182C11.465 23.7354 11.4451 23.5344 11.4837 23.3404C11.5223 23.1464 11.6175 22.9682 11.7573 22.8284L15.2928 19.2929C15.4804 19.1054 15.7348 19.0001 16 19.0001C16.2652 19.0001 16.5196 19.1054 16.7072 19.2929L20.2427 22.8284ZM15.2928 12.7072C15.4804 12.8947 15.7348 13 16 13C16.2652 13 16.5196 12.8947 16.7072 12.7072L20.2427 9.17164C20.3825 9.03177 20.4777 8.85358 20.5163 8.6596C20.5549 8.46562 20.5351 8.26456 20.4594 8.08184C20.3837 7.89912 20.2555 7.74294 20.0911 7.63305C19.9266 7.52317 19.7333 7.4645 19.5355 7.46448H17V3C17 2.73478 16.8946 2.48043 16.7071 2.29289C16.5196 2.10536 16.2652 2 16 2C15.7348 2 15.4804 2.10536 15.2929 2.29289C15.1054 2.48043 15 2.73478 15 3V7.46448H12.4645C12.2667 7.4645 12.0734 7.52316 11.9089 7.63305C11.7445 7.74293 11.6163 7.89911 11.5406 8.08183C11.4649 8.26455 11.4451 8.46561 11.4837 8.65959C11.5223 8.85357 11.6175 9.03176 11.7573 9.17163L15.2928 12.7072ZM12.7072 15.2929L9.17163 11.7573C9.03176 11.6175 8.85357 11.5223 8.65959 11.4837C8.46561 11.4451 8.26455 11.4649 8.08183 11.5406C7.89911 11.6163 7.74293 11.7445 7.63305 11.9089C7.52316 12.0734 7.4645 12.2667 7.46448 12.4645V15H3C2.73478 15 2.48043 15.1054 2.29289 15.2929C2.10536 15.4804 2 15.7348 2 16C2 16.2652 2.10536 16.5196 2.29289 16.7071C2.48043 16.8946 2.73478 17 3 17H7.46448V19.5355C7.46449 19.7333 7.52315 19.9266 7.63303 20.0911C7.74292 20.2555 7.8991 20.3837 8.08182 20.4594C8.26455 20.5351 8.46561 20.5549 8.65959 20.5163C8.85358 20.4777 9.03177 20.3825 9.17163 20.2427L12.7072 16.7072C12.8947 16.5196 13 16.2652 13 16C13 15.7348 12.8947 15.4804 12.7072 15.2928V15.2929ZM29 15H24.5355V12.4645C24.5355 12.2667 24.4768 12.0734 24.367 11.9089C24.2571 11.7445 24.1009 11.6163 23.9182 11.5406C23.7354 11.465 23.5344 11.4451 23.3404 11.4837C23.1464 11.5223 22.9682 11.6175 22.8284 11.7573L19.2929 15.2928C19.1053 15.4804 19 15.7348 19 16C19 16.2652 19.1053 16.5196 19.2929 16.7072L22.8284 20.2427C22.9682 20.3825 23.1464 20.4777 23.3404 20.5163C23.5344 20.5549 23.7355 20.5351 23.9182 20.4594C24.1009 20.3837 24.2571 20.2555 24.367 20.0911C24.4768 19.9266 24.5355 19.7333 24.5355 19.5355V17H29C29.2652 17 29.5196 16.8946 29.7071 16.7071C29.8946 16.5196 30 16.2652 30 16C30 15.7348 29.8946 15.4804 29.7071 15.2929C29.5196 15.1054 29.2652 15 29 15Z"/>
</svg>
