<svg   viewBox="0 0 32 32" fill="none" xmlns="http://www.w3.org/2000/svg">
<path d="M29 8C29 8.26522 28.8946 8.51957 28.7071 8.7071C28.5195 8.89464 28.2652 9 28 9H11V19H16C16.1977 19 16.3911 19.0587 16.5555 19.1686C16.7199 19.2784 16.8481 19.4346 16.9238 19.6173C16.9995 19.8 17.0193 20.0011 16.9807 20.1951C16.9422 20.389 16.8469 20.5672 16.7071 20.7071L10.7071 26.7071C10.5196 26.8946 10.2652 27 9.99997 27C9.73473 27 9.48036 26.8946 9.29281 26.7071L3.29281 20.7071C3.15299 20.5672 3.05777 20.389 3.0192 20.1951C2.98063 20.0011 3.00045 19.8 3.07613 19.6173C3.15182 19.4346 3.27999 19.2784 3.44443 19.1686C3.60887 19.0587 3.8022 19 3.99997 19H8.99997V8C8.99997 7.73478 9.10533 7.48043 9.29286 7.2929C9.4804 7.10536 9.73475 7 9.99997 7H28C28.2652 7 28.5195 7.10536 28.7071 7.2929C28.8946 7.48043 29 7.73478 29 8Z" fill="black"/>
</svg>
