<svg   viewBox="0 0 32 32" fill="none" xmlns="http://www.w3.org/2000/svg">
<path d="M24.7071 8.70718L15.9143 17.5L21.7072 23.2929C21.847 23.4327 21.9422 23.6109 21.9808 23.8049C22.0194 23.9989 21.9996 24.2 21.9239 24.3827C21.8482 24.5654 21.72 24.7216 21.5556 24.8315C21.3911 24.9414 21.1978 25 21 25H8C7.73479 25 7.48044 24.8947 7.29291 24.7071C7.10537 24.5196 7.00001 24.2652 7 24V11C7.00002 10.8023 7.05868 10.6089 7.16857 10.4445C7.27846 10.28 7.43463 10.1519 7.61735 10.0762C7.80008 10.0005 8.00114 9.98068 8.19512 10.0193C8.3891 10.0578 8.56729 10.153 8.70715 10.2929L14.5 16.0858L23.2929 7.29287C23.4805 7.10534 23.7348 6.99999 24 7C24.2653 7.00001 24.5196 7.10538 24.7072 7.29293C24.8947 7.48048 25 7.73484 25 8.00007C25 8.26529 24.8946 8.51964 24.7071 8.70718V8.70718Z" fill="black"/>
</svg>
