<svg viewBox="0 0 32 32" xmlns="http://www.w3.org/2000/svg">
<path d="M29.4852 10.5147V18.5147C29.4852 18.78 29.3799 19.0343 29.1923 19.2218C29.0048 19.4094 28.7504 19.5147 28.4852 19.5147H20.4852C20.2875 19.5147 20.0941 19.4561 19.9297 19.3462C19.7652 19.2363 19.6371 19.0801 19.5614 18.8974C19.4857 18.7147 19.4659 18.5136 19.5045 18.3196C19.543 18.1257 19.6382 17.9475 19.7781 17.8076L23.0381 14.5476C21.4319 13.21 19.4777 12.3577 17.4045 12.0907C15.3313 11.8236 13.225 12.1529 11.3322 13.0398C9.43941 13.9267 7.83852 15.3347 6.71706 17.0987C5.59559 18.8627 4.99999 20.9097 5 23C5 23.2652 4.89464 23.5196 4.70711 23.7071C4.51957 23.8946 4.26522 24 4 24C3.73478 24 3.48043 23.8946 3.29289 23.7071C3.10536 23.5196 3 23.2652 3 23C3.00011 20.514 3.71298 18.0802 5.0541 15.987C6.39521 13.8939 8.30835 12.2291 10.5667 11.19C12.8251 10.151 15.3341 9.78122 17.7962 10.1246C20.2584 10.4679 22.5704 11.51 24.4584 13.1273L27.7781 9.8076C27.9179 9.66776 28.0961 9.57254 28.2901 9.53397C28.4841 9.4954 28.6852 9.51521 28.8679 9.5909C29.0506 9.66659 29.2068 9.79476 29.3167 9.9592C29.4265 10.1236 29.4852 10.317 29.4852 10.5147H29.4852Z"/>
</svg>
