<svg   viewBox="0 0 32 32" fill="none" xmlns="http://www.w3.org/2000/svg">
<path d="M16 3C13.4288 3 10.9154 3.76244 8.77759 5.1909C6.63975 6.61935 4.97351 8.64968 3.98957 11.0251C3.00563 13.4006 2.74819 16.0144 3.2498 18.5362C3.75141 21.0579 4.98953 23.3743 6.80762 25.1924C8.6257 27.0105 10.9421 28.2486 13.4638 28.7502C15.9856 29.2518 18.5995 28.9944 20.9749 28.0104C23.3503 27.0265 25.3807 25.3603 26.8091 23.2224C28.2376 21.0846 29 18.5712 29 16C28.996 12.5534 27.6251 9.24912 25.188 6.81201C22.7509 4.3749 19.4466 3.00398 16 3V3ZM21 17H13.4141L15.9492 19.5352C16.0422 19.628 16.116 19.7382 16.1664 19.8596C16.2168 19.9809 16.2428 20.111 16.2428 20.2424C16.2429 20.3738 16.2171 20.5039 16.1668 20.6253C16.1166 20.7467 16.0429 20.8571 15.95 20.95C15.8571 21.0429 15.7468 21.1166 15.6253 21.1668C15.5039 21.2171 15.3738 21.2429 15.2424 21.2428C15.111 21.2428 14.9809 21.2168 14.8596 21.1664C14.7382 21.116 14.628 21.0422 14.5352 20.9492L10.2942 16.7083C10.1067 16.5202 10.0014 16.2655 10.0014 16C10.0014 15.7345 10.1067 15.4798 10.2942 15.2917L14.5352 11.0508C14.7227 10.8636 14.977 10.7585 15.242 10.7587C15.507 10.7588 15.7611 10.8642 15.9485 11.0515C16.1359 11.2389 16.2412 11.493 16.2413 11.758C16.2415 12.023 16.1364 12.2773 15.9492 12.4648L13.4141 15H21C21.2652 15 21.5196 15.1054 21.7071 15.2929C21.8946 15.4804 22 15.7348 22 16C22 16.2652 21.8946 16.5196 21.7071 16.7071C21.5196 16.8946 21.2652 17 21 17Z" fill="black"/>
</svg>
