<svg   viewBox="0 0 32 32" fill="none" xmlns="http://www.w3.org/2000/svg">
<path d="M29.0009 23C29.0009 23.2652 28.8955 23.5196 28.708 23.7071C28.5204 23.8946 28.2661 24 28.0009 24C27.7356 24 27.4813 23.8946 27.2937 23.7071C27.1062 23.5196 27.0009 23.2652 27.0009 23C27.0011 20.9096 26.4056 18.8624 25.2842 17.0983C24.1627 15.3342 22.5618 13.9262 20.6689 13.0392C18.7761 12.1522 16.6696 11.823 14.5964 12.0902C12.5231 12.3573 10.5689 13.2097 8.96274 14.5476L12.2228 17.8076C12.3626 17.9475 12.4578 18.1257 12.4964 18.3196C12.535 18.5136 12.5152 18.7147 12.4395 18.8974C12.3638 19.0801 12.2356 19.2363 12.0712 19.3462C11.9067 19.4561 11.7134 19.5147 11.5156 19.5147H3.51562C3.25041 19.5147 2.99607 19.4094 2.80853 19.2218C2.621 19.0343 2.51564 18.78 2.51562 18.5147V10.5147C2.51565 10.317 2.57431 10.1236 2.68419 9.9592C2.79408 9.79476 2.95026 9.66659 3.13298 9.5909C3.3157 9.51521 3.51676 9.4954 3.71074 9.53397C3.90472 9.57254 4.08291 9.66776 4.22278 9.8076L7.54248 13.1273C9.43041 11.5099 11.7425 10.4678 14.2046 10.1244C16.6668 9.78098 19.1758 10.1507 21.4342 11.1898C23.6926 12.2289 25.6058 13.8937 26.9469 15.9869C28.288 18.0801 29.0008 20.514 29.0009 23Z" fill="black"/>
</svg>
