<svg   viewBox="0 0 32 32" fill="none" xmlns="http://www.w3.org/2000/svg">
<path d="M26.7072 22.7072L22.7072 26.7072C22.5673 26.847 22.3891 26.9423 22.1951 26.9808C22.0012 27.0194 21.8001 26.9996 21.6174 26.9239C21.4346 26.8482 21.2785 26.7201 21.1686 26.5556C21.0587 26.3912 21 26.1978 21 26V23H6.00003C5.73481 23 5.48046 22.8947 5.29292 22.7071C5.10539 22.5196 5.00003 22.2652 5.00003 22C5.00003 21.7348 5.10539 21.4805 5.29292 21.2929C5.48046 21.1054 5.73481 21 6.00003 21H21V18C21 17.8022 21.0587 17.6089 21.1686 17.4444C21.2785 17.28 21.4346 17.1518 21.6174 17.0761C21.8001 17.0004 22.0012 16.9806 22.1951 17.0192C22.3891 17.0578 22.5673 17.153 22.7072 17.2929L26.7072 21.2929C26.8947 21.4804 27.0001 21.7348 27.0001 22C27.0001 22.2653 26.8947 22.5196 26.7072 22.7072ZM9.29288 14.7072C9.43274 14.847 9.61093 14.9423 9.80491 14.9808C9.9989 15.0194 10.2 14.9996 10.3827 14.9239C10.5654 14.8482 10.7216 14.7201 10.8315 14.5556C10.9414 14.3912 11 14.1978 11 14V11H26C26.2652 11 26.5196 10.8947 26.7071 10.7071C26.8947 10.5196 27 10.2652 27 10C27 9.73481 26.8947 9.48046 26.7071 9.29292C26.5196 9.10538 26.2652 9.00003 26 9.00003H11V6.00003C11 5.80224 10.9414 5.6089 10.8315 5.44445C10.7216 5.28 10.5654 5.15182 10.3827 5.07613C10.2 5.00044 9.9989 4.98063 9.80491 5.01921C9.61093 5.05779 9.43274 5.15303 9.29288 5.29287L5.29288 9.29287C5.10535 9.48043 5 9.7348 5 10C5 10.2653 5.10535 10.5196 5.29288 10.7072L9.29288 14.7072Z" fill="black"/>
</svg>
