<svg viewBox="0 0 32 32" xmlns="http://www.w3.org/2000/svg">
<path d="M14.2928 28.7071L2.29278 16.7071C2.10531 16.5195 2 16.2652 2 16C2 15.7348 2.10531 15.4805 2.29278 15.2929L14.2928 3.29292C14.4326 3.15306 14.6108 3.05781 14.8048 3.01922C14.9988 2.98063 15.1999 3.00043 15.3826 3.07612C15.5653 3.1518 15.7215 3.27998 15.8314 3.44443C15.9413 3.60888 15.9999 3.80223 15.9999 4.00002V9.00002H18.9999C19.2652 9.00002 19.5195 9.10538 19.707 9.29291C19.8946 9.48045 19.9999 9.7348 19.9999 10V22C19.9999 22.2652 19.8946 22.5196 19.707 22.7071C19.5195 22.8947 19.2652 23 18.9999 23H15.9999V28C15.9999 28.1978 15.9413 28.3911 15.8314 28.5556C15.7215 28.7201 15.5653 28.8482 15.3826 28.9239C15.1999 28.9996 14.9988 29.0194 14.8048 28.9808C14.6108 28.9422 14.4326 28.847 14.2928 28.7071V28.7071ZM26.9999 23C27.2652 23 27.5195 22.8947 27.707 22.7071C27.8946 22.5196 27.9999 22.2652 27.9999 22V10C27.9999 9.7348 27.8946 9.48045 27.707 9.29291C27.5195 9.10537 27.2652 9.00002 26.9999 9.00002C26.7347 9.00002 26.4804 9.10537 26.2928 9.29291C26.1053 9.48045 25.9999 9.7348 25.9999 10V22C25.9999 22.2652 26.1053 22.5196 26.2928 22.7071C26.4804 22.8947 26.7347 23 26.9999 23V23ZM22.9999 23C23.2652 23 23.5195 22.8947 23.707 22.7071C23.8946 22.5196 23.9999 22.2652 23.9999 22V10C23.9999 9.7348 23.8946 9.48045 23.707 9.29291C23.5195 9.10537 23.2652 9.00002 22.9999 9.00002C22.7347 9.00002 22.4804 9.10537 22.2928 9.29291C22.1053 9.48045 21.9999 9.7348 21.9999 10V22C21.9999 22.2652 22.1053 22.5196 22.2928 22.7071C22.4804 22.8947 22.7347 23 22.9999 23Z"/>
</svg>
