<svg viewBox="0 0 32 32" xmlns="http://www.w3.org/2000/svg">
<path d="M28.7071 17.7072L16.7071 29.7072C16.5195 29.8946 16.2652 29.9999 16 29.9999C15.7348 29.9999 15.4805 29.8946 15.2929 29.7072L3.29292 17.7072C3.15306 17.5673 3.05781 17.3891 3.01922 17.1951C2.98063 17.0011 3.00043 16.8001 3.07612 16.6173C3.1518 16.4346 3.27998 16.2784 3.44443 16.1685C3.60888 16.0587 3.80223 16 4.00002 16H9.00002V13C9.00002 12.7348 9.10538 12.4804 9.29291 12.2929C9.48045 12.1054 9.7348 12 10 12H22C22.2652 12 22.5196 12.1054 22.7071 12.2929C22.8947 12.4804 23 12.7348 23 13V16H28C28.1978 16 28.3911 16.0587 28.5556 16.1685C28.7201 16.2784 28.8482 16.4346 28.9239 16.6173C28.9996 16.8001 29.0194 17.0011 28.9808 17.1951C28.9422 17.3891 28.847 17.5673 28.7071 17.7072V17.7072ZM23 5C23 4.73478 22.8947 4.48043 22.7071 4.2929C22.5196 4.10536 22.2652 4 22 4H10C9.7348 4 9.48045 4.10536 9.29291 4.29289C9.10537 4.48043 9.00002 4.73478 9.00002 5C9.00002 5.26522 9.10537 5.51957 9.29291 5.70711C9.48045 5.89464 9.7348 6 10 6H22C22.2652 6 22.5196 5.89464 22.7071 5.7071C22.8947 5.51957 23 5.26522 23 5V5ZM23 9C23 8.73478 22.8947 8.48043 22.7071 8.2929C22.5196 8.10536 22.2652 8 22 8H10C9.7348 8 9.48045 8.10536 9.29291 8.29289C9.10537 8.48043 9.00002 8.73478 9.00002 9C9.00002 9.26522 9.10537 9.51957 9.29291 9.70711C9.48045 9.89464 9.7348 10 10 10H22C22.2652 10 22.5196 9.89464 22.7071 9.7071C22.8947 9.51957 23 9.26522 23 9Z"/>
</svg>
