<svg viewBox="0 0 32 32" xmlns="http://www.w3.org/2000/svg">
<path d="M24.7071 24.7072C24.5195 24.8947 24.2652 25 24 25C23.7348 25 23.4805 24.8947 23.2929 24.7072L14.5 15.9143L8.70715 21.7072C8.56729 21.847 8.3891 21.9422 8.19512 21.9808C8.00114 22.0193 7.80008 21.9995 7.61735 21.9238C7.43463 21.8482 7.27846 21.72 7.16857 21.5555C7.05868 21.3911 7.00002 21.1978 7 21V8C7.00001 7.73479 7.10537 7.48044 7.29291 7.29291C7.48044 7.10537 7.73479 7.00001 8 7H21C21.1978 7 21.3911 7.05866 21.5556 7.16854C21.72 7.27842 21.8482 7.43461 21.9239 7.61733C21.9996 7.80006 22.0194 8.00113 21.9808 8.19512C21.9422 8.3891 21.847 8.56729 21.7072 8.70715L15.9143 14.5L24.7071 23.2928C24.8 23.3857 24.8736 23.496 24.9239 23.6173C24.9742 23.7386 25 23.8687 25 24C25 24.1313 24.9741 24.2614 24.9239 24.3827C24.8736 24.504 24.8 24.6143 24.7071 24.7072Z"/>
</svg>
