<svg   viewBox="0 0 32 32" fill="none" xmlns="http://www.w3.org/2000/svg">
<path d="M23.7072 15.2929C23.8947 15.4804 24 15.7348 24 16C24 16.2652 23.8947 16.5196 23.7072 16.7071L14.7072 25.7071C14.5673 25.847 14.3891 25.9422 14.1951 25.9808C14.0011 26.0194 13.8001 25.9996 13.6173 25.9239C13.4346 25.8482 13.2784 25.72 13.1685 25.5556C13.0587 25.3911 13 25.1978 13 25V17H4C3.73478 17 3.48043 16.8946 3.29289 16.7071C3.10536 16.5196 3 16.2652 3 16C3 15.7348 3.10536 15.4804 3.29289 15.2929C3.48043 15.1054 3.73478 15 4 15H13V7C13 6.80221 13.0587 6.60887 13.1685 6.44441C13.2784 6.27996 13.4346 6.15179 13.6173 6.0761C13.8001 6.00041 14.0011 5.98061 14.1951 6.01921C14.3891 6.0578 14.5673 6.15305 14.7072 6.29291L23.7072 15.2929ZM27.0005 4C26.7353 4 26.4809 4.10536 26.2934 4.2929C26.1058 4.48043 26.0005 4.73478 26.0005 5V27C26.0005 27.2652 26.1058 27.5196 26.2934 27.7071C26.4809 27.8946 26.7353 28 27.0005 28C27.2657 28 27.5201 27.8946 27.7076 27.7071C27.8951 27.5196 28.0005 27.2652 28.0005 27V5C28.0005 4.73478 27.8951 4.48043 27.7076 4.2929C27.5201 4.10536 27.2657 4 27.0005 4V4Z" fill="black"/>
</svg>
