<svg   viewBox="0 0 32 32" fill="none" xmlns="http://www.w3.org/2000/svg">
<path d="M25.7071 18.7072L16.7071 27.7072C16.5196 27.8947 16.2652 28 16 28C15.7348 28 15.4805 27.8947 15.2929 27.7072L6.29292 18.7072C6.15306 18.5673 6.05781 18.3891 6.01922 18.1951C5.98063 18.0011 6.00043 17.8001 6.07612 17.6173C6.1518 17.4346 6.27998 17.2784 6.44443 17.1685C6.60888 17.0587 6.80223 17 7.00002 17H15V5C15 4.73478 15.1054 4.48043 15.2929 4.29289C15.4804 4.10536 15.7348 4 16 4C16.2652 4 16.5196 4.10536 16.7071 4.29289C16.8947 4.48043 17 4.73478 17 5V17H25C25.1978 17 25.3911 17.0587 25.5556 17.1685C25.7201 17.2784 25.8482 17.4346 25.9239 17.6173C25.9996 17.8001 26.0194 18.0011 25.9808 18.1951C25.9422 18.3891 25.847 18.5673 25.7071 18.7072Z" fill="black"/>
</svg>
