<svg   viewBox="0 0 32 32" fill="none" xmlns="http://www.w3.org/2000/svg">
<path d="M7 19.5V7C7 6.73478 7.10536 6.48043 7.2929 6.2929C7.48043 6.10536 7.73478 6 8 6H20.5C20.6978 6 20.8911 6.05865 21.0556 6.16852C21.22 6.2784 21.3482 6.43458 21.4239 6.6173C21.4996 6.80002 21.5194 7.00109 21.4808 7.19507C21.4422 7.38905 21.347 7.56723 21.2072 7.70709L15.6642 13.25L22.7072 20.2929C22.8947 20.4805 23 20.7348 23 21C23 21.2653 22.8946 21.5196 22.7071 21.7072C22.5195 21.8947 22.2652 22 22 22C21.7347 22 21.4804 21.8946 21.2928 21.7071L14.25 14.6642L8.70715 20.2071C8.5673 20.347 8.38912 20.4422 8.19513 20.4808C8.00115 20.5194 7.80007 20.4996 7.61734 20.4239C7.43461 20.3482 7.27842 20.22 7.16854 20.0556C7.05865 19.8911 7 19.6978 7 19.5ZM27 25.9995H5C4.73478 25.9995 4.48043 26.1049 4.29289 26.2924C4.10536 26.4799 4 26.7343 4 26.9995C4 27.2647 4.10536 27.5191 4.29289 27.7066C4.48043 27.8942 4.73478 27.9995 5 27.9995H27C27.2652 27.9995 27.5196 27.8942 27.7071 27.7066C27.8946 27.5191 28 27.2647 28 26.9995C28 26.7343 27.8946 26.4799 27.7071 26.2924C27.5196 26.1049 27.2652 25.9995 27 25.9995Z" fill="black"/>
</svg>
