<svg   viewBox="0 0 32 32" fill="none" xmlns="http://www.w3.org/2000/svg">
<path d="M29 7C28.9961 10.4466 27.6252 13.751 25.1881 16.1881C22.751 18.6252 19.4466 19.9961 16 20H11V25C11 25.1978 10.9414 25.3911 10.8315 25.5556C10.7216 25.72 10.5654 25.8482 10.3827 25.9239C10.2 25.9996 9.9989 26.0194 9.80491 25.9808C9.61093 25.9422 9.43274 25.847 9.29288 25.7072L3.29288 19.7072C3.10535 19.5196 3 19.2652 3 19C3 18.7348 3.10535 18.4804 3.29288 18.2928L9.29288 12.2928C9.43275 12.153 9.61093 12.0578 9.80491 12.0192C9.99889 11.9807 10.2 12.0005 10.3827 12.0762C10.5654 12.1518 10.7216 12.28 10.8315 12.4445C10.9413 12.6089 11 12.8022 11 13V18H16C18.9164 17.9967 21.7124 16.8367 23.7746 14.7745C25.8368 12.7123 26.9967 9.91637 27 7C27 6.73478 27.1054 6.48043 27.2929 6.29289C27.4805 6.10536 27.7348 6 28 6C28.2652 6 28.5196 6.10536 28.7071 6.29289C28.8947 6.48043 29 6.73478 29 7Z" fill="black"/>
</svg>
