<svg viewBox="0 0 32 32" xmlns="http://www.w3.org/2000/svg">
<path d="M28 16C28 16.2652 27.8946 16.5195 27.7071 16.7071C27.5196 16.8946 27.2652 17 27 17H15V25C15 25.1977 14.9414 25.3911 14.8315 25.5555C14.7216 25.72 14.5654 25.8481 14.3827 25.9238C14.2 25.9995 13.9989 26.0193 13.8049 25.9808C13.611 25.9422 13.4328 25.847 13.2929 25.7071L4.29292 16.7071C4.20006 16.6143 4.12639 16.504 4.07613 16.3827C4.02587 16.2613 4 16.1313 4 16C4 15.8686 4.02587 15.7386 4.07613 15.6173C4.12639 15.4959 4.20006 15.3857 4.29292 15.2928L13.2929 6.29281C13.4328 6.15299 13.611 6.05777 13.8049 6.0192C13.9989 5.98063 14.2 6.00045 14.3827 6.07613C14.5654 6.15182 14.7216 6.27999 14.8315 6.44443C14.9413 6.60887 15 6.8022 15 6.99997V15H27C27.2652 15 27.5196 15.1053 27.7071 15.2929C27.8946 15.4804 28 15.7348 28 16V16Z"/>
</svg>
