<svg   viewBox="0 0 32 32" fill="none" xmlns="http://www.w3.org/2000/svg">
<path d="M16 3C13.4288 3 10.9154 3.76244 8.77759 5.1909C6.63975 6.61935 4.97351 8.64968 3.98957 11.0251C3.00563 13.4006 2.74819 16.0144 3.2498 18.5362C3.75141 21.0579 4.98953 23.3743 6.80762 25.1924C8.6257 27.0105 10.9421 28.2486 13.4638 28.7502C15.9856 29.2518 18.5995 28.9944 20.9749 28.0104C23.3503 27.0265 25.3807 25.3603 26.8091 23.2224C28.2376 21.0846 29 18.5712 29 16C28.996 12.5534 27.6251 9.24912 25.188 6.81201C22.7509 4.3749 19.4466 3.00398 16 3V3ZM20.9492 15.9492C20.8564 16.0421 20.7462 16.1158 20.6249 16.166C20.5035 16.2163 20.3735 16.2422 20.2422 16.2422C20.1109 16.2422 19.9808 16.2163 19.8595 16.166C19.7382 16.1158 19.628 16.0421 19.5352 15.9492L17 13.4141V21C17 21.2652 16.8946 21.5196 16.7071 21.7071C16.5196 21.8946 16.2652 22 16 22C15.7348 22 15.4804 21.8946 15.2929 21.7071C15.1054 21.5196 15 21.2652 15 21V13.4141L12.4648 15.9492C12.2773 16.1364 12.023 16.2415 11.758 16.2413C11.493 16.2412 11.2389 16.1359 11.0515 15.9485C10.8642 15.7611 10.7588 15.507 10.7587 15.242C10.7585 14.977 10.8636 14.7227 11.0508 14.5352L15.2918 10.2942C15.4798 10.1067 15.7345 10.0014 16 10.0014C16.2655 10.0014 16.5202 10.1067 16.7083 10.2942L20.9492 14.5352C21.0421 14.628 21.1158 14.7382 21.166 14.8595C21.2163 14.9808 21.2422 15.1109 21.2422 15.2422C21.2422 15.3735 21.2163 15.5035 21.166 15.6249C21.1158 15.7462 21.0421 15.8564 20.9492 15.9492Z" fill="black"/>
</svg>
