<svg   viewBox="0 0 32 32" fill="none" xmlns="http://www.w3.org/2000/svg">
<path d="M16.6173 28.9238C16.4346 28.8481 16.2784 28.72 16.1685 28.5555C16.0587 28.3911 16 28.1978 16 28V23H6C5.46975 22.9994 4.9614 22.7885 4.58646 22.4135C4.21151 22.0386 4.00061 21.5302 4 21V11C4.00061 10.4697 4.21151 9.96138 4.58646 9.58644C4.9614 9.21149 5.46975 9.00059 6 8.99998H16V3.99998C16 3.8022 16.0587 3.60887 16.1686 3.44443C16.2785 3.27999 16.4346 3.15182 16.6174 3.07613C16.8001 3.00044 17.0011 2.98063 17.1951 3.0192C17.3891 3.05777 17.5673 3.15299 17.7072 3.29283L29.7072 15.2928C29.8946 15.4804 29.9999 15.7348 29.9999 16C29.9999 16.2652 29.8946 16.5195 29.7072 16.7071L17.7072 28.7071C17.5673 28.847 17.3891 28.9422 17.1951 28.9807C17.0011 29.0193 16.8 28.9995 16.6173 28.9238V28.9238Z" fill="black"/>
</svg>
