<svg   viewBox="0 0 32 32" fill="none" xmlns="http://www.w3.org/2000/svg">
<path d="M26 28.0001C26 28.2653 25.8946 28.5196 25.7071 28.7072C25.5195 28.8947 25.2652 29 25 29.0001C21.5534 28.9962 18.249 27.6253 15.8119 25.1881C13.3748 22.751 12.0039 19.4467 12 16.0001V11.0001H6.99998C6.8022 11 6.60887 10.9414 6.44443 10.8315C6.27999 10.7216 6.15182 10.5654 6.07613 10.3827C6.00044 10.2 5.98063 9.99892 6.0192 9.80494C6.05777 9.61096 6.15299 9.43278 6.29283 9.29291L12.2928 3.29291C12.4804 3.10543 12.7348 3.00012 13 3.00012C13.2652 3.00012 13.5195 3.10543 13.7071 3.29291L19.7071 9.29291C19.847 9.43278 19.9422 9.61096 19.9808 9.80494C20.0193 9.99892 19.9995 10.2 19.9238 10.3827C19.8481 10.5654 19.72 10.7216 19.5555 10.8315C19.3911 10.9414 19.1978 11 19 11.0001H14V16.0001C14.0033 18.9164 15.1633 21.7124 17.2254 23.7746C19.2876 25.8368 22.0836 26.9968 25 27.0001C25.2652 27.0001 25.5195 27.1054 25.7071 27.293C25.8946 27.4805 26 27.7348 26 28.0001V28.0001Z" fill="black"/>
</svg>
