<svg viewBox="0 0 32 32" xmlns="http://www.w3.org/2000/svg">
<path d="M28 12.4999C28 12.6977 27.9414 12.891 27.8315 13.0555C27.7216 13.2199 27.5654 13.3481 27.3827 13.4238C27.2 13.4995 26.9989 13.5194 26.8049 13.4808C26.6109 13.4422 26.4327 13.347 26.2928 13.2072L23.25 10.1643L18.7035 14.7107C18.5159 14.8982 18.2616 15.0036 17.9964 15.0036C17.7311 15.0036 17.4768 14.8982 17.2892 14.7106C17.1017 14.5231 16.9964 14.2687 16.9964 14.0035C16.9964 13.7383 17.1018 13.4839 17.2893 13.2964L21.8357 8.75L18.7928 5.70715C18.653 5.56729 18.5578 5.3891 18.5192 5.19512C18.4807 5.00114 18.5005 4.80008 18.5762 4.61735C18.6518 4.43463 18.78 4.27846 18.9445 4.16857C19.1089 4.05868 19.3022 4.00002 19.5 4H19.5001L26.9991 4.00098C27.2643 4.00101 27.5186 4.10636 27.7061 4.29387C27.8936 4.48138 27.999 4.73568 27.999 5.00085L28 12.4999ZM23 17C22.7348 17 22.4804 17.1054 22.2929 17.2929C22.1054 17.4804 22 17.7348 22 18V26H6V10H14C14.2652 10 14.5196 9.89464 14.7071 9.70711C14.8946 9.51957 15 9.26522 15 9C15 8.73478 14.8946 8.48043 14.7071 8.29289C14.5196 8.10536 14.2652 8 14 8H6C5.46975 8.00061 4.9614 8.21151 4.58646 8.58646C4.21151 8.9614 4.00061 9.46975 4 10V26C4.00061 26.5302 4.21151 27.0386 4.58646 27.4135C4.9614 27.7885 5.46975 27.9994 6 28H22C22.5302 27.9994 23.0386 27.7885 23.4135 27.4135C23.7885 27.0386 23.9994 26.5302 24 26V18C24 17.7348 23.8946 17.4804 23.7071 17.2929C23.5196 17.1054 23.2652 17 23 17V17Z"/>
</svg>
