<svg   viewBox="0 0 32 32" fill="none" xmlns="http://www.w3.org/2000/svg">
<path d="M25 4V22C25 22.2652 24.8947 22.5196 24.7071 22.7071C24.5196 22.8946 24.2652 23 24 23H13V28C13 28.1978 12.9414 28.3911 12.8315 28.5556C12.7216 28.72 12.5654 28.8482 12.3827 28.9239C12.2 28.9996 11.9989 29.0194 11.8049 28.9808C11.6109 28.9422 11.4327 28.8469 11.2929 28.7071L5.29288 22.7071C5.10535 22.5196 5 22.2652 5 22C5 21.7348 5.10535 21.4804 5.29288 21.2929L11.2929 15.2929C11.4327 15.153 11.6109 15.0578 11.8049 15.0192C11.9989 14.9806 12.2 15.0004 12.3827 15.0761C12.5654 15.1518 12.7216 15.28 12.8315 15.4444C12.9414 15.6089 13 15.8022 13 16V21H23V4C23 3.73478 23.1054 3.48043 23.2929 3.29289C23.4805 3.10536 23.7348 3 24 3C24.2652 3 24.5196 3.10536 24.7071 3.29289C24.8947 3.48043 25 3.73478 25 4V4Z" fill="black"/>
</svg>
