<svg   viewBox="0 0 32 32" fill="none" xmlns="http://www.w3.org/2000/svg">
<path d="M22.7072 10.2928C22.8947 10.4804 23 10.7348 23 11C23 11.2652 22.8947 11.5196 22.7072 11.7072L15.6643 18.75L21.2072 24.2928C21.347 24.4327 21.4422 24.6109 21.4808 24.8049C21.5194 24.9989 21.4996 25.1999 21.4239 25.3827C21.3482 25.5654 21.22 25.7216 21.0556 25.8315C20.8911 25.9413 20.6978 26 20.5 26H8C7.73479 26 7.48044 25.8946 7.29291 25.7071C7.10537 25.5196 7.00001 25.2652 7 25V12.5C7.00002 12.3022 7.05868 12.1089 7.16857 11.9444C7.27846 11.78 7.43463 11.6518 7.61735 11.5762C7.80008 11.5005 8.00114 11.4807 8.19512 11.5192C8.3891 11.5578 8.56729 11.653 8.70715 11.7928L14.25 17.3357L21.2928 10.2928C21.4804 10.1054 21.7348 10.0001 22 10.0001C22.2652 10.0001 22.5196 10.1054 22.7072 10.2928V10.2928ZM27 4.00049H5C4.73478 4.00049 4.48043 4.10585 4.29289 4.29338C4.10536 4.48092 4 4.73527 4 5.00049C4 5.2657 4.10536 5.52006 4.29289 5.70759C4.48043 5.89513 4.73478 6.00049 5 6.00049H27C27.2652 6.00049 27.5196 5.89513 27.7071 5.70759C27.8946 5.52006 28 5.2657 28 5.00049C28 4.73527 27.8946 4.48092 27.7071 4.29338C27.5196 4.10585 27.2652 4.00049 27 4.00049Z" fill="black"/>
</svg>
