<svg   viewBox="0 0 32 32" fill="none" xmlns="http://www.w3.org/2000/svg">
<path d="M16.6173 28.9238C16.4346 28.8481 16.2784 28.72 16.1685 28.5555C16.0587 28.3911 16 28.1978 16 28V23H9C8.73479 23 8.48044 22.8946 8.29291 22.7071C8.10537 22.5195 8.00001 22.2652 8 22V9.99998C8.00001 9.73477 8.10537 9.48042 8.29291 9.29289C8.48044 9.10535 8.73479 8.99999 9 8.99998H16V3.99998C16 3.8022 16.0587 3.60887 16.1686 3.44443C16.2785 3.27999 16.4346 3.15182 16.6174 3.07613C16.8001 3.00044 17.0011 2.98063 17.1951 3.0192C17.3891 3.05777 17.5673 3.15299 17.7072 3.29283L29.7072 15.2928C29.8946 15.4804 29.9999 15.7348 29.9999 16C29.9999 16.2652 29.8946 16.5195 29.7072 16.7071L17.7072 28.7071C17.5673 28.847 17.3891 28.9422 17.1951 28.9807C17.0011 29.0193 16.8 28.9995 16.6173 28.9238V28.9238ZM6 22V9.99998C6 9.73476 5.89464 9.48041 5.70711 9.29287C5.51957 9.10534 5.26522 8.99998 5 8.99998C4.73478 8.99998 4.48043 9.10534 4.29289 9.29287C4.10536 9.48041 4 9.73476 4 9.99998V22C4 22.2652 4.10536 22.5196 4.29289 22.7071C4.48043 22.8946 4.73478 23 5 23C5.26522 23 5.51957 22.8946 5.70711 22.7071C5.89464 22.5196 6 22.2652 6 22Z" fill="black"/>
</svg>
