<svg viewBox="0 0 32 32" xmlns="http://www.w3.org/2000/svg">
<path d="M28.7072 21.7071L22.7072 27.7071C22.5673 27.847 22.3891 27.9422 22.1951 27.9808C22.0011 28.0194 21.8001 27.9996 21.6173 27.9239C21.4346 27.8482 21.2784 27.72 21.1685 27.5556C21.0587 27.3911 21 27.1978 21 27V22H11C8.87827 22 6.84344 21.1571 5.34315 19.6569C3.84285 18.1566 3 16.1217 3 14C3 11.8783 3.84285 9.84344 5.34315 8.34315C6.84344 6.84285 8.87827 6 11 6H22C22.2652 6 22.5196 6.10536 22.7071 6.29289C22.8946 6.48043 23 6.73478 23 7C23 7.26522 22.8946 7.51957 22.7071 7.70711C22.5196 7.89464 22.2652 8 22 8H11C9.4087 8 7.88258 8.63214 6.75736 9.75736C5.63214 10.8826 5 12.4087 5 14C5 15.5913 5.63214 17.1174 6.75736 18.2426C7.88258 19.3679 9.4087 20 11 20H21V15C21 14.8022 21.0587 14.6089 21.1685 14.4444C21.2784 14.28 21.4346 14.1518 21.6173 14.0761C21.8001 14.0004 22.0011 13.9806 22.1951 14.0192C22.3891 14.0578 22.5673 14.153 22.7072 14.2929L28.7072 20.2929C28.8947 20.4804 29 20.7348 29 21C29 21.2652 28.8947 21.5196 28.7072 21.7071Z"/>
</svg>
