<svg   viewBox="0 0 32 32" fill="none" xmlns="http://www.w3.org/2000/svg">
<path d="M6 28H26C26.5302 27.9994 27.0386 27.7885 27.4135 27.4135C27.7885 27.0386 27.9994 26.5302 28 26V6C27.9994 5.46975 27.7885 4.9614 27.4135 4.58646C27.0386 4.21151 26.5302 4.00061 26 4H6C5.46975 4.00061 4.9614 4.21151 4.58646 4.58646C4.21151 4.9614 4.00061 5.46975 4 6V26C4.00061 26.5302 4.21151 27.0386 4.58646 27.4135C4.9614 27.7885 5.46975 27.9994 6 28ZM11.7929 11.7928C11.9805 11.6053 12.2348 11.5 12.5 11.5C12.7652 11.5 13.0195 11.6053 13.2071 11.7928L18.5 17.0858V13.5C18.5 13.2348 18.6054 12.9804 18.7929 12.7929C18.9804 12.6054 19.2348 12.5 19.5 12.5C19.7652 12.5 20.0196 12.6054 20.2071 12.7929C20.3946 12.9804 20.5 13.2348 20.5 13.5V19.4997C20.5 19.5328 20.4983 19.5659 20.495 19.5988C20.4936 19.613 20.4909 19.6268 20.4889 19.6409C20.4864 19.6591 20.4842 19.6774 20.4806 19.6956C20.4774 19.7119 20.4728 19.7278 20.4688 19.744C20.4649 19.7595 20.4615 19.775 20.4568 19.7904C20.452 19.8063 20.446 19.8217 20.4404 19.8373C20.435 19.8525 20.43 19.8678 20.4238 19.8828C20.4178 19.8972 20.4107 19.9111 20.404 19.9253C20.3968 19.9407 20.3899 19.9563 20.3818 19.9714C20.3746 19.9849 20.3664 19.9977 20.3585 20.0108C20.3497 20.0257 20.3412 20.0408 20.3315 20.0554C20.322 20.0695 20.3114 20.0829 20.3012 20.0965C20.2919 20.109 20.2832 20.1218 20.2732 20.134C20.2542 20.1572 20.234 20.1793 20.213 20.2006C20.2109 20.2028 20.2092 20.2051 20.2071 20.2072C20.2047 20.2096 20.202 20.2116 20.1995 20.214C20.1785 20.2346 20.1567 20.2545 20.1339 20.2733C20.1221 20.283 20.1097 20.2914 20.0976 20.3004C20.0836 20.3109 20.0698 20.3218 20.0552 20.3316C20.0412 20.341 20.0266 20.3491 20.0122 20.3577C19.9986 20.3659 19.9852 20.3744 19.9712 20.382C19.9568 20.3897 19.942 20.3961 19.9274 20.4031C19.9124 20.4102 19.8977 20.4176 19.8823 20.424C19.8685 20.4297 19.8543 20.4343 19.8403 20.4393C19.8235 20.4454 19.8069 20.4518 19.7898 20.457C19.7762 20.4611 19.7624 20.4641 19.7488 20.4675C19.7309 20.4721 19.7131 20.4771 19.6948 20.4807C19.6797 20.4837 19.6645 20.4854 19.6493 20.4877C19.6322 20.4902 19.6153 20.4934 19.598 20.4951C19.5728 20.4975 19.5475 20.4983 19.5222 20.4989C19.5147 20.499 19.5075 20.5 19.5 20.5H13.5C13.2348 20.5 12.9804 20.3947 12.7929 20.2071C12.6054 20.0196 12.5 19.7652 12.5 19.5C12.5 19.2348 12.6054 18.9804 12.7929 18.7929C12.9804 18.6054 13.2348 18.5 13.5 18.5H17.0858L11.7929 13.2072C11.7 13.1143 11.6264 13.004 11.5761 12.8827C11.5259 12.7614 11.5 12.6313 11.5 12.5C11.5 12.3687 11.5259 12.2386 11.5761 12.1173C11.6264 11.996 11.7 11.8857 11.7929 11.7928V11.7928Z" fill="black"/>
</svg>
