<svg   viewBox="0 0 32 32" fill="none" xmlns="http://www.w3.org/2000/svg">
<path d="M28.7072 19.7072L22.7072 25.7072C22.5673 25.847 22.3891 25.9422 22.1951 25.9808C22.0011 26.0193 21.8001 25.9995 21.6174 25.9238C21.4346 25.8482 21.2785 25.72 21.1686 25.5555C21.0587 25.3911 21 25.1978 21 25V20H16C12.5534 19.9961 9.24905 18.6252 6.81192 16.1881C4.37479 13.751 3.0039 10.4466 3 7C3 6.73478 3.10536 6.48043 3.29289 6.29289C3.48043 6.10536 3.73478 6 4 6C4.26522 6 4.51957 6.10536 4.70711 6.29289C4.89464 6.48043 5 6.73478 5 7C5.00329 9.91637 6.16328 12.7123 8.22546 14.7745C10.2877 16.8367 13.0836 17.9967 16 18H21V13C21 12.8022 21.0587 12.6089 21.1686 12.4445C21.2785 12.28 21.4346 12.1518 21.6174 12.0762C21.8001 12.0005 22.0011 11.9807 22.1951 12.0192C22.3891 12.0578 22.5673 12.153 22.7072 12.2928L28.7072 18.2928C28.8947 18.4804 29 18.7348 29 19C29 19.2652 28.8947 19.5196 28.7072 19.7072V19.7072Z" fill="black"/>
</svg>
