<svg   viewBox="0 0 32 32" fill="none" xmlns="http://www.w3.org/2000/svg">
<path d="M26 4H6C5.46975 4.00061 4.9614 4.21151 4.58646 4.58646C4.21151 4.9614 4.00061 5.46975 4 6V26C4.00061 26.5302 4.21151 27.0386 4.58646 27.4135C4.9614 27.7885 5.46975 27.9994 6 28H26C26.5302 27.9994 27.0386 27.7885 27.4135 27.4135C27.7885 27.0386 27.9994 26.5302 28 26V6C27.9994 5.46975 27.7885 4.9614 27.4135 4.58646C27.0386 4.21151 26.5302 4.00061 26 4ZM20.2071 20.2072C20.0195 20.3947 19.7652 20.5 19.5 20.5C19.2348 20.5 18.9805 20.3947 18.7929 20.2072L13.5 14.9143V18.5C13.5 18.7652 13.3946 19.0196 13.2071 19.2071C13.0196 19.3946 12.7652 19.5 12.5 19.5C12.2348 19.5 11.9804 19.3946 11.7929 19.2071C11.6054 19.0196 11.5 18.7652 11.5 18.5V12.5003C11.5 12.4672 11.5017 12.4341 11.505 12.4012C11.5064 12.387 11.5091 12.3732 11.5111 12.3591C11.5136 12.3409 11.5158 12.3226 11.5194 12.3044C11.5226 12.2881 11.5272 12.2722 11.5312 12.256C11.5351 12.2405 11.5385 12.225 11.5432 12.2096C11.548 12.1937 11.554 12.1783 11.5596 12.1627C11.565 12.1475 11.57 12.1322 11.5762 12.1172C11.5822 12.1028 11.5893 12.0889 11.596 12.0747C11.6032 12.0593 11.6101 12.0437 11.6182 12.0286C11.6254 12.0151 11.6336 12.0023 11.6415 11.9892C11.6503 11.9743 11.6588 11.9592 11.6685 11.9446C11.678 11.9305 11.6886 11.9171 11.6988 11.9035C11.7081 11.891 11.7168 11.8782 11.7268 11.866C11.7458 11.8428 11.766 11.8207 11.787 11.7994C11.7891 11.7972 11.7908 11.7949 11.7929 11.7928C11.7953 11.7904 11.798 11.7884 11.8005 11.786C11.8215 11.7654 11.8433 11.7455 11.8661 11.7267C11.8779 11.717 11.8903 11.7086 11.9024 11.6996C11.9164 11.6891 11.9302 11.6782 11.9448 11.6685C11.9588 11.6591 11.9734 11.6509 11.9878 11.6423C12.0014 11.6342 12.0148 11.6256 12.0288 11.618C12.0432 11.6103 12.058 11.6039 12.0726 11.5969C12.0876 11.5898 12.1023 11.5824 12.1177 11.576C12.1315 11.5703 12.1457 11.5657 12.1597 11.5607C12.1765 11.5546 12.1931 11.5482 12.2102 11.543C12.2238 11.5389 12.2376 11.5359 12.2512 11.5325C12.2691 11.5279 12.2869 11.5229 12.3052 11.5193C12.3203 11.5163 12.3355 11.5146 12.3507 11.5123C12.3678 11.5098 12.3847 11.5066 12.402 11.5049C12.4272 11.5025 12.4525 11.5017 12.4778 11.5011C12.4853 11.501 12.4925 11.5 12.5 11.5H18.5C18.7652 11.5 19.0196 11.6054 19.2071 11.7929C19.3946 11.9804 19.5 12.2348 19.5 12.5C19.5 12.7652 19.3946 13.0196 19.2071 13.2071C19.0196 13.3946 18.7652 13.5 18.5 13.5H14.9143L20.2071 18.7928C20.3 18.8857 20.3736 18.996 20.4239 19.1173C20.4742 19.2386 20.5 19.3687 20.5 19.5C20.5 19.6313 20.4741 19.7614 20.4239 19.8827C20.3736 20.004 20.3 20.1143 20.2071 20.2072Z" fill="black"/>
</svg>
