<svg viewBox="0 0 32 32" xmlns="http://www.w3.org/2000/svg">
<path d="M16 3C13.4288 3 10.9154 3.76244 8.77759 5.1909C6.63975 6.61935 4.97351 8.64968 3.98957 11.0251C3.00563 13.4006 2.74819 16.0144 3.2498 18.5362C3.75141 21.0579 4.98953 23.3743 6.80762 25.1924C8.6257 27.0105 10.9421 28.2486 13.4638 28.7502C15.9856 29.2518 18.5995 28.9944 20.9749 28.0104C23.3503 27.0265 25.3807 25.3603 26.8091 23.2224C28.2376 21.0846 29 18.5712 29 16C28.996 12.5534 27.6251 9.24912 25.188 6.81201C22.7509 4.3749 19.4466 3.00398 16 3V3ZM20.207 20.207C20.1142 20.2999 20.004 20.3736 19.8827 20.4239C19.7614 20.4741 19.6313 20.5 19.5 20.5C19.3687 20.5 19.2387 20.4741 19.1173 20.4239C18.996 20.3736 18.8858 20.2999 18.793 20.207L13.5 14.9141V18.5C13.5 18.7652 13.3946 19.0196 13.2071 19.2071C13.0196 19.3946 12.7652 19.5 12.5 19.5C12.2348 19.5 11.9804 19.3946 11.7929 19.2071C11.6054 19.0196 11.5 18.7652 11.5 18.5V12.5C11.5009 12.2351 11.6066 11.9812 11.7939 11.7939C11.9812 11.6066 12.2351 11.5009 12.5 11.5H18.5C18.7652 11.5 19.0196 11.6054 19.2071 11.7929C19.3946 11.9804 19.5 12.2348 19.5 12.5C19.5 12.7652 19.3946 13.0196 19.2071 13.2071C19.0196 13.3946 18.7652 13.5 18.5 13.5H14.9141L20.207 18.793C20.2999 18.8858 20.3736 18.996 20.4239 19.1173C20.4741 19.2387 20.5 19.3687 20.5 19.5C20.5 19.6313 20.4741 19.7613 20.4239 19.8827C20.3736 20.004 20.2999 20.1142 20.207 20.207Z"/>
</svg>
