<svg   viewBox="0 0 32 32" fill="none" xmlns="http://www.w3.org/2000/svg">
<path d="M25.7071 17.2934C25.847 17.4332 25.9422 17.6114 25.9808 17.8054C26.0194 17.9994 25.9996 18.2005 25.9239 18.3832C25.8482 18.5659 25.72 18.7221 25.5556 18.832C25.3911 18.9418 25.1978 19.0005 25 19.0005H17V28.0005C17 28.2657 16.8946 28.5201 16.7071 28.7076C16.5196 28.8951 16.2652 29.0005 16 29.0005C15.7348 29.0005 15.4804 28.8951 15.2929 28.7076C15.1054 28.5201 15 28.2657 15 28.0005V19.0005H7C6.80222 19.0005 6.60888 18.9418 6.44442 18.832C6.27997 18.7221 6.1518 18.5659 6.07611 18.3832C6.00043 18.2005 5.98062 17.9994 6.01921 17.8054C6.0578 17.6114 6.15305 17.4332 6.29291 17.2934L15.2929 8.2934C15.4804 8.10587 15.7348 8.00052 16 8.00052C16.2652 8.00052 16.5196 8.10587 16.7071 8.2934L25.7071 17.2934ZM27 4H5C4.73478 4 4.48043 4.10536 4.29289 4.29289C4.10536 4.48043 4 4.73478 4 5C4 5.26522 4.10536 5.51957 4.29289 5.70711C4.48043 5.89464 4.73478 6 5 6H27C27.2652 6 27.5196 5.89464 27.7071 5.70711C27.8946 5.51957 28 5.26522 28 5C28 4.73478 27.8946 4.48043 27.7071 4.29289C27.5196 4.10536 27.2652 4 27 4V4Z" fill="black"/>
</svg>
