<svg   viewBox="0 0 32 32" fill="none" xmlns="http://www.w3.org/2000/svg">
<path d="M28.9238 12.3827C28.8481 12.5654 28.72 12.7215 28.5555 12.8314C28.3911 12.9413 28.1978 13 28 13H23V24C23 24.2652 22.8946 24.5195 22.7071 24.7071C22.5196 24.8946 22.2652 25 22 25H4C3.73478 25 3.48043 24.8946 3.29289 24.7071C3.10536 24.5195 3 24.2652 3 24C3 23.7348 3.10536 23.4804 3.29289 23.2929C3.48043 23.1053 3.73478 23 4 23H21V13H16C15.8022 13 15.6089 12.9413 15.4445 12.8314C15.28 12.7215 15.1519 12.5654 15.0762 12.3826C15.0005 12.1999 14.9807 11.9989 15.0192 11.8049C15.0578 11.6109 15.153 11.4327 15.2928 11.2929L21.2928 5.29288C21.4804 5.10535 21.7348 5 22 5C22.2652 5 22.5196 5.10535 22.7072 5.29288L28.7072 11.2929C28.847 11.4327 28.9422 11.6109 28.9808 11.8049C29.0194 11.9989 28.9995 12.1999 28.9238 12.3827Z" fill="black"/>
</svg>
