<svg viewBox="0 0 32 32" xmlns="http://www.w3.org/2000/svg">
<path d="M30.0001 10V19C30.0001 19.1978 29.9414 19.3911 29.8315 19.5556C29.7216 19.72 29.5654 19.8482 29.3827 19.9239C29.2 19.9996 28.9989 20.0194 28.805 19.9808C28.611 19.9422 28.4328 19.847 28.2929 19.7072L24.5001 15.9143L15.7072 24.7072C15.5197 24.8947 15.2653 25 15.0001 25C14.7348 25 14.4805 24.8947 14.2929 24.7072L2.29291 12.7072C2.10536 12.5196 2 12.2652 2 12C2 11.7348 2.10536 11.4804 2.29291 11.2928C2.48046 11.1053 2.73483 10.9999 3.00007 10.9999C3.2653 10.9999 3.51967 11.1053 3.70722 11.2928L15.0001 22.5858L23.0858 14.5L19.2929 10.7072C19.1531 10.5673 19.0579 10.3891 19.0193 10.1951C18.9807 10.0011 19.0005 9.80008 19.0762 9.61736C19.1519 9.43463 19.2801 9.27846 19.4445 9.16857C19.609 9.05868 19.8023 9.00002 20.0001 9H29.0001C29.2653 9.00001 29.5196 9.10537 29.7072 9.29291C29.8947 9.48044 30.0001 9.73479 30.0001 10V10Z"/>
</svg>
