<svg   viewBox="0 0 32 32" fill="none" xmlns="http://www.w3.org/2000/svg">
<path d="M28.7071 17.7072L16.7071 29.7072C16.5195 29.8946 16.2652 29.9999 16 29.9999C15.7348 29.9999 15.4804 29.8946 15.2928 29.7072L3.29283 17.7072C3.15299 17.5673 3.05777 17.3891 3.0192 17.1951C2.98063 17.0011 3.00044 16.8001 3.07613 16.6174C3.15182 16.4346 3.27999 16.2785 3.44443 16.1686C3.60887 16.0587 3.8022 16 3.99998 16H8.99998V9C8.99999 8.73479 9.10535 8.48044 9.29289 8.29291C9.48042 8.10537 9.73477 8.00001 9.99998 8H22C22.2652 8.00001 22.5195 8.10537 22.7071 8.29291C22.8946 8.48044 23 8.73479 23 9V16H28C28.1978 16 28.3911 16.0587 28.5555 16.1686C28.72 16.2785 28.8481 16.4346 28.9238 16.6174C28.9995 16.8001 29.0193 17.0011 28.9808 17.1951C28.9422 17.3891 28.847 17.5673 28.7071 17.7072ZM23 5C23 4.73479 22.8946 4.48044 22.7071 4.29291C22.5195 4.10537 22.2652 4.00001 22 4H9.99998C9.73476 4 9.48041 4.10536 9.29287 4.29289C9.10534 4.48043 8.99998 4.73478 8.99998 5C8.99998 5.26522 9.10534 5.51957 9.29287 5.70711C9.48041 5.89464 9.73476 6 9.99998 6H22C22.2652 5.99999 22.5195 5.89463 22.7071 5.70709C22.8946 5.51956 23 5.26521 23 5V5Z" fill="black"/>
</svg>
