<svg   viewBox="0 0 32 32" fill="none" xmlns="http://www.w3.org/2000/svg">
<path d="M15.0026 18.0009L15.0036 25.4999C15.0036 25.6977 14.945 25.891 14.8351 26.0555C14.7253 26.2199 14.5691 26.3481 14.3864 26.4238C14.2036 26.4995 14.0026 26.5194 13.8086 26.4808C13.6146 26.4422 13.4364 26.347 13.2965 26.2072L10.2536 23.1642L5.70712 27.7107C5.51957 27.8982 5.2652 28.0036 4.99998 28.0036C4.73476 28.0036 4.4804 27.8982 4.29287 27.7106C4.10534 27.5231 3.99999 27.2687 4 27.0035C4.00001 26.7383 4.10538 26.4839 4.29293 26.2964L8.83935 21.75L5.79653 18.7072C5.65669 18.5673 5.56145 18.3891 5.52287 18.1951C5.48429 18.0012 5.50409 17.8001 5.57978 17.6174C5.65546 17.4346 5.78363 17.2785 5.94807 17.1686C6.11251 17.0587 6.30584 17 6.50362 17H6.50375L14.0028 17.001C14.2679 17.001 14.5222 17.1064 14.7098 17.2939C14.8973 17.4814 15.0026 17.7357 15.0026 18.0009ZM26.0036 4H9.00362C8.47338 4.00061 7.96502 4.21151 7.59008 4.58646C7.21514 4.9614 7.00423 5.46975 7.00362 6V12C7.00362 12.2652 7.10898 12.5196 7.29652 12.7071C7.48405 12.8946 7.73841 13 8.00362 13C8.26884 13 8.52319 12.8946 8.71073 12.7071C8.89827 12.5196 9.00362 12.2652 9.00362 12V6H26.0036V23H20.0036C19.7384 23 19.4841 23.1054 19.2965 23.2929C19.109 23.4804 19.0036 23.7348 19.0036 24C19.0036 24.2652 19.109 24.5196 19.2965 24.7071C19.4841 24.8946 19.7384 25 20.0036 25H26.0036C26.5339 24.9994 27.0422 24.7885 27.4172 24.4135C27.7921 24.0386 28.003 23.5302 28.0036 23V6C28.003 5.46975 27.7921 4.9614 27.4172 4.58646C27.0422 4.21151 26.5339 4.00061 26.0036 4Z" fill="black"/>
</svg>
