<svg   viewBox="0 0 32 32" fill="none" xmlns="http://www.w3.org/2000/svg">
<path d="M26 4C26 4.26521 25.8946 4.51956 25.7071 4.70709C25.5195 4.89463 25.2652 4.99999 25 5C22.0836 5.00329 19.2876 6.16328 17.2254 8.22546C15.1633 10.2877 14.0033 13.0836 14 16V21H19C19.1978 21 19.3911 21.0587 19.5555 21.1686C19.72 21.2785 19.8481 21.4346 19.9238 21.6174C19.9995 21.8001 20.0193 22.0011 19.9808 22.1951C19.9422 22.3891 19.847 22.5673 19.7071 22.7072L13.7071 28.7072C13.5196 28.8947 13.2652 29 13 29C12.7348 29 12.4804 28.8947 12.2928 28.7072L6.29283 22.7072C6.15299 22.5673 6.05777 22.3891 6.0192 22.1951C5.98063 22.0011 6.00044 21.8001 6.07613 21.6174C6.15182 21.4346 6.27999 21.2785 6.44443 21.1686C6.60887 21.0587 6.8022 21 6.99998 21H12V16C12.0039 12.5534 13.3748 9.24905 15.8119 6.81192C18.249 4.37479 21.5534 3.0039 25 3C25.2652 3.00001 25.5195 3.10537 25.7071 3.29291C25.8946 3.48044 26 3.73479 26 4V4Z" fill="black"/>
</svg>
