<svg   viewBox="0 0 32 32" fill="none" xmlns="http://www.w3.org/2000/svg">
<path d="M28.9238 15.3828C28.8481 15.5655 28.72 15.7216 28.5555 15.8315C28.3911 15.9414 28.1978 16.0001 28 16.0001H23V23.0001C23 23.2653 22.8946 23.5196 22.7071 23.7072C22.5195 23.8947 22.2652 24 22 24.0001H9.99998C9.73477 24 9.48042 23.8947 9.29289 23.7072C9.10535 23.5196 8.99999 23.2653 8.99998 23.0001V16.0001H3.99998C3.8022 16 3.60887 15.9414 3.44443 15.8315C3.27999 15.7216 3.15182 15.5654 3.07613 15.3827C3.00044 15.2 2.98063 14.9989 3.0192 14.8049C3.05777 14.611 3.15299 14.4328 3.29283 14.2929L15.2928 2.29291C15.4804 2.10543 15.7348 2.00012 16 2.00012C16.2652 2.00012 16.5195 2.10543 16.7071 2.29291L28.7071 14.2929C28.847 14.4328 28.9422 14.611 28.9807 14.805C29.0193 14.999 28.9995 15.2 28.9238 15.3828V15.3828ZM22 26.0001H9.99998C9.73476 26.0001 9.48041 26.1054 9.29287 26.293C9.10534 26.4805 8.99998 26.7348 8.99998 27.0001C8.99998 27.2653 9.10534 27.5196 9.29287 27.7072C9.48041 27.8947 9.73476 28.0001 9.99998 28.0001H22C22.2652 28.0001 22.5196 27.8947 22.7071 27.7072C22.8946 27.5196 23 27.2653 23 27.0001C23 26.7348 22.8946 26.4805 22.7071 26.293C22.5196 26.1054 22.2652 26.0001 22 26.0001Z" fill="black"/>
</svg>
