<svg   viewBox="0 0 32 32" fill="none" xmlns="http://www.w3.org/2000/svg">
<path d="M18.0001 13V8.00003C18.0001 7.80224 18.0587 7.6089 18.1686 7.44444C18.2785 7.27999 18.4347 7.15181 18.6174 7.07613C18.8001 7.00044 19.0012 6.98064 19.1952 7.01923C19.3892 7.05782 19.5674 7.15307 19.7072 7.29294L21.5001 9.08578L25.2929 5.29293C25.4804 5.10538 25.7348 5.00001 26 5C26.2652 4.99999 26.5196 5.10534 26.7072 5.29287C26.8947 5.4804 27.0001 5.73476 27.0001 5.99998C27.0001 6.2652 26.8948 6.51957 26.7072 6.70712L22.9143 10.5L24.7072 12.2929C24.8471 12.4328 24.9423 12.611 24.9808 12.805C25.0194 12.9989 24.9996 13.2 24.9239 13.3827C24.8482 13.5654 24.72 13.7216 24.5556 13.8315C24.3912 13.9414 24.1978 14 24.0001 14H19.0001C18.7349 14 18.4805 13.8947 18.293 13.7071C18.1054 13.5196 18.0001 13.2652 18.0001 13V13ZM13.0001 18H8.00007C7.80229 18 7.60897 18.0587 7.44453 18.1686C7.28009 18.2785 7.15192 18.4346 7.07623 18.6173C7.00055 18.8001 6.98073 19.0011 7.0193 19.1951C7.05787 19.3891 7.15309 19.5673 7.29291 19.7071L9.08582 21.5L5.29291 25.2929C5.20005 25.3857 5.12638 25.496 5.07613 25.6173C5.02587 25.7387 5 25.8687 5 26C5 26.1314 5.02587 26.2614 5.07613 26.3827C5.12638 26.5041 5.20005 26.6143 5.29291 26.7072C5.48046 26.8947 5.73483 27.0001 6.00007 27.0001C6.1314 27.0001 6.26144 26.9742 6.38278 26.924C6.50411 26.8737 6.61436 26.8 6.70722 26.7072L10.5001 22.9143L12.2929 24.7072C12.4328 24.847 12.611 24.9422 12.8049 24.9808C12.9989 25.0194 13.2 24.9996 13.3827 24.9239C13.5654 24.8482 13.7216 24.72 13.8315 24.5556C13.9414 24.3911 14 24.1978 14.0001 24V19C14.0001 18.7348 13.8947 18.4805 13.7072 18.2929C13.5196 18.1054 13.2653 18 13.0001 18V18ZM22.9143 21.5L24.7072 19.7071C24.8471 19.5673 24.9423 19.3891 24.9808 19.1951C25.0194 19.0011 24.9996 18.8001 24.9239 18.6173C24.8482 18.4346 24.72 18.2785 24.5556 18.1686C24.3912 18.0587 24.1978 18 24.0001 18H19.0001C18.7349 18 18.4805 18.1054 18.293 18.2929C18.1054 18.4805 18.0001 18.7348 18.0001 19V24C18.0001 24.1978 18.0587 24.3911 18.1686 24.5556C18.2785 24.72 18.4347 24.8482 18.6174 24.9239C18.8001 24.9996 19.0012 25.0194 19.1952 24.9808C19.3892 24.9422 19.5674 24.847 19.7072 24.7072L21.5001 22.9143L25.2929 26.7072C25.4805 26.8947 25.7348 27.0001 26.0001 27.0001C26.2653 27.0001 26.5197 26.8947 26.7072 26.7072C26.8948 26.5196 27.0001 26.2653 27.0001 26C27.0001 25.7348 26.8948 25.4804 26.7072 25.2929L22.9143 21.5ZM13.3828 7.07614C13.2 7.00044 12.9989 6.98063 12.8049 7.01922C12.611 7.05781 12.4328 7.15307 12.2929 7.29294L10.5001 9.08578L6.70722 5.29294C6.51969 5.10539 6.26533 5.00002 6.00011 5.00001C5.73489 4.99999 5.48052 5.10534 5.29297 5.29287C5.10543 5.48041 5.00005 5.73476 5.00004 5.99998C5.00003 6.26521 5.10538 6.51957 5.29291 6.70712L9.08582 10.5L7.29291 12.2929C7.15309 12.4328 7.05787 12.611 7.0193 12.805C6.98073 12.9989 7.00055 13.2 7.07623 13.3827C7.15192 13.5654 7.28009 13.7216 7.44453 13.8315C7.60897 13.9414 7.80229 14 8.00007 14H13.0001C13.2653 14 13.5196 13.8947 13.7072 13.7071C13.8947 13.5196 14.0001 13.2652 14.0001 13V8.00003C14.0001 7.80225 13.9414 7.60891 13.8315 7.44446C13.7217 7.28001 13.5655 7.15183 13.3828 7.07614V7.07614Z" fill="black"/>
</svg>
