<svg   viewBox="0 0 32 32" fill="none" xmlns="http://www.w3.org/2000/svg">
<path d="M27.7072 22.7071L21.7072 28.7071C21.5196 28.8946 21.2652 29 21 29C20.7348 29 20.4804 28.8946 20.2928 28.7071L14.2928 22.7071C14.153 22.5672 14.0578 22.389 14.0192 22.1951C13.9807 22.0011 14.0005 21.8 14.0762 21.6173C14.1519 21.4346 14.28 21.2784 14.4445 21.1686C14.6089 21.0587 14.8022 21 15 21H20V11C20 9.4087 19.3679 7.88258 18.2426 6.75736C17.1174 5.63214 15.5913 5 14 5C12.4087 5 10.8826 5.63214 9.75736 6.75736C8.63214 7.88258 8 9.4087 8 11V22C8 22.2652 7.89464 22.5196 7.70711 22.7071C7.51957 22.8946 7.26522 23 7 23C6.73478 23 6.48043 22.8946 6.29289 22.7071C6.10536 22.5196 6 22.2652 6 22V11C6 8.87827 6.84285 6.84344 8.34315 5.34315C9.84344 3.84285 11.8783 3 14 3C16.1217 3 18.1566 3.84285 19.6569 5.34315C21.1571 6.84344 22 8.87827 22 11V21H27C27.1978 21 27.3911 21.0587 27.5555 21.1686C27.72 21.2784 27.8481 21.4346 27.9238 21.6173C27.9995 21.8 28.0193 22.0011 27.9808 22.1951C27.9422 22.389 27.847 22.5672 27.7072 22.7071V22.7071Z" fill="black"/>
</svg>
