<svg viewBox="0 0 32 32" xmlns="http://www.w3.org/2000/svg">
<path d="M17 5V27C17 27.2652 16.8947 27.5196 16.7071 27.7071C16.5196 27.8946 16.2652 28 16 28C15.7348 28 15.4805 27.8946 15.2929 27.7071C15.1054 27.5196 15 27.2652 15 27V5C15 4.73478 15.1054 4.48043 15.2929 4.29289C15.4805 4.10536 15.7348 4 16 4C16.2652 4 16.5196 4.10536 16.7071 4.29289C16.8947 4.48043 17 4.73478 17 5ZM12 15H7.00003V12C7.00001 11.8022 6.94135 11.6089 6.83146 11.4445C6.72157 11.28 6.5654 11.1518 6.38268 11.0762C6.19995 11.0005 5.99889 10.9807 5.80491 11.0192C5.61093 11.0578 5.43275 11.153 5.29288 11.2928L1.29288 15.2928C1.10535 15.4804 1 15.7348 1 16C1 16.2652 1.10535 16.5196 1.29288 16.7072L5.29288 20.7072C5.43275 20.847 5.61093 20.9422 5.80491 20.9808C5.99889 21.0193 6.19995 20.9995 6.38268 20.9238C6.5654 20.8482 6.72157 20.72 6.83146 20.5555C6.94135 20.3911 7.00001 20.1978 7.00003 20V17H12C12.2652 17 12.5196 16.8946 12.7071 16.7071C12.8947 16.5196 13 16.2652 13 16C13 15.7348 12.8947 15.4804 12.7071 15.2929C12.5196 15.1054 12.2652 15 12 15ZM30.7072 15.2928L26.7072 11.2928C26.5673 11.153 26.3891 11.0578 26.1951 11.0192C26.0012 10.9807 25.8001 11.0005 25.6174 11.0762C25.4347 11.1518 25.2785 11.28 25.1686 11.4445C25.0587 11.6089 25.0001 11.8022 25 12V15H20C19.7348 15 19.4805 15.1054 19.2929 15.2929C19.1054 15.4804 19 15.7348 19 16C19 16.2652 19.1054 16.5196 19.2929 16.7071C19.4805 16.8946 19.7348 17 20 17H25V20C25 20.1978 25.0587 20.3911 25.1686 20.5556C25.2785 20.72 25.4346 20.8482 25.6174 20.9239C25.8001 20.9996 26.0012 21.0194 26.1951 20.9808C26.3891 20.9422 26.5673 20.847 26.7072 20.7072L30.7072 16.7072C30.8947 16.5196 31.0001 16.2652 31.0001 16C31.0001 15.7348 30.8947 15.4804 30.7072 15.2928V15.2928Z"/>
</svg>
