<svg   viewBox="0 0 32 32" fill="none" xmlns="http://www.w3.org/2000/svg">
<path d="M29 24C29 24.2652 28.8946 24.5195 28.7071 24.7071C28.5195 24.8946 28.2652 25 28 25H9.99997C9.73475 25 9.4804 24.8946 9.29286 24.7071C9.10533 24.5195 8.99997 24.2652 8.99997 24V13H3.99997C3.8022 13 3.60887 12.9413 3.44443 12.8314C3.27999 12.7215 3.15182 12.5654 3.07613 12.3826C3.00045 12.1999 2.98063 11.9989 3.0192 11.8049C3.05777 11.6109 3.15299 11.4327 3.29281 11.2929L9.29281 5.29288C9.48037 5.10535 9.73474 5 9.99997 5C10.2652 5 10.5196 5.10535 10.7071 5.29288L16.7071 11.2929C16.8469 11.4327 16.9422 11.6109 16.9807 11.8049C17.0193 11.9989 16.9995 12.1999 16.9238 12.3826C16.8481 12.5654 16.7199 12.7215 16.5555 12.8314C16.3911 12.9413 16.1977 13 16 13H11V23H28C28.2652 23 28.5195 23.1053 28.7071 23.2929C28.8946 23.4804 29 23.7348 29 24Z" fill="black"/>
</svg>
