<svg viewBox="0 0 32 32" xmlns="http://www.w3.org/2000/svg">
<path d="M14.2928 28.7071L2.29278 16.7071C2.10531 16.5195 2 16.2652 2 16C2 15.7348 2.10531 15.4804 2.29278 15.2928L14.2928 3.29283C14.4327 3.15299 14.6108 3.05777 14.8048 3.0192C14.9988 2.98063 15.1999 3.00044 15.3826 3.07613C15.5653 3.15182 15.7215 3.27999 15.8314 3.44443C15.9413 3.60887 15.9999 3.8022 15.9999 3.99998V8.99998H22.9999C23.2652 8.99999 23.5195 9.10535 23.707 9.29289C23.8946 9.48042 23.9999 9.73477 23.9999 9.99998V22C23.9999 22.2652 23.8946 22.5195 23.707 22.7071C23.5195 22.8946 23.2652 23 22.9999 23H15.9999V28C15.9999 28.1978 15.9413 28.3911 15.8314 28.5555C15.7215 28.72 15.5653 28.8481 15.3826 28.9238C15.1999 28.9995 14.9988 29.0193 14.8048 28.9808C14.6108 28.9422 14.4327 28.847 14.2928 28.7071ZM26.9999 23C27.2652 23 27.5195 22.8946 27.707 22.7071C27.8946 22.5195 27.9999 22.2652 27.9999 22V9.99998C27.9999 9.73476 27.8946 9.48041 27.707 9.29287C27.5195 9.10534 27.2652 8.99998 26.9999 8.99998C26.7347 8.99998 26.4804 9.10534 26.2928 9.29287C26.1053 9.48041 25.9999 9.73476 25.9999 9.99998V22C26 22.2652 26.1053 22.5195 26.2928 22.7071C26.4804 22.8946 26.7347 23 26.9999 23Z"/>
</svg>
