<svg   viewBox="0 0 32 32" fill="none" xmlns="http://www.w3.org/2000/svg">
<path d="M16 3C13.4288 3 10.9154 3.76244 8.77759 5.1909C6.63975 6.61935 4.97351 8.64968 3.98957 11.0251C3.00563 13.4006 2.74819 16.0144 3.2498 18.5362C3.75141 21.0579 4.98953 23.3743 6.80762 25.1924C8.6257 27.0105 10.9421 28.2486 13.4638 28.7502C15.9856 29.2518 18.5995 28.9944 20.9749 28.0104C23.3503 27.0265 25.3807 25.3603 26.8091 23.2224C28.2376 21.0846 29 18.5712 29 16C28.996 12.5534 27.6251 9.24912 25.188 6.81201C22.7509 4.3749 19.4466 3.00398 16 3V3ZM20.207 13.207L14.9141 18.5H18.5C18.7652 18.5 19.0196 18.6054 19.2071 18.7929C19.3946 18.9804 19.5 19.2348 19.5 19.5C19.5 19.7652 19.3946 20.0196 19.2071 20.2071C19.0196 20.3946 18.7652 20.5 18.5 20.5H12.5C12.2351 20.4991 11.9812 20.3934 11.7939 20.2061C11.6066 20.0188 11.5009 19.7649 11.5 19.5V13.5C11.5 13.2348 11.6054 12.9804 11.7929 12.7929C11.9804 12.6054 12.2348 12.5 12.5 12.5C12.7652 12.5 13.0196 12.6054 13.2071 12.7929C13.3946 12.9804 13.5 13.2348 13.5 13.5V17.0859L18.793 11.793C18.9806 11.6058 19.2348 11.5007 19.4998 11.5009C19.7648 11.501 20.0189 11.6063 20.2063 11.7937C20.3937 11.9811 20.499 12.2352 20.4991 12.5002C20.4993 12.7652 20.3942 13.0194 20.207 13.207V13.207Z" fill="black"/>
</svg>
