<svg viewBox="0 0 32 32" xmlns="http://www.w3.org/2000/svg">
<path d="M26.7072 10.7071L20.7072 16.7071C20.5673 16.847 20.3891 16.9422 20.1951 16.9808C20.0011 17.0194 19.8001 16.9996 19.6173 16.9239C19.4346 16.8482 19.2784 16.7201 19.1685 16.5556C19.0587 16.3911 19 16.1978 19 16V11H9V28C9 28.2652 8.89464 28.5196 8.70711 28.7071C8.51957 28.8947 8.26522 29 8 29C7.73478 29 7.48043 28.8947 7.29289 28.7071C7.10536 28.5196 7 28.2652 7 28V10C7 9.7348 7.10536 9.48045 7.2929 9.29291C7.48043 9.10538 7.73478 9.00002 8 9.00002H19V4.00002C19 3.80223 19.0587 3.60888 19.1685 3.44443C19.2784 3.27998 19.4346 3.1518 19.6173 3.07612C19.8001 3.00043 20.0011 2.98063 20.1951 3.01922C20.3891 3.05781 20.5673 3.15306 20.7072 3.29292L26.7072 9.29292C26.8947 9.48046 27 9.73481 27 10C27 10.2652 26.8947 10.5196 26.7072 10.7071V10.7071Z"/>
</svg>
