<svg   viewBox="0 0 32 32" fill="none" xmlns="http://www.w3.org/2000/svg">
<path d="M26.7072 22.7071L20.7072 28.7071C20.5673 28.847 20.3891 28.9422 20.1951 28.9808C20.0011 29.0194 19.8001 28.9996 19.6173 28.9239C19.4346 28.8482 19.2784 28.72 19.1685 28.5556C19.0587 28.3911 19 28.1978 19 28V23H8C7.73478 23 7.48043 22.8946 7.2929 22.7071C7.10536 22.5196 7 22.2652 7 22V4C7 3.73478 7.10536 3.48043 7.29289 3.29289C7.48043 3.10536 7.73478 3 8 3C8.26522 3 8.51957 3.10536 8.70711 3.29289C8.89464 3.48043 9 3.73478 9 4V21H19V16C19 15.8022 19.0587 15.6089 19.1685 15.4444C19.2784 15.28 19.4346 15.1518 19.6173 15.0761C19.8001 15.0004 20.0011 14.9806 20.1951 15.0192C20.3891 15.0578 20.5673 15.153 20.7072 15.2929L26.7072 21.2929C26.8947 21.4804 27 21.7348 27 22C27 22.2652 26.8947 22.5196 26.7072 22.7071Z" fill="black"/>
</svg>
