<svg viewBox="0 0 32 32" xmlns="http://www.w3.org/2000/svg">
<path d="M10.7072 18.2928C10.8 18.3857 10.8737 18.4959 10.924 18.6172C10.9742 18.7386 11.0001 18.8686 11.0001 18.9999C11.0001 19.1313 10.9742 19.2613 10.924 19.3827C10.8737 19.504 10.8 19.6142 10.7072 19.7071C10.6143 19.8 10.5041 19.8736 10.3827 19.9239C10.2614 19.9741 10.1314 20 10 20C9.8687 20 9.73866 19.9741 9.61732 19.9239C9.49599 19.8736 9.38574 19.8 9.29288 19.7071L3.29288 13.7071C3.10535 13.5195 3 13.2652 3 12.9999C3 12.7347 3.10535 12.4804 3.29288 12.2928L9.29288 6.29279C9.48043 6.10524 9.7348 5.99988 10 5.99988C10.2653 5.99988 10.5196 6.10524 10.7072 6.29279C10.8947 6.48034 11.0001 6.73471 11.0001 6.99994C11.0001 7.26518 10.8947 7.51955 10.7072 7.7071L5.41422 12.9999L10.7072 18.2928ZM17 12.038V6.99994C17 6.80217 16.9413 6.60884 16.8315 6.4444C16.7216 6.27995 16.5654 6.15179 16.3827 6.0761C16.2 6.00041 15.9989 5.9806 15.8049 6.01917C15.6109 6.05774 15.4327 6.15296 15.2929 6.29279L9.29288 12.2928C9.10535 12.4804 9 12.7347 9 12.9999C9 13.2652 9.10535 13.5195 9.29288 13.7071L15.2929 19.7071C15.4327 19.8469 15.6109 19.9421 15.8049 19.9807C15.9989 20.0193 16.2 19.9995 16.3827 19.9238C16.5654 19.8481 16.7216 19.7199 16.8315 19.5555C16.9413 19.3911 17 19.1977 17 18.9999V14.0459C19.7316 14.2986 22.2706 15.5615 24.1201 17.5875C25.9697 19.6135 26.9966 22.2567 27 24.9999C27 25.2652 27.1054 25.5195 27.2929 25.7071C27.4805 25.8946 27.7348 25.9999 28 25.9999C28.2652 25.9999 28.5196 25.8946 28.7071 25.7071C28.8947 25.5195 29 25.2652 29 24.9999C28.9961 21.7263 27.7589 18.5744 25.5349 16.1722C23.311 13.77 20.2636 12.2939 17 12.038V12.038Z"/>
</svg>
