<svg   viewBox="0 0 32 32" fill="none" xmlns="http://www.w3.org/2000/svg">
<path d="M27 6V11C27 11.1978 26.9413 11.3911 26.8315 11.5556C26.7216 11.72 26.5654 11.8482 26.3827 11.9239C26.1999 11.9996 25.9989 12.0194 25.8049 11.9808C25.6109 11.9422 25.4327 11.8469 25.2928 11.7071L23.5 9.91425L19.7072 13.7071C19.5196 13.8946 19.2653 14 19 14C18.7348 14 18.4805 13.8947 18.2929 13.7072C18.1054 13.5196 18 13.2653 18 13C18 12.7348 18.1053 12.4805 18.2928 12.2929L22.0858 8.5L20.2928 6.70709C20.153 6.56723 20.0578 6.38904 20.0192 6.19507C19.9807 6.00109 20.0005 5.80004 20.0762 5.61732C20.1519 5.4346 20.28 5.27843 20.4445 5.16855C20.6089 5.05867 20.8022 5.00002 21 5H26C26.2652 5 26.5196 5.10536 26.7071 5.2929C26.8946 5.48043 27 5.73478 27 6V6ZM12.2928 18.2929L8.5 22.0858L6.70715 20.2929C6.5673 20.153 6.38912 20.0578 6.19513 20.0192C6.00115 19.9806 5.80007 20.0004 5.61734 20.0761C5.43461 20.1518 5.27842 20.28 5.16854 20.4444C5.05865 20.6089 5 20.8022 5 21V26C5 26.2652 5.10536 26.5196 5.2929 26.7071C5.48043 26.8946 5.73478 27 6 27H11C11.1978 27 11.3911 26.9413 11.5555 26.8314C11.72 26.7216 11.8481 26.5654 11.9238 26.3827C11.9995 26.2 12.0193 25.9989 11.9808 25.8049C11.9422 25.611 11.847 25.4328 11.7072 25.2929L9.91425 23.5L13.7072 19.7071C13.8947 19.5195 14 19.2652 14 19C14 18.7347 13.8946 18.4804 13.7071 18.2928C13.5195 18.1053 13.2652 18 13 18C12.7347 18 12.4804 18.1054 12.2929 18.2929H12.2928ZM26.3827 20.0761C26.2 20.0004 25.9989 19.9806 25.8049 20.0192C25.6109 20.0578 25.4327 20.1531 25.2928 20.2929L23.5 22.0858L19.7072 18.2929C19.5196 18.1054 19.2653 18 19 18C18.7348 18 18.4805 18.1053 18.2929 18.2928C18.1054 18.4804 18 18.7347 18 19C18 19.2652 18.1053 19.5195 18.2928 19.7071L22.0858 23.5L20.2928 25.2929C20.153 25.4328 20.0578 25.611 20.0192 25.8049C19.9807 25.9989 20.0005 26.2 20.0762 26.3827C20.1519 26.5654 20.28 26.7216 20.4445 26.8314C20.6089 26.9413 20.8022 27 21 27H26C26.2652 27 26.5196 26.8946 26.7071 26.7071C26.8946 26.5196 27 26.2652 27 26V21C27 20.8022 26.9414 20.6089 26.8315 20.4444C26.7216 20.28 26.5654 20.1518 26.3827 20.0761V20.0761ZM9.91425 8.5L11.7072 6.70709C11.847 6.56723 11.9422 6.38904 11.9808 6.19507C12.0193 6.00109 11.9995 5.80004 11.9238 5.61732C11.8481 5.43461 11.72 5.27843 11.5555 5.16855C11.3911 5.05867 11.1978 5.00002 11 5H6C5.73478 5 5.48043 5.10536 5.2929 5.2929C5.10536 5.48043 5 5.73478 5 6V11C5 11.1978 5.05866 11.3911 5.16854 11.5556C5.27843 11.72 5.43462 11.8482 5.61735 11.9239C5.80008 11.9996 6.00115 12.0194 6.19513 11.9808C6.38912 11.9422 6.5673 11.8469 6.70715 11.7071L8.5 9.91425L12.2928 13.7071C12.4804 13.8946 12.7347 14 13 14C13.2652 14 13.5195 13.8947 13.7071 13.7072C13.8946 13.5196 14 13.2653 14 13C14 12.7348 13.8947 12.4805 13.7072 12.2929L9.91425 8.5Z" fill="black"/>
</svg>
