<svg   viewBox="0 0 32 32" fill="none" xmlns="http://www.w3.org/2000/svg">
<path d="M28.7072 20.7071L22.7072 26.7071C22.5196 26.8946 22.2652 27 22 27C21.7348 27 21.4804 26.8946 21.2928 26.7071L15.2928 20.7071C15.153 20.5672 15.0578 20.389 15.0192 20.1951C14.9807 20.0011 15.0005 19.8 15.0762 19.6173C15.1519 19.4346 15.28 19.2784 15.4445 19.1686C15.6089 19.0587 15.8022 19 16 19H21V9H4C3.73478 9 3.48043 8.89464 3.29289 8.70711C3.10536 8.51957 3 8.26522 3 8C3 7.73478 3.10536 7.48043 3.29289 7.29289C3.48043 7.10536 3.73478 7 4 7H22C22.2652 7 22.5196 7.10536 22.7071 7.2929C22.8946 7.48043 23 7.73478 23 8V19H28C28.1978 19 28.3911 19.0587 28.5555 19.1686C28.72 19.2784 28.8481 19.4346 28.9238 19.6173C28.9995 19.8 29.0193 20.0011 28.9808 20.1951C28.9422 20.389 28.847 20.5672 28.7072 20.7071V20.7071Z" fill="black"/>
</svg>
