<svg viewBox="0 0 32 32" xmlns="http://www.w3.org/2000/svg">
<path d="M25.9238 10.3828C25.8481 10.5655 25.72 10.7216 25.5555 10.8315C25.3911 10.9414 25.1978 11.0001 25 11.0001H20V16.0001C19.9961 19.4467 18.6252 22.751 16.1881 25.1881C13.751 27.6253 10.4466 28.9962 7 29.0001C6.73478 29.0001 6.48043 28.8947 6.29289 28.7072C6.10536 28.5196 6 28.2653 6 28.0001C6 27.7348 6.10536 27.4805 6.29289 27.293C6.48043 27.1054 6.73478 27.0001 7 27.0001C9.91637 26.9968 12.7123 25.8368 14.7745 23.7746C16.8367 21.7124 17.9967 18.9164 18 16.0001V11.0001H13C12.8022 11 12.6089 10.9414 12.4445 10.8315C12.28 10.7216 12.1518 10.5654 12.0762 10.3827C12.0005 10.2 11.9807 9.99892 12.0192 9.80494C12.0578 9.61096 12.153 9.43278 12.2928 9.29291L18.2928 3.29291C18.4804 3.10543 18.7348 3.00012 19 3.00012C19.2652 3.00012 19.5196 3.10543 19.7072 3.29291L25.7072 9.29291C25.847 9.43278 25.9422 9.61098 25.9808 9.80497C26.0194 9.99896 25.9995 10.2 25.9238 10.3828V10.3828Z"/>
</svg>
