<svg viewBox="0 0 32 32" xmlns="http://www.w3.org/2000/svg">
<path d="M16.6173 28.9239C16.4346 28.8482 16.2784 28.72 16.1685 28.5556C16.0586 28.3911 16 28.1978 16 28V23H13C12.7348 23 12.4804 22.8947 12.2929 22.7071C12.1054 22.5196 12 22.2652 12 22V10C12 9.7348 12.1054 9.48045 12.2929 9.29291C12.4804 9.10538 12.7348 9.00002 13 9.00002H16V4.00002C16 3.80223 16.0587 3.60888 16.1685 3.44443C16.2784 3.27998 16.4346 3.1518 16.6173 3.07612C16.8001 3.00043 17.0011 2.98063 17.1951 3.01922C17.3891 3.05781 17.5673 3.15306 17.7072 3.29292L29.7072 15.2929C29.8946 15.4805 29.9999 15.7348 29.9999 16C29.9999 16.2652 29.8946 16.5195 29.7072 16.7071L17.7072 28.7071C17.5673 28.847 17.3891 28.9422 17.1951 28.9808C17.0011 29.0194 16.8 28.9996 16.6173 28.9239V28.9239ZM6 22V10C6 9.7348 5.89464 9.48045 5.70711 9.29291C5.51957 9.10537 5.26522 9.00002 5 9.00002C4.73478 9.00002 4.48043 9.10537 4.29289 9.29291C4.10536 9.48045 4 9.7348 4 10V22C4 22.2652 4.10536 22.5196 4.29289 22.7071C4.48043 22.8947 4.73478 23 5 23C5.26522 23 5.51957 22.8947 5.70711 22.7071C5.89464 22.5196 6 22.2652 6 22ZM10 22V10C10 9.7348 9.89464 9.48045 9.70711 9.29291C9.51957 9.10537 9.26522 9.00002 9 9.00002C8.73478 9.00002 8.48043 9.10537 8.29289 9.29291C8.10536 9.48045 8 9.7348 8 10V22C8 22.2652 8.10536 22.5196 8.29289 22.7071C8.48043 22.8947 8.73478 23 9 23C9.26522 23 9.51957 22.8947 9.70711 22.7071C9.89464 22.5196 10 22.2652 10 22Z"/>
</svg>
