<svg viewBox="0 0 32 32" xmlns="http://www.w3.org/2000/svg">
<path d="M21 17V12H11C9.4087 12 7.88258 12.6322 6.75736 13.7574C5.63214 14.8826 5 16.4087 5 18C5 19.5913 5.63214 21.1174 6.75736 22.2427C7.88258 23.3679 9.4087 24 11 24H22C22.2652 24 22.5196 24.1054 22.7071 24.2929C22.8946 24.4804 23 24.7348 23 25C23 25.2652 22.8946 25.5196 22.7071 25.7071C22.5196 25.8947 22.2652 26 22 26H11C8.87827 26 6.84344 25.1572 5.34315 23.6569C3.84285 22.1566 3 20.1217 3 18C3 15.8783 3.84285 13.8435 5.34315 12.3432C6.84344 10.8429 8.87827 10 11 10H21V5.00002C21 4.80223 21.0587 4.60888 21.1685 4.44443C21.2784 4.27998 21.4346 4.1518 21.6173 4.07612C21.8001 4.00043 22.0011 3.98063 22.1951 4.01922C22.3891 4.05781 22.5673 4.15306 22.7072 4.29292L28.7072 10.2929C28.8947 10.4805 29 10.7348 29 11C29 11.2652 28.8947 11.5196 28.7072 11.7071L22.7072 17.7071C22.5673 17.847 22.3891 17.9422 22.1951 17.9808C22.0011 18.0194 21.8001 17.9996 21.6173 17.9239C21.4346 17.8482 21.2784 17.7201 21.1685 17.5556C21.0587 17.3911 21 17.1978 21 17V17Z"/>
</svg>
