<svg viewBox="0 0 32 32" xmlns="http://www.w3.org/2000/svg">
<path d="M6.29291 14.7066C6.15305 14.5668 6.0578 14.3886 6.01921 14.1946C5.98062 14.0006 6.00043 13.7995 6.07611 13.6168C6.1518 13.4341 6.27997 13.2779 6.44442 13.168C6.60888 13.0582 6.80222 12.9995 7 12.9995H15V3.99951C15 3.7343 15.1054 3.47994 15.2929 3.2924C15.4804 3.10487 15.7348 2.99951 16 2.99951C16.2652 2.99951 16.5196 3.10487 16.7071 3.2924C16.8946 3.47994 17 3.7343 17 3.99951V12.9995H25C25.1978 12.9995 25.3911 13.0582 25.5556 13.168C25.72 13.2779 25.8482 13.4341 25.9239 13.6168C25.9996 13.7995 26.0194 14.0006 25.9808 14.1946C25.9422 14.3886 25.847 14.5668 25.7071 14.7066L16.7071 23.7066C16.6142 23.7995 16.504 23.8731 16.3827 23.9234C16.2614 23.9736 16.1313 23.9995 16 23.9995C15.8687 23.9995 15.7386 23.9736 15.6173 23.9234C15.496 23.8731 15.3858 23.7995 15.2929 23.7066L6.29291 14.7066ZM27 25.9995H5C4.73478 25.9995 4.48043 26.1049 4.29289 26.2924C4.10536 26.4799 4 26.7343 4 26.9995C4 27.2647 4.10536 27.5191 4.29289 27.7066C4.48043 27.8942 4.73478 27.9995 5 27.9995H27C27.2652 27.9995 27.5196 27.8942 27.7071 27.7066C27.8946 27.5191 28 27.2647 28 26.9995C28 26.7343 27.8946 26.4799 27.7071 26.2924C27.5196 26.1049 27.2652 25.9995 27 25.9995Z"/>
</svg>
