<svg viewBox="0 0 32 32" xmlns="http://www.w3.org/2000/svg">
<path d="M16 3C13.4288 3 10.9154 3.76244 8.77759 5.1909C6.63975 6.61935 4.97351 8.64968 3.98957 11.0251C3.00563 13.4006 2.74819 16.0144 3.2498 18.5362C3.75141 21.0579 4.98953 23.3743 6.80762 25.1924C8.6257 27.0105 10.9421 28.2486 13.4638 28.7502C15.9856 29.2518 18.5995 28.9944 20.9749 28.0104C23.3503 27.0265 25.3807 25.3603 26.8091 23.2224C28.2376 21.0846 29 18.5712 29 16C28.996 12.5534 27.6251 9.24912 25.188 6.81201C22.7509 4.3749 19.4466 3.00398 16 3V3ZM20.5 19.5C20.4991 19.7649 20.3935 20.0188 20.2061 20.2061C20.0188 20.3934 19.7649 20.4991 19.5 20.5H13.5C13.2348 20.5 12.9804 20.3946 12.7929 20.2071C12.6054 20.0196 12.5 19.7652 12.5 19.5C12.5 19.2348 12.6054 18.9804 12.7929 18.7929C12.9804 18.6054 13.2348 18.5 13.5 18.5H17.0859L11.793 13.207C11.6058 13.0194 11.5007 12.7652 11.5009 12.5002C11.501 12.2352 11.6063 11.9811 11.7937 11.7937C11.9811 11.6063 12.2352 11.501 12.5002 11.5009C12.7652 11.5007 13.0195 11.6058 13.207 11.793L18.5 17.0859V13.5C18.5 13.2348 18.6054 12.9804 18.7929 12.7929C18.9804 12.6054 19.2348 12.5 19.5 12.5C19.7652 12.5 20.0196 12.6054 20.2071 12.7929C20.3946 12.9804 20.5 13.2348 20.5 13.5V19.5Z"/>
</svg>
