<svg   viewBox="0 0 32 32" fill="none" xmlns="http://www.w3.org/2000/svg">
<path d="M28 16.0001C28 16.2653 27.8946 16.5196 27.7071 16.7072C27.5196 16.8947 27.2652 17 27 17.0001H5C4.73478 17.0001 4.48043 16.8947 4.29289 16.7072C4.10536 16.5196 4 16.2653 4 16.0001C4 15.7348 4.10536 15.4805 4.29289 15.293C4.48043 15.1054 4.73478 15.0001 5 15.0001H27C27.2652 15.0001 27.5196 15.1054 27.7071 15.293C27.8946 15.4805 28 15.7348 28 16.0001V16.0001ZM12 7.00006H15V12.0001C15 12.2653 15.1054 12.5196 15.2929 12.7072C15.4804 12.8947 15.7348 13.0001 16 13.0001C16.2652 13.0001 16.5196 12.8947 16.7071 12.7072C16.8946 12.5196 17 12.2653 17 12.0001V7.00006H20C20.1978 7.00004 20.3911 6.94138 20.5555 6.83149C20.72 6.7216 20.8482 6.56543 20.9238 6.38271C20.9995 6.19998 21.0193 5.99892 20.9808 5.80494C20.9422 5.61096 20.847 5.43278 20.7072 5.29291L16.7072 1.29291C16.5196 1.10543 16.2652 1.00012 16 1.00012C15.7348 1.00012 15.4804 1.10543 15.2928 1.29291L11.2928 5.29291C11.153 5.43278 11.0578 5.61096 11.0192 5.80494C10.9807 5.99892 11.0005 6.19998 11.0762 6.38271C11.1518 6.56543 11.28 6.7216 11.4445 6.83149C11.6089 6.94138 11.8022 7.00004 12 7.00006ZM20 25.0001H17V20.0001C17 19.7348 16.8946 19.4805 16.7071 19.293C16.5196 19.1054 16.2652 19.0001 16 19.0001C15.7348 19.0001 15.4804 19.1054 15.2929 19.293C15.1054 19.4805 15 19.7348 15 20.0001V25.0001H12C11.8022 25.0001 11.6089 25.0587 11.4445 25.1686C11.28 25.2785 11.1518 25.4347 11.0762 25.6174C11.0005 25.8001 10.9807 26.0012 11.0192 26.1952C11.0578 26.3892 11.153 26.5673 11.2928 26.7072L15.2928 30.7072C15.4804 30.8947 15.7348 31.0001 16 31.0001C16.2652 31.0001 16.5196 30.8947 16.7072 30.7072L20.7072 26.7072C20.847 26.5673 20.9422 26.3892 20.9808 26.1952C21.0193 26.0012 20.9995 25.8001 20.9238 25.6174C20.8482 25.4347 20.72 25.2785 20.5555 25.1686C20.3911 25.0587 20.1978 25.0001 20 25.0001V25.0001Z" fill="black"/>
</svg>
