<svg viewBox="0 0 32 32" xmlns="http://www.w3.org/2000/svg">
<path d="M27.9238 10.3827C27.8481 10.5654 27.72 10.7216 27.5555 10.8315C27.3911 10.9414 27.1978 11 27 11H22V21C22 23.1217 21.1571 25.1566 19.6569 26.6569C18.1566 28.1572 16.1217 29 14 29C11.8783 29 9.84344 28.1572 8.34315 26.6569C6.84285 25.1566 6 23.1217 6 21V10C6 9.7348 6.10536 9.48045 6.29289 9.29291C6.48043 9.10537 6.73478 9.00002 7 9.00002C7.26522 9.00002 7.51957 9.10537 7.70711 9.29291C7.89464 9.48045 8 9.7348 8 10V21C8 22.5913 8.63214 24.1174 9.75736 25.2427C10.8826 26.3679 12.4087 27 14 27C15.5913 27 17.1174 26.3679 18.2426 25.2427C19.3679 24.1174 20 22.5913 20 21V11H15C14.8022 11 14.6089 10.9413 14.4445 10.8315C14.28 10.7216 14.1519 10.5654 14.0762 10.3827C14.0005 10.2 13.9807 9.99892 14.0192 9.80495C14.0578 9.61097 14.153 9.43279 14.2928 9.29292L20.2928 3.29292C20.3857 3.20005 20.496 3.12639 20.6173 3.07613C20.7386 3.02587 20.8687 3 21 3C21.1313 3 21.2614 3.02587 21.3827 3.07613C21.504 3.12639 21.6143 3.20005 21.7072 3.29292L27.7072 9.29292C27.847 9.43278 27.9422 9.61097 27.9808 9.80495C28.0194 9.99893 27.9995 10.2 27.9238 10.3827V10.3827Z"/>
</svg>
