<svg viewBox="0 0 32 32" xmlns="http://www.w3.org/2000/svg">
<path d="M29 25C29 25.2652 28.8947 25.5196 28.7071 25.7071C28.5196 25.8946 28.2652 26 28 26C27.7348 26 27.4805 25.8946 27.2929 25.7071C27.1054 25.5196 27 25.2652 27 25C26.9967 22.0836 25.8368 19.2876 23.7746 17.2254C21.7124 15.1633 18.9164 14.0033 16 14H11V19C11 19.1978 10.9414 19.3911 10.8315 19.5555C10.7216 19.72 10.5654 19.8482 10.3827 19.9239C10.2 19.9995 9.9989 20.0193 9.80491 19.9808C9.61093 19.9422 9.43274 19.847 9.29288 19.7071L3.29288 13.7071C3.10535 13.5196 3 13.2652 3 13C3 12.7348 3.10535 12.4804 3.29288 12.2928L9.29288 6.29283C9.43275 6.15299 9.61093 6.05777 9.80491 6.0192C9.99889 5.98063 10.2 6.00044 10.3827 6.07613C10.5654 6.15182 10.7216 6.27999 10.8315 6.44443C10.9413 6.60887 11 6.8022 11 6.99998V12H16C19.4466 12.0039 22.751 13.3748 25.1881 15.8119C27.6252 18.249 28.9961 21.5534 29 25V25Z"/>
</svg>
