<svg viewBox="0 0 32 32" xmlns="http://www.w3.org/2000/svg">
<path d="M20.4594 25.0818C20.5351 25.2645 20.5549 25.4656 20.5163 25.6595C20.4778 25.8535 20.3825 26.0317 20.2427 26.1716L16.7072 29.7071C16.5196 29.8946 16.2653 30 16 30C15.7348 30 15.4804 29.8946 15.2929 29.7071L11.7574 26.1716C11.6175 26.0317 11.5223 25.8535 11.4837 25.6595C11.4452 25.4656 11.465 25.2645 11.5407 25.0818C11.6164 24.8991 11.7445 24.7429 11.909 24.633C12.0734 24.5232 12.2667 24.4645 12.4645 24.4645H15V20C15 19.7348 15.1054 19.4804 15.2929 19.2929C15.4805 19.1054 15.7348 19 16 19C16.2652 19 16.5196 19.1054 16.7071 19.2929C16.8947 19.4804 17 19.7348 17 20V24.4645H19.5356C19.7333 24.4645 19.9267 24.5231 20.0911 24.633C20.2555 24.7429 20.3837 24.8991 20.4594 25.0818ZM12.4645 7.53552H15V12C15 12.2652 15.1054 12.5196 15.2929 12.7071C15.4805 12.8946 15.7348 13 16 13C16.2652 13 16.5196 12.8946 16.7071 12.7071C16.8947 12.5196 17 12.2652 17 12V7.53552H19.5356C19.7333 7.53551 19.9267 7.47685 20.0911 7.36697C20.2555 7.25709 20.3837 7.10092 20.4594 6.9182C20.5351 6.73549 20.5549 6.53443 20.5163 6.34045C20.4778 6.14648 20.3825 5.9683 20.2427 5.82843L16.7072 2.29291C16.5196 2.10536 16.2653 2 16 2C15.7348 2 15.4804 2.10536 15.2929 2.29291L11.7574 5.82843C11.6175 5.9683 11.5223 6.14648 11.4837 6.34045C11.4452 6.53443 11.465 6.73549 11.5407 6.9182C11.6164 7.10092 11.7445 7.25709 11.909 7.36697C12.0734 7.47685 12.2667 7.53551 12.4645 7.53552ZM12 17C12.2652 17 12.5196 16.8946 12.7071 16.7071C12.8947 16.5196 13 16.2652 13 16C13 15.7348 12.8947 15.4804 12.7071 15.2929C12.5196 15.1054 12.2652 15 12 15H7.53555V12.4645C7.53555 12.2667 7.4769 12.0734 7.36701 11.9089C7.25713 11.7445 7.10095 11.6163 6.91822 11.5406C6.7355 11.4649 6.53443 11.4451 6.34044 11.4837C6.14646 11.5222 5.96827 11.6175 5.82841 11.7573L2.29288 15.2929C2.10535 15.4804 2 15.7348 2 16C2 16.2652 2.10535 16.5196 2.29288 16.7071L5.82841 20.2427C5.96827 20.3825 6.14646 20.4778 6.34044 20.5163C6.53443 20.5549 6.7355 20.5351 6.91823 20.4594C7.10096 20.3837 7.25714 20.2556 7.36702 20.0911C7.4769 19.9266 7.53556 19.7333 7.53556 19.5355V17H12ZM29.7072 15.2929L26.1717 11.7573C26.0318 11.6175 25.8536 11.5222 25.6596 11.4837C25.4656 11.4451 25.2646 11.4649 25.0818 11.5406C24.8991 11.6163 24.7429 11.7444 24.6331 11.9089C24.5232 12.0734 24.4645 12.2667 24.4645 12.4645V15H20C19.7348 15 19.4805 15.1054 19.2929 15.2929C19.1054 15.4804 19 15.7348 19 16C19 16.2652 19.1054 16.5196 19.2929 16.7071C19.4805 16.8946 19.7348 17 20 17H24.4645V19.5355C24.4645 19.7333 24.5231 19.9267 24.633 20.0911C24.7429 20.2556 24.8991 20.3838 25.0818 20.4595C25.2646 20.5352 25.4656 20.555 25.6596 20.5164C25.8536 20.4778 26.0318 20.3825 26.1717 20.2427L29.7072 16.7071C29.8947 16.5196 30.0001 16.2652 30.0001 16C30.0001 15.7348 29.8947 15.4804 29.7072 15.2929V15.2929Z"/>
</svg>
