<svg   viewBox="0 0 32 32" fill="none" xmlns="http://www.w3.org/2000/svg">
<path d="M4 6V26C4.00061 26.5302 4.21151 27.0386 4.58646 27.4135C4.9614 27.7885 5.46975 27.9994 6 28H26C26.5302 27.9994 27.0386 27.7885 27.4135 27.4135C27.7885 27.0386 27.9994 26.5302 28 26V6C27.9994 5.46975 27.7885 4.9614 27.4135 4.58646C27.0386 4.21151 26.5302 4.00061 26 4H6C5.46975 4.00061 4.9614 4.21151 4.58646 4.58646C4.21151 4.9614 4.00061 5.46975 4 6ZM11.7929 18.7928L17.0858 13.5H13.5C13.2348 13.5 12.9804 13.3946 12.7929 13.2071C12.6054 13.0196 12.5 12.7652 12.5 12.5C12.5 12.2348 12.6054 11.9804 12.7929 11.7929C12.9804 11.6054 13.2348 11.5 13.5 11.5H19.5C19.5075 11.5 19.5147 11.501 19.5222 11.5011C19.5475 11.5017 19.5728 11.5025 19.598 11.5049C19.6154 11.5067 19.6322 11.5098 19.6493 11.5123C19.6645 11.5146 19.6797 11.5163 19.6948 11.5193C19.7131 11.5229 19.7309 11.5279 19.7488 11.5325C19.7624 11.536 19.7762 11.5389 19.7898 11.543C19.8069 11.5482 19.8235 11.5546 19.8403 11.5607C19.8543 11.5657 19.8685 11.5703 19.8823 11.5761C19.8977 11.5824 19.9124 11.5898 19.9274 11.5969C19.942 11.6039 19.9568 11.6104 19.9712 11.618C19.9852 11.6256 19.9986 11.6342 20.0122 11.6423C20.0266 11.6509 20.0412 11.6591 20.0552 11.6685C20.0698 11.6782 20.0836 11.6891 20.0976 11.6996C20.1097 11.7086 20.1221 11.717 20.1339 11.7267C20.1567 11.7455 20.1785 11.7654 20.1995 11.786C20.202 11.7885 20.2047 11.7904 20.2071 11.7928C20.2092 11.7949 20.2109 11.7972 20.213 11.7994C20.234 11.8207 20.2542 11.8428 20.2732 11.866C20.2832 11.8782 20.2919 11.891 20.3012 11.9035C20.3114 11.9171 20.322 11.9305 20.3315 11.9446C20.3412 11.9592 20.3497 11.9743 20.3586 11.9892C20.3664 12.0023 20.3746 12.0151 20.3818 12.0286C20.3899 12.0437 20.3968 12.0593 20.4041 12.0747C20.4107 12.0889 20.4178 12.1028 20.4238 12.1173C20.43 12.1322 20.435 12.1475 20.4404 12.1627C20.446 12.1783 20.452 12.1937 20.4569 12.2096C20.4615 12.225 20.4649 12.2405 20.4688 12.256C20.4728 12.2722 20.4774 12.2881 20.4806 12.3044C20.4842 12.3226 20.4864 12.3409 20.4889 12.3591C20.4909 12.3732 20.4936 12.387 20.495 12.4012C20.4983 12.4341 20.5 12.4672 20.5 12.5003V18.5C20.5 18.7652 20.3946 19.0196 20.2071 19.2071C20.0196 19.3946 19.7652 19.5 19.5 19.5C19.2348 19.5 18.9804 19.3946 18.7929 19.2071C18.6054 19.0196 18.5 18.7652 18.5 18.5V14.9143L13.2071 20.2072C13.0195 20.3947 12.7652 20.5 12.5 20.5C12.2347 20.5 11.9804 20.3946 11.7929 20.2071C11.6053 20.0195 11.5 19.7652 11.5 19.5C11.5 19.2347 11.6054 18.9804 11.7929 18.7929L11.7929 18.7928Z" fill="black"/>
</svg>
