<svg viewBox="0 0 32 32" xmlns="http://www.w3.org/2000/svg">
<path d="M26 9.99997V21C26 23.1217 25.1571 25.1565 23.6568 26.6568C22.1565 28.1571 20.1217 29 18 29C15.8782 29 13.8434 28.1571 12.3431 26.6568C10.8428 25.1565 9.99997 23.1217 9.99997 21V11H4.99997C4.8022 11 4.60887 10.9413 4.44443 10.8314C4.27999 10.7215 4.15182 10.5654 4.07613 10.3826C4.00045 10.1999 3.98063 9.99888 4.0192 9.8049C4.05777 9.61093 4.15299 9.43274 4.29281 9.29288L10.2928 3.29288C10.4804 3.10535 10.7347 3 11 3C11.2652 3 11.5196 3.10535 11.7071 3.29288L17.7071 9.29288C17.8469 9.43274 17.9422 9.61093 17.9807 9.8049C18.0193 9.99888 17.9995 10.1999 17.9238 10.3826C17.8481 10.5654 17.7199 10.7215 17.5555 10.8314C17.3911 10.9413 17.1977 11 17 11H12V21C12 22.5913 12.6321 24.1174 13.7573 25.2426C14.8825 26.3678 16.4087 27 18 27C19.5913 27 21.1174 26.3678 22.2426 25.2426C23.3678 24.1174 24 22.5913 24 21V9.99997C24 9.73475 24.1053 9.4804 24.2929 9.29286C24.4804 9.10533 24.7348 8.99997 25 8.99997C25.2652 8.99997 25.5195 9.10533 25.7071 9.29286C25.8946 9.4804 26 9.73475 26 9.99997V9.99997Z"/>
</svg>
