<svg   viewBox="0 0 32 32" fill="none" xmlns="http://www.w3.org/2000/svg">
<path d="M28.7072 13.7071L22.7072 19.7071C22.5196 19.8946 22.2652 20 22 20C21.7348 20 21.4804 19.8946 21.2928 19.7071C21.1053 19.5195 20.9999 19.2652 20.9999 18.9999C20.9999 18.7347 21.1053 18.4803 21.2928 18.2928L26.5858 12.9999L21.2928 7.7071C21.1053 7.51955 20.9999 7.26518 20.9999 6.99994C20.9999 6.73471 21.1053 6.48034 21.2928 6.29279C21.4804 6.10524 21.7348 5.99988 22 5.99988C22.2652 5.99988 22.5196 6.10524 22.7072 6.29279L28.7072 12.2928C28.8947 12.4804 29 12.7347 29 12.9999C29 13.2652 28.8947 13.5195 28.7072 13.7071V13.7071ZM22.7072 12.2928L16.7072 6.29279C16.5673 6.15296 16.3891 6.05774 16.1951 6.01917C16.0011 5.9806 15.8001 6.00041 15.6174 6.0761C15.4346 6.15179 15.2785 6.27995 15.1686 6.4444C15.0587 6.60884 15 6.80217 15 6.99994V12.038C11.7364 12.2939 8.68903 13.77 6.4651 16.1722C4.24116 18.5744 3.00395 21.7263 3 24.9999C3 25.2652 3.10536 25.5195 3.29289 25.7071C3.48043 25.8946 3.73478 25.9999 4 25.9999C4.26522 25.9999 4.51957 25.8946 4.70711 25.7071C4.89464 25.5195 5 25.2652 5 24.9999C5.00342 22.2567 6.03038 19.6135 7.87991 17.5875C9.72944 15.5615 12.2684 14.2986 15 14.0459V18.9999C15 19.1977 15.0587 19.3911 15.1686 19.5555C15.2784 19.72 15.4346 19.8481 15.6173 19.9238C15.8001 19.9995 16.0011 20.0193 16.1951 19.9807C16.3891 19.9422 16.5673 19.8469 16.7072 19.7071L22.7072 13.7071C22.8947 13.5195 23 13.2652 23 12.9999C23 12.7347 22.8947 12.4804 22.7072 12.2928Z" fill="black"/>
</svg>
