<svg   viewBox="0 0 32 32" fill="none" xmlns="http://www.w3.org/2000/svg">
<path d="M17 5V27C17 27.2652 16.8946 27.5196 16.7071 27.7071C16.5196 27.8946 16.2652 28 16 28C15.7348 28 15.4804 27.8946 15.2929 27.7071C15.1054 27.5196 15 27.2652 15 27V5C15 4.73478 15.1054 4.48043 15.2929 4.29289C15.4804 4.10536 15.7348 4 16 4C16.2652 4 16.5196 4.10536 16.7071 4.29289C16.8946 4.48043 17 4.73478 17 5ZM8.70715 11.2928C8.56729 11.153 8.3891 11.0578 8.19512 11.0192C8.00114 10.9807 7.80008 11.0005 7.61735 11.0762C7.43463 11.1518 7.27846 11.28 7.16857 11.4445C7.05868 11.6089 7.00002 11.8022 7 12V15H2C1.73478 15 1.48043 15.1054 1.29289 15.2929C1.10536 15.4804 1 15.7348 1 16C1 16.2652 1.10536 16.5196 1.29289 16.7071C1.48043 16.8946 1.73478 17 2 17H7V20C7.00001 20.1978 7.05867 20.3911 7.16856 20.5556C7.27844 20.72 7.43462 20.8482 7.61734 20.9239C7.80007 20.9996 8.00113 21.0194 8.19512 20.9808C8.3891 20.9422 8.56729 20.847 8.70715 20.7072L12.7072 16.7072C12.8947 16.5196 13 16.2652 13 16C13 15.7348 12.8947 15.4804 12.7072 15.2928L8.70715 11.2928ZM30 15H25V12C25 11.8022 24.9413 11.6089 24.8314 11.4445C24.7215 11.28 24.5654 11.1518 24.3826 11.0762C24.1999 11.0005 23.9989 10.9807 23.8049 11.0192C23.6109 11.0578 23.4327 11.153 23.2928 11.2928L19.2928 15.2928C19.1053 15.4804 19 15.7348 19 16C19 16.2652 19.1053 16.5196 19.2928 16.7072L23.2928 20.7072C23.4327 20.847 23.6109 20.9422 23.8049 20.9808C23.9989 21.0193 24.1999 20.9995 24.3826 20.9238C24.5654 20.8482 24.7215 20.72 24.8314 20.5555C24.9413 20.3911 25 20.1978 25 20V17H30C30.2652 17 30.5196 16.8946 30.7071 16.7071C30.8946 16.5196 31 16.2652 31 16C31 15.7348 30.8946 15.4804 30.7071 15.2929C30.5196 15.1054 30.2652 15 30 15Z" fill="black"/>
</svg>
