<svg   viewBox="0 0 32 32" fill="none" xmlns="http://www.w3.org/2000/svg">
<path d="M25.7072 22.7072L19.7072 28.7072C19.5196 28.8947 19.2652 29 19 29C18.7348 29 18.4804 28.8947 18.2928 28.7072L12.2928 22.7072C12.153 22.5673 12.0578 22.3891 12.0192 22.1951C11.9807 22.0011 12.0005 21.8001 12.0762 21.6174C12.1518 21.4346 12.28 21.2785 12.4445 21.1686C12.6089 21.0587 12.8022 21 13 21H18V16C17.9967 13.0836 16.8367 10.2877 14.7745 8.22546C12.7123 6.16328 9.91637 5.00329 7 5C6.73478 5 6.48043 4.89464 6.29289 4.70711C6.10536 4.51957 6 4.26522 6 4C6 3.73478 6.10536 3.48043 6.29289 3.29289C6.48043 3.10536 6.73478 3 7 3C10.4466 3.0039 13.751 4.37479 16.1881 6.81192C18.6252 9.24905 19.9961 12.5534 20 16V21H25C25.1978 21 25.3911 21.0587 25.5555 21.1686C25.72 21.2785 25.8482 21.4346 25.9238 21.6174C25.9995 21.8001 26.0193 22.0011 25.9808 22.1951C25.9422 22.3891 25.847 22.5673 25.7072 22.7072V22.7072Z" fill="black"/>
</svg>
