<svg   viewBox="0 0 32 32" fill="none" xmlns="http://www.w3.org/2000/svg">
<path d="M28 26V6C27.9995 5.46973 27.7886 4.96132 27.4136 4.58636C27.0387 4.21141 26.5303 4.00052 26 4H6C5.46973 4.00052 4.96132 4.21141 4.58636 4.58637C4.21141 4.96132 4.00052 5.46973 4 6V26C4.00052 26.5303 4.21141 27.0387 4.58636 27.4136C4.96132 27.7886 5.46973 27.9995 6 28H26C26.5303 27.9995 27.0387 27.7886 27.4136 27.4136C27.7886 27.0387 27.9995 26.5303 28 26V26ZM20.9512 15.9492C20.8583 16.0421 20.7481 16.1158 20.6268 16.166C20.5055 16.2163 20.3755 16.2422 20.2441 16.2422C20.1128 16.2422 19.9828 16.2163 19.8615 16.166C19.7402 16.1158 19.6299 16.0421 19.5371 15.9492L17 13.4135V21C17 21.2652 16.8946 21.5196 16.7071 21.7071C16.5196 21.8946 16.2652 22 16 22C15.7348 22 15.4804 21.8946 15.2929 21.7071C15.1054 21.5196 15 21.2652 15 21V13.4141L12.4648 15.9492C12.2773 16.1364 12.023 16.2415 11.758 16.2413C11.493 16.2412 11.2389 16.1359 11.0515 15.9485C10.8641 15.7611 10.7588 15.507 10.7587 15.242C10.7585 14.977 10.8636 14.7227 11.0508 14.5352L15.2917 10.2942C15.4798 10.1067 15.7345 10.0014 16 10.0014C16.2655 10.0014 16.5202 10.1067 16.7082 10.2942L20.9512 14.5352C21.044 14.628 21.1177 14.7382 21.168 14.8595C21.2183 14.9808 21.2441 15.1109 21.2441 15.2422C21.2441 15.3735 21.2183 15.5035 21.168 15.6248C21.1177 15.7462 21.0441 15.8564 20.9512 15.9492V15.9492Z" fill="black"/>
</svg>
