<svg   viewBox="0 0 32 32" fill="none" xmlns="http://www.w3.org/2000/svg">
<path d="M26.7071 19.2929L16.7071 9.29288C16.5196 9.10535 16.2652 9 16 9C15.7348 9 15.4804 9.10535 15.2929 9.29288L5.29291 19.2929C5.15305 19.4327 5.05781 19.6109 5.01922 19.8049C4.98063 19.9989 5.00043 20.1999 5.07612 20.3827C5.1518 20.5654 5.27998 20.7216 5.44443 20.8315C5.60888 20.9413 5.80222 21 6.00001 21H26C26.1978 21 26.3911 20.9413 26.5556 20.8315C26.72 20.7216 26.8482 20.5654 26.9239 20.3827C26.9996 20.1999 27.0194 19.9989 26.9808 19.8049C26.9422 19.6109 26.847 19.4327 26.7071 19.2929V19.2929Z" fill="black"/>
</svg>
