<svg viewBox="0 0 32 32" xmlns="http://www.w3.org/2000/svg">
<path d="M16 3C13.4288 3 10.9154 3.76244 8.77759 5.1909C6.63975 6.61935 4.97351 8.64968 3.98957 11.0251C3.00563 13.4006 2.74819 16.0144 3.2498 18.5362C3.75141 21.0579 4.98953 23.3743 6.80762 25.1924C8.6257 27.0105 10.9421 28.2486 13.4638 28.7502C15.9856 29.2518 18.5995 28.9944 20.9749 28.0104C23.3503 27.0265 25.3807 25.3603 26.8091 23.2224C28.2376 21.0846 29 18.5712 29 16C28.996 12.5534 27.6251 9.24912 25.188 6.81201C22.7509 4.3749 19.4466 3.00398 16 3V3ZM21.2432 15.1689L16.7432 20.1689C16.6494 20.2731 16.5348 20.3565 16.4068 20.4135C16.2788 20.4705 16.1402 20.5 16 20.5C15.8598 20.5 15.7213 20.4705 15.5932 20.4135C15.4652 20.3565 15.3506 20.2731 15.2568 20.1689L10.7568 15.1689C10.6689 15.0714 10.6011 14.9574 10.5572 14.8336C10.5133 14.7098 10.4943 14.5786 10.5012 14.4474C10.508 14.3162 10.5407 14.1877 10.5972 14.0691C10.6538 13.9506 10.7331 13.8443 10.8307 13.7565C10.9284 13.6686 11.0423 13.6008 11.1662 13.557C11.29 13.5132 11.4212 13.4942 11.5524 13.5011C11.6836 13.5081 11.8121 13.5408 11.9306 13.5974C12.0491 13.654 12.1553 13.7334 12.2432 13.8311L16 18.0049L19.7568 13.8311C19.8447 13.7334 19.9509 13.654 20.0694 13.5974C20.1879 13.5408 20.3164 13.5081 20.4476 13.5011C20.5788 13.4942 20.71 13.5132 20.8338 13.557C20.9577 13.6008 21.0717 13.6686 21.1693 13.7565C21.2669 13.8443 21.3463 13.9506 21.4028 14.0691C21.4594 14.1877 21.492 14.3162 21.4989 14.4474C21.5057 14.5786 21.4867 14.7098 21.4428 14.8336C21.3989 14.9574 21.3311 15.0714 21.2432 15.1689Z"/>
</svg>
