<svg viewBox="0 0 32 32" xmlns="http://www.w3.org/2000/svg">
<path d="M20.3827 5.07609C20.2 5.00043 19.9989 4.98064 19.8049 5.01921C19.611 5.05779 19.4328 5.15301 19.2929 5.29283L9.29292 15.2928C9.20006 15.3857 9.12639 15.4959 9.07613 15.6173C9.02587 15.7386 9 15.8687 9 16C9 16.1313 9.02587 16.2614 9.07613 16.3827C9.12639 16.504 9.20006 16.6143 9.29292 16.7071L19.2929 26.7071C19.4328 26.847 19.611 26.9422 19.8049 26.9808C19.9989 27.0194 20.2 26.9996 20.3827 26.9239C20.5654 26.8482 20.7216 26.72 20.8315 26.5555C20.9414 26.3911 21 26.1978 21 26V5.99998C21 5.8022 20.9414 5.60887 20.8315 5.44442C20.7216 5.27997 20.5654 5.15179 20.3827 5.07609V5.07609Z"/>
</svg>
