<svg viewBox="0 0 32 32" xmlns="http://www.w3.org/2000/svg">
<path d="M18.4143 17.0001H26C26.1978 17.0001 26.3911 16.9414 26.5556 16.8315C26.7201 16.7216 26.8482 16.5655 26.9239 16.3827C26.9996 16.2 27.0194 15.9989 26.9808 15.8049C26.9422 15.6109 26.847 15.4328 26.7071 15.2929L16.7071 5.29291C16.5195 5.10543 16.2652 5.00012 16 5.00012C15.7348 5.00012 15.4805 5.10543 15.2929 5.29291L5.29292 15.2929C5.15306 15.4328 5.05781 15.6109 5.01922 15.8049C4.98063 15.9989 5.00043 16.2 5.07612 16.3827C5.1518 16.5655 5.27998 16.7216 5.44443 16.8315C5.60888 16.9414 5.80223 17.0001 6.00002 17.0001H13.5858L5.29292 25.2929C5.15306 25.4328 5.05781 25.6109 5.01922 25.8049C4.98063 25.9989 5.00043 26.2 5.07612 26.3827C5.1518 26.5655 5.27998 26.7216 5.44443 26.8315C5.60888 26.9414 5.80223 27.0001 6.00002 27.0001H26C26.1978 27.0001 26.3911 26.9414 26.5556 26.8315C26.7201 26.7216 26.8482 26.5655 26.9239 26.3827C26.9996 26.2 27.0194 25.9989 26.9808 25.8049C26.9422 25.6109 26.847 25.4328 26.7071 25.2929L18.4143 17.0001Z"/>
</svg>
