<svg   viewBox="0 0 32 32" fill="none" xmlns="http://www.w3.org/2000/svg">
<path d="M25.1939 6.80763C23.3761 4.99153 21.0608 3.75512 18.5405 3.25469C16.0202 2.75426 13.4081 3.01227 11.0344 3.99611C8.66073 4.97995 6.63202 6.64544 5.20472 8.78207C3.77742 10.9187 3.01563 13.4305 3.01562 16C3.01563 18.5695 3.77742 21.0813 5.20472 23.218C6.63202 25.3546 8.66073 27.0201 11.0344 28.0039C13.4081 28.9877 16.0202 29.2458 18.5405 28.7453C21.0608 28.2449 23.3761 27.0085 25.1939 25.1924C27.6281 22.7524 28.9951 19.4466 28.9951 16C28.9951 12.5534 27.6281 9.24759 25.1939 6.80763V6.80763ZM14.7085 19.293C14.8015 19.3858 14.8753 19.496 14.9257 19.6174C14.9761 19.7387 15.0021 19.8688 15.0021 20.0002C15.0022 20.1316 14.9764 20.2617 14.9261 20.3832C14.8759 20.5046 14.8022 20.6149 14.7093 20.7078C14.6164 20.8007 14.5061 20.8744 14.3846 20.9246C14.2632 20.9749 14.1331 21.0007 14.0017 21.0007C13.8703 21.0006 13.7402 20.9746 13.6189 20.9242C13.4975 20.8739 13.3873 20.8 13.2945 20.707L9.29446 16.707C9.20158 16.6142 9.1279 16.504 9.07764 16.3827C9.02737 16.2614 9.00149 16.1313 9.00149 16C9.00149 15.8687 9.02737 15.7387 9.07764 15.6173C9.1279 15.496 9.20158 15.3858 9.29446 15.293L13.2945 11.293C13.482 11.1058 13.7363 11.0007 14.0013 11.0009C14.2663 11.001 14.5204 11.1063 14.7078 11.2937C14.8952 11.4811 15.0005 11.7352 15.0006 12.0002C15.0008 12.2652 14.8957 12.5195 14.7085 12.707L11.4156 16L14.7085 19.293ZM21.7085 19.293C21.8015 19.3858 21.8753 19.496 21.9257 19.6174C21.9761 19.7387 22.0021 19.8688 22.0021 20.0002C22.0022 20.1316 21.9764 20.2617 21.9261 20.3832C21.8759 20.5046 21.8022 20.6149 21.7093 20.7078C21.6164 20.8007 21.5061 20.8744 21.3846 20.9246C21.2632 20.9749 21.1331 21.0007 21.0017 21.0007C20.8703 21.0006 20.7402 20.9746 20.6189 20.9242C20.4975 20.8739 20.3873 20.8 20.2945 20.707L16.2945 16.707C16.2016 16.6142 16.1279 16.504 16.0776 16.3827C16.0274 16.2614 16.0015 16.1313 16.0015 16C16.0015 15.8687 16.0274 15.7387 16.0776 15.6173C16.1279 15.496 16.2016 15.3858 16.2945 15.293L20.2945 11.293C20.482 11.1058 20.7363 11.0007 21.0013 11.0009C21.2663 11.001 21.5204 11.1063 21.7078 11.2937C21.8952 11.4811 22.0005 11.7352 22.0006 12.0002C22.0008 12.2652 21.8957 12.5195 21.7085 12.707L18.4156 16L21.7085 19.293Z" fill="black"/>
</svg>
