<svg viewBox="0 0 32 32" xmlns="http://www.w3.org/2000/svg">
<path d="M27.7071 15.2929L17.7071 5.29291C17.5672 5.15305 17.3891 5.05781 17.1951 5.01922C17.0011 4.98063 16.8 5.00043 16.6173 5.07612C16.4346 5.1518 16.2784 5.27998 16.1685 5.44443C16.0586 5.60888 16 5.80222 16 6.00001V13.5858L7.70709 5.29291C7.56724 5.15305 7.38906 5.05781 7.19508 5.01922C7.0011 4.98063 6.80003 5.00043 6.61731 5.07612C6.43458 5.1518 6.2784 5.27998 6.16852 5.44443C6.05864 5.60888 5.99999 5.80222 6 6.00001V26C6 26.1978 6.05864 26.3911 6.16852 26.5556C6.2784 26.72 6.43458 26.8482 6.61731 26.9239C6.80003 26.9996 7.0011 27.0194 7.19508 26.9808C7.38906 26.9422 7.56724 26.847 7.70709 26.7071L16 18.4142V26C16 26.1978 16.0586 26.3911 16.1685 26.5556C16.2784 26.72 16.4346 26.8482 16.6173 26.9239C16.8 26.9996 17.0011 27.0194 17.1951 26.9808C17.3891 26.9422 17.5672 26.847 17.7071 26.7071L27.7071 16.7071C27.8 16.6142 27.8736 16.504 27.9239 16.3827C27.9741 16.2614 28 16.1313 28 16C28 15.8687 27.9741 15.7386 27.9239 15.6173C27.8736 15.496 27.8 15.3858 27.7071 15.2929V15.2929Z"/>
</svg>
