<svg   viewBox="0 0 32 32" fill="none" xmlns="http://www.w3.org/2000/svg">
<path d="M25.1939 6.80763C23.3761 4.99153 21.0608 3.75512 18.5405 3.25469C16.0202 2.75426 13.4081 3.01227 11.0344 3.99611C8.66073 4.97995 6.63202 6.64544 5.20472 8.78207C3.77742 10.9187 3.01563 13.4305 3.01562 16C3.01563 18.5695 3.77742 21.0813 5.20472 23.218C6.63202 25.3546 8.66073 27.0201 11.0344 28.0039C13.4081 28.9877 16.0202 29.2458 18.5405 28.7453C21.0608 28.2449 23.3761 27.0085 25.1939 25.1924C27.6281 22.7524 28.9951 19.4466 28.9951 16C28.9951 12.5534 27.6281 9.24759 25.1939 6.80763V6.80763ZM15.7085 16.707L11.7085 20.707C11.5209 20.8942 11.2667 20.9993 11.0017 20.9991C10.7367 20.999 10.4826 20.8937 10.2952 20.7063C10.1078 20.5189 10.0025 20.2648 10.0024 19.9998C10.0022 19.7348 10.1073 19.4806 10.2945 19.293L13.5874 16L10.2945 12.707C10.1073 12.5195 10.0022 12.2652 10.0024 12.0002C10.0025 11.7352 10.1078 11.4811 10.2952 11.2937C10.4826 11.1063 10.7367 11.001 11.0017 11.0009C11.2667 11.0007 11.5209 11.1058 11.7085 11.293L15.7085 15.293C15.8014 15.3858 15.8751 15.496 15.9254 15.6173C15.9756 15.7387 16.0015 15.8687 16.0015 16C16.0015 16.1313 15.9756 16.2614 15.9254 16.3827C15.8751 16.504 15.8014 16.6142 15.7085 16.707ZM22.7085 16.707L18.7085 20.707C18.5209 20.8942 18.2667 20.9993 18.0017 20.9991C17.7367 20.999 17.4826 20.8937 17.2952 20.7063C17.1078 20.5189 17.0025 20.2648 17.0024 19.9998C17.0022 19.7348 17.1073 19.4806 17.2945 19.293L20.5874 16L17.2945 12.707C17.1073 12.5195 17.0022 12.2652 17.0024 12.0002C17.0025 11.7352 17.1078 11.4811 17.2952 11.2937C17.4826 11.1063 17.7367 11.001 18.0017 11.0009C18.2667 11.0007 18.5209 11.1058 18.7085 11.293L22.7085 15.293C22.8014 15.3858 22.8751 15.496 22.9254 15.6173C22.9756 15.7387 23.0015 15.8687 23.0015 16C23.0015 16.1313 22.9756 16.2614 22.9254 16.3827C22.8751 16.504 22.8014 16.6142 22.7085 16.707V16.707Z" fill="black"/>
</svg>
