<svg   viewBox="0 0 32 32" fill="none" xmlns="http://www.w3.org/2000/svg">
<path d="M26 15H18.4142L26.7071 6.70709C26.847 6.56724 26.9422 6.38906 26.9808 6.19508C27.0194 6.0011 26.9996 5.80003 26.9239 5.61731C26.8482 5.43458 26.72 5.2784 26.5556 5.16852C26.3911 5.05864 26.1978 4.99999 26 5H6.00001C5.80222 4.99999 5.60888 5.05864 5.44443 5.16852C5.27998 5.2784 5.1518 5.43458 5.07612 5.61731C5.00043 5.80003 4.98063 6.0011 5.01922 6.19508C5.05781 6.38906 5.15305 6.56724 5.29291 6.70709L13.5858 15H6.00001C5.80222 15 5.60888 15.0586 5.44443 15.1685C5.27998 15.2784 5.1518 15.4346 5.07612 15.6173C5.00043 15.8 4.98063 16.0011 5.01922 16.1951C5.05781 16.3891 5.15305 16.5672 5.29291 16.7071L15.2929 26.7072C15.4805 26.8947 15.7348 27 16 27C16.2652 27 16.5196 26.8947 16.7071 26.7072L26.7071 16.7071C26.847 16.5672 26.9422 16.3891 26.9808 16.1951C27.0194 16.0011 26.9996 15.8 26.9239 15.6173C26.8482 15.4346 26.72 15.2784 26.5556 15.1685C26.3911 15.0586 26.1978 15 26 15V15Z" fill="black"/>
</svg>
