<svg   viewBox="0 0 32 32" fill="none" xmlns="http://www.w3.org/2000/svg">
<path d="M16 3C13.4288 3 10.9154 3.76244 8.77759 5.1909C6.63975 6.61935 4.97351 8.64968 3.98957 11.0251C3.00563 13.4006 2.74819 16.0144 3.2498 18.5362C3.75141 21.0579 4.98953 23.3743 6.80762 25.1924C8.6257 27.0105 10.9421 28.2486 13.4638 28.7502C15.9856 29.2518 18.5995 28.9944 20.9749 28.0104C23.3503 27.0265 25.3807 25.3603 26.8091 23.2224C28.2376 21.0846 29 18.5712 29 16C28.996 12.5534 27.6251 9.24912 25.188 6.81201C22.7509 4.3749 19.4466 3.00398 16 3V3ZM20.169 16.7432L15.169 21.2432C15.0714 21.3311 14.9574 21.3989 14.8336 21.4428C14.7098 21.4867 14.5786 21.5057 14.4474 21.4989C14.3162 21.492 14.1877 21.4594 14.0692 21.4028C13.9506 21.3463 13.8444 21.2669 13.7565 21.1693C13.6686 21.0716 13.6008 20.9577 13.557 20.8338C13.5132 20.71 13.4942 20.5788 13.5011 20.4476C13.5081 20.3164 13.5408 20.1879 13.5974 20.0694C13.654 19.9509 13.7334 19.8447 13.8311 19.7568L18.0049 16L13.8311 12.2432C13.6341 12.0657 13.5157 11.8173 13.5018 11.5526C13.488 11.2878 13.5798 11.0284 13.7572 10.8314C13.9346 10.6343 14.1829 10.5158 14.4476 10.5018C14.7124 10.4879 14.9718 10.5796 15.169 10.7568L20.169 15.2568C20.2731 15.3506 20.3565 15.4652 20.4135 15.5932C20.4705 15.7212 20.5 15.8598 20.5 16C20.5 16.1402 20.4705 16.2788 20.4135 16.4068C20.3565 16.5348 20.2731 16.6494 20.169 16.7432Z" fill="black"/>
</svg>
