<svg viewBox="0 0 32 32" xmlns="http://www.w3.org/2000/svg">
<path d="M6.80958 6.80762C4.99349 8.62535 3.75708 10.9407 3.25664 13.461C2.75621 15.9813 3.01422 18.5934 3.99806 20.9671C4.9819 23.3408 6.6474 25.3695 8.78402 26.7968C10.9206 28.2241 13.4325 28.9859 16.002 28.9859C18.5715 28.9859 21.0833 28.2241 23.2199 26.7968C25.3565 25.3695 27.022 23.3408 28.0059 20.9671C28.9897 18.5934 29.2477 15.9813 28.7473 13.461C28.2468 10.9407 27.0104 8.62535 25.1943 6.80762C22.7544 4.3734 19.4485 3.00635 16.002 3.00635C12.5554 3.00635 9.24954 4.3734 6.80958 6.80762V6.80762ZM19.2949 17.293C19.3877 17.2 19.498 17.1262 19.6193 17.0758C19.7407 17.0254 19.8708 16.9994 20.0022 16.9994C20.1336 16.9993 20.2637 17.0251 20.3851 17.0754C20.5065 17.1256 20.6168 17.1993 20.7097 17.2922C20.8027 17.3851 20.8763 17.4954 20.9266 17.6168C20.9768 17.7383 21.0027 17.8684 21.0026 17.9998C21.0025 18.1312 20.9766 18.2613 20.9262 18.3826C20.8758 18.504 20.802 18.6142 20.709 18.707L16.709 22.707C16.6162 22.7999 16.5059 22.8736 16.3846 22.9239C16.2633 22.9741 16.1333 23 16.002 23C15.8706 23 15.7406 22.9741 15.6193 22.9239C15.498 22.8736 15.3878 22.7999 15.2949 22.707L11.2949 18.707C11.1077 18.5194 11.0027 18.2652 11.0028 18.0002C11.003 17.7352 11.1083 17.4811 11.2957 17.2937C11.4831 17.1063 11.7372 17.001 12.0022 17.0009C12.2672 17.0007 12.5214 17.1058 12.709 17.293L16.002 20.5859L19.2949 17.293ZM19.2949 10.293C19.3877 10.2 19.498 10.1262 19.6193 10.0758C19.7407 10.0254 19.8708 9.99942 20.0022 9.99935C20.1336 9.99928 20.2637 10.0251 20.3851 10.0754C20.5065 10.1256 20.6168 10.1993 20.7097 10.2922C20.8027 10.3851 20.8763 10.4954 20.9266 10.6168C20.9768 10.7383 21.0027 10.8684 21.0026 10.9998C21.0025 11.1312 20.9766 11.2613 20.9262 11.3826C20.8758 11.504 20.802 11.6142 20.709 11.707L16.709 15.707C16.6162 15.7999 16.5059 15.8736 16.3846 15.9239C16.2633 15.9741 16.1333 16 16.002 16C15.8706 16 15.7406 15.9741 15.6193 15.9239C15.498 15.8736 15.3878 15.7999 15.2949 15.707L11.2949 11.707C11.1077 11.5194 11.0027 11.2652 11.0028 11.0002C11.003 10.7352 11.1083 10.4811 11.2957 10.2937C11.4831 10.1063 11.7372 10.001 12.0022 10.0009C12.2672 10.0007 12.5214 10.1058 12.709 10.293L16.002 13.5859L19.2949 10.293Z"/>
</svg>
