<svg viewBox="0 0 32 32" xmlns="http://www.w3.org/2000/svg">
<path d="M26.9239 11.6173C26.8482 11.4346 26.72 11.2784 26.5556 11.1685C26.3911 11.0586 26.1978 11 26 11H6C5.80222 11 5.60888 11.0586 5.44443 11.1685C5.27998 11.2784 5.1518 11.4346 5.07612 11.6173C5.00043 11.8001 4.98063 12.0011 5.01922 12.1951C5.05781 12.3891 5.15305 12.5673 5.29291 12.7071L15.2929 22.7071C15.3858 22.8 15.496 22.8736 15.6173 22.9239C15.7386 22.9741 15.8687 23 16 23C16.1313 23 16.2614 22.9741 16.3827 22.9239C16.504 22.8736 16.6142 22.8 16.7071 22.7071L26.7071 12.7071C26.847 12.5673 26.9422 12.3891 26.9808 12.1951C27.0194 12.0011 26.9996 11.8 26.9239 11.6173Z"/>
</svg>
