<svg   viewBox="0 0 32 32" fill="none" xmlns="http://www.w3.org/2000/svg">
<path d="M16 3C13.4288 3 10.9154 3.76244 8.77759 5.1909C6.63975 6.61935 4.97351 8.64968 3.98957 11.0251C3.00563 13.4006 2.74819 16.0144 3.2498 18.5362C3.75141 21.0579 4.98953 23.3743 6.80762 25.1924C8.6257 27.0105 10.9421 28.2486 13.4638 28.7502C15.9856 29.2518 18.5995 28.9944 20.9749 28.0104C23.3503 27.0265 25.3807 25.3603 26.8091 23.2224C28.2376 21.0846 29 18.5712 29 16C28.996 12.5534 27.6251 9.24912 25.188 6.81201C22.7509 4.3749 19.4466 3.00398 16 3V3ZM21.169 18.7432C21.0714 18.831 20.9574 18.8988 20.8337 18.9427C20.7099 18.9865 20.5787 19.0055 20.4475 18.9986C20.3164 18.9917 20.1879 18.9591 20.0694 18.9025C19.9509 18.8459 19.8447 18.7666 19.7568 18.6689L16 14.4951L12.2432 18.6689C12.0657 18.8659 11.8173 18.9843 11.5526 18.9982C11.2878 19.012 11.0284 18.9202 10.8314 18.7428C10.6344 18.5654 10.5158 18.3171 10.5018 18.0524C10.4879 17.7876 10.5796 17.5282 10.7568 17.3311L15.2568 12.3311C15.353 12.231 15.4684 12.1514 15.5961 12.097C15.7238 12.0427 15.8612 12.0146 16 12.0146C16.1388 12.0146 16.2762 12.0427 16.4039 12.097C16.5316 12.1514 16.647 12.231 16.7432 12.3311L21.2432 17.3311C21.4205 17.5282 21.5122 17.7877 21.4983 18.0525C21.4844 18.3172 21.3659 18.5657 21.169 18.7432V18.7432Z" fill="black"/>
</svg>
