<svg viewBox="0 0 32 32" xmlns="http://www.w3.org/2000/svg">
<path d="M25.3827 5.07613C25.2 5.00043 24.9989 4.98063 24.8049 5.01922C24.6109 5.05781 24.4328 5.15306 24.2929 5.29292L16 13.5858V6.00002C16 5.80223 15.9414 5.60889 15.8315 5.44444C15.7216 5.27999 15.5654 5.15182 15.3827 5.07613C15.2 5.00044 14.9989 4.98064 14.8049 5.01923C14.611 5.05782 14.4328 5.15307 14.2929 5.29292L4.29292 15.2929C4.20006 15.3858 4.12639 15.496 4.07613 15.6173C4.02587 15.7387 4 15.8687 4 16C4 16.1313 4.02587 16.2614 4.07613 16.3827C4.12639 16.504 4.20006 16.6143 4.29292 16.7071L14.2929 26.7071C14.4328 26.847 14.611 26.9422 14.8049 26.9808C14.9989 27.0194 15.2 26.9996 15.3827 26.9239C15.5654 26.8482 15.7216 26.72 15.8315 26.5556C15.9414 26.3911 16 26.1978 16 26V18.4142L24.2929 26.7071C24.4328 26.847 24.611 26.9422 24.8049 26.9808C24.9989 27.0194 25.2 26.9996 25.3827 26.9239C25.5654 26.8482 25.7216 26.72 25.8315 26.5556C25.9414 26.3911 26 26.1978 26 26V6.00002C26 5.80224 25.9414 5.6089 25.8315 5.44444C25.7216 5.27999 25.5654 5.15182 25.3827 5.07613V5.07613Z"/>
</svg>
