<svg   viewBox="0 0 32 32" fill="none" xmlns="http://www.w3.org/2000/svg">
<path d="M22.7071 15.2929L12.7071 5.29286C12.5672 5.15302 12.389 5.05779 12.1951 5.01921C12.0011 4.98063 11.8 5.00044 11.6173 5.07613C11.4346 5.15182 11.2784 5.28 11.1685 5.44445C11.0586 5.6089 11 5.80224 11 6.00002V26C11 26.1978 11.0587 26.3911 11.1685 26.5556C11.2784 26.72 11.4346 26.8482 11.6173 26.9239C11.8 26.9996 12.0011 27.0194 12.1951 26.9808C12.389 26.9422 12.5672 26.847 12.7071 26.7072L22.7071 16.7072C22.8 16.6143 22.8736 16.5041 22.9239 16.3827C22.9741 16.2614 23 16.1313 23 16C23 15.8687 22.9741 15.7386 22.9239 15.6173C22.8736 15.496 22.8 15.3857 22.7071 15.2929V15.2929Z" fill="black"/>
</svg>
