<svg   viewBox="0 0 32 32" fill="none" xmlns="http://www.w3.org/2000/svg">
<path d="M16 3C13.4288 3 10.9154 3.76244 8.77759 5.1909C6.63975 6.61935 4.97351 8.64968 3.98957 11.0251C3.00563 13.4006 2.74819 16.0144 3.2498 18.5362C3.75141 21.0579 4.98953 23.3743 6.80762 25.1924C8.6257 27.0105 10.9421 28.2486 13.4638 28.7502C15.9856 29.2518 18.5995 28.9944 20.9749 28.0104C23.3503 27.0265 25.3807 25.3603 26.8091 23.2224C28.2376 21.0846 29 18.5712 29 16C28.996 12.5534 27.6251 9.24912 25.188 6.81201C22.7509 4.3749 19.4466 3.00398 16 3V3ZM18.669 19.7568C18.7666 19.8447 18.846 19.9509 18.9026 20.0694C18.9592 20.1879 18.9919 20.3164 18.9989 20.4476C19.0058 20.5788 18.9868 20.71 18.943 20.8338C18.8992 20.9577 18.8314 21.0716 18.7435 21.1693C18.6557 21.2669 18.5494 21.3463 18.4309 21.4028C18.3123 21.4594 18.1838 21.492 18.0526 21.4989C17.9214 21.5057 17.7902 21.4867 17.6664 21.4428C17.5426 21.3989 17.4286 21.3311 17.3311 21.2432L12.3311 16.7432C12.2269 16.6494 12.1435 16.5348 12.0865 16.4068C12.0295 16.2788 12 16.1402 12 16C12 15.8598 12.0295 15.7212 12.0865 15.5932C12.1435 15.4652 12.2269 15.3506 12.3311 15.2568L17.3311 10.7568C17.4286 10.6689 17.5426 10.6011 17.6664 10.5572C17.7902 10.5133 17.9214 10.4943 18.0526 10.5011C18.1838 10.508 18.3123 10.5406 18.4309 10.5972C18.5494 10.6537 18.6557 10.7331 18.7435 10.8307C18.8314 10.9284 18.8992 11.0423 18.943 11.1662C18.9868 11.29 19.0058 11.4212 18.9989 11.5524C18.9919 11.6836 18.9592 11.8121 18.9026 11.9306C18.846 12.0491 18.7666 12.1553 18.669 12.2432L14.4951 16L18.669 19.7568Z" fill="black"/>
</svg>
