<svg viewBox="0 0 32 32" xmlns="http://www.w3.org/2000/svg">
<path d="M25.1943 25.1924C27.0104 23.3747 28.2468 21.0593 28.7473 18.539C29.2477 16.0187 28.9897 13.4066 28.0059 11.033C27.022 8.65927 25.3565 6.63055 23.2199 5.20326C21.0833 3.77596 18.5715 3.01416 16.002 3.01416C13.4325 3.01416 10.9206 3.77596 8.78402 5.20326C6.6474 6.63055 4.9819 8.65927 3.99806 11.033C3.01422 13.4066 2.75621 16.0187 3.25664 18.539C3.75708 21.0593 4.99349 23.3747 6.80958 25.1924C9.24954 27.6266 12.5554 28.9937 16.002 28.9937C19.4485 28.9937 22.7544 27.6266 25.1943 25.1924ZM12.709 14.7071C12.6162 14.8001 12.5059 14.8739 12.3846 14.9243C12.2632 14.9746 12.1331 15.0006 12.0017 15.0007C11.8703 15.0007 11.7402 14.9749 11.6188 14.9247C11.4974 14.8744 11.3871 14.8007 11.2942 14.7078C11.2013 14.6149 11.1276 14.5046 11.0773 14.3832C11.0271 14.2618 11.0012 14.1316 11.0013 14.0002C11.0014 13.8689 11.0274 13.7388 11.0777 13.6174C11.1281 13.496 11.2019 13.3858 11.2949 13.293L15.2949 9.293C15.3878 9.20012 15.498 9.12644 15.6193 9.07617C15.7406 9.0259 15.8706 9.00003 16.002 9.00003C16.1333 9.00003 16.2633 9.0259 16.3846 9.07617C16.5059 9.12644 16.6162 9.20012 16.709 9.293L20.709 13.293C20.8962 13.4806 21.0012 13.7348 21.0011 13.9998C21.001 14.2648 20.8956 14.5189 20.7082 14.7063C20.5209 14.8937 20.2667 14.999 20.0017 14.9992C19.7367 14.9993 19.4825 14.8942 19.2949 14.7071L16.002 11.4141L12.709 14.7071ZM12.709 21.7071C12.6162 21.8001 12.5059 21.8739 12.3846 21.9243C12.2632 21.9746 12.1331 22.0006 12.0017 22.0007C11.8703 22.0007 11.7402 21.9749 11.6188 21.9247C11.4974 21.8744 11.3871 21.8007 11.2942 21.7078C11.2013 21.6149 11.1276 21.5046 11.0773 21.3832C11.0271 21.2618 11.0012 21.1316 11.0013 21.0002C11.0014 20.8689 11.0274 20.7388 11.0777 20.6174C11.1281 20.496 11.2019 20.3858 11.2949 20.293L15.2949 16.293C15.3878 16.2001 15.498 16.1264 15.6193 16.0762C15.7406 16.0259 15.8706 16 16.002 16C16.1333 16 16.2633 16.0259 16.3846 16.0762C16.5059 16.1264 16.6162 16.2001 16.709 16.293L20.709 20.293C20.8962 20.4806 21.0012 20.7348 21.0011 20.9998C21.001 21.2648 20.8956 21.5189 20.7082 21.7063C20.5209 21.8937 20.2667 21.999 20.0017 21.9992C19.7367 21.9993 19.4825 21.8942 19.2949 21.7071L16.002 18.4141L12.709 21.7071Z"/>
</svg>
