<svg   viewBox="0 0 32 32" fill="none" xmlns="http://www.w3.org/2000/svg">
<path d="M29.593 25.4977C29.3323 25.9562 28.954 26.337 28.4973 26.6009C28.0405 26.8648 27.5217 27.0022 26.9942 26.999H19.9971V29C19.9971 29.1978 19.9384 29.3911 19.8285 29.5556C19.7186 29.7201 19.5624 29.8482 19.3797 29.9239C19.1969 29.9996 18.9958 30.0194 18.8019 29.9808C18.6079 29.9422 18.4297 29.8469 18.2898 29.707L15.2898 26.7061C15.1023 26.5185 14.9971 26.2641 14.9971 25.9989C14.9971 25.7336 15.1025 25.4793 15.2901 25.2918L18.2901 22.2927C18.4299 22.1529 18.6081 22.0577 18.8021 22.0192C18.9961 21.9806 19.1971 22.0004 19.3798 22.0761C19.5626 22.1518 19.7187 22.28 19.8286 22.4445C19.9384 22.6089 19.9971 22.8022 19.9971 23V24.999H26.9942C27.1698 24.999 27.3423 24.9527 27.4944 24.8649C27.6464 24.777 27.7727 24.6506 27.8604 24.4985C27.9481 24.3464 27.9942 24.1738 27.9941 23.9982C27.994 23.8226 27.9476 23.6501 27.8596 23.4981L24.8658 18.3258C24.7998 18.2121 24.7569 18.0866 24.7395 17.9563C24.7221 17.8261 24.7305 17.6937 24.7643 17.5667C24.7981 17.4397 24.8566 17.3206 24.9365 17.2162C25.0163 17.1118 25.116 17.0242 25.2297 16.9584C25.3434 16.8926 25.469 16.8498 25.5993 16.8325C25.7296 16.8153 25.862 16.8239 25.989 16.8578C26.1159 16.8917 26.2349 16.9504 26.3392 17.0303C26.4435 17.1103 26.531 17.21 26.5967 17.3239L29.5906 22.4961C29.8576 22.9511 29.9986 23.469 29.999 23.9966C29.9994 24.5241 29.8593 25.0423 29.593 25.4977V25.4977ZM10.9971 24.999H5.00003C4.82441 24.999 4.65189 24.9527 4.49983 24.8649C4.34777 24.777 4.22152 24.6506 4.1338 24.4985C4.04607 24.3464 3.99995 24.1738 4.00009 23.9982C4.00022 23.8226 4.04659 23.6501 4.13455 23.4981L7.62985 17.4594L9.3666 18.4622C9.53789 18.5611 9.73467 18.607 9.93206 18.5941C10.1294 18.5812 10.3186 18.51 10.4755 18.3895C10.6324 18.2691 10.7501 18.1048 10.8136 17.9175C10.8771 17.7302 10.8837 17.5282 10.8324 17.3372L9.73342 13.2385C9.69942 13.1117 9.64076 12.9928 9.5608 12.8886C9.48084 12.7845 9.38114 12.6971 9.2674 12.6314C9.15366 12.5658 9.0281 12.5232 8.8979 12.5061C8.7677 12.489 8.6354 12.4977 8.50857 12.5317L4.41141 13.6304C4.2204 13.6816 4.04886 13.7883 3.91849 13.937C3.78812 14.0857 3.70477 14.2697 3.67898 14.4658C3.65318 14.6618 3.68611 14.8612 3.77359 15.0385C3.86107 15.2159 3.99917 15.3633 4.17044 15.4622L5.89773 16.4594L2.4036 22.4961C2.13964 22.9521 2.00044 23.4696 2 23.9965C1.99956 24.5234 2.1379 25.0411 2.40109 25.4976C2.66429 25.954 3.04306 26.3331 3.4993 26.5967C3.95553 26.8603 4.47314 26.999 5.00004 26.999H10.9971C11.2623 26.999 11.5167 26.8937 11.7042 26.7061C11.8917 26.5186 11.9971 26.2642 11.9971 25.999C11.9971 25.7338 11.8917 25.4795 11.7042 25.2919C11.5167 25.1044 11.2623 24.999 10.9971 24.999ZM15.9971 4C16.1728 3.99821 16.3458 4.04356 16.498 4.13133C16.6502 4.21909 16.7761 4.34607 16.8626 4.49903L20.3568 10.5357L18.6293 11.5331C18.458 11.632 18.3199 11.7794 18.2324 11.9568C18.145 12.1342 18.112 12.3335 18.1379 12.5296C18.1637 12.7257 18.247 12.9097 18.3774 13.0584C18.5078 13.2071 18.6794 13.3138 18.8704 13.365L22.9677 14.4635C23.0945 14.4976 23.2269 14.5064 23.3571 14.4893C23.4874 14.4723 23.613 14.4297 23.7267 14.364C23.8405 14.2983 23.9402 14.2109 24.0201 14.1066C24.1001 14.0024 24.1586 13.8834 24.1925 13.7565L25.2914 9.65796C25.3426 9.46692 25.336 9.26498 25.2724 9.07768C25.2089 8.89039 25.0912 8.72615 24.9343 8.60575C24.7773 8.48534 24.5883 8.41417 24.3909 8.40124C24.1935 8.3883 23.9968 8.43419 23.8255 8.53309L22.0888 9.53571L18.5935 3.49707C18.33 3.04181 17.9514 2.66384 17.4957 2.40108C17.0399 2.13832 16.5231 2 15.9971 2C15.4711 2 14.9543 2.13832 14.4985 2.40108C14.0428 2.66384 13.6642 3.04181 13.4007 3.49707L10.4069 8.66932C10.274 8.89886 10.2378 9.17177 10.3061 9.42804C10.3745 9.6843 10.5419 9.90291 10.7714 10.0358C11.0009 10.1686 11.2739 10.2049 11.5301 10.1365C11.7864 10.0682 12.005 9.90081 12.1378 9.67127L15.1316 4.49903C15.2181 4.34607 15.344 4.21909 15.4962 4.13133C15.6484 4.04356 15.8214 3.99821 15.9971 4Z" fill="black"/>
</svg>
