<svg   viewBox="0 0 24 24" fill="none" xmlns="http://www.w3.org/2000/svg">
<path d="M18.9538 2.04511C19.2467 2.338 19.2467 2.81288 18.9538 3.10577L18.4033 3.65622C21.6924 7.4873 21.5223 13.2652 17.8931 16.8944C16.1802 18.6073 13.9885 19.5496 11.7488 19.7214V21.2501H13.4988C13.9131 21.2501 14.2488 21.5858 14.2488 22.0001C14.2488 22.4143 13.9131 22.7501 13.4988 22.7501H8.49884C8.08463 22.7501 7.74884 22.4143 7.74884 22.0001C7.74884 21.5858 8.08463 21.2501 8.49884 21.2501H10.2488V19.7213C8.24257 19.5674 6.27478 18.7952 4.655 17.4046L4.10455 17.955C3.81166 18.2479 3.33678 18.2479 3.04389 17.955C2.751 17.6621 2.751 17.1872 3.04389 16.8944L3.751 16.1872C4.24643 15.6918 5.0163 15.7171 5.49862 16.1494C7.06058 17.5492 9.02806 18.2494 10.9958 18.2501L10.9988 18.2501L11.0021 18.2501C13.1124 18.2492 15.2224 17.4437 16.8325 15.8337C19.9454 12.7208 20.0506 7.73859 17.1482 4.49983C16.7159 4.01752 16.6906 3.24765 17.186 2.75222L17.8931 2.04511C18.186 1.75222 18.6609 1.75222 18.9538 2.04511Z" fill="black"/>
<path fill-rule="evenodd" clip-rule="evenodd" d="M4.24884 10.0001C4.24884 6.27214 7.27092 3.25006 10.9988 3.25006C14.7268 3.25006 17.7488 6.27214 17.7488 10.0001C17.7488 13.728 14.7268 16.7501 10.9988 16.7501C7.27092 16.7501 4.24884 13.728 4.24884 10.0001ZM10.9988 4.75006C8.09935 4.75006 5.74884 7.10057 5.74884 10.0001C5.74884 10.3349 5.78019 10.6624 5.8401 10.9798C6.25142 10.5313 6.84229 10.2501 7.49884 10.2501C8.74148 10.2501 9.74884 11.2574 9.74884 12.5001C9.74884 13.4224 9.19385 14.2151 8.3996 14.5625C9.16596 15 10.0532 15.2501 10.9988 15.2501C13.5422 15.2501 15.6632 13.4415 16.1458 11.0403C15.4772 12.0694 14.3175 12.7501 12.9988 12.7501C10.9278 12.7501 9.24884 11.0711 9.24884 9.00006C9.24884 6.92899 10.9278 5.25006 12.9988 5.25006C13.0853 5.25006 13.1711 5.25299 13.2561 5.25875C12.5723 4.93262 11.8069 4.75006 10.9988 4.75006ZM10.7488 9.00006C10.7488 7.75742 11.7562 6.75006 12.9988 6.75006C14.2415 6.75006 15.2488 7.75742 15.2488 9.00006C15.2488 10.2427 14.2415 11.2501 12.9988 11.2501C11.7562 11.2501 10.7488 10.2427 10.7488 9.00006ZM7.49884 11.7501C7.08463 11.7501 6.74884 12.0858 6.74884 12.5001C6.74884 12.9143 7.08463 13.2501 7.49884 13.2501C7.91305 13.2501 8.24884 12.9143 8.24884 12.5001C8.24884 12.0858 7.91305 11.7501 7.49884 11.7501Z" fill="black"/>
</svg>
