<svg   viewBox="0 0 24 24" fill="none" xmlns="http://www.w3.org/2000/svg">
<path fill-rule="evenodd" clip-rule="evenodd" d="M3.52244 8.85685C3.87676 4.55824 7.46891 1.25 11.7821 1.25H12.214C16.5272 1.25 20.1194 4.55824 20.4737 8.85685C20.664 11.166 19.9508 13.4589 18.4841 15.2526L13.691 21.1144C12.816 22.1845 11.1801 22.1845 10.3051 21.1144L5.51204 15.2526C4.04538 13.4589 3.3321 11.166 3.52244 8.85685ZM11.7821 2.75C8.24957 2.75 5.30756 5.45948 5.01737 8.98008C4.85895 10.9019 5.4526 12.8102 6.67326 14.3031L11.4663 20.1649C11.7411 20.501 12.255 20.501 12.5298 20.1649L17.3229 14.3031C18.5436 12.8102 19.1372 10.9019 18.9788 8.98008C18.6886 5.45948 15.7466 2.75 12.214 2.75H11.7821Z" fill="black"/>
<path d="M12.9981 16C12.9981 16.5523 12.5504 17 11.9981 17C11.4458 17 10.9981 16.5523 10.9981 16C10.9981 15.4477 11.4458 15 11.9981 15C12.5504 15 12.9981 15.4477 12.9981 16Z" fill="black"/>
<path fill-rule="evenodd" clip-rule="evenodd" d="M11.9981 7.75C11.0513 7.75 10.2481 8.54542 10.2481 9.57143C10.2481 9.98564 9.91229 10.3214 9.49807 10.3214C9.08386 10.3214 8.74807 9.98564 8.74807 9.57143C8.74807 7.75711 10.1834 6.25 11.9981 6.25C13.8128 6.25 15.2481 7.75711 15.2481 9.57143C15.2481 11.0024 14.3598 12.2348 13.0961 12.6983C12.9716 12.744 12.8704 12.8138 12.8093 12.8818C12.7521 12.9455 12.7481 12.9844 12.7481 13C12.7481 13.4142 12.4123 13.75 11.9981 13.75C11.5839 13.75 11.2481 13.4142 11.2481 13C11.2481 12.0764 11.9915 11.5057 12.5796 11.29C13.2511 11.0438 13.7481 10.3747 13.7481 9.57143C13.7481 8.54542 12.9448 7.75 11.9981 7.75Z" fill="black"/>
</svg>
