<svg   viewBox="0 0 24 24" fill="none" xmlns="http://www.w3.org/2000/svg">
<path fill-rule="evenodd" clip-rule="evenodd" d="M15.5284 7.46967C15.8213 7.76256 15.8213 8.23744 15.5284 8.53033L12.0284 12.0303C11.7355 12.3232 11.2606 12.3232 10.9677 12.0303L8.96774 10.0303C8.67485 9.73744 8.67485 9.26256 8.96774 8.96967C9.26064 8.67678 9.73551 8.67678 10.0284 8.96967L11.4981 10.4393L14.4677 7.46967C14.7606 7.17678 15.2355 7.17678 15.5284 7.46967Z" fill="black"/>
<path fill-rule="evenodd" clip-rule="evenodd" d="M3.52244 8.85685C3.87676 4.55824 7.46891 1.25 11.7821 1.25H12.214C16.5272 1.25 20.1194 4.55824 20.4737 8.85685C20.664 11.166 19.9508 13.4589 18.4841 15.2526L13.691 21.1144C12.816 22.1845 11.1801 22.1845 10.3051 21.1144L5.51204 15.2526C4.04538 13.4589 3.3321 11.166 3.52244 8.85685ZM11.7821 2.75C8.24957 2.75 5.30756 5.45948 5.01737 8.98008C4.85895 10.9019 5.4526 12.8102 6.67326 14.3031L11.4663 20.1649C11.7411 20.501 12.255 20.501 12.5298 20.1649L17.3229 14.3031C18.5436 12.8102 19.1372 10.9019 18.9788 8.98008C18.6886 5.45948 15.7466 2.75 12.214 2.75H11.7821Z" fill="black"/>
</svg>
