<svg viewBox="0 0 24 24" xmlns="http://www.w3.org/2000/svg">
<path d="M11.9981 6.25C12.4123 6.25 12.7481 6.58579 12.7481 7V9.00002H14.7481C15.1623 9.00002 15.4981 9.33581 15.4981 9.75002C15.4981 10.1642 15.1623 10.5 14.7481 10.5H12.7481V12.5C12.7481 12.9142 12.4123 13.25 11.9981 13.25C11.5839 13.25 11.2481 12.9142 11.2481 12.5V10.5H9.24807C8.83386 10.5 8.49807 10.1642 8.49807 9.75002C8.49807 9.33581 8.83386 9.00002 9.24807 9.00002H11.2481V7C11.2481 6.58579 11.5839 6.25 11.9981 6.25Z"/>
<path fill-rule="evenodd" clip-rule="evenodd" d="M11.7821 1.25C7.46891 1.25 3.87676 4.55824 3.52244 8.85685C3.3321 11.166 4.04538 13.4589 5.51204 15.2526L10.3051 21.1144C11.1801 22.1845 12.816 22.1845 13.691 21.1144L18.4841 15.2526C19.9508 13.4589 20.664 11.166 20.4737 8.85685C20.1194 4.55824 16.5272 1.25 12.214 1.25H11.7821ZM5.01737 8.98008C5.30756 5.45948 8.24956 2.75 11.7821 2.75H12.214C15.7466 2.75 18.6886 5.45948 18.9788 8.98008C19.1372 10.9019 18.5436 12.8102 17.3229 14.3031L12.5298 20.1649C12.255 20.501 11.7412 20.501 11.4663 20.1649L6.67326 14.3031C5.4526 12.8102 4.85895 10.9019 5.01737 8.98008Z"/>
</svg>
