<svg   viewBox="0 0 24 24" fill="none" xmlns="http://www.w3.org/2000/svg">
<path fill-rule="evenodd" clip-rule="evenodd" d="M7.24807 10C7.24807 7.37665 9.37472 5.25 11.9981 5.25C14.6214 5.25 16.7481 7.37665 16.7481 10C16.7481 12.6234 14.6214 14.75 11.9981 14.75C9.37472 14.75 7.24807 12.6234 7.24807 10ZM11.9981 6.75C10.2031 6.75 8.74807 8.20507 8.74807 10C8.74807 11.7949 10.2031 13.25 11.9981 13.25C13.793 13.25 15.2481 11.7949 15.2481 10C15.2481 8.20507 13.793 6.75 11.9981 6.75Z" fill="black"/>
<path fill-rule="evenodd" clip-rule="evenodd" d="M3.52244 8.85685C3.87676 4.55824 7.46891 1.25 11.7821 1.25H12.214C16.5272 1.25 20.1194 4.55824 20.4737 8.85685C20.664 11.166 19.9508 13.4589 18.4841 15.2526L13.691 21.1144C12.816 22.1845 11.1801 22.1845 10.3051 21.1144L5.51204 15.2526C4.04538 13.4589 3.3321 11.166 3.52244 8.85685ZM11.7821 2.75C8.24957 2.75 5.30756 5.45948 5.01737 8.98008C4.85895 10.9019 5.4526 12.8102 6.67326 14.3031L11.4663 20.1649C11.7411 20.501 12.255 20.501 12.5298 20.1649L17.3229 14.3031C18.5436 12.8102 19.1372 10.9019 18.9788 8.98008C18.6886 5.45948 15.7466 2.75 12.214 2.75H11.7821Z" fill="black"/>
</svg>
