<svg viewBox="0 0 24 24" xmlns="http://www.w3.org/2000/svg">
<path fill-rule="evenodd" clip-rule="evenodd" d="M11.764 3.25011C12.2232 3.25576 12.7537 3.47285 13.0399 3.98431L13.2141 4.29565C15.8723 9.04584 18.0392 13.9835 19.688 19.049C19.9057 19.7181 19.5469 20.2857 19.0987 20.5487C18.6602 20.806 18.0571 20.8404 17.5464 20.512L12.819 17.4719C12.2965 17.1359 11.5874 17.135 11.098 17.4441L6.46654 20.3691C5.94452 20.6988 5.33878 20.6351 4.91351 20.3799C4.48639 20.1236 4.10506 19.5712 4.30443 18.8969C5.79147 13.8676 7.80143 8.97844 10.3095 4.28867L10.4737 3.98149C10.758 3.44998 11.3059 3.24448 11.764 3.25011ZM11.7568 4.76304L11.6322 4.99605C9.22692 9.49368 7.28961 14.1762 5.84211 18.9894L10.2971 16.1759C11.2958 15.5451 12.6338 15.5694 13.6303 16.2102L18.1264 19.1016C16.5259 14.2751 14.4445 9.56596 11.9051 5.02815L11.7568 4.76304Z"/>
</svg>
