<svg viewBox="0 0 32 32" xmlns="http://www.w3.org/2000/svg">
<path d="M10 17H22" stroke-width="2" stroke-linecap="round" stroke-linejoin="round"/>
<path d="M6 12V9C6 7.93913 6.42143 6.92172 7.17157 6.17157C7.92172 5.42143 8.93913 5 10 5H22C23.0609 5 24.0783 5.42143 24.8284 6.17157C25.5786 6.92172 26 7.93913 26 9V12" stroke-width="2" stroke-linecap="round" stroke-linejoin="round"/>
<path d="M10 21V16C10 15.2089 9.76541 14.4355 9.32588 13.7777C8.88635 13.1199 8.26164 12.6072 7.53074 12.3045C6.79983 12.0017 5.99556 11.9225 5.21964 12.0769C4.44372 12.2312 3.73098 12.6122 3.17157 13.1716C2.61216 13.731 2.2312 14.4437 2.07686 15.2196C1.92252 15.9956 2.00173 16.7998 2.30448 17.5307C2.60723 18.2616 3.11992 18.8864 3.77772 19.3259C4.43552 19.7654 5.20888 20 6 20V25C6 25.2652 6.10536 25.5196 6.2929 25.7071C6.48043 25.8946 6.73479 26 7 26H25C25.2652 26 25.5196 25.8946 25.7071 25.7071C25.8946 25.5196 26 25.2652 26 25V20C26.7911 20 27.5645 19.7654 28.2223 19.3259C28.8801 18.8864 29.3928 18.2616 29.6955 17.5307C29.9983 16.7998 30.0775 15.9956 29.9231 15.2196C29.7688 14.4437 29.3878 13.731 28.8284 13.1716C28.269 12.6122 27.5563 12.2312 26.7804 12.0769C26.0044 11.9225 25.2002 12.0017 24.4693 12.3045C23.7384 12.6072 23.1136 13.1199 22.6741 13.7777C22.2346 14.4355 22 15.2089 22 16V21" stroke-width="2" stroke-linecap="round" stroke-linejoin="round"/>
</svg>
