<svg   viewBox="0 0 32 32" fill="none" xmlns="http://www.w3.org/2000/svg">
<path d="M16 11V8" stroke="black" stroke-width="2" stroke-linecap="round" stroke-linejoin="round"/>
<path d="M16.0026 8C21.7804 6 16.0026 1 16.0026 1C16.0026 1 10.0026 6 16.0026 8Z" stroke="black" stroke-width="2" stroke-linecap="round" stroke-linejoin="round"/>
<path d="M20.25 15.75C20.25 16.8772 19.8022 17.9582 19.0052 18.7552C18.2082 19.5522 17.1272 20 16 20C14.8728 20 13.7918 19.5522 12.9948 18.7552C12.1978 17.9582 11.75 16.8772 11.75 15.75" stroke="black" stroke-width="2" stroke-linecap="round" stroke-linejoin="round"/>
<path d="M11.75 15.75C11.75 16.8628 11.3135 17.9312 10.5344 18.7258C9.75519 19.5203 8.69548 19.9775 7.58287 19.9992C5.20024 20.0448 3.25 18.0491 3.25 15.6661V14C3.25 13.2044 3.56607 12.4413 4.12868 11.8787C4.69129 11.3161 5.45435 11 6.25 11H25.75C26.5456 11 27.3087 11.3161 27.8713 11.8787C28.4339 12.4413 28.75 13.2044 28.75 14V15.6661C28.75 18.0491 26.7998 20.0448 24.4171 19.9992C23.3045 19.9775 22.2448 19.5203 21.4656 18.7258C20.6865 17.9312 20.25 16.8628 20.25 15.75" stroke="black" stroke-width="2" stroke-linecap="round" stroke-linejoin="round"/>
<path d="M27 19.1587V26C27 26.2652 26.8946 26.5196 26.7071 26.7071C26.5196 26.8946 26.2652 27 26 27H6C5.73478 27 5.48043 26.8946 5.29289 26.7071C5.10536 26.5196 5 26.2652 5 26V19.1587" stroke="black" stroke-width="2" stroke-linecap="round" stroke-linejoin="round"/>
</svg>
