<svg   viewBox="0 0 32 32" fill="none" xmlns="http://www.w3.org/2000/svg">
<path d="M27.9995 15.9265C28.0114 17.5168 27.7061 19.0935 27.1014 20.5644C26.4968 22.0353 25.6048 23.3708 24.4779 24.4929C19.8597 29.103 12.3146 29.1548 7.63668 24.6054C5.91979 22.9368 4.74125 20.7929 4.25261 18.4492C3.76396 16.1055 3.98755 13.6692 4.89463 11.4536C5.80171 9.23803 7.3508 7.34442 9.34271 6.01628C11.3346 4.68813 13.6783 3.98619 16.0723 4.00071C16.2222 4.00101 16.3702 4.03497 16.5053 4.10007C16.6403 4.16518 16.759 4.25977 16.8527 4.37687C16.9463 4.49397 17.0124 4.63059 17.0462 4.77667C17.08 4.92274 17.0806 5.07454 17.0479 5.22086C16.9167 5.8025 16.9172 6.40611 17.0494 6.98752C17.1816 7.56893 17.4422 8.11342 17.812 8.58113C18.1818 9.04885 18.6515 9.42796 19.1867 9.69072C19.722 9.95347 20.3092 10.0932 20.9054 10.0997C21.1686 10.1019 21.4205 10.2075 21.6066 10.3936C21.7928 10.5798 21.8983 10.8316 21.9005 11.0948C21.907 11.6911 22.0468 12.2783 22.3095 12.8135C22.5723 13.3487 22.9514 13.8184 23.4191 14.1882C23.8868 14.558 24.4313 14.8186 25.0126 14.9508C25.594 15.083 26.1977 15.0835 26.7793 14.9523C26.9255 14.9196 27.0772 14.9201 27.2232 14.9538C27.3692 14.9875 27.5058 15.0535 27.6229 15.147C27.74 15.2404 27.8346 15.359 27.8998 15.4939C27.965 15.6288 27.999 15.7766 27.9995 15.9265V15.9265Z" stroke="black" stroke-width="2" stroke-linecap="round" stroke-linejoin="round"/>
<path d="M19.5 23C20.3284 23 21 22.3284 21 21.5C21 20.6716 20.3284 20 19.5 20C18.6716 20 18 20.6716 18 21.5C18 22.3284 18.6716 23 19.5 23Z" fill="black"/>
<path d="M11.5 22C12.3284 22 13 21.3284 13 20.5C13 19.6716 12.3284 19 11.5 19C10.6716 19 10 19.6716 10 20.5C10 21.3284 10.6716 22 11.5 22Z" fill="black"/>
<path d="M10.5 15C11.3284 15 12 14.3284 12 13.5C12 12.6716 11.3284 12 10.5 12C9.67157 12 9 12.6716 9 13.5C9 14.3284 9.67157 15 10.5 15Z" fill="black"/>
<path d="M17 17C17.8284 17 18.5 16.3284 18.5 15.5C18.5 14.6716 17.8284 14 17 14C16.1716 14 15.5 14.6716 15.5 15.5C15.5 16.3284 16.1716 17 17 17Z" fill="black"/>
</svg>
