<svg viewBox="0 0 32 32" xmlns="http://www.w3.org/2000/svg">
<path d="M16 3V29" stroke-width="2" stroke-linecap="round" stroke-linejoin="round"/>
<path d="M23 11C23 10.3434 22.8707 9.69321 22.6194 9.08658C22.3681 8.47996 21.9998 7.92876 21.5355 7.46447C21.0712 7.00017 20.52 6.63188 19.9134 6.3806C19.3068 6.12933 18.6566 6 18 6H13.5C12.1739 6 10.9021 6.52678 9.96447 7.46447C9.02678 8.40215 8.5 9.67392 8.5 11C8.5 12.3261 9.02678 13.5979 9.96447 14.5355C10.9021 15.4732 12.1739 16 13.5 16H19C20.3261 16 21.5979 16.5268 22.5355 17.4645C23.4732 18.4021 24 19.6739 24 21C24 22.3261 23.4732 23.5979 22.5355 24.5355C21.5979 25.4732 20.3261 26 19 26H13C11.6739 26 10.4021 25.4732 9.46447 24.5355C8.52678 23.5979 8 22.3261 8 21" stroke-width="2" stroke-linecap="round" stroke-linejoin="round"/>
</svg>
