<svg viewBox="0 0 32 32" xmlns="http://www.w3.org/2000/svg">
<path d="M26.1049 9H5.89497C5.64887 9 5.41142 9.09075 5.22804 9.25487C5.04467 9.419 4.92826 9.64498 4.90108 9.88957L3.1233 25.8896C3.10777 26.0293 3.1219 26.1708 3.16476 26.3048C3.20763 26.4387 3.27826 26.5621 3.37206 26.6669C3.46586 26.7717 3.5807 26.8555 3.7091 26.9129C3.83749 26.9703 3.97655 27 4.11719 27H27.8827C28.0233 27 28.1624 26.9703 28.2907 26.9129C28.4191 26.8555 28.534 26.7717 28.6278 26.6669C28.7216 26.5621 28.7922 26.4387 28.8351 26.3048C28.8779 26.1708 28.8921 26.0293 28.8765 25.8896L27.0988 9.88957C27.0716 9.64498 26.9552 9.419 26.7718 9.25487C26.5884 9.09075 26.351 9 26.1049 9Z" stroke-width="2" stroke-linecap="round" stroke-linejoin="round"/>
<path d="M11 9C11 7.67392 11.5268 6.40215 12.4645 5.46447C13.4021 4.52678 14.6739 4 16 4C17.3261 4 18.5979 4.52678 19.5355 5.46447C20.4732 6.40215 21 7.67392 21 9" stroke-width="2" stroke-linecap="round" stroke-linejoin="round"/>
</svg>
