<svg   viewBox="0 0 32 32" fill="none" xmlns="http://www.w3.org/2000/svg">
<path d="M18.3113 11.3113L25 18C25 18 16 30 3 27L24.7322 4.73221C24.9644 4.49995 25.24 4.31569 25.5433 4.18997C25.8466 4.06424 26.1718 3.9995 26.5002 3.99945C26.8285 3.9994 27.1537 4.06404 27.4571 4.18968C27.7604 4.31532 28.0361 4.49949 28.2683 4.73168C28.5005 4.96387 28.6847 5.23953 28.8103 5.54291C28.9359 5.84629 29.0006 6.17145 29.0005 6.49982C29.0005 6.82819 28.9357 7.15333 28.81 7.45667C28.6843 7.76002 28.5 8.03562 28.2678 8.26774L21.972 14.9734" stroke="black" stroke-width="2" stroke-linecap="round" stroke-linejoin="round"/>
</svg>
