<svg viewBox="0 0 32 32" xmlns="http://www.w3.org/2000/svg">
<path d="M8.65848 5H23.3397C23.5354 5 23.7268 5.05743 23.8902 5.16516C24.0536 5.27289 24.1817 5.4262 24.2588 5.60608L29.4017 17.6061C29.4669 17.7582 29.4933 17.9241 29.4786 18.0889C29.4639 18.2537 29.4085 18.4123 29.3174 18.5505C29.2263 18.6886 29.1023 18.802 28.9566 18.8805C28.8109 18.9589 28.648 19 28.4825 19H3.51562C3.35014 19 3.18725 18.9589 3.04154 18.8805C2.89584 18.802 2.77188 18.6886 2.68078 18.5505C2.58969 18.4123 2.5343 18.2537 2.51959 18.0889C2.50487 17.9241 2.53129 17.7582 2.59648 17.6061L7.73934 5.60608C7.81643 5.4262 7.94461 5.27289 8.10799 5.16516C8.27137 5.05743 8.46278 5 8.65848 5V5Z" stroke-width="2" stroke-linecap="round" stroke-linejoin="round"/>
<path d="M16 19V27" stroke-width="2" stroke-linecap="round" stroke-linejoin="round"/>
<path d="M12 27H20" stroke-width="2" stroke-linecap="round" stroke-linejoin="round"/>
<path d="M25 19V24" stroke-width="2" stroke-linecap="round" stroke-linejoin="round"/>
</svg>
