<svg   viewBox="0 0 32 32" fill="none" xmlns="http://www.w3.org/2000/svg">
<path d="M28 22.1651V9.83484C28 9.6574 27.9528 9.48316 27.8632 9.32999C27.7736 9.17683 27.6449 9.05025 27.4903 8.96326L16.4903 2.77576C16.3406 2.69157 16.1717 2.64734 16 2.64734C15.8283 2.64734 15.6594 2.69157 15.5097 2.77576L4.50974 8.96326C4.35509 9.05025 4.22637 9.17683 4.13679 9.32999C4.04721 9.48316 4 9.6574 4 9.83484V22.1651C4 22.3426 4.04721 22.5168 4.13679 22.67C4.22637 22.8232 4.35509 22.9497 4.50974 23.0367L15.5097 29.2242C15.6594 29.3084 15.8283 29.3526 16 29.3526C16.1717 29.3526 16.3406 29.3084 16.4903 29.2242L27.4903 23.0367C27.6449 22.9497 27.7736 22.8232 27.8632 22.67C27.9528 22.5168 28 22.3426 28 22.1651Z" stroke="black" stroke-width="2" stroke-linecap="round" stroke-linejoin="round"/>
<path d="M22.1278 19.0639V12.5639L10 5.875" stroke="black" stroke-width="2" stroke-linecap="round" stroke-linejoin="round"/>
<path d="M27.8643 9.32837L16.1208 16L4.14062 9.32712" stroke="black" stroke-width="2" stroke-linecap="round" stroke-linejoin="round"/>
<path d="M16.1173 16L16 29.3527" stroke="black" stroke-width="2" stroke-linecap="round" stroke-linejoin="round"/>
</svg>
