<svg   viewBox="0 0 32 32" fill="none" xmlns="http://www.w3.org/2000/svg">
<path d="M2.92893 9.46155C2.79163 9.24458 2.74274 8.98322 2.79233 8.73129C2.84193 8.47936 2.98623 8.25603 3.19554 8.1073C6.93037 5.43614 11.4071 4 15.9989 4C20.5906 4 25.0674 5.43614 28.8022 8.1073C29.0115 8.25603 29.1558 8.47936 29.2054 8.73129C29.255 8.98322 29.2061 9.24458 29.0688 9.46155L16.8425 28.6742C16.7522 28.8162 16.6275 28.933 16.4801 29.014C16.3326 29.0949 16.1671 29.1374 15.9989 29.1374C15.8306 29.1374 15.6651 29.0949 15.5177 29.014C15.3702 28.933 15.2455 28.8162 15.1552 28.6742L2.92893 9.46155Z" stroke="black" stroke-width="2" stroke-linecap="round" stroke-linejoin="round"/>
<path d="M4.59375 12.075C7.81117 9.4399 11.8417 8 16.0005 8C20.1594 8 24.1899 9.4399 27.4073 12.075" stroke="black" stroke-width="2" stroke-linecap="round" stroke-linejoin="round"/>
<path d="M20.5403 22.8666C20.0162 22.7171 19.5343 22.4474 19.133 22.0788C18.7316 21.7103 18.4218 21.2531 18.2282 20.7437C18.0347 20.2343 17.9627 19.6868 18.0181 19.1447C18.0735 18.6026 18.2547 18.0809 18.5472 17.6212C18.8398 17.1614 19.2356 16.7764 19.7033 16.4966C20.1709 16.2168 20.6974 16.0501 21.2408 16.0096C21.7842 15.9692 22.3295 16.0562 22.8334 16.2637C23.3373 16.4712 23.7857 16.7935 24.1431 17.2049" stroke="black" stroke-width="2" stroke-linecap="round" stroke-linejoin="round"/>
<path d="M7.23438 16.2303C7.46538 15.6366 7.85404 15.1172 8.35846 14.7281C8.86289 14.3389 9.46395 14.0948 10.0969 14.0221C10.7298 13.9493 11.3705 14.0507 11.9501 14.3152C12.5297 14.5798 13.026 14.9975 13.3857 15.5233C13.7454 16.0491 13.9548 16.6632 13.9912 17.2992C14.0277 17.9352 13.8899 18.5692 13.5927 19.1327C13.2955 19.6962 12.8501 20.1679 12.3046 20.4969C11.759 20.826 11.1341 20.9999 10.497 21C10.4208 21 10.3452 20.9976 10.2702 20.9928" stroke="black" stroke-width="2" stroke-linecap="round" stroke-linejoin="round"/>
</svg>
