<svg viewBox="0 0 32 32" xmlns="http://www.w3.org/2000/svg">
<path d="M10 29C11.1046 29 12 28.1046 12 27C12 25.8954 11.1046 25 10 25C8.89543 25 8 25.8954 8 27C8 28.1046 8.89543 29 10 29Z"/>
<path d="M23 29C24.1046 29 25 28.1046 25 27C25 25.8954 24.1046 25 23 25C21.8954 25 21 25.8954 21 27C21 28.1046 21.8954 29 23 29Z"/>
<path d="M5.28572 9H27.7143L24.4144 20.5494C24.295 20.9673 24.0428 21.335 23.6958 21.5967C23.3488 21.8584 22.926 22 22.4914 22H10.5086C10.074 22 9.65119 21.8584 9.30421 21.5967C8.95723 21.335 8.70495 20.9673 8.58556 20.5494L4.06436 4.72528C4.00467 4.51633 3.87853 4.33251 3.70504 4.20165C3.53155 4.07079 3.32015 4 3.10284 4H1" stroke-width="2" stroke-linecap="round" stroke-linejoin="round"/>
</svg>
