<svg viewBox="0 0 32 32" xmlns="http://www.w3.org/2000/svg">
<path d="M7.5 30C8.32843 30 9 29.3284 9 28.5C9 27.6716 8.32843 27 7.5 27C6.67157 27 6 27.6716 6 28.5C6 29.3284 6.67157 30 7.5 30Z"/>
<path d="M11 26.5C11.8284 26.5 12.5 25.8284 12.5 25C12.5 24.1716 11.8284 23.5 11 23.5C10.1716 23.5 9.5 24.1716 9.5 25C9.5 25.8284 10.1716 26.5 11 26.5Z"/>
<path d="M3.5 26C4.32843 26 5 25.3284 5 24.5C5 23.6716 4.32843 23 3.5 23C2.67157 23 2 23.6716 2 24.5C2 25.3284 2.67157 26 3.5 26Z"/>
<path d="M7 22.5C7.82843 22.5 8.5 21.8284 8.5 21C8.5 20.1716 7.82843 19.5 7 19.5C6.17157 19.5 5.5 20.1716 5.5 21C5.5 21.8284 6.17157 22.5 7 22.5Z"/>
<path d="M30.997 5H27.4112C27.2799 5 27.1498 5.02587 27.0285 5.07612C26.9072 5.12638 26.7969 5.20004 26.7041 5.29289L22.997 9L6.91373 11.6805C6.73249 11.7107 6.56308 11.7903 6.42409 11.9105C6.2851 12.0306 6.1819 12.1868 6.12583 12.3618C6.06976 12.5367 6.06298 12.7238 6.10623 12.9023C6.14948 13.0809 6.2411 13.2441 6.37102 13.374L18.6229 25.626C18.7529 25.7559 18.9161 25.8475 19.0946 25.8907C19.2732 25.934 19.4602 25.9272 19.6352 25.8711C19.8102 25.8151 19.9663 25.7119 20.0865 25.5729C20.2067 25.4339 20.2862 25.2645 20.3164 25.0832L22.997 9" stroke-width="2" stroke-linecap="round" stroke-linejoin="round"/>
</svg>
