<svg viewBox="0 0 32 32" xmlns="http://www.w3.org/2000/svg">
<path d="M15.3363 3.2349L5.25453 5.25127L3.23817 15.3331C3.20588 15.4945 3.21395 15.6614 3.26166 15.819C3.30937 15.9765 3.39523 16.1199 3.51164 16.2363L16.5682 29.2929C16.6611 29.3858 16.7713 29.4594 16.8927 29.5097C17.014 29.5599 17.144 29.5858 17.2753 29.5858C17.4067 29.5858 17.5367 29.5599 17.658 29.5097C17.7794 29.4594 17.8896 29.3858 17.9825 29.2929L29.2962 17.9792C29.389 17.8863 29.4627 17.7761 29.5129 17.6548C29.5632 17.5334 29.5891 17.4034 29.5891 17.2721C29.5891 17.1408 29.5632 17.0107 29.5129 16.8894C29.4627 16.7681 29.389 16.6578 29.2962 16.565L16.2396 3.50838C16.1232 3.39197 15.9798 3.3061 15.8222 3.25839C15.6647 3.21069 15.4978 3.20262 15.3363 3.2349V3.2349Z" stroke-width="2" stroke-linecap="round" stroke-linejoin="round"/>
<path d="M10.5 12C11.3284 12 12 11.3284 12 10.5C12 9.67157 11.3284 9 10.5 9C9.67157 9 9 9.67157 9 10.5C9 11.3284 9.67157 12 10.5 12Z"/>
</svg>
