<svg   viewBox="0 0 32 32" fill="none" xmlns="http://www.w3.org/2000/svg">
<path d="M23.2969 24.5537L28.6302 16.5537C28.7397 16.3894 28.7982 16.1964 28.7982 15.999C28.7982 15.8015 28.7397 15.6085 28.6302 15.4443L23.2969 7.44426C23.2055 7.30728 23.0818 7.19497 22.9367 7.11729C22.7915 7.03961 22.6294 6.99896 22.4648 6.99896H3L8.63023 15.4453C8.73973 15.6096 8.79816 15.8026 8.79815 16C8.79814 16.1974 8.73969 16.3904 8.63017 16.5547L3 24.999H22.4648C22.6294 24.999 22.7915 24.9583 22.9367 24.8806C23.0818 24.803 23.2055 24.6906 23.2969 24.5537Z" stroke="black" stroke-width="2" stroke-linecap="round" stroke-linejoin="round"/>
</svg>
