<svg viewBox="0 0 32 32" xmlns="http://www.w3.org/2000/svg">
<path d="M26.1049 27H5.89497C5.64887 27 5.41142 26.9093 5.22804 26.7451C5.04467 26.581 4.92826 26.355 4.90108 26.1104L3.1233 10.1104C3.10777 9.97065 3.1219 9.82917 3.16476 9.69522C3.20763 9.56127 3.27826 9.43787 3.37206 9.33308C3.46586 9.22828 3.5807 9.14445 3.7091 9.08706C3.83749 9.02967 3.97655 9 4.11719 9H27.8827C28.0233 9 28.1624 9.02967 28.2907 9.08706C28.4191 9.14445 28.534 9.22828 28.6278 9.33308C28.7216 9.43787 28.7922 9.56127 28.8351 9.69522C28.8779 9.82917 28.8921 9.97065 28.8765 10.1104L27.0988 26.1104C27.0716 26.355 26.9552 26.581 26.7718 26.7451C26.5884 26.9093 26.351 27 26.1049 27Z" stroke-width="2" stroke-linecap="round" stroke-linejoin="round"/>
<path d="M11 9C11 7.67392 11.5268 6.40215 12.4645 5.46447C13.4021 4.52678 14.6739 4 16 4C17.3261 4 18.5979 4.52678 19.5355 5.46447C20.4732 6.40215 21 7.67392 21 9" stroke-width="2" stroke-linecap="round" stroke-linejoin="round"/>
</svg>
