<svg   viewBox="0 0 32 32" fill="none" xmlns="http://www.w3.org/2000/svg">
<path d="M24 15H27.382C27.5677 15 27.7497 14.9483 27.9077 14.8507C28.0657 14.753 28.1933 14.6133 28.2764 14.4472L30.5769 9.84612C30.6913 9.61749 30.7137 9.35376 30.6396 9.10912C30.5655 8.86447 30.4006 8.65748 30.1787 8.53066L24 5" stroke="black" stroke-width="2" stroke-linecap="round" stroke-linejoin="round"/>
<path d="M8.00283 15H4.62086C4.43515 15 4.25311 14.9483 4.09513 14.8507C3.93716 14.753 3.80949 14.6133 3.72644 14.4472L1.42589 9.84612C1.31157 9.61749 1.28915 9.35376 1.36322 9.10912C1.43729 8.86447 1.60224 8.65748 1.82418 8.53066L8.00283 5" stroke="black" stroke-width="2" stroke-linecap="round" stroke-linejoin="round"/>
<path d="M20 5C20 6.06087 19.5786 7.07828 18.8284 7.82843C18.0783 8.57857 17.0609 9 16 9C14.9391 9 13.9217 8.57857 13.1716 7.82843C12.4214 7.07828 12 6.06087 12 5H8V26C8 26.2652 8.10536 26.5196 8.29289 26.7071C8.48043 26.8946 8.73478 27 9 27H23C23.2652 27 23.5196 26.8946 23.7071 26.7071C23.8946 26.5196 24 26.2652 24 26V5H20Z" stroke="black" stroke-width="2" stroke-linecap="round" stroke-linejoin="round"/>
</svg>
