<svg viewBox="0 0 32 32" xmlns="http://www.w3.org/2000/svg">
<path d="M19.5 12.5H12.5V19.5H19.5V12.5Z" stroke-width="2" stroke-linecap="round" stroke-linejoin="round"/>
<path d="M25 6H7C6.44772 6 6 6.44772 6 7V25C6 25.5523 6.44772 26 7 26H25C25.5523 26 26 25.5523 26 25V7C26 6.44772 25.5523 6 25 6Z" stroke-width="2" stroke-linecap="round" stroke-linejoin="round"/>
<path d="M26 13H29" stroke-width="2" stroke-linecap="round" stroke-linejoin="round"/>
<path d="M26 19H29" stroke-width="2" stroke-linecap="round" stroke-linejoin="round"/>
<path d="M3 13H6" stroke-width="2" stroke-linecap="round" stroke-linejoin="round"/>
<path d="M3 19H6" stroke-width="2" stroke-linecap="round" stroke-linejoin="round"/>
<path d="M19 26V29" stroke-width="2" stroke-linecap="round" stroke-linejoin="round"/>
<path d="M13 26V29" stroke-width="2" stroke-linecap="round" stroke-linejoin="round"/>
<path d="M19 3V6" stroke-width="2" stroke-linecap="round" stroke-linejoin="round"/>
<path d="M13 3V6" stroke-width="2" stroke-linecap="round" stroke-linejoin="round"/>
</svg>
