<svg   viewBox="0 0 32 32" fill="none" xmlns="http://www.w3.org/2000/svg">
<path d="M8.5 27C10.433 27 12 25.433 12 23.5C12 21.567 10.433 20 8.5 20C6.567 20 5 21.567 5 23.5C5 25.433 6.567 27 8.5 27Z" stroke="black" stroke-width="2" stroke-linecap="round" stroke-linejoin="round"/>
<path d="M8.5 12C10.433 12 12 10.433 12 8.5C12 6.567 10.433 5 8.5 5C6.567 5 5 6.567 5 8.5C5 10.433 6.567 12 8.5 12Z" stroke="black" stroke-width="2" stroke-linecap="round" stroke-linejoin="round"/>
<path d="M23.5 21C25.433 21 27 19.433 27 17.5C27 15.567 25.433 14 23.5 14C21.567 14 20 15.567 20 17.5C20 19.433 21.567 21 23.5 21Z" stroke="black" stroke-width="2" stroke-linecap="round" stroke-linejoin="round"/>
<path d="M20.0003 18H16.3102C15.4307 18 14.5619 17.8066 13.7653 17.4335C12.9688 17.0605 12.264 16.5168 11.7009 15.8411L8.5 12V20" stroke="black" stroke-width="2" stroke-linecap="round" stroke-linejoin="round"/>
</svg>
