<svg   viewBox="0 0 32 32" fill="none" xmlns="http://www.w3.org/2000/svg">
<path d="M6 12H13" stroke="black" stroke-width="2" stroke-linecap="round" stroke-linejoin="round"/>
<path d="M19 12H26" stroke="black" stroke-width="2" stroke-linecap="round" stroke-linejoin="round"/>
<path d="M13 18C13 18.7956 13.3161 19.5587 13.8787 20.1213C14.4413 20.6839 15.2044 21 16 21C16.7956 21 17.5587 20.6839 18.1213 20.1213C18.6839 19.5587 19 18.7956 19 18V7C19 6.73478 19.1054 6.48043 19.2929 6.29289C19.4804 6.10536 19.7348 6 20 6H25C25.2652 6 25.5196 6.10536 25.7071 6.29289C25.8946 6.48043 26 6.73478 26 7V17.8745C26 23.3884 21.5896 27.9588 16.0758 27.9997C14.7563 28.0097 13.4478 27.7585 12.2258 27.2604C11.0038 26.7624 9.89242 26.0274 8.95579 25.0978C8.01916 24.1683 7.27578 23.0625 6.76848 21.8443C6.26118 20.6262 6 19.3196 6 18V7C6 6.73478 6.10536 6.48043 6.29289 6.29289C6.48043 6.10536 6.73478 6 7 6H12C12.2652 6 12.5196 6.10536 12.7071 6.29289C12.8946 6.48043 13 6.73478 13 7V18Z" stroke="black" stroke-width="2" stroke-linecap="round" stroke-linejoin="round"/>
</svg>
