<svg viewBox="0 0 32 32" xmlns="http://www.w3.org/2000/svg">
<path d="M15.9075 11.8787C16.463 11.3232 17.2142 11.0077 17.9998 11.0001C18.7854 10.9925 19.5426 11.2934 20.1087 11.8381C21.3203 13.0046 21.2916 14.9798 20.1023 16.1691L11.7253 24.2931C11.6301 24.3854 11.5542 24.4957 11.502 24.6176C11.4499 24.7396 11.4225 24.8706 11.4215 25.0033C11.4205 25.1359 11.4458 25.2674 11.4961 25.3901C11.5464 25.5128 11.6206 25.6243 11.7144 25.718L15.2961 29.2998C15.4824 29.4861 15.7348 29.5914 15.9983 29.5926C16.2618 29.5939 16.5152 29.4912 16.7034 29.3066L25.0111 21.1598C28.9101 17.2609 29.0232 10.9105 25.1533 6.98275C24.2273 6.0426 23.1244 5.29503 21.9081 4.78311C20.6919 4.2712 19.3863 4.00507 18.0667 4.00007C16.7471 3.99507 15.4396 4.25129 14.2195 4.75397C12.9994 5.25664 11.8908 5.99584 10.9577 6.92893L2.69486 15.2929C2.5092 15.4808 2.40545 15.7346 2.40625 15.9988C2.40706 16.2629 2.51235 16.516 2.69914 16.7028L6.28093 20.2846C6.37448 20.3782 6.48567 20.4522 6.60804 20.5025C6.73042 20.5528 6.86156 20.5783 6.99386 20.5775C7.12616 20.5767 7.25699 20.5497 7.37878 20.498C7.50056 20.4463 7.61088 20.371 7.70333 20.2763L15.9075 11.8787Z" stroke-width="2" stroke-linecap="round" stroke-linejoin="round"/>
<path d="M15.8438 20.2996L20.8172 25.2731" stroke-width="2" stroke-linecap="round" stroke-linejoin="round"/>
<path d="M6.74219 11.1974L11.7156 16.1708" stroke-width="2" stroke-linecap="round" stroke-linejoin="round"/>
</svg>
