<svg viewBox="0 0 32 32" xmlns="http://www.w3.org/2000/svg">
<path d="M25 7H7C5.34315 7 4 8.34315 4 10V24C4 25.6569 5.34315 27 7 27H25C26.6569 27 28 25.6569 28 24V10C28 8.34315 26.6569 7 25 7Z" stroke-width="2" stroke-linecap="round" stroke-linejoin="round"/>
<path d="M11.5 18H20.5C21.8807 18 23 19.1193 23 20.5V20.5C23 21.8807 21.8807 23 20.5 23H11.5C10.1193 23 9 21.8807 9 20.5V20.5C9 19.1193 10.1193 18 11.5 18Z" stroke-width="2" stroke-linecap="round" stroke-linejoin="round"/>
<path d="M18.5 18V23" stroke-width="2" stroke-linecap="round" stroke-linejoin="round"/>
<path d="M13.5 18V23" stroke-width="2" stroke-linecap="round" stroke-linejoin="round"/>
<path d="M16 7V2" stroke-width="2" stroke-linecap="round" stroke-linejoin="round"/>
<path d="M10.5 15C11.3284 15 12 14.3284 12 13.5C12 12.6716 11.3284 12 10.5 12C9.67157 12 9 12.6716 9 13.5C9 14.3284 9.67157 15 10.5 15Z"/>
<path d="M21.5 15C22.3284 15 23 14.3284 23 13.5C23 12.6716 22.3284 12 21.5 12C20.6716 12 20 12.6716 20 13.5C20 14.3284 20.6716 15 21.5 15Z"/>
</svg>
