<svg viewBox="0 0 24 24" xmlns="http://www.w3.org/2000/svg">
<g clip-path="url(#clip0_61_16839)">
<path d="M19 6V16.5L20.95 18.45C20.98 18.3 21 18.15 21 18V6C21 4.9 20.1 4 19 4H6.5L8.5 6H19Z"/>
<path d="M3.86063 3.95C3.51063 3.6 2.94062 3.6 2.59062 3.95C2.24062 4.3 2.24062 4.87 2.59062 5.22L3.00063 5.64V18C3.00063 19.1 3.90063 20 5.00063 20H17.3606L18.7806 21.42C19.1306 21.77 19.7006 21.77 20.0506 21.42C20.4006 21.07 20.4006 20.5 20.0506 20.15L3.86063 3.95ZM5.00063 18V7.64L15.3606 18H5.00063Z"/>
</g>
<defs>
<clipPath id="clip0_61_16839">
<rect/>
</clipPath>
</defs>
</svg>
