<svg viewBox="0 0 24 24" xmlns="http://www.w3.org/2000/svg">
<path d="M18.9966 7.99998V11H5.82656L8.70656 8.11998C9.09656 7.72998 9.09656 7.09998 8.70656 6.70998C8.31656 6.31998 7.68656 6.31998 7.29656 6.70998L2.70656 11.3C2.31656 11.69 2.31656 12.32 2.70656 12.71L7.29656 17.3C7.68656 17.69 8.31656 17.69 8.70656 17.3C9.09656 16.91 9.09656 16.28 8.70656 15.89L5.82656 13H19.9966C20.5466 13 20.9966 12.55 20.9966 12V7.99998C20.9966 7.44998 20.5466 6.99998 19.9966 6.99998C19.4466 6.99998 18.9966 7.44998 18.9966 7.99998Z"/>
</svg>
