<svg   viewBox="0 0 24 24" fill="none" xmlns="http://www.w3.org/2000/svg">
<path d="M12.0005 15C13.6605 15 14.9905 13.66 14.9905 12L15.0005 6C15.0005 4.34 13.6605 3 12.0005 3C10.3405 3 9.00047 4.34 9.00047 6V12C9.00047 13.66 10.3405 15 12.0005 15ZM18.0805 12C17.6605 12 17.3105 12.3 17.2505 12.71C16.8805 15.32 14.5305 17.1 12.0005 17.1C9.47047 17.1 7.12047 15.33 6.75047 12.71C6.69047 12.3 6.33047 12 5.92047 12C5.40047 12 5.00047 12.46 5.07047 12.97C5.53047 15.94 8.03047 18.27 11.0005 18.72V21C11.0005 21.55 11.4505 22 12.0005 22C12.5505 22 13.0005 21.55 13.0005 21V18.72C15.9605 18.29 18.4705 15.94 18.9305 12.97C19.0005 12.46 18.6005 12 18.0805 12V12Z" fill="black"/>
</svg>
