<svg viewBox="0 0 24 24" xmlns="http://www.w3.org/2000/svg">
<path d="M12.0031 12.0001C12.0031 9.00012 14.5031 6.50012 17.5031 6.50012C20.0731 6.50012 22.2731 8.33012 22.8531 10.7401C23.0031 11.3801 22.5331 12.0001 21.8831 12.0001H12.0031ZM12.0031 12.0001C12.0031 15.0001 9.50305 17.5001 6.50305 17.5001C3.93305 17.5001 1.73305 15.6701 1.15305 13.2601C1.00305 12.6201 1.47305 12.0001 2.12305 12.0001H12.0031ZM12.0031 12.0001C9.00305 12.0001 6.50305 9.50012 6.50305 6.50012C6.50305 3.93012 8.33305 1.73012 10.7431 1.15012C11.3831 1.00012 12.0031 1.47012 12.0031 2.12012V12.0001ZM12.0031 12.0001C15.0031 12.0001 17.5031 14.5001 17.5031 17.5001C17.5031 20.0701 15.6731 22.2701 13.2631 22.8501C12.6231 23.0001 12.0031 22.5301 12.0031 21.8801V12.0001Z"/>
</svg>
