<svg viewBox="0 0 24 24" xmlns="http://www.w3.org/2000/svg">
<g clip-path="url(#clip0_61_16454)">
<path d="M6.82719 4.00004H18.9972C20.0972 4.00004 20.9972 4.90004 20.9972 6.00004V18C20.9972 18.05 20.9872 18.1 20.9772 18.16L17.5972 14.78C17.8372 14.59 17.9972 14.32 17.9972 14V13.5C17.9972 13.22 17.7772 13 17.4972 13H16.9972C16.7172 13 16.4972 13.22 16.4972 13.5H16.3272L14.4972 11.67V10.5H16.4972C16.4972 10.78 16.7172 11 16.9972 11H17.4972C17.7772 11 17.9972 10.78 17.9972 10.5V10C17.9972 9.45004 17.5472 9.00004 16.9972 9.00004H13.9972C13.4472 9.00004 12.9972 9.45004 12.9972 10V10.17L6.82719 4.00004ZM20.4872 21.9C20.0972 22.29 19.4672 22.29 19.0772 21.9L17.1772 20H4.99719C3.88719 20 2.99719 19.1 2.99719 18V6.00004C2.99719 5.95004 3.01719 5.90004 3.01719 5.85004L2.09719 4.93004C1.70719 4.54004 1.70719 3.91004 2.09719 3.52004C2.48719 3.13004 3.11719 3.13004 3.50719 3.52004L20.4772 20.49C20.8772 20.88 20.8772 21.51 20.4872 21.9ZM10.9972 13.83L10.1672 13H9.99719C9.71719 13 9.49719 13.22 9.49719 13.5H7.49719V10.5H7.66719L6.39719 9.22004C6.15719 9.41004 5.99719 9.68004 5.99719 10V14C5.99719 14.55 6.44719 15 6.99719 15H9.99719C10.5472 15 10.9972 14.55 10.9972 14V13.83Z"/>
</g>
<defs>
<clipPath id="clip0_61_16454">
<rect/>
</clipPath>
</defs>
</svg>
