<svg   viewBox="0 0 24 24" fill="none" xmlns="http://www.w3.org/2000/svg">
<path d="M4.64875 9.35021L2.69875 11.3002C2.30875 11.6902 2.30875 12.3202 2.69875 12.7102L4.64875 14.6602C5.13875 15.1502 5.92875 15.1502 6.41875 14.6602C6.89875 14.1702 6.89875 13.3902 6.41875 12.9002L5.53875 12.0002L6.41875 11.1102C6.89875 10.6202 6.89875 9.84021 6.41875 9.35021C5.93875 8.86021 5.13875 8.86021 4.64875 9.35021ZM17.5787 9.35021C17.0987 9.84021 17.0987 10.6202 17.5787 11.1102L18.4587 12.0002L17.5787 12.8902C17.0987 13.3802 17.0987 14.1602 17.5787 14.6502C18.0687 15.1402 18.8588 15.1402 19.3488 14.6502L21.2987 12.7002C21.6887 12.3102 21.6887 11.6802 21.2987 11.2902L19.3488 9.34021C18.8588 8.86021 18.0587 8.86021 17.5787 9.35021V9.35021ZM11.9987 18.4602L11.1087 17.5802C10.6187 17.1002 9.83875 17.1002 9.34875 17.5802C8.85875 18.0702 8.85875 18.8602 9.34875 19.3502L11.2987 21.3002C11.6887 21.6902 12.3187 21.6902 12.7087 21.3002L14.6587 19.3502C15.1487 18.8602 15.1487 18.0702 14.6587 17.5802C14.1687 17.1002 13.3887 17.1002 12.8987 17.5802L11.9987 18.4602V18.4602ZM9.34875 6.42021C9.83875 6.90021 10.6187 6.90021 11.1087 6.42021L11.9987 5.54021L12.8888 6.42021C13.3788 6.90021 14.1587 6.90021 14.6487 6.42021C15.1387 5.93021 15.1387 5.14021 14.6487 4.65021L12.6987 2.70021C12.3087 2.31021 11.6787 2.31021 11.2887 2.70021L9.34875 4.65021C8.85875 5.14021 8.85875 5.94021 9.34875 6.42021Z" fill="black"/>
<path d="M12 15C13.6569 15 15 13.6569 15 12C15 10.3431 13.6569 9 12 9C10.3431 9 9 10.3431 9 12C9 13.6569 10.3431 15 12 15Z" fill="black"/>
</svg>
