<svg viewBox="0 0 24 24" xmlns="http://www.w3.org/2000/svg">
<path d="M18.8706 13C18.3706 13 17.9606 13.37 17.8906 13.86C17.4106 17.23 14.1206 19.7 10.4706 18.82C8.22056 18.28 6.56056 16.55 6.08056 14.29C5.27056 10.42 8.22056 7.00003 11.9506 7.00003V9.79003C11.9506 10.24 12.4906 10.46 12.8006 10.14L16.5906 6.35003C16.7906 6.15003 16.7906 5.84003 16.5906 5.64003L12.8006 1.85003C12.4906 1.54003 11.9506 1.76003 11.9506 2.20003V5.00003C7.01056 5.00003 3.11056 9.48003 4.11056 14.6C4.71056 17.71 7.01056 20.1 10.1006 20.79C14.9306 21.87 19.2506 18.59 19.8706 14.12C19.9606 13.53 19.4706 13 18.8706 13ZM12.4306 15.15C12.3806 15.22 12.3206 15.28 12.2506 15.32C12.1806 15.36 12.0806 15.38 11.9806 15.38C11.8106 15.38 11.6706 15.33 11.5606 15.23C11.4506 15.13 11.3906 14.99 11.3706 14.82H10.5306C10.5406 15.02 10.5806 15.19 10.6606 15.35C10.7406 15.51 10.8506 15.63 10.9806 15.74C11.1106 15.85 11.2706 15.93 11.4406 15.98C11.6106 16.03 11.7906 16.06 11.9706 16.06C12.2106 16.06 12.4306 16.02 12.6106 15.94C12.7906 15.86 12.9406 15.76 13.0606 15.63C13.1806 15.5 13.2706 15.35 13.3306 15.18C13.3906 15.01 13.4206 14.83 13.4206 14.64C13.4206 14.42 13.3906 14.21 13.3306 14.04C13.2706 13.87 13.1906 13.71 13.0806 13.59C12.9706 13.47 12.8306 13.37 12.6706 13.31C12.5106 13.25 12.3306 13.21 12.1206 13.21C12.0506 13.21 11.9806 13.22 11.9206 13.23C11.8606 13.24 11.7906 13.25 11.7406 13.27C11.6906 13.29 11.6406 13.3 11.5906 13.32C11.5406 13.34 11.5106 13.36 11.4806 13.37L11.5906 12.45H13.2906V11.74H10.9006L10.6506 13.91L11.3206 14.08C11.3506 14.05 11.3806 14.02 11.4206 13.99C11.4606 13.96 11.4906 13.94 11.5406 13.92C11.5906 13.9 11.6406 13.88 11.6906 13.87C11.7406 13.86 11.8206 13.85 11.8906 13.85C12.0106 13.85 12.1106 13.87 12.1906 13.9C12.2706 13.93 12.3506 13.99 12.4006 14.05C12.4506 14.11 12.5006 14.19 12.5306 14.29C12.5606 14.39 12.5706 14.48 12.5706 14.6C12.5706 14.72 12.5606 14.82 12.5406 14.91C12.5206 15 12.4806 15.08 12.4306 15.15V15.15Z"/>
</svg>
