<svg viewBox="0 0 24 24" xmlns="http://www.w3.org/2000/svg">
<path d="M18.9174 13.0002C18.4174 13.0002 18.0074 13.3702 17.9374 13.8602C17.4574 17.2302 14.1674 19.7002 10.5174 18.8202C8.26743 18.2802 6.60743 16.5502 6.12743 14.2902C5.31743 10.4202 8.26743 7.00018 11.9974 7.00018V9.79018C11.9974 10.2402 12.5374 10.4602 12.8474 10.1402L16.6374 6.35018C16.8374 6.15018 16.8374 5.84018 16.6374 5.64018L12.8474 1.85018C12.5374 1.54018 11.9974 1.76018 11.9974 2.21018V5.00018C7.05743 5.00018 3.15743 9.48019 4.15743 14.6002C4.75743 17.7102 7.05743 20.1002 10.1474 20.7902C14.9774 21.8702 19.2974 18.5902 19.9174 14.1202C20.0074 13.5302 19.5174 13.0002 18.9174 13.0002ZM10.5374 15.2202C10.4774 15.2702 10.4174 15.3102 10.3374 15.3402C10.2574 15.3702 10.1674 15.3802 10.0674 15.3802C9.97743 15.3802 9.89743 15.3702 9.81743 15.3402C9.73743 15.3102 9.67743 15.2802 9.61743 15.2302C9.55743 15.1802 9.51743 15.1302 9.48743 15.0602C9.45743 14.9902 9.43743 14.9202 9.43743 14.8402H8.58743C8.58743 15.0502 8.62743 15.2302 8.70743 15.3902C8.78743 15.5502 8.89743 15.6702 9.03743 15.7702C9.17743 15.8702 9.32743 15.9502 9.49743 16.0002C9.66743 16.0502 9.84743 16.0702 10.0274 16.0702C10.2374 16.0702 10.4374 16.0402 10.6274 15.9902C10.8174 15.9402 10.9674 15.8502 11.1074 15.7502C11.2474 15.6502 11.3474 15.5102 11.4274 15.3602C11.5074 15.2102 11.5474 15.0302 11.5474 14.8302C11.5474 14.6002 11.4874 14.3902 11.3674 14.2202C11.2474 14.0502 11.0674 13.9202 10.8274 13.8302C10.9274 13.7802 11.0274 13.7302 11.1074 13.6602C11.1874 13.5902 11.2574 13.5202 11.3074 13.4402C11.3574 13.3602 11.4074 13.2802 11.4374 13.1902C11.4674 13.1002 11.4774 13.0102 11.4774 12.9202C11.4774 12.7202 11.4374 12.5502 11.3674 12.3902C11.2974 12.2302 11.1974 12.1102 11.0674 12.0102C10.9374 11.9102 10.7874 11.8302 10.6074 11.7802C10.4274 11.7302 10.2374 11.7002 10.0174 11.7002C9.82743 11.7002 9.63743 11.7302 9.47743 11.7802C9.31743 11.8302 9.15743 11.9102 9.03743 12.0102C8.91743 12.1102 8.80743 12.2302 8.73743 12.3802C8.66743 12.5302 8.62743 12.6802 8.62743 12.8602H9.47743C9.47743 12.7902 9.49743 12.7202 9.52743 12.6602C9.55743 12.6002 9.59743 12.5502 9.64743 12.5102C9.69743 12.4702 9.75743 12.4402 9.82743 12.4102C9.89743 12.3802 9.96743 12.3802 10.0474 12.3802C10.1474 12.3802 10.2274 12.3902 10.2974 12.4202C10.3674 12.4502 10.4274 12.4802 10.4774 12.5302C10.5274 12.5802 10.5574 12.6402 10.5874 12.7002C10.6174 12.7602 10.6274 12.8402 10.6274 12.9202C10.6274 13.1002 10.5774 13.2402 10.4674 13.3502C10.3574 13.4602 10.2074 13.5102 9.98743 13.5102H9.55743V14.1702H10.0074C10.1174 14.1702 10.2074 14.1802 10.2974 14.2102C10.3874 14.2402 10.4574 14.2702 10.5174 14.3202C10.5774 14.3702 10.6274 14.4402 10.6574 14.5202C10.6874 14.6002 10.7074 14.7002 10.7074 14.8102C10.7074 14.9002 10.6974 14.9802 10.6674 15.0502C10.6374 15.1202 10.5874 15.1602 10.5374 15.2202V15.2202ZM14.4374 11.7802C14.2574 11.7102 14.0674 11.6802 13.8474 11.6802C13.6274 11.6802 13.4374 11.7102 13.2574 11.7802C13.0774 11.8502 12.9274 11.9602 12.8074 12.1102C12.6874 12.2602 12.5774 12.4502 12.5174 12.6802C12.4574 12.9102 12.4174 13.1802 12.4174 13.5002V14.2402C12.4174 14.5602 12.4574 14.8402 12.5274 15.0602C12.5974 15.2802 12.6974 15.4802 12.8274 15.6302C12.9574 15.7802 13.1074 15.8902 13.2874 15.9602C13.4674 16.0302 13.6574 16.0602 13.8774 16.0602C14.0974 16.0602 14.2874 16.0302 14.4674 15.9602C14.6474 15.8902 14.7974 15.7802 14.9174 15.6302C15.0374 15.4802 15.1374 15.2902 15.2074 15.0602C15.2774 14.8302 15.3074 14.5602 15.3074 14.2402V13.5002C15.3074 13.1802 15.2674 12.9002 15.1974 12.6802C15.1274 12.4602 15.0274 12.2602 14.8974 12.1102C14.7674 11.9602 14.6174 11.8502 14.4374 11.7802ZM14.4474 14.3502C14.4474 14.5402 14.4374 14.7002 14.4074 14.8302C14.3774 14.9602 14.3474 15.0702 14.2974 15.1502C14.2474 15.2302 14.1874 15.2902 14.1074 15.3202C14.0274 15.3502 13.9474 15.3702 13.8574 15.3702C13.7674 15.3702 13.6774 15.3502 13.6074 15.3202C13.5374 15.2902 13.4674 15.2302 13.4174 15.1502C13.3674 15.0702 13.3274 14.9602 13.2974 14.8302C13.2674 14.7002 13.2574 14.5402 13.2574 14.3502V13.3802C13.2574 13.1902 13.2674 13.0302 13.2974 12.9002C13.3274 12.7702 13.3574 12.6702 13.4174 12.5902C13.4774 12.5102 13.5274 12.4502 13.6074 12.4202C13.6874 12.3902 13.7674 12.3702 13.8574 12.3702C13.9474 12.3702 14.0374 12.3902 14.1074 12.4202C14.1774 12.4502 14.2474 12.5102 14.2974 12.5902C14.3474 12.6702 14.3874 12.7702 14.4174 12.9002C14.4474 13.0302 14.4574 13.1902 14.4574 13.3802V14.3502H14.4474Z"/>
</svg>
