<svg   viewBox="0 0 24 24" fill="none" xmlns="http://www.w3.org/2000/svg">
<path d="M18.9174 13.0002C18.4174 13.0002 18.0074 13.3702 17.9374 13.8602C17.4574 17.2302 14.1674 19.7002 10.5174 18.8202C8.26743 18.2802 6.60743 16.5502 6.12743 14.2902C5.31743 10.4202 8.26743 7.00018 11.9974 7.00018V9.79018C11.9974 10.2402 12.5374 10.4602 12.8474 10.1402L16.6374 6.35018C16.8374 6.15018 16.8374 5.84018 16.6374 5.64018L12.8474 1.85018C12.5374 1.54018 11.9974 1.76018 11.9974 2.21018V5.00018C7.05743 5.00018 3.15743 9.48019 4.15743 14.6002C4.75743 17.7102 7.05743 20.1002 10.1474 20.7902C14.9774 21.8702 19.2974 18.5902 19.9174 14.1202C20.0074 13.5302 19.5174 13.0002 18.9174 13.0002ZM10.8974 16.0002V11.7302H10.8074L9.03743 12.3602V13.0502L10.0474 12.7402V16.0002H10.8974ZM14.3174 11.7802C14.1374 11.7102 13.9474 11.6802 13.7274 11.6802C13.5074 11.6802 13.3174 11.7102 13.1374 11.7802C12.9574 11.8502 12.8074 11.9602 12.6874 12.1102C12.5674 12.2602 12.4574 12.4502 12.3974 12.6802C12.3374 12.9102 12.2974 13.1802 12.2974 13.5002V14.2402C12.2974 14.5602 12.3374 14.8402 12.4074 15.0602C12.4774 15.2802 12.5774 15.4802 12.7074 15.6302C12.8374 15.7802 12.9874 15.8902 13.1674 15.9602C13.3474 16.0302 13.5374 16.0602 13.7574 16.0602C13.9774 16.0602 14.1674 16.0302 14.3474 15.9602C14.5274 15.8902 14.6774 15.7802 14.7974 15.6302C14.9174 15.4802 15.0174 15.2902 15.0874 15.0602C15.1574 14.8302 15.1874 14.5602 15.1874 14.2402V13.5002C15.1874 13.1802 15.1474 12.9002 15.0774 12.6802C15.0074 12.4602 14.9074 12.2602 14.7774 12.1102C14.6474 11.9602 14.4874 11.8502 14.3174 11.7802ZM14.3274 14.3502C14.3274 14.5402 14.3174 14.7002 14.2874 14.8302C14.2574 14.9602 14.2274 15.0702 14.1774 15.1502C14.1274 15.2302 14.0674 15.2902 13.9874 15.3202C13.9074 15.3502 13.8274 15.3702 13.7374 15.3702C13.6474 15.3702 13.5574 15.3502 13.4874 15.3202C13.4174 15.2902 13.3474 15.2302 13.2974 15.1502C13.2474 15.0702 13.2074 14.9602 13.1774 14.8302C13.1474 14.7002 13.1374 14.5402 13.1374 14.3502V13.3802C13.1374 13.1902 13.1474 13.0302 13.1774 12.9002C13.2074 12.7702 13.2374 12.6702 13.2974 12.5902C13.3574 12.5102 13.4074 12.4502 13.4874 12.4202C13.5674 12.3902 13.6474 12.3702 13.7374 12.3702C13.8274 12.3702 13.9174 12.3902 13.9874 12.4202C14.0574 12.4502 14.1274 12.5102 14.1774 12.5902C14.2274 12.6702 14.2674 12.7702 14.2974 12.9002C14.3274 13.0302 14.3374 13.1902 14.3374 13.3802V14.3502H14.3274Z" fill="black"/>
</svg>
