<svg   viewBox="0 0 24 24" fill="none" xmlns="http://www.w3.org/2000/svg">
<g clip-path="url(#clip0_61_16473)">
<path d="M16.9572 3.30024C16.6372 2.91024 16.6672 2.34024 17.0272 1.98024L17.0372 1.97024C17.4572 1.55024 18.1572 1.59024 18.5272 2.05024C20.0672 3.94024 20.9972 6.36024 20.9972 9.00024C20.9972 11.5702 20.1072 13.9402 18.6372 15.8102L17.2072 14.3802C18.3272 12.8802 18.9972 11.0202 18.9972 9.00024C18.9972 6.83024 18.2272 4.84024 16.9572 3.30024ZM7.48719 4.66024C8.22719 4.24024 9.07719 4.00024 9.99719 4.00024C12.7972 4.00024 14.9972 6.20024 14.9972 9.00024C14.9972 9.80024 14.7672 10.6902 14.3672 11.5402L15.8472 13.0202C15.8672 12.9802 15.8972 12.9402 15.9272 12.8902C16.6172 11.6502 16.9972 10.2602 16.9972 9.00024C16.9972 5.07024 13.9272 2.00024 9.99719 2.00024C8.50719 2.00024 7.14719 2.44024 6.02719 3.20024L7.48719 4.66024ZM9.99719 6.50024C9.78719 6.50024 9.59719 6.53024 9.40719 6.58024L12.4172 9.59024C12.4672 9.40024 12.4972 9.21024 12.4972 9.00024C12.4972 7.62024 11.3772 6.50024 9.99719 6.50024ZM20.4872 20.4902L3.50719 3.51024C3.11719 3.12024 2.48719 3.12024 2.09719 3.51024C1.70719 3.90024 1.70719 4.53024 2.09719 4.92024L3.51719 6.34024C3.31719 6.83024 3.16719 7.34024 3.08719 7.88024C2.98719 8.47024 3.46719 9.00024 4.05719 9.00024H4.09719C4.57719 9.00024 4.98719 8.65024 5.05719 8.18024C5.07719 8.10024 5.09719 8.02024 5.11719 7.95024L11.7372 14.5702C10.8572 15.2502 9.95719 15.9802 9.46719 17.4702C8.96719 18.9702 8.46719 19.4802 7.75719 19.8502C7.55719 19.9402 7.28719 20.0002 6.99719 20.0002C6.11719 20.0002 5.36719 19.4202 5.09719 18.6302C4.96719 18.2402 4.56719 18.0002 4.14719 18.0002C3.48719 18.0002 2.99719 18.6402 3.19719 19.2602C3.72719 20.8502 5.22719 22.0002 6.99719 22.0002C7.56719 22.0002 8.12719 21.8802 8.63719 21.6502C9.99719 20.9402 10.7672 19.9202 11.3672 18.1002C11.6872 17.1202 12.2672 16.6702 13.0772 16.0502C13.1072 16.0302 13.1272 16.0102 13.1572 15.9902L19.0672 21.9002C19.4572 22.2902 20.0872 22.2902 20.4772 21.9002C20.8772 21.5102 20.8772 20.8802 20.4872 20.4902Z" fill="black"/>
</g>
<defs>
<clipPath id="clip0_61_16473">
<rect width="24" height="24" fill="white"/>
</clipPath>
</defs>
</svg>
