<svg viewBox="0 0 24 24" xmlns="http://www.w3.org/2000/svg">
<path d="M11.999 14C13.659 14 14.999 12.66 14.999 11V5C14.999 3.34 13.659 2 11.999 2C10.339 2 8.99901 3.34 8.99901 5V11C8.99901 12.66 10.339 14 11.999 14ZM10.999 5C10.999 4.45 11.449 4 11.999 4C12.549 4 12.999 4.45 12.999 5V11C12.999 11.55 12.549 12 11.999 12C11.449 12 10.999 11.55 10.999 11V5ZM17.909 11C17.419 11 17.009 11.36 16.929 11.85C16.519 14.2 14.469 16 11.999 16C9.52901 16 7.47901 14.2 7.06901 11.85C6.98901 11.36 6.57901 11 6.08901 11C5.47901 11 4.99901 11.54 5.08901 12.14C5.57901 15.14 7.97901 17.49 10.999 17.92V20C10.999 20.55 11.449 21 11.999 21C12.549 21 12.999 20.55 12.999 20V17.92C16.019 17.49 18.419 15.14 18.909 12.14C19.009 11.54 18.519 11 17.909 11Z"/>
</svg>
