<svg viewBox="0 0 24 24" xmlns="http://www.w3.org/2000/svg">
<path d="M14.9966 10.6V5C14.9966 3.34 13.6566 2 11.9966 2C10.4566 2 9.20656 3.16 9.03656 4.65L14.9966 10.6ZM18.0766 11C17.6666 11 17.3066 11.3 17.2466 11.71C17.1966 12.03 17.1266 12.35 17.0266 12.64L18.2966 13.91C18.5966 13.31 18.8166 12.66 18.9266 11.97C18.9966 11.46 18.5966 11 18.0766 11ZM3.70656 3.56C3.31656 3.95 3.31656 4.58 3.70656 4.97L8.99656 10.27V10.7C8.99656 11.89 9.59656 13.02 10.6266 13.61C11.3766 14.04 12.0366 14.05 12.6466 13.92L14.3066 15.58C13.5966 15.91 12.8066 16.1 11.9966 16.1C9.45656 16.1 7.11656 14.33 6.74656 11.71C6.68656 11.3 6.32656 11 5.91656 11C5.39656 11 4.99656 11.46 5.06656 11.97C5.52656 14.93 8.02656 17.27 10.9966 17.72V20C10.9966 20.55 11.4466 21 11.9966 21C12.5466 21 12.9966 20.55 12.9966 20V17.72C13.9066 17.59 14.7666 17.27 15.5466 16.82L19.0366 20.31C19.4266 20.7 20.0566 20.7 20.4466 20.31C20.8366 19.92 20.8366 19.29 20.4466 18.9L5.11656 3.56C4.72656 3.17 4.09656 3.17 3.70656 3.56Z"/>
</svg>
