<svg   viewBox="0 0 24 24" fill="none" xmlns="http://www.w3.org/2000/svg">
<path d="M22.4234 11.3401L20.5634 9.22007L20.8234 6.41007C20.8734 5.91007 20.5334 5.45007 20.0534 5.34007L17.2934 4.71007L15.8534 2.28007C15.5934 1.85007 15.0634 1.67007 14.6034 1.87007L12.0034 3.00007L9.41344 1.89007C8.95344 1.69007 8.41344 1.87007 8.16344 2.30007L6.71344 4.72007L3.96344 5.34007C3.47344 5.45007 3.13344 5.90007 3.18344 6.41007L3.44344 9.21007L1.58344 11.3401C1.25344 11.7201 1.25344 12.2801 1.58344 12.6601L3.44344 14.7801L3.18344 17.6001C3.13344 18.1001 3.47344 18.5601 3.95344 18.6701L6.71344 19.3001L8.15344 21.7201C8.41344 22.1501 8.94344 22.3301 9.41344 22.1301L12.0034 21.0001L14.5934 22.1101C15.0534 22.3101 15.5934 22.1301 15.8434 21.7001L17.2834 19.2701L20.0434 18.6401C20.5334 18.5301 20.8634 18.0701 20.8134 17.5701L20.5534 14.7601L22.4134 12.6401C22.7534 12.2801 22.7534 11.7201 22.4234 11.3401V11.3401ZM13.0034 17.0001H11.0034V15.0001H13.0034V17.0001ZM12.0034 13.0001C11.4534 13.0001 11.0034 12.5501 11.0034 12.0001V8.00007C11.0034 7.45007 11.4534 7.00007 12.0034 7.00007C12.5534 7.00007 13.0034 7.45007 13.0034 8.00007V12.0001C13.0034 12.5501 12.5534 13.0001 12.0034 13.0001Z" fill="black"/>
</svg>
