<svg   viewBox="0 0 24 24" fill="none" xmlns="http://www.w3.org/2000/svg">
<path d="M3.24 6.1498C2.51 6.4298 2 7.1698 2 7.9998V19.9998C2 21.0998 2.9 21.9998 4 21.9998H20C21.11 21.9998 22 21.0998 22 19.9998V7.9998C22 6.8998 21.1 5.9998 20 5.9998H8.3L15.73 2.9998C16.19 2.8098 16.41 2.2898 16.22 1.8298C16.03 1.3698 15.51 1.1498 15.05 1.3398L3.24 6.1498ZM7 19.9998C5.34 19.9998 4 18.6598 4 16.9998C4 15.3398 5.34 13.9998 7 13.9998C8.66 13.9998 10 15.3398 10 16.9998C10 18.6598 8.66 19.9998 7 19.9998ZM20 11.9998H18V10.9998C18 10.4498 17.55 9.9998 17 9.9998C16.45 9.9998 16 10.4498 16 10.9998V11.9998H4V8.9998C4 8.4498 4.45 7.9998 5 7.9998H19C19.55 7.9998 20 8.4498 20 8.9998V11.9998Z" fill="black"/>
</svg>
