<svg viewBox="0 0 24 24" xmlns="http://www.w3.org/2000/svg">
<path d="M7.00094 7.00019H17.0009V8.79018C17.0009 9.24018 17.5409 9.46019 17.8509 9.14019L20.6409 6.35018C20.8409 6.15018 20.8409 5.84018 20.6409 5.64018L17.8509 2.85018C17.5409 2.54018 17.0009 2.76018 17.0009 3.21018V5.00018H6.00094C5.45094 5.00018 5.00094 5.45018 5.00094 6.00018V10.0002C5.00094 10.5502 5.45094 11.0002 6.00094 11.0002C6.55094 11.0002 7.00094 10.5502 7.00094 10.0002V7.00019ZM17.0009 17.0002H7.00094V15.2102C7.00094 14.7602 6.46094 14.5402 6.15094 14.8602L3.36094 17.6502C3.16094 17.8502 3.16094 18.1602 3.36094 18.3602L6.15094 21.1502C6.46094 21.4602 7.00094 21.2402 7.00094 20.7902V19.0002H18.0009C18.5509 19.0002 19.0009 18.5502 19.0009 18.0002V14.0002C19.0009 13.4502 18.5509 13.0002 18.0009 13.0002C17.4509 13.0002 17.0009 13.4502 17.0009 14.0002V17.0002ZM13.0009 14.2502V9.81019C13.0009 9.36019 12.6409 9.00019 12.1909 9.00019C12.0609 9.00019 11.9409 9.03019 11.8309 9.09019L10.3409 9.83018C10.1309 9.93018 10.0009 10.1502 10.0009 10.3802C10.0009 10.7202 10.2809 11.0002 10.6209 11.0002H11.5009V14.2502C11.5009 14.6602 11.8409 15.0002 12.2509 15.0002C12.6609 15.0002 13.0009 14.6602 13.0009 14.2502Z"/>
</svg>
