<svg   viewBox="0 0 24 24" fill="none" xmlns="http://www.w3.org/2000/svg">
<path d="M11.9991 5.00003V2.21003C11.9991 1.76003 11.4591 1.54003 11.1491 1.86003L7.34905 5.65003C7.14905 5.85003 7.14905 6.16003 7.34905 6.36003L11.1391 10.15C11.4591 10.46 11.9991 10.24 11.9991 9.79003V7.00003C15.7291 7.00003 18.6791 10.42 17.8591 14.29C17.3891 16.55 15.7191 18.28 13.4691 18.82C9.82905 19.7 6.53905 17.22 6.04905 13.86C5.98905 13.37 5.56905 13 5.07905 13C4.47905 13 3.99905 13.53 4.07905 14.13C4.70905 18.6 9.01905 21.88 13.8491 20.8C16.9391 20.11 19.2391 17.72 19.8391 14.61C20.8391 9.48003 16.9391 5.00003 11.9991 5.00003ZM10.6891 13.9L10.9391 11.73H13.3291V12.44H11.6291L11.5191 13.36C11.5491 13.34 11.5891 13.33 11.6291 13.31C11.6691 13.29 11.7191 13.27 11.7791 13.26C11.8391 13.25 11.8991 13.23 11.9591 13.22C12.0191 13.21 12.0891 13.2 12.1591 13.2C12.3691 13.2 12.5491 13.23 12.7091 13.3C12.8691 13.37 13.0091 13.46 13.1191 13.58C13.2291 13.7 13.3191 13.85 13.3691 14.03C13.4191 14.21 13.4591 14.41 13.4591 14.63C13.4591 14.82 13.4291 15 13.3691 15.17C13.3091 15.34 13.2191 15.49 13.0991 15.62C12.9791 15.75 12.8291 15.86 12.6491 15.93C12.4691 16 12.2591 16.05 12.0091 16.05C11.8291 16.05 11.6491 16.02 11.4791 15.97C11.3091 15.92 11.1591 15.83 11.0191 15.73C10.8791 15.63 10.7791 15.49 10.6991 15.34C10.6191 15.19 10.5691 15.01 10.5691 14.81H11.4091C11.4291 14.99 11.4891 15.13 11.5991 15.22C11.7091 15.31 11.8491 15.37 12.0191 15.37C12.1291 15.37 12.2191 15.35 12.2891 15.31C12.3591 15.27 12.4291 15.21 12.4691 15.14C12.5091 15.07 12.5491 14.99 12.5791 14.89C12.6091 14.79 12.6091 14.69 12.6091 14.58C12.6091 14.47 12.5991 14.37 12.5691 14.27C12.5391 14.17 12.4991 14.1 12.4391 14.03C12.3791 13.96 12.3091 13.91 12.2291 13.88C12.1491 13.85 12.0391 13.83 11.9291 13.83C11.8491 13.83 11.7791 13.84 11.7291 13.85C11.6791 13.86 11.6191 13.88 11.5791 13.9C11.5391 13.92 11.4991 13.95 11.4591 13.97C11.4191 13.99 11.3891 14.03 11.3591 14.06L10.6891 13.9V13.9Z" fill="black"/>
</svg>
