<svg viewBox="0 0 24 24" xmlns="http://www.w3.org/2000/svg">
<path d="M11.9912 5.00003V2.21003C11.9912 1.76003 11.4512 1.54003 11.1412 1.86003L7.35124 5.65003C7.15124 5.85003 7.15124 6.16003 7.35124 6.36003L11.1412 10.15C11.4512 10.46 11.9912 10.24 11.9912 9.80003V7.00003C15.7212 7.00003 18.6712 10.42 17.8512 14.29C17.3812 16.56 15.5412 18.39 13.2812 18.86C9.71124 19.61 6.53124 17.16 6.05124 13.85C5.99124 13.37 5.57124 13 5.07124 13C4.47124 13 3.99124 13.53 4.07124 14.13C4.69124 18.52 8.87124 21.77 13.6012 20.85C16.7212 20.24 19.2312 17.73 19.8412 14.61C20.8312 9.48003 16.9412 5.00003 11.9912 5.00003V5.00003ZM10.8912 16H10.0412V12.74L9.03124 13.05V12.36L10.8012 11.73H10.8912V16ZM15.1712 14.24C15.1712 14.56 15.1412 14.84 15.0712 15.06C15.0012 15.28 14.9012 15.48 14.7812 15.63C14.6612 15.78 14.5012 15.89 14.3312 15.96C14.1612 16.03 13.9612 16.06 13.7412 16.06C13.5212 16.06 13.3312 16.03 13.1512 15.96C12.9712 15.89 12.8212 15.78 12.6912 15.63C12.5612 15.48 12.4612 15.29 12.3912 15.06C12.3212 14.83 12.2812 14.56 12.2812 14.24V13.5C12.2812 13.18 12.3112 12.9 12.3812 12.68C12.4512 12.46 12.5512 12.26 12.6712 12.11C12.7912 11.96 12.9512 11.85 13.1212 11.78C13.2912 11.71 13.4912 11.68 13.7112 11.68C13.9312 11.68 14.1212 11.71 14.3012 11.78C14.4812 11.85 14.6312 11.96 14.7612 12.11C14.8912 12.26 14.9912 12.45 15.0612 12.68C15.1312 12.91 15.1712 13.18 15.1712 13.5V14.24V14.24ZM14.3212 13.38C14.3212 13.19 14.3112 13.03 14.2812 12.9C14.2512 12.77 14.2112 12.67 14.1612 12.59C14.1112 12.51 14.0512 12.45 13.9712 12.42C13.8912 12.39 13.8112 12.37 13.7212 12.37C13.6312 12.37 13.5412 12.39 13.4712 12.42C13.4012 12.45 13.3312 12.51 13.2812 12.59C13.2312 12.67 13.1912 12.77 13.1612 12.9C13.1312 13.03 13.1212 13.19 13.1212 13.38V14.35C13.1212 14.54 13.1312 14.7 13.1612 14.83C13.1912 14.96 13.2312 15.07 13.2812 15.15C13.3312 15.23 13.3912 15.29 13.4712 15.32C13.5512 15.35 13.6312 15.37 13.7212 15.37C13.8112 15.37 13.9012 15.35 13.9712 15.32C14.0412 15.29 14.1112 15.23 14.1612 15.15C14.2112 15.07 14.2512 14.96 14.2712 14.83C14.2912 14.7 14.3112 14.54 14.3112 14.35V13.38H14.3212Z"/>
</svg>
