<svg   viewBox="0 0 24 24" fill="none" xmlns="http://www.w3.org/2000/svg">
<path d="M11.9991 5.00003V2.21003C11.9991 1.76003 11.4591 1.54003 11.1491 1.86003L7.34905 5.65003C7.14905 5.85003 7.14905 6.16003 7.34905 6.36003L11.1391 10.15C11.4591 10.46 11.9991 10.24 11.9991 9.79003V7.00003C15.7291 7.00003 18.6791 10.42 17.8591 14.29C17.3891 16.56 15.5491 18.39 13.2891 18.86C9.71905 19.61 6.53905 17.16 6.05905 13.85C5.98905 13.37 5.56905 13 5.07905 13C4.47905 13 3.99905 13.53 4.07905 14.13C4.69905 18.52 8.87905 21.77 13.6091 20.85C16.7291 20.24 19.2391 17.73 19.8491 14.61C20.8391 9.48003 16.9391 5.00003 11.9991 5.00003ZM9.55905 13.49H10.0091C10.2191 13.49 10.3791 13.44 10.4891 13.33C10.5991 13.22 10.6491 13.08 10.6491 12.9C10.6491 12.82 10.6391 12.75 10.6091 12.68C10.5791 12.61 10.5491 12.56 10.4991 12.51C10.4491 12.46 10.3891 12.42 10.3191 12.4C10.2491 12.38 10.1591 12.36 10.0691 12.36C9.98905 12.36 9.91905 12.37 9.84905 12.39C9.77905 12.41 9.71905 12.44 9.66905 12.49C9.61905 12.54 9.57905 12.58 9.54905 12.64C9.51905 12.7 9.49905 12.77 9.49905 12.84H8.64905C8.64905 12.66 8.68905 12.5 8.75905 12.36C8.82905 12.22 8.92905 12.09 9.05905 11.99C9.18905 11.89 9.32905 11.81 9.49905 11.76C9.66905 11.71 9.84905 11.68 10.0391 11.68C10.2491 11.68 10.4491 11.71 10.6291 11.76C10.8091 11.81 10.9591 11.89 11.0891 11.99C11.2191 12.09 11.3191 12.22 11.3891 12.37C11.4591 12.52 11.4991 12.7 11.4991 12.9C11.4991 12.99 11.4891 13.08 11.4591 13.17C11.4291 13.26 11.3891 13.34 11.3291 13.42C11.2691 13.5 11.2091 13.57 11.1291 13.64C11.0491 13.71 10.9591 13.76 10.8491 13.81C11.0891 13.9 11.2691 14.02 11.3891 14.2C11.5091 14.38 11.5691 14.58 11.5691 14.81C11.5691 15.01 11.5291 15.19 11.4491 15.34C11.3691 15.49 11.2691 15.63 11.1291 15.73C10.9891 15.83 10.8391 15.92 10.6491 15.97C10.4591 16.02 10.2691 16.05 10.0491 16.05C9.86905 16.05 9.68905 16.03 9.51905 15.98C9.34905 15.93 9.18905 15.86 9.05905 15.75C8.92905 15.64 8.80905 15.52 8.72905 15.37C8.64905 15.22 8.60905 15.03 8.60905 14.82H9.45905C9.45905 14.9 9.47905 14.97 9.50905 15.04C9.53905 15.11 9.57905 15.16 9.63905 15.21C9.69905 15.26 9.75905 15.3 9.83905 15.32C9.91905 15.34 9.99905 15.36 10.0891 15.36C10.1891 15.36 10.2791 15.35 10.3591 15.32C10.4391 15.29 10.5091 15.25 10.5591 15.2C10.6091 15.15 10.6591 15.09 10.6891 15.02C10.7191 14.95 10.7291 14.87 10.7291 14.78C10.7291 14.67 10.7091 14.57 10.6791 14.49C10.6491 14.41 10.5991 14.34 10.5391 14.29C10.4791 14.24 10.4091 14.2 10.3191 14.18C10.2291 14.16 10.1391 14.14 10.0291 14.14H9.55905V13.49V13.49ZM15.2991 14.24C15.2991 14.56 15.2691 14.84 15.1991 15.06C15.1291 15.28 15.0291 15.48 14.9091 15.63C14.7891 15.78 14.6291 15.89 14.4591 15.96C14.2891 16.03 14.0891 16.06 13.8691 16.06C13.6491 16.06 13.4591 16.03 13.2791 15.96C13.0991 15.89 12.9491 15.78 12.8191 15.63C12.6891 15.48 12.5891 15.29 12.5191 15.06C12.4491 14.83 12.4091 14.56 12.4091 14.24V13.5C12.4091 13.18 12.4391 12.9 12.5091 12.68C12.5791 12.46 12.6791 12.26 12.7991 12.11C12.9191 11.96 13.0791 11.85 13.2491 11.78C13.4191 11.71 13.6191 11.68 13.8391 11.68C14.0591 11.68 14.2491 11.71 14.4291 11.78C14.6091 11.85 14.7591 11.96 14.8891 12.11C15.0191 12.26 15.1191 12.45 15.1891 12.68C15.2591 12.91 15.2991 13.18 15.2991 13.5V14.24V14.24ZM14.4491 13.38C14.4491 13.19 14.4391 13.03 14.4091 12.9C14.3791 12.77 14.3391 12.67 14.2891 12.59C14.2391 12.51 14.1791 12.45 14.0991 12.42C14.0191 12.39 13.9391 12.37 13.8491 12.37C13.7591 12.37 13.6691 12.39 13.5991 12.42C13.5291 12.45 13.4591 12.51 13.4091 12.59C13.3591 12.67 13.3191 12.77 13.2891 12.9C13.2591 13.03 13.2491 13.19 13.2491 13.38V14.35C13.2491 14.54 13.2591 14.7 13.2891 14.83C13.3191 14.96 13.3591 15.07 13.4091 15.15C13.4591 15.23 13.5191 15.29 13.5991 15.32C13.6791 15.35 13.7591 15.37 13.8491 15.37C13.9391 15.37 14.0291 15.35 14.0991 15.32C14.1691 15.29 14.2391 15.23 14.2891 15.15C14.3391 15.07 14.3791 14.96 14.3991 14.83C14.4291 14.7 14.4391 14.54 14.4391 14.35V13.38H14.4491Z" fill="black"/>
</svg>
