<svg   viewBox="0 0 24 24" fill="none" xmlns="http://www.w3.org/2000/svg">
<path d="M11.9991 5.00003V2.21003C11.9991 1.76003 11.4591 1.54003 11.1491 1.86003L7.34905 5.65003C7.14905 5.85003 7.14905 6.16003 7.34905 6.36003L11.1391 10.15C11.4591 10.46 11.9991 10.24 11.9991 9.79003V7.00003C15.7291 7.00003 18.6791 10.42 17.8591 14.29C17.3891 16.56 15.5491 18.39 13.2891 18.86C9.71905 19.61 6.53905 17.16 6.05905 13.85C5.98905 13.37 5.56905 13 5.07905 13C4.47905 13 3.99905 13.53 4.07905 14.13C4.69905 18.52 8.87905 21.77 13.6091 20.85C16.7291 20.24 19.2391 17.73 19.8491 14.61C20.8391 9.48003 16.9391 5.00003 11.9991 5.00003Z" fill="black"/>
</svg>
