<svg   viewBox="0 0 24 24" fill="none" xmlns="http://www.w3.org/2000/svg">
<path d="M10.5888 9.17L6.11875 4.7C5.72875 4.31 5.09875 4.31 4.70875 4.7C4.31875 5.09 4.31875 5.72 4.70875 6.11L9.16875 10.57L10.5888 9.17ZM15.3488 4.85L16.5388 6.04L4.69875 17.88C4.30875 18.27 4.30875 18.9 4.69875 19.29C5.08875 19.68 5.71875 19.68 6.10875 19.29L17.9587 7.46L19.1487 8.65C19.4587 8.96 19.9987 8.74 19.9987 8.29V4.5C19.9987 4.22 19.7787 4 19.4987 4H15.7087C15.2587 4 15.0388 4.54 15.3488 4.85V4.85ZM14.8287 13.41L13.4187 14.82L16.5487 17.95L15.3488 19.15C15.0388 19.46 15.2587 20 15.7087 20H19.4987C19.7787 20 19.9987 19.78 19.9987 19.5V15.71C19.9987 15.26 19.4587 15.04 19.1487 15.36L17.9587 16.55L14.8287 13.41V13.41Z" fill="black"/>
</svg>
