<svg viewBox="0 0 24 24" xmlns="http://www.w3.org/2000/svg">
<path d="M10.0028 8.49986V15.4999C10.0028 15.9099 10.4728 16.1499 10.8028 15.8999L15.4728 12.3999C15.7428 12.1999 15.7428 11.7999 15.4728 11.5999L10.8028 8.09986C10.4728 7.84986 10.0028 8.08986 10.0028 8.49986ZM11.0028 3.22986C11.0028 2.58986 10.4128 2.09986 9.79279 2.23986C8.67279 2.49986 7.61279 2.93986 6.67279 3.53986C6.14279 3.87986 6.06279 4.63986 6.51279 5.08986C6.83279 5.40986 7.34279 5.48986 7.72279 5.24986C8.49279 4.75986 9.34279 4.39986 10.2628 4.19986C10.7028 4.09986 11.0028 3.68986 11.0028 3.22986V3.22986ZM5.10279 6.50986C4.64279 6.05986 3.89279 6.12986 3.55279 6.66986C2.95279 7.60986 2.51279 8.66986 2.25279 9.78986C2.11279 10.4099 2.59279 10.9999 3.23279 10.9999C3.68279 10.9999 4.10279 10.6999 4.19279 10.2599C4.39279 9.34986 4.76279 8.48986 5.24279 7.72986C5.50279 7.33986 5.42279 6.82986 5.10279 6.50986V6.50986ZM3.23279 12.9999C2.59279 12.9999 2.10279 13.5899 2.24279 14.2099C2.50279 15.3299 2.94279 16.3799 3.54279 17.3299C3.88279 17.8699 4.64279 17.9399 5.09279 17.4899C5.41279 17.1699 5.49279 16.6599 5.24279 16.2799C4.75279 15.5199 4.39279 14.6699 4.19279 13.7499C4.10279 13.2999 3.69279 12.9999 3.23279 12.9999V12.9999ZM6.67279 20.4499C7.62279 21.0499 8.67279 21.4899 9.79279 21.7499C10.4128 21.8899 11.0028 21.3999 11.0028 20.7699C11.0028 20.3199 10.7028 19.8999 10.2628 19.8099C9.35279 19.6099 8.49279 19.2399 7.73279 18.7599C7.34279 18.5199 6.84279 18.5899 6.52279 18.9199C6.06279 19.3599 6.13279 20.1099 6.67279 20.4499V20.4499ZM22.0028 11.9999C22.0028 16.7299 18.7028 20.7099 14.2728 21.7399C13.6528 21.8899 13.0528 21.3999 13.0528 20.7599C13.0528 20.2999 13.3628 19.8999 13.8028 19.7899C17.3528 18.9699 20.0028 15.7899 20.0028 11.9999C20.0028 8.20986 17.3528 5.02986 13.8028 4.20986C13.3628 4.10986 13.0528 3.69986 13.0528 3.23986C13.0528 2.59986 13.6528 2.10986 14.2728 2.25986C18.7028 3.28986 22.0028 7.26986 22.0028 11.9999Z"/>
</svg>
