<svg   viewBox="0 0 24 24" fill="none" xmlns="http://www.w3.org/2000/svg">
<path d="M9.99732 11.0001H12.6273L8.90732 15.3501C8.35732 16.0001 8.81732 17.0001 9.66732 17.0001H13.9973C14.5473 17.0001 14.9973 16.5501 14.9973 16.0001C14.9973 15.4501 14.5473 15.0001 13.9973 15.0001H11.3673L15.0873 10.6501C15.6373 10.0001 15.1773 9.00014 14.3273 9.00014H9.99732C9.44732 9.00014 8.99732 9.45014 8.99732 10.0001C8.99732 10.5501 9.44732 11.0001 9.99732 11.0001ZM21.2973 6.42014C20.9473 6.84014 20.3173 6.90014 19.8873 6.55014L16.8173 3.99014C16.3973 3.63014 16.3373 3.00014 16.6973 2.58014C17.0473 2.16014 17.6773 2.10014 18.1073 2.45014L21.1773 5.01014C21.5973 5.37014 21.6573 6.00014 21.2973 6.42014ZM2.69732 6.42014C3.04732 6.85014 3.67732 6.90014 4.09732 6.55014L7.16732 3.99014C7.59732 3.63014 7.65732 3.00014 7.29732 2.58014C6.94732 2.15014 6.31732 2.10014 5.89732 2.45014L2.81732 5.01014C2.39732 5.37014 2.33732 6.00014 2.69732 6.42014V6.42014ZM11.9973 6.00014C15.8573 6.00014 18.9973 9.14014 18.9973 13.0001C18.9973 16.8601 15.8573 20.0001 11.9973 20.0001C8.13732 20.0001 4.99732 16.8601 4.99732 13.0001C4.99732 9.14014 8.13732 6.00014 11.9973 6.00014ZM11.9973 4.00014C7.02732 4.00014 2.99732 8.03014 2.99732 13.0001C2.99732 17.9701 7.02732 22.0001 11.9973 22.0001C16.9673 22.0001 20.9973 17.9701 20.9973 13.0001C20.9973 8.03014 16.9673 4.00014 11.9973 4.00014Z" fill="black"/>
</svg>
