<svg viewBox="0 0 24 24" xmlns="http://www.w3.org/2000/svg">
<path d="M12.9302 2.65C12.7302 2.45 12.4202 2.45 12.2202 2.65L10.2102 4.66H14.9302L12.9302 2.65V2.65ZM12.2302 21.35C12.4302 21.55 12.7402 21.55 12.9402 21.35L14.9202 19.37H10.2602L12.2302 21.35V21.35ZM10.9802 17.73C11.5802 17.73 11.9902 17.13 11.7702 16.57L8.04021 7.03C7.86021 6.57 7.41021 6.27 6.92021 6.27C6.43021 6.27 5.98021 6.57 5.80021 7.03L2.06021 16.56C1.84021 17.12 2.25021 17.72 2.85021 17.72C3.20021 17.72 3.52021 17.5 3.65021 17.17L4.36021 15.27H9.47021L10.1802 17.17C10.3102 17.51 10.6302 17.73 10.9802 17.73ZM4.97021 13.64L6.91021 8.46L8.85021 13.64H4.97021V13.64ZM21.0502 16.14H15.7202L21.4402 7.85C21.9002 7.19 21.4202 6.28 20.6202 6.28H14.1402C13.7002 6.28 13.3502 6.64 13.3502 7.08V7.09C13.3502 7.53 13.7102 7.89 14.1402 7.89H19.2302L13.5002 16.17C13.0402 16.83 13.5202 17.74 14.3202 17.74H21.0402C21.4802 17.74 21.8302 17.38 21.8302 16.95C21.8502 16.5 21.4902 16.14 21.0502 16.14V16.14Z"/>
</svg>
