<svg   viewBox="0 0 24 24" fill="none" xmlns="http://www.w3.org/2000/svg">
<g clip-path="url(#clip0_61_16516)">
<path d="M19.4609 9.99976C19.3623 10.1455 19.3039 10.3148 19.2916 10.4904C19.2793 10.6659 19.3135 10.8417 19.3909 10.9998C19.6391 11.579 19.8138 12.1871 19.9109 12.8098C20.1683 14.4199 19.9276 16.0703 19.2209 17.5398C19.1351 17.7009 19.0068 17.8355 18.8499 17.929C18.693 18.0224 18.5135 18.0711 18.3309 18.0698H5.68092C5.49729 18.0701 5.3171 18.02 5.16011 17.9247C5.00312 17.8294 4.87539 17.6928 4.79092 17.5298C4.1508 16.2312 3.87506 14.7833 3.9931 13.3403C4.11114 11.8974 4.61854 10.5135 5.4612 9.33626C6.30386 8.159 7.4502 7.23247 8.778 6.65545C10.1058 6.07843 11.5653 5.87255 13.0009 6.05976C13.7273 6.14514 14.4378 6.3337 15.1109 6.61976C15.269 6.69713 15.4447 6.7314 15.6203 6.71911C15.7959 6.70682 15.9651 6.6484 16.1109 6.54976C16.2628 6.4497 16.3845 6.31012 16.463 6.14603C16.5414 5.98195 16.5736 5.79958 16.5561 5.61854C16.5387 5.43751 16.4721 5.26468 16.3637 5.11864C16.2553 4.9726 16.1091 4.8589 15.9409 4.78976C14.0091 3.96142 11.8654 3.76285 9.81433 4.22226C7.76324 4.68167 5.90906 5.7757 4.51517 7.34894C3.12129 8.92218 2.25857 10.8946 2.04957 12.9861C1.84057 15.0776 2.29591 17.1818 3.35092 18.9998C3.52543 19.302 3.77601 19.5534 4.07775 19.7288C4.37949 19.9042 4.72189 19.9977 5.07092 19.9998H18.9209C19.2733 20.0012 19.6199 19.9094 19.9254 19.7338C20.231 19.5582 20.4847 19.305 20.6609 18.9998C21.4333 17.6612 21.8849 16.1618 21.9804 14.6194C22.0758 13.0769 21.8124 11.5333 21.2109 10.1098C21.1347 9.94752 21.0163 9.80874 20.8681 9.70793C20.7199 9.60713 20.5474 9.54801 20.3685 9.53677C20.1896 9.52553 20.011 9.56257 19.8513 9.64402C19.6917 9.72547 19.5568 9.84834 19.4609 9.99976Z" fill="black"/>
<path d="M10.5861 12.5902C10.2108 12.9655 10 13.4744 10 14.0052C10 14.268 10.0518 14.5282 10.1523 14.771C10.2529 15.0138 10.4003 15.2344 10.5861 15.4202C10.7719 15.606 10.9925 15.7534 11.2353 15.854C11.4781 15.9545 11.7383 16.0063 12.0011 16.0063C12.5318 16.0063 13.0408 15.7955 13.4161 15.4202L19.0761 6.93018L10.5861 12.5902Z" fill="black"/>
</g>
<defs>
<clipPath id="clip0_61_16516">
<rect width="24" height="24" fill="white"/>
</clipPath>
</defs>
</svg>
