<svg viewBox="0 0 24 24" xmlns="http://www.w3.org/2000/svg">
<path d="M20.9966 14.2001V8.91008C20.9966 8.02008 19.9166 7.57008 19.2866 8.20008L16.9966 10.5001V7.00008C16.9966 6.45008 16.5466 6.00008 15.9966 6.00008H10.3866L19.2966 14.9101C19.9166 15.5401 20.9966 15.0901 20.9966 14.2001ZM2.70656 2.56008C2.31656 2.95008 2.31656 3.58008 2.70656 3.97008L4.72656 6.00008H3.99656C3.44656 6.00008 2.99656 6.45008 2.99656 7.00008V17.0001C2.99656 17.5501 3.44656 18.0001 3.99656 18.0001H15.9966C16.2066 18.0001 16.3866 17.9201 16.5466 17.8201L19.0266 20.3001C19.4166 20.6901 20.0466 20.6901 20.4366 20.3001C20.8266 19.9101 20.8266 19.2801 20.4366 18.8901L4.11656 2.56008C3.72656 2.17008 3.09656 2.17008 2.70656 2.56008Z"/>
</svg>
