<svg   viewBox="0 0 24 24" fill="none" xmlns="http://www.w3.org/2000/svg">
<g clip-path="url(#clip0_61_16527)">
<path d="M4 6H20C20.55 6 21 6.45 21 7V11H23V6C23 4.9 22.1 4 21 4H3C1.9 4 1 4.9 1 6V18C1 19.1 1.9 20 3 20H12V18H4C3.45 18 3 17.55 3 17V7C3 6.45 3.45 6 4 6Z" fill="black"/>
<path d="M15 12L9 8V16L15 12Z" fill="black"/>
<path d="M22.7131 18.43C22.7431 18.14 22.7531 17.85 22.7231 17.57L23.7931 16.72C23.8931 16.64 23.9131 16.51 23.8531 16.4L22.8231 14.61C22.7631 14.5 22.6331 14.46 22.5131 14.5L21.2331 15C21.0031 14.83 20.7531 14.69 20.4831 14.58L20.2831 13.22C20.2631 13.09 20.1631 13 20.0331 13H17.9631C17.8431 13 17.7331 13.09 17.7131 13.21L17.5131 14.57C17.2531 14.68 17.0031 14.83 16.7731 14.99L15.4931 14.49C15.3731 14.44 15.2431 14.49 15.1831 14.6L14.1531 16.39C14.0931 16.5 14.1131 16.63 14.2131 16.71L15.2831 17.57C15.2531 17.86 15.2431 18.15 15.2731 18.43L14.2031 19.28C14.1031 19.36 14.0831 19.49 14.1431 19.6L15.1731 21.39C15.2331 21.5 15.3631 21.54 15.4831 21.5L16.7531 21C16.9831 21.17 17.2331 21.31 17.5031 21.42L17.7031 22.78C17.7231 22.9 17.8231 22.99 17.9531 22.99H20.0231C20.1431 22.99 20.2531 22.9 20.2731 22.78L20.4731 21.42C20.7331 21.31 20.9831 21.16 21.2131 21L22.4931 21.5C22.6131 21.55 22.7431 21.5 22.8031 21.39L23.8331 19.6C23.8931 19.49 23.8731 19.36 23.7731 19.28L22.7131 18.43ZM19.0031 19.5C18.1731 19.5 17.5031 18.83 17.5031 18C17.5031 17.17 18.1731 16.5 19.0031 16.5C19.8331 16.5 20.5031 17.17 20.5031 18C20.5031 18.83 19.8331 19.5 19.0031 19.5Z" fill="black"/>
</g>
<defs>
<clipPath id="clip0_61_16527">
<rect width="24" height="24" fill="white"/>
</clipPath>
</defs>
</svg>
