<svg   viewBox="0 0 32 32" fill="none" xmlns="http://www.w3.org/2000/svg">
<path d="M21.9996 16.0011C22.0045 19.911 21.2429 23.7839 19.7578 27.4008" stroke="black" stroke-width="2" stroke-linecap="round" stroke-linejoin="round"/>
<path d="M20.4694 12.0007C19.6592 11.0951 18.5932 10.4568 17.4124 10.1703C16.2315 9.88377 14.9915 9.96253 13.8564 10.3962C12.7213 10.8298 11.7446 11.5978 11.0555 12.5987C10.3665 13.5995 9.99752 14.786 9.99751 16.0011C10.0022 19.0505 9.22865 22.0507 7.75 24.7176" stroke="black" stroke-width="2" stroke-linecap="round" stroke-linejoin="round"/>
<path d="M12 4.68395C13.8103 4.04593 15.7471 3.85113 17.6481 4.1159C19.5492 4.38066 21.3591 5.09727 22.9261 6.20566C24.4932 7.31405 25.7717 8.78192 26.6545 10.4862C27.5373 12.1906 27.9987 14.0817 28.0001 16.0011C28.0017 18.6927 27.7025 21.376 27.108 24.001" stroke="black" stroke-width="2" stroke-linecap="round" stroke-linejoin="round"/>
<path d="M2.91406 21.0011C3.63335 19.4325 4.00455 17.7268 4.00215 16.0011C4.00024 14.3124 4.35565 12.6424 5.04504 11.1009C5.73443 9.55933 6.74219 8.18109 8.00212 7.0567" stroke="black" stroke-width="2" stroke-linecap="round" stroke-linejoin="round"/>
<path d="M13.8207 26.0011C13.5671 26.5535 13.2936 27.0942 13 27.6234" stroke="black" stroke-width="2" stroke-linecap="round" stroke-linejoin="round"/>
<path d="M15.9983 16.001C15.9998 18.0249 15.7457 20.0409 15.2422 22.0011" stroke="black" stroke-width="2" stroke-linecap="round" stroke-linejoin="round"/>
</svg>
