<svg viewBox="0 0 32 32" xmlns="http://www.w3.org/2000/svg">
<path d="M6.33594 23.1153C7.43434 20.9048 8.00421 18.4694 8.00059 16.0011C7.99945 14.8017 8.26856 13.6174 8.78791 12.5361C9.30727 11.4549 10.0635 10.5046 11.0005 9.7558" stroke-width="2" stroke-linecap="round" stroke-linejoin="round"/>
<path d="M15.997 16.0011C16.0033 20.0672 14.9717 24.0676 13 27.6237" stroke-width="2" stroke-linecap="round" stroke-linejoin="round"/>
<path d="M12 16.0011C12 14.9402 12.4214 13.9228 13.1716 13.1727C13.9217 12.4225 14.9391 12.0011 16 12.0011C17.0609 12.0011 18.0783 12.4225 18.8284 13.1727C19.5786 13.9228 20 14.9402 20 16.0011C20.0058 20.1241 19.0976 24.197 17.3406 27.9269" stroke-width="2" stroke-linecap="round" stroke-linejoin="round"/>
<path d="M27.323 23.001C27.7765 20.6953 28.0043 18.3509 28.0031 16.001C28.0031 12.8184 26.7389 9.76619 24.4884 7.51576C22.238 5.26532 19.1857 4.00104 16.0031 4.00104C12.8205 4.00104 9.7683 5.26532 7.51786 7.51576C5.26743 9.76619 4.00315 12.8184 4.00315 16.001C4.00464 17.3635 3.77372 18.7163 3.32031 20.0011" stroke-width="2" stroke-linecap="round" stroke-linejoin="round"/>
<path d="M11.6003 20.001C11.1734 22.1038 10.4087 24.1234 9.33594 25.9816" stroke-width="2" stroke-linecap="round" stroke-linejoin="round"/>
<path d="M15 8.063C16.126 7.92217 17.2691 8.0223 18.3534 8.35676C19.4378 8.69121 20.4386 9.25235 21.2897 10.003C22.1407 10.7536 22.8224 11.6765 23.2897 12.7106C23.757 13.7447 23.9991 14.8663 24 16.0011C24.0003 17.3383 23.9176 18.6741 23.7524 20.001" stroke-width="2" stroke-linecap="round" stroke-linejoin="round"/>
<path d="M22.9914 24.001C22.801 24.7409 22.5851 25.4701 22.3438 26.1885" stroke-width="2" stroke-linecap="round" stroke-linejoin="round"/>
</svg>
