<svg viewBox="0 0 32 32" xmlns="http://www.w3.org/2000/svg">
<path d="M11.6458 15.3541C10.8749 13.4313 10.7916 11.3013 11.4098 9.32418C12.0281 7.34704 13.3101 5.64401 15.0391 4.50295C16.768 3.3619 18.838 2.85281 20.899 3.06173C22.96 3.27066 24.8856 4.18479 26.3504 5.6496C27.8152 7.11442 28.7294 9.04007 28.9383 11.1011C29.1472 13.1621 28.6381 15.232 27.497 16.961C26.356 18.6899 24.6529 19.9719 22.6758 20.5902C20.6987 21.2084 18.5687 21.1251 16.6459 20.3542L16.646 20.354L15 22H12V25H9V28H4V23L11.646 15.354L11.6458 15.3541Z" stroke-width="2" stroke-linecap="round" stroke-linejoin="round"/>
<path opacity="0.5" d="M22.5 10C22.7761 10 23 9.77614 23 9.5C23 9.22386 22.7761 9 22.5 9C22.2239 9 22 9.22386 22 9.5C22 9.77614 22.2239 10 22.5 10Z" stroke-width="2" stroke-linecap="round" stroke-linejoin="round"/>
<path d="M22.5 11C23.3284 11 24 10.3284 24 9.5C24 8.67157 23.3284 8 22.5 8C21.6716 8 21 8.67157 21 9.5C21 10.3284 21.6716 11 22.5 11Z"/>
</svg>
