<svg viewBox="0 0 32 32" xmlns="http://www.w3.org/2000/svg">
<path d="M16 28C22.6274 28 28 22.6274 28 16C28 9.37258 22.6274 4 16 4C9.37258 4 4 9.37258 4 16C4 22.6274 9.37258 28 16 28Z" stroke-width="2" stroke-linecap="round" stroke-linejoin="round"/>
<path d="M16 24C16.8284 24 17.5 23.3284 17.5 22.5C17.5 21.6716 16.8284 21 16 21C15.1716 21 14.5 21.6716 14.5 22.5C14.5 23.3284 15.1716 24 16 24Z"/>
<path d="M16 18.0006V17.0006C16.6922 17.0006 17.3689 16.7953 17.9445 16.4107C18.5201 16.0261 18.9687 15.4795 19.2336 14.8399C19.4985 14.2004 19.5678 13.4967 19.4327 12.8177C19.2977 12.1388 18.9644 11.5152 18.4749 11.0257C17.9854 10.5362 17.3618 10.2029 16.6828 10.0678C16.0039 9.93275 15.3001 10.0021 14.6606 10.267C14.0211 10.5319 13.4744 10.9805 13.0899 11.5561C12.7053 12.1316 12.5 12.8083 12.5 13.5006" stroke-width="2" stroke-linecap="round" stroke-linejoin="round"/>
</svg>
