<svg viewBox="0 0 32 32" xmlns="http://www.w3.org/2000/svg">
<path d="M5 14.3333V7C5 6.73478 5.10536 6.48043 5.29289 6.29289C5.48043 6.10536 5.73478 6 6 6H26C26.2652 6 26.5196 6.10536 26.7071 6.29289C26.8946 6.48043 27 6.73478 27 7V14.3333C27 24.8352 18.0868 28.3146 16.307 28.9047C16.1081 28.9731 15.8919 28.9731 15.693 28.9047C13.9133 28.3146 5 24.8352 5 14.3333Z" stroke-width="2" stroke-linecap="round" stroke-linejoin="round"/>
<path d="M16 12V17" stroke-width="2" stroke-linecap="round" stroke-linejoin="round"/>
<path d="M16 23C16.8284 23 17.5 22.3284 17.5 21.5C17.5 20.6716 16.8284 20 16 20C15.1716 20 14.5 20.6716 14.5 21.5C14.5 22.3284 15.1716 23 16 23Z"/>
</svg>
