<svg viewBox="0 0 24 24" xmlns="http://www.w3.org/2000/svg">
<g clip-path="url(#clip0_61_15317)">
<path d="M8.41136 14.9614C8.22136 14.9614 8.04136 14.9314 7.89136 14.8814C7.73136 14.8214 7.60136 14.7514 7.49136 14.6414C7.38136 14.5414 7.29136 14.4214 7.23136 14.2714C7.17136 14.1314 7.14136 13.9714 7.14136 13.8014H5.84136C5.84136 14.1614 5.91136 14.4814 6.05136 14.7514C6.19136 15.0214 6.38136 15.2514 6.61136 15.4414C6.85136 15.6214 7.12136 15.7614 7.43136 15.8514C7.73136 15.9514 8.05136 16.0014 8.39136 16.0014C8.76136 16.0014 9.11136 15.9514 9.42136 15.8514C9.74136 15.7514 10.0214 15.6014 10.2514 15.4114C10.4814 15.2214 10.6714 14.9814 10.8014 14.6914C10.9314 14.4014 11.0014 14.0814 11.0014 13.7214C11.0014 13.5314 10.9814 13.3414 10.9314 13.1614C10.8814 12.9814 10.8114 12.8114 10.7014 12.6514C10.6014 12.4914 10.4614 12.3514 10.3014 12.2214C10.1314 12.0914 9.93136 11.9914 9.69136 11.9114C9.89136 11.8214 10.0614 11.7114 10.2114 11.5814C10.3614 11.4514 10.4814 11.3114 10.5814 11.1614C10.6814 11.0114 10.7514 10.8614 10.8014 10.7014C10.8514 10.5414 10.8714 10.3814 10.8714 10.2214C10.8714 9.86143 10.8114 9.54143 10.6914 9.26143C10.5714 8.98143 10.4014 8.75142 10.1814 8.57142C9.98136 8.38142 9.71136 8.24143 9.41136 8.14143C9.10136 8.05143 8.76136 8.00142 8.39136 8.00142C8.03136 8.00142 7.70136 8.05142 7.39136 8.16142C7.09136 8.27142 6.82136 8.42142 6.60136 8.61142C6.39136 8.80142 6.22136 9.02142 6.09136 9.28142C5.97136 9.54142 5.91136 9.82142 5.91136 10.1314H7.21136C7.21136 9.96142 7.24136 9.81143 7.30136 9.68143C7.36136 9.55143 7.44136 9.43142 7.55136 9.34142C7.66136 9.25142 7.78136 9.17142 7.93136 9.12142C8.08136 9.07142 8.23136 9.04142 8.41136 9.04142C8.81136 9.04142 9.11136 9.14143 9.30136 9.35143C9.49136 9.55143 9.59136 9.84142 9.59136 10.2114C9.59136 10.3914 9.56136 10.5514 9.51136 10.7014C9.46136 10.8514 9.37136 10.9714 9.26136 11.0714C9.15136 11.1714 9.01136 11.2514 8.85136 11.3114C8.69136 11.3714 8.49136 11.4014 8.27136 11.4014H7.50136V12.4314H8.27136C8.49136 12.4314 8.69136 12.4514 8.87136 12.5014C9.05136 12.5514 9.20136 12.6314 9.32136 12.7314C9.44136 12.8414 9.54136 12.9714 9.61136 13.1314C9.68136 13.2914 9.71136 13.4814 9.71136 13.7014C9.71136 14.1114 9.59136 14.4214 9.36136 14.6314C9.13136 14.8614 8.81136 14.9614 8.41136 14.9614V14.9614ZM17.7114 10.2414C17.5314 9.77142 17.2814 9.37142 16.9614 9.04142C16.6414 8.71142 16.2614 8.45143 15.8214 8.27143C15.3914 8.09143 14.9014 8.00142 14.3614 8.00142H12.0014V16.0014H14.3014C14.8514 16.0014 15.3614 15.9114 15.8114 15.7314C16.2614 15.5514 16.6514 15.3014 16.9714 14.9714C17.2914 14.6414 17.5414 14.2414 17.7114 13.7814C17.8814 13.3114 17.9714 12.7914 17.9714 12.2114V11.8114C17.9714 11.2314 17.8814 10.7114 17.7114 10.2414V10.2414ZM16.5814 12.2014C16.5814 12.6214 16.5314 12.9914 16.4414 13.3314C16.3414 13.6614 16.2014 13.9514 16.0114 14.1814C15.8214 14.4114 15.5814 14.5914 15.3014 14.7114C15.0114 14.8314 14.6814 14.8914 14.3114 14.8914H13.4014V9.11142H14.3714C15.0914 9.11142 15.6414 9.34142 16.0114 9.80142C16.3914 10.2614 16.5814 10.9214 16.5814 11.7914V12.2014V12.2014ZM15.1514 3.84142L16.4814 2.51142C19.5714 3.97142 21.8214 6.88142 22.3714 10.3714C22.4314 10.7814 22.8114 11.0614 23.2314 10.9914C23.6414 10.9314 23.9214 10.5414 23.8514 10.1314C23.2514 6.32142 20.8914 3.12142 17.6114 1.38142C15.9414 0.491424 13.7814 -0.128576 11.3414 0.0214245L15.1514 3.84142V3.84142ZM8.85136 20.1514L7.52136 21.4814C4.43136 20.0214 2.18136 17.1114 1.63136 13.6214C1.57136 13.2114 1.19136 12.9314 0.771356 13.0014C0.361356 13.0614 0.0813561 13.4514 0.151356 13.8614C0.751356 17.6714 3.11136 20.8714 6.39136 22.6114C8.06136 23.5014 10.2214 24.1214 12.6614 23.9714L8.85136 20.1514V20.1514Z"/>
</g>
<defs>
<clipPath id="clip0_61_15317">
<rect transform="translate(0 0.000976562)"/>
</clipPath>
</defs>
</svg>
