<svg viewBox="0 0 24 24" xmlns="http://www.w3.org/2000/svg">
<g clip-path="url(#clip0_61_15319)">
<path d="M20.7503 6.99098C20.6103 6.44098 20.0603 6.12098 19.5103 6.24098C17.1303 6.77098 14.4803 7.00098 12.0003 7.00098C9.52027 7.00098 6.87027 6.77098 4.49027 6.24098C3.94027 6.12098 3.39027 6.44098 3.25027 6.99098C3.11027 7.55098 3.45027 8.12098 4.00027 8.25098C5.61027 8.61098 7.35027 8.86098 9.00027 9.00098V21.001C9.00027 21.551 9.45027 22.001 10.0003 22.001C10.5503 22.001 11.0003 21.551 11.0003 21.001V16.001H13.0003V21.001C13.0003 21.551 13.4503 22.001 14.0003 22.001C14.5503 22.001 15.0003 21.551 15.0003 21.001V9.00098C16.6503 8.86098 18.3903 8.61098 19.9903 8.25098C20.5503 8.12098 20.8903 7.55098 20.7503 6.99098V6.99098ZM12.0003 6.00098C13.1003 6.00098 14.0003 5.10098 14.0003 4.00098C14.0003 2.90098 13.1003 2.00098 12.0003 2.00098C10.9003 2.00098 10.0003 2.90098 10.0003 4.00098C10.0003 5.10098 10.9003 6.00098 12.0003 6.00098Z"/>
</g>
<defs>
<clipPath id="clip0_61_15319">
<rect transform="translate(0 0.000976562)"/>
</clipPath>
</defs>
</svg>
