<svg   viewBox="0 0 24 24" fill="none" xmlns="http://www.w3.org/2000/svg">
<g clip-path="url(#clip0_61_15320)">
<path d="M12 6.00098C13.1046 6.00098 14 5.10555 14 4.00098C14 2.89641 13.1046 2.00098 12 2.00098C10.8954 2.00098 10 2.89641 10 4.00098C10 5.10555 10.8954 6.00098 12 6.00098Z" fill="black"/>
<path d="M19 11.9009C19 11.4109 18.64 11.0109 18.16 10.9309C16.91 10.7209 15.73 10.0509 14.93 9.17089L13.64 7.74089C13.47 7.55089 13.26 7.40089 13.03 7.29089C13.02 7.29089 13.02 7.28089 13.01 7.28089H13C12.63 7.07089 12.22 6.97089 11.75 7.03089C10.73 7.15089 10 8.07089 10 9.10089V15.0009C10 16.1009 10.9 17.0009 12 17.0009H17V21.0009C17 21.5509 17.45 22.0009 18 22.0009C18.55 22.0009 19 21.5509 19 21.0009V16.5009C19 15.4009 18.1 14.5009 17 14.5009H14V11.0509C15 11.8809 16.4 12.5909 17.8 12.8709C18.42 13.0009 19 12.5309 19 11.9009ZM12.83 18.0009C12.42 19.1609 11.31 20.0009 10 20.0009C8.34 20.0009 7 18.6609 7 17.0009C7 15.6909 7.84 14.5909 9 14.1709V12.1009C6.72 12.5609 5 14.5809 5 17.0009C5 19.7609 7.24 22.0009 10 22.0009C12.42 22.0009 14.44 20.2809 14.9 18.0009H12.83Z" fill="black"/>
</g>
<defs>
<clipPath id="clip0_61_15320">
<rect width="24" height="24" fill="white" transform="translate(0 0.000976562)"/>
</clipPath>
</defs>
</svg>
