<svg   viewBox="0 0 24 24" fill="none" xmlns="http://www.w3.org/2000/svg">
<g clip-path="url(#clip0_61_15321)">
<path d="M18 6.54102C19.1046 6.54102 20 5.64559 20 4.54102C20 3.43645 19.1046 2.54102 18 2.54102C16.8954 2.54102 16 3.43645 16 4.54102C16 5.64559 16.8954 6.54102 18 6.54102Z" fill="black"/>
<path d="M15 17.001H13C13 18.651 11.65 20.001 10 20.001C8.35 20.001 7 18.651 7 17.001C7 15.351 8.35 14.001 10 14.001V12.001C7.24 12.001 5 14.241 5 17.001C5 19.761 7.24 22.001 10 22.001C12.76 22.001 15 19.761 15 17.001ZM18 13.501H16.14L17.81 9.83098C18.42 8.50098 17.44 7.00098 15.96 7.00098H10.76C9.95 7.00098 9.22 7.47098 8.89 8.20098L8.61 8.96098C8.4 9.52098 8.72 10.131 9.29 10.291C9.78 10.431 10.29 10.181 10.49 9.71098L10.79 9.00098H13L11.17 13.101C10.57 14.431 11.56 16.001 13.02 16.001H18V20.001C18 20.551 18.45 21.001 19 21.001C19.55 21.001 20 20.551 20 20.001V15.501C20 14.401 19.1 13.501 18 13.501Z" fill="black"/>
</g>
<defs>
<clipPath id="clip0_61_15321">
<rect width="24" height="24" fill="white" transform="translate(0 0.000976562)"/>
</clipPath>
</defs>
</svg>
