<svg   viewBox="0 0 24 24" fill="none" xmlns="http://www.w3.org/2000/svg">
<g clip-path="url(#clip0_61_15318)">
<path d="M12 2.00098C13.1 2.00098 14 2.90098 14 4.00098C14 5.10098 13.1 6.00098 12 6.00098C10.9 6.00098 10 5.10098 10 4.00098C10 2.90098 10.9 2.00098 12 2.00098ZM20 9.00098H15V21.001C15 21.551 14.55 22.001 14 22.001C13.45 22.001 13 21.551 13 21.001V16.001H11V21.001C11 21.551 10.55 22.001 10 22.001C9.45 22.001 9 21.551 9 21.001V9.00098H4C3.45 9.00098 3 8.55098 3 8.00098C3 7.45098 3.45 7.00098 4 7.00098H20C20.55 7.00098 21 7.45098 21 8.00098C21 8.55098 20.55 9.00098 20 9.00098Z" fill="black"/>
</g>
<defs>
<clipPath id="clip0_61_15318">
<rect width="24" height="24" fill="white" transform="translate(0 0.000976562)"/>
</clipPath>
</defs>
</svg>
