<svg viewBox="0 0 24 24" xmlns="http://www.w3.org/2000/svg">
<g clip-path="url(#clip0_61_15325)">
<path d="M12 2.00098C6.48 2.00098 2 6.48098 2 12.001C2 17.521 6.48 22.001 12 22.001C17.52 22.001 22 17.521 22 12.001C22 6.48098 17.52 2.00098 12 2.00098ZM12 5.00098C13.66 5.00098 15 6.34098 15 8.00098C15 9.66098 13.66 11.001 12 11.001C10.34 11.001 9 9.66098 9 8.00098C9 6.34098 10.34 5.00098 12 5.00098ZM12 19.201C9.5 19.201 7.29 17.921 6 15.981C6.03 13.991 10 12.901 12 12.901C13.99 12.901 17.97 13.991 18 15.981C16.71 17.921 14.5 19.201 12 19.201Z"/>
</g>
<defs>
<clipPath id="clip0_61_15325">
<rect transform="translate(0 0.000976562)"/>
</clipPath>
</defs>
</svg>
