<svg   viewBox="0 0 24 24" fill="none" xmlns="http://www.w3.org/2000/svg">
<g clip-path="url(#clip0_61_15323)">
<path d="M10 16.001V8.00098C10 6.90098 10.89 6.00098 12 6.00098H21V5.00098C21 3.90098 20.1 3.00098 19 3.00098H5C3.89 3.00098 3 3.90098 3 5.00098V19.001C3 20.101 3.89 21.001 5 21.001H19C20.1 21.001 21 20.101 21 19.001V18.001H12C10.89 18.001 10 17.101 10 16.001ZM13 8.00098C12.45 8.00098 12 8.45098 12 9.00098V15.001C12 15.551 12.45 16.001 13 16.001H22V8.00098H13ZM16 13.501C15.17 13.501 14.5 12.831 14.5 12.001C14.5 11.171 15.17 10.501 16 10.501C16.83 10.501 17.5 11.171 17.5 12.001C17.5 12.831 16.83 13.501 16 13.501Z" fill="black"/>
</g>
<defs>
<clipPath id="clip0_61_15323">
<rect width="24" height="24" fill="white" transform="translate(0 0.000976562)"/>
</clipPath>
</defs>
</svg>
