<svg viewBox="0 0 24 24" xmlns="http://www.w3.org/2000/svg">
<g clip-path="url(#clip0_61_15322)">
<path d="M4 11.5013V15.5013C4 16.3313 4.67 17.0013 5.5 17.0013C6.33 17.0013 7 16.3313 7 15.5013V11.5013C7 10.6713 6.33 10.0013 5.5 10.0013C4.67 10.0013 4 10.6713 4 11.5013ZM10 11.5013V15.5013C10 16.3313 10.67 17.0013 11.5 17.0013C12.33 17.0013 13 16.3313 13 15.5013V11.5013C13 10.6713 12.33 10.0013 11.5 10.0013C10.67 10.0013 10 10.6713 10 11.5013ZM3.5 22.0013H19.5C20.33 22.0013 21 21.3313 21 20.5013C21 19.6713 20.33 19.0013 19.5 19.0013H3.5C2.67 19.0013 2 19.6713 2 20.5013C2 21.3313 2.67 22.0013 3.5 22.0013ZM16 11.5013V15.5013C16 16.3313 16.67 17.0013 17.5 17.0013C18.33 17.0013 19 16.3313 19 15.5013V11.5013C19 10.6713 18.33 10.0013 17.5 10.0013C16.67 10.0013 16 10.6713 16 11.5013ZM10.57 1.49129L2.67 5.65129C2.26 5.86129 2 6.29129 2 6.75129C2 7.44129 2.56 8.00129 3.25 8.00129H19.76C20.44 8.00129 21 7.44129 21 6.75129C21 6.29129 20.74 5.86129 20.33 5.65129L12.43 1.49129C11.85 1.18129 11.15 1.18129 10.57 1.49129V1.49129Z"/>
</g>
<defs>
<clipPath id="clip0_61_15322">
<rect transform="translate(0 0.000976562)"/>
</clipPath>
</defs>
</svg>
