<svg viewBox="0 0 24 24" xmlns="http://www.w3.org/2000/svg">
<g clip-path="url(#clip0_61_15327)">
<path d="M12 9.00098C12.55 9.00098 13 8.55098 13 8.00098V6.00098H15C15.55 6.00098 16 5.55098 16 5.00098C16 4.45098 15.55 4.00098 15 4.00098H13V2.00098C13 1.45098 12.55 1.00098 12 1.00098C11.45 1.00098 11 1.45098 11 2.00098V4.00098H9C8.45 4.00098 8 4.45098 8 5.00098C8 5.55098 8.45 6.00098 9 6.00098H11V8.00098C11 8.55098 11.45 9.00098 12 9.00098ZM7 18.001C5.9 18.001 5.01 18.901 5.01 20.001C5.01 21.101 5.9 22.001 7 22.001C8.1 22.001 9 21.101 9 20.001C9 18.901 8.1 18.001 7 18.001ZM17 18.001C15.9 18.001 15.01 18.901 15.01 20.001C15.01 21.101 15.9 22.001 17 22.001C18.1 22.001 19 21.101 19 20.001C19 18.901 18.1 18.001 17 18.001ZM8.1 13.001H15.55C16.3 13.001 16.96 12.591 17.3 11.971L20.68 5.84098C20.95 5.36098 20.77 4.75098 20.29 4.48098C19.81 4.22098 19.2 4.39098 18.94 4.87098L15.55 11.001H8.53L4.54 2.57098C4.38 2.22098 4.02 2.00098 3.64 2.00098H2C1.45 2.00098 1 2.45098 1 3.00098C1 3.55098 1.45 4.00098 2 4.00098H3L6.6 11.591L5.25 14.031C4.52 15.371 5.48 17.001 7 17.001H18C18.55 17.001 19 16.551 19 16.001C19 15.451 18.55 15.001 18 15.001H7L8.1 13.001Z"/>
</g>
<defs>
<clipPath id="clip0_61_15327">
<rect transform="translate(0 0.000976562)"/>
</clipPath>
</defs>
</svg>
