<svg   viewBox="0 0 24 24" fill="none" xmlns="http://www.w3.org/2000/svg">
<g clip-path="url(#clip0_61_15328)">
<path d="M21.2891 5.89117L11.2891 15.8912C10.8991 16.2812 10.2691 16.2812 9.87915 15.8912L7.04915 13.0612C6.65915 12.6712 6.65915 12.0412 7.04915 11.6512C7.43915 11.2612 8.06915 11.2612 8.45915 11.6512L10.5791 13.7712L19.8691 4.48117C20.2591 4.09117 20.8891 4.09117 21.2791 4.48117C21.6791 4.87117 21.6791 5.50117 21.2891 5.89117ZM11.9991 20.0012C7.28915 20.0012 3.51915 15.9112 4.04915 11.1012C4.43915 7.58117 7.16915 4.69117 10.6591 4.11117C12.4691 3.81117 14.1891 4.13117 15.6491 4.89117C16.0391 5.09117 16.5091 5.02117 16.8191 4.71117C17.2991 4.23117 17.1791 3.42117 16.5791 3.11117C15.1091 2.36117 13.4491 1.95117 11.6791 2.00117C6.53915 2.16117 2.26915 6.34117 2.00915 11.4712C1.71915 17.2412 6.29915 22.0012 11.9991 22.0012C13.1991 22.0012 14.3391 21.7912 15.4091 21.4012C16.0891 21.1512 16.2791 20.2712 15.7591 19.7512C15.4891 19.4812 15.0791 19.3812 14.7191 19.5212C13.8691 19.8312 12.9491 20.0012 11.9991 20.0012ZM18.9991 15.0012H16.9991C16.4491 15.0012 15.9991 15.4512 15.9991 16.0012C15.9991 16.5512 16.4491 17.0012 16.9991 17.0012H18.9991V19.0012C18.9991 19.5512 19.4491 20.0012 19.9991 20.0012C20.5491 20.0012 20.9991 19.5512 20.9991 19.0012V17.0012H22.9991C23.5491 17.0012 23.9991 16.5512 23.9991 16.0012C23.9991 15.4512 23.5491 15.0012 22.9991 15.0012H20.9991V13.0012C20.9991 12.4512 20.5491 12.0012 19.9991 12.0012C19.4491 12.0012 18.9991 12.4512 18.9991 13.0012V15.0012Z" fill="black"/>
</g>
<defs>
<clipPath id="clip0_61_15328">
<rect width="24" height="24" fill="white" transform="translate(0 0.000976562)"/>
</clipPath>
</defs>
</svg>
