<svg   viewBox="0 0 24 24" fill="none" xmlns="http://www.w3.org/2000/svg">
<g clip-path="url(#clip0_61_15326)">
<path d="M11 10.001C11 9.45098 11.45 9.00098 12 9.00098C12.55 9.00098 13 9.45098 13 10.001V17.001H11V10.001ZM20 13.001C19.45 13.001 19 13.451 19 14.001V19.001H5V5.00098H10C10.55 5.00098 11 4.55098 11 4.00098C11 3.45098 10.55 3.00098 10 3.00098H5C3.9 3.00098 3 3.90098 3 5.00098V19.001C3 20.101 3.9 21.001 5 21.001H19C20.1 21.001 21 20.101 21 19.001V14.001C21 13.451 20.55 13.001 20 13.001ZM21 5.00098H19V3.00098C19 2.45098 18.55 2.00098 18 2.00098C17.45 2.00098 17 2.45098 17 3.00098V5.00098H15C14.45 5.00098 14 5.45098 14 6.00098C14 6.55098 14.45 7.00098 15 7.00098H17V9.00098C17 9.55098 17.45 10.001 18 10.001C18.55 10.001 19 9.55098 19 9.00098V7.00098H21C21.55 7.00098 22 6.55098 22 6.00098C22 5.45098 21.55 5.00098 21 5.00098ZM16 13.001C15.45 13.001 15 13.451 15 14.001V17.001H17V14.001C17 13.451 16.55 13.001 16 13.001ZM7 12.001V17.001H9V12.001C9 11.451 8.55 11.001 8 11.001C7.45 11.001 7 11.451 7 12.001Z" fill="black"/>
</g>
<defs>
<clipPath id="clip0_61_15326">
<rect width="24" height="24" fill="white" transform="translate(0 0.000976562)"/>
</clipPath>
</defs>
</svg>
