<svg   viewBox="0 0 24 24" fill="none" xmlns="http://www.w3.org/2000/svg">
<g clip-path="url(#clip0_61_15329)">
<path d="M17 11.0005C17.34 11.0005 17.67 11.0405 18 11.0905V7.58055C18 6.78055 17.53 6.06055 16.8 5.75055L11.3 3.35055C10.79 3.13055 10.21 3.13055 9.7 3.35055L4.2 5.75055C3.47 6.07055 3 6.79055 3 7.58055V11.1805C3 15.7205 6.2 19.9705 10.5 21.0005C11.05 20.8705 11.58 20.6805 12.1 20.4505C11.41 19.4705 11 18.2805 11 17.0005C11 13.6905 13.69 11.0005 17 11.0005Z" fill="black"/>
<path d="M17 13.001C14.79 13.001 13 14.791 13 17.001C13 19.211 14.79 21.001 17 21.001C19.21 21.001 21 19.211 21 17.001C21 14.791 19.21 13.001 17 13.001ZM17 14.381C17.62 14.381 18.12 14.891 18.12 15.501C18.12 16.111 17.61 16.621 17 16.621C16.39 16.621 15.88 16.111 15.88 15.501C15.88 14.891 16.38 14.381 17 14.381ZM17 19.751C16.07 19.751 15.26 19.291 14.76 18.581C14.81 17.861 16.27 17.501 17 17.501C17.73 17.501 19.19 17.861 19.24 18.581C18.74 19.291 17.93 19.751 17 19.751Z" fill="black"/>
</g>
<defs>
<clipPath id="clip0_61_15329">
<rect width="24" height="24" fill="white" transform="translate(0 0.000976562)"/>
</clipPath>
</defs>
</svg>
