<svg   viewBox="0 0 24 24" fill="none" xmlns="http://www.w3.org/2000/svg">
<g clip-path="url(#clip0_61_15331)">
<path d="M21.1812 5.01112L18.1012 2.45112C17.6812 2.10112 17.0512 2.15112 16.6912 2.58112C16.3412 3.00112 16.4012 3.63112 16.8212 3.99112L19.8912 6.55112C20.3112 6.90112 20.9412 6.85112 21.3012 6.42112C21.6612 6.00112 21.6012 5.37112 21.1812 5.01112V5.01112ZM4.10123 6.55112L7.17123 3.99112C7.60123 3.63112 7.66123 3.00112 7.30123 2.58112C6.95123 2.15112 6.32123 2.10112 5.90123 2.45112L2.82123 5.01112C2.40123 5.37112 2.34123 6.00112 2.70123 6.42112C3.05123 6.85112 3.68123 6.90112 4.10123 6.55112ZM12.0012 4.00112C7.03123 4.00112 3.00123 8.03112 3.00123 13.0011C3.00123 17.9711 7.03123 22.0011 12.0012 22.0011C16.9712 22.0011 21.0012 17.9711 21.0012 13.0011C21.0012 8.03112 16.9712 4.00112 12.0012 4.00112ZM12.0012 20.0011C8.14123 20.0011 5.00123 16.8611 5.00123 13.0011C5.00123 9.14112 8.14123 6.00112 12.0012 6.00112C15.8612 6.00112 19.0012 9.14112 19.0012 13.0011C19.0012 16.8611 15.8612 20.0011 12.0012 20.0011ZM15.0012 12.0011H13.0012V10.0011C13.0012 9.45112 12.5512 9.00112 12.0012 9.00112C11.4512 9.00112 11.0012 9.45112 11.0012 10.0011V12.0011H9.00123C8.45123 12.0011 8.00123 12.4511 8.00123 13.0011C8.00123 13.5511 8.45123 14.0011 9.00123 14.0011H11.0012V16.0011C11.0012 16.5511 11.4512 17.0011 12.0012 17.0011C12.5512 17.0011 13.0012 16.5511 13.0012 16.0011V14.0011H15.0012C15.5512 14.0011 16.0012 13.5511 16.0012 13.0011C16.0012 12.4511 15.5512 12.0011 15.0012 12.0011Z" fill="black"/>
</g>
<defs>
<clipPath id="clip0_61_15331">
<rect width="24" height="24" fill="white" transform="translate(0 0.000976562)"/>
</clipPath>
</defs>
</svg>
