<svg   viewBox="0 0 24 24" fill="none" xmlns="http://www.w3.org/2000/svg">
<g clip-path="url(#clip0_61_15332)">
<path d="M10.0403 6.2909C10.6603 6.1109 11.3203 6.0009 12.0003 6.0009C15.8603 6.0009 19.0003 9.1409 19.0003 13.0009C19.0003 13.6809 18.8903 14.3409 18.7103 14.9609L20.2703 16.5209C20.7403 15.4409 21.0003 14.2509 21.0003 13.0009C21.0003 8.0309 16.9703 4.0009 12.0003 4.0009C10.7503 4.0009 9.56031 4.2609 8.47031 4.7209L10.0403 6.2909V6.2909ZM3.71031 2.7909C3.33031 2.4109 2.71031 2.4109 2.32031 2.7909L2.30031 2.8209C1.91031 3.2109 1.91031 3.8309 2.30031 4.2109L2.98031 4.8909L2.81031 5.0309C2.39031 5.3709 2.34031 5.9909 2.68031 6.4109L2.71031 6.4409C3.06031 6.8609 3.67031 6.9109 4.09031 6.5609L4.40031 6.3109L5.20031 7.1109C3.83031 8.6909 3.00031 10.7509 3.00031 13.0009C3.00031 17.9709 7.03031 22.0009 12.0003 22.0009C14.2503 22.0009 16.3103 21.1709 17.8903 19.8009L19.3003 21.2109C19.6803 21.5909 20.3003 21.5909 20.6903 21.2109L20.7203 21.1809C21.1003 20.8009 21.1003 20.1809 20.7203 19.7909L3.71031 2.7909V2.7909ZM12.0003 20.0009C8.14031 20.0009 5.00031 16.8609 5.00031 13.0009C5.00031 11.3009 5.61031 9.7409 6.62031 8.5309L16.4703 18.3809C15.2603 19.3909 13.7003 20.0009 12.0003 20.0009ZM19.9103 6.5609C20.3303 6.9109 20.9403 6.8509 21.2903 6.4409L21.3203 6.4109C21.6703 5.9909 21.6103 5.3809 21.2003 5.0309L18.1003 2.4409C17.6803 2.0909 17.0703 2.1509 16.7203 2.5609L16.6903 2.5909C16.3403 3.0109 16.4003 3.6209 16.8103 3.9709L19.9103 6.5609ZM7.43031 3.6809C7.61031 3.3409 7.58031 2.9109 7.32031 2.5909L7.29031 2.5609C6.99031 2.2009 6.49031 2.1309 6.09031 2.3409L7.43031 3.6809V3.6809Z" fill="black"/>
</g>
<defs>
<clipPath id="clip0_61_15332">
<rect width="24" height="24" fill="white" transform="translate(0 0.000976562)"/>
</clipPath>
</defs>
</svg>
