<svg viewBox="0 0 24 24" xmlns="http://www.w3.org/2000/svg">
<g clip-path="url(#clip0_61_15335)">
<path d="M4 4.50098V8.00098L8 4.00098H4.5C4.22 4.00098 4 4.22098 4 4.50098ZM16 4.00098L20 8.00098V4.50098C20 4.22098 19.78 4.00098 19.5 4.00098H16ZM20 19.501V16.001L16 20.001H19.5C19.78 20.001 20 19.781 20 19.501ZM4.5 20.001H8L4 16.001V19.501C4 19.781 4.22 20.001 4.5 20.001ZM19 12.001C19 8.13098 15.87 5.00098 12 5.00098C8.13 5.00098 5 8.13098 5 12.001C5 15.871 8.13 19.001 12 19.001C15.87 19.001 19 15.871 19 12.001ZM12 17.001C9.24 17.001 7 14.761 7 12.001C7 9.24098 9.24 7.00098 12 7.00098C14.76 7.00098 17 9.24098 17 12.001C17 14.761 14.76 17.001 12 17.001Z"/>
</g>
<defs>
<clipPath id="clip0_61_15335">
<rect transform="translate(0 0.000976562)"/>
</clipPath>
</defs>
</svg>
