<svg   viewBox="0 0 24 24" fill="none" xmlns="http://www.w3.org/2000/svg">
<g clip-path="url(#clip0_61_15334)">
<path d="M19 3.00098H5C3.9 3.00098 3 3.90098 3 5.00098V12.001C3 13.101 3.9 14.001 5 14.001H19C20.1 14.001 21 13.101 21 12.001V5.00098C21 3.90098 20.1 3.00098 19 3.00098ZM19 9.00098H15.86C15.39 9.00098 15.02 9.33098 14.89 9.78098C14.53 11.041 13.35 12.001 12 12.001C10.65 12.001 9.47 11.041 9.11 9.78098C8.98 9.33098 8.61 9.00098 8.14 9.00098H5V6.00098C5 5.45098 5.45 5.00098 6 5.00098H18C18.55 5.00098 19 5.45098 19 6.00098V9.00098ZM15.87 16.001H20C20.55 16.001 21 16.451 21 17.001V19.001C21 20.101 20.1 21.001 19 21.001H5C3.9 21.001 3 20.101 3 19.001V17.001C3 16.451 3.45 16.001 4 16.001H8.13C8.6 16.001 8.98 16.341 9.11 16.801C9.46 18.071 10.62 19.001 12 19.001C13.38 19.001 14.54 18.071 14.89 16.801C15.02 16.341 15.4 16.001 15.87 16.001Z" fill="black"/>
</g>
<defs>
<clipPath id="clip0_61_15334">
<rect width="24" height="24" fill="white" transform="translate(0 0.000976562)"/>
</clipPath>
</defs>
</svg>
