<svg   viewBox="0 0 24 24" fill="none" xmlns="http://www.w3.org/2000/svg">
<g clip-path="url(#clip0_61_15336)">
<path d="M19 3.00098H5C3.9 3.00098 3 3.90098 3 5.00098V19.001C3 20.101 3.9 21.001 5 21.001H19C20.1 21.001 21 20.101 21 19.001V5.00098C21 3.90098 20.1 3.00098 19 3.00098ZM8 17.001C7.45 17.001 7 16.551 7 16.001V13.001C7 12.451 7.45 12.001 8 12.001C8.55 12.001 9 12.451 9 13.001V16.001C9 16.551 8.55 17.001 8 17.001ZM12 17.001C11.45 17.001 11 16.551 11 16.001V15.001C11 14.451 11.45 14.001 12 14.001C12.55 14.001 13 14.451 13 15.001V16.001C13 16.551 12.55 17.001 12 17.001ZM12 12.001C11.45 12.001 11 11.551 11 11.001C11 10.451 11.45 10.001 12 10.001C12.55 10.001 13 10.451 13 11.001C13 11.551 12.55 12.001 12 12.001ZM16 17.001C15.45 17.001 15 16.551 15 16.001V8.00098C15 7.45098 15.45 7.00098 16 7.00098C16.55 7.00098 17 7.45098 17 8.00098V16.001C17 16.551 16.55 17.001 16 17.001Z" fill="black"/>
</g>
<defs>
<clipPath id="clip0_61_15336">
<rect width="24" height="24" fill="white" transform="translate(0 0.000976562)"/>
</clipPath>
</defs>
</svg>
