<svg   viewBox="0 0 24 24" fill="none" xmlns="http://www.w3.org/2000/svg">
<g clip-path="url(#clip0_61_15337)">
<path d="M13 9.00098V7.82098C14.16 7.40098 15 6.30098 15 5.00098C15 3.35098 13.65 2.00098 12 2.00098C10.35 2.00098 9 3.35098 9 5.00098C9 6.30098 9.84 7.40098 11 7.82098V9.00098H9C8.45 9.00098 8 9.45098 8 10.001C8 10.551 8.45 11.001 9 11.001H11V19.921C8.78 19.591 6.41 18.241 5.45 16.551L6.59 15.411C6.81 15.191 6.78 14.841 6.54 14.661L3.8 12.601C3.47 12.351 3 12.591 3 13.001V15.001C3 18.881 7.92 22.001 12 22.001C16.08 22.001 21 18.881 21 15.001V13.001C21 12.591 20.53 12.351 20.2 12.601L17.46 14.651C17.22 14.831 17.19 15.191 17.41 15.401L18.55 16.541C17.59 18.231 15.22 19.581 13 19.911V11.001H15C15.55 11.001 16 10.551 16 10.001C16 9.45098 15.55 9.00098 15 9.00098H13ZM12 4.00098C12.55 4.00098 13 4.45098 13 5.00098C13 5.55098 12.55 6.00098 12 6.00098C11.45 6.00098 11 5.55098 11 5.00098C11 4.45098 11.45 4.00098 12 4.00098Z" fill="black"/>
</g>
<defs>
<clipPath id="clip0_61_15337">
<rect width="24" height="24" fill="white" transform="translate(0 0.000976562)"/>
</clipPath>
</defs>
</svg>
