<svg viewBox="0 0 24 24" xmlns="http://www.w3.org/2000/svg">
<g clip-path="url(#clip0_61_15338)">
<path d="M6 18.001C6 18.551 6.45 19.001 7 19.001H8V22.501C8 23.331 8.67 24.001 9.5 24.001C10.33 24.001 11 23.331 11 22.501V19.001H13V22.501C13 23.331 13.67 24.001 14.5 24.001C15.33 24.001 16 23.331 16 22.501V19.001H17C17.55 19.001 18 18.551 18 18.001V8.00098H6V18.001ZM3.5 8.00098C2.67 8.00098 2 8.67098 2 9.50098V16.501C2 17.331 2.67 18.001 3.5 18.001C4.33 18.001 5 17.331 5 16.501V9.50098C5 8.67098 4.33 8.00098 3.5 8.00098ZM20.5 8.00098C19.67 8.00098 19 8.67098 19 9.50098V16.501C19 17.331 19.67 18.001 20.5 18.001C21.33 18.001 22 17.331 22 16.501V9.50098C22 8.67098 21.33 8.00098 20.5 8.00098ZM15.53 2.16098L16.83 0.860977C17.03 0.660977 17.03 0.350977 16.83 0.150977C16.63 -0.0490234 16.32 -0.0490234 16.12 0.150977L14.64 1.63098C13.85 1.23098 12.95 1.00098 12 1.00098C11.04 1.00098 10.14 1.23098 9.34 1.63098L7.85 0.150977C7.65 -0.0490234 7.34 -0.0490234 7.14 0.150977C6.94 0.350977 6.94 0.660977 7.14 0.860977L8.45 2.17098C6.97 3.26098 6 5.01098 6 7.00098H18C18 5.01098 17.03 3.25098 15.53 2.16098V2.16098ZM10 5.00098H9V4.00098H10V5.00098ZM15 5.00098H14V4.00098H15V5.00098Z"/>
</g>
<defs>
<clipPath id="clip0_61_15338">
<rect transform="translate(0 0.000976562)"/>
</clipPath>
</defs>
</svg>
