<svg viewBox="0 0 24 24" xmlns="http://www.w3.org/2000/svg">
<g clip-path="url(#clip0_61_15339)">
<path d="M20 2.00098H4C2.9 2.00098 2 2.90098 2 4.00098V22.001L6 18.001H20C21.1 18.001 22 17.101 22 16.001V4.00098C22 2.90098 21.1 2.00098 20 2.00098ZM12 11.001C11.45 11.001 11 10.551 11 10.001V6.00098C11 5.45098 11.45 5.00098 12 5.00098C12.55 5.00098 13 5.45098 13 6.00098V10.001C13 10.551 12.55 11.001 12 11.001ZM13 15.001H11V13.001H13V15.001Z"/>
</g>
<defs>
<clipPath id="clip0_61_15339">
<rect transform="translate(0 0.000976562)"/>
</clipPath>
</defs>
</svg>
