<svg viewBox="0 0 24 24" xmlns="http://www.w3.org/2000/svg">
<g clip-path="url(#clip0_61_15340)">
<path d="M13.0009 13.0009C12.4409 13.5609 11.5509 13.5609 11.0009 13.0109V13.0009C10.4509 12.4509 10.4509 11.5609 11.0009 11.0109V11.0009C11.5509 10.4509 12.4409 10.4509 12.9909 11.0009H13.0009C13.5509 11.5509 13.5509 12.4509 13.0009 13.0009ZM12.0009 6.00094L14.1209 8.12094L16.6209 5.62094L13.4209 2.42094C12.6409 1.64094 11.3709 1.64094 10.5909 2.42094L7.39094 5.62094L9.89094 8.12094L12.0009 6.00094ZM6.00094 12.0009L8.12094 9.88094L5.62094 7.38094L2.42094 10.5809C1.64094 11.3609 1.64094 12.6309 2.42094 13.4109L5.62094 16.6109L8.12094 14.1109L6.00094 12.0009ZM18.0009 12.0009L15.8809 14.1209L18.3809 16.6209L21.5809 13.4209C22.3609 12.6409 22.3609 11.3709 21.5809 10.5909L18.3809 7.39094L15.8809 9.89094L18.0009 12.0009ZM12.0009 18.0009L9.88094 15.8809L7.38094 18.3809L10.5809 21.5809C11.3609 22.3609 12.6309 22.3609 13.4109 21.5809L16.6109 18.3809L14.1109 15.8809L12.0009 18.0009Z"/>
</g>
<defs>
<clipPath id="clip0_61_15340">
<rect transform="translate(0 0.000976562)"/>
</clipPath>
</defs>
</svg>
