<svg   viewBox="0 0 24 24" fill="none" xmlns="http://www.w3.org/2000/svg">
<g clip-path="url(#clip0_61_15341)">
<path d="M18 8.00098C15.79 8.00098 14 9.79098 14 12.001C14 14.211 15.79 16.001 18 16.001C20.21 16.001 22 14.211 22 12.001C22 9.79098 20.21 8.00098 18 8.00098ZM15.5 12.001C15.5 10.621 16.62 9.50098 18 9.50098C18.42 9.50098 18.8 9.61098 19.15 9.79098L15.79 13.151C15.61 12.801 15.5 12.421 15.5 12.001ZM18 14.501C17.58 14.501 17.2 14.391 16.85 14.211L20.21 10.851C20.39 11.201 20.5 11.581 20.5 12.001C20.5 13.381 19.38 14.501 18 14.501Z" fill="black"/>
<path d="M17 18.001H7V6.00098H17V7.00098H19V6.00098V5.00098V3.00098C19 1.90098 18.1 1.00098 17 1.00098H7C5.9 1.00098 5 1.90098 5 3.00098V21.001C5 22.101 5.9 23.001 7 23.001H17C18.1 23.001 19 22.101 19 21.001V19.001V18.001V17.001H17V18.001Z" fill="black"/>
</g>
<defs>
<clipPath id="clip0_61_15341">
<rect width="24" height="24" fill="white" transform="translate(0 0.000976562)"/>
</clipPath>
</defs>
</svg>
