<svg viewBox="0 0 24 24" xmlns="http://www.w3.org/2000/svg">
<g clip-path="url(#clip0_61_15342)">
<path d="M12 4.00098C16.41 4.00098 20 7.59098 20 12.001C20 16.411 16.41 20.001 12 20.001C7.59 20.001 4 16.411 4 12.001C4 7.59098 7.59 4.00098 12 4.00098ZM12 2.00098C6.48 2.00098 2 6.48098 2 12.001C2 17.521 6.48 22.001 12 22.001C17.52 22.001 22 17.521 22 12.001C22 6.48098 17.52 2.00098 12 2.00098ZM13 12.001V9.00098C13 8.45098 12.55 8.00098 12 8.00098C11.45 8.00098 11 8.45098 11 9.00098V12.001H9.21C8.76 12.001 8.54 12.541 8.86 12.851L11.65 15.641C11.85 15.841 12.16 15.841 12.36 15.641L15.15 12.851C15.46 12.541 15.24 12.001 14.8 12.001H13V12.001Z"/>
</g>
<defs>
<clipPath id="clip0_61_15342">
<rect transform="translate(0 0.000976562)"/>
</clipPath>
</defs>
</svg>
