<svg viewBox="0 0 24 24" xmlns="http://www.w3.org/2000/svg">
<g clip-path="url(#clip0_61_15343)">
<path d="M12 20.001C7.59 20.001 4 16.411 4 12.001C4 7.59098 7.59 4.00098 12 4.00098C16.41 4.00098 20 7.59098 20 12.001C20 16.411 16.41 20.001 12 20.001ZM12 22.001C17.52 22.001 22 17.521 22 12.001C22 6.48098 17.52 2.00098 12 2.00098C6.48 2.00098 2 6.48098 2 12.001C2 17.521 6.48 22.001 12 22.001ZM11 12.001V15.001C11 15.551 11.45 16.001 12 16.001C12.55 16.001 13 15.551 13 15.001V12.001H14.79C15.24 12.001 15.46 11.461 15.14 11.151L12.35 8.36098C12.15 8.16098 11.84 8.16098 11.64 8.36098L8.85 11.151C8.54 11.461 8.76 12.001 9.21 12.001H11Z"/>
</g>
<defs>
<clipPath id="clip0_61_15343">
<rect transform="translate(0 0.000976562)"/>
</clipPath>
</defs>
</svg>
