<svg   viewBox="0 0 24 24" fill="none" xmlns="http://www.w3.org/2000/svg">
<g clip-path="url(#clip0_61_15345)">
<path d="M19 3.00098H5C3.9 3.00098 3 3.90098 3 5.00098V19.001C3 20.101 3.9 21.001 5 21.001H19C20.1 21.001 21 20.101 21 19.001V5.00098C21 3.90098 20.1 3.00098 19 3.00098ZM13 17.001H8C7.45 17.001 7 16.551 7 16.001C7 15.451 7.45 15.001 8 15.001H13C13.55 15.001 14 15.451 14 16.001C14 16.551 13.55 17.001 13 17.001ZM16 13.001H8C7.45 13.001 7 12.551 7 12.001C7 11.451 7.45 11.001 8 11.001H16C16.55 11.001 17 11.451 17 12.001C17 12.551 16.55 13.001 16 13.001ZM16 9.00098H8C7.45 9.00098 7 8.55098 7 8.00098C7 7.45098 7.45 7.00098 8 7.00098H16C16.55 7.00098 17 7.45098 17 8.00098C17 8.55098 16.55 9.00098 16 9.00098Z" fill="black"/>
</g>
<defs>
<clipPath id="clip0_61_15345">
<rect width="24" height="24" fill="white" transform="translate(0 0.000976562)"/>
</clipPath>
</defs>
</svg>
