<svg viewBox="0 0 24 24" xmlns="http://www.w3.org/2000/svg">
<g clip-path="url(#clip0_61_15346)">
<path d="M18 12.001C17.45 12.001 17 12.451 17 13.001V15.001H15C14.45 15.001 14 15.451 14 16.001C14 16.551 14.45 17.001 15 17.001H18C18.55 17.001 19 16.551 19 16.001V13.001C19 12.451 18.55 12.001 18 12.001ZM7 9.00098H9C9.55 9.00098 10 8.55098 10 8.00098C10 7.45098 9.55 7.00098 9 7.00098H6C5.45 7.00098 5 7.45098 5 8.00098V11.001C5 11.551 5.45 12.001 6 12.001C6.55 12.001 7 11.551 7 11.001V9.00098ZM21 3.00098H3C1.9 3.00098 1 3.90098 1 5.00098V19.001C1 20.101 1.9 21.001 3 21.001H21C22.1 21.001 23 20.101 23 19.001V5.00098C23 3.90098 22.1 3.00098 21 3.00098ZM20 19.011H4C3.45 19.011 3 18.561 3 18.011V5.99098C3 5.44098 3.45 4.99098 4 4.99098H20C20.55 4.99098 21 5.44098 21 5.99098V18.011C21 18.561 20.55 19.011 20 19.011V19.011Z"/>
</g>
<defs>
<clipPath id="clip0_61_15346">
<rect transform="translate(0 0.000976562)"/>
</clipPath>
</defs>
</svg>
