<svg viewBox="0 0 24 24" xmlns="http://www.w3.org/2000/svg">
<g clip-path="url(#clip0_61_15350)">
<path d="M19 3.00098H14.82C14.4 1.84098 13.3 1.00098 12 1.00098C10.7 1.00098 9.6 1.84098 9.18 3.00098H5C3.9 3.00098 3 3.90098 3 5.00098V19.001C3 20.101 3.9 21.001 5 21.001H19C20.1 21.001 21 20.101 21 19.001V5.00098C21 3.90098 20.1 3.00098 19 3.00098ZM13 18.001H11V16.001H13V18.001ZM13 13.001C13 13.551 12.55 14.001 12 14.001C11.45 14.001 11 13.551 11 13.001V9.00098C11 8.45098 11.45 8.00098 12 8.00098C12.55 8.00098 13 8.45098 13 9.00098V13.001ZM12 5.00098C11.45 5.00098 11 4.55098 11 4.00098C11 3.45098 11.45 3.00098 12 3.00098C12.55 3.00098 13 3.45098 13 4.00098C13 4.55098 12.55 5.00098 12 5.00098Z"/>
</g>
<defs>
<clipPath id="clip0_61_15350">
<rect transform="translate(0 0.000976562)"/>
</clipPath>
</defs>
</svg>
