<svg   viewBox="0 0 24 24" fill="none" xmlns="http://www.w3.org/2000/svg">
<g clip-path="url(#clip0_61_15353)">
<path d="M19 3.00098H14.82C14.4 1.84098 13.3 1.00098 12 1.00098C10.7 1.00098 9.6 1.84098 9.18 3.00098H5C3.9 3.00098 3 3.90098 3 5.00098V19.001C3 20.101 3.9 21.001 5 21.001H19C20.1 21.001 21 20.101 21 19.001V5.00098C21 3.90098 20.1 3.00098 19 3.00098ZM12 3.00098C12.55 3.00098 13 3.45098 13 4.00098C13 4.55098 12.55 5.00098 12 5.00098C11.45 5.00098 11 4.55098 11 4.00098C11 3.45098 11.45 3.00098 12 3.00098ZM9.29 16.291L6.7 13.701C6.31 13.311 6.31 12.681 6.7 12.291C7.09 11.901 7.72 11.901 8.11 12.291L10 14.171L15.88 8.29098C16.27 7.90098 16.9 7.90098 17.29 8.29098C17.68 8.68098 17.68 9.31098 17.29 9.70098L10.7 16.291C10.32 16.681 9.68 16.681 9.29 16.291Z" fill="black"/>
</g>
<defs>
<clipPath id="clip0_61_15353">
<rect width="24" height="24" fill="white" transform="translate(0 0.000976562)"/>
</clipPath>
</defs>
</svg>
