<svg   viewBox="0 0 24 24" fill="none" xmlns="http://www.w3.org/2000/svg">
<g clip-path="url(#clip0_61_15354)">
<path d="M12 6.00067V7.79067C12 8.24067 12.54 8.46067 12.85 8.14067L15.64 5.35067C15.84 5.15067 15.84 4.84067 15.64 4.64067L12.85 1.85067C12.54 1.54067 12 1.76067 12 2.21067V4.00067C7.58 4.00067 4 7.58067 4 12.0007C4 13.0407 4.2 14.0407 4.57 14.9507C4.84 15.6207 5.7 15.8007 6.21 15.2907C6.48 15.0207 6.59 14.6107 6.44 14.2507C6.15 13.5607 6 12.7907 6 12.0007C6 8.69067 8.69 6.00067 12 6.00067ZM17.79 8.71067C17.52 8.98067 17.41 9.40067 17.56 9.75067C17.84 10.4507 18 11.2107 18 12.0007C18 15.3107 15.31 18.0007 12 18.0007V16.2107C12 15.7607 11.46 15.5407 11.15 15.8607L8.36 18.6507C8.16 18.8507 8.16 19.1607 8.36 19.3607L11.15 22.1507C11.46 22.4607 12 22.2407 12 21.8007V20.0007C16.42 20.0007 20 16.4207 20 12.0007C20 10.9607 19.8 9.96067 19.43 9.05067C19.16 8.38067 18.3 8.20067 17.79 8.71067Z" fill="black"/>
</g>
<defs>
<clipPath id="clip0_61_15354">
<rect width="24" height="24" fill="white" transform="translate(0 0.000976562)"/>
</clipPath>
</defs>
</svg>
