<svg   viewBox="0 0 24 24" fill="none" xmlns="http://www.w3.org/2000/svg">
<g clip-path="url(#clip0_61_15356)">
<path d="M20 7.00098V19.001C20 19.551 19.55 20.001 19 20.001H7C6.45 20.001 6 20.451 6 21.001C6 21.551 6.45 22.001 7 22.001H20C21.1 22.001 22 21.101 22 20.001V7.00098C22 6.45098 21.55 6.00098 21 6.00098C20.45 6.00098 20 6.45098 20 7.00098Z" fill="black"/>
<path d="M16 2.00098H4C2.9 2.00098 2 2.90098 2 4.00098V16.001C2 17.101 2.9 18.001 4 18.001H16C17.1 18.001 18 17.101 18 16.001V4.00098C18 2.90098 17.1 2.00098 16 2.00098ZM9 16.001H4V11.001H9V16.001ZM16 16.001H11V11.001H16V16.001ZM16 9.00098H4V4.00098H16V9.00098Z" fill="black"/>
</g>
<defs>
<clipPath id="clip0_61_15356">
<rect width="24" height="24" fill="white" transform="translate(0 0.000976562)"/>
</clipPath>
</defs>
</svg>
