<svg viewBox="0 0 24 24" xmlns="http://www.w3.org/2000/svg">
<g clip-path="url(#clip0_61_15357)">
<path d="M17 8.00098H7C5.9 8.00098 5 8.90098 5 10.001V20.001C5 21.101 5.9 22.001 7 22.001H17C18.1 22.001 19 21.101 19 20.001V10.001C19 8.90098 18.1 8.00098 17 8.00098ZM12 20.501C11.45 20.501 11 20.051 11 19.501V19.001H13V19.501C13 20.051 12.55 20.501 12 20.501ZM13 18.001H11C11 16.501 8.5 15.001 8.5 13.001C8.5 11.071 10.07 9.50098 12 9.50098C13.93 9.50098 15.5 11.071 15.5 13.001C15.5 15.001 13 16.501 13 18.001ZM18 6.50098H6C6 5.67098 6.67 5.00098 7.5 5.00098H16.5C17.33 5.00098 18 5.67098 18 6.50098ZM17 3.50098H7C7 2.67098 7.67 2.00098 8.5 2.00098H15.5C16.33 2.00098 17 2.67098 17 3.50098Z"/>
</g>
<defs>
<clipPath id="clip0_61_15357">
<rect transform="translate(0 0.000976562)"/>
</clipPath>
</defs>
</svg>
