<svg viewBox="0 0 24 24" xmlns="http://www.w3.org/2000/svg">
<g clip-path="url(#clip0_61_15362)">
<path d="M17 1.00098H7C5.9 1.00098 5 1.90098 5 3.00098V21.001C5 22.101 5.9 23.001 7 23.001H17C18.1 23.001 19 22.101 19 21.001V3.00098C19 1.90098 18.1 1.00098 17 1.00098ZM7 6.00098H17V18.001H7V6.00098ZM16 11.001V9.14098C16 8.51098 15.55 8.00098 15 8.00098H9C8.45 8.00098 8 8.51098 8 9.14098V11.101C8.55 11.101 9 11.551 9 12.101C9 12.651 8.55 13.101 8 13.101V14.861C8 15.491 8.45 16.001 9 16.001H15C15.55 16.001 16 15.491 16 14.861V13.001C15.45 13.001 15 12.551 15 12.001C15 11.451 15.45 11.001 16 11.001ZM12 14.501C11.72 14.501 11.5 14.281 11.5 14.001C11.5 13.721 11.72 13.501 12 13.501C12.28 13.501 12.5 13.721 12.5 14.001C12.5 14.281 12.28 14.501 12 14.501ZM12 12.501C11.72 12.501 11.5 12.281 11.5 12.001C11.5 11.721 11.72 11.501 12 11.501C12.28 11.501 12.5 11.721 12.5 12.001C12.5 12.281 12.28 12.501 12 12.501ZM12 10.501C11.72 10.501 11.5 10.281 11.5 10.001C11.5 9.72098 11.72 9.50098 12 9.50098C12.28 9.50098 12.5 9.72098 12.5 10.001C12.5 10.281 12.28 10.501 12 10.501Z"/>
</g>
<defs>
<clipPath id="clip0_61_15362">
<rect transform="translate(0 0.000976562)"/>
</clipPath>
</defs>
</svg>
