<svg viewBox="0 0 24 24" xmlns="http://www.w3.org/2000/svg">
<g clip-path="url(#clip0_61_15363)">
<path d="M19 8.0007H17.19C16.74 7.2207 16.12 6.5507 15.37 6.0407L16.3 5.1107C16.69 4.7207 16.69 4.0907 16.3 3.7007C15.91 3.3107 15.28 3.3107 14.89 3.7007L13.42 5.1707C12.96 5.0607 12.49 5.0007 12 5.0007C11.51 5.0007 11.04 5.0607 10.59 5.1707L9.11 3.7007C8.72 3.3107 8.09 3.3107 7.7 3.7007C7.31 4.0907 7.31 4.7207 7.7 5.1107L8.62 6.0407C7.88 6.5507 7.26 7.2207 6.81 8.0007H5C4.45 8.0007 4 8.4507 4 9.0007C4 9.5507 4.45 10.0007 5 10.0007H6.09C6.04 10.3307 6 10.6607 6 11.0007V12.0007H5C4.45 12.0007 4 12.4507 4 13.0007C4 13.5507 4.45 14.0007 5 14.0007H6V15.0007C6 15.3407 6.04 15.6707 6.09 16.0007H5C4.45 16.0007 4 16.4507 4 17.0007C4 17.5507 4.45 18.0007 5 18.0007H6.81C7.85 19.7907 9.78 21.0007 12 21.0007C14.22 21.0007 16.15 19.7907 17.19 18.0007H19C19.55 18.0007 20 17.5507 20 17.0007C20 16.4507 19.55 16.0007 19 16.0007H17.91C17.96 15.6707 18 15.3407 18 15.0007V14.0007H19C19.55 14.0007 20 13.5507 20 13.0007C20 12.4507 19.55 12.0007 19 12.0007H18V11.0007C18 10.6607 17.96 10.3307 17.91 10.0007H19C19.55 10.0007 20 9.5507 20 9.0007C20 8.4507 19.55 8.0007 19 8.0007ZM13 16.0007H11C10.45 16.0007 10 15.5507 10 15.0007C10 14.4507 10.45 14.0007 11 14.0007H13C13.55 14.0007 14 14.4507 14 15.0007C14 15.5507 13.55 16.0007 13 16.0007ZM13 12.0007H11C10.45 12.0007 10 11.5507 10 11.0007C10 10.4507 10.45 10.0007 11 10.0007H13C13.55 10.0007 14 10.4507 14 11.0007C14 11.5507 13.55 12.0007 13 12.0007Z"/>
</g>
<defs>
<clipPath id="clip0_61_15363">
<rect transform="translate(0 0.000976562)"/>
</clipPath>
</defs>
</svg>
