<svg viewBox="0 0 24 24" xmlns="http://www.w3.org/2000/svg">
<g clip-path="url(#clip0_61_15364)">
<path d="M12.0888 2.91093C10.0788 0.900931 7.06878 0.490931 4.64878 1.67093L8.27878 5.30093C8.66878 5.69093 8.66878 6.32093 8.27878 6.71093L6.68878 8.30093C6.29878 8.70093 5.66878 8.70093 5.27878 8.30093L1.64878 4.67093C0.478783 7.10093 0.888783 10.0909 2.89878 12.1009C4.75878 13.9609 7.47878 14.4509 9.78878 13.5809L17.7488 21.5409C18.7788 22.5709 20.4388 22.5709 21.4588 21.5409C22.4888 20.5109 22.4888 18.8509 21.4588 17.8309L13.5388 9.90093C14.4588 7.56093 13.9788 4.80093 12.0888 2.91093Z"/>
</g>
<defs>
<clipPath id="clip0_61_15364">
<rect transform="translate(0 0.000976562)"/>
</clipPath>
</defs>
</svg>
