<svg viewBox="0 0 24 24" xmlns="http://www.w3.org/2000/svg">
<g clip-path="url(#clip0_61_15365)">
<path fill-rule="evenodd" clip-rule="evenodd" d="M12 2.00098C6.48 2.00098 2 6.48098 2 12.001C2 17.521 6.48 22.001 12 22.001C17.52 22.001 22 17.521 22 12.001C22 6.48098 17.52 2.00098 12 2.00098ZM16.54 15.851L15.85 16.541C15.46 16.931 14.83 16.931 14.44 16.541L11.39 13.491C10.17 13.921 8.75 13.661 7.77 12.681C6.66 11.571 6.47 9.89098 7.18 8.58098L9.53 10.931L10.94 9.52098L8.58 7.17098C9.9 6.46098 11.57 6.65098 12.68 7.76098C13.66 8.74098 13.92 10.161 13.49 11.381L16.54 14.431C16.93 14.821 16.93 15.461 16.54 15.851Z"/>
</g>
<defs>
<clipPath id="clip0_61_15365">
<rect transform="translate(0 0.000976562)"/>
</clipPath>
</defs>
</svg>
