<svg   viewBox="0 0 24 24" fill="none" xmlns="http://www.w3.org/2000/svg">
<g clip-path="url(#clip0_61_15366)">
<path d="M18.6486 8.35098L15.8586 11.141C15.5386 11.461 15.7586 12.001 16.2086 12.001H17.9986C17.9986 15.311 15.3086 18.001 11.9986 18.001C11.2086 18.001 10.4386 17.851 9.74857 17.561C9.38857 17.411 8.97857 17.521 8.70857 17.791C8.19857 18.301 8.37857 19.161 9.04857 19.431C9.95857 19.801 10.9586 20.001 11.9986 20.001C16.4186 20.001 19.9986 16.421 19.9986 12.001H21.7886C22.2386 12.001 22.4586 11.461 22.1386 11.151L19.3486 8.36098C19.1586 8.16098 18.8386 8.16098 18.6486 8.35098V8.35098ZM5.99857 12.001C5.99857 8.69098 8.68857 6.00098 11.9986 6.00098C12.7886 6.00098 13.5586 6.15098 14.2486 6.44098C14.6086 6.59098 15.0186 6.48098 15.2886 6.21098C15.7986 5.70098 15.6186 4.84098 14.9486 4.57098C14.0386 4.20098 13.0386 4.00098 11.9986 4.00098C7.57857 4.00098 3.99857 7.58098 3.99857 12.001H2.20857C1.75857 12.001 1.53857 12.541 1.85857 12.851L4.64857 15.641C4.84857 15.841 5.15857 15.841 5.35857 15.641L8.14857 12.851C8.45857 12.541 8.23857 12.001 7.78857 12.001H5.99857V12.001Z" fill="black"/>
</g>
<defs>
<clipPath id="clip0_61_15366">
<rect width="24" height="24" fill="white" transform="translate(0 0.000976562)"/>
</clipPath>
</defs>
</svg>
