<svg viewBox="0 0 24 24" xmlns="http://www.w3.org/2000/svg">
<g clip-path="url(#clip0_61_15367)">
<path d="M20 3.00098H19V2.00098C19 1.45098 18.55 1.00098 18 1.00098C17.45 1.00098 17 1.45098 17 2.00098V3.00098H7V2.00098C7 1.45098 6.55 1.00098 6 1.00098C5.45 1.00098 5 1.45098 5 2.00098V3.00098H4C2.9 3.00098 2 3.90098 2 5.00098V21.001C2 22.101 2.9 23.001 4 23.001H20C21.1 23.001 22 22.101 22 21.001V5.00098C22 3.90098 21.1 3.00098 20 3.00098ZM19 21.001H5C4.45 21.001 4 20.551 4 20.001V8.00098H20V20.001C20 20.551 19.55 21.001 19 21.001Z"/>
</g>
<defs>
<clipPath id="clip0_61_15367">
<rect transform="translate(0 0.000976562)"/>
</clipPath>
</defs>
</svg>
