<svg viewBox="0 0 24 24" xmlns="http://www.w3.org/2000/svg">
<g clip-path="url(#clip0_61_15368)">
<path d="M4 17.001H20C20.55 17.001 21 17.451 21 18.001C21 18.551 20.55 19.001 20 19.001H4C3.45 19.001 3 18.551 3 18.001C3 17.451 3.45 17.001 4 17.001ZM4 10.001H20C20.55 10.001 21 10.451 21 11.001V14.001C21 14.551 20.55 15.001 20 15.001H4C3.45 15.001 3 14.551 3 14.001V11.001C3 10.451 3.45 10.001 4 10.001ZM4 6.00098H20C20.55 6.00098 21 6.45098 21 7.00098C21 7.55098 20.55 8.00098 20 8.00098H4C3.45 8.00098 3 7.55098 3 7.00098C3 6.45098 3.45 6.00098 4 6.00098Z"/>
</g>
<defs>
<clipPath id="clip0_61_15368">
<rect transform="translate(0 0.000976562)"/>
</clipPath>
</defs>
</svg>
