<svg viewBox="0 0 24 24" xmlns="http://www.w3.org/2000/svg">
<g clip-path="url(#clip0_61_15369)">
<path d="M20 5.00098H16.83L15.59 3.65098C15.22 3.24098 14.68 3.00098 14.12 3.00098H9.88C9.32 3.00098 8.78 3.24098 8.4 3.65098L7.17 5.00098H4C2.9 5.00098 2 5.90098 2 7.00098V19.001C2 20.101 2.9 21.001 4 21.001H20C21.1 21.001 22 20.101 22 19.001V7.00098C22 5.90098 21.1 5.00098 20 5.00098ZM12 18.001C9.24 18.001 7 15.761 7 13.001C7 10.241 9.24 8.00098 12 8.00098C14.76 8.00098 17 10.241 17 13.001C17 15.761 14.76 18.001 12 18.001ZM12 9.00098L10.75 11.751L8 13.001L10.75 14.251L12 17.001L13.25 14.251L16 13.001L13.25 11.751L12 9.00098Z"/>
</g>
<defs>
<clipPath id="clip0_61_15369">
<rect transform="translate(0 0.000976562)"/>
</clipPath>
</defs>
</svg>
