<svg viewBox="0 0 24 24" xmlns="http://www.w3.org/2000/svg">
<g clip-path="url(#clip0_61_15370)">
<path d="M16.5 9.00051C16.08 9.00051 15.67 9.04051 15.26 9.11051L2.4 3.60051C1.74 3.31051 1.01 3.80051 1.01 4.51051L1 9.20051C1 9.67051 1.33 10.0805 1.78 10.1805L10 12.0005L1.78 13.8305C1.33 13.9305 1 14.3305 1 14.8005L1.01 19.4805C1.01 20.2005 1.74 20.6805 2.4 20.4005L9.08 17.5405C9.59 21.1905 12.71 24.0005 16.5 24.0005C20.64 24.0005 24 20.6405 24 16.5005C24 12.3605 20.64 9.00051 16.5 9.00051ZM16.5 22.0005C13.47 22.0005 11 19.5305 11 16.5005C11 13.4705 13.47 11.0005 16.5 11.0005C19.53 11.0005 22 13.4705 22 16.5005C22 19.5305 19.53 22.0005 16.5 22.0005Z"/>
<path d="M18.6205 14.3805C18.4205 14.1805 18.1105 14.1805 17.9105 14.3805L16.5005 15.7905L15.0905 14.3805C14.8905 14.1805 14.5805 14.1805 14.3805 14.3805C14.1805 14.5805 14.1805 14.8905 14.3805 15.0905L15.7905 16.5005L14.3805 17.9105C14.1805 18.1105 14.1805 18.4205 14.3805 18.6205C14.5805 18.8205 14.8905 18.8205 15.0905 18.6205L16.5005 17.2105L17.9105 18.6205C18.1105 18.8205 18.4205 18.8205 18.6205 18.6205C18.8205 18.4205 18.8205 18.1105 18.6205 17.9105L17.2105 16.5005L18.6205 15.0905C18.8205 14.8905 18.8205 14.5705 18.6205 14.3805Z"/>
</g>
<defs>
<clipPath id="clip0_61_15370">
<rect transform="translate(0 0.000976562)"/>
</clipPath>
</defs>
</svg>
