<svg   viewBox="0 0 24 24" fill="none" xmlns="http://www.w3.org/2000/svg">
<g clip-path="url(#clip0_61_15373)">
<path d="M20 6.00098H17V4.00098C17 2.89098 16.11 2.00098 15 2.00098H9C7.89 2.00098 7 2.89098 7 4.00098V6.00098H4C2.89 6.00098 2 6.89098 2 8.00098V19.001C2 20.111 2.89 21.001 4 21.001H20C21.11 21.001 22 20.111 22 19.001V8.00098C22 6.89098 21.11 6.00098 20 6.00098ZM9 4.00098H15V6.00098H9V4.00098ZM20 19.001H4V17.001H20V19.001ZM20 14.001H4V9.00098C4 8.45098 4.45 8.00098 5 8.00098H7V9.00098C7 9.55098 7.45 10.001 8 10.001C8.55 10.001 9 9.55098 9 9.00098V8.00098H15V9.00098C15 9.55098 15.45 10.001 16 10.001C16.55 10.001 17 9.55098 17 9.00098V8.00098H19C19.55 8.00098 20 8.45098 20 9.00098V14.001Z" fill="black"/>
</g>
<defs>
<clipPath id="clip0_61_15373">
<rect width="24" height="24" fill="white" transform="translate(0 0.000976562)"/>
</clipPath>
</defs>
</svg>
