<svg viewBox="0 0 24 24" xmlns="http://www.w3.org/2000/svg">
<g clip-path="url(#clip0_61_15371)">
<path d="M20 6.00098H17.82C17.93 5.69098 18 5.35098 18 5.00098C18 3.34098 16.66 2.00098 15 2.00098C13.95 2.00098 13.04 2.54098 12.5 3.35098L12 4.02098L11.5 3.34098C10.96 2.54098 10.05 2.00098 9 2.00098C7.34 2.00098 6 3.34098 6 5.00098C6 5.35098 6.07 5.69098 6.18 6.00098H4C2.89 6.00098 2.01 6.89098 2.01 8.00098L2 19.001C2 20.111 2.89 21.001 4 21.001H20C21.11 21.001 22 20.111 22 19.001V8.00098C22 6.89098 21.11 6.00098 20 6.00098ZM15 4.00098C15.55 4.00098 16 4.45098 16 5.00098C16 5.55098 15.55 6.00098 15 6.00098C14.45 6.00098 14 5.55098 14 5.00098C14 4.45098 14.45 4.00098 15 4.00098ZM9 4.00098C9.55 4.00098 10 4.45098 10 5.00098C10 5.55098 9.55 6.00098 9 6.00098C8.45 6.00098 8 5.55098 8 5.00098C8 4.45098 8.45 4.00098 9 4.00098ZM20 19.001H4V17.001H20V19.001ZM20 14.001H4V9.00098C4 8.45098 4.45 8.00098 5 8.00098H9.08L7.6 10.021C7.27 10.471 7.37 11.101 7.82 11.421C8.26 11.741 8.89 11.641 9.21 11.201L12 7.40098L14.79 11.201C15.11 11.641 15.74 11.741 16.18 11.421C16.63 11.101 16.73 10.471 16.4 10.021L14.92 8.00098H19C19.55 8.00098 20 8.45098 20 9.00098V14.001Z"/>
</g>
<defs>
<clipPath id="clip0_61_15371">
<rect transform="translate(0 0.000976562)"/>
</clipPath>
</defs>
</svg>
