<svg viewBox="0 0 24 24" xmlns="http://www.w3.org/2000/svg">
<g clip-path="url(#clip0_61_15375)">
<path d="M12 2.00098C6.48 2.00098 2 6.48098 2 12.001C2 17.521 6.48 22.001 12 22.001C17.52 22.001 22 17.521 22 12.001C22 6.48098 17.52 2.00098 12 2.00098ZM9.29 16.291L5.7 12.701C5.31 12.311 5.31 11.681 5.7 11.291C6.09 10.901 6.72 10.901 7.11 11.291L10 14.171L16.88 7.29098C17.27 6.90098 17.9 6.90098 18.29 7.29098C18.68 7.68098 18.68 8.31098 18.29 8.70098L10.7 16.291C10.32 16.681 9.68 16.681 9.29 16.291Z"/>
</g>
<defs>
<clipPath id="clip0_61_15375">
<rect transform="translate(0 0.000976562)"/>
</clipPath>
</defs>
</svg>
