<svg   viewBox="0 0 24 24" fill="none" xmlns="http://www.w3.org/2000/svg">
<g clip-path="url(#clip0_61_15376)">
<path d="M12 2.00098C6.48 2.00098 2 6.48098 2 12.001C2 17.521 6.48 22.001 12 22.001C17.52 22.001 22 17.521 22 12.001C22 6.48098 17.52 2.00098 12 2.00098ZM12 20.001C7.59 20.001 4 16.411 4 12.001C4 7.59098 7.59 4.00098 12 4.00098C16.41 4.00098 20 7.59098 20 12.001C20 16.411 16.41 20.001 12 20.001ZM15.88 8.29098L10 14.171L8.12 12.291C7.73 11.901 7.1 11.901 6.71 12.291C6.32 12.681 6.32 13.311 6.71 13.701L9.3 16.291C9.69 16.681 10.32 16.681 10.71 16.291L17.3 9.70098C17.69 9.31098 17.69 8.68098 17.3 8.29098C16.91 7.90098 16.27 7.90098 15.88 8.29098V8.29098Z" fill="black"/>
</g>
<defs>
<clipPath id="clip0_61_15376">
<rect width="24" height="24" fill="white" transform="translate(0 0.000976562)"/>
</clipPath>
</defs>
</svg>
