<svg   viewBox="0 0 24 24" fill="none" xmlns="http://www.w3.org/2000/svg">
<g clip-path="url(#clip0_61_15377)">
<path d="M21 4.00098H3C1.9 4.00098 1 4.90098 1 6.00098V19.001C1 20.101 1.9 21.001 3 21.001H21C22.1 21.001 23 20.101 23 19.001V6.00098C23 4.90098 22.1 4.00098 21 4.00098ZM21 18.001C21 18.551 20.55 19.001 20 19.001H12V6.00098H20C20.55 6.00098 21 6.45098 21 7.00098V18.001ZM19.25 9.50098H13.75C13.34 9.50098 13 9.84098 13 10.251C13 10.661 13.34 11.001 13.75 11.001H19.25C19.66 11.001 20 10.661 20 10.251C20 9.84098 19.66 9.50098 19.25 9.50098ZM19.25 12.001H13.75C13.34 12.001 13 12.341 13 12.751C13 13.161 13.34 13.501 13.75 13.501H19.25C19.66 13.501 20 13.161 20 12.751C20 12.341 19.66 12.001 19.25 12.001ZM19.25 14.501H13.75C13.34 14.501 13 14.841 13 15.251C13 15.661 13.34 16.001 13.75 16.001H19.25C19.66 16.001 20 15.661 20 15.251C20 14.841 19.66 14.501 19.25 14.501Z" fill="black"/>
</g>
<defs>
<clipPath id="clip0_61_15377">
<rect width="24" height="24" fill="white" transform="translate(0 0.000976562)"/>
</clipPath>
</defs>
</svg>
