<svg viewBox="0 0 24 24" xmlns="http://www.w3.org/2000/svg">
<g clip-path="url(#clip0_61_15379)">
<path d="M21.2888 4.1207L16.6988 8.7107L18.2888 10.3007C18.9188 10.9307 18.4687 12.0107 17.5787 12.0107H12.9987C12.4487 12.0107 11.9987 11.5607 11.9987 11.0107V6.4107C11.9987 5.5207 13.0787 5.0707 13.7087 5.7007L15.2987 7.2907L19.8888 2.7007C20.2788 2.3107 20.9087 2.3107 21.2987 2.7007C21.6787 3.1007 21.6788 3.7307 21.2888 4.1207ZM4.11875 21.2907L8.70875 16.7007L10.2987 18.2907C10.9287 18.9207 12.0087 18.4707 12.0087 17.5807V13.0007C12.0087 12.4507 11.5587 12.0007 11.0087 12.0007H6.40875C5.51875 12.0007 5.06875 13.0807 5.69875 13.7107L7.28875 15.3007L2.69875 19.8907C2.30875 20.2807 2.30875 20.9107 2.69875 21.3007C3.09875 21.6807 3.72875 21.6807 4.11875 21.2907Z"/>
</g>
<defs>
<clipPath id="clip0_61_15379">
<rect transform="translate(0 0.000976562)"/>
</clipPath>
</defs>
</svg>
