<svg   viewBox="0 0 24 24" fill="none" xmlns="http://www.w3.org/2000/svg">
<g clip-path="url(#clip0_61_15380)">
<path d="M8.70047 15.9007L4.80047 12.0007L8.70047 8.1007C9.09047 7.7107 9.09047 7.0907 8.70047 6.7007C8.31047 6.3107 7.69047 6.3107 7.30047 6.7007L2.71047 11.2907C2.32047 11.6807 2.32047 12.3107 2.71047 12.7007L7.30047 17.3007C7.69047 17.6907 8.31047 17.6907 8.70047 17.3007C9.09047 16.9107 9.09047 16.2907 8.70047 15.9007V15.9007ZM15.3005 15.9007L19.2005 12.0007L15.3005 8.1007C14.9105 7.7107 14.9105 7.0907 15.3005 6.7007C15.6905 6.3107 16.3105 6.3107 16.7005 6.7007L21.2905 11.2907C21.6805 11.6807 21.6805 12.3107 21.2905 12.7007L16.7005 17.3007C16.3105 17.6907 15.6905 17.6907 15.3005 17.3007C14.9105 16.9107 14.9105 16.2907 15.3005 15.9007V15.9007Z" fill="black"/>
</g>
<defs>
<clipPath id="clip0_61_15380">
<rect width="24" height="24" fill="white" transform="translate(0 0.000976562)"/>
</clipPath>
</defs>
</svg>
