<svg viewBox="0 0 24 24" xmlns="http://www.w3.org/2000/svg">
<g clip-path="url(#clip0_61_15382)">
<path d="M12 4.00098H5C3.34 4.00098 2 5.34098 2 7.00098V15.001C2 16.661 3.34 18.001 5 18.001L4.23 18.771C3.95 19.051 3.95 19.491 4.23 19.771C4.51 20.051 4.95 20.051 5.23 19.771L7 18.001H9V13.001H4.5C4.22 13.001 4 12.781 4 12.501V6.50098C4 6.22098 4.22 6.00098 4.5 6.00098H12.5C12.78 6.00098 13 6.22098 13 6.50098V8.00098H15V7.00098C15 5.34098 13.66 4.00098 12 4.00098ZM5 14.001C5.55 14.001 6 14.451 6 15.001C6 15.551 5.55 16.001 5 16.001C4.45 16.001 4 15.551 4 15.001C4 14.451 4.45 14.001 5 14.001ZM20.57 9.66098C20.43 9.26098 20.05 9.00098 19.6 9.00098H12.41C11.95 9.00098 11.58 9.26098 11.43 9.66098L10.01 13.771V19.011C10.01 19.561 10.46 20.001 11.01 20.001C11.56 20.001 12.01 19.551 12.01 19.001V18.001H20.01V19.001C20.01 19.551 20.46 20.001 21.01 20.001C21.56 20.001 22 19.561 22.01 19.011L22 13.771L20.57 9.66098ZM12.77 10.001H19.25C19.46 10.001 19.65 10.141 19.72 10.341L20.41 12.341C20.52 12.661 20.28 13.001 19.94 13.001H12.09C11.75 13.001 11.51 12.661 11.62 12.341L12.31 10.341C12.36 10.141 12.55 10.001 12.77 10.001V10.001ZM12 16.001C11.45 16.001 11 15.551 11 15.001C11 14.451 11.45 14.001 12 14.001C12.55 14.001 13 14.451 13 15.001C13 15.551 12.55 16.001 12 16.001ZM20 16.001C19.45 16.001 19 15.551 19 15.001C19 14.451 19.45 14.001 20 14.001C20.55 14.001 21 14.451 21 15.001C21 15.551 20.55 16.001 20 16.001Z"/>
</g>
<defs>
<clipPath id="clip0_61_15382">
<rect transform="translate(0 0.000976562)"/>
</clipPath>
</defs>
</svg>
