<svg   viewBox="0 0 24 24" fill="none" xmlns="http://www.w3.org/2000/svg">
<g clip-path="url(#clip0_61_15383)">
<path d="M9.01 14.0005H3C2.45 14.0005 2 14.4505 2 15.0005C2 15.5505 2.45 16.0005 3 16.0005H9.01V17.7905C9.01 18.2405 9.55 18.4605 9.86 18.1405L12.64 15.3505C12.83 15.1505 12.83 14.8405 12.64 14.6405L9.86 11.8505C9.55 11.5305 9.01 11.7605 9.01 12.2005V14.0005ZM14.99 11.7905V10.0005H21C21.55 10.0005 22 9.55052 22 9.00052C22 8.45052 21.55 8.00052 21 8.00052H14.99V6.21052C14.99 5.76052 14.45 5.54052 14.14 5.86052L11.36 8.65052C11.17 8.85052 11.17 9.16052 11.36 9.36052L14.14 12.1505C14.45 12.4605 14.99 12.2405 14.99 11.7905Z" fill="black"/>
</g>
<defs>
<clipPath id="clip0_61_15383">
<rect width="24" height="24" fill="white" transform="translate(0 0.000976562)"/>
</clipPath>
</defs>
</svg>
