<svg viewBox="0 0 24 24" xmlns="http://www.w3.org/2000/svg">
<g clip-path="url(#clip0_61_15386)">
<path d="M11.5 2.00098C6.81 2.00098 3 5.81098 3 10.501C3 15.191 6.81 19.001 11.5 19.001H12V22.001C16.86 19.661 20 15.001 20 10.501C20 5.81098 16.19 2.00098 11.5 2.00098ZM12.5 16.501H10.5V14.501H12.5V16.501ZM12.9 11.721C12.89 11.731 12.88 11.751 12.87 11.771C12.82 11.851 12.77 11.931 12.73 12.011C12.71 12.041 12.7 12.081 12.69 12.121C12.66 12.191 12.63 12.261 12.61 12.331C12.54 12.541 12.51 12.761 12.51 13.011H10.5C10.5 12.501 10.58 12.071 10.7 11.711C10.7 11.701 10.7 11.691 10.71 11.681C10.72 11.641 10.75 11.621 10.76 11.581C10.82 11.421 10.89 11.281 10.98 11.141C11.01 11.091 11.05 11.041 11.08 10.991C11.11 10.951 11.13 10.901 11.16 10.871L11.17 10.881C12.01 9.78098 13.38 9.44098 13.49 8.20098C13.58 7.22098 12.88 6.27098 11.92 6.07098C10.88 5.85098 9.94 6.46098 9.62 7.35098C9.48 7.71098 9.15 8.00098 8.74 8.00098H8.54C7.94 8.00098 7.5 7.41098 7.67 6.83098C8.22 5.01098 10.04 3.74098 12.1 4.04098C13.79 4.29098 15.14 5.68098 15.43 7.37098C15.87 9.81098 13.8 10.401 12.9 11.721V11.721Z"/>
</g>
<defs>
<clipPath id="clip0_61_15386">
<rect transform="translate(0 0.000976562)"/>
</clipPath>
</defs>
</svg>
