<svg   viewBox="0 0 24 24" fill="none" xmlns="http://www.w3.org/2000/svg">
<g clip-path="url(#clip0_61_15385)">
<path d="M13.17 2.00098H6C4.9 2.00098 4 2.90098 4 4.00098V20.001C4 21.101 4.9 22.001 6 22.001H18C19.1 22.001 20 21.101 20 20.001V8.83098C20 8.30098 19.79 7.79098 19.41 7.42098L14.58 2.59098C14.21 2.21098 13.7 2.00098 13.17 2.00098ZM12 10.001C13.1 10.001 14 10.901 14 12.001C14 13.101 13.1 14.001 12 14.001C10.9 14.001 10 13.101 10 12.001C10 10.901 10.9 10.001 12 10.001ZM16 18.001H8V17.431C8 16.621 8.48 15.901 9.22 15.581C10.07 15.211 11.01 15.001 12 15.001C12.99 15.001 13.93 15.211 14.78 15.581C15.52 15.901 16 16.621 16 17.431V18.001Z" fill="black"/>
</g>
<defs>
<clipPath id="clip0_61_15385">
<rect width="24" height="24" fill="white" transform="translate(0 0.000976562)"/>
</clipPath>
</defs>
</svg>
