<svg viewBox="0 0 24 24" xmlns="http://www.w3.org/2000/svg">
<g clip-path="url(#clip0_61_15384)">
<path d="M12 2.00098C6.48 2.00098 2 6.48098 2 12.001C2 17.521 6.48 22.001 12 22.001C17.52 22.001 22 17.521 22 12.001C22 6.48098 17.52 2.00098 12 2.00098ZM8.75 13.681C8.62 14.111 8.13 14.311 7.73 14.131C7.39 13.971 7.22 13.591 7.33 13.231C7.45 12.821 7.51 12.401 7.5 11.991C7.49 11.581 7.44 11.191 7.33 10.811C7.23 10.451 7.39 10.061 7.73 9.91098C8.15 9.72098 8.64 9.95098 8.77 10.401C8.92 10.911 8.99 11.431 9 11.971C9 12.531 8.92 13.111 8.75 13.681ZM11.89 15.271C11.72 15.681 11.22 15.841 10.83 15.621C10.5 15.431 10.37 15.031 10.51 14.681C10.84 13.911 11 13.051 11 12.121C11 11.161 10.82 10.231 10.47 9.34098C10.33 8.98098 10.49 8.58098 10.83 8.40098C11.22 8.20098 11.7 8.38098 11.86 8.79098C12.28 9.85098 12.49 10.971 12.49 12.121C12.51 13.251 12.3 14.311 11.89 15.271ZM15 16.601C14.83 17.001 14.36 17.181 13.98 16.991C13.63 16.821 13.46 16.401 13.61 16.041C14.2 14.651 14.5 13.291 14.5 11.981C14.5 10.671 14.2 9.33098 13.62 7.97098C13.46 7.61098 13.63 7.19098 13.98 7.02098C14.37 6.82098 14.83 7.00098 15 7.40098C15.66 8.94098 16 10.481 16 11.981C16 13.481 15.66 15.041 15 16.601Z"/>
</g>
<defs>
<clipPath id="clip0_61_15384">
<rect transform="translate(0 0.000976562)"/>
</clipPath>
</defs>
</svg>
