<svg   viewBox="0 0 24 24" fill="none" xmlns="http://www.w3.org/2000/svg">
<g clip-path="url(#clip0_61_15387)">
<path d="M10.08 10.861C10.13 10.531 10.24 10.241 10.38 9.99098C10.52 9.74098 10.72 9.53098 10.97 9.37098C11.21 9.22098 11.51 9.15098 11.88 9.14098C12.11 9.15098 12.32 9.19098 12.51 9.27098C12.71 9.36098 12.89 9.48098 13.03 9.63098C13.17 9.78098 13.28 9.96098 13.37 10.161C13.46 10.361 13.5 10.581 13.51 10.801H15.3C15.28 10.331 15.19 9.90098 15.02 9.51098C14.85 9.12098 14.62 8.78098 14.32 8.50098C14.02 8.22098 13.66 8.00098 13.24 7.84098C12.82 7.68098 12.36 7.61098 11.85 7.61098C11.2 7.61098 10.63 7.72098 10.15 7.95098C9.67 8.18098 9.27 8.48098 8.95 8.87098C8.63 9.26098 8.39 9.71098 8.24 10.231C8.09 10.751 8 11.291 8 11.871V12.141C8 12.721 8.08 13.261 8.23 13.781C8.38 14.301 8.62 14.751 8.94 15.131C9.26 15.511 9.66 15.821 10.14 16.041C10.62 16.261 11.19 16.381 11.84 16.381C12.31 16.381 12.75 16.301 13.16 16.151C13.57 16.001 13.93 15.791 14.24 15.521C14.55 15.251 14.8 14.941 14.98 14.581C15.16 14.221 15.27 13.841 15.28 13.431H13.49C13.48 13.641 13.43 13.831 13.34 14.011C13.25 14.191 13.13 14.341 12.98 14.471C12.83 14.601 12.66 14.701 12.46 14.771C12.27 14.841 12.07 14.861 11.86 14.871C11.5 14.861 11.2 14.791 10.97 14.641C10.72 14.481 10.52 14.271 10.38 14.021C10.24 13.771 10.13 13.471 10.08 13.141C10.03 12.811 10 12.471 10 12.141V11.871C10 11.521 10.03 11.191 10.08 10.861V10.861ZM12 2.00098C6.48 2.00098 2 6.48098 2 12.001C2 17.521 6.48 22.001 12 22.001C17.52 22.001 22 17.521 22 12.001C22 6.48098 17.52 2.00098 12 2.00098ZM12 20.001C7.59 20.001 4 16.411 4 12.001C4 7.59098 7.59 4.00098 12 4.00098C16.41 4.00098 20 7.59098 20 12.001C20 16.411 16.41 20.001 12 20.001Z" fill="black"/>
</g>
<defs>
<clipPath id="clip0_61_15387">
<rect width="24" height="24" fill="white" transform="translate(0 0.000976562)"/>
</clipPath>
</defs>
</svg>
