<svg viewBox="0 0 24 24" xmlns="http://www.w3.org/2000/svg">
<g clip-path="url(#clip0_61_15390)">
<path d="M19 4.00098H18V3.00098C18 2.45098 17.55 2.00098 17 2.00098C16.45 2.00098 16 2.45098 16 3.00098V4.00098H8V3.00098C8 2.45098 7.55 2.00098 7 2.00098C6.45 2.00098 6 2.45098 6 3.00098V4.00098H5C3.89 4.00098 3.01 4.90098 3.01 6.00098L3 20.001C3 21.101 3.89 22.001 5 22.001H19C20.1 22.001 21 21.101 21 20.001V6.00098C21 4.90098 20.1 4.00098 19 4.00098ZM19 19.001C19 19.551 18.55 20.001 18 20.001H6C5.45 20.001 5 19.551 5 19.001V9.00098H19V19.001ZM7 11.001H9V13.001H7V11.001ZM11 11.001H13V13.001H11V11.001ZM15 11.001H17V13.001H15V11.001Z"/>
</g>
<defs>
<clipPath id="clip0_61_15390">
<rect transform="translate(0 0.000976562)"/>
</clipPath>
</defs>
</svg>
