<svg viewBox="0 0 24 24" xmlns="http://www.w3.org/2000/svg">
<g clip-path="url(#clip0_61_15392)">
<path d="M6 19.001C6 20.101 6.9 21.001 8 21.001H16C17.1 21.001 18 20.101 18 19.001V9.00098C18 7.90098 17.1 7.00098 16 7.00098H8C6.9 7.00098 6 7.90098 6 9.00098V19.001ZM9.17 11.171C9.56 10.781 10.19 10.781 10.58 11.171L12 12.591L13.42 11.171C13.81 10.781 14.44 10.781 14.83 11.171C15.22 11.561 15.22 12.191 14.83 12.581L13.41 14.001L14.83 15.421C15.22 15.811 15.22 16.441 14.83 16.831C14.44 17.221 13.81 17.221 13.42 16.831L12 15.411L10.58 16.831C10.19 17.221 9.56 17.221 9.17 16.831C8.78 16.441 8.78 15.811 9.17 15.421L10.59 14.001L9.17 12.581C8.78 12.201 8.78 11.561 9.17 11.171ZM15.5 4.00098L14.79 3.29098C14.61 3.11098 14.35 3.00098 14.09 3.00098H9.91C9.65 3.00098 9.39 3.11098 9.21 3.29098L8.5 4.00098H6C5.45 4.00098 5 4.45098 5 5.00098C5 5.55098 5.45 6.00098 6 6.00098H18C18.55 6.00098 19 5.55098 19 5.00098C19 4.45098 18.55 4.00098 18 4.00098H15.5Z"/>
</g>
<defs>
<clipPath id="clip0_61_15392">
<rect transform="translate(0 0.000976562)"/>
</clipPath>
</defs>
</svg>
