<svg   viewBox="0 0 24 24" fill="none" xmlns="http://www.w3.org/2000/svg">
<g clip-path="url(#clip0_61_15394)">
<path d="M14.59 2.59098C14.21 2.21098 13.7 2.00098 13.17 2.00098H6C4.9 2.00098 4 2.90098 4 4.00098V20.001C4 21.101 4.89 22.001 5.99 22.001H18C19.1 22.001 20 21.101 20 20.001V8.83098C20 8.30098 19.79 7.79098 19.41 7.42098L14.59 2.59098ZM15 18.001H9C8.45 18.001 8 17.551 8 17.001C8 16.451 8.45 16.001 9 16.001H15C15.55 16.001 16 16.451 16 17.001C16 17.551 15.55 18.001 15 18.001ZM15 14.001H9C8.45 14.001 8 13.551 8 13.001C8 12.451 8.45 12.001 9 12.001H15C15.55 12.001 16 12.451 16 13.001C16 13.551 15.55 14.001 15 14.001ZM13 8.00098V3.50098L18.5 9.00098H14C13.45 9.00098 13 8.55098 13 8.00098Z" fill="black"/>
</g>
<defs>
<clipPath id="clip0_61_15394">
<rect width="24" height="24" fill="white" transform="translate(0 0.000976562)"/>
</clipPath>
</defs>
</svg>
