<svg viewBox="0 0 24 24" xmlns="http://www.w3.org/2000/svg">
<g clip-path="url(#clip0_61_15395)">
<path d="M3 5.00098V19.001C3 20.101 3.9 21.001 5 21.001H19C20.1 21.001 21 20.101 21 19.001V5.00098C21 3.90098 20.1 3.00098 19 3.00098H5C3.9 3.00098 3 3.90098 3 5.00098ZM16.3 16.291C15.91 16.681 15.28 16.681 14.89 16.291L12 13.411L9.11 16.301C8.72 16.691 8.09 16.691 7.7 16.301C7.31 15.911 7.31 15.281 7.7 14.891L10.59 12.001L7.7 9.11098C7.31 8.72098 7.31 8.09098 7.7 7.70098C8.09 7.31098 8.72 7.31098 9.11 7.70098L12 10.591L14.89 7.71098C15.28 7.32098 15.91 7.32098 16.3 7.71098C16.69 8.10098 16.69 8.73098 16.3 9.12098L13.41 12.001L16.3 14.881C16.68 15.271 16.68 15.911 16.3 16.291Z"/>
</g>
<defs>
<clipPath id="clip0_61_15395">
<rect transform="translate(0 0.000976562)"/>
</clipPath>
</defs>
</svg>
