<svg   viewBox="0 0 24 24" fill="none" xmlns="http://www.w3.org/2000/svg">
<g clip-path="url(#clip0_61_15396)">
<path d="M19 13.001H5C3.9 13.001 3 13.901 3 15.001V19.001C3 20.101 3.9 21.001 5 21.001H19C20.1 21.001 21 20.101 21 19.001V15.001C21 13.901 20.1 13.001 19 13.001ZM7 19.001C5.9 19.001 5 18.101 5 17.001C5 15.901 5.9 15.001 7 15.001C8.1 15.001 9 15.901 9 17.001C9 18.101 8.1 19.001 7 19.001ZM19 3.00098H5C3.9 3.00098 3 3.90098 3 5.00098V9.00098C3 10.101 3.9 11.001 5 11.001H19C20.1 11.001 21 10.101 21 9.00098V5.00098C21 3.90098 20.1 3.00098 19 3.00098ZM7 9.00098C5.9 9.00098 5 8.10098 5 7.00098C5 5.90098 5.9 5.00098 7 5.00098C8.1 5.00098 9 5.90098 9 7.00098C9 8.10098 8.1 9.00098 7 9.00098Z" fill="black"/>
</g>
<defs>
<clipPath id="clip0_61_15396">
<rect width="24" height="24" fill="white" transform="translate(0 0.000976562)"/>
</clipPath>
</defs>
</svg>
