<svg   viewBox="0 0 24 24" fill="none" xmlns="http://www.w3.org/2000/svg">
<g clip-path="url(#clip0_61_15399)">
<path d="M20.4692 5.63078C20.8592 6.02078 20.8592 6.64078 20.4692 7.03078L9.12922 18.3708C8.73922 18.7608 8.11922 18.7608 7.72922 18.3708L3.52922 14.1708C3.13922 13.7808 3.13922 13.1608 3.52922 12.7708C3.91922 12.3808 4.53922 12.3808 4.92922 12.7708L8.42922 16.2708L19.0692 5.63078C19.4592 5.24078 20.0792 5.24078 20.4692 5.63078ZM18.3592 3.51078L8.42922 13.4408L5.63922 10.6508C4.85922 9.87078 3.58922 9.87078 2.80922 10.6508L1.40922 12.0508C0.629219 12.8308 0.629219 14.1008 1.40922 14.8808L7.00922 20.4808C7.78922 21.2608 9.05922 21.2608 9.83922 20.4808L22.5892 7.74078C23.3692 6.96078 23.3692 5.69078 22.5892 4.91078L21.1892 3.51078C20.3992 2.73078 19.1392 2.73078 18.3592 3.51078V3.51078Z" fill="black"/>
</g>
<defs>
<clipPath id="clip0_61_15399">
<rect width="24" height="24" fill="white" transform="translate(0 0.000976562)"/>
</clipPath>
</defs>
</svg>
