<svg viewBox="0 0 24 24" xmlns="http://www.w3.org/2000/svg">
<g clip-path="url(#clip0_61_15398)">
<path d="M17.3006 6.30126C16.9106 5.91126 16.2806 5.91126 15.8906 6.30126L10.2506 11.9413L11.6606 13.3513L17.3006 7.70126C17.6806 7.32126 17.6806 6.68126 17.3006 6.30126V6.30126ZM21.5406 6.29126L11.6606 16.1713L8.18063 12.7013C7.79063 12.3113 7.16063 12.3113 6.77063 12.7013C6.38063 13.0913 6.38063 13.7213 6.77063 14.1113L10.9506 18.2913C11.3406 18.6813 11.9706 18.6813 12.3606 18.2913L22.9506 7.71126C23.3406 7.32126 23.3406 6.69126 22.9506 6.30126H22.9406C22.5606 5.90126 21.9306 5.90126 21.5406 6.29126ZM1.12062 14.1213L5.30063 18.3013C5.69063 18.6913 6.32063 18.6913 6.71063 18.3013L7.41062 17.6013L2.53062 12.7013C2.14062 12.3113 1.51062 12.3113 1.12062 12.7013C0.730625 13.0913 0.730625 13.7313 1.12062 14.1213V14.1213Z"/>
</g>
<defs>
<clipPath id="clip0_61_15398">
<rect transform="translate(0 0.000976562)"/>
</clipPath>
</defs>
</svg>
