<svg viewBox="0 0 24 24" xmlns="http://www.w3.org/2000/svg">
<g clip-path="url(#clip0_61_15400)">
<path d="M14.07 5.32101C16.26 6.00101 18 7.74101 18.68 9.93101C18.87 10.561 19.44 11.001 20.09 11.001H20.13C21.13 11.001 21.85 10.041 21.56 9.09101C20.59 5.91101 18.08 3.40101 14.9 2.43101C13.96 2.14101 13 2.86101 13 3.86101V3.90101C13 4.56101 13.44 5.13101 14.07 5.32101V5.32101ZM18.68 14.071C18 16.271 16.26 18.001 14.07 18.681C13.44 18.871 13 19.441 13 20.091V20.131C13 21.131 13.96 21.851 14.91 21.561C18.09 20.591 20.6 18.081 21.57 14.901C21.86 13.951 21.14 12.991 20.15 12.991H20.1C19.44 13.001 18.87 13.441 18.68 14.071V14.071ZM11 20.111C11 19.441 10.55 18.871 9.91 18.671C7.07 17.781 5 15.131 5 12.001C5 8.87101 7.07 6.22101 9.91 5.33101C10.55 5.13101 11 4.56101 11 3.89101V3.88101C11 2.88101 10.03 2.14101 9.07 2.44101C4.98 3.69101 2 7.50101 2 12.001C2 16.501 4.98 20.311 9.07 21.561C10.03 21.861 11 21.121 11 20.111V20.111Z"/>
</g>
<defs>
<clipPath id="clip0_61_15400">
<rect transform="translate(0 0.000976562)"/>
</clipPath>
</defs>
</svg>
