<svg   viewBox="0 0 24 24" fill="none" xmlns="http://www.w3.org/2000/svg">
<g clip-path="url(#clip0_61_15401)">
<path d="M11 3.18117V20.8212C11 21.4612 10.41 21.9412 9.79 21.8012C5.32 20.8012 2 16.7912 2 12.0012C2 7.21117 5.32 3.20117 9.79 2.20117C10.41 2.06117 11 2.54118 11 3.18117V3.18117ZM13.03 3.18117V9.99117C13.03 10.5412 13.48 10.9912 14.03 10.9912H20.82C21.46 10.9912 21.94 10.4012 21.8 9.77118C20.95 6.01118 18 3.05118 14.25 2.20117C13.62 2.06117 13.03 2.54118 13.03 3.18117V3.18117ZM13.03 14.0112V20.8212C13.03 21.4612 13.62 21.9412 14.25 21.8012C18.01 20.9512 20.96 17.9812 21.81 14.2212C21.95 13.6012 21.46 13.0012 20.83 13.0012H14.04C13.48 13.0112 13.03 13.4612 13.03 14.0112Z" fill="black"/>
</g>
<defs>
<clipPath id="clip0_61_15401">
<rect width="24" height="24" fill="white" transform="translate(0 0.000976562)"/>
</clipPath>
</defs>
</svg>
