<svg viewBox="0 0 24 24" xmlns="http://www.w3.org/2000/svg">
<g clip-path="url(#clip0_61_15403)">
<path d="M21.68 9.71098L17.96 17.901C17.73 18.391 17 18.231 17 17.691V11.001H15.5C15.22 11.001 15 10.781 15 10.501V4.50098C15 4.22098 15.22 4.00098 15.5 4.00098H21.26C21.61 4.00098 21.86 4.36098 21.72 4.69098L20 9.00098H21.22C21.59 9.00098 21.83 9.38098 21.68 9.71098ZM15 13.001V20.001H4C2.9 20.001 2 19.101 2 18.001V15.001C2 13.901 2.9 13.001 4 13.001H15ZM6.25 16.501C6.25 16.091 5.91 15.751 5.5 15.751C5.09 15.751 4.75 16.091 4.75 16.501C4.75 16.911 5.09 17.251 5.5 17.251C5.91 17.251 6.25 16.911 6.25 16.501ZM13 4.00098V11.001H4C2.9 11.001 2 10.101 2 9.00098V6.00098C2 4.90098 2.9 4.00098 4 4.00098H13ZM6.25 7.50098C6.25 7.09098 5.91 6.75098 5.5 6.75098C5.09 6.75098 4.75 7.09098 4.75 7.50098C4.75 7.91098 5.09 8.25098 5.5 8.25098C5.91 8.25098 6.25 7.91098 6.25 7.50098Z"/>
</g>
<defs>
<clipPath id="clip0_61_15403">
<rect transform="translate(0 0.000976562)"/>
</clipPath>
</defs>
</svg>
