<svg viewBox="0 0 24 24" xmlns="http://www.w3.org/2000/svg">
<g clip-path="url(#clip0_61_15406)">
<path d="M15 18.501C12.49 18.501 10.32 17.081 9.24 15.001H14C14.55 15.001 15 14.551 15 14.001C15 13.451 14.55 13.001 14 13.001H8.58C8.53 12.671 8.5 12.341 8.5 12.001C8.5 11.661 8.53 11.331 8.58 11.001H14C14.55 11.001 15 10.551 15 10.001C15 9.45098 14.55 9.00098 14 9.00098H9.24C10.32 6.92098 12.5 5.50098 15 5.50098C16.25 5.50098 17.42 5.86098 18.42 6.47098C18.92 6.78098 19.57 6.73098 19.99 6.31098C20.57 5.73098 20.44 4.78098 19.74 4.35098C18.36 3.50098 16.73 3.00098 15 3.00098C11.08 3.00098 7.76 5.51098 6.52 9.00098H4C3.45 9.00098 3 9.45098 3 10.001C3 10.551 3.45 11.001 4 11.001H6.06C6.02 11.331 6 11.661 6 12.001C6 12.341 6.02 12.671 6.06 13.001H4C3.45 13.001 3 13.451 3 14.001C3 14.551 3.45 15.001 4 15.001H6.52C7.76 18.491 11.08 21.001 15 21.001C16.74 21.001 18.36 20.511 19.74 19.651C20.43 19.221 20.56 18.261 19.98 17.681C19.56 17.261 18.91 17.211 18.41 17.531C17.42 18.151 16.26 18.501 15 18.501Z"/>
</g>
<defs>
<clipPath id="clip0_61_15406">
<rect transform="translate(0 0.000976562)"/>
</clipPath>
</defs>
</svg>
