<svg viewBox="0 0 24 24" xmlns="http://www.w3.org/2000/svg">
<g clip-path="url(#clip0_61_15408)">
<path d="M5.5 21.001C6.33 21.001 7 20.331 7 19.501V18.001H17V19.501C17 20.331 17.67 21.001 18.5 21.001C19.33 21.001 20 20.331 20 19.501V17.001C20 15.901 19.1 15.001 18 15.001H6C4.9 15.001 4 15.901 4 17.001V19.501C4 20.331 4.67 21.001 5.5 21.001ZM20 10.001H21C21.55 10.001 22 10.451 22 11.001V12.001C22 12.551 21.55 13.001 21 13.001H20C19.45 13.001 19 12.551 19 12.001V11.001C19 10.451 19.45 10.001 20 10.001ZM3 10.001H4C4.55 10.001 5 10.451 5 11.001V12.001C5 12.551 4.55 13.001 4 13.001H3C2.45 13.001 2 12.551 2 12.001V11.001C2 10.451 2.45 10.001 3 10.001ZM17 13.001H7V5.00098C7 3.90098 7.9 3.00098 9 3.00098H15C16.1 3.00098 17 3.90098 17 5.00098V13.001Z"/>
</g>
<defs>
<clipPath id="clip0_61_15408">
<rect transform="translate(0 0.000976562)"/>
</clipPath>
</defs>
</svg>
