<svg viewBox="0 0 24 24" xmlns="http://www.w3.org/2000/svg">
<g clip-path="url(#clip0_61_15407)">
<path d="M16 13.001H13C12.45 13.001 12 13.451 12 14.001V17.001C12 17.551 12.45 18.001 13 18.001H16C16.55 18.001 17 17.551 17 17.001V14.001C17 13.451 16.55 13.001 16 13.001ZM16 3.00098V4.00098H8V3.00098C8 2.45098 7.55 2.00098 7 2.00098C6.45 2.00098 6 2.45098 6 3.00098V4.00098H5C3.89 4.00098 3.01 4.90098 3.01 6.00098L3 20.001C3 21.101 3.89 22.001 5 22.001H19C20.1 22.001 21 21.101 21 20.001V6.00098C21 4.90098 20.1 4.00098 19 4.00098H18V3.00098C18 2.45098 17.55 2.00098 17 2.00098C16.45 2.00098 16 2.45098 16 3.00098ZM18 20.001H6C5.45 20.001 5 19.551 5 19.001V9.00098H19V19.001C19 19.551 18.55 20.001 18 20.001Z"/>
</g>
<defs>
<clipPath id="clip0_61_15407">
<rect transform="translate(0 0.000976562)"/>
</clipPath>
</defs>
</svg>
