<svg viewBox="0 0 24 24" xmlns="http://www.w3.org/2000/svg">
<g clip-path="url(#clip0_61_15409)">
<path d="M10.79 16.291C11.18 16.681 11.81 16.681 12.2 16.291L15.79 12.701C16.18 12.311 16.18 11.681 15.79 11.291L12.2 7.70098C11.81 7.31098 11.18 7.31098 10.79 7.70098C10.4 8.09098 10.4 8.72098 10.79 9.11098L12.67 11.001H4C3.45 11.001 3 11.451 3 12.001C3 12.551 3.45 13.001 4 13.001H12.67L10.79 14.881C10.4 15.271 10.41 15.911 10.79 16.291ZM19 3.00098H5C3.89 3.00098 3 3.90098 3 5.00098V8.00098C3 8.55098 3.45 9.00098 4 9.00098C4.55 9.00098 5 8.55098 5 8.00098V6.00098C5 5.45098 5.45 5.00098 6 5.00098H18C18.55 5.00098 19 5.45098 19 6.00098V18.001C19 18.551 18.55 19.001 18 19.001H6C5.45 19.001 5 18.551 5 18.001V16.001C5 15.451 4.55 15.001 4 15.001C3.45 15.001 3 15.451 3 16.001V19.001C3 20.101 3.9 21.001 5 21.001H19C20.1 21.001 21 20.101 21 19.001V5.00098C21 3.90098 20.1 3.00098 19 3.00098Z"/>
</g>
<defs>
<clipPath id="clip0_61_15409">
<rect transform="translate(0 0.000976562)"/>
</clipPath>
</defs>
</svg>
