<svg   viewBox="0 0 24 24" fill="none" xmlns="http://www.w3.org/2000/svg">
<g clip-path="url(#clip0_61_15410)">
<path d="M12 10.901C11.39 10.901 10.9 11.391 10.9 12.001C10.9 12.611 11.39 13.101 12 13.101C12.61 13.101 13.1 12.611 13.1 12.001C13.1 11.391 12.61 10.901 12 10.901ZM12 2.00098C6.48 2.00098 2 6.48098 2 12.001C2 17.521 6.48 22.001 12 22.001C17.52 22.001 22 17.521 22 12.001C22 6.48098 17.52 2.00098 12 2.00098ZM14.19 14.191L6 18.001L9.81 9.81098L18 6.00098L14.19 14.191Z" fill="black"/>
</g>
<defs>
<clipPath id="clip0_61_15410">
<rect width="24" height="24" fill="white" transform="translate(0 0.000976562)"/>
</clipPath>
</defs>
</svg>
