<svg viewBox="0 0 24 24" xmlns="http://www.w3.org/2000/svg">
<g clip-path="url(#clip0_61_15411)">
<path d="M18.0014 6.00098L15.0914 12.261L20.3414 17.511C21.3914 15.931 22.0014 14.041 22.0014 12.001C22.0014 6.48098 17.5214 2.00098 12.0014 2.00098C9.9614 2.00098 8.0714 2.61098 6.4914 3.66098L11.7414 8.91098L18.0014 6.00098ZM2.8114 5.64098L3.6614 6.49098C2.2914 8.56098 1.6614 11.171 2.1814 13.941C2.9314 17.891 6.1014 21.071 10.0614 21.821C12.8314 22.341 15.4414 21.721 17.5114 20.341L18.3614 21.191C18.7514 21.581 19.3814 21.581 19.7714 21.191C20.1614 20.801 20.1614 20.171 19.7714 19.781L4.2214 4.22098C3.8314 3.83098 3.2014 3.83098 2.8114 4.22098C2.4214 4.61098 2.4214 5.25098 2.8114 5.64098V5.64098ZM8.9114 11.741L12.2614 15.091L6.0014 18.001L8.9114 11.741V11.741Z"/>
</g>
<defs>
<clipPath id="clip0_61_15411">
<rect transform="translate(0 0.000976562)"/>
</clipPath>
</defs>
</svg>
