<svg viewBox="0 0 24 24" xmlns="http://www.w3.org/2000/svg">
<g clip-path="url(#clip0_61_15412)">
<path d="M20.5 11.001H19V7.00098C19 5.90098 18.1 5.00098 17 5.00098H13V3.50098C13 2.12098 11.88 1.00098 10.5 1.00098C9.12 1.00098 8 2.12098 8 3.50098V5.00098H4C2.9 5.00098 2.01 5.90098 2.01 7.00098V10.801H3.5C4.99 10.801 6.2 12.011 6.2 13.501C6.2 14.991 4.99 16.201 3.5 16.201H2V20.001C2 21.101 2.9 22.001 4 22.001H7.8V20.501C7.8 19.011 9.01 17.801 10.5 17.801C11.99 17.801 13.2 19.011 13.2 20.501V22.001H17C18.1 22.001 19 21.101 19 20.001V16.001H20.5C21.88 16.001 23 14.881 23 13.501C23 12.121 21.88 11.001 20.5 11.001Z"/>
</g>
<defs>
<clipPath id="clip0_61_15412">
<rect transform="translate(0 0.000976562)"/>
</clipPath>
</defs>
</svg>
