<svg   viewBox="0 0 24 24" fill="none" xmlns="http://www.w3.org/2000/svg">
<g clip-path="url(#clip0_61_15413)">
<path d="M9 11.751C8.31 11.751 7.75 12.311 7.75 13.001C7.75 13.691 8.31 14.251 9 14.251C9.69 14.251 10.25 13.691 10.25 13.001C10.25 12.311 9.69 11.751 9 11.751ZM15 11.751C14.31 11.751 13.75 12.311 13.75 13.001C13.75 13.691 14.31 14.251 15 14.251C15.69 14.251 16.25 13.691 16.25 13.001C16.25 12.311 15.69 11.751 15 11.751ZM12 2.00098C6.48 2.00098 2 6.48098 2 12.001C2 17.521 6.48 22.001 12 22.001C17.52 22.001 22 17.521 22 12.001C22 6.48098 17.52 2.00098 12 2.00098ZM12 20.001C7.59 20.001 4 16.411 4 12.001C4 11.711 4.02 11.421 4.05 11.141C6.41 10.091 8.28 8.16098 9.26 5.77098C11.07 8.33098 14.05 10.001 17.42 10.001C18.2 10.001 18.95 9.91098 19.67 9.74098C19.88 10.451 20 11.211 20 12.001C20 16.411 16.41 20.001 12 20.001Z" fill="black"/>
</g>
<defs>
<clipPath id="clip0_61_15413">
<rect width="24" height="24" fill="white" transform="translate(0 0.000976562)"/>
</clipPath>
</defs>
</svg>
