<svg viewBox="0 0 24 24" xmlns="http://www.w3.org/2000/svg">
<g clip-path="url(#clip0_61_15414)">
<path d="M10.25 13.001C10.25 13.691 9.69 14.251 9 14.251C8.31 14.251 7.75 13.691 7.75 13.001C7.75 12.311 8.31 11.751 9 11.751C9.69 11.751 10.25 12.311 10.25 13.001ZM15 11.751C14.31 11.751 13.75 12.311 13.75 13.001C13.75 13.691 14.31 14.251 15 14.251C15.69 14.251 16.25 13.691 16.25 13.001C16.25 12.311 15.69 11.751 15 11.751ZM22 12.001C22 17.521 17.52 22.001 12 22.001C6.48 22.001 2 17.521 2 12.001C2 6.48098 6.48 2.00098 12 2.00098C17.52 2.00098 22 6.48098 22 12.001ZM10.66 4.12098C12.06 6.44098 14.6 8.00098 17.5 8.00098C17.96 8.00098 18.41 7.95098 18.84 7.88098C17.44 5.56098 14.9 4.00098 12 4.00098C11.54 4.00098 11.09 4.05098 10.66 4.12098ZM4.42 9.47098C6.13 8.50098 7.45 6.92098 8.08 5.03098C6.37 6.00098 5.05 7.58098 4.42 9.47098ZM20 12.001C20 11.221 19.88 10.471 19.67 9.76098C18.97 9.91098 18.25 10.001 17.5 10.001C14.37 10.001 11.58 8.56098 9.74 6.31098C8.69 8.87098 6.6 10.881 4 11.861C4.01 11.901 4 11.951 4 12.001C4 16.411 7.59 20.001 12 20.001C16.41 20.001 20 16.411 20 12.001Z"/>
</g>
<defs>
<clipPath id="clip0_61_15414">
<rect transform="translate(0 0.000976562)"/>
</clipPath>
</defs>
</svg>
