<svg viewBox="0 0 24 24" xmlns="http://www.w3.org/2000/svg">
<g clip-path="url(#clip0_61_15415)">
<path fill-rule="evenodd" clip-rule="evenodd" d="M20 3.00098H4C2.9 3.00098 2 3.90098 2 5.00098V19.001C2 20.101 2.9 21.001 4 21.001H20C21.1 21.001 22 20.101 22 19.001V5.00098C22 3.90098 21.1 3.00098 20 3.00098ZM9 17.001H6C5.45 17.001 5 16.551 5 16.001C5 15.451 5.45 15.001 6 15.001H9C9.55 15.001 10 15.451 10 16.001C10 16.551 9.55 17.001 9 17.001ZM9 13.001H6C5.45 13.001 5 12.551 5 12.001C5 11.451 5.45 11.001 6 11.001H9C9.55 11.001 10 11.451 10 12.001C10 12.551 9.55 13.001 9 13.001ZM9 9.00098H6C5.45 9.00098 5 8.55098 5 8.00098C5 7.45098 5.45 7.00098 6 7.00098H9C9.55 7.00098 10 7.45098 10 8.00098C10 8.55098 9.55 9.00098 9 9.00098ZM18.7 11.121L15.53 14.291C15.14 14.681 14.5 14.681 14.11 14.291L12.7 12.871C12.31 12.481 12.31 11.851 12.7 11.461C13.09 11.071 13.72 11.071 14.11 11.461L14.82 12.171L17.29 9.70098C17.68 9.31098 18.31 9.31098 18.7 9.70098L18.71 9.71098C19.09 10.101 19.09 10.741 18.7 11.121Z"/>
</g>
<defs>
<clipPath id="clip0_61_15415">
<rect transform="translate(0 0.000976562)"/>
</clipPath>
</defs>
</svg>
