<svg viewBox="0 0 24 24" xmlns="http://www.w3.org/2000/svg">
<g clip-path="url(#clip0_61_15417)">
<path d="M19.6602 3.99065C17.0202 2.19065 13.7602 3.03065 12.0002 5.09065C10.2402 3.03065 6.98021 2.18065 4.34021 3.99065C2.94021 4.95065 2.06021 6.57065 2.00021 8.28065C1.86021 12.1607 5.30021 15.2707 10.5502 20.0407L10.6502 20.1307C11.4102 20.8207 12.5802 20.8207 13.3402 20.1207L13.4502 20.0207C18.7002 15.2607 22.1302 12.1507 22.0002 8.27065C21.9402 6.57065 21.0602 4.95065 19.6602 3.99065V3.99065ZM12.1002 18.5507L12.0002 18.6507L11.9002 18.5507C7.14021 14.2407 4.00021 11.3907 4.00021 8.50065C4.00021 6.50065 5.50021 5.00065 7.50021 5.00065C9.04021 5.00065 10.5402 5.99065 11.0702 7.36065H12.9402C13.4602 5.99065 14.9602 5.00065 16.5002 5.00065C18.5002 5.00065 20.0002 6.50065 20.0002 8.50065C20.0002 11.3907 16.8602 14.2407 12.1002 18.5507Z"/>
</g>
<defs>
<clipPath id="clip0_61_15417">
<rect transform="translate(0 0.000976562)"/>
</clipPath>
</defs>
</svg>
