<svg   viewBox="0 0 24 24" fill="none" xmlns="http://www.w3.org/2000/svg">
<g clip-path="url(#clip0_61_15418)">
<path d="M20.0017 2.00098H4.01172C2.91172 2.00098 2.01172 2.90098 2.01172 4.00098V22.001L6.00172 18.001H20.0017C21.1017 18.001 22.0017 17.101 22.0017 16.001V4.00098C22.0017 2.90098 21.1017 2.00098 20.0017 2.00098ZM13.0017 14.001H11.0017V12.001H13.0017V14.001ZM13.0017 9.00098C13.0017 9.55098 12.5517 10.001 12.0017 10.001C11.4517 10.001 11.0017 9.55098 11.0017 9.00098V7.00098C11.0017 6.45098 11.4517 6.00098 12.0017 6.00098C12.5517 6.00098 13.0017 6.45098 13.0017 7.00098V9.00098Z" fill="black"/>
</g>
<defs>
<clipPath id="clip0_61_15418">
<rect width="24" height="24" fill="white" transform="translate(0 0.000976562)"/>
</clipPath>
</defs>
</svg>
