<svg viewBox="0 0 24 24" xmlns="http://www.w3.org/2000/svg">
<g clip-path="url(#clip0_61_15420)">
<path d="M20 19.591V8.83098C20 8.30098 19.79 7.79098 19.41 7.42098L14.58 2.59098C14.21 2.21098 13.7 2.00098 13.17 2.00098H6C4.9 2.00098 4.01 2.90098 4.01 4.00098L4 20.001C4 21.101 4.89 22.001 5.99 22.001H18C18.45 22.001 18.85 21.851 19.19 21.601L14.76 17.171C13.9 17.731 12.87 18.051 11.76 17.991C9.39 17.881 7.36 16.031 7.04 13.681C6.6 10.331 9.49 7.50098 12.87 8.07098C14.82 8.40098 16.44 9.92098 16.87 11.851C17.2 13.311 16.88 14.671 16.17 15.751L20 19.591ZM9 13.001C9 14.661 10.34 16.001 12 16.001C13.66 16.001 15 14.661 15 13.001C15 11.341 13.66 10.001 12 10.001C10.34 10.001 9 11.341 9 13.001Z"/>
</g>
<defs>
<clipPath id="clip0_61_15420">
<rect transform="translate(0 0.000976562)"/>
</clipPath>
</defs>
</svg>
