<svg viewBox="0 0 24 24" xmlns="http://www.w3.org/2000/svg">
<g clip-path="url(#clip0_61_15421)">
<path d="M11 6.00098C12.38 6.00098 13.63 6.56098 14.54 7.46098L12.85 9.15098C12.54 9.46098 12.76 10.001 13.21 10.001H17.5C17.78 10.001 18 9.78098 18 9.50098V5.21098C18 4.76098 17.46 4.54098 17.15 4.86098L15.95 6.06098C14.68 4.78098 12.93 4.00098 11 4.00098C7.96 4.00098 5.38 5.94098 4.42 8.64098C4.18 9.30098 4.65 10.001 5.35 10.001C5.77 10.001 6.14 9.74098 6.28 9.34098C6.96 7.40098 8.82 6.00098 11 6.00098ZM16.64 15.141C17.04 14.601 17.36 13.991 17.59 13.341C17.82 12.691 17.34 12.001 16.65 12.001C16.23 12.001 15.86 12.261 15.72 12.661C15.04 14.601 13.18 16.001 11 16.001C9.62 16.001 8.37 15.441 7.46 14.541L9.15 12.851C9.46 12.541 9.24 12.001 8.79 12.001H4.5C4.22 12.001 4 12.221 4 12.501V16.791C4 17.241 4.54 17.461 4.85 17.141L6.05 15.941C7.32 17.221 9.07 18.001 11 18.001C12.55 18.001 13.98 17.491 15.14 16.641L19.25 20.751C19.66 21.161 20.33 21.161 20.74 20.751C21.15 20.341 21.15 19.671 20.74 19.261L16.64 15.141Z"/>
</g>
<defs>
<clipPath id="clip0_61_15421">
<rect transform="translate(0 0.000976562)"/>
</clipPath>
</defs>
</svg>
