<svg viewBox="0 0 24 24" xmlns="http://www.w3.org/2000/svg">
<g clip-path="url(#clip0_61_15422)">
<path d="M17.8093 4.47098C17.7293 4.47098 17.6493 4.45098 17.5793 4.41098C15.6593 3.42098 13.9993 3.00098 12.0093 3.00098C10.0293 3.00098 8.14925 3.47098 6.43925 4.41098C6.19925 4.54098 5.89925 4.45098 5.75925 4.21098C5.62925 3.97098 5.71925 3.66098 5.95925 3.53098C7.81925 2.52098 9.85925 2.00098 12.0093 2.00098C14.1393 2.00098 15.9993 2.47098 18.0393 3.52098C18.2893 3.65098 18.3793 3.95098 18.2493 4.19098C18.1593 4.37098 17.9893 4.47098 17.8093 4.47098V4.47098ZM3.49925 9.72098C3.39925 9.72098 3.29925 9.69098 3.20925 9.63098C2.97925 9.47098 2.92925 9.16098 3.08925 8.93098C4.07925 7.53098 5.33925 6.43098 6.83925 5.66098C9.97925 4.04098 13.9993 4.03098 17.1493 5.65098C18.6493 6.42098 19.9093 7.51098 20.8993 8.90098C21.0593 9.12098 21.0093 9.44098 20.7793 9.60098C20.5493 9.76098 20.2393 9.71098 20.0793 9.48098C19.1793 8.22098 18.0393 7.23098 16.6893 6.54098C13.8193 5.07098 10.1493 5.07098 7.28925 6.55098C5.92925 7.25098 4.78925 8.25098 3.88925 9.51098C3.80925 9.65098 3.65925 9.72098 3.49925 9.72098V9.72098ZM9.74925 21.791C9.61925 21.791 9.48925 21.741 9.39925 21.641C8.52925 20.771 8.05925 20.211 7.38925 19.001C6.69925 17.771 6.33925 16.271 6.33925 14.661C6.33925 11.691 8.87925 9.27098 11.9993 9.27098C15.1193 9.27098 17.6593 11.691 17.6593 14.661C17.6593 14.941 17.4393 15.161 17.1593 15.161C16.8793 15.161 16.6593 14.941 16.6593 14.661C16.6593 12.241 14.5693 10.271 11.9993 10.271C9.42925 10.271 7.33925 12.241 7.33925 14.661C7.33925 16.101 7.65925 17.431 8.26925 18.511C8.90925 19.661 9.34925 20.151 10.1193 20.931C10.3093 21.131 10.3093 21.441 10.1193 21.641C10.0093 21.741 9.87925 21.791 9.74925 21.791ZM16.9193 19.941C15.7293 19.941 14.6793 19.641 13.8193 19.051C12.3293 18.041 11.4393 16.401 11.4393 14.661C11.4393 14.381 11.6593 14.161 11.9393 14.161C12.2193 14.161 12.4393 14.381 12.4393 14.661C12.4393 16.071 13.1593 17.401 14.3793 18.221C15.0893 18.701 15.9193 18.931 16.9193 18.931C17.1593 18.931 17.5593 18.901 17.9593 18.831C18.2293 18.781 18.4893 18.961 18.5393 19.241C18.5893 19.511 18.4093 19.771 18.1293 19.821C17.5593 19.931 17.0593 19.941 16.9193 19.941V19.941ZM14.9093 22.001C14.8693 22.001 14.8193 21.991 14.7793 21.981C13.1893 21.541 12.1493 20.951 11.0593 19.881C9.65925 18.491 8.88925 16.641 8.88925 14.661C8.88925 13.041 10.2693 11.721 11.9693 11.721C13.6693 11.721 15.0493 13.041 15.0493 14.661C15.0493 15.731 15.9793 16.601 17.1293 16.601C18.2793 16.601 19.2093 15.731 19.2093 14.661C19.2093 10.891 15.9593 7.83098 11.9593 7.83098C9.11925 7.83098 6.51925 9.41098 5.34925 11.861C4.95925 12.671 4.75925 13.621 4.75925 14.661C4.75925 15.441 4.82925 16.671 5.42925 18.271C5.52925 18.531 5.39925 18.821 5.13925 18.911C4.87925 19.011 4.58925 18.871 4.49925 18.621C4.00925 17.311 3.76925 16.011 3.76925 14.661C3.76925 13.461 3.99925 12.371 4.44925 11.421C5.77925 8.63098 8.72925 6.82098 11.9593 6.82098C16.5093 6.82098 20.2093 10.331 20.2093 14.651C20.2093 16.271 18.8293 17.591 17.1293 17.591C15.4293 17.591 14.0493 16.271 14.0493 14.651C14.0493 13.581 13.1193 12.711 11.9693 12.711C10.8193 12.711 9.88925 13.581 9.88925 14.651C9.88925 16.361 10.5493 17.961 11.7593 19.161C12.7093 20.101 13.6193 20.621 15.0293 21.011C15.2993 21.081 15.4493 21.361 15.3793 21.621C15.3293 21.851 15.1193 22.001 14.9093 22.001V22.001Z"/>
</g>
<defs>
<clipPath id="clip0_61_15422">
<rect transform="translate(0 0.000976562)"/>
</clipPath>
</defs>
</svg>
