<svg   viewBox="0 0 24 24" fill="none" xmlns="http://www.w3.org/2000/svg">
<g clip-path="url(#clip0_61_15423)">
<path fill-rule="evenodd" clip-rule="evenodd" d="M12.16 15.721C11.87 15.431 11.87 14.951 12.16 14.661C12.45 14.371 12.93 14.371 13.22 14.661L14.04 15.481L16 13.521C16.29 13.231 16.77 13.231 17.06 13.521C17.35 13.811 17.35 14.291 17.06 14.581L14.41 17.231C14.22 17.421 13.9 17.431 13.71 17.231L12.16 15.721ZM12 2.00098C6.5 2.00098 2 6.50098 2 12.001C2 17.501 6.5 22.001 12 22.001C17.5 22.001 22 17.501 22 12.001C22 6.50098 17.5 2.00098 12 2.00098ZM7.87 6.81098L8.75 7.69098L9.63 6.81098C9.92 6.52098 10.4 6.52098 10.69 6.81098C10.98 7.10098 10.98 7.58098 10.69 7.87098L9.81 8.75098L10.69 9.63098C10.98 9.92098 10.98 10.401 10.69 10.691C10.4 10.981 9.92 10.981 9.63 10.691L8.75 9.81098L7.87 10.691C7.58 10.981 7.1 10.981 6.81 10.691C6.52 10.401 6.52 9.92098 6.81 9.63098L7.69 8.75098L6.81 7.87098C6.52 7.58098 6.52 7.10098 6.81 6.81098C7.1 6.51098 7.57 6.51098 7.87 6.81098ZM12 20.001C9.8 20.001 7.8 19.101 6.3 17.701L17.7 6.30098C19.1 7.80098 20 9.80098 20 12.001C20 16.401 16.4 20.001 12 20.001Z" fill="black"/>
</g>
<defs>
<clipPath id="clip0_61_15423">
<rect width="24" height="24" fill="white" transform="translate(0 0.000976562)"/>
</clipPath>
</defs>
</svg>
