<svg   viewBox="0 0 24 24" fill="none" xmlns="http://www.w3.org/2000/svg">
<g clip-path="url(#clip0_61_15424)">
<path d="M20.5 19.0008H3.5C2.95 19.0008 2.5 19.4508 2.5 20.0008C2.5 20.5508 2.95 21.0008 3.5 21.0008H20.5C21.05 21.0008 21.5 20.5508 21.5 20.0008C21.5 19.4508 21.05 19.0008 20.5 19.0008ZM3.51 11.6108L19.34 15.8508C20.14 16.0608 20.96 15.5908 21.18 14.7908C21.39 13.9908 20.92 13.1708 20.12 12.9508L14.81 11.5308L12.23 3.08084C12.12 2.72084 11.84 2.45084 11.48 2.35084C10.8 2.17084 10.13 2.68084 10.13 3.39084V10.2708L5.15 8.95084L4.4 7.09084C4.28 6.80084 4.04 6.58084 3.73 6.50084L3.4 6.41084C3.08 6.32084 2.77 6.56084 2.77 6.89084V10.6408C2.77 11.1008 3.07 11.4908 3.51 11.6108V11.6108Z" fill="black"/>
</g>
<defs>
<clipPath id="clip0_61_15424">
<rect width="24" height="24" fill="white" transform="translate(0 0.000976562)"/>
</clipPath>
</defs>
</svg>
