<svg viewBox="0 0 24 24" xmlns="http://www.w3.org/2000/svg">
<g clip-path="url(#clip0_61_15425)">
<path d="M20.5002 19.0013H3.50022C2.95022 19.0013 2.50022 19.4513 2.50022 20.0013C2.50022 20.5513 2.95022 21.0013 3.50022 21.0013H20.5002C21.0502 21.0013 21.5002 20.5513 21.5002 20.0013C21.5002 19.4513 21.0502 19.0013 20.5002 19.0013ZM22.0702 9.64125C21.8502 8.84125 21.0302 8.37125 20.2302 8.58125L14.9202 10.0013L8.46022 3.98125C8.19022 3.72125 7.80022 3.63125 7.44022 3.73125C6.76022 3.92125 6.44022 4.70125 6.79022 5.31125L10.2302 11.2713L5.26022 12.6013L3.69022 11.3613C3.44022 11.1713 3.12022 11.1013 2.81022 11.1813L2.48022 11.2713C2.16022 11.3513 2.01022 11.7213 2.18022 12.0013L4.06022 15.2513C4.29022 15.6413 4.75022 15.8313 5.18022 15.7213L21.0002 11.4813C21.8002 11.2613 22.2802 10.4413 22.0702 9.64125Z"/>
</g>
<defs>
<clipPath id="clip0_61_15425">
<rect transform="translate(0 0.000976562)"/>
</clipPath>
</defs>
</svg>
