<svg   viewBox="0 0 24 24" fill="none" xmlns="http://www.w3.org/2000/svg">
<g clip-path="url(#clip0_61_15426)">
<path d="M9 7.00098H7V9.00098H9V7.00098ZM9 11.001H7V13.001H9V11.001ZM9 3.00098C7.89 3.00098 7 3.90098 7 5.00098H9V3.00098ZM13 15.001H11V17.001H13V15.001ZM19 3.00098V5.00098H21C21 3.90098 20.1 3.00098 19 3.00098ZM13 3.00098H11V5.00098H13V3.00098ZM9 17.001V15.001H7C7 16.101 7.89 17.001 9 17.001ZM19 13.001H21V11.001H19V13.001ZM19 9.00098H21V7.00098H19V9.00098ZM19 17.001C20.1 17.001 21 16.101 21 15.001H19V17.001ZM4 7.00098C3.45 7.00098 3 7.45098 3 8.00098V19.001C3 20.101 3.9 21.001 5 21.001H16C16.55 21.001 17 20.551 17 20.001C17 19.451 16.55 19.001 16 19.001H6C5.45 19.001 5 18.551 5 18.001V8.00098C5 7.45098 4.55 7.00098 4 7.00098ZM15 5.00098H17V3.00098H15V5.00098ZM15 17.001H17V15.001H15V17.001Z" fill="black"/>
</g>
<defs>
<clipPath id="clip0_61_15426">
<rect width="24" height="24" fill="white" transform="translate(0 0.000976562)"/>
</clipPath>
</defs>
</svg>
