<svg   viewBox="0 0 24 24" fill="none" xmlns="http://www.w3.org/2000/svg">
<g clip-path="url(#clip0_61_15427)">
<path d="M3 13.001H5V11.001H3V13.001ZM3 17.001H5V15.001H3V17.001ZM5 21.001V19.001H3C3 20.101 3.89 21.001 5 21.001ZM3 9.00098H5V7.00098H3V9.00098ZM15 21.001H17V19.001H15V21.001ZM19 3.00098H9C7.89 3.00098 7 3.90098 7 5.00098V15.001C7 16.101 7.89 17.001 9 17.001H19C20.1 17.001 21 16.101 21 15.001V5.00098C21 3.90098 20.1 3.00098 19 3.00098ZM18 15.001H10C9.45 15.001 9 14.551 9 14.001V6.00098C9 5.45098 9.45 5.00098 10 5.00098H18C18.55 5.00098 19 5.45098 19 6.00098V14.001C19 14.551 18.55 15.001 18 15.001ZM11 21.001H13V19.001H11V21.001ZM7 21.001H9V19.001H7V21.001Z" fill="black"/>
</g>
<defs>
<clipPath id="clip0_61_15427">
<rect width="24" height="24" fill="white" transform="translate(0 0.000976562)"/>
</clipPath>
</defs>
</svg>
