<svg viewBox="0 0 24 24" xmlns="http://www.w3.org/2000/svg">
<g clip-path="url(#clip0_61_15434)">
<path d="M20 5.00098H10.88L10 2.00098H4C2.9 2.00098 2 2.90098 2 4.00098V17.001C2 18.101 2.9 19.001 4 19.001H11L12 22.001H20C21.1 22.001 22 21.101 22 20.001V7.00098C22 5.90098 21.1 5.00098 20 5.00098ZM7.17 14.591C4.92 14.591 3.08 12.761 3.08 10.501C3.08 8.24098 4.91 6.41098 7.17 6.41098C8.21 6.41098 9.16 6.78098 9.91 7.48098L9.98 7.54098L8.75 8.72098L8.69 8.67098C8.4 8.40098 7.91 8.08098 7.17 8.08098C5.86 8.08098 4.79 9.17098 4.79 10.501C4.79 11.831 5.86 12.921 7.17 12.921C8.54 12.921 9.13 12.051 9.29 11.461H7.08V9.91098H11.03L11.04 9.98098C11.08 10.191 11.09 10.381 11.09 10.591C11.09 12.941 9.48 14.591 7.17 14.591V14.591ZM13.2 12.881C13.53 13.481 13.94 14.061 14.39 14.581L13.85 15.111L13.2 12.881V12.881ZM13.97 12.121H12.98L12.67 11.081H16.66C16.66 11.081 16.32 12.391 15.1 13.821C14.58 13.201 14.21 12.591 13.97 12.121V12.121ZM21 20.001C21 20.551 20.55 21.001 20 21.001H13L15 19.001L14.19 16.231L15.11 15.311L17.79 18.001L18.52 17.271L15.81 14.591C16.71 13.561 17.41 12.341 17.73 11.081H19V10.041H15.36V9.00098H14.32V10.041H12.36L11.18 6.00098H20C20.55 6.00098 21 6.45098 21 7.00098V20.001Z"/>
</g>
<defs>
<clipPath id="clip0_61_15434">
<rect transform="translate(0 0.000976562)"/>
</clipPath>
</defs>
</svg>
