<svg   viewBox="0 0 24 24" fill="none" xmlns="http://www.w3.org/2000/svg">
<g clip-path="url(#clip0_61_15428)">
<path d="M2 21.0009H12C12.55 21.0009 13 21.4509 13 22.0009C13 22.5509 12.55 23.0009 12 23.0009H2C1.45 23.0009 1 22.5509 1 22.0009C1 21.4509 1.45 21.0009 2 21.0009ZM5.24 8.0709L8.07 5.2409L20.8 17.9709C21.58 18.7509 21.58 20.0209 20.8 20.8009C20.02 21.5809 18.75 21.5809 17.97 20.8009L5.24 8.0709ZM13.73 2.4109L16.56 5.2409C17.34 6.0209 17.34 7.2909 16.56 8.0709L15.14 9.4909L9.49 3.8309L10.9 2.4209C11.68 1.6309 12.95 1.6309 13.73 2.4109V2.4109ZM3.83 9.4809L9.49 15.1409L8.08 16.5509C7.3 17.3309 6.03 17.3309 5.25 16.5509L2.42 13.7209C1.64 12.9409 1.64 11.6709 2.42 10.8909L3.83 9.4809Z" fill="black"/>
</g>
<defs>
<clipPath id="clip0_61_15428">
<rect width="24" height="24" fill="white" transform="translate(0 0.000976562)"/>
</clipPath>
</defs>
</svg>
