<svg   viewBox="0 0 24 24" fill="none" xmlns="http://www.w3.org/2000/svg">
<g clip-path="url(#clip0_61_15429)">
<path d="M16.59 9.00098H15V4.00098C15 3.45098 14.55 3.00098 14 3.00098H10C9.45 3.00098 9 3.45098 9 4.00098V9.00098H7.41C6.52 9.00098 6.07 10.081 6.7 10.711L11.29 15.301C11.68 15.691 12.31 15.691 12.7 15.301L17.29 10.711C17.92 10.081 17.48 9.00098 16.59 9.00098ZM5 19.001C5 19.551 5.45 20.001 6 20.001H18C18.55 20.001 19 19.551 19 19.001C19 18.451 18.55 18.001 18 18.001H6C5.45 18.001 5 18.451 5 19.001Z" fill="black"/>
</g>
<defs>
<clipPath id="clip0_61_15429">
<rect width="24" height="24" fill="white" transform="translate(0 0.000976562)"/>
</clipPath>
</defs>
</svg>
