<svg viewBox="0 0 24 24" xmlns="http://www.w3.org/2000/svg">
<g clip-path="url(#clip0_61_15430)">
<path d="M12.25 9.00098C12.66 9.00098 13 9.34098 13 9.75098V14.251C13 14.661 12.66 15.001 12.25 15.001C11.84 15.001 11.5 14.661 11.5 14.251V9.75098C11.5 9.34098 11.84 9.00098 12.25 9.00098ZM10 9.75098C10 9.34098 9.66 9.00098 9.25 9.00098H6C5.4 9.00098 5 9.50098 5 10.001V14.001C5 14.501 5.4 15.001 6 15.001H9C9.6 15.001 10 14.501 10 14.001V12.751C10 12.341 9.66 12.001 9.25 12.001C8.84 12.001 8.5 12.341 8.5 12.751V13.501H6.5V10.501H9.25C9.66 10.501 10 10.161 10 9.75098ZM19 9.75098C19 9.34098 18.66 9.00098 18.25 9.00098H15.5C14.95 9.00098 14.5 9.45098 14.5 10.001V14.251C14.5 14.661 14.84 15.001 15.25 15.001C15.66 15.001 16 14.661 16 14.251V13.001H17.25C17.66 13.001 18 12.661 18 12.251C18 11.841 17.66 11.501 17.25 11.501H16V10.501H18.25C18.66 10.501 19 10.161 19 9.75098Z"/>
</g>
<defs>
<clipPath id="clip0_61_15430">
<rect transform="translate(0 0.000976562)"/>
</clipPath>
</defs>
</svg>
