<svg viewBox="0 0 24 24" xmlns="http://www.w3.org/2000/svg">
<g clip-path="url(#clip0_61_15432)">
<path d="M5 7.00098H19C19.55 7.00098 20 7.45098 20 8.00098C20 8.55098 19.55 9.00098 19 9.00098H5C4.45 9.00098 4 8.55098 4 8.00098C4 7.45098 4.45 7.00098 5 7.00098Z"/>
<path d="M5 13.001H19C19.55 13.001 20 12.551 20 12.001C20 11.451 19.55 11.001 19 11.001H5C4.45 11.001 4 11.451 4 12.001C4 12.551 4.45 13.001 5 13.001Z"/>
<path d="M5 17.001H10C10.55 17.001 11 16.551 11 16.001C11 15.451 10.55 15.001 10 15.001H5C4.45 15.001 4 15.451 4 16.001C4 16.551 4.45 17.001 5 17.001Z"/>
<path d="M5 21.001H10C10.55 21.001 11 20.551 11 20.001C11 19.451 10.55 19.001 10 19.001H5C4.45 19.001 4 19.451 4 20.001C4 20.551 4.45 21.001 5 21.001Z"/>
<path d="M15.4086 18.1714L14.6986 17.4614C14.3086 17.0714 13.6786 17.0714 13.2886 17.4614C12.8986 17.8514 12.8986 18.4814 13.2886 18.8714L14.7086 20.2914C15.0986 20.6814 15.7286 20.6814 16.1186 20.2914L19.2886 17.1214C19.6786 16.7314 19.6786 16.1014 19.2886 15.7114C18.8986 15.3214 18.2686 15.3214 17.8786 15.7114L15.4086 18.1714Z"/>
<path d="M4 4.00098C4 4.55098 4.45 5.00098 5 5.00098H19C19.55 5.00098 20 4.55098 20 4.00098C20 3.45098 19.55 3.00098 19 3.00098H5C4.45 3.00098 4 3.45098 4 4.00098Z"/>
</g>
<defs>
<clipPath id="clip0_61_15432">
<rect transform="translate(0 0.000976562)"/>
</clipPath>
</defs>
</svg>
