<svg viewBox="0 0 24 24" xmlns="http://www.w3.org/2000/svg">
<g clip-path="url(#clip0_61_15433)">
<path d="M12 2.00098C6.48 2.00098 2 6.48098 2 12.001C2 17.521 6.48 22.001 12 22.001C17.52 22.001 22 17.521 22 12.001C22 6.48098 17.52 2.00098 12 2.00098ZM8 17.501C6.62 17.501 5.5 16.381 5.5 15.001C5.5 13.621 6.62 12.501 8 12.501C9.38 12.501 10.5 13.621 10.5 15.001C10.5 16.381 9.38 17.501 8 17.501ZM9.5 8.00098C9.5 6.62098 10.62 5.50098 12 5.50098C13.38 5.50098 14.5 6.62098 14.5 8.00098C14.5 9.38098 13.38 10.501 12 10.501C10.62 10.501 9.5 9.38098 9.5 8.00098ZM16 17.501C14.62 17.501 13.5 16.381 13.5 15.001C13.5 13.621 14.62 12.501 16 12.501C17.38 12.501 18.5 13.621 18.5 15.001C18.5 16.381 17.38 17.501 16 17.501Z"/>
</g>
<defs>
<clipPath id="clip0_61_15433">
<rect transform="translate(0 0.000976562)"/>
</clipPath>
</defs>
</svg>
