<svg   viewBox="0 0 24 24" fill="none" xmlns="http://www.w3.org/2000/svg">
<g clip-path="url(#clip0_61_15435)">
<path d="M12 2.00098C6.48 2.00098 2 6.48098 2 12.001C2 17.521 6.48 22.001 12 22.001C17.52 22.001 22 17.521 22 12.001C22 6.48098 17.52 2.00098 12 2.00098ZM13 19.001H11V17.001H13V19.001ZM15.07 11.251L14.17 12.171C13.67 12.681 13.31 13.141 13.13 13.861C13.05 14.181 13 14.541 13 15.001H11V14.501C11 14.041 11.08 13.601 11.22 13.191C11.42 12.611 11.75 12.091 12.17 11.671L13.41 10.411C13.87 9.97098 14.09 9.31098 13.96 8.61098C13.83 7.89098 13.27 7.28098 12.57 7.08098C11.46 6.77098 10.43 7.40098 10.1 8.35098C9.98 8.72098 9.67 9.00098 9.28 9.00098H8.98C8.4 9.00098 8 8.44098 8.16 7.88098C8.59 6.41098 9.84 5.29098 11.39 5.05098C12.91 4.81098 14.36 5.60098 15.26 6.85098C16.44 8.48098 16.09 10.231 15.07 11.251V11.251Z" fill="black"/>
</g>
<defs>
<clipPath id="clip0_61_15435">
<rect width="24" height="24" fill="white" transform="translate(0 0.000976562)"/>
</clipPath>
</defs>
</svg>
