<svg   viewBox="0 0 24 24" fill="none" xmlns="http://www.w3.org/2000/svg">
<g clip-path="url(#clip0_61_15436)">
<path d="M19 3.00098H5C3.9 3.00098 3 3.90098 3 5.00098V19.001C3 20.101 3.9 21.001 5 21.001H19C20.1 21.001 21 20.101 21 19.001V5.00098C21 3.90098 20.1 3.00098 19 3.00098ZM12.01 18.001C11.31 18.001 10.75 17.441 10.75 16.741C10.75 16.031 11.31 15.491 12.01 15.491C12.72 15.491 13.26 16.031 13.26 16.741C13.25 17.431 12.72 18.001 12.01 18.001ZM15.02 10.601C14.26 11.711 13.54 12.061 13.15 12.771C13.05 12.951 12.99 13.091 12.96 13.401C12.91 13.851 12.51 14.181 12.06 14.181H12C11.48 14.181 11.07 13.741 11.12 13.221C11.15 12.881 11.23 12.531 11.42 12.191C11.91 11.321 12.84 10.801 13.38 10.031C13.95 9.22098 13.63 7.70098 12.01 7.70098C11.3 7.70098 10.83 8.06098 10.54 8.49098C10.29 8.85098 9.85 9.02098 9.44 8.85098C8.91 8.64098 8.72 8.00098 9.04 7.54098C9.65 6.65098 10.67 6.00098 11.99 6.00098C13.47 6.00098 14.48 6.67098 15 7.52098C15.44 8.24098 15.7 9.59098 15.02 10.601Z" fill="black"/>
</g>
<defs>
<clipPath id="clip0_61_15436">
<rect width="24" height="24" fill="white" transform="translate(0 0.000976562)"/>
</clipPath>
</defs>
</svg>
