<svg viewBox="0 0 24 24" xmlns="http://www.w3.org/2000/svg">
<g clip-path="url(#clip0_61_15437)">
<path d="M12 2.00098C6.48 2.00098 2 6.48098 2 12.001C2 17.521 6.48 22.001 12 22.001C17.52 22.001 22 17.521 22 12.001C22 6.48098 17.52 2.00098 12 2.00098ZM12 20.001C7.59 20.001 4 16.411 4 12.001C4 7.59098 7.59 4.00098 12 4.00098C16.41 4.00098 20 7.59098 20 12.001C20 16.411 16.41 20.001 12 20.001ZM11 16.001H13V18.001H11V16.001ZM12.61 6.04098C10.55 5.74098 8.73 7.01098 8.18 8.83098C8 9.41098 8.44 10.001 9.05 10.001H9.25C9.66 10.001 9.99 9.71098 10.13 9.33098C10.45 8.44098 11.4 7.83098 12.43 8.05098C13.38 8.25098 14.08 9.18098 14 10.151C13.9 11.491 12.38 11.781 11.55 13.031C11.55 13.041 11.54 13.041 11.54 13.051C11.53 13.071 11.52 13.081 11.51 13.101C11.42 13.251 11.33 13.421 11.26 13.601C11.25 13.631 11.23 13.651 11.22 13.681C11.21 13.701 11.21 13.721 11.2 13.751C11.08 14.091 11 14.501 11 15.001H13C13 14.581 13.11 14.231 13.28 13.931C13.3 13.901 13.31 13.871 13.33 13.841C13.41 13.701 13.51 13.571 13.61 13.451C13.62 13.441 13.63 13.421 13.64 13.411C13.74 13.291 13.85 13.181 13.97 13.071C14.93 12.161 16.23 11.421 15.96 9.51098C15.72 7.77098 14.35 6.30098 12.61 6.04098V6.04098Z"/>
</g>
<defs>
<clipPath id="clip0_61_15437">
<rect transform="translate(0 0.000976562)"/>
</clipPath>
</defs>
</svg>
