<svg viewBox="0 0 24 24" xmlns="http://www.w3.org/2000/svg">
<g clip-path="url(#clip0_61_15439)">
<path d="M13.89 8.70098L12 10.591L10.11 8.70098C9.72 8.31098 9.09 8.31098 8.7 8.70098C8.31 9.09098 8.31 9.72098 8.7 10.111L10.59 12.001L8.7 13.891C8.31 14.281 8.31 14.911 8.7 15.301C9.09 15.691 9.72 15.691 10.11 15.301L12 13.411L13.89 15.301C14.28 15.691 14.91 15.691 15.3 15.301C15.69 14.911 15.69 14.281 15.3 13.891L13.41 12.001L15.3 10.111C15.69 9.72098 15.69 9.09098 15.3 8.70098C14.91 8.32098 14.27 8.32098 13.89 8.70098ZM12 2.00098C6.47 2.00098 2 6.47098 2 12.001C2 17.531 6.47 22.001 12 22.001C17.53 22.001 22 17.531 22 12.001C22 6.47098 17.53 2.00098 12 2.00098ZM12 20.001C7.59 20.001 4 16.411 4 12.001C4 7.59098 7.59 4.00098 12 4.00098C16.41 4.00098 20 7.59098 20 12.001C20 16.411 16.41 20.001 12 20.001Z"/>
</g>
<defs>
<clipPath id="clip0_61_15439">
<rect transform="translate(0 0.000976562)"/>
</clipPath>
</defs>
</svg>
