<svg   viewBox="0 0 24 24" fill="none" xmlns="http://www.w3.org/2000/svg">
<g clip-path="url(#clip0_61_15438)">
<path d="M17 5.00098H15V3.00098H17V5.00098ZM19 9.00098H21V7.00098H19V9.00098ZM19 13.001H21V11.001H19V13.001ZM11 21.001H13V19.001H11V21.001ZM7 5.00098H9V3.00098H7V5.00098ZM3 17.001H5V15.001H3V17.001ZM5 21.001V19.001H3C3 20.101 3.9 21.001 5 21.001ZM19 3.00098V5.00098H21C21 3.90098 20.1 3.00098 19 3.00098ZM11 5.00098H13V3.00098H11V5.00098ZM3 9.00098H5V7.00098H3V9.00098ZM7 21.001H9V19.001H7V21.001ZM3 13.001H5V11.001H3V13.001ZM3 5.00098H5V3.00098C3.9 3.00098 3 3.90098 3 5.00098ZM18.71 17.291L20.15 15.851C20.47 15.531 20.24 15.001 19.8 15.001H16C15.45 15.001 15 15.451 15 16.001V19.791C15 20.241 15.54 20.461 15.85 20.141L17.29 18.701L19.29 20.701C19.68 21.091 20.31 21.091 20.7 20.701C21.09 20.311 21.09 19.681 20.7 19.291L18.71 17.291Z" fill="black"/>
</g>
<defs>
<clipPath id="clip0_61_15438">
<rect width="24" height="24" fill="white" transform="translate(0 0.000976562)"/>
</clipPath>
</defs>
</svg>
