<svg   viewBox="0 0 24 24" fill="none" xmlns="http://www.w3.org/2000/svg">
<g clip-path="url(#clip0_61_15440)">
<path d="M13.2586 3.00056C8.16857 2.86056 3.99857 6.95056 3.99857 12.0006H2.20857C1.75857 12.0006 1.53857 12.5406 1.85857 12.8506L4.64857 15.6506C4.84857 15.8506 5.15857 15.8506 5.35857 15.6506L8.14857 12.8506C8.45857 12.5406 8.23857 12.0006 7.78857 12.0006H5.99857C5.99857 8.10056 9.17857 4.95056 13.0986 5.00056C16.8186 5.05056 19.9486 8.18056 19.9986 11.9006C20.0486 15.8106 16.8986 19.0006 12.9986 19.0006C11.3886 19.0006 9.89857 18.4506 8.71857 17.5206C8.31857 17.2106 7.75857 17.2406 7.39857 17.6006C6.97857 18.0206 7.00857 18.7306 7.47857 19.0906C8.99857 20.2906 10.9086 21.0006 12.9986 21.0006C18.0486 21.0006 22.1386 16.8306 21.9986 11.7406C21.8686 7.05056 17.9486 3.13056 13.2586 3.00056ZM12.7486 8.00056C12.3386 8.00056 11.9986 8.34056 11.9986 8.75056V12.4306C11.9986 12.7806 12.1886 13.1106 12.4886 13.2906L15.6086 15.1406C15.9686 15.3506 16.4286 15.2306 16.6386 14.8806C16.8486 14.5206 16.7286 14.0606 16.3786 13.8506L13.4986 12.1406V8.74056C13.4986 8.34056 13.1586 8.00056 12.7486 8.00056Z" fill="black"/>
</g>
<defs>
<clipPath id="clip0_61_15440">
<rect width="24" height="24" fill="white" transform="translate(0 0.000976562)"/>
</clipPath>
</defs>
</svg>
