<svg viewBox="0 0 24 24" xmlns="http://www.w3.org/2000/svg">
<g clip-path="url(#clip0_61_15441)">
<path d="M15.1008 19.3708L16.1008 21.1108C15.1408 21.5508 14.0908 21.8408 13.0008 21.9508V19.9308C13.7408 19.8408 14.4408 19.6508 15.1008 19.3708ZM4.07078 13.0008H2.05078C2.16078 14.1008 2.45078 15.1408 2.89078 16.1008L4.63078 15.1008C4.35078 14.4408 4.16078 13.7408 4.07078 13.0008ZM15.1008 4.63078L16.1008 2.89078C15.1408 2.45078 14.1008 2.16078 13.0008 2.05078V4.07078C13.7408 4.16078 14.4408 4.35078 15.1008 4.63078ZM19.9308 11.0008H21.9508C21.8408 9.90078 21.5508 8.86078 21.1108 7.90078L19.3708 8.90078C19.6508 9.56078 19.8408 10.2608 19.9308 11.0008ZM8.90078 19.3708L7.90078 21.1108C8.86078 21.5508 9.91078 21.8408 11.0008 21.9508V19.9308C10.2608 19.8408 9.56078 19.6508 8.90078 19.3708ZM11.0008 4.07078V2.05078C9.90078 2.16078 8.86078 2.45078 7.90078 2.89078L8.90078 4.63078C9.56078 4.35078 10.2608 4.16078 11.0008 4.07078ZM18.3608 7.17078L20.1008 6.16078C19.4708 5.29078 18.7008 4.52078 17.8308 3.89078L16.8208 5.63078C17.4108 6.08078 17.9208 6.59078 18.3608 7.17078ZM4.63078 8.90078L2.89078 7.90078C2.45078 8.86078 2.16078 9.90078 2.05078 11.0008H4.07078C4.16078 10.2608 4.35078 9.56078 4.63078 8.90078ZM19.9308 13.0008C19.8408 13.7408 19.6508 14.4408 19.3708 15.1008L21.1108 16.1008C21.5508 15.1408 21.8408 14.0908 21.9508 13.0008H19.9308V13.0008ZM16.8308 18.3608L17.8408 20.1008C18.7108 19.4708 19.4808 18.7008 20.1108 17.8308L18.3708 16.8208C17.9208 17.4108 17.4108 17.9208 16.8308 18.3608ZM7.17078 5.64078L6.17078 3.89078C5.29078 4.53078 4.53078 5.29078 3.90078 6.17078L5.64078 7.18078C6.08078 6.59078 6.59078 6.08078 7.17078 5.64078ZM5.64078 16.8308L3.90078 17.8308C4.53078 18.7008 5.30078 19.4708 6.17078 20.1008L7.18078 18.3608C6.59078 17.9208 6.08078 17.4108 5.64078 16.8308ZM12.0008 7.00078C11.4508 7.00078 11.0008 7.45078 11.0008 8.00078V11.5908C11.0008 12.1208 11.2108 12.6308 11.5908 13.0008L14.5908 16.0008C14.9808 16.3908 15.6108 16.3908 16.0008 16.0008C16.3908 15.6108 16.3908 14.9808 16.0008 14.5908L13.0008 11.5908V8.00078C13.0008 7.45078 12.5508 7.00078 12.0008 7.00078Z"/>
</g>
<defs>
<clipPath id="clip0_61_15441">
<rect transform="translate(0 0.000976562)"/>
</clipPath>
</defs>
</svg>
