<svg   viewBox="0 0 24 24" fill="none" xmlns="http://www.w3.org/2000/svg">
<g clip-path="url(#clip0_61_15442)">
<path d="M9.99863 19.0007V14.0007H13.9986V19.0007C13.9986 19.5507 14.4486 20.0007 14.9986 20.0007H17.9986C18.5486 20.0007 18.9986 19.5507 18.9986 19.0007V12.0007H20.6986C21.1586 12.0007 21.3786 11.4307 21.0286 11.1307L12.6686 3.6007C12.2886 3.2607 11.7086 3.2607 11.3286 3.6007L2.96863 11.1307C2.62863 11.4307 2.83863 12.0007 3.29863 12.0007H4.99863V19.0007C4.99863 19.5507 5.44863 20.0007 5.99863 20.0007H8.99863C9.54863 20.0007 9.99863 19.5507 9.99863 19.0007Z" fill="black"/>
</g>
<defs>
<clipPath id="clip0_61_15442">
<rect width="24" height="24" fill="white" transform="translate(0 0.000976562)"/>
</clipPath>
</defs>
</svg>
