<svg viewBox="0 0 24 24" xmlns="http://www.w3.org/2000/svg">
<g clip-path="url(#clip0_61_15443)">
<path d="M4 19.001H20C20.55 19.001 21 18.551 21 18.001V14.001C21 13.451 20.55 13.001 20 13.001H4C3.45 13.001 3 13.451 3 14.001V18.001C3 18.551 3.45 19.001 4 19.001ZM4 11.001H20C20.55 11.001 21 10.551 21 10.001C21 9.45098 20.55 9.00098 20 9.00098H4C3.45 9.00098 3 9.45098 3 10.001C3 10.551 3.45 11.001 4 11.001ZM3 6.00098C3 6.55098 3.45 7.00098 4 7.00098H20C20.55 7.00098 21 6.55098 21 6.00098C21 5.45098 20.55 5.00098 20 5.00098H4C3.45 5.00098 3 5.45098 3 6.00098Z"/>
</g>
<defs>
<clipPath id="clip0_61_15443">
<rect transform="translate(0 0.000976562)"/>
</clipPath>
</defs>
</svg>
