<svg viewBox="0 0 24 24" xmlns="http://www.w3.org/2000/svg">
<g clip-path="url(#clip0_61_15444)">
<path d="M2.80892 2.81105C2.41892 2.42105 1.78892 2.42105 1.39892 2.81105C0.998918 3.20105 0.998918 3.83105 1.38892 4.22105L9.57892 12.4111L6.57892 15.4211C6.20892 15.8011 5.99892 16.3111 5.99892 16.8411V20.0011C5.99892 21.1011 6.89892 22.0011 7.99892 22.0011H15.9989C16.8589 22.0011 17.5789 21.4611 17.8689 20.7011L19.7789 22.6111C20.1689 23.0011 20.7989 23.0011 21.1889 22.6111C21.5789 22.2211 21.5789 21.5911 21.1889 21.2011L2.80892 2.81105ZM15.9989 19.0011C15.9989 19.5511 15.5489 20.0011 14.9989 20.0011H8.99892C8.44892 20.0011 7.99892 19.5511 7.99892 19.0011V16.5011L10.8389 13.6611L15.9989 18.8311V19.0011Z"/>
<path d="M7.99891 5.00098C7.99891 4.45098 8.44891 4.00098 8.99891 4.00098H14.9989C15.5489 4.00098 15.9989 4.45098 15.9989 5.00098V7.50098L13.1589 10.341L14.4089 11.591L17.4089 8.60098C17.7889 8.22098 17.9989 7.71098 17.9989 7.18098V4.00098C17.9989 2.89098 17.0989 2.00098 15.9989 2.00098H7.99891C7.13891 2.00098 6.41891 2.54098 6.12891 3.30098L7.99891 5.17098V5.00098Z"/>
</g>
<defs>
<clipPath id="clip0_61_15444">
<rect transform="translate(0 0.000976562)"/>
</clipPath>
</defs>
</svg>
