<svg viewBox="0 0 24 24" xmlns="http://www.w3.org/2000/svg">
<g clip-path="url(#clip0_61_15445)">
<path d="M8 2.00098C6.9 2.00098 6 2.90098 6 4.00098V7.17098C6 7.70098 6.21 8.21098 6.59 8.59098L10 12.001L6.58 15.421C6.21 15.801 6 16.311 6 16.841V20.001C6 21.101 6.9 22.001 8 22.001H16C17.1 22.001 18 21.101 18 20.001V16.841C18 16.311 17.79 15.801 17.42 15.431L14 12.001L17.41 8.60098C17.79 8.22098 18 7.71098 18 7.18098V4.00098C18 2.90098 17.1 2.00098 16 2.00098H8ZM16 16.501V19.001C16 19.551 15.55 20.001 15 20.001H9C8.45 20.001 8 19.551 8 19.001V16.501L12 12.501L16 16.501ZM12 11.501L8 7.50098V5.00098C8 4.45098 8.45 4.00098 9 4.00098H15C15.55 4.00098 16 4.45098 16 5.00098V7.50098L12 11.501Z"/>
</g>
<defs>
<clipPath id="clip0_61_15445">
<rect transform="translate(0 0.000976562)"/>
</clipPath>
</defs>
</svg>
