<svg viewBox="0 0 24 24" xmlns="http://www.w3.org/2000/svg">
<g clip-path="url(#clip0_61_15447)">
<path d="M4.5 11.001H2.5V9.75098C2.5 9.34098 2.16 9.00098 1.75 9.00098C1.34 9.00098 1 9.34098 1 9.75098V14.251C1 14.661 1.34 15.001 1.75 15.001C2.16 15.001 2.5 14.661 2.5 14.251V12.501H4.5V14.251C4.5 14.661 4.84 15.001 5.25 15.001C5.66 15.001 6 14.661 6 14.251V9.75098C6 9.34098 5.66 9.00098 5.25 9.00098C4.84 9.00098 4.5 9.34098 4.5 9.75098V11.001ZM7.75 10.501H8.5V14.251C8.5 14.661 8.84 15.001 9.25 15.001C9.66 15.001 10 14.661 10 14.251V10.501H10.75C11.16 10.501 11.5 10.161 11.5 9.75098C11.5 9.34098 11.16 9.00098 10.75 9.00098H7.75C7.34 9.00098 7 9.34098 7 9.75098C7 10.161 7.34 10.501 7.75 10.501ZM13.25 10.501H14V14.251C14 14.661 14.34 15.001 14.75 15.001C15.16 15.001 15.5 14.661 15.5 14.251V10.501H16.25C16.66 10.501 17 10.161 17 9.75098C17 9.34098 16.66 9.00098 16.25 9.00098H13.25C12.84 9.00098 12.5 9.34098 12.5 9.75098C12.5 10.161 12.84 10.501 13.25 10.501ZM21.5 9.00098H19C18.45 9.00098 18 9.45098 18 10.001V14.251C18 14.661 18.34 15.001 18.75 15.001C19.16 15.001 19.5 14.661 19.5 14.251V13.001H21.5C22.33 13.001 23 12.321 23 11.501V10.501C23 9.68098 22.33 9.00098 21.5 9.00098ZM21.5 11.501H19.5V10.501H21.5V11.501Z"/>
</g>
<defs>
<clipPath id="clip0_61_15447">
<rect transform="translate(0 0.000976562)"/>
</clipPath>
</defs>
</svg>
