<svg   viewBox="0 0 24 24" fill="none" xmlns="http://www.w3.org/2000/svg">
<g clip-path="url(#clip0_61_15448)">
<path d="M18 8.00098H17V6.00098C17 3.24098 14.76 1.00098 12 1.00098C9.24 1.00098 7 3.24098 7 6.00098V8.00098H6C4.9 8.00098 4 8.90098 4 10.001V20.001C4 21.101 4.9 22.001 6 22.001H18C19.1 22.001 20 21.101 20 20.001V10.001C20 8.90098 19.1 8.00098 18 8.00098ZM12 17.001C10.9 17.001 10 16.101 10 15.001C10 13.901 10.9 13.001 12 13.001C13.1 13.001 14 13.901 14 15.001C14 16.101 13.1 17.001 12 17.001ZM9 8.00098V6.00098C9 4.34098 10.34 3.00098 12 3.00098C13.66 3.00098 15 4.34098 15 6.00098V8.00098H9Z" fill="black"/>
</g>
<defs>
<clipPath id="clip0_61_15448">
<rect width="24" height="24" fill="white" transform="translate(0 0.000976562)"/>
</clipPath>
</defs>
</svg>
