<svg viewBox="0 0 24 24" xmlns="http://www.w3.org/2000/svg">
<g clip-path="url(#clip0_61_15449)">
<path d="M23 11.011L18 11.001C17.45 11.001 17 11.451 17 12.001V21.001C17 21.551 17.45 22.001 18 22.001H23C23.55 22.001 24 21.551 24 21.001V12.001C24 11.451 23.55 11.011 23 11.011ZM23 20.001H18V13.001H23V20.001ZM20 2.00098H2C0.9 2.00098 0 2.90098 0 4.00098V16.001C0 17.101 0.9 18.001 2 18.001H9V20.001H8C7.45 20.001 7 20.451 7 21.001C7 21.551 7.45 22.001 8 22.001H14C14.55 22.001 15 21.551 15 21.001C15 20.451 14.55 20.001 14 20.001H13V18.001H14C14.55 18.001 15 17.551 15 17.001C15 16.451 14.55 16.001 14 16.001H3C2.45 16.001 2 15.551 2 15.001V5.00098C2 4.45098 2.45 4.00098 3 4.00098H19C19.55 4.00098 20 4.45098 20 5.00098V8.00098C20 8.55098 20.45 9.00098 21 9.00098C21.55 9.00098 22 8.55098 22 8.00098V4.00098C22 2.90098 21.1 2.00098 20 2.00098ZM11.97 9.00098L11 6.00098L10.03 9.00098H7L9.47 10.761L8.53 13.671L11 11.871L13.47 13.671L12.53 10.761L15 9.00098H11.97Z"/>
</g>
<defs>
<clipPath id="clip0_61_15449">
<rect transform="translate(0 0.000976562)"/>
</clipPath>
</defs>
</svg>
