<svg   viewBox="0 0 24 24" fill="none" xmlns="http://www.w3.org/2000/svg">
<g clip-path="url(#clip0_61_15450)">
<path d="M12 2.00098C6.48 2.00098 2 6.48098 2 12.001C2 17.521 6.48 22.001 12 22.001C17.52 22.001 22 17.521 22 12.001C22 6.48098 17.52 2.00098 12 2.00098ZM12 17.001C11.45 17.001 11 16.551 11 16.001V12.001C11 11.451 11.45 11.001 12 11.001C12.55 11.001 13 11.451 13 12.001V16.001C13 16.551 12.55 17.001 12 17.001ZM13 9.00098H11V7.00098H13V9.00098Z" fill="black"/>
</g>
<defs>
<clipPath id="clip0_61_15450">
<rect width="24" height="24" fill="white" transform="translate(0 0.000976562)"/>
</clipPath>
</defs>
</svg>
