<svg viewBox="0 0 24 24" xmlns="http://www.w3.org/2000/svg">
<g clip-path="url(#clip0_61_15452)">
<path d="M21 3.01074H3C1.9 3.01074 1 3.91074 1 5.01074V8.00074C1 8.55074 1.45 9.00074 2 9.00074C2.55 9.00074 3 8.55074 3 8.00074V5.99074C3 5.44074 3.45 4.99074 4 4.99074H20C20.55 4.99074 21 5.44074 21 5.99074V18.0207C21 18.5707 20.55 19.0207 20 19.0207H4C3.45 19.0207 3 18.5707 3 18.0207V16.0007C3 15.4507 2.55 15.0007 2 15.0007C1.45 15.0007 1 15.4507 1 16.0007V19.0107C1 20.1007 1.89 20.9907 2.98 20.9907H21C22.1 20.9907 23 20.0907 23 18.9907V5.01074C23 3.91074 22.1 3.01074 21 3.01074ZM11.85 15.1507L14.64 12.3607C14.84 12.1607 14.84 11.8507 14.64 11.6507L11.85 8.86074C11.54 8.54074 11 8.76074 11 9.21074V11.0007H2C1.45 11.0007 1 11.4507 1 12.0007C1 12.5507 1.45 13.0007 2 13.0007H11V14.7907C11 15.2407 11.54 15.4607 11.85 15.1507V15.1507Z"/>
</g>
<defs>
<clipPath id="clip0_61_15452">
<rect transform="translate(0 0.000976562)"/>
</clipPath>
</defs>
</svg>
