<svg   viewBox="0 0 24 24" fill="none" xmlns="http://www.w3.org/2000/svg">
<g clip-path="url(#clip0_61_15453)">
<path d="M19 3.00098H14.82C14.4 1.84098 13.3 1.00098 12 1.00098C10.7 1.00098 9.6 1.84098 9.18 3.00098H5C4.86 3.00098 4.73 3.01098 4.6 3.04098C4.21 3.12098 3.86 3.32098 3.59 3.59098C3.41 3.77098 3.26 3.99098 3.16 4.23098C3.06 4.46098 3 4.72098 3 5.00098V19.001C3 19.271 3.06 19.541 3.16 19.781C3.26 20.021 3.41 20.231 3.59 20.421C3.86 20.691 4.21 20.891 4.6 20.971C4.73 20.991 4.86 21.001 5 21.001H19C20.1 21.001 21 20.101 21 19.001V5.00098C21 3.90098 20.1 3.00098 19 3.00098ZM10.3 14.881C9.91 15.271 9.27 15.271 8.88 14.881L6.71 12.711C6.32 12.321 6.32 11.691 6.71 11.301L8.88 9.13098C9.27 8.74098 9.91 8.74098 10.3 9.13098C10.69 9.52098 10.69 10.151 10.3 10.541L8.83 12.001L10.29 13.461C10.68 13.851 10.69 14.491 10.3 14.881ZM12 4.25098C11.59 4.25098 11.25 3.91098 11.25 3.50098C11.25 3.09098 11.59 2.75098 12 2.75098C12.41 2.75098 12.75 3.09098 12.75 3.50098C12.75 3.91098 12.41 4.25098 12 4.25098ZM13.7 14.881C13.31 14.491 13.31 13.861 13.7 13.471L15.17 12.001L13.7 10.531C13.31 10.141 13.31 9.51098 13.7 9.12098C14.09 8.73098 14.73 8.73098 15.12 9.12098L17.29 11.291C17.68 11.681 17.68 12.311 17.29 12.701L15.12 14.871C14.73 15.271 14.09 15.271 13.7 14.881Z" fill="black"/>
</g>
<defs>
<clipPath id="clip0_61_15453">
<rect width="24" height="24" fill="white" transform="translate(0 0.000976562)"/>
</clipPath>
</defs>
</svg>
