<svg   viewBox="0 0 24 24" fill="none" xmlns="http://www.w3.org/2000/svg">
<g clip-path="url(#clip0_61_15454)">
<path d="M6.34 7.93098C3.22 11.051 3.22 16.121 6.34 19.241C7.9 20.801 9.95 21.581 12 21.581C14.05 21.581 16.1 20.801 17.66 19.241C20.78 16.121 20.78 11.051 17.66 7.93098L12.71 2.98098C12.32 2.59098 11.69 2.59098 11.3 2.98098L6.34 7.93098ZM12 19.591C10.4 19.591 8.89 18.971 7.76 17.831C6.62 16.691 6 15.191 6 13.591C6 11.991 6.62 10.481 7.76 9.35098L12 5.10098V19.591Z" fill="black"/>
</g>
<defs>
<clipPath id="clip0_61_15454">
<rect width="24" height="24" fill="white" transform="translate(0 0.000976562)"/>
</clipPath>
</defs>
</svg>
