<svg   viewBox="0 0 24 24" fill="none" xmlns="http://www.w3.org/2000/svg">
<g clip-path="url(#clip0_61_15459)">
<path d="M17.63 5.84098C17.27 5.33098 16.67 5.00098 16 5.00098L5 5.01098C3.9 5.01098 3 5.90098 3 7.00098V17.001C3 18.101 3.9 18.991 5 18.991L16 19.001C16.67 19.001 17.27 18.671 17.63 18.161L21.59 12.581C21.84 12.231 21.84 11.771 21.59 11.421L17.63 5.84098ZM16 17.001H6C5.45 17.001 5 16.551 5 16.001V8.00098C5 7.45098 5.45 7.00098 6 7.00098H16L19.55 12.001L16 17.001Z" fill="black"/>
</g>
<defs>
<clipPath id="clip0_61_15459">
<rect width="24" height="24" fill="white" transform="translate(0 0.000976562)"/>
</clipPath>
</defs>
</svg>
