<svg   viewBox="0 0 24 24" fill="none" xmlns="http://www.w3.org/2000/svg">
<g clip-path="url(#clip0_61_15458)">
<path d="M21.5897 12.5806C21.8397 12.2306 21.8397 11.7706 21.5897 11.4206L17.6297 5.84056C17.2697 5.33056 16.6697 5.00056 15.9997 5.00056H8.65973L19.3597 15.7306L21.5897 12.5806ZM2.71973 4.72056L3.58973 5.59056C3.22973 5.95056 2.99973 6.45056 2.99973 7.00056V17.0006C2.99973 18.1006 3.89973 19.0006 4.99973 19.0006H16.9997L18.2897 20.2906C18.6797 20.6806 19.3097 20.6806 19.6997 20.2906C20.0897 19.9006 20.0897 19.2706 19.6997 18.8806L4.13973 3.31056C3.75973 2.93056 3.12973 2.92056 2.73973 3.30056C2.32973 3.68056 2.32973 4.33056 2.71973 4.72056V4.72056Z" fill="black"/>
</g>
<defs>
<clipPath id="clip0_61_15458">
<rect width="24" height="24" fill="white" transform="translate(0 0.000976562)"/>
</clipPath>
</defs>
</svg>
