<svg   viewBox="0 0 24 24" fill="none" xmlns="http://www.w3.org/2000/svg">
<g clip-path="url(#clip0_61_15460)">
<path d="M11.99 2.00098C6.47 2.00098 2 6.48098 2 12.001C2 17.521 6.47 22.001 11.99 22.001C17.52 22.001 22 17.521 22 12.001C22 6.48098 17.52 2.00098 11.99 2.00098ZM18.92 8.00098H15.97C15.65 6.75098 15.19 5.55098 14.59 4.44098C16.43 5.07098 17.96 6.35098 18.92 8.00098ZM12 4.04098C12.83 5.24098 13.48 6.57098 13.91 8.00098H10.09C10.52 6.57098 11.17 5.24098 12 4.04098ZM4.26 14.001C4.1 13.361 4 12.691 4 12.001C4 11.311 4.1 10.641 4.26 10.001H7.64C7.56 10.661 7.5 11.321 7.5 12.001C7.5 12.681 7.56 13.341 7.64 14.001H4.26ZM5.08 16.001H8.03C8.35 17.251 8.81 18.451 9.41 19.561C7.57 18.931 6.04 17.661 5.08 16.001V16.001ZM8.03 8.00098H5.08C6.04 6.34098 7.57 5.07098 9.41 4.44098C8.81 5.55098 8.35 6.75098 8.03 8.00098V8.00098ZM12 19.961C11.17 18.761 10.52 17.431 10.09 16.001H13.91C13.48 17.431 12.83 18.761 12 19.961ZM14.34 14.001H9.66C9.57 13.341 9.5 12.681 9.5 12.001C9.5 11.321 9.57 10.651 9.66 10.001H14.34C14.43 10.651 14.5 11.321 14.5 12.001C14.5 12.681 14.43 13.341 14.34 14.001ZM14.59 19.561C15.19 18.451 15.65 17.251 15.97 16.001H18.92C17.96 17.651 16.43 18.931 14.59 19.561V19.561ZM16.36 14.001C16.44 13.341 16.5 12.681 16.5 12.001C16.5 11.321 16.44 10.661 16.36 10.001H19.74C19.9 10.641 20 11.311 20 12.001C20 12.691 19.9 13.361 19.74 14.001H16.36Z" fill="black"/>
</g>
<defs>
<clipPath id="clip0_61_15460">
<rect width="24" height="24" fill="white" transform="translate(0 0.000976562)"/>
</clipPath>
</defs>
</svg>
