<svg   viewBox="0 0 24 24" fill="none" xmlns="http://www.w3.org/2000/svg">
<g clip-path="url(#clip0_61_15461)">
<path d="M18 19.001H6C5.45 19.001 5 18.551 5 18.001V6.00098C5 5.45098 5.45 5.00098 6 5.00098H11C11.55 5.00098 12 4.55098 12 4.00098C12 3.45098 11.55 3.00098 11 3.00098H5C3.89 3.00098 3 3.90098 3 5.00098V19.001C3 20.101 3.9 21.001 5 21.001H19C20.1 21.001 21 20.101 21 19.001V13.001C21 12.451 20.55 12.001 20 12.001C19.45 12.001 19 12.451 19 13.001V18.001C19 18.551 18.55 19.001 18 19.001ZM14 4.00098C14 4.55098 14.45 5.00098 15 5.00098H17.59L8.46 14.131C8.07 14.521 8.07 15.151 8.46 15.541C8.85 15.931 9.48 15.931 9.87 15.541L19 6.41098V9.00098C19 9.55098 19.45 10.001 20 10.001C20.55 10.001 21 9.55098 21 9.00098V3.00098H15C14.45 3.00098 14 3.45098 14 4.00098Z" fill="black"/>
</g>
<defs>
<clipPath id="clip0_61_15461">
<rect width="24" height="24" fill="white" transform="translate(0 0.000976562)"/>
</clipPath>
</defs>
</svg>
