<svg   viewBox="0 0 24 24" fill="none" xmlns="http://www.w3.org/2000/svg">
<g clip-path="url(#clip0_61_15462)">
<path d="M6.5 21.001H3C2.45 21.001 2 20.551 2 20.001V10.001C2 9.45098 2.45 9.00098 3 9.00098H6.5C7.05 9.00098 7.5 9.45098 7.5 10.001V20.001C7.5 20.551 7.05 21.001 6.5 21.001ZM13.75 3.00098H10.25C9.7 3.00098 9.25 3.45098 9.25 4.00098V20.001C9.25 20.551 9.7 21.001 10.25 21.001H13.75C14.3 21.001 14.75 20.551 14.75 20.001V4.00098C14.75 3.45098 14.3 3.00098 13.75 3.00098ZM21 11.001H17.5C16.95 11.001 16.5 11.451 16.5 12.001V20.001C16.5 20.551 16.95 21.001 17.5 21.001H21C21.55 21.001 22 20.551 22 20.001V12.001C22 11.451 21.55 11.001 21 11.001Z" fill="black"/>
</g>
<defs>
<clipPath id="clip0_61_15462">
<rect width="24" height="24" fill="white" transform="translate(0 0.000976562)"/>
</clipPath>
</defs>
</svg>
