<svg   viewBox="0 0 24 24" fill="none" xmlns="http://www.w3.org/2000/svg">
<g clip-path="url(#clip0_61_15463)">
<path d="M9 21.001C9 21.551 9.45 22.001 10 22.001H14C14.55 22.001 15 21.551 15 21.001V20.001H9V21.001ZM12 2.00098C8.14 2.00098 5 5.14098 5 9.00098C5 11.381 6.19 13.471 8 14.741V17.001C8 17.551 8.45 18.001 9 18.001H15C15.55 18.001 16 17.551 16 17.001V14.741C17.81 13.471 19 11.381 19 9.00098C19 5.14098 15.86 2.00098 12 2.00098ZM14.85 13.101L14 13.701V16.001H10V13.701L9.15 13.101C7.8 12.161 7 10.631 7 9.00098C7 6.24098 9.24 4.00098 12 4.00098C14.76 4.00098 17 6.24098 17 9.00098C17 10.631 16.2 12.161 14.85 13.101Z" fill="black"/>
</g>
<defs>
<clipPath id="clip0_61_15463">
<rect width="24" height="24" fill="white" transform="translate(0 0.000976562)"/>
</clipPath>
</defs>
</svg>
