<svg   viewBox="0 0 24 24" fill="none" xmlns="http://www.w3.org/2000/svg">
<g clip-path="url(#clip0_61_15465)">
<path d="M20 15.001H4C3.45 15.001 3 15.451 3 16.001C3 16.551 3.45 17.001 4 17.001H20C20.55 17.001 21 16.551 21 16.001C21 15.451 20.55 15.001 20 15.001ZM20 10.001H4C3.45 10.001 3 10.451 3 11.001V12.001C3 12.551 3.45 13.001 4 13.001H20C20.55 13.001 21 12.551 21 12.001V11.001C21 10.451 20.55 10.001 20 10.001ZM20 4.00098H4C3.45 4.00098 3 4.45098 3 5.00098V7.00098C3 7.55098 3.45 8.00098 4 8.00098H20C20.55 8.00098 21 7.55098 21 7.00098V5.00098C21 4.45098 20.55 4.00098 20 4.00098ZM20.5 19.001H3.5C3.22 19.001 3 19.221 3 19.501C3 19.781 3.22 20.001 3.5 20.001H20.5C20.78 20.001 21 19.781 21 19.501C21 19.221 20.78 19.001 20.5 19.001Z" fill="black"/>
</g>
<defs>
<clipPath id="clip0_61_15465">
<rect width="24" height="24" fill="white" transform="translate(0 0.000976562)"/>
</clipPath>
</defs>
</svg>
