<svg viewBox="0 0 24 24" xmlns="http://www.w3.org/2000/svg">
<g clip-path="url(#clip0_61_15464)">
<path d="M4 16.001H7C7.55 16.001 8 15.551 8 15.001C8 14.451 7.55 14.001 7 14.001H4C3.45 14.001 3 14.451 3 15.001C3 15.551 3.45 16.001 4 16.001ZM10.5 16.001H13.5C14.05 16.001 14.5 15.551 14.5 15.001C14.5 14.451 14.05 14.001 13.5 14.001H10.5C9.95 14.001 9.5 14.451 9.5 15.001C9.5 15.551 9.95 16.001 10.5 16.001ZM17 16.001H20C20.55 16.001 21 15.551 21 15.001C21 14.451 20.55 14.001 20 14.001H17C16.45 14.001 16 14.451 16 15.001C16 15.551 16.45 16.001 17 16.001ZM4 20.001C4.55 20.001 5 19.551 5 19.001C5 18.451 4.55 18.001 4 18.001C3.45 18.001 3 18.451 3 19.001C3 19.551 3.45 20.001 4 20.001ZM8 20.001C8.55 20.001 9 19.551 9 19.001C9 18.451 8.55 18.001 8 18.001C7.45 18.001 7 18.451 7 19.001C7 19.551 7.45 20.001 8 20.001ZM12 20.001C12.55 20.001 13 19.551 13 19.001C13 18.451 12.55 18.001 12 18.001C11.45 18.001 11 18.451 11 19.001C11 19.551 11.45 20.001 12 20.001ZM16 20.001C16.55 20.001 17 19.551 17 19.001C17 18.451 16.55 18.001 16 18.001C15.45 18.001 15 18.451 15 19.001C15 19.551 15.45 20.001 16 20.001ZM20 20.001C20.55 20.001 21 19.551 21 19.001C21 18.451 20.55 18.001 20 18.001C19.45 18.001 19 18.451 19 19.001C19 19.551 19.45 20.001 20 20.001ZM4 12.001H10C10.55 12.001 11 11.551 11 11.001C11 10.451 10.55 10.001 10 10.001H4C3.45 10.001 3 10.451 3 11.001C3 11.551 3.45 12.001 4 12.001ZM14 12.001H20C20.55 12.001 21 11.551 21 11.001C21 10.451 20.55 10.001 20 10.001H14C13.45 10.001 13 10.451 13 11.001C13 11.551 13.45 12.001 14 12.001ZM3 5.00098V7.00098C3 7.55098 3.45 8.00098 4 8.00098H20C20.55 8.00098 21 7.55098 21 7.00098V5.00098C21 4.45098 20.55 4.00098 20 4.00098H4C3.45 4.00098 3 4.45098 3 5.00098Z"/>
</g>
<defs>
<clipPath id="clip0_61_15464">
<rect transform="translate(0 0.000976562)"/>
</clipPath>
</defs>
</svg>
