<svg viewBox="0 0 24 24" xmlns="http://www.w3.org/2000/svg">
<g clip-path="url(#clip0_61_15466)">
<path d="M4 13.001C4.55 13.001 5 12.551 5 12.001C5 11.451 4.55 11.001 4 11.001C3.45 11.001 3 11.451 3 12.001C3 12.551 3.45 13.001 4 13.001ZM4 17.001C4.55 17.001 5 16.551 5 16.001C5 15.451 4.55 15.001 4 15.001C3.45 15.001 3 15.451 3 16.001C3 16.551 3.45 17.001 4 17.001ZM4 9.00098C4.55 9.00098 5 8.55098 5 8.00098C5 7.45098 4.55 7.00098 4 7.00098C3.45 7.00098 3 7.45098 3 8.00098C3 8.55098 3.45 9.00098 4 9.00098ZM8 13.001H20C20.55 13.001 21 12.551 21 12.001C21 11.451 20.55 11.001 20 11.001H8C7.45 11.001 7 11.451 7 12.001C7 12.551 7.45 13.001 8 13.001ZM8 17.001H20C20.55 17.001 21 16.551 21 16.001C21 15.451 20.55 15.001 20 15.001H8C7.45 15.001 7 15.451 7 16.001C7 16.551 7.45 17.001 8 17.001ZM7 8.00098C7 8.55098 7.45 9.00098 8 9.00098H20C20.55 9.00098 21 8.55098 21 8.00098C21 7.45098 20.55 7.00098 20 7.00098H8C7.45 7.00098 7 7.45098 7 8.00098ZM4 13.001C4.55 13.001 5 12.551 5 12.001C5 11.451 4.55 11.001 4 11.001C3.45 11.001 3 11.451 3 12.001C3 12.551 3.45 13.001 4 13.001ZM4 17.001C4.55 17.001 5 16.551 5 16.001C5 15.451 4.55 15.001 4 15.001C3.45 15.001 3 15.451 3 16.001C3 16.551 3.45 17.001 4 17.001ZM4 9.00098C4.55 9.00098 5 8.55098 5 8.00098C5 7.45098 4.55 7.00098 4 7.00098C3.45 7.00098 3 7.45098 3 8.00098C3 8.55098 3.45 9.00098 4 9.00098ZM8 13.001H20C20.55 13.001 21 12.551 21 12.001C21 11.451 20.55 11.001 20 11.001H8C7.45 11.001 7 11.451 7 12.001C7 12.551 7.45 13.001 8 13.001ZM8 17.001H20C20.55 17.001 21 16.551 21 16.001C21 15.451 20.55 15.001 20 15.001H8C7.45 15.001 7 15.451 7 16.001C7 16.551 7.45 17.001 8 17.001ZM7 8.00098C7 8.55098 7.45 9.00098 8 9.00098H20C20.55 9.00098 21 8.55098 21 8.00098C21 7.45098 20.55 7.00098 20 7.00098H8C7.45 7.00098 7 7.45098 7 8.00098Z"/>
</g>
<defs>
<clipPath id="clip0_61_15466">
<rect transform="translate(0 0.000976562)"/>
</clipPath>
</defs>
</svg>
