<svg viewBox="0 0 24 24" xmlns="http://www.w3.org/2000/svg">
<g clip-path="url(#clip0_61_15468)">
<path d="M12 13.001C10.9 13.001 10 13.901 10 15.001C10 16.101 10.9 17.001 12 17.001C13.1 17.001 14 16.101 14 15.001C14 13.901 13.1 13.001 12 13.001ZM18 8.00098H17V6.00098C17 3.24098 14.76 1.00098 12 1.00098C9.72 1.00098 7.73 2.54098 7.16 4.75098C7.02 5.29098 7.34 5.83098 7.88 5.97098C8.41 6.11098 8.96 5.79098 9.1 5.25098C9.44 3.93098 10.63 3.00098 12 3.00098C13.65 3.00098 15 4.35098 15 6.00098V8.00098H6C4.9 8.00098 4 8.90098 4 10.001V20.001C4 21.101 4.9 22.001 6 22.001H18C19.1 22.001 20 21.101 20 20.001V10.001C20 8.90098 19.1 8.00098 18 8.00098ZM18 19.001C18 19.551 17.55 20.001 17 20.001H7C6.45 20.001 6 19.551 6 19.001V11.001C6 10.451 6.45 10.001 7 10.001H17C17.55 10.001 18 10.451 18 11.001V19.001Z"/>
</g>
<defs>
<clipPath id="clip0_61_15468">
<rect transform="translate(0 0.000976562)"/>
</clipPath>
</defs>
</svg>
