<svg viewBox="0 0 24 24" xmlns="http://www.w3.org/2000/svg">
<g clip-path="url(#clip0_61_15470)">
<path d="M10.3 7.70098C9.91 8.09098 9.91 8.71098 10.3 9.10098L12.2 11.001H3C2.45 11.001 2 11.451 2 12.001C2 12.551 2.45 13.001 3 13.001H12.2L10.3 14.901C9.91 15.291 9.91 15.911 10.3 16.301C10.69 16.691 11.31 16.691 11.7 16.301L15.29 12.711C15.68 12.321 15.68 11.691 15.29 11.301L11.7 7.70098C11.31 7.31098 10.69 7.31098 10.3 7.70098ZM20 19.001H13C12.45 19.001 12 19.451 12 20.001C12 20.551 12.45 21.001 13 21.001H20C21.1 21.001 22 20.101 22 19.001V5.00098C22 3.90098 21.1 3.00098 20 3.00098H13C12.45 3.00098 12 3.45098 12 4.00098C12 4.55098 12.45 5.00098 13 5.00098H20V19.001Z"/>
</g>
<defs>
<clipPath id="clip0_61_15470">
<rect transform="translate(0 0.000976562)"/>
</clipPath>
</defs>
</svg>
