<svg viewBox="0 0 24 24" xmlns="http://www.w3.org/2000/svg">
<g clip-path="url(#clip0_61_15471)">
<path d="M21.41 11.581L12.41 2.58098C12.05 2.22098 11.55 2.00098 11 2.00098H4C2.9 2.00098 2 2.90098 2 4.00098V11.001C2 11.551 2.22 12.051 2.59 12.421L11.59 21.421C11.95 21.781 12.45 22.001 13 22.001C13.55 22.001 14.05 21.781 14.41 21.411L21.41 14.411C21.78 14.051 22 13.551 22 13.001C22 12.451 21.77 11.941 21.41 11.581ZM5.5 7.00098C4.67 7.00098 4 6.33098 4 5.50098C4 4.67098 4.67 4.00098 5.5 4.00098C6.33 4.00098 7 4.67098 7 5.50098C7 6.33098 6.33 7.00098 5.5 7.00098ZM17.27 15.271L13.35 19.191C13.15 19.391 12.84 19.391 12.64 19.191L8.72 15.271C8.15 14.691 7.85 13.841 8.05 12.931C8.24 12.051 8.94 11.321 9.81 11.091C10.75 10.841 11.66 11.131 12.25 11.741L13 12.461L13.73 11.731C14.18 11.281 14.81 11.001 15.5 11.001C16.88 11.001 18 12.121 18 13.501C18 14.191 17.72 14.821 17.27 15.271V15.271Z"/>
</g>
<defs>
<clipPath id="clip0_61_15471">
<rect transform="translate(0 0.000976562)"/>
</clipPath>
</defs>
</svg>
