<svg viewBox="0 0 24 24" xmlns="http://www.w3.org/2000/svg">
<g clip-path="url(#clip0_61_15472)">
<path d="M20 6.00098H10V11.001C10 11.551 9.55 12.001 9 12.001C8.45 12.001 8 11.551 8 11.001V4.00098H13C13.55 4.00098 14 3.55098 14 3.00098V1.00098C14 0.450977 13.55 0.000976562 13 0.000976562H7C6.45 0.000976562 6 0.450977 6 1.00098V6.00098H4C2.9 6.00098 2 6.90098 2 8.00098V20.001C2 21.101 2.9 22.001 4 22.001H20C21.1 22.001 22 21.101 22 20.001V8.00098C22 6.90098 21.1 6.00098 20 6.00098Z"/>
</g>
<defs>
<clipPath id="clip0_61_15472">
<rect transform="translate(0 0.000976562)"/>
</clipPath>
</defs>
</svg>
