<svg   viewBox="0 0 24 24" fill="none" xmlns="http://www.w3.org/2000/svg">
<g clip-path="url(#clip0_61_15474)">
<path d="M18.0016 13.001H12.9416C12.6016 16.101 10.6816 18.721 8.00162 20.051C7.97162 21.861 6.34162 23.281 4.45162 22.951C3.25162 22.741 2.26162 21.751 2.05162 20.551C1.71162 18.651 3.16162 17.001 5.00162 17.001C5.95162 17.001 6.78162 17.451 7.33162 18.141C9.23162 17.111 10.5916 15.231 10.9116 13.001H7.81162C7.33162 14.341 5.95162 15.241 4.39162 14.941C3.21162 14.711 2.26162 13.741 2.04162 12.561C1.70162 10.661 3.16162 9.00098 5.00162 9.00098C6.30162 9.00098 7.40162 9.84098 7.82162 11.001H10.9216C10.6016 8.77098 9.23162 6.90098 7.33162 5.86098C6.69162 6.66098 5.66162 7.14098 4.52162 6.96098C3.29162 6.77098 2.26162 5.77098 2.05162 4.54098C1.72162 2.65098 3.17162 1.00098 5.00162 1.00098C6.64162 1.00098 7.96162 2.31098 7.99162 3.95098C10.6716 5.28098 12.5916 7.90098 12.9316 11.001H18.0016V9.21098C18.0016 8.76098 18.5416 8.54098 18.8516 8.86098L21.6416 11.651C21.8416 11.851 21.8416 12.161 21.6416 12.361L18.8516 15.151C18.5416 15.461 18.0016 15.241 18.0016 14.791V13.001Z" fill="black"/>
</g>
<defs>
<clipPath id="clip0_61_15474">
<rect width="24" height="24" fill="white" transform="translate(0 0.000976562)"/>
</clipPath>
</defs>
</svg>
