<svg   viewBox="0 0 24 24" fill="none" xmlns="http://www.w3.org/2000/svg">
<g clip-path="url(#clip0_61_15476)">
<path d="M15.5 13.5005C15.5 15.5005 13 17.0005 13 18.5005H11C11 17.0005 8.5 15.5005 8.5 13.5005C8.5 11.5705 10.07 10.0005 12 10.0005C13.93 10.0005 15.5 11.5705 15.5 13.5005ZM13 19.5005H11V20.0005C11 20.5505 11.45 21.0005 12 21.0005C12.55 21.0005 13 20.5505 13 20.0005V19.5005ZM19 13.0005C19 14.3905 18.59 15.6905 17.88 16.7805C17.63 17.1705 17.69 17.6905 18.02 18.0205C18.46 18.4605 19.22 18.4005 19.56 17.8705C20.47 16.4705 21 14.8005 21 13.0005C21 10.6405 20.09 8.49052 18.6 6.88052C18.21 6.46052 17.55 6.45052 17.15 6.85052C16.77 7.23052 16.77 7.84052 17.13 8.24052C18.29 9.49052 19 11.1605 19 13.0005ZM15.65 4.65052L12.86 1.86052C12.54 1.54052 12 1.76052 12 2.21052V4.00052C7.03 4.00052 3 8.03052 3 13.0005C3 14.8005 3.53 16.4705 4.44 17.8805C4.78 18.4105 5.54 18.4705 5.98 18.0305C6.31 17.7005 6.37 17.1905 6.12 16.8005C4.73 14.6505 4.48 11.7005 6.25 8.80052C7.45 6.85052 9.71 5.81052 12 6.00052V7.79052C12 8.24052 12.54 8.46052 12.85 8.14052L15.64 5.35052C15.84 5.16052 15.84 4.84052 15.65 4.65052Z" fill="black"/>
</g>
<defs>
<clipPath id="clip0_61_15476">
<rect width="24" height="24" fill="white" transform="translate(0 0.000976562)"/>
</clipPath>
</defs>
</svg>
