<svg   viewBox="0 0 24 24" fill="none" xmlns="http://www.w3.org/2000/svg">
<g clip-path="url(#clip0_61_15477)">
<path d="M12 2.00098C6.48 2.00098 2 6.48098 2 12.001C2 17.521 6.48 22.001 12 22.001C17.52 22.001 22 17.521 22 12.001C22 6.48098 17.52 2.00098 12 2.00098ZM18 13.971H13L15.26 11.711C14.35 10.651 13.01 9.97098 11.5 9.97098C9.13 9.97098 7.15 11.631 6.64 13.851L5.68 13.531C6.32 10.911 8.68 8.97098 11.5 8.97098C13.28 8.97098 14.87 9.76098 15.97 11.001L18 8.97098V13.971Z" fill="black"/>
</g>
<defs>
<clipPath id="clip0_61_15477">
<rect width="24" height="24" fill="white" transform="translate(0 0.000976562)"/>
</clipPath>
</defs>
</svg>
