<svg viewBox="0 0 24 24" xmlns="http://www.w3.org/2000/svg">
<g clip-path="url(#clip0_61_15479)">
<path d="M12.0011 2.00098C13.1011 2.00098 14.0011 2.90098 14.0011 4.00098C14.0011 5.10098 13.1011 6.00098 12.0011 6.00098C10.9011 6.00098 10.0011 5.10098 10.0011 4.00098C10.0011 2.90098 10.9011 2.00098 12.0011 2.00098ZM10.0011 20.001C8.34109 20.001 7.00109 18.661 7.00109 17.001C7.00109 15.691 7.84109 14.591 9.00109 14.171V12.101C6.72109 12.561 5.00109 14.581 5.00109 17.001C5.00109 19.761 7.24109 22.001 10.0011 22.001C12.4211 22.001 14.4411 20.281 14.9011 18.001H12.8311C12.4211 19.161 11.3111 20.001 10.0011 20.001ZM20.4911 20.491L3.51109 3.51098C3.12109 3.12098 2.49109 3.12098 2.10109 3.51098C1.71109 3.90098 1.71109 4.53098 2.10109 4.92098L10.0011 12.821V15.001C10.0011 16.101 10.9011 17.001 12.0011 17.001H14.1711L19.0711 21.901C19.4611 22.291 20.0911 22.291 20.4811 21.901C20.8811 21.511 20.8811 20.881 20.4911 20.491ZM18.1611 10.931C16.9111 10.721 15.7311 10.051 14.9311 9.17098L13.6411 7.74098C13.4011 7.50098 13.2011 7.38098 13.0111 7.28098C12.6511 7.09098 12.2911 6.98098 11.8111 7.02098C11.3211 7.06098 10.9011 7.29098 10.5811 7.63098L14.0011 11.051C15.0011 11.881 16.4011 12.591 17.8011 12.871C18.4211 13.001 19.0011 12.531 19.0011 11.901C19.0011 11.421 18.6411 11.011 18.1611 10.931Z"/>
</g>
<defs>
<clipPath id="clip0_61_15479">
<rect transform="translate(0 0.000976562)"/>
</clipPath>
</defs>
</svg>
