<svg   viewBox="0 0 24 24" fill="none" xmlns="http://www.w3.org/2000/svg">
<g clip-path="url(#clip0_61_15480)">
<path d="M12 2.00098C6.48 2.00098 2 6.48098 2 12.001C2 17.521 6.48 22.001 12 22.001C17.52 22.001 22 17.521 22 12.001C22 6.48098 17.52 2.00098 12 2.00098ZM11 15.001C11 15.551 10.55 16.001 10 16.001C9.45 16.001 9 15.551 9 15.001V9.00098C9 8.45098 9.45 8.00098 10 8.00098C10.55 8.00098 11 8.45098 11 9.00098V15.001ZM16.02 12.781L13.62 14.701C12.97 15.221 12 14.761 12 13.921V10.081C12 9.24098 12.97 8.78098 13.62 9.30098L16.02 11.221C16.52 11.621 16.52 12.381 16.02 12.781Z" fill="black"/>
</g>
<defs>
<clipPath id="clip0_61_15480">
<rect width="24" height="24" fill="white" transform="translate(0 0.000976562)"/>
</clipPath>
</defs>
</svg>
