<svg viewBox="0 0 24 24" xmlns="http://www.w3.org/2000/svg">
<g clip-path="url(#clip0_61_15478)">
<path d="M14.59 2.59098C14.21 2.21098 13.7 2.00098 13.17 2.00098H6C4.9 2.00098 4 2.90098 4 4.00098V20.001C4 21.101 4.89 22.001 5.99 22.001H18C19.1 22.001 20 21.101 20 20.001V8.83098C20 8.30098 19.79 7.79098 19.41 7.42098L14.59 2.59098ZM15 16.001H13V18.001C13 18.551 12.55 19.001 12 19.001C11.45 19.001 11 18.551 11 18.001V16.001H9C8.45 16.001 8 15.551 8 15.001C8 14.451 8.45 14.001 9 14.001H11V12.001C11 11.451 11.45 11.001 12 11.001C12.55 11.001 13 11.451 13 12.001V14.001H15C15.55 14.001 16 14.451 16 15.001C16 15.551 15.55 16.001 15 16.001ZM13 8.00098V3.50098L18.5 9.00098H14C13.45 9.00098 13 8.55098 13 8.00098Z"/>
</g>
<defs>
<clipPath id="clip0_61_15478">
<rect transform="translate(0 0.000976562)"/>
</clipPath>
</defs>
</svg>
