<svg   viewBox="0 0 24 24" fill="none" xmlns="http://www.w3.org/2000/svg">
<g clip-path="url(#clip0_61_15481)">
<path d="M11.9995 2.02051C6.48953 2.02051 2.01953 6.49051 2.01953 12.0005C2.01953 17.5105 6.48953 21.9805 11.9995 21.9805C17.5095 21.9805 21.9795 17.5105 21.9795 12.0005C21.9795 6.49051 17.5095 2.02051 11.9995 2.02051ZM11.4795 17.8805V13.7405H8.81953C8.44953 13.7405 8.19953 13.3405 8.37953 13.0105L12.0595 5.84051C12.2895 5.37051 12.9995 5.54051 12.9995 6.07051V10.2605H15.5395C15.9095 10.2605 16.1495 10.6505 15.9895 10.9805L12.4295 18.1005C12.1895 18.5805 11.4795 18.4105 11.4795 17.8805V17.8805Z" fill="black"/>
</g>
<defs>
<clipPath id="clip0_61_15481">
<rect width="24" height="24" fill="white" transform="translate(0 0.000976562)"/>
</clipPath>
</defs>
</svg>
