<svg viewBox="0 0 24 24" xmlns="http://www.w3.org/2000/svg">
<g clip-path="url(#clip0_61_15482)">
<path d="M12 2.00098C6.5 2.00098 2 6.50098 2 12.001C2 17.501 6.5 22.001 12 22.001C17.5 22.001 22 17.501 22 12.001C22 6.50098 17.5 2.00098 12 2.00098ZM16 18.001H8C7.45 18.001 7 17.551 7 17.001C7 16.451 7.45 16.001 8 16.001H16C16.55 16.001 17 16.451 17 17.001C17 17.551 16.55 18.001 16 18.001ZM9.59 13.291L7.7 11.401C7.31 11.011 7.31 10.391 7.7 10.001C8.09 9.61098 8.71 9.61098 9.1 10.001L10.3 11.201L14.9 6.60098C15.29 6.21098 15.91 6.21098 16.3 6.60098C16.69 6.99098 16.69 7.61098 16.3 8.00098L11.01 13.291C10.62 13.681 9.98 13.681 9.59 13.291V13.291Z"/>
</g>
<defs>
<clipPath id="clip0_61_15482">
<rect transform="translate(0 0.000976562)"/>
</clipPath>
</defs>
</svg>
