<svg viewBox="0 0 24 24" xmlns="http://www.w3.org/2000/svg">
<g clip-path="url(#clip0_61_15483)">
<path d="M15.5 11.5005C15.5 13.5005 13 15.0005 13 16.5005H11C11 15.0005 8.5 13.5005 8.5 11.5005C8.5 9.57054 10.07 8.00054 12 8.00054C13.93 8.00054 15.5 9.57054 15.5 11.5005ZM13 17.5005H11V18.0005C11 18.5505 11.45 19.0005 12 19.0005C12.55 19.0005 13 18.5505 13 18.0005V17.5005ZM22 12.0005C22 9.54054 21.11 7.29054 19.64 5.55054C19.35 5.21054 18.84 5.17054 18.52 5.49054C18.25 5.76054 18.22 6.20054 18.46 6.49054C19.73 7.97054 20.5 9.90054 20.5 12.0005C20.5 14.1005 19.73 16.0305 18.46 17.5205C18.21 17.8105 18.25 18.2505 18.52 18.5205C18.84 18.8405 19.35 18.8005 19.64 18.4605C21.11 16.7105 22 14.4605 22 12.0005ZM3.5 12.0005C3.5 9.90054 4.27 7.97054 5.54 6.48054C5.79 6.19054 5.75 5.75054 5.48 5.48054C5.17 5.17054 4.65 5.20054 4.36 5.54054C2.89 7.29054 2 9.54054 2 12.0005C2 14.4605 2.89 16.7105 4.36 18.4605C4.65 18.8005 5.16 18.8405 5.48 18.5205C5.75 18.2505 5.78 17.8105 5.54 17.5205C4.27 16.0305 3.5 14.1005 3.5 12.0005ZM17.5 12.0005C17.5 13.2805 17.06 14.4705 16.32 15.4105C16.09 15.7005 16.12 16.1205 16.39 16.3905C16.71 16.7105 17.24 16.6805 17.52 16.3205C18.44 15.1305 19 13.6305 19 12.0005C19 10.3705 18.44 8.87054 17.51 7.69054C17.23 7.33054 16.7 7.30054 16.38 7.62054C16.12 7.88054 16.08 8.30054 16.31 8.60054C17.06 9.53054 17.5 10.7205 17.5 12.0005ZM7.62 16.3805C7.88 16.1205 7.92 15.7005 7.69 15.4005C6.94 14.4705 6.5 13.2805 6.5 12.0005C6.5 10.7205 6.94 9.53054 7.68 8.59054C7.91 8.30054 7.88 7.88054 7.61 7.61054C7.3 7.30054 6.77 7.33054 6.49 7.68054C5.56 8.87054 5 10.3705 5 12.0005C5 13.6305 5.56 15.1305 6.49 16.3205C6.77 16.6705 7.3 16.7005 7.62 16.3805Z"/>
</g>
<defs>
<clipPath id="clip0_61_15483">
<rect transform="translate(0 0.000976562)"/>
</clipPath>
</defs>
</svg>
