<svg viewBox="0 0 24 24" xmlns="http://www.w3.org/2000/svg">
<g clip-path="url(#clip0_61_15484)">
<path d="M17.66 8.00105L12.71 3.06105C12.32 2.67105 11.69 2.67105 11.3 3.06105L6.34 8.00105C4.78 9.56105 4 11.6411 4 13.6411C4 15.6411 4.78 17.7511 6.34 19.3111C7.9 20.8711 9.95 21.6611 12 21.6611C14.05 21.6611 16.1 20.8711 17.66 19.3111C19.22 17.7511 20 15.6411 20 13.6411C20 11.6411 19.22 9.56105 17.66 8.00105ZM6 14.0011C6.01 12.0011 6.62 10.7311 7.76 9.60106L12 5.27105L16.24 9.65105C17.38 10.7711 17.99 12.0011 18 14.0011H6Z"/>
</g>
<defs>
<clipPath id="clip0_61_15484">
<rect transform="translate(0 0.000976562)"/>
</clipPath>
</defs>
</svg>
