<svg viewBox="0 0 24 24" xmlns="http://www.w3.org/2000/svg">
<g clip-path="url(#clip0_61_15485)">
<path d="M19 4.00098H5C3.89 4.00098 3 4.90098 3 6.00098V18.001C3 19.101 3.9 20.001 5 20.001H8C8.55 20.001 9 19.551 9 19.001C9 18.451 8.55 18.001 8 18.001H5V8.00098H19V18.001H16C15.45 18.001 15 18.451 15 19.001C15 19.551 15.45 20.001 16 20.001H19C20.1 20.001 21 19.101 21 18.001V6.00098C21 4.90098 20.11 4.00098 19 4.00098ZM11.65 10.351L8.86 13.141C8.54 13.461 8.76 14.001 9.21 14.001H11V19.001C11 19.551 11.45 20.001 12 20.001C12.55 20.001 13 19.551 13 19.001V14.001H14.79C15.24 14.001 15.46 13.461 15.14 13.151L12.35 10.361C12.16 10.161 11.84 10.161 11.65 10.351V10.351Z"/>
</g>
<defs>
<clipPath id="clip0_61_15485">
<rect transform="translate(0 0.000976562)"/>
</clipPath>
</defs>
</svg>
