<svg   viewBox="0 0 24 24" fill="none" xmlns="http://www.w3.org/2000/svg">
<g clip-path="url(#clip0_61_15488)">
<path d="M10.5009 9.00094H13.5009C13.7809 9.00094 14.0009 8.78094 14.0009 8.50094V6.00094H15.7909C16.2409 6.00094 16.4609 5.46094 16.1409 5.15094L12.3509 1.36094C12.1509 1.16094 11.8409 1.16094 11.6409 1.36094L7.85094 5.15094C7.54094 5.46094 7.76094 6.00094 8.21094 6.00094H10.0009V8.50094C10.0009 8.78094 10.2209 9.00094 10.5009 9.00094ZM8.50094 10.0009H6.00094V8.21094C6.00094 7.76094 5.46094 7.54094 5.15094 7.86094L1.36094 11.6509C1.16094 11.8509 1.16094 12.1609 1.36094 12.3609L5.15094 16.1509C5.46094 16.4609 6.00094 16.2409 6.00094 15.7909V14.0009H8.50094C8.78094 14.0009 9.00094 13.7809 9.00094 13.5009V10.5009C9.00094 10.2209 8.78094 10.0009 8.50094 10.0009ZM22.6509 11.6509L18.8609 7.86094C18.5409 7.54094 18.0009 7.76094 18.0009 8.21094V10.0009H15.5009C15.2209 10.0009 15.0009 10.2209 15.0009 10.5009V13.5009C15.0009 13.7809 15.2209 14.0009 15.5009 14.0009H18.0009V15.7909C18.0009 16.2409 18.5409 16.4609 18.8509 16.1409L22.6409 12.3509C22.8409 12.1609 22.8409 11.8409 22.6509 11.6509V11.6509ZM13.5009 15.0009H10.5009C10.2209 15.0009 10.0009 15.2209 10.0009 15.5009V18.0009H8.21094C7.76094 18.0009 7.54094 18.5409 7.86094 18.8509L11.6509 22.6409C11.8509 22.8409 12.1609 22.8409 12.3609 22.6409L16.1509 18.8509C16.4609 18.5409 16.2409 18.0009 15.8009 18.0009H14.0009V15.5009C14.0009 15.2209 13.7809 15.0009 13.5009 15.0009Z" fill="black"/>
</g>
<defs>
<clipPath id="clip0_61_15488">
<rect width="24" height="24" fill="white" transform="translate(0 0.000976562)"/>
</clipPath>
</defs>
</svg>
