<svg viewBox="0 0 24 24" xmlns="http://www.w3.org/2000/svg">
<g clip-path="url(#clip0_61_15489)">
<path d="M12 2.00098C6.48 2.00098 2 6.48098 2 12.001C2 17.521 6.48 22.001 12 22.001C17.52 22.001 22 17.521 22 12.001C22 6.48098 17.52 2.00098 12 2.00098ZM13.88 11.541L9.63 15.791C9.24 16.181 8.61 16.181 8.22 15.791C7.83 15.401 7.83 14.771 8.22 14.381L12.47 10.131L11.2 8.86098C10.88 8.54098 11.11 8.00098 11.55 8.00098H15.49C15.77 8.00098 15.99 8.22098 15.99 8.50098V12.441C15.99 12.891 15.45 13.111 15.14 12.791L13.88 11.541Z"/>
</g>
<defs>
<clipPath id="clip0_61_15489">
<rect transform="translate(0 0.000976562)"/>
</clipPath>
</defs>
</svg>
