<svg   viewBox="0 0 24 24" fill="none" xmlns="http://www.w3.org/2000/svg">
<g clip-path="url(#clip0_61_15490)">
<path d="M12 2.00098C6.48 2.00098 2 6.48098 2 12.001C2 17.521 6.48 22.001 12 22.001C17.52 22.001 22 17.521 22 12.001C22 6.48098 17.52 2.00098 12 2.00098ZM9 12.001C8.45 12.001 8 11.551 8 11.001V8.00098C8 7.45098 8.45 7.00098 9 7.00098C9.55 7.00098 10 7.45098 10 8.00098V11.001C10 11.551 9.55 12.001 9 12.001ZM13 18.001H11C10.45 18.001 10 17.551 10 17.001V16.111C10 15.111 10.68 14.191 11.66 14.031C12.92 13.821 14 14.791 14 16.001V17.001C14 17.551 13.55 18.001 13 18.001ZM16 11.001C16 11.551 15.55 12.001 15 12.001C14.45 12.001 14 11.551 14 11.001V8.00098C14 7.45098 14.45 7.00098 15 7.00098C15.55 7.00098 16 7.45098 16 8.00098V11.001Z" fill="black"/>
</g>
<defs>
<clipPath id="clip0_61_15490">
<rect width="24" height="24" fill="white" transform="translate(0 0.000976562)"/>
</clipPath>
</defs>
</svg>
