<svg viewBox="0 0 24 24" xmlns="http://www.w3.org/2000/svg">
<g clip-path="url(#clip0_61_15491)">
<path d="M11.5 9.00098C10.12 9.00098 9 10.121 9 11.501C9 12.881 10.12 14.001 11.5 14.001C12.88 14.001 14 12.881 14 11.501C14 10.121 12.88 9.00098 11.5 9.00098ZM20 4.00098H4C2.9 4.00098 2 4.90098 2 6.00098V18.001C2 19.101 2.9 20.001 4 20.001H20C21.1 20.001 22 19.101 22 18.001V6.00098C22 4.90098 21.1 4.00098 20 4.00098ZM16.08 17.501L13.88 15.301C12.98 15.881 11.85 16.141 10.66 15.921C8.78 15.571 7.28 13.991 7.04 12.091C6.66 9.08098 9.22 6.57098 12.25 7.05098C14.13 7.35098 15.64 8.89098 15.95 10.761C16.14 11.921 15.87 12.991 15.31 13.881L17.51 16.071C17.9 16.461 17.9 17.101 17.51 17.491C17.11 17.891 16.47 17.891 16.08 17.501V17.501Z"/>
</g>
<defs>
<clipPath id="clip0_61_15491">
<rect transform="translate(0 0.000976562)"/>
</clipPath>
</defs>
</svg>
