<svg   viewBox="0 0 24 24" fill="none" xmlns="http://www.w3.org/2000/svg">
<g clip-path="url(#clip0_61_15492)">
<path d="M21.4982 4.00098C20.6682 4.00098 19.9982 4.67098 19.9982 5.50098V10.501C19.9982 10.781 19.7782 11.001 19.4982 11.001C19.2182 11.001 18.9982 10.781 18.9982 10.501V2.50098C18.9982 1.67098 18.3282 1.00098 17.4982 1.00098C16.6682 1.00098 15.9982 1.67098 15.9982 2.50098V10.501C15.9982 10.781 15.7782 11.001 15.4982 11.001C15.2182 11.001 14.9982 10.781 14.9982 10.501V1.50098C14.9982 0.670977 14.3282 0.000976562 13.4982 0.000976562C12.6682 0.000976562 11.9982 0.670977 11.9982 1.50098V10.491C11.9982 10.771 11.7782 10.991 11.4982 10.991C11.2182 10.991 10.9982 10.771 10.9982 10.491V4.50098C10.9982 3.67098 10.3282 3.00098 9.49817 3.00098C8.66817 3.00098 7.99817 3.67098 7.99817 4.50098V15.911L3.87817 13.561C3.29817 13.231 2.57817 13.321 2.09817 13.781C1.49817 14.361 1.47817 15.321 2.06817 15.911L8.84817 22.801C9.59817 23.571 10.6182 24.001 11.6982 24.001H18.9982C21.2082 24.001 22.9982 22.211 22.9982 20.001V5.50098C22.9982 4.67098 22.3282 4.00098 21.4982 4.00098Z" fill="black"/>
</g>
<defs>
<clipPath id="clip0_61_15492">
<rect width="24" height="24" fill="white" transform="translate(0 0.000976562)"/>
</clipPath>
</defs>
</svg>
