<svg viewBox="0 0 24 24" xmlns="http://www.w3.org/2000/svg">
<g clip-path="url(#clip0_61_15494)">
<path d="M12 2.00098C6.48 2.00098 2 6.48098 2 12.001C2 17.521 6.48 22.001 12 22.001C17.52 22.001 22 17.521 22 12.001C22 6.48098 17.52 2.00098 12 2.00098ZM7 13.501C6.17 13.501 5.5 12.831 5.5 12.001C5.5 11.171 6.17 10.501 7 10.501C7.83 10.501 8.5 11.171 8.5 12.001C8.5 12.831 7.83 13.501 7 13.501ZM12 13.501C11.17 13.501 10.5 12.831 10.5 12.001C10.5 11.171 11.17 10.501 12 10.501C12.83 10.501 13.5 11.171 13.5 12.001C13.5 12.831 12.83 13.501 12 13.501ZM17 13.501C16.17 13.501 15.5 12.831 15.5 12.001C15.5 11.171 16.17 10.501 17 10.501C17.83 10.501 18.5 11.171 18.5 12.001C18.5 12.831 17.83 13.501 17 13.501Z"/>
</g>
<defs>
<clipPath id="clip0_61_15494">
<rect transform="translate(0 0.000976562)"/>
</clipPath>
</defs>
</svg>
