<svg viewBox="0 0 24 24" xmlns="http://www.w3.org/2000/svg">
<g clip-path="url(#clip0_61_15495)">
<path d="M18 3.00098H14.82C14.4 1.84098 13.3 1.00098 12 1.00098C10.7 1.00098 9.6 1.84098 9.18 3.00098H6C4.9 3.00098 4 3.90098 4 5.00098V20.001C4 21.101 4.9 22.001 6 22.001H12.11C11.52 21.431 11.04 20.751 10.69 20.001H6V5.00098H8V6.00098C8 7.10098 8.9 8.00098 10 8.00098H14C15.1 8.00098 16 7.10098 16 6.00098V5.00098H18V10.081C18.71 10.181 19.38 10.391 20 10.681V5.00098C20 3.90098 19.1 3.00098 18 3.00098ZM12 5.00098C11.45 5.00098 11 4.55098 11 4.00098C11 3.45098 11.45 3.00098 12 3.00098C12.55 3.00098 13 3.45098 13 4.00098C13 4.55098 12.55 5.00098 12 5.00098ZM17 12.001C14.24 12.001 12 14.241 12 17.001C12 19.761 14.24 22.001 17 22.001C19.76 22.001 22 19.761 22 17.001C22 14.241 19.76 12.001 17 12.001ZM18.29 19.001L16.64 17.351C16.55 17.261 16.49 17.131 16.49 17.001V14.511C16.49 14.231 16.71 14.011 16.99 14.011C17.27 14.011 17.49 14.231 17.49 14.511V16.801L18.99 18.301C19.19 18.501 19.19 18.811 18.99 19.011C18.8 19.201 18.49 19.201 18.29 19.001Z"/>
</g>
<defs>
<clipPath id="clip0_61_15495">
<rect transform="translate(0 0.000976562)"/>
</clipPath>
</defs>
</svg>
