<svg   viewBox="0 0 24 24" fill="none" xmlns="http://www.w3.org/2000/svg">
<g clip-path="url(#clip0_61_15496)">
<path d="M20 5.00098H16.83L15.59 3.65098C15.22 3.24098 14.68 3.00098 14.12 3.00098H9.88C9.32 3.00098 8.78 3.24098 8.4 3.65098L7.17 5.00098H4C2.9 5.00098 2 5.90098 2 7.00098V19.001C2 20.101 2.9 21.001 4 21.001H11V18.911C8.55 18.491 6.59 16.591 6.11 14.161C5.99 13.551 6.49 13.001 7.1 13.001C7.59 13.001 7.98 13.351 8.08 13.831C8.47 15.641 10.07 17.001 12 17.001C13.93 17.001 15.53 15.641 15.91 13.831C16.01 13.351 16.41 13.001 16.89 13.001C17.5 13.001 18 13.551 17.88 14.161C17.4 16.591 15.44 18.501 12.99 18.911V21.001H19.99C21.09 21.001 21.99 20.101 21.99 19.001V7.00098C22 5.90098 21.1 5.00098 20 5.00098ZM14 13.001C14 14.101 13.1 15.001 12 15.001C10.9 15.001 10 14.101 10 13.001V9.00098C10 7.90098 10.9 7.00098 12 7.00098C13.1 7.00098 14 7.90098 14 9.00098V13.001Z" fill="black"/>
</g>
<defs>
<clipPath id="clip0_61_15496">
<rect width="24" height="24" fill="white" transform="translate(0 0.000976562)"/>
</clipPath>
</defs>
</svg>
