<svg viewBox="0 0 24 24" xmlns="http://www.w3.org/2000/svg">
<g clip-path="url(#clip0_61_15501)">
<path d="M1 6.00098C0.45 6.00098 0 6.45098 0 7.00098V11.001H0.01L0 20.001C0 21.101 0.9 22.001 2 22.001H19C19.55 22.001 20 21.551 20 21.001C20 20.451 19.55 20.001 19 20.001H3C2.45 20.001 2 19.551 2 19.001V7.00098C2 6.45098 1.55 6.00098 1 6.00098ZM22 4.00098H14L12.59 2.59098C12.21 2.21098 11.7 2.00098 11.17 2.00098H6C4.9 2.00098 4.01 2.90098 4.01 4.00098L4 16.001C4 17.101 4.9 18.001 6 18.001H22C23.1 18.001 24 17.101 24 16.001V6.00098C24 4.90098 23.1 4.00098 22 4.00098ZM7.6 14.201L11.11 9.52098C11.31 9.26098 11.7 9.25098 11.91 9.51098L15.01 13.501L17.11 10.971C17.31 10.721 17.69 10.731 17.89 10.981L20.38 14.181C20.64 14.511 20.4 14.991 19.99 14.991H8C7.59 15.001 7.35 14.531 7.6 14.201Z"/>
</g>
<defs>
<clipPath id="clip0_61_15501">
<rect transform="translate(0 0.000976562)"/>
</clipPath>
</defs>
</svg>
