<svg viewBox="0 0 24 24" xmlns="http://www.w3.org/2000/svg">
<g clip-path="url(#clip0_61_15499)">
<path d="M13 7.00098H11V9.00098H13V7.00098ZM12 11.001C11.45 11.001 11 11.451 11 12.001V16.001C11 16.551 11.45 17.001 12 17.001C12.55 17.001 13 16.551 13 16.001V12.001C13 11.451 12.55 11.001 12 11.001ZM17 1.01098L7 1.00098C5.9 1.00098 5 1.90098 5 3.00098V21.001C5 22.101 5.9 23.001 7 23.001H17C18.1 23.001 19 22.101 19 21.001V3.00098C19 1.90098 18.1 1.01098 17 1.01098V1.01098ZM17 19.001H7V5.00098H17V19.001Z"/>
</g>
<defs>
<clipPath id="clip0_61_15499">
<rect transform="translate(0 0.000976562)"/>
</clipPath>
</defs>
</svg>
