<svg   viewBox="0 0 24 24" fill="none" xmlns="http://www.w3.org/2000/svg">
<g clip-path="url(#clip0_61_15500)">
<path d="M12 12.001C14.21 12.001 16 10.211 16 8.00098C16 5.79098 14.21 4.00098 12 4.00098C9.79 4.00098 8 5.79098 8 8.00098C8 10.211 9.79 12.001 12 12.001ZM12 6.00098C13.1 6.00098 14 6.90098 14 8.00098C14 9.10098 13.1 10.001 12 10.001C10.9 10.001 10 9.10098 10 8.00098C10 6.90098 10.9 6.00098 12 6.00098ZM12 13.001C9.33 13.001 4 14.341 4 17.001V19.001C4 19.551 4.45 20.001 5 20.001H19C19.55 20.001 20 19.551 20 19.001V17.001C20 14.341 14.67 13.001 12 13.001ZM18 18.001H6V17.011C6.2 16.291 9.3 15.001 12 15.001C14.7 15.001 17.8 16.291 18 17.001V18.001Z" fill="black"/>
</g>
<defs>
<clipPath id="clip0_61_15500">
<rect width="24" height="24" fill="white" transform="translate(0 0.000976562)"/>
</clipPath>
</defs>
</svg>
