<svg viewBox="0 0 24 24" xmlns="http://www.w3.org/2000/svg">
<g clip-path="url(#clip0_61_15498)">
<path d="M18.9905 11.501C19.3305 11.501 19.6705 11.531 20.0005 11.571V2.421C20.0005 1.531 18.9205 1.081 18.2905 1.711L1.71054 18.291C1.08054 18.921 1.52054 20.001 2.41054 20.001H11.5605C11.5205 19.671 11.4905 19.341 11.4905 19.001C11.4905 14.861 14.8505 11.501 18.9905 11.501V11.501ZM22.7005 19.491C22.7205 19.331 22.7405 19.171 22.7405 19.001C22.7405 18.831 22.7305 18.671 22.7005 18.511L23.7605 17.681C23.8505 17.601 23.8805 17.471 23.8205 17.361L22.8205 15.631C22.7605 15.521 22.6305 15.481 22.5105 15.521L21.2705 16.021C21.0105 15.821 20.7305 15.651 20.4205 15.531L20.2305 14.211C20.2205 14.091 20.1105 14.001 19.9905 14.001H17.9905C17.8705 14.001 17.7605 14.091 17.7405 14.211L17.5505 15.531C17.2505 15.661 16.9605 15.821 16.7005 16.021L15.4605 15.521C15.3505 15.481 15.2205 15.521 15.1505 15.631L14.1505 17.361C14.0905 17.471 14.1105 17.601 14.2105 17.681L15.2705 18.511C15.2505 18.671 15.2405 18.831 15.2405 19.001C15.2405 19.171 15.2505 19.331 15.2705 19.491L14.2105 20.321C14.1205 20.401 14.0905 20.531 14.1505 20.641L15.1505 22.371C15.2105 22.481 15.3405 22.521 15.4605 22.481L16.7005 21.981C16.9605 22.181 17.2405 22.351 17.5505 22.471L17.7405 23.791C17.7605 23.911 17.8605 24.001 17.9905 24.001H19.9905C20.1105 24.001 20.2205 23.911 20.2405 23.791L20.4305 22.471C20.7305 22.341 21.0205 22.181 21.2705 21.981L22.5205 22.481C22.6305 22.521 22.7605 22.481 22.8305 22.371L23.8305 20.641C23.8905 20.531 23.8605 20.401 23.7705 20.321L22.7005 19.491ZM18.9905 20.501C18.1605 20.501 17.4905 19.831 17.4905 19.001C17.4905 18.171 18.1605 17.501 18.9905 17.501C19.8205 17.501 20.4905 18.171 20.4905 19.001C20.4905 19.831 19.8205 20.501 18.9905 20.501Z"/>
</g>
<defs>
<clipPath id="clip0_61_15498">
<rect transform="translate(0 0.000976562)"/>
</clipPath>
</defs>
</svg>
