<svg viewBox="0 0 24 24" xmlns="http://www.w3.org/2000/svg">
<g clip-path="url(#clip0_61_15502)">
<path d="M20.001 3.00098H13.001C12.451 3.00098 12.001 3.45098 12.001 4.00098V13.001L15.001 10.001H20.001C20.551 10.001 21.001 9.55098 21.001 9.00098V4.00098C21.001 3.45098 20.551 3.00098 20.001 3.00098ZM19.231 15.261L16.691 14.971C16.081 14.901 15.481 15.111 15.051 15.541L13.211 17.381C10.381 15.941 8.06102 13.631 6.62102 10.791L8.47102 8.94098C8.90102 8.51098 9.11102 7.91098 9.04102 7.30098L8.75102 4.78098C8.63102 3.77098 7.78102 3.01098 6.76102 3.01098H5.03102C3.90102 3.01098 2.96102 3.95098 3.03102 5.08098C3.56102 13.621 10.391 20.441 18.921 20.971C20.051 21.041 20.991 20.101 20.991 18.971V17.241C21.001 16.231 20.241 15.381 19.231 15.261V15.261Z"/>
</g>
<defs>
<clipPath id="clip0_61_15502">
<rect transform="translate(0 0.000976562)"/>
</clipPath>
</defs>
</svg>
