<svg   viewBox="0 0 24 24" fill="none" xmlns="http://www.w3.org/2000/svg">
<g clip-path="url(#clip0_61_15497)">
<path d="M19 3.00098H18V2.00098C18 1.45098 17.55 1.00098 17 1.00098C16.45 1.00098 16 1.45098 16 2.00098V3.00098H8V2.00098C8 1.45098 7.55 1.00098 7 1.00098C6.45 1.00098 6 1.45098 6 2.00098V3.00098H5C3.89 3.00098 3 3.90098 3 5.00098V19.001C3 20.101 3.9 21.001 5 21.001H19C20.1 21.001 21 20.101 21 19.001V5.00098C21 3.90098 20.1 3.00098 19 3.00098ZM12 6.00098C13.66 6.00098 15 7.34098 15 9.00098C15 10.661 13.66 12.001 12 12.001C10.34 12.001 9 10.661 9 9.00098C9 7.34098 10.34 6.00098 12 6.00098ZM18 18.001H6V17.001C6 15.001 10 13.901 12 13.901C14 13.901 18 15.001 18 17.001V18.001Z" fill="black"/>
</g>
<defs>
<clipPath id="clip0_61_15497">
<rect width="24" height="24" fill="white" transform="translate(0 0.000976562)"/>
</clipPath>
</defs>
</svg>
