<svg   viewBox="0 0 24 24" fill="none" xmlns="http://www.w3.org/2000/svg">
<g clip-path="url(#clip0_61_15503)">
<path d="M11.9989 3.00098C7.40891 3.00098 3.85891 4.53098 0.888912 6.59098C0.398912 6.92098 0.298912 7.59098 0.668912 8.05098L10.4489 20.091C11.2489 21.071 12.7489 21.081 13.5489 20.091L23.3289 8.07098C23.6989 7.61098 23.5989 6.94098 23.1089 6.61098C20.1389 4.54098 16.5889 3.00098 11.9989 3.00098ZM11.9989 16.001C11.4489 16.001 10.9989 15.551 10.9989 15.001V11.001C10.9989 10.451 11.4489 10.001 11.9989 10.001C12.5489 10.001 12.9989 10.451 12.9989 11.001V15.001C12.9989 15.551 12.5489 16.001 11.9989 16.001ZM10.9989 8.00098V6.00098H12.9989V8.00098H10.9989Z" fill="black"/>
</g>
<defs>
<clipPath id="clip0_61_15503">
<rect width="24" height="24" fill="white" transform="translate(0 0.000976562)"/>
</clipPath>
</defs>
</svg>
