<svg   viewBox="0 0 24 24" fill="none" xmlns="http://www.w3.org/2000/svg">
<g clip-path="url(#clip0_61_15504)">
<path d="M4.5 12.001C5.88071 12.001 7 10.8817 7 9.50098C7 8.12026 5.88071 7.00098 4.5 7.00098C3.11929 7.00098 2 8.12026 2 9.50098C2 10.8817 3.11929 12.001 4.5 12.001Z" fill="black"/>
<path d="M9 8.00098C10.3807 8.00098 11.5 6.88169 11.5 5.50098C11.5 4.12026 10.3807 3.00098 9 3.00098C7.61929 3.00098 6.5 4.12026 6.5 5.50098C6.5 6.88169 7.61929 8.00098 9 8.00098Z" fill="black"/>
<path d="M15 8.00098C16.3807 8.00098 17.5 6.88169 17.5 5.50098C17.5 4.12026 16.3807 3.00098 15 3.00098C13.6193 3.00098 12.5 4.12026 12.5 5.50098C12.5 6.88169 13.6193 8.00098 15 8.00098Z" fill="black"/>
<path d="M19.5 12.001C20.8807 12.001 22 10.8817 22 9.50098C22 8.12026 20.8807 7.00098 19.5 7.00098C18.1193 7.00098 17 8.12026 17 9.50098C17 10.8817 18.1193 12.001 19.5 12.001Z" fill="black"/>
<path d="M17.3387 14.861C16.4687 13.841 15.7387 12.971 14.8587 11.951C14.3987 11.411 13.8087 10.871 13.1087 10.631C12.9987 10.591 12.8887 10.561 12.7787 10.541C12.5287 10.501 12.2587 10.501 11.9987 10.501C11.7387 10.501 11.4687 10.501 11.2087 10.551C11.0987 10.571 10.9887 10.601 10.8787 10.641C10.1787 10.881 9.59868 11.421 9.12868 11.961C8.25868 12.981 7.52868 13.851 6.64868 14.871C5.33868 16.181 3.72868 17.631 4.02868 19.661C4.31868 20.681 5.04868 21.691 6.35868 21.981C7.08868 22.131 9.41868 21.541 11.8987 21.541H12.0787C14.5587 21.541 16.8887 22.121 17.6187 21.981C18.9287 21.691 19.6587 20.671 19.9487 19.661C20.2587 17.621 18.6487 16.171 17.3387 14.861V14.861Z" fill="black"/>
</g>
<defs>
<clipPath id="clip0_61_15504">
<rect width="24" height="24" fill="white" transform="translate(0 0.000976562)"/>
</clipPath>
</defs>
</svg>
