<svg viewBox="0 0 24 24" xmlns="http://www.w3.org/2000/svg">
<g clip-path="url(#clip0_61_15505)">
<path d="M18 7.00098H12C11.45 7.00098 11 7.45098 11 8.00098V12.001C11 12.551 11.45 13.001 12 13.001H18C18.55 13.001 19 12.551 19 12.001V8.00098C19 7.45098 18.55 7.00098 18 7.00098ZM21 3.00098H3C1.9 3.00098 1 3.90098 1 5.00098V19.001C1 20.101 1.9 20.981 3 20.981H21C22.1 20.981 23 20.101 23 19.001V5.00098C23 3.90098 22.1 3.00098 21 3.00098ZM20 19.011H4C3.45 19.011 3 18.561 3 18.011V5.98098C3 5.43098 3.45 4.98098 4 4.98098H20C20.55 4.98098 21 5.43098 21 5.98098V18.011C21 18.561 20.55 19.011 20 19.011V19.011Z"/>
</g>
<defs>
<clipPath id="clip0_61_15505">
<rect transform="translate(0 0.000976562)"/>
</clipPath>
</defs>
</svg>
