<svg viewBox="0 0 24 24" xmlns="http://www.w3.org/2000/svg">
<g clip-path="url(#clip0_61_15506)">
<path d="M18 11.001H12C11.45 11.001 11 11.451 11 12.001V16.001C11 16.551 11.45 17.001 12 17.001H18C18.55 17.001 19 16.551 19 16.001V12.001C19 11.451 18.55 11.001 18 11.001ZM23 19.001V4.98098C23 3.88098 22.1 3.00098 21 3.00098H3C1.9 3.00098 1 3.88098 1 4.98098V19.001C1 20.101 1.9 21.001 3 21.001H21C22.1 21.001 23 20.101 23 19.001ZM20 19.021H4C3.45 19.021 3 18.571 3 18.021V5.97098C3 5.42098 3.45 4.97098 4 4.97098H20C20.55 4.97098 21 5.42098 21 5.97098V18.021C21 18.571 20.55 19.021 20 19.021Z"/>
</g>
<defs>
<clipPath id="clip0_61_15506">
<rect transform="translate(0 0.000976562)"/>
</clipPath>
</defs>
</svg>
