<svg viewBox="0 0 24 24" xmlns="http://www.w3.org/2000/svg">
<g clip-path="url(#clip0_61_15507)">
<path d="M19.41 7.41098L14.58 2.58098C14.21 2.21098 13.7 2.00098 13.17 2.00098H6C4.9 2.00098 4 2.90098 4 4.00098V20.001C4 21.101 4.9 22.001 6 22.001H18C19.1 22.001 20 21.101 20 20.001V8.83098C20 8.30098 19.79 7.79098 19.41 7.41098ZM15.74 18.741C15.35 19.131 14.72 19.131 14.33 18.741L13.15 17.561C11.82 18.271 10.14 18.091 9.02 16.971C7.5 15.451 7.67 12.891 9.52 11.601C10.68 10.791 12.3 10.791 13.47 11.601C15.02 12.681 15.37 14.641 14.56 16.151L15.74 17.331C16.13 17.721 16.13 18.351 15.74 18.741ZM14 9.00098C13.45 9.00098 13 8.55098 13 8.00098V3.50098L18.5 9.00098H14Z"/>
<path d="M11.5 16.001C12.3284 16.001 13 15.3294 13 14.501C13 13.6725 12.3284 13.001 11.5 13.001C10.6716 13.001 10 13.6725 10 14.501C10 15.3294 10.6716 16.001 11.5 16.001Z"/>
</g>
<defs>
<clipPath id="clip0_61_15507">
<rect transform="translate(0 0.000976562)"/>
</clipPath>
</defs>
</svg>
