<svg   viewBox="0 0 24 24" fill="none" xmlns="http://www.w3.org/2000/svg">
<g clip-path="url(#clip0_61_15508)">
<path d="M11.0017 6.00098V10.591H8.71166C8.26166 10.591 8.04166 11.131 8.36166 11.441L11.6517 14.731C11.8517 14.931 12.1617 14.931 12.3617 14.731L15.6517 11.441C15.9617 11.131 15.7417 10.591 15.3017 10.591H13.0017V6.00098C13.0017 5.45098 12.5517 5.00098 12.0017 5.00098C11.4517 5.00098 11.0017 5.45098 11.0017 6.00098ZM7.10166 14.001C6.49166 14.001 5.99166 14.551 6.11166 15.151C6.65166 17.911 9.08166 20.001 12.0017 20.001C14.9217 20.001 17.3517 17.911 17.8917 15.151C18.0117 14.551 17.5117 14.001 16.9017 14.001C16.4117 14.001 16.0217 14.351 15.9217 14.831C15.5317 16.641 13.9317 18.001 12.0017 18.001C10.0717 18.001 8.47166 16.641 8.09166 14.831C7.99166 14.351 7.59166 14.001 7.10166 14.001Z" fill="black"/>
</g>
<defs>
<clipPath id="clip0_61_15508">
<rect width="24" height="24" fill="white" transform="translate(0 0.000976562)"/>
</clipPath>
</defs>
</svg>
