<svg   viewBox="0 0 24 24" fill="none" xmlns="http://www.w3.org/2000/svg">
<g clip-path="url(#clip0_61_15510)">
<path d="M11.9997 3.00098C11.4497 3.00098 10.9997 3.45098 10.9997 4.00098V12.001C10.9997 12.551 11.4497 13.001 11.9997 13.001C12.5497 13.001 12.9997 12.551 12.9997 12.001V4.00098C12.9997 3.45098 12.5497 3.00098 11.9997 3.00098ZM17.1397 5.86098C16.7497 6.25098 16.7597 6.86098 17.1297 7.25098C18.2597 8.45098 18.9597 10.051 18.9997 11.821C19.0897 15.651 15.9197 18.951 12.0897 18.991C8.17969 19.051 4.99969 15.901 4.99969 12.001C4.99969 10.161 5.70969 8.49098 6.86969 7.24098C7.23969 6.85098 7.23969 6.24098 6.85969 5.86098C6.45969 5.46098 5.80969 5.47098 5.42969 5.88098C3.97969 7.42098 3.06969 9.47098 2.99969 11.741C2.85969 16.621 6.82969 20.841 11.7097 20.991C16.8097 21.151 20.9997 17.061 20.9997 11.991C20.9997 9.62098 20.0797 7.48098 18.5797 5.88098C18.1997 5.47098 17.5397 5.46098 17.1397 5.86098V5.86098Z" fill="black"/>
</g>
<defs>
<clipPath id="clip0_61_15510">
<rect width="24" height="24" fill="white" transform="translate(0 0.000976562)"/>
</clipPath>
</defs>
</svg>
