<svg   viewBox="0 0 24 24" fill="none" xmlns="http://www.w3.org/2000/svg">
<g clip-path="url(#clip0_61_15511)">
<path d="M9 4.00098C9 2.89098 9.89 2.00098 11 2.00098C12.11 2.00098 13 2.89098 13 4.00098C13 5.11098 12.11 6.00098 11 6.00098C9.89 6.00098 9 5.11098 9 4.00098ZM16 13.001C15.99 11.661 15.17 10.491 14 10.001C14 8.29098 12.58 6.92098 10.84 7.00098C9.22 7.09098 8 8.54098 8 10.161V16.001C8 16.551 8.45 17.001 9 17.001H10V20.501C10 21.331 10.67 22.001 11.5 22.001C12.33 22.001 13 21.331 13 20.501V17.001H15C15.55 17.001 16 16.551 16 16.001V13.001Z" fill="black"/>
</g>
<defs>
<clipPath id="clip0_61_15511">
<rect width="24" height="24" fill="white" transform="translate(0 0.000976562)"/>
</clipPath>
</defs>
</svg>
