<svg viewBox="0 0 24 24" xmlns="http://www.w3.org/2000/svg">
<g clip-path="url(#clip0_61_15512)">
<path d="M19 3.00098H5C3.89 3.00098 3 3.90098 3 5.00098V19.001C3 20.101 3.89 21.001 5 21.001H19C20.1 21.001 21 20.101 21 19.001V5.00098C21 3.90098 20.11 3.00098 19 3.00098ZM19 19.001H5V7.00098H19V19.001ZM13.5 13.001C13.5 13.831 12.83 14.501 12 14.501C11.17 14.501 10.5 13.831 10.5 13.001C10.5 12.171 11.17 11.501 12 11.501C12.83 11.501 13.5 12.171 13.5 13.001ZM12 9.00098C9.27 9.00098 6.94 10.661 6 13.001C6.94 15.341 9.27 17.001 12 17.001C14.73 17.001 17.06 15.341 18 13.001C17.06 10.661 14.73 9.00098 12 9.00098ZM12 15.501C10.62 15.501 9.5 14.381 9.5 13.001C9.5 11.621 10.62 10.501 12 10.501C13.38 10.501 14.5 11.621 14.5 13.001C14.5 14.381 13.38 15.501 12 15.501Z"/>
</g>
<defs>
<clipPath id="clip0_61_15512">
<rect transform="translate(0 0.000976562)"/>
</clipPath>
</defs>
</svg>
