<svg viewBox="0 0 24 24" xmlns="http://www.w3.org/2000/svg">
<g clip-path="url(#clip0_61_15513)">
<path d="M19 8.00098H5C3.34 8.00098 2 9.34098 2 11.001V15.001C2 16.101 2.9 17.001 4 17.001H6V19.001C6 20.101 6.9 21.001 8 21.001H16C17.1 21.001 18 20.101 18 19.001V17.001H20C21.1 17.001 22 16.101 22 15.001V11.001C22 9.34098 20.66 8.00098 19 8.00098ZM15 19.001H9C8.45 19.001 8 18.551 8 18.001V14.001H16V18.001C16 18.551 15.55 19.001 15 19.001ZM19 12.001C18.45 12.001 18 11.551 18 11.001C18 10.451 18.45 10.001 19 10.001C19.55 10.001 20 10.451 20 11.001C20 11.551 19.55 12.001 19 12.001ZM17 3.00098H7C6.45 3.00098 6 3.45098 6 4.00098V6.00098C6 6.55098 6.45 7.00098 7 7.00098H17C17.55 7.00098 18 6.55098 18 6.00098V4.00098C18 3.45098 17.55 3.00098 17 3.00098Z"/>
</g>
<defs>
<clipPath id="clip0_61_15513">
<rect transform="translate(0 0.000976562)"/>
</clipPath>
</defs>
</svg>
