<svg viewBox="0 0 24 24" xmlns="http://www.w3.org/2000/svg">
<g clip-path="url(#clip0_61_15514)">
<path d="M4.19 4.47098C3.47 4.79098 3 5.51098 3 6.30098V11.001C3 16.551 6.84 21.741 12 23.001C17.16 21.741 21 16.551 21 11.001V6.30098C21 5.51098 20.53 4.79098 19.81 4.47098L12.81 1.36098C12.29 1.13098 11.7 1.13098 11.19 1.36098L4.19 4.47098ZM12 7.00098C12.55 7.00098 13 7.45098 13 8.00098C13 8.55098 12.55 9.00098 12 9.00098C11.45 9.00098 11 8.55098 11 8.00098C11 7.45098 11.45 7.00098 12 7.00098ZM12 11.001C12.55 11.001 13 11.451 13 12.001V16.001C13 16.551 12.55 17.001 12 17.001C11.45 17.001 11 16.551 11 16.001V12.001C11 11.451 11.45 11.001 12 11.001Z"/>
</g>
<defs>
<clipPath id="clip0_61_15514">
<rect transform="translate(0 0.000976562)"/>
</clipPath>
</defs>
</svg>
