<svg viewBox="0 0 24 24" xmlns="http://www.w3.org/2000/svg">
<g clip-path="url(#clip0_61_15515)">
<path d="M16.95 10.2314L11.29 15.8914C10.9 16.2814 10.27 16.2814 9.88 15.8914L7.05 13.0614C6.66 12.6714 6.66 12.0414 7.05 11.6514C7.44 11.2614 8.07 11.2614 8.46 11.6514L10.58 13.7714L15.53 8.82135C15.92 8.43135 16.55 8.43135 16.94 8.82135C17.34 9.21135 17.34 9.84135 16.95 10.2314ZM4 12.0014C4 9.67135 5.02 7.58135 6.62 6.12135L8.15 7.65135C8.46 7.96135 9 7.74135 9 7.29135V3.00135C9 2.72135 8.78 2.50135 8.5 2.50135H4.21C3.76 2.50135 3.54 3.04135 3.86 3.35135L5.2 4.70135C3.24 6.52135 2 9.11135 2 12.0014C2 16.7514 5.32 20.7314 9.76 21.7514C10.39 21.8914 11 21.4214 11 20.7714C11 20.3014 10.67 19.9014 10.21 19.7914C6.66 18.9814 4 15.8014 4 12.0014ZM22 12.0014C22 7.25135 18.68 3.27135 14.24 2.25135C13.61 2.11135 13 2.58135 13 3.23135C13 3.70135 13.33 4.10135 13.79 4.21135C17.34 5.02135 20 8.20135 20 12.0014C20 14.3314 18.98 16.4214 17.38 17.8814L15.85 16.3514C15.54 16.0414 15 16.2614 15 16.7114V21.0014C15 21.2814 15.22 21.5014 15.5 21.5014H19.79C20.24 21.5014 20.46 20.9614 20.14 20.6514L18.8 19.3014C20.76 17.4814 22 14.8914 22 12.0014Z"/>
</g>
<defs>
<clipPath id="clip0_61_15515">
<rect transform="translate(0 0.000976562)"/>
</clipPath>
</defs>
</svg>
