<svg   viewBox="0 0 24 24" fill="none" xmlns="http://www.w3.org/2000/svg">
<g clip-path="url(#clip0_61_15518)">
<path d="M22 4.00098C22 2.90098 21.1 2.00098 20 2.00098H4C2.9 2.00098 2.01 2.90098 2.01 4.00098L2 22.001L6 18.001H15V11.001C15 10.451 15.45 10.001 16 10.001H22V4.00098Z" fill="black"/>
<path d="M21.69 16.001H20.3L21.7 12.701C21.84 12.371 21.6 12.001 21.24 12.001H17.5C17.22 12.001 17 12.221 17 12.501V17.501C17 17.781 17.22 18.001 17.5 18.001H19V21.941C19 22.201 19.36 22.291 19.47 22.051L22.13 16.721C22.3 16.391 22.06 16.001 21.69 16.001Z" fill="black"/>
</g>
<defs>
<clipPath id="clip0_61_15518">
<rect width="24" height="24" fill="white" transform="translate(0 0.000976562)"/>
</clipPath>
</defs>
</svg>
