<svg   viewBox="0 0 24 24" fill="none" xmlns="http://www.w3.org/2000/svg">
<g clip-path="url(#clip0_61_15519)">
<path d="M21 2.21117C20.87 2.21117 20.74 2.26117 20.65 2.36117L19.86 3.15117C19.66 3.35117 19.35 3.35117 19.15 3.15117L18.36 2.36117C18.16 2.16117 17.85 2.16117 17.65 2.36117L16.86 3.15117C16.66 3.35117 16.35 3.35117 16.15 3.15117L15.36 2.36117C15.16 2.16117 14.85 2.16117 14.65 2.36117L13.86 3.15117C13.66 3.35117 13.35 3.35117 13.15 3.15117L12.36 2.36117C12.16 2.16117 11.85 2.16117 11.65 2.36117L10.86 3.15117C10.66 3.35117 10.35 3.35117 10.15 3.15117L9.35 2.35117C9.15 2.15117 8.84 2.15117 8.64 2.35117L7.85 3.15117C7.65 3.35117 7.34 3.35117 7.14 3.15117L6.35 2.35117C6.15 2.15117 5.84 2.15117 5.64 2.35117L4.85 3.15117C4.65 3.35117 4.34 3.35117 4.14 3.15117L3.35 2.35117C3.26 2.26117 3.13 2.21117 3 2.21117V21.8012C3.13 21.8012 3.26 21.7512 3.35 21.6512L4.14 20.8612C4.34 20.6612 4.65 20.6612 4.85 20.8612L5.64 21.6512C5.84 21.8512 6.15 21.8512 6.35 21.6512L7.14 20.8612C7.34 20.6612 7.65 20.6612 7.85 20.8612L8.64 21.6512C8.84 21.8512 9.15 21.8512 9.35 21.6512L10.14 20.8612C10.34 20.6612 10.65 20.6612 10.85 20.8612L11.64 21.6512C11.84 21.8512 12.15 21.8512 12.35 21.6512L13.14 20.8612C13.34 20.6612 13.65 20.6612 13.85 20.8612L14.64 21.6512C14.84 21.8512 15.15 21.8512 15.35 21.6512L16.14 20.8612C16.34 20.6612 16.65 20.6612 16.85 20.8612L17.64 21.6512C17.84 21.8512 18.15 21.8512 18.35 21.6512L19.14 20.8612C19.34 20.6612 19.65 20.6612 19.85 20.8612L20.64 21.6512C20.74 21.7512 20.87 21.8012 20.99 21.8012V2.21117H21ZM17 17.0012H7C6.45 17.0012 6 16.5512 6 16.0012C6 15.4512 6.45 15.0012 7 15.0012H17C17.55 15.0012 18 15.4512 18 16.0012C18 16.5512 17.55 17.0012 17 17.0012ZM17 13.0012H7C6.45 13.0012 6 12.5512 6 12.0012C6 11.4512 6.45 11.0012 7 11.0012H17C17.55 11.0012 18 11.4512 18 12.0012C18 12.5512 17.55 13.0012 17 13.0012ZM17 9.00117H7C6.45 9.00117 6 8.55117 6 8.00117C6 7.45117 6.45 7.00117 7 7.00117H17C17.55 7.00117 18 7.45117 18 8.00117C18 8.55117 17.55 9.00117 17 9.00117Z" fill="black"/>
</g>
<defs>
<clipPath id="clip0_61_15519">
<rect width="24" height="24" fill="white" transform="translate(0 0.000976562)"/>
</clipPath>
</defs>
</svg>
