<svg viewBox="0 0 24 24" xmlns="http://www.w3.org/2000/svg">
<g clip-path="url(#clip0_61_15520)">
<path d="M9 13.001C11.2091 13.001 13 11.2101 13 9.00098C13 6.79184 11.2091 5.00098 9 5.00098C6.79086 5.00098 5 6.79184 5 9.00098C5 11.2101 6.79086 13.001 9 13.001Z"/>
<path d="M9 15.0006C6.33 15.0006 1 16.3406 1 19.0006V20.0006C1 20.5506 1.45 21.0006 2 21.0006H16C16.55 21.0006 17 20.5506 17 20.0006V19.0006C17 16.3406 11.67 15.0006 9 15.0006ZM15.47 7.77059C15.79 8.56059 15.79 9.44059 15.47 10.2306C15.28 10.7006 15.36 11.2306 15.72 11.5906L15.75 11.6206C16.33 12.2006 17.32 12.0806 17.7 11.3506C18.46 9.90059 18.46 8.20059 17.68 6.69059C17.3 5.95059 16.3 5.81059 15.71 6.40059L15.7 6.41059C15.36 6.76059 15.28 7.30059 15.47 7.77059ZM19.18 2.89059C18.78 3.29059 18.72 3.91059 19.05 4.37059C21.02 7.11059 21.01 10.7806 19.02 13.6206C18.7 14.0706 18.77 14.6906 19.16 15.0806L19.19 15.1106C19.68 15.6006 20.51 15.5606 20.93 15.0106C23.68 11.4706 23.69 6.64059 20.93 2.99059C20.51 2.44059 19.67 2.40059 19.18 2.89059V2.89059Z"/>
</g>
<defs>
<clipPath id="clip0_61_15520">
<rect transform="translate(0 0.000976562)"/>
</clipPath>
</defs>
</svg>
