<svg   viewBox="0 0 24 24" fill="none" xmlns="http://www.w3.org/2000/svg">
<g clip-path="url(#clip0_61_15522)">
<path d="M0.710469 1.83059C0.320469 2.22059 0.320469 2.85059 0.710469 3.24059L4.39047 6.92059L6.60047 11.5806L5.25047 14.0306C5.06047 14.3606 4.97047 14.7606 5.01047 15.1806C5.11047 16.2406 6.07047 17.0006 7.13047 17.0006H14.4605L15.8405 18.3806C15.3405 18.7406 15.0105 19.3306 15.0105 20.0006C15.0105 21.1006 15.9005 22.0006 17.0005 22.0006C17.6705 22.0006 18.2605 21.6706 18.6205 21.1606L20.7505 23.2906C21.1405 23.6806 21.7705 23.6806 22.1605 23.2906C22.5505 22.9006 22.5505 22.2706 22.1605 21.8806L2.12047 1.83059C1.73047 1.44059 1.10047 1.44059 0.710469 1.83059V1.83059ZM7.00047 15.0006L8.10047 13.0006H10.4605L12.4605 15.0006H7.00047ZM16.0505 12.9406C16.5905 12.8006 17.0405 12.4506 17.3005 11.9706L20.8805 5.48059C21.2505 4.82059 20.7605 4.00059 20.0005 4.00059H7.12047L16.0505 12.9406ZM7.00047 18.0006C5.90047 18.0006 5.01047 18.9006 5.01047 20.0006C5.01047 21.1006 5.90047 22.0006 7.00047 22.0006C8.10047 22.0006 9.00047 21.1006 9.00047 20.0006C9.00047 18.9006 8.10047 18.0006 7.00047 18.0006Z" fill="black"/>
</g>
<defs>
<clipPath id="clip0_61_15522">
<rect width="24" height="24" fill="white" transform="translate(0 0.000976562)"/>
</clipPath>
</defs>
</svg>
