<svg   viewBox="0 0 24 24" fill="none" xmlns="http://www.w3.org/2000/svg">
<g clip-path="url(#clip0_61_15524)">
<path d="M2.72943 21.0005H21.2594C22.0294 21.0005 22.5094 20.1705 22.1294 19.5005L12.8594 3.50055C12.4694 2.83055 11.5094 2.83055 11.1294 3.50055L1.85943 19.5005C1.47943 20.1705 1.95943 21.0005 2.72943 21.0005V21.0005ZM12.9994 18.0005H10.9994V16.0005H12.9994V18.0005ZM11.9994 14.0005C11.4494 14.0005 10.9994 13.5505 10.9994 13.0005V11.0005C10.9994 10.4505 11.4494 10.0005 11.9994 10.0005C12.5494 10.0005 12.9994 10.4505 12.9994 11.0005V13.0005C12.9994 13.5505 12.5494 14.0005 11.9994 14.0005Z" fill="black"/>
</g>
<defs>
<clipPath id="clip0_61_15524">
<rect width="24" height="24" fill="white" transform="translate(0 0.000976562)"/>
</clipPath>
</defs>
</svg>
