<svg   viewBox="0 0 24 24" fill="none" xmlns="http://www.w3.org/2000/svg">
<g clip-path="url(#clip0_61_15525)">
<path d="M19.41 7.41098L14.58 2.58098C14.21 2.21098 13.7 2.00098 13.17 2.00098H6C4.9 2.00098 4 2.90098 4 4.00098V20.001C4 21.101 4.9 22.001 6 22.001H18C19.1 22.001 20 21.101 20 20.001V8.83098C20 8.30098 19.79 7.79098 19.41 7.41098ZM14 12.001C14.55 12.001 15 12.451 15 13.001V16.001C15 16.551 14.55 17.001 14 17.001H13C13 17.551 12.55 18.001 12 18.001C11.45 18.001 11 17.551 11 17.001H10C9.45 17.001 9 16.551 9 16.001C9 15.451 9.45 15.001 10 15.001H13V14.001H10C9.45 14.001 9 13.551 9 13.001V10.001C9 9.45098 9.45 9.00098 10 9.00098H11C11 8.45098 11.45 8.00098 12 8.00098C12.55 8.00098 13 8.45098 13 9.00098H14C14.55 9.00098 15 9.45098 15 10.001C15 10.551 14.55 11.001 14 11.001H11V12.001H14Z" fill="black"/>
</g>
<defs>
<clipPath id="clip0_61_15525">
<rect width="24" height="24" fill="white" transform="translate(0 0.000976562)"/>
</clipPath>
</defs>
</svg>
