<svg   viewBox="0 0 24 24" fill="none" xmlns="http://www.w3.org/2000/svg">
<g clip-path="url(#clip0_61_15528)">
<path d="M19.41 7.41098L14.58 2.58098C14.21 2.21098 13.7 2.00098 13.17 2.00098H6C4.9 2.00098 4.01 2.90098 4.01 4.00098L4 20.001C4 21.101 4.89 22.001 5.99 22.001H18C19.1 22.001 20 21.101 20 20.001V8.83098C20 8.30098 19.79 7.79098 19.41 7.41098ZM12 18.001C10.35 18.001 8.81 17.191 7.88 15.831C7.65 15.491 7.73 15.021 8.07 14.791C8.41 14.551 8.88 14.641 9.11 14.981C9.76 15.931 10.84 16.501 11.99 16.501C13.92 16.501 15.49 14.931 15.49 13.001C15.49 11.071 13.93 9.50098 12 9.50098C10.67 9.50098 9.48 10.241 8.89 11.391L10.5 13.001H7C6.72 13.001 6.5 12.781 6.5 12.501V9.00098L7.8 10.301C8.71 8.89098 10.26 8.00098 12 8.00098C14.76 8.00098 17 10.241 17 13.001C17 15.761 14.76 18.001 12 18.001Z" fill="black"/>
</g>
<defs>
<clipPath id="clip0_61_15528">
<rect width="24" height="24" fill="white" transform="translate(0 0.000976562)"/>
</clipPath>
</defs>
</svg>
