<svg viewBox="0 0 24 24" xmlns="http://www.w3.org/2000/svg">
<g clip-path="url(#clip0_61_15526)">
<path d="M13.2508 3.00057C8.16075 2.86057 3.99075 6.94057 3.99075 12.0006H2.20075C1.75075 12.0006 1.53075 12.5406 1.85075 12.8506L4.64075 15.6506C4.84075 15.8506 5.15075 15.8506 5.35075 15.6506L8.14075 12.8506C8.46075 12.5406 8.23075 12.0006 7.79075 12.0006H5.99075C5.99075 8.10057 9.17075 4.95057 13.0908 5.00057C16.8108 5.05057 19.9408 8.18057 19.9908 11.9006C20.0408 15.8106 16.8908 19.0006 12.9908 19.0006C11.3808 19.0006 9.89075 18.4506 8.71075 17.5206C8.31075 17.2106 7.75075 17.2406 7.39075 17.6006C6.97075 18.0306 7.00075 18.7306 7.47075 19.1006C8.99075 20.2906 10.9108 21.0006 12.9908 21.0006C18.0408 21.0006 22.1308 16.8306 21.9908 11.7406C21.8608 7.05057 17.9408 3.13057 13.2508 3.00057V3.00057ZM12.7408 8.00057C12.3308 8.00057 11.9908 8.34057 11.9908 8.75057V12.4306C11.9908 12.7806 12.1808 13.1106 12.4808 13.2906L15.6008 15.1406C15.9608 15.3506 16.4208 15.2306 16.6308 14.8806C16.8408 14.5206 16.7208 14.0606 16.3708 13.8506L13.4908 12.1406V8.74057C13.4908 8.34057 13.1608 8.00057 12.7408 8.00057V8.00057Z"/>
</g>
<defs>
<clipPath id="clip0_61_15526">
<rect transform="translate(0 0.000976562)"/>
</clipPath>
</defs>
</svg>
