<svg   viewBox="0 0 24 24" fill="none" xmlns="http://www.w3.org/2000/svg">
<g clip-path="url(#clip0_61_15529)">
<path d="M12 2.00098C8.13 2.00098 5 5.13098 5 9.00098C5 13.171 9.42 18.921 11.24 21.111C11.64 21.591 12.37 21.591 12.77 21.111C14.58 18.921 19 13.171 19 9.00098C19 5.13098 15.87 2.00098 12 2.00098ZM12 11.501C10.62 11.501 9.5 10.381 9.5 9.00098C9.5 7.62098 10.62 6.50098 12 6.50098C13.38 6.50098 14.5 7.62098 14.5 9.00098C14.5 10.381 13.38 11.501 12 11.501Z" fill="black"/>
</g>
<defs>
<clipPath id="clip0_61_15529">
<rect width="24" height="24" fill="white" transform="translate(0 0.000976562)"/>
</clipPath>
</defs>
</svg>
