<svg viewBox="0 0 24 24" xmlns="http://www.w3.org/2000/svg">
<g clip-path="url(#clip0_61_15530)">
<path d="M19 19.001H21V21.001H19V19.001ZM19 17.001H21V15.001H19V17.001ZM3 13.001H5V11.001H3V13.001ZM3 17.001H5V15.001H3V17.001ZM3 9.00098H5V7.00098H3V9.00098ZM3 5.00098H5V3.00098H3V5.00098ZM7 5.00098H9V3.00098H7V5.00098ZM15 21.001H17V19.001H15V21.001ZM11 21.001H13V19.001H11V21.001ZM15 21.001H17V19.001H15V21.001ZM7 21.001H9V19.001H7V21.001ZM3 21.001H5V19.001H3V21.001ZM21 8.00098C21 5.24098 18.76 3.00098 16 3.00098H11V5.00098H16C17.65 5.00098 19 6.35098 19 8.00098V13.001H21V8.00098Z"/>
</g>
<defs>
<clipPath id="clip0_61_15530">
<rect transform="translate(0 0.000976562)"/>
</clipPath>
</defs>
</svg>
