<svg   viewBox="0 0 24 24" fill="none" xmlns="http://www.w3.org/2000/svg">
<g clip-path="url(#clip0_61_15531)">
<path d="M4.74891 18.251C4.33891 18.661 4.33891 19.341 4.74891 19.751C5.15891 20.161 5.83891 20.161 6.24891 19.751L8.99891 17.001H10.9989L8.49891 14.501L4.74891 18.251ZM14.9989 5.00098C16.0989 5.00098 16.9989 4.10098 16.9989 3.00098C16.9989 1.90098 16.0989 1.00098 14.9989 1.00098C13.8989 1.00098 12.9989 1.90098 12.9989 3.00098C12.9989 4.10098 13.8989 5.00098 14.9989 5.00098ZM20.2889 20.301L18.2889 18.291C18.1089 18.111 17.8489 18.001 17.5789 18.001H16.4989L10.2089 11.711C10.9989 11.381 11.8689 10.841 12.4989 10.321V12.591L16.0789 16.171C16.6489 15.621 16.9989 14.851 16.9989 14.011V8.26098C16.9989 7.02098 15.9789 6.00098 14.7389 6.00098H14.7189C14.3789 6.00098 14.0489 6.09098 13.7589 6.23098C13.4989 6.35098 13.2589 6.52098 13.0689 6.73098L11.6689 8.28098C10.6089 9.45098 8.65891 10.351 6.99891 10.321C6.39891 10.321 5.91891 10.801 5.91891 11.401C5.91891 12.001 6.39891 12.481 6.99891 12.481C7.30891 12.481 7.60891 12.451 7.89891 12.411L15.0089 19.501V20.581C15.0089 20.841 15.1089 21.101 15.2989 21.281L17.2889 23.291C17.6789 23.681 18.3089 23.681 18.7089 23.291L20.2889 21.711C20.6789 21.331 20.6789 20.691 20.2889 20.301Z" fill="black"/>
</g>
<defs>
<clipPath id="clip0_61_15531">
<rect width="24" height="24" fill="white" transform="translate(0 0.000976562)"/>
</clipPath>
</defs>
</svg>
