<svg viewBox="0 0 24 24" xmlns="http://www.w3.org/2000/svg">
<g clip-path="url(#clip0_61_15532)">
<path d="M15.83 10.2914L13.71 8.17137C13.32 7.78137 13.32 7.15137 13.71 6.76137C14.1 6.37137 14.73 6.37137 15.12 6.76137L16.53 8.17137L20.07 4.63137C20.46 4.24137 21.09 4.24137 21.48 4.63137C21.87 5.02137 21.87 5.65137 21.48 6.04137L17.24 10.2814C16.85 10.6814 16.22 10.6814 15.83 10.2914ZM10 7.00137H3C2.45 7.00137 2 7.45137 2 8.00137C2 8.55137 2.45 9.00137 3 9.00137H10C10.55 9.00137 11 8.55137 11 8.00137C11 7.45137 10.55 7.00137 10 7.00137ZM20.29 12.7114C19.9 12.3214 19.27 12.3214 18.88 12.7114L17 14.5914L15.12 12.7114C14.73 12.3214 14.1 12.3214 13.71 12.7114C13.32 13.1014 13.32 13.7314 13.71 14.1214L15.59 16.0014L13.71 17.8814C13.32 18.2714 13.32 18.9014 13.71 19.2914C14.1 19.6814 14.73 19.6814 15.12 19.2914L17 17.4114L18.88 19.2914C19.27 19.6814 19.9 19.6814 20.29 19.2914C20.68 18.9014 20.68 18.2714 20.29 17.8814L18.41 16.0014L20.29 14.1214C20.68 13.7314 20.68 13.1014 20.29 12.7114ZM10 15.0014H3C2.45 15.0014 2 15.4514 2 16.0014C2 16.5514 2.45 17.0014 3 17.0014H10C10.55 17.0014 11 16.5514 11 16.0014C11 15.4514 10.55 15.0014 10 15.0014Z"/>
</g>
<defs>
<clipPath id="clip0_61_15532">
<rect transform="translate(0 0.000976562)"/>
</clipPath>
</defs>
</svg>
