<svg viewBox="0 0 24 24" xmlns="http://www.w3.org/2000/svg">
<g clip-path="url(#clip0_61_15533)">
<path d="M11.99 2.00098C6.47 2.00098 2 6.48098 2 12.001C2 17.521 6.47 22.001 11.99 22.001C17.52 22.001 22 17.521 22 12.001C22 6.48098 17.52 2.00098 11.99 2.00098ZM12 20.001C7.58 20.001 4 16.421 4 12.001C4 7.58098 7.58 4.00098 12 4.00098C16.42 4.00098 20 7.58098 20 12.001C20 16.421 16.42 20.001 12 20.001ZM11.78 7.00098H11.72C11.32 7.00098 11 7.32098 11 7.72098V12.441C11 12.791 11.18 13.121 11.49 13.301L15.64 15.791C15.98 15.991 16.42 15.891 16.62 15.551C16.83 15.211 16.72 14.761 16.37 14.561L12.5 12.261V7.72098C12.5 7.32098 12.18 7.00098 11.78 7.00098V7.00098Z"/>
</g>
<defs>
<clipPath id="clip0_61_15533">
<rect transform="translate(0 0.000976562)"/>
</clipPath>
</defs>
</svg>
