<svg viewBox="0 0 24 24" xmlns="http://www.w3.org/2000/svg">
<g clip-path="url(#clip0_61_15535)">
<path d="M15.5013 14.0006H14.7113L14.4313 13.7306C15.6313 12.3306 16.2513 10.4206 15.9113 8.39064C15.4413 5.61064 13.1213 3.40064 10.3313 3.05064C6.54125 2.58064 3.30125 5.38064 3.03125 9.00064H5.05125C5.29125 6.88064 6.97125 5.20064 9.11125 5.02064C11.6512 4.80064 14.0013 6.95064 14.0013 9.50064C14.0013 11.9906 11.9913 14.0006 9.50125 14.0006C9.33125 14.0006 9.17125 13.9706 9.00125 13.9506V15.9706C9.00125 15.9706 9.00125 15.9706 9.01125 15.9806C10.8113 16.1106 12.4812 15.5106 13.7312 14.4306L14.0013 14.7106V15.5006L18.2513 19.7506C18.6613 20.1606 19.3312 20.1606 19.7412 19.7506C20.1512 19.3406 20.1512 18.6706 19.7412 18.2606L15.5013 14.0006Z"/>
<path d="M6.11953 11.1705L3.99953 13.2905L1.87953 11.1705C1.67953 10.9705 1.36953 10.9705 1.16953 11.1705C0.969531 11.3705 0.969531 11.6805 1.16953 11.8805L3.28953 14.0005L1.16953 16.1205C0.969531 16.3205 0.969531 16.6305 1.16953 16.8305C1.36953 17.0305 1.67953 17.0305 1.87953 16.8305L3.99953 14.7105L6.11953 16.8305C6.31953 17.0305 6.62953 17.0305 6.82953 16.8305C7.02953 16.6305 7.02953 16.3205 6.82953 16.1205L4.70953 14.0005L6.82953 11.8805C7.02953 11.6805 7.02953 11.3705 6.82953 11.1705C6.62953 10.9805 6.31953 10.9805 6.11953 11.1705Z"/>
</g>
<defs>
<clipPath id="clip0_61_15535">
<rect transform="translate(0 0.000976562)"/>
</clipPath>
</defs>
</svg>
