<svg viewBox="0 0 24 24" xmlns="http://www.w3.org/2000/svg">
<g clip-path="url(#clip0_61_15551)">
<path d="M15.0012 9.00098H9.00122C8.45122 9.00098 8.00122 9.45098 8.00122 10.001V22.001C8.00122 22.551 8.45122 23.001 9.00122 23.001H15.0012C15.5512 23.001 16.0012 22.551 16.0012 22.001V10.001C16.0012 9.45098 15.5512 9.00098 15.0012 9.00098ZM12.0012 15.001C10.9012 15.001 10.0012 14.101 10.0012 13.001C10.0012 11.901 10.9012 11.001 12.0012 11.001C13.1012 11.001 14.0012 11.901 14.0012 13.001C14.0012 14.101 13.1012 15.001 12.0012 15.001ZM7.82122 6.82098C8.17122 7.17098 8.72122 7.20098 9.12122 6.92098C9.93122 6.34098 10.9312 6.00098 12.0012 6.00098C13.0712 6.00098 14.0712 6.34098 14.8812 6.91098C15.2812 7.19098 15.8312 7.17098 16.1812 6.82098C16.6112 6.39098 16.5712 5.68098 16.0912 5.32098C14.9412 4.49098 13.5312 4.00098 12.0012 4.00098C10.4712 4.00098 9.06122 4.49098 7.91122 5.32098C7.42122 5.67098 7.39122 6.39098 7.82122 6.82098ZM12.0012 0.000976562C9.36122 0.000976562 6.94122 0.930977 5.05122 2.47098C4.59122 2.85098 4.55122 3.54098 4.97122 3.96098C5.33122 4.32098 5.90122 4.35098 6.29122 4.03098C7.84122 2.77098 9.83122 2.00098 12.0012 2.00098C14.1712 2.00098 16.1612 2.77098 17.7012 4.04098C18.0912 4.36098 18.6612 4.33098 19.0212 3.97098C19.4412 3.55098 19.4012 2.86098 18.9412 2.48098C17.0612 0.930977 14.6412 0.000976562 12.0012 0.000976562Z"/>
</g>
<defs>
<clipPath id="clip0_61_15551">
<rect transform="translate(0 0.000976562)"/>
</clipPath>
</defs>
</svg>
