<svg viewBox="0 0 24 24" xmlns="http://www.w3.org/2000/svg">
<g clip-path="url(#clip0_61_15538)">
<path d="M13.9986 12.0006C13.9986 10.9006 13.0986 10.0006 11.9986 10.0006C10.8986 10.0006 9.99857 10.9006 9.99857 12.0006C9.99857 13.1006 10.8986 14.0006 11.9986 14.0006C13.0986 14.0006 13.9986 13.1006 13.9986 12.0006ZM12.2586 3.00056C7.16857 2.86056 2.99857 6.95056 2.99857 12.0006H1.20857C0.758566 12.0006 0.538566 12.5406 0.858566 12.8506L3.64857 15.6406C3.84857 15.8406 4.15857 15.8406 4.35857 15.6406L7.14857 12.8506C7.45857 12.5406 7.23857 12.0006 6.78857 12.0006H4.99857C4.99857 8.10056 8.17857 4.95056 12.0986 5.00056C15.8186 5.05056 18.9486 8.18056 18.9986 11.9006C19.0486 15.8106 15.8986 19.0006 11.9986 19.0006C10.7486 19.0006 9.57857 18.6606 8.55857 18.0906C8.16857 17.8706 7.68857 17.9506 7.37857 18.2706C6.91857 18.7306 7.00857 19.5206 7.57857 19.8406C8.88857 20.5706 10.3886 21.0006 11.9986 21.0006C17.0486 21.0006 21.1386 16.8306 20.9986 11.7406C20.8686 7.05056 16.9486 3.13056 12.2586 3.00056Z"/>
</g>
<defs>
<clipPath id="clip0_61_15538">
<rect transform="translate(0 0.000976562)"/>
</clipPath>
</defs>
</svg>
