<svg   viewBox="0 0 24 24" fill="none" xmlns="http://www.w3.org/2000/svg">
<g clip-path="url(#clip0_61_15539)">
<path d="M11 22.0005H13V24.0005H11V22.0005ZM7 22.0005H9V24.0005H7V22.0005ZM15 22.0005H17V24.0005H15V22.0005ZM13.41 10.0005L17.03 6.38052C17.22 6.19052 17.32 5.94052 17.32 5.67052C17.32 5.40052 17.21 5.15052 17.03 4.96052L12.7 0.650524C12.41 0.360524 11.98 0.280524 11.61 0.430524C11.24 0.580524 11 0.950524 11 1.35052V7.58052L7.14 3.73052C6.75 3.34052 6.12 3.34052 5.73 3.73052C5.34 4.12052 5.34 4.75052 5.73 5.14052L10.58 10.0005L5.73 14.8505C5.34 15.2405 5.34 15.8705 5.73 16.2605C6.12 16.6505 6.75 16.6505 7.14 16.2605L11 12.4105V18.6405C11 19.0405 11.24 19.4105 11.62 19.5605C11.74 19.6105 11.87 19.6405 12 19.6405C12.26 19.6405 12.52 19.5405 12.71 19.3505L17.03 15.0305C17.22 14.8405 17.32 14.5905 17.32 14.3205C17.32 14.0505 17.21 13.8005 17.03 13.6105L13.41 10.0005ZM13 3.77052L14.91 5.68052L13 7.58052V3.77052ZM13 16.2305V12.4105L14.91 14.3205L13 16.2305Z" fill="black"/>
</g>
<defs>
<clipPath id="clip0_61_15539">
<rect width="24" height="24" fill="white" transform="translate(0 0.000976562)"/>
</clipPath>
</defs>
</svg>
