<svg   viewBox="0 0 24 24" fill="none" xmlns="http://www.w3.org/2000/svg">
<g clip-path="url(#clip0_61_15540)">
<path d="M21 3.00098H3C1.9 3.00098 1 3.90098 1 5.00098V19.001C1 20.101 1.9 21.001 3 21.001H21C22.1 21.001 23 20.101 23 19.001V5.00098C23 3.90098 22.1 3.00098 21 3.00098ZM20 19.011H4C3.45 19.011 3 18.561 3 18.011V5.99098C3 5.44098 3.45 4.99098 4 4.99098H20C20.55 4.99098 21 5.44098 21 5.99098V18.011C21 18.561 20.55 19.011 20 19.011V19.011ZM8.5 16.001H10.5L11.65 17.151C11.85 17.351 12.16 17.351 12.36 17.151L13.5 16.001H15.5C15.78 16.001 16 15.781 16 15.501V13.501L17.15 12.351C17.35 12.151 17.35 11.841 17.15 11.641L16 10.501V8.50098C16 8.22098 15.78 8.00098 15.5 8.00098H13.5L12.35 6.85098C12.15 6.65098 11.84 6.65098 11.64 6.85098L10.5 8.00098H8.5C8.22 8.00098 8 8.22098 8 8.50098V10.501L6.85 11.651C6.65 11.851 6.65 12.161 6.85 12.361L8 13.501V15.501C8 15.781 8.22 16.001 8.5 16.001ZM12 9.00098C13.66 9.00098 15 10.341 15 12.001C15 13.661 13.66 15.001 12 15.001V9.00098Z" fill="black"/>
</g>
<defs>
<clipPath id="clip0_61_15540">
<rect width="24" height="24" fill="white" transform="translate(0 0.000976562)"/>
</clipPath>
</defs>
</svg>
