<svg viewBox="0 0 24 24" xmlns="http://www.w3.org/2000/svg">
<g clip-path="url(#clip0_61_15552)">
<path d="M7.00047 24.001H9.00047V22.001H7.00047V24.001ZM12.0005 13.001C13.6605 13.001 14.9905 11.661 14.9905 10.001L15.0005 4.00098C15.0005 2.34098 13.6605 1.00098 12.0005 1.00098C10.3405 1.00098 9.00047 2.34098 9.00047 4.00098V10.001C9.00047 11.661 10.3405 13.001 12.0005 13.001ZM11.0005 24.001H13.0005V22.001H11.0005V24.001ZM15.0005 24.001H17.0005V22.001H15.0005V24.001ZM18.0805 10.001C17.6605 10.001 17.3105 10.301 17.2505 10.711C16.8805 13.321 14.5305 15.101 12.0005 15.101C9.47047 15.101 7.12047 13.331 6.75047 10.711C6.69047 10.301 6.33047 10.001 5.92047 10.001C5.40047 10.001 5.00047 10.461 5.07047 10.971C5.53047 13.931 8.03047 16.271 11.0005 16.721V19.001C11.0005 19.551 11.4505 20.001 12.0005 20.001C12.5505 20.001 13.0005 19.551 13.0005 19.001V16.721C15.9605 16.281 18.4705 13.931 18.9305 10.971C19.0005 10.461 18.6005 10.001 18.0805 10.001V10.001Z"/>
</g>
<defs>
<clipPath id="clip0_61_15552">
<rect transform="translate(0 0.000976562)"/>
</clipPath>
</defs>
</svg>
