<svg viewBox="0 0 24 24" xmlns="http://www.w3.org/2000/svg">
<g clip-path="url(#clip0_61_15542)">
<path d="M6.99969 6.12104C6.56969 5.77104 5.93969 5.82104 5.58969 6.25104L1.34969 11.361C1.03969 11.731 1.03969 12.271 1.34969 12.641L5.58969 17.751C5.93969 18.181 6.56969 18.231 6.99969 17.881C7.42969 17.531 7.47969 16.901 7.12969 16.471L3.41969 12.001L7.12969 7.53104C7.47969 7.10104 7.42969 6.47104 6.99969 6.12104ZM6.99969 13.001H8.99969V11.001H6.99969V13.001ZM16.9997 11.001H14.9997V13.001H16.9997V11.001ZM10.9997 13.001H12.9997V11.001H10.9997V13.001ZM16.9997 6.12104C16.5697 6.47104 16.5197 7.10104 16.8697 7.53104L20.5797 12.001L16.8697 16.471C16.5197 16.901 16.5797 17.531 16.9997 17.881C17.4297 18.231 18.0597 18.181 18.4097 17.751L22.6497 12.641C22.9597 12.271 22.9597 11.731 22.6497 11.361L18.4097 6.25104C18.0597 5.83104 17.4197 5.77104 16.9997 6.12104V6.12104Z"/>
</g>
<defs>
<clipPath id="clip0_61_15542">
<rect transform="translate(0 0.000976562)"/>
</clipPath>
</defs>
</svg>
