<svg   viewBox="0 0 24 24" fill="none" xmlns="http://www.w3.org/2000/svg">
<g clip-path="url(#clip0_61_15547)">
<path d="M8 11.501C8 10.671 7.33 10.001 6.5 10.001C5.67 10.001 5 10.671 5 11.501C5 12.331 5.67 13.001 6.5 13.001C7.33 13.001 8 12.331 8 11.501ZM15 6.50098C15 5.67098 14.33 5.00098 13.5 5.00098H10.5C9.67 5.00098 9 5.67098 9 6.50098C9 7.33098 9.67 8.00098 10.5 8.00098H13.5C14.33 8.00098 15 7.33098 15 6.50098ZM8.5 15.001C7.67 15.001 7 15.671 7 16.501C7 17.331 7.67 18.001 8.5 18.001C9.33 18.001 10 17.331 10 16.501C10 15.671 9.33 15.001 8.5 15.001ZM12 1.00098C5.93 1.00098 1 5.93098 1 12.001C1 18.071 5.93 23.001 12 23.001C18.07 23.001 23 18.071 23 12.001C23 5.93098 18.07 1.00098 12 1.00098ZM12 21.001C7.04 21.001 3 16.961 3 12.001C3 7.04098 7.04 3.00098 12 3.00098C16.96 3.00098 21 7.04098 21 12.001C21 16.961 16.96 21.001 12 21.001ZM17.5 10.001C16.67 10.001 16 10.671 16 11.501C16 12.331 16.67 13.001 17.5 13.001C18.33 13.001 19 12.331 19 11.501C19 10.671 18.33 10.001 17.5 10.001ZM15.5 15.001C14.67 15.001 14 15.671 14 16.501C14 17.331 14.67 18.001 15.5 18.001C16.33 18.001 17 17.331 17 16.501C17 15.671 16.33 15.001 15.5 15.001Z" fill="black"/>
</g>
<defs>
<clipPath id="clip0_61_15547">
<rect width="24" height="24" fill="white" transform="translate(0 0.000976562)"/>
</clipPath>
</defs>
</svg>
