<svg viewBox="0 0 24 24" xmlns="http://www.w3.org/2000/svg">
<g clip-path="url(#clip0_61_15550)">
<path d="M7.00079 24.001H9.00079V22.001H7.00079V24.001ZM11.0008 24.001H13.0008V22.001H11.0008V24.001ZM12.0008 2.00098C11.4508 2.00098 11.0008 2.45098 11.0008 3.00098V11.001C11.0008 11.551 11.4508 12.001 12.0008 12.001C12.5508 12.001 13.0008 11.551 13.0008 11.001V3.00098C13.0008 2.45098 12.5508 2.00098 12.0008 2.00098ZM15.9408 5.06098L15.9208 5.08098C15.5108 5.49098 15.5608 6.16098 16.0008 6.54098C17.5108 7.88098 18.3308 9.97098 17.8808 12.241C17.4208 14.521 15.5908 16.381 13.3208 16.861C9.43079 17.691 6.00079 14.741 6.00079 11.001C6.00079 9.22098 6.78079 7.63098 8.01079 6.53098C8.44079 6.14098 8.48079 5.49098 8.08079 5.08098L8.06079 5.06098C7.69079 4.69098 7.10079 4.67098 6.70079 5.02098C4.69079 6.79098 3.58079 9.55098 4.14079 12.541C4.73079 15.691 7.25079 18.241 10.4008 18.851C15.5208 19.841 20.0008 15.951 20.0008 11.001C20.0008 8.62098 18.9508 6.48098 17.2908 5.01098C16.9008 4.67098 16.3108 4.69098 15.9408 5.06098V5.06098ZM15.0008 24.001H17.0008V22.001H15.0008V24.001Z"/>
</g>
<defs>
<clipPath id="clip0_61_15550">
<rect transform="translate(0 0.000976562)"/>
</clipPath>
</defs>
</svg>
