<svg   viewBox="0 0 24 24" fill="none" xmlns="http://www.w3.org/2000/svg">
<g clip-path="url(#clip0_61_15541)">
<path d="M7 24.001H9V22.001H7V24.001ZM11 24.001H13V22.001H11V24.001ZM15 24.001H17V22.001H15V24.001ZM16 0.0109766L8 0.000976562C6.9 0.000976562 6 0.900977 6 2.00098V18.001C6 19.101 6.9 20.001 8 20.001H16C17.1 20.001 18 19.101 18 18.001V2.00098C18 0.900977 17.1 0.0109766 16 0.0109766V0.0109766ZM16 16.001H8V4.00098H16V16.001Z" fill="black"/>
</g>
<defs>
<clipPath id="clip0_61_15541">
<rect width="24" height="24" fill="white" transform="translate(0 0.000976562)"/>
</clipPath>
</defs>
</svg>
