<svg viewBox="0 0 24 24" xmlns="http://www.w3.org/2000/svg">
<g clip-path="url(#clip0_61_15549)">
<path d="M11.001 9.00074H13.001V11.0007H11.001V9.00074ZM15.001 9.00074H17.001V11.0007H15.001V9.00074ZM19.001 9.00074H21.001V11.0007H19.001V9.00074ZM19.231 15.2607L16.691 14.9707C16.081 14.9007 15.481 15.1107 15.051 15.5407L13.211 17.3807C10.381 15.9407 8.06102 13.6307 6.62102 10.7907L8.47102 8.94074C8.90102 8.51074 9.11102 7.91074 9.04102 7.30074L8.75102 4.78074C8.63102 3.77074 7.78102 3.01074 6.76102 3.01074H5.03102C3.90102 3.01074 2.96102 3.95074 3.03102 5.08074C3.56102 13.6207 10.391 20.4407 18.921 20.9707C20.051 21.0407 20.991 20.1007 20.991 18.9707V17.2407C21.001 16.2307 20.241 15.3807 19.231 15.2607V15.2607Z"/>
</g>
<defs>
<clipPath id="clip0_61_15549">
<rect transform="translate(0 0.000976562)"/>
</clipPath>
</defs>
</svg>
