<svg viewBox="0 0 24 24" xmlns="http://www.w3.org/2000/svg">
<g clip-path="url(#clip0_61_15545)">
<path d="M5 2.00098C5 1.45098 4.55 1.00098 4 1.00098C3.45 1.00098 3 1.45098 3 2.00098V6.00098H2C1.45 6.00098 1 6.45098 1 7.00098V12.001H7V7.00098C7 6.45098 6.55 6.00098 6 6.00098H5V2.00098ZM9 16.001C9 17.301 9.84 18.401 11 18.821V22.001C11 22.551 11.45 23.001 12 23.001C12.55 23.001 13 22.551 13 22.001V18.821C14.16 18.411 15 17.311 15 16.001V14.001H9V16.001ZM1 16.001C1 17.301 1.84 18.401 3 18.821V22.001C3 22.551 3.45 23.001 4 23.001C4.55 23.001 5 22.551 5 22.001V18.821C6.16 18.401 7 17.301 7 16.001V14.001H1V16.001ZM21 6.00098V2.00098C21 1.45098 20.55 1.00098 20 1.00098C19.45 1.00098 19 1.45098 19 2.00098V6.00098H18C17.45 6.00098 17 6.45098 17 7.00098V12.001H23V7.00098C23 6.45098 22.55 6.00098 22 6.00098H21ZM13 2.00098C13 1.45098 12.55 1.00098 12 1.00098C11.45 1.00098 11 1.45098 11 2.00098V6.00098H10C9.45 6.00098 9 6.45098 9 7.00098V12.001H15V7.00098C15 6.45098 14.55 6.00098 14 6.00098H13V2.00098ZM17 16.001C17 17.301 17.84 18.401 19 18.821V22.001C19 22.551 19.45 23.001 20 23.001C20.55 23.001 21 22.551 21 22.001V18.821C22.16 18.411 23 17.311 23 16.001V14.001H17V16.001Z"/>
</g>
<defs>
<clipPath id="clip0_61_15545">
<rect transform="translate(0 0.000976562)"/>
</clipPath>
</defs>
</svg>
