<svg viewBox="0 0 24 24" xmlns="http://www.w3.org/2000/svg">
<g clip-path="url(#clip0_61_15537)">
<path d="M12 10.001C10.9 10.001 10 10.901 10 12.001C10 13.101 10.9 14.001 12 14.001C13.1 14.001 14 13.101 14 12.001C14 10.901 13.1 10.001 12 10.001ZM19 3.00098H5C3.89 3.00098 3 3.90098 3 5.00098V19.001C3 20.101 3.89 21.001 5 21.001H19C20.11 21.001 21 20.101 21 19.001V5.00098C21 3.90098 20.11 3.00098 19 3.00098ZM17.25 12.001C17.25 12.231 17.23 12.461 17.2 12.681L18.68 13.841C18.81 13.951 18.85 14.141 18.76 14.291L17.36 16.711C17.27 16.861 17.09 16.921 16.93 16.861L15.19 16.161C14.83 16.441 14.43 16.671 14.01 16.851L13.75 18.701C13.72 18.871 13.57 19.001 13.4 19.001H10.6C10.43 19.001 10.28 18.871 10.25 18.711L9.99 16.861C9.56 16.681 9.17 16.451 8.81 16.171L7.07 16.871C6.91 16.931 6.73 16.871 6.64 16.721L5.24 14.301C5.15 14.151 5.19 13.961 5.32 13.851L6.8 12.691C6.77 12.461 6.75 12.231 6.75 12.001C6.75 11.771 6.77 11.541 6.8 11.321L5.32 10.161C5.19 10.051 5.15 9.86098 5.24 9.71098L6.64 7.29098C6.73 7.14098 6.91 7.08098 7.07 7.14098L8.81 7.84098C9.17 7.56098 9.57 7.33098 9.99 7.15098L10.25 5.30098C10.28 5.13098 10.43 5.00098 10.6 5.00098H13.4C13.57 5.00098 13.72 5.13098 13.75 5.29098L14.01 7.14098C14.44 7.32098 14.83 7.55098 15.19 7.83098L16.93 7.13098C17.09 7.07098 17.27 7.13098 17.36 7.28098L18.76 9.70098C18.85 9.85098 18.81 10.041 18.68 10.151L17.2 11.311C17.23 11.541 17.25 11.771 17.25 12.001V12.001Z"/>
</g>
<defs>
<clipPath id="clip0_61_15537">
<rect transform="translate(0 0.000976562)"/>
</clipPath>
</defs>
</svg>
