<svg   viewBox="0 0 24 24" fill="none" xmlns="http://www.w3.org/2000/svg">
<g clip-path="url(#clip0_61_15548)">
<path d="M11.62 5.99098L10 8.00098H14L12.4 5.99098C12.2 5.74098 11.82 5.74098 11.62 5.99098V5.99098ZM18 10.001V14.001L20.01 12.401C20.26 12.201 20.26 11.821 20.01 11.621L18 10.001ZM6 10.001L3.99 11.621C3.74 11.821 3.74 12.201 3.99 12.401L6 14.001V10.001ZM14 16.001H10L11.62 18.011C11.82 18.261 12.2 18.261 12.4 18.011L14 16.001ZM21 3.00098H3C1.9 3.00098 1 3.90098 1 5.00098V19.001C1 20.101 1.9 21.001 3 21.001H21C22.1 21.001 23 20.101 23 19.001V5.00098C23 3.90098 22.1 3.00098 21 3.00098ZM20 19.011H4C3.45 19.011 3 18.561 3 18.011V5.99098C3 5.44098 3.45 4.99098 4 4.99098H20C20.55 4.99098 21 5.44098 21 5.99098V18.011C21 18.561 20.55 19.011 20 19.011V19.011Z" fill="black"/>
</g>
<defs>
<clipPath id="clip0_61_15548">
<rect width="24" height="24" fill="white" transform="translate(0 0.000976562)"/>
</clipPath>
</defs>
</svg>
