<svg   viewBox="0 0 24 24" fill="none" xmlns="http://www.w3.org/2000/svg">
<g clip-path="url(#clip0_61_15543)">
<path d="M12.0006 5.00098C8.5206 5.00098 5.6306 7.54098 5.0906 10.871C4.9906 11.461 5.4806 12.001 6.0906 12.001C6.5806 12.001 6.9906 11.641 7.0706 11.151C7.4806 8.79098 9.5306 7.00098 12.0006 7.00098C14.4706 7.00098 16.5206 8.79098 16.9306 11.151C17.0106 11.641 17.4206 12.001 17.9106 12.001C18.5206 12.001 19.0006 11.461 18.9006 10.871C18.3706 7.54098 15.4806 5.00098 12.0006 5.00098ZM13.0006 14.291C14.0706 13.811 14.7606 12.631 14.4106 11.301C14.1906 10.491 13.5406 9.83098 12.7306 9.60098C11.0406 9.12098 9.5006 10.381 9.5006 12.001C9.5006 13.021 10.1206 13.901 11.0006 14.291V17.591L8.2906 20.291C7.9006 20.681 7.9006 21.311 8.2906 21.701C8.6806 22.091 9.3106 22.091 9.7006 21.701L12.0006 19.401L14.3006 21.701C14.6906 22.091 15.3206 22.091 15.7106 21.701C16.1006 21.311 16.1006 20.681 15.7106 20.291L13.0006 17.591V14.291ZM12.0006 1.00098C6.3006 1.00098 1.6106 5.34098 1.0506 10.901C1.0006 11.491 1.4606 12.001 2.0506 12.001C2.5606 12.001 2.9906 11.621 3.0406 11.121C3.4806 6.56098 7.3306 3.00098 12.0006 3.00098C16.6706 3.00098 20.5206 6.56098 20.9606 11.121C21.0106 11.621 21.4406 12.001 21.9506 12.001C22.5406 12.001 23.0106 11.491 22.9506 10.901C22.3906 5.34098 17.7006 1.00098 12.0006 1.00098Z" fill="black"/>
</g>
<defs>
<clipPath id="clip0_61_15543">
<rect width="24" height="24" fill="white" transform="translate(0 0.000976562)"/>
</clipPath>
</defs>
</svg>
