<svg   viewBox="0 0 24 24" fill="none" xmlns="http://www.w3.org/2000/svg">
<g clip-path="url(#clip0_61_15546)">
<path d="M18 7.00098V4.00098C18 2.90098 17.1 2.00098 16 2.00098H8C6.9 2.00098 6 2.90098 6 4.00098V7.00098C5.45 7.00098 5 7.45098 5 8.00098V12.701C5 12.901 5.06 13.091 5.17 13.251L8 19.001V21.001C8 21.551 8.45 22.001 9 22.001H15C15.55 22.001 16 21.551 16 21.001V19.001L18.83 13.251C18.94 13.091 19 12.891 19 12.701V8.00098C19 7.45098 18.55 7.00098 18 7.00098ZM16 7.00098H14V5.50098C14 5.22098 13.78 5.00098 13.5 5.00098C13.22 5.00098 13 5.22098 13 5.50098V7.00098H11V5.50098C11 5.22098 10.78 5.00098 10.5 5.00098C10.22 5.00098 10 5.22098 10 5.50098V7.00098H8V4.00098H16V7.00098Z" fill="black"/>
</g>
<defs>
<clipPath id="clip0_61_15546">
<rect width="24" height="24" fill="white" transform="translate(0 0.000976562)"/>
</clipPath>
</defs>
</svg>
