<svg viewBox="0 0 24 24" xmlns="http://www.w3.org/2000/svg">
<g clip-path="url(#clip0_61_15536)">
<path d="M19.4289 12.981C19.4689 12.661 19.4989 12.341 19.4989 12.001C19.4989 11.661 19.4689 11.341 19.4289 11.021L21.5389 9.37098C21.7289 9.22098 21.7789 8.95098 21.6589 8.73098L19.6589 5.27098C19.5389 5.05098 19.2689 4.97098 19.0489 5.05098L16.5589 6.05098C16.0389 5.65098 15.4789 5.32098 14.8689 5.07098L14.4889 2.42098C14.4589 2.18098 14.2489 2.00098 13.9989 2.00098H9.99886C9.74886 2.00098 9.53886 2.18098 9.50886 2.42098L9.12886 5.07098C8.51886 5.32098 7.95886 5.66098 7.43886 6.05098L4.94886 5.05098C4.71886 4.96098 4.45886 5.05098 4.33886 5.27098L2.33886 8.73098C2.20886 8.95098 2.26886 9.22098 2.45886 9.37098L4.56886 11.021C4.52886 11.341 4.49886 11.671 4.49886 12.001C4.49886 12.331 4.52886 12.661 4.56886 12.981L2.45886 14.631C2.26886 14.781 2.21886 15.051 2.33886 15.271L4.33886 18.731C4.45886 18.951 4.72886 19.031 4.94886 18.951L7.43886 17.951C7.95886 18.351 8.51886 18.681 9.12886 18.931L9.50886 21.581C9.53886 21.821 9.74886 22.001 9.99886 22.001H13.9989C14.2489 22.001 14.4589 21.821 14.4889 21.581L14.8689 18.931C15.4789 18.681 16.0389 18.341 16.5589 17.951L19.0489 18.951C19.2789 19.041 19.5389 18.951 19.6589 18.731L21.6589 15.271C21.7789 15.051 21.7289 14.781 21.5389 14.631L19.4289 12.981V12.981ZM11.9989 15.501C10.0689 15.501 8.49886 13.931 8.49886 12.001C8.49886 10.071 10.0689 8.50098 11.9989 8.50098C13.9289 8.50098 15.4989 10.071 15.4989 12.001C15.4989 13.931 13.9289 15.501 11.9989 15.501Z"/>
</g>
<defs>
<clipPath id="clip0_61_15536">
<rect transform="translate(0 0.000976562)"/>
</clipPath>
</defs>
</svg>
