<svg viewBox="0 0 24 24" xmlns="http://www.w3.org/2000/svg">
<g clip-path="url(#clip0_61_15555)">
<path d="M22 9.00078H17.21L12.82 2.43078C12.42 1.84078 11.55 1.84078 11.16 2.43078L6.77 9.00078H2C1.45 9.00078 1 9.45078 1 10.0008C1 10.0908 1.01 10.1808 1.04 10.2708L3.58 19.5408C3.81 20.3808 4.58 21.0008 5.5 21.0008H18.5C19.42 21.0008 20.19 20.3808 20.43 19.5408L22.97 10.2708L23 10.0008C23 9.45078 22.55 9.00078 22 9.00078ZM11.99 4.79078L14.8 9.00078H9.18L11.99 4.79078ZM12 17.0008C10.9 17.0008 10 16.1008 10 15.0008C10 13.9008 10.9 13.0008 12 13.0008C13.1 13.0008 14 13.9008 14 15.0008C14 16.1008 13.1 17.0008 12 17.0008Z"/>
</g>
<defs>
<clipPath id="clip0_61_15555">
<rect transform="translate(0 0.000976562)"/>
</clipPath>
</defs>
</svg>
