<svg   viewBox="0 0 24 24" fill="none" xmlns="http://www.w3.org/2000/svg">
<g clip-path="url(#clip0_61_15556)">
<path d="M7 18.001C5.9 18.001 5.01 18.901 5.01 20.001C5.01 21.101 5.9 22.001 7 22.001C8.1 22.001 9 21.101 9 20.001C9 18.901 8.1 18.001 7 18.001ZM1 3.00098C1 3.55098 1.45 4.00098 2 4.00098H3L6.6 11.591L5.25 14.031C4.52 15.371 5.48 17.001 7 17.001H18C18.55 17.001 19 16.551 19 16.001C19 15.451 18.55 15.001 18 15.001H7L8.1 13.001H15.55C16.3 13.001 16.96 12.591 17.3 11.971L20.88 5.48098C21.25 4.82098 20.77 4.00098 20.01 4.00098H5.21L4.54 2.57098C4.38 2.22098 4.02 2.00098 3.64 2.00098H2C1.45 2.00098 1 2.45098 1 3.00098V3.00098ZM17 18.001C15.9 18.001 15.01 18.901 15.01 20.001C15.01 21.101 15.9 22.001 17 22.001C18.1 22.001 19 21.101 19 20.001C19 18.901 18.1 18.001 17 18.001Z" fill="black"/>
</g>
<defs>
<clipPath id="clip0_61_15556">
<rect width="24" height="24" fill="white" transform="translate(0 0.000976562)"/>
</clipPath>
</defs>
</svg>
