<svg   viewBox="0 0 24 24" fill="none" xmlns="http://www.w3.org/2000/svg">
<g clip-path="url(#clip0_61_15554)">
<path d="M18 6.00098H16C16 3.79098 14.21 2.00098 12 2.00098C9.79 2.00098 8 3.79098 8 6.00098H6C4.9 6.00098 4 6.90098 4 8.00098V20.001C4 21.101 4.9 22.001 6 22.001H18C19.1 22.001 20 21.101 20 20.001V8.00098C20 6.90098 19.1 6.00098 18 6.00098ZM10 10.001C10 10.551 9.55 11.001 9 11.001C8.45 11.001 8 10.551 8 10.001V8.00098H10V10.001ZM12 4.00098C13.1 4.00098 14 4.90098 14 6.00098H10C10 4.90098 10.9 4.00098 12 4.00098ZM16 10.001C16 10.551 15.55 11.001 15 11.001C14.45 11.001 14 10.551 14 10.001V8.00098H16V10.001Z" fill="black"/>
</g>
<defs>
<clipPath id="clip0_61_15554">
<rect width="24" height="24" fill="white" transform="translate(0 0.000976562)"/>
</clipPath>
</defs>
</svg>
