<svg   viewBox="0 0 24 24" fill="none" xmlns="http://www.w3.org/2000/svg">
<g clip-path="url(#clip0_61_15553)">
<path d="M16 6.00098V4.00098C16 2.90098 15.1 2.00098 14 2.00098H10C8.9 2.00098 8 2.90098 8 4.00098V6.00098H4C2.9 6.00098 2 6.90098 2 8.00098V19.001C2 20.101 2.9 21.001 4 21.001H20C21.1 21.001 22 20.101 22 19.001V8.00098C22 6.90098 21.1 6.00098 20 6.00098H16ZM10 4.00098H14V6.00098H10V4.00098ZM9 17.071V9.83098C9 9.45098 9.4 9.21098 9.74 9.39098L15.77 12.601C16.1 12.781 16.13 13.251 15.81 13.461L9.78 17.481C9.45 17.701 9 17.471 9 17.071V17.071Z" fill="black"/>
</g>
<defs>
<clipPath id="clip0_61_15553">
<rect width="24" height="24" fill="white" transform="translate(0 0.000976562)"/>
</clipPath>
</defs>
</svg>
