<svg   viewBox="0 0 24 24" fill="none" xmlns="http://www.w3.org/2000/svg">
<g clip-path="url(#clip0_61_15557)">
<path d="M2 9.00098C1.45 9.00098 1 9.45098 1 10.001V20.001C1 21.101 1.9 22.001 3 22.001H17C18.11 22.001 19 21.111 19 20.001H4C3.45 20.001 3 19.551 3 19.001V10.001C3 9.45098 2.55 9.00098 2 9.00098ZM18 5.00098V3.00098C18 1.90098 17.1 1.00098 16 1.00098H12C10.9 1.00098 10 1.90098 10 3.00098V5.00098H7C5.9 5.00098 5 5.90098 5 7.00098V16.001C5 17.101 5.9 18.001 7 18.001H21C22.1 18.001 23 17.101 23 16.001V7.00098C23 5.90098 22.1 5.00098 21 5.00098H18ZM12 3.00098H16V5.00098H12V3.00098ZM12 14.021V8.84098C12 8.46098 12.41 8.22098 12.74 8.40098L16.81 10.621C17.13 10.801 17.16 11.251 16.86 11.461L12.79 14.421C12.46 14.661 12 14.431 12 14.021V14.021Z" fill="black"/>
</g>
<defs>
<clipPath id="clip0_61_15557">
<rect width="24" height="24" fill="white" transform="translate(0 0.000976562)"/>
</clipPath>
</defs>
</svg>
