<svg   viewBox="0 0 24 24" fill="none" xmlns="http://www.w3.org/2000/svg">
<g clip-path="url(#clip0_61_15558)">
<path d="M22 9.00098V15.001C22 16.101 21.1 17.001 20 17.001H19V15.001H20V9.00098H4V15.001H10V17.001H4C2.9 17.001 2 16.101 2 15.001V9.00098C2 7.90098 2.9 7.00098 4 7.00098H20C21.1 7.00098 22 7.90098 22 9.00098ZM14.04 17.991C14.22 18.381 14.77 18.381 14.95 17.991L15.58 16.591L16.98 15.961C17.37 15.781 17.37 15.231 16.98 15.051L15.58 14.421L14.95 13.021C14.77 12.631 14.22 12.631 14.04 13.021L13.41 14.421L12.01 15.051C11.62 15.231 11.62 15.781 12.01 15.961L13.41 16.591L14.04 17.991ZM16.74 13.431C16.84 13.651 17.16 13.651 17.26 13.431L17.62 12.631L18.42 12.271C18.64 12.171 18.64 11.851 18.42 11.751L17.62 11.391L17.26 10.591C17.16 10.371 16.84 10.371 16.74 10.591L16.38 11.391L15.58 11.751C15.36 11.851 15.36 12.171 15.58 12.271L16.38 12.631L16.74 13.431Z" fill="black"/>
</g>
<defs>
<clipPath id="clip0_61_15558">
<rect width="24" height="24" fill="white" transform="translate(0 0.000976562)"/>
</clipPath>
</defs>
</svg>
