<svg viewBox="0 0 24 24" xmlns="http://www.w3.org/2000/svg">
<g clip-path="url(#clip0_61_15561)">
<path d="M1.91141 2.36098C1.56141 2.01098 0.991406 2.01098 0.641406 2.36098C0.291406 2.71098 0.291406 3.28098 0.641406 3.63098L2.02141 5.01098L2.00141 22.001L6.00141 18.001H15.0014L20.0914 23.091C20.4414 23.441 21.0114 23.441 21.3614 23.091C21.7114 22.741 21.7114 22.171 21.3614 21.821L1.91141 2.36098ZM7.00141 14.001C6.45141 14.001 6.00141 13.551 6.00141 13.001C6.00141 12.451 6.45141 12.001 7.00141 12.001C7.55141 12.001 8.00141 12.451 8.00141 13.001C8.00141 13.551 7.55141 14.001 7.00141 14.001ZM7.00141 11.001C6.45141 11.001 6.00141 10.551 6.00141 10.001C6.00141 9.45098 6.45141 9.00098 7.00141 9.00098C7.55141 9.00098 8.00141 9.45098 8.00141 10.001C8.00141 10.551 7.55141 11.001 7.00141 11.001ZM20.0014 2.00098H4.08141L11.0814 9.00098H17.0014C17.5514 9.00098 18.0014 9.45098 18.0014 10.001C18.0014 10.551 17.5514 11.001 17.0014 11.001H13.0814L20.0714 17.991C21.1414 17.951 22.0014 17.081 22.0014 16.001V4.00098C22.0014 2.90098 21.1014 2.00098 20.0014 2.00098ZM17.0014 8.00098H11.0014C10.4514 8.00098 10.0014 7.55098 10.0014 7.00098C10.0014 6.45098 10.4514 6.00098 11.0014 6.00098H17.0014C17.5514 6.00098 18.0014 6.45098 18.0014 7.00098C18.0014 7.55098 17.5514 8.00098 17.0014 8.00098Z"/>
</g>
<defs>
<clipPath id="clip0_61_15561">
<rect transform="translate(0 0.000976562)"/>
</clipPath>
</defs>
</svg>
