<svg   viewBox="0 0 24 24" fill="none" xmlns="http://www.w3.org/2000/svg">
<g clip-path="url(#clip0_61_15560)">
<path d="M20 2.00098H4C2.9 2.00098 2.01 2.90098 2.01 4.00098L2 22.001L6 18.001H20C21.1 18.001 22 17.101 22 16.001V4.00098C22 2.90098 21.1 2.00098 20 2.00098ZM8 14.001H6V12.001H8V14.001ZM8 11.001H6V9.00098H8V11.001ZM8 8.00098H6V6.00098H8V8.00098ZM14 14.001H11C10.45 14.001 10 13.551 10 13.001C10 12.451 10.45 12.001 11 12.001H14C14.55 12.001 15 12.451 15 13.001C15 13.551 14.55 14.001 14 14.001ZM17 11.001H11C10.45 11.001 10 10.551 10 10.001C10 9.45098 10.45 9.00098 11 9.00098H17C17.55 9.00098 18 9.45098 18 10.001C18 10.551 17.55 11.001 17 11.001ZM17 8.00098H11C10.45 8.00098 10 7.55098 10 7.00098C10 6.45098 10.45 6.00098 11 6.00098H17C17.55 6.00098 18 6.45098 18 7.00098C18 7.55098 17.55 8.00098 17 8.00098Z" fill="black"/>
</g>
<defs>
<clipPath id="clip0_61_15560">
<rect width="24" height="24" fill="white" transform="translate(0 0.000976562)"/>
</clipPath>
</defs>
</svg>
