<svg viewBox="0 0 24 24" xmlns="http://www.w3.org/2000/svg">
<g clip-path="url(#clip0_61_15562)">
<path d="M13.1182 16.001C13.8082 16.001 14.2682 15.311 14.0182 14.681L9.76821 3.87098C9.55821 3.34098 9.05821 3.00098 8.49821 3.00098C7.93821 3.00098 7.43821 3.34098 7.22821 3.87098L2.97821 14.681C2.72821 15.311 3.19821 16.001 3.87821 16.001C4.27821 16.001 4.63821 15.751 4.78821 15.371L5.66821 13.001H11.3082L12.2082 15.381C12.3582 15.751 12.7182 16.001 13.1182 16.001V16.001ZM6.42821 11.001L8.49821 5.48098L10.5682 11.001H6.42821V11.001ZM20.8882 12.291L13.4982 19.681L10.5282 16.711C10.1382 16.321 9.50821 16.321 9.11821 16.711C8.72821 17.101 8.72821 17.731 9.11821 18.121L12.7982 21.801C13.1882 22.191 13.8182 22.191 14.2082 21.801L22.2882 13.711C22.6782 13.321 22.6782 12.691 22.2882 12.301C21.9082 11.911 21.2682 11.911 20.8882 12.291V12.291Z"/>
</g>
<defs>
<clipPath id="clip0_61_15562">
<rect transform="translate(0 0.000976562)"/>
</clipPath>
</defs>
</svg>
