<svg viewBox="0 0 24 24" xmlns="http://www.w3.org/2000/svg">
<g clip-path="url(#clip0_61_15563)">
<path d="M11.99 2.00098C6.47 2.00098 2 6.48098 2 12.001C2 17.521 6.47 22.001 11.99 22.001C17.52 22.001 22 17.521 22 12.001C22 6.48098 17.52 2.00098 11.99 2.00098ZM15.22 17.391L12 15.451L8.78 17.391C8.4 17.621 7.93 17.281 8.03 16.851L8.88 13.191L6.05 10.741C5.72 10.451 5.9 9.90098 6.34 9.86098L10.08 9.54098L11.54 6.09098C11.71 5.68098 12.29 5.68098 12.46 6.09098L13.92 9.53098L17.66 9.85098C18.1 9.89098 18.28 10.441 17.94 10.731L15.11 13.181L15.96 16.851C16.06 17.281 15.6 17.621 15.22 17.391V17.391Z"/>
</g>
<defs>
<clipPath id="clip0_61_15563">
<rect transform="translate(0 0.000976562)"/>
</clipPath>
</defs>
</svg>
