<svg   viewBox="0 0 24 24" fill="none" xmlns="http://www.w3.org/2000/svg">
<g clip-path="url(#clip0_61_15565)">
<path d="M19 3.00098H4.99C3.89 3.00098 3 3.90098 3 5.00098L3.01 19.001C3.01 20.101 3.9 21.001 5 21.001H15L21 15.001V5.00098C21 3.90098 20.1 3.00098 19 3.00098ZM8 8.00098H16C16.55 8.00098 17 8.45098 17 9.00098C17 9.55098 16.55 10.001 16 10.001H8C7.45 10.001 7 9.55098 7 9.00098C7 8.45098 7.45 8.00098 8 8.00098ZM11 14.001H8C7.45 14.001 7 13.551 7 13.001C7 12.451 7.45 12.001 8 12.001H11C11.55 12.001 12 12.451 12 13.001C12 13.551 11.55 14.001 11 14.001ZM14 19.501V15.001C14 14.451 14.45 14.001 15 14.001H19.5L14 19.501Z" fill="black"/>
</g>
<defs>
<clipPath id="clip0_61_15565">
<rect width="24" height="24" fill="white" transform="translate(0 0.000976562)"/>
</clipPath>
</defs>
</svg>
