<svg viewBox="0 0 24 24" xmlns="http://www.w3.org/2000/svg">
<g clip-path="url(#clip0_61_15566)">
<path d="M4.9991 6.00098H18.9991C19.5491 6.00098 19.9991 5.55098 19.9991 5.00098C19.9991 4.45098 19.5491 4.00098 18.9991 4.00098H4.9991C4.4491 4.00098 3.9991 4.45098 3.9991 5.00098C3.9991 5.55098 4.4491 6.00098 4.9991 6.00098ZM20.1591 7.80098C20.0691 7.34098 19.6591 7.00098 19.1791 7.00098H4.8191C4.3391 7.00098 3.9291 7.34098 3.8391 7.80098L2.8391 12.801C2.7191 13.421 3.1891 14.001 3.8191 14.001H3.9991V19.001C3.9991 19.551 4.4491 20.001 4.9991 20.001H12.9991C13.5491 20.001 13.9991 19.551 13.9991 19.001V14.001H17.9991V19.001C17.9991 19.551 18.4491 20.001 18.9991 20.001C19.5491 20.001 19.9991 19.551 19.9991 19.001V14.001H20.1791C20.8091 14.001 21.2791 13.421 21.1591 12.801L20.1591 7.80098V7.80098ZM11.9991 18.001H5.9991V14.001H11.9991V18.001Z"/>
</g>
<defs>
<clipPath id="clip0_61_15566">
<rect transform="translate(0 0.000976562)"/>
</clipPath>
</defs>
</svg>
