<svg   viewBox="0 0 24 24" fill="none" xmlns="http://www.w3.org/2000/svg">
<g clip-path="url(#clip0_61_15567)">
<path d="M13 17.001H5C4.45 17.001 4 17.451 4 18.001C4 18.551 4.45 19.001 5 19.001H13C13.55 19.001 14 18.551 14 18.001C14 17.451 13.55 17.001 13 17.001ZM19 9.00098H5C4.45 9.00098 4 9.45098 4 10.001C4 10.551 4.45 11.001 5 11.001H19C19.55 11.001 20 10.551 20 10.001C20 9.45098 19.55 9.00098 19 9.00098ZM5 15.001H19C19.55 15.001 20 14.551 20 14.001C20 13.451 19.55 13.001 19 13.001H5C4.45 13.001 4 13.451 4 14.001C4 14.551 4.45 15.001 5 15.001ZM4 6.00098C4 6.55098 4.45 7.00098 5 7.00098H19C19.55 7.00098 20 6.55098 20 6.00098C20 5.45098 19.55 5.00098 19 5.00098H5C4.45 5.00098 4 5.45098 4 6.00098Z" fill="black"/>
</g>
<defs>
<clipPath id="clip0_61_15567">
<rect width="24" height="24" fill="white" transform="translate(0 0.000976562)"/>
</clipPath>
</defs>
</svg>
