<svg viewBox="0 0 24 24" xmlns="http://www.w3.org/2000/svg">
<g clip-path="url(#clip0_61_15568)">
<path d="M19.9981 4.00098H6.82812L14.8281 12.001H18.9981C19.5481 12.001 19.9981 12.451 19.9981 13.001C19.9981 13.551 19.5481 14.001 18.9981 14.001H16.8281L21.7581 18.931C21.9081 18.651 21.9981 18.341 21.9981 18.001V6.00098C21.9981 4.90098 21.0981 4.00098 19.9981 4.00098Z"/>
<path d="M19.9995 20.0007L13.9995 14.0007L12.2895 12.2907L11.9995 12.0007L3.15953 3.16066C2.76953 2.77066 2.13953 2.77066 1.74953 3.16066C1.35953 3.55066 1.35953 4.18066 1.74953 4.57066L2.23953 5.06066C2.08953 5.35066 1.99953 5.66066 1.99953 6.00066V18.0007C1.99953 19.1007 2.89953 20.0007 3.99953 20.0007H17.1695L19.4195 22.2507C19.8095 22.6407 20.4395 22.6407 20.8295 22.2507C21.2195 21.8607 21.2195 21.2307 20.8295 20.8407L19.9995 20.0007ZM7.99953 13.0007C7.99953 13.5507 7.54953 14.0007 6.99953 14.0007H4.99953C4.44953 14.0007 3.99953 13.5507 3.99953 13.0007C3.99953 12.4507 4.44953 12.0007 4.99953 12.0007H6.99953C7.54953 12.0007 7.99953 12.4507 7.99953 13.0007ZM13.9995 17.0007C13.9995 17.5507 13.5495 18.0007 12.9995 18.0007H4.99953C4.44953 18.0007 3.99953 17.5507 3.99953 17.0007C3.99953 16.4507 4.44953 16.0007 4.99953 16.0007H12.9995C13.0795 16.0007 13.1395 16.0307 13.2095 16.0407L13.9495 16.7807C13.9695 16.8607 13.9995 16.9207 13.9995 17.0007Z"/>
</g>
<defs>
<clipPath id="clip0_61_15568">
<rect transform="translate(0 0.000976562)"/>
</clipPath>
</defs>
</svg>
