<svg   viewBox="0 0 24 24" fill="none" xmlns="http://www.w3.org/2000/svg">
<g clip-path="url(#clip0_61_15569)">
<path d="M12 2.00098C6.48 2.00098 2 6.48098 2 12.001C2 17.521 6.48 22.001 12 22.001C17.52 22.001 22 17.521 22 12.001C22 6.48098 17.52 2.00098 12 2.00098ZM15.61 8.34098C16.68 8.34098 17.54 9.20098 17.54 10.271C17.54 11.341 16.68 12.201 15.61 12.201C14.54 12.201 13.68 11.341 13.68 10.271C13.67 9.20098 14.54 8.34098 15.61 8.34098ZM9.61 6.76098C10.91 6.76098 11.97 7.82098 11.97 9.12098C11.97 10.421 10.91 11.481 9.61 11.481C8.31 11.481 7.25 10.421 7.25 9.12098C7.25 7.81098 8.3 6.76098 9.61 6.76098ZM9.61 15.891V19.641C7.21 18.891 5.31 17.041 4.47 14.681C5.52 13.561 8.14 12.991 9.61 12.991C10.14 12.991 10.81 13.071 11.51 13.211C9.87 14.081 9.61 15.231 9.61 15.891ZM12 20.001C11.73 20.001 11.47 19.991 11.21 19.961V15.891C11.21 14.471 14.15 13.761 15.61 13.761C16.68 13.761 18.53 14.151 19.45 14.911C18.28 17.881 15.39 20.001 12 20.001Z" fill="black"/>
</g>
<defs>
<clipPath id="clip0_61_15569">
<rect width="24" height="24" fill="white" transform="translate(0 0.000976562)"/>
</clipPath>
</defs>
</svg>
