<svg viewBox="0 0 24 24" xmlns="http://www.w3.org/2000/svg">
<g clip-path="url(#clip0_61_15571)">
<path d="M12 2.00098C6.48 2.00098 2 6.48098 2 12.001C2 17.521 6.48 22.001 12 22.001C17.52 22.001 22 17.521 22 12.001C22 6.48098 17.52 2.00098 12 2.00098ZM19.46 9.12098L16.68 10.271C16.17 8.91098 15.1 7.83098 13.73 7.33098L14.88 4.55098C16.98 5.35098 18.65 7.02098 19.46 9.12098ZM12 15.001C10.34 15.001 9 13.661 9 12.001C9 10.341 10.34 9.00098 12 9.00098C13.66 9.00098 15 10.341 15 12.001C15 13.661 13.66 15.001 12 15.001ZM9.13 4.54098L10.3 7.32098C8.92 7.82098 7.83 8.91098 7.32 10.291L4.54 9.13098C5.35 7.02098 7.02 5.35098 9.13 4.54098ZM4.54 14.871L7.32 13.721C7.83 15.101 8.91 16.181 10.29 16.681L9.12 19.461C7.02 18.651 5.35 16.981 4.54 14.871ZM14.88 19.461L13.73 16.681C15.1 16.171 16.18 15.091 16.68 13.711L19.46 14.881C18.65 16.981 16.98 18.651 14.88 19.461Z"/>
</g>
<defs>
<clipPath id="clip0_61_15571">
<rect transform="translate(0 0.000976562)"/>
</clipPath>
</defs>
</svg>
