<svg   viewBox="0 0 24 24" fill="none" xmlns="http://www.w3.org/2000/svg">
<g clip-path="url(#clip0_61_15574)">
<path d="M15.9986 17.0105V11.0005C15.9986 10.4505 15.5486 10.0005 14.9986 10.0005C14.4486 10.0005 13.9986 10.4505 13.9986 11.0005V17.0105H12.2086C11.7586 17.0105 11.5386 17.5505 11.8586 17.8605L14.6486 20.6405C14.8486 20.8305 15.1586 20.8305 15.3586 20.6405L18.1486 17.8605C18.4686 17.5505 18.2386 17.0105 17.7986 17.0105H15.9986V17.0105ZM8.64857 3.35051L5.85857 6.14051C5.53857 6.45051 5.75857 6.99051 6.20857 6.99051H7.99857V13.0005C7.99857 13.5505 8.44857 14.0005 8.99857 14.0005C9.54857 14.0005 9.99857 13.5505 9.99857 13.0005V6.99051H11.7886C12.2386 6.99051 12.4586 6.45051 12.1386 6.14051L9.34857 3.35051C9.15857 3.16051 8.83857 3.16051 8.64857 3.35051Z" fill="black"/>
</g>
<defs>
<clipPath id="clip0_61_15574">
<rect width="24" height="24" fill="white" transform="translate(0 0.000976562)"/>
</clipPath>
</defs>
</svg>
