<svg viewBox="0 0 24 24" xmlns="http://www.w3.org/2000/svg">
<g clip-path="url(#clip0_61_15572)">
<path d="M6.14125 11.8613L3.36125 14.6513C3.17125 14.8513 3.17125 15.1613 3.36125 15.3613L6.14125 18.1513C6.45125 18.4713 6.99125 18.2413 6.99125 17.8013V16.0013H13.0013C13.5513 16.0013 14.0013 15.5513 14.0013 15.0013C14.0013 14.4513 13.5513 14.0013 13.0013 14.0013H6.99125V12.2113C6.99125 11.7613 6.45125 11.5413 6.14125 11.8613V11.8613ZM20.6512 8.65131L17.8713 5.86131C17.5613 5.54131 17.0213 5.77131 17.0213 6.21131V8.00131H11.0013C10.4513 8.00131 10.0013 8.45131 10.0013 9.00131C10.0013 9.55131 10.4513 10.0013 11.0013 10.0013H17.0113V11.7913C17.0113 12.2413 17.5513 12.4613 17.8613 12.1413L20.6412 9.35131C20.8412 9.16131 20.8412 8.84131 20.6512 8.65131V8.65131Z"/>
</g>
<defs>
<clipPath id="clip0_61_15572">
<rect transform="translate(0 0.000976562)"/>
</clipPath>
</defs>
</svg>
