<svg viewBox="0 0 24 24" xmlns="http://www.w3.org/2000/svg">
<g clip-path="url(#clip0_61_15573)">
<path d="M22 12.001C22 6.48098 17.52 2.00098 12 2.00098C6.48 2.00098 2 6.48098 2 12.001C2 17.521 6.48 22.001 12 22.001C17.52 22.001 22 17.521 22 12.001ZM15 6.50098L18.15 9.65098C18.35 9.85098 18.35 10.161 18.15 10.361L15 13.501V11.001H11V9.00098H15V6.50098ZM9 17.501L5.85 14.351C5.65 14.151 5.65 13.841 5.85 13.641L9 10.501V13.001H13V15.001H9V17.501Z"/>
</g>
<defs>
<clipPath id="clip0_61_15573">
<rect transform="translate(0 0.000976562)"/>
</clipPath>
</defs>
</svg>
