<svg   viewBox="0 0 24 24" fill="none" xmlns="http://www.w3.org/2000/svg">
<g clip-path="url(#clip0_61_15576)">
<path d="M21.65 7.65052L18.86 4.86052C18.54 4.54052 18 4.76052 18 5.21052V7.00052H4C3.45 7.00052 3 7.45052 3 8.00052C3 8.55052 3.45 9.00052 4 9.00052H18V10.7905C18 11.2405 18.54 11.4605 18.85 11.1405L21.64 8.35052C21.84 8.16052 21.84 7.84052 21.65 7.65052Z" fill="black"/>
<path d="M2.34831 16.3505L5.13831 19.1405C5.45831 19.4605 5.99831 19.2405 5.99831 18.7905V17.0005H19.9983C20.5483 17.0005 20.9983 16.5505 20.9983 16.0005C20.9983 15.4505 20.5483 15.0005 19.9983 15.0005H5.99831V13.2105C5.99831 12.7605 5.45831 12.5405 5.14831 12.8605L2.35831 15.6505C2.15831 15.8405 2.15831 16.1605 2.34831 16.3505Z" fill="black"/>
</g>
<defs>
<clipPath id="clip0_61_15576">
<rect width="24" height="24" fill="white" transform="translate(0 0.000976562)"/>
</clipPath>
</defs>
</svg>
