<svg viewBox="0 0 24 24" xmlns="http://www.w3.org/2000/svg">
<g clip-path="url(#clip0_61_15577)">
<path d="M12.35 15.651L15.14 12.861C15.45 12.551 15.23 12.011 14.79 12.011H13V4.00098C13 3.45098 12.55 3.00098 12 3.00098C11.45 3.00098 11 3.45098 11 4.00098V12.001H9.21C8.76 12.001 8.54 12.541 8.86 12.851L11.65 15.641C11.84 15.841 12.16 15.841 12.35 15.651V15.651ZM21 3.00098H15.99C15.45 3.00098 15 3.45098 15 3.99098C15 4.54098 15.45 4.98098 15.99 4.98098H20C20.55 4.98098 21 5.43098 21 5.98098V18.011C21 18.561 20.55 19.011 20 19.011H4C3.45 19.011 3 18.561 3 18.011V5.99098C3 5.44098 3.45 4.99098 4 4.99098H8.01C8.55 4.99098 9 4.54098 9 4.00098C9 3.45098 8.55 3.00098 8.01 3.00098H3C1.9 3.00098 1 3.90098 1 5.00098V19.001C1 20.101 1.9 21.001 3 21.001H21C22.1 21.001 23 20.101 23 19.001V5.00098C23 3.90098 22.1 3.00098 21 3.00098Z"/>
</g>
<defs>
<clipPath id="clip0_61_15577">
<rect transform="translate(0 0.000976562)"/>
</clipPath>
</defs>
</svg>
