<svg viewBox="0 0 24 24" xmlns="http://www.w3.org/2000/svg">
<g clip-path="url(#clip0_61_15578)">
<path d="M21 3.00098H3C1.9 3.00098 1 3.90098 1 5.00098V19.001C1 20.101 1.9 21.001 3 21.001H21C22.1 21.001 23 20.101 23 19.001V5.00098C23 3.90098 22.1 3.00098 21 3.00098ZM20 19.001H4C3.45 19.001 3 18.551 3 18.001V6.00098C3 5.45098 3.45 5.00098 4 5.00098H13V8.00098C13 8.55098 13.45 9.00098 14 9.00098H21V18.001C21 18.551 20.55 19.001 20 19.001Z"/>
</g>
<defs>
<clipPath id="clip0_61_15578">
<rect transform="translate(0 0.000976562)"/>
</clipPath>
</defs>
</svg>
