<svg   viewBox="0 0 24 24" fill="none" xmlns="http://www.w3.org/2000/svg">
<g clip-path="url(#clip0_61_15580)">
<path d="M1 9.00098H3V7.00098H1V9.00098ZM1 13.001H3V11.001H1V13.001ZM1 5.00098H3V3.00098C1.9 3.00098 1 3.90098 1 5.00098ZM9 21.001H11V19.001H9V21.001ZM1 17.001H3V15.001H1V17.001ZM3 21.001V19.001H1C1 20.101 1.9 21.001 3 21.001ZM21 3.00098H13V8.00098C13 8.55098 13.45 9.00098 14 9.00098H23V5.00098C23 3.90098 22.1 3.00098 21 3.00098ZM21 17.001H23V15.001H21V17.001ZM9 5.00098H11V3.00098H9V5.00098ZM5 21.001H7V19.001H5V21.001ZM5 5.00098H7V3.00098H5V5.00098ZM21 21.001C22.1 21.001 23 20.101 23 19.001H21V21.001ZM21 13.001H23V11.001H21V13.001ZM13 21.001H15V19.001H13V21.001ZM17 21.001H19V19.001H17V21.001Z" fill="black"/>
</g>
<defs>
<clipPath id="clip0_61_15580">
<rect width="24" height="24" fill="white" transform="translate(0 0.000976562)"/>
</clipPath>
</defs>
</svg>
