<svg viewBox="0 0 24 24" xmlns="http://www.w3.org/2000/svg">
<g clip-path="url(#clip0_61_15579)">
<path d="M19 7.00098H9C7.9 7.00098 7 7.90098 7 9.00098V19.001C7 20.101 7.9 21.001 9 21.001H19C20.1 21.001 21 20.101 21 19.001V9.00098C21 7.90098 20.1 7.00098 19 7.00098ZM19 10.001C19 10.551 18.55 11.001 18 11.001H10C9.45 11.001 9 10.551 9 10.001C9 9.45098 9.45 9.00098 10 9.00098H18C18.55 9.00098 19 9.45098 19 10.001ZM13 15.001V13.001H15V15.001H13ZM15 17.001V19.001H13V17.001H15ZM11 15.001H9V13.001H11V15.001ZM17 13.001H19V15.001H17V13.001ZM9 17.001H11V19.001H9V17.001ZM17 19.001V17.001H19V19.001H17ZM6 17.001H5C3.9 17.001 3 16.101 3 15.001V5.00098C3 3.90098 3.9 3.00098 5 3.00098H15C16.1 3.00098 17 3.90098 17 5.00098V6.00098H15V5.00098H5V15.001H6V17.001Z"/>
</g>
<defs>
<clipPath id="clip0_61_15579">
<rect transform="translate(0 0.000976562)"/>
</clipPath>
</defs>
</svg>
