<svg viewBox="0 0 24 24" xmlns="http://www.w3.org/2000/svg">
<g clip-path="url(#clip0_61_15584)">
<path d="M17.6111 9.85084L18.1711 10.4108L9.69113 18.9008C9.30113 19.2908 9.30113 19.9208 9.69113 20.3108C10.0811 20.7008 10.7111 20.7008 11.1011 20.3108L19.5911 11.8208L20.1511 12.3808C20.4611 12.7008 21.0011 12.4808 21.0011 12.0408V9.50084C21.0011 9.22084 20.7811 9.00084 20.5011 9.00084H17.9611C17.5211 9.00084 17.3011 9.54084 17.6111 9.85084V9.85084ZM8.48113 12.7508L12.0211 9.21084L13.6211 9.88084C13.9811 10.0308 14.3911 9.95084 14.6711 9.67084C15.1611 9.18084 14.9911 8.36084 14.3511 8.10084L5.26113 4.50084C4.83113 4.34084 4.35113 4.44084 4.03113 4.76084C3.71113 5.08084 3.61113 5.56084 3.78113 5.99084L7.39113 15.0808C7.64113 15.7208 8.47113 15.8908 8.96113 15.4008C9.24113 15.1208 9.32113 14.7108 9.17113 14.3508L8.48113 12.7508V12.7508ZM7.66113 11.0308L5.43113 6.16084L10.3011 8.39084L7.66113 11.0308V11.0308Z"/>
</g>
<defs>
<clipPath id="clip0_61_15584">
<rect transform="translate(0 0.000976562)"/>
</clipPath>
</defs>
</svg>
