<svg viewBox="0 0 24 24" xmlns="http://www.w3.org/2000/svg">
<g clip-path="url(#clip0_61_15582)">
<path d="M14.9986 5.00098C14.5386 5.00098 14.1286 5.27098 13.9486 5.69098L10.0686 14.661C9.79857 15.291 10.2686 16.001 10.9586 16.001C11.3486 16.001 11.6986 15.761 11.8486 15.401L12.5086 13.801H17.5086L18.1686 15.401C18.3186 15.761 18.6686 16.001 19.0586 16.001C19.7486 16.001 20.2086 15.291 19.9386 14.661L16.0586 5.69098C15.8686 5.27098 15.4586 5.00098 14.9986 5.00098ZM13.1286 12.001L14.9986 6.98098L16.8686 12.001H13.1286V12.001ZM6.34857 19.641L8.13857 17.851C8.45857 17.541 8.23857 17.001 7.78857 17.001H6.99857V5.00098C6.99857 4.45098 6.54857 4.00098 5.99857 4.00098C5.44857 4.00098 4.99857 4.44098 4.99857 5.00098V17.001H4.20857C3.75857 17.001 3.53857 17.541 3.85857 17.851L5.64857 19.641C5.83857 19.841 6.15857 19.841 6.34857 19.641V19.641Z"/>
</g>
<defs>
<clipPath id="clip0_61_15582">
<rect transform="translate(0 0.000976562)"/>
</clipPath>
</defs>
</svg>
