<svg   viewBox="0 0 24 24" fill="none" xmlns="http://www.w3.org/2000/svg">
<g clip-path="url(#clip0_61_15583)">
<path d="M15.0009 20.5011V17.9611C15.0009 17.5111 14.4609 17.2911 14.1509 17.6111L13.5909 18.1711L5.10094 9.68113C4.71094 9.29113 4.08094 9.29113 3.69094 9.68113C3.30094 10.0711 3.30094 10.7011 3.69094 11.0911L12.1809 19.5811L11.6209 20.1411C11.3009 20.4611 11.5209 21.0011 11.9609 21.0011H14.5009C14.7809 21.0011 15.0009 20.7711 15.0009 20.5011V20.5011ZM11.2509 8.48113L14.7909 12.0211L14.1209 13.6211C13.9709 13.9811 14.0509 14.3911 14.3309 14.6711C14.8209 15.1611 15.6409 14.9911 15.9009 14.3511L19.5109 5.26113C19.6809 4.84113 19.5809 4.35113 19.2609 4.03113C18.9409 3.71113 18.4609 3.61113 18.0309 3.78113L8.93094 7.38113C8.29094 7.63113 8.12094 8.46113 8.61094 8.95113C8.88094 9.22113 9.29094 9.30113 9.65094 9.15113L11.2509 8.48113V8.48113ZM17.8409 5.43113L15.6109 10.3011L12.9709 7.66113L17.8409 5.43113V5.43113Z" fill="black"/>
</g>
<defs>
<clipPath id="clip0_61_15583">
<rect width="24" height="24" fill="white" transform="translate(0 0.000976562)"/>
</clipPath>
</defs>
</svg>
