<svg   viewBox="0 0 24 24" fill="none" xmlns="http://www.w3.org/2000/svg">
<g clip-path="url(#clip0_61_15585)">
<path d="M6.34857 19.651L8.13857 17.861C8.45857 17.541 8.23857 17.001 7.78857 17.001H6.99857V5.00098C6.99857 4.45098 6.54857 4.00098 5.99857 4.00098C5.44857 4.00098 4.99857 4.45098 4.99857 5.00098V17.001H4.20857C3.75857 17.001 3.53857 17.541 3.85857 17.851L5.64857 19.641C5.83857 19.841 6.15857 19.841 6.34857 19.651V19.651ZM12.1986 8.50098V13.501L10.5986 14.161C10.2386 14.311 9.99857 14.661 9.99857 15.051C9.99857 15.741 10.7086 16.201 11.3386 15.931L20.3086 12.051C20.7286 11.871 20.9986 11.461 20.9986 11.001C20.9986 10.541 20.7286 10.131 20.3086 9.95098L11.3386 6.07098C10.7086 5.80098 9.99857 6.27098 9.99857 6.96098C9.99857 7.35098 10.2386 7.70098 10.5986 7.85098L12.1986 8.50098V8.50098ZM19.0186 11.001L13.9986 12.871V9.13098L19.0186 11.001Z" fill="black"/>
</g>
<defs>
<clipPath id="clip0_61_15585">
<rect width="24" height="24" fill="white" transform="translate(0 0.000976562)"/>
</clipPath>
</defs>
</svg>
