<svg   viewBox="0 0 24 24" fill="none" xmlns="http://www.w3.org/2000/svg">
<g clip-path="url(#clip0_61_15586)">
<path d="M20.65 17.651L18.86 15.861C18.54 15.541 18 15.761 18 16.211V17.001H6C5.45 17.001 5 17.451 5 18.001C5 18.551 5.45 19.001 6 19.001H18V19.791C18 20.241 18.54 20.461 18.85 20.141L20.64 18.351C20.84 18.161 20.84 17.841 20.65 17.651V17.651ZM9.5 11.801H14.5L15.16 13.401C15.31 13.761 15.66 14.001 16.05 14.001C16.74 14.001 17.2 13.291 16.93 12.661L13.05 3.69098C12.87 3.27098 12.46 3.00098 12 3.00098C11.54 3.00098 11.13 3.27098 10.95 3.69098L7.07 12.661C6.8 13.291 7.27 14.001 7.96 14.001C8.35 14.001 8.7 13.761 8.85 13.401L9.5 11.801ZM12 4.98098L13.87 10.001H10.13L12 4.98098Z" fill="black"/>
</g>
<defs>
<clipPath id="clip0_61_15586">
<rect width="24" height="24" fill="white" transform="translate(0 0.000976562)"/>
</clipPath>
</defs>
</svg>
