<svg   viewBox="0 0 24 24" fill="none" xmlns="http://www.w3.org/2000/svg">
<g clip-path="url(#clip0_61_15581)">
<path d="M18.35 4.35117C18.15 4.15117 17.84 4.15117 17.64 4.35117L15.85 6.14117C15.54 6.46117 15.76 7.00117 16.21 7.00117H17V19.0012C17 19.5512 17.45 20.0012 18 20.0012C18.55 20.0012 19 19.5512 19 19.0012V7.00117H19.79C20.24 7.00117 20.46 6.46117 20.14 6.15117L18.35 4.35117V4.35117ZM11.8 15.5012V10.5012L13.4 9.84117C13.76 9.70117 14 9.35117 14 8.96117C14 8.27117 13.29 7.81117 12.66 8.08117L3.69 11.9612C3.27 12.1312 3 12.5412 3 13.0012C3 13.4612 3.27 13.8712 3.69 14.0512L12.66 17.9312C13.29 18.2012 14 17.7312 14 17.0412C14 16.6512 13.76 16.3012 13.4 16.1512L11.8 15.5012V15.5012ZM4.98 13.0012L10 11.1312V14.8712L4.98 13.0012Z" fill="black"/>
</g>
<defs>
<clipPath id="clip0_61_15581">
<rect width="24" height="24" fill="white" transform="translate(0 0.000976562)"/>
</clipPath>
</defs>
</svg>
