<svg viewBox="0 0 24 24" xmlns="http://www.w3.org/2000/svg">
<g clip-path="url(#clip0_61_15587)">
<path d="M18 4.00098V5.00098H16V4.00098C16 3.45098 15.55 3.00098 15 3.00098H9C8.45 3.00098 8 3.45098 8 4.00098V5.00098H6V4.00098C6 3.45098 5.55 3.00098 5 3.00098C4.45 3.00098 4 3.45098 4 4.00098V20.001C4 20.551 4.45 21.001 5 21.001C5.55 21.001 6 20.551 6 20.001V19.001H8V20.001C8 20.551 8.45 21.001 9 21.001H15C15.55 21.001 16 20.551 16 20.001V19.001H18V20.001C18 20.551 18.45 21.001 19 21.001C19.55 21.001 20 20.551 20 20.001V4.00098C20 3.45098 19.55 3.00098 19 3.00098C18.45 3.00098 18 3.45098 18 4.00098ZM8 17.001H6V15.001H8V17.001ZM8 13.001H6V11.001H8V13.001ZM8 9.00098H6V7.00098H8V9.00098ZM18 17.001H16V15.001H18V17.001ZM18 13.001H16V11.001H18V13.001ZM18 9.00098H16V7.00098H18V9.00098Z"/>
</g>
<defs>
<clipPath id="clip0_61_15587">
<rect transform="translate(0 0.000976562)"/>
</clipPath>
</defs>
</svg>
