<svg viewBox="0 0 24 24" xmlns="http://www.w3.org/2000/svg">
<g clip-path="url(#clip0_61_15590)">
<path d="M13.12 2.06095L7.58 7.60095C7.21 7.97095 7 8.48095 7 9.01095V19.0009C7 20.1009 7.9 21.0009 9 21.0009H18C18.8 21.0009 19.52 20.5209 19.84 19.7909L23.1 12.1809C23.94 10.2009 22.49 8.00095 20.34 8.00095H14.69L15.64 3.42095C15.74 2.92095 15.59 2.41095 15.23 2.05095C14.64 1.47095 13.7 1.47095 13.12 2.06095V2.06095ZM3 21.0009C4.1 21.0009 5 20.1009 5 19.0009V11.0009C5 9.90095 4.1 9.00095 3 9.00095C1.9 9.00095 1 9.90095 1 11.0009V19.0009C1 20.1009 1.9 21.0009 3 21.0009Z"/>
</g>
<defs>
<clipPath id="clip0_61_15590">
<rect transform="translate(0 0.000976562)"/>
</clipPath>
</defs>
</svg>
