<svg   viewBox="0 0 24 24" fill="none" xmlns="http://www.w3.org/2000/svg">
<g clip-path="url(#clip0_61_15588)">
<path d="M10.06 5.0007H5.82L6.48 1.8207C6.56 1.4507 6.44 1.0707 6.18 0.800703C5.74 0.360703 5.03 0.360703 4.6 0.800703L0.6 4.8007C0.21 5.1707 0 5.6807 0 6.2107V12.0007C0 13.1007 0.9 14.0007 2 14.0007H7.92C8.72 14.0007 9.44 13.5207 9.76 12.7907L11.9 7.7907C12.46 6.4707 11.49 5.0007 10.06 5.0007ZM22 10.0007H16.08C15.28 10.0007 14.56 10.4807 14.24 11.2107L12.1 16.2107C11.54 17.5307 12.5 19.0007 13.94 19.0007H18.18L17.52 22.1807C17.44 22.5507 17.56 22.9307 17.82 23.2007C18.26 23.6407 18.97 23.6407 19.4 23.2007L23.4 19.2007C23.78 18.8207 23.99 18.3207 23.99 17.7907V12.0007C24 10.9007 23.1 10.0007 22 10.0007Z" fill="black"/>
</g>
<defs>
<clipPath id="clip0_61_15588">
<rect width="24" height="24" fill="white" transform="translate(0 0.000976562)"/>
</clipPath>
</defs>
</svg>
