<svg viewBox="0 0 24 24" xmlns="http://www.w3.org/2000/svg">
<g clip-path="url(#clip0_61_15591)">
<path d="M23 8.00098C23 9.10098 22.1 10.001 21 10.001C20.82 10.001 20.65 9.98098 20.49 9.93098L16.93 13.481C16.98 13.641 17 13.821 17 14.001C17 15.101 16.1 16.001 15 16.001C13.9 16.001 13 15.101 13 14.001C13 13.821 13.02 13.641 13.07 13.481L10.52 10.931C10.36 10.981 10.18 11.001 10 11.001C9.82 11.001 9.64 10.981 9.48 10.931L4.93 15.491C4.98 15.651 5 15.821 5 16.001C5 17.101 4.1 18.001 3 18.001C1.9 18.001 1 17.101 1 16.001C1 14.901 1.9 14.001 3 14.001C3.18 14.001 3.35 14.021 3.51 14.071L8.07 9.52098C8.02 9.36098 8 9.18098 8 9.00098C8 7.90098 8.9 7.00098 10 7.00098C11.1 7.00098 12 7.90098 12 9.00098C12 9.18098 11.98 9.36098 11.93 9.52098L14.48 12.071C14.64 12.021 14.82 12.001 15 12.001C15.18 12.001 15.36 12.021 15.52 12.071L19.07 8.51098C19.02 8.35098 19 8.18098 19 8.00098C19 6.90098 19.9 6.00098 21 6.00098C22.1 6.00098 23 6.90098 23 8.00098ZM23 8.00098C23 9.10098 22.1 10.001 21 10.001C20.82 10.001 20.65 9.98098 20.49 9.93098L16.93 13.481C16.98 13.641 17 13.821 17 14.001C17 15.101 16.1 16.001 15 16.001C13.9 16.001 13 15.101 13 14.001C13 13.821 13.02 13.641 13.07 13.481L10.52 10.931C10.36 10.981 10.18 11.001 10 11.001C9.82 11.001 9.64 10.981 9.48 10.931L4.93 15.491C4.98 15.651 5 15.821 5 16.001C5 17.101 4.1 18.001 3 18.001C1.9 18.001 1 17.101 1 16.001C1 14.901 1.9 14.001 3 14.001C3.18 14.001 3.35 14.021 3.51 14.071L8.07 9.52098C8.02 9.36098 8 9.18098 8 9.00098C8 7.90098 8.9 7.00098 10 7.00098C11.1 7.00098 12 7.90098 12 9.00098C12 9.18098 11.98 9.36098 11.93 9.52098L14.48 12.071C14.64 12.021 14.82 12.001 15 12.001C15.18 12.001 15.36 12.021 15.52 12.071L19.07 8.51098C19.02 8.35098 19 8.18098 19 8.00098C19 6.90098 19.9 6.00098 21 6.00098C22.1 6.00098 23 6.90098 23 8.00098Z"/>
</g>
<defs>
<clipPath id="clip0_61_15591">
<rect transform="translate(0 0.000976562)"/>
</clipPath>
</defs>
</svg>
