<svg viewBox="0 0 24 24" xmlns="http://www.w3.org/2000/svg">
<g clip-path="url(#clip0_61_15592)">
<path d="M4 9.00098H16C16.55 9.00098 17 8.55098 17 8.00098C17 7.45098 16.55 7.00098 16 7.00098H4C3.45 7.00098 3 7.45098 3 8.00098C3 8.55098 3.45 9.00098 4 9.00098ZM4 13.001H16C16.55 13.001 17 12.551 17 12.001C17 11.451 16.55 11.001 16 11.001H4C3.45 11.001 3 11.451 3 12.001C3 12.551 3.45 13.001 4 13.001ZM4 17.001H16C16.55 17.001 17 16.551 17 16.001C17 15.451 16.55 15.001 16 15.001H4C3.45 15.001 3 15.451 3 16.001C3 16.551 3.45 17.001 4 17.001ZM19 17.001H21V15.001H19V17.001ZM19 7.00098V9.00098H21V7.00098H19ZM19 13.001H21V11.001H19V13.001Z"/>
</g>
<defs>
<clipPath id="clip0_61_15592">
<rect transform="translate(0 0.000976562)"/>
</clipPath>
</defs>
</svg>
