<svg viewBox="0 0 24 24" xmlns="http://www.w3.org/2000/svg">
<g clip-path="url(#clip0_61_15593)">
<path d="M19 3.00098H18V2.00098C18 1.45098 17.55 1.00098 17 1.00098C16.45 1.00098 16 1.45098 16 2.00098V3.00098H8V2.00098C8 1.45098 7.55 1.00098 7 1.00098C6.45 1.00098 6 1.45098 6 2.00098V3.00098H5C3.89 3.00098 3.01 3.90098 3.01 5.00098L3 19.001C3 20.101 3.89 21.001 5 21.001H19C20.1 21.001 21 20.101 21 19.001V5.00098C21 3.90098 20.1 3.00098 19 3.00098ZM18 19.001H6C5.45 19.001 5 18.551 5 18.001V8.00098H19V18.001C19 18.551 18.55 19.001 18 19.001ZM8 10.001H11C11.55 10.001 12 10.451 12 11.001V14.001C12 14.551 11.55 15.001 11 15.001H8C7.45 15.001 7 14.551 7 14.001V11.001C7 10.451 7.45 10.001 8 10.001Z"/>
</g>
<defs>
<clipPath id="clip0_61_15593">
<rect transform="translate(0 0.000976562)"/>
</clipPath>
</defs>
</svg>
