<svg   viewBox="0 0 24 24" fill="none" xmlns="http://www.w3.org/2000/svg">
<g clip-path="url(#clip0_61_15594)">
<path d="M15 4.00098C10.58 4.00098 7 7.58098 7 12.001C7 16.421 10.58 20.001 15 20.001C19.42 20.001 23 16.421 23 12.001C23 7.58098 19.42 4.00098 15 4.00098ZM15 18.001C11.69 18.001 9 15.311 9 12.001C9 8.69098 11.69 6.00098 15 6.00098C18.31 6.00098 21 8.69098 21 12.001C21 15.311 18.31 18.001 15 18.001ZM3 12.001C3 9.61098 4.4 7.54098 6.43 6.58098C6.77 6.42098 7 6.11098 7 5.74098V5.55098C7 4.87098 6.29 4.44098 5.68 4.73098C2.92 5.99098 1 8.77098 1 12.001C1 15.231 2.92 18.011 5.68 19.271C6.29 19.551 7 19.131 7 18.451V18.271C7 17.901 6.77 17.581 6.43 17.421C4.4 16.461 3 14.391 3 12.001Z" fill="black"/>
</g>
<defs>
<clipPath id="clip0_61_15594">
<rect width="24" height="24" fill="white" transform="translate(0 0.000976562)"/>
</clipPath>
</defs>
</svg>
