<svg viewBox="0 0 24 24" xmlns="http://www.w3.org/2000/svg">
<g clip-path="url(#clip0_61_15595)">
<path d="M8.78859 9.24098V5.50098C8.78859 4.12098 9.90859 3.00098 11.2886 3.00098C12.6686 3.00098 13.7886 4.12098 13.7886 5.50098V9.24098C14.9986 8.43098 15.7886 7.06098 15.7886 5.50098C15.7886 3.01098 13.7786 1.00098 11.2886 1.00098C8.79859 1.00098 6.78859 3.01098 6.78859 5.50098C6.78859 7.06098 7.57859 8.43098 8.78859 9.24098ZM14.2886 11.711C14.0086 11.571 13.7086 11.501 13.3986 11.501H12.7886V5.50098C12.7886 4.67098 12.1186 4.00098 11.2886 4.00098C10.4586 4.00098 9.78859 4.67098 9.78859 5.50098V16.241L6.34859 15.521C5.97859 15.441 5.58859 15.561 5.31859 15.831C4.88859 16.271 4.88859 16.971 5.31859 17.411L9.32859 21.421C9.70859 21.791 10.2186 22.001 10.7486 22.001H16.8486C17.8486 22.001 18.6886 21.271 18.8286 20.281L19.4586 15.811C19.5786 14.961 19.1386 14.121 18.3686 13.741L14.2886 11.711Z"/>
</g>
<defs>
<clipPath id="clip0_61_15595">
<rect transform="translate(0 0.000976562)"/>
</clipPath>
</defs>
</svg>
