<svg viewBox="0 0 24 24" xmlns="http://www.w3.org/2000/svg">
<g clip-path="url(#clip0_61_15596)">
<path d="M20.45 5.37098C20.71 4.71098 20.23 4.00098 19.52 4.00098H13H12H7V3.00098C7 2.45098 6.55 2.00098 6 2.00098C5.45 2.00098 5 2.45098 5 3.00098V4.00098V14.001V22.001H7V14.001H11H12H19.52C20.23 14.001 20.71 13.291 20.45 12.631L19 9.00098L20.45 5.37098ZM15 9.00098C15 10.101 14.1 11.001 13 11.001C11.9 11.001 11 10.101 11 9.00098C11 7.90098 11.9 7.00098 13 7.00098C14.1 7.00098 15 7.90098 15 9.00098Z"/>
</g>
<defs>
<clipPath id="clip0_61_15596">
<rect transform="translate(0 0.000976562)"/>
</clipPath>
</defs>
</svg>
