<svg   viewBox="0 0 24 24" fill="none" xmlns="http://www.w3.org/2000/svg">
<g clip-path="url(#clip0_61_15597)">
<path d="M18.3199 5.68091C17.9599 6.04091 17.9299 6.60091 18.2499 7.00091C19.6999 8.82091 20.4599 11.3109 19.7799 13.9209C18.9899 16.9709 16.5999 19.2509 13.5699 19.8609C8.4699 20.8709 3.9999 16.9309 3.9999 12.0009C3.9999 7.92091 7.0499 4.56091 10.9999 4.07091V6.09091C7.8699 6.62091 5.5699 9.55091 6.0699 12.9209C6.4599 15.5309 8.6299 17.6309 11.2499 17.9509C14.8899 18.4009 17.9999 15.5609 17.9999 12.0009C17.9999 10.7509 17.6199 9.60091 16.9699 8.64091C16.6299 8.14091 15.8999 8.11091 15.4699 8.53091L15.4599 8.54091C15.1199 8.88091 15.0899 9.41091 15.3499 9.81091C15.9499 10.7309 16.1899 11.9109 15.8399 13.1309C15.4499 14.5009 14.2999 15.5909 12.8999 15.9009C10.2999 16.4709 7.9999 14.5109 7.9999 12.0009C7.9999 10.1409 9.2799 8.59091 10.9999 8.14091V10.2809C10.3999 10.6309 9.9999 11.2609 9.9999 12.0009C9.9999 13.1009 10.8999 14.0009 11.9999 14.0009C13.0999 14.0009 13.9999 13.1009 13.9999 12.0009C13.9999 11.2609 13.5999 10.6209 12.9999 10.2809V2.71091C12.9999 2.32091 12.6799 2.00091 12.2899 2.00091C6.9299 1.80091 2.3099 6.06091 2.0199 11.4009C1.6599 17.9509 7.4299 23.2209 14.0299 21.8009C17.9099 20.9709 20.9099 18.0009 21.7799 14.1309C22.4899 10.9709 21.5799 7.97091 19.8099 5.76091C19.4399 5.29091 18.7399 5.26091 18.3199 5.68091V5.68091Z" fill="black"/>
</g>
<defs>
<clipPath id="clip0_61_15597">
<rect width="24" height="24" fill="white" transform="translate(0 0.000976562)"/>
</clipPath>
</defs>
</svg>
