<svg viewBox="0 0 24 24" xmlns="http://www.w3.org/2000/svg">
<g clip-path="url(#clip0_61_15598)">
<path d="M12.65 15.671C12.79 15.311 12.7 14.901 12.42 14.621L10.33 12.561L10.36 12.531C12.1 10.591 13.34 8.36098 14.07 6.00098H16.01C16.55 6.00098 17 5.55098 17 5.01098V4.99098C17 4.45098 16.55 4.00098 16.01 4.00098H10V3.00098C10 2.45098 9.55 2.00098 9 2.00098C8.45 2.00098 8 2.45098 8 3.00098V4.00098H1.99C1.45 4.00098 1 4.45098 1 4.99098C1 5.54098 1.45 5.98098 1.99 5.98098H12.17C11.5 7.92098 10.44 9.75098 9 11.351C8.19 10.461 7.51 9.49098 6.94 8.47098C6.78 8.18098 6.49 8.00098 6.16 8.00098C5.47 8.00098 5.03 8.75098 5.37 9.35098C6 10.481 6.77 11.561 7.67 12.561L3.3 16.871C2.9 17.261 2.9 17.901 3.3 18.291C3.69 18.681 4.32 18.681 4.72 18.291L9 14.001L11.02 16.021C11.53 16.531 12.4 16.341 12.65 15.671V15.671ZM17.5 10.001C16.9 10.001 16.36 10.371 16.15 10.941L12.48 20.741C12.24 21.351 12.7 22.001 13.35 22.001C13.74 22.001 14.09 21.761 14.23 21.391L15.12 19.001H19.87L20.77 21.391C20.91 21.751 21.26 22.001 21.65 22.001C22.3 22.001 22.76 21.351 22.53 20.741L18.86 10.941C18.64 10.371 18.1 10.001 17.5 10.001V10.001ZM15.88 17.001L17.5 12.671L19.12 17.001H15.88V17.001Z"/>
</g>
<defs>
<clipPath id="clip0_61_15598">
<rect transform="translate(0 0.000976562)"/>
</clipPath>
</defs>
</svg>
