<svg   viewBox="0 0 24 24" fill="none" xmlns="http://www.w3.org/2000/svg">
<g clip-path="url(#clip0_61_15599)">
<path d="M16.8505 17.1507L18.2905 15.7107L13.4105 10.8307L10.1205 14.1207C9.73047 14.5107 9.10047 14.5107 8.71047 14.1207L2.71047 8.1107C2.32047 7.7207 2.32047 7.0907 2.71047 6.7007C3.10047 6.3107 3.73047 6.3107 4.12047 6.7007L9.41047 12.0007L12.7005 8.7107C13.0905 8.3207 13.7205 8.3207 14.1105 8.7107L19.7005 14.2907L21.1405 12.8507C21.4505 12.5407 21.9905 12.7607 21.9905 13.2007V17.4907C21.9905 17.7707 21.7705 17.9907 21.4905 17.9907H17.2005C16.7605 18.0007 16.5405 17.4607 16.8505 17.1507V17.1507Z" fill="black"/>
</g>
<defs>
<clipPath id="clip0_61_15599">
<rect width="24" height="24" fill="white" transform="translate(0 0.000976562)"/>
</clipPath>
</defs>
</svg>
