<svg viewBox="0 0 24 24" xmlns="http://www.w3.org/2000/svg">
<g clip-path="url(#clip0_61_15601)">
<path d="M16.8505 6.85098L18.2905 8.29098L13.4105 13.171L10.1205 9.88098C9.73047 9.49098 9.10047 9.49098 8.71047 9.88098L2.71047 15.891C2.32047 16.281 2.32047 16.911 2.71047 17.301C3.10047 17.691 3.73047 17.691 4.12047 17.301L9.41047 12.001L12.7005 15.291C13.0905 15.681 13.7205 15.681 14.1105 15.291L19.7005 9.71098L21.1405 11.151C21.4505 11.461 21.9905 11.241 21.9905 10.801V6.50098C22.0005 6.22098 21.7805 6.00098 21.5005 6.00098H17.2105C16.7605 6.00098 16.5405 6.54098 16.8505 6.85098V6.85098Z"/>
</g>
<defs>
<clipPath id="clip0_61_15601">
<rect transform="translate(0 0.000976562)"/>
</clipPath>
</defs>
</svg>
