<svg   viewBox="0 0 24 24" fill="none" xmlns="http://www.w3.org/2000/svg">
<g clip-path="url(#clip0_61_15604)">
<path d="M20.4911 20.4908L3.51109 3.51076C3.12109 3.12076 2.49109 3.12076 2.10109 3.51076C1.71109 3.90076 1.71109 4.53076 2.10109 4.92076L3.66109 6.48076C2.41109 8.36076 1.78109 10.6908 2.07109 13.1808C2.60109 17.7208 6.28109 21.4008 10.8111 21.9208C13.3011 22.2108 15.6211 21.5808 17.5111 20.3308L19.0711 21.8908C19.4611 22.2808 20.0911 22.2808 20.4811 21.8908C20.8811 21.5108 20.8811 20.8808 20.4911 20.4908ZM9.88109 15.8908L7.05109 13.0608C6.66109 12.6708 6.66109 12.0408 7.05109 11.6508C7.44109 11.2608 8.07109 11.2608 8.46109 11.6508L10.5811 13.7708L10.7611 13.5908L12.1711 15.0008L11.2911 15.8808C10.9011 16.2808 10.2711 16.2808 9.88109 15.8908ZM13.5911 10.7608L6.49109 3.66076C8.37109 2.41076 10.7011 1.78076 13.1911 2.07076C17.7311 2.60076 21.4111 6.28076 21.9311 10.8108C22.2211 13.3008 21.5911 15.6308 20.3411 17.5108L15.0011 12.1708L16.9411 10.2308C17.3311 9.84076 17.3311 9.21076 16.9411 8.82076C16.5511 8.43076 15.9211 8.43076 15.5311 8.82076L13.5911 10.7608Z" fill="black"/>
</g>
<defs>
<clipPath id="clip0_61_15604">
<rect width="24" height="24" fill="white" transform="translate(0 0.000976562)"/>
</clipPath>
</defs>
</svg>
