<svg viewBox="0 0 24 24" xmlns="http://www.w3.org/2000/svg">
<g clip-path="url(#clip0_61_15606)">
<path d="M16 19.0013C16 19.5513 15.55 20.0013 15 20.0013H9C8.45 20.0013 8 19.5513 8 19.0013C8 18.4513 8.45 18.0013 9 18.0013H15C15.55 18.0013 16 18.4513 16 19.0013ZM11 7.99125V15.0013C11 15.5513 11.45 16.0013 12 16.0013C12.55 16.0013 13 15.5513 13 15.0013V7.99125H14.79C15.24 7.99125 15.46 7.45125 15.14 7.14125L12.35 4.36125C12.15 4.17125 11.84 4.17125 11.64 4.36125L8.86 7.14125C8.54 7.45125 8.76 7.99125 9.21 7.99125H11Z"/>
</g>
<defs>
<clipPath id="clip0_61_15606">
<rect transform="translate(0 0.000976562)"/>
</clipPath>
</defs>
</svg>
