<svg   viewBox="0 0 24 24" fill="none" xmlns="http://www.w3.org/2000/svg">
<g clip-path="url(#clip0_61_15607)">
<path d="M23 12.001L20.56 9.21098L20.9 5.52098L17.29 4.70098L15.4 1.50098L12 2.96098L8.6 1.50098L6.71 4.69098L3.1 5.50098L3.44 9.20098L1 12.001L3.44 14.791L3.1 18.491L6.71 19.311L8.6 22.501L12 21.031L15.4 22.491L17.29 19.301L20.9 18.481L20.56 14.791L23 12.001ZM9.38 16.011L7 13.611C6.61 13.221 6.61 12.591 7 12.201L7.07 12.131C7.46 11.741 8.1 11.741 8.49 12.131L10.1 13.751L15.25 8.59098C15.64 8.20098 16.28 8.20098 16.67 8.59098L16.74 8.66098C17.13 9.05098 17.13 9.68098 16.74 10.071L10.82 16.011C10.41 16.401 9.78 16.401 9.38 16.011Z" fill="black"/>
</g>
<defs>
<clipPath id="clip0_61_15607">
<rect width="24" height="24" fill="white" transform="translate(0 0.000976562)"/>
</clipPath>
</defs>
</svg>
