<svg   viewBox="0 0 24 24" fill="none" xmlns="http://www.w3.org/2000/svg">
<g clip-path="url(#clip0_61_15608)">
<path d="M11.19 1.36098L4.19 4.47098C3.47 4.79098 3 5.51098 3 6.30098V11.001C3 16.551 6.84 21.741 12 23.001C17.16 21.741 21 16.551 21 11.001V6.30098C21 5.51098 20.53 4.79098 19.81 4.47098L12.81 1.36098C12.3 1.13098 11.7 1.13098 11.19 1.36098V1.36098ZM9.29 16.291L6.7 13.701C6.31 13.311 6.31 12.681 6.7 12.291C7.09 11.901 7.72 11.901 8.11 12.291L10 14.171L15.88 8.29098C16.27 7.90098 16.9 7.90098 17.29 8.29098C17.68 8.68098 17.68 9.31098 17.29 9.70098L10.7 16.291C10.32 16.681 9.68 16.681 9.29 16.291Z" fill="black"/>
</g>
<defs>
<clipPath id="clip0_61_15608">
<rect width="24" height="24" fill="white" transform="translate(0 0.000976562)"/>
</clipPath>
</defs>
</svg>
