<svg viewBox="0 0 24 24" xmlns="http://www.w3.org/2000/svg">
<g clip-path="url(#clip0_61_15609)">
<path d="M4 15.001H10C10.55 15.001 11 14.551 11 14.001C11 13.451 10.55 13.001 10 13.001H4C3.45 13.001 3 13.451 3 14.001C3 14.551 3.45 15.001 4 15.001ZM4 19.001H10C10.55 19.001 11 18.551 11 18.001C11 17.451 10.55 17.001 10 17.001H4C3.45 17.001 3 17.451 3 18.001C3 18.551 3.45 19.001 4 19.001ZM4 11.001H10C10.55 11.001 11 10.551 11 10.001C11 9.45098 10.55 9.00098 10 9.00098H4C3.45 9.00098 3 9.45098 3 10.001C3 10.551 3.45 11.001 4 11.001ZM3 6.00098C3 6.55098 3.45 7.00098 4 7.00098H10C10.55 7.00098 11 6.55098 11 6.00098C11 5.45098 10.55 5.00098 10 5.00098H4C3.45 5.00098 3 5.45098 3 6.00098ZM14 5.00098H20C20.55 5.00098 21 5.45098 21 6.00098V18.001C21 18.551 20.55 19.001 20 19.001H14C13.45 19.001 13 18.551 13 18.001V6.00098C13 5.45098 13.45 5.00098 14 5.00098Z"/>
</g>
<defs>
<clipPath id="clip0_61_15609">
<rect transform="translate(0 0.000976562)"/>
</clipPath>
</defs>
</svg>
