<svg   viewBox="0 0 24 24" fill="none" xmlns="http://www.w3.org/2000/svg">
<g clip-path="url(#clip0_61_15619)">
<path d="M15 20.001H3C2.45 20.001 2 19.551 2 19.001V5.00098C2 4.45098 2.45 4.00098 3 4.00098H15C15.55 4.00098 16 4.45098 16 5.00098V19.001C16 19.551 15.55 20.001 15 20.001ZM19 8.00098H21C21.55 8.00098 22 7.55098 22 7.00098V5.00098C22 4.45098 21.55 4.00098 21 4.00098H19C18.45 4.00098 18 4.45098 18 5.00098V7.00098C18 7.55098 18.45 8.00098 19 8.00098ZM19 20.001H21C21.55 20.001 22 19.551 22 19.001V17.001C22 16.451 21.55 16.001 21 16.001H19C18.45 16.001 18 16.451 18 17.001V19.001C18 19.551 18.45 20.001 19 20.001ZM19 14.001H21C21.55 14.001 22 13.551 22 13.001V11.001C22 10.451 21.55 10.001 21 10.001H19C18.45 10.001 18 10.451 18 11.001V13.001C18 13.551 18.45 14.001 19 14.001Z" fill="black"/>
</g>
<defs>
<clipPath id="clip0_61_15619">
<rect width="24" height="24" fill="white" transform="translate(0 0.000976562)"/>
</clipPath>
</defs>
</svg>
