<svg viewBox="0 0 24 24" xmlns="http://www.w3.org/2000/svg">
<g clip-path="url(#clip0_61_15617)">
<path d="M5 11.001H8C8.55 11.001 9 10.551 9 10.001V6.00098C9 5.45098 8.55 5.00098 8 5.00098H5C4.45 5.00098 4 5.45098 4 6.00098V10.001C4 10.551 4.45 11.001 5 11.001ZM5 18.001H8C8.55 18.001 9 17.551 9 17.001V13.001C9 12.451 8.55 12.001 8 12.001H5C4.45 12.001 4 12.451 4 13.001V17.001C4 17.551 4.45 18.001 5 18.001ZM11 18.001H14C14.55 18.001 15 17.551 15 17.001V13.001C15 12.451 14.55 12.001 14 12.001H11C10.45 12.001 10 12.451 10 13.001V17.001C10 17.551 10.45 18.001 11 18.001ZM17 18.001H20C20.55 18.001 21 17.551 21 17.001V13.001C21 12.451 20.55 12.001 20 12.001H17C16.45 12.001 16 12.451 16 13.001V17.001C16 17.551 16.45 18.001 17 18.001ZM11 11.001H14C14.55 11.001 15 10.551 15 10.001V6.00098C15 5.45098 14.55 5.00098 14 5.00098H11C10.45 5.00098 10 5.45098 10 6.00098V10.001C10 10.551 10.45 11.001 11 11.001ZM16 6.00098V10.001C16 10.551 16.45 11.001 17 11.001H20C20.55 11.001 21 10.551 21 10.001V6.00098C21 5.45098 20.55 5.00098 20 5.00098H17C16.45 5.00098 16 5.45098 16 6.00098Z"/>
</g>
<defs>
<clipPath id="clip0_61_15617">
<rect transform="translate(0 0.000976562)"/>
</clipPath>
</defs>
</svg>
