<svg   viewBox="0 0 24 24" fill="none" xmlns="http://www.w3.org/2000/svg">
<g clip-path="url(#clip0_61_15610)">
<path d="M20 13.001H3C2.45 13.001 2 13.451 2 14.001V20.001C2 20.551 2.45 21.001 3 21.001H20C20.55 21.001 21 20.551 21 20.001V14.001C21 13.451 20.55 13.001 20 13.001ZM20 3.00098H3C2.45 3.00098 2 3.45098 2 4.00098V10.001C2 10.551 2.45 11.001 3 11.001H20C20.55 11.001 21 10.551 21 10.001V4.00098C21 3.45098 20.55 3.00098 20 3.00098Z" fill="black"/>
</g>
<defs>
<clipPath id="clip0_61_15610">
<rect width="24" height="24" fill="white" transform="translate(0 0.000976562)"/>
</clipPath>
</defs>
</svg>
