<svg   viewBox="0 0 24 24" fill="none" xmlns="http://www.w3.org/2000/svg">
<g clip-path="url(#clip0_61_15613)">
<path d="M11 18.001H14C14.55 18.001 15 17.551 15 17.001V6.00098C15 5.45098 14.55 5.00098 14 5.00098H11C10.45 5.00098 10 5.45098 10 6.00098V17.001C10 17.551 10.45 18.001 11 18.001ZM5 18.001H8C8.55 18.001 9 17.551 9 17.001V6.00098C9 5.45098 8.55 5.00098 8 5.00098H5C4.45 5.00098 4 5.45098 4 6.00098V17.001C4 17.551 4.45 18.001 5 18.001ZM16 6.00098V17.001C16 17.551 16.45 18.001 17 18.001H20C20.55 18.001 21 17.551 21 17.001V6.00098C21 5.45098 20.55 5.00098 20 5.00098H17C16.45 5.00098 16 5.45098 16 6.00098Z" fill="black"/>
</g>
<defs>
<clipPath id="clip0_61_15613">
<rect width="24" height="24" fill="white" transform="translate(0 0.000976562)"/>
</clipPath>
</defs>
</svg>
