<svg viewBox="0 0 24 24" xmlns="http://www.w3.org/2000/svg">
<g clip-path="url(#clip0_61_15620)">
<path d="M5 18.001H20C20.55 18.001 21 17.551 21 17.001V13.001C21 12.451 20.55 12.001 20 12.001H5C4.45 12.001 4 12.451 4 13.001V17.001C4 17.551 4.45 18.001 5 18.001ZM4 6.00098V10.001C4 10.551 4.45 11.001 5 11.001H20C20.55 11.001 21 10.551 21 10.001V6.00098C21 5.45098 20.55 5.00098 20 5.00098H5C4.45 5.00098 4 5.45098 4 6.00098Z"/>
</g>
<defs>
<clipPath id="clip0_61_15620">
<rect transform="translate(0 0.000976562)"/>
</clipPath>
</defs>
</svg>
