<svg   viewBox="0 0 24 24" fill="none" xmlns="http://www.w3.org/2000/svg">
<g clip-path="url(#clip0_61_15616)">
<path d="M4 14.001H6C6.55 14.001 7 13.551 7 13.001V11.001C7 10.451 6.55 10.001 6 10.001H4C3.45 10.001 3 10.451 3 11.001V13.001C3 13.551 3.45 14.001 4 14.001ZM4 19.001H6C6.55 19.001 7 18.551 7 18.001V16.001C7 15.451 6.55 15.001 6 15.001H4C3.45 15.001 3 15.451 3 16.001V18.001C3 18.551 3.45 19.001 4 19.001ZM4 9.00098H6C6.55 9.00098 7 8.55098 7 8.00098V6.00098C7 5.45098 6.55 5.00098 6 5.00098H4C3.45 5.00098 3 5.45098 3 6.00098V8.00098C3 8.55098 3.45 9.00098 4 9.00098ZM9 14.001H19C19.55 14.001 20 13.551 20 13.001V11.001C20 10.451 19.55 10.001 19 10.001H9C8.45 10.001 8 10.451 8 11.001V13.001C8 13.551 8.45 14.001 9 14.001ZM9 19.001H19C19.55 19.001 20 18.551 20 18.001V16.001C20 15.451 19.55 15.001 19 15.001H9C8.45 15.001 8 15.451 8 16.001V18.001C8 18.551 8.45 19.001 9 19.001ZM8 6.00098V8.00098C8 8.55098 8.45 9.00098 9 9.00098H19C19.55 9.00098 20 8.55098 20 8.00098V6.00098C20 5.45098 19.55 5.00098 19 5.00098H9C8.45 5.00098 8 5.45098 8 6.00098Z" fill="black"/>
</g>
<defs>
<clipPath id="clip0_61_15616">
<rect width="24" height="24" fill="white" transform="translate(0 0.000976562)"/>
</clipPath>
</defs>
</svg>
