<svg   viewBox="0 0 24 24" fill="none" xmlns="http://www.w3.org/2000/svg">
<g clip-path="url(#clip0_61_15611)">
<path d="M5 18.001H6C6.55 18.001 7 17.551 7 17.001V6.00098C7 5.45098 6.55 5.00098 6 5.00098H5C4.45 5.00098 4 5.45098 4 6.00098V17.001C4 17.551 4.45 18.001 5 18.001ZM18 6.00098V17.001C18 17.551 18.45 18.001 19 18.001H20C20.55 18.001 21 17.551 21 17.001V6.00098C21 5.45098 20.55 5.00098 20 5.00098H19C18.45 5.00098 18 5.45098 18 6.00098ZM9 18.001H16C16.55 18.001 17 17.551 17 17.001V6.00098C17 5.45098 16.55 5.00098 16 5.00098H9C8.45 5.00098 8 5.45098 8 6.00098V17.001C8 17.551 8.45 18.001 9 18.001Z" fill="black"/>
</g>
<defs>
<clipPath id="clip0_61_15611">
<rect width="24" height="24" fill="white" transform="translate(0 0.000976562)"/>
</clipPath>
</defs>
</svg>
