<svg   viewBox="0 0 24 24" fill="none" xmlns="http://www.w3.org/2000/svg">
<g clip-path="url(#clip0_61_15621)">
<path d="M6 5.00098H3C2.45 5.00098 2 5.45098 2 6.00098V18.001C2 18.551 2.45 19.001 3 19.001H6C6.55 19.001 7 18.551 7 18.001V6.00098C7 5.45098 6.55 5.00098 6 5.00098ZM20 5.00098H17C16.45 5.00098 16 5.45098 16 6.00098V18.001C16 18.551 16.45 19.001 17 19.001H20C20.55 19.001 21 18.551 21 18.001V6.00098C21 5.45098 20.55 5.00098 20 5.00098ZM13 5.00098H10C9.45 5.00098 9 5.45098 9 6.00098V18.001C9 18.551 9.45 19.001 10 19.001H13C13.55 19.001 14 18.551 14 18.001V6.00098C14 5.45098 13.55 5.00098 13 5.00098Z" fill="black"/>
</g>
<defs>
<clipPath id="clip0_61_15621">
<rect width="24" height="24" fill="white" transform="translate(0 0.000976562)"/>
</clipPath>
</defs>
</svg>
