<svg   viewBox="0 0 24 24" fill="none" xmlns="http://www.w3.org/2000/svg">
<g clip-path="url(#clip0_61_15612)">
<path d="M8 19.001H16C16.55 19.001 17 18.551 17 18.001V5.00098C17 4.45098 16.55 4.00098 16 4.00098H8C7.45 4.00098 7 4.45098 7 5.00098V18.001C7 18.551 7.45 19.001 8 19.001ZM3 17.001H5C5.55 17.001 6 16.551 6 16.001V7.00098C6 6.45098 5.55 6.00098 5 6.00098H3C2.45 6.00098 2 6.45098 2 7.00098V16.001C2 16.551 2.45 17.001 3 17.001ZM18 7.00098V16.001C18 16.551 18.45 17.001 19 17.001H21C21.55 17.001 22 16.551 22 16.001V7.00098C22 6.45098 21.55 6.00098 21 6.00098H19C18.45 6.00098 18 6.45098 18 7.00098Z" fill="black"/>
</g>
<defs>
<clipPath id="clip0_61_15612">
<rect width="24" height="24" fill="white" transform="translate(0 0.000976562)"/>
</clipPath>
</defs>
</svg>
