<svg   viewBox="0 0 24 24" fill="none" xmlns="http://www.w3.org/2000/svg">
<g clip-path="url(#clip0_61_15622)">
<path d="M12 4.00098C7 4.00098 2.73 7.11098 1 11.501C2.73 15.891 7 19.001 12 19.001C17 19.001 21.27 15.891 23 11.501C21.27 7.11098 17 4.00098 12 4.00098ZM12 16.501C9.24 16.501 7 14.261 7 11.501C7 8.74098 9.24 6.50098 12 6.50098C14.76 6.50098 17 8.74098 17 11.501C17 14.261 14.76 16.501 12 16.501ZM12 8.50098C10.34 8.50098 9 9.84098 9 11.501C9 13.161 10.34 14.501 12 14.501C13.66 14.501 15 13.161 15 11.501C15 9.84098 13.66 8.50098 12 8.50098Z" fill="black"/>
</g>
<defs>
<clipPath id="clip0_61_15622">
<rect width="24" height="24" fill="white" transform="translate(0 0.000976562)"/>
</clipPath>
</defs>
</svg>
