<svg   viewBox="0 0 24 24" fill="none" xmlns="http://www.w3.org/2000/svg">
<g clip-path="url(#clip0_61_15623)">
<path d="M12 6.50066C14.76 6.50066 17 8.74066 17 11.5007C17 12.0107 16.9 12.5007 16.76 12.9607L19.82 16.0207C21.21 14.7907 22.31 13.2507 23 11.4907C21.27 7.11066 17 4.00066 12 4.00066C10.73 4.00066 9.51 4.20066 8.36 4.57066L10.53 6.74066C11 6.60066 11.49 6.50066 12 6.50066ZM2.71 3.16066C2.32 3.55066 2.32 4.18066 2.71 4.57066L4.68 6.54066C3.06 7.83066 1.77 9.53066 1 11.5007C2.73 15.8907 7 19.0007 12 19.0007C13.52 19.0007 14.97 18.7007 16.31 18.1807L19.03 20.9007C19.42 21.2907 20.05 21.2907 20.44 20.9007C20.83 20.5107 20.83 19.8807 20.44 19.4907L4.13 3.16066C3.74 2.77066 3.1 2.77066 2.71 3.16066ZM12 16.5007C9.24 16.5007 7 14.2607 7 11.5007C7 10.7307 7.18 10.0007 7.49 9.36066L9.06 10.9307C9.03 11.1107 9 11.3007 9 11.5007C9 13.1607 10.34 14.5007 12 14.5007C12.2 14.5007 12.38 14.4707 12.57 14.4307L14.14 16.0007C13.49 16.3207 12.77 16.5007 12 16.5007ZM14.97 11.1707C14.82 9.77066 13.72 8.68066 12.33 8.53066L14.97 11.1707Z" fill="black"/>
</g>
<defs>
<clipPath id="clip0_61_15623">
<rect width="24" height="24" fill="white" transform="translate(0 0.000976562)"/>
</clipPath>
</defs>
</svg>
