<svg viewBox="0 0 24 24" xmlns="http://www.w3.org/2000/svg">
<g clip-path="url(#clip0_61_15624)">
<path d="M15.72 6.41114C15.37 6.76114 15.28 7.29114 15.47 7.76114C15.77 8.51114 15.79 9.34114 15.52 10.1011C15.36 10.5611 15.46 11.0811 15.81 11.4211C16.41 12.0211 17.47 11.8911 17.83 11.1111C18.47 9.72114 18.43 8.12114 17.71 6.70114C17.31 5.95114 16.3 5.82114 15.72 6.41114V6.41114ZM19.18 2.89114C18.78 3.29114 18.72 3.91114 19.05 4.37114C20.98 7.05114 21 10.6211 19.14 13.4411C18.83 13.9011 18.91 14.5211 19.3 14.9111C19.81 15.4211 20.68 15.3711 21.11 14.7811C23.68 11.2711 23.63 6.58114 20.94 3.01114C20.51 2.45114 19.68 2.39114 19.18 2.89114V2.89114ZM9.43 5.04114L12.96 8.57114C12.76 6.71114 11.29 5.24114 9.43 5.04114V5.04114ZM3.71 3.56114C3.32 3.95114 3.32 4.58114 3.71 4.97114L5.62 6.88114C5.06 7.77114 4.83 8.89114 5.15 10.0811C5.51 11.4111 6.59 12.4811 7.92 12.8511C9.11 13.1811 10.23 12.9411 11.12 12.3811L15.52 16.7811C13.74 15.6011 10.78 15.0011 9 15.0011C6.33 15.0011 1 16.3411 1 19.0011V20.0011C1 20.5511 1.45 21.0011 2 21.0011H16C16.55 21.0011 17 20.5511 17 20.0011V19.0011C17 18.6311 16.89 18.3011 16.71 17.9811L19.02 20.2911C19.41 20.6811 20.04 20.6811 20.43 20.2911C20.82 19.9011 20.82 19.2711 20.43 18.8811L5.12 3.56114C4.73 3.17114 4.1 3.17114 3.71 3.56114Z"/>
</g>
<defs>
<clipPath id="clip0_61_15624">
<rect transform="translate(0 0.000976562)"/>
</clipPath>
</defs>
</svg>
