<svg viewBox="0 0 24 24" xmlns="http://www.w3.org/2000/svg">
<g clip-path="url(#clip0_61_15625)">
<path d="M12 2.00098C6.5 2.00098 2 6.50098 2 12.001C2 17.501 6.5 22.001 12 22.001C17.5 22.001 22 17.501 22 12.001C22 6.50098 17.5 2.00098 12 2.00098ZM15.55 15.801L11.47 13.291C11.17 13.111 10.99 12.791 10.99 12.441V7.75098C11 7.34098 11.34 7.00098 11.75 7.00098C12.16 7.00098 12.5 7.34098 12.5 7.75098V12.201L16.34 14.511C16.7 14.731 16.82 15.201 16.6 15.561C16.38 15.911 15.91 16.021 15.55 15.801Z"/>
</g>
<defs>
<clipPath id="clip0_61_15625">
<rect transform="translate(0 0.000976562)"/>
</clipPath>
</defs>
</svg>
