<svg viewBox="0 0 24 24" xmlns="http://www.w3.org/2000/svg">
<g clip-path="url(#clip0_61_15626)">
<path d="M16.7 5.30074L18.14 3.86074C18.46 3.54074 18.23 3.01074 17.79 3.01074H11.5C11.22 3.01074 11 3.23074 11 3.51074V9.80074C11 10.2507 11.54 10.4707 11.85 10.1507L13.3 8.70074C15.27 10.1607 16.55 12.4807 16.55 15.1207C16.55 15.7807 16.47 16.4307 16.31 17.0407C16.19 17.5407 16.79 17.9007 17.15 17.5307C18.63 16.0007 19.55 13.9207 19.55 11.6207C19.55 9.11074 18.44 6.86074 16.7 5.30074Z"/>
<path d="M12.1492 13.8605L10.6992 15.3005C8.72922 13.8405 7.44922 11.5205 7.44922 8.88049C7.44922 8.22049 7.52922 7.57049 7.68922 6.96049C7.80922 6.46049 7.20922 6.10049 6.84922 6.47049C5.36922 8.00049 4.44922 10.0805 4.44922 12.3805C4.44922 14.9005 5.54922 17.1505 7.28922 18.7105L5.84922 20.1505C5.52922 20.4705 5.75922 21.0005 6.19922 21.0005H12.4892C12.7692 21.0005 12.9892 20.7805 12.9892 20.5005V14.2105C12.9992 13.7705 12.4592 13.5405 12.1492 13.8605Z"/>
</g>
<defs>
<clipPath id="clip0_61_15626">
<rect transform="translate(0 0.000976562)"/>
</clipPath>
</defs>
</svg>
