<svg viewBox="0 0 24 24" xmlns="http://www.w3.org/2000/svg">
<g clip-path="url(#clip0_61_15629)">
<path d="M14 6.00098V4.00098H10V6.00098H14ZM4 9.00098V18.001C4 18.551 4.45 19.001 5 19.001H19C19.55 19.001 20 18.551 20 18.001V9.00098C20 8.45098 19.55 8.00098 19 8.00098H5C4.45 8.00098 4 8.45098 4 9.00098ZM20 6.00098C21.11 6.00098 22 6.89098 22 8.00098V19.001C22 20.111 21.11 21.001 20 21.001H4C2.89 21.001 2 20.111 2 19.001L2.01 8.00098C2.01 6.89098 2.89 6.00098 4 6.00098H8V4.00098C8 2.89098 8.89 2.00098 10 2.00098H14C15.11 2.00098 16 2.89098 16 4.00098V6.00098H20Z"/>
</g>
<defs>
<clipPath id="clip0_61_15629">
<rect transform="translate(0 0.000976562)"/>
</clipPath>
</defs>
</svg>
