<svg viewBox="0 0 24 24" xmlns="http://www.w3.org/2000/svg">
<g clip-path="url(#clip0_61_15628)">
<path d="M4.11 2.54098C3.72 2.15098 3.09 2.15098 2.7 2.54098C2.31 2.93098 2.31 3.56098 2.7 3.95098L4.74 6.00098H4C2.89 6.00098 2.01 6.89098 2.01 8.00098L2 19.001C2 20.111 2.89 21.001 4 21.001H19.74L21.03 22.291C21.42 22.681 22.05 22.681 22.44 22.291C22.83 21.901 22.83 21.271 22.44 20.881L4.11 2.54098ZM10 4.00098H14V6.00098H10.4L22 17.601V8.00098C22 6.89098 21.11 6.00098 20 6.00098H16V4.00098C16 2.89098 15.11 2.00098 14 2.00098H10C9.01 2.00098 8.2 2.70098 8.04 3.64098L10 5.60098V4.00098Z"/>
</g>
<defs>
<clipPath id="clip0_61_15628">
<rect transform="translate(0 0.000976562)"/>
</clipPath>
</defs>
</svg>
