<svg   viewBox="0 0 24 24" fill="none" xmlns="http://www.w3.org/2000/svg">
<g clip-path="url(#clip0_61_15630)">
<path d="M19 3.00098H5C3.89 3.00098 3 3.90098 3 5.00098V19.001C3 20.101 3.89 21.001 5 21.001H19C20.1 21.001 21 20.101 21 19.001V5.00098C21 3.90098 20.11 3.00098 19 3.00098ZM19 19.001H5V7.00098H19V19.001ZM16 12.001H8C7.45 12.001 7 11.551 7 11.001C7 10.451 7.45 10.001 8 10.001H16C16.55 10.001 17 10.451 17 11.001C17 11.551 16.55 12.001 16 12.001ZM12 16.001H8C7.45 16.001 7 15.551 7 15.001C7 14.451 7.45 14.001 8 14.001H12C12.55 14.001 13 14.451 13 15.001C13 15.551 12.55 16.001 12 16.001Z" fill="black"/>
</g>
<defs>
<clipPath id="clip0_61_15630">
<rect width="24" height="24" fill="white" transform="translate(0 0.000976562)"/>
</clipPath>
</defs>
</svg>
