<svg viewBox="0 0 24 24" xmlns="http://www.w3.org/2000/svg">
<g clip-path="url(#clip0_61_15631)">
<path d="M17.0092 14.0008H16.2092L15.9392 13.7308C17.0892 12.3908 17.6992 10.5908 17.4492 8.64076C17.1092 6.00076 15.0992 3.78076 12.4992 3.18076C8.25924 2.20076 4.50924 5.53076 4.50924 9.50076H2.40924C1.93924 9.50076 1.72924 10.0908 2.09924 10.3908L5.49924 13.1408C5.68924 13.3408 6.00924 13.3508 6.20924 13.1508L9.10924 10.3608C9.42924 10.0508 9.20924 9.50076 8.75924 9.50076H6.50924C6.50924 7.01076 8.50924 5.02076 10.9692 5.00076C13.4092 4.98076 15.5092 7.05076 15.5092 9.49076C15.5092 11.9708 13.4892 14.0008 11.0092 14.0008C10.5592 14.0008 10.1192 13.9308 9.70924 13.8108C9.36924 13.7108 8.99924 13.8108 8.74924 14.0708C8.21924 14.6008 8.42924 15.5208 9.13924 15.7308C9.72924 15.9008 10.3592 16.0008 11.0092 16.0008C12.6192 16.0008 14.0892 15.4108 15.2292 14.4308L15.4992 14.7008V15.4908L19.7692 19.7408C20.1792 20.1508 20.8392 20.1508 21.2492 19.7408C21.6592 19.3308 21.6592 18.6608 21.2492 18.2508L17.0092 14.0008Z"/>
</g>
<defs>
<clipPath id="clip0_61_15631">
<rect transform="translate(0 0.000976562)"/>
</clipPath>
</defs>
</svg>
