<svg viewBox="0 0 24 24" xmlns="http://www.w3.org/2000/svg">
<g clip-path="url(#clip0_61_15633)">
<path d="M15.5006 14.0006H14.7106L14.4306 13.7306C15.6306 12.3306 16.2506 10.4206 15.9106 8.39063C15.4406 5.61063 13.1206 3.39063 10.3206 3.05063C6.09063 2.53063 2.53063 6.09063 3.05063 10.3206C3.39063 13.1206 5.61063 15.4406 8.39063 15.9106C10.4206 16.2506 12.3306 15.6306 13.7306 14.4306L14.0006 14.7106V15.5006L18.2606 19.7506C18.6706 20.1606 19.3306 20.1606 19.7406 19.7506L19.7506 19.7406C20.1606 19.3306 20.1606 18.6706 19.7506 18.2606L15.5006 14.0006ZM9.50063 14.0006C7.01063 14.0006 5.00063 11.9906 5.00063 9.50063C5.00063 7.01063 7.01063 5.00063 9.50063 5.00063C11.9906 5.00063 14.0006 7.01063 14.0006 9.50063C14.0006 11.9906 11.9906 14.0006 9.50063 14.0006ZM7.50063 9.00063H11.5006C11.7806 9.00063 12.0006 9.22063 12.0006 9.50063C12.0006 9.78063 11.7806 10.0006 11.5006 10.0006H7.50063C7.22063 10.0006 7.00063 9.78063 7.00063 9.50063C7.00063 9.22063 7.22063 9.00063 7.50063 9.00063Z"/>
</g>
<defs>
<clipPath id="clip0_61_15633">
<rect transform="translate(0 0.000976562)"/>
</clipPath>
</defs>
</svg>
