<svg viewBox="0 0 24 24" xmlns="http://www.w3.org/2000/svg">
<g clip-path="url(#clip0_61_15632)">
<path d="M15.4989 14.0006H14.7089L14.4289 13.7306C15.6289 12.3306 16.2489 10.4206 15.9089 8.39063C15.4389 5.61063 13.1189 3.39063 10.3189 3.05063C6.08892 2.53063 2.53892 6.09063 3.04892 10.3206C3.38892 13.1206 5.60892 15.4406 8.38892 15.9106C10.4189 16.2506 12.3289 15.6306 13.7289 14.4306L13.9989 14.7106V15.5006L18.2589 19.7506C18.6689 20.1606 19.3289 20.1606 19.7389 19.7506L19.7489 19.7406C20.1589 19.3306 20.1589 18.6706 19.7489 18.2606L15.4989 14.0006ZM9.49892 14.0006C7.00892 14.0006 4.99892 11.9906 4.99892 9.50063C4.99892 7.01063 7.00892 5.00063 9.49892 5.00063C11.9889 5.00063 13.9989 7.01063 13.9989 9.50063C13.9989 11.9906 11.9889 14.0006 9.49892 14.0006ZM9.49892 7.00063C9.21892 7.00063 8.99892 7.22063 8.99892 7.50063V9.00063H7.49892C7.21892 9.00063 6.99892 9.22063 6.99892 9.50063C6.99892 9.78063 7.21892 10.0006 7.49892 10.0006H8.99892V11.5006C8.99892 11.7806 9.21892 12.0006 9.49892 12.0006C9.77892 12.0006 9.99892 11.7806 9.99892 11.5006V10.0006H11.4989C11.7789 10.0006 11.9989 9.78063 11.9989 9.50063C11.9989 9.22063 11.7789 9.00063 11.4989 9.00063H9.99892V7.50063C9.99892 7.22063 9.77892 7.00063 9.49892 7.00063Z"/>
</g>
<defs>
<clipPath id="clip0_61_15632">
<rect transform="translate(0 0.000976562)"/>
</clipPath>
</defs>
</svg>
