<svg   viewBox="0 0 32 32" fill="none" xmlns="http://www.w3.org/2000/svg">
<path d="M18.7071 6.29289C18.3166 5.90237 17.6834 5.90237 17.2929 6.29289C16.9024 6.68342 16.9024 7.31658 17.2929 7.70711L24.5858 15H5C4.44772 15 4 15.4477 4 16C4 16.5523 4.44772 17 5 17H24.5858L17.2929 24.2929C16.9024 24.6834 16.9024 25.3166 17.2929 25.7071C17.6834 26.0976 18.3166 26.0976 18.7071 25.7071L27.7071 16.7071C27.8902 16.524 27.9874 16.2877 27.9989 16.048C27.9996 16.032 28 16.016 28 16" fill="black"/>
<path d="M28 15.9908C27.9976 15.7379 27.9 15.4858 27.7071 15.2929L18.7071 6.29289" fill="black"/>
</svg>
