<svg   viewBox="0 0 32 32" fill="none" xmlns="http://www.w3.org/2000/svg">
<path d="M9.97656 12.4645H3.97656V6.46448" stroke="black" stroke-width="2" stroke-linecap="round" stroke-linejoin="round"/>
<path d="M23.7756 8.22183C22.7541 7.20038 21.5415 6.39013 20.2069 5.83733C18.8723 5.28452 17.4419 5 15.9974 5C14.5528 5 13.1224 5.28452 11.7879 5.83733C10.4533 6.39013 9.24065 7.20038 8.2192 8.22183L3.97656 12.4645" stroke="black" stroke-width="2" stroke-linecap="round" stroke-linejoin="round"/>
<path d="M22.0234 19.5355H28.0234V25.5355" stroke="black" stroke-width="2" stroke-linecap="round" stroke-linejoin="round"/>
<path d="M8.21875 23.7782C9.24019 24.7996 10.4528 25.6099 11.7874 26.1627C13.122 26.7155 14.5524 27 15.9969 27C17.4415 27 18.8719 26.7155 20.2064 26.1627C21.541 25.6099 22.7537 24.7996 23.7751 23.7782L28.0177 19.5355" stroke="black" stroke-width="2" stroke-linecap="round" stroke-linejoin="round"/>
</svg>
