<svg   viewBox="0 0 32 32" fill="none" xmlns="http://www.w3.org/2000/svg">
<path d="M18.5 4.99987C18.5001 4.44758 18.9478 3.99993 19.5001 4L26.9991 4.001C27.5513 4.00107 27.9989 4.44869 27.999 5.00087L28 12.4999C28.0001 13.0522 27.5524 13.4999 27.0001 13.5C26.4478 13.5001 26.0001 13.0524 26 12.5001L25.9993 7.41495L18.7035 14.7108C18.313 15.1013 17.6798 15.1013 17.2893 14.7108C16.8988 14.3202 16.8988 13.6871 17.2893 13.2966L24.5852 6.00068L19.4999 6C18.9476 5.99993 18.4999 5.55215 18.5 4.99987Z" fill="black"/>
<path d="M6 8C5.46957 8 4.96086 8.21071 4.58579 8.58579C4.21071 8.96086 4 9.46957 4 10V26C4 26.5304 4.21071 27.0391 4.58579 27.4142C4.96086 27.7893 5.46957 28 6 28H22C22.5304 28 23.0391 27.7893 23.4142 27.4142C23.7893 27.0391 24 26.5304 24 26V18C24 17.4477 23.5523 17 23 17C22.4477 17 22 17.4477 22 18V26H6L6 10H14C14.5523 10 15 9.55228 15 9C15 8.44772 14.5523 8 14 8H6Z" fill="black"/>
</svg>
