<svg viewBox="0 0 32 32" xmlns="http://www.w3.org/2000/svg">
<path d="M19 29L16 25.999L19 23" stroke-width="2" stroke-linecap="round" stroke-linejoin="round"/>
<path d="M24.3289 9.39905L23.2301 13.4977L19.1328 12.399" stroke-width="2" stroke-linecap="round" stroke-linejoin="round"/>
<path d="M9.86812 17.5962L8.76912 13.4977L4.67188 14.5962" stroke-width="2" stroke-linecap="round" stroke-linejoin="round"/>
<path d="M16 25.9991H26.997C27.3483 25.9991 27.6934 25.9066 27.9975 25.7309C28.3017 25.5552 28.5542 25.3024 28.7296 24.9981C28.9051 24.6938 28.9973 24.3487 28.997 23.9974C28.9967 23.6462 28.9039 23.3012 28.728 22.9972L25.7341 17.8248" stroke-width="2" stroke-linecap="round" stroke-linejoin="round"/>
<path d="M8.76757 13.4976L3.26905 22.9971C3.09309 23.3011 3.00029 23.6461 3 23.9973C2.99971 24.3486 3.09194 24.6937 3.2674 24.998C3.44286 25.3023 3.69537 25.5551 3.99953 25.7308C4.30368 25.9065 4.64875 25.999 5.00001 25.999H10.997" stroke-width="2" stroke-linecap="round" stroke-linejoin="round"/>
<path d="M23.2276 13.4976L17.7291 3.99809C17.5534 3.69457 17.301 3.44258 16.9972 3.2674C16.6934 3.09222 16.3488 3 15.9981 3C15.6474 3 15.3029 3.09222 14.9991 3.2674C14.6953 3.44258 14.4429 3.69457 14.2672 3.99809L11.2734 9.17025" stroke-width="2" stroke-linecap="round" stroke-linejoin="round"/>
</svg>
