<svg   viewBox="0 0 32 32" fill="none" xmlns="http://www.w3.org/2000/svg">
<path d="M27 5.00073H5C4.46975 5.00134 3.9614 5.21225 3.58646 5.58719C3.21151 5.96213 3.00061 6.47049 3 7.00073V25.0007C3.00061 25.531 3.21151 26.0393 3.58646 26.4143C3.9614 26.7892 4.46975 27.0001 5 27.0007H27C27.5302 27.0001 28.0386 26.7892 28.4135 26.4143C28.7885 26.0393 28.9994 25.531 29 25.0007V7.00073C28.9994 6.47049 28.7885 5.96213 28.4135 5.58719C28.0386 5.21225 27.5302 5.00134 27 5.00073V5.00073ZM8.5 12.0007C8.20333 12.0007 7.91332 11.9128 7.66664 11.7479C7.41997 11.5831 7.22771 11.3488 7.11418 11.0748C7.00065 10.8007 6.97094 10.4991 7.02882 10.2081C7.0867 9.91713 7.22956 9.64985 7.43934 9.44007C7.64912 9.23029 7.91639 9.08743 8.20736 9.02955C8.49834 8.97168 8.79994 9.00138 9.07403 9.11491C9.34811 9.22844 9.58238 9.4207 9.7472 9.66738C9.91203 9.91405 10 10.2041 10 10.5007C10 10.8986 9.84196 11.2801 9.56066 11.5614C9.27936 11.8427 8.89782 12.0007 8.5 12.0007V12.0007ZM13.5 12.0007C13.2033 12.0007 12.9133 11.9128 12.6666 11.7479C12.42 11.5831 12.2277 11.3488 12.1142 11.0748C12.0006 10.8007 11.9709 10.4991 12.0288 10.2081C12.0867 9.91713 12.2296 9.64985 12.4393 9.44007C12.6491 9.23029 12.9164 9.08743 13.2074 9.02955C13.4983 8.97168 13.7999 9.00138 14.074 9.11491C14.3481 9.22844 14.5824 9.4207 14.7472 9.66738C14.912 9.91405 15 10.2041 15 10.5007C15 10.8986 14.842 11.2801 14.5607 11.5614C14.2794 11.8427 13.8978 12.0007 13.5 12.0007V12.0007Z" fill="black"/>
</svg>
