<svg   viewBox="0 0 32 32" fill="none" xmlns="http://www.w3.org/2000/svg">
<path d="M26.9995 4.99976H8.56592C8.22088 5.00116 7.88198 5.09115 7.58171 5.26113C7.28144 5.4311 7.02985 5.67535 6.85107 5.97046L1.14209 15.4851C1.0491 15.6407 1 15.8185 1 15.9998C1 16.181 1.0491 16.3588 1.14209 16.5144L6.85107 26.0291V26.03C7.02989 26.325 7.2815 26.5692 7.58178 26.739C7.88207 26.9088 8.22095 26.9986 8.56592 26.9998H26.9995C27.5298 26.9992 28.0382 26.7884 28.4131 26.4134C28.7881 26.0384 28.999 25.53 28.9995 24.9998V6.99976C28.999 6.46948 28.7881 5.96108 28.4131 5.58612C28.0382 5.21116 27.5298 5.00028 26.9995 4.99976V4.99976ZM20.7065 18.2927C20.7996 18.3855 20.8734 18.4958 20.9237 18.6171C20.9741 18.7385 21.0001 18.8686 21.0002 19C21.0002 19.1314 20.9744 19.2615 20.9241 19.3829C20.8739 19.5043 20.8002 19.6146 20.7073 19.7075C20.6144 19.8005 20.5041 19.8741 20.3827 19.9244C20.2613 19.9746 20.1311 20.0005 19.9997 20.0004C19.8683 20.0003 19.7382 19.9744 19.6169 19.924C19.4955 19.8736 19.3853 19.7998 19.2925 19.7068L16.9995 17.4138L14.7065 19.7068C14.519 19.894 14.2647 19.999 13.9997 19.9989C13.7347 19.9988 13.4806 19.8934 13.2932 19.706C13.1058 19.5186 13.0005 19.2645 13.0004 18.9995C13.0002 18.7345 13.1053 18.4803 13.2925 18.2927L15.5854 15.9998L13.2925 13.7068C13.1053 13.5192 13.0002 13.265 13.0004 13C13.0005 12.735 13.1058 12.4809 13.2932 12.2935C13.4806 12.1061 13.7347 12.0008 13.9997 12.0006C14.2647 12.0005 14.519 12.1055 14.7065 12.2927L16.9995 14.5857L19.2925 12.2927C19.4801 12.1055 19.7343 12.0005 19.9993 12.0006C20.2643 12.0008 20.5184 12.1061 20.7058 12.2935C20.8932 12.4809 20.9985 12.735 20.9987 13C20.9988 13.265 20.8937 13.5192 20.7065 13.7068L18.4136 15.9998L20.7065 18.2927Z" fill="black"/>
</svg>
