<svg viewBox="0 0 32 32" xmlns="http://www.w3.org/2000/svg">
<path d="M31 11C30.8687 11 30.7386 11.0259 30.6173 11.0761C30.496 11.1264 30.3857 11.2 30.2929 11.2929C30.2 11.3857 30.1264 11.496 30.0761 11.6173C30.0259 11.7386 30 11.8687 30 12V20C30 20.2652 30.1054 20.5196 30.2929 20.7071C30.4804 20.8946 30.7348 21 31 21C31.2652 21 31.5196 20.8946 31.7071 20.7071C31.8946 20.5196 32 20.2652 32 20V12C32 11.8687 31.9741 11.7386 31.9239 11.6173C31.8736 11.496 31.8 11.3857 31.7071 11.2929C31.6143 11.2 31.504 11.1264 31.3827 11.0761C31.2614 11.0259 31.1313 11 31 11V11Z"/>
<path d="M25 6H6C5.20463 6.00091 4.4421 6.31727 3.87968 6.87968C3.31727 7.4421 3.00091 8.20463 3 9V23C3.00091 23.7954 3.31727 24.5579 3.87968 25.1203C4.4421 25.6827 5.20463 25.9991 6 26H25C25.7954 25.9991 26.5579 25.6827 27.1203 25.1203C27.6827 24.5579 27.9991 23.7954 28 23V9C27.9991 8.20463 27.6827 7.4421 27.1203 6.87968C26.5579 6.31727 25.7954 6.00091 25 6V6ZM26 23C25.9997 23.2651 25.8942 23.5193 25.7068 23.7068C25.5193 23.8942 25.2651 23.9997 25 24H6C5.73488 23.9997 5.4807 23.8942 5.29323 23.7068C5.10576 23.5193 5.0003 23.2651 5 23V9C5.0003 8.73488 5.10576 8.4807 5.29323 8.29323C5.4807 8.10576 5.73488 8.0003 6 8H25C25.2651 8.0003 25.5193 8.10576 25.7068 8.29323C25.8942 8.4807 25.9997 8.73488 26 9V23Z"/>
<path d="M23 10H8C7.44772 10 7 10.4477 7 11V21C7 21.5523 7.44772 22 8 22H23C23.5523 22 24 21.5523 24 21V11C24 10.4477 23.5523 10 23 10Z"/>
</svg>
