<svg   viewBox="0 0 32 32" fill="none" xmlns="http://www.w3.org/2000/svg">
<path d="M31 11.001C30.8687 11.0009 30.7386 11.0267 30.6172 11.0769C30.4959 11.1272 30.3856 11.2008 30.2927 11.2937C30.1999 11.3866 30.1262 11.4968 30.076 11.6182C30.0257 11.7396 29.9999 11.8696 30 12.001V20.001C30 20.2662 30.1054 20.5205 30.2929 20.7081C30.4804 20.8956 30.7348 21.001 31 21.001C31.2652 21.001 31.5196 20.8956 31.7071 20.7081C31.8946 20.5205 32 20.2662 32 20.001V12.001C32.0001 11.8696 31.9743 11.7396 31.924 11.6182C31.8738 11.4968 31.8001 11.3866 31.7073 11.2937C31.6144 11.2008 31.5041 11.1272 31.3828 11.0769C31.2614 11.0267 31.1313 11.0009 31 11.001Z" fill="black"/>
<path d="M25 6.00098H6C5.20462 6.00184 4.44206 6.31819 3.87964 6.88062C3.31722 7.44304 3.00087 8.20559 3 9.00098V23.001C3.00087 23.7964 3.31722 24.5589 3.87964 25.1213C4.44206 25.6838 5.20462 26.0001 6 26.001H25C25.7954 26.0001 26.5579 25.6838 27.1204 25.1213C27.6828 24.5589 27.9991 23.7964 28 23.001V9.00098C27.9991 8.20559 27.6828 7.44304 27.1204 6.88062C26.5579 6.31819 25.7954 6.00185 25 6.00098V6.00098ZM26 23.001C25.9997 23.2661 25.8942 23.5202 25.7067 23.7077C25.5193 23.8952 25.2651 24.0006 25 24.001H6C5.73489 24.0006 5.48074 23.8952 5.29327 23.7077C5.10581 23.5202 5.00034 23.2661 5 23.001V9.00098C5.00034 8.73587 5.10581 8.48171 5.29327 8.29425C5.48074 8.10679 5.73489 8.00132 6 8.00098H25C25.2651 8.00132 25.5193 8.10679 25.7067 8.29425C25.8942 8.48171 25.9997 8.73587 26 9.00098V23.001Z" fill="black"/>
<path d="M18 10.001H8C7.44772 10.001 7 10.4487 7 11.001V21.001C7 21.5533 7.44772 22.001 8 22.001H18C18.5523 22.001 19 21.5533 19 21.001V11.001C19 10.4487 18.5523 10.001 18 10.001Z" fill="black"/>
</svg>
