<svg   viewBox="0 0 32 32" fill="none" xmlns="http://www.w3.org/2000/svg">
<path d="M12 2H20C20.2652 2 20.5196 1.89464 20.7071 1.70711C20.8946 1.51957 21 1.26522 21 1C21 0.734784 20.8946 0.48043 20.7071 0.292893C20.5196 0.105357 20.2652 0 20 0L12 0C11.7348 0 11.4804 0.105357 11.2929 0.292893C11.1054 0.48043 11 0.734784 11 1C11 1.26522 11.1054 1.51957 11.2929 1.70711C11.4804 1.89464 11.7348 2 12 2V2Z" fill="black"/>
<path d="M23 4.00098H9C8.20462 4.00185 7.44206 4.31819 6.87964 4.88062C6.31722 5.44304 6.00087 6.20559 6 7.00098V26.001C6.00087 26.7964 6.31722 27.5589 6.87964 28.1213C7.44206 28.6838 8.20462 29.0001 9 29.001H23C23.7954 29.0001 24.5579 28.6838 25.1204 28.1213C25.6828 27.5589 25.9991 26.7964 26 26.001V7.00098C25.9991 6.20559 25.6828 5.44304 25.1204 4.88062C24.5579 4.31819 23.7954 4.00184 23 4.00098ZM18.9287 16.8721L16.9287 21.8721C16.8303 22.1184 16.6381 22.3155 16.3943 22.4201C16.1505 22.5246 15.8752 22.5281 15.6289 22.4297C15.3826 22.3313 15.1855 22.139 15.0809 21.8953C14.9763 21.6515 14.9729 21.3762 15.0713 21.1299L16.5234 17.501L14 17.499C13.8366 17.499 13.6757 17.459 13.5314 17.3824C13.387 17.3058 13.2637 17.1951 13.172 17.0598C13.0804 16.9245 13.0233 16.7688 13.0057 16.6064C12.9882 16.4439 13.0107 16.2797 13.0713 16.1279L15.0713 11.1299C15.1697 10.8836 15.3619 10.6864 15.6057 10.5819C15.8495 10.4773 16.1248 10.4738 16.3711 10.5723C16.6174 10.6707 16.8145 10.8629 16.9191 11.1067C17.0237 11.3504 17.0271 11.6258 16.9287 11.8721L15.4766 15.499L18 15.501C18.1634 15.501 18.3243 15.541 18.4686 15.6176C18.613 15.6942 18.7363 15.8049 18.828 15.9402C18.9196 16.0755 18.9767 16.2312 18.9943 16.3936C19.0118 16.5561 18.9893 16.7203 18.9287 16.8721V16.8721Z" fill="black"/>
</svg>
