<svg   viewBox="0 0 32 32" fill="none" xmlns="http://www.w3.org/2000/svg">
<path d="M11 1C11 0.868677 11.0259 0.738639 11.0761 0.617312C11.1264 0.495985 11.2 0.385744 11.2929 0.292885C11.3857 0.200025 11.496 0.126366 11.6173 0.0761128C11.7386 0.0258594 11.8687 -3.77528e-06 12 4.13343e-10L20 4.13343e-10C20.2652 4.13343e-10 20.5196 0.105357 20.7071 0.292893C20.8946 0.48043 21 0.734784 21 1C21 1.26522 20.8946 1.51957 20.7071 1.70711C20.5196 1.89464 20.2652 2 20 2H12C11.8687 2 11.7386 1.97414 11.6173 1.92389C11.496 1.87363 11.3857 1.79997 11.2929 1.70712C11.2 1.61426 11.1264 1.50402 11.0761 1.38269C11.0259 1.26136 11 1.13132 11 1ZM26 7V26C25.9991 26.7954 25.6827 27.5579 25.1203 28.1203C24.5579 28.6827 23.7954 28.9991 23 29H9C8.20463 28.9991 7.4421 28.6827 6.87968 28.1203C6.31727 27.5579 6.00091 26.7954 6 26V7C6.00091 6.20463 6.31727 5.4421 6.87968 4.87968C7.4421 4.31727 8.20463 4.00091 9 4H23C23.7954 4.00091 24.5579 4.31727 25.1203 4.87968C25.6827 5.4421 25.9991 6.20463 26 7V7ZM15 16.5C15 16.7652 15.1054 17.0196 15.2929 17.2071C15.4804 17.3946 15.7348 17.5 16 17.5C16.2652 17.5 16.5196 17.3946 16.7071 17.2071C16.8946 17.0196 17 16.7652 17 16.5V11.5C17 11.2348 16.8946 10.9804 16.7071 10.7929C16.5196 10.6054 16.2652 10.5 16 10.5C15.7348 10.5 15.4804 10.6054 15.2929 10.7929C15.1054 10.9804 15 11.2348 15 11.5V16.5ZM17.5 21C17.5 20.7033 17.412 20.4133 17.2472 20.1666C17.0824 19.92 16.8481 19.7277 16.574 19.6142C16.2999 19.5007 15.9983 19.4709 15.7074 19.5288C15.4164 19.5867 15.1491 19.7296 14.9393 19.9393C14.7296 20.1491 14.5867 20.4164 14.5288 20.7074C14.4709 20.9983 14.5006 21.2999 14.6142 21.574C14.7277 21.8481 14.92 22.0824 15.1666 22.2472C15.4133 22.412 15.7033 22.5 16 22.5C16.3977 22.4995 16.779 22.3414 17.0602 22.0602C17.3414 21.779 17.4995 21.3977 17.5 21V21Z" fill="black"/>
</svg>
