<svg viewBox="0 0 32 32" xmlns="http://www.w3.org/2000/svg">
<path d="M31 11C30.7348 11 30.4804 11.1054 30.2929 11.2929C30.1054 11.4804 30 11.7348 30 12V20C30 20.2652 30.1054 20.5196 30.2929 20.7071C30.4804 20.8946 30.7348 21 31 21C31.2652 21 31.5196 20.8946 31.7071 20.7071C31.8946 20.5196 32 20.2652 32 20V12C32 11.7348 31.8946 11.4804 31.7071 11.2929C31.5196 11.1054 31.2652 11 31 11V11Z"/>
<path d="M25 5.99976H6C5.20462 6.00062 4.44206 6.31697 3.87964 6.87939C3.31722 7.44182 3.00087 8.20437 3 8.99976V22.9998C3.00087 23.7951 3.31722 24.5577 3.87964 25.1201C4.44206 25.6825 5.20462 25.9989 6 25.9998H25C25.7954 25.9989 26.5579 25.6825 27.1204 25.1201C27.6828 24.5577 27.9991 23.7951 28 22.9998V8.99976C27.9991 8.20437 27.6828 7.44182 27.1204 6.87939C26.5579 6.31697 25.7954 6.00062 25 5.99976V5.99976ZM18.4277 16.3708L16.4277 21.3708C16.3791 21.4928 16.3069 21.604 16.2153 21.6981C16.1237 21.7922 16.0144 21.8673 15.8937 21.9191C15.773 21.9709 15.6433 21.9984 15.512 22C15.3807 22.0017 15.2504 21.9774 15.1285 21.9286C15.0065 21.8799 14.8954 21.8075 14.8015 21.7158C14.7075 21.624 14.6325 21.5147 14.5809 21.3939C14.5292 21.2732 14.5019 21.1435 14.5004 21.0122C14.4989 20.8808 14.5233 20.7505 14.5723 20.6287L16.0234 16.9998H13.5C13.3366 16.9998 13.1757 16.9598 13.0313 16.8833C12.887 16.8067 12.7636 16.6959 12.672 16.5606C12.5805 16.4252 12.5235 16.2695 12.5061 16.107C12.4887 15.9446 12.5114 15.7803 12.5723 15.6287L14.5723 10.6287C14.6209 10.5067 14.6931 10.3955 14.7847 10.3014C14.8763 10.2073 14.9856 10.1323 15.1063 10.0805C15.227 10.0286 15.3567 10.0011 15.488 9.9995C15.6193 9.99786 15.7496 10.0221 15.8715 10.0709C15.9935 10.1197 16.1046 10.192 16.1985 10.2837C16.2925 10.3755 16.3674 10.4848 16.4191 10.6056C16.4708 10.7263 16.4981 10.856 16.4996 10.9874C16.5011 11.1187 16.4767 11.249 16.4277 11.3708L14.9766 14.9998H17.5C17.6634 14.9997 17.8243 15.0397 17.9687 15.1162C18.113 15.1928 18.2364 15.3036 18.3279 15.4389C18.4195 15.5743 18.4765 15.73 18.4939 15.8925C18.5113 16.0549 18.4886 16.2192 18.4277 16.3708Z"/>
</svg>
