<svg viewBox="0 0 32 32" xmlns="http://www.w3.org/2000/svg">
<path d="M27.6012 21.9924C26.8594 20.7155 25.975 18.2922 25.975 14V13.1129C25.975 7.57728 21.5341 3.04078 16.0755 3.00025C16.05 3.00012 16.0247 3 15.9992 3C13.3504 3.00344 10.8115 4.05894 8.94098 5.93429C7.07043 7.80965 6.02146 10.3512 6.02481 13V14C6.02481 18.292 5.13992 20.7151 4.39774 21.9919C4.22046 22.2956 4.12639 22.6407 4.12502 22.9923C4.12364 23.344 4.21501 23.6898 4.38992 23.9948C4.56482 24.2999 4.81707 24.5535 5.12123 24.7299C5.42539 24.9064 5.7707 24.9996 6.12235 25H10.9994C10.9994 26.3261 11.5262 27.5979 12.4639 28.5355C13.4016 29.4732 14.6733 30 15.9994 30C17.3255 30 18.5973 29.4732 19.535 28.5355C20.4726 27.5979 20.9994 26.3261 20.9994 25H25.8765C26.2281 24.9996 26.5734 24.9064 26.8775 24.73C27.1816 24.5536 27.4338 24.3001 27.6087 23.9951C27.7836 23.6901 27.8751 23.3443 27.8737 22.9927C27.8724 22.6412 27.7784 22.2961 27.6012 21.9924V21.9924ZM15.9994 28C15.2041 27.9991 14.4415 27.6827 13.8791 27.1203C13.3167 26.5579 13.0003 25.7954 12.9994 25H18.9994C18.9985 25.7954 18.6821 26.5579 18.1197 27.1203C17.5573 27.6827 16.7948 27.9991 15.9994 28Z"/>
</svg>
