<svg   viewBox="0 0 32 32" fill="none" xmlns="http://www.w3.org/2000/svg">
<path d="M27.6012 21.9924C26.8594 20.7155 25.975 18.2922 25.975 14V13.113C25.975 7.5774 21.5341 3.04078 16.0755 3.00025C16.05 3.00012 16.0247 3 15.9992 3C13.3504 3.00344 10.8115 4.05894 8.94098 5.93429C7.07043 7.80964 6.02146 10.3512 6.02481 13V14C6.02481 18.292 5.13992 20.7151 4.39774 21.9919C4.22046 22.2956 4.12639 22.6407 4.12502 22.9923C4.12364 23.344 4.21501 23.6898 4.38992 23.9948C4.56482 24.2999 4.81707 24.5535 5.12123 24.7299C5.42539 24.9064 5.7707 24.9996 6.12235 25H10.9994C10.9994 26.3261 11.5262 27.5979 12.4639 28.5355C13.4016 29.4732 14.6733 30 15.9994 30C17.3255 30 18.5973 29.4732 19.535 28.5355C20.4726 27.5979 20.9994 26.3261 20.9994 25H25.8765C26.2281 24.9996 26.5734 24.9064 26.8775 24.73C27.1816 24.5536 27.4338 24.3001 27.6087 23.9951C27.7836 23.6901 27.8751 23.3443 27.8737 22.9927C27.8724 22.6411 27.7784 22.2961 27.6012 21.9924V21.9924ZM15.9994 28C15.204 27.9991 14.4415 27.6827 13.8791 27.1203C13.3167 26.5579 13.0003 25.7954 12.9994 25H18.9994C18.9985 25.7954 18.6821 26.5579 18.1197 27.1203C17.5573 27.6827 16.7948 27.9991 15.9994 28V28ZM18.4994 19H13.4994C13.3093 19 13.1232 18.9459 12.9628 18.8439C12.8024 18.7419 12.6744 18.5963 12.5938 18.4242C12.5132 18.2521 12.4833 18.0605 12.5076 17.872C12.532 17.6835 12.6095 17.5059 12.7312 17.3599L16.3644 13H13.4994C13.2342 13 12.9798 12.8946 12.7923 12.7071C12.6048 12.5196 12.4994 12.2652 12.4994 12C12.4994 11.7348 12.6048 11.4804 12.7923 11.2929C12.9798 11.1054 13.2342 11 13.4994 11H18.4994C18.6895 11 18.8756 11.0541 19.036 11.1561C19.1964 11.2581 19.3244 11.4037 19.4051 11.5758C19.4857 11.7479 19.5156 11.9395 19.4912 12.128C19.4669 12.3165 19.3893 12.4941 19.2676 12.6401L15.6344 17H18.4994C18.7646 17 19.019 17.1054 19.2065 17.2929C19.3941 17.4804 19.4994 17.7348 19.4994 18C19.4994 18.2652 19.3941 18.5196 19.2065 18.7071C19.019 18.8946 18.7646 19 18.4994 19Z" fill="black"/>
</svg>
