<svg viewBox="0 0 32 32" xmlns="http://www.w3.org/2000/svg">
<path d="M20.9974 27.9999C20.9974 28.2652 20.8921 28.5195 20.7045 28.707C20.517 28.8946 20.2626 28.9999 19.9974 28.9999H11.9974C11.7322 28.9999 11.4779 28.8946 11.2903 28.707C11.1028 28.5195 10.9974 28.2652 10.9974 27.9999C10.9974 27.7347 11.1028 27.4804 11.2903 27.2928C11.4779 27.1053 11.7322 26.9999 11.9974 26.9999H19.9974C20.2626 27 20.517 27.1053 20.7045 27.2928C20.8921 27.4804 20.9974 27.7347 20.9974 27.9999ZM25.973 13.9999C25.9827 11.3622 24.946 8.82831 23.0903 6.95378C21.2345 5.07924 18.7112 4.01709 16.0735 4.00019C16.048 4.00007 16.0227 3.99994 15.9972 3.99994C13.3484 4.00339 10.8095 5.05888 8.93898 6.93423C7.06843 8.80959 6.01946 11.3512 6.02282 13.9999C6.02282 18.2919 5.13793 20.715 4.39574 21.9919C4.21846 22.2956 4.12439 22.6406 4.12302 22.9923C4.12165 23.3439 4.21302 23.6897 4.38793 23.9948C4.56283 24.2998 4.81508 24.5534 5.11923 24.7299C5.42339 24.9063 5.7687 24.9995 6.12035 24.9999H25.8745C26.2261 24.9995 26.5714 24.9064 26.8755 24.7299C27.1796 24.5535 27.4318 24.3 27.6067 23.995C27.7817 23.69 27.8731 23.3443 27.8717 22.9927C27.8704 22.6411 27.7764 22.2961 27.5992 21.9924C26.8574 20.7154 25.973 18.2922 25.973 13.9999ZM28.5633 7.82099C27.4181 5.49682 25.6519 3.53502 23.4603 2.1529C23.3493 2.08252 23.2254 2.03473 23.0959 2.01227C22.9664 1.9898 22.8337 1.9931 22.7054 2.02197C22.5772 2.05085 22.4559 2.10473 22.3484 2.18053C22.241 2.25634 22.1496 2.35259 22.0795 2.46376C22.0093 2.57493 21.9617 2.69885 21.9395 2.82842C21.9173 2.958 21.9208 3.09069 21.9499 3.21889C21.979 3.3471 22.0331 3.4683 22.1091 3.57558C22.1851 3.68285 22.2815 3.77409 22.3928 3.84406C24.2723 5.02933 25.787 6.71168 26.7692 8.70478C26.8271 8.82272 26.9077 8.92809 27.0064 9.01485C27.1051 9.10162 27.2199 9.16808 27.3443 9.21044C27.4687 9.2528 27.6003 9.27023 27.7314 9.26173C27.8625 9.25323 27.9907 9.21896 28.1086 9.16089C28.2265 9.10282 28.3318 9.02209 28.4184 8.92331C28.5051 8.82452 28.5714 8.70963 28.6137 8.58519C28.6559 8.46075 28.6732 8.32921 28.6646 8.19808C28.6559 8.06695 28.6215 7.93881 28.5633 7.82099H28.5633ZM5.2257 8.70478C6.2079 6.71168 7.7226 5.02933 9.60204 3.84406C9.71321 3.77402 9.80948 3.68277 9.88537 3.5755C9.96125 3.46824 10.0152 3.34708 10.0443 3.21893C10.0733 3.09079 10.0768 2.95818 10.0546 2.82869C10.0323 2.6992 9.98475 2.57536 9.91462 2.46425C9.84449 2.35315 9.75315 2.25695 9.64582 2.18116C9.53849 2.10538 9.41727 2.05149 9.2891 2.02257C9.16094 1.99365 9.02832 1.99028 8.89885 2.01264C8.76938 2.035 8.64558 2.08266 8.53454 2.1529C6.34296 3.53502 4.57673 5.49682 3.43151 7.82099C3.37332 7.93881 3.33892 8.06695 3.33029 8.19808C3.32165 8.32921 3.33894 8.46075 3.38118 8.58519C3.42341 8.70963 3.48976 8.82452 3.57642 8.92331C3.66309 9.02209 3.76837 9.10282 3.88626 9.16089C4.00414 9.21896 4.13231 9.25323 4.26345 9.26173C4.39459 9.27023 4.52611 9.2528 4.65051 9.21044C4.77491 9.16808 4.88973 9.10162 4.98843 9.01485C5.08712 8.92809 5.16775 8.82272 5.2257 8.70478V8.70478Z"/>
</svg>
