<svg   viewBox="0 0 32 32" fill="none" xmlns="http://www.w3.org/2000/svg">
<path d="M20.9994 28C20.9994 28.2652 20.894 28.5196 20.7065 28.7071C20.519 28.8946 20.2646 29 19.9994 29H11.9994C11.7342 29 11.4798 28.8946 11.2923 28.7071C11.1048 28.5196 10.9994 28.2652 10.9994 28C10.9994 27.7348 11.1048 27.4804 11.2923 27.2929C11.4798 27.1054 11.7342 27 11.9994 27H19.9994C20.2646 27 20.519 27.1054 20.7065 27.2929C20.894 27.4804 20.9994 27.7348 20.9994 28ZM27.6061 23.9996C27.4328 24.3051 27.1812 24.5588 26.8771 24.7347C26.5731 24.9105 26.2277 25.0021 25.8765 25H6.12234C5.7707 24.9996 5.42538 24.9064 5.12123 24.7299C4.81707 24.5535 4.56482 24.2999 4.38992 23.9948C4.21502 23.6898 4.12364 23.344 4.12502 22.9923C4.12639 22.6407 4.22045 22.2956 4.39773 21.9919C5.13992 20.7151 6.02481 18.292 6.02481 14V13C6.02145 10.3512 7.07043 7.80964 8.94097 5.93429C10.8115 4.05894 13.3504 3.00344 15.9992 3C16.0247 3 16.05 3.00013 16.0755 3.00025C21.5341 3.04078 25.975 7.5774 25.975 13.113V14C25.975 18.2922 26.8594 20.7155 27.6012 21.9924C27.7805 22.2963 27.8754 22.6425 27.8763 22.9954C27.8771 23.3482 27.7839 23.6949 27.6061 23.9996V23.9996ZM19.4994 18C19.4994 17.7348 19.394 17.4804 19.2065 17.2929C19.019 17.1054 18.7646 17 18.4994 17H15.6344L19.2676 12.6401C19.3893 12.4941 19.4669 12.3165 19.4912 12.128C19.5156 11.9395 19.4857 11.7479 19.4051 11.5758C19.3244 11.4037 19.1964 11.2581 19.036 11.1561C18.8756 11.0541 18.6895 11 18.4994 11H13.4994C13.2342 11 12.9798 11.1054 12.7923 11.2929C12.6048 11.4804 12.4994 11.7348 12.4994 12C12.4994 12.2652 12.6048 12.5196 12.7923 12.7071C12.9798 12.8946 13.2342 13 13.4994 13H16.3644L12.7312 17.3599C12.6095 17.5059 12.532 17.6835 12.5076 17.872C12.4833 18.0605 12.5132 18.2521 12.5938 18.4242C12.6744 18.5963 12.8024 18.7419 12.9628 18.8439C13.1232 18.9459 13.3093 19 13.4994 19H18.4994C18.7646 19 19.019 18.8946 19.2065 18.7071C19.394 18.5196 19.4994 18.2652 19.4994 18V18Z" fill="black"/>
</svg>
