<svg   viewBox="0 0 32 32" fill="none" xmlns="http://www.w3.org/2000/svg">
<path d="M26.7394 26.3272C26.8278 26.4244 26.8961 26.5381 26.9405 26.6616C26.985 26.7852 27.0046 26.9164 26.9984 27.0475C26.9921 27.1787 26.9601 27.3074 26.9041 27.4262C26.8482 27.545 26.7693 27.6516 26.6721 27.74C26.575 27.8283 26.4613 27.8967 26.3378 27.9411C26.2142 27.9855 26.083 28.0052 25.9519 27.9989C25.8207 27.9927 25.692 27.9607 25.5732 27.9047C25.4544 27.8487 25.3478 27.7699 25.2594 27.6727L22.8274 24.9974H6.12235C5.7707 24.997 5.42539 24.9038 5.12123 24.7273C4.81707 24.5509 4.56482 24.2973 4.38992 23.9923C4.21501 23.6872 4.12364 23.3414 4.12502 22.9898C4.12639 22.6381 4.22046 22.293 4.39774 21.9894C5.13992 20.7125 6.02481 18.2894 6.02481 13.9974V12.9974C6.02161 11.2389 6.48399 9.51078 7.36496 7.9888L5.25943 5.67271C5.08101 5.47645 4.98786 5.21735 5.00048 4.95242C5.01309 4.68748 5.13043 4.43841 5.32669 4.25999C5.52295 4.08157 5.78204 3.98842 6.04698 4.00103C6.31192 4.01365 6.56099 4.13099 6.73941 4.32725L26.7394 26.3272ZM19.9994 26.9974H11.9994C11.7342 26.9974 11.4799 27.1028 11.2923 27.2903C11.1048 27.4778 10.9994 27.7322 10.9994 27.9974C10.9994 28.2626 11.1048 28.517 11.2923 28.7045C11.4799 28.8921 11.7342 28.9974 11.9994 28.9974H19.9994C20.2646 28.9974 20.519 28.8921 20.7065 28.7045C20.8941 28.517 20.9994 28.2626 20.9994 27.9974C20.9994 27.7322 20.8941 27.4778 20.7065 27.2903C20.519 27.1028 20.2646 26.9974 19.9994 26.9974ZM25.362 21.8391C25.5193 22.0122 25.7324 22.1247 25.9642 22.1569C26.1959 22.1891 26.4316 22.1391 26.6303 22.0155C26.8289 21.8919 26.9779 21.7026 27.0514 21.4804C27.1249 21.2583 27.1181 21.0175 27.0324 20.7998C26.3307 19.0193 25.975 16.7307 25.975 13.9974V13.1103C25.975 7.57469 21.5341 3.03819 16.0755 2.99766C14.3195 2.98302 12.5911 3.43395 11.0661 4.30454C10.9361 4.37886 10.8244 4.48142 10.7394 4.60464C10.6543 4.72787 10.598 4.86863 10.5746 5.01652C10.5512 5.16442 10.5613 5.31568 10.6042 5.45915C10.6471 5.60261 10.7216 5.73462 10.8223 5.84544L25.362 21.8391Z" fill="black"/>
</svg>
