<svg   viewBox="0 0 32 32" fill="none" xmlns="http://www.w3.org/2000/svg">
<path d="M27.6288 21.9913C26.8851 20.7146 25.9983 18.2919 25.9983 14V13.113C25.9983 7.5774 21.5463 3.04078 16.074 3.00025C16.0484 3.00012 16.0231 3 15.9976 3C13.3456 3.00017 10.8022 4.05382 8.92698 5.92917C7.05177 7.80452 5.99831 10.348 5.99834 13V14C5.99834 18.2914 5.11125 20.7142 4.36711 21.9909C4.18949 22.2947 4.0952 22.64 4.09377 22.992C4.09233 23.3439 4.1838 23.69 4.35894 23.9953C4.53408 24.3006 4.78668 24.5542 5.09122 24.7306C5.39577 24.9071 5.74148 25 6.09343 25H25.9023C26.2542 25 26.5998 24.9071 26.9044 24.7307C27.2089 24.5544 27.4615 24.3008 27.6366 23.9956C27.8118 23.6903 27.9033 23.3443 27.9019 22.9924C27.9006 22.6405 27.8064 22.2952 27.6288 21.9913H27.6288Z" fill="black"/>
<path d="M19.9922 27H11.9922C11.727 27 11.4726 27.1054 11.2851 27.2929C11.0975 27.4804 10.9922 27.7348 10.9922 28C10.9922 28.2652 11.0975 28.5196 11.2851 28.7071C11.4726 28.8946 11.727 29 11.9922 29H19.9922C20.2574 29 20.5118 28.8946 20.6993 28.7071C20.8868 28.5196 20.9922 28.2652 20.9922 28C20.9922 27.7348 20.8868 27.4804 20.6993 27.2929C20.5118 27.1054 20.2574 27 19.9922 27Z" fill="black"/>
</svg>
