<svg   viewBox="0 0 32 32" fill="none" xmlns="http://www.w3.org/2000/svg">
<path d="M25.9724 13.9999C25.9821 11.3622 24.9454 8.82831 23.0897 6.95378C21.2339 5.07924 18.7106 4.01709 16.0729 4.00019C16.0474 4.00007 16.0221 3.99994 15.9966 3.99994C13.3478 4.00339 10.8089 5.05888 8.93839 6.93423C7.06784 8.80959 6.01887 11.3512 6.02223 13.9999C6.02223 18.2919 5.13734 20.715 4.39515 21.9919C4.21787 22.2956 4.12381 22.6406 4.12243 22.9923C4.12106 23.3439 4.21243 23.6897 4.38734 23.9948C4.56224 24.2998 4.81449 24.5534 5.11864 24.7299C5.4228 24.9063 5.76811 24.9995 6.11976 24.9999H10.9968C10.9968 26.326 11.5236 27.5978 12.4613 28.5355C13.399 29.4732 14.6708 29.9999 15.9968 29.9999C17.3229 29.9999 18.5947 29.4732 19.5324 28.5355C20.4701 27.5978 20.9968 26.326 20.9968 24.9999H25.8739C26.2255 24.9995 26.5708 24.9064 26.8749 24.7299C27.179 24.5535 27.4312 24.3 27.6062 23.995C27.7811 23.69 27.8725 23.3443 27.8711 22.9927C27.8698 22.6411 27.7758 22.2961 27.5986 21.9924C26.8568 20.7154 25.9724 18.2922 25.9724 13.9999ZM15.9968 27.9999C15.2015 27.999 14.4389 27.6827 13.8765 27.1203C13.3141 26.5578 12.9977 25.7953 12.9968 24.9999H18.9968C18.9959 25.7953 18.6796 26.5578 18.1172 27.1203C17.5547 27.6827 16.7922 27.999 15.9968 27.9999V27.9999ZM28.1076 9.15998C27.9898 9.21809 27.8617 9.25242 27.7306 9.26099C27.5995 9.26957 27.4681 9.25222 27.3437 9.20994C27.2193 9.16767 27.1045 9.10129 27.0058 9.01461C26.9072 8.92793 26.8265 8.82264 26.7686 8.70478C25.7864 6.71168 24.2717 5.02933 22.3922 3.84406C22.2809 3.77409 22.1845 3.68285 22.1085 3.57558C22.0325 3.4683 21.9784 3.3471 21.9493 3.21889C21.9202 3.09069 21.9167 2.958 21.9389 2.82842C21.9611 2.69885 22.0087 2.57493 22.0789 2.46376C22.149 2.35259 22.2404 2.25634 22.3478 2.18053C22.4553 2.10473 22.5766 2.05085 22.7048 2.02197C22.8331 1.9931 22.9658 1.9898 23.0953 2.01227C23.2248 2.03473 23.3487 2.08252 23.4597 2.1529C25.6513 3.53502 27.4175 5.49682 28.5627 7.82099C28.6208 7.93879 28.655 8.06688 28.6636 8.19793C28.6721 8.32897 28.6547 8.46042 28.6125 8.58476C28.5702 8.7091 28.5039 8.82389 28.4172 8.92259C28.3306 9.02128 28.2254 9.10195 28.1076 9.15998ZM4.32728 9.26313C4.1574 9.26291 3.99037 9.21944 3.84193 9.1368C3.6935 9.05417 3.56856 8.9351 3.47888 8.79081C3.3892 8.64653 3.33774 8.48178 3.32935 8.31211C3.32096 8.14243 3.35591 7.97341 3.43092 7.82099C4.57614 5.49682 6.34237 3.53502 8.53395 2.1529C8.64499 2.08266 8.76879 2.035 8.89826 2.01264C9.02773 1.99028 9.16034 1.99365 9.28851 2.02257C9.41668 2.05149 9.53789 2.10538 9.64522 2.18116C9.75255 2.25695 9.8439 2.35315 9.91403 2.46425C9.98416 2.57536 10.0317 2.6992 10.054 2.82869C10.0762 2.95818 10.0727 3.09079 10.0437 3.21893C10.0147 3.34708 9.96065 3.46824 9.88477 3.5755C9.80889 3.68277 9.71261 3.77402 9.60145 3.84406C7.722 5.02933 6.20731 6.71168 5.22511 8.70478C5.14255 8.87242 5.01468 9.01359 4.85599 9.11227C4.69731 9.21096 4.51415 9.26322 4.32728 9.26313V9.26313Z" fill="black"/>
</svg>
