<svg viewBox="0 0 32 32" xmlns="http://www.w3.org/2000/svg">
<path d="M6.73941 4.32726C6.56099 4.13101 6.31191 4.01366 6.04698 4.00105C5.78204 3.98844 5.52294 4.08159 5.32669 4.26C5.13043 4.43842 5.01309 4.6875 5.00047 4.95243C4.98786 5.21737 5.08101 5.47647 5.25943 5.67272L7.36587 7.9898C6.48435 9.51218 6.02165 11.2408 6.02481 13V14C6.02481 18.292 5.13992 20.7151 4.39773 21.9919C4.22045 22.2956 4.12639 22.6407 4.12502 22.9923C4.12364 23.344 4.21502 23.6898 4.38992 23.9948C4.56482 24.2999 4.81707 24.5534 5.12123 24.7299C5.42538 24.9064 5.7707 24.9996 6.12234 25H10.9994C10.9994 26.3261 11.5262 27.5978 12.4639 28.5355C13.4016 29.4732 14.6733 30 15.9994 30C17.3255 30 18.5973 29.4732 19.535 28.5355C20.4726 27.5978 20.9994 26.3261 20.9994 25H22.8297L25.2594 27.6727C25.3478 27.7699 25.4544 27.8487 25.5732 27.9047C25.692 27.9607 25.8207 27.9927 25.9519 27.9989C26.083 28.0052 26.2142 27.9855 26.3378 27.9411C26.4613 27.8967 26.575 27.8283 26.6721 27.74C26.7693 27.6516 26.8481 27.545 26.9041 27.4262C26.9601 27.3074 26.9921 27.1787 26.9984 27.0476C27.0046 26.9164 26.985 26.7852 26.9405 26.6617C26.8961 26.5381 26.8278 26.4244 26.7394 26.3273L6.73941 4.32726ZM15.9994 28C15.204 27.9991 14.4415 27.6827 13.8791 27.1203C13.3167 26.5579 13.0003 25.7954 12.9994 25H18.9994C18.9985 25.7954 18.6821 26.5579 18.1197 27.1203C17.5573 27.6827 16.7948 27.9991 15.9994 28V28ZM10.8238 5.84716C10.723 5.73634 10.6485 5.6043 10.6056 5.46081C10.5627 5.31732 10.5526 5.16603 10.5761 5.01811C10.5995 4.8702 10.6558 4.72943 10.7409 4.6062C10.826 4.48297 10.9377 4.38043 11.0678 4.30615C12.5933 3.43839 14.3205 2.98796 16.0755 3.00024C21.5341 3.04077 25.975 7.57739 25.975 13.113V14C25.975 16.7313 26.3302 19.0185 27.0307 20.7983C27.1163 21.016 27.1229 21.2568 27.0494 21.4789C26.9759 21.7009 26.8268 21.8902 26.6282 22.0137C26.4296 22.1372 26.1939 22.1872 25.9622 22.155C25.7306 22.1228 25.5175 22.0103 25.3601 21.8373L10.8238 5.84716Z"/>
</svg>
