<svg viewBox="0 0 32 32" xmlns="http://www.w3.org/2000/svg">
<path d="M23.6 21.2003L16.6667 16.0003L23.6 10.8003C23.7242 10.7072 23.825 10.5864 23.8944 10.4475C23.9638 10.3087 24 10.1556 24 10.0003C24 9.84509 23.9638 9.69198 23.8944 9.55312C23.825 9.41427 23.7242 9.29349 23.6 9.20035L15.6 3.20035C15.4514 3.08893 15.2747 3.02108 15.0898 3.00441C14.9048 2.98773 14.7189 3.02289 14.5528 3.10594C14.3867 3.18899 14.247 3.31665 14.1493 3.47462C14.0517 3.63259 14 3.81463 14 4.00034V14.0003L7.59995 9.20034C7.49489 9.12155 7.37535 9.06423 7.24814 9.03164C7.12093 8.99905 6.98854 8.99184 6.85855 9.01041C6.72855 9.02898 6.60348 9.07298 6.49048 9.13988C6.37749 9.20679 6.27878 9.2953 6.19999 9.40036C6.1212 9.50541 6.06387 9.62496 6.03128 9.75217C5.99869 9.87938 5.99148 10.0118 6.01005 10.1418C6.02862 10.2718 6.07262 10.3968 6.13953 10.5098C6.20644 10.6228 6.29494 10.7215 6.4 10.8003L13.3333 16.0003L6.4 21.2003C6.18815 21.3595 6.04817 21.5964 6.01082 21.8587C5.97348 22.1211 6.04181 22.3876 6.20082 22.5996C6.35983 22.8117 6.5965 22.9519 6.85884 22.9895C7.12119 23.0272 7.38774 22.9592 7.59995 22.8004L14 18.0003V28.0003C14 28.186 14.0517 28.3681 14.1493 28.526C14.247 28.684 14.3866 28.8117 14.5527 28.8947C14.7188 28.9778 14.9048 29.013 15.0898 28.9963C15.2747 28.9796 15.4514 28.9118 15.5999 28.8004L23.5999 22.8004C23.7242 22.7072 23.825 22.5864 23.8944 22.4476C23.9638 22.3087 24 22.1556 24 22.0003C24 21.8451 23.9638 21.692 23.8944 21.5531C23.825 21.4142 23.7242 21.2934 23.5999 21.2003H23.6ZM16 6.00033L21.3333 10.0003L16 14.0003V6.00033ZM16 26.0003V18.0003L21.3333 22.0003L16 26.0003Z"/>
</svg>
