<svg viewBox="0 0 32 32" xmlns="http://www.w3.org/2000/svg">
<path d="M23.6 21.2003L16.6666 16.0003L19.6 13.8003C19.8121 13.6412 19.9524 13.4043 19.9899 13.1418C20.0274 12.8792 19.9591 12.6125 19.8 12.4004C19.7212 12.2953 19.6225 12.2068 19.5095 12.1399C19.3965 12.073 19.2714 12.029 19.1414 12.0104C18.8789 11.9729 18.6122 12.0412 18.4 12.2003L16 14.0003V6.00034L18.3999 7.8002C18.6121 7.95905 18.8786 8.02716 19.141 7.98956C19.4034 7.95196 19.6401 7.81172 19.7992 7.59967C19.9582 7.38762 20.0265 7.1211 19.9892 6.85869C19.9518 6.59628 19.8117 6.35944 19.5998 6.20023L15.6 3.20035C15.4514 3.08893 15.2747 3.02108 15.0898 3.00441C14.9048 2.98773 14.7189 3.02289 14.5528 3.10594C14.3867 3.18899 14.247 3.31665 14.1493 3.47462C14.0517 3.63259 14 3.81463 14 4.00034V14.0004L7.59996 9.20035C7.38779 9.04122 7.12109 8.9729 6.85855 9.01041C6.59601 9.04792 6.35912 9.18819 6.19999 9.40036C6.04087 9.61253 5.97255 9.87922 6.01006 10.1418C6.04757 10.4043 6.18783 10.6412 6.4 10.8003L13.3334 16.0003L6.4 21.2003C6.29495 21.2791 6.20644 21.3778 6.13953 21.4908C6.07262 21.6038 6.02863 21.7289 6.01006 21.8589C5.99148 21.9889 5.9987 22.1213 6.03129 22.2485C6.06388 22.3757 6.1212 22.4953 6.19999 22.6003C6.27878 22.7054 6.37749 22.7939 6.49049 22.8608C6.60348 22.9277 6.72855 22.9717 6.85855 22.9903C6.98855 23.0088 7.12093 23.0016 7.24814 22.969C7.37535 22.9364 7.4949 22.8791 7.59996 22.8003L14 18.0003V28.0003C14 28.186 14.0517 28.3681 14.1493 28.5261C14.2469 28.684 14.3866 28.8117 14.5527 28.8948C14.7189 28.9778 14.9048 29.013 15.0898 28.9963C15.2747 28.9796 15.4514 28.9118 15.6 28.8003L23.6 22.8003C23.7242 22.7072 23.825 22.5864 23.8944 22.4475C23.9638 22.3087 24 22.1556 24 22.0003C24 21.8451 23.9638 21.692 23.8944 21.5531C23.825 21.4143 23.7242 21.2935 23.6 21.2003V21.2003ZM16 26.0003V18.0003L21.3333 22.0003L16 26.0003Z"/>
<path d="M27.4146 10L29.7075 7.70712C29.8949 7.51954 30 7.26526 30 7.00015C29.9999 6.73505 29.8945 6.48083 29.7071 6.29338C29.5196 6.10592 29.2654 6.00057 29.0003 6.00049C28.7352 6.00041 28.4809 6.10559 28.2933 6.29293L26.0004 8.58584L23.7075 6.29293C23.5199 6.10559 23.2657 6.00041 23.0006 6.00049C22.7355 6.00057 22.4812 6.10592 22.2938 6.29338C22.1063 6.48083 22.001 6.73505 22.0009 7.00015C22.0008 7.26526 22.106 7.51954 22.2933 7.70712L24.5862 10L22.2933 12.2929C22.2004 12.3858 22.1266 12.496 22.0763 12.6174C22.026 12.7387 22 12.8688 22 13.0002C22 13.1315 22.0258 13.2616 22.0761 13.383C22.1263 13.5044 22.2 13.6147 22.2929 13.7076C22.3858 13.8005 22.4961 13.8741 22.6174 13.9244C22.7388 13.9746 22.8689 14.0005 23.0003 14.0004C23.1317 14.0004 23.2617 13.9745 23.3831 13.9241C23.5044 13.8738 23.6147 13.8001 23.7075 13.7071L26.0004 11.4142L28.2933 13.7071C28.3862 13.8001 28.4964 13.8738 28.6178 13.9241C28.7391 13.9745 28.8692 14.0004 29.0006 14.0004C29.1319 14.0005 29.262 13.9746 29.3834 13.9244C29.5048 13.8741 29.6151 13.8005 29.708 13.7076C29.8009 13.6147 29.8745 13.5044 29.9248 13.383C29.975 13.2616 30.0009 13.1315 30.0008 13.0002C30.0008 12.8688 29.9749 12.7387 29.9245 12.6174C29.8742 12.496 29.8005 12.3858 29.7075 12.2929L27.4146 10Z"/>
</svg>
