<svg viewBox="0 0 32 32" xmlns="http://www.w3.org/2000/svg">
<path d="M23.6 21.1999L16.6668 16L23.6 10.8C23.7242 10.7069 23.825 10.5861 23.8944 10.4472C23.9639 10.3084 24 10.1552 24 9.99999C24 9.84474 23.9639 9.69162 23.8944 9.55275C23.825 9.41389 23.7242 9.2931 23.6 9.19994L15.6 3.19994C15.4514 3.08854 15.2747 3.0207 15.0898 3.00404C14.9048 2.98737 14.7189 3.02254 14.5528 3.10559C14.3867 3.18865 14.247 3.31631 14.1494 3.47428C14.0517 3.63225 14 3.81429 14 3.99999V13.9999L7.59998 9.19995C7.49491 9.12116 7.37536 9.06383 7.24814 9.03125C7.12092 8.99866 6.98853 8.99145 6.85853 9.01003C6.59597 9.04755 6.35908 9.18783 6.19995 9.40002C6.04083 9.61221 5.97251 9.87891 6.01003 10.1415C6.04756 10.404 6.18784 10.6409 6.40003 10.8L13.3333 16L6.40003 21.1999C6.18784 21.3591 6.04756 21.596 6.01003 21.8585C5.97251 22.1211 6.04083 22.3878 6.19995 22.6C6.35908 22.8122 6.59597 22.9524 6.85853 22.99C7.12108 23.0275 7.38779 22.9592 7.59998 22.8L14 18V28C14 28.1857 14.0517 28.3677 14.1494 28.5257C14.247 28.6837 14.3867 28.8113 14.5528 28.8944C14.7189 28.9775 14.9048 29.0126 15.0898 28.996C15.2747 28.9793 15.4514 28.9115 15.6 28.8L23.6 22.8C23.7242 22.7069 23.825 22.5861 23.8944 22.4472C23.9639 22.3084 24 22.1552 24 22C24 21.8447 23.9639 21.6916 23.8944 21.5528C23.825 21.4139 23.7242 21.2931 23.6 21.1999V21.1999ZM16 5.99999L21.3334 9.99999L16 14V5.99999ZM16 26V18L21.3334 22L16 26ZM26 16C26 16.2967 25.912 16.5867 25.7472 16.8333C25.5824 17.08 25.3481 17.2723 25.074 17.3858C24.7999 17.4993 24.4983 17.529 24.2074 17.4712C23.9164 17.4133 23.6491 17.2704 23.4393 17.0607C23.2296 16.8509 23.0867 16.5836 23.0288 16.2926C22.9709 16.0017 23.0007 15.7001 23.1142 15.426C23.2277 15.1519 23.42 14.9176 23.6666 14.7528C23.9133 14.588 24.2033 14.5 24.5 14.5C24.8977 14.5004 25.279 14.6586 25.5602 14.9398C25.8414 15.221 25.9996 15.6023 26 16V16ZM6.5 17.5C6.20333 17.5 5.91332 17.412 5.66665 17.2472C5.41997 17.0824 5.22771 16.8481 5.11418 16.574C5.00065 16.2999 4.97094 15.9983 5.02882 15.7074C5.0867 15.4164 5.22956 15.1491 5.43934 14.9393C5.64912 14.7296 5.91639 14.5867 6.20737 14.5288C6.49834 14.4709 6.79994 14.5006 7.07403 14.6142C7.34812 14.7277 7.58238 14.92 7.74721 15.1666C7.91203 15.4133 8 15.7033 8 16C7.99956 16.3977 7.84138 16.779 7.56017 17.0602C7.27896 17.3414 6.89769 17.4995 6.5 17.5V17.5Z"/>
</svg>
