<svg viewBox="0 0 32 32" xmlns="http://www.w3.org/2000/svg">
<path d="M26.7399 26.3273L22.8161 22.0111L22.8149 22.0098L18.8953 17.6982L18.8926 17.6953L6.73992 4.32732C6.65158 4.23015 6.54497 4.15133 6.42618 4.09537C6.30738 4.0394 6.17872 4.00738 6.04755 4.00113C5.78264 3.98852 5.52356 4.08166 5.32732 4.26006C5.23015 4.3484 5.15133 4.45501 5.09537 4.5738C5.0394 4.6926 5.00738 4.82126 5.00113 4.95243C4.98852 5.21734 5.08166 5.47642 5.26006 5.67266L14.1152 15.4134L6.39928 21.2003C6.18711 21.3594 6.04684 21.5963 6.00933 21.8589C5.97183 22.1214 6.04015 22.3881 6.19927 22.6003C6.35839 22.8124 6.59528 22.9527 6.85783 22.9902C7.12037 23.0277 7.38706 22.9594 7.59923 22.8003L13.9993 18.0003V28.0003C13.9993 28.186 14.051 28.3681 14.1486 28.526C14.2462 28.684 14.3859 28.8117 14.552 28.8947C14.7181 28.9778 14.9041 29.0129 15.089 28.9963C15.274 28.9796 15.4507 28.9117 15.5992 28.8003L21.953 24.0349L25.2601 27.6727C25.4385 27.8689 25.6875 27.9862 25.9524 27.9988C26.2173 28.0115 26.4764 27.9183 26.6727 27.7399C26.8689 27.5615 26.9862 27.3125 26.9988 27.0476C27.0115 26.7826 26.9183 26.5236 26.7399 26.3273V26.3273ZM15.9993 26.0003V18.0003L17.4693 19.1028L20.6017 22.5485L15.9993 26.0003Z"/>
<path d="M15 9.95279C15.1313 9.95279 15.2614 9.92693 15.3827 9.87668C15.504 9.82642 15.6143 9.75276 15.7071 9.6599C15.8 9.56705 15.8736 9.4568 15.9239 9.33548C15.9741 9.21415 16 9.08411 16 8.95279V6.00034L21.3333 10.0003L18.2095 12.3432C17.9974 12.5024 17.8571 12.7392 17.8196 13.0018C17.7821 13.2643 17.8504 13.531 18.0095 13.7432C18.1686 13.9554 18.4055 14.0956 18.6681 14.1331C18.9306 14.1707 19.1973 14.1023 19.4095 13.9432L23.6 10.8003C23.7242 10.7072 23.825 10.5864 23.8944 10.4475C23.9639 10.3087 24 10.1556 24 10.0003C24 9.84509 23.9639 9.69198 23.8944 9.55312C23.825 9.41427 23.7242 9.29349 23.6 9.20035L15.6 3.20035C15.4514 3.08893 15.2747 3.02108 15.0898 3.00441C14.9048 2.98773 14.7189 3.02289 14.5528 3.10594C14.3867 3.18899 14.247 3.31665 14.1494 3.47462C14.0517 3.63259 14 3.81463 14 4.00034V8.95279C14 9.08411 14.0259 9.21415 14.0761 9.33548C14.1264 9.4568 14.2 9.56705 14.2929 9.6599C14.3857 9.75276 14.496 9.82642 14.6173 9.87668C14.7386 9.92693 14.8687 9.95279 15 9.95279V9.95279Z"/>
</svg>
