<svg   viewBox="0 0 32 32" fill="none" xmlns="http://www.w3.org/2000/svg">
<path d="M27.001 5H9.00098C8.47073 5.0006 7.96237 5.21151 7.58743 5.58645C7.21248 5.96139 7.00158 6.46975 7.00098 7V9H5.00098C4.47073 9.0006 3.96237 9.21151 3.58743 9.58645C3.21248 9.96139 3.00158 10.4698 3.00098 11V13.9807C3.00085 13.9872 3 13.9935 3 14C3 14.0065 3.00086 14.0128 3.00098 14.0193V25C3.00158 25.5302 3.21249 26.0386 3.58743 26.4135C3.96237 26.7885 4.47073 26.9994 5.00098 27H23.001C23.5312 26.9994 24.0396 26.7885 24.4145 26.4135C24.7895 26.0386 25.0004 25.5302 25.001 25V23H27.001C27.5312 22.9994 28.0396 22.7885 28.4145 22.4135C28.7895 22.0386 29.0004 21.5302 29.001 21V7C29.0004 6.46975 28.7895 5.96139 28.4145 5.58645C28.0396 5.21151 27.5312 5.0006 27.001 5V5ZM23.001 11L23.0012 13H5.00098V11H23.001ZM27.001 21H25.001V11C25.0004 10.4698 24.7895 9.96139 24.4145 9.58645C24.0396 9.21151 23.5312 9.0006 23.001 9H9.00098V7H27.001V21Z" fill="black"/>
</svg>
