<svg   viewBox="0 0 32 32" fill="none" xmlns="http://www.w3.org/2000/svg">
<path d="M27.0001 5H5.0009C4.47066 5.00062 3.96232 5.21153 3.58739 5.58647C3.21247 5.96141 3.00157 6.46976 3.00098 7V11.9807C3.00086 11.9872 3 11.9935 3 12C3 12.0065 3.00086 12.0128 3.00098 12.0193V25C3.00157 25.5302 3.21247 26.0386 3.58739 26.4135C3.96232 26.7885 4.47066 26.9994 5.0009 27H27.0001C27.5303 26.9994 28.0387 26.7885 28.4136 26.4135C28.7885 26.0386 28.9994 25.5302 29 25V7C28.9994 6.46976 28.7885 5.96141 28.4136 5.58647C28.0387 5.21153 27.5303 5.00062 27.0001 5V5ZM27.0001 7L27.0003 11H5.0009V7H27.0001Z" fill="black"/>
</svg>
