<svg viewBox="0 0 32 32" xmlns="http://www.w3.org/2000/svg">
<path d="M24.7662 3.56654C24.4008 3.41436 23.9985 3.37432 23.6103 3.45152C23.2222 3.52872 22.8658 3.71967 22.5865 4.00007L2.00092 24.5858C1.80962 24.7764 1.65901 25.0038 1.55822 25.2543C1.45742 25.5048 1.40855 25.7732 1.41456 26.0432C1.41566 26.0918 1.41854 26.1405 1.42322 26.1892C1.45417 26.5091 1.56145 26.817 1.73605 27.0868C1.91066 27.3567 2.14749 27.5808 2.42664 27.7401C2.46875 27.7641 2.51171 27.7864 2.55552 27.8072C2.82412 27.9345 3.11772 28.0004 3.41498 28.0001H24.0008C24.531 27.9995 25.0394 27.7886 25.4144 27.4136C25.7893 27.0387 26.0002 26.5303 26.0008 26.0001V5.41425C26.0016 5.01852 25.8846 4.6315 25.6647 4.30247C25.4449 3.97343 25.1321 3.71725 24.7662 3.56654ZM24.0008 26.0001L21.0008 26V8.41499L24.0008 5.41505V26.0001Z"/>
</svg>
