<svg viewBox="0 0 32 32" xmlns="http://www.w3.org/2000/svg">
<path d="M24.2637 20.6282C24.3995 20.7775 24.5773 20.8823 24.7737 20.9287C24.9701 20.9751 25.176 20.961 25.3643 20.8882C25.5525 20.8154 25.7143 20.6873 25.8285 20.5209C25.9426 20.3544 26.0036 20.1573 26.0036 19.9554V5.4143C26.0037 5.01873 25.8864 4.63203 25.6666 4.30311C25.4469 3.9742 25.1345 3.71783 24.7691 3.56644C24.4036 3.41506 24.0015 3.37544 23.6135 3.45261C23.2255 3.52978 22.8692 3.72027 22.5895 3.99999L16.2226 10.3668C16.0409 10.5485 15.9361 10.7932 15.93 11.0501C15.9239 11.307 16.0169 11.5564 16.1897 11.7466L24.2637 20.6282Z"/>
<path d="M26.7771 27.6276C26.7938 27.607 26.8096 27.586 26.8244 27.5644C26.8279 27.5594 26.8311 27.5542 26.8345 27.549C26.8486 27.5275 26.8621 27.5057 26.8744 27.4834C26.8782 27.4766 26.8816 27.4696 26.8852 27.4626C26.8962 27.4416 26.9067 27.4203 26.916 27.3987C26.9202 27.3891 26.9239 27.3794 26.9278 27.3697C26.9356 27.35 26.943 27.3303 26.9495 27.3103C26.9535 27.298 26.9569 27.2856 26.9605 27.2731C26.9656 27.2547 26.9706 27.2364 26.9747 27.2178C26.9778 27.2039 26.9803 27.1899 26.9828 27.1758C26.986 27.1578 26.9889 27.1397 26.9911 27.1215C26.9929 27.107 26.9942 27.0924 26.9953 27.0777C26.9967 27.0594 26.9977 27.041 26.9981 27.0226C26.9982 27.015 26.9992 27.0076 26.9992 26.9999C26.9992 26.9922 26.9982 26.9848 26.9981 26.9771C26.9977 26.9599 26.9967 26.9427 26.9955 26.9254C26.9942 26.9086 26.9927 26.8919 26.9906 26.8753C26.9888 26.8608 26.9865 26.8463 26.984 26.8319C26.9808 26.8131 26.9774 26.7946 26.9732 26.7762C26.9704 26.7641 26.9672 26.7522 26.9639 26.7402C26.9585 26.7201 26.9528 26.7002 26.9462 26.6806C26.9428 26.6704 26.9389 26.6603 26.9351 26.6501C26.9273 26.6293 26.9191 26.6088 26.91 26.5887C26.906 26.5799 26.9017 26.5712 26.8974 26.5625C26.8871 26.5413 26.8762 26.5204 26.8644 26.5C26.8602 26.4928 26.8558 26.4857 26.8514 26.4786C26.8381 26.4569 26.8241 26.4357 26.8092 26.4151C26.8052 26.4096 26.801 26.4041 26.7969 26.3986C26.7803 26.3766 26.7629 26.3554 26.7446 26.3349C26.7427 26.3328 26.7411 26.3304 26.7391 26.3283L6.73914 4.32828C6.6508 4.23111 6.54418 4.15229 6.42537 4.09633C6.30657 4.04036 6.17791 4.00835 6.04673 4.00211C5.91555 3.99587 5.78443 4.01552 5.66085 4.05996C5.53727 4.10439 5.42365 4.17274 5.32648 4.26108C5.22931 4.34942 5.1505 4.45604 5.09453 4.57485C5.03857 4.69365 5.00655 4.82231 5.00031 4.95349C4.99407 5.08467 5.01373 5.21579 5.05817 5.33937C5.1026 5.46295 5.17094 5.57657 5.25929 5.67374L12.7129 13.8727L1.99989 24.5857C1.72017 24.8654 1.52968 25.2218 1.4525 25.6097C1.37532 25.9977 1.41492 26.3998 1.5663 26.7653C1.71767 27.1308 1.97402 27.4431 2.30292 27.6629C2.63182 27.8826 3.01851 27.9999 3.41407 27.9999H25.9778C25.9851 28.0001 25.9923 28.001 25.9995 28.001C26.1331 28.0007 26.2653 27.9737 26.3882 27.9214L26.3889 27.9211C26.4179 27.9088 26.4465 27.8951 26.4745 27.8799L26.4774 27.8783C26.504 27.8638 26.53 27.848 26.5554 27.8309L26.5613 27.8269C26.585 27.8107 26.6082 27.7934 26.6308 27.7749L26.6395 27.7677C26.6503 27.7587 26.6614 27.7505 26.6719 27.741C26.6817 27.7321 26.6902 27.7224 26.6996 27.7132C26.7042 27.7086 26.7087 27.704 26.7133 27.6993C26.7317 27.6805 26.7493 27.6613 26.7659 27.6414C26.7698 27.6369 26.7734 27.6322 26.7771 27.6276Z"/>
</svg>
