<svg   viewBox="0 0 32 32" fill="none" xmlns="http://www.w3.org/2000/svg">
<path d="M23.9999 28H3.41405C3.01848 28 2.63179 27.8827 2.30288 27.6629C1.97398 27.4432 1.71763 27.1308 1.56627 26.7653C1.4149 26.3998 1.37532 25.9977 1.45252 25.6097C1.52973 25.2218 1.72025 24.8654 1.99999 24.5857L22.5856 3.99998C22.8653 3.72027 23.2216 3.52979 23.6096 3.45262C23.9976 3.37544 24.3997 3.41505 24.7652 3.56642C25.1306 3.7178 25.443 3.97414 25.6628 4.30304C25.8826 4.63194 25.9999 5.01863 25.9999 5.4142V26C25.9993 26.5302 25.7884 27.0386 25.4134 27.4135C25.0385 27.7885 24.5301 27.9994 23.9999 28V28ZM3.41478 25.9994L23.9999 26V5.41502L3.41417 26L3.41478 25.9994Z" fill="black"/>
</svg>
