<svg   viewBox="0 0 32 32" fill="none" xmlns="http://www.w3.org/2000/svg">
<path d="M24.7653 3.56654C24.3999 3.41436 23.9976 3.37432 23.6094 3.45152C23.2213 3.52872 22.8649 3.71967 22.5856 4.00007L2 24.5858C1.72026 24.8655 1.52973 25.2219 1.45252 25.6098C1.37532 25.9978 1.4149 26.3999 1.56627 26.7654C1.71763 27.1309 1.97398 27.4433 2.30289 27.663C2.6318 27.8828 3.01849 28.0001 3.41407 28.0001H23.9999C24.5301 27.9995 25.0385 27.7886 25.4134 27.4136C25.7884 27.0387 25.9993 26.5303 25.9999 26.0001V5.41425C26.0007 5.01852 25.8837 4.6315 25.6638 4.30247C25.444 3.97343 25.1312 3.71725 24.7653 3.56654Z" fill="black"/>
</svg>
