<svg   viewBox="0 0 32 32" fill="none" xmlns="http://www.w3.org/2000/svg">
<path d="M24.7652 3.56652C24.3999 3.41435 23.9976 3.37432 23.6094 3.45152C23.2213 3.52872 22.8649 3.71967 22.5856 4.00005L9.29322 17.2925L9.29271 17.293L1.99998 24.5858C1.72024 24.8655 1.52972 25.2218 1.45252 25.6098C1.37532 25.9978 1.4149 26.3999 1.56627 26.7654C1.71763 27.1309 1.97397 27.4432 2.30288 27.663C2.63178 27.8828 3.01847 28.0001 3.41405 28.0001H23.9999C24.5301 27.9994 25.0385 27.7885 25.4134 27.4136C25.7883 27.0387 25.9993 26.5303 25.9999 26.0001V5.41423C26.0006 5.0185 25.8836 4.63149 25.6638 4.30245C25.4439 3.97341 25.1311 3.71723 24.7652 3.56652V3.56652ZM23.9999 26L10.9999 25.9996V18.4146L23.9999 5.41509V26Z" fill="black"/>
</svg>
