<svg   viewBox="0 0 32 32" fill="none" xmlns="http://www.w3.org/2000/svg">
<path d="M26.4143 16L28.7071 13.7072C28.8 13.6143 28.8737 13.5041 28.9239 13.3828C28.9742 13.2614 29.0001 13.1314 29.0001 13.0001C29.0001 12.8687 28.9742 12.7387 28.924 12.6174C28.8737 12.496 28.8 12.3858 28.7072 12.2929C28.6143 12.2001 28.5041 12.1264 28.3828 12.0761C28.2614 12.0259 28.1314 12 28.0001 12C27.8688 12 27.7387 12.0259 27.6174 12.0761C27.4961 12.1264 27.3858 12.2 27.2929 12.2929L25 14.5858L22.7071 12.2929C22.5196 12.1053 22.2652 12 22 12C21.7348 12 21.4804 12.1054 21.2929 12.2929C21.1053 12.4805 21 12.7348 21 13.0001C21 13.2653 21.1054 13.5196 21.2929 13.7072L23.5858 16L21.2929 18.2929C21.1054 18.4804 21 18.7348 21 19C21 19.2652 21.1053 19.5196 21.2929 19.7071C21.4804 19.8947 21.7348 20 22 20C22.2652 20.0001 22.5196 19.8947 22.7071 19.7072L25 17.4143L27.2929 19.7072C27.4805 19.8947 27.7348 20.0001 28.0001 20.0001C28.2653 20 28.5196 19.8947 28.7072 19.7071C28.8947 19.5196 29.0001 19.2652 29.0001 19C29 18.7348 28.8947 18.4804 28.7071 18.2929L26.4143 16Z" fill="black"/>
<path d="M24.9999 20.2427L24.1212 21.1213C23.5586 21.6839 22.7955 22 21.9999 22C21.2042 22 20.4411 21.6839 19.8785 21.1213C19.3159 20.5587 18.9998 19.7956 18.9998 19C18.9998 18.2043 19.3159 17.4413 19.8785 16.8787L20.7572 16L19.8785 15.1213C19.3159 14.5587 18.9998 13.7956 18.9998 13C18.9998 12.2043 19.3159 11.4413 19.8785 10.8787C20.4411 10.316 21.2042 9.99997 21.9999 9.99997C22.7955 9.99997 23.5586 10.316 24.1212 10.8787L24.9999 11.7573L25.8785 10.8787C25.9175 10.8397 25.9593 10.8054 25.9999 10.769V5.41417C25.9999 5.01861 25.8826 4.63193 25.6628 4.30304C25.443 3.97414 25.1307 3.71779 24.7652 3.56642C24.3998 3.41505 23.9976 3.37544 23.6097 3.45262C23.2217 3.52979 22.8654 3.72028 22.5857 3.99999L1.99979 24.5858C1.7201 24.8655 1.52964 25.2219 1.45248 25.6098C1.37532 25.9978 1.41494 26.3999 1.56631 26.7654C1.71769 27.1308 1.97403 27.4432 2.30292 27.6629C2.63181 27.8827 3.01848 28 3.41404 28H23.9999C24.5301 27.9994 25.0385 27.7885 25.4134 27.4135C25.7883 27.0386 25.9992 26.5302 25.9999 26V21.231C25.9593 21.1946 25.9175 21.1603 25.8785 21.1213L24.9999 20.2427Z" fill="black"/>
</svg>
