<svg viewBox="0 0 32 32" xmlns="http://www.w3.org/2000/svg">
<path d="M19.2071 11.2071L8.20726 22.2071C8.01971 22.3946 7.76537 22.4999 7.50016 22.4999C7.23496 22.4999 6.98062 22.3946 6.79307 22.2071L1.29295 16.7073C1.1054 16.5198 1.00002 16.2655 1 16.0003C0.999977 15.7351 1.10531 15.4807 1.29283 15.2932C1.48034 15.1056 1.73468 15.0002 1.99989 15.0002C2.2651 15.0002 2.51946 15.1055 2.70701 15.293L7.5001 20.0858L17.7928 9.79279C17.9804 9.60524 18.2347 9.49988 18.5 9.49988C18.7652 9.49988 19.0196 9.60524 19.2071 9.79279C19.3947 9.98034 19.5 10.2347 19.5 10.4999C19.5 10.7652 19.3947 11.0195 19.2071 11.2071H19.2071ZM30.7071 9.79279C30.5195 9.60532 30.2652 9.50001 30 9.50001C29.7348 9.50001 29.4804 9.60532 29.2928 9.79279L19.0001 20.0858L16.7854 17.8713C16.5978 17.6838 16.3435 17.5784 16.0783 17.5785C15.8131 17.5785 15.5587 17.6839 15.3712 17.8714C15.1837 18.059 15.0783 18.3133 15.0784 18.5785C15.0784 18.8437 15.1838 19.0981 15.3713 19.2856L18.2931 22.2071C18.4806 22.3946 18.735 22.4999 19.0002 22.4999C19.2654 22.4999 19.5197 22.3946 19.7073 22.2071L30.7071 11.2071C30.8947 11.0195 31 10.7652 31 10.4999C31 10.2347 30.8947 9.98035 30.7071 9.79279V9.79279Z"/>
</svg>
