<svg viewBox="0 0 32 32" xmlns="http://www.w3.org/2000/svg">
<path d="M25.5 4.5H6.5C5.96975 4.50061 5.4614 4.71152 5.08646 5.08646C4.71151 5.4614 4.50061 5.96975 4.5 6.5V17.9091C4.5 18.1743 4.60536 18.4286 4.79289 18.6162C4.98043 18.8037 5.23478 18.9091 5.5 18.9091C5.76522 18.9091 6.01957 18.8037 6.20711 18.6162C6.39464 18.4286 6.5 18.1743 6.5 17.9091V6.5H25.5V25.5H16.9545C16.6893 25.5 16.4349 25.6054 16.2474 25.7929C16.0598 25.9804 15.9545 26.2348 15.9545 26.5C15.9545 26.7652 16.0598 27.0196 16.2474 27.2071C16.4349 27.3946 16.6893 27.5 16.9545 27.5H25.5C26.0302 27.4994 26.5386 27.2885 26.9135 26.9135C27.2885 26.5386 27.4994 26.0302 27.5 25.5V6.5C27.4994 5.96975 27.2885 5.4614 26.9135 5.08646C26.5386 4.71151 26.0302 4.50061 25.5 4.5V4.5Z"/>
<path d="M16.7072 18.2929C16.5196 18.1053 16.2652 18 16 18C15.7348 18 15.4804 18.1053 15.2929 18.2929L8.00002 25.5858L4.70718 22.2929C4.61432 22.2 4.50408 22.1263 4.38275 22.0761C4.26143 22.0258 4.13139 22 4.00007 21.9999C3.86874 21.9999 3.7387 22.0258 3.61737 22.0761C3.49604 22.1263 3.38579 22.2 3.29293 22.2928C3.20007 22.3857 3.1264 22.4959 3.07614 22.6172C3.02588 22.7386 3.00001 22.8686 3 22.9999C2.99999 23.1313 3.02585 23.2613 3.07611 23.3826C3.12636 23.504 3.20001 23.6142 3.29287 23.7071L7.29287 27.7071C7.48042 27.8946 7.73479 28 8.00002 28C8.26526 28 8.51963 27.8946 8.70718 27.7071L16.7072 19.7071C16.8947 19.5195 17.0001 19.2652 17.0001 19C17.0001 18.7348 16.8947 18.4804 16.7072 18.2929Z"/>
</svg>
