<svg   viewBox="0 0 32 32" fill="none" xmlns="http://www.w3.org/2000/svg">
<path d="M26 4H6C5.46973 4.00052 4.96132 4.21141 4.58636 4.58636C4.21141 4.96132 4.00052 5.46973 4 6V26C4.00052 26.5303 4.21141 27.0387 4.58636 27.4136C4.96132 27.7886 5.46973 27.9995 6 28H26C26.5303 27.9995 27.0387 27.7886 27.4136 27.4136C27.7886 27.0387 27.9995 26.5303 28 26V6C27.9995 5.46973 27.7886 4.96132 27.4136 4.58636C27.0387 4.2114 26.5303 4.00052 26 4ZM22.1904 13.7227L14.8564 20.7227C14.6707 20.9006 14.4233 21 14.166 21C13.9087 21 13.6614 20.9006 13.4756 20.7227L9.80957 17.2227C9.71441 17.1321 9.63804 17.0236 9.58485 16.9034C9.53165 16.7833 9.50267 16.6538 9.49956 16.5225C9.49645 16.3911 9.51927 16.2604 9.56672 16.1379C9.61417 16.0153 9.68532 15.9034 9.77609 15.8084C9.86686 15.7134 9.97547 15.6372 10.0957 15.5842C10.216 15.5312 10.3455 15.5025 10.4768 15.4996C10.6082 15.4967 10.7388 15.5197 10.8613 15.5674C10.9837 15.6151 11.0956 15.6864 11.1904 15.7773L14.166 18.6172L20.8096 12.2773C20.9044 12.1864 21.0163 12.1151 21.1387 12.0674C21.2612 12.0197 21.3918 11.9967 21.5232 11.9996C21.6545 12.0025 21.784 12.0312 21.9043 12.0842C22.0245 12.1372 22.1331 12.2134 22.2239 12.3084C22.3147 12.4034 22.3858 12.5153 22.4333 12.6379C22.4807 12.7604 22.5035 12.8911 22.5004 13.0225C22.4973 13.1538 22.4683 13.2833 22.4151 13.4034C22.362 13.5236 22.2856 13.6321 22.1904 13.7227H22.1904Z" fill="black"/>
</svg>
