<svg   viewBox="0 0 32 32" fill="none" xmlns="http://www.w3.org/2000/svg">
<path d="M13 24.0001C12.8686 24.0002 12.7386 23.9744 12.6172 23.9242C12.4959 23.8739 12.3857 23.8002 12.2929 23.7072L5.29295 16.7078C5.20008 16.6149 5.12642 16.5047 5.07615 16.3834C5.02589 16.262 5.00001 16.132 5 16.0007C4.99999 15.8694 5.02584 15.7393 5.07609 15.618C5.12633 15.4967 5.19998 15.3864 5.29283 15.2936C5.38567 15.2007 5.49591 15.127 5.61722 15.0768C5.73854 15.0265 5.86857 15.0006 5.99989 15.0006C6.13121 15.0006 6.26125 15.0265 6.38258 15.0767C6.5039 15.127 6.61415 15.2006 6.70701 15.2934L13 21.5859L26.2928 8.29351C26.4804 8.10619 26.7347 8.00101 26.9998 8.0011C27.2649 8.00118 27.5191 8.10653 27.7066 8.29397C27.894 8.48141 27.9994 8.73562 27.9995 9.00071C27.9996 9.26581 27.8944 9.5201 27.7071 9.70769L13.7071 23.7072C13.6143 23.8002 13.5041 23.8739 13.3828 23.9242C13.2614 23.9744 13.1313 24.0002 13 24.0001V24.0001Z" fill="black"/>
</svg>
