<svg   viewBox="0 0 32 32" fill="none" xmlns="http://www.w3.org/2000/svg">
<path d="M6.73993 4.32732C6.65159 4.23015 6.54498 4.15133 6.42619 4.09537C6.30739 4.0394 6.17873 4.00738 6.04756 4.00113C5.78265 3.98852 5.52357 4.08166 5.32733 4.26006C5.23016 4.3484 5.15134 4.45501 5.09538 4.5738C5.03941 4.6926 5.00739 4.82126 5.00114 4.95243C4.98853 5.21734 5.08167 5.47642 5.26007 5.67266L10.1654 11.0686C10.1629 11.0735 10.1602 11.0784 10.1577 11.0834C9.06979 10.9243 7.96075 10.9912 6.89983 11.2799C5.83891 11.5686 4.84889 12.0728 3.99154 12.7612C3.1342 13.4496 2.42795 14.3073 1.91686 15.2807C1.40578 16.2542 1.10084 17.3226 1.02108 18.4192C0.941318 19.5158 1.08844 20.6171 1.45328 21.6543C1.81811 22.6915 2.39281 23.6423 3.14152 24.4475C3.89023 25.2527 4.79687 25.8949 5.80485 26.3341C6.81283 26.7733 7.90051 26.9999 9 27H20C21.3595 27.0027 22.7076 26.7514 23.9749 26.2589L25.2601 27.6727C25.4385 27.8689 25.6875 27.9862 25.9524 27.9988C26.2174 28.0115 26.4764 27.9183 26.6727 27.7399C26.8689 27.5615 26.9862 27.3125 26.9989 27.0476C27.0115 26.7826 26.9183 26.5236 26.7399 26.3273L6.73993 4.32732Z" fill="black"/>
<path d="M19.9991 5.00004C17.6549 4.99381 15.371 5.74243 13.4854 7.13511C13.3726 7.21811 13.2785 7.32387 13.2092 7.44554C13.1399 7.56721 13.0969 7.70208 13.083 7.84141C13.0692 7.98075 13.0847 8.12145 13.1287 8.2544C13.1726 8.38735 13.244 8.50958 13.3382 8.6132L26.7192 23.3323C26.8129 23.4353 26.9271 23.5177 27.0545 23.5741C27.182 23.6305 27.3198 23.6596 27.4591 23.6596H27.4634C27.6035 23.659 27.7419 23.629 27.8696 23.5715C27.9973 23.5139 28.1115 23.4303 28.2048 23.3258C29.6184 21.7424 30.5437 19.7838 30.8691 17.6863C31.1944 15.5888 30.906 13.4419 30.0386 11.5047C29.1711 9.56741 27.7617 7.9225 25.9803 6.76833C24.1989 5.61417 22.1217 5.00005 19.9991 5.00004V5.00004Z" fill="black"/>
</svg>
