<svg viewBox="0 0 32 32" xmlns="http://www.w3.org/2000/svg">
<path d="M20 5C17.9571 5.00168 15.9549 5.57159 14.2173 6.646C12.4797 7.72041 11.0752 9.25697 10.1609 11.0839L10.1602 11.0838C9.39452 12.6094 8.99668 14.2931 8.99854 16C8.99854 16.2652 8.89319 16.5196 8.70565 16.7071C8.51811 16.8946 8.26376 17 7.99854 17C7.73333 17 7.47897 16.8946 7.29144 16.7071C7.1039 16.5196 6.99854 16.2652 6.99854 16C6.99697 14.3083 7.32738 12.6328 7.97104 11.0684C5.95551 11.3296 4.11496 12.3482 2.82328 13.9173C1.5316 15.4865 0.885651 17.4884 1.01664 19.5166C1.14764 21.5448 2.04575 23.447 3.52854 24.8369C5.01134 26.2269 6.96762 27.0003 9.00001 27H20C22.9174 27 25.7153 25.8411 27.7782 23.7782C29.8411 21.7153 31 18.9174 31 16C31 13.0826 29.8411 10.2847 27.7782 8.22183C25.7153 6.15893 22.9174 5 20 5ZM23.9489 18.9497C23.856 19.0426 23.7458 19.1162 23.6244 19.1665C23.5031 19.2167 23.3731 19.2426 23.2418 19.2426C23.1104 19.2426 22.9804 19.2167 22.8591 19.1665C22.7378 19.1162 22.6275 19.0426 22.5347 18.9497L19.9992 16.4142V24C19.9992 24.2652 19.8938 24.5196 19.7063 24.7071C19.5187 24.8946 19.2644 25 18.9992 25C18.7339 25 18.4796 24.8946 18.292 24.7071C18.1045 24.5196 17.9992 24.2652 17.9992 24V16.4142L15.4636 18.9497C15.3708 19.0427 15.2606 19.1164 15.1392 19.1667C15.0179 19.2171 14.8878 19.243 14.7564 19.243C14.625 19.2431 14.4949 19.2172 14.3736 19.167C14.2522 19.1167 14.1419 19.043 14.049 18.9502C13.9561 18.8573 13.8824 18.747 13.8322 18.6256C13.7819 18.5042 13.7561 18.3741 13.7561 18.2427C13.7562 18.1114 13.7821 17.9813 13.8324 17.8599C13.8827 17.7386 13.9565 17.6284 14.0494 17.5355L18.2916 13.2934C18.3151 13.2699 18.3398 13.2475 18.3656 13.2265C18.376 13.2179 18.3871 13.2104 18.3978 13.2023C18.4131 13.1908 18.4282 13.1789 18.4442 13.1682C18.4576 13.1593 18.4715 13.1515 18.4853 13.1433C18.4995 13.1348 18.5134 13.1258 18.5281 13.118C18.5423 13.1104 18.5569 13.104 18.5713 13.0972C18.5864 13.09 18.6013 13.0825 18.6168 13.076C18.6308 13.0703 18.6451 13.0656 18.6592 13.0605C18.6758 13.0545 18.6922 13.0482 18.7092 13.043C18.7233 13.0388 18.7376 13.0357 18.7519 13.0321C18.7692 13.0276 18.7864 13.0228 18.8041 13.0193C18.8203 13.0161 18.8367 13.0143 18.853 13.0119C18.8689 13.0095 18.8846 13.0065 18.9008 13.005C18.9298 13.0021 18.9589 13.0009 18.9881 13.0005C18.9918 13.0005 18.9954 13 18.9991 13C19.0029 13 19.0065 13.0005 19.0102 13.0005C19.0394 13.0009 19.0685 13.0021 19.0975 13.005C19.1136 13.0065 19.1293 13.0095 19.1453 13.0119C19.1616 13.0143 19.178 13.0161 19.1942 13.0193C19.2119 13.0228 19.2291 13.0276 19.2464 13.0321C19.2607 13.0357 19.275 13.0388 19.2891 13.043C19.3061 13.0482 19.3225 13.0545 19.3391 13.0605C19.3532 13.0656 19.3675 13.0703 19.3815 13.076C19.397 13.0825 19.4119 13.09 19.427 13.0972C19.4414 13.104 19.456 13.1104 19.4702 13.118C19.4849 13.1259 19.4988 13.1348 19.513 13.1433C19.5268 13.1515 19.5407 13.1593 19.5541 13.1682C19.5701 13.1789 19.5851 13.1908 19.6005 13.2023C19.6112 13.2104 19.6223 13.2179 19.6327 13.2265C19.6585 13.2475 19.6832 13.2699 19.7067 13.2934L23.9488 17.5355C24.0417 17.6284 24.1154 17.7386 24.1656 17.8599C24.2159 17.9813 24.2418 18.1113 24.2418 18.2426C24.2418 18.3739 24.2159 18.504 24.1657 18.6253C24.1154 18.7466 24.0417 18.8569 23.9489 18.9497V18.9497Z"/>
</svg>
