<svg viewBox="0 0 32 32" xmlns="http://www.w3.org/2000/svg">
<path d="M20 5C17.9571 5.00168 15.9549 5.57159 14.2173 6.646C12.4797 7.72041 11.0752 9.25697 10.1609 11.0839L10.1602 11.0838C9.39452 12.6094 8.99668 14.2931 8.99854 16C8.99854 16.2652 8.89319 16.5196 8.70565 16.7071C8.51811 16.8946 8.26376 17 7.99854 17C7.73333 17 7.47897 16.8946 7.29144 16.7071C7.1039 16.5196 6.99854 16.2652 6.99854 16C6.99697 14.3083 7.32738 12.6328 7.97104 11.0684C5.95551 11.3296 4.11496 12.3482 2.82328 13.9173C1.5316 15.4865 0.885651 17.4884 1.01664 19.5166C1.14764 21.5448 2.04575 23.447 3.52854 24.8369C5.01134 26.2269 6.96762 27.0003 9.00001 27H20C22.9174 27 25.7153 25.8411 27.7782 23.7782C29.8411 21.7153 31 18.9174 31 16C31 13.0826 29.8411 10.2847 27.7782 8.22183C25.7153 6.15893 22.9174 5 20 5ZM23.9489 20.4645L19.7067 24.7066C19.6832 24.7301 19.6585 24.7525 19.6327 24.7735C19.6223 24.7821 19.6112 24.7895 19.6005 24.7977C19.5852 24.8092 19.5701 24.8211 19.5541 24.8318C19.5406 24.8408 19.5266 24.8485 19.5129 24.8568C19.4987 24.8653 19.4848 24.8742 19.4703 24.882C19.4559 24.8897 19.441 24.8962 19.4263 24.9031C19.4115 24.9102 19.3969 24.9176 19.3816 24.9239C19.3673 24.9298 19.3527 24.9346 19.3382 24.9398C19.3219 24.9457 19.3059 24.9519 19.2892 24.9569C19.2746 24.9613 19.2598 24.9646 19.245 24.9683C19.2282 24.9725 19.2116 24.9772 19.1945 24.9806C19.1771 24.9841 19.1596 24.9861 19.1421 24.9886C19.1273 24.9907 19.1128 24.9936 19.0978 24.995C19.065 24.9983 19.0321 25 18.9992 25C18.9662 25 18.9333 24.9983 18.9005 24.995C18.8855 24.9936 18.871 24.9907 18.8562 24.9886C18.8387 24.9861 18.8212 24.9841 18.8038 24.9806C18.7867 24.9772 18.7701 24.9725 18.7533 24.9683C18.7385 24.9646 18.7237 24.9613 18.7091 24.9569C18.6925 24.9519 18.6764 24.9457 18.6602 24.9398C18.6456 24.9346 18.631 24.9298 18.6167 24.9239C18.6015 24.9176 18.5868 24.9102 18.572 24.9031C18.5573 24.8962 18.5425 24.8897 18.5281 24.882C18.5135 24.8742 18.4996 24.8653 18.4855 24.8568C18.4717 24.8485 18.4577 24.8408 18.4442 24.8318C18.4282 24.8211 18.4132 24.8092 18.3978 24.7977C18.3871 24.7895 18.3761 24.7821 18.3656 24.7735C18.3398 24.7525 18.3151 24.7301 18.2916 24.7066L14.0495 20.4645C13.9561 20.3717 13.8819 20.2615 13.8312 20.14C13.7806 20.0186 13.7544 19.8883 13.7541 19.7567C13.7539 19.6251 13.7797 19.4947 13.8299 19.3731C13.8802 19.2514 13.954 19.1409 14.047 19.0479C14.1401 18.9548 14.2506 18.881 14.3722 18.8308C14.4939 18.7805 14.6242 18.7547 14.7558 18.755C14.8874 18.7552 15.0177 18.7814 15.1392 18.8321C15.2606 18.8828 15.3709 18.9569 15.4636 19.0503L17.9992 21.5858V14C17.9992 13.7348 18.1045 13.4804 18.2921 13.2929C18.4796 13.1054 18.7339 13 18.9992 13C19.2644 13 19.5187 13.1054 19.7063 13.2929C19.8938 13.4804 19.9992 13.7348 19.9992 14V21.5858L22.5347 19.0503C22.6275 18.9573 22.7378 18.8836 22.8591 18.8333C22.9805 18.7829 23.1105 18.757 23.2419 18.757C23.3733 18.7569 23.5034 18.7828 23.6247 18.833C23.7461 18.8833 23.8564 18.957 23.9493 19.0498C24.0422 19.1427 24.1159 19.253 24.1661 19.3744C24.2164 19.4958 24.2422 19.6259 24.2422 19.7573C24.2422 19.8886 24.2162 20.0187 24.1659 20.1401C24.1156 20.2614 24.0418 20.3716 23.9489 20.4645H23.9489Z"/>
</svg>
