<svg viewBox="0 0 32 32" xmlns="http://www.w3.org/2000/svg">
<path d="M20 5C17.9571 5.00168 15.9549 5.57159 14.2173 6.646C12.4797 7.72041 11.0752 9.25697 10.1609 11.0839L10.1602 11.0838C9.39452 12.6094 8.99668 14.2931 8.99854 16C8.99854 16.2652 8.89319 16.5196 8.70565 16.7071C8.51811 16.8946 8.26376 17 7.99854 17C7.73333 17 7.47897 16.8946 7.29144 16.7071C7.1039 16.5196 6.99854 16.2652 6.99854 16C6.99697 14.3083 7.32738 12.6328 7.97104 11.0684C5.95551 11.3296 4.11496 12.3482 2.82328 13.9173C1.5316 15.4865 0.885651 17.4884 1.01664 19.5166C1.14764 21.5448 2.04575 23.447 3.52854 24.8369C5.01134 26.2269 6.96762 27.0003 9.00001 27H20C22.9174 27 25.7153 25.8411 27.7782 23.7782C29.8411 21.7153 31 18.9174 31 16C31 13.0826 29.8411 10.2847 27.7782 8.22183C25.7153 6.15893 22.9174 5 20 5ZM24.707 15.2071L18.707 21.2071C18.6141 21.3 18.5039 21.3736 18.3826 21.4239C18.2612 21.4741 18.1312 21.5 17.9999 21.5C17.8686 21.5 17.7385 21.4741 17.6172 21.4239C17.4959 21.3736 17.3856 21.3 17.2928 21.2071L14.2928 18.2071C14.1055 18.0195 14.0003 17.7652 14.0004 17.5001C14.0004 17.235 14.1058 16.9808 14.2932 16.7934C14.4807 16.6059 14.7349 16.5005 15 16.5005C15.2651 16.5004 15.5194 16.6056 15.707 16.7929L17.9999 19.0858L23.2928 13.7929C23.4804 13.6056 23.7347 13.5004 23.9998 13.5005C24.2649 13.5005 24.5191 13.6059 24.7065 13.7934C24.894 13.9808 24.9993 14.235 24.9994 14.5001C24.9995 14.7652 24.8943 15.0195 24.707 15.2071H24.707Z"/>
</svg>
