<svg viewBox="0 0 32 32" xmlns="http://www.w3.org/2000/svg">
<path d="M22.5 18H20V14H22.5C23.39 14 24.26 13.7361 25.0001 13.2416C25.7401 12.7471 26.3169 12.0443 26.6575 11.2221C26.9981 10.3998 27.0872 9.49501 26.9135 8.6221C26.7399 7.74918 26.3113 6.94736 25.682 6.31802C25.0526 5.68868 24.2508 5.2601 23.3779 5.08647C22.505 4.91283 21.6002 5.00195 20.7779 5.34254C19.9557 5.68314 19.2529 6.25991 18.7584 6.99994C18.2639 7.73996 18 8.60999 18 9.5V12H14V9.5C14 8.60999 13.7361 7.73996 13.2416 6.99994C12.7471 6.25991 12.0443 5.68314 11.2221 5.34254C10.3998 5.00195 9.49501 4.91283 8.6221 5.08647C7.74918 5.2601 6.94736 5.68868 6.31802 6.31802C5.68868 6.94736 5.2601 7.74918 5.08647 8.6221C4.91283 9.49501 5.00195 10.3998 5.34254 11.2221C5.68314 12.0443 6.25991 12.7471 6.99994 13.2416C7.73996 13.7361 8.60999 14 9.5 14H12V18H9.5C8.60999 18 7.73996 18.2639 6.99994 18.7584C6.25991 19.2529 5.68314 19.9557 5.34254 20.7779C5.00195 21.6002 4.91283 22.505 5.08647 23.3779C5.2601 24.2508 5.68868 25.0526 6.31802 25.682C6.94736 26.3113 7.74918 26.7399 8.6221 26.9135C9.49501 27.0872 10.3998 26.9981 11.2221 26.6575C12.0443 26.3169 12.7471 25.7401 13.2416 25.0001C13.7361 24.26 14 23.39 14 22.5V20H18V22.5C18 23.39 18.2639 24.26 18.7584 25.0001C19.2529 25.7401 19.9557 26.3169 20.7779 26.6575C21.6002 26.9981 22.505 27.0872 23.3779 26.9135C24.2508 26.7399 25.0526 26.3113 25.682 25.682C26.3113 25.0526 26.7399 24.2508 26.9135 23.3779C27.0872 22.505 26.9981 21.6002 26.6575 20.7779C26.3169 19.9557 25.7401 19.2529 25.0001 18.7584C24.26 18.2639 23.39 18 22.5 18V18ZM20 9.5C20 9.00555 20.1466 8.5222 20.4213 8.11108C20.696 7.69995 21.0865 7.37952 21.5433 7.1903C22.0001 7.00108 22.5028 6.95158 22.9877 7.04804C23.4727 7.1445 23.9181 7.3826 24.2678 7.73223C24.6174 8.08187 24.8555 8.52732 24.952 9.01228C25.0484 9.49723 24.9989 9.9999 24.8097 10.4567C24.6205 10.9135 24.3001 11.304 23.8889 11.5787C23.4778 11.8534 22.9945 12 22.5 12H20V9.5ZM7 9.5C7 8.83696 7.26339 8.20108 7.73223 7.73223C8.20108 7.26339 8.83696 7 9.5 7C10.163 7 10.7989 7.26339 11.2678 7.73223C11.7366 8.20108 12 8.83696 12 9.5V12H9.5C8.83719 11.9993 8.20174 11.7356 7.73306 11.2669C7.26438 10.7983 7.00075 10.1628 7 9.5ZM12 22.5C12 22.9945 11.8534 23.4778 11.5787 23.8889C11.304 24.3001 10.9135 24.6205 10.4567 24.8097C9.9999 24.9989 9.49723 25.0484 9.01228 24.952C8.52732 24.8555 8.08187 24.6174 7.73223 24.2678C7.3826 23.9181 7.1445 23.4727 7.04804 22.9877C6.95158 22.5028 7.00108 22.0001 7.1903 21.5433C7.37952 21.0865 7.69995 20.696 8.11108 20.4213C8.5222 20.1466 9.00555 20 9.5 20H12V22.5ZM14 14H18V18H14V14ZM22.5 25C21.8372 24.9993 21.2017 24.7356 20.7331 24.2669C20.2644 23.7983 20.0007 23.1628 20 22.5V20H22.5C23.163 20 23.7989 20.2634 24.2678 20.7322C24.7366 21.2011 25 21.837 25 22.5C25 23.163 24.7366 23.7989 24.2678 24.2678C23.7989 24.7366 23.163 25 22.5 25Z"/>
</svg>
