<svg viewBox="0 0 32 32" xmlns="http://www.w3.org/2000/svg">
<path d="M24 3H8C7.46975 3.00061 6.9614 3.21151 6.58646 3.58646C6.21151 3.9614 6.00061 4.46975 6 5V27C6.00061 27.5302 6.21151 28.0386 6.58646 28.4135C6.9614 28.7885 7.46975 28.9994 8 29H24C24.5302 28.9994 25.0386 28.7885 25.4135 28.4135C25.7885 28.0386 25.9994 27.5302 26 27V5C25.9994 4.46975 25.7885 3.9614 25.4135 3.58646C25.0386 3.21151 24.5302 3.00061 24 3V3ZM16 24C15.7033 24 15.4133 23.912 15.1666 23.7472C14.92 23.5824 14.7277 23.3481 14.6142 23.074C14.5006 22.7999 14.4709 22.4983 14.5288 22.2074C14.5867 21.9164 14.7296 21.6491 14.9393 21.4393C15.1491 21.2296 15.4164 21.0867 15.7074 21.0288C15.9983 20.9709 16.2999 21.0007 16.574 21.1142C16.8481 21.2277 17.0824 21.42 17.2472 21.6666C17.412 21.9133 17.5 22.2033 17.5 22.5C17.4996 22.8977 17.3414 23.279 17.0602 23.5602C16.779 23.8414 16.3977 23.9996 16 24V24ZM20 14H12C11.7348 14 11.4804 13.8946 11.2929 13.7071C11.1054 13.5196 11 13.2652 11 13C11 12.7348 11.1054 12.4804 11.2929 12.2929C11.4804 12.1054 11.7348 12 12 12H20C20.2652 12 20.5196 12.1054 20.7071 12.2929C20.8946 12.4804 21 12.7348 21 13C21 13.2652 20.8946 13.5196 20.7071 13.7071C20.5196 13.8946 20.2652 14 20 14ZM20 10H12C11.7348 10 11.4804 9.89464 11.2929 9.70711C11.1054 9.51957 11 9.26522 11 9C11 8.73478 11.1054 8.48043 11.2929 8.29289C11.4804 8.10536 11.7348 8 12 8H20C20.2652 8 20.5196 8.10536 20.7071 8.29289C20.8946 8.48043 21 8.73478 21 9C21 9.26522 20.8946 9.51957 20.7071 9.70711C20.5196 9.89464 20.2652 10 20 10Z"/>
</svg>
