<svg viewBox="0 0 32 32" xmlns="http://www.w3.org/2000/svg">
<path d="M15 10V23C15 23.2652 14.8946 23.5196 14.7071 23.7071C14.5196 23.8946 14.2652 24 14 24H12V26H14C14.2652 26 14.5196 26.1054 14.7071 26.2929C14.8946 26.4804 15 26.7348 15 27C15 27.2652 14.8946 27.5196 14.7071 27.7071C14.5196 27.8946 14.2652 28 14 28H8C7.73478 28 7.48043 27.8946 7.29289 27.7071C7.10536 27.5196 7 27.2652 7 27C7 26.7348 7.10536 26.4804 7.29289 26.2929C7.48043 26.1054 7.73478 26 8 26H10V24H4C3.20463 23.9991 2.4421 23.6827 1.87968 23.1203C1.31727 22.5579 1.00091 21.7954 1 21V12C1.00091 11.2046 1.31727 10.4421 1.87968 9.87968C2.4421 9.31727 3.20463 9.00091 4 9H14C14.2652 9 14.5196 9.10536 14.7071 9.2929C14.8946 9.48043 15 9.73478 15 10V10ZM31 6V26C30.9994 26.5302 30.7885 27.0386 30.4135 27.4135C30.0386 27.7885 29.5302 27.9994 29 28H19C18.4698 27.9994 17.9614 27.7885 17.5865 27.4135C17.2115 27.0386 17.0006 26.5302 17 26V6C17.0006 5.46975 17.2115 4.9614 17.5865 4.58646C17.9614 4.21151 18.4698 4.00061 19 4H29C29.5302 4.00061 30.0386 4.21151 30.4135 4.58646C30.7885 4.9614 30.9994 5.46975 31 6V6ZM25.5 22.5C25.5 22.2033 25.412 21.9133 25.2472 21.6666C25.0824 21.42 24.8481 21.2277 24.574 21.1142C24.2999 21.0007 23.9983 20.9709 23.7074 21.0288C23.4164 21.0867 23.1491 21.2296 22.9393 21.4393C22.7296 21.6491 22.5867 21.9164 22.5288 22.2074C22.4709 22.4983 22.5007 22.7999 22.6142 23.074C22.7277 23.3481 22.92 23.5824 23.1666 23.7472C23.4133 23.912 23.7033 24 24 24C24.3977 23.9996 24.779 23.8414 25.0602 23.5602C25.3414 23.279 25.4996 22.8977 25.5 22.5V22.5ZM28 13C28 12.7348 27.8946 12.4804 27.7071 12.2929C27.5196 12.1054 27.2652 12 27 12H21C20.7348 12 20.4804 12.1054 20.2929 12.2929C20.1054 12.4804 20 12.7348 20 13C20 13.2652 20.1054 13.5196 20.2929 13.7071C20.4804 13.8946 20.7348 14 21 14H27C27.2652 14 27.5196 13.8946 27.7071 13.7071C27.8946 13.5196 28 13.2652 28 13V13ZM28 9C28 8.73478 27.8946 8.48043 27.7071 8.2929C27.5196 8.10536 27.2652 8 27 8H21C20.7348 8 20.4804 8.10536 20.2929 8.29289C20.1054 8.48043 20 8.73478 20 9C20 9.26522 20.1054 9.51957 20.2929 9.70711C20.4804 9.89464 20.7348 10 21 10H27C27.2652 10 27.5196 9.89464 27.7071 9.7071C27.8946 9.51957 28 9.26522 28 9Z"/>
</svg>
