<svg   viewBox="0 0 32 32" fill="none" xmlns="http://www.w3.org/2000/svg">
<path d="M26 5H6C5.20463 5.00091 4.4421 5.31727 3.87968 5.87968C3.31727 6.4421 3.00091 7.20463 3 8V22C3.00091 22.7954 3.31727 23.5579 3.87968 24.1203C4.4421 24.6827 5.20463 24.9991 6 25H15V27H12C11.7348 27 11.4804 27.1054 11.2929 27.2929C11.1054 27.4804 11 27.7348 11 28C11 28.2652 11.1054 28.5196 11.2929 28.7071C11.4804 28.8946 11.7348 29 12 29H20C20.2652 29 20.5196 28.8946 20.7071 28.7071C20.8946 28.5196 21 28.2652 21 28C21 27.7348 20.8946 27.4804 20.7071 27.2929C20.5196 27.1054 20.2652 27 20 27H17V25H26C26.7954 24.9991 27.5579 24.6827 28.1203 24.1203C28.6827 23.5579 28.9991 22.7954 29 22V8C28.9991 7.20463 28.6827 6.4421 28.1203 5.87968C27.5579 5.31727 26.7954 5.00091 26 5V5ZM26 23H6C5.73488 22.9997 5.4807 22.8942 5.29323 22.7068C5.10576 22.5193 5.0003 22.2651 5 22V20H27V22C26.9997 22.2651 26.8942 22.5193 26.7068 22.7068C26.5193 22.8942 26.2651 22.9997 26 23V23Z" fill="black"/>
</svg>
