<svg   viewBox="0 0 32 32" fill="none" xmlns="http://www.w3.org/2000/svg">
<path d="M22 2H10C9.20463 2.00091 8.4421 2.31727 7.87968 2.87968C7.31727 3.4421 7.00091 4.20463 7 5V27C7.00091 27.7954 7.31727 28.5579 7.87968 29.1203C8.4421 29.6827 9.20463 29.9991 10 30H22C22.7954 29.9991 23.5579 29.6827 24.1203 29.1203C24.6827 28.5579 24.9991 27.7954 25 27V5C24.9991 4.20463 24.6827 3.4421 24.1203 2.87968C23.5579 2.31727 22.7954 2.00091 22 2ZM16 9C15.7033 9 15.4133 8.91203 15.1666 8.7472C14.92 8.58238 14.7277 8.34811 14.6142 8.07403C14.5006 7.79994 14.4709 7.49834 14.5288 7.20736C14.5867 6.91639 14.7296 6.64912 14.9393 6.43934C15.1491 6.22956 15.4164 6.0867 15.7074 6.02882C15.9983 5.97094 16.2999 6.00065 16.574 6.11418C16.8481 6.22771 17.0824 6.41997 17.2472 6.66664C17.412 6.91332 17.5 7.20333 17.5 7.5C17.5 7.89782 17.342 8.27936 17.0607 8.56066C16.7794 8.84196 16.3978 9 16 9Z" fill="black"/>
</svg>
