<svg   viewBox="0 0 32 32" fill="none" xmlns="http://www.w3.org/2000/svg">
<path d="M22 2H10C9.20463 2.00091 8.4421 2.31727 7.87968 2.87968C7.31727 3.4421 7.00091 4.20463 7 5V27C7.00091 27.7954 7.31727 28.5579 7.87968 29.1203C8.4421 29.6827 9.20463 29.9991 10 30H22C22.7954 29.9991 23.5579 29.6827 24.1203 29.1203C24.6827 28.5579 24.9991 27.7954 25 27V5C24.9991 4.20463 24.6827 3.4421 24.1203 2.87968C23.5579 2.31727 22.7954 2.00091 22 2ZM10 4H22C22.2651 4.0003 22.5193 4.10576 22.7068 4.29323C22.8942 4.4807 22.9997 4.73488 23 5V6H9V5C9.0003 4.73488 9.10576 4.4807 9.29323 4.29323C9.4807 4.10576 9.73488 4.0003 10 4V4ZM22 28H10C9.73488 27.9997 9.4807 27.8942 9.29323 27.7068C9.10576 27.5193 9.0003 27.2651 9 27V26H23V27C22.9997 27.2651 22.8942 27.5193 22.7068 27.7068C22.5193 27.8942 22.2651 27.9997 22 28V28Z" fill="black"/>
</svg>
