<svg viewBox="0 0 32 32" xmlns="http://www.w3.org/2000/svg">
<path d="M24 3H8C7.20463 3.00091 6.4421 3.31727 5.87968 3.87968C5.31727 4.4421 5.00091 5.20463 5 6V26C5.00091 26.7954 5.31727 27.5579 5.87968 28.1203C6.4421 28.6827 7.20463 28.9991 8 29H24C24.7954 28.9991 25.5579 28.6827 26.1203 28.1203C26.6827 27.5579 26.9991 26.7954 27 26V6C26.9991 5.20463 26.6827 4.4421 26.1203 3.87968C25.5579 3.31727 24.7954 3.00091 24 3V3ZM20 9H12C11.7348 9 11.4804 8.89464 11.2929 8.70711C11.1054 8.51957 11 8.26522 11 8C11 7.73478 11.1054 7.48043 11.2929 7.29289C11.4804 7.10536 11.7348 7 12 7H20C20.2652 7 20.5196 7.10536 20.7071 7.29289C20.8946 7.48043 21 7.73478 21 8C21 8.26522 20.8946 8.51957 20.7071 8.70711C20.5196 8.89464 20.2652 9 20 9Z"/>
</svg>
