<svg viewBox="0 0 32 32" xmlns="http://www.w3.org/2000/svg">
<path d="M24 3H8C7.20463 3.00091 6.4421 3.31727 5.87968 3.87968C5.31727 4.4421 5.00091 5.20463 5 6V26C5.00091 26.7954 5.31727 27.5579 5.87968 28.1203C6.4421 28.6827 7.20463 28.9991 8 29H24C24.7954 28.9991 25.5579 28.6827 26.1203 28.1203C26.6827 27.5579 26.9991 26.7954 27 26V6C26.9991 5.20463 26.6827 4.4421 26.1203 3.87968C25.5579 3.31727 24.7954 3.00091 24 3V3ZM8 5H24C24.2651 5.0003 24.5193 5.10576 24.7068 5.29323C24.8942 5.4807 24.9997 5.73488 25 6V7H7V6C7.0003 5.73488 7.10576 5.4807 7.29323 5.29323C7.4807 5.10576 7.73488 5.0003 8 5V5ZM24 27H8C7.73488 26.9997 7.4807 26.8942 7.29323 26.7068C7.10576 26.5193 7.0003 26.2651 7 26V25H25V26C24.9997 26.2651 24.8942 26.5193 24.7068 26.7068C24.5193 26.8942 24.2651 26.9997 24 27V27Z"/>
</svg>
