<svg viewBox="0 0 32 32" xmlns="http://www.w3.org/2000/svg">
<path d="M22 2H10C9.20463 2.00091 8.4421 2.31727 7.87968 2.87968C7.31727 3.4421 7.00091 4.20463 7 5V27C7.00091 27.7954 7.31727 28.5579 7.87968 29.1203C8.4421 29.6827 9.20463 29.9991 10 30H22C22.7954 29.9991 23.5579 29.6827 24.1203 29.1203C24.6827 28.5579 24.9991 27.7954 25 27V5C24.9991 4.20463 24.6827 3.4421 24.1203 2.87968C23.5579 2.31727 22.7954 2.00091 22 2ZM20 8H12C11.7348 8 11.4804 7.89464 11.2929 7.70711C11.1054 7.51957 11 7.26522 11 7C11 6.73478 11.1054 6.48043 11.2929 6.29289C11.4804 6.10536 11.7348 6 12 6H20C20.2652 6 20.5196 6.10536 20.7071 6.29289C20.8946 6.48043 21 6.73478 21 7C21 7.26522 20.8946 7.51957 20.7071 7.70711C20.5196 7.89464 20.2652 8 20 8Z"/>
</svg>
