<svg viewBox="0 0 32 32" xmlns="http://www.w3.org/2000/svg">
<path d="M24 3H8C7.20463 3.00091 6.4421 3.31727 5.87968 3.87968C5.31727 4.4421 5.00091 5.20463 5 6V26C5.00091 26.7954 5.31727 27.5579 5.87968 28.1203C6.4421 28.6827 7.20463 28.9991 8 29H24C24.7954 28.9991 25.5579 28.6827 26.1203 28.1203C26.6827 27.5579 26.9991 26.7954 27 26V6C26.9991 5.20463 26.6827 4.4421 26.1203 3.87968C25.5579 3.31727 24.7954 3.00091 24 3V3ZM16 10C15.7033 10 15.4133 9.91203 15.1666 9.7472C14.92 9.58238 14.7277 9.34811 14.6142 9.07403C14.5006 8.79994 14.4709 8.49834 14.5288 8.20736C14.5867 7.91639 14.7296 7.64912 14.9393 7.43934C15.1491 7.22956 15.4164 7.0867 15.7074 7.02882C15.9983 6.97094 16.2999 7.00065 16.574 7.11418C16.8481 7.22771 17.0824 7.41997 17.2472 7.66664C17.412 7.91332 17.5 8.20333 17.5 8.5C17.5 8.89782 17.342 9.27936 17.0607 9.56066C16.7794 9.84196 16.3978 10 16 10Z"/>
</svg>
