<svg   viewBox="0 0 32 32" fill="none" xmlns="http://www.w3.org/2000/svg">
<path d="M16 3C13.4288 3 10.9154 3.76244 8.77759 5.1909C6.63975 6.61935 4.97351 8.64968 3.98957 11.0251C3.00563 13.4006 2.74819 16.0144 3.2498 18.5362C3.75141 21.0579 4.98953 23.3743 6.80762 25.1924C8.6257 27.0105 10.9421 28.2486 13.4638 28.7502C15.9856 29.2518 18.5995 28.9944 20.9749 28.0104C23.3503 27.0265 25.3807 25.3603 26.8091 23.2224C28.2376 21.0846 29 18.5712 29 16C28.996 12.5534 27.6251 9.24912 25.188 6.81201C22.7509 4.3749 19.4466 3.00398 16 3V3ZM10 17.5C9.70333 17.5 9.41332 17.412 9.16665 17.2472C8.91998 17.0824 8.72772 16.8481 8.61419 16.574C8.50065 16.2999 8.47095 15.9983 8.52883 15.7074C8.58671 15.4164 8.72957 15.1491 8.93935 14.9393C9.14912 14.7296 9.4164 14.5867 9.70737 14.5288C9.99834 14.4709 10.2999 14.5006 10.574 14.6142C10.8481 14.7277 11.0824 14.92 11.2472 15.1666C11.412 15.4133 11.5 15.7033 11.5 16C11.5 16.3978 11.3419 16.7793 11.0606 17.0606C10.7793 17.3419 10.3978 17.5 10 17.5ZM16 17.5C15.7033 17.5 15.4133 17.412 15.1667 17.2472C14.92 17.0824 14.7277 16.8481 14.6142 16.574C14.5007 16.2999 14.4709 15.9983 14.5288 15.7074C14.5867 15.4164 14.7296 15.1491 14.9393 14.9393C15.1491 14.7296 15.4164 14.5867 15.7074 14.5288C15.9983 14.4709 16.2999 14.5006 16.574 14.6142C16.8481 14.7277 17.0824 14.92 17.2472 15.1666C17.412 15.4133 17.5 15.7033 17.5 16C17.5 16.3978 17.3419 16.7793 17.0606 17.0606C16.7793 17.3419 16.3978 17.5 16 17.5ZM22 17.5C21.7033 17.5 21.4133 17.412 21.1667 17.2472C20.92 17.0824 20.7277 16.8481 20.6142 16.574C20.5007 16.2999 20.4709 15.9983 20.5288 15.7074C20.5867 15.4164 20.7296 15.1491 20.9393 14.9393C21.1491 14.7296 21.4164 14.5867 21.7074 14.5288C21.9983 14.4709 22.2999 14.5006 22.574 14.6142C22.8481 14.7277 23.0824 14.92 23.2472 15.1666C23.412 15.4133 23.5 15.7033 23.5 16C23.5 16.3978 23.3419 16.7793 23.0606 17.0606C22.7793 17.3419 22.3978 17.5 22 17.5Z" fill="black"/>
</svg>
