<svg viewBox="0 0 32 32" xmlns="http://www.w3.org/2000/svg">
<path d="M13 7.5C13 7.79667 12.912 8.08668 12.7472 8.33336C12.5824 8.58003 12.3481 8.77229 12.074 8.88582C11.7999 8.99935 11.4983 9.02906 11.2074 8.97118C10.9164 8.9133 10.6491 8.77044 10.4393 8.56066C10.2296 8.35088 10.0867 8.08361 10.0288 7.79264C9.97094 7.50166 10.0006 7.20006 10.1142 6.92598C10.2277 6.65189 10.42 6.41762 10.6666 6.2528C10.9133 6.08797 11.2033 6 11.5 6C11.8978 6 12.2794 6.15804 12.5607 6.43934C12.842 6.72065 13 7.10218 13 7.5ZM20.5 9C20.7967 9 21.0867 8.91203 21.3334 8.74721C21.58 8.58238 21.7723 8.34812 21.8858 8.07403C21.9994 7.79994 22.0291 7.49834 21.9712 7.20737C21.9133 6.91639 21.7704 6.64912 21.5607 6.43934C21.3509 6.22956 21.0836 6.0867 20.7926 6.02882C20.5017 5.97094 20.2001 6.00065 19.926 6.11418C19.6519 6.22771 19.4176 6.41997 19.2528 6.66665C19.088 6.91332 19 7.20333 19 7.5C19 7.89783 19.158 8.27936 19.4393 8.56066C19.7206 8.84197 20.1022 9 20.5 9ZM11.5 14.5C11.2033 14.5 10.9133 14.588 10.6666 14.7528C10.42 14.9176 10.2277 15.1519 10.1142 15.426C10.0006 15.7001 9.97094 16.0017 10.0288 16.2926C10.0867 16.5836 10.2296 16.8509 10.4393 17.0607C10.6491 17.2704 10.9164 17.4133 11.2074 17.4712C11.4983 17.5291 11.7999 17.4994 12.074 17.3858C12.3481 17.2723 12.5824 17.08 12.7472 16.8334C12.912 16.5867 13 16.2967 13 16C13 15.6022 12.842 15.2206 12.5607 14.9393C12.2794 14.658 11.8978 14.5 11.5 14.5ZM20.5 14.5C20.2033 14.5 19.9133 14.588 19.6666 14.7528C19.42 14.9176 19.2277 15.1519 19.1142 15.426C19.0007 15.7001 18.9709 16.0017 19.0288 16.2926C19.0867 16.5836 19.2296 16.8509 19.4393 17.0607C19.6491 17.2704 19.9164 17.4133 20.2074 17.4712C20.4983 17.5291 20.7999 17.4994 21.074 17.3858C21.3481 17.2723 21.5824 17.08 21.7472 16.8334C21.912 16.5867 22 16.2967 22 16C22 15.6022 21.842 15.2206 21.5607 14.9393C21.2794 14.658 20.8978 14.5 20.5 14.5ZM11.5 23C11.2033 23 10.9133 23.088 10.6666 23.2528C10.42 23.4176 10.2277 23.6519 10.1142 23.926C10.0006 24.2001 9.97094 24.5017 10.0288 24.7926C10.0867 25.0836 10.2296 25.3509 10.4393 25.5607C10.6491 25.7704 10.9164 25.9133 11.2074 25.9712C11.4983 26.0291 11.7999 25.9994 12.074 25.8858C12.3481 25.7723 12.5824 25.58 12.7472 25.3334C12.912 25.0867 13 24.7967 13 24.5C13 24.1022 12.842 23.7206 12.5607 23.4393C12.2794 23.158 11.8978 23 11.5 23V23ZM20.5 23C20.2033 23 19.9133 23.088 19.6666 23.2528C19.42 23.4176 19.2277 23.6519 19.1142 23.926C19.0007 24.2001 18.9709 24.5017 19.0288 24.7926C19.0867 25.0836 19.2296 25.3509 19.4393 25.5607C19.6491 25.7704 19.9164 25.9133 20.2074 25.9712C20.4983 26.0291 20.7999 25.9994 21.074 25.8858C21.3481 25.7723 21.5824 25.58 21.7472 25.3334C21.912 25.0867 22 24.7967 22 24.5C22 24.1022 21.842 23.7206 21.5607 23.4393C21.2794 23.158 20.8978 23 20.5 23V23Z"/>
</svg>
