<svg viewBox="0 0 32 32" xmlns="http://www.w3.org/2000/svg">
<path d="M17.5 16C17.5 16.2967 17.412 16.5867 17.2472 16.8334C17.0824 17.08 16.8481 17.2723 16.574 17.3858C16.2999 17.4993 15.9983 17.5291 15.7074 17.4712C15.4164 17.4133 15.1491 17.2704 14.9393 17.0607C14.7296 16.8509 14.5867 16.5836 14.5288 16.2926C14.4709 16.0017 14.5007 15.7001 14.6142 15.426C14.7277 15.1519 14.92 14.9176 15.1666 14.7528C15.4133 14.588 15.7033 14.5 16 14.5C16.3978 14.5 16.7794 14.658 17.0607 14.9393C17.342 15.2206 17.5 15.6022 17.5 16ZM24 14.5C23.7033 14.5 23.4133 14.588 23.1666 14.7528C22.92 14.9176 22.7277 15.1519 22.6142 15.426C22.5007 15.7001 22.4709 16.0017 22.5288 16.2926C22.5867 16.5836 22.7296 16.8509 22.9393 17.0607C23.1491 17.2704 23.4164 17.4133 23.7074 17.4712C23.9983 17.5291 24.2999 17.4993 24.574 17.3858C24.8481 17.2723 25.0824 17.08 25.2472 16.8334C25.412 16.5867 25.5 16.2967 25.5 16C25.5 15.6022 25.342 15.2206 25.0607 14.9393C24.7794 14.658 24.3978 14.5 24 14.5ZM8 14.5C7.70333 14.5 7.41332 14.588 7.16665 14.7528C6.91997 14.9176 6.72771 15.1519 6.61418 15.426C6.50065 15.7001 6.47094 16.0017 6.52882 16.2926C6.5867 16.5836 6.72956 16.8509 6.93934 17.0607C7.14912 17.2704 7.41639 17.4133 7.70737 17.4712C7.99834 17.5291 8.29994 17.4993 8.57403 17.3858C8.84812 17.2723 9.08238 17.08 9.24721 16.8334C9.41203 16.5867 9.5 16.2967 9.5 16C9.5 15.6022 9.34197 15.2206 9.06066 14.9393C8.77936 14.658 8.39783 14.5 8 14.5Z"/>
</svg>
