<svg   viewBox="0 0 32 32" fill="none" xmlns="http://www.w3.org/2000/svg">
<path d="M9 11.5C9 11.7967 8.91203 12.0867 8.74721 12.3334C8.58238 12.58 8.34812 12.7723 8.07403 12.8858C7.79994 12.9994 7.49834 13.0291 7.20737 12.9712C6.91639 12.9133 6.64912 12.7704 6.43934 12.5607C6.22956 12.3509 6.0867 12.0836 6.02882 11.7926C5.97094 11.5017 6.00065 11.2001 6.11418 10.926C6.22771 10.6519 6.41997 10.4176 6.66665 10.2528C6.91332 10.088 7.20333 10 7.5 10C7.89783 10 8.27936 10.158 8.56066 10.4393C8.84197 10.7206 9 11.1022 9 11.5ZM16 10C15.7033 10 15.4133 10.088 15.1666 10.2528C14.92 10.4176 14.7277 10.6519 14.6142 10.926C14.5007 11.2001 14.4709 11.5017 14.5288 11.7926C14.5867 12.0836 14.7296 12.3509 14.9393 12.5607C15.1491 12.7704 15.4164 12.9133 15.7074 12.9712C15.9983 13.0291 16.2999 12.9994 16.574 12.8858C16.8481 12.7723 17.0824 12.58 17.2472 12.3334C17.412 12.0867 17.5 11.7967 17.5 11.5C17.5 11.1022 17.342 10.7206 17.0607 10.4393C16.7794 10.158 16.3978 10 16 10ZM24.5 13C24.7967 13 25.0867 12.912 25.3334 12.7472C25.58 12.5824 25.7723 12.3481 25.8858 12.074C25.9993 11.7999 26.0291 11.4983 25.9712 11.2074C25.9133 10.9164 25.7704 10.6491 25.5607 10.4393C25.3509 10.2296 25.0836 10.0867 24.7926 10.0288C24.5017 9.97094 24.2001 10.0006 23.926 10.1142C23.6519 10.2277 23.4176 10.42 23.2528 10.6666C23.088 10.9133 23 11.2033 23 11.5C23 11.8978 23.158 12.2794 23.4393 12.5607C23.7206 12.842 24.1022 13 24.5 13ZM7.5 19C7.20333 19 6.91332 19.088 6.66665 19.2528C6.41997 19.4176 6.22771 19.6519 6.11418 19.926C6.00065 20.2001 5.97094 20.5017 6.02882 20.7926C6.0867 21.0836 6.22956 21.3509 6.43934 21.5607C6.64912 21.7704 6.91639 21.9133 7.20737 21.9712C7.49834 22.0291 7.79994 21.9994 8.07403 21.8858C8.34812 21.7723 8.58238 21.58 8.74721 21.3334C8.91203 21.0867 9 20.7967 9 20.5C9 20.1022 8.84197 19.7206 8.56066 19.4393C8.27936 19.158 7.89783 19 7.5 19V19ZM16 19C15.7033 19 15.4133 19.088 15.1666 19.2528C14.92 19.4176 14.7277 19.6519 14.6142 19.926C14.5007 20.2001 14.4709 20.5017 14.5288 20.7926C14.5867 21.0836 14.7296 21.3509 14.9393 21.5607C15.1491 21.7704 15.4164 21.9133 15.7074 21.9712C15.9983 22.0291 16.2999 21.9994 16.574 21.8858C16.8481 21.7723 17.0824 21.58 17.2472 21.3334C17.412 21.0867 17.5 20.7967 17.5 20.5C17.5 20.1022 17.342 19.7206 17.0607 19.4393C16.7794 19.158 16.3978 19 16 19ZM24.5 19C24.2033 19 23.9133 19.088 23.6666 19.2528C23.42 19.4176 23.2277 19.6519 23.1142 19.926C23.0007 20.2001 22.9709 20.5017 23.0288 20.7926C23.0867 21.0836 23.2296 21.3509 23.4393 21.5607C23.6491 21.7704 23.9164 21.9133 24.2074 21.9712C24.4983 22.0291 24.7999 21.9994 25.074 21.8858C25.3481 21.7723 25.5824 21.58 25.7472 21.3334C25.912 21.0867 26 20.7967 26 20.5C26 20.1022 25.842 19.7206 25.5607 19.4393C25.2794 19.158 24.8978 19 24.5 19Z" fill="black"/>
</svg>
