<svg   viewBox="0 0 32 32" fill="none" xmlns="http://www.w3.org/2000/svg">
<path d="M17.5 16C17.5 16.2967 17.412 16.5867 17.2472 16.8334C17.0824 17.08 16.8481 17.2723 16.574 17.3858C16.2999 17.4994 15.9983 17.5291 15.7074 17.4712C15.4164 17.4133 15.1491 17.2704 14.9393 17.0607C14.7296 16.8509 14.5867 16.5836 14.5288 16.2926C14.4709 16.0017 14.5006 15.7001 14.6142 15.426C14.7277 15.1519 14.92 14.9176 15.1666 14.7528C15.4133 14.588 15.7033 14.5 16 14.5C16.3978 14.5 16.7794 14.658 17.0607 14.9393C17.342 15.2206 17.5 15.6022 17.5 16ZM16 9.5C16.2967 9.5 16.5867 9.41203 16.8334 9.24721C17.08 9.08238 17.2723 8.84812 17.3858 8.57403C17.4994 8.29994 17.5291 7.99834 17.4712 7.70737C17.4133 7.41639 17.2704 7.14912 17.0607 6.93934C16.8509 6.72956 16.5836 6.5867 16.2926 6.52882C16.0017 6.47094 15.7001 6.50065 15.426 6.61418C15.1519 6.72771 14.9176 6.91997 14.7528 7.16665C14.588 7.41332 14.5 7.70333 14.5 8C14.5 8.39783 14.658 8.77936 14.9393 9.06066C15.2206 9.34197 15.6022 9.5 16 9.5ZM16 22.5C15.7033 22.5 15.4133 22.588 15.1666 22.7528C14.92 22.9176 14.7277 23.1519 14.6142 23.426C14.5006 23.7001 14.4709 24.0017 14.5288 24.2926C14.5867 24.5836 14.7296 24.8509 14.9393 25.0607C15.1491 25.2704 15.4164 25.4133 15.7074 25.4712C15.9983 25.5291 16.2999 25.4993 16.574 25.3858C16.8481 25.2723 17.0824 25.08 17.2472 24.8334C17.412 24.5867 17.5 24.2967 17.5 24C17.5 23.6022 17.342 23.2206 17.0607 22.9393C16.7794 22.658 16.3978 22.5 16 22.5Z" fill="black"/>
</svg>
