<svg   viewBox="0 0 32 32" fill="none" xmlns="http://www.w3.org/2000/svg">
<path d="M29 16C29 13.4288 28.2376 10.9154 26.8091 8.77759C25.3807 6.63975 23.3503 4.97351 20.9749 3.98957C18.5995 3.00563 15.9856 2.74819 13.4638 3.2498C10.9421 3.75141 8.6257 4.98953 6.80762 6.80762C4.98953 8.6257 3.75141 10.9421 3.2498 13.4638C2.74819 15.9856 3.00563 18.5995 3.98957 20.9749C4.97351 23.3503 6.63975 25.3807 8.77759 26.8091C10.9154 28.2376 13.4288 29 16 29C19.4466 28.996 22.7509 27.6251 25.188 25.188C27.6251 22.7509 28.996 19.4466 29 16V16ZM14.5 10C14.5 9.70333 14.588 9.41332 14.7528 9.16665C14.9176 8.91998 15.1519 8.72772 15.426 8.61419C15.7001 8.50065 16.0017 8.47095 16.2926 8.52883C16.5836 8.58671 16.8509 8.72957 17.0607 8.93935C17.2704 9.14912 17.4133 9.4164 17.4712 9.70737C17.5291 9.99834 17.4994 10.2999 17.3858 10.574C17.2723 10.8481 17.08 11.0824 16.8334 11.2472C16.5867 11.412 16.2967 11.5 16 11.5C15.6022 11.5 15.2207 11.3419 14.9394 11.0606C14.6581 10.7793 14.5 10.3978 14.5 10V10ZM14.5 16C14.5 15.7033 14.588 15.4133 14.7528 15.1667C14.9176 14.92 15.1519 14.7277 15.426 14.6142C15.7001 14.5007 16.0017 14.4709 16.2926 14.5288C16.5836 14.5867 16.8509 14.7296 17.0607 14.9393C17.2704 15.1491 17.4133 15.4164 17.4712 15.7074C17.5291 15.9983 17.4994 16.2999 17.3858 16.574C17.2723 16.8481 17.08 17.0824 16.8334 17.2472C16.5867 17.412 16.2967 17.5 16 17.5C15.6022 17.5 15.2207 17.3419 14.9394 17.0606C14.6581 16.7793 14.5 16.3978 14.5 16V16ZM14.5 22C14.5 21.7033 14.588 21.4133 14.7528 21.1667C14.9176 20.92 15.1519 20.7277 15.426 20.6142C15.7001 20.5007 16.0017 20.4709 16.2926 20.5288C16.5836 20.5867 16.8509 20.7296 17.0607 20.9393C17.2704 21.1491 17.4133 21.4164 17.4712 21.7074C17.5291 21.9983 17.4994 22.2999 17.3858 22.574C17.2723 22.8481 17.08 23.0824 16.8334 23.2472C16.5867 23.412 16.2967 23.5 16 23.5C15.6022 23.5 15.2207 23.3419 14.9394 23.0606C14.6581 22.7793 14.5 22.3978 14.5 22V22Z" fill="black"/>
</svg>
