<svg viewBox="0 0 32 32" xmlns="http://www.w3.org/2000/svg">
<path d="M10.043 14.4585C9.9031 14.3187 9.80785 14.1405 9.76925 13.9465C9.73065 13.7525 9.75045 13.5514 9.82613 13.3687C9.90181 13.186 10.03 13.0298 10.1944 12.9199C10.3589 12.81 10.5522 12.7513 10.75 12.7513H15V5C15 4.73478 15.1054 4.48043 15.2929 4.29289C15.4804 4.10536 15.7348 4 16 4C16.2652 4 16.5196 4.10536 16.7071 4.29289C16.8946 4.48043 17 4.73478 17 5V12.7513H21.25C21.4478 12.7513 21.6411 12.81 21.8056 12.9199C21.97 13.0298 22.0982 13.186 22.1739 13.3687C22.2496 13.5514 22.2693 13.7525 22.2307 13.9465C22.1921 14.1405 22.0969 14.3187 21.957 14.4585L16.707 19.7072C16.5195 19.8947 16.2652 20 16 20C15.7348 20 15.4805 19.8947 15.293 19.7072L10.043 14.4585ZM27 18C26.7348 18 26.4804 18.1054 26.2929 18.2929C26.1054 18.4804 26 18.7348 26 19V26H6V19C6 18.7348 5.89464 18.4804 5.70711 18.2929C5.51957 18.1054 5.26522 18 5 18C4.73478 18 4.48043 18.1054 4.29289 18.2929C4.10536 18.4804 4 18.7348 4 19V26C4.00061 26.5302 4.21151 27.0386 4.58646 27.4135C4.9614 27.7885 5.46975 27.9994 6 28H26C26.5302 27.9994 27.0386 27.7885 27.4135 27.4135C27.7885 27.0386 27.9994 26.5302 28 26V19C28 18.7348 27.8946 18.4804 27.7071 18.2929C27.5196 18.1054 27.2652 18 27 18V18Z"/>
</svg>
