<svg   viewBox="0 0 32 32" fill="none" xmlns="http://www.w3.org/2000/svg">
<path d="M15.2929 16.7072C15.2962 16.7104 15.2998 16.7131 15.3031 16.7163C15.3233 16.736 15.3441 16.7552 15.366 16.7732C15.3782 16.7832 15.3911 16.792 15.4037 16.8014C15.4173 16.8115 15.4306 16.822 15.4447 16.8315C15.4592 16.8412 15.4743 16.8497 15.4893 16.8586C15.5023 16.8664 15.5151 16.8746 15.5286 16.8818C15.5436 16.8898 15.5591 16.8967 15.5744 16.9039C15.5887 16.9106 15.6027 16.9177 15.6173 16.9238C15.6321 16.9299 15.6472 16.9349 15.6623 16.9402C15.678 16.9459 15.6936 16.952 15.7097 16.9568C15.7247 16.9614 15.7399 16.9647 15.755 16.9685C15.7715 16.9727 15.7879 16.9773 15.8047 16.9807C15.8221 16.9841 15.8397 16.9861 15.8572 16.9887C15.872 16.9908 15.8864 16.9935 15.9013 16.995C15.9342 16.9982 15.9671 17 16 17C16.033 17 16.0659 16.9982 16.0987 16.995C16.1136 16.9935 16.1281 16.9908 16.1428 16.9887C16.1604 16.9862 16.1779 16.9841 16.1954 16.9807C16.2122 16.9773 16.2285 16.9727 16.245 16.9685C16.2602 16.9647 16.2754 16.9614 16.2903 16.9568C16.3064 16.952 16.322 16.9459 16.3378 16.9402C16.3528 16.9349 16.3679 16.9299 16.3827 16.9238C16.3973 16.9177 16.4113 16.9106 16.4256 16.9039C16.4409 16.8967 16.4564 16.8898 16.4715 16.8818C16.4849 16.8746 16.4977 16.8664 16.5108 16.8586C16.5257 16.8497 16.5409 16.8412 16.5554 16.8315C16.5695 16.822 16.5828 16.8115 16.5963 16.8014C16.6089 16.792 16.6218 16.7832 16.6341 16.7732C16.6563 16.7549 16.6775 16.7354 16.6981 16.7153C16.701 16.7124 16.7042 16.71 16.7071 16.7072L22.7071 10.7072C22.8 10.6143 22.8736 10.5041 22.9239 10.3827C22.9742 10.2614 23 10.1314 23 10C23.0001 9.86872 22.9742 9.73868 22.9239 9.61735C22.8737 9.49602 22.8 9.38577 22.7072 9.29291C22.6143 9.20004 22.5041 9.12638 22.3828 9.07612C22.2614 9.02585 22.1314 8.99998 22.0001 8.99998C21.8687 8.99997 21.7387 9.02583 21.6174 9.07608C21.496 9.12633 21.3858 9.19999 21.2929 9.29285L17 13.5858V3C17 2.73478 16.8947 2.48043 16.7071 2.29289C16.5196 2.10536 16.2652 2 16 2C15.7348 2 15.4805 2.10536 15.2929 2.29289C15.1054 2.48043 15 2.73478 15 3V13.5858L10.7071 9.29285C10.6143 9.19999 10.504 9.12633 10.3827 9.07608C10.2613 9.02583 10.1313 8.99997 9.99998 8.99998C9.86866 8.99998 9.73862 9.02585 9.61729 9.07612C9.49596 9.12638 9.38573 9.20004 9.29287 9.29291C9.20001 9.38577 9.12636 9.49602 9.07611 9.61735C9.02585 9.73868 8.99999 9.86872 9 10C9.00001 10.1314 9.02588 10.2614 9.07614 10.3827C9.1264 10.5041 9.20007 10.6143 9.29293 10.7072L15.2929 16.7072Z" fill="black"/>
<path d="M28 15H21.2427L18.1213 18.1213C17.5587 18.6839 16.7957 19 16 19C15.2043 19 14.4413 18.6839 13.8787 18.1213L10.7573 15H4C3.46975 15.0006 2.9614 15.2115 2.58646 15.5865C2.21151 15.9614 2.00061 16.4698 2 17V25C2.00061 25.5302 2.21151 26.0386 2.58646 26.4135C2.9614 26.7885 3.46975 26.9994 4 27H28C28.5302 26.9994 29.0386 26.7885 29.4135 26.4135C29.7885 26.0386 29.9994 25.5302 30 25V17C29.9994 16.4698 29.7885 15.9614 29.4135 15.5865C29.0386 15.2115 28.5302 15.0006 28 15V15ZM23.5001 22.5C23.2034 22.5 22.9134 22.412 22.6667 22.2472C22.42 22.0824 22.2278 21.8481 22.1142 21.574C22.0007 21.2999 21.971 20.9983 22.0289 20.7074C22.0868 20.4164 22.2296 20.1491 22.4394 19.9393C22.6492 19.7296 22.9165 19.5867 23.2074 19.5288C23.4984 19.4709 23.8 19.5007 24.0741 19.6142C24.3482 19.7277 24.5824 19.92 24.7473 20.1666C24.9121 20.4133 25.0001 20.7033 25.0001 21C25.0001 21.3978 24.842 21.7794 24.5607 22.0607C24.2794 22.342 23.8979 22.5 23.5001 22.5Z" fill="black"/>
</svg>
