<svg viewBox="0 0 32 32" xmlns="http://www.w3.org/2000/svg">
<path d="M23 2H9C8.46975 2.00061 7.9614 2.21151 7.58646 2.58646C7.21151 2.9614 7.00061 3.46975 7 4V9.66663C7.0009 10.0992 7.14117 10.5201 7.40002 10.8667L10 14.3334V28C10.0006 28.5302 10.2115 29.0386 10.5865 29.4135C10.9614 29.7885 11.4698 29.9994 12 30H20C20.5302 29.9994 21.0386 29.7885 21.4135 29.4135C21.7885 29.0386 21.9994 28.5302 22 28L21.9999 14.3333L24.6002 10.8666C24.8589 10.5199 24.9991 10.0992 25 9.66662V4C24.9994 3.46975 24.7885 2.9614 24.4135 2.58646C24.0386 2.21152 23.5302 2.00061 23 2ZM17 19C17 19.2652 16.8946 19.5196 16.7071 19.7071C16.5196 19.8946 16.2652 20 16 20C15.7348 20 15.4804 19.8946 15.2929 19.7071C15.1054 19.5196 15 19.2652 15 19V15C15 14.7348 15.1054 14.4804 15.2929 14.2929C15.4804 14.1054 15.7348 14 16 14C16.2652 14 16.5196 14.1054 16.7071 14.2929C16.8946 14.4804 17 14.7348 17 15V19ZM8.99945 7L8.99878 4H23L23.0001 7H8.99945Z"/>
</svg>
