<svg viewBox="0 0 32 32" xmlns="http://www.w3.org/2000/svg">
<path d="M27 5H5C4.46975 5.00061 3.9614 5.21151 3.58646 5.58646C3.21151 5.9614 3.00061 6.46975 3 7V25C3.00061 25.5302 3.21151 26.0386 3.58646 26.4135C3.9614 26.7885 4.46975 26.9994 5 27H27C27.5302 26.9994 28.0386 26.7885 28.4135 26.4135C28.7885 26.0386 28.9994 25.5302 29 25V7C28.9994 6.46975 28.7885 5.9614 28.4135 5.58646C28.0386 5.21151 27.5302 5.00061 27 5ZM11 24H7C6.73478 24 6.48043 23.8946 6.2929 23.7071C6.10536 23.5196 6 23.2652 6 23V19C6 18.7348 6.10536 18.4804 6.29289 18.2929C6.48043 18.1054 6.73478 18 7 18C7.26522 18 7.51957 18.1054 7.70711 18.2929C7.89464 18.4804 8 18.7348 8 19V22H11C11.2652 22 11.5196 22.1054 11.7071 22.2929C11.8946 22.4804 12 22.7348 12 23C12 23.2652 11.8946 23.5196 11.7071 23.7071C11.5196 23.8946 11.2652 24 11 24ZM26 13C26 13.2652 25.8946 13.5196 25.7071 13.7071C25.5196 13.8946 25.2652 14 25 14C24.7348 14 24.4804 13.8946 24.2929 13.7071C24.1054 13.5196 24 13.2652 24 13V10H21C20.7348 10 20.4804 9.89464 20.2929 9.70711C20.1054 9.51957 20 9.26522 20 9C20 8.73478 20.1054 8.48043 20.2929 8.29289C20.4804 8.10536 20.7348 8 21 8H25C25.2652 8 25.5196 8.10536 25.7071 8.2929C25.8946 8.48043 26 8.73478 26 9V13Z"/>
</svg>
