<svg   viewBox="0 0 32 32" fill="none" xmlns="http://www.w3.org/2000/svg">
<path d="M26.884 18.1188C26.6278 18.1875 26.3549 18.1516 26.1252 18.019C25.8955 17.8863 25.7279 17.6679 25.6592 17.4117C25.5906 17.1556 25.6265 16.8826 25.7591 16.6529C25.8917 16.4232 26.1101 16.2556 26.3663 16.187L29.2358 15.4181C28.3359 12.8298 26.6975 10.5619 24.523 8.89439C22.3485 7.2269 19.7331 6.23294 17 6.03528V8.99994C17 9.26516 16.8946 9.51951 16.7071 9.70705C16.5196 9.89458 16.2652 9.99994 16 9.99994C15.7348 9.99994 15.4804 9.89458 15.2929 9.70705C15.1054 9.51951 15 9.26516 15 8.99994V6.03674C9.35669 6.44171 4.62366 10.2485 2.80225 15.4283L5.63367 16.187C5.76066 16.2208 5.87973 16.2794 5.98406 16.3593C6.0884 16.4392 6.17596 16.5389 6.24174 16.6527C6.30752 16.7665 6.35022 16.8921 6.36741 17.0224C6.3846 17.1527 6.37594 17.2851 6.34192 17.4121C6.3079 17.539 6.2492 17.658 6.16916 17.7622C6.08911 17.8665 5.98931 17.9539 5.87545 18.0196C5.76159 18.0852 5.63591 18.1278 5.50559 18.1448C5.37527 18.1618 5.24288 18.153 5.11597 18.1188L2.27368 17.3572C2.09143 18.274 1.99976 19.2064 2 20.1411V22.9999C2.00061 23.5302 2.21152 24.0385 2.58646 24.4135C2.9614 24.7884 3.46975 24.9993 4 24.9999H10.9029L20.6855 12.251C20.847 12.0408 21.0854 11.9033 21.3482 11.8688C21.6111 11.8343 21.8769 11.9056 22.0872 12.0669C22.2976 12.2283 22.4352 12.4666 22.4699 12.7295C22.5046 12.9923 22.4335 13.2581 22.2722 13.4686L13.4238 24.9999H28C28.5302 24.9993 29.0386 24.7884 29.4135 24.4135C29.7885 24.0385 29.9994 23.5302 30 22.9999V19.9999C30.0002 19.111 29.9166 18.224 29.7504 17.3508L26.884 18.1188Z" fill="black"/>
</svg>
