<svg   viewBox="0 0 32 32" fill="none" xmlns="http://www.w3.org/2000/svg">
<path d="M29.3545 18.8007L27.4947 16.3213C27.4975 16.1023 27.4953 15.8686 27.4921 15.6821L29.3536 13.2001C29.4447 13.0786 29.507 12.938 29.5357 12.7889C29.5643 12.6398 29.5587 12.4861 29.5191 12.3395C29.207 11.1827 28.7469 10.071 28.1503 9.0319C28.0746 8.90018 27.97 8.78743 27.8442 8.70221C27.7184 8.61699 27.5749 8.56154 27.4245 8.54008L24.3636 8.10294C24.2138 7.94437 24.0595 7.79006 23.9007 7.63999L23.4637 4.58042C23.4423 4.4301 23.3868 4.28665 23.3017 4.16094C23.2165 4.03523 23.1038 3.93057 22.9722 3.8549C21.9335 3.25764 20.8221 2.79687 19.6655 2.48398C19.5189 2.44435 19.3651 2.43864 19.2159 2.46729C19.0667 2.49594 18.926 2.55819 18.8045 2.64933L16.331 4.50469C16.113 4.49864 15.8944 4.49864 15.6764 4.50469L13.204 2.65025C13.0825 2.55916 12.9418 2.49692 12.7927 2.46825C12.6436 2.43959 12.4899 2.44524 12.3433 2.48479C11.1865 2.79692 10.0748 3.25697 9.03569 3.85356C8.90397 3.92924 8.79122 4.03393 8.70599 4.15968C8.62076 4.28543 8.5653 4.42895 8.54381 4.57933L8.10673 7.64018C7.94823 7.79002 7.79391 7.94436 7.64378 8.1032L4.58421 8.54015C4.4339 8.56161 4.29045 8.61703 4.16474 8.70219C4.03903 8.78735 3.93437 8.90003 3.85869 9.03166C3.26142 10.0704 2.80065 11.1818 2.48778 12.3384C2.44813 12.4851 2.44242 12.6388 2.47108 12.788C2.49974 12.9372 2.56202 13.0779 2.65318 13.1994L4.51293 15.6788C4.51012 15.8978 4.51238 16.1315 4.51561 16.318L2.65404 18.8C2.56293 18.9215 2.50067 19.0621 2.47199 19.2112C2.44331 19.3603 2.44896 19.514 2.48851 19.6606C2.80067 20.8174 3.26075 21.9291 3.85735 22.9682C3.93302 23.0999 4.0377 23.2127 4.16346 23.2979C4.28921 23.3831 4.43273 23.4386 4.58312 23.46L7.64403 23.8971C7.79387 24.0557 7.94817 24.21 8.10692 24.3601L8.54393 27.4197C8.56541 27.57 8.62084 27.7134 8.70601 27.8391C8.79118 27.9648 8.90386 28.0695 9.03551 28.1452C10.0742 28.7424 11.1856 29.2032 12.3421 29.5161C12.4888 29.5558 12.6426 29.5615 12.7917 29.5328C12.9409 29.5042 13.0816 29.4419 13.2032 29.3508L15.6766 27.4954C15.8946 27.5016 16.1133 27.5016 16.3313 27.4954L18.8037 29.3498C18.9252 29.441 19.0658 29.5032 19.2149 29.5319C19.3641 29.5606 19.5178 29.5549 19.6644 29.5153C20.8212 29.2032 21.9329 28.7431 22.972 28.1465C23.1037 28.0709 23.2164 27.9662 23.3017 27.8404C23.3869 27.7147 23.4424 27.5711 23.4639 27.4208L23.902 24.3526C24.0588 24.1996 24.2224 24.0328 24.352 23.8987L27.4234 23.4599C27.5738 23.4385 27.7172 23.3831 27.8429 23.2979C27.9686 23.2127 28.0733 23.1001 28.149 22.9684C28.7462 21.9297 29.207 20.8183 29.5199 19.6617C29.5595 19.515 29.5652 19.3613 29.5366 19.2121C29.5079 19.0629 29.4456 18.9222 29.3545 18.8007V18.8007ZM16.0038 21.5C14.916 21.5 13.8526 21.1774 12.9481 20.5731C12.0437 19.9687 11.3387 19.1097 10.9224 18.1047C10.5061 17.0998 10.3972 15.9939 10.6094 14.927C10.8217 13.8601 11.3455 12.8801 12.1147 12.1109C12.8839 11.3417 13.8639 10.8179 14.9308 10.6057C15.9977 10.3934 17.1035 10.5024 18.1085 10.9186C19.1135 11.3349 19.9725 12.0399 20.5769 12.9443C21.1812 13.8488 21.5038 14.9122 21.5038 16C21.5021 17.4582 20.9221 18.8562 19.891 19.8873C18.8599 20.9183 17.462 21.4983 16.0038 21.5V21.5Z" fill="black"/>
</svg>
