<svg viewBox="0 0 32 32" xmlns="http://www.w3.org/2000/svg">
<path d="M29.6865 13.0333C29.6563 12.8943 29.5968 12.7633 29.512 12.6491C29.4272 12.535 29.3189 12.4402 29.1946 12.3711L26.2226 10.7213C26.0581 10.4025 25.8784 10.0905 25.6851 9.78869L25.7424 6.38714C25.7448 6.24487 25.7168 6.10372 25.6603 5.97313C25.6038 5.84255 25.52 5.72552 25.4147 5.62987C23.935 4.28408 22.1822 3.27367 20.276 2.66772C20.1405 2.62437 19.9974 2.61041 19.8561 2.62678C19.7148 2.64314 19.5786 2.68946 19.4567 2.76263L16.5419 4.51159C16.1833 4.4945 15.8231 4.49419 15.4655 4.51074L12.5482 2.76031C12.4262 2.68711 12.29 2.64078 12.1486 2.62443C12.0073 2.60807 11.864 2.62206 11.7285 2.66546C9.82321 3.27407 8.07176 4.28687 6.59387 5.63464C6.48859 5.73028 6.40492 5.84729 6.34846 5.97784C6.29199 6.1084 6.26402 6.24949 6.26642 6.39172L6.32361 9.79046C6.12976 10.0923 5.9494 10.404 5.78467 10.7222L2.81018 12.3735C2.68578 12.4425 2.57754 12.5373 2.49271 12.6516C2.40787 12.7658 2.34839 12.8968 2.31824 13.0359C1.89257 14.9902 1.89394 17.0135 2.32227 18.9672C2.35247 19.1062 2.41197 19.2372 2.4968 19.3514C2.58164 19.4655 2.68985 19.5603 2.81421 19.6293L5.7862 21.2792C5.95069 21.598 6.13043 21.91 6.32367 22.2118L6.26642 25.6133C6.26403 25.7556 6.29202 25.8967 6.34853 26.0273C6.40504 26.1579 6.48877 26.275 6.59412 26.3706C8.0738 27.7164 9.82663 28.7268 11.7328 29.3328C11.8683 29.3761 12.0114 29.3901 12.1527 29.3737C12.294 29.3573 12.4302 29.311 12.5521 29.2378L15.4669 27.4889C15.8254 27.5059 16.1855 27.5062 16.5433 27.4897L19.4606 29.2402C19.5826 29.3134 19.7188 29.3597 19.8602 29.3761C20.0015 29.3924 20.1448 29.3784 20.2803 29.335C22.1856 28.7264 23.937 27.7136 25.4149 26.3658C25.5202 26.2702 25.6039 26.1532 25.6603 26.0226C25.7168 25.8921 25.7448 25.751 25.7424 25.6088L25.6852 22.21C25.879 21.9082 26.0594 21.5964 26.2241 21.2783L29.1986 19.627C29.323 19.5579 29.4312 19.4631 29.5161 19.3489C29.6009 19.2347 29.6604 19.1036 29.6905 18.9646C30.1162 17.0102 30.1148 14.987 29.6865 13.0333V13.0333ZM21.5044 16.0002C21.5044 17.088 21.1818 18.1514 20.5775 19.0559C19.9731 19.9603 19.1142 20.6653 18.1092 21.0816C17.1042 21.4979 15.9983 21.6068 14.9314 21.3946C13.8645 21.1823 12.8845 20.6585 12.1153 19.8893C11.3461 19.1201 10.8223 18.1401 10.6101 17.0732C10.3979 16.0063 10.5068 14.9005 10.9231 13.8955C11.3393 12.8905 12.0443 12.0315 12.9488 11.4272C13.8532 10.8228 14.9166 10.5002 16.0044 10.5002C17.4626 10.5019 18.8606 11.0819 19.8917 12.113C20.9228 13.1441 21.5028 14.5421 21.5044 16.0002V16.0002Z"/>
</svg>
