<svg viewBox="0 0 32 32" xmlns="http://www.w3.org/2000/svg">
<path d="M28 8H4C3.46975 8.00061 2.9614 8.21151 2.58646 8.58646C2.21151 8.9614 2.00061 9.46975 2 10V22C2.00061 22.5302 2.21151 23.0386 2.58646 23.4135C2.9614 23.7885 3.46975 23.9994 4 24H28C28.5302 23.9994 29.0386 23.7885 29.4135 23.4135C29.7885 23.0386 29.9994 22.5302 30 22V10C29.9994 9.46975 29.7885 8.9614 29.4135 8.58646C29.0386 8.21151 28.5302 8.00061 28 8V8ZM23.5001 17.5C23.2034 17.5 22.9134 17.412 22.6667 17.2472C22.42 17.0824 22.2278 16.8481 22.1142 16.574C22.0007 16.2999 21.971 15.9983 22.0289 15.7074C22.0868 15.4164 22.2296 15.1491 22.4394 14.9393C22.6492 14.7296 22.9165 14.5867 23.2074 14.5288C23.4984 14.4709 23.8 14.5006 24.0741 14.6142C24.3482 14.7277 24.5824 14.92 24.7473 15.1666C24.9121 15.4133 25.0001 15.7033 25.0001 16C25.0001 16.3978 24.842 16.7794 24.5607 17.0607C24.2794 17.342 23.8979 17.5 23.5001 17.5Z"/>
</svg>
