<svg   viewBox="0 0 32 32" fill="none" xmlns="http://www.w3.org/2000/svg">
<path d="M26 5H6C5.46975 5.00061 4.9614 5.21151 4.58646 5.58646C4.21151 5.9614 4.00061 6.46975 4 7V13C4.00061 13.5302 4.21151 14.0386 4.58646 14.4135C4.9614 14.7885 5.46975 14.9994 6 15H26C26.5302 14.9994 27.0386 14.7885 27.4135 14.4135C27.7885 14.0386 27.9994 13.5302 28 13V7C27.9994 6.46975 27.7885 5.9614 27.4135 5.58646C27.0386 5.21151 26.5302 5.00061 26 5ZM22.5001 11.5C22.2034 11.5 21.9134 11.412 21.6667 11.2472C21.42 11.0824 21.2278 10.8481 21.1142 10.574C21.0007 10.2999 20.971 9.99834 21.0289 9.70736C21.0868 9.41639 21.2296 9.14912 21.4394 8.93934C21.6492 8.72956 21.9165 8.5867 22.2074 8.52882C22.4984 8.47094 22.8 8.50065 23.0741 8.61418C23.3482 8.72771 23.5824 8.91997 23.7473 9.16665C23.9121 9.41332 24.0001 9.70333 24.0001 10C24.0001 10.3978 23.842 10.7794 23.5607 11.0607C23.2794 11.342 22.8979 11.5 22.5001 11.5Z" fill="black"/>
<path d="M26 17H6C5.46975 17.0006 4.9614 17.2115 4.58646 17.5865C4.21151 17.9614 4.00061 18.4698 4 19V25C4.00061 25.5302 4.21151 26.0386 4.58646 26.4135C4.9614 26.7885 5.46975 26.9994 6 27H26C26.5302 26.9994 27.0386 26.7885 27.4135 26.4135C27.7885 26.0386 27.9994 25.5302 28 25V19C27.9994 18.4698 27.7885 17.9614 27.4135 17.5865C27.0386 17.2115 26.5302 17.0006 26 17ZM22.5001 23.5C22.2034 23.5 21.9134 23.412 21.6667 23.2472C21.42 23.0824 21.2278 22.8481 21.1142 22.574C21.0007 22.2999 20.971 21.9983 21.0289 21.7074C21.0868 21.4164 21.2296 21.1491 21.4394 20.9393C21.6492 20.7296 21.9165 20.5867 22.2074 20.5288C22.4984 20.4709 22.8 20.5007 23.0741 20.6142C23.3482 20.7277 23.5824 20.92 23.7473 21.1666C23.9121 21.4133 24.0001 21.7033 24.0001 22C24.0001 22.3978 23.842 22.7794 23.5607 23.0607C23.2794 23.342 22.8979 23.5 22.5001 23.5Z" fill="black"/>
</svg>
