<svg viewBox="0 0 32 32" xmlns="http://www.w3.org/2000/svg">
<path d="M27.9375 5.93933H4.05884C3.49642 5.93998 2.95723 6.16368 2.55954 6.56137C2.16185 6.95906 1.93815 7.49825 1.9375 8.06067V23.9393C1.93815 24.5017 2.16185 25.0409 2.55954 25.4386C2.95723 25.8363 3.49642 26.06 4.05884 26.0607H27.9375C28.4999 26.06 29.0391 25.8363 29.4368 25.4386C29.8345 25.0409 30.0582 24.5017 30.0588 23.9393V8.06067C30.0582 7.49825 29.8345 6.95906 29.4368 6.56137C29.0391 6.16368 28.4999 5.93998 27.9375 5.93933V5.93933ZM7.99817 21H6.99817C6.73295 21 6.4786 20.8946 6.29106 20.7071C6.10353 20.5196 5.99817 20.2652 5.99817 20C5.99817 19.7348 6.10353 19.4804 6.29106 19.2929C6.4786 19.1054 6.73295 19 6.99817 19H7.99817C8.26339 19 8.51774 19.1054 8.70528 19.2929C8.89281 19.4804 8.99817 19.7348 8.99817 20C8.99817 20.2652 8.89281 20.5196 8.70528 20.7071C8.51774 20.8946 8.26339 21 7.99817 21V21ZM19.9982 21H11.9982C11.733 21 11.4786 20.8946 11.2911 20.7071C11.1035 20.5196 10.9982 20.2652 10.9982 20C10.9982 19.7348 11.1035 19.4804 11.2911 19.2929C11.4786 19.1054 11.733 19 11.9982 19H19.9982C20.2634 19 20.5177 19.1054 20.7053 19.2929C20.8928 19.4804 20.9982 19.7348 20.9982 20C20.9982 20.2652 20.8928 20.5196 20.7053 20.7071C20.5177 20.8946 20.2634 21 19.9982 21ZM24.9982 21H23.9982C23.733 21 23.4786 20.8946 23.2911 20.7071C23.1035 20.5196 22.9982 20.2652 22.9982 20C22.9982 19.7348 23.1035 19.4804 23.2911 19.2929C23.4786 19.1054 23.733 19 23.9982 19H24.9982C25.2634 19 25.5177 19.1054 25.7053 19.2929C25.8928 19.4804 25.9982 19.7348 25.9982 20C25.9982 20.2652 25.8928 20.5196 25.7053 20.7071C25.5177 20.8946 25.2634 21 24.9982 21ZM24.9982 17H6.99817C6.73295 17 6.4786 16.8946 6.29106 16.7071C6.10353 16.5196 5.99817 16.2652 5.99817 16C5.99817 15.7348 6.10353 15.4804 6.29106 15.2929C6.4786 15.1054 6.73295 15 6.99817 15H24.9982C25.2634 15 25.5177 15.1054 25.7053 15.2929C25.8928 15.4804 25.9982 15.7348 25.9982 16C25.9982 16.2652 25.8928 16.5196 25.7053 16.7071C25.5177 16.8946 25.2634 17 24.9982 17ZM24.9982 13H6.99817C6.73295 13 6.4786 12.8946 6.29106 12.7071C6.10353 12.5196 5.99817 12.2652 5.99817 12C5.99817 11.7348 6.10353 11.4804 6.29106 11.2929C6.4786 11.1054 6.73295 11 6.99817 11H24.9982C25.2634 11 25.5177 11.1054 25.7053 11.2929C25.8928 11.4804 25.9982 11.7348 25.9982 12C25.9982 12.2652 25.8928 12.5196 25.7053 12.7071C25.5177 12.8946 25.2634 13 24.9982 13Z"/>
</svg>
