<svg   viewBox="0 0 32 32" fill="none" xmlns="http://www.w3.org/2000/svg">
<path d="M27 5H5C4.46975 5.00061 3.9614 5.21151 3.58646 5.58646C3.21151 5.9614 3.00061 6.46975 3 7V25C3.00061 25.5302 3.21151 26.0386 3.58646 26.4135C3.9614 26.7885 4.46975 26.9994 5 27H27C27.5302 26.9994 28.0386 26.7885 28.4135 26.4135C28.7885 26.0386 28.9994 25.5302 29 25V7C28.9994 6.46975 28.7885 5.9614 28.4135 5.58646C28.0386 5.21151 27.5302 5.00061 27 5ZM23 17C23 17.2652 22.8946 17.5196 22.7071 17.7071C22.5196 17.8946 22.2652 18 22 18H12.4143L13.7072 19.2928C13.8 19.3857 13.8737 19.496 13.9239 19.6173C13.9742 19.7386 14.0001 19.8687 14.0001 20C14.0001 20.1313 13.9742 20.2614 13.9239 20.3827C13.8737 20.504 13.8 20.6143 13.7072 20.7072C13.6143 20.8 13.504 20.8737 13.3827 20.9239C13.2614 20.9742 13.1313 21.0001 13 21.0001C12.8687 21.0001 12.7386 20.9742 12.6173 20.9239C12.496 20.8737 12.3857 20.8 12.2929 20.7072L9.29285 17.7072C9.28577 17.7001 9.27979 17.6924 9.27302 17.6852C9.25733 17.6686 9.24164 17.652 9.22712 17.6344C9.2157 17.6205 9.20569 17.606 9.1952 17.5917C9.18641 17.5798 9.17713 17.5682 9.16883 17.5558C9.1582 17.54 9.14893 17.5236 9.13935 17.5073C9.13239 17.4955 9.12494 17.4841 9.11847 17.4719C9.10981 17.4558 9.10242 17.4392 9.09473 17.4227C9.08857 17.4095 9.08197 17.3966 9.07636 17.3832C9.06982 17.3673 9.06445 17.3512 9.05878 17.3351C9.05353 17.3203 9.04785 17.3058 9.04328 17.2907C9.0384 17.2746 9.03479 17.2582 9.03071 17.2419C9.02686 17.2266 9.02253 17.2114 9.01941 17.1958C9.01569 17.1768 9.01337 17.1577 9.01075 17.1386C9.00891 17.1254 9.00635 17.1124 9.00501 17.099C8.99848 17.0332 8.99848 16.9668 9.00501 16.901C9.00635 16.8876 9.00891 16.8746 9.01075 16.8614C9.01337 16.8423 9.01569 16.8232 9.01941 16.8042C9.02253 16.7886 9.02686 16.7734 9.03071 16.7581C9.03479 16.7418 9.0384 16.7254 9.04328 16.7093C9.04786 16.6942 9.05353 16.6797 9.05878 16.6649C9.06445 16.6488 9.06982 16.6327 9.07636 16.6168C9.08197 16.6034 9.08856 16.5904 9.09473 16.5773C9.10242 16.5608 9.10981 16.5442 9.11847 16.5281C9.12494 16.5159 9.13239 16.5044 9.13935 16.4927C9.14893 16.4764 9.15821 16.46 9.16883 16.4441C9.17713 16.4318 9.18641 16.4202 9.1952 16.4083C9.2057 16.394 9.2157 16.3794 9.22712 16.3656C9.24164 16.348 9.25733 16.3314 9.27302 16.3148C9.27979 16.3075 9.28577 16.2999 9.29285 16.2928L12.2929 13.2928C12.4804 13.1053 12.7348 12.9999 13 12.9999C13.2652 12.9999 13.5196 13.1053 13.7072 13.2928C13.8947 13.4804 14.0001 13.7348 14.0001 14C14.0001 14.2652 13.8947 14.5196 13.7072 14.7071L12.4143 16H21V13C21 12.7348 21.1054 12.4804 21.2929 12.2929C21.4804 12.1054 21.7348 12 22 12C22.2652 12 22.5196 12.1054 22.7071 12.2929C22.8946 12.4804 23 12.7348 23 13V17Z" fill="black"/>
</svg>
