<svg   viewBox="0 0 32 32" fill="none" xmlns="http://www.w3.org/2000/svg">
<path d="M29 21H28V9C27.9991 8.20463 27.6827 7.4421 27.1203 6.87968C26.5579 6.31727 25.7954 6.00091 25 6H7C6.20463 6.00091 5.4421 6.31727 4.87968 6.87968C4.31727 7.4421 4.00091 8.20463 4 9V21H3C2.73478 21 2.48043 21.1054 2.2929 21.2929C2.10536 21.4804 2 21.7348 2 22V24C2.00091 24.7954 2.31727 25.5579 2.87968 26.1203C3.4421 26.6827 4.20463 26.9991 5 27H27C27.7954 26.9991 28.5579 26.6827 29.1203 26.1203C29.6827 25.5579 29.9991 24.7954 30 24V22C30 21.7348 29.8946 21.4804 29.7071 21.2929C29.5196 21.1054 29.2652 21 29 21ZM14 9H18C18.2652 9 18.5196 9.10536 18.7071 9.29289C18.8946 9.48043 19 9.73478 19 10C19 10.2652 18.8946 10.5196 18.7071 10.7071C18.5196 10.8946 18.2652 11 18 11H14C13.7348 11 13.4804 10.8946 13.2929 10.7071C13.1054 10.5196 13 10.2652 13 10C13 9.73478 13.1054 9.48043 13.2929 9.29289C13.4804 9.10536 13.7348 9 14 9V9ZM28 24C27.9997 24.2651 27.8942 24.5193 27.7068 24.7068C27.5193 24.8942 27.2651 24.9997 27 25H5C4.73488 24.9997 4.4807 24.8942 4.29323 24.7068C4.10576 24.5193 4.0003 24.2651 4 24V23H28V24Z" fill="black"/>
</svg>
