<svg viewBox="0 0 32 32" xmlns="http://www.w3.org/2000/svg">
<path d="M22 29C22 29.2652 21.8947 29.5196 21.7071 29.7071C21.5196 29.8946 21.2653 30 21 30H11C10.7348 30 10.4805 29.8947 10.2929 29.7071C10.1054 29.5196 10 29.2652 10 29C10 28.7348 10.1054 28.4804 10.2929 28.2929C10.4805 28.1054 10.7348 28 11 28H21C21.2653 28 21.5196 28.1054 21.7071 28.2929C21.8947 28.4804 22 28.7348 22 29V29ZM27 13C27.0044 14.667 26.6277 16.313 25.8989 17.8123C25.1701 19.3116 24.1084 20.6246 22.7948 21.651C22.5496 21.8389 22.3505 22.0804 22.2127 22.357C22.075 22.6336 22.0022 22.938 22 23.247V24C21.9994 24.5303 21.7885 25.0386 21.4136 25.4136C21.0386 25.7885 20.5303 25.9994 20 26H12C11.4698 25.9994 10.9614 25.7885 10.5865 25.4136C10.2116 25.0386 10.0006 24.5303 10 24V23.2461C9.99966 22.9404 9.92928 22.6388 9.7943 22.3646C9.65933 22.0903 9.46334 21.8505 9.22136 21.6637C7.91161 20.6438 6.85097 19.3394 6.11966 17.8492C5.38835 16.3589 5.00553 14.7219 5.00017 13.0619C4.96733 7.10413 9.78313 2.1432 15.7354 2.00306C17.2018 1.96779 18.6604 2.22615 20.0255 2.76295C21.3906 3.29975 22.6345 4.10413 23.6841 5.12878C24.7337 6.15344 25.5677 7.37766 26.1372 8.72942C26.7067 10.0812 27 11.5332 27 13V13ZM22.9015 11.8254C22.6587 10.3973 21.9775 9.08002 20.9525 8.05629C19.9275 7.03256 18.6094 6.35304 17.1809 6.11195C17.0514 6.09005 16.9188 6.0939 16.7908 6.12326C16.6627 6.15263 16.5417 6.20695 16.4346 6.2831C16.3276 6.35926 16.2366 6.45577 16.1669 6.56711C16.0971 6.67846 16.05 6.80245 16.0282 6.93201C16.0064 7.06157 16.0104 7.19415 16.0398 7.32218C16.0693 7.45022 16.1237 7.57119 16.1999 7.67818C16.2762 7.78518 16.3728 7.8761 16.4842 7.94575C16.5956 8.0154 16.7196 8.06242 16.8492 8.08411C17.8681 8.25614 18.8083 8.74087 19.5394 9.47111C20.2705 10.2014 20.7564 11.141 20.9296 12.1597C20.9691 12.3924 21.0896 12.6036 21.2698 12.7561C21.45 12.9085 21.6783 12.9923 21.9143 12.9927C21.9708 12.9927 22.0271 12.9879 22.0827 12.9785C22.2122 12.9566 22.3361 12.9093 22.4473 12.8395C22.5585 12.7697 22.6549 12.6787 22.7309 12.5716C22.807 12.4645 22.8612 12.3435 22.8904 12.2155C22.9197 12.0875 22.9235 11.9549 22.9015 11.8254Z"/>
</svg>
