<svg viewBox="0 0 32 32" xmlns="http://www.w3.org/2000/svg">
<path d="M22 29C22 29.2652 21.8946 29.5196 21.7071 29.7071C21.5196 29.8946 21.2652 30 21 30H11C10.7348 30 10.4804 29.8946 10.2929 29.7071C10.1053 29.5196 9.99999 29.2652 9.99999 29C9.99999 28.7348 10.1053 28.4804 10.2929 28.2929C10.4804 28.1054 10.7348 28 11 28H21C21.2652 28 21.5196 28.1054 21.7071 28.2929C21.8946 28.4804 22 28.7348 22 29ZM27 13C27.0043 14.667 26.6277 16.313 25.8989 17.8123C25.17 19.3116 24.1083 20.6246 22.7947 21.651C22.5495 21.839 22.3504 22.0805 22.2127 22.3571C22.075 22.6337 22.0022 22.9381 22 23.2471V24C21.9994 24.5303 21.7885 25.0386 21.4135 25.4135C21.0386 25.7885 20.5302 25.9994 20 26H12C11.4697 25.9994 10.9614 25.7885 10.5864 25.4135C10.2115 25.0386 10.0006 24.5303 9.99999 24V23.2461C9.99958 22.9404 9.92918 22.6388 9.7942 22.3646C9.65921 22.0903 9.46322 21.8505 9.22124 21.6637C7.91151 20.6438 6.85088 19.3394 6.1196 17.8492C5.38831 16.3589 5.00551 14.7219 5.00017 13.0619C4.96727 7.10413 9.78301 2.14319 15.7353 2.00306C17.2017 1.96779 18.6603 2.22616 20.0254 2.76296C21.3904 3.29976 22.6344 4.10414 23.684 5.12879C24.7336 6.15344 25.5676 7.37766 26.1371 8.72942C26.7066 10.0812 27 11.5332 27 13V13ZM20.7071 13.2929C20.5195 13.1054 20.2652 13.0001 20 13.0001C19.7348 13.0001 19.4805 13.1054 19.2929 13.2929L16 16.5858L12.7071 13.2929C12.5195 13.1053 12.2652 13 11.9999 13C11.7347 13 11.4804 13.1054 11.2928 13.2929C11.1053 13.4805 11 13.7348 11 14C11 14.2653 11.1053 14.5196 11.2929 14.7072L15 18.4143V23C15 23.2652 15.1053 23.5196 15.2929 23.7071C15.4804 23.8946 15.7348 24 16 24C16.2652 24 16.5196 23.8946 16.7071 23.7071C16.8946 23.5196 17 23.2652 17 23V18.4143L20.7071 14.7072C20.7999 14.6143 20.8736 14.5041 20.9239 14.3827C20.9741 14.2614 21 14.1313 21 14C21 13.8687 20.9741 13.7386 20.9239 13.6173C20.8736 13.496 20.7999 13.3857 20.7071 13.2929Z"/>
</svg>
