<svg viewBox="0 0 32 32" xmlns="http://www.w3.org/2000/svg">
<path d="M6.74041 4.32689C6.6521 4.22961 6.54549 4.15068 6.42667 4.09462C6.30785 4.03856 6.17915 4.00647 6.04792 4.00017C5.91668 3.99388 5.7855 4.0135 5.66186 4.05793C5.53821 4.10235 5.42454 4.17071 5.32732 4.25908C5.23011 4.34746 5.15126 4.45413 5.09529 4.57299C5.03932 4.69185 5.00731 4.82058 5.00111 4.95182C4.99491 5.08305 5.01464 5.21423 5.05915 5.33784C5.10367 5.46145 5.1721 5.57507 5.26055 5.67222L10.1656 11.0678L5.2694 16.3138C5.15724 16.434 5.07644 16.58 5.03416 16.7389C4.99187 16.8978 4.9894 17.0646 5.02697 17.2246C5.06454 17.3847 5.14098 17.533 5.24954 17.6565C5.3581 17.7799 5.49542 17.8747 5.64935 17.9325L12.8531 20.6339L11.0199 29.8C10.9772 30.0134 11.0053 30.2348 11.0998 30.4308C11.1944 30.6268 11.3503 30.7865 11.5439 30.8859C11.7375 30.9852 11.9582 31.0187 12.1725 30.9813C12.3868 30.9439 12.5831 30.8375 12.7316 30.6784L20.4629 22.3948L25.2606 27.6722C25.3489 27.7695 25.4555 27.8484 25.5743 27.9045C25.6931 27.9605 25.8218 27.9926 25.9531 27.9989C26.0843 28.0052 26.2155 27.9856 26.3391 27.9412C26.4628 27.8968 26.5764 27.8284 26.6736 27.74C26.7709 27.6516 26.8497 27.545 26.9057 27.4261C26.9617 27.3073 26.9937 27.1785 26.9999 27.0473C27.0061 26.9161 26.9863 26.7849 26.9418 26.6613C26.8973 26.5377 26.8289 26.424 26.7404 26.3269L6.74041 4.32689Z"/>
<path d="M22.4731 18.6574C22.5661 18.7597 22.6792 18.8416 22.8055 18.8979C22.9317 18.9543 23.0682 18.9838 23.2065 18.9847H23.213C23.3501 18.9847 23.4858 18.9565 23.6116 18.9019C23.7373 18.8472 23.8505 18.7673 23.9441 18.667L26.7335 15.6784C26.8456 15.5582 26.9264 15.4122 26.9687 15.2533C27.011 15.0945 27.0135 14.9276 26.9759 14.7676C26.9384 14.6075 26.8619 14.4592 26.7534 14.3357C26.6448 14.2123 26.5075 14.1175 26.3535 14.0597L19.1497 11.3583L20.983 2.19219C21.0256 1.97884 20.9975 1.7574 20.903 1.56145C20.8084 1.36551 20.6525 1.20575 20.4589 1.10641C20.2654 1.00708 20.0447 0.973577 19.8304 1.011C19.616 1.04842 19.4198 1.15471 19.2713 1.31377L13.5345 7.46031C13.3633 7.64383 13.2673 7.88506 13.2656 8.13608C13.264 8.3871 13.3568 8.62955 13.5257 8.81529L22.4731 18.6574Z"/>
</svg>
