<svg   viewBox="0 0 32 32" fill="none" xmlns="http://www.w3.org/2000/svg">
<path d="M17.4148 21.6566L13.8792 25.1921C12.9415 26.1293 11.6699 26.6556 10.3441 26.6554C9.01833 26.6552 7.74691 26.1284 6.80944 25.191C5.87198 24.2535 5.34522 22.9821 5.34501 21.6563C5.3448 20.3305 5.87115 19.0589 6.80832 18.1212L10.3438 14.5856C10.5314 14.3981 10.6368 14.1437 10.6368 13.8785C10.6368 13.6133 10.5314 13.3589 10.3438 13.1713C10.1563 12.9838 9.90193 12.8784 9.63669 12.8784C9.37146 12.8784 9.11709 12.9838 8.92954 13.1713L5.39401 16.7069C4.08125 18.0196 3.34375 19.8001 3.34375 21.6566C3.34375 23.5131 4.08125 25.2936 5.39401 26.6064C6.70677 27.9192 8.48726 28.6567 10.3438 28.6567C12.2003 28.6567 13.9808 27.9192 15.2935 26.6064L18.8291 23.0709C18.9219 22.978 18.9956 22.8678 19.0459 22.7464C19.0961 22.6251 19.122 22.495 19.122 22.3637C19.122 22.2324 19.0961 22.1023 19.0459 21.981C18.9956 21.8597 18.9219 21.7494 18.8291 21.6566C18.7362 21.5637 18.626 21.49 18.5046 21.4398C18.3833 21.3895 18.2532 21.3636 18.1219 21.3636C17.9906 21.3636 17.8605 21.3895 17.7392 21.4398C17.6179 21.49 17.5076 21.5637 17.4148 21.6566V21.6566Z" fill="black"/>
<path d="M26.6042 5.39258C25.2914 4.07987 23.511 3.34241 21.6545 3.34241C19.798 3.34241 18.0175 4.07987 16.7047 5.39258L13.1692 8.9281C13.076 9.0209 13.0021 9.13116 12.9516 9.25257C12.9012 9.37397 12.8751 9.50414 12.875 9.63562C12.8749 9.7671 12.9007 9.89732 12.951 10.0188C13.0012 10.1403 13.0749 10.2507 13.1679 10.3437C13.2609 10.4366 13.3713 10.5104 13.4928 10.5606C13.6143 10.6109 13.7445 10.6367 13.876 10.6366C14.0074 10.6365 14.1376 10.6104 14.259 10.5599C14.3804 10.5095 14.4907 10.4355 14.5835 10.3424L18.119 6.80688C19.0567 5.86922 20.3284 5.34245 21.6545 5.34245C22.9805 5.34245 24.2523 5.86922 25.1899 6.80688C26.1276 7.74455 26.6544 9.01629 26.6544 10.3423C26.6544 11.6684 26.1276 12.9401 25.1899 13.8778L21.6544 17.4133C21.4669 17.6009 21.3615 17.8552 21.3615 18.1205C21.3615 18.3857 21.4669 18.6401 21.6544 18.8276C21.842 19.0152 22.0963 19.1205 22.3616 19.1205C22.6268 19.1205 22.8812 19.0152 23.0687 18.8276L26.6042 15.2921C27.915 13.9783 28.6512 12.1982 28.6512 10.3423C28.6512 8.48647 27.915 6.70638 26.6042 5.39258Z" fill="black"/>
</svg>
