<svg   viewBox="0 0 32 32" fill="none" xmlns="http://www.w3.org/2000/svg">
<path d="M26.2548 5.74695C25.0358 4.52796 23.3825 3.84314 21.6585 3.84314C19.9346 3.84314 18.2813 4.52796 17.0623 5.74695L14.5874 8.2218C14.4945 8.31464 14.4207 8.42489 14.3703 8.54625C14.32 8.66762 14.2941 8.79771 14.294 8.9291C14.294 9.0605 14.3198 9.19061 14.3701 9.31201C14.4203 9.43341 14.494 9.54372 14.5869 9.63662C14.6798 9.72953 14.7901 9.80322 14.9115 9.85348C15.0329 9.90374 15.163 9.92958 15.2944 9.92954C15.4258 9.92949 15.5559 9.90355 15.6773 9.8532C15.7986 9.80285 15.9089 9.72908 16.0017 9.63611L18.4766 7.16125C18.8945 6.74339 19.3905 6.41192 19.9365 6.18578C20.4824 5.95963 21.0676 5.84323 21.6585 5.84322C22.2494 5.84322 22.8346 5.95961 23.3805 6.18574C23.9265 6.41188 24.4226 6.74334 24.8404 7.16119C25.2583 7.57904 25.5898 8.0751 25.8159 8.62105C26.042 9.167 26.1584 9.75215 26.1585 10.3431C26.1585 10.934 26.0421 11.5192 25.8159 12.0651C25.5898 12.6111 25.2583 13.1072 24.8405 13.525L21.3051 17.0607C20.4605 17.9033 19.3162 18.3766 18.1231 18.3766C16.93 18.3766 15.7857 17.9033 14.9411 17.0607C14.7535 16.8733 14.4992 16.7682 14.2341 16.7683C13.969 16.7684 13.7147 16.8737 13.5273 17.0612C13.3398 17.2486 13.2345 17.5029 13.2344 17.768C13.2343 18.0331 13.3394 18.2874 13.5268 18.475C14.7468 19.6921 16.3997 20.3756 18.123 20.3756C19.8463 20.3756 21.4993 19.6921 22.7193 18.475L26.2548 14.9393C27.4737 13.7203 28.1585 12.067 28.1585 10.3431C28.1585 8.61925 27.4737 6.96596 26.2548 5.74694L26.2548 5.74695Z" fill="black"/>
<path d="M15.9978 22.3639L13.5229 24.8387C13.1051 25.2566 12.609 25.5881 12.0631 25.8142C11.5171 26.0404 10.932 26.1568 10.341 26.1568C9.7501 26.1568 9.16494 26.0404 8.61899 25.8142C8.07303 25.5881 7.57696 25.2567 7.1591 24.8388C6.74124 24.421 6.40978 23.9249 6.18363 23.3789C5.95748 22.833 5.84109 22.2478 5.84108 21.6569C5.84108 21.066 5.95746 20.4808 6.1836 19.9349C6.40974 19.3889 6.74119 18.8928 7.15904 18.475L10.6944 14.9393C11.539 14.0966 12.6834 13.6233 13.8765 13.6233C15.0696 13.6233 16.2139 14.0966 17.0585 14.9393C17.1513 15.0323 17.2616 15.1061 17.3829 15.1564C17.5043 15.2068 17.6344 15.2327 17.7658 15.2328C17.8972 15.2328 18.0273 15.207 18.1487 15.1567C18.2701 15.1064 18.3804 15.0328 18.4733 14.9398C18.5662 14.8469 18.6399 14.7366 18.6901 14.6152C18.7404 14.4938 18.7662 14.3637 18.7662 14.2323C18.7661 14.1009 18.7402 13.9708 18.6899 13.8495C18.6395 13.7281 18.5657 13.6179 18.4728 13.525C17.2528 12.3079 15.5998 11.6244 13.8765 11.6244C12.1532 11.6244 10.5003 12.3079 9.28027 13.525L5.74474 17.0607C4.52698 18.2799 3.84321 19.9328 3.84375 21.6561C3.84429 23.3793 4.52908 25.0318 5.7476 26.2503C6.96611 27.4688 8.61862 28.1536 10.3418 28.1541C12.0651 28.1546 13.718 27.4708 14.9372 26.253L17.4121 23.7782C17.5994 23.5906 17.7046 23.3363 17.7045 23.0712C17.7044 22.8061 17.599 22.5519 17.4116 22.3644C17.2241 22.1769 16.9699 22.0716 16.7048 22.0715C16.4397 22.0714 16.1854 22.1766 15.9978 22.3639H15.9978Z" fill="black"/>
</svg>
