<svg viewBox="0 0 32 32" xmlns="http://www.w3.org/2000/svg">
<path d="M9 15.999C9 16.2642 9.10536 16.5186 9.2929 16.7061C9.48043 16.8937 9.73478 16.999 10 16.999H22C22.2652 16.999 22.5196 16.8937 22.7071 16.7061C22.8946 16.5186 23 16.2642 23 15.999C23 15.7338 22.8946 15.4795 22.7071 15.2919C22.5196 15.1044 22.2652 14.999 22 14.999H10C9.73478 14.999 9.48043 15.1044 9.2929 15.2919C9.10536 15.4795 9 15.7338 9 15.999Z"/>
<path d="M12.9922 20.9995H7.99219C6.66611 20.9995 5.39434 20.4727 4.45665 19.535C3.51897 18.5974 2.99219 17.3256 2.99219 15.9995C2.99219 14.6734 3.51897 13.4017 4.45665 12.464C5.39434 11.5263 6.66611 10.9995 7.99219 10.9995H12.9922C13.2574 10.9995 13.5118 10.8942 13.6993 10.7066C13.8868 10.5191 13.9922 10.2647 13.9922 9.99951C13.9922 9.7343 13.8868 9.47994 13.6993 9.2924C13.5118 9.10487 13.2574 8.99951 12.9922 8.99951H7.99219C6.13567 8.99951 4.35519 9.73701 3.04244 11.0498C1.72969 12.3625 0.992188 14.143 0.992188 15.9995C0.992188 17.856 1.72969 19.6365 3.04244 20.9493C4.35519 22.262 6.13567 22.9995 7.99219 22.9995H12.9922C13.2574 22.9995 13.5118 22.8942 13.6993 22.7066C13.8868 22.5191 13.9922 22.2647 13.9922 21.9995C13.9922 21.7343 13.8868 21.4799 13.6993 21.2924C13.5118 21.1049 13.2574 20.9995 12.9922 20.9995Z"/>
<path d="M24 8.99951H19C18.7348 8.99951 18.4804 9.10487 18.2929 9.2924C18.1054 9.47994 18 9.7343 18 9.99951C18 10.2647 18.1054 10.5191 18.2929 10.7066C18.4804 10.8942 18.7348 10.9995 19 10.9995H24C25.3261 10.9995 26.5979 11.5263 27.5355 12.464C28.4732 13.4017 29 14.6734 29 15.9995C29 17.3256 28.4732 18.5974 27.5355 19.535C26.5979 20.4727 25.3261 20.9995 24 20.9995H19C18.7348 20.9995 18.4804 21.1049 18.2929 21.2924C18.1054 21.4799 18 21.7343 18 21.9995C18 22.2647 18.1054 22.5191 18.2929 22.7066C18.4804 22.8942 18.7348 22.9995 19 22.9995H24C25.8565 22.9995 27.637 22.262 28.9497 20.9493C30.2625 19.6365 31 17.856 31 15.9995C31 14.143 30.2625 12.3625 28.9497 11.0498C27.637 9.73701 25.8565 8.99951 24 8.99951V8.99951Z"/>
</svg>
