<svg viewBox="0 0 32 32" xmlns="http://www.w3.org/2000/svg">
<path d="M13 20.9995H8C6.67392 20.9995 5.40215 20.4727 4.46447 19.535C3.52678 18.5974 3 17.3256 3 15.9995C3 14.6734 3.52678 13.4017 4.46447 12.464C5.40215 11.5263 6.67392 10.9995 8 10.9995H13C13.2652 10.9995 13.5196 10.8942 13.7071 10.7066C13.8946 10.5191 14 10.2647 14 9.99951C14 9.7343 13.8946 9.47994 13.7071 9.2924C13.5196 9.10487 13.2652 8.99951 13 8.99951H8C6.14348 8.99951 4.36301 9.73701 3.05025 11.0498C1.7375 12.3625 1 14.143 1 15.9995C1 17.856 1.7375 19.6365 3.05025 20.9493C4.36301 22.262 6.14348 22.9995 8 22.9995H13C13.2652 22.9995 13.5196 22.8942 13.7071 22.7066C13.8946 22.5191 14 22.2647 14 21.9995C14 21.7343 13.8946 21.4799 13.7071 21.2924C13.5196 21.1049 13.2652 20.9995 13 20.9995Z"/>
<path d="M24 8.99951H19C18.7348 8.99951 18.4804 9.10487 18.2929 9.2924C18.1054 9.47994 18 9.7343 18 9.99951C18 10.2647 18.1054 10.5191 18.2929 10.7066C18.4804 10.8942 18.7348 10.9995 19 10.9995H24C25.3261 10.9995 26.5979 11.5263 27.5355 12.464C28.4732 13.4017 29 14.6734 29 15.9995C29 17.3256 28.4732 18.5974 27.5355 19.535C26.5979 20.4727 25.3261 20.9995 24 20.9995H19C18.7348 20.9995 18.4804 21.1049 18.2929 21.2924C18.1054 21.4799 18 21.7343 18 21.9995C18 22.2647 18.1054 22.5191 18.2929 22.7066C18.4804 22.8942 18.7348 22.9995 19 22.9995H24C25.8565 22.9995 27.637 22.262 28.9497 20.9493C30.2625 19.6365 31 17.856 31 15.9995C31 14.143 30.2625 12.3625 28.9497 11.0498C27.637 9.73701 25.8565 8.99951 24 8.99951V8.99951Z"/>
</svg>
