<svg viewBox="0 0 32 32" xmlns="http://www.w3.org/2000/svg">
<path d="M11 9.00004V6.00004C11 5.73482 11.1054 5.48047 11.2929 5.29293C11.4804 5.1054 11.7348 5.00004 12 5.00004C12.2652 5.00004 12.5196 5.1054 12.7071 5.29293C12.8946 5.48047 13 5.73482 13 6.00004V9.00004C13 9.26526 12.8946 9.51961 12.7071 9.70715C12.5196 9.89468 12.2652 10 12 10C11.7348 10 11.4804 9.89468 11.2929 9.70715C11.1054 9.51961 11 9.26526 11 9.00004ZM20 22C19.7348 22.0001 19.4804 22.1054 19.2929 22.2929C19.1054 22.4805 19 22.7348 19 23V26C19 26.2653 19.1054 26.5196 19.2929 26.7071C19.4804 26.8947 19.7348 27 20 27C20.2652 27 20.5196 26.8947 20.7071 26.7071C20.8946 26.5196 21 26.2653 21 26V23C21 22.7348 20.8946 22.4805 20.7071 22.2929C20.5196 22.1054 20.2652 22.0001 20 22ZM6 13H9C9.26522 13 9.51957 12.8947 9.70711 12.7071C9.89464 12.5196 10 12.2653 10 12C10 11.7348 9.89464 11.4805 9.70711 11.2929C9.51957 11.1054 9.26522 11 9 11H6C5.73478 11 5.48043 11.1054 5.29289 11.2929C5.10536 11.4805 5 11.7348 5 12C5 12.2653 5.10536 12.5196 5.29289 12.7071C5.48043 12.8947 5.73478 13 6 13ZM26 19H23C22.7348 19 22.4804 19.1054 22.2929 19.2929C22.1054 19.4805 22 19.7348 22 20C22 20.2653 22.1054 20.5196 22.2929 20.7071C22.4804 20.8947 22.7348 21 23 21H26C26.2652 21 26.5196 20.8947 26.7071 20.7071C26.8946 20.5196 27 20.2653 27 20C27 19.7348 26.8946 19.4805 26.7071 19.2929C26.5196 19.1054 26.2652 19 26 19ZM15.2427 22.4142L13.8285 23.8284C13.0784 24.5786 12.061 25 11.0001 25C9.93922 25.0001 8.92179 24.5787 8.17163 23.8285C7.42147 23.0784 7.00002 22.061 7 21.0001C6.99997 19.9393 7.42138 18.9218 8.17151 18.1717L9.58581 16.7575C9.77336 16.57 9.87874 16.3156 9.87876 16.0504C9.87878 15.7852 9.77345 15.5308 9.58593 15.3433C9.39842 15.1558 9.14408 15.0504 8.87887 15.0504C8.61366 15.0503 8.3593 15.1557 8.17175 15.3432L6.75732 16.7575C5.63357 17.883 5.00269 19.4087 5.00333 20.9992C5.00398 22.5897 5.6361 24.1149 6.76077 25.2395C7.88544 26.3642 9.41062 26.9962 11.0011 26.9968C12.5916 26.9974 14.1173 26.3665 15.2428 25.2427L16.657 23.8285C16.8445 23.641 16.9499 23.3866 16.9499 23.1214C16.9499 22.8561 16.8445 22.6018 16.657 22.4142C16.4694 22.2267 16.2151 22.1213 15.9498 22.1213C15.6846 22.1213 15.4302 22.2267 15.2427 22.4142V22.4142ZM23.8285 8.17155C24.5775 8.92229 24.9982 9.93947 24.9982 11C24.9982 12.0604 24.5776 13.0776 23.8286 13.8284L22.4143 15.2426C22.3214 15.3354 22.2478 15.4457 22.1975 15.567C22.1473 15.6883 22.1214 15.8183 22.1214 15.9497C22.1214 16.081 22.1472 16.211 22.1974 16.3323C22.2477 16.4537 22.3213 16.5639 22.4142 16.6568C22.507 16.7496 22.6173 16.8233 22.7386 16.8736C22.8599 16.9238 22.9899 16.9497 23.1213 16.9497C23.3865 16.9497 23.6408 16.8444 23.8284 16.6569L25.2428 15.2426C25.8004 14.6855 26.2427 14.0241 26.5445 13.296C26.8464 12.5679 27.0018 11.7875 27.002 10.9993C27.0022 10.2112 26.847 9.43071 26.5455 8.70251C26.2439 7.97432 25.8019 7.31267 25.2446 6.75536C24.6872 6.19805 24.0256 5.75601 23.2974 5.45449C22.5692 5.15296 21.7887 4.99786 21.0005 4.99805C20.2124 4.99823 19.432 5.1537 18.7039 5.45557C17.9758 5.75744 17.3144 6.19979 16.7573 6.75736L15.3431 8.17155C15.1556 8.3591 15.0502 8.61347 15.0502 8.8787C15.0502 9.14394 15.1556 9.39831 15.3431 9.58585C15.5307 9.7734 15.7851 9.87877 16.0503 9.87877C16.3155 9.87877 16.5699 9.7734 16.7574 9.58585L18.1716 8.17167C18.9223 7.42258 19.9395 7.00187 21 7.00184C22.0605 7.00182 23.0778 7.42249 23.8285 8.17155V8.17155Z"/>
</svg>
