<svg viewBox="0 0 32 32" xmlns="http://www.w3.org/2000/svg">
<path d="M19.5354 11.049L11.0502 19.5343C10.8629 19.7219 10.7577 19.9762 10.7578 20.2413C10.7579 20.5064 10.8633 20.7606 11.0507 20.9481C11.2382 21.1355 11.4924 21.2409 11.7575 21.241C12.0226 21.2411 12.2769 21.1359 12.4645 20.9486L20.9497 12.4634C21.0427 12.3705 21.1165 12.2603 21.1668 12.1389C21.2172 12.0175 21.2431 11.8874 21.2432 11.756C21.2432 11.6247 21.2174 11.4945 21.1671 11.3731C21.1169 11.2517 21.0432 11.1414 20.9503 11.0485C20.8574 10.9556 20.747 10.8819 20.6256 10.8317C20.5042 10.7814 20.3741 10.7556 20.2427 10.7556C20.1113 10.7557 19.9813 10.7816 19.8599 10.832C19.7385 10.8823 19.6283 10.9561 19.5354 11.049V11.049Z"/>
<path d="M17.4148 21.6566L13.8792 25.1921C12.9416 26.1298 11.6698 26.6565 10.3438 26.6565C9.01772 26.6565 7.74598 26.1298 6.80832 25.1921C5.87065 24.2544 5.34388 22.9827 5.34388 21.6567C5.34388 20.3306 5.87065 19.0589 6.80832 18.1212L10.3438 14.5857C10.4368 14.4928 10.5106 14.3826 10.5609 14.2612C10.6113 14.1398 10.6372 14.0098 10.6373 13.8784C10.6373 13.747 10.6115 13.6169 10.5612 13.4955C10.511 13.3741 10.4373 13.2638 10.3444 13.1708C10.2514 13.0779 10.1411 13.0042 10.0197 12.954C9.89834 12.9037 9.76823 12.8779 9.63684 12.8779C9.50545 12.878 9.37535 12.9039 9.25399 12.9543C9.13263 13.0046 9.02237 13.0784 8.92953 13.1714L5.39401 16.7069C4.08125 18.0196 3.34375 19.8001 3.34375 21.6567C3.34375 23.5132 4.08125 25.2937 5.39401 26.6064C6.70677 27.9192 8.48726 28.6567 10.3438 28.6567C12.2003 28.6567 13.9808 27.9192 15.2935 26.6064L18.8291 23.0709C19.0166 22.8833 19.122 22.629 19.122 22.3637C19.122 22.0985 19.0166 21.8441 18.8291 21.6566C18.6415 21.469 18.3871 21.3637 18.1219 21.3637C17.8567 21.3637 17.6023 21.469 17.4148 21.6566V21.6566Z"/>
<path d="M26.6025 5.39258C25.2897 4.07987 23.5092 3.34241 21.6527 3.34241C19.7962 3.34241 18.0157 4.07987 16.7029 5.39258L13.1674 8.9281C12.9801 9.11569 12.8749 9.36999 12.875 9.6351C12.8751 9.90021 12.9805 10.1544 13.1679 10.3419C13.3554 10.5293 13.6096 10.6347 13.8747 10.6348C14.1398 10.6349 14.3941 10.5297 14.5817 10.3424L18.1172 6.80688C19.055 5.86971 20.3266 5.34336 21.6524 5.34357C22.9781 5.34378 24.2496 5.87054 25.187 6.808C26.1245 7.74547 26.6513 9.01689 26.6515 10.3427C26.6517 11.6685 26.1253 12.94 25.1881 13.8778L21.6526 17.4133C21.4653 17.6009 21.3601 17.8552 21.3602 18.1203C21.3603 18.3854 21.4657 18.6397 21.6531 18.8271C21.8406 19.0146 22.0948 19.1199 22.3599 19.12C22.625 19.1201 22.8793 19.015 23.0669 18.8276L26.6025 15.2921C27.9132 13.9783 28.6494 12.1982 28.6494 10.3423C28.6494 8.48647 27.9132 6.70638 26.6025 5.39258V5.39258Z"/>
</svg>
