<svg viewBox="0 0 32 32" xmlns="http://www.w3.org/2000/svg">
<path d="M21.9975 14.5001C21.9975 15.9834 21.5577 17.4335 20.7335 18.6668C19.9094 19.9002 18.7381 20.8615 17.3677 21.4292C15.9972 21.9968 14.4892 22.1453 13.0343 21.856C11.5795 21.5666 10.2431 20.8523 9.19423 19.8034C8.14533 18.7545 7.43103 17.4181 7.14164 15.9632C6.85225 14.5084 7.00077 13.0004 7.56843 11.6299C8.13609 10.2595 9.09738 9.08815 10.3307 8.26404C11.5641 7.43993 13.0142 7.00006 14.4975 7.00006C16.486 7.00231 18.3923 7.79321 19.7983 9.19925C21.2044 10.6053 21.9953 12.5116 21.9975 14.5001V14.5001ZM28.7039 28.7073C28.5164 28.8948 28.262 29.0002 27.9968 29.0002C27.7316 29.0002 27.4772 28.8948 27.2896 28.7073L21.8868 23.3044C19.6143 25.2123 16.6931 26.1692 13.7322 25.9757C10.7714 25.7822 7.99953 24.4532 5.9947 22.2658C3.98988 20.0784 2.90686 17.2015 2.97148 14.235C3.03611 11.2686 4.2434 8.44158 6.34159 6.34357C8.43978 4.24557 11.2669 3.03852 14.2333 2.97415C17.1998 2.90978 20.0766 3.99305 22.2638 5.99806C24.451 8.00307 25.7798 10.775 25.9731 13.7359C26.1663 16.6968 25.2091 19.6179 23.3011 21.8902L28.7039 27.2931C28.8915 27.4806 28.9968 27.735 28.9968 28.0002C28.9968 28.2654 28.8915 28.5197 28.7039 28.7073V28.7073ZM14.4975 24.0001C16.3764 24.0001 18.2132 23.4429 19.7754 22.399C21.3377 21.3551 22.5554 19.8715 23.2744 18.1356C23.9934 16.3997 24.1815 14.4895 23.815 12.6467C23.4484 10.8039 22.5436 9.11115 21.215 7.78255C19.8864 6.45395 18.1937 5.54916 16.3509 5.1826C14.5081 4.81604 12.5979 5.00417 10.862 5.72321C9.12614 6.44224 7.64244 7.65988 6.59857 9.22214C5.55469 10.7844 4.99753 12.6211 4.99753 14.5001C5.00038 17.0187 6.00218 19.4334 7.78316 21.2144C9.56414 22.9954 11.9788 23.9972 14.4975 24.0001Z"/>
</svg>
