<svg viewBox="0 0 32 32" xmlns="http://www.w3.org/2000/svg">
<path d="M28.7031 27.2927L23.3003 21.8898C25.2082 19.6176 26.1654 16.6966 25.9722 13.7358C25.7789 10.7751 24.4502 8.00325 22.2631 5.99831C20.0759 3.99338 17.1993 2.91015 14.2329 2.97451C11.2666 3.03888 8.43959 4.24587 6.34148 6.34378C4.24337 8.4417 3.03612 11.2686 2.97149 14.2349C2.90685 17.2012 3.98982 20.078 5.99455 22.2653C7.99928 24.4527 10.771 25.7816 13.7317 25.9752C16.6924 26.1687 19.6136 25.2118 21.886 23.304L27.2888 28.7069C27.4764 28.8944 27.7307 28.9998 27.9959 28.9998C28.2612 28.9998 28.5155 28.8945 28.7031 28.7069C28.8906 28.5194 28.996 28.265 28.996 27.9998C28.996 27.7346 28.8907 27.4802 28.7031 27.2927V27.2927ZM18.4967 15.5H10.4967C10.2315 15.5 9.97715 15.3947 9.78961 15.2071C9.60208 15.0196 9.49672 14.7652 9.49672 14.5C9.49672 14.2348 9.60208 13.9805 9.78961 13.7929C9.97715 13.6054 10.2315 13.5 10.4967 13.5H18.4967C18.7619 13.5 19.0163 13.6054 19.2038 13.7929C19.3914 13.9805 19.4967 14.2348 19.4967 14.5C19.4967 14.7652 19.3914 15.0196 19.2038 15.2071C19.0163 15.3947 18.7619 15.5 18.4967 15.5Z"/>
</svg>
