<svg viewBox="0 0 32 32" xmlns="http://www.w3.org/2000/svg">
<path d="M28.7031 27.2925L23.3003 21.8897C25.2082 19.6175 26.1654 16.6964 25.9721 13.7357C25.7789 10.775 24.4502 8.00311 22.263 5.99818C20.0759 3.99326 17.1992 2.91003 14.2329 2.97439C11.2666 3.03876 8.43958 4.24575 6.34147 6.34366C4.24337 8.44157 3.03612 11.2684 2.97149 14.2348C2.90685 17.2011 3.98982 20.0779 5.99455 22.2652C7.99928 24.4525 10.771 25.7815 13.7317 25.975C16.6924 26.1685 19.6136 25.2116 21.8859 23.3039L27.2888 28.7067C27.3817 28.7996 27.4919 28.8733 27.6132 28.9235C27.7346 28.9738 27.8646 28.9996 27.9959 28.9997C28.1272 28.9997 28.2573 28.9738 28.3786 28.9235C28.4999 28.8733 28.6102 28.7996 28.7031 28.7068C28.7959 28.6139 28.8696 28.5037 28.9198 28.3824C28.9701 28.261 28.996 28.131 28.996 27.9997C28.996 27.8683 28.9701 27.7383 28.9199 27.617C28.8696 27.4956 28.796 27.3854 28.7031 27.2925V27.2925ZM18.4967 15.5H15.4967V18.5C15.4967 18.7652 15.3913 19.0196 15.2038 19.2071C15.0163 19.3946 14.7619 19.5 14.4967 19.5C14.2315 19.5 13.9771 19.3946 13.7896 19.2071C13.6021 19.0196 13.4967 18.7652 13.4967 18.5V15.5H10.4967C10.2315 15.5 9.97713 15.3946 9.78959 15.2071C9.60205 15.0196 9.4967 14.7652 9.4967 14.5C9.4967 14.2348 9.60205 13.9804 9.78959 13.7929C9.97713 13.6054 10.2315 13.5 10.4967 13.5H13.4967V10.5C13.4967 10.2348 13.6021 9.98043 13.7896 9.79289C13.9771 9.60535 14.2315 9.5 14.4967 9.5C14.7619 9.5 15.0163 9.60535 15.2038 9.79289C15.3913 9.98043 15.4967 10.2348 15.4967 10.5V13.5H18.4967C18.7619 13.5 19.0163 13.6054 19.2038 13.7929C19.3913 13.9804 19.4967 14.2348 19.4967 14.5C19.4967 14.7652 19.3913 15.0196 19.2038 15.2071C19.0163 15.3946 18.7619 15.5 18.4967 15.5Z"/>
</svg>
