<svg viewBox="0 0 32 32" xmlns="http://www.w3.org/2000/svg">
<path d="M21 28C21 28.2652 20.8946 28.5196 20.7071 28.7071C20.5196 28.8946 20.2652 29 20 29H12C11.7348 29 11.4804 28.8946 11.2929 28.7071C11.1054 28.5196 11 28.2652 11 28C11 27.7348 11.1054 27.4804 11.2929 27.2929C11.4804 27.1054 11.7348 27 12 27H20C20.2652 27 20.5196 27.1054 20.7071 27.2929C20.8946 27.4804 21 27.7348 21 28V28ZM29 8V22C28.9991 22.7954 28.6827 23.5579 28.1203 24.1203C27.5579 24.6827 26.7954 24.9991 26 25H6C5.20463 24.9991 4.4421 24.6827 3.87968 24.1203C3.31727 23.5579 3.00091 22.7954 3 22V8C3.0009 7.20463 3.31727 6.44209 3.87968 5.87968C4.44209 5.31727 5.20463 5.0009 6 5H26C26.7954 5.0009 27.5579 5.31727 28.1203 5.87968C28.6827 6.44209 28.9991 7.20463 29 8V8ZM20.5 15C20.5 14.8318 20.4576 14.6663 20.3766 14.5188C20.2956 14.3713 20.1788 14.2467 20.0369 14.1563L14.5369 10.6563C14.3857 10.5601 14.2114 10.5063 14.0323 10.5005C13.8532 10.4947 13.6759 10.5372 13.5188 10.6234C13.3617 10.7096 13.2307 10.8365 13.1394 10.9907C13.0481 11.1449 13 11.3208 13 11.5V18.5C13 18.6792 13.0481 18.8551 13.1394 19.0093C13.2307 19.1635 13.3617 19.2904 13.5188 19.3766C13.6759 19.4628 13.8532 19.5053 14.0323 19.4995C14.2114 19.4937 14.3857 19.4399 14.5369 19.3437L20.0369 15.8437C20.1788 15.7533 20.2956 15.6287 20.3766 15.4812C20.4576 15.3337 20.5 15.1682 20.5 15V15Z"/>
</svg>
