<svg   viewBox="0 0 32 32" fill="none" xmlns="http://www.w3.org/2000/svg">
<path d="M18.5 3H13.5C11.379 3.00239 9.34556 3.84602 7.84579 5.34579C6.34602 6.84556 5.50239 8.879 5.5 11V21C5.50239 23.121 6.34602 25.1544 7.84579 26.6542C9.34556 28.154 11.379 28.9976 13.5 29H18.5C20.621 28.9976 22.6544 28.154 24.1542 26.6542C25.654 25.1544 26.4976 23.121 26.5 21V11C26.4976 8.879 25.654 6.84556 24.1542 5.34579C22.6544 3.84602 20.621 3.00239 18.5 3V3ZM24.5 11V13H17V5H18.5C20.0907 5.00181 21.6158 5.63453 22.7406 6.75936C23.8655 7.88418 24.4982 9.40926 24.5 11V11ZM13.5 5H15V13H7.5V11C7.50181 9.40926 8.13453 7.88418 9.25936 6.75936C10.3842 5.63453 11.9093 5.00181 13.5 5V5Z" fill="black"/>
</svg>
