<svg viewBox="0 0 32 32" xmlns="http://www.w3.org/2000/svg">
<path d="M18.5 3H13.5C11.379 3.00238 9.34555 3.846 7.84578 5.34578C6.346 6.84555 5.50238 8.879 5.5 11V21C5.50238 23.121 6.346 25.1544 7.84578 26.6542C9.34555 28.154 11.379 28.9976 13.5 29H18.5C20.621 28.9976 22.6544 28.154 24.1542 26.6542C25.654 25.1544 26.4976 23.121 26.5 21V11C26.4976 8.879 25.654 6.84555 24.1542 5.34578C22.6544 3.846 20.621 3.00238 18.5 3V3ZM17 14C17 14.2652 16.8946 14.5196 16.7071 14.7071C16.5196 14.8946 16.2652 15 16 15C15.7348 15 15.4804 14.8946 15.2929 14.7071C15.1054 14.5196 15 14.2652 15 14V8C15 7.73478 15.1054 7.48043 15.2929 7.29289C15.4804 7.10536 15.7348 7 16 7C16.2652 7 16.5196 7.10536 16.7071 7.29289C16.8946 7.48043 17 7.73478 17 8V14Z"/>
</svg>
