<svg   viewBox="0 0 32 32" fill="none" xmlns="http://www.w3.org/2000/svg">
<path d="M27 16V26C26.9994 26.5302 26.7885 27.0386 26.4135 27.4135C26.0386 27.7885 25.5302 27.9994 25 28H6C5.46975 27.9994 4.9614 27.7885 4.58646 27.4135C4.21151 27.0386 4.00061 26.5302 4 26V7C4.00061 6.46975 4.21151 5.9614 4.58646 5.58646C4.9614 5.21151 5.46975 5.00061 6 5H16C16.2652 5 16.5196 5.10536 16.7071 5.29289C16.8946 5.48043 17 5.73478 17 6C17 6.26522 16.8946 6.51957 16.7071 6.70711C16.5196 6.89464 16.2652 7 16 7H6V26H25V16C25 15.7348 25.1054 15.4804 25.2929 15.2929C25.4804 15.1054 25.7348 15 26 15C26.2652 15 26.5196 15.1054 26.7071 15.2929C26.8946 15.4804 27 15.7348 27 16V16ZM24.5 3C23.61 3 22.74 3.26392 21.9999 3.75839C21.2599 4.25285 20.6831 4.95566 20.3425 5.77792C20.0019 6.60019 19.9128 7.50499 20.0865 8.37791C20.2601 9.25082 20.6887 10.0526 21.318 10.682C21.9474 11.3113 22.7492 11.7399 23.6221 11.9135C24.495 12.0872 25.3998 11.9981 26.2221 11.6575C27.0443 11.3169 27.7471 10.7401 28.2416 10.0001C28.7361 9.26004 29 8.39002 29 7.5C28.9987 6.30694 28.5241 5.16313 27.6805 4.3195C26.8369 3.47588 25.6931 3.00134 24.5 3V3Z" fill="black"/>
</svg>
