<svg viewBox="0 0 32 32" xmlns="http://www.w3.org/2000/svg">
<path d="M27.4841 8.34233L16.9841 2.40758C16.6836 2.23887 16.3447 2.15027 16 2.15027C15.6553 2.15027 15.3164 2.23887 15.0159 2.40758L4.51588 8.34233C4.20777 8.51685 3.95143 8.76993 3.77298 9.07578C3.59452 9.38163 3.50033 9.72931 3.5 10.0834V21.9165C3.50033 22.2706 3.59452 22.6183 3.77298 22.9242C3.95143 23.23 4.20777 23.4831 4.51588 23.6576L15.0159 29.5924C15.3164 29.7611 15.6553 29.8498 16 29.8498C16.3447 29.8498 16.6836 29.7611 16.9841 29.5924L27.4841 23.6576C27.7922 23.4831 28.0486 23.23 28.227 22.9242C28.4055 22.6183 28.4997 22.2706 28.5 21.9165V10.0834C28.4997 9.72931 28.4055 9.38163 28.227 9.07578C28.0486 8.76993 27.7922 8.51685 27.4841 8.34233V8.34233ZM16 20.5C15.11 20.5 14.24 20.2361 13.4999 19.7416C12.7599 19.2471 12.1831 18.5443 11.8425 17.7221C11.502 16.8998 11.4128 15.995 11.5865 15.1221C11.7601 14.2492 12.1887 13.4473 12.818 12.818C13.4474 12.1887 14.2492 11.7601 15.1221 11.5864C15.995 11.4128 16.8998 11.5019 17.7221 11.8425C18.5443 12.1831 19.2471 12.7599 19.7416 13.4999C20.2361 14.2399 20.5 15.11 20.5 16C20.4987 17.193 20.0241 18.3369 19.1805 19.1805C18.3369 20.0241 17.1931 20.4986 16 20.5V20.5Z"/>
</svg>
