<svg viewBox="0 0 32 32" xmlns="http://www.w3.org/2000/svg">
<path d="M16 3C13.4288 3 10.9154 3.76244 8.77759 5.19089C6.63975 6.61935 4.97351 8.64968 3.98957 11.0251C3.00563 13.4006 2.74819 16.0144 3.2498 18.5362C3.75141 21.0579 4.98953 23.3743 6.80762 25.1924C8.6257 27.0105 10.9421 28.2486 13.4638 28.7502C15.9856 29.2518 18.5995 28.9944 20.9749 28.0104C23.3503 27.0265 25.3807 25.3603 26.8091 23.2224C28.2376 21.0846 29 18.5712 29 16C28.9961 12.5534 27.6252 9.24905 25.1881 6.81192C22.751 4.37479 19.4466 3.0039 16 3V3ZM14.999 7.00037C14.999 6.73515 15.1044 6.4808 15.2919 6.29326C15.4795 6.10572 15.7338 6.00037 15.999 6.00037C16.2642 6.00037 16.5186 6.10572 16.7061 6.29326C16.8937 6.4808 16.999 6.73515 16.999 7.00037V14.5004C16.999 14.7656 16.8937 15.0199 16.7061 15.2075C16.5186 15.395 16.2642 15.5004 15.999 15.5004C15.7338 15.5004 15.4795 15.395 15.2919 15.2075C15.1044 15.0199 14.999 14.7656 14.999 14.5004V7.00037ZM16 26C13.8551 26.0005 11.7669 25.3111 10.0438 24.0337C8.3207 22.7563 7.05411 20.9587 6.43107 18.9062C5.80803 16.8538 5.86159 14.6554 6.58382 12.6357C7.30605 10.616 8.65867 8.88215 10.4419 7.69018C10.5509 7.61672 10.6734 7.56548 10.8023 7.53941C10.9312 7.51333 11.0639 7.51292 11.1929 7.53821C11.322 7.5635 11.4448 7.61398 11.5543 7.68678C11.6638 7.75958 11.7578 7.85325 11.8311 7.96244C11.9043 8.07163 11.9553 8.1942 11.9811 8.32312C12.007 8.45205 12.0071 8.5848 11.9816 8.71379C11.956 8.84277 11.9053 8.96545 11.8323 9.0748C11.7593 9.18415 11.6654 9.27804 11.5561 9.35107C10.1288 10.3045 9.0461 11.6918 8.4678 13.3078C7.8895 14.9239 7.8463 16.6831 8.34459 18.3257C8.84288 19.9682 9.85624 21.4069 11.235 22.4292C12.6137 23.4516 14.2847 24.0034 16.0011 24.0032C17.7176 24.003 19.3884 23.4507 20.7669 22.4279C22.1453 21.4052 23.1583 19.9662 23.6561 18.3236C24.154 16.6809 24.1103 14.9217 23.5315 13.3058C22.9528 11.6899 21.8697 10.3029 20.4421 9.34985C20.2219 9.20216 20.0693 8.973 20.0179 8.7128C19.9666 8.4526 20.0207 8.18266 20.1684 7.96237C20.3161 7.74208 20.5453 7.58949 20.8055 7.53816C21.0657 7.48683 21.3356 7.54096 21.5559 7.68866C23.3396 8.88029 24.6928 10.614 25.4155 12.6338C26.1382 14.6535 26.1922 16.8522 25.5693 18.9049C24.9465 20.9577 23.6799 22.7557 21.9568 24.0333C20.2336 25.3109 18.1452 26.0005 16 26V26Z"/>
</svg>
