<svg   viewBox="0 0 32 32" fill="none" xmlns="http://www.w3.org/2000/svg">
<path d="M17.7072 16.707L12.4586 21.957C12.3188 22.0969 12.1406 22.1922 11.9466 22.2308C11.7526 22.2694 11.5515 22.2496 11.3688 22.1739C11.186 22.0983 11.0298 21.9701 10.9199 21.8056C10.81 21.6412 10.7513 21.4478 10.7513 21.25V17H3C2.73478 17 2.48043 16.8946 2.29289 16.7071C2.10536 16.5196 2 16.2652 2 16C2 15.7348 2.10536 15.4804 2.29289 15.2929C2.48043 15.1054 2.73478 15 3 15H10.7513V10.75C10.7513 10.5522 10.81 10.3588 10.9199 10.1944C11.0298 10.0299 11.186 9.90174 11.3688 9.82605C11.5515 9.75037 11.7526 9.73058 11.9466 9.7692C12.1406 9.80781 12.3188 9.90308 12.4586 10.043L17.7072 15.293C17.8947 15.4805 18 15.7348 18 16C18 16.2652 17.8947 16.5195 17.7072 16.707V16.707ZM24 4H17C16.7348 4 16.4804 4.10536 16.2929 4.29289C16.1054 4.48043 16 4.73478 16 5C16 5.26522 16.1054 5.51957 16.2929 5.70711C16.4804 5.89464 16.7348 6 17 6H24V26H17C16.7348 26 16.4804 26.1054 16.2929 26.2929C16.1054 26.4804 16 26.7348 16 27C16 27.2652 16.1054 27.5196 16.2929 27.7071C16.4804 27.8946 16.7348 28 17 28H24C24.5302 27.9994 25.0386 27.7885 25.4135 27.4135C25.7885 27.0386 25.9994 26.5302 26 26V6C25.9994 5.46975 25.7885 4.9614 25.4135 4.58646C25.0386 4.21151 24.5302 4.00061 24 4Z" fill="black"/>
</svg>
