<svg   viewBox="0 0 32 32" fill="none" xmlns="http://www.w3.org/2000/svg">
<path d="M27.7072 16.707L22.4586 21.957C22.3188 22.0969 22.1406 22.1922 21.9466 22.2308C21.7526 22.2694 21.5515 22.2496 21.3688 22.1739C21.186 22.0983 21.0298 21.9701 20.9199 21.8056C20.81 21.6412 20.7513 21.4478 20.7513 21.25V17H13C12.7348 17 12.4804 16.8946 12.2929 16.7071C12.1054 16.5196 12 16.2652 12 16C12 15.7348 12.1054 15.4804 12.2929 15.2929C12.4804 15.1054 12.7348 15 13 15H20.7513V10.75C20.7513 10.5522 20.81 10.3588 20.9199 10.1944C21.0298 10.0299 21.186 9.90174 21.3688 9.82605C21.5515 9.75037 21.7526 9.73058 21.9466 9.7692C22.1406 9.80781 22.3188 9.90308 22.4586 10.043L27.7072 15.293C27.8947 15.4805 28 15.7348 28 16C28 16.2652 27.8947 16.5195 27.7072 16.707V16.707ZM13 26H6V6H13C13.2652 6 13.5196 5.89464 13.7071 5.70711C13.8946 5.51957 14 5.26522 14 5C14 4.73478 13.8946 4.48043 13.7071 4.29289C13.5196 4.10536 13.2652 4 13 4H6C5.46975 4.00061 4.9614 4.21151 4.58646 4.58646C4.21151 4.9614 4.00061 5.46975 4 6V26C4.00061 26.5302 4.21151 27.0386 4.58646 27.4135C4.9614 27.7885 5.46975 27.9994 6 28H13C13.2652 28 13.5196 27.8946 13.7071 27.7071C13.8946 27.5196 14 27.2652 14 27C14 26.7348 13.8946 26.4804 13.7071 26.2929C13.5196 26.1054 13.2652 26 13 26Z" fill="black"/>
</svg>
