<svg   viewBox="0 0 32 32" fill="none" xmlns="http://www.w3.org/2000/svg">
<path d="M17 4V8C17 8.26522 16.8946 8.51957 16.7071 8.70711C16.5196 8.89464 16.2652 9 16 9C15.7348 9 15.4804 8.89464 15.2929 8.70711C15.1054 8.51957 15 8.26522 15 8V4C15 3.73478 15.1054 3.48043 15.2929 3.29289C15.4804 3.10536 15.7348 3 16 3C16.2652 3 16.5196 3.10536 16.7071 3.29289C16.8946 3.48043 17 3.73478 17 4V4ZM28 15H24C23.7348 15 23.4804 15.1054 23.2929 15.2929C23.1054 15.4804 23 15.7348 23 16C23 16.2652 23.1054 16.5196 23.2929 16.7071C23.4804 16.8946 23.7348 17 24 17H28C28.2652 17 28.5196 16.8946 28.7071 16.7071C28.8946 16.5196 29 16.2652 29 16C29 15.7348 28.8946 15.4804 28.7071 15.2929C28.5196 15.1054 28.2652 15 28 15ZM22.364 20.9497C22.1765 20.7622 21.9221 20.6568 21.6569 20.6568C21.3916 20.6568 21.1373 20.7622 20.9497 20.9497C20.7622 21.1373 20.6568 21.3916 20.6568 21.6569C20.6568 21.9221 20.7622 22.1765 20.9497 22.364L23.7781 25.1924C23.9656 25.3799 24.22 25.4853 24.4852 25.4853C24.7505 25.4853 25.0048 25.3799 25.1924 25.1924C25.3799 25.0048 25.4853 24.7505 25.4853 24.4852C25.4853 24.22 25.3799 23.9656 25.1924 23.7781L22.364 20.9497ZM16 23C15.7348 23 15.4804 23.1054 15.2929 23.2929C15.1054 23.4804 15 23.7348 15 24V28C15 28.2652 15.1054 28.5196 15.2929 28.7071C15.4804 28.8946 15.7348 29 16 29C16.2652 29 16.5196 28.8946 16.7071 28.7071C16.8946 28.5196 17 28.2652 17 28V24C17 23.7348 16.8946 23.4804 16.7071 23.2929C16.5196 23.1054 16.2652 23 16 23V23ZM9.63599 20.9497L6.80762 23.7781C6.62007 23.9656 6.51471 24.22 6.51471 24.4852C6.51471 24.7505 6.62007 25.0048 6.80762 25.1924C6.99517 25.3799 7.24954 25.4853 7.51477 25.4853C7.78 25.4853 8.03438 25.3799 8.22192 25.1924L11.0503 22.364C11.2378 22.1765 11.3432 21.9221 11.3432 21.6569C11.3432 21.3916 11.2378 21.1373 11.0503 20.9497C10.8627 20.7622 10.6084 20.6568 10.3431 20.6568C10.0779 20.6568 9.82353 20.7622 9.63599 20.9497V20.9497ZM9 16C8.99999 15.7348 8.89463 15.4804 8.70709 15.2929C8.51956 15.1054 8.26521 15 8 15H4C3.73478 15 3.48043 15.1054 3.29289 15.2929C3.10536 15.4804 3 15.7348 3 16C3 16.2652 3.10536 16.5196 3.29289 16.7071C3.48043 16.8946 3.73478 17 4 17H8C8.26521 17 8.51956 16.8946 8.70709 16.7071C8.89463 16.5196 8.99999 16.2652 9 16ZM8.22192 6.80762C8.03438 6.62007 7.78 6.51471 7.51477 6.51471C7.24954 6.51471 6.99517 6.62007 6.80762 6.80762C6.62007 6.99517 6.51471 7.24954 6.51471 7.51477C6.51471 7.78 6.62007 8.03438 6.80762 8.22192L9.63599 11.0503C9.82366 11.2373 10.0778 11.3422 10.3428 11.3419C10.6077 11.3417 10.8617 11.2363 11.049 11.049C11.2363 10.8617 11.3417 10.6077 11.3419 10.3428C11.3422 10.0778 11.2373 9.82365 11.0503 9.63599L8.22192 6.80762Z" fill="black"/>
</svg>
