<svg viewBox="0 0 32 32" xmlns="http://www.w3.org/2000/svg">
<path d="M28 5.99915V18.9991C27.9994 19.5294 27.7885 20.0377 27.4135 20.4127C27.0386 20.7876 26.5302 20.9985 26 20.9991H14V23C14 23.1978 13.9413 23.3911 13.8315 23.5556C13.7216 23.72 13.5654 23.8482 13.3827 23.9239C13.2 23.9996 12.9989 24.0194 12.8049 23.9808C12.611 23.9422 12.4328 23.847 12.2929 23.7072L9.29291 20.7072C9.22567 20.6397 9.16842 20.563 9.12289 20.4794C9.12212 20.478 9.12118 20.4767 9.12042 20.4752C9.10745 20.4512 9.09598 20.4267 9.0851 20.4019C9.08273 20.3965 9.07996 20.3914 9.0777 20.386C9.06834 20.3636 9.06046 20.3408 9.0528 20.3179C9.04996 20.3095 9.04661 20.3013 9.04399 20.2928C9.03735 20.271 9.0322 20.249 9.02707 20.227C9.02474 20.2169 9.02179 20.2071 9.01974 20.197C9.01498 20.1732 9.01181 20.1492 9.00879 20.1252C9.00769 20.1165 9.00591 20.108 9.00507 20.0993C9.00177 20.0661 9 20.0327 9.00002 19.9994L9 19.9991C9 19.996 9.00043 19.993 9.00046 19.9899C9.00076 19.9604 9.00204 19.931 9.00493 19.9016C9.00684 19.8819 9.0103 19.8627 9.01334 19.8434C9.01532 19.8309 9.0166 19.8183 9.01904 19.8059C9.0235 19.7832 9.02942 19.7611 9.03537 19.739C9.03781 19.73 9.03964 19.7209 9.04233 19.712C9.04932 19.6887 9.0577 19.666 9.06631 19.6434C9.06923 19.6358 9.07163 19.628 9.07474 19.6204C9.08441 19.5968 9.09543 19.574 9.10681 19.5513C9.10997 19.545 9.11267 19.5385 9.11597 19.5323C9.12952 19.5067 9.14435 19.482 9.15999 19.4578C9.16193 19.4548 9.16354 19.4517 9.16553 19.4487C9.20497 19.3891 9.25067 19.3338 9.30185 19.2839L12.2929 16.2928C12.4328 16.153 12.611 16.0578 12.8049 16.0192C12.9989 15.9807 13.2 16.0005 13.3827 16.0762C13.5654 16.1519 13.7216 16.28 13.8314 16.4445C13.9413 16.6089 14 16.8022 14 17V18.9991H26V5.99915H12V6.99915C12 7.26436 11.8946 7.51872 11.7071 7.70625C11.5196 7.89379 11.2652 7.99915 11 7.99915C10.7348 7.99915 10.4804 7.89379 10.2929 7.70625C10.1054 7.51872 10 7.26436 10 6.99915V5.99915C10.0006 5.4689 10.2115 4.96054 10.5865 4.5856C10.9614 4.21066 11.4698 3.99975 12 3.99915H26C26.5302 3.99975 27.0386 4.21066 27.4135 4.5856C27.7885 4.96054 27.9994 5.4689 28 5.99915ZM21 24C20.7348 24 20.4804 24.1054 20.2929 24.2929C20.1054 24.4804 20 24.7348 20 25V26H6V13H18V14.9991C18 15.1969 18.0587 15.3903 18.1685 15.5547C18.2784 15.7192 18.4346 15.8473 18.6173 15.923C18.8 15.9987 19.0011 16.0185 19.1951 15.9799C19.389 15.9414 19.5672 15.8461 19.7071 15.7063L22.6982 12.7152C22.7493 12.6653 22.795 12.6101 22.8345 12.5504C22.8365 12.5475 22.8381 12.5443 22.84 12.5413C22.8557 12.5171 22.8705 12.4924 22.884 12.4668C22.8873 12.4606 22.89 12.4541 22.8932 12.4477C22.9046 12.4251 22.9156 12.4023 22.9252 12.3788C22.9284 12.3711 22.9308 12.3631 22.9338 12.3553C22.9424 12.3329 22.9507 12.3104 22.9577 12.2872C22.9604 12.2782 22.9622 12.2691 22.9646 12.2601C22.9706 12.238 22.9765 12.2159 22.981 12.1933C22.9834 12.1808 22.9847 12.1683 22.9867 12.1558C22.9897 12.1364 22.9932 12.1172 22.9951 12.0975C22.998 12.0682 22.9992 12.0387 22.9995 12.0093C22.9996 12.0061 23 12.0031 23 12L23 11.9997C23 11.9664 22.9982 11.9331 22.9949 11.8999C22.9941 11.8911 22.9923 11.8827 22.9912 11.874C22.9882 11.85 22.985 11.826 22.9803 11.8022C22.9782 11.792 22.9753 11.7822 22.9729 11.7722C22.9678 11.7501 22.9626 11.7281 22.956 11.7064C22.9534 11.6979 22.9501 11.6898 22.9473 11.6814C22.9396 11.6584 22.9317 11.6356 22.9223 11.6131C22.92 11.6078 22.9174 11.6028 22.915 11.5976C22.9041 11.5727 22.8926 11.548 22.8796 11.5239C22.8788 11.5225 22.8779 11.5211 22.8771 11.5197C22.8316 11.4361 22.7743 11.3594 22.7071 11.292L19.7071 8.292C19.5672 8.15217 19.389 8.05695 19.1951 8.01839C19.0011 7.97982 18.8 7.99963 18.6173 8.07532C18.4346 8.15101 18.2784 8.27918 18.1686 8.44361C18.0587 8.60805 18 8.80137 18 8.99915V11H6C5.46975 11.0006 4.9614 11.2115 4.58646 11.5865C4.21151 11.9614 4.00061 12.4698 4 13V26C4.00061 26.5302 4.21151 27.0386 4.58646 27.4135C4.9614 27.7885 5.46975 27.9994 6 28H20C20.5302 27.9994 21.0386 27.7885 21.4135 27.4135C21.7885 27.0386 21.9994 26.5302 22 26V25C22 24.7348 21.8946 24.4804 21.7071 24.2929C21.5196 24.1054 21.2652 24 21 24Z"/>
</svg>
