<svg   viewBox="0 0 32 32" fill="none" xmlns="http://www.w3.org/2000/svg">
<path d="M27 7.99994H18.4143L22.7072 3.7071C22.8947 3.51955 23.0001 3.26518 23.0001 2.99994C23.0001 2.73471 22.8947 2.48034 22.7072 2.29279C22.5196 2.10524 22.2652 1.99988 22 1.99988C21.7348 1.99988 21.4804 2.10524 21.2928 2.29279L16 7.58576L10.7072 2.29279C10.5196 2.10524 10.2652 1.99988 10 1.99988C9.73477 1.99988 9.4804 2.10524 9.29285 2.29279C9.1053 2.48034 8.99993 2.73471 8.99993 2.99994C8.99993 3.26518 9.1053 3.51955 9.29285 3.7071L13.5857 7.99994H5C4.46975 8.00055 3.9614 8.21146 3.58646 8.5864C3.21151 8.96134 3.00061 9.4697 3 9.99994V24.9999C3.00061 25.5302 3.21151 26.0385 3.58646 26.4135C3.9614 26.7884 4.46975 26.9993 5 26.9999H27C27.5302 26.9993 28.0386 26.7884 28.4135 26.4135C28.7885 26.0385 28.9994 25.5302 29 24.9999V9.99994C28.9994 9.4697 28.7885 8.96134 28.4135 8.5864C28.0386 8.21146 27.5302 8.00055 27 7.99994V7.99994ZM27 24.9999H20V9.99994H27L27.0012 24.9999H27ZM25 14.4999C25 14.7966 24.912 15.0866 24.7472 15.3333C24.5824 15.58 24.3481 15.7722 24.074 15.8858C23.7999 15.9993 23.4983 16.029 23.2074 15.9711C22.9164 15.9132 22.6491 15.7704 22.4393 15.5606C22.2296 15.3508 22.0867 15.0836 22.0288 14.7926C21.9709 14.5016 22.0007 14.2 22.1142 13.9259C22.2277 13.6518 22.42 13.4176 22.6666 13.2527C22.9133 13.0879 23.2033 12.9999 23.5 12.9999C23.8978 12.9999 24.2794 13.158 24.5607 13.4393C24.842 13.7206 25 14.1021 25 14.4999V14.4999ZM25 20.4999C25 20.7966 24.912 21.0866 24.7472 21.3333C24.5824 21.58 24.3481 21.7722 24.074 21.8858C23.7999 21.9993 23.4983 22.029 23.2074 21.9711C22.9164 21.9132 22.6491 21.7704 22.4393 21.5606C22.2296 21.3508 22.0867 21.0836 22.0288 20.7926C21.9709 20.5016 22.0007 20.2 22.1142 19.9259C22.2277 19.6518 22.42 19.4176 22.6666 19.2527C22.9133 19.0879 23.2033 18.9999 23.5 18.9999C23.8978 18.9999 24.2794 19.158 24.5607 19.4393C24.842 19.7206 25 20.1021 25 20.4999V20.4999Z" fill="black"/>
</svg>
