<svg viewBox="0 0 32 32" xmlns="http://www.w3.org/2000/svg">
<path d="M29 9.99994V24.9999C28.9994 25.5302 28.7885 26.0385 28.4135 26.4135C28.0386 26.7884 27.5302 26.9993 27 26.9999H5C4.46975 26.9993 3.9614 26.7884 3.58646 26.4135C3.21151 26.0385 3.00061 25.5302 3 24.9999V9.99994C3.00061 9.4697 3.21151 8.96134 3.58646 8.5864C3.9614 8.21146 4.46975 8.00055 5 7.99994H13.5857L9.29285 3.7071C9.1053 3.51955 8.99993 3.26518 8.99993 2.99994C8.99993 2.73471 9.1053 2.48034 9.29285 2.29279C9.4804 2.10524 9.73477 1.99988 10 1.99988C10.2652 1.99988 10.5196 2.10524 10.7072 2.29279L16 7.58576L21.2928 2.29279C21.4804 2.10524 21.7348 1.99988 22 1.99988C22.2652 1.99988 22.5196 2.10524 22.7072 2.29279C22.8947 2.48034 23.0001 2.73471 23.0001 2.99994C23.0001 3.26518 22.8947 3.51955 22.7072 3.7071L18.4143 7.99994H27C27.5302 8.00055 28.0386 8.21146 28.4135 8.5864C28.7885 8.96134 28.9994 9.4697 29 9.99994Z"/>
</svg>
