<svg viewBox="0 0 32 32" xmlns="http://www.w3.org/2000/svg">
<path d="M22 7H10C7.61305 7 5.32387 7.94821 3.63604 9.63604C1.94821 11.3239 1 13.6131 1 16C1 18.3869 1.94821 20.6761 3.63604 22.364C5.32387 24.0518 7.61305 25 10 25H22C24.3869 25 26.6761 24.0518 28.364 22.364C30.0518 20.6761 31 18.3869 31 16C31 13.6131 30.0518 11.3239 28.364 9.63604C26.6761 7.94821 24.3869 7 22 7V7ZM10 21C9.01109 21 8.04439 20.7068 7.22215 20.1573C6.3999 19.6079 5.75904 18.827 5.3806 17.9134C5.00216 16.9998 4.90315 15.9945 5.09607 15.0245C5.289 14.0546 5.7652 13.1637 6.46447 12.4645C7.16373 11.7652 8.05464 11.289 9.02455 11.0961C9.99445 10.9031 10.9998 11.0022 11.9134 11.3806C12.827 11.759 13.6079 12.3999 14.1573 13.2221C14.7068 14.0444 15 15.0111 15 16C14.9985 17.3256 14.4712 18.5965 13.5339 19.5339C12.5965 20.4712 11.3256 20.9985 10 21Z"/>
</svg>
