<svg viewBox="0 0 32 32" xmlns="http://www.w3.org/2000/svg">
<path d="M10.7066 9.70715L14.9995 5.41419V16C14.9995 16.2652 15.1049 16.5196 15.2924 16.7071C15.4799 16.8946 15.7343 17 15.9995 17C16.2647 17 16.5191 16.8946 16.7066 16.7071C16.8941 16.5196 16.9995 16.2652 16.9995 16V5.41419L21.2924 9.70715C21.48 9.89469 21.7343 10 21.9995 10C22.2648 10 22.5191 9.89464 22.7067 9.70709C22.8942 9.51954 22.9995 9.26518 22.9995 8.99996C22.9995 8.73473 22.8941 8.48038 22.7066 8.29285L16.7066 2.29285C16.7037 2.29004 16.7006 2.28766 16.6977 2.28485C16.6771 2.26471 16.6558 2.24511 16.6335 2.22674C16.6215 2.21691 16.6088 2.20831 16.5964 2.19909C16.5826 2.18878 16.5691 2.17809 16.5548 2.16845C16.5406 2.15893 16.5258 2.15069 16.5112 2.14196C16.4977 2.13391 16.4846 2.12548 16.4708 2.1181C16.4563 2.11035 16.4413 2.10382 16.4266 2.0968C16.4117 2.08978 16.3971 2.08239 16.3819 2.07605C16.3679 2.07031 16.3537 2.06567 16.3395 2.0606C16.3229 2.05456 16.3064 2.04815 16.2893 2.04303C16.2757 2.03888 16.2618 2.03595 16.248 2.0324C16.2302 2.02782 16.2126 2.02288 16.1943 2.01928C16.1792 2.01628 16.1639 2.01458 16.1487 2.01232C16.1316 2.00975 16.1148 2.00664 16.0975 2.00493C16.0723 2.00249 16.0469 2.00164 16.0216 2.00109C16.0142 2.00098 16.0069 2 15.9995 2C15.9921 2 15.9848 2.00098 15.9774 2.0011C15.9521 2.00165 15.9267 2.0025 15.9015 2.00494C15.8842 2.00665 15.8674 2.00977 15.8503 2.01233C15.8351 2.01459 15.8198 2.0163 15.8047 2.01929C15.7864 2.02289 15.7688 2.02783 15.751 2.03241C15.7372 2.03595 15.7233 2.03888 15.7097 2.04304C15.6926 2.04816 15.6761 2.05457 15.6595 2.06062C15.6453 2.06568 15.6311 2.07032 15.6171 2.07606C15.6019 2.0824 15.5873 2.08979 15.5724 2.09681C15.5577 2.10383 15.5427 2.11036 15.5283 2.11811C15.5144 2.12549 15.5013 2.13392 15.4878 2.14197C15.4733 2.1507 15.4584 2.15894 15.4442 2.16846C15.4299 2.17811 15.4164 2.18879 15.4026 2.1991C15.3903 2.20832 15.3776 2.21693 15.3655 2.22675C15.3436 2.24482 15.3227 2.26404 15.3024 2.28388C15.2991 2.28699 15.2956 2.28967 15.2924 2.29285L9.29241 8.29285C9.10509 8.48043 8.99991 8.73471 9 8.99981C9.00009 9.2649 9.10543 9.51911 9.29287 9.70657C9.48031 9.89403 9.73452 9.9994 9.99961 9.9995C10.2647 9.99961 10.519 9.89446 10.7066 9.70715V9.70715Z"/>
<path d="M28 15H19V16C19 16.7956 18.6839 17.5587 18.1213 18.1213C17.5587 18.6839 16.7956 19 16 19C15.2044 19 14.4413 18.6839 13.8787 18.1213C13.3161 17.5587 13 16.7956 13 16V15H4C3.46975 15.0006 2.9614 15.2115 2.58646 15.5865C2.21151 15.9614 2.00061 16.4698 2 17V25C2.00061 25.5302 2.21151 26.0386 2.58646 26.4135C2.9614 26.7885 3.46975 26.9994 4 27H28C28.5302 26.9994 29.0386 26.7885 29.4135 26.4135C29.7885 26.0386 29.9994 25.5302 30 25V17C29.9994 16.4698 29.7885 15.9614 29.4135 15.5865C29.0386 15.2115 28.5302 15.0006 28 15V15ZM23.5001 22.5C23.2034 22.5 22.9134 22.412 22.6667 22.2472C22.42 22.0824 22.2278 21.8481 22.1142 21.574C22.0007 21.2999 21.971 20.9983 22.0289 20.7074C22.0868 20.4164 22.2296 20.1491 22.4394 19.9393C22.6492 19.7296 22.9165 19.5867 23.2074 19.5288C23.4984 19.4709 23.8 19.5007 24.0741 19.6142C24.3482 19.7277 24.5824 19.92 24.7473 20.1666C24.9121 20.4133 25.0001 20.7033 25.0001 21C25.0001 21.3978 24.842 21.7794 24.5607 22.0607C24.2794 22.342 23.8979 22.5 23.5001 22.5Z"/>
</svg>
