<svg   viewBox="0 0 32 32" fill="none" xmlns="http://www.w3.org/2000/svg">
<path d="M9.82611 10.6312C9.75043 10.4484 9.73064 10.2474 9.76924 10.0534C9.80784 9.85944 9.9031 9.68127 10.043 9.54144L15.293 4.29279C15.4805 4.10531 15.7348 4 16 4C16.2652 4 16.5195 4.10531 16.707 4.29279L21.957 9.54144C22.0969 9.68129 22.1922 9.85947 22.2307 10.0535C22.2693 10.2474 22.2496 10.4485 22.1739 10.6312C22.0982 10.814 21.97 10.9702 21.8056 11.08C21.6411 11.1899 21.4478 11.2486 21.25 11.2486H17V18.9999C17 19.2652 16.8946 19.5195 16.7071 19.7071C16.5196 19.8946 16.2652 19.9999 16 19.9999C15.7348 19.9999 15.4804 19.8946 15.2929 19.7071C15.1054 19.5195 15 19.2652 15 18.9999V11.2486H10.75C10.5522 11.2486 10.3588 11.19 10.1944 11.08C10.0299 10.9701 9.90177 10.8139 9.82611 10.6312V10.6312ZM27 17.9999C26.7348 18 26.4804 18.1053 26.2929 18.2929C26.1054 18.4804 26 18.7347 26 18.9999V25.9999H6V18.9999C6 18.7347 5.89464 18.4804 5.70711 18.2928C5.51957 18.1053 5.26522 17.9999 5 17.9999C4.73478 17.9999 4.48043 18.1053 4.29289 18.2928C4.10536 18.4804 4 18.7347 4 18.9999V25.9999C4.00061 26.5302 4.21151 27.0385 4.58646 27.4135C4.9614 27.7884 5.46975 27.9993 6 27.9999H26C26.5302 27.9993 27.0386 27.7884 27.4135 27.4135C27.7885 27.0385 27.9994 26.5302 28 25.9999V18.9999C28 18.7347 27.8946 18.4804 27.7071 18.2929C27.5196 18.1053 27.2652 18 27 17.9999V17.9999Z" fill="black"/>
</svg>
