<svg viewBox="0 0 32 32" xmlns="http://www.w3.org/2000/svg">
<path d="M20 4H12C10.3431 4 9 5.34315 9 7V25C9 26.6569 10.3431 28 12 28H20C21.6569 28 23 26.6569 23 25V7C23 5.34315 21.6569 4 20 4Z"/>
<path d="M26 10C25.7348 10 25.4804 10.1054 25.2929 10.2929C25.1054 10.4804 25 10.7348 25 11V21C25 21.2652 25.1054 21.5196 25.2929 21.7071C25.4804 21.8946 25.7348 22 26 22C26.2652 22 26.5196 21.8946 26.7071 21.7071C26.8946 21.5196 27 21.2652 27 21V11C27 10.7348 26.8946 10.4804 26.7071 10.2929C26.5196 10.1054 26.2652 10 26 10V10Z"/>
<path d="M30 12C29.7348 12 29.4804 12.1054 29.2929 12.2929C29.1054 12.4804 29 12.7348 29 13V19C29 19.2652 29.1054 19.5196 29.2929 19.7071C29.4804 19.8946 29.7348 20 30 20C30.2652 20 30.5196 19.8946 30.7071 19.7071C30.8946 19.5196 31 19.2652 31 19V13C31 12.7348 30.8946 12.4804 30.7071 12.2929C30.5196 12.1054 30.2652 12 30 12V12Z"/>
<path d="M6 10C5.73479 10 5.48044 10.1054 5.29291 10.2929C5.10537 10.4804 5.00001 10.7348 5 11V21C5 21.2652 5.10536 21.5196 5.29289 21.7071C5.48043 21.8946 5.73478 22 6 22C6.26522 22 6.51957 21.8946 6.70711 21.7071C6.89464 21.5196 7 21.2652 7 21V11C6.99999 10.7348 6.89463 10.4804 6.70709 10.2929C6.51956 10.1054 6.26521 10 6 10Z"/>
<path d="M2 12C1.73479 12 1.48044 12.1054 1.29291 12.2929C1.10537 12.4804 1.00001 12.7348 1 13V19C1 19.2652 1.10536 19.5196 1.29289 19.7071C1.48043 19.8946 1.73478 20 2 20C2.26522 20 2.51957 19.8946 2.70711 19.7071C2.89464 19.5196 3 19.2652 3 19V13C2.99999 12.7348 2.89463 12.4804 2.70709 12.2929C2.51956 12.1054 2.26521 12 2 12V12Z"/>
</svg>
