<svg viewBox="0 0 32 32" xmlns="http://www.w3.org/2000/svg">
<path d="M30.8524 10.0621C30.8237 9.79265 30.7397 9.53198 30.6057 9.29643C30.4717 9.06087 30.2905 8.85549 30.0735 8.69312C21.7857 2.43872 10.209 2.43872 1.92101 8.69312L1.92095 8.69318C1.70453 8.85542 1.52389 9.06056 1.39032 9.29576C1.25675 9.53097 1.17311 9.79119 1.14465 10.0602C1.11494 10.3344 1.1413 10.6118 1.22211 10.8756C1.30292 11.1393 1.4365 11.3838 1.61474 11.5944L14.4723 26.7482C14.6139 26.9153 14.7817 27.0582 14.9692 27.1714C15.2807 27.3594 15.6375 27.4588 16.0013 27.4587H16.0014C16.5088 27.4589 16.997 27.2644 17.3651 26.9152C17.4179 26.8652 17.4679 26.8124 17.5149 26.757L30.3838 11.5896C30.5614 11.38 30.6945 11.1366 30.775 10.874C30.8556 10.6114 30.8819 10.3352 30.8524 10.0621V10.0621ZM28.8588 10.2957L22.9709 17.2352C20.9362 15.7814 18.498 14.9999 15.9973 14.9999C13.4966 14.9999 11.0584 15.7814 9.02365 17.2351L3.13983 10.3005C3.13576 10.2961 3.13316 10.2905 3.13238 10.2845C10.7105 4.57056 21.2926 4.57214 28.8645 10.2821C28.8646 10.2846 28.8642 10.2872 28.8632 10.2895C28.8622 10.2919 28.8607 10.294 28.8588 10.2957V10.2957Z"/>
</svg>
