<svg   viewBox="0 0 32 32" fill="none" xmlns="http://www.w3.org/2000/svg">
<path d="M6.73283 4.32727C6.64448 4.23004 6.53785 4.15116 6.41902 4.09514C6.3002 4.03913 6.1715 4.00706 6.04028 4.00078C5.90906 3.9945 5.77789 4.01412 5.65426 4.05853C5.53062 4.10295 5.41694 4.17127 5.31972 4.25962C5.12336 4.43804 5.00592 4.68715 4.99323 4.95216C4.98054 5.21717 5.07365 5.47637 5.25207 5.67273L5.83119 6.30935C4.4498 6.97283 3.13759 7.77161 1.9138 8.69397C1.69724 8.85615 1.51646 9.06126 1.38277 9.29649C1.24908 9.53171 1.16536 9.79199 1.13684 10.061C1.10712 10.3353 1.1335 10.6127 1.21438 10.8764C1.29525 11.1401 1.42893 11.3847 1.60728 11.5951L14.4726 26.7491C14.6607 26.9715 14.895 27.1503 15.1593 27.273C15.4236 27.3957 15.7114 27.4594 16.0027 27.4595C16.291 27.4596 16.5757 27.3969 16.8373 27.2757C17.0988 27.1545 17.3307 26.9778 17.517 26.7578L20.8552 22.8258L25.2642 27.6728C25.4428 27.8685 25.6917 27.9855 25.9564 27.9979C26.2211 28.0103 26.4799 27.9172 26.6761 27.739C26.8722 27.5608 26.9896 27.3121 27.0025 27.0474C27.0154 26.7827 26.9228 26.5238 26.745 26.3273L6.73283 4.32727Z" fill="black"/>
<path d="M30.8628 10.0627C30.834 9.7932 30.7499 9.53256 30.6158 9.29704C30.4817 9.06153 30.3005 8.8562 30.0835 8.69389C27.467 6.73164 24.4694 5.33764 21.2829 4.60123C18.0963 3.86483 14.791 3.80225 11.5789 4.41752C11.4042 4.45069 11.2416 4.52982 11.1077 4.64676C10.9738 4.7637 10.8735 4.91423 10.8172 5.08283C10.7608 5.25142 10.7505 5.43199 10.7871 5.60594C10.8238 5.77988 10.9061 5.94091 11.0257 6.07243L22.7003 18.9074C22.7941 19.0105 22.9084 19.0929 23.0359 19.1493C23.1634 19.2057 23.3013 19.2348 23.4407 19.2348C23.4464 19.2348 23.4521 19.2348 23.4578 19.2347C23.6001 19.2323 23.7402 19.1995 23.8688 19.1387C23.9975 19.0778 24.1116 18.9902 24.2037 18.8818L30.3941 11.5903C30.5717 11.3807 30.7048 11.1373 30.7854 10.8746C30.866 10.612 30.8923 10.3358 30.8628 10.0627V10.0627Z" fill="black"/>
</svg>
