<svg viewBox="0 0 32 32" xmlns="http://www.w3.org/2000/svg">
<path d="M30.0728 8.69397C21.7896 2.44006 10.2115 2.43811 1.92436 8.69202C1.70704 8.85369 1.5256 9.05864 1.39147 9.29396C1.25734 9.52927 1.17344 9.78984 1.14507 10.0592C1.11474 10.3337 1.14085 10.6114 1.2218 10.8754C1.30274 11.1394 1.43681 11.3841 1.61577 11.5944L14.4712 26.7477C14.659 26.9699 14.8929 27.1486 15.1566 27.2713C15.4204 27.3941 15.7077 27.458 15.9986 27.4586H16.0005C16.2887 27.4589 16.5734 27.3963 16.8348 27.2752C17.0962 27.1541 17.3281 26.9774 17.5142 26.7574V26.7565L30.3853 11.5885C30.5623 11.3785 30.6949 11.1348 30.7752 10.8721C30.8554 10.6094 30.8816 10.3332 30.8521 10.0602C30.823 9.79115 30.7387 9.53101 30.6046 9.29596C30.4706 9.06091 30.2895 8.85599 30.0728 8.69397V8.69397ZM3.12358 10.2916L3.12554 10.2897C3.12554 10.2906 3.12554 10.2906 3.12358 10.2916ZM25.5577 14.1871C24.8864 13.6868 24.1766 13.2402 23.4351 12.8514C23.4034 12.8345 23.3716 12.8177 23.3394 12.8011C22.6232 12.43 21.88 12.1137 21.116 11.8547C21.0533 11.8334 20.99 11.8152 20.9268 11.7946C20.1744 11.5477 19.4047 11.3571 18.6241 11.2242C18.5577 11.213 18.4908 11.2079 18.4239 11.1975C16.8176 10.9338 15.1791 10.9337 13.5728 11.1971C13.5057 11.2075 13.438 11.2129 13.3709 11.2241C12.5912 11.3568 11.8224 11.5471 11.0709 11.7936C11.0074 11.8142 10.9439 11.8326 10.8809 11.8541C10.118 12.1127 9.37563 12.4285 8.66021 12.7988C8.62725 12.8159 8.59478 12.8331 8.56207 12.8505C7.82142 13.2385 7.11251 13.6843 6.44195 14.1837L6.4417 14.1838L3.1353 10.2838C10.7134 4.56897 21.2935 4.57288 28.8599 10.2955L25.5577 14.1871Z"/>
</svg>
