<svg viewBox="0 0 32 32" xmlns="http://www.w3.org/2000/svg">
<path d="M30.8548 10.062C30.8262 9.79339 30.7425 9.53352 30.609 9.29868C30.4755 9.06383 30.2949 8.85904 30.0787 8.6971C21.7902 2.43843 10.2112 2.43703 1.9211 8.69313C1.70464 8.85535 1.52397 9.06048 1.39037 9.29569C1.25678 9.5309 1.17314 9.79113 1.14467 10.0601C1.11493 10.3344 1.14127 10.6118 1.22208 10.8756C1.30289 11.1393 1.43649 11.3839 1.61477 11.5944L14.4798 26.7572C14.6668 26.9785 14.8998 27.1564 15.1626 27.2785C15.4254 27.4006 15.7117 27.4639 16.0015 27.4641C16.2882 27.4641 16.5714 27.4017 16.8315 27.2811C17.0916 27.1605 17.3222 26.9847 17.5074 26.7658L30.3875 11.5852C30.5646 11.3762 30.6973 11.1335 30.7776 10.8716C30.8579 10.6098 30.8842 10.3343 30.8548 10.062V10.062Z"/>
</svg>
