<svg   viewBox="0 0 32 32" fill="none" xmlns="http://www.w3.org/2000/svg">
<path d="M15.9972 27.4631C15.7082 27.4628 15.4227 27.3995 15.1606 27.2776C14.8985 27.1556 14.6661 26.978 14.4797 26.7571L1.60972 11.5886C1.43289 11.3791 1.3005 11.1358 1.2206 10.8735C1.1407 10.6112 1.11496 10.3354 1.14494 10.0629C1.17469 9.7939 1.25883 9.53377 1.39223 9.29832C1.52563 9.06286 1.70551 8.85698 1.92094 8.69319C10.2089 2.43892 21.7856 2.4388 30.0736 8.69319C30.289 8.85699 30.4689 9.06286 30.6022 9.2983C30.7356 9.53375 30.8198 9.79385 30.8495 10.0628C30.8795 10.3353 30.8538 10.6111 30.7739 10.8734C30.694 11.1357 30.5616 11.379 30.3848 11.5885L17.5148 26.7571C17.3283 26.978 17.096 27.1556 16.8339 27.2776C16.5718 27.3995 16.2863 27.4628 15.9972 27.4631ZM3.13274 10.2843C3.13221 10.2879 3.13292 10.2916 3.13475 10.2947L15.9971 25.454L28.8597 10.2946C28.862 10.2901 28.8625 10.2848 28.8611 10.2799C21.2926 4.57221 10.7109 4.57038 3.13274 10.2843Z" fill="black"/>
</svg>
