<svg   viewBox="0 0 32 32" fill="none" xmlns="http://www.w3.org/2000/svg">
<path d="M26.4143 9.99926L28.7071 7.70642C28.8002 7.61361 28.8741 7.50336 28.9245 7.38197C28.975 7.26059 29.001 7.13045 29.0011 6.99899C29.0012 6.86754 28.9754 6.73736 28.9252 6.61589C28.8749 6.49442 28.8012 6.38405 28.7083 6.2911C28.6153 6.19814 28.5049 6.12443 28.3835 6.07416C28.262 6.0239 28.1318 5.99807 28.0004 5.99817C27.8689 5.99826 27.7388 6.02427 27.6174 6.07471C27.496 6.12515 27.3857 6.19903 27.2929 6.29211L25 8.58502L22.7071 6.29211C22.6143 6.19926 22.504 6.1256 22.3827 6.07535C22.2613 6.0251 22.1313 5.99924 22 5.99924C21.8687 5.99925 21.7386 6.02512 21.6173 6.07538C21.496 6.12564 21.3857 6.19931 21.2929 6.29217C21.2 6.38504 21.1264 6.49528 21.0761 6.61661C21.0259 6.73794 21 6.86798 21 6.99931C21 7.13063 21.0259 7.26067 21.0761 7.382C21.1264 7.50332 21.2001 7.61356 21.2929 7.70642L23.5858 9.99926L21.2929 12.2921C21.1059 12.4797 21.0009 12.7339 21.0011 12.9989C21.0013 13.2639 21.1066 13.5179 21.2939 13.7053C21.4813 13.8926 21.7353 13.998 22.0003 13.9982C22.2653 13.9984 22.5195 13.8935 22.7071 13.7064L25 11.4135L27.2929 13.7064C27.4806 13.8936 27.7348 13.9986 27.9998 13.9984C28.2648 13.9983 28.5189 13.8929 28.7063 13.7055C28.8937 13.5181 28.9991 13.264 28.9992 12.999C28.9993 12.734 28.8943 12.4797 28.7071 12.2921L26.4143 9.99926Z" fill="black"/>
<path d="M24.9958 14.242L24.1169 15.1209C23.5543 15.6834 22.7912 15.9995 21.9955 15.9994C21.1999 15.9994 20.4368 15.6832 19.8742 15.1206C19.3117 14.5579 18.9956 13.7949 18.9957 12.9992C18.9957 12.2035 19.3119 11.4405 19.8745 10.8779L20.7531 9.99928L19.8744 9.12053C19.5526 8.79792 19.3085 8.40634 19.1604 7.97542C19.0123 7.5445 18.9642 7.08555 19.0197 6.63329C19.0753 6.18104 19.2329 5.74734 19.4808 5.36503C19.7287 4.98273 20.0604 4.66183 20.4506 4.42662C17.2354 3.80383 13.9253 3.86173 10.7338 4.5966C7.54229 5.33146 4.54021 6.72698 1.9211 8.69318C1.70464 8.85541 1.52397 9.06053 1.39037 9.29574C1.25678 9.53095 1.17314 9.79119 1.14467 10.0602C1.11493 10.3344 1.14127 10.6119 1.22208 10.8756C1.30289 11.1394 1.43649 11.3839 1.61477 11.5944L14.4798 26.7572C14.6668 26.9785 14.8998 27.1564 15.1626 27.2785C15.4254 27.4006 15.7117 27.4639 16.0015 27.4641C16.2882 27.4642 16.5714 27.4017 16.8315 27.2812C17.0916 27.1606 17.3222 26.9847 17.5074 26.7659L26.8383 15.7685C26.4779 15.6174 26.1504 15.3974 25.8745 15.1206L24.9958 14.242Z" fill="black"/>
</svg>
