<svg viewBox="0 0 32 32" xmlns="http://www.w3.org/2000/svg">
<path d="M26.3626 18.364C25.078 19.64 23.4402 20.5012 21.6609 20.8363C19.8816 21.1714 18.0427 20.9649 16.382 20.2435L9.87672 27.775C9.86079 27.7934 9.84422 27.8113 9.82703 27.8285C9.07675 28.578 8.05954 28.9989 6.99902 28.9986C5.9385 28.9983 4.9215 28.5769 4.1716 27.827C3.42169 27.0772 3.00028 26.0602 3 24.9996C2.99972 23.9391 3.4206 22.9219 4.17011 22.1716C4.18732 22.1544 4.20521 22.1378 4.22358 22.1218L11.7552 15.6164C11.0316 13.9656 10.8201 12.1356 11.1482 10.3632C11.4763 8.59089 12.3288 6.95782 13.5954 5.67542C14.862 4.39302 16.4844 3.52032 18.2526 3.1703C20.0207 2.82027 21.8532 3.00903 23.5129 3.71214C23.6637 3.77612 23.7964 3.87614 23.8995 4.00342C24.0026 4.13071 24.0729 4.28136 24.1042 4.44214C24.1355 4.60293 24.1268 4.76894 24.0789 4.92558C24.031 5.08223 23.9454 5.22472 23.8296 5.34056L18.9628 10.2073L19.4343 12.5643L21.7913 13.0357L26.6581 8.16893C26.7739 8.05314 26.9164 7.96756 27.0731 7.9197C27.2297 7.87184 27.3957 7.86317 27.5565 7.89445C27.7173 7.92572 27.8679 7.99599 27.9952 8.09908C28.1224 8.20217 28.2225 8.33493 28.2864 8.4857C28.9909 10.1357 29.1842 11.9592 28.8412 13.7202C28.4982 15.4813 27.6348 17.0989 26.3626 18.364V18.364Z"/>
</svg>
