<svg   viewBox="0 0 32 32" fill="none" xmlns="http://www.w3.org/2000/svg">
<path d="M26 4H6C5.46973 4.00052 4.96132 4.21141 4.58636 4.58636C4.21141 4.96132 4.00052 5.46973 4 6V26C4.00052 26.5303 4.21141 27.0387 4.58636 27.4136C4.96132 27.7886 5.46973 27.9995 6 28H26C26.5303 27.9995 27.0387 27.7886 27.4136 27.4136C27.7886 27.0387 27.9995 26.5303 28 26V6C27.9995 5.46973 27.7886 4.96132 27.4136 4.58636C27.0387 4.2114 26.5303 4.00052 26 4ZM20.707 19.293C20.8 19.3858 20.8738 19.496 20.9242 19.6174C20.9746 19.7387 21.0006 19.8688 21.0006 20.0002C21.0007 20.1316 20.9749 20.2617 20.9246 20.3832C20.8744 20.5046 20.8007 20.6149 20.7078 20.7078C20.6149 20.8007 20.5046 20.8744 20.3832 20.9246C20.2617 20.9749 20.1316 21.0007 20.0002 21.0006C19.8688 21.0006 19.7387 20.9746 19.6174 20.9242C19.496 20.8738 19.3858 20.8 19.293 20.707L16 17.4141L12.707 20.707C12.5194 20.8942 12.2652 20.9993 12.0002 20.9991C11.7352 20.999 11.4811 20.8937 11.2937 20.7063C11.1063 20.5189 11.001 20.2648 11.0009 19.9998C11.0007 19.7348 11.1058 19.4806 11.293 19.293L14.5859 16L11.293 12.707C11.1058 12.5194 11.0007 12.2652 11.0009 12.0002C11.001 11.7352 11.1063 11.4811 11.2937 11.2937C11.4811 11.1063 11.7352 11.001 12.0002 11.0009C12.2652 11.0007 12.5194 11.1058 12.707 11.293L16 14.5859L19.293 11.293C19.4806 11.1058 19.7348 11.0007 19.9998 11.0009C20.2648 11.001 20.5189 11.1063 20.7063 11.2937C20.8937 11.4811 20.999 11.7352 20.9991 12.0002C20.9993 12.2652 20.8942 12.5194 20.707 12.707L17.4141 16L20.707 19.293Z" fill="black"/>
</svg>
