<svg viewBox="0 0 32 32" xmlns="http://www.w3.org/2000/svg">
<path d="M30.0282 17.0001V21.0001C30.0282 21.148 29.9954 21.2941 29.9321 21.4279C29.8688 21.5616 29.7766 21.6796 29.6622 21.7734C29.5477 21.8672 29.4139 21.9345 29.2704 21.9703C29.1268 22.0061 28.9771 22.0097 28.832 21.9807L20.0282 20.2198V23.59L21.7122 25.298C21.8966 25.4851 22 25.7373 22 26.0001V29.0001C22 29.1635 21.96 29.3244 21.8834 29.4688C21.8068 29.6131 21.696 29.7365 21.5607 29.8281C21.4253 29.9198 21.2696 29.9768 21.1072 29.9943C20.9447 30.0118 20.7804 29.9892 20.6287 29.9285L16 28.0771L11.3713 29.9285C11.2196 29.9892 11.0553 30.0118 10.8928 29.9943C10.7304 29.9768 10.5747 29.9197 10.4393 29.8281C10.304 29.7365 10.1932 29.6131 10.1166 29.4688C10.04 29.3244 9.99999 29.1635 10 29.0001V26.0001C10 25.7349 10.1053 25.4805 10.2928 25.293L12 23.5858V20.2198L3.19617 21.9807C3.05108 22.0097 2.90137 22.0061 2.75782 21.9703C2.61426 21.9345 2.48045 21.8672 2.36603 21.7734C2.25161 21.6796 2.15942 21.5616 2.09613 21.4279C2.03283 21.2941 2 21.148 2 21.0001V17.0001C1.99999 16.8144 2.0517 16.6323 2.14933 16.4743C2.24695 16.3164 2.38664 16.1887 2.55274 16.1057L12.0015 11.3813L12.014 5.99774C12.0143 4.93688 12.4361 3.91958 13.1864 3.16965C13.9368 2.41973 14.9543 1.99859 16.0152 1.9989C17.0761 1.99921 18.0934 2.42093 18.8433 3.17129C19.5932 3.92166 20.0143 4.9392 20.014 6.00006L20.0267 11.3813L29.4755 16.1057C29.6416 16.1887 29.7812 16.3164 29.8789 16.4743C29.9765 16.6323 30.0282 16.8144 30.0282 17.0001V17.0001Z"/>
</svg>
