<svg   viewBox="0 0 32 32" fill="none" xmlns="http://www.w3.org/2000/svg">
<path d="M21.9971 27C21.9971 27.2652 21.8917 27.5196 21.7042 27.7071C21.5166 27.8947 21.2623 28 20.9971 28H2.99708C2.73186 28 2.47751 27.8947 2.28997 27.7071C2.10244 27.5196 1.99708 27.2652 1.99708 27C1.99708 26.7348 2.10244 26.4804 2.28997 26.2929C2.47751 26.1054 2.73186 26 2.99708 26H20.9971C21.2623 26 21.5166 26.1054 21.7042 26.2929C21.8917 26.4805 21.9971 26.7348 21.9971 27V27ZM30.884 11.1834L28.5541 8.33577C27.877 7.5006 26.9219 6.93702 25.8635 6.74804C24.8051 6.55907 23.714 6.75734 22.7897 7.3066L17.4395 10.4538L10.1552 8.02566C10.039 7.98705 9.91273 7.99231 9.80018 8.04043L7.73768 8.92428C7.50625 9.02349 7.30352 9.17937 7.14817 9.37754C6.99283 9.57571 6.88986 9.80979 6.84877 10.0582C6.80768 10.3066 6.82978 10.5614 6.91305 10.799C6.99631 11.0367 7.13805 11.2495 7.32521 11.418L10.6486 14.409L7.96522 15.9423L4.69398 14.5404C4.63175 14.5138 4.56477 14.5001 4.49708 14.5001C4.42939 14.5001 4.36241 14.5138 4.30018 14.5404L2.20607 15.4379C1.97699 15.5361 1.77599 15.6897 1.62121 15.8851C1.46643 16.0804 1.36277 16.3112 1.31957 16.5567C1.27638 16.8021 1.29503 17.0545 1.37382 17.2909C1.45262 17.5274 1.58908 17.7404 1.77088 17.9109H1.77101L6.48292 22.3283C7.18697 22.9944 8.08833 23.4138 9.05133 23.5234C10.0143 23.6329 10.9869 23.4267 11.8225 22.9358L30.7484 11.9323C30.811 11.8959 30.8649 11.8464 30.9064 11.7871C30.9479 11.7279 30.9761 11.6603 30.989 11.5891C31.0019 11.5179 30.9992 11.4448 30.9811 11.3747C30.963 11.3047 30.9299 11.2394 30.884 11.1834L30.884 11.1834Z" fill="black"/>
</svg>
