<svg   viewBox="0 0 32 32" fill="none" xmlns="http://www.w3.org/2000/svg">
<path d="M27.9997 27C27.9997 27.2652 27.8943 27.5196 27.7068 27.7071C27.5192 27.8946 27.2649 28 26.9997 28H8.99967C8.73445 28 8.4801 27.8946 8.29256 27.7071C8.10503 27.5196 7.99967 27.2652 7.99967 27C7.99967 26.7348 8.10503 26.4804 8.29256 26.2929C8.4801 26.1054 8.73445 26 8.99967 26H26.9997C27.2649 26 27.5192 26.1054 27.7068 26.2929C27.8943 26.4804 27.9997 26.7348 27.9997 27V27ZM25.9997 12.5H19.2196L13.8682 6.66211C13.8214 6.61102 13.7644 6.57022 13.701 6.54231C13.6375 6.51441 13.569 6.5 13.4997 6.5H11.3871C11.1494 6.49999 10.9152 6.55647 10.7036 6.66477C10.492 6.77307 10.3092 6.9301 10.1702 7.12292C10.0312 7.31574 9.94005 7.53882 9.90421 7.77379C9.86836 8.00876 9.88886 8.24888 9.96403 8.47437L11.3059 12.5H8.2338L5.88383 9.67993C5.83689 9.62362 5.77815 9.57831 5.71177 9.54722C5.64539 9.51612 5.57298 9.5 5.49967 9.5H3.34367C3.10984 9.50001 2.87924 9.55469 2.6703 9.65967C2.46136 9.76465 2.27986 9.91703 2.14028 10.1046C2.0007 10.2922 1.90692 10.5099 1.86642 10.7402C1.82592 10.9705 1.83982 11.2071 1.90702 11.431L3.66556 17.2931C3.93967 18.2224 4.50814 19.0375 5.28546 19.6159C6.06277 20.1942 7.00689 20.5045 7.97574 20.5H29.9997C30.1323 20.5 30.2594 20.4473 30.3532 20.3535C30.447 20.2598 30.4997 20.1326 30.4997 20V17C30.4983 15.8069 30.0238 14.6631 29.1802 13.8195C28.3365 12.9759 27.1927 12.5013 25.9997 12.5V12.5Z" fill="black"/>
</svg>
