<svg viewBox="0 0 32 32" xmlns="http://www.w3.org/2000/svg">
<path d="M26.8754 10.7793L23.1494 14.2778L26.9242 24.6582C26.9892 24.837 27.0019 25.0308 26.9606 25.2166C26.9194 25.4024 26.826 25.5725 26.6915 25.7071L23.6915 28.7071C23.5875 28.8111 23.462 28.8908 23.3237 28.9407C23.1854 28.9906 23.0378 29.0094 22.8915 28.9957C22.7451 28.982 22.6036 28.9363 22.4769 28.8617C22.3502 28.7871 22.2416 28.6854 22.1587 28.5641L16.8353 20.7719L14.4844 22.9383V25.5C14.4844 25.7652 14.379 26.0196 14.1915 26.2071L11.6915 28.7071C11.5712 28.8273 11.4224 28.9149 11.2589 28.9616C11.0954 29.0083 10.9227 29.0125 10.7571 28.9738C10.5916 28.9352 10.4386 28.855 10.3126 28.7408C10.1867 28.6266 10.092 28.4822 10.0374 28.3211L8.42188 23.5571L3.66387 21.9472C3.50277 21.8927 3.35824 21.798 3.24393 21.6721C3.12963 21.5461 3.04932 21.3931 3.01062 21.2275C2.97191 21.0619 2.97608 20.8892 3.02273 20.7256C3.06938 20.562 3.15697 20.4131 3.27722 20.2928L5.77722 17.7928C5.96479 17.6053 6.21915 17.5 6.48438 17.5H9.07019L11.4147 15.1554L3.42969 9.832C3.30659 9.74993 3.20324 9.64156 3.12708 9.51472C3.05092 9.38788 3.00385 9.24572 2.98926 9.09849C2.97468 8.95126 2.99294 8.80262 3.04274 8.6633C3.09254 8.52398 3.17262 8.39745 3.27723 8.29282L6.27723 5.29282C6.41182 5.15829 6.582 5.06494 6.76779 5.02373C6.95357 4.98252 7.14726 4.99515 7.32612 5.06015L17.7089 8.83579L21.0347 5.31821C21.0704 5.26554 21.111 5.21641 21.156 5.17148C21.8863 4.44127 22.8707 4.02179 23.9032 4.00083C24.9357 3.97986 25.9363 4.35904 26.6956 5.05901C27.4549 5.75899 27.9141 6.7255 27.977 7.7563C28.04 8.7871 27.7018 9.8023 27.0333 10.5894C26.9886 10.659 26.9356 10.7227 26.8754 10.7793V10.7793Z"/>
</svg>
