<svg   viewBox="0 0 32 32" fill="none" xmlns="http://www.w3.org/2000/svg">
<path d="M31 27C31 27.2653 30.8946 27.5196 30.7071 27.7071C30.5196 27.8947 30.2652 28 30 28H12C11.7348 28 11.4804 27.8947 11.2929 27.7072C11.1054 27.5196 11 27.2653 11 27C11 26.7348 11.1054 26.4805 11.2929 26.2929C11.4804 26.1054 11.7348 26 12 26H30C30.2652 26 30.5196 26.1054 30.7071 26.2929C30.8946 26.4805 31 26.7348 31 27V27ZM28 23.5C28.1326 23.5 28.2598 23.4474 28.3535 23.3536C28.4473 23.2598 28.5 23.1327 28.5 23V18.5404C28.4978 17.5574 28.1747 16.602 27.5798 15.8194C26.985 15.0368 26.1509 14.4698 25.2043 14.2046L19.332 12.5733L15.4341 5.752C15.373 5.64519 15.2748 5.56461 15.1581 5.52568L13.4744 4.9644C13.2489 4.88925 13.0088 4.86876 12.7738 4.90462C12.5388 4.94047 12.3158 5.03164 12.1229 5.17062C11.9301 5.3096 11.7731 5.4924 11.6648 5.70397C11.5565 5.91554 11.5 6.14982 11.5 6.3875V10.3199L8.34473 9.33391L6.44116 5.76476C6.3809 5.65176 6.27957 5.56618 6.15808 5.52568L4.47437 4.9644C4.24888 4.88925 4.00876 4.86876 3.7738 4.90462C3.53884 4.94047 3.31576 5.03164 3.12295 5.17062C2.93014 5.3096 2.77311 5.4924 2.6648 5.70397C2.55649 5.91554 2.50001 6.14982 2.5 6.3875V12.9662C2.50248 13.9476 2.82463 14.9014 3.41769 15.6833C4.01074 16.4652 4.8424 17.0326 5.78675 17.2995L27.8652 23.4816C27.9091 23.4938 27.9544 23.5 28 23.5V23.5Z" fill="black"/>
</svg>
