<svg viewBox="0 0 32 32" xmlns="http://www.w3.org/2000/svg">
<path d="M27 17C26.7348 17 26.4804 17.1054 26.2929 17.2929C26.1054 17.4804 26 17.7348 26 18C25.9985 19.3256 25.4712 20.5965 24.5339 21.5338C23.5965 22.4712 22.3256 22.9985 21 23C19.5229 22.9992 18.0979 23.5457 17 24.5339V15H21C21.2652 15 21.5196 14.8946 21.7071 14.7071C21.8946 14.5195 22 14.2652 22 14C22 13.7348 21.8946 13.4804 21.7071 13.2929C21.5196 13.1053 21.2652 13 21 13H17V9.85361C17.8057 9.61341 18.4979 9.09124 18.9503 8.38258C19.4026 7.67391 19.5847 6.82612 19.4633 5.99422C19.342 5.16232 18.9252 4.4019 18.2893 3.85201C17.6533 3.30212 16.8407 2.99951 16 2.99951C15.1593 2.99951 14.3467 3.30212 13.7107 3.85201C13.0748 4.4019 12.658 5.16232 12.5367 5.99422C12.4153 6.82612 12.5974 7.67391 13.0497 8.38258C13.5021 9.09124 14.1943 9.61341 15 9.85361V13H11C10.7348 13 10.4804 13.1053 10.2929 13.2929C10.1054 13.4804 10 13.7348 10 14C10 14.2652 10.1054 14.5195 10.2929 14.7071C10.4804 14.8946 10.7348 15 11 15H15V24.5339C13.9021 23.5457 12.4771 22.9992 11 23C9.67438 22.9985 8.40349 22.4712 7.46614 21.5338C6.52879 20.5965 6.00152 19.3256 6 18C6 17.7348 5.89464 17.4804 5.70711 17.2929C5.51957 17.1053 5.26522 17 5 17C4.73478 17 4.48043 17.1053 4.29289 17.2929C4.10536 17.4804 4 17.7348 4 18C4.00208 19.8559 4.74025 21.6351 6.05255 22.9474C7.36485 24.2597 9.14412 24.9979 11 25C12.0605 25.0012 13.0772 25.423 13.8271 26.1729C14.577 26.9228 14.9988 27.9395 15 29C15 29.2652 15.1054 29.5195 15.2929 29.7071C15.4804 29.8946 15.7348 30 16 30C16.2652 30 16.5196 29.8946 16.7071 29.7071C16.8946 29.5195 17 29.2652 17 29C17.0012 27.9395 17.423 26.9228 18.1729 26.1729C18.9228 25.423 19.9395 25.0012 21 25C22.8559 24.9979 24.6351 24.2597 25.9474 22.9474C27.2598 21.6351 27.9979 19.8559 28 18C28 17.7348 27.8946 17.4804 27.7071 17.2929C27.5196 17.1054 27.2652 17 27 17ZM14.5 6.49998C14.5 6.2033 14.588 5.91329 14.7528 5.66662C14.9176 5.41995 15.1519 5.22769 15.426 5.11416C15.7001 5.00063 16.0017 4.97092 16.2926 5.0288C16.5836 5.08668 16.8509 5.22954 17.0607 5.43932C17.2704 5.64909 17.4133 5.91637 17.4712 6.20734C17.5291 6.49831 17.4993 6.79991 17.3858 7.074C17.2723 7.34809 17.08 7.58236 16.8334 7.74718C16.5867 7.912 16.2967 7.99998 16 7.99998C15.6023 7.99954 15.221 7.84137 14.9398 7.56016C14.6586 7.27895 14.5004 6.89767 14.5 6.49998V6.49998Z"/>
</svg>
