<svg viewBox="0 0 32 32" xmlns="http://www.w3.org/2000/svg">
<path d="M28 13.9997H25C24.7348 13.9997 24.4804 14.105 24.2929 14.2926C24.1054 14.4801 24 14.7345 24 14.9997C24 15.2649 24.1054 15.5193 24.2929 15.7068C24.4804 15.8943 24.7348 15.9997 25 15.9997H26.955C26.7176 18.5596 25.5925 20.9559 23.7745 22.7737C21.9564 24.5915 19.56 25.7163 17 25.9533V11.8731C17.9427 11.6297 18.7642 11.0509 19.3106 10.2451C19.857 9.43932 20.0908 8.46192 19.9681 7.4961C19.8454 6.53029 19.3747 5.64237 18.6442 4.99878C17.9137 4.35519 16.9736 4.00012 16 4.00012C15.0264 4.00012 14.0863 4.35519 13.3558 4.99878C12.6253 5.64237 12.1546 6.53029 12.0319 7.4961C11.9092 8.46192 12.143 9.43932 12.6894 10.2451C13.2358 11.0509 14.0573 11.6297 15 11.8731V25.9533C12.44 25.7163 10.0436 24.5915 8.22555 22.7737C6.40752 20.9559 5.28242 18.5596 5.04504 15.9997H7C7.26522 15.9997 7.51957 15.8943 7.70711 15.7068C7.89464 15.5193 8 15.2649 8 14.9997C8 14.7345 7.89464 14.4801 7.70711 14.2926C7.51957 14.1051 7.26522 13.9997 7 13.9997H4C3.73479 13.9997 3.48044 14.1051 3.29291 14.2926C3.10537 14.4801 3.00001 14.7345 3 14.9997C3 18.4475 4.36964 21.7541 6.80761 24.1921C9.24558 26.6301 12.5522 27.9997 16 27.9997C19.4478 27.9997 22.7544 26.6301 25.1924 24.1921C27.6304 21.7541 29 18.4475 29 14.9997C29 14.7345 28.8946 14.4801 28.7071 14.2926C28.5196 14.1051 28.2652 13.9997 28 13.9997V13.9997ZM14 7.99969C14 7.60413 14.1173 7.21745 14.3371 6.88855C14.5568 6.55965 14.8692 6.30331 15.2346 6.15193C15.6001 6.00056 16.0022 5.96095 16.3902 6.03812C16.7781 6.11529 17.1345 6.30577 17.4142 6.58548C17.6939 6.86518 17.8844 7.22155 17.9616 7.60951C18.0387 7.99747 17.9991 8.39961 17.8478 8.76506C17.6964 9.13051 17.44 9.44287 17.1111 9.66263C16.7822 9.88239 16.3956 9.99969 16 9.99969C15.4698 9.99909 14.9614 9.78818 14.5865 9.41324C14.2115 9.0383 14.0006 8.52994 14 7.99969V7.99969Z"/>
</svg>
