<svg   viewBox="0 0 33 32" fill="none" xmlns="http://www.w3.org/2000/svg">
<path d="M33.0027 20C33.0034 21.0098 32.7492 22.0035 32.2638 22.8889C31.7783 23.7743 31.0772 24.5229 30.2254 25.0653C29.3737 25.6077 28.3988 25.9264 27.3911 25.9918C26.3834 26.0571 25.3755 25.8671 24.4608 25.4393C23.5461 25.0115 22.7542 24.3598 22.1583 23.5445C21.5625 22.7292 21.1821 21.7767 21.0524 20.7753C20.9226 19.7739 21.0477 18.7559 21.4161 17.8157C21.7844 16.8754 22.3841 16.0434 23.1596 15.3966L26.1389 20.5038C26.205 20.6173 26.2929 20.7166 26.3974 20.796C26.502 20.8755 26.6212 20.9336 26.7481 20.9671C26.8751 21.0005 27.0075 21.0086 27.1376 20.9908C27.2677 20.9731 27.3931 20.9299 27.5065 20.8638C27.6199 20.7976 27.7192 20.7097 27.7987 20.6052C27.8782 20.5007 27.9363 20.3815 27.9697 20.2545C28.0031 20.1275 28.0112 19.9952 27.9935 19.8651C27.9758 19.7349 27.9326 19.6096 27.8664 19.4962L24.886 14.3867C25.7939 14.0439 26.7714 13.9265 27.7347 14.0446C28.6979 14.1627 29.6182 14.5128 30.4164 15.0648C31.2146 15.6168 31.8669 16.3542 32.3174 17.2138C32.7678 18.0734 33.003 19.0295 33.0027 20ZM7.00179 21.0001C6.8173 20.9999 6.63645 20.9487 6.47925 20.8521C6.32204 20.7555 6.19462 20.6174 6.11108 20.4529C6.02754 20.2884 5.99113 20.104 6.00588 19.92C6.02063 19.7361 6.08597 19.5599 6.19467 19.4108L9.67904 14.6323C8.32972 13.9569 6.77586 13.8131 5.3255 14.2294C3.87513 14.6458 2.63415 15.5919 1.84855 16.8802C1.06295 18.1685 0.790088 19.7049 1.08405 21.185C1.37801 22.665 2.21734 23.9806 3.43565 24.8708C4.65396 25.7611 6.16231 26.1612 7.6617 25.9917C9.16109 25.8221 10.542 25.0954 11.5308 23.9556C12.5196 22.8158 13.044 21.346 13.0001 19.8377C12.9562 18.3294 12.3472 16.8927 11.2938 15.8123L7.81063 20.5892C7.71783 20.7167 7.59616 20.8204 7.45557 20.8918C7.31498 20.9632 7.15948 21.0003 7.00179 21.0001V21.0001ZM21.7437 9H25.0026C25.2678 9.0003 25.522 9.10576 25.7094 9.29323C25.8969 9.4807 26.0023 9.73488 26.0026 10C26.0026 10.2652 26.108 10.5196 26.2955 10.7071C26.4831 10.8946 26.7374 11 27.0026 11C27.2679 11 27.5222 10.8946 27.7098 10.7071C27.8973 10.5196 28.0026 10.2652 28.0026 10C28.0018 9.20463 27.6854 8.44209 27.123 7.87967C26.5606 7.31726 25.798 7.0009 25.0026 7H20.0026C19.8267 6.99999 19.6539 7.04639 19.5017 7.13451C19.3494 7.22263 19.2231 7.34936 19.1355 7.50191C19.0479 7.65446 19.002 7.82742 19.0026 8.00333C19.0032 8.17925 19.0502 8.3519 19.1389 8.50385L20.595 11H13.4103L11.3664 7.49615C11.2784 7.34517 11.1523 7.21991 11.0007 7.13285C10.8492 7.0458 10.6774 6.99999 10.5026 7H7.00265C6.73743 7 6.48308 7.10536 6.29554 7.29289C6.10801 7.48043 6.00265 7.73478 6.00265 8C6.00265 8.26522 6.10801 8.51957 6.29554 8.70711C6.48308 8.89464 6.73743 9 7.00265 9H9.92831L11.6428 11.9391L9.67904 14.6323C10.2792 14.933 10.825 15.3318 11.2938 15.8123L12.7429 13.825L16.6389 20.5038C16.7051 20.6173 16.7929 20.7166 16.8975 20.796C17.002 20.8755 17.1212 20.9336 17.2482 20.9671C17.3751 21.0005 17.5075 21.0086 17.6376 20.9908C17.7677 20.9731 17.8931 20.9299 18.0065 20.8638C18.1199 20.7976 18.2192 20.7097 18.2987 20.6052C18.3782 20.5007 18.4363 20.3815 18.4697 20.2545C18.5031 20.1275 18.5112 19.9952 18.4935 19.8651C18.4758 19.7349 18.4326 19.6096 18.3664 19.4962L14.577 13H21.7616L23.1596 15.3966C23.6745 14.9658 24.2581 14.6244 24.8859 14.3867L21.7437 9Z" fill="black"/>
</svg>
