<svg viewBox="0 0 32 32" xmlns="http://www.w3.org/2000/svg">
<path d="M27.6326 13.8234L26 13.2792V7C25.9994 6.46975 25.7885 5.9614 25.4135 5.58646C25.0386 5.21151 24.5302 5.00061 24 5H17V3C17 2.73478 16.8946 2.48043 16.7071 2.29289C16.5196 2.10536 16.2652 2 16 2C15.7348 2 15.4804 2.10536 15.2929 2.29289C15.1054 2.48043 15 2.73478 15 3V5H8C7.46975 5.00061 6.9614 5.21151 6.58646 5.58646C6.21152 5.9614 6.00061 6.46975 6 7V13.2792L4.36743 13.8234C3.96903 13.9558 3.62248 14.2104 3.37701 14.551C3.13154 14.8916 2.99962 15.3009 3 15.7208V20C3 20.0929 3.01294 20.1854 3.03845 20.2747C5.00342 27.152 13.8032 29.5193 15.5472 29.9241C15.8452 29.9928 16.1548 29.9928 16.4528 29.9241C18.1968 29.5193 26.9966 27.152 28.9615 20.2747C28.9871 20.1854 29 20.0929 29 20V15.7208C29.0004 15.3009 28.8685 14.8916 28.623 14.551C28.3775 14.2104 28.031 13.9558 27.6326 13.8234V13.8234ZM17 21C17 21.2652 16.8946 21.5196 16.7071 21.7071C16.5196 21.8946 16.2652 22 16 22C15.7348 22 15.4804 21.8946 15.2929 21.7071C15.1054 21.5196 15 21.2652 15 21V14.0541C15 13.7889 15.1054 13.5345 15.2929 13.347C15.4804 13.1594 15.7348 13.0541 16 13.0541C16.2652 13.0541 16.5196 13.1594 16.7071 13.347C16.8946 13.5345 17 13.7889 17 14.0541V21ZM24 12.6125L16.6324 10.1567C16.2217 10.0208 15.7781 10.0208 15.3674 10.1567L8 12.6125V7H24V12.6125Z"/>
</svg>
