<svg   viewBox="0 0 32 32" fill="none" xmlns="http://www.w3.org/2000/svg">
<path d="M23.75 4H8.25C7.18951 4.00121 6.1728 4.42303 5.42291 5.17291C4.67303 5.9228 4.25121 6.93951 4.25 8V27C4.25061 27.5302 4.46151 28.0386 4.83646 28.4135C5.2114 28.7885 5.71975 28.9994 6.25 29H9.25C9.78025 28.9994 10.2886 28.7885 10.6635 28.4135C11.0385 28.0386 11.2494 27.5302 11.25 27V25H20.75V27C20.7506 27.5302 20.9615 28.0386 21.3365 28.4135C21.7114 28.7885 22.2198 28.9994 22.75 29H25.75C26.2802 28.9994 26.7886 28.7885 27.1635 28.4135C27.5385 28.0386 27.7494 27.5302 27.75 27V8C27.7488 6.93951 27.327 5.9228 26.5771 5.17291C25.8272 4.42303 24.8105 4.00121 23.75 4ZM10.25 21C9.95333 21 9.66332 20.912 9.41665 20.7472C9.16997 20.5824 8.97771 20.3481 8.86418 20.074C8.75065 19.7999 8.72094 19.4983 8.77882 19.2074C8.8367 18.9164 8.97956 18.6491 9.18934 18.4393C9.39912 18.2296 9.66639 18.0867 9.95736 18.0288C10.2483 17.9709 10.5499 18.0007 10.824 18.1142C11.0981 18.2277 11.3324 18.42 11.4972 18.6666C11.662 18.9133 11.75 19.2033 11.75 19.5C11.75 19.8978 11.592 20.2794 11.3107 20.5607C11.0294 20.842 10.6478 21 10.25 21ZM21.75 21C21.4533 21 21.1633 20.912 20.9166 20.7472C20.67 20.5824 20.4777 20.3481 20.3642 20.074C20.2507 19.7999 20.2209 19.4983 20.2788 19.2074C20.3367 18.9164 20.4796 18.6491 20.6893 18.4393C20.8991 18.2296 21.1664 18.0867 21.4574 18.0288C21.7483 17.9709 22.0499 18.0007 22.324 18.1142C22.5981 18.2277 22.8324 18.42 22.9972 18.6666C23.162 18.9133 23.25 19.2033 23.25 19.5C23.25 19.8978 23.092 20.2794 22.8107 20.5607C22.5294 20.842 22.1478 21 21.75 21ZM25.75 15H6.25V9H25.75V15Z" fill="black"/>
</svg>
