<svg viewBox="0 0 32 32" xmlns="http://www.w3.org/2000/svg">
<path d="M30 14H28.6499L25.1777 6.18762C25.0204 5.83427 24.764 5.53406 24.4397 5.3233C24.1154 5.11254 23.7369 5.00025 23.3501 5H8.6499C8.26308 5.00025 7.88461 5.11255 7.56027 5.32334C7.23592 5.53413 6.97959 5.83437 6.82227 6.18775L3.35013 14H2C1.73478 14 1.48043 14.1054 1.29289 14.2929C1.10536 14.4804 1 14.7348 1 15C1 15.2652 1.10536 15.5196 1.29289 15.7071C1.48043 15.8946 1.73478 16 2 16H3V26C3.00061 26.5302 3.21151 27.0386 3.58646 27.4135C3.9614 27.7885 4.46975 27.9994 5 28H8C8.53025 27.9994 9.0386 27.7885 9.41354 27.4135C9.78849 27.0386 9.99939 26.5302 10 26V24H22V26C22.0006 26.5302 22.2115 27.0386 22.5865 27.4135C22.9614 27.7885 23.4698 27.9994 24 28H27C27.5302 27.9994 28.0386 27.7885 28.4135 27.4135C28.7885 27.0386 28.9994 26.5302 29 26V16H30C30.2652 16 30.5196 15.8946 30.7071 15.7071C30.8946 15.5196 31 15.2652 31 15C31 14.7348 30.8946 14.4804 30.7071 14.2929C30.5196 14.1054 30.2652 14 30 14Z"/>
</svg>
