<svg viewBox="0 0 32 32" xmlns="http://www.w3.org/2000/svg">
<path d="M16 3C13.4288 3 10.9154 3.76244 8.77759 5.1909C6.63975 6.61935 4.97351 8.64968 3.98957 11.0251C3.00563 13.4006 2.74819 16.0144 3.2498 18.5362C3.75141 21.0579 4.98953 23.3743 6.80762 25.1924C8.6257 27.0105 10.9421 28.2486 13.4638 28.7502C15.9856 29.2518 18.5995 28.9944 20.9749 28.0104C23.3503 27.0265 25.3807 25.3603 26.8091 23.2224C28.2376 21.0846 29 18.5712 29 16C28.9961 12.5534 27.6252 9.24905 25.1881 6.81192C22.751 4.37479 19.4466 3.0039 16 3V3ZM22.5437 10.7655L19.0319 18.5333C18.9289 18.761 18.7443 18.942 18.5145 19.0404L11.09 22.2224C10.9063 22.3012 10.7032 22.3231 10.5069 22.2853C10.3107 22.2475 10.1302 22.1518 9.98892 22.0105C9.84759 21.8691 9.75185 21.6887 9.71405 21.4925C9.67625 21.2962 9.69813 21.0931 9.77686 20.9094L12.9587 13.4847C13.057 13.2557 13.2372 13.0715 13.4641 12.9684L21.2186 9.44324C21.4038 9.35906 21.6102 9.33335 21.8104 9.36953C22.0105 9.40571 22.1949 9.50206 22.3388 9.64573C22.4828 9.78939 22.5796 9.97355 22.6162 10.1736C22.6528 10.3737 22.6275 10.5802 22.5437 10.7655Z"/>
</svg>
