<svg   viewBox="0 0 32 32" fill="none" xmlns="http://www.w3.org/2000/svg">
<path d="M29.5 15H27.958C27.7178 12.1743 26.4862 9.52447 24.4808 7.51916C22.4755 5.51386 19.8257 4.28222 17 4.04202V2.5C17 2.23478 16.8946 1.98043 16.7071 1.79289C16.5196 1.60536 16.2652 1.5 16 1.5C15.7348 1.5 15.4804 1.60536 15.2929 1.79289C15.1054 1.98043 15 2.23478 15 2.5V4.04202C12.1743 4.28222 9.52446 5.51386 7.51915 7.51916C5.51384 9.52447 4.2822 12.1743 4.04199 15H2.5C2.23478 15 1.98043 15.1054 1.79289 15.2929C1.60536 15.4804 1.5 15.7348 1.5 16C1.5 16.2652 1.60536 16.5196 1.79289 16.7071C1.98043 16.8946 2.23478 17 2.5 17H4.04199C4.2822 19.8257 5.51384 22.4755 7.51915 24.4808C9.52446 26.4861 12.1743 27.7178 15 27.958V29.5C15 29.7652 15.1054 30.0196 15.2929 30.2071C15.4804 30.3946 15.7348 30.5 16 30.5C16.2652 30.5 16.5196 30.3946 16.7071 30.2071C16.8946 30.0196 17 29.7652 17 29.5V27.958C19.8257 27.7178 22.4755 26.4861 24.4808 24.4808C26.4862 22.4755 27.7178 19.8257 27.958 17H29.5C29.7652 17 30.0196 16.8946 30.2071 16.7071C30.3946 16.5196 30.5 16.2652 30.5 16C30.5 15.7348 30.3946 15.4804 30.2071 15.2929C30.0196 15.1054 29.7652 15 29.5 15ZM24.5 17H25.9499C25.716 19.2939 24.6979 21.437 23.0674 23.0674C21.437 24.6979 19.2939 25.716 17 25.9499V24.5C17 24.2348 16.8946 23.9804 16.7071 23.7929C16.5196 23.6054 16.2652 23.5 16 23.5C15.7348 23.5 15.4804 23.6054 15.2929 23.7929C15.1054 23.9804 15 24.2348 15 24.5V25.9499C12.7061 25.716 10.563 24.6979 8.93256 23.0674C7.30209 21.437 6.284 19.2939 6.05011 17H7.5C7.76522 17 8.01957 16.8946 8.20711 16.7071C8.39464 16.5196 8.5 16.2652 8.5 16C8.5 15.7348 8.39464 15.4804 8.20711 15.2929C8.01957 15.1054 7.76522 15 7.5 15H6.05011C6.284 12.7061 7.30209 10.563 8.93256 8.93256C10.563 7.30209 12.7061 6.284 15 6.05011V7.5C15 7.76522 15.1054 8.01957 15.2929 8.20711C15.4804 8.39464 15.7348 8.5 16 8.5C16.2652 8.5 16.5196 8.39464 16.7071 8.20711C16.8946 8.01957 17 7.76522 17 7.5V6.05011C19.2939 6.284 21.437 7.30209 23.0674 8.93256C24.6979 10.563 25.716 12.7061 25.9499 15H24.5C24.2348 15 23.9804 15.1054 23.7929 15.2929C23.6054 15.4804 23.5 15.7348 23.5 16C23.5 16.2652 23.6054 16.5196 23.7929 16.7071C23.9804 16.8946 24.2348 17 24.5 17Z" fill="black"/>
<path d="M16 21C18.7614 21 21 18.7614 21 16C21 13.2386 18.7614 11 16 11C13.2386 11 11 13.2386 11 16C11 18.7614 13.2386 21 16 21Z" fill="black"/>
</svg>
