<svg   viewBox="0 0 32 32" fill="none" xmlns="http://www.w3.org/2000/svg">
<path d="M16 3.5C13.5277 3.5 11.111 4.23311 9.05538 5.60663C6.99976 6.98015 5.39761 8.93238 4.45151 11.2165C3.50542 13.5005 3.25787 16.0139 3.74019 18.4386C4.2225 20.8634 5.41301 23.0907 7.16117 24.8388C8.90933 26.587 11.1366 27.7775 13.5614 28.2598C15.9861 28.7421 18.4995 28.4946 20.7835 27.5485C23.0676 26.6024 25.0199 25.0002 26.3934 22.9446C27.7669 20.889 28.5 18.4723 28.5 16C28.4963 12.6859 27.1781 9.50869 24.8347 7.16529C22.4913 4.8219 19.3141 3.50374 16 3.5V3.5ZM17 26.4512V22.5C17 22.2348 16.8946 21.9804 16.7071 21.7929C16.5196 21.6054 16.2652 21.5 16 21.5C15.7348 21.5 15.4804 21.6054 15.2929 21.7929C15.1054 21.9804 15 22.2348 15 22.5V26.4512C12.5733 26.2156 10.3039 25.1442 8.57985 23.4202C6.85585 21.6962 5.78442 19.4267 5.54883 17H9.50001C9.76522 17 10.0196 16.8946 10.2071 16.7071C10.3946 16.5196 10.5 16.2652 10.5 16C10.5 15.7348 10.3946 15.4804 10.2071 15.2929C10.0196 15.1054 9.76522 15 9.50001 15H5.54883C5.78442 12.5733 6.85585 10.3038 8.57985 8.57985C10.3039 6.85584 12.5733 5.78441 15 5.54883V9.5C15 9.76522 15.1054 10.0196 15.2929 10.2071C15.4804 10.3946 15.7348 10.5 16 10.5C16.2652 10.5 16.5196 10.3946 16.7071 10.2071C16.8946 10.0196 17 9.76522 17 9.5V5.54883C19.4267 5.78441 21.6962 6.85584 23.4202 8.57985C25.1442 10.3038 26.2156 12.5733 26.4512 15H22.5C22.2348 15 21.9804 15.1054 21.7929 15.2929C21.6054 15.4804 21.5 15.7348 21.5 16C21.5 16.2652 21.6054 16.5196 21.7929 16.7071C21.9804 16.8946 22.2348 17 22.5 17H26.4512C26.2156 19.4267 25.1442 21.6962 23.4202 23.4202C21.6962 25.1442 19.4267 26.2156 17 26.4512Z" fill="black"/>
</svg>
