<svg   viewBox="0 0 32 32" fill="none" xmlns="http://www.w3.org/2000/svg">
<path d="M29 27H26V5C25.9994 4.46975 25.7885 3.9614 25.4135 3.58646C25.0386 3.21151 24.5302 3.00061 24 3H8C7.46975 3.00061 6.9614 3.21151 6.58646 3.58646C6.21151 3.9614 6.00061 4.46975 6 5V27H3C2.73478 27 2.48043 27.1054 2.29289 27.2929C2.10536 27.4804 2 27.7348 2 28C2 28.2652 2.10536 28.5196 2.29289 28.7071C2.48043 28.8946 2.73478 29 3 29H29C29.2652 29 29.5196 28.8946 29.7071 28.7071C29.8946 28.5196 30 28.2652 30 28C30 27.7348 29.8946 27.4804 29.7071 27.2929C29.5196 27.1054 29.2652 27 29 27ZM20.5 17.5C20.2033 17.5 19.9133 17.412 19.6666 17.2472C19.42 17.0824 19.2277 16.8481 19.1142 16.574C19.0007 16.2999 18.9709 15.9983 19.0288 15.7074C19.0867 15.4164 19.2296 15.1491 19.4393 14.9393C19.6491 14.7296 19.9164 14.5867 20.2074 14.5288C20.4983 14.4709 20.7999 14.5006 21.074 14.6142C21.3481 14.7277 21.5824 14.92 21.7472 15.1666C21.912 15.4133 22 15.7033 22 16C22 16.3978 21.842 16.7794 21.5607 17.0607C21.2794 17.342 20.8978 17.5 20.5 17.5Z" fill="black"/>
</svg>
