<svg viewBox="0 0 32 32" xmlns="http://www.w3.org/2000/svg">
<path d="M27.4473 5.10618C27.2812 5.02305 27.0952 4.98785 26.9102 5.00452C26.7253 5.02118 26.5486 5.08906 26.4 5.20054C22.8626 7.85373 19.8647 6.56894 16.3939 5.0814C12.8634 3.56833 8.86206 1.85398 4.40003 5.20054C4.39411 5.20496 4.38898 5.21 4.38324 5.21451C4.36939 5.22538 4.35602 5.23661 4.34277 5.24817C4.33038 5.25901 4.31812 5.26993 4.3064 5.28126C4.29547 5.29178 4.28498 5.30268 4.27454 5.3137C4.26203 5.32688 4.2497 5.34012 4.23804 5.35386C4.22919 5.36429 4.22083 5.37507 4.2124 5.38584C4.20081 5.40067 4.18933 5.41556 4.17871 5.43094C4.17078 5.4423 4.16352 5.45402 4.15607 5.4657C4.14643 5.48099 4.13678 5.49625 4.12799 5.512C4.12049 5.52537 4.11365 5.53912 4.10675 5.55289C4.09949 5.56748 4.0921 5.58201 4.08557 5.59687C4.07862 5.61262 4.07245 5.62876 4.06629 5.6449C4.0611 5.65854 4.05585 5.67215 4.05127 5.68598C4.0456 5.7031 4.04077 5.72056 4.03601 5.7381C4.03223 5.75196 4.02845 5.76575 4.02527 5.77976C4.02149 5.79667 4.01837 5.81385 4.01544 5.83109C4.01276 5.84675 4.0102 5.86237 4.00824 5.87815C4.00635 5.89368 4.00501 5.90931 4.00379 5.92506C4.00244 5.94327 4.00147 5.96149 4.00104 5.97977C4.00091 5.98679 4 5.99357 4 6.00059V27.0006C4 27.2658 4.10536 27.5202 4.29289 27.7077C4.48043 27.8952 4.73478 28.0006 5 28.0006C5.26522 28.0006 5.51957 27.8952 5.70711 27.7077C5.89464 27.5202 6 27.2658 6 27.0006V21.5174C9.36542 19.247 12.267 20.4887 15.6061 21.9198C17.639 22.791 19.828 23.7292 22.1714 23.7291C23.8975 23.7291 25.7073 23.2201 27.6 21.8006C27.7242 21.7075 27.825 21.5867 27.8944 21.4478C27.9638 21.309 28 21.1558 28 21.0006V6.00059C28 5.81488 27.9483 5.63285 27.8507 5.47488C27.753 5.31691 27.6134 5.18924 27.4473 5.10618V5.10618Z"/>
</svg>
