<svg   viewBox="0 0 32 32" fill="none" xmlns="http://www.w3.org/2000/svg">
<path d="M28.7809 20.3754C28.8985 20.5225 28.9722 20.6998 28.9935 20.8869C29.0148 21.0741 28.9828 21.2634 28.9012 21.4332C28.8196 21.603 28.6918 21.7462 28.5323 21.8465C28.3729 21.9468 28.1883 22 28 22H6V27C6 27.2652 5.89464 27.5196 5.70711 27.7071C5.51957 27.8946 5.26522 28 5 28C4.73478 28 4.48043 27.8946 4.29289 27.7071C4.10536 27.5196 4 27.2652 4 27V6C4.00001 5.73479 4.10537 5.48044 4.29291 5.29291C4.48044 5.10537 4.73479 5.00001 5 5H28C28.1883 5.00001 28.3729 5.05321 28.5323 5.15348C28.6918 5.25376 28.8196 5.39703 28.9012 5.56679C28.9828 5.73656 29.0148 5.92592 28.9935 6.11306C28.9722 6.30021 28.8985 6.47754 28.7809 6.62463L23.2806 13.5L28.7809 20.3754Z" fill="black"/>
</svg>
