<svg   viewBox="0 0 32 32" fill="none" xmlns="http://www.w3.org/2000/svg">
<path d="M30.1213 8.70703L27.7071 6.29285C27.6142 6.19999 27.504 6.12633 27.3826 6.07608C27.2613 6.02583 27.1313 5.99997 27 5.99998C26.8686 5.99998 26.7386 6.02585 26.6173 6.07612C26.4959 6.12638 26.3857 6.20004 26.2928 6.29291C26.2 6.38577 26.1263 6.49602 26.0761 6.61735C26.0258 6.73868 26 6.86872 26 7.00004C26 7.13137 26.0258 7.26141 26.0761 7.38273C26.1264 7.50406 26.2 7.6143 26.2929 7.70715L28.707 10.1212C28.8002 10.2139 28.8741 10.3241 28.9244 10.4454C28.9746 10.5668 29.0004 10.697 29 10.8284V21C29 21.2652 28.8946 21.5196 28.7071 21.7071C28.5196 21.8946 28.2652 22 28 22C27.7348 22 27.4804 21.8946 27.2929 21.7071C27.1054 21.5196 27 21.2652 27 21V16C26.9991 15.2046 26.6827 14.4421 26.1203 13.8797C25.5579 13.3173 24.7954 13.0009 24 13H22V7C21.9991 6.20463 21.6827 5.4421 21.1203 4.87968C20.5579 4.31727 19.7954 4.00091 19 4H9C8.20463 4.00091 7.4421 4.31727 6.87968 4.87968C6.31727 5.4421 6.00091 6.20463 6 7V26H4C3.73478 26 3.48043 26.1054 3.29289 26.2929C3.10536 26.4804 3 26.7348 3 27C3 27.2652 3.10536 27.5196 3.29289 27.7071C3.48043 27.8946 3.73478 28 4 28H24C24.2652 28 24.5196 27.8946 24.7071 27.7071C24.8946 27.5196 25 27.2652 25 27C25 26.7348 24.8946 26.4804 24.7071 26.2929C24.5196 26.1054 24.2652 26 24 26H22V15H24C24.2651 15.0003 24.5193 15.1058 24.7068 15.2932C24.8942 15.4807 24.9997 15.7349 25 16V21C25 21.7956 25.3161 22.5587 25.8787 23.1213C26.4413 23.6839 27.2044 24 28 24C28.7956 24 29.5587 23.6839 30.1213 23.1213C30.6839 22.5587 31 21.7956 31 21V10.8284C31.0011 10.4342 30.924 10.0438 30.7731 9.6797C30.6223 9.31557 30.4008 8.98497 30.1213 8.70703ZM18 15H10C9.73478 15 9.48043 14.8946 9.29289 14.7071C9.10536 14.5196 9 14.2652 9 14C9 13.7348 9.10536 13.4804 9.29289 13.2929C9.48043 13.1054 9.73478 13 10 13H18C18.2652 13 18.5196 13.1054 18.7071 13.2929C18.8946 13.4804 19 13.7348 19 14C19 14.2652 18.8946 14.5196 18.7071 14.7071C18.5196 14.8946 18.2652 15 18 15Z" fill="black"/>
</svg>
