<svg viewBox="0 0 32 32" xmlns="http://www.w3.org/2000/svg">
<path d="M16 21.9991C21.5228 21.9991 26 17.522 26 11.9991C26 6.4763 21.5228 1.99915 16 1.99915C10.4772 1.99915 6 6.4763 6 11.9991C6 17.522 10.4772 21.9991 16 21.9991Z"/>
<path d="M25.8995 21.8986C26.087 21.7111 26.1924 21.4567 26.1924 21.1915C26.1924 20.9262 26.087 20.6719 25.8995 20.4843C25.7119 20.2968 25.4575 20.1914 25.1923 20.1914C24.9271 20.1914 24.6727 20.2968 24.4852 20.4843C23.371 21.5992 22.0481 22.4836 20.592 23.0872C19.136 23.6907 17.5753 24.0014 15.9991 24.0017C14.423 24.0019 12.8622 23.6917 11.406 23.0886C9.94971 22.4856 8.62654 21.6015 7.51202 20.487C6.3975 19.3725 5.51346 18.0493 4.9104 16.5931C4.30734 15.1368 3.99708 13.576 3.99733 11.9999C3.99757 10.4237 4.30833 8.86302 4.91185 7.40697C5.51537 5.95092 6.39982 4.62803 7.5147 3.51386C7.70225 3.32631 7.80761 3.07194 7.80761 2.80671C7.80761 2.54147 7.70225 2.2871 7.5147 2.09955C7.32715 1.912 7.07278 1.80664 6.80754 1.80664C6.54231 1.80664 6.28794 1.912 6.10039 2.09955C4.20273 3.99731 2.8905 6.4005 2.31999 9.02292C1.74949 11.6453 1.94474 14.3765 2.88249 16.8911C3.82025 19.4057 5.46099 21.5978 7.60932 23.2063C9.75765 24.8148 12.323 25.7719 14.9999 25.9637V27.9991H11.9999C11.7347 27.9991 11.4804 28.1045 11.2928 28.292C11.1053 28.4795 10.9999 28.7339 10.9999 28.9991C10.9999 29.2643 11.1053 29.5187 11.2928 29.7062C11.4804 29.8937 11.7347 29.9991 11.9999 29.9991H19.9999C20.2651 29.9991 20.5195 29.8937 20.707 29.7062C20.8946 29.5187 20.9999 29.2643 20.9999 28.9991C20.9999 28.7339 20.8946 28.4795 20.707 28.292C20.5195 28.1045 20.2651 27.9991 19.9999 27.9991H16.9999V25.9637C20.3612 25.7324 23.5239 24.2877 25.8995 21.8986Z"/>
</svg>
