<svg   viewBox="0 0 32 32" fill="none" xmlns="http://www.w3.org/2000/svg">
<path d="M28.9972 16C28.9933 12.5543 27.6231 9.25077 25.1871 6.8138C22.7511 4.37684 19.4481 3.00534 16.0024 3.00006L15.9972 2.99548L15.9919 3.00006C12.5455 3.00218 9.24102 4.37274 6.80479 6.81046C4.36856 9.24818 3.00002 12.5535 3 15.9999C2.99998 19.4463 4.36849 22.7517 6.8047 25.1894C9.24091 27.6272 12.5454 28.9978 15.9918 28.9999L15.9972 29.0046L16.0026 28.9999C19.4482 28.9946 22.7512 27.6231 25.1872 25.1862C27.6231 22.7492 28.9933 19.4457 28.9972 16V16ZM26.9512 15H21.9696C21.7706 11.2954 20.4682 7.8728 18.2816 5.2392C20.5778 5.73065 22.6572 6.94252 24.2166 8.69824C25.7761 10.454 26.7342 12.6618 26.9512 15V15ZM12.0295 17H19.9648C19.7386 20.5945 18.303 23.9628 15.9972 26.3052C13.6913 23.9628 12.2557 20.5945 12.0295 17V17ZM12.0295 15C12.2557 11.4054 13.6913 8.03705 15.9972 5.69483C18.303 8.03705 19.7386 11.4054 19.9648 15L12.0295 15ZM18.2815 26.7608C20.4681 24.1271 21.7706 20.7045 21.9696 17H26.9512C26.7341 19.3382 25.7761 21.5461 24.2166 23.3018C22.6572 25.0575 20.5778 26.2694 18.2815 26.7608V26.7608Z" fill="black"/>
</svg>
