<svg   viewBox="0 0 32 32" fill="none" xmlns="http://www.w3.org/2000/svg">
<path d="M28.2325 20.401C28.2512 20.3582 28.2668 20.314 28.2792 20.2689C29.2407 17.5029 29.2403 14.4933 28.2779 11.7276C28.2659 11.6846 28.2511 11.6425 28.2335 11.6016C27.3254 9.08551 25.6646 6.91012 23.4767 5.37115C21.2889 3.83217 18.6802 3.0043 16.0053 3.00006L16 2.99548L15.9948 3.00006C13.3201 3.00429 10.7116 3.83201 8.52388 5.3707C6.33615 6.9094 4.67527 9.08444 3.76703 11.6002C3.74887 11.6422 3.73363 11.6854 3.72144 11.7295C2.75896 14.4969 2.75954 17.5083 3.72308 20.2753C3.73471 20.3165 3.74898 20.3569 3.76581 20.3963C4.67353 22.9129 6.33431 25.0888 8.52232 26.6282C10.7103 28.1676 13.3194 28.9957 15.9946 28.9999L16 29.0046L16.0054 28.9999C18.6798 28.9957 21.288 28.1681 23.4757 26.6296C25.6633 25.0912 27.3241 22.9164 28.2325 20.401V20.401ZM16 5.69483C17.4514 7.19883 18.5423 9.01285 19.1903 11H12.8097C13.4577 9.01285 14.5486 7.19883 16 5.69483V5.69483ZM12.8097 21H19.1903C18.5423 22.9871 17.4514 24.8012 16 26.3052C14.5486 24.8012 13.4577 22.9871 12.8097 21V21ZM12.2862 19C11.9046 17.0182 11.9046 14.9818 12.2862 13H19.7138C20.0954 14.9818 20.0954 17.0182 19.7138 19H12.2862ZM21.7535 13H26.5842C27.1386 14.9616 27.1386 17.0384 26.5842 19H21.7535C22.0821 17.0135 22.0821 14.9865 21.7535 13V13ZM25.7965 11H21.301C20.7022 8.89275 19.6753 6.93163 18.2844 5.23921C19.8854 5.58228 21.39 6.27716 22.6893 7.27353C23.9885 8.26989 25.0499 9.54279 25.7965 11H25.7965ZM18.2843 26.7608C19.6752 25.0684 20.7022 23.1073 21.3009 21H25.7965C25.0499 22.4572 23.9885 23.7301 22.6892 24.7265C21.39 25.7229 19.8853 26.4177 18.2843 26.7608V26.7608Z" fill="black"/>
</svg>
