<svg viewBox="0 0 32 32" xmlns="http://www.w3.org/2000/svg">
<path d="M27.9364 21.1476C27.961 21.1007 27.9818 21.052 27.9987 21.0018C29.1383 18.2701 29.3107 15.2311 28.4875 12.388C27.6643 9.54488 25.8948 7.06817 23.472 5.36792C23.4275 5.33095 23.3798 5.29788 23.3296 5.2691C20.8211 3.55304 17.7905 2.77063 14.7648 3.05798C11.7391 3.34532 8.90994 4.68424 6.76937 6.84182C4.62879 8.9994 3.3123 11.8391 3.04891 14.8669C2.78551 17.8948 3.59187 20.9191 5.32772 23.4139C5.33272 23.4228 5.33688 23.4321 5.34219 23.4409C5.37187 23.4891 5.4056 23.5347 5.44302 23.5771C6.45713 24.9932 7.74586 26.1907 9.23243 27.0983C10.719 28.0059 12.373 28.6051 14.096 28.8601C15.819 29.1151 17.5756 29.0208 19.2614 28.5827C20.9471 28.1447 22.5275 27.3719 23.9083 26.3103C23.9717 26.2713 24.0305 26.2254 24.0837 26.1733C25.7605 24.8392 27.0835 23.1133 27.9364 21.1476V21.1476ZM7.68551 23.1946L8.17469 22.8993C8.46802 22.7223 8.71095 22.4729 8.8802 22.175C9.04945 21.8771 9.13934 21.5407 9.14126 21.1981L9.16497 16.9708C9.16603 16.7821 9.22045 16.5976 9.32194 16.4385L11.0762 13.6891C11.1496 13.5742 11.2456 13.4755 11.3584 13.3991C11.4713 13.3227 11.5985 13.2701 11.7324 13.2446C11.8663 13.2192 12.004 13.2213 12.137 13.251C12.27 13.2807 12.3956 13.3373 12.506 13.4172L14.1039 14.575C14.5199 14.877 15.0364 15.0068 15.5457 14.9373L19.4809 14.4043C19.9636 14.339 20.4059 14.0996 20.7246 13.7312L23.4941 10.5312C23.8312 10.1432 24.0052 9.63976 23.9796 9.12634L23.9447 8.39971C25.2612 9.7734 26.1985 11.4654 26.6648 13.31C27.1312 15.1547 27.1106 17.0888 26.6051 18.9231L24.6137 17.1018C24.3322 16.8455 23.9838 16.6746 23.6088 16.6089C23.2339 16.5432 22.8481 16.5855 22.4963 16.7308L18.6898 18.313C18.3709 18.4456 18.0917 18.6585 17.8794 18.9311C17.6672 19.2037 17.5292 19.5265 17.4789 19.8683L17.1808 21.8928C17.1086 22.3799 17.2189 22.8765 17.4903 23.2873C17.7618 23.6981 18.1754 23.9942 18.6518 24.1188L21.3341 24.8226L21.8327 25.3221C19.6093 26.7162 16.9602 27.2681 14.3651 26.8779C11.77 26.4876 9.40048 25.181 7.68551 23.1946V23.1946Z"/>
</svg>
