<svg viewBox="0 0 32 32" xmlns="http://www.w3.org/2000/svg">
<path d="M20 10C20 9.73479 20.1054 9.48044 20.2929 9.29291C20.4805 9.10537 20.7348 9.00001 21 9H30C30.2653 9 30.5196 9.10536 30.7071 9.29289C30.8947 9.48043 31 9.73478 31 10C31 10.2652 30.8947 10.5196 30.7071 10.7071C30.5196 10.8946 30.2653 11 30 11H21C20.7348 11 20.4805 10.8946 20.2929 10.7071C20.1054 10.5196 20 10.2652 20 10V10ZM30 21H21C20.7348 21 20.4805 21.1054 20.2929 21.2929C20.1054 21.4804 20 21.7348 20 22C20 22.2652 20.1054 22.5196 20.2929 22.7071C20.4805 22.8946 20.7348 23 21 23H30C30.2653 23 30.5196 22.8946 30.7071 22.7071C30.8947 22.5196 31 22.2652 31 22C31 21.7348 30.8947 21.4804 30.7071 21.2929C30.5196 21.1054 30.2653 21 30 21ZM30 13H21C20.7348 13 20.4805 13.1054 20.2929 13.2929C20.1054 13.4804 20 13.7348 20 14C20 14.2652 20.1054 14.5196 20.2929 14.7071C20.4805 14.8946 20.7348 15 21 15H30C30.2653 15 30.5196 14.8946 30.7071 14.7071C30.8947 14.5196 31 14.2652 31 14C31 13.7348 30.8947 13.4804 30.7071 13.2929C30.5196 13.1054 30.2653 13 30 13ZM30 17H21C20.7348 17 20.4805 17.1054 20.2929 17.2929C20.1054 17.4804 20 17.7348 20 18C20 18.2652 20.1054 18.5196 20.2929 18.7071C20.4805 18.8946 20.7348 19 21 19H30C30.2653 19 30.5196 18.8946 30.7071 18.7071C30.8947 18.5196 31 18.2652 31 18C31 17.7348 30.8947 17.4804 30.7071 17.2929C30.5196 17.1054 30.2653 17 30 17ZM16 6H11.113C5.57743 6 1.04093 10.452 1.00029 15.9243C0.990297 17.2439 1.24157 18.5524 1.73963 19.7743C2.23769 20.9963 2.97268 22.1077 3.90223 23.0443C4.83179 23.9809 5.93753 24.7243 7.15571 25.2316C8.3739 25.7388 9.68045 26 11 26H16C16.5303 25.9994 17.0386 25.7885 17.4136 25.4135C17.7885 25.0386 17.9994 24.5302 18 24V8C17.9994 7.46975 17.7885 6.9614 17.4136 6.58646C17.0386 6.21151 16.5303 6.00061 16 6V6Z"/>
</svg>
