<svg   viewBox="0 0 32 32" fill="none" xmlns="http://www.w3.org/2000/svg">
<path d="M30 26H28V14.4423C27.9997 14.1637 27.9414 13.8882 27.8287 13.6334C27.716 13.3786 27.5514 13.1501 27.3455 12.9625L17.3446 3.87059C16.9773 3.5342 16.4973 3.34763 15.9992 3.34766C15.5011 3.34768 15.0211 3.53429 14.6538 3.87071L4.65454 12.9625C4.44858 13.1501 4.28399 13.3786 4.17129 13.6334C4.05859 13.8882 4.00025 14.1637 4 14.4423V26H2C1.73478 26 1.48043 26.1053 1.29289 26.2929C1.10536 26.4804 1 26.7348 1 27C1 27.2652 1.10536 27.5196 1.29289 27.7071C1.48043 27.8946 1.73478 28 2 28H30C30.2652 28 30.5196 27.8946 30.7071 27.7071C30.8946 27.5196 31 27.2652 31 27C31 26.7348 30.8946 26.4804 30.7071 26.2929C30.5196 26.1053 30.2652 26 30 26H30ZM18.9993 25.9989H17.9993V26H13.9993V25.9989H12.9993V19.9989C12.9993 19.7337 13.1046 19.4794 13.2922 19.2918C13.4797 19.1043 13.7341 18.9989 13.9993 18.9989H17.9993C18.2645 18.9989 18.5188 19.1043 18.7064 19.2918C18.8939 19.4794 18.9993 19.7337 18.9993 19.9989V25.9989Z" fill="black"/>
</svg>
