<svg viewBox="0 0 32 32" xmlns="http://www.w3.org/2000/svg">
<path d="M27.3456 12.9626L27.3455 12.9625L17.3446 3.87059C16.9773 3.5342 16.4973 3.34763 15.9992 3.34766C15.5011 3.34768 15.0211 3.53429 14.6538 3.87071L4.65454 12.9625C4.44858 13.1501 4.28399 13.3786 4.17129 13.6334C4.05859 13.8882 4.00025 14.1637 4 14.4423V26C4.00061 26.5302 4.21151 27.0386 4.58646 27.4135C4.9614 27.7885 5.46975 27.9994 6 28H26C26.5302 27.9994 27.0386 27.7885 27.4135 27.4135C27.7885 27.0386 27.9994 26.5302 28 26V14.4424C27.9997 14.1638 27.9414 13.8883 27.8287 13.6335C27.7161 13.3787 27.5515 13.1503 27.3456 12.9626V12.9626Z"/>
</svg>
