<svg viewBox="0 0 32 32" xmlns="http://www.w3.org/2000/svg">
<path d="M30 11H28.3673L27.6125 5.71692C27.5425 5.24123 27.3042 4.80642 26.9409 4.49141C26.5777 4.17639 26.1135 4.00204 25.6327 4H6.36731C5.88645 4.00207 5.42225 4.17645 5.05897 4.49151C4.69569 4.80657 4.4574 5.24143 4.38733 5.71716L3.63266 11H2C1.73478 11 1.48043 11.1054 1.29289 11.2929C1.10536 11.4804 1 11.7348 1 12C1 12.2652 1.10536 12.5196 1.29289 12.7071C1.48043 12.8946 1.73478 13 2 13H3.5V26C3.50061 26.5302 3.71151 27.0386 4.08646 27.4135C4.4614 27.7885 4.96975 27.9994 5.5 28H8.5C9.03025 27.9994 9.5386 27.7885 9.91354 27.4135C10.2885 27.0386 10.4994 26.5302 10.5 26V23H13V16C13 15.7348 13.1054 15.4804 13.2929 15.2929C13.4804 15.1054 13.7348 15 14 15C14.2652 15 14.5196 15.1054 14.7071 15.2929C14.8946 15.4804 15 15.7348 15 16V23H17V16C17 15.7348 17.1054 15.4804 17.2929 15.2929C17.4804 15.1054 17.7348 15 18 15C18.2652 15 18.5196 15.1054 18.7071 15.2929C18.8946 15.4804 19 15.7348 19 16V23H21.5V26C21.5006 26.5302 21.7115 27.0386 22.0865 27.4135C22.4614 27.7885 22.9698 27.9994 23.5 28H26.5C27.0302 27.9994 27.5386 27.7885 27.9135 27.4135C28.2885 27.0386 28.4994 26.5302 28.5 26V13H30C30.2652 13 30.5196 12.8946 30.7071 12.7071C30.8946 12.5196 31 12.2652 31 12C31 11.7348 30.8946 11.4804 30.7071 11.2929C30.5196 11.1054 30.2652 11 30 11ZM9 18C8.70333 18 8.41332 17.912 8.16665 17.7472C7.91997 17.5824 7.72771 17.3481 7.61418 17.074C7.50065 16.7999 7.47094 16.4983 7.52882 16.2074C7.5867 15.9164 7.72956 15.6491 7.93934 15.4393C8.14912 15.2296 8.41639 15.0867 8.70736 15.0288C8.99834 14.9709 9.29994 15.0006 9.57403 15.1142C9.84811 15.2277 10.0824 15.42 10.2472 15.6666C10.412 15.9133 10.5 16.2033 10.5 16.5C10.5 16.8978 10.342 17.2794 10.0607 17.5607C9.77936 17.842 9.39782 18 9 18ZM23 18C22.7033 18 22.4133 17.912 22.1666 17.7472C21.92 17.5824 21.7277 17.3481 21.6142 17.074C21.5007 16.7999 21.4709 16.4983 21.5288 16.2074C21.5867 15.9164 21.7296 15.6491 21.9393 15.4393C22.1491 15.2296 22.4164 15.0867 22.7074 15.0288C22.9983 14.9709 23.2999 15.0006 23.574 15.1142C23.8481 15.2277 24.0824 15.42 24.2472 15.6666C24.412 15.9133 24.5 16.2033 24.5 16.5C24.5 16.8978 24.342 17.2794 24.0607 17.5607C23.7794 17.842 23.3978 18 23 18Z"/>
</svg>
