<svg   viewBox="0 0 32 32" fill="none" xmlns="http://www.w3.org/2000/svg">
<path d="M16 1.99963C13.0837 2.00309 10.2878 3.16313 8.22565 5.22528C6.1635 7.28743 5.00346 10.0833 5 12.9996C5 22.4117 15 29.5211 15.4258 29.819C15.5942 29.9366 15.7946 29.9996 16 29.9996C16.2054 29.9996 16.4058 29.9366 16.5742 29.819C17 29.5211 27 22.4117 27 12.9996C26.9965 10.0833 25.8365 7.28743 23.7744 5.22528C21.7122 3.16313 18.9163 2.00309 16 1.99963V1.99963ZM16.0007 9C16.7919 9 17.5652 9.23459 18.223 9.67412C18.8808 10.1136 19.3935 10.7384 19.6963 11.4693C19.999 12.2002 20.0782 13.0044 19.9239 13.7804C19.7695 14.5563 19.3886 15.269 18.8292 15.8284C18.2697 16.3878 17.557 16.7688 16.7811 16.9231C16.0052 17.0775 15.2009 16.9983 14.47 16.6955C13.7391 16.3928 13.1144 15.8801 12.6749 15.2223C12.2353 14.5645 12.0007 13.7911 12.0007 13C12.0007 12.4747 12.1042 11.9546 12.3052 11.4692C12.5062 10.9839 12.8008 10.543 13.1723 10.1715C13.5437 9.8001 13.9847 9.50546 14.47 9.30445C14.9553 9.10343 15.4754 8.99998 16.0007 9V9Z" fill="black"/>
</svg>
