<svg   viewBox="0 0 32 32" fill="none" xmlns="http://www.w3.org/2000/svg">
<path d="M25 28H18.8175C19.8577 27.0728 20.8386 26.0813 21.7546 25.0312C25.1862 21.0848 27 16.9246 27 13C27 10.0826 25.8411 7.28473 23.7782 5.22183C21.7153 3.15893 18.9174 2 16 2C13.0826 2 10.2847 3.15893 8.22183 5.22183C6.15893 7.28473 5 10.0826 5 13C5 16.9246 6.81384 21.0848 10.2454 25.0312C11.1614 26.0813 12.1423 27.0728 13.1825 28H7C6.73478 28 6.48043 28.1054 6.29289 28.2929C6.10536 28.4804 6 28.7348 6 29C6 29.2652 6.10536 29.5196 6.29289 29.7071C6.48043 29.8946 6.73478 30 7 30H25C25.2652 30 25.5196 29.8946 25.7071 29.7071C25.8946 29.5196 26 29.2652 26 29C26 28.7348 25.8946 28.4804 25.7071 28.2929C25.5196 28.1054 25.2652 28 25 28ZM16 9C16.7912 9 17.5645 9.2346 18.2223 9.67412C18.8801 10.1136 19.3928 10.7384 19.6955 11.4693C19.9983 12.2002 20.0775 13.0044 19.9232 13.7804C19.7688 14.5563 19.3879 15.269 18.8285 15.8284C18.269 16.3878 17.5563 16.7688 16.7804 16.9231C16.0045 17.0775 15.2002 16.9983 14.4693 16.6955C13.7384 16.3928 13.1137 15.8801 12.6742 15.2223C12.2346 14.5645 12 13.7911 12 13C12 12.4747 12.1035 11.9546 12.3045 11.4693C12.5055 10.984 12.8002 10.543 13.1716 10.1716C13.543 9.80013 13.984 9.50549 14.4693 9.30447C14.9546 9.10345 15.4747 9 16 9V9Z" fill="black"/>
</svg>
