<svg viewBox="0 0 32 32" xmlns="http://www.w3.org/2000/svg">
<path d="M28.6154 6.21175C28.4956 6.11822 28.3561 6.05323 28.2074 6.0217C28.0588 5.99018 27.9049 5.99295 27.7574 6.0298L20.1164 7.94008L12.4473 4.10551C12.4451 4.10442 12.4428 4.10374 12.4405 4.10268C12.4056 4.08548 12.3697 4.07033 12.3329 4.0573C12.3265 4.05501 12.3199 4.0534 12.3134 4.05123C12.2829 4.04113 12.2518 4.0325 12.2202 4.02535C12.21 4.02304 12.1997 4.02096 12.1894 4.01898C12.1596 4.01321 12.1295 4.00884 12.099 4.00585C12.0903 4.00497 12.0817 4.00372 12.073 4.00308C12.0339 4.00005 11.9947 3.99935 11.9555 4.00097L11.9525 4.00125C11.9155 4.00318 11.8786 4.00717 11.8421 4.01321C11.8296 4.01522 11.8172 4.01803 11.8048 4.02053C11.789 4.02365 11.7732 4.02587 11.7574 4.02981L3.75744 6.02981C3.54109 6.0839 3.34902 6.20876 3.21178 6.38454C3.07454 6.56033 3 6.77694 3 6.99995V25C3.00001 25.1519 3.03465 25.3019 3.10129 25.4385C3.16794 25.575 3.26483 25.6946 3.38461 25.7881C3.50439 25.8817 3.64391 25.9467 3.79257 25.9782C3.94123 26.0097 4.09512 26.007 4.24255 25.9701L11.8837 24.0598L19.5527 27.8944C19.5573 27.8966 19.5621 27.8981 19.5667 27.9003C19.5937 27.9134 19.6213 27.9252 19.6495 27.9359C19.6548 27.9378 19.6599 27.9401 19.6652 27.942C19.6986 27.9538 19.7326 27.9639 19.767 27.9722C19.7724 27.9734 19.7777 27.9744 19.7831 27.9756C19.8131 27.9823 19.8435 27.9875 19.8742 27.9914C19.8806 27.9922 19.8869 27.9931 19.8932 27.9938C19.9719 28.0032 20.0514 28.0022 20.1298 27.991C20.1438 27.9892 20.1575 27.9857 20.1714 27.9833C20.1951 27.9792 20.2188 27.976 20.2426 27.9701L28.2426 25.9701C28.4589 25.916 28.651 25.7912 28.7882 25.6154C28.9255 25.4396 29 25.223 29 25V6.99995C29 6.84798 28.9654 6.698 28.8987 6.56142C28.8321 6.42484 28.7352 6.30526 28.6154 6.21175ZM19 25.3819L13 22.3819V6.618L19 9.618V25.3819Z"/>
</svg>
