<svg viewBox="0 0 32 32" xmlns="http://www.w3.org/2000/svg">
<path d="M27.4343 11.0542L6.27144 3.72847C5.91676 3.60567 5.53468 3.58516 5.16889 3.66929C4.8031 3.75341 4.46836 3.93877 4.20296 4.20418C3.93755 4.46958 3.75219 4.80432 3.66807 5.17011C3.58394 5.5359 3.60445 5.91798 3.72725 6.27266L11.0528 27.4356C11.1847 27.8307 11.4385 28.1738 11.7776 28.4156C12.1167 28.6573 12.5238 28.7854 12.9403 28.7813C12.9526 28.7813 12.9652 28.7812 12.9775 28.781C13.4004 28.7782 13.8112 28.6395 14.1491 28.3853C14.4871 28.1312 14.7344 27.775 14.8543 27.3695L17.7988 17.8001L27.3684 14.8557C27.7715 14.7316 28.125 14.4833 28.3785 14.1462C28.632 13.8091 28.7724 13.4005 28.7797 12.9788C28.7871 12.5571 28.6609 12.1439 28.4192 11.7982C28.1776 11.4526 27.8328 11.1921 27.4343 11.0542H27.4343Z"/>
</svg>
