<svg viewBox="0 0 32 32" xmlns="http://www.w3.org/2000/svg">
<path d="M25 21C24.1135 21.0011 23.2523 21.2962 22.5514 21.8391C21.8505 22.382 21.3494 23.1419 21.1266 24H9C7.93913 24 6.92172 23.5786 6.17157 22.8284C5.42143 22.0783 5 21.0609 5 20C5 18.9391 5.42143 17.9217 6.17157 17.1716C6.92172 16.4214 7.93913 16 9 16H21C22.3261 16 23.5979 15.4732 24.5355 14.5355C25.4732 13.5979 26 12.3261 26 11C26 9.67392 25.4732 8.40215 24.5355 7.46447C23.5979 6.52678 22.3261 6 21 6H9C8.73478 6 8.48043 6.10536 8.29289 6.29289C8.10536 6.48043 8 6.73478 8 7C8 7.26522 8.10536 7.51957 8.29289 7.70711C8.48043 7.89464 8.73478 8 9 8H21C21.7956 8 22.5587 8.31607 23.1213 8.87868C23.6839 9.44129 24 10.2044 24 11C24 11.7956 23.6839 12.5587 23.1213 13.1213C22.5587 13.6839 21.7956 14 21 14H9C7.4087 14 5.88258 14.6321 4.75736 15.7574C3.63214 16.8826 3 18.4087 3 20C3 21.5913 3.63214 23.1174 4.75736 24.2426C5.88258 25.3679 7.4087 26 9 26H21.1266C21.3136 26.7244 21.7 27.3819 22.2419 27.8977C22.7839 28.4135 23.4596 28.767 24.1924 28.918C24.9251 29.0691 25.6856 29.0115 26.3873 28.752C27.089 28.4925 27.7039 28.0414 28.1621 27.45C28.6203 26.8585 28.9034 26.1504 28.9794 25.4061C29.0553 24.6618 28.9209 23.9111 28.5916 23.2393C28.2622 22.5675 27.7511 22.0016 27.1162 21.6057C26.4813 21.2099 25.7482 21 25 21V21Z"/>
</svg>
