<svg viewBox="0 0 32 32" xmlns="http://www.w3.org/2000/svg">
<path d="M18 27H14C13.7348 27 13.4804 27.1054 13.2929 27.2929C13.1054 27.4804 13 27.7348 13 28C13 28.2652 13.1054 28.5196 13.2929 28.7071C13.4804 28.8946 13.7348 29 14 29H18C18.2652 29 18.5196 28.8946 18.7071 28.7071C18.8946 28.5196 19 28.2652 19 28C19 27.7348 18.8946 27.4804 18.7071 27.2929C18.5196 27.1054 18.2652 27 18 27Z"/>
<path d="M27.4558 17.9824L23.6762 13.4469C23.5553 11.953 23.2194 10.4843 22.6787 9.08648C21.2265 5.30999 18.6591 2.83661 17.258 1.6983C16.9027 1.41231 16.4607 1.25568 16.0046 1.25416C15.5485 1.25264 15.1054 1.40632 14.7482 1.68994C13.3288 2.82708 10.7285 5.29864 9.26166 9.07568C8.70286 10.5052 8.36168 12.0104 8.24952 13.5411L4.54853 17.9824C4.35357 18.2178 4.21479 18.4945 4.14271 18.7915C4.07063 19.0885 4.06714 19.3981 4.13252 19.6967L5.67793 26.6508C5.75116 26.9826 5.9078 27.2902 6.13305 27.5447C6.3583 27.7991 6.64471 27.9918 6.96521 28.1047C7.28571 28.2177 7.6297 28.247 7.96468 28.1899C8.29966 28.1328 8.61455 27.9913 8.87959 27.7786L12.3528 25.0001H19.6514L23.1246 27.7786C23.4776 28.0628 23.917 28.2179 24.3702 28.2183C24.5979 28.2181 24.8239 28.1792 25.0385 28.1033C25.3594 27.9915 25.6463 27.7992 25.8718 27.5449C26.0972 27.2906 26.2537 26.9828 26.3264 26.6508L27.8718 19.6968C27.9371 19.3982 27.9337 19.0886 27.8616 18.7916C27.7895 18.4946 27.6507 18.2178 27.4558 17.9824V17.9824ZM7.63031 26.2169L6.0849 19.2628L8.32572 16.5737C8.60981 18.9102 9.40732 21.3011 10.7183 23.7466L7.63031 26.2169ZM16.0021 13.5001C15.7055 13.5001 15.4155 13.4121 15.1688 13.2473C14.9221 13.0824 14.7299 12.8482 14.6163 12.5741C14.5028 12.3 14.4731 11.9984 14.531 11.7074C14.5888 11.4164 14.7317 11.1492 14.9415 10.9394C15.1513 10.7296 15.4185 10.5868 15.7095 10.5289C16.0005 10.471 16.3021 10.5007 16.5762 10.6142C16.8503 10.7278 17.0845 10.92 17.2493 11.1667C17.4142 11.4134 17.5021 11.7034 17.5021 12.0001C17.5021 12.3979 17.3441 12.7794 17.0628 13.0607C16.7815 13.342 16.4 13.5001 16.0021 13.5001ZM24.374 26.2169L21.2802 23.7419C22.5745 21.2793 23.3554 18.8678 23.6232 16.5073L25.9194 19.2628L24.374 26.2169Z"/>
</svg>
