<svg   viewBox="0 0 32 32" fill="none" xmlns="http://www.w3.org/2000/svg">
<path d="M12.0748 22.1224C11.8232 22.0385 11.5486 22.0581 11.3113 22.1767C11.0741 22.2953 10.8937 22.5033 10.8098 22.7549C9.99072 25.2122 7.323 25.9733 5.79273 26.2086C6.02808 24.6776 6.78919 22.0104 9.24646 21.1914C9.37112 21.1499 9.48639 21.0843 9.58568 20.9982C9.68497 20.9122 9.76633 20.8074 9.82511 20.6899C9.8839 20.5724 9.91896 20.4445 9.92829 20.3135C9.93761 20.1824 9.92103 20.0508 9.87948 19.9262C9.83793 19.8015 9.77222 19.6863 9.68612 19.5871C9.60002 19.4879 9.49521 19.4066 9.37768 19.3478C9.26015 19.2891 9.1322 19.2542 9.00115 19.2449C8.87009 19.2357 8.7385 19.2523 8.61389 19.294C6.56885 19.9757 5.06653 21.6003 4.26917 23.9923C3.91442 25.0652 3.71846 26.1842 3.6875 27.3137C3.68751 27.579 3.79287 27.8333 3.98041 28.0208C4.16794 28.2084 4.42229 28.3137 4.6875 28.3137C5.81707 28.2828 6.93604 28.0868 8.00891 27.7321C10.4009 26.9348 12.0255 25.4324 12.7073 23.3873C12.7911 23.1357 12.7716 22.8611 12.653 22.6239C12.5344 22.3867 12.3264 22.2063 12.0748 22.1224Z" fill="black"/>
<path d="M28.448 5.22757C28.3865 4.80408 28.1898 4.4118 27.8872 4.10922C27.5846 3.80664 27.1923 3.60995 26.7688 3.54849C25.358 3.33798 21.6912 3.23434 18.1177 6.80765L16.9964 7.92898H9.3396C9.07685 7.92829 8.81656 7.9797 8.5738 8.08024C8.33104 8.18079 8.11062 8.32846 7.9253 8.51473L3.88257 12.5575C3.62662 12.8135 3.44495 13.1342 3.35692 13.4853C3.26888 13.8364 3.2778 14.2048 3.38271 14.5513C3.48762 14.8978 3.6846 15.2092 3.95263 15.4525C4.22066 15.6958 4.54971 15.8618 4.90467 15.9328L9.84653 16.9212L15.0753 22.1499L16.0636 27.0918C16.1345 27.4469 16.3005 27.776 16.5438 28.0441C16.7871 28.3122 17.0986 28.5093 17.4451 28.6142C17.7917 28.7191 18.1602 28.728 18.5113 28.6398C18.8625 28.5517 19.1832 28.3699 19.4391 28.1138L23.4818 24.071C23.6681 23.8857 23.8158 23.6653 23.9163 23.4226C24.0168 23.1799 24.0682 22.9196 24.0675 22.6569V15L25.1888 13.8787C28.7623 10.3052 28.6586 6.63833 28.448 5.22757ZM9.3396 9.92898H14.9964L10.0109 14.9145L5.29688 13.9717L9.3396 9.92898ZM22.0675 22.6569L18.0248 26.6996L17.082 21.9856L22.0675 17.0001L22.0675 22.6569Z" fill="black"/>
</svg>
