<svg   viewBox="0 0 32 32" fill="none" xmlns="http://www.w3.org/2000/svg">
<path d="M27.0001 8H21.9993V7C21.9984 6.20464 21.6821 5.44212 21.1197 4.87971C20.5573 4.31729 19.7948 4.00092 18.9994 4H12.9996C12.2043 4.00092 11.4418 4.31729 10.8794 4.87971C10.317 5.44212 10.0006 6.20464 9.99974 7V8H5.0009C4.47066 8.00062 3.96232 8.21153 3.58739 8.58647C3.21247 8.96141 3.00157 9.46976 3.00098 10V19.9807C3.00085 19.9872 3 19.9935 3 20C3 20.0065 3.00086 20.0128 3.00098 20.0193V26C3.00157 26.5302 3.21247 27.0386 3.58739 27.4135C3.96232 27.7885 4.47066 27.9994 5.0009 28H27.0001C27.5303 27.9994 28.0387 27.7885 28.4136 27.4135C28.7885 27.0386 28.9994 26.5302 29 26V10C28.9994 9.46976 28.7885 8.96141 28.4136 8.58647C28.0387 8.21153 27.5303 8.00062 27.0001 8V8ZM11.9997 7C12 6.73488 12.1054 6.48071 12.2929 6.29324C12.4803 6.10576 12.7345 6.00031 12.9996 6H18.9994C19.2645 6.00031 19.5187 6.10576 19.7062 6.29324C19.8936 6.48071 19.9991 6.73488 19.9994 7V8H11.9997V7ZM27.0001 10L27.0008 19H5.0009V10H27.0001Z" fill="black"/>
</svg>
