<svg   viewBox="0 0 32 32" fill="none" xmlns="http://www.w3.org/2000/svg">
<path d="M27 8H21.999V7C21.9981 6.20463 21.6818 5.4421 21.1193 4.87968C20.5569 4.31727 19.7944 4.00091 18.999 4H12.999C12.2037 4.00091 11.4411 4.31727 10.8787 4.87968C10.3163 5.4421 9.99993 6.20463 9.99902 7V8H5C4.46975 8.00061 3.9614 8.21151 3.58646 8.58646C3.21151 8.9614 3.00061 9.46975 3 10V26C3.00061 26.5302 3.21151 27.0386 3.58646 27.4135C3.9614 27.7885 4.46975 27.9994 5 28H27C27.5302 27.9994 28.0386 27.7885 28.4135 27.4135C28.7885 27.0386 28.9994 26.5302 29 26V10C28.9994 9.46975 28.7885 8.9614 28.4135 8.58646C28.0386 8.21151 27.5302 8.00061 27 8V8ZM11.999 10H19.999V26H11.999V10ZM11.999 7C11.9993 6.73488 12.1048 6.4807 12.2923 6.29323C12.4797 6.10576 12.7339 6.0003 12.999 6H18.999C19.2641 6.0003 19.5183 6.10576 19.7058 6.29323C19.8933 6.4807 19.9987 6.73488 19.999 7V8H11.999V7Z" fill="black"/>
</svg>
