<svg   viewBox="0 0 32 32" fill="none" xmlns="http://www.w3.org/2000/svg">
<path d="M30.4988 14.5857L17.4131 1.50012C17.2274 1.31437 17.007 1.16702 16.7643 1.06648C16.5217 0.965948 16.2616 0.914196 15.9989 0.914185C15.7363 0.914173 15.4762 0.965902 15.2335 1.06642C14.9908 1.16693 14.7704 1.31426 14.5846 1.5L1.4987 14.5858C1.12429 14.9613 0.914039 15.4699 0.914063 16.0001C0.914086 16.5303 1.12438 17.0389 1.49883 17.4143L14.5845 30.4999C14.7702 30.6856 14.9907 30.833 15.2333 30.9335C15.476 31.034 15.7361 31.0858 15.9987 31.0858C16.2614 31.0858 16.5215 31.0341 16.7641 30.9336C17.0068 30.8331 17.2273 30.6857 17.413 30.5L30.499 17.4142C30.8734 17.0387 31.0836 16.5301 31.0836 15.9999C31.0836 15.4697 30.8733 14.9611 30.4988 14.5857V14.5857ZM21.9987 15.0027C21.9986 15.0347 21.997 15.0667 21.9938 15.0986C21.9924 15.1136 21.9895 15.1283 21.9874 15.1432C21.9849 15.1606 21.9829 15.1781 21.9794 15.1954C21.9761 15.2123 21.9715 15.2286 21.9673 15.2452C21.9635 15.2603 21.9602 15.2753 21.9557 15.2902C21.9507 15.3065 21.9447 15.3222 21.9389 15.3381C21.9336 15.353 21.9288 15.368 21.9226 15.3826C21.9165 15.3973 21.9094 15.4114 21.9026 15.4257C21.8954 15.441 21.8887 15.4565 21.8806 15.4714C21.8734 15.4849 21.8652 15.4977 21.8573 15.5108C21.8485 15.5257 21.84 15.5408 21.8303 15.5554C21.8208 15.5695 21.8102 15.5829 21.8 15.5965C21.7907 15.609 21.782 15.6218 21.772 15.634C21.7534 15.6567 21.7336 15.6784 21.7131 15.6993C21.7106 15.7019 21.7084 15.7046 21.7059 15.7072L18.7059 18.7072C18.5184 18.8947 18.264 19 17.9988 19C17.7336 19 17.4792 18.8947 17.2917 18.7071C17.1041 18.5196 16.9988 18.2652 16.9988 18C16.9988 17.7347 17.1042 17.4804 17.2917 17.2929L18.5846 16H13.9988C13.4686 16.0006 12.9602 16.2115 12.5853 16.5865C12.2103 16.9614 11.9994 17.4698 11.9988 18V19C11.9988 19.2652 11.8935 19.5196 11.7059 19.7071C11.5184 19.8946 11.264 20 10.9988 20C10.7336 20 10.4793 19.8946 10.2917 19.7071C10.1042 19.5196 9.99883 19.2652 9.99883 19V18C10 16.9395 10.4219 15.9228 11.1717 15.1729C11.9216 14.423 12.9383 14.0012 13.9988 14H18.5846L17.2917 12.7072C17.1042 12.5196 16.9988 12.2653 16.9988 12C16.9988 11.7348 17.1041 11.4805 17.2917 11.2929C17.4792 11.1054 17.7336 11 17.9988 11C18.264 11 18.5184 11.1053 18.7059 11.2928L21.7059 14.2928C21.7084 14.2954 21.7106 14.2982 21.7131 14.3007C21.7336 14.3217 21.7534 14.3433 21.772 14.366C21.782 14.3782 21.7907 14.391 21.8 14.4035C21.8102 14.4171 21.8208 14.4305 21.8303 14.4446C21.84 14.4592 21.8485 14.4743 21.8573 14.4892C21.8652 14.5023 21.8734 14.5151 21.8806 14.5286C21.8886 14.5435 21.8954 14.559 21.9026 14.5743C21.9094 14.5886 21.9165 14.6027 21.9226 14.6174C21.9287 14.632 21.9336 14.647 21.9389 14.6619C21.9447 14.6778 21.9507 14.6935 21.9557 14.7098C21.9602 14.7247 21.9635 14.7398 21.9673 14.7548C21.9715 14.7714 21.9761 14.7877 21.9794 14.8046C21.9829 14.8219 21.9849 14.8394 21.9874 14.8568C21.9895 14.8717 21.9924 14.8864 21.9938 14.9014C21.997 14.9333 21.9986 14.9652 21.9987 14.9973L21.9988 15L21.9987 15.0027Z" fill="black"/>
</svg>
