<svg viewBox="0 0 32 32" xmlns="http://www.w3.org/2000/svg">
<path d="M20 10H12C11.7348 10 11.4804 10.1054 11.2929 10.2929C11.1054 10.4804 11 10.7348 11 11C11 11.2652 11.1054 11.5196 11.2929 11.7071C11.4804 11.8946 11.7348 12 12 12H20C20.2652 12 20.5196 11.8946 20.7071 11.7071C20.8946 11.5196 21 11.2652 21 11C21 10.7348 20.8946 10.4804 20.7071 10.2929C20.5196 10.1054 20.2652 10 20 10Z"/>
<path d="M27.9983 14.9821C27.9977 14.9505 27.9955 14.9188 27.9919 14.8869C27.9905 14.8747 27.9891 14.8626 27.9872 14.8505C27.9857 14.8407 27.9851 14.8309 27.9834 14.8211C27.9793 14.7985 27.9734 14.7768 27.9679 14.7549C27.9664 14.7489 27.9658 14.7428 27.9642 14.7369L27.9601 14.7218L27.9599 14.7213L25.1651 4.47375C25.0491 4.05084 24.7975 3.67767 24.449 3.41147C24.1005 3.14526 23.6742 3.00072 23.2357 3H8.76329C8.32473 3.00072 7.89852 3.14526 7.55001 3.41147C7.20149 3.67767 6.94991 4.05084 6.83384 4.47375L4.03907 14.7211L4.03882 14.722L4.03476 14.7369C4.03318 14.7428 4.03266 14.7488 4.03116 14.7547C4.02561 14.7767 4.01972 14.7985 4.0156 14.8211C4.01383 14.8309 4.01325 14.8407 4.01175 14.8505C4.00992 14.8626 4.00843 14.8747 4.00705 14.8869C4.00339 14.9188 4.00127 14.9506 4.00071 14.9821C4.00055 14.9905 3.99994 14.9988 4 15.0072C4.00017 15.0485 4.00291 15.0898 4.00821 15.1308C4.00855 15.1333 4.00916 15.1358 4.00953 15.1384C4.01492 15.1761 4.02248 15.2134 4.03217 15.2502C4.03327 15.2545 4.0336 15.2589 4.03476 15.2631L6.83384 25.5261C6.9499 25.9491 7.20147 26.3222 7.54998 26.5885C7.8985 26.8547 8.32472 26.9993 8.76329 27H9.99946L8.19944 29.4C8.04032 29.6122 7.972 29.8789 8.00953 30.1415C8.04705 30.404 8.18733 30.6409 8.39952 30.8C8.6117 30.9592 8.87841 31.0275 9.14097 30.99C9.40352 30.9524 9.64042 30.8122 9.79954 30.6L12.4995 27H19.4995L22.1994 30.6C22.3586 30.8122 22.5955 30.9524 22.858 30.99C23.1206 31.0275 23.3873 30.9592 23.5995 30.8C23.8117 30.6409 23.9519 30.404 23.9895 30.1415C24.027 29.8789 23.9587 29.6122 23.7995 29.4L21.9995 27H23.2357C23.6743 26.9993 24.1005 26.8547 24.449 26.5885C24.7975 26.3222 25.0491 25.9491 25.1651 25.5261L27.9642 15.2631C27.9654 15.2589 27.9657 15.2545 27.9668 15.2502C27.9765 15.2134 27.9841 15.1761 27.9895 15.1384C27.9898 15.1358 27.9904 15.1333 27.9908 15.1308C27.9961 15.0898 27.9988 15.0485 27.999 15.0072C27.999 14.9988 27.9984 14.9905 27.9983 14.9821ZM16.9995 24C16.9995 24.2652 16.8941 24.5196 16.7066 24.7071C16.5191 24.8946 16.2647 25 15.9995 25C15.7343 25 15.4799 24.8946 15.2924 24.7071C15.1048 24.5196 14.9995 24.2652 14.9995 24V19C14.9995 18.7348 15.1048 18.4804 15.2924 18.2929C15.4799 18.1054 15.7343 18 15.9995 18C16.2647 18 16.5191 18.1054 16.7066 18.2929C16.8941 18.4804 16.9995 18.7348 16.9995 19V24ZM15.9995 15.9836L6.25108 14.2112L8.7628 5H23.2357L25.7478 14.2112L15.9995 15.9836Z"/>
</svg>
