<svg viewBox="0 0 32 32" xmlns="http://www.w3.org/2000/svg">
<path d="M23.5 3H8.5C7.43951 3.00121 6.4228 3.42303 5.67291 4.17291C4.92303 4.9228 4.50121 5.93951 4.5 7V23C4.50121 24.0605 4.92303 25.0772 5.67291 25.8271C6.4228 26.577 7.43951 26.9988 8.5 27H9.99997L8.19995 29.4C8.04083 29.6122 7.97251 29.8789 8.01003 30.1415C8.04755 30.404 8.18784 30.6409 8.40003 30.8C8.61221 30.9592 8.87892 31.0275 9.14147 30.99C9.40403 30.9524 9.64093 30.8122 9.80005 30.6L12.5 27H19.5L22.2 30.6C22.3591 30.8122 22.596 30.9524 22.8585 30.99C23.1211 31.0275 23.3878 30.9592 23.6 30.8C23.8122 30.6409 23.9524 30.404 23.99 30.1415C24.0275 29.8789 23.9592 29.6122 23.8 29.4L22 27H23.5C24.5605 26.9988 25.5772 26.577 26.3271 25.8271C27.077 25.0772 27.4988 24.0605 27.5 23V7C27.4988 5.93951 27.077 4.9228 26.3271 4.17291C25.5772 3.42303 24.5605 3.00121 23.5 3V3ZM23.5 25H8.5C7.96975 24.9994 7.4614 24.7885 7.08646 24.4135C6.71151 24.0386 6.50061 23.5302 6.5 23V17H25.5V23C25.4994 23.5302 25.2885 24.0386 24.9135 24.4135C24.5386 24.7885 24.0302 24.9994 23.5 25V25Z"/>
<path d="M10.5 23C11.3284 23 12 22.3284 12 21.5C12 20.6716 11.3284 20 10.5 20C9.67157 20 9 20.6716 9 21.5C9 22.3284 9.67157 23 10.5 23Z"/>
<path d="M21.5 23C22.3284 23 23 22.3284 23 21.5C23 20.6716 22.3284 20 21.5 20C20.6716 20 20 20.6716 20 21.5C20 22.3284 20.6716 23 21.5 23Z"/>
</svg>
