<svg viewBox="0 0 32 32" xmlns="http://www.w3.org/2000/svg">
<path d="M23.5 3H8.5C7.43951 3.00121 6.4228 3.42303 5.67291 4.17291C4.92303 4.9228 4.50121 5.93951 4.5 7V23C4.50121 24.0605 4.92303 25.0772 5.67291 25.8271C6.4228 26.577 7.43951 26.9988 8.5 27H9.99997L8.19995 29.4C8.04083 29.6122 7.97251 29.8789 8.01003 30.1415C8.04755 30.404 8.18784 30.6409 8.40003 30.8C8.61221 30.9592 8.87892 31.0275 9.14147 30.99C9.40403 30.9524 9.64093 30.8122 9.80005 30.6L12.5 27H19.5L22.2 30.6C22.3591 30.8122 22.596 30.9524 22.8585 30.99C23.1211 31.0275 23.3878 30.9592 23.6 30.8C23.8122 30.6409 23.9524 30.404 23.99 30.1415C24.0275 29.8789 23.9592 29.6122 23.8 29.4L22 27H23.5C24.5605 26.9988 25.5772 26.577 26.3271 25.8271C27.077 25.0772 27.4988 24.0605 27.5 23V7C27.4988 5.93951 27.077 4.9228 26.3271 4.17291C25.5772 3.42303 24.5605 3.00121 23.5 3V3ZM10.5 23C10.2033 23 9.91332 22.912 9.66665 22.7472C9.41997 22.5824 9.22771 22.3481 9.11418 22.074C9.00065 21.7999 8.97094 21.4983 9.02882 21.2074C9.0867 20.9164 9.22956 20.6491 9.43934 20.4393C9.64912 20.2296 9.91639 20.0867 10.2074 20.0288C10.4983 19.9709 10.7999 20.0007 11.074 20.1142C11.3481 20.2277 11.5824 20.42 11.7472 20.6666C11.912 20.9133 12 21.2033 12 21.5C12 21.8978 11.842 22.2794 11.5607 22.5607C11.2794 22.842 10.8978 23 10.5 23ZM15 15H6.5V10H15V15ZM21.5 23C21.2033 23 20.9133 22.912 20.6666 22.7472C20.42 22.5824 20.2277 22.3481 20.1142 22.074C20.0007 21.7999 19.9709 21.4983 20.0288 21.2074C20.0867 20.9164 20.2296 20.6491 20.4393 20.4393C20.6491 20.2296 20.9164 20.0867 21.2074 20.0288C21.4983 19.9709 21.7999 20.0007 22.074 20.1142C22.3481 20.2277 22.5824 20.42 22.7472 20.6666C22.912 20.9133 23 21.2033 23 21.5C23 21.8978 22.842 22.2794 22.5607 22.5607C22.2794 22.842 21.8978 23 21.5 23ZM25.5 15H17V10H25.5V15Z"/>
</svg>
