<svg viewBox="0 0 24 24" xmlns="http://www.w3.org/2000/svg">
<g clip-path="url(#clip0_61_17455)">
<path d="M19 3.00098H5C3.9 3.00098 3 3.90098 3 5.00098V19.001C3 20.101 3.9 21.001 5 21.001H19C20.1 21.001 21 20.101 21 19.001V5.00098C21 3.90098 20.1 3.00098 19 3.00098ZM10.71 16.291C10.32 16.681 9.69 16.681 9.3 16.291L5.71 12.701C5.32 12.311 5.32 11.681 5.71 11.291C6.1 10.901 6.73 10.901 7.12 11.291L10 14.171L16.88 7.29098C17.27 6.90098 17.9 6.90098 18.29 7.29098C18.68 7.68098 18.68 8.31098 18.29 8.70098L10.71 16.291V16.291Z"/>
</g>
<defs>
<clipPath id="clip0_61_17455">
<rect transform="translate(0 0.000976562)"/>
</clipPath>
</defs>
</svg>
