<svg   viewBox="0 0 24 24" fill="none" xmlns="http://www.w3.org/2000/svg">
<g clip-path="url(#clip0_61_17463)">
<path d="M19.6523 9.04098L14.8123 8.62098L12.9223 4.17098C12.5823 3.36098 11.4223 3.36098 11.0823 4.17098L9.19227 8.63098L4.36227 9.04098C3.48227 9.11098 3.12227 10.211 3.79227 10.791L7.46227 13.971L6.36227 18.691C6.16227 19.551 7.09227 20.231 7.85227 19.771L12.0023 17.271L16.1523 19.781C16.9123 20.241 17.8423 19.561 17.6423 18.701L16.5423 13.971L20.2123 10.791C20.8823 10.211 20.5323 9.11098 19.6523 9.04098V9.04098ZM12.0023 15.401L8.24227 17.671L9.24227 13.391L5.92227 10.511L10.3023 10.131L12.0023 6.10098L13.7123 10.141L18.0923 10.521L14.7723 13.401L15.7723 17.681L12.0023 15.401Z" fill="black"/>
</g>
<defs>
<clipPath id="clip0_61_17463">
<rect width="24" height="24" fill="white" transform="translate(0 0.000976562)"/>
</clipPath>
</defs>
</svg>
