<svg viewBox="0 0 24 24" xmlns="http://www.w3.org/2000/svg">
<path fill-rule="evenodd" clip-rule="evenodd" d="M9.09609 15.5H7.75409V8.18504C8.23809 8.09704 8.90909 8.03104 9.82209 8.03104C10.8121 8.03104 11.5381 8.24004 12.0111 8.63604C12.4511 8.99904 12.7371 9.58204 12.7371 10.275C12.7371 10.979 12.5171 11.562 12.0991 11.958C11.5601 12.497 10.7131 12.75 9.75609 12.75C9.50309 12.75 9.27209 12.739 9.09609 12.706V15.5ZM9.87709 9.06504C9.50309 9.06504 9.23909 9.09804 9.09609 9.13104V11.639C9.26109 11.683 9.48109 11.694 9.75609 11.694C10.7681 11.694 11.3841 11.199 11.3841 10.33C11.3841 9.50504 10.8121 9.06504 9.87709 9.06504Z"/>
<path d="M14.4653 15.621C13.8163 15.621 13.2333 15.456 12.8373 15.236L13.1013 14.257C13.4093 14.444 13.9923 14.642 14.4763 14.642C15.0703 14.642 15.3343 14.4 15.3343 14.048C15.3343 13.685 15.1143 13.498 14.4543 13.267C13.4093 12.904 12.9693 12.332 12.9803 11.705C12.9803 10.759 13.7613 10.022 15.0043 10.022C15.5983 10.022 16.1153 10.176 16.4233 10.341L16.1593 11.298C15.9283 11.166 15.4993 10.99 15.0263 10.99C14.5423 10.99 14.2783 11.221 14.2783 11.551C14.2783 11.892 14.5313 12.057 15.2133 12.299C16.1813 12.651 16.6323 13.146 16.6433 13.938C16.6433 14.906 15.8843 15.621 14.4653 15.621Z"/>
<path fill-rule="evenodd" clip-rule="evenodd" d="M17.2589 2.83306C13.7924 2.44562 10.209 2.44562 6.74244 2.83306C4.73038 3.05794 3.10605 4.64295 2.8695 6.66548C2.45496 10.2098 2.45496 13.7903 2.8695 17.3346C3.10605 19.3571 4.73038 20.9422 6.74244 21.167C10.209 21.5545 13.7924 21.5545 17.2589 21.167C19.271 20.9422 20.8953 19.3571 21.1319 17.3346C21.5464 13.7903 21.5464 10.2098 21.1319 6.66548C20.8953 4.64295 19.271 3.05794 17.2589 2.83306ZM6.90905 4.32378C10.2649 3.94871 13.7365 3.94871 17.0923 4.32378C18.4224 4.47244 19.4879 5.52205 19.642 6.83973C20.043 10.2683 20.043 13.7318 19.642 17.1604C19.4879 18.478 18.4224 19.5277 17.0923 19.6763C13.7365 20.0514 10.2649 20.0514 6.90905 19.6763C5.57894 19.5277 4.51346 18.478 4.35934 17.1604C3.95834 13.7318 3.95834 10.2683 4.35934 6.83973C4.51346 5.52205 5.57894 4.47244 6.90905 4.32378Z"/>
</svg>
