<svg viewBox="0 0 24 24" xmlns="http://www.w3.org/2000/svg">
<path fill-rule="evenodd" clip-rule="evenodd" d="M11.249 15.5L10.578 13.399H8.22397L7.58597 15.5H6.18896L8.56497 8.08603H10.292L12.701 15.5H11.249ZM9.01597 10.55L8.44396 12.376H10.347L9.76397 10.55C9.64823 10.185 9.5469 9.78396 9.45415 9.41686C9.43231 9.3304 9.41093 9.24581 9.38997 9.16403H9.36796C9.33027 9.31102 9.29258 9.46834 9.25401 9.62936C9.18 9.93828 9.10274 10.2608 9.01597 10.55Z"/>
<path fill-rule="evenodd" clip-rule="evenodd" d="M17.6845 12.629C17.6845 12.882 17.6625 13.08 17.6405 13.201H14.0545C14.0875 14.169 14.8465 14.587 15.7045 14.587C16.3315 14.587 16.7825 14.499 17.1895 14.345L17.3875 15.28C16.9255 15.467 16.2875 15.621 15.5175 15.621C13.7795 15.621 12.7565 14.543 12.7565 12.904C12.7565 11.419 13.6585 10.022 15.3745 10.022C17.1235 10.022 17.6845 11.452 17.6845 12.629ZM15.2975 10.946C14.4615 10.946 14.1095 11.705 14.0545 12.255H16.4085C16.4195 11.76 16.1995 10.946 15.2975 10.946Z"/>
<path fill-rule="evenodd" clip-rule="evenodd" d="M17.2589 2.83306C13.7924 2.44562 10.209 2.44562 6.74244 2.83306C4.73038 3.05794 3.10605 4.64295 2.8695 6.66548C2.45496 10.2098 2.45496 13.7903 2.8695 17.3346C3.10605 19.3571 4.73038 20.9422 6.74244 21.167C10.209 21.5545 13.7924 21.5545 17.2589 21.167C19.271 20.9422 20.8953 19.3571 21.1319 17.3346C21.5464 13.7903 21.5464 10.2098 21.1319 6.66548C20.8953 4.64295 19.271 3.05794 17.2589 2.83306ZM6.90905 4.32378C10.2649 3.94871 13.7365 3.94871 17.0923 4.32378C18.4224 4.47244 19.4879 5.52205 19.642 6.83973C20.043 10.2683 20.043 13.7318 19.642 17.1604C19.4879 18.478 18.4224 19.5277 17.0923 19.6763C13.7365 20.0514 10.2649 20.0514 6.90905 19.6763C5.57894 19.5277 4.51346 18.478 4.35934 17.1604C3.95834 13.7318 3.95834 10.2683 4.35934 6.83973C4.51346 5.52205 5.57894 4.47244 6.90905 4.32378Z"/>
</svg>
