<svg   viewBox="0 0 24 24" fill="none" xmlns="http://www.w3.org/2000/svg">
<path d="M12.7288 15.5H8.3288V8.08603H9.6818V14.367H12.7288V15.5Z" fill="black"/>
<path d="M14.6116 15.5H13.2586V11.87C13.2586 11.144 13.2476 10.627 13.2146 10.143H14.3916L14.4356 11.166H14.4796C14.7436 10.407 15.3706 10.022 15.9426 10.022C16.0746 10.022 16.1516 10.033 16.2616 10.055V11.331C16.1516 11.309 16.0306 11.287 15.8656 11.287C15.2166 11.287 14.7766 11.705 14.6556 12.31C14.6336 12.431 14.6116 12.574 14.6116 12.728V15.5Z" fill="black"/>
<path fill-rule="evenodd" clip-rule="evenodd" d="M17.2589 2.83306C13.7924 2.44562 10.209 2.44562 6.74244 2.83306C4.73038 3.05794 3.10605 4.64295 2.8695 6.66548C2.45496 10.2098 2.45496 13.7903 2.8695 17.3346C3.10605 19.3571 4.73038 20.9422 6.74244 21.167C10.209 21.5545 13.7924 21.5545 17.2589 21.167C19.271 20.9422 20.8953 19.3571 21.1319 17.3346C21.5464 13.7903 21.5464 10.2098 21.1319 6.66548C20.8953 4.64295 19.271 3.05794 17.2589 2.83306ZM6.90905 4.32378C10.2649 3.94871 13.7365 3.94871 17.0923 4.32378C18.4224 4.47244 19.4879 5.52205 19.642 6.83973C20.043 10.2683 20.043 13.7318 19.642 17.1604C19.4879 18.478 18.4224 19.5277 17.0923 19.6763C13.7365 20.0514 10.2649 20.0514 6.90905 19.6763C5.57894 19.5277 4.51346 18.478 4.35934 17.1604C3.95834 13.7318 3.95834 10.2683 4.35934 6.83973C4.51346 5.52205 5.57894 4.47244 6.90905 4.32378Z" fill="black"/>
</svg>
