<svg   viewBox="0 0 24 24" fill="none" xmlns="http://www.w3.org/2000/svg">
<path fill-rule="evenodd" clip-rule="evenodd" d="M6.90905 4.32378C10.2649 3.94871 13.7365 3.94871 17.0923 4.32378C18.4224 4.47244 19.4879 5.52205 19.642 6.83973C20.043 10.2683 20.043 13.7318 19.642 17.1604C19.4879 18.478 18.4224 19.5277 17.0923 19.6763C13.7365 20.0514 10.2649 20.0514 6.90905 19.6763C5.57894 19.5277 4.51346 18.478 4.35934 17.1604C3.95834 13.7318 3.95834 10.2683 4.35934 6.83973C4.51346 5.52205 5.57894 4.47244 6.90905 4.32378ZM17.2589 2.83306C13.7924 2.44562 10.209 2.44562 6.74244 2.83306C4.73038 3.05794 3.10605 4.64295 2.8695 6.66548C2.45496 10.2098 2.45496 13.7903 2.8695 17.3346C3.10605 19.3571 4.73038 20.9422 6.74244 21.167C10.209 21.5545 13.7924 21.5545 17.2589 21.167C19.271 20.9422 20.8953 19.3571 21.1319 17.3346C21.5464 13.7903 21.5464 10.2098 21.1319 6.66548C20.8953 4.64295 19.271 3.05794 17.2589 2.83306ZM9.37539 15.5H8.03339V8.18504C8.51739 8.09704 9.18839 8.03104 10.1014 8.03104C11.0914 8.03104 11.8174 8.24004 12.2904 8.63604C12.7304 8.99904 13.0164 9.58204 13.0164 10.275C13.0164 10.979 12.7964 11.562 12.3784 11.958C11.8394 12.497 10.9924 12.75 10.0354 12.75C9.78239 12.75 9.55139 12.739 9.37539 12.706V15.5ZM10.1564 9.06504C9.78239 9.06504 9.51839 9.09804 9.37539 9.13104V11.639C9.54039 11.683 9.76039 11.694 10.0354 11.694C11.0474 11.694 11.6634 11.199 11.6634 10.33C11.6634 9.50504 11.0914 9.06504 10.1564 9.06504ZM14.907 15.5H13.554V11.87C13.554 11.144 13.543 10.627 13.51 10.143H14.687L14.731 11.166H14.775C15.039 10.407 15.666 10.022 16.238 10.022C16.37 10.022 16.447 10.033 16.557 10.055V11.331C16.447 11.309 16.326 11.287 16.161 11.287C15.512 11.287 15.072 11.705 14.951 12.31C14.929 12.431 14.907 12.574 14.907 12.728V15.5Z" fill="black"/>
</svg>
