<svg viewBox="0 0 24 24" xmlns="http://www.w3.org/2000/svg">
<path d="M8.37177 15.5V8.08603H9.72477V15.5H8.37177Z"/>
<path d="M12.2056 15.5H10.8416V11.738C10.8416 11.122 10.8306 10.605 10.7976 10.143H11.9856L12.0516 10.946H12.0846C12.3156 10.528 12.8986 10.022 13.7896 10.022C14.7246 10.022 15.6926 10.627 15.6926 12.321V15.5H14.3396V12.475C14.3396 11.705 14.0536 11.122 13.3166 11.122C12.7776 11.122 12.4036 11.507 12.2606 11.914C12.2166 12.035 12.2056 12.2 12.2056 12.354V15.5Z"/>
<path fill-rule="evenodd" clip-rule="evenodd" d="M17.2589 2.83306C13.7924 2.44562 10.209 2.44562 6.74244 2.83306C4.73038 3.05794 3.10605 4.64295 2.8695 6.66548C2.45496 10.2098 2.45496 13.7903 2.8695 17.3346C3.10605 19.3571 4.73038 20.9422 6.74244 21.167C10.209 21.5545 13.7924 21.5545 17.2589 21.167C19.271 20.9422 20.8953 19.3571 21.1319 17.3346C21.5464 13.7903 21.5464 10.2098 21.1319 6.66548C20.8953 4.64295 19.271 3.05794 17.2589 2.83306ZM6.90905 4.32378C10.2649 3.94871 13.7365 3.94871 17.0923 4.32378C18.4224 4.47244 19.4879 5.52205 19.642 6.83973C20.043 10.2683 20.043 13.7318 19.642 17.1604C19.4879 18.478 18.4224 19.5277 17.0923 19.6763C13.7365 20.0514 10.2649 20.0514 6.90905 19.6763C5.57894 19.5277 4.51346 18.478 4.35934 17.1604C3.95834 13.7318 3.95834 10.2683 4.35934 6.83973C4.51346 5.52205 5.57894 4.47244 6.90905 4.32378Z"/>
</svg>
