<svg   viewBox="0 0 24 24" fill="none" xmlns="http://www.w3.org/2000/svg">
<path fill-rule="evenodd" clip-rule="evenodd" d="M14.347 10.726V7.69003H15.7V13.993C15.7 14.543 15.722 15.137 15.744 15.5H14.534L14.479 14.653H14.457C14.138 15.247 13.489 15.621 12.708 15.621C11.432 15.621 10.42 14.532 10.42 12.882C10.409 11.089 11.531 10.022 12.818 10.022C13.555 10.022 14.083 10.33 14.325 10.726H14.347ZM14.303 13.575C14.336 13.454 14.347 13.322 14.347 13.179V12.376C14.347 12.266 14.336 12.134 14.314 12.024C14.193 11.496 13.764 11.067 13.148 11.067C12.279 11.067 11.795 11.837 11.795 12.838C11.795 13.817 12.279 14.532 13.137 14.532C13.687 14.532 14.171 14.158 14.303 13.575Z" fill="black"/>
<path d="M8.35565 15.5V8.08603H9.70865V15.5H8.35565Z" fill="black"/>
<path fill-rule="evenodd" clip-rule="evenodd" d="M17.2589 2.83306C13.7924 2.44562 10.209 2.44562 6.74244 2.83306C4.73038 3.05794 3.10605 4.64295 2.8695 6.66548C2.45496 10.2098 2.45496 13.7903 2.8695 17.3346C3.10605 19.3571 4.73038 20.9422 6.74244 21.167C10.209 21.5545 13.7924 21.5545 17.2589 21.167C19.271 20.9422 20.8953 19.3571 21.1319 17.3346C21.5464 13.7903 21.5464 10.2098 21.1319 6.66548C20.8953 4.64295 19.271 3.05794 17.2589 2.83306ZM6.90905 4.32378C10.2649 3.94871 13.7365 3.94871 17.0923 4.32378C18.4224 4.47244 19.4879 5.52205 19.642 6.83973C20.043 10.2683 20.043 13.7318 19.642 17.1604C19.4879 18.478 18.4224 19.5277 17.0923 19.6763C13.7365 20.0514 10.2649 20.0514 6.90905 19.6763C5.57894 19.5277 4.51346 18.478 4.35934 17.1604C3.95834 13.7318 3.95834 10.2683 4.35934 6.83973C4.51346 5.52205 5.57894 4.47244 6.90905 4.32378Z" fill="black"/>
</svg>
