<svg   viewBox="0 0 24 24" fill="none" xmlns="http://www.w3.org/2000/svg">
<path d="M15.9332 10.143V15.5H14.5692V10.143H15.9332Z" fill="black"/>
<path d="M14.4922 8.64703C14.4922 8.22903 14.8002 7.91003 15.2512 7.91003C15.7132 7.91003 15.9992 8.22903 16.0102 8.64703C16.0102 9.05403 15.7132 9.37303 15.2402 9.37303C14.7892 9.37303 14.4922 9.05403 14.4922 8.64703Z" fill="black"/>
<path fill-rule="evenodd" clip-rule="evenodd" d="M12.6347 15.5L11.9637 13.399H9.60971L8.97171 15.5H7.57471L9.95071 8.08603H11.6777L14.0867 15.5H12.6347ZM10.4017 10.55L9.82971 12.376H11.7327L11.1497 10.55C11.034 10.185 10.9326 9.78397 10.8399 9.41687C10.818 9.3304 10.7967 9.24582 10.7757 9.16403H10.7537C10.716 9.31097 10.6784 9.46822 10.6398 9.62917C10.5658 9.93809 10.4885 10.2608 10.4017 10.55Z" fill="black"/>
<path fill-rule="evenodd" clip-rule="evenodd" d="M17.2589 2.83306C13.7924 2.44562 10.209 2.44562 6.74244 2.83306C4.73038 3.05794 3.10605 4.64295 2.8695 6.66548C2.45496 10.2098 2.45496 13.7903 2.8695 17.3346C3.10605 19.3571 4.73038 20.9422 6.74244 21.167C10.209 21.5545 13.7924 21.5545 17.2589 21.167C19.271 20.9422 20.8953 19.3571 21.1319 17.3346C21.5464 13.7903 21.5464 10.2098 21.1319 6.66548C20.8953 4.64295 19.271 3.05794 17.2589 2.83306ZM6.90905 4.32378C10.2649 3.94871 13.7365 3.94871 17.0923 4.32378C18.4224 4.47244 19.4879 5.52205 19.642 6.83973C20.043 10.2683 20.043 13.7318 19.642 17.1604C19.4879 18.478 18.4224 19.5277 17.0923 19.6763C13.7365 20.0514 10.2649 20.0514 6.90905 19.6763C5.57894 19.5277 4.51346 18.478 4.35934 17.1604C3.95834 13.7318 3.95834 10.2683 4.35934 6.83973C4.51346 5.52205 5.57894 4.47244 6.90905 4.32378Z" fill="black"/>
</svg>
