<svg viewBox="0 0 24 24" xmlns="http://www.w3.org/2000/svg">
<path fill-rule="evenodd" clip-rule="evenodd" d="M16.0766 10.726V7.69003H17.4296V13.993C17.4296 14.543 17.4516 15.137 17.4736 15.5H16.2636L16.2086 14.653H16.1866C15.8676 15.247 15.2186 15.621 14.4376 15.621C13.1616 15.621 12.1496 14.532 12.1496 12.882C12.1386 11.089 13.2606 10.022 14.5476 10.022C15.2846 10.022 15.8126 10.33 16.0546 10.726H16.0766ZM16.0326 13.575C16.0656 13.454 16.0766 13.322 16.0766 13.179V12.376C16.0766 12.266 16.0656 12.134 16.0436 12.024C15.9226 11.496 15.4936 11.067 14.8776 11.067C14.0086 11.067 13.5246 11.837 13.5246 12.838C13.5246 13.817 14.0086 14.532 14.8666 14.532C15.4166 14.532 15.9006 14.158 16.0326 13.575Z"/>
<path d="M9.90419 11.705L12.1592 15.5H10.5972L9.79419 14.026C9.47519 13.454 9.26619 13.058 9.05719 12.629H9.02419C8.84819 13.058 8.65019 13.454 8.35319 14.026L7.61619 15.5H6.06519L8.26519 11.749L6.15319 8.08603H7.70419L8.50719 9.61503C8.74919 10.077 8.92519 10.44 9.12319 10.858H9.14519C9.34319 10.396 9.49719 10.066 9.72819 9.61503L10.5202 8.08603H12.0712L9.90419 11.705Z"/>
<path fill-rule="evenodd" clip-rule="evenodd" d="M17.2589 2.83306C13.7924 2.44562 10.209 2.44562 6.74244 2.83306C4.73038 3.05794 3.10605 4.64295 2.8695 6.66548C2.45496 10.2098 2.45496 13.7903 2.8695 17.3346C3.10605 19.3571 4.73038 20.9422 6.74244 21.167C10.209 21.5545 13.7924 21.5545 17.2589 21.167C19.271 20.9422 20.8953 19.3571 21.1319 17.3346C21.5464 13.7903 21.5464 10.2098 21.1319 6.66548C20.8953 4.64295 19.271 3.05794 17.2589 2.83306ZM6.90905 4.32378C10.2649 3.94871 13.7365 3.94871 17.0923 4.32378C18.4224 4.47244 19.4879 5.52205 19.642 6.83973C20.043 10.2683 20.043 13.7318 19.642 17.1604C19.4879 18.478 18.4224 19.5277 17.0923 19.6763C13.7365 20.0514 10.2649 20.0514 6.90905 19.6763C5.57894 19.5277 4.51346 18.478 4.35934 17.1604C3.95834 13.7318 3.95834 10.2683 4.35934 6.83973C4.51346 5.52205 5.57894 4.47244 6.90905 4.32378Z"/>
</svg>
