<svg viewBox="0 0 32 32" xmlns="http://www.w3.org/2000/svg">
<path d="M20.5 21C21.3284 21 22 20.3284 22 19.5C22 18.6716 21.3284 18 20.5 18C19.6716 18 19 18.6716 19 19.5C19 20.3284 19.6716 21 20.5 21Z"/>
<path d="M11.5 21C12.3284 21 13 20.3284 13 19.5C13 18.6716 12.3284 18 11.5 18C10.6716 18 10 18.6716 10 19.5C10 20.3284 10.6716 21 11.5 21Z"/>
<path d="M3 24V21.1411C3 13.9562 8.7692 8.02494 15.954 8.00008C17.6651 7.99403 19.3605 8.32581 20.943 8.97641C22.5255 9.62701 23.9641 10.5836 25.1761 11.7914C26.3882 12.9991 27.3498 14.4343 28.006 16.0145C28.6622 17.5947 29 19.2889 29 21V24C29 24.2652 28.8946 24.5196 28.7071 24.7071C28.5196 24.8946 28.2652 25 28 25H4C3.73478 25 3.48043 24.8946 3.29289 24.7071C3.10536 24.5196 3 24.2652 3 24Z" stroke-width="2" stroke-linecap="round" stroke-linejoin="round"/>
<path d="M4 7L7.88408 10.8841" stroke-width="2" stroke-linecap="round" stroke-linejoin="round"/>
<path d="M28.0027 7L24.1406 10.8621" stroke-width="2" stroke-linecap="round" stroke-linejoin="round"/>
</svg>
