<svg   viewBox="0 0 24 24" fill="none" xmlns="http://www.w3.org/2000/svg">
<path fill-rule="evenodd" clip-rule="evenodd" d="M8.19561 17.9418C8.17916 17.8282 8.15424 17.7209 8.12259 17.6198L13.0086 17.6199C13.5103 17.6199 15.0845 17.6199 15.0845 17.6199L16.6599 20.1659C17.4445 21.461 19.1208 21.8625 20.4127 21.1446C21.6984 20.4301 22.2096 18.8254 21.5081 17.5078C22.6326 17.1803 23.5 16.1669 23.5 14.891C23.5 13.3301 22.2019 12.1624 20.7232 12.1624H18.285L15.7663 8.19589C15.7579 8.18278 15.7494 8.16979 15.7407 8.15694C15.5909 7.93651 15.3333 7.66015 14.9364 7.50551L16.0696 5.61662C16.873 4.27745 16.3712 2.59258 15.0445 1.85532C14.0656 1.31136 12.8662 1.41018 12.0012 2.0532C11.1358 1.40854 9.93499 1.3095 8.95551 1.85362C7.62853 2.5908 7.12707 4.276 7.93045 5.61501L8.77693 7.02593L5.69565 12.1623H3.27681C1.79797 12.1623 0.5 13.3302 0.5 14.891C0.5 16.1672 1.36776 17.1807 2.49263 17.508C1.79005 18.8258 2.30118 20.4316 3.58739 21.1463C4.87202 21.8601 6.53684 21.4671 7.32697 20.1889L7.80626 19.4608C8.02423 19.1414 8.12435 18.8251 8.17039 18.587C8.19412 18.4642 8.20469 18.3562 8.20891 18.2697C8.21103 18.2262 8.21159 18.1872 8.21128 18.1535C8.2112 18.145 8.2106 18.1487 8.20996 18.1526C8.20933 18.1565 8.20865 18.1606 8.2084 18.1535C8.20771 18.142 8.20689 18.1239 8.20594 18.103C8.20342 18.0477 8.19997 17.972 8.19561 17.9418ZM6.06008 19.3854L6.56197 18.6229C6.72497 18.3897 6.71106 18.1566 6.71106 18.1566C6.60854 17.448 5.19191 17.3001 5.19191 17.3001C4.58993 17.2453 4.28899 17.5365 4.16705 17.7052L3.84856 18.1566C3.49597 18.7443 3.70532 19.4958 4.31591 19.8351C4.92662 20.1745 5.70749 19.9731 6.06008 19.3854ZM17.7112 13.6624H20.7232C21.4284 13.6624 22 14.2124 22 14.891C22 15.5696 21.4284 16.1198 20.7232 16.1198H19.2017C18.9721 16.1203 19.0098 16.2431 19.0316 16.2883L20.1513 18.1549C20.504 18.7426 20.2947 19.4941 19.6841 19.8334C19.0733 20.1729 18.2924 19.9714 17.9399 19.3838L14.0043 13.0235C13.7651 12.5668 13.079 11.0556 13.6798 9.72639C13.6798 9.72639 14.1831 8.53353 14.5 8.99997L17.379 13.5339L17.3812 13.5376C17.4165 13.5786 17.506 13.6491 17.7112 13.6624ZM13.0086 16.1199C13.6307 16.1199 13.4699 15.3328 13.4699 15.3328C13.2252 13.7184 11.4333 13.6626 11.4333 13.6626L9.7231 13.6623C9.55392 13.6477 9.56087 13.5649 9.58361 13.5121L14.7833 4.84494C15.1359 4.25722 14.9267 3.50584 14.316 3.16653C13.7053 2.8271 12.9244 3.02857 12.5718 3.61619L12.0005 4.5685L11.4282 3.61449C11.0756 3.02676 10.2947 2.82551 9.68403 3.16483C9.07333 3.50404 8.86409 4.25563 9.21668 4.84324L10.4508 6.90027C10.4606 6.91822 10.5184 7.03196 10.4503 7.15229L6.71371 13.381L6.71106 13.3798C6.71106 13.3798 6.60159 13.6366 6.13942 13.6623H3.27681C2.57164 13.6623 2 14.2124 2 14.891C2 15.5696 2.57164 16.1198 3.27681 16.1198L13.0086 16.1199Z" fill="black"/>
</svg>
