<svg   viewBox="0 0 24 24" fill="none" xmlns="http://www.w3.org/2000/svg">
<path fill-rule="evenodd" clip-rule="evenodd" d="M16.71 1.37734C16.7005 1.15855 16.5958 0.954848 16.4235 0.819718C16.2512 0.684589 16.0284 0.631533 15.8136 0.674482C15.3133 0.77454 13.6816 1.1796 12.3934 2.46782C11.7356 3.12562 11.3714 3.956 11.1742 4.71195C11.0725 5.10154 11.0118 5.48411 10.9795 5.8344C10.9026 5.80097 10.8219 5.76602 10.7364 5.72955C10.0434 5.43409 9.14706 5.08909 8.12695 5.08909C7.03429 5.08909 5.48382 5.53363 4.20377 6.78991C2.90601 8.06357 1.94922 10.1078 1.94922 13.1904C1.94922 14.9223 2.81533 17.4409 3.98268 19.4848C4.57291 20.5182 5.26773 21.4801 6.01771 22.1888C6.74612 22.8771 7.63454 23.4271 8.60221 23.4022C9.32242 23.3992 10.0514 23.1165 10.6195 22.8961L10.6697 22.8767C11.3232 22.6235 11.7892 22.4525 12.1802 22.4525C12.5543 22.4525 13.0238 22.6232 13.6884 22.8777L13.7369 22.8963C14.3136 23.1174 15.0563 23.4022 15.7695 23.4022C16.3081 23.4022 16.9317 23.1141 17.4774 22.7746C18.0608 22.4118 18.6919 21.9032 19.2733 21.2993C20.4108 20.1174 21.4899 18.428 21.448 16.6201C21.4415 16.3369 21.2759 16.0816 21.0201 15.96C20.6732 15.7952 20.1071 15.4228 19.6299 14.8756C19.157 14.3333 18.8084 13.6641 18.7866 12.888C18.7559 11.7925 19.0634 10.8237 19.4696 10.0815C19.8907 9.31199 20.3688 8.87106 20.5912 8.75452C20.7831 8.6539 20.9222 8.47515 20.9725 8.26431C21.0228 8.05347 20.9795 7.83118 20.8536 7.65471C20.5109 7.17425 19.8615 6.54287 19.0956 6.03364C18.3379 5.52985 17.3516 5.06894 16.341 5.08924C16.1645 5.09278 15.9914 5.10578 15.8222 5.12636C16.1921 4.57657 16.4069 3.8945 16.5328 3.29577C16.6844 2.57455 16.7308 1.8559 16.71 1.37734ZM13.4541 3.52848C13.9956 2.98691 14.6314 2.64484 15.1578 2.43408C15.1349 2.6127 15.1043 2.7994 15.0649 2.98714C14.9341 3.60892 14.7286 4.12902 14.4751 4.42482C13.9961 4.98361 13.3517 5.59354 12.4875 5.83471C12.515 5.59791 12.5591 5.34532 12.6256 5.09069C12.7808 4.49584 13.0448 3.9377 13.4541 3.52848ZM16.3711 6.58894C16.9363 6.57758 17.6134 6.84946 18.2651 7.28276C18.6088 7.51129 18.9134 7.76326 19.1557 7.99492C18.7981 8.35343 18.4477 8.82425 18.1538 9.36133C17.6408 10.2986 17.2479 11.5283 17.2872 12.9301C17.3215 14.1519 17.8716 15.1416 18.4994 15.8615C18.9589 16.3884 19.4797 16.7946 19.9288 17.0701C19.8028 18.1661 19.1056 19.3105 18.1925 20.2591C17.6905 20.7807 17.1551 21.2087 16.6852 21.5009C16.1777 21.8166 15.8612 21.9022 15.7695 21.9022C15.3688 21.9022 14.8814 21.7284 14.2249 21.477L14.1454 21.4464C13.581 21.2297 12.8594 20.9525 12.1802 20.9525C11.4809 20.9525 10.7621 21.2317 10.1998 21.45L10.1278 21.478C9.48004 21.7289 9.00126 21.9022 8.59093 21.9022C8.58332 21.9022 8.57572 21.9023 8.56811 21.9025C8.19208 21.914 7.67412 21.6903 7.04794 21.0986C6.44044 20.5245 5.83086 19.6962 5.2852 18.7409C4.18078 16.8072 3.44922 14.5539 3.44922 13.1904C3.44922 10.4342 4.29433 8.80275 5.25445 7.86046C6.23228 6.90078 7.39567 6.58909 8.12695 6.58909C8.82269 6.58909 9.47989 6.82446 10.1481 7.10936C10.2355 7.14663 10.3261 7.18609 10.4181 7.22616C10.6554 7.32947 10.9019 7.4368 11.1258 7.52074C11.4378 7.63772 11.8052 7.74983 12.1802 7.74983C12.5553 7.74983 12.9265 7.64471 13.2497 7.53068C13.4915 7.44536 13.7549 7.33644 14.0097 7.23108C14.0951 7.19577 14.1795 7.16085 14.2619 7.12737C14.9554 6.84525 15.644 6.60354 16.3711 6.58894Z" fill="black"/>
</svg>
