<svg viewBox="0 0 32 32" xmlns="http://www.w3.org/2000/svg">
<path d="M17.2656 4.06325C17.5562 3.30876 18.0686 2.66 18.7352 2.20243C19.4018 1.74487 20.1913 1.49997 20.9998 1.5" stroke-width="2" stroke-linecap="round" stroke-linejoin="round"/>
<path d="M27.3141 20.3667C25.742 24.2064 22.8882 27 20.5 27H11.5C8 27 3.5 21 3.5 14.5C3.50002 13.0522 3.9191 11.6353 4.70666 10.4204C5.49421 9.20547 6.61658 8.24449 7.93828 7.65343C9.25998 7.06238 10.7245 6.86651 12.1551 7.08947C13.5856 7.31244 14.9211 7.9447 16.0002 8.90995L16 8.90971C16.764 8.22645 17.6599 7.70702 18.6325 7.38348C19.6051 7.05995 20.6336 6.93917 21.6547 7.02862C22.6757 7.11806 23.6676 7.41582 24.5691 7.90352C25.4706 8.39122 26.2625 9.05851 26.8961 9.8642L26.8961 9.86422C25.9776 10.4197 25.2249 11.2112 24.7164 12.1565C24.2079 13.1017 23.9621 14.166 24.0047 15.2385C24.0474 16.311 24.3768 17.3525 24.9587 18.2544C25.5407 19.1563 26.3538 19.8856 27.3135 20.3664L27.3141 20.3667Z" stroke-width="2" stroke-linecap="round" stroke-linejoin="round"/>
</svg>
