<svg viewBox="0 0 24 24" xmlns="http://www.w3.org/2000/svg">
<path d="M4.76226 8.38947C4.6518 8.38947 4.56226 8.47901 4.56226 8.58947V10.9653C4.56226 11.0757 4.6518 11.1653 4.76226 11.1653H7.51599C8.28251 11.1653 8.90389 10.5439 8.90389 9.77737C8.90389 9.01085 8.28251 8.38947 7.51599 8.38947H4.76226Z"/>
<path d="M4.76226 12.9446C4.6518 12.9446 4.56226 13.0342 4.56226 13.1446V16.0187C4.56226 16.1291 4.6518 16.2187 4.76226 16.2187H7.69393C8.59802 16.2187 9.33094 15.4857 9.33094 14.5817C9.33094 13.6776 8.59802 12.9446 7.69393 12.9446H4.76226Z"/>
<path d="M16.1369 13.087C16.0882 13.087 16.0488 13.0475 16.0488 12.9989C16.0488 12.0255 16.8378 11.2364 17.8112 11.2364H18.2009C19.1743 11.2364 19.9634 12.0255 19.9634 12.9989C19.9634 13.0475 19.9239 13.087 19.8752 13.087H16.1369Z"/>
<path fill-rule="evenodd" clip-rule="evenodd" d="M12.5704 11.9933C12.5065 11.9126 12.4398 11.8345 12.3707 11.7589C12.8031 11.0756 13.0228 10.2795 13.0023 9.47155C13.0203 8.7769 12.8812 8.08694 12.5952 7.45318C12.3164 6.82308 11.8706 6.28115 11.3062 5.8859L11.2949 5.87806C10.7624 5.51248 10.1588 5.26365 9.52366 5.14772C8.91381 5.02154 8.29211 4.96138 7.66934 4.96831H2C1.17157 4.96831 0.5 5.63988 0.5 6.46831V18.4251C0.5 19.2535 1.17157 19.9251 2 19.9251H7.80064C8.45751 19.9255 9.11176 19.8423 9.74759 19.6774C10.4012 19.5083 11.0205 19.227 11.5778 18.8459L11.5852 18.8408C12.1414 18.4556 12.6024 17.9497 12.9343 17.3619C13.1477 17.7708 13.4102 18.1534 13.7168 18.501C13.7254 18.5108 13.7341 18.5204 13.743 18.53C14.2815 19.1093 14.943 19.5608 15.6787 19.8515L15.6975 19.8588C16.4532 20.1458 17.2561 20.2882 18.0643 20.279C19.2269 20.3082 20.3738 20.0017 21.3666 19.3956C21.3957 19.3779 21.4242 19.3591 21.452 19.3394C22.4989 18.5979 23.2537 17.514 23.5843 16.2748C23.6497 16.0295 23.651 15.7752 23.5928 15.5348C23.7051 15.3424 23.776 15.1222 23.7928 14.886C23.8493 14.0935 23.7814 13.297 23.5915 12.5254L23.5901 12.5197C23.3965 11.7461 23.0578 11.0162 22.5921 10.3686L22.5765 10.3472C22.0834 9.6865 21.4469 9.14608 20.715 8.76621C20.7053 8.76114 20.6955 8.75618 20.6856 8.75133C19.8867 8.35874 19.0063 8.16002 18.1163 8.17103C17.3027 8.16732 16.4964 8.32493 15.7442 8.63484L15.7345 8.63885C15.0271 8.93611 14.3857 9.37089 13.8479 9.91808L13.8361 9.93025C13.2964 10.492 12.8781 11.1588 12.6077 11.8892L12.6067 11.892C12.5943 11.9257 12.5822 11.9594 12.5704 11.9933ZM9.82757 11.9239C10.4027 12.0626 10.918 12.3758 11.3046 12.8168C11.371 12.8925 11.4336 12.972 11.492 13.055C11.52 13.0976 11.547 13.1407 11.573 13.1844C11.8903 13.7187 12.0508 14.3327 12.0341 14.9559C12.0504 15.4999 11.9294 16.0392 11.6822 16.5241C11.4589 16.9578 11.1322 17.3299 10.7311 17.6077C10.317 17.8908 9.85681 18.0999 9.37104 18.2255C9.14132 18.285 8.90861 18.3314 8.67407 18.3644C8.38536 18.405 8.09386 18.4253 7.80172 18.4251H2V6.46831H7.67808C8.20201 6.4619 8.72507 6.5129 9.23789 6.62038C9.67122 6.69705 10.0831 6.86558 10.4458 7.11462C10.7879 7.35416 11.0576 7.68292 11.2257 8.06508C11.4257 8.5062 11.5202 8.98782 11.5015 9.47176C11.5207 9.94992 11.4066 10.423 11.1736 10.8387C11.148 10.8843 11.121 10.9293 11.0925 10.9735C10.7798 11.3941 10.3116 11.7225 9.82757 11.9239ZM16.0018 14.9935C15.9985 14.9224 15.9985 14.851 16.0018 14.7793H22.2966C22.3057 14.6525 22.3108 14.5255 22.3119 14.3986C22.3133 14.2355 22.3082 14.0725 22.2966 13.91C22.2816 13.6986 22.2555 13.4881 22.2185 13.2793C22.1951 13.1468 22.1672 13.0149 22.135 12.8839C21.9875 12.2944 21.7294 11.7381 21.3743 11.2443C21.0169 10.7653 20.5552 10.3733 20.024 10.0976C19.433 9.80713 18.7811 9.66094 18.1223 9.67109C17.5026 9.66656 16.8883 9.7858 16.3156 10.0217C15.7912 10.2421 15.316 10.5643 14.9178 10.9695C14.5207 11.3828 14.2132 11.8731 14.0144 12.41C13.8012 12.9896 13.6948 13.6029 13.7006 14.2202C13.6909 14.8462 13.7939 15.469 14.0049 16.0587C14.1842 16.5928 14.4687 17.0858 14.8417 17.5088C15.2277 17.924 15.702 18.2478 16.23 18.4565C16.8187 18.68 17.4448 18.7894 18.0747 18.7787C18.9585 18.8062 19.831 18.5756 20.585 18.1153C20.8788 17.9073 21.1408 17.6623 21.3656 17.3882C21.6376 17.0566 21.8551 16.6823 22.0087 16.2793C22.0573 16.1517 22.0995 16.0211 22.135 15.8882H20.0335C19.9799 16.0301 19.9047 16.1619 19.8115 16.2793C19.7093 16.4081 19.5852 16.5197 19.444 16.6084C19.0783 16.85 18.6464 16.9725 18.2078 16.9591C17.9176 16.9892 17.6242 16.9594 17.346 16.8713C17.0679 16.7832 16.8109 16.6389 16.5913 16.4473C16.5434 16.3932 16.4982 16.3371 16.4558 16.2793C16.1809 15.9046 16.0229 15.4573 16.0018 14.9935Z"/>
<path d="M20.4466 6.39587C20.4443 6.17656 20.2659 5.99994 20.0466 5.99994H16.0217C15.8008 5.99994 15.6217 6.17903 15.6217 6.39994V7.47122C15.6217 7.69213 15.8008 7.87122 16.0217 7.87122H20.0575C20.28 7.87122 20.4597 7.68965 20.4575 7.46716L20.4466 6.39587Z"/>
</svg>
