<svg viewBox="0 0 32 32" xmlns="http://www.w3.org/2000/svg">
<path d="M12 19.5C12.8284 19.5 13.5 18.8284 13.5 18C13.5 17.1716 12.8284 16.5 12 16.5C11.1716 16.5 10.5 17.1716 10.5 18C10.5 18.8284 11.1716 19.5 12 19.5Z"/>
<path d="M20 19.5C20.8284 19.5 21.5 18.8284 21.5 18C21.5 17.1716 20.8284 16.5 20 16.5C19.1716 16.5 18.5 17.1716 18.5 18C18.5 18.8284 19.1716 19.5 20 19.5Z"/>
<path d="M9.29688 10C11.4648 9.3215 13.7251 8.98414 15.9967 9.00005C18.2682 8.98414 20.5284 9.32149 22.6964 10" stroke-width="2" stroke-linecap="round" stroke-linejoin="round"/>
<path d="M22.6962 22C20.5283 22.6785 18.2681 23.0159 15.9966 23C13.725 23.0159 11.4648 22.6785 9.29688 22" stroke-width="2" stroke-linecap="round" stroke-linejoin="round"/>
<path d="M19.3789 22.761L20.8821 25.7673C20.9822 25.9692 21.1479 26.1312 21.3521 26.2268C21.5562 26.3224 21.7867 26.3459 22.006 26.2934C25.0733 25.5435 27.7176 24.236 29.6435 22.5621C29.7906 22.4356 29.898 22.2694 29.9528 22.0833C30.0076 21.8973 30.0075 21.6994 29.9525 21.5134L25.7058 7.35758C25.6629 7.21484 25.5887 7.08345 25.4887 6.97298C25.3886 6.8625 25.2652 6.77572 25.1274 6.71895C23.9277 6.22773 22.6868 5.84361 21.4194 5.57108C21.1779 5.51817 20.9254 5.55637 20.7103 5.67834C20.4953 5.80032 20.3329 5.99746 20.2545 6.23189L19.2578 9.22184" stroke-width="2" stroke-linecap="round" stroke-linejoin="round"/>
<path d="M12.6227 22.7609L11.1195 25.7673C11.0194 25.9692 10.8537 26.1312 10.6496 26.2268C10.4454 26.3224 10.2149 26.3458 9.99565 26.2934C6.92832 25.5435 4.28405 24.2361 2.35814 22.5621C2.21107 22.4356 2.10367 22.2694 2.04885 22.0833C1.99403 21.8973 1.99414 21.6994 2.04915 21.5134L6.29588 7.35757C6.33875 7.21483 6.4129 7.08345 6.51294 6.97297C6.61298 6.8625 6.73639 6.77571 6.87419 6.71894C8.07394 6.22772 9.3148 5.84361 10.5822 5.57108C10.8237 5.51817 11.0762 5.55637 11.2913 5.67834C11.5063 5.80032 11.6687 5.99746 11.7471 6.23189L12.7438 9.22184" stroke-width="2" stroke-linecap="round" stroke-linejoin="round"/>
<path d="M12 19.5C12.8284 19.5 13.5 18.8284 13.5 18C13.5 17.1716 12.8284 16.5 12 16.5C11.1716 16.5 10.5 17.1716 10.5 18C10.5 18.8284 11.1716 19.5 12 19.5Z"/>
<path d="M20 19.5C20.8284 19.5 21.5 18.8284 21.5 18C21.5 17.1716 20.8284 16.5 20 16.5C19.1716 16.5 18.5 17.1716 18.5 18C18.5 18.8284 19.1716 19.5 20 19.5Z"/>
<path d="M9.29688 10C11.4648 9.3215 13.7251 8.98414 15.9967 9.00005C18.2682 8.98414 20.5284 9.32149 22.6964 10" stroke-width="2" stroke-linecap="round" stroke-linejoin="round"/>
<path d="M22.6962 22C20.5283 22.6785 18.2681 23.0159 15.9966 23C13.725 23.0159 11.4648 22.6785 9.29688 22" stroke-width="2" stroke-linecap="round" stroke-linejoin="round"/>
<path d="M19.3789 22.761L20.8821 25.7673C20.9822 25.9692 21.1479 26.1312 21.3521 26.2268C21.5562 26.3224 21.7867 26.3459 22.006 26.2934C25.0733 25.5435 27.7176 24.236 29.6435 22.5621C29.7906 22.4356 29.898 22.2694 29.9528 22.0833C30.0076 21.8973 30.0075 21.6994 29.9525 21.5134L25.7058 7.35758C25.6629 7.21484 25.5887 7.08345 25.4887 6.97298C25.3886 6.8625 25.2652 6.77572 25.1274 6.71895C23.9277 6.22773 22.6868 5.84361 21.4194 5.57108C21.1779 5.51817 20.9254 5.55637 20.7103 5.67834C20.4953 5.80032 20.3329 5.99746 20.2545 6.23189L19.2578 9.22184" stroke-width="2" stroke-linecap="round" stroke-linejoin="round"/>
<path d="M12.6227 22.7609L11.1195 25.7673C11.0194 25.9692 10.8537 26.1312 10.6496 26.2268C10.4454 26.3224 10.2149 26.3458 9.99565 26.2934C6.92832 25.5435 4.28405 24.2361 2.35814 22.5621C2.21107 22.4356 2.10367 22.2694 2.04885 22.0833C1.99403 21.8973 1.99414 21.6994 2.04915 21.5134L6.29588 7.35757C6.33875 7.21483 6.4129 7.08345 6.51294 6.97297C6.61298 6.8625 6.73639 6.77571 6.87419 6.71894C8.07394 6.22772 9.3148 5.84361 10.5822 5.57108C10.8237 5.51817 11.0762 5.55637 11.2913 5.67834C11.5063 5.80032 11.6687 5.99746 11.7471 6.23189L12.7438 9.22184" stroke-width="2" stroke-linecap="round" stroke-linejoin="round"/>
</svg>
