<svg   viewBox="0 0 32 32" fill="none" xmlns="http://www.w3.org/2000/svg">
<path d="M16 28C22.6274 28 28 22.6274 28 16C28 9.37258 22.6274 4 16 4C9.37258 4 4 9.37258 4 16C4 22.6274 9.37258 28 16 28Z" stroke="black" stroke-width="2" stroke-linecap="round" stroke-linejoin="round"/>
<path d="M8.875 25.6589C10.655 22.7101 13.1668 20.2712 16.1668 18.5789C19.1668 16.8865 22.5532 15.9981 25.9976 15.9998C26.6722 15.9998 27.3385 16.0326 27.9965 16.0984" stroke="black" stroke-width="2" stroke-linecap="round" stroke-linejoin="round"/>
<path d="M23.5062 6.63635C21.6325 8.93944 19.2685 10.7955 16.5866 12.0693C13.9047 13.3432 10.9724 14.0026 8.0033 13.9998C6.73863 14.0004 5.47674 13.8816 4.23438 13.6452" stroke="black" stroke-width="2" stroke-linecap="round" stroke-linejoin="round"/>
<path d="M10.7422 5.21069C13.7496 6.97529 16.2431 9.49579 17.9752 12.522C19.7073 15.5482 20.6178 18.9748 20.6163 22.4616C20.6174 24.0954 20.4188 25.7231 20.0249 27.3087" stroke="black" stroke-width="2" stroke-linecap="round" stroke-linejoin="round"/>
</svg>
