<svg   viewBox="0 0 32 32" fill="none" xmlns="http://www.w3.org/2000/svg">
<path d="M20.25 20.25C22.5972 20.25 24.5 18.3472 24.5 16C24.5 13.6528 22.5972 11.75 20.25 11.75C17.9028 11.75 16 13.6528 16 16C16 18.3472 17.9028 20.25 20.25 20.25Z" stroke="black" stroke-width="2" stroke-linecap="round" stroke-linejoin="round"/>
<path d="M16 11.75V3.25012H11.75C10.6228 3.25012 9.54183 3.69789 8.7448 4.49492C7.94777 5.29195 7.5 6.37295 7.5 7.50012C7.5 8.62729 7.94777 9.7083 8.7448 10.5053C9.54183 11.3024 10.6228 11.7501 11.75 11.7501L16 11.75Z" stroke="black" stroke-width="2" stroke-linecap="round" stroke-linejoin="round"/>
<path d="M16 20.2499V11.75H11.75C10.6228 11.75 9.54183 12.1978 8.7448 12.9948C7.94777 13.7918 7.5 14.8728 7.5 16C7.5 17.1272 7.94777 18.2082 8.7448 19.0052C9.54183 19.8022 10.6228 20.25 11.75 20.25L16 20.2499Z" stroke="black" stroke-width="2" stroke-linecap="round" stroke-linejoin="round"/>
<path d="M16 11.75V3.25012H20.25C21.3772 3.25012 22.4582 3.69789 23.2552 4.49492C24.0522 5.29195 24.5 6.37295 24.5 7.50012C24.5 8.62729 24.0522 9.7083 23.2552 10.5053C22.4582 11.3024 21.3772 11.7501 20.25 11.7501L16 11.75Z" stroke="black" stroke-width="2" stroke-linecap="round" stroke-linejoin="round"/>
<path d="M16 20.2499V24.4999C16 25.3405 15.7508 26.1622 15.2838 26.8611C14.8168 27.56 14.153 28.1048 13.3764 28.4265C12.5999 28.7481 11.7453 28.8323 10.9209 28.6683C10.0965 28.5044 9.3392 28.0996 8.74482 27.5052C8.15044 26.9108 7.74566 26.1536 7.58167 25.3291C7.41768 24.5047 7.50184 23.6502 7.82351 22.8736C8.14518 22.097 8.68991 21.4332 9.38882 20.9662C10.0877 20.4992 10.9094 20.25 11.75 20.25L16 20.2499Z" stroke="black" stroke-width="2" stroke-linecap="round" stroke-linejoin="round"/>
</svg>
