<svg   viewBox="0 0 32 32" fill="none" xmlns="http://www.w3.org/2000/svg">
<path d="M10.5 30C11.2956 30 12.0587 29.6839 12.6213 29.1213C13.1839 28.5587 13.5 27.7956 13.5 27V21" stroke="black" stroke-width="2" stroke-linecap="round" stroke-linejoin="round"/>
<path d="M21.5 30C20.7044 30 19.9413 29.6839 19.3787 29.1213C18.8161 28.5587 18.5 27.7956 18.5 27V21" stroke="black" stroke-width="2" stroke-linecap="round" stroke-linejoin="round"/>
<path d="M19 21H21C21.7956 21 22.5587 21.3161 23.1213 21.8787C23.6839 22.4413 24 23.2044 24 24V25C24 25.7956 24.3161 26.5587 24.8787 27.1213C25.4413 27.6839 26.2044 28 27 28" stroke="black" stroke-width="2" stroke-linecap="round" stroke-linejoin="round"/>
<path d="M13 21H11C10.2044 21 9.44129 21.3161 8.87868 21.8787C8.31607 22.4413 8 23.2044 8 24V25C8 25.7956 7.68393 26.5587 7.12132 27.1213C6.55871 27.6839 5.79565 28 5 28" stroke="black" stroke-width="2" stroke-linecap="round" stroke-linejoin="round"/>
<path d="M13.9781 7.99992C13.3907 7.0798 12.5808 6.32259 11.6233 5.79825C10.6658 5.27392 9.59165 4.99938 8.5 5C8.0142 5.83958 7.72284 6.7774 7.64738 7.74446C7.57192 8.71151 7.71426 9.68318 8.06395 10.588C7.37974 11.5951 7.00949 12.7825 7 14V15C7 16.5913 7.63214 18.1174 8.75736 19.2426C9.88258 20.3679 11.4087 21 13 21H19C20.5913 21 22.1174 20.3679 23.2426 19.2426C24.3679 18.1174 25 16.5913 25 15V14C24.9905 12.7825 24.6203 11.5951 23.9361 10.588C24.2857 9.68318 24.4281 8.71151 24.3526 7.74446C24.2772 6.7774 23.9858 5.83958 23.5 5C22.4083 4.99938 21.3341 5.27393 20.3766 5.79827C19.4191 6.32262 18.6093 7.07984 18.0218 7.99998L13.9781 7.99992Z" stroke="black" stroke-width="2" stroke-linecap="round" stroke-linejoin="round"/>
</svg>
