<svg viewBox="0 0 32 32" xmlns="http://www.w3.org/2000/svg">
<path d="M10.376 14H21.626L24.4523 6.46311C24.4895 6.36389 24.5573 6.27905 24.6459 6.22084C24.7344 6.16264 24.8392 6.13407 24.945 6.13927C25.0509 6.14447 25.1523 6.18317 25.2348 6.24977C25.3172 6.31638 25.3763 6.40745 25.4036 6.50984L28.8198 19.3205C28.8728 19.5194 28.8632 19.7299 28.7921 19.9232C28.7211 20.1165 28.5921 20.2831 28.4228 20.4003L16.5702 28.6059C16.403 28.7217 16.2044 28.7838 16.001 28.7838C15.7976 28.7838 15.599 28.7217 15.4318 28.6059L3.57923 20.4003C3.40992 20.2831 3.28092 20.1165 3.20986 19.9232C3.1388 19.73 3.12914 19.5195 3.1822 19.3205L6.59837 6.50984C6.62567 6.40745 6.6848 6.31638 6.76723 6.24978C6.84965 6.18317 6.95111 6.14448 7.05695 6.13928C7.1628 6.13408 7.26756 6.16264 7.35611 6.22085C7.44467 6.27905 7.51244 6.36389 7.54965 6.46311L10.376 14Z" stroke-width="2" stroke-linecap="round" stroke-linejoin="round"/>
</svg>
