<svg viewBox="0 0 24 24" xmlns="http://www.w3.org/2000/svg">
<path d="M5.85716 6.83962C5.62474 6.71446 5.34363 6.72072 5.117 6.85608C4.89037 6.99145 4.75159 7.23599 4.75159 7.49997V17C4.75159 17.4142 5.08737 17.75 5.50159 17.75C5.9158 17.75 6.25159 17.4142 6.25159 17V8.75563L11.646 11.6603C11.868 11.7799 12.1352 11.7799 12.3572 11.6603L17.7516 8.75563V17C17.7516 17.4142 18.0874 17.75 18.5016 17.75C18.9158 17.75 19.2516 17.4142 19.2516 17V7.49997C19.2516 7.23599 19.1128 6.99145 18.8862 6.85608C18.6595 6.72072 18.3784 6.71446 18.146 6.83962L12.0016 10.1482L5.85716 6.83962Z"/>
<path fill-rule="evenodd" clip-rule="evenodd" d="M17.3122 3.7218C13.7788 3.40588 10.2244 3.40588 6.69101 3.7218L5.17367 3.85747C3.54606 4.003 2.23098 5.24642 1.99459 6.86334C1.49659 10.2697 1.49659 13.7303 1.99459 17.1366C2.23098 18.7535 3.54606 19.9969 5.17367 20.1425L6.69101 20.2781C10.2244 20.5941 13.7788 20.5941 17.3122 20.2781L18.8295 20.1425C20.4571 19.9969 21.7722 18.7535 22.0086 17.1366C22.5066 13.7303 22.5066 10.2697 22.0086 6.86334C21.7722 5.24642 20.4571 4.003 18.8295 3.85747L17.3122 3.7218ZM6.8246 5.21584C10.2691 4.90787 13.7341 4.90787 17.1786 5.21584L18.6959 5.35151C19.6321 5.43521 20.3884 6.15036 20.5244 7.08033C21.0013 10.3427 21.0013 13.6572 20.5244 16.9196C20.3884 17.8496 19.6321 18.5647 18.6959 18.6484L17.1786 18.7841C13.7341 19.0921 10.2691 19.0921 6.8246 18.7841L5.30726 18.6484C4.37114 18.5647 3.61478 17.8496 3.47881 16.9196C3.00185 13.6572 3.00185 10.3427 3.47881 7.08033C3.61478 6.15036 4.37114 5.43521 5.30726 5.35151L6.8246 5.21584Z"/>
</svg>
