<svg   viewBox="0 0 24 24" fill="none" xmlns="http://www.w3.org/2000/svg">
<path fill-rule="evenodd" clip-rule="evenodd" d="M11.5763 5.5608C8.91373 4.12432 6.16498 2.64235 5.78592 2.44182C5.39709 2.21907 4.95701 2.14902 4.55109 2.21878C4.54332 2.22009 4.53555 2.22154 4.5278 2.2231C4.52046 2.22459 4.51315 2.22618 4.50588 2.22787C4.15987 2.30778 3.82822 2.50506 3.59054 2.83763C3.3557 3.16622 3.25 3.57343 3.25 4.01777V19.8414C3.25 20.2292 3.32574 20.6378 3.53817 20.9816C3.76563 21.3498 4.13866 21.617 4.62138 21.6616C4.67873 21.6669 4.73593 21.6656 4.79194 21.6579C5.1406 21.6593 5.47338 21.5469 5.78123 21.3794L5.89026 21.3203C6.02069 21.2496 6.23036 21.1359 6.50625 20.9867C8.39335 19.9665 13.3485 17.2875 16.9001 15.3566C16.9086 15.3519 16.917 15.3472 16.9253 15.3422C17.6023 14.9745 18.2278 14.6343 18.7706 14.339L19.6215 13.8763C19.9694 13.6872 20.2535 13.533 20.4594 13.4217C20.5624 13.366 20.645 13.3216 20.7058 13.2891L20.7786 13.2505L20.8047 13.2368L20.8225 13.2278C21.1442 13.0586 21.5878 12.699 21.716 12.1535C21.7879 11.8479 21.7491 11.5161 21.5674 11.2114C21.3966 10.9249 21.1295 10.7115 20.8257 10.5498L20.8185 10.5461C20.532 10.3976 18.9498 9.53864 16.9011 8.42061C16.8597 8.39802 16.8169 8.37968 16.7733 8.36551L15.2499 7.5432C14.2571 7.0073 12.9266 6.28927 11.5763 5.5608ZM13.7072 10.8508L8.31115 5.50399C9.11284 5.93622 9.99214 6.4105 10.8641 6.88094C12.2143 7.60934 13.5446 8.32732 14.5375 8.86319L15.29 9.26942L13.7072 10.8508ZM4.75 19.7825V4.087L12.6455 11.9105L4.75 19.7825ZM14.7758 11.9062L16.6828 10.0102C18.47 10.9849 19.8353 11.7257 20.1241 11.8757L20.1462 11.8878C20.1399 11.8916 20.1337 11.8952 20.1277 11.8984C19.9725 11.9777 19.1542 12.4228 17.9812 13.0608C17.5819 13.278 17.1414 13.5176 16.672 13.7727L14.7758 11.9062ZM8.40918 18.2524L13.7127 12.9646L15.2944 14.5219C13.0527 15.7393 10.4392 17.1542 8.40918 18.2524Z" fill="black"/>
</svg>
