<svg   viewBox="0 0 32 32" fill="none" xmlns="http://www.w3.org/2000/svg">
<path d="M4.97656 28.018C4.97986 28.1928 5.0288 28.3637 5.11854 28.5137C5.20827 28.6637 5.33568 28.7876 5.48811 28.8732C5.64054 28.9587 5.8127 29.0029 5.98749 29.0014C6.16228 28.9998 6.33363 28.9526 6.48453 28.8644L27.4641 16.8556C27.619 16.7727 27.7484 16.6493 27.8387 16.4987C27.9289 16.348 27.9766 16.1757 27.9766 16C27.9766 15.8244 27.9289 15.6521 27.8387 15.5014C27.7484 15.3507 27.619 15.2274 27.4641 15.1445L6.48453 3.13568C6.33363 3.04746 6.16228 3.00023 5.98749 2.9987C5.8127 2.99716 5.64054 3.04136 5.48811 3.12692C5.33568 3.21247 5.20827 3.3364 5.11854 3.48641C5.0288 3.63642 4.97986 3.80729 4.97656 3.98205V28.018Z" stroke="black" stroke-width="2" stroke-linecap="round" stroke-linejoin="round"/>
<path d="M5.28125 3.2793L21.9914 19.9894" stroke="black" stroke-width="2" stroke-linecap="round" stroke-linejoin="round"/>
<path d="M5.28125 28.7206L21.9912 12.0106" stroke="black" stroke-width="2" stroke-linecap="round" stroke-linejoin="round"/>
</svg>
