<svg viewBox="0 0 32 32" xmlns="http://www.w3.org/2000/svg">
<path d="M26.5 4.5H5.5C4.94772 4.5 4.5 4.94772 4.5 5.5V26.5C4.5 27.0523 4.94772 27.5 5.5 27.5H26.5C27.0523 27.5 27.5 27.0523 27.5 26.5V5.5C27.5 4.94772 27.0523 4.5 26.5 4.5Z" stroke-width="2" stroke-linecap="round" stroke-linejoin="round"/>
<path d="M15 14.0001V22.0001" stroke-width="2" stroke-linecap="round" stroke-linejoin="round"/>
<path d="M11 14.0001V22.0001" stroke-width="2" stroke-linecap="round" stroke-linejoin="round"/>
<path d="M15 17.5001C15 16.5719 15.3687 15.6816 16.0251 15.0252C16.6815 14.3689 17.5717 14.0001 18.5 14.0001C19.4283 14.0001 20.3185 14.3689 20.9749 15.0252C21.6313 15.6816 22 16.5719 22 17.5001V22.0001" stroke-width="2" stroke-linecap="round" stroke-linejoin="round"/>
<path d="M11 11.5C11.8284 11.5 12.5 10.8284 12.5 10C12.5 9.17157 11.8284 8.5 11 8.5C10.1716 8.5 9.5 9.17157 9.5 10C9.5 10.8284 10.1716 11.5 11 11.5Z"/>
</svg>
