<svg viewBox="0 0 24 24" xmlns="http://www.w3.org/2000/svg">
<path d="M16.4113 8.98009L17.2507 8.17716L17.25 8.00003H14.3483L12.28 13.1602L9.92724 8.00068H6.88352V8.17716L7.86423 9.35779C7.91164 9.40047 7.94832 9.45373 7.97129 9.51325C7.99426 9.57276 8.00287 9.63685 7.99642 9.70032V14.3414C8.01049 14.4239 8.00498 14.5086 7.98032 14.5886C7.95566 14.6685 7.91255 14.7416 7.85446 14.8018L6.75067 16.1401V16.3159H9.87775V16.1401L8.77461 14.8018C8.71605 14.7416 8.67195 14.6689 8.64567 14.5891C8.61938 14.5094 8.61159 14.4247 8.62288 14.3414V10.3281L11.3677 16.3165H11.6868L14.0441 10.3281V15.1014C14.0441 15.2277 14.0441 15.2525 13.9608 15.3358L13.1123 16.159V16.3348H17.2298V16.159L16.4113 15.3554C16.3759 15.3283 16.3485 15.2922 16.3321 15.2507C16.3157 15.2093 16.3109 15.1642 16.3181 15.1203V9.21518C16.3109 9.17123 16.3157 9.12614 16.3321 9.08472C16.3485 9.04331 16.3759 9.00714 16.4113 8.98009Z"/>
<path fill-rule="evenodd" clip-rule="evenodd" d="M17.2589 2.83306C13.7924 2.44562 10.209 2.44562 6.74244 2.83306C4.73038 3.05794 3.10605 4.64295 2.8695 6.66548C2.45496 10.2098 2.45496 13.7903 2.8695 17.3346C3.10605 19.3571 4.73038 20.9422 6.74244 21.167C10.209 21.5545 13.7924 21.5545 17.2589 21.167C19.271 20.9422 20.8953 19.3571 21.1319 17.3346C21.5464 13.7903 21.5464 10.2098 21.1319 6.66548C20.8953 4.64295 19.271 3.05794 17.2589 2.83306ZM6.90905 4.32378C10.2649 3.94871 13.7365 3.94871 17.0923 4.32378C18.4224 4.47244 19.4879 5.52205 19.642 6.83973C20.043 10.2683 20.043 13.7318 19.642 17.1604C19.4879 18.478 18.4224 19.5277 17.0923 19.6763C13.7365 20.0514 10.2649 20.0514 6.90905 19.6763C5.57894 19.5277 4.51346 18.478 4.35934 17.1604C3.95834 13.7318 3.95834 10.2683 4.35934 6.83973C4.51346 5.52205 5.57894 4.47244 6.90905 4.32378Z"/>
</svg>
