<svg   viewBox="0 0 32 32" fill="none" xmlns="http://www.w3.org/2000/svg">
<path d="M5.6786 22.1247C4.18768 19.6114 3.66554 16.6402 4.21024 13.7692C4.75494 10.8981 6.329 8.32466 8.63685 6.53203C10.9447 4.73941 13.8276 3.85093 16.7442 4.03344C19.6607 4.21595 22.4103 5.4569 24.4767 7.52325C26.5431 9.5896 27.784 12.3392 27.9666 15.2558C28.1491 18.1724 27.2606 21.0552 25.468 23.3631C23.6754 25.671 21.1019 27.245 18.2309 27.7897C15.3598 28.3345 12.3887 27.8123 9.87532 26.3214L9.87534 26.3213L5.73077 27.5055C5.5593 27.5545 5.37784 27.5567 5.20521 27.512C5.03257 27.4672 4.87504 27.3772 4.74894 27.2511C4.62283 27.125 4.53275 26.9674 4.48802 26.7948C4.44328 26.6221 4.44553 26.4407 4.49452 26.2692L5.67869 22.1246L5.6786 22.1247Z" stroke="black" stroke-width="2" stroke-linecap="round" stroke-linejoin="round"/>
<path d="M10 18L14 14L18 18L22 14" stroke="black" stroke-width="2" stroke-linecap="round" stroke-linejoin="round"/>
</svg>
