<svg viewBox="0 0 24 24" xmlns="http://www.w3.org/2000/svg">
<path d="M16.5756 7.25003C16.6374 7.59473 16.5575 7.93086 16.2373 7.96109L15.7061 8.05698L15.4853 16.374C15.0175 16.6242 14.5917 16.7615 14.2403 16.7493C13.6737 16.7296 13.537 16.5344 13.13 15.9535L9.82475 10.0074L9.67517 15.6431L10.7631 15.9474C10.7631 15.9474 10.745 16.6282 9.86257 16.5975L7.42311 16.6648C7.3563 16.5103 7.43723 16.1329 7.68741 16.0686L8.32725 15.9004L8.52498 8.45081L7.64453 8.34411C7.58277 7.99941 7.77319 7.51503 8.26672 7.49448L10.884 7.39512L14.3287 13.4217L14.4672 8.20066L13.5521 8.05443C13.4923 7.63739 13.7809 7.34321 14.1361 7.32029L16.5756 7.25003Z"/>
<path fill-rule="evenodd" clip-rule="evenodd" d="M17.2589 2.83306C13.7924 2.44562 10.209 2.44562 6.74244 2.83306C4.73038 3.05794 3.10605 4.64295 2.8695 6.66548C2.45496 10.2098 2.45496 13.7903 2.8695 17.3346C3.10605 19.3571 4.73038 20.9422 6.74244 21.167C10.209 21.5545 13.7924 21.5545 17.2589 21.167C19.271 20.9422 20.8953 19.3571 21.1319 17.3346C21.5464 13.7903 21.5464 10.2098 21.1319 6.66548C20.8953 4.64295 19.271 3.05794 17.2589 2.83306ZM6.90905 4.32378C10.2649 3.94871 13.7365 3.94871 17.0923 4.32378C18.4224 4.47244 19.4879 5.52205 19.642 6.83973C20.043 10.2683 20.043 13.7318 19.642 17.1604C19.4879 18.478 18.4224 19.5277 17.0923 19.6763C13.7365 20.0514 10.2649 20.0514 6.90905 19.6763C5.57894 19.5277 4.51346 18.478 4.35934 17.1604C3.95834 13.7318 3.95834 10.2683 4.35934 6.83973C4.51346 5.52205 5.57894 4.47244 6.90905 4.32378Z"/>
</svg>
