<svg   viewBox="0 0 32 32" fill="none" xmlns="http://www.w3.org/2000/svg">
<path d="M21.4922 20C22.3206 20 22.9922 19.3284 22.9922 18.5C22.9922 17.6716 22.3206 17 21.4922 17C20.6638 17 19.9922 17.6716 19.9922 18.5C19.9922 19.3284 20.6638 20 21.4922 20Z" fill="black"/>
<path d="M25.6975 20.4197C25.2442 22.2382 24.2892 23.8927 22.9412 25.1946C21.5932 26.4966 19.9066 27.3936 18.0735 27.7834C16.2404 28.1732 14.3347 28.0401 12.5736 27.3993C10.8125 26.7585 9.26683 25.6358 8.1129 24.1591C6.95897 22.6824 6.24316 20.9112 6.04708 19.0474C5.85101 17.1837 6.18255 15.3023 7.00392 13.6178C7.82529 11.9333 9.10343 10.5135 10.6926 9.52023C12.2818 8.52696 14.1181 8.0002 15.9922 8" stroke="black" stroke-width="2" stroke-linecap="round" stroke-linejoin="round"/>
<path d="M8.40608 11.4833C7.51197 11.395 6.68606 10.9662 6.09934 10.2858C5.51263 9.60534 5.21005 8.72534 5.25424 7.82796C5.29844 6.93059 5.68603 6.08457 6.33676 5.46507C6.9875 4.84557 7.85154 4.50003 8.75001 4.5L23.25 11.5C24.1783 11.5 25.0685 11.1313 25.7249 10.4749C26.3813 9.8185 26.75 8.92826 26.75 8C26.75 7.07174 26.3813 6.1815 25.7249 5.52513C25.0685 4.86875 24.1783 4.5 23.25 4.5" stroke="black" stroke-width="2" stroke-linecap="round" stroke-linejoin="round"/>
<path d="M6.07031 19.2894L15.9879 14V28" stroke="black" stroke-width="2" stroke-linecap="round" stroke-linejoin="round"/>
<path d="M11.9922 16.1333V27.1679" stroke="black" stroke-width="2" stroke-linecap="round" stroke-linejoin="round"/>
</svg>
