<svg viewBox="0 0 32 32" xmlns="http://www.w3.org/2000/svg">
<path d="M15 11L11 28" stroke-width="2" stroke-linecap="round" stroke-linejoin="round"/>
<path d="M7.69393 19.5692C6.82402 18.2716 6.2702 16.7882 6.07687 15.238C5.88355 13.6878 6.05609 12.1139 6.58067 10.6424C7.10525 9.17085 7.96728 7.84271 9.09765 6.76439C10.228 5.68608 11.5953 4.88758 13.0899 4.43291C14.5845 3.97825 16.1648 3.88005 17.7042 4.1462C19.2436 4.41235 20.6992 5.03544 21.9543 5.96553C23.2095 6.89561 24.2293 8.10682 24.932 9.50207C25.6347 10.8973 26.0008 12.4378 26.0009 14C26.0009 19.5228 22.0009 23 18.0009 23C14.0009 23 12.7969 20.3667 12.7969 20.3667" stroke-width="2" stroke-linecap="round" stroke-linejoin="round"/>
</svg>
