<svg   viewBox="0 0 24 24" fill="none" xmlns="http://www.w3.org/2000/svg">
<path fill-rule="evenodd" clip-rule="evenodd" d="M12.0094 22.5972C11.2724 22.673 9.82594 22.748 8.50978 22.7501C7.82242 22.7511 7.14772 22.7324 6.61679 22.6797C6.35454 22.6536 6.10041 22.6168 5.8882 22.561C5.78295 22.5333 5.66269 22.4946 5.54806 22.4367C5.44829 22.3863 5.26359 22.2779 5.13843 22.0668C5.01799 21.8636 4.9595 21.6284 4.98647 21.3826C5.01221 21.148 5.10965 20.9568 5.21191 20.8146C5.40488 20.5463 5.68804 20.3517 5.91989 20.2175C6.02186 20.1584 6.12905 20.1026 6.23794 20.0503C5.77006 19.4778 5.42098 18.8544 5.18705 18.2319C5.06311 18.3862 4.93447 18.5355 4.80837 18.6636C4.70152 18.7722 4.57444 18.8885 4.43576 18.9801C4.32769 19.0515 4.06641 19.2088 3.73375 19.1682C3.38529 19.1255 3.19401 18.8857 3.12206 18.7781C3.03547 18.6486 2.98395 18.5082 2.95094 18.3883C2.88334 18.1428 2.85388 17.8358 2.86021 17.4797C2.87302 16.7595 3.03485 15.7193 3.47362 14.3069C3.81265 13.2152 4.19201 12.2755 4.70223 11.0116L4.70914 10.9945C4.80289 10.7623 4.90119 10.5188 5.00489 10.2604C4.9665 7.942 5.42613 5.73421 6.53438 4.07085C7.69003 2.33635 9.51406 1.2556 12.0008 1.25063C12.0036 1.25063 12.0065 1.25061 12.0094 1.25061C12.0122 1.25061 12.0151 1.25061 12.018 1.25061C14.5047 1.25558 16.3287 2.33635 17.4844 4.07085C18.5926 5.73421 19.0522 7.942 19.0138 10.2604C19.1175 10.5188 19.2158 10.7623 19.3096 10.9945L19.3165 11.0116C19.8267 12.2755 20.2061 13.2152 20.5451 14.3069C20.9839 15.7193 21.1457 16.7595 21.1585 17.4797C21.1649 17.8358 21.1354 18.1428 21.0678 18.3883C21.0348 18.5082 20.9833 18.6486 20.8967 18.7781C20.8247 18.8857 20.6334 19.1255 20.285 19.1682C19.9523 19.2088 19.691 19.0515 19.583 18.9801C19.4443 18.8885 19.3172 18.7722 19.2104 18.6636C19.0843 18.5355 18.9556 18.3862 18.8317 18.2319C18.5978 18.8544 18.2487 19.4778 17.7808 20.0503C17.8897 20.1026 17.9969 20.1584 18.0988 20.2175C18.3307 20.3517 18.6139 20.5463 18.8068 20.8146C18.9091 20.9568 19.0065 21.148 19.0323 21.3826C19.0592 21.6284 19.0007 21.8636 18.8803 22.0668C18.7552 22.2779 18.5705 22.3863 18.4707 22.4367C18.356 22.4946 18.2358 22.5333 18.1305 22.561C17.9183 22.6168 17.6642 22.6536 17.4019 22.6797C16.871 22.7324 16.1963 22.7511 15.509 22.7501C14.1928 22.748 12.7463 22.673 12.0094 22.5972ZM6.50773 10.3779C6.45046 8.18709 6.87915 6.25865 7.78268 4.90256C8.65982 3.58609 10.0171 2.75301 12.0094 2.75062C14.0017 2.75301 15.3589 3.58609 16.2361 4.90256C17.1396 6.25865 17.5683 8.18709 17.511 10.3779C17.5083 10.48 17.5266 10.5816 17.5645 10.6764C17.6901 10.9898 17.8078 11.2813 17.9183 11.5552C18.436 12.8375 18.7935 13.7243 19.1126 14.7518C19.3682 15.5745 19.5134 16.2314 19.5889 16.7396C19.3153 16.3504 19.1001 16.0062 19.0799 15.9738C18.9235 15.7227 18.6341 15.5869 18.341 15.6272L18.3398 15.6274C17.9691 15.6784 17.6927 15.9947 17.692 16.3689C17.69 17.3654 17.1611 18.7537 15.9654 19.7667C15.8313 19.8804 15.7413 20.0375 15.7113 20.2107L15.7111 20.212C15.6713 20.4412 15.7401 20.6758 15.8973 20.8472L15.8982 20.8482C15.9881 20.9463 16.1025 21.0186 16.2296 21.0579C16.3704 21.1014 16.5408 21.1585 16.7159 21.2254C16.3558 21.2431 15.9446 21.2507 15.5113 21.2501C14.1862 21.248 12.652 21.1635 12.0094 21.0929C11.3667 21.1635 9.83254 21.248 8.50744 21.2501C8.07411 21.2507 7.66291 21.2431 7.30287 21.2254C7.47793 21.1585 7.64836 21.1014 7.78913 21.0579C7.91622 21.0186 8.03059 20.9463 8.1205 20.8482L8.12146 20.8472C8.27866 20.6758 8.34744 20.4412 8.30768 20.212L8.30746 20.2107C8.2774 20.0375 8.18745 19.8804 8.05332 19.7667C6.85762 18.7537 6.32877 17.3654 6.32676 16.3689C6.32601 15.9947 6.04962 15.6784 5.67897 15.6274L5.67771 15.6272C5.38461 15.5869 5.09521 15.7227 4.93883 15.9738C4.91868 16.0062 4.70346 16.3504 4.4298 16.7396C4.50536 16.2314 4.65054 15.5745 4.90611 14.7518C5.22521 13.7243 5.58248 12.8382 6.10015 11.5558C6.21069 11.282 6.32868 10.9897 6.45421 10.6764C6.49219 10.5816 6.5104 10.48 6.50773 10.3779Z" fill="black"/>
</svg>
