<svg viewBox="0 0 32 32" xmlns="http://www.w3.org/2000/svg">
<path d="M23.5 6C24.6046 6 25.5 5.10457 25.5 4C25.5 2.89543 24.6046 2 23.5 2C22.3954 2 21.5 2.89543 21.5 4C21.5 5.10457 22.3954 6 23.5 6Z" stroke-width="2" stroke-linecap="round" stroke-linejoin="round"/>
<path d="M20.1314 22.0001C18.8546 22.6572 17.4393 23 16.0032 23.0001C14.5672 23.0001 13.1519 22.6573 11.875 22.0001" stroke-width="2" stroke-linecap="round" stroke-linejoin="round"/>
<path d="M16 9L17 3L21.5231 3.69587" stroke-width="2" stroke-linecap="round" stroke-linejoin="round"/>
<path d="M7.42616 11.2348C9.71473 9.84354 12.7152 9 16.0002 9C19.2852 9 22.2856 9.84354 24.5742 11.2348L24.574 11.2351C24.8362 10.8748 25.1753 10.5774 25.5668 10.3646C25.9582 10.1517 26.3922 10.0288 26.8371 10.0046C27.282 9.9804 27.7268 10.0556 28.139 10.2248C28.5512 10.394 28.9206 10.6528 29.2202 10.9826C29.5199 11.3123 29.7424 11.7047 29.8715 12.1311C30.0006 12.5576 30.0331 13.0075 29.9666 13.4481C29.9001 13.8887 29.7363 14.3089 29.4871 14.6783C29.2379 15.0477 28.9096 15.3569 28.526 15.5836L28.5262 15.5835C28.8379 16.3511 28.9988 17.1715 29.0002 18C29.0002 22.9706 23.1799 27 16.0002 27C8.82046 27 3.00016 22.9706 3.00016 18C3.00154 17.1715 3.16245 16.3511 3.47412 15.5835L3.47437 15.5836C3.09071 15.3569 2.76234 15.0477 2.51312 14.6783C2.26391 14.3089 2.1001 13.8887 2.0336 13.448C1.9671 13.0074 1.99958 12.5575 2.12868 12.1311C2.25777 11.7046 2.48025 11.3122 2.77994 10.9824C3.07963 10.6527 3.44902 10.3938 3.86126 10.2246C4.27349 10.0555 4.71824 9.98024 5.16318 10.0044C5.60812 10.0286 6.04209 10.1516 6.43356 10.3645C6.82502 10.5774 7.16416 10.8748 7.42633 11.2351L7.42616 11.2348Z" stroke-width="2" stroke-linecap="round" stroke-linejoin="round"/>
<path d="M11 18.5C12.1046 18.5 13 17.6046 13 16.5C13 15.3954 12.1046 14.5 11 14.5C9.89543 14.5 9 15.3954 9 16.5C9 17.6046 9.89543 18.5 11 18.5Z"/>
<path d="M21 18.5C22.1046 18.5 23 17.6046 23 16.5C23 15.3954 22.1046 14.5 21 14.5C19.8954 14.5 19 15.3954 19 16.5C19 17.6046 19.8954 18.5 21 18.5Z"/>
</svg>
