<svg viewBox="0 0 24 24" xmlns="http://www.w3.org/2000/svg">
<path fill-rule="evenodd" clip-rule="evenodd" d="M11.9981 2.25L12.0059 2.25004L12.0074 2.25004C12.0331 2.25035 12.0586 2.25199 12.0839 2.2549L17.9881 2.87915C18.0148 2.88177 18.0413 2.88582 18.0674 2.89125C18.1031 2.89865 18.1381 2.90861 18.172 2.921C18.3066 2.97003 18.4272 3.05755 18.5167 3.17759L23.0919 9.31956C23.1199 9.35609 23.1446 9.39548 23.1658 9.43742C23.1699 9.44555 23.1738 9.45378 23.1777 9.4621C23.2312 9.57859 23.2529 9.70405 23.2443 9.82696C23.2399 9.89115 23.2272 9.95464 23.2065 10.0158C23.1862 10.0759 23.1581 10.1338 23.1225 10.1878C23.1116 10.2043 23.0999 10.2205 23.0876 10.2363C23.0792 10.2472 23.0704 10.2578 23.0614 10.2681L12.575 22.4794C12.5497 22.5098 12.5218 22.5385 12.4914 22.565C12.4284 22.6201 12.3577 22.6633 12.2826 22.694C12.1902 22.732 12.0928 22.7503 11.996 22.75C11.9006 22.7498 11.8046 22.7314 11.7136 22.694C11.6383 22.6632 11.5674 22.6199 11.5043 22.5646C11.4741 22.5382 11.4463 22.5097 11.4211 22.4794L0.935644 10.2692C0.910885 10.2409 0.888125 10.2106 0.867635 10.1785C0.790048 10.0568 0.750024 9.91663 0.75 9.77517C0.749988 9.70346 0.760254 9.63144 0.781114 9.56136C0.798638 9.50241 0.823514 9.44528 0.85562 9.3914C0.869992 9.36726 0.885626 9.34408 0.902412 9.32194L5.477 3.181C5.48348 3.17219 5.49016 3.16352 5.49705 3.15497C5.57084 3.06342 5.66434 2.99142 5.7693 2.94346C5.81256 2.92369 5.85776 2.90801 5.90433 2.89672C5.93856 2.88842 5.97342 2.88251 6.00866 2.87909L11.9122 2.2549C11.9376 2.25198 11.9632 2.25035 11.989 2.25004L11.9901 2.25004L11.9981 2.25ZM21.0022 9.02518L18.4537 5.604L18.0802 9.02518H21.0022ZM13.6672 3.93066L16.6998 7.84733L17.0879 4.29234L13.6672 3.93066ZM6.90823 4.29234L10.3289 3.93066L7.29625 7.84737L6.90823 4.29234ZM11.998 4.22506L15.7145 9.0251H8.28146L11.998 4.22506ZM3.13267 10.5252H6.25792L9.37938 17.7994L3.13267 10.5252ZM5.54245 5.60403L2.99393 9.02518H5.91581L5.54245 5.60403ZM20.8635 10.5252L14.6167 17.7995L17.7382 10.5252H20.8635ZM7.89017 10.5252H16.1059L11.9981 20.0981L7.89017 10.5252Z"/>
</svg>
