<svg viewBox="0 0 32 32" xmlns="http://www.w3.org/2000/svg">
<path d="M16 13V16H6.99999C6.20434 16 5.44128 15.6839 4.87867 15.1213C4.31606 14.5587 3.99999 13.7956 3.99999 13C3.99999 12.2044 4.31606 11.4413 4.87867 10.8787C5.44128 10.3161 6.20434 10 6.99999 10H13C13.7956 10 14.5587 10.3161 15.1213 10.8787C15.6839 11.4413 16 12.2044 16 13H16Z" stroke-width="2" stroke-linecap="round" stroke-linejoin="round"/>
<path d="M16 10H13C12.2044 10 11.4413 9.68393 10.8787 9.12132C10.3161 8.55871 10 7.79565 10 7C10 6.20435 10.3161 5.44129 10.8787 4.87868C11.4413 4.31607 12.2044 4 13 4V4C13.7956 4 14.5587 4.31607 15.1213 4.87868C15.6839 5.44129 16 6.20435 16 7V10Z" stroke-width="2" stroke-linecap="round" stroke-linejoin="round"/>
<path d="M19 16H16V6.99999C16 6.20434 16.3161 5.44128 16.8787 4.87867C17.4413 4.31606 18.2044 3.99999 19 3.99999C19.7956 3.99999 20.5587 4.31606 21.1213 4.87867C21.6839 5.44128 22 6.20434 22 6.99999V13C22 13.7956 21.6839 14.5587 21.1213 15.1213C20.5587 15.6839 19.7956 16 19 16V16Z" stroke-width="2" stroke-linecap="round" stroke-linejoin="round"/>
<path d="M22 16V13C22 12.2044 22.3161 11.4413 22.8787 10.8787C23.4413 10.3161 24.2044 10 25 10V10C25.7956 10 26.5587 10.3161 27.1213 10.8787C27.6839 11.4413 28 12.2044 28 13V13C28 13.7956 27.6839 14.5587 27.1213 15.1213C26.5587 15.6839 25.7956 16 25 16H22Z" stroke-width="2" stroke-linecap="round" stroke-linejoin="round"/>
<path d="M16 19V16H25C25.7957 16 26.5587 16.3161 27.1213 16.8787C27.6839 17.4413 28 18.2044 28 19V19C28 19.7956 27.6839 20.5587 27.1213 21.1213C26.5587 21.6839 25.7957 22 25 22H19C18.2044 22 17.4413 21.6839 16.8787 21.1213C16.3161 20.5587 16 19.7956 16 19H16Z" stroke-width="2" stroke-linecap="round" stroke-linejoin="round"/>
<path d="M16 22H19C19.7956 22 20.5587 22.3161 21.1213 22.8787C21.6839 23.4413 22 24.2044 22 25V25C22 25.7956 21.6839 26.5587 21.1213 27.1213C20.5587 27.6839 19.7956 28 19 28V28C18.2044 28 17.4413 27.6839 16.8787 27.1213C16.3161 26.5587 16 25.7956 16 25V22Z" stroke-width="2" stroke-linecap="round" stroke-linejoin="round"/>
<path d="M13 16H16V25C16 25.7956 15.6839 26.5587 15.1213 27.1213C14.5587 27.6839 13.7956 28 13 28V28C12.2044 28 11.4413 27.6839 10.8787 27.1213C10.3161 26.5587 10 25.7956 10 25V19C10 18.2044 10.3161 17.4413 10.8787 16.8787C11.4413 16.3161 12.2044 16 13 16V16Z" stroke-width="2" stroke-linecap="round" stroke-linejoin="round"/>
<path d="M10 16V19C10 19.7956 9.68393 20.5587 9.12132 21.1213C8.55871 21.6839 7.79565 22 7 22C6.20435 22 5.44129 21.6839 4.87868 21.1213C4.31607 20.5587 4 19.7956 4 19V19C4 18.2044 4.31607 17.4413 4.87868 16.8787C5.44129 16.3161 6.20435 16 7 16H10Z" stroke-width="2" stroke-linecap="round" stroke-linejoin="round"/>
</svg>
