<svg   viewBox="0 0 24 24" fill="none" xmlns="http://www.w3.org/2000/svg">
<path fill-rule="evenodd" clip-rule="evenodd" d="M22.3636 17.7071C22.0384 18.5127 21.2717 18.8898 20.8363 19.0678C20.5289 19.1934 20.1801 19.2995 19.8011 19.3896C19.7938 19.4188 19.7862 19.4484 19.7783 19.4783C19.6896 19.8514 19.4791 20.1998 19.1595 20.4539C18.8411 20.7071 18.438 20.8461 18.018 20.832H18.0027L17.9716 20.8307C17.7522 20.8216 17.5342 20.792 17.3205 20.7424C17.0965 20.6932 16.8689 20.6681 16.641 20.667C16.5109 20.6672 16.3803 20.6773 16.2479 20.6978C15.9924 20.7763 15.7513 20.9106 15.5385 21.0996C14.6107 21.9402 13.4318 22.4396 12.1849 22.4983L12.1496 22.5H12.1143C12.0757 22.5 12.032 22.4995 11.9864 22.4981C11.9523 22.4994 11.9181 22.5001 11.8839 22.5L11.8505 22.4999L11.8171 22.4984C10.57 22.4402 9.39094 21.9409 8.46333 21.1001C8.24963 20.9109 8.00753 20.776 7.75416 20.698C7.62487 20.6782 7.49463 20.6679 7.36429 20.6671C7.13979 20.6704 6.91716 20.6974 6.69691 20.7481C6.49674 20.7967 6.2928 20.8281 6.08716 20.8418C5.64694 20.8799 5.21697 20.7493 4.87628 20.4903C4.53884 20.2338 4.31624 19.8741 4.22342 19.4875C4.215 19.4554 4.20677 19.4233 4.19875 19.3911C3.82002 19.3011 3.47142 19.1949 3.16394 19.069C2.72783 18.8904 1.96487 18.5133 1.63928 17.711C1.56035 17.5176 1.51473 17.3135 1.50284 17.1077L1.50217 17.0961C1.48223 16.6975 1.59958 16.2936 1.85009 15.9615C2.09883 15.6316 2.4685 15.389 2.90241 15.3077C3.63311 15.1654 4.31321 14.7437 4.80577 14.0909L4.82154 14.07L4.83803 14.0497C5.05527 13.7818 5.24706 13.4904 5.41068 13.1786C5.32784 13.1509 5.20812 13.1097 5.09636 13.0621C4.87669 12.9696 4.49367 12.79 4.15266 12.5028C3.84772 12.2459 3.20728 11.5757 3.38836 10.5631L3.41092 10.4369L3.45456 10.3164C3.61188 9.88196 3.89888 9.49402 4.29184 9.21874C4.67404 8.95099 5.13404 8.80651 5.61 8.81636C5.6178 8.81638 5.62559 8.81645 5.63338 8.81656C5.60588 7.75016 5.72269 6.68188 5.98265 5.64643L6.00899 5.54154L6.0501 5.44151C6.5284 4.27767 7.32411 3.27474 8.35159 2.56867C9.37588 1.86478 10.5817 1.49021 11.8189 1.50297L12.163 1.50048C13.405 1.48465 14.6162 1.85879 15.6449 2.56451C16.6737 3.27031 17.4708 4.27327 17.9506 5.43754L17.9923 5.53851L18.0188 5.64443C18.2775 6.67683 18.3944 7.74065 18.3678 8.80338C18.3705 8.8034 18.3732 8.80341 18.3758 8.80344C18.6575 8.80467 18.9329 8.85704 19.1914 8.95547C19.5592 9.07505 19.8801 9.29338 20.1257 9.577C20.3991 9.89287 20.5692 10.2773 20.6271 10.678L20.6405 10.771L20.6423 10.865C20.663 11.9945 19.7926 12.6883 18.9024 13.0632L18.8906 13.0681C18.7877 13.1104 18.6774 13.1493 18.5843 13.1806C18.8337 13.6671 19.164 14.0954 19.5554 14.445C20.0312 14.87 20.5845 15.1676 21.1708 15.3228C21.5753 15.4171 21.9188 15.6525 22.1534 15.9658C22.4019 16.2976 22.518 16.7002 22.4978 17.0975L22.4975 17.1036C22.4861 17.3093 22.4418 17.5136 22.3636 17.7071ZM20.9722 17.1451C20.988 17.1058 20.9974 17.0639 20.9997 17.0212C21.0026 16.9648 20.9859 16.9092 20.9528 16.865C20.9197 16.8208 20.8726 16.7911 20.8203 16.7816C20.7049 16.7519 20.5906 16.7182 20.4776 16.6808L20.4736 16.6795C20.2111 16.5923 19.9555 16.4847 19.7088 16.3577C19.6832 16.3445 19.6578 16.3312 19.6324 16.3176C19.2487 16.1122 18.8874 15.8596 18.5561 15.5637C17.8997 14.9773 17.3793 14.2372 17.0358 13.4011L17.0309 13.3893C16.9578 13.2617 16.9118 13.1185 16.8961 12.9699C16.8804 12.8214 16.8953 12.6709 16.9399 12.5291C17.0075 12.3584 17.1369 12.2248 17.2922 12.1178C17.3087 12.1065 17.3255 12.0954 17.3425 12.0846C17.5735 11.9385 17.8503 11.845 18.0658 11.7724C18.0792 11.7679 18.0925 11.7635 18.1057 11.759C18.1089 11.7579 18.1121 11.7569 18.1153 11.7558C18.1193 11.7544 18.1233 11.7531 18.1273 11.7517C18.1989 11.7273 18.2655 11.7032 18.3202 11.6807C18.3291 11.677 18.3378 11.6733 18.3465 11.6696C18.3524 11.667 18.3583 11.6645 18.3641 11.6619L18.3657 11.6612C18.4647 11.6179 18.5517 11.5745 18.628 11.5313C18.6509 11.5183 18.6727 11.5054 18.6937 11.4925C19.0608 11.2667 19.1454 11.0495 19.1425 10.8926C19.1245 10.7678 19.0719 10.6516 18.9916 10.5588C18.9112 10.4659 18.8067 10.4007 18.6914 10.3715L18.6865 10.3689C18.5845 10.3257 18.4763 10.3034 18.3657 10.3034C18.3296 10.3029 18.2936 10.3055 18.2581 10.311C18.1988 10.3203 18.1407 10.338 18.0855 10.3636C18.0016 10.4088 17.9154 10.4483 17.8274 10.4821C17.824 10.4834 17.8205 10.4847 17.8171 10.486C17.7996 10.4926 17.782 10.499 17.7643 10.5051C17.7468 10.5112 17.7292 10.5171 17.7115 10.5228C17.6933 10.5286 17.6749 10.5342 17.6565 10.5396L17.6512 10.5411C17.5121 10.5813 17.3694 10.6074 17.2251 10.6189C17.1418 10.6208 17.0598 10.6079 16.9819 10.5814C16.8977 10.5527 16.8184 10.508 16.7482 10.4487L16.7764 9.93944L16.7801 9.87791C16.9534 8.58594 16.8798 7.27 16.5638 6.00907C16.1909 5.10428 15.5762 4.33646 14.7963 3.80142C14.0164 3.26637 13.1058 2.98778 12.1783 3.00041L11.8157 3.00303C10.8891 2.99093 9.97976 3.26983 9.20113 3.8049C8.4225 4.33998 7.80909 5.10752 7.4375 6.01169C7.12162 7.26988 7.04787 8.58568 7.21995 9.87529C7.23184 10.0664 7.2429 10.2575 7.25313 10.4487C7.18254 10.5077 7.10341 10.5525 7.0196 10.5817C6.92613 10.6144 6.82684 10.6278 6.72707 10.6203C6.59764 10.6144 6.46903 10.5963 6.34291 10.5664C6.34075 10.5659 6.33858 10.5654 6.33641 10.5649C6.32467 10.5621 6.31296 10.5591 6.30127 10.5561C6.26043 10.5456 6.21987 10.5338 6.17966 10.5207C6.17627 10.5196 6.17288 10.5185 6.1695 10.5174C6.16036 10.5144 6.15123 10.5113 6.14213 10.5082C6.02985 10.4695 5.9204 10.4212 5.81505 10.3636C5.79218 10.3528 5.76867 10.3438 5.7447 10.3367C5.69575 10.3221 5.6449 10.3153 5.59381 10.3165C5.43749 10.31 5.28318 10.3557 5.15248 10.4473C5.02178 10.5388 4.92123 10.6716 4.86493 10.8271C4.82064 11.0748 5.00245 11.2819 5.22771 11.4384C5.24751 11.4522 5.26765 11.4655 5.288 11.4785C5.37113 11.5315 5.4578 11.5779 5.53955 11.6172C5.56933 11.6315 5.59847 11.6448 5.62653 11.6572C5.64523 11.6655 5.66345 11.6733 5.68108 11.6807C5.73611 11.7044 5.80327 11.7281 5.87542 11.7523C5.89513 11.759 5.9152 11.7657 5.93551 11.7724C6.13784 11.8407 6.39562 11.9278 6.61795 12.0598C6.63229 12.0684 6.64648 12.0771 6.6605 12.086C6.67854 12.0974 6.69631 12.1092 6.71374 12.1213C6.86699 12.2277 6.99453 12.3602 7.06139 12.5291C7.10588 12.6712 7.12068 12.8219 7.10476 12.9707C7.08884 13.1196 7.04257 13.2629 6.9692 13.3906L6.96552 13.4011C6.716 13.9785 6.39274 14.514 6.00311 14.9945C5.57337 15.5639 5.03528 16.0216 4.43003 16.3412C4.39377 16.3604 4.35728 16.379 4.32055 16.3972C3.96026 16.5752 3.57764 16.7051 3.18103 16.7816C3.12851 16.7909 3.08105 16.8204 3.04771 16.8646C3.01438 16.9088 2.99751 16.9646 3.00035 17.0212C3.00282 17.0641 3.01239 17.1062 3.02861 17.1456C3.07196 17.2533 3.1628 17.3559 3.2994 17.4527C3.30359 17.4557 3.30782 17.4587 3.3121 17.4616C3.51198 17.5999 3.80582 17.726 4.18852 17.8378C4.30286 17.8712 4.42513 17.9033 4.5552 17.934C4.78748 17.989 5.04462 18.0396 5.32586 18.0856C5.45123 18.1066 5.50408 18.3252 5.57783 18.6826C5.60669 18.8323 5.64072 18.9808 5.67985 19.1278C5.69375 19.1957 5.73089 19.2558 5.78406 19.2962C5.83722 19.3366 5.9026 19.3545 5.96746 19.3464C6.0962 19.339 6.2241 19.3197 6.34972 19.2888C6.68159 19.2116 7.01837 19.171 7.35761 19.167C7.60143 19.1677 7.84479 19.1895 8.08525 19.2325C8.59242 19.3696 9.06416 19.6265 9.46557 19.984C10.1437 20.6008 10.996 20.9584 11.887 21C11.9169 21.0001 11.9468 20.9987 11.9767 20.9961C12.0136 20.9987 12.0627 21 12.1143 21C13.0052 20.958 13.8573 20.6005 14.5357 19.984C14.9377 19.6253 15.4084 19.37 15.916 19.2325C16.1569 19.1893 16.3991 19.167 16.6437 19.167C16.9828 19.1683 17.3209 19.206 17.6528 19.2796C17.7781 19.3092 17.9056 19.3267 18.0338 19.332H18.0547C18.1158 19.3375 18.1767 19.319 18.2259 19.2799C18.275 19.2408 18.309 19.1839 18.3214 19.1199C18.362 18.9693 18.394 18.8253 18.4235 18.6787C18.496 18.3226 18.5501 18.1052 18.6754 18.0843C18.9815 18.0339 19.259 17.9782 19.5069 17.9176C19.6137 17.8915 19.715 17.8644 19.8107 17.8365C20.1619 17.7342 20.4384 17.6199 20.6363 17.4954C20.6575 17.482 20.6779 17.4685 20.6973 17.4549C20.7388 17.4259 20.7762 17.3962 20.8094 17.3661C20.8867 17.2959 20.9411 17.2229 20.972 17.1473L20.9722 17.1451Z" fill="black"/>
</svg>
