<svg   viewBox="0 0 32 32" fill="none" xmlns="http://www.w3.org/2000/svg">
<path d="M16 28C22.6274 28 28 22.6274 28 16C28 9.37258 22.6274 4 16 4C9.37258 4 4 9.37258 4 16C4 22.6274 9.37258 28 16 28Z" stroke="black" stroke-width="2" stroke-linecap="round" stroke-linejoin="round"/>
<path d="M22.3885 13.5412C20.4083 12.5272 18.2152 11.9989 15.9904 12C13.7657 12.0011 11.5731 12.5314 9.59375 13.5472" stroke="black" stroke-width="2" stroke-linecap="round" stroke-linejoin="round"/>
<path d="M20.5386 17.0893C19.1315 16.3723 17.5744 15.999 15.9951 16C14.4159 16.001 12.8593 16.3764 11.4531 17.0952" stroke="black" stroke-width="2" stroke-linecap="round" stroke-linejoin="round"/>
<path d="M18.6843 20.6341C17.849 20.2161 16.9277 19.999 15.9938 20C15.0598 20.001 14.139 20.2202 13.3047 20.64" stroke="black" stroke-width="2" stroke-linecap="round" stroke-linejoin="round"/>
</svg>
