<svg   viewBox="0 0 32 32" fill="none" xmlns="http://www.w3.org/2000/svg">
<path d="M10.9989 16.859L22.2385 26.7499C22.3686 26.8644 22.5261 26.9431 22.6957 26.9783C22.8653 27.0136 23.0412 27.0041 23.206 26.951C23.3709 26.8978 23.5191 26.8027 23.6362 26.675C23.7533 26.5474 23.8352 26.3915 23.8739 26.2226L28.5756 5.70604C28.6162 5.52865 28.6077 5.34354 28.5509 5.17064C28.4941 4.99774 28.3913 4.84361 28.2533 4.72487C28.1154 4.60613 27.9477 4.52727 27.7683 4.49679C27.5889 4.46631 27.4046 4.48537 27.2352 4.55191L4.1656 13.615C3.96454 13.694 3.79447 13.8359 3.68082 14.0196C3.56718 14.2033 3.51608 14.4189 3.53516 14.6341C3.55425 14.8492 3.6425 15.0525 3.7867 15.2133C3.9309 15.3741 4.12331 15.4839 4.33513 15.5263L10.9989 16.859Z" stroke="black" stroke-width="2" stroke-linecap="round" stroke-linejoin="round"/>
<path d="M11 16.8591L28.014 4.57117" stroke="black" stroke-width="2" stroke-linecap="round" stroke-linejoin="round"/>
<path d="M16.6134 21.7988L12.7071 25.7051C12.5673 25.8449 12.3891 25.9402 12.1951 25.9787C12.0011 26.0173 11.8 25.9975 11.6173 25.9218C11.4346 25.8461 11.2784 25.718 11.1685 25.5535C11.0587 25.3891 11 25.1957 11 24.998V16.859" stroke="black" stroke-width="2" stroke-linecap="round" stroke-linejoin="round"/>
</svg>
