<svg   viewBox="0 0 32 32" fill="none" xmlns="http://www.w3.org/2000/svg">
<path d="M21.0013 13.2479C23.0398 14.7159 25.4892 15.504 28.0013 15.5V10.5C26.1448 10.5 24.3643 9.7625 23.0516 8.44975C21.7388 7.13699 21.0013 5.35652 21.0013 3.5H16.0013V19.5C16.0012 20.1263 15.833 20.7411 15.5142 21.2802C15.1955 21.8194 14.7379 22.2631 14.1893 22.5652C13.6406 22.8672 13.0209 23.0165 12.3949 22.9975C11.7689 22.9784 11.1595 22.7918 10.6302 22.4569C10.1009 22.1221 9.67113 21.6513 9.38576 21.0938C9.10039 20.5363 8.96985 19.9124 9.00775 19.2873C9.04566 18.6621 9.25063 18.0586 9.60127 17.5396C9.95192 17.0206 10.4354 16.6053 11.0013 16.3369L11.0013 11.1319C9.40958 11.4172 7.93219 12.1505 6.74257 13.2459C5.55295 14.3413 4.70046 15.7532 4.28514 17.3161C3.86982 18.879 3.9089 20.5279 4.3978 22.0693C4.88671 23.6108 5.80514 24.9808 7.04532 26.0186C8.2855 27.0564 9.79597 27.7189 11.3995 27.9284C13.0029 28.1379 14.6329 27.8856 16.0981 27.2013C17.5633 26.5169 18.8028 25.4288 19.6713 24.0647C20.5398 22.7006 21.0012 21.1171 21.0013 19.5L21.0013 13.2479Z" stroke="black" stroke-width="2" stroke-linecap="round" stroke-linejoin="round"/>
</svg>
