<svg   viewBox="0 0 24 24" fill="none" xmlns="http://www.w3.org/2000/svg">
<path d="M10.8737 16.4069C10.9226 16.2903 10.9477 16.1653 10.9475 16.039V6.95853C10.9475 6.42953 10.5122 6.00003 9.97347 6.00003H6.97221C6.43601 6.00003 6.00067 6.43003 6.00067 6.95853V16.039C6.00094 16.2934 6.1033 16.5373 6.28537 16.7174C6.46744 16.8975 6.71439 16.9991 6.97221 17H9.97347C10.1014 17.0002 10.2282 16.9754 10.3464 16.9271C10.4646 16.8789 10.5721 16.8081 10.6625 16.7189C10.753 16.6296 10.8248 16.5236 10.8737 16.4069Z" fill="black"/>
<path d="M17.7161 12.7175C17.8982 12.5374 18.0005 12.2934 18.0007 12.039V6.95853C18.0007 6.42953 17.5648 6.00003 17.0291 6.00003H14.0279C13.4922 6.00003 13.0538 6.43003 13.0538 6.95853V12.039C13.0541 12.2938 13.1568 12.5381 13.3394 12.7183C13.522 12.8984 13.7696 12.9998 14.0279 13H17.0291C17.287 12.9992 17.534 12.8977 17.7161 12.7175Z" fill="black"/>
<path fill-rule="evenodd" clip-rule="evenodd" d="M17.2589 2.83306C13.7924 2.44562 10.209 2.44562 6.74244 2.83306C4.73038 3.05794 3.10605 4.64295 2.8695 6.66548C2.45496 10.2098 2.45496 13.7903 2.8695 17.3346C3.10605 19.3571 4.73038 20.9422 6.74244 21.167C10.209 21.5545 13.7924 21.5545 17.2589 21.167C19.271 20.9422 20.8953 19.3571 21.1319 17.3346C21.5464 13.7903 21.5464 10.2098 21.1319 6.66548C20.8953 4.64295 19.271 3.05794 17.2589 2.83306ZM6.90905 4.32378C10.2649 3.94871 13.7365 3.94871 17.0923 4.32378C18.4224 4.47244 19.4879 5.52205 19.642 6.83973C20.043 10.2683 20.043 13.7318 19.642 17.1604C19.4879 18.478 18.4224 19.5277 17.0923 19.6763C13.7365 20.0514 10.2649 20.0514 6.90905 19.6763C5.57894 19.5277 4.51346 18.478 4.35934 17.1604C3.95834 13.7318 3.95834 10.2683 4.35934 6.83973C4.51346 5.52205 5.57894 4.47244 6.90905 4.32378Z" fill="black"/>
</svg>
