<svg viewBox="0 0 24 24" xmlns="http://www.w3.org/2000/svg">
<path fill-rule="evenodd" clip-rule="evenodd" d="M15.0215 3.34352C15.5299 3.25644 16.0992 3.22736 16.635 3.31801C17.5918 3.47989 18.4757 3.92462 19.1744 4.59138C19.6311 4.60171 20.0799 4.51173 20.477 4.38347C20.8131 4.27492 21.097 4.14385 21.296 4.04021C21.3949 3.98868 21.4713 3.94472 21.521 3.91496C21.5458 3.90011 21.5638 3.88886 21.5745 3.88207L21.5841 3.87601C21.8809 3.67828 22.2761 3.71677 22.529 3.96827C22.7819 4.21984 22.8226 4.61476 22.6264 4.91266C22.4187 5.22795 22.1303 5.79002 21.8073 6.41978C21.7565 6.5188 21.7048 6.61949 21.6525 6.72116C21.4672 7.08113 21.2772 7.44494 21.1001 7.75707C20.9889 7.95306 20.87 8.15204 20.7501 8.32398V8.59775C20.7577 9.60338 20.6424 10.6038 20.4083 11.577C20.261 12.1893 20.0667 12.7909 19.8265 13.3763C19.2041 14.893 18.2857 16.2704 17.1249 17.4282C15.9642 18.5859 14.5844 19.5008 13.0662 20.1193C11.5492 20.7373 9.9245 21.0471 8.28665 21.0306C5.91234 21.0327 3.58798 20.3486 1.59326 19.0607C1.29945 18.871 1.17576 18.5035 1.29509 18.1747C1.41443 17.846 1.74512 17.6434 2.09219 17.6863C2.39255 17.7235 2.69496 17.7416 2.99762 17.7407C4.08507 17.7376 5.15181 17.4973 6.12567 17.0447C5.81612 16.9038 5.52058 16.73 5.24443 16.5253C4.43271 15.9234 3.8288 15.0834 3.51673 14.1223C3.43564 13.8725 3.49108 13.5985 3.66289 13.3999C3.66597 13.3964 3.66908 13.3929 3.67221 13.3894C3.48869 13.2257 3.31696 13.0475 3.15886 12.8559C2.44754 11.9937 2.05587 10.9123 2.05009 9.79453L2.05007 9.79065L2.05008 9.74065C2.05008 9.47478 2.19083 9.22879 2.42003 9.09407C2.47813 9.05992 2.53972 9.03421 2.60307 9.01697C2.26473 8.34189 2.08879 7.59644 2.09007 6.84018C2.08968 5.98342 2.31347 5.14145 2.73923 4.39795C2.86214 4.18331 3.08297 4.04307 3.3295 4.0231C3.57603 4.00312 3.81656 4.10598 3.97242 4.29802C4.93498 5.48403 6.13626 6.45429 7.49825 7.14576C8.19839 7.50121 8.93294 7.77891 9.68874 7.97534C10.1125 8.08547 10.5429 8.17006 10.9777 8.22849C10.9585 7.50523 11.1013 6.78236 11.4011 6.11443C11.8407 5.1346 12.5932 4.32843 13.5404 3.82233C13.9416 3.60801 14.4741 3.43729 15.0215 3.34352ZM3.74335 10.891C3.873 11.2559 4.06586 11.5982 4.31592 11.9013C4.80724 12.4969 5.48919 12.9044 6.24641 13.0551C6.58369 13.1222 6.83213 13.41 6.84916 13.7535C6.86618 14.097 6.64743 14.408 6.31843 14.5082C6.04594 14.5911 5.76676 14.6489 5.48441 14.681C5.67099 14.9215 5.89047 15.1369 6.13787 15.3204C6.69906 15.7365 7.376 15.9673 8.07451 15.9808C8.39143 15.9869 8.6703 16.1916 8.77112 16.4921C8.87195 16.7926 8.77296 17.124 8.52386 17.3201C7.47469 18.1456 6.26149 18.7213 4.97594 19.0151C6.04142 19.3564 7.15887 19.532 8.28916 19.5306L8.29786 19.5306C9.73792 19.5456 11.1665 19.2735 12.5002 18.7302C13.8339 18.1868 15.046 17.3832 16.0656 16.3661C17.0853 15.3491 17.892 14.1391 18.4388 12.8068C18.6498 12.2926 18.8205 11.7641 18.9499 11.2262C19.1557 10.3704 19.257 9.49078 19.2501 8.60651L19.2501 8.60065V8.07065C19.2501 7.88879 19.3161 7.71314 19.436 7.57636C19.5053 7.49732 19.6264 7.31476 19.7955 7.01686C19.9561 6.73374 20.1339 6.39383 20.3188 6.03465C20.33 6.01293 20.3412 5.99109 20.3525 5.96915C19.8729 6.0733 19.3293 6.12789 18.7595 6.06631C18.579 6.0468 18.4118 5.96252 18.2887 5.82908C17.7858 5.28374 17.1162 4.92073 16.3848 4.79699C16.0602 4.74209 15.6679 4.75465 15.2748 4.82199C14.8477 4.89515 14.476 5.02317 14.2473 5.14534C13.593 5.49491 13.0733 6.05175 12.7696 6.72854C12.4659 7.40533 12.3954 8.16377 12.5692 8.88493C12.6246 9.11484 12.5683 9.35742 12.4174 9.53945C12.2664 9.72148 12.0384 9.82164 11.8022 9.80969C10.9588 9.76703 10.1243 9.63838 9.31142 9.42711C8.45152 9.20362 7.61579 8.88767 6.81921 8.48326C5.64643 7.88785 4.57838 7.11075 3.65354 6.18306C3.61135 6.39868 3.58993 6.6187 3.59008 6.84015L3.59007 6.84207C3.58903 7.39279 3.72418 7.93522 3.98349 8.42107C4.2428 8.90692 4.61822 9.32111 5.07633 9.62676C5.35436 9.81226 5.47608 10.1593 5.37483 10.4779C5.27358 10.7964 4.97378 11.0095 4.63968 11.0004C4.33708 10.9921 4.03702 10.9553 3.74335 10.891Z"/>
</svg>
