<svg   viewBox="0 0 32 32" fill="none" xmlns="http://www.w3.org/2000/svg">
<path d="M20.638 25H15.3621C15.1281 25 14.9016 25.082 14.7219 25.2318L9 30V25H6C5.73478 25 5.48043 24.8946 5.29289 24.7071C5.10536 24.5196 5 24.2652 5 24V6C5 5.73478 5.10536 5.48043 5.29289 5.29289C5.48043 5.10536 5.73478 5 6 5H26C26.2652 5 26.5196 5.10536 26.7071 5.29289C26.8946 5.48043 27 5.73478 27 6V19.5316C27 19.6782 26.9678 19.823 26.9056 19.9558C26.8434 20.0885 26.7528 20.206 26.6402 20.2998L21.2781 24.7682C21.0984 24.918 20.8719 25 20.638 25Z" stroke="black" stroke-width="2" stroke-linecap="round" stroke-linejoin="round"/>
<path d="M21 11V17" stroke="black" stroke-width="2" stroke-linecap="round" stroke-linejoin="round"/>
<path d="M15 11V17" stroke="black" stroke-width="2" stroke-linecap="round" stroke-linejoin="round"/>
</svg>
