<svg   viewBox="0 0 24 24" fill="none" xmlns="http://www.w3.org/2000/svg">
<path d="M7.96472 6.20178C7.77897 6.17464 7.58952 6.21193 7.42791 6.30744H7.41413C7.03892 6.52737 6.70092 6.80535 6.41269 7.13103C6.17316 7.40797 6.04322 7.68819 6.0091 7.95791C5.98875 8.11869 6.00253 8.27947 6.05044 8.43303L6.0675 8.44353C6.33722 9.23628 6.68963 9.99884 7.12013 10.7168C7.67467 11.7254 8.35713 12.6582 9.15057 13.4921L9.17419 13.5262L9.2116 13.5537L9.23522 13.5813L9.26278 13.6049C10.0997 14.4007 11.0347 15.0863 12.0453 15.6452C13.2003 16.2739 13.9012 16.5712 14.3218 16.6946V16.7011C14.4452 16.7385 14.5574 16.7556 14.6703 16.7556C15.0288 16.7293 15.3682 16.5838 15.6343 16.3422C15.9585 16.0538 16.2334 15.7145 16.4481 15.3374V15.3309C16.6495 14.9516 16.5813 14.5926 16.2906 14.3498C15.7083 13.8409 15.0788 13.3888 14.4104 12.9999C13.9628 12.7571 13.5081 12.9041 13.3237 13.1502L12.9306 13.6456C12.7291 13.8917 12.3629 13.8576 12.3629 13.8576L12.3524 13.8642C9.62175 13.1666 8.89332 10.4018 8.89332 10.4018C8.89332 10.4018 8.85919 10.0257 9.11185 9.83412L9.60403 9.43775C9.83963 9.24612 10.0037 8.792 9.75103 8.34378C9.36477 7.67451 8.91373 7.04477 8.40441 6.46362C8.29306 6.32662 8.13685 6.2334 7.96341 6.20047L7.96472 6.20178Z" fill="black"/>
<path d="M12.5792 4.99997C12.3031 4.99997 12.0792 5.22383 12.0792 5.49997C12.0792 5.77611 12.3031 5.99997 12.5792 5.99997C13.8437 5.99997 14.8944 6.41329 15.7245 7.20472C16.1518 7.63811 16.4844 8.15112 16.7028 8.71251C16.922 9.27601 17.0217 9.87688 16.9961 10.4787C16.9844 10.7546 17.1985 10.9878 17.4744 10.9995C17.7503 11.0112 17.9835 10.7971 17.9952 10.5212C18.0267 9.78077 17.9039 9.04202 17.6347 8.34997C17.3655 7.65795 16.9558 7.02734 16.4307 6.49645L16.4207 6.48683C15.3907 5.50181 14.0851 4.99997 12.5792 4.99997Z" fill="black"/>
<path d="M12.5452 6.6443C12.2691 6.6443 12.0452 6.86815 12.0452 7.1443C12.0452 7.42044 12.2691 7.6443 12.5452 7.6443H12.5615C13.474 7.7086 14.1379 8.01274 14.6034 8.51198C15.0799 9.02614 15.3267 9.66477 15.3084 10.4549C15.302 10.731 15.5207 10.96 15.7967 10.9664C16.0728 10.9728 16.3018 10.7542 16.3082 10.4781C16.3322 9.44059 15.9985 8.54595 15.3363 7.83162L15.3354 7.83068C14.6588 7.10459 13.7305 6.72048 12.6122 6.64542L12.5955 6.6443H12.5452Z" fill="black"/>
<path d="M12.5263 8.31865C12.2505 8.30413 12.0152 8.51591 12.0007 8.79167C11.9862 9.06743 12.198 9.30275 12.4737 9.31727C12.8924 9.3393 13.1592 9.46487 13.327 9.63431C13.4956 9.80448 13.6216 10.077 13.6446 10.5042C13.6595 10.7799 13.895 10.9914 14.1708 10.9766C14.4465 10.9618 14.658 10.7262 14.6432 10.4505C14.6109 9.85046 14.4231 9.31999 14.0376 8.93065C13.6513 8.54059 13.1238 8.3501 12.5263 8.31865Z" fill="black"/>
<path fill-rule="evenodd" clip-rule="evenodd" d="M7.06673 2.38345C10.2488 1.67215 13.5487 1.67215 16.7308 2.38345L17.0699 2.45923C18.9667 2.88322 20.4637 4.33804 20.9418 6.22191C21.7495 9.40476 21.7495 12.7389 20.9418 15.9218C20.4637 17.8057 18.9666 19.2605 17.0699 19.6845L16.7308 19.7603C14.732 20.207 12.6867 20.3732 10.6533 20.2587L8.0001 22.6326C7.79637 22.8149 7.50959 22.8719 7.25164 22.7814C6.99369 22.6908 6.80543 22.4671 6.76029 22.1975L6.32148 19.5762C4.61909 19.0472 3.29919 17.669 2.85579 15.9218C2.04807 12.7389 2.04807 9.40476 2.85579 6.22191C3.33386 4.33804 4.83092 2.88322 6.7277 2.45923L7.06673 2.38345ZM16.4036 3.84732C13.437 3.18419 10.3606 3.18419 7.39395 3.84732L7.05492 3.9231C5.71009 4.22371 4.64866 5.25519 4.3097 6.59088C3.56343 9.53158 3.56343 12.6121 4.3097 15.5528C4.64866 16.8885 5.71008 17.92 7.05492 18.2206L7.14448 18.2406C7.44237 18.3072 7.67018 18.5477 7.72058 18.8487L8.01485 20.6066L9.88722 18.9314C10.0384 18.7961 10.2379 18.7278 10.4403 18.7422C12.4338 18.8833 14.4427 18.7347 16.4036 18.2964L16.7426 18.2206C18.0875 17.92 19.1489 16.8885 19.4879 15.5528C20.2341 12.6121 20.2341 9.53158 19.4879 6.59088C19.1489 5.25519 18.0875 4.22371 16.7426 3.9231L16.4036 3.84732Z" fill="black"/>
</svg>
