<svg   viewBox="0 0 24 24" fill="none" xmlns="http://www.w3.org/2000/svg">
<path d="M8.88778 7.16985C9.07074 7.17475 9.27358 7.18465 9.46657 7.61303C9.59454 7.89821 9.81012 8.42321 9.98573 8.85087C10.1224 9.18366 10.2348 9.45751 10.263 9.51356C10.3273 9.64156 10.3669 9.78926 10.2828 9.96156C10.2728 9.98188 10.2635 10.0013 10.2545 10.02C10.187 10.16 10.139 10.2597 10.0256 10.3899C9.97892 10.4435 9.93033 10.5022 9.88192 10.5607C9.79677 10.6636 9.71218 10.7658 9.63968 10.838C9.51108 10.9659 9.37746 11.1039 9.52585 11.3599C9.67433 11.6159 10.1937 12.4579 10.9605 13.1373C11.7848 13.8712 12.5016 14.1805 12.864 14.3368C12.9343 14.3672 12.9913 14.3918 13.0331 14.4126C13.2904 14.5406 13.4438 14.5209 13.5921 14.3486C13.7406 14.1762 14.2352 13.6001 14.4084 13.3441C14.5766 13.0881 14.7497 13.1275 14.9872 13.2161C15.2246 13.3047 16.491 13.9251 16.7482 14.0531C16.7991 14.0784 16.8466 14.1012 16.8907 14.1224C17.0697 14.2082 17.1913 14.2665 17.2429 14.3535C17.3072 14.4618 17.3072 14.9739 17.0945 15.5746C16.8769 16.1752 15.8281 16.7513 15.3532 16.7956C15.3083 16.7999 15.2635 16.8053 15.2175 16.8108C14.7823 16.8635 14.2298 16.9303 12.2615 16.1555C9.83608 15.2018 8.23506 12.8354 7.91136 12.357C7.88581 12.3192 7.86822 12.2932 7.85881 12.2806L7.85333 12.2733C7.70606 12.0762 6.80512 10.8707 6.80512 9.62685C6.80512 8.43682 7.39134 7.81726 7.65872 7.53467C7.67567 7.51676 7.69133 7.50021 7.70549 7.48494C7.9429 7.22895 8.21998 7.16495 8.39309 7.16495C8.56628 7.16495 8.73939 7.16495 8.88778 7.16985Z" fill="black"/>
<path fill-rule="evenodd" clip-rule="evenodd" d="M2.18601 21.3314C2.10419 21.6284 2.37468 21.9025 2.67273 21.8247L7.28007 20.6213C8.73443 21.409 10.3718 21.8275 12.039 21.8275H12.0439C17.5299 21.8275 22.0018 17.3815 22.0018 11.9163C22.0018 9.26735 20.9679 6.77594 19.0881 4.90491C17.2084 3.03397 14.7102 2 12.0438 2C6.5579 2 2.08594 6.44605 2.08594 11.9114C2.08531 13.65 2.54423 15.3582 3.41662 16.8645L2.18601 21.3314ZM4.86275 17.2629C4.96957 16.8752 4.9162 16.4608 4.71464 16.1127C3.97449 14.8348 3.58541 13.3855 3.58594 11.9114C3.58594 7.28158 7.37921 3.5 12.0438 3.5C14.3137 3.5 16.4314 4.37698 18.03 5.96805C19.6267 7.55737 20.5018 9.66611 20.5018 11.9163C20.5018 16.5459 16.7086 20.3275 12.0439 20.3275H12.039C10.6224 20.3275 9.23046 19.9718 7.99449 19.3023C7.65997 19.1211 7.26909 19.0738 6.90099 19.17L4.13859 19.8915L4.86275 17.2629Z" fill="black"/>
</svg>
