<svg viewBox="0 0 24 24" xmlns="http://www.w3.org/2000/svg">
<path fill-rule="evenodd" clip-rule="evenodd" d="M21.0954 12.7559C21.0753 12.7491 21.0537 12.7454 21.0312 12.7454H12.4781C12.4557 12.7454 12.4341 12.7491 12.4139 12.7559C12.3349 12.7826 12.2781 12.8574 12.2781 12.9454V19.3675C12.2781 19.4656 12.3492 19.5491 12.446 19.5649L20.9991 20.9576C21.1208 20.9774 21.2312 20.8835 21.2312 20.7602V12.9454C21.2312 12.8574 21.1744 12.7826 21.0954 12.7559ZM19.7312 19.2314V14.2454H13.7781V18.2621L19.7312 19.2314ZM12.4139 11.2466C12.4341 11.2534 12.4557 11.2571 12.4781 11.2571H21.0312C21.0537 11.2571 21.0753 11.2534 21.0954 11.2466C21.1744 11.2198 21.2312 11.1451 21.2312 11.0571V3.23826C21.2312 3.11474 21.1204 3.02076 20.9985 3.04095L12.4454 4.45826C12.3489 4.47425 12.2781 4.55773 12.2781 4.65557V11.0571C12.2781 11.1451 12.3349 11.2198 12.4139 11.2466ZM19.7312 4.7714L13.7781 5.75788V9.75709H19.7312V4.7714ZM10.242 11.2463C10.3243 11.2216 10.3844 11.1452 10.3844 11.0547V4.96794C10.3844 4.84443 10.2735 4.75044 10.1517 4.77063L2.98371 5.95827C2.88719 5.97426 2.81641 6.05774 2.81641 6.15558V11.0547C2.81641 11.1452 2.87643 11.2216 2.95882 11.2463C2.97705 11.2518 2.99639 11.2547 3.01641 11.2547H10.1844C10.2044 11.2547 10.2237 11.2518 10.242 11.2463ZM8.88436 6.50106L4.31641 7.25791V9.75475H8.88436V6.50106ZM10.242 12.7538C10.2237 12.7483 10.2044 12.7454 10.1844 12.7454H3.01641C2.99639 12.7454 2.97705 12.7483 2.95882 12.7538C2.87643 12.7785 2.81641 12.8549 2.81641 12.9454V17.891C2.81641 17.989 2.88748 18.0726 2.98425 18.0883L10.1522 19.256C10.2739 19.2758 10.3844 19.1819 10.3844 19.0586V12.9454C10.3844 12.8549 10.3243 12.7785 10.242 12.7538ZM8.88436 17.5297V14.2454H4.31641V16.7856L8.88436 17.5297Z"/>
</svg>
