<svg viewBox="0 0 32 32" xmlns="http://www.w3.org/2000/svg">
<path d="M20 16L14 12V20L20 16Z" stroke-width="2" stroke-linecap="round" stroke-linejoin="round"/>
<path d="M3 16C3 19.7195 3.38427 21.9018 3.67638 23.0234C3.75447 23.3297 3.90442 23.613 4.11382 23.8498C4.32322 24.0866 4.58603 24.2701 4.88049 24.3852C9.0651 25.9932 16 25.9491 16 25.9491C16 25.9491 22.9348 25.9932 27.1195 24.3852C27.4139 24.2702 27.6767 24.0866 27.8861 23.8498C28.0955 23.613 28.2455 23.3297 28.3236 23.0234C28.6157 21.9018 29 19.7195 29 16C29 12.2806 28.6157 10.0983 28.3236 8.97669C28.2455 8.67037 28.0956 8.38706 27.8862 8.15024C27.6768 7.91342 27.414 7.72991 27.1195 7.6149C22.9349 6.00681 16 6.05096 16 6.05096C16 6.05096 9.06518 6.00681 4.88053 7.61488C4.58607 7.72989 4.32325 7.9134 4.11385 8.15022C3.90446 8.38704 3.7545 8.67035 3.67641 8.97667C3.38428 10.0983 3 12.2806 3 16Z" stroke-width="2" stroke-linecap="round" stroke-linejoin="round"/>
</svg>
