<svg viewBox="0 0 24 24" xmlns="http://www.w3.org/2000/svg">
<path fill-rule="evenodd" clip-rule="evenodd" d="M10.387 8.35691C10.1553 8.21789 9.86671 8.21425 9.63157 8.34738C9.39644 8.48051 9.2511 8.72983 9.2511 9.00003V15C9.2511 15.2702 9.39644 15.5196 9.63157 15.6527C9.86671 15.7858 10.1553 15.7822 10.387 15.6432L15.387 12.6432C15.6129 12.5076 15.7511 12.2635 15.7511 12C15.7511 11.7366 15.6129 11.4925 15.387 11.3569L10.387 8.35691ZM13.5434 12L10.7511 13.6754V10.3247L13.5434 12Z"/>
<path fill-rule="evenodd" clip-rule="evenodd" d="M17.0318 4.64131C13.6831 4.37933 10.3191 4.37933 6.97048 4.64131L4.72978 4.81661C3.36721 4.92321 2.25253 5.94442 2.02729 7.29246C1.50653 10.4092 1.50653 13.5908 2.02729 16.7076C2.25253 18.0556 3.36721 19.0768 4.72978 19.1834L6.97048 19.3587C10.3191 19.6207 13.6831 19.6207 17.0318 19.3587L19.2725 19.1834C20.635 19.0768 21.7497 18.0556 21.975 16.7076C22.4957 13.5908 22.4957 10.4092 21.975 7.29246C21.7497 5.94442 20.635 4.92321 19.2725 4.81661L17.0318 4.64131ZM7.08748 6.13674C10.3583 5.88085 13.644 5.88085 16.9148 6.13674L19.1555 6.31204C19.8311 6.3649 20.3838 6.87125 20.4955 7.53966C20.9889 10.4928 20.9889 13.5073 20.4955 16.4604C20.3838 17.1288 19.8311 17.6352 19.1555 17.688L16.9148 17.8633C13.644 18.1192 10.3582 18.1192 7.08748 17.8633L4.84678 17.688C4.17117 17.6352 3.61846 17.1288 3.50678 16.4604C3.01336 13.5073 3.01336 10.4928 3.50678 7.53966C3.61846 6.87125 4.17117 6.3649 4.84678 6.31204L7.08748 6.13674Z"/>
</svg>
