<svg viewBox="0 0 32 32" xmlns="http://www.w3.org/2000/svg">
<path d="M20 14C20 14.5933 19.8241 15.1734 19.4944 15.6667C19.1648 16.1601 18.6962 16.5446 18.1481 16.7716C17.5999 16.9987 16.9967 17.0581 16.4147 16.9424C15.8328 16.8266 15.2982 16.5409 14.8787 16.1213C14.4591 15.7018 14.1734 15.1672 14.0576 14.5853C13.9419 14.0033 14.0013 13.4001 14.2284 12.8519C14.4554 12.3038 14.8399 11.8352 15.3333 11.5056C15.8266 11.1759 16.4067 11 17 11C17.7954 11.0009 18.5579 11.3173 19.1203 11.8797C19.6827 12.4421 19.9991 13.2046 20 14V14ZM28 5V27C27.9994 27.5302 27.7885 28.0386 27.4135 28.4135C27.0386 28.7885 26.5302 28.9994 26 29H8C7.46975 28.9994 6.9614 28.7885 6.58646 28.4135C6.21151 28.0386 6.00061 27.5302 6 27V24.5H4C3.73478 24.5 3.48043 24.3946 3.29289 24.2071C3.10536 24.0196 3 23.7652 3 23.5C3 23.2348 3.10536 22.9804 3.29289 22.7929C3.48043 22.6054 3.73478 22.5 4 22.5H6V19.5H4C3.73478 19.5 3.48043 19.3946 3.29289 19.2071C3.10536 19.0196 3 18.7652 3 18.5C3 18.2348 3.10536 17.9804 3.29289 17.7929C3.48043 17.6054 3.73478 17.5 4 17.5H6V14.5H4C3.73478 14.5 3.48043 14.3946 3.29289 14.2071C3.10536 14.0196 3 13.7652 3 13.5C3 13.2348 3.10536 12.9804 3.29289 12.7929C3.48043 12.6054 3.73478 12.5 4 12.5H6V9.5H4C3.73478 9.5 3.48043 9.39464 3.29289 9.20711C3.10536 9.01957 3 8.76522 3 8.5C3 8.23478 3.10536 7.98043 3.29289 7.79289C3.48043 7.60536 3.73478 7.5 4 7.5H6V5C6.00061 4.46975 6.21151 3.9614 6.58646 3.58646C6.9614 3.21151 7.46975 3.00061 8 3H26C26.5302 3.00061 27.0386 3.21151 27.4135 3.58646C27.7885 3.9614 27.9994 4.46975 28 5V5ZM23.7996 20.3989C22.9134 19.2114 21.7313 18.277 20.3713 17.6888C21.1159 17.009 21.6376 16.1199 21.8679 15.1383C22.0981 14.1567 22.0263 13.1284 21.6617 12.1884C21.2971 11.2484 20.6568 10.4405 19.8249 9.87088C18.993 9.30123 18.0083 8.99641 17 8.99641C15.9918 8.9964 15.0071 9.30123 14.1751 9.87086C13.3432 10.4405 12.7029 11.2483 12.3383 12.1884C11.9738 13.1284 11.9019 14.1567 12.1321 15.1383C12.3624 16.1199 12.8841 17.009 13.6286 17.6888C12.2685 18.277 11.0864 19.2116 10.2001 20.3992C10.0408 20.6112 9.97227 20.8779 10.0096 21.1405C10.0469 21.403 10.187 21.64 10.3991 21.7993C10.6111 21.9586 10.8778 22.0271 11.1403 21.9898C11.4029 21.9525 11.6399 21.8124 11.7992 21.6003C12.4047 20.793 13.1899 20.1377 14.0926 19.6863C14.9953 19.235 15.9906 19 16.9999 19C18.0091 19 19.0044 19.2349 19.9071 19.6862C20.8098 20.1375 21.595 20.7928 22.2006 21.6001C22.3599 21.8121 22.5969 21.9522 22.8595 21.9895C23.122 22.0268 23.3887 21.9583 23.6007 21.799C23.8128 21.6397 23.9528 21.4027 23.9901 21.1402C24.0274 20.8776 23.9589 20.611 23.7996 20.3989H23.7996Z"/>
</svg>
