<svg viewBox="0 0 32 32" xmlns="http://www.w3.org/2000/svg">
<path d="M26.0292 20.634L18.0029 16L26.0292 11.366C26.2589 11.2334 26.4265 11.015 26.4951 10.7588C26.5637 10.5026 26.5278 10.2297 26.3952 10C26.2626 9.77032 26.0442 9.60272 25.788 9.53407C25.5318 9.46543 25.2589 9.50136 25.0292 9.63397L17.0029 14.2679V5C17.0029 4.73478 16.8975 4.48043 16.71 4.29289C16.5224 4.10536 16.2681 4 16.0029 4C15.7377 4 15.4833 4.10536 15.2958 4.29289C15.1082 4.48043 15.0029 4.73478 15.0029 5V14.2679L6.97657 9.63397C6.74688 9.50136 6.47393 9.46543 6.21775 9.53407C5.96157 9.60272 5.74315 9.77032 5.61054 10C5.47793 10.2297 5.442 10.5026 5.51064 10.7588C5.57928 11.015 5.74688 11.2334 5.97657 11.366L14.0029 16L5.97657 20.634C5.86284 20.6996 5.76316 20.7871 5.68321 20.8912C5.60327 20.9954 5.54463 21.1143 5.51064 21.2412C5.47665 21.368 5.46798 21.5003 5.48512 21.6305C5.50226 21.7607 5.54488 21.8863 5.61054 22C5.6762 22.1137 5.76362 22.2134 5.8678 22.2934C5.97199 22.3733 6.0909 22.4319 6.21775 22.4659C6.34459 22.4999 6.47689 22.5086 6.60709 22.4914C6.73729 22.4743 6.86284 22.4317 6.97657 22.366L15.0029 17.7321V27C15.0029 27.2652 15.1082 27.5196 15.2958 27.7071C15.4833 27.8946 15.7377 28 16.0029 28C16.2681 28 16.5224 27.8946 16.71 27.7071C16.8975 27.5196 17.0029 27.2652 17.0029 27V17.7321L25.0292 22.366C25.2589 22.4986 25.5318 22.5346 25.788 22.4659C26.0442 22.3973 26.2626 22.2297 26.3952 22C26.5278 21.7703 26.5637 21.4974 26.4951 21.2412C26.4265 20.985 26.2589 20.7666 26.0292 20.634Z"/>
</svg>
