<svg   viewBox="0 0 32 32" fill="none" xmlns="http://www.w3.org/2000/svg">
<path d="M16.0012 2.99902C13.6768 2.99881 11.3949 3.62179 9.39312 4.80308C7.39132 5.98437 5.74285 7.68076 4.61939 9.71558C3.49593 11.7504 2.93857 14.0492 3.00537 16.3726C3.07217 18.696 3.76068 20.959 4.99919 22.9259C6.2377 24.8929 7.98092 26.4917 10.0473 27.5561C12.1136 28.6204 14.4276 29.1112 16.7481 28.9775C19.0686 28.8437 21.3108 28.0903 23.2412 26.7956C25.1716 25.5009 26.7195 23.7123 27.7239 21.6161C27.0129 21.8795 26.2593 22.0093 25.5012 21.999C23.2153 21.999 21.9356 20.9984 21.2647 20.1589C21.1085 19.9629 20.9673 19.7552 20.8425 19.5378C20.1277 20.5171 19.1329 21.2569 17.9893 21.6598C16.8456 22.0626 15.6068 22.1095 14.436 21.7944C13.2651 21.4793 12.2172 20.8169 11.4303 19.8944C10.6434 18.972 10.1543 17.8328 10.0276 16.627C9.90091 15.4211 10.1425 14.2051 10.7204 13.1393C11.2984 12.0734 12.1858 11.2076 13.2655 10.656C14.3453 10.1044 15.5668 9.89278 16.7692 10.0491C17.9716 10.2054 19.0984 10.7223 20.0012 11.5316V10.999C20.0012 10.7338 20.1066 10.4795 20.2941 10.2919C20.4816 10.1044 20.736 9.99902 21.0012 9.99902C21.2664 9.99902 21.5208 10.1044 21.7083 10.2919C21.8958 10.4795 22.0012 10.7338 22.0012 10.999V15.999C22.0012 17.8239 22.6084 19.999 25.5012 19.999C28.2944 19.999 28.9565 17.9711 28.9988 16.1887C28.9997 16.1255 29.0012 16.0624 29.0012 15.999C28.9973 12.5524 27.6264 9.24807 25.1893 6.81094C22.7522 4.37382 19.4478 3.00292 16.0012 2.99902V2.99902Z" fill="black"/>
<path d="M16 19.999C18.2091 19.999 20 18.2082 20 15.999C20 13.7899 18.2091 11.999 16 11.999C13.7909 11.999 12 13.7899 12 15.999C12 18.2082 13.7909 19.999 16 19.999Z" fill="black"/>
</svg>
