<svg viewBox="0 0 32 32" xmlns="http://www.w3.org/2000/svg">
<path d="M16 21C18.7614 21 21 18.7614 21 16C21 13.2386 18.7614 11 16 11C13.2386 11 11 13.2386 11 16C11 18.7614 13.2386 21 16 21Z"/>
<path d="M10.3463 10.3431C10.5338 10.1556 10.6392 9.90119 10.6392 9.63597C10.6392 9.37074 10.5338 9.11639 10.3463 8.92886C10.1587 8.74132 9.90434 8.63597 9.63912 8.63599C9.37389 8.636 9.11954 8.74137 8.93201 8.92892C8.00254 9.857 7.26516 10.9592 6.76206 12.1725C6.25896 13.3859 6 14.6865 6 16C6 17.3135 6.25896 18.6141 6.76206 19.8274C7.26516 21.0407 8.00254 22.1429 8.93201 23.071C9.02486 23.1639 9.1351 23.2375 9.25643 23.2878C9.37775 23.3381 9.50779 23.3639 9.63912 23.3639C9.77044 23.3639 9.90048 23.3381 10.0218 23.2878C10.1431 23.2376 10.2534 23.1639 10.3463 23.0711C10.4391 22.9782 10.5128 22.868 10.563 22.7466C10.6133 22.6253 10.6392 22.4953 10.6392 22.364C10.6392 22.2326 10.6133 22.1026 10.5631 21.9813C10.5128 21.8599 10.4392 21.7497 10.3463 21.6568C9.60254 20.9145 9.01247 20.0327 8.60987 19.062C8.20726 18.0914 8.00003 17.0508 8.00003 16C8.00003 14.9491 8.20726 13.9086 8.60987 12.9379C9.01247 11.9672 9.60254 11.0855 10.3463 10.3431Z"/>
<path d="M26.0032 16C26.0047 14.6865 25.7468 13.3857 25.2442 12.1723C24.7415 10.9588 24.0042 9.85659 23.0744 8.92892C22.9815 8.83605 22.8713 8.76239 22.7499 8.71212C22.6286 8.66186 22.4986 8.63599 22.3673 8.63599C22.2359 8.63598 22.1059 8.66184 21.9846 8.71209C21.8632 8.76234 21.753 8.836 21.6601 8.92886C21.5673 9.02171 21.4936 9.13195 21.4433 9.25328C21.3931 9.3746 21.3672 9.50464 21.3672 9.63597C21.3672 9.76729 21.393 9.89733 21.4433 10.0187C21.4935 10.14 21.5672 10.2502 21.6601 10.3431C22.4038 11.0855 22.9939 11.9672 23.3965 12.9379C23.7991 13.9086 24.0063 14.9491 24.0063 16C24.0063 17.0508 23.7991 18.0914 23.3965 19.062C22.9939 20.0327 22.4038 20.9145 21.6601 21.6568C21.4725 21.8444 21.3672 22.0987 21.3672 22.364C21.3672 22.6292 21.4726 22.8835 21.6601 23.0711C21.8477 23.2586 22.102 23.3639 22.3673 23.3639C22.6325 23.3639 22.8868 23.2586 23.0744 23.071C24.0042 22.1433 24.7415 21.0411 25.2442 19.8277C25.7468 18.6142 26.0047 17.3134 26.0032 16V16Z"/>
<path d="M4.01836 21.0599C3.01036 18.677 2.73707 16.0473 3.23351 13.508C3.72995 10.9687 4.97351 8.63554 6.80473 6.80767C6.99204 6.62007 7.09719 6.36578 7.09708 6.10069C7.09697 5.83559 6.99161 5.58139 6.80415 5.39394C6.61669 5.2065 6.36248 5.10116 6.09738 5.10107C5.83229 5.10099 5.57801 5.20616 5.39043 5.39349C3.99616 6.78558 2.89004 8.43891 2.13534 10.2589C1.38065 12.0789 0.992188 14.0298 0.992188 16.0001C0.992188 17.9703 1.38065 19.9212 2.13534 21.7412C2.89004 23.5612 3.99616 25.2145 5.39043 26.6066C5.48328 26.6995 5.59352 26.7732 5.71485 26.8234C5.83617 26.8737 5.96621 26.8995 6.09754 26.8996C6.22886 26.8996 6.3589 26.8737 6.48023 26.8234C6.60156 26.7732 6.71181 26.6995 6.80467 26.6067C6.89754 26.5138 6.9712 26.4036 7.02146 26.2823C7.07172 26.1609 7.0976 26.0309 7.0976 25.8996C7.09761 25.7682 7.07175 25.6382 7.0215 25.5169C6.97125 25.3955 6.89759 25.2853 6.80473 25.1924C5.61724 24.0082 4.67095 22.6048 4.01836 21.0599V21.0599Z"/>
<path d="M29.8197 10.1611C29.067 8.37888 27.9754 6.75973 26.6056 5.39352C26.5128 5.30065 26.4025 5.22699 26.2812 5.17672C26.1599 5.12646 26.0298 5.10059 25.8985 5.10059C25.7672 5.10058 25.6371 5.12644 25.5158 5.17669C25.3945 5.22694 25.2842 5.3006 25.1914 5.39346C25.0985 5.48631 25.0248 5.59655 24.9746 5.71788C24.9243 5.8392 24.8984 5.96924 24.8984 6.10057C24.8984 6.23189 24.9243 6.36193 24.9745 6.48326C25.0248 6.60459 25.0985 6.71484 25.1913 6.8077C26.3999 8.01407 27.3587 9.44692 28.0129 11.0243C28.6671 12.6016 29.0039 14.2925 29.0039 16.0001C29.0039 17.7077 28.6671 19.3986 28.0129 20.9759C27.3587 22.5532 26.3999 23.9861 25.1913 25.1925C25.0038 25.38 24.8984 25.6344 24.8984 25.8996C24.8984 26.1648 25.0038 26.4192 25.1914 26.6067C25.3789 26.7942 25.6333 26.8996 25.8985 26.8996C26.1637 26.8996 26.4181 26.7942 26.6056 26.6067C28.7152 24.4953 30.1476 21.8031 30.7201 18.8739C31.2926 15.9447 30.9791 12.9113 29.8197 10.1611V10.1611Z"/>
</svg>
