<svg   viewBox="0 0 32 32" fill="none" xmlns="http://www.w3.org/2000/svg">
<path d="M27 6.00049H5.00003C4.46981 6.00118 3.9615 6.21211 3.58658 6.58704C3.21166 6.96196 3.00072 7.47027 3.00003 8.00049V27.853C2.99787 28.2345 3.10581 28.6085 3.3109 28.9302C3.51598 29.2518 3.80952 29.5075 4.15628 29.6665C4.42229 29.7908 4.71226 29.8555 5.00589 29.856C5.47533 29.8553 5.92932 29.6882 6.28714 29.3843L10.2559 26.0474L27 26.0005C27.5303 25.9998 28.0386 25.7889 28.4135 25.4139C28.7884 25.039 28.9993 24.5307 29 24.0005V8.00049C28.9993 7.47027 28.7884 6.96196 28.4135 6.58704C28.0386 6.21211 27.5303 6.00118 27 6.00049V6.00049Z" fill="black"/>
</svg>
