<svg viewBox="0 0 32 32" xmlns="http://www.w3.org/2000/svg">
<path d="M16 2.99902C13.742 2.99969 11.523 3.58831 9.5616 4.70696C7.60015 5.8256 5.96379 7.43572 4.81358 9.37882C3.66336 11.3219 3.03894 13.5311 3.00176 15.7888C2.96459 18.0465 3.51594 20.275 4.60156 22.2549L3.53223 25.9932C3.43397 26.3362 3.42929 26.6992 3.51867 27.0446C3.60805 27.39 3.78824 27.7052 4.04053 27.9575C4.29281 28.2098 4.60802 28.39 4.95343 28.4794C5.29885 28.5687 5.66189 28.5641 6.00488 28.4658L9.74414 27.3994C11.482 28.3529 13.4149 28.8965 15.3951 28.9884C17.3752 29.0804 19.3502 28.7184 21.1689 27.9301C22.9877 27.1417 24.6022 25.948 25.8888 24.44C27.1755 22.9321 28.1004 21.1499 28.5927 19.2297C29.085 17.3095 29.1317 15.3022 28.7293 13.3612C28.3268 11.4202 27.4859 9.59694 26.2708 8.03076C25.0557 6.46459 23.4985 5.197 21.7184 4.3249C19.9382 3.4528 17.9823 2.99928 16 2.99902V2.99902ZM20 18.999H12C11.7348 18.999 11.4804 18.8937 11.2929 18.7061C11.1054 18.5186 11 18.2642 11 17.999C11 17.7338 11.1054 17.4795 11.2929 17.2919C11.4804 17.1044 11.7348 16.999 12 16.999H20C20.2652 16.999 20.5196 17.1044 20.7071 17.2919C20.8946 17.4795 21 17.7338 21 17.999C21 18.2642 20.8946 18.5186 20.7071 18.7061C20.5196 18.8937 20.2652 18.999 20 18.999ZM20 14.999H12C11.7348 14.999 11.4804 14.8937 11.2929 14.7061C11.1054 14.5186 11 14.2642 11 13.999C11 13.7338 11.1054 13.4795 11.2929 13.2919C11.4804 13.1044 11.7348 12.999 12 12.999H20C20.2652 12.999 20.5196 13.1044 20.7071 13.2919C20.8946 13.4795 21 13.7338 21 13.999C21 14.2642 20.8946 14.5186 20.7071 14.7061C20.5196 14.8937 20.2652 14.999 20 14.999Z"/>
</svg>
