<svg   viewBox="0 0 32 32" fill="none" xmlns="http://www.w3.org/2000/svg">
<path d="M16 3.00098C13.7421 3.00137 11.5232 3.58975 9.56174 4.70818C7.60029 5.82661 5.9639 7.43655 4.81365 9.37952C3.6634 11.3225 3.03895 13.5315 3.00176 15.7891C2.96458 18.0467 3.51593 20.2751 4.60156 22.2549L3.53223 25.9932C3.43398 26.3362 3.4293 26.6992 3.51868 27.0446C3.60806 27.39 3.78824 27.7052 4.04053 27.9575C4.29282 28.2098 4.60802 28.39 4.95343 28.4794C5.29885 28.5688 5.66189 28.5641 6.00488 28.4658L9.74414 27.3994C11.4819 28.3531 13.4147 28.8968 15.3948 28.9889C17.3749 29.081 19.3499 28.7191 21.1687 27.9309C22.9875 27.1427 24.602 25.949 25.8887 24.4411C27.1754 22.9333 28.1003 21.1511 28.5926 19.231C29.0849 17.3109 29.1317 15.3036 28.7293 13.3626C28.3269 11.4216 27.4859 9.59838 26.2708 8.03225C25.0557 6.46612 23.4985 5.19859 21.7184 4.32657C19.9382 3.45455 17.9822 3.00113 16 3.00098H16ZM9.99987 17.5C9.7032 17.5 9.41319 17.412 9.16652 17.2472C8.91985 17.0824 8.72759 16.8481 8.61405 16.574C8.50052 16.2999 8.47082 15.9983 8.5287 15.7074C8.58657 15.4164 8.72943 15.1491 8.93921 14.9393C9.14899 14.7296 9.41627 14.5867 9.70724 14.5288C9.99821 14.4709 10.2998 14.5006 10.5739 14.6142C10.848 14.7277 11.0823 14.92 11.2471 15.1666C11.4119 15.4133 11.4999 15.7033 11.4999 16C11.4999 16.3978 11.3418 16.7794 11.0605 17.0607C10.7792 17.342 10.3977 17.5 9.99987 17.5V17.5ZM15.9999 17.5C15.7032 17.5 15.4132 17.412 15.1665 17.2472C14.9198 17.0824 14.7276 16.8481 14.6141 16.574C14.5005 16.2999 14.4708 15.9983 14.5287 15.7074C14.5866 15.4164 14.7294 15.1491 14.9392 14.9393C15.149 14.7296 15.4163 14.5867 15.7072 14.5288C15.9982 14.4709 16.2998 14.5006 16.5739 14.6142C16.848 14.7277 17.0823 14.92 17.2471 15.1666C17.4119 15.4133 17.4999 15.7033 17.4999 16C17.4999 16.3978 17.3418 16.7794 17.0605 17.0607C16.7792 17.342 16.3977 17.5 15.9999 17.5ZM21.9999 17.5C21.7032 17.5 21.4132 17.412 21.1665 17.2472C20.9198 17.0824 20.7276 16.8481 20.6141 16.574C20.5005 16.2999 20.4708 15.9983 20.5287 15.7074C20.5866 15.4164 20.7294 15.1491 20.9392 14.9393C21.149 14.7296 21.4163 14.5867 21.7072 14.5288C21.9982 14.4709 22.2998 14.5006 22.5739 14.6142C22.848 14.7277 23.0823 14.92 23.2471 15.1666C23.4119 15.4133 23.4999 15.7033 23.4999 16C23.4999 16.3978 23.3418 16.7794 23.0605 17.0607C22.7792 17.342 22.3977 17.5 21.9999 17.5Z" fill="black"/>
</svg>
