<svg   viewBox="0 0 32 32" fill="none" xmlns="http://www.w3.org/2000/svg">
<path d="M16 3.00024C13.742 3.00078 11.5231 3.58927 9.56167 4.70781C7.60022 5.82635 5.96384 7.43638 4.81361 9.37941C3.66338 11.3224 3.03895 13.5315 3.00176 15.7892C2.96458 18.0468 3.51594 20.2753 4.60156 22.2551L3.53222 25.9944C3.43442 26.3373 3.43006 26.7002 3.5196 27.0454C3.60914 27.3906 3.78933 27.7056 4.0415 27.9578C4.29367 28.2099 4.60866 28.3901 4.95387 28.4797C5.29907 28.5692 5.66193 28.5648 6.00488 28.467L9.74414 27.3987C11.4819 28.3524 13.4147 28.896 15.3948 28.9882C17.3749 29.0803 19.3499 28.7184 21.1687 27.9302C22.9875 27.142 24.602 25.9483 25.8887 24.4404C27.1754 22.9325 28.1003 21.1504 28.5926 19.2303C29.085 17.3101 29.1317 15.3028 28.7293 13.3619C28.3269 11.4209 27.4859 9.59764 26.2708 8.03151C25.0557 6.46538 23.4985 5.19785 21.7184 4.32583C19.9382 3.45381 17.9822 3.00039 16 3.00024V3.00024Z" fill="black"/>
</svg>
