<svg   viewBox="0 0 32 32" fill="none" xmlns="http://www.w3.org/2000/svg">
<path d="M16.5 2.99902C13.1859 3.00276 10.0087 4.32092 7.66529 6.66432C5.3219 9.00771 4.00374 12.185 4 15.499V26.0407C4.00059 26.5599 4.20712 27.0577 4.57426 27.4248C4.94139 27.7919 5.43917 27.9984 5.95837 27.999H16.5C19.8152 27.999 22.9946 26.6821 25.3388 24.3379C27.683 21.9937 29 18.8142 29 15.499C29 12.1838 27.683 9.00439 25.3388 6.66019C22.9946 4.31598 19.8152 2.99902 16.5 2.99902V2.99902ZM19.9998 18.999H12.4998C12.2345 18.999 11.9802 18.8937 11.7926 18.7061C11.6051 18.5186 11.4998 18.2642 11.4998 17.999C11.4998 17.7338 11.6051 17.4795 11.7926 17.2919C11.9802 17.1044 12.2345 16.999 12.4998 16.999H19.9998C20.265 16.999 20.5193 17.1044 20.7069 17.2919C20.8944 17.4795 20.9998 17.7338 20.9998 17.999C20.9998 18.2642 20.8944 18.5186 20.7069 18.7061C20.5193 18.8937 20.265 18.999 19.9998 18.999ZM19.9998 14.999H12.4998C12.2345 14.999 11.9802 14.8937 11.7926 14.7061C11.6051 14.5186 11.4998 14.2642 11.4998 13.999C11.4998 13.7338 11.6051 13.4795 11.7926 13.2919C11.9802 13.1044 12.2345 12.999 12.4998 12.999H19.9998C20.265 12.999 20.5193 13.1044 20.7069 13.2919C20.8944 13.4795 20.9998 13.7338 20.9998 13.999C20.9998 14.2642 20.8944 14.5186 20.7069 14.7061C20.5193 14.8937 20.265 14.999 19.9998 14.999Z" fill="black"/>
</svg>
