<svg   viewBox="0 0 32 32" fill="none" xmlns="http://www.w3.org/2000/svg">
<path d="M16.5 2.99902C13.1859 3.00276 10.0087 4.32092 7.66529 6.66432C5.3219 9.00771 4.00374 12.185 4 15.499V26.0407C4.00059 26.5599 4.20712 27.0577 4.57426 27.4248C4.94139 27.7919 5.43917 27.9984 5.95837 27.999H16.5C19.8152 27.999 22.9946 26.6821 25.3388 24.3379C27.683 21.9937 29 18.8142 29 15.499C29 12.1838 27.683 9.00439 25.3388 6.66019C22.9946 4.31598 19.8152 2.99902 16.5 2.99902V2.99902ZM10.4998 17.4991C10.2031 17.4991 9.91307 17.4112 9.6664 17.2464C9.41973 17.0815 9.22747 16.8473 9.11394 16.5732C9.00041 16.2991 8.9707 15.9975 9.02858 15.7065C9.08646 15.4155 9.22932 15.1483 9.4391 14.9385C9.64888 14.7287 9.91615 14.5858 10.2071 14.528C10.4981 14.4701 10.7997 14.4998 11.0738 14.6133C11.3479 14.7269 11.5821 14.9191 11.747 15.1658C11.9118 15.4125 11.9998 15.7025 11.9998 15.9991C11.9998 16.397 11.8417 16.7785 11.5604 17.0598C11.2791 17.3411 10.8976 17.4991 10.4998 17.4991V17.4991ZM16.4998 17.4991C16.2031 17.4991 15.9131 17.4112 15.6664 17.2464C15.4197 17.0815 15.2275 16.8473 15.1139 16.5732C15.0004 16.2991 14.9707 15.9975 15.0286 15.7065C15.0865 15.4155 15.2293 15.1483 15.4391 14.9385C15.6489 14.7287 15.9161 14.5858 16.2071 14.528C16.4981 14.4701 16.7997 14.4998 17.0738 14.6133C17.3479 14.7269 17.5821 14.9191 17.747 15.1658C17.9118 15.4125 17.9998 15.7025 17.9998 15.9991C17.9998 16.397 17.8417 16.7785 17.5604 17.0598C17.2791 17.3411 16.8976 17.4991 16.4998 17.4991V17.4991ZM22.4998 17.4991C22.2031 17.4991 21.9131 17.4112 21.6664 17.2464C21.4197 17.0815 21.2275 16.8473 21.1139 16.5732C21.0004 16.2991 20.9707 15.9975 21.0286 15.7065C21.0865 15.4155 21.2293 15.1483 21.4391 14.9385C21.6489 14.7287 21.9161 14.5858 22.2071 14.528C22.4981 14.4701 22.7997 14.4998 23.0738 14.6133C23.3479 14.7269 23.5821 14.9191 23.747 15.1658C23.9118 15.4125 23.9998 15.7025 23.9998 15.9991C23.9998 16.397 23.8417 16.7785 23.5604 17.0598C23.2791 17.3411 22.8976 17.4991 22.4998 17.4991V17.4991Z" fill="black"/>
</svg>
