<svg viewBox="0 0 32 32" xmlns="http://www.w3.org/2000/svg">
<path d="M21.1957 9.07236C20.291 6.9532 18.6822 5.2115 16.6414 4.14182C14.6005 3.07214 12.2528 2.74012 9.99539 3.2019C7.73794 3.66369 5.70924 4.89094 4.25237 6.67611C2.79549 8.46129 1.99985 10.6948 2 12.999V21.249C2.00052 21.713 2.18506 22.1578 2.51314 22.4859C2.84121 22.814 3.28603 22.9985 3.75 22.999H10.8334C11.6138 24.7811 12.8962 26.2974 14.524 27.3629C16.1518 28.4283 18.0545 28.9968 20 28.999H28.25C28.714 28.9985 29.1588 28.814 29.4869 28.4859C29.8149 28.1578 29.9995 27.713 30 27.249V18.999C30.0005 16.554 29.1048 14.1935 27.4824 12.3642C25.86 10.535 23.6234 9.36382 21.1957 9.07236V9.07236ZM28 26.999H20C18.5854 26.9973 17.1964 26.6214 15.974 25.9093C14.7517 25.1973 13.7395 24.1745 13.0402 22.9449C14.4099 22.8031 15.7356 22.3796 16.9338 21.701C18.1321 21.0224 19.1771 20.1034 20.0032 19.0016C20.8293 17.8998 21.4186 16.6391 21.7342 15.2987C22.0498 13.9583 22.0848 12.5671 21.837 11.2125C23.5913 11.6262 25.1545 12.6202 26.2731 14.0336C27.3918 15.4469 28.0003 17.1966 28 18.999V26.999Z"/>
</svg>
