<svg   viewBox="0 0 32 32" fill="none" xmlns="http://www.w3.org/2000/svg">
<path d="M28.8175 23.7208C29.5847 22.2865 29.9906 20.6867 29.9998 19.0602C30.0091 17.4336 29.6215 15.8293 28.8707 14.3864C28.1199 12.9434 27.0285 11.7054 25.6911 10.7796C24.3537 9.85374 22.8106 9.26806 21.1957 9.07331C20.6652 7.83192 19.8888 6.71081 18.9133 5.77755C17.9378 4.84429 16.7835 4.1182 15.5199 3.64305C14.2562 3.16789 12.9095 2.95351 11.5608 3.01283C10.2121 3.07215 8.88935 3.40393 7.67232 3.98819C6.45528 4.57244 5.36915 5.39707 4.47938 6.41237C3.5896 7.42766 2.91462 8.61261 2.4951 9.89578C2.07558 11.1789 1.92022 12.5338 2.03838 13.8786C2.15654 15.2234 2.54577 16.5304 3.18261 17.7208L2.40954 20.427C2.32376 20.7271 2.31978 21.0446 2.39803 21.3468C2.47628 21.6489 2.6339 21.9246 2.85456 22.1453C3.07522 22.366 3.35089 22.5237 3.653 22.602C3.95511 22.6803 4.27266 22.6764 4.57275 22.5906L7.27929 21.8174C8.37452 22.4036 9.56958 22.7802 10.803 22.9279C11.3483 24.2034 12.1529 25.3517 13.1658 26.2997C14.1786 27.2476 15.3775 27.9746 16.6863 28.4344C17.9952 28.8942 19.3853 29.0768 20.7685 28.9706C22.1517 28.8643 23.4977 28.4716 24.7209 27.8173L27.4274 28.5906C27.7274 28.6764 28.045 28.6803 28.3471 28.602C28.6492 28.5237 28.9248 28.366 29.1455 28.1453C29.3662 27.9247 29.5238 27.649 29.6021 27.3469C29.6804 27.0448 29.6764 26.7273 29.5907 26.4272L28.8175 23.7208ZM26.8816 23.0823C26.8119 23.1994 26.767 23.3295 26.7494 23.4647C26.7319 23.5998 26.7421 23.7371 26.7795 23.8682L27.5441 26.544L24.8683 25.7795C24.7373 25.7421 24.6 25.7318 24.4649 25.7494C24.3297 25.7669 24.1996 25.8119 24.0825 25.8815C23.1673 26.4239 22.1532 26.7784 21.0994 26.9243C20.0456 27.0702 18.9733 27.0046 17.9451 26.7312C16.917 26.4579 15.9537 25.9823 15.1114 25.3324C14.2692 24.6824 13.565 23.8711 13.04 22.9458C14.4098 22.804 15.7355 22.3805 16.9337 21.702C18.132 21.0234 19.177 20.1043 20.0031 19.0026C20.8292 17.9008 21.4186 16.6401 21.7342 15.2997C22.0498 13.9592 22.0848 12.568 21.837 11.2134C23.0588 11.502 24.1955 12.074 25.1554 12.8832C26.1153 13.6924 26.8713 14.7161 27.3623 15.8715C27.8534 17.0269 28.0658 18.2816 27.9823 19.5342C27.8988 20.7869 27.5217 22.0023 26.8816 23.0823V23.0823Z" fill="black"/>
</svg>
