<svg viewBox="0 0 32 32" xmlns="http://www.w3.org/2000/svg">
<path d="M27 6.00024H5.00003C4.46981 6.00093 3.9615 6.21187 3.58658 6.58679C3.21166 6.96172 3.00072 7.47002 3.00003 8.00024V27.8528C2.99787 28.2343 3.10581 28.6083 3.3109 28.9299C3.51598 29.2516 3.80952 29.5072 4.15628 29.6663C4.42229 29.7906 4.71226 29.8552 5.00589 29.8557C5.47533 29.855 5.92932 29.6879 6.28714 29.384L10.2559 26.0471L27 26.0002C27.5303 25.9995 28.0386 25.7886 28.4135 25.4137C28.7884 25.0388 28.9993 24.5305 29 24.0002V8.00024C28.9993 7.47002 28.7884 6.96171 28.4135 6.58679C28.0386 6.21187 27.5303 6.00093 27 6.00024V6.00024ZM20 19.0002H12C11.7348 19.0002 11.4805 18.8949 11.2929 18.7074C11.1054 18.5198 11 18.2655 11 18.0002C11 17.735 11.1054 17.4807 11.2929 17.2931C11.4805 17.1056 11.7348 17.0002 12 17.0002H20C20.2652 17.0002 20.5196 17.1056 20.7071 17.2931C20.8947 17.4807 21 17.735 21 18.0002C21 18.2655 20.8947 18.5198 20.7071 18.7074C20.5196 18.8949 20.2652 19.0002 20 19.0002ZM20 15.0002H12C11.7348 15.0002 11.4805 14.8949 11.2929 14.7074C11.1054 14.5198 11 14.2655 11 14.0002C11 13.735 11.1054 13.4807 11.2929 13.2931C11.4805 13.1056 11.7348 13.0002 12 13.0002H20C20.2652 13.0002 20.5196 13.1056 20.7071 13.2931C20.8947 13.4807 21 13.735 21 14.0002C21 14.2655 20.8947 14.5198 20.7071 14.7074C20.5196 14.8949 20.2652 15.0002 20 15.0002Z"/>
</svg>
