<svg   viewBox="0 0 32 32" fill="none" xmlns="http://www.w3.org/2000/svg">
<path d="M27 5.99902H5.00001C4.46974 5.99955 3.96134 6.21043 3.58638 6.58539C3.21142 6.96035 3.00054 7.46875 3.00001 7.99902V27.8525C2.99869 28.234 3.10664 28.6078 3.31109 28.9299C3.51555 29.2519 3.80796 29.5086 4.15373 29.6697C4.4995 29.8308 4.88417 29.8894 5.26224 29.8388C5.64031 29.7881 5.99596 29.6302 6.28712 29.3838L10.2568 26.0459L27 25.999C27.5303 25.9985 28.0387 25.7876 28.4136 25.4127C28.7886 25.0377 28.9995 24.5293 29 23.999V7.99902C28.9995 7.46875 28.7886 6.96035 28.4136 6.58539C28.0387 6.21043 27.5303 5.99955 27 5.99902V5.99902ZM9.99989 17.5C9.70322 17.5 9.41321 17.412 9.16653 17.2472C8.91986 17.0824 8.7276 16.8481 8.61407 16.574C8.50054 16.2999 8.47083 15.9983 8.52871 15.7074C8.58659 15.4164 8.72945 15.1491 8.93923 14.9393C9.14901 14.7296 9.41628 14.5867 9.70725 14.5288C9.99822 14.4709 10.2998 14.5007 10.5739 14.6142C10.848 14.7277 11.0823 14.92 11.2471 15.1666C11.4119 15.4133 11.4999 15.7033 11.4999 16C11.4999 16.3978 11.3419 16.7794 11.0605 17.0607C10.7792 17.342 10.3977 17.5 9.99989 17.5ZM15.9999 17.5C15.7032 17.5 15.4132 17.412 15.1665 17.2472C14.9199 17.0824 14.7276 16.8481 14.6141 16.574C14.5005 16.2999 14.4708 15.9983 14.5287 15.7074C14.5866 15.4164 14.7294 15.1491 14.9392 14.9393C15.149 14.7296 15.4163 14.5867 15.7073 14.5288C15.9982 14.4709 16.2998 14.5007 16.5739 14.6142C16.848 14.7277 17.0823 14.92 17.2471 15.1666C17.4119 15.4133 17.4999 15.7033 17.4999 16C17.4999 16.3978 17.3419 16.7794 17.0605 17.0607C16.7792 17.342 16.3977 17.5 15.9999 17.5ZM21.9999 17.5C21.7032 17.5 21.4132 17.412 21.1665 17.2472C20.9199 17.0824 20.7276 16.8481 20.6141 16.574C20.5005 16.2999 20.4708 15.9983 20.5287 15.7074C20.5866 15.4164 20.7294 15.1491 20.9392 14.9393C21.149 14.7296 21.4163 14.5867 21.7073 14.5288C21.9982 14.4709 22.2998 14.5007 22.5739 14.6142C22.848 14.7277 23.0823 14.92 23.2471 15.1666C23.4119 15.4133 23.4999 15.7033 23.4999 16C23.4999 16.3978 23.3419 16.7794 23.0605 17.0607C22.7792 17.342 22.3977 17.5 21.9999 17.5Z" fill="black"/>
</svg>
