<svg   viewBox="0 0 32 32" fill="none" xmlns="http://www.w3.org/2000/svg">
<path d="M27 5H5C4.46975 5.00061 3.9614 5.21151 3.58646 5.58646C3.21151 5.9614 3.00061 6.46975 3 7V22.9999C3.00061 23.5301 3.21151 24.0385 3.58646 24.4134C3.9614 24.7884 4.46975 24.9993 5 24.9999L12.4337 25L14.285 28.0853C14.4627 28.3815 14.7141 28.6265 15.0146 28.7967C15.3152 28.9668 15.6546 29.0563 16 29.0563C16.3454 29.0563 16.6848 28.9668 16.9854 28.7967C17.2859 28.6265 17.5373 28.3815 17.715 28.0853L19.5662 25H26.9999C27.5301 24.9994 28.0385 24.7885 28.4135 24.4136C28.7885 24.0386 28.9994 23.5303 29 23V7C28.9994 6.46975 28.7885 5.9614 28.4135 5.58646C28.0386 5.21151 27.5302 5.00061 27 5V5ZM9.99994 16.5001C9.70326 16.5001 9.41325 16.4121 9.16658 16.2473C8.91991 16.0824 8.72765 15.8482 8.61412 15.5741C8.50059 15.3 8.47088 14.9984 8.52876 14.7074C8.58664 14.4165 8.7295 14.1492 8.93928 13.9394C9.14905 13.7296 9.41633 13.5868 9.7073 13.5289C9.99827 13.471 10.2999 13.5007 10.574 13.6142C10.8481 13.7278 11.0823 13.92 11.2471 14.1667C11.412 14.4134 11.4999 14.7034 11.4999 15.0001C11.4999 15.3979 11.3419 15.7794 11.0606 16.0607C10.7793 16.342 10.3978 16.5001 9.99994 16.5001V16.5001ZM15.9999 16.5001C15.7033 16.5001 15.4133 16.4121 15.1666 16.2473C14.9199 16.0824 14.7276 15.8482 14.6141 15.5741C14.5006 15.3 14.4709 14.9984 14.5288 14.7074C14.5866 14.4165 14.7295 14.1492 14.9393 13.9394C15.1491 13.7296 15.4163 13.5868 15.7073 13.5289C15.9983 13.471 16.2999 13.5007 16.574 13.6142C16.8481 13.7278 17.0823 13.92 17.2471 14.1667C17.412 14.4134 17.4999 14.7034 17.4999 15.0001C17.4999 15.3979 17.3419 15.7794 17.0606 16.0607C16.7793 16.342 16.3978 16.5001 15.9999 16.5001V16.5001ZM21.9999 16.5001C21.7033 16.5001 21.4133 16.4121 21.1666 16.2473C20.9199 16.0824 20.7276 15.8482 20.6141 15.5741C20.5006 15.3 20.4709 14.9984 20.5288 14.7074C20.5866 14.4165 20.7295 14.1492 20.9393 13.9394C21.1491 13.7296 21.4163 13.5868 21.7073 13.5289C21.9983 13.471 22.2999 13.5007 22.574 13.6142C22.8481 13.7278 23.0823 13.92 23.2471 14.1667C23.412 14.4134 23.4999 14.7034 23.4999 15.0001C23.4999 15.3979 23.3419 15.7794 23.0606 16.0607C22.7793 16.342 22.3978 16.5001 21.9999 16.5001V16.5001Z" fill="black"/>
</svg>
