<svg viewBox="0 0 32 32" xmlns="http://www.w3.org/2000/svg">
<path d="M29 12C28.9994 11.4698 28.7885 10.9614 28.4135 10.5865C28.0386 10.2115 27.5302 10.0006 27 10H23V6C22.9994 5.46975 22.7885 4.9614 22.4135 4.58646C22.0386 4.21151 21.5302 4.00061 21 4H5C4.46975 4.00061 3.9614 4.21151 3.58646 4.58646C3.21151 4.9614 3.00061 5.46975 3 6V22C2.99999 22.1888 3.05344 22.3737 3.15415 22.5334C3.25486 22.6931 3.39873 22.8211 3.5691 22.9024C3.73948 22.9838 3.92941 23.0152 4.11691 22.9931C4.30442 22.9711 4.48184 22.8963 4.62866 22.7776L9 19.2437L9.00012 23C9.00073 23.5302 9.21164 24.0386 9.58658 24.4135C9.96152 24.7885 10.4699 24.9994 11.0001 25H22.6986L27.3715 28.7776C27.5183 28.8963 27.6957 28.9711 27.8832 28.9931C28.0707 29.0152 28.2606 28.9838 28.431 28.9024C28.6014 28.8211 28.7453 28.6931 28.846 28.5334C28.9467 28.3737 29.0001 28.1888 29.0001 28L29 12ZM23.6809 23.2224C23.503 23.0785 23.2811 23 23.0522 23H11.0001L11 19H21C21.5302 18.9994 22.0386 18.7885 22.4135 18.4135C22.7885 18.0386 22.9994 17.5302 23 17V12H27L27.0001 25.9056L23.6809 23.2224Z"/>
</svg>
