<svg viewBox="0 0 32 32" xmlns="http://www.w3.org/2000/svg">
<path d="M27 5H5C4.46975 5.00061 3.9614 5.21151 3.58646 5.58646C3.21151 5.9614 3.00061 6.46975 3 7V22.9999C3.00061 23.5301 3.21151 24.0385 3.58646 24.4134C3.9614 24.7884 4.46975 24.9993 5 24.9999L12.4337 25L14.285 28.0853C14.4627 28.3815 14.7141 28.6265 15.0146 28.7967C15.3152 28.9668 15.6546 29.0563 16 29.0563C16.3454 29.0563 16.6848 28.9668 16.9854 28.7967C17.2859 28.6265 17.5373 28.3815 17.715 28.0853L19.5662 25H26.9999C27.5301 24.9994 28.0385 24.7885 28.4135 24.4136C28.7885 24.0386 28.9994 23.5303 29 23V7C28.9994 6.46975 28.7885 5.9614 28.4135 5.58646C28.0386 5.21151 27.5302 5.00061 27 5Z"/>
</svg>
