<svg   viewBox="0 0 32 32" fill="none" xmlns="http://www.w3.org/2000/svg">
<path d="M28.9994 11.9904C28.9988 11.9139 28.9893 11.8378 28.9711 11.7635C28.9691 11.7549 28.9664 11.7464 28.9641 11.7379C28.9565 11.7098 28.9476 11.6821 28.9376 11.6546C28.9338 11.6444 28.9299 11.6344 28.9259 11.6243C28.9155 11.5988 28.9037 11.5736 28.8911 11.5486C28.8862 11.5389 28.8816 11.5291 28.8764 11.5195C28.8615 11.4924 28.845 11.4659 28.8273 11.4398C28.8234 11.434 28.8201 11.4279 28.816 11.4222L28.8142 11.4194C28.7927 11.3894 28.7695 11.3606 28.7449 11.3332C28.7394 11.3271 28.7335 11.3216 28.7279 11.3157C28.7068 11.2933 28.6851 11.2719 28.6625 11.2518C28.6549 11.245 28.647 11.2386 28.6392 11.2321C28.6161 11.213 28.5924 11.1949 28.568 11.178C28.5634 11.1748 28.5593 11.171 28.5547 11.1679L16.5547 3.16791C16.3904 3.05842 16.1974 3 16 3C15.8026 3 15.6096 3.05842 15.4453 3.16791L3.44531 11.1679C3.4408 11.1709 3.43695 11.1746 3.43256 11.1776C3.40778 11.1947 3.38376 11.213 3.36048 11.2324C3.35286 11.2388 3.34516 11.245 3.33777 11.2515C3.31489 11.2718 3.29291 11.2934 3.27173 11.3161C3.2663 11.3218 3.2605 11.3272 3.25519 11.3331C3.23051 11.3606 3.20734 11.3894 3.1858 11.4194L3.18397 11.4222C3.17994 11.4279 3.17664 11.434 3.17274 11.4398C3.15503 11.4659 3.13849 11.4924 3.1236 11.5195C3.11841 11.5291 3.11384 11.5389 3.10889 11.5486C3.09626 11.5736 3.08454 11.5988 3.0741 11.6243C3.07007 11.6344 3.06623 11.6444 3.06244 11.6546C3.05231 11.6821 3.04346 11.7099 3.0359 11.7379C3.03358 11.7464 3.03095 11.7549 3.02888 11.7635C3.01074 11.8378 3.00125 11.9139 3.00062 11.9904C3.00055 11.9936 3 11.9967 3 11.9999V24.9999C3.00061 25.5302 3.21151 26.0386 3.58646 26.4135C3.9614 26.7884 4.46975 26.9993 5 26.9999H27C27.5302 26.9993 28.0386 26.7884 28.4135 26.4135C28.7885 26.0386 28.9994 25.5302 29 24.9999V11.9999C29 11.9967 28.9995 11.9936 28.9994 11.9904ZM5 24.9999V13.941L13.2377 19.8142C13.4071 19.935 13.6101 19.9999 13.8182 19.9999H18.1818C18.3899 19.9999 18.5929 19.935 18.7623 19.8142L27 13.941V24.9999H5Z" fill="black"/>
</svg>
