<svg   viewBox="0 0 32 32" fill="none" xmlns="http://www.w3.org/2000/svg">
<path d="M28.9988 6.97617C28.9984 6.95767 28.9974 6.93921 28.996 6.92078C28.9948 6.90573 28.9933 6.89079 28.9915 6.87595C28.9894 6.85867 28.9867 6.84149 28.9836 6.82431C28.9809 6.80881 28.9779 6.79343 28.9745 6.7782C28.9708 6.7619 28.9665 6.74576 28.962 6.72964C28.9576 6.71423 28.9532 6.69898 28.9482 6.6839C28.9429 6.66815 28.9371 6.65265 28.931 6.63715C28.9253 6.62231 28.9194 6.60763 28.913 6.5932C28.9061 6.57794 28.8987 6.56296 28.8912 6.548C28.884 6.53381 28.8766 6.51977 28.8688 6.50598C28.8606 6.49173 28.852 6.47772 28.8431 6.46377C28.8342 6.44971 28.8249 6.43591 28.8153 6.42233C28.8063 6.40955 28.7968 6.397 28.7871 6.38455C28.7761 6.37054 28.7648 6.35693 28.7531 6.34353C28.7476 6.33722 28.7429 6.3305 28.7372 6.32429C28.7324 6.31904 28.727 6.31458 28.7221 6.30945C28.7101 6.29682 28.6976 6.2847 28.6849 6.27271C28.6731 6.2616 28.6612 6.25059 28.649 6.24012C28.637 6.22987 28.6246 6.22016 28.6121 6.21045C28.5984 6.19983 28.5848 6.18931 28.5707 6.17951C28.5585 6.171 28.5459 6.16309 28.5333 6.15513C28.5184 6.14573 28.5036 6.13636 28.4883 6.12781C28.475 6.12037 28.4614 6.11362 28.4478 6.10679C28.4327 6.09925 28.4177 6.09165 28.4023 6.08491C28.3874 6.07832 28.3721 6.07258 28.3567 6.06672C28.342 6.06111 28.3274 6.0554 28.3125 6.05052C28.2963 6.04518 28.2798 6.04072 28.2633 6.0362C28.2485 6.03218 28.2338 6.02812 28.2189 6.02479C28.2024 6.0211 28.1857 6.0182 28.1689 6.01533C28.1531 6.01265 28.1373 6.01002 28.1213 6.0081C28.1055 6.00618 28.0896 6.00489 28.0735 6.00374C28.0561 6.00245 28.0386 6.00144 28.0211 6.00108C28.014 6.00091 28.0071 6 28 6H4C3.99329 6 3.98682 6.00089 3.9801 6.00101C3.96167 6.00137 3.94324 6.00241 3.92487 6.00378C3.90967 6.00494 3.89459 6.00613 3.87964 6.00794C3.86285 6.00995 3.84619 6.01269 3.82947 6.01559C3.81354 6.01834 3.79761 6.02106 3.78198 6.02457C3.76623 6.02808 3.75073 6.03235 3.73511 6.03662C3.71936 6.04095 3.70361 6.0452 3.68817 6.05026C3.67255 6.05539 3.65717 6.06134 3.64172 6.06726C3.62714 6.07288 3.61249 6.07837 3.59821 6.08463C3.58228 6.09161 3.5667 6.09949 3.55108 6.10736C3.53795 6.11395 3.52483 6.12039 3.51208 6.12753C3.49645 6.13629 3.4812 6.14591 3.46594 6.15558C3.45373 6.16333 3.4414 6.17102 3.42956 6.17929C3.41522 6.18924 3.40137 6.19992 3.38751 6.21072C3.37518 6.22028 3.36297 6.22986 3.35114 6.23999C3.33881 6.25052 3.3269 6.2616 3.31494 6.27286C3.30231 6.28476 3.28992 6.29685 3.27789 6.30939C3.27301 6.31455 3.26764 6.31903 3.26282 6.32428C3.25714 6.33051 3.25238 6.33722 3.24689 6.34353C3.23523 6.35693 3.22388 6.37054 3.21289 6.38455C3.20318 6.397 3.19372 6.40955 3.18469 6.42233C3.17505 6.43591 3.16583 6.4497 3.15686 6.46377C3.14801 6.47772 3.1394 6.49172 3.13122 6.50598C3.12341 6.51977 3.11603 6.53381 3.10882 6.548C3.10126 6.56295 3.09387 6.57794 3.08703 6.5932C3.08062 6.60763 3.07471 6.62231 3.06897 6.63714C3.06293 6.65264 3.05706 6.66814 3.05182 6.68389C3.04682 6.69897 3.04236 6.71423 3.03802 6.72964C3.03351 6.74575 3.02923 6.7619 3.02551 6.77819C3.02209 6.79342 3.0191 6.8088 3.01636 6.82431C3.0133 6.84149 3.01062 6.85867 3.00848 6.87594C3.00665 6.8908 3.00516 6.90575 3.00402 6.92077C3.00256 6.93924 3.00162 6.9577 3.00122 6.97616C3.00104 6.98416 3 6.99194 3 7V24C3.00061 24.5302 3.21151 25.0386 3.58646 25.4135C3.9614 25.7885 4.46975 25.9994 5 26H27C27.5302 25.9994 28.0386 25.7885 28.4135 25.4135C28.7885 25.0386 28.9994 24.5302 29 24V7C29 6.99194 28.999 6.98416 28.9988 6.97617ZM5 9.27328L12.3383 16L5 22.7267V9.27328ZM6.57092 24L13.8182 17.3567L15.3242 18.7372C15.5087 18.9062 15.7498 19 16 19C16.2502 19 16.4913 18.9062 16.6758 18.7372L18.1818 17.3566L25.4291 24H6.57092ZM19.6618 16L27.0002 9.2731L27.0012 22.7277L19.6618 16Z" fill="black"/>
</svg>
