<svg   viewBox="0 0 32 32" fill="none" xmlns="http://www.w3.org/2000/svg">
<path d="M28.9988 6.97617C28.9984 6.95767 28.9974 6.93921 28.996 6.92078C28.9948 6.90573 28.9933 6.89079 28.9915 6.87595C28.9894 6.85867 28.9867 6.84149 28.9837 6.82434C28.9809 6.80881 28.9779 6.7934 28.9745 6.77814C28.9708 6.7619 28.9665 6.74582 28.962 6.72974C28.9577 6.7143 28.9532 6.69895 28.9481 6.68381C28.9429 6.66812 28.9371 6.65265 28.9311 6.63721C28.9253 6.62235 28.9194 6.60761 28.9129 6.59311C28.9061 6.57794 28.8988 6.56302 28.8912 6.54813C28.884 6.53385 28.8766 6.51972 28.8687 6.50586C28.8606 6.4917 28.8521 6.47779 28.8432 6.46393C28.8342 6.44977 28.825 6.43585 28.8153 6.42218C28.8062 6.40949 28.7969 6.39703 28.7872 6.38464C28.7761 6.37058 28.7648 6.3569 28.7531 6.34345C28.7476 6.33716 28.7429 6.33048 28.7372 6.32428C28.7324 6.31903 28.7271 6.31458 28.7222 6.30948C28.7101 6.29685 28.6976 6.28467 28.6849 6.27268C28.6731 6.26157 28.6613 6.25058 28.6491 6.24014C28.637 6.22986 28.6246 6.22015 28.6121 6.21045C28.5985 6.19982 28.5848 6.1893 28.5707 6.17951C28.5585 6.17099 28.5459 6.16309 28.5333 6.15512C28.5184 6.14572 28.5036 6.13635 28.4884 6.12781C28.475 6.12033 28.4613 6.11359 28.4476 6.10669C28.4326 6.09921 28.4177 6.09168 28.4025 6.08496C28.3873 6.07828 28.3718 6.07245 28.3562 6.0665C28.3419 6.06104 28.3275 6.05545 28.3129 6.05066C28.2963 6.04517 28.2793 6.04056 28.2623 6.03595C28.248 6.03208 28.2338 6.02814 28.2194 6.0249C28.2024 6.02112 28.1852 6.01813 28.1679 6.0152C28.1526 6.0126 28.1374 6.01007 28.122 6.00818C28.1056 6.00616 28.0891 6.00485 28.0725 6.00366C28.0557 6.00244 28.0388 6.00147 28.022 6.0011C28.0146 6.00095 28.0074 6 28 6H4.00001C3.99317 6 3.98658 6.00089 3.97974 6.00104C3.96155 6.0014 3.94349 6.00241 3.92536 6.00379C3.90992 6.00491 3.8946 6.00614 3.8794 6.00797C3.8628 6.00998 3.84632 6.0127 3.82984 6.01554C3.81373 6.01831 3.79761 6.02109 3.78174 6.0246C3.76624 6.02808 3.75098 6.03229 3.7356 6.0365C3.71961 6.04087 3.70362 6.0452 3.68793 6.05036C3.67243 6.05542 3.65729 6.06131 3.64203 6.06714C3.62732 6.07282 3.61255 6.07834 3.59815 6.08466C3.58227 6.09162 3.56672 6.09949 3.55109 6.10733C3.53797 6.11393 3.52484 6.1204 3.51209 6.12757C3.49641 6.13633 3.48115 6.14594 3.46589 6.15561C3.45368 6.16333 3.44141 6.17099 3.42957 6.17926C3.41523 6.18924 3.40131 6.19995 3.38746 6.21079C3.37513 6.22034 3.36292 6.22989 3.35114 6.23999C3.33881 6.25052 3.32691 6.2616 3.31501 6.27283C3.30231 6.28476 3.28992 6.29688 3.27784 6.30946C3.27296 6.31458 3.26765 6.31904 3.26282 6.32429C3.25715 6.33048 3.25245 6.33716 3.24695 6.34345C3.23523 6.35691 3.22388 6.37058 3.21283 6.38465C3.20313 6.39704 3.19379 6.40949 3.18475 6.42219C3.17505 6.43586 3.16577 6.44978 3.1568 6.46394C3.14795 6.47779 3.13941 6.49171 3.13135 6.50587C3.12341 6.51972 3.11603 6.53385 3.10877 6.54814C3.1012 6.56303 3.09387 6.57795 3.0871 6.59312C3.08063 6.60762 3.07471 6.62235 3.06891 6.63722C3.06287 6.65266 3.05707 6.66813 3.05188 6.68382C3.04682 6.69895 3.0423 6.7143 3.03797 6.72975C3.03351 6.74583 3.02924 6.76191 3.02551 6.77815C3.0221 6.79341 3.01911 6.80882 3.01636 6.82435C3.01331 6.8415 3.01062 6.85868 3.00848 6.87596C3.00665 6.89082 3.00517 6.90576 3.00403 6.92078C3.00256 6.93925 3.00163 6.95771 3.00122 6.97618C3.00104 6.98418 3 6.99195 3 7.00001V24C3.00061 24.5302 3.21151 25.0386 3.58646 25.4135C3.9614 25.7885 4.46975 25.9994 5 26H27C27.5302 25.9994 28.0386 25.7885 28.4135 25.4135C28.7885 25.0386 28.9994 24.5302 29 24V7C29 6.99195 28.999 6.98416 28.9988 6.97617ZM27 24H5.00002V9.27332L15.3242 18.7372C15.5087 18.9062 15.7498 19 16 19C16.2502 19 16.4913 18.9062 16.6758 18.7372L27.0002 9.27313L27.0012 23.9999L27 24Z" fill="black"/>
</svg>
