<svg   viewBox="0 0 32 32" fill="none" xmlns="http://www.w3.org/2000/svg">
<path d="M17 10.9999H15V4.41373L11.457 7.95575C11.3642 8.0486 11.2539 8.12225 11.1326 8.17249C11.0113 8.22274 10.8812 8.24859 10.7499 8.24858C10.6186 8.24857 10.4886 8.22269 10.3672 8.17243C10.2459 8.12216 10.1357 8.04849 10.0428 7.95563C9.95 7.86276 9.87635 7.75252 9.82611 7.63119C9.77586 7.50987 9.75001 7.37983 9.75002 7.24851C9.75003 7.11719 9.77591 6.98716 9.82617 6.86584C9.87644 6.74452 9.9501 6.63429 10.043 6.54144L15.293 1.29279C15.4805 1.10531 15.7348 1 16 1C16.2652 1 16.5195 1.10531 16.707 1.29279L21.957 6.54144C22.1446 6.72896 22.25 6.9833 22.25 7.24851C22.25 7.51372 22.1447 7.76808 21.9572 7.95563C21.7696 8.14318 21.5153 8.24855 21.2501 8.24858C20.9849 8.2486 20.7305 8.14326 20.543 7.95575L17 4.41373V10.9999ZM25 10.9999H17V15.9999C17 16.2652 16.8946 16.5195 16.7071 16.7071C16.5196 16.8946 16.2652 16.9999 16 16.9999C15.7348 16.9999 15.4804 16.8946 15.2929 16.7071C15.1054 16.5195 15 16.2652 15 15.9999V10.9999H7C6.46975 11.0005 5.9614 11.2115 5.58646 11.5864C5.21151 11.9613 5.00061 12.4697 5 12.9999V25.9999C5.00061 26.5302 5.21151 27.0385 5.58646 27.4135C5.9614 27.7884 6.46975 27.9993 7 27.9999H25C25.5302 27.9993 26.0386 27.7884 26.4135 27.4135C26.7885 27.0385 26.9994 26.5302 27 25.9999V12.9999C26.9994 12.4697 26.7885 11.9613 26.4135 11.5864C26.0386 11.2115 25.5302 11.0005 25 10.9999V10.9999Z" fill="black"/>
</svg>
