<svg   viewBox="0 0 32 32" fill="none" xmlns="http://www.w3.org/2000/svg">
<path d="M28 11H21.9255L22.9839 5.17884C23.0074 5.04963 23.0052 4.91707 22.9774 4.78871C22.9497 4.66035 22.8969 4.53872 22.8222 4.43075C22.7474 4.32278 22.6521 4.23059 22.5417 4.15945C22.4314 4.08831 22.308 4.0396 22.1788 4.01612C22.0496 3.99264 21.9171 3.99483 21.7887 4.02258C21.6603 4.05033 21.5387 4.10308 21.4307 4.17784C21.3228 4.2526 21.2306 4.34789 21.1594 4.45827C21.0883 4.56865 21.0396 4.69197 21.0161 4.82117L19.8927 11H13.9255L14.9839 5.17884C15.0074 5.04963 15.0052 4.91707 14.9774 4.78871C14.9497 4.66035 14.8969 4.53872 14.8222 4.43075C14.7474 4.32278 14.6521 4.23059 14.5417 4.15945C14.4314 4.08831 14.308 4.0396 14.1788 4.01612C14.0496 3.99264 13.9171 3.99483 13.7887 4.02258C13.6603 4.05033 13.5387 4.10308 13.4307 4.17784C13.3228 4.2526 13.2306 4.34789 13.1594 4.45827C13.0883 4.56865 13.0396 4.69197 13.0161 4.82117L11.8927 11H5.45459C5.18937 11 4.93502 11.1054 4.74748 11.2929C4.55995 11.4804 4.45459 11.7348 4.45459 12C4.45459 12.2652 4.55995 12.5196 4.74748 12.7071C4.93502 12.8946 5.18937 13 5.45459 13H11.5291L10.4381 19H4C3.73478 19 3.48043 19.1054 3.29289 19.2929C3.10536 19.4804 3 19.7348 3 20C3 20.2652 3.10536 20.5196 3.29289 20.7071C3.48043 20.8946 3.73478 21 4 21H10.0745L9.01611 26.8212C8.99263 26.9504 8.99482 27.0829 9.02257 27.2113C9.05032 27.3397 9.10308 27.4613 9.17783 27.5693C9.32881 27.7873 9.56023 27.9365 9.82117 27.9839C10.0821 28.0313 10.3512 27.9731 10.5693 27.8222C10.7873 27.6712 10.9365 27.4398 10.9839 27.1788L12.1073 21H18.0745L17.0161 26.8212C16.9926 26.9504 16.9948 27.0829 17.0226 27.2113C17.0503 27.3397 17.1031 27.4613 17.1778 27.5693C17.2526 27.6772 17.3479 27.7694 17.4583 27.8406C17.5686 27.9117 17.692 27.9604 17.8212 27.9839C17.9504 28.0074 18.0829 28.0052 18.2113 27.9774C18.3397 27.9497 18.4613 27.8969 18.5693 27.8222C18.6772 27.7474 18.7694 27.6521 18.8406 27.5417C18.9117 27.4314 18.9604 27.308 18.9839 27.1788L20.1073 21H26.5454C26.8106 21 27.065 20.8946 27.2525 20.7071C27.4401 20.5196 27.5454 20.2652 27.5454 20C27.5454 19.7348 27.4401 19.4804 27.2525 19.2929C27.065 19.1054 26.8106 19 26.5454 19H20.4709L21.5619 13H28C28.2652 13 28.5196 12.8946 28.7071 12.7071C28.8946 12.5196 29 12.2652 29 12C29 11.7348 28.8946 11.4804 28.7071 11.2929C28.5196 11.1054 28.2652 11 28 11ZM18.4381 19H12.4709L13.5619 13H19.5291L18.4381 19Z" fill="black"/>
</svg>
