<svg viewBox="0 0 32 32" xmlns="http://www.w3.org/2000/svg">
<path d="M27.5601 10.8301L17.3001 7.83762L17.2937 7.83573L5.55994 4.41337C5.26187 4.32643 4.94765 4.31009 4.64217 4.36564C4.33669 4.42119 4.04833 4.54709 3.79995 4.73339C3.55156 4.91969 3.34996 5.16127 3.21111 5.43898C3.07227 5.7167 2.99999 6.02292 3 6.33341V23.6667C3.00039 24.1962 3.21041 24.7039 3.58414 25.079C3.95787 25.4541 4.4649 25.666 4.99438 25.6683C5.18585 25.668 5.37632 25.6406 5.56006 25.5867L16.0007 22.5415V24C16.0013 24.5303 16.2122 25.0386 16.5872 25.4136C16.9621 25.7885 17.4705 25.9994 18.0007 26H22.0007C22.531 25.9994 23.0393 25.7885 23.4143 25.4136C23.7892 25.0386 24.0001 24.5303 24.0007 24V20.2082L27.5599 19.1701C27.9745 19.0474 28.3385 18.7944 28.5979 18.4485C28.8573 18.1027 28.9983 17.6824 29 17.25V12.75C28.9984 12.3177 28.8574 11.8975 28.598 11.5516C28.3386 11.2057 27.9746 10.9527 27.5601 10.8301V10.8301ZM22.0007 24H18.0007V21.9582L22.0007 20.7915V24ZM27 17.25L22.7058 18.5025L22.7023 18.5035L18.0007 19.8748V10.1252L27 12.75V17.25Z"/>
</svg>
