<svg   viewBox="0 0 32 32" fill="none" xmlns="http://www.w3.org/2000/svg">
<path d="M30.0002 15C29.9983 13.4092 29.3656 11.8842 28.2408 10.7593C27.116 9.63453 25.5909 9.0018 24.0002 8.99998H19.0022C18.9374 8.99974 12.4546 8.9138 6.28642 3.74046C5.99491 3.49553 5.63954 3.3389 5.26208 3.28899C4.88462 3.23908 4.50076 3.29795 4.15561 3.45869C3.81046 3.61943 3.51837 3.87536 3.31366 4.1964C3.10896 4.51744 3.00016 4.89024 3.00004 5.27098V24.729C2.99771 25.1099 3.10531 25.4834 3.30995 25.8047C3.51458 26.126 3.80755 26.3814 4.15372 26.5404C4.41996 26.6655 4.71041 26.7305 5.00455 26.7311C5.47405 26.7301 5.92807 26.5631 6.28629 26.2596C11.021 22.2886 15.9406 21.3151 18.0002 21.0769V25.4648C17.9998 25.7941 18.0809 26.1184 18.2363 26.4088C18.3916 26.6991 18.6165 26.9465 18.8907 27.1289L20.2648 28.045C20.5315 28.2228 20.837 28.3338 21.1555 28.3688C21.4741 28.4038 21.7964 28.3618 22.0953 28.2462C22.3942 28.1306 22.661 27.9449 22.8731 27.7047C23.0853 27.4645 23.2366 27.1768 23.3144 26.8659L24.7944 20.9458C26.2344 20.7518 27.5553 20.0425 28.5125 18.9493C29.4696 17.856 29.9982 16.453 30.0002 15V15ZM21.3741 26.3808L20.0002 25.4648V21H22.7194L21.3741 26.3808ZM24.0002 19H20.0002V11H24.0002C25.061 11 26.0784 11.4214 26.8286 12.1716C27.5787 12.9217 28.0002 13.9391 28.0002 15C28.0002 16.0608 27.5787 17.0783 26.8286 17.8284C26.0784 18.5786 25.061 19 24.0002 19Z" fill="black"/>
</svg>
