<svg viewBox="0 0 32 32" xmlns="http://www.w3.org/2000/svg">
<path d="M29.5572 25.1838L17.7332 4.06946C17.5595 3.75925 17.3062 3.50096 16.9995 3.32118C16.6928 3.1414 16.3437 3.04663 15.9881 3.04663C15.6326 3.04663 15.2835 3.1414 14.9767 3.32118C14.67 3.50096 14.4167 3.75925 14.243 4.06946L2.41902 25.1838C2.22009 25.539 2.13433 25.9466 2.1732 26.3519C2.21207 26.7572 2.37372 27.141 2.63654 27.452C2.89937 27.7629 3.25085 27.9863 3.64402 28.0922C4.03718 28.1981 4.45329 28.1814 4.83675 28.0445L14.9881 24.419V15C14.9881 14.7348 15.0935 14.4804 15.281 14.2929C15.4685 14.1054 15.7229 14 15.9881 14C16.2533 14 16.5077 14.1054 16.6952 14.2929C16.8828 14.4804 16.9881 14.7348 16.9881 15V24.419L27.1395 28.0445C27.3579 28.1229 27.5881 28.1631 27.8201 28.1634C28.1683 28.1614 28.51 28.0687 28.8114 27.8944C29.1129 27.7201 29.3636 27.4702 29.539 27.1693C29.7144 26.8685 29.8083 26.5272 29.8115 26.179C29.8147 25.8308 29.727 25.4878 29.5572 25.1838V25.1838Z"/>
</svg>
