<svg   viewBox="0 0 32 32" fill="none" xmlns="http://www.w3.org/2000/svg">
<path d="M27.9275 14.2548L6.81315 2.43086C6.45789 2.23193 6.05037 2.14617 5.64506 2.18504C5.23974 2.22391 4.85595 2.38556 4.54497 2.64839C4.23399 2.91121 4.01063 3.26269 3.90475 3.65585C3.79886 4.04902 3.8155 4.46513 3.95243 4.84858L7.57792 15H16.997C17.2622 15 17.5166 15.1053 17.7041 15.2928C17.8916 15.4804 17.997 15.7347 17.997 16C17.997 16.2652 17.8916 16.5195 17.7041 16.7071C17.5166 16.8946 17.2622 17 16.997 17H7.57792L3.95243 27.1513C3.84525 27.4531 3.81191 27.7761 3.85519 28.0934C3.89848 28.4107 4.01713 28.713 4.20122 28.975C4.38531 29.237 4.62949 29.4511 4.91331 29.5994C5.19713 29.7477 5.51234 29.8259 5.83256 29.8273C6.1762 29.8267 6.51391 29.7378 6.81327 29.569L27.9274 17.7451C28.2376 17.5713 28.4959 17.3181 28.6757 17.0114C28.8554 16.7046 28.9502 16.3555 28.9502 16C28.9502 15.6445 28.8555 15.2953 28.6757 14.9886C28.496 14.6819 28.2377 14.4286 27.9275 14.2548V14.2548Z" fill="black"/>
</svg>
