<svg viewBox="0 0 32 32" xmlns="http://www.w3.org/2000/svg">
<path d="M27.9709 4.03297C27.7194 3.7817 27.4055 3.60196 27.0616 3.51221C26.7176 3.42247 26.3559 3.42596 26.0137 3.52235L2.72271 10.0916C2.33083 10.2021 1.98201 10.4296 1.72289 10.7437C1.46377 11.0577 1.30668 11.4434 1.27263 11.8492C1.23858 12.2549 1.32918 12.6614 1.53233 13.0142C1.73548 13.3671 2.0415 13.6496 2.40948 13.8239L12.1512 18.4384L18.8115 11.7781C18.999 11.5905 19.2534 11.4852 19.5186 11.4852C19.7838 11.4852 20.0382 11.5905 20.2258 11.7781C20.4133 11.9656 20.5187 12.22 20.5187 12.4852C20.5187 12.7505 20.4133 13.0048 20.2258 13.1924L13.5655 19.8527L18.18 29.5944C18.3398 29.9371 18.5944 30.227 18.9137 30.4297C19.2329 30.6324 19.6036 30.7395 19.9817 30.7384C20.039 30.7384 20.0966 30.736 20.1547 30.7312C20.5612 30.6994 20.948 30.5431 21.2625 30.2837C21.5769 30.0242 21.8038 29.6742 21.9123 29.2811L28.4815 5.99012C28.5778 5.64794 28.5812 5.28629 28.4915 4.94233C28.4018 4.59837 28.2221 4.2845 27.9709 4.03297V4.03297Z"/>
</svg>
