<svg   viewBox="0 0 32 32" fill="none" xmlns="http://www.w3.org/2000/svg">
<path d="M26.7047 23.3672C28.0494 21.4157 28.8351 19.1338 28.9768 16.7681C29.1184 14.4024 28.6107 12.043 27.5085 9.94495C26.4063 7.84692 24.7516 6.09011 22.7232 4.86446C20.6948 3.63881 18.3699 2.99097 16 2.99097C13.6301 2.99097 11.3052 3.63881 9.27684 4.86446C7.24846 6.09011 5.5937 7.84692 4.4915 9.94495C3.3893 12.043 2.88158 14.4024 3.02325 16.7681C3.16492 19.1338 3.95058 21.4157 5.29529 23.3672C5.31229 23.3979 5.33087 23.4277 5.35096 23.4565C5.36597 23.4779 5.38288 23.4971 5.39924 23.517C6.59927 25.2118 8.18815 26.5941 10.0326 27.5481C11.8771 28.5021 13.9235 29 16.0001 29C18.0767 29 20.123 28.5021 21.9675 27.548C23.812 26.594 25.4008 25.2117 26.6008 23.5169C26.6172 23.497 26.634 23.4779 26.6491 23.4565C26.6691 23.4277 26.6877 23.3979 26.7047 23.3672V23.3672ZM27 16C27.0024 17.917 26.5006 19.8009 25.5451 21.4627L17 15.4794V5.0459C19.7316 5.2986 22.2706 6.56151 24.1201 8.5875C25.9696 10.6135 26.9966 13.2567 27 16ZM15 5.0459V15.4794L6.4549 21.4627C5.53893 19.8639 5.03941 18.0606 5.00224 16.2184C4.96507 14.3762 5.39144 12.5541 6.24218 10.9197C7.09292 9.28526 8.34075 7.89081 9.87103 6.86446C11.4013 5.83812 13.165 5.21278 15 5.0459V5.0459ZM7.6048 23.0991L15 17.921V26.954C12.1241 26.6908 9.4675 25.306 7.6048 23.0992V23.0991ZM17 26.954V17.921L24.3952 23.0992C22.5325 25.306 19.8759 26.6908 17 26.954Z" fill="black"/>
</svg>
