<svg   viewBox="0 0 32 32" fill="none" xmlns="http://www.w3.org/2000/svg">
<path d="M15.1133 13.5354C15.1115 13.5334 15.1097 13.5314 15.1079 13.5295L11.2225 9.2556C11.2205 9.25328 11.2184 9.25109 11.2164 9.24883L6.74227 4.32732C6.65401 4.22985 6.54739 4.15074 6.42851 4.09453C6.30964 4.03831 6.18085 4.00609 6.04951 3.99971C5.91817 3.99333 5.78686 4.01292 5.66309 4.05734C5.53933 4.10177 5.42555 4.17017 5.32825 4.25862C5.23095 4.34708 5.15205 4.45385 5.09607 4.57283C5.04009 4.69182 5.00812 4.82067 5.00199 4.95202C4.99586 5.08338 5.0157 5.21465 5.06037 5.33832C5.10504 5.462 5.17366 5.57565 5.2623 5.67278L8.75711 9.51708C6.71049 10.4144 4.85063 11.6882 3.27426 13.2721C2.07143 14.4775 1.34855 16.0795 1.24065 17.779C1.13276 19.4784 1.64723 21.159 2.68796 22.5068C2.95516 22.8474 3.32546 23.0923 3.74346 23.2049C4.16146 23.3175 4.60468 23.2917 5.00681 23.1314L10.9211 20.7657C11.2303 20.6426 11.5038 20.4441 11.7166 20.1882C11.9293 19.9323 12.0747 19.6273 12.1394 19.3008L12.8775 15.6119C13.2488 15.4837 13.6276 15.3786 14.0118 15.2972L25.2623 27.6728C25.4407 27.869 25.6898 27.9864 25.9547 27.999C26.2197 28.0116 26.4788 27.9185 26.675 27.74C26.8713 27.5616 26.9886 27.3125 27.0012 27.0476C27.0138 26.7827 26.9207 26.5236 26.7423 26.3273L15.1133 13.5354Z" fill="black"/>
<path d="M28.7248 13.272C26.9346 11.484 24.788 10.0929 22.4246 9.18922C20.0613 8.28555 17.5342 7.88955 15.0078 8.02697C14.819 8.03733 14.637 8.101 14.4829 8.21058C14.3289 8.32016 14.209 8.47117 14.1373 8.6461C14.0655 8.82103 14.0449 9.0127 14.0776 9.19891C14.1104 9.38511 14.1953 9.55821 14.3225 9.69813L26.1175 22.673C26.2194 22.7851 26.3454 22.8725 26.486 22.9288L26.9921 23.1314C27.3943 23.2917 27.8376 23.3174 28.2556 23.2048C28.6737 23.0922 29.044 22.8472 29.3112 22.5066C30.3519 21.1588 30.8663 19.4782 30.7584 17.7788C30.6505 16.0793 29.9276 14.4773 28.7248 13.272V13.272Z" fill="black"/>
</svg>
