<svg viewBox="0 0 32 32" xmlns="http://www.w3.org/2000/svg">
<path d="M27.7465 19.8033L21.8917 17.2942C21.5861 17.1625 21.2523 17.1095 20.9209 17.14C20.5895 17.1704 20.271 17.2834 19.9944 17.4685L16.864 19.5551C14.9508 18.6246 13.4023 17.083 12.4634 15.1739L12.4636 15.1737L14.543 11.9964C14.724 11.7206 14.8338 11.4042 14.8626 11.0756C14.8914 10.7469 14.8383 10.4162 14.708 10.1131L12.1965 4.25339C12.0255 3.85566 11.7303 3.52401 11.3551 3.30808C10.9799 3.09214 10.5448 3.00353 10.115 3.05552C8.42607 3.27267 6.87398 4.09725 5.74865 5.37523C4.62331 6.6532 4.00173 8.29716 4 9.99997C4 19.9253 12.0747 28 22 28C23.7028 27.9982 25.3468 27.3766 26.6248 26.2513C27.9028 25.1259 28.7273 23.5738 28.9445 21.8849C28.9964 21.4551 28.9077 21.02 28.6917 20.6448C28.4758 20.2696 28.1442 19.9744 27.7465 19.8033V19.8033Z"/>
<path d="M19.2929 12.7071C19.4805 12.8946 19.7348 12.9999 20.0001 12.9999C20.2653 12.9999 20.5197 12.8946 20.7072 12.7071L23.0001 10.4143L25.2929 12.7071C25.4805 12.8946 25.7348 13 26.0001 13C26.2653 13 26.5197 12.8946 26.7072 12.7071C26.8948 12.5195 27.0001 12.2652 27.0001 11.9999C27.0001 11.7347 26.8948 11.4803 26.7072 11.2928L24.4144 8.99994L26.7072 6.7071C26.8001 6.61423 26.8737 6.50399 26.924 6.38265C26.9743 6.26132 27.0001 6.13127 27.0001 5.99994C27.0001 5.86861 26.9743 5.73857 26.924 5.61724C26.8737 5.4959 26.8001 5.38566 26.7072 5.29279C26.6144 5.19993 26.5041 5.12626 26.3828 5.076C26.2614 5.02575 26.1314 4.99988 26.0001 4.99988C25.8687 4.99988 25.7387 5.02575 25.6174 5.076C25.496 5.12626 25.3858 5.19993 25.2929 5.29279L23.0001 7.58564L20.7072 5.29279C20.5197 5.10524 20.2653 4.99988 20.0001 4.99988C19.7348 4.99988 19.4805 5.10524 19.2929 5.29279C19.1054 5.48034 19 5.73471 19 5.99994C19 6.26518 19.1054 6.51955 19.2929 6.7071L21.5858 8.99994L19.2929 11.2928C19.1054 11.4804 19 11.7347 19 11.9999C19 12.2652 19.1054 12.5195 19.2929 12.7071V12.7071Z"/>
</svg>
