<svg viewBox="0 0 32 32" xmlns="http://www.w3.org/2000/svg">
<path d="M27.7465 19.8033L21.8917 17.2942C21.586 17.1626 21.2523 17.1096 20.9209 17.1401C20.5895 17.1705 20.271 17.2834 19.9944 17.4685L16.864 19.5552C14.9508 18.6247 13.4023 17.083 12.4634 15.174L12.4636 15.1737L14.543 11.9965C14.724 11.7206 14.8338 11.4042 14.8626 11.0756C14.8914 10.7469 14.8383 10.4163 14.708 10.1132L12.1965 4.25342C12.0256 3.85566 11.7304 3.52398 11.3551 3.30803C10.9799 3.09209 10.5448 3.00351 10.115 3.05554C8.42607 3.27269 6.87398 4.09728 5.74865 5.37525C4.62331 6.65323 4.00173 8.29718 4 10C4 19.9253 12.0747 28 22 28C23.7028 27.9983 25.3468 27.3767 26.6248 26.2513C27.9028 25.126 28.7273 23.5738 28.9445 21.8849C28.9964 21.4551 28.9077 21.02 28.6917 20.6448C28.4758 20.2696 28.1442 19.9744 27.7465 19.8033V19.8033Z"/>
<path d="M19.6694 5.9661C21.1951 6.37632 22.5861 7.18025 23.7032 8.29734C24.8203 9.41443 25.6242 10.8055 26.0344 12.3311C26.1034 12.5868 26.2709 12.8047 26.5003 12.9371C26.7297 13.0694 27.0023 13.1053 27.2581 13.0369C27.514 12.9686 27.7323 12.8015 27.8651 12.5723C27.9979 12.3432 28.0344 12.0707 27.9666 11.8147C27.4651 9.94977 26.4823 8.24933 25.1168 6.88377C23.7512 5.5182 22.0508 4.53545 20.1858 4.03397C19.9298 3.96614 19.6573 4.00263 19.4282 4.13544C19.1991 4.26825 19.032 4.48654 18.9636 4.7424C18.8952 4.99826 18.9311 5.2708 19.0635 5.50022C19.1958 5.72963 19.4137 5.89718 19.6694 5.9661L19.6694 5.9661Z"/>
<path d="M18.6304 9.83073C19.4779 10.0586 20.2506 10.5052 20.8712 11.1258C21.4918 11.7464 21.9384 12.5191 22.1663 13.3666C22.2352 13.6223 22.4027 13.8403 22.6321 13.9726C22.8616 14.1049 23.1341 14.1408 23.39 14.0725C23.6458 14.0041 23.8641 13.837 23.9969 13.6079C24.1297 13.3787 24.1662 13.1063 24.0984 12.8503C23.7793 11.6634 23.1539 10.5812 22.2848 9.71218C21.4158 8.84313 20.3336 8.21772 19.1467 7.8986C18.8907 7.83076 18.6183 7.86725 18.3891 8.00006C18.16 8.13288 17.9929 8.35116 17.9245 8.60703C17.8562 8.86289 17.8921 9.13543 18.0244 9.36484C18.1567 9.59425 18.3747 9.7618 18.6304 9.83072L18.6304 9.83073Z"/>
</svg>
