<svg   viewBox="0 0 32 32" fill="none" xmlns="http://www.w3.org/2000/svg">
<path d="M28.7303 11.272C21.7121 4.25406 10.2927 4.25369 3.27426 11.2721C2.07143 12.4775 1.34855 14.0795 1.24065 15.7789C1.13276 17.4784 1.64723 19.1589 2.68796 20.5067C2.95516 20.8473 3.32546 21.0923 3.74346 21.2049C4.16146 21.3175 4.60468 21.2917 5.00681 21.1314L10.9211 18.7657C11.2303 18.6426 11.5038 18.444 11.7166 18.1882C11.9293 17.9323 12.0747 17.6273 12.1394 17.3008L12.8775 13.6118C14.8883 12.9168 17.0734 12.912 19.0871 13.5982V13.5984L19.8635 17.3157C19.9306 17.6387 20.0766 17.94 20.2887 18.1927C20.5007 18.4454 20.7721 18.6416 21.0786 18.7637L26.9977 21.1314C27.3998 21.2916 27.8431 21.3174 28.2611 21.2048C28.6792 21.0922 29.0495 20.8472 29.3167 20.5066C30.3574 19.1588 30.8719 17.4782 30.7639 15.7788C30.656 14.0794 29.9331 12.4774 28.7303 11.272V11.272Z" fill="black"/>
<path d="M27 24H5C4.73478 24 4.48043 24.1054 4.29289 24.2929C4.10536 24.4804 4 24.7348 4 25C4 25.2652 4.10536 25.5196 4.29289 25.7071C4.48043 25.8946 4.73478 26 5 26H27C27.2652 26 27.5196 25.8946 27.7071 25.7071C27.8946 25.5196 28 25.2652 28 25C28 24.7348 27.8946 24.4804 27.7071 24.2929C27.5196 24.1054 27.2652 24 27 24Z" fill="black"/>
</svg>
