<svg   viewBox="0 0 32 32" fill="none" xmlns="http://www.w3.org/2000/svg">
<path d="M27.7465 19.8034L21.8917 17.2942C21.5861 17.1626 21.2523 17.1096 20.9209 17.1401C20.5895 17.1705 20.271 17.2834 19.9944 17.4685L16.864 19.5552C14.9508 18.6247 13.4023 17.0831 12.4634 15.174L12.4636 15.1737L14.543 11.9965C14.724 11.7207 14.8338 11.4043 14.8626 11.0756C14.8914 10.747 14.8383 10.4163 14.708 10.1132L12.1965 4.25346C12.0255 3.8558 11.7302 3.52421 11.355 3.30828C10.9798 3.09236 10.5448 3.00371 10.115 3.05559C8.42607 3.27274 6.87398 4.09732 5.74865 5.3753C4.62331 6.65327 4.00173 8.29723 4 10C4 19.9253 12.0747 28 22 28C23.7028 27.9983 25.3468 27.3767 26.6248 26.2514C27.9028 25.126 28.7273 23.5739 28.9445 21.8849C28.9964 21.4551 28.9077 21.0201 28.6917 20.6449C28.4758 20.2696 28.1442 19.9744 27.7465 19.8034V19.8034Z" fill="black"/>
<path d="M19.0107 12.1386C19.0134 12.1577 19.0157 12.1768 19.0194 12.1957C19.0225 12.2114 19.0269 12.2265 19.0307 12.2419C19.0348 12.2582 19.0384 12.2745 19.0433 12.2907C19.0479 12.3057 19.0535 12.3203 19.0588 12.335C19.0644 12.3511 19.0698 12.3673 19.0764 12.3831C19.082 12.3966 19.0886 12.4095 19.0947 12.4227C19.1024 12.4392 19.1098 12.4558 19.1185 12.4719C19.1249 12.484 19.1324 12.4955 19.1393 12.5073C19.1489 12.5236 19.1582 12.54 19.1688 12.5558C19.1771 12.5681 19.1864 12.5797 19.1952 12.5916C19.2057 12.606 19.2157 12.6205 19.2271 12.6343C19.2416 12.652 19.2573 12.6685 19.273 12.6851C19.2798 12.6924 19.2858 12.7 19.2928 12.7071C19.2996 12.7139 19.3071 12.7197 19.314 12.7262C19.3309 12.7421 19.3477 12.7581 19.3657 12.7729C19.379 12.7839 19.393 12.7935 19.4067 12.8036C19.4193 12.8129 19.4314 12.8226 19.4443 12.8312C19.4596 12.8414 19.4753 12.8503 19.491 12.8596C19.5034 12.867 19.5156 12.8748 19.5283 12.8816C19.5438 12.89 19.5598 12.897 19.5756 12.9044C19.5894 12.9109 19.603 12.9178 19.6171 12.9237C19.6323 12.9299 19.6477 12.935 19.6631 12.9405C19.6785 12.9461 19.6938 12.952 19.7096 12.9568C19.7248 12.9614 19.7402 12.9647 19.7556 12.9686C19.7719 12.9727 19.788 12.9772 19.8046 12.9805C19.8221 12.9841 19.84 12.9862 19.8577 12.9887C19.8723 12.9907 19.8865 12.9935 19.9013 12.9949C19.9341 12.9982 19.967 12.9999 20 12.9999H25C25.2652 12.9999 25.5196 12.8946 25.7071 12.7071C25.8946 12.5195 26 12.2652 26 11.9999C26 11.7347 25.8946 11.4804 25.7071 11.2928C25.5196 11.1053 25.2652 10.9999 25 10.9999H22.4143L26.7072 6.7071C26.8 6.61423 26.8737 6.50399 26.9239 6.38265C26.9742 6.26132 27.0001 6.13128 27.0001 5.99994C27.0001 5.86861 26.9742 5.73857 26.9239 5.61724C26.8737 5.4959 26.8 5.38566 26.7072 5.29279C26.6143 5.19993 26.504 5.12626 26.3827 5.076C26.2614 5.02575 26.1313 4.99988 26 4.99988C25.8687 4.99988 25.7386 5.02575 25.6173 5.076C25.496 5.12626 25.3857 5.19993 25.2928 5.29279L21 9.58564V6.99995C21 6.73473 20.8946 6.48038 20.7071 6.29284C20.5196 6.1053 20.2652 5.99995 20 5.99995C19.7348 5.99995 19.4804 6.1053 19.2929 6.29284C19.1054 6.48038 19 6.73473 19 6.99995V11.9993C19 12.0325 19.0017 12.0658 19.005 12.0989C19.0063 12.1124 19.0089 12.1253 19.0107 12.1386Z" fill="black"/>
</svg>
