<svg viewBox="0 0 32 32" xmlns="http://www.w3.org/2000/svg">
<path d="M27.7465 19.8033L21.8917 17.2942C21.586 17.1626 21.2523 17.1096 20.9209 17.1401C20.5895 17.1705 20.271 17.2834 19.9944 17.4685L16.864 19.5552C14.9508 18.6247 13.4023 17.083 12.4634 15.174L12.4636 15.1737L14.543 11.9965C14.724 11.7206 14.8338 11.4042 14.8626 11.0756C14.8914 10.7469 14.8383 10.4163 14.708 10.1132L12.1965 4.25342C12.0256 3.85566 11.7304 3.52398 11.3551 3.30803C10.9799 3.09209 10.5448 3.00351 10.115 3.05554C8.42607 3.27269 6.87398 4.09728 5.74865 5.37525C4.62331 6.65323 4.00173 8.29718 4 10C4 19.9253 12.0747 28 22 28C23.7028 27.9983 25.3468 27.3767 26.6248 26.2513C27.9028 25.126 28.7273 23.5738 28.9445 21.8849C28.9964 21.4551 28.9077 21.02 28.6917 20.6448C28.4758 20.2696 28.1442 19.9744 27.7465 19.8033V19.8033Z"/>
<path d="M20.0001 13C20.1314 13.0002 20.2615 12.9744 20.3829 12.9241C20.5042 12.8739 20.6145 12.8001 20.7072 12.7072L25.0001 8.41431V11C25.0001 11.2652 25.1055 11.5196 25.293 11.7071C25.4805 11.8946 25.7349 12 26.0001 12C26.2653 12 26.5197 11.8946 26.7072 11.7071C26.8947 11.5196 27.0001 11.2652 27.0001 11V6.00061C27.0001 5.96741 26.9984 5.93414 26.9951 5.901C26.9938 5.88757 26.9912 5.87463 26.9894 5.86139C26.9867 5.84228 26.9844 5.82318 26.9807 5.8042C26.9776 5.78857 26.9732 5.77344 26.9694 5.75806C26.9653 5.74176 26.9617 5.7254 26.9568 5.70929C26.9522 5.69421 26.9466 5.67969 26.9413 5.66492C26.9356 5.6488 26.9303 5.63269 26.9237 5.61682C26.9181 5.60339 26.9115 5.59045 26.9054 5.57727C26.8977 5.56079 26.8903 5.54419 26.8816 5.52807C26.8752 5.51593 26.8677 5.50445 26.8608 5.49267C26.8512 5.47638 26.8419 5.45996 26.8313 5.44415C26.823 5.43182 26.8137 5.42022 26.8049 5.40832C26.7944 5.39398 26.7844 5.37945 26.773 5.3656C26.7585 5.34796 26.7428 5.33142 26.7271 5.31482C26.7203 5.30755 26.7143 5.29992 26.7073 5.29284C26.7006 5.28619 26.6933 5.28051 26.6865 5.27411C26.6695 5.25799 26.6524 5.24188 26.6344 5.22698C26.6213 5.2163 26.6076 5.2069 26.5942 5.19695C26.5813 5.18743 26.5689 5.17754 26.5556 5.16863C26.5409 5.15874 26.5256 5.15013 26.5104 5.14111C26.4974 5.13341 26.4848 5.1253 26.4715 5.11816C26.4567 5.11028 26.4415 5.10357 26.4264 5.09649C26.4118 5.08959 26.3975 5.08233 26.3825 5.0761C26.3685 5.0703 26.3541 5.0656 26.3398 5.06048C26.3232 5.05444 26.3069 5.04815 26.2899 5.04302C26.2762 5.03887 26.2623 5.03588 26.2485 5.03234C26.2307 5.02782 26.2131 5.02288 26.195 5.01928C26.1798 5.01629 26.1645 5.01458 26.1491 5.01232C26.1322 5.00976 26.1154 5.00664 26.0981 5.00493C26.0729 5.00249 26.0475 5.00164 26.0222 5.00109C26.0148 5.00098 26.0075 5 26.0001 5H21.0001C20.7349 5 20.4805 5.10536 20.293 5.29289C20.1055 5.48043 20.0001 5.73478 20.0001 6C20.0001 6.26522 20.1055 6.51957 20.293 6.70711C20.4805 6.89464 20.7349 7 21.0001 7H23.5858L19.2929 11.2928C19.1531 11.4327 19.0578 11.6109 19.0192 11.8049C18.9806 11.9989 19.0004 12.2 19.0761 12.3827C19.1518 12.5654 19.28 12.7216 19.4445 12.8315C19.6089 12.9414 19.8023 13 20.0001 13Z"/>
</svg>
