<svg   viewBox="0 0 32 32" fill="none" xmlns="http://www.w3.org/2000/svg">
<path d="M14.5 9V20C14.4982 21.5907 13.8655 23.1158 12.7407 24.2407C11.6158 25.3655 10.0907 25.9982 8.5 26C8.23478 26 7.98043 25.8946 7.79289 25.7071C7.60536 25.5196 7.5 25.2652 7.5 25C7.5 24.7348 7.60536 24.4804 7.79289 24.2929C7.98043 24.1054 8.23478 24 8.5 24C9.5605 23.9988 10.5772 23.577 11.3271 22.8271C12.077 22.0772 12.4988 21.0605 12.5 20V19H5C4.46975 18.9994 3.9614 18.7885 3.58646 18.4135C3.21151 18.0386 3.00061 17.5302 3 17V9C3.00061 8.46975 3.21151 7.9614 3.58646 7.58646C3.9614 7.21151 4.46975 7.00061 5 7H12.5C13.0302 7.00061 13.5386 7.21151 13.9135 7.58646C14.2885 7.9614 14.4994 8.46975 14.5 9ZM27 7H19.5C18.9698 7.00061 18.4614 7.21151 18.0865 7.58646C17.7115 7.9614 17.5006 8.46975 17.5 9V17C17.5006 17.5302 17.7115 18.0386 18.0865 18.4135C18.4614 18.7885 18.9698 18.9994 19.5 19H27V20C26.9988 21.0605 26.577 22.0772 25.8271 22.8271C25.0772 23.577 24.0605 23.9988 23 24C22.7348 24 22.4804 24.1054 22.2929 24.2929C22.1054 24.4804 22 24.7348 22 25C22 25.2652 22.1054 25.5196 22.2929 25.7071C22.4804 25.8946 22.7348 26 23 26C24.5907 25.9982 26.1158 25.3655 27.2407 24.2407C28.3655 23.1158 28.9982 21.5907 29 20V9C28.9994 8.46975 28.7885 7.9614 28.4135 7.58646C28.0386 7.21151 27.5302 7.00061 27 7V7Z" fill="black"/>
</svg>
