<svg viewBox="0 0 32 32" xmlns="http://www.w3.org/2000/svg">
<path d="M27 9.00006H10.8136L24.2873 4.95795C24.5414 4.88174 24.7548 4.70773 24.8805 4.4742C25.0063 4.24067 25.0341 3.96675 24.9579 3.71271C24.8817 3.45866 24.7077 3.24529 24.4741 3.11954C24.2406 2.99379 23.9667 2.96596 23.7126 3.04217L3.71264 9.04217L3.70989 9.04315C3.6827 9.05139 3.65624 9.06115 3.63012 9.07156C3.62512 9.07355 3.61987 9.07507 3.61492 9.07712C3.59252 9.08649 3.57089 9.09734 3.54931 9.10824C3.54098 9.11245 3.53222 9.11602 3.52401 9.12045C3.51598 9.12478 3.50854 9.13 3.50063 9.13455C3.40109 9.1918 3.31221 9.26585 3.23794 9.35344C3.23473 9.35724 3.23113 9.36067 3.22796 9.36451C3.21673 9.37817 3.20672 9.3927 3.19625 9.40692C3.18738 9.41892 3.17797 9.43046 3.16964 9.44287C3.16509 9.44966 3.16131 9.45691 3.15691 9.46382C3.10108 9.5515 3.05936 9.64741 3.03329 9.74804C3.02899 9.76457 3.02404 9.78088 3.02054 9.79765C3.01956 9.80249 3.01914 9.80751 3.01819 9.81236C3.01281 9.84045 3.00821 9.86873 3.00525 9.89737C3.00507 9.89904 3.0051 9.90075 3.00495 9.90243C3.0018 9.93417 3.00012 9.96615 3.00009 9.99835L3 10.0001V25.0001C3.00061 25.5303 3.21151 26.0387 3.58646 26.4136C3.9614 26.7885 4.46975 26.9995 5 27.0001H27C27.5302 26.9995 28.0386 26.7885 28.4135 26.4136C28.7885 26.0387 28.9994 25.5303 29 25.0001V11.0001C28.9994 10.4698 28.7885 9.96146 28.4135 9.58652C28.0386 9.21158 27.5302 9.00067 27 9.00006ZM12 23.0001H7C6.73478 23.0001 6.48043 22.8947 6.29289 22.7072C6.10536 22.5196 6 22.2653 6 22.0001C6 21.7348 6.10536 21.4805 6.29289 21.293C6.48043 21.1054 6.73478 21.0001 7 21.0001H12C12.2652 21.0001 12.5196 21.1054 12.7071 21.293C12.8946 21.4805 13 21.7348 13 22.0001C13 22.2653 12.8946 22.5196 12.7071 22.7072C12.5196 22.8947 12.2652 23.0001 12 23.0001ZM12 19.0001H7C6.73478 19.0001 6.48043 18.8947 6.29289 18.7072C6.10536 18.5196 6 18.2653 6 18.0001C6 17.7348 6.10536 17.4805 6.29289 17.293C6.48043 17.1054 6.73478 17.0001 7 17.0001H12C12.2652 17.0001 12.5196 17.1054 12.7071 17.293C12.8946 17.4805 13 17.7348 13 18.0001C13 18.2653 12.8946 18.5196 12.7071 18.7072C12.5196 18.8947 12.2652 19.0001 12 19.0001ZM12 15.0001H7C6.73478 15.0001 6.48043 14.8947 6.29289 14.7072C6.10536 14.5196 6 14.2653 6 14.0001C6 13.7348 6.10536 13.4805 6.29289 13.293C6.48043 13.1054 6.73478 13.0001 7 13.0001H12C12.2652 13.0001 12.5196 13.1054 12.7071 13.293C12.8946 13.4805 13 13.7348 13 14.0001C13 14.2653 12.8946 14.5196 12.7071 14.7072C12.5196 14.8947 12.2652 15.0001 12 15.0001ZM21 21.5001C20.3078 21.5001 19.6311 21.2948 19.0555 20.9102C18.4799 20.5256 18.0313 19.979 17.7664 19.3395C17.5015 18.6999 17.4322 17.9962 17.5673 17.3172C17.7023 16.6383 18.0356 16.0147 18.5251 15.5252C19.0146 15.0357 19.6383 14.7024 20.3172 14.5673C20.9961 14.4323 21.6999 14.5016 22.3394 14.7665C22.9789 15.0314 23.5256 15.48 23.9101 16.0556C24.2947 16.6311 24.5 17.3078 24.5 18.0001C24.4989 18.928 24.1298 19.8176 23.4737 20.4738C22.8176 21.1299 21.9279 21.499 21 21.5001V21.5001Z"/>
</svg>
