<svg viewBox="0 0 32 32" xmlns="http://www.w3.org/2000/svg">
<path d="M12.364 19.6359C13.2023 20.4697 13.8669 21.4615 14.3194 22.5539C14.7719 23.6463 15.0032 24.8176 15 26C15 26.2652 14.8946 26.5195 14.7071 26.7071C14.5196 26.8946 14.2652 27 14 27C13.7348 27 13.4804 26.8946 13.2929 26.7071C13.1054 26.5195 13 26.2652 13 26C13 24.1434 12.2625 22.363 10.9497 21.0502C9.63699 19.7375 7.85651 19 6 19C5.73478 19 5.48043 18.8946 5.29289 18.7071C5.10536 18.5195 5 18.2652 5 18C5 17.7347 5.10536 17.4804 5.29289 17.2928C5.48043 17.1053 5.73478 17 6 17C7.18237 16.9967 8.35363 17.2281 9.446 17.6805C10.5384 18.133 11.5302 18.7976 12.364 19.6359V19.6359ZM6 11C5.73478 11 5.48043 11.1053 5.29289 11.2928C5.10536 11.4804 5 11.7347 5 12C5 12.2652 5.10536 12.5195 5.29289 12.7071C5.48043 12.8946 5.73478 13 6 13C9.4478 13 12.7544 14.3697 15.1923 16.8076C17.6303 19.2456 18.9999 22.5522 19 26C19 26.2652 19.1054 26.5195 19.2929 26.7071C19.4804 26.8946 19.7348 27 20 27C20.2652 27 20.5196 26.8946 20.7071 26.7071C20.8946 26.5195 21 26.2652 21 26C21 22.0217 19.4196 18.2064 16.6066 15.3934C13.7935 12.5803 9.97824 11 6 11V11ZM20.8493 11.1507C18.9037 9.1946 16.5896 7.64377 14.0407 6.58799C11.4918 5.53222 8.75887 4.99246 6 4.99995C5.73478 4.99995 5.48043 5.10531 5.29289 5.29285C5.10536 5.48038 5 5.73474 5 5.99995C5 6.26517 5.10536 6.51953 5.29289 6.70706C5.48043 6.8946 5.73478 6.99995 6 6.99995C8.49614 6.99315 10.9688 7.4815 13.275 8.43674C15.5811 9.39199 17.6749 10.7952 19.4351 12.565C21.2049 14.3252 22.608 16.419 23.5633 18.7251C24.5185 21.0312 25.0068 23.5038 25 26C25 26.2652 25.1054 26.5195 25.2929 26.7071C25.4804 26.8946 25.7348 27 26 27C26.2652 27 26.5196 26.8946 26.7071 26.7071C26.8946 26.5195 27 26.2652 27 26C27.0075 23.2411 26.4678 20.5081 25.412 17.9592C24.3562 15.4104 22.8054 13.0962 20.8492 11.1507H20.8493ZM6.5 24C6.20333 24 5.91332 24.0879 5.66665 24.2528C5.41997 24.4176 5.22771 24.6518 5.11418 24.9259C5.00065 25.2 4.97094 25.5016 5.02882 25.7926C5.0867 26.0836 5.22956 26.3508 5.43934 26.5606C5.64912 26.7704 5.91639 26.9133 6.20737 26.9711C6.49834 27.029 6.79994 26.9993 7.07403 26.8858C7.34812 26.7722 7.58238 26.58 7.74721 26.3333C7.91203 26.0866 8 25.7966 8 25.5C7.99956 25.1023 7.84138 24.721 7.56017 24.4398C7.27896 24.1586 6.89769 24.0004 6.5 24V24Z"/>
</svg>
