<svg   viewBox="0 0 32 32" fill="none" xmlns="http://www.w3.org/2000/svg">
<path d="M21.997 20C21.33 19.9998 20.6696 20.1334 20.0551 20.3931C19.4407 20.6527 18.8846 21.0331 18.4198 21.5116L12.6576 17.8073C13.1102 16.6449 13.1102 15.3551 12.6576 14.1927L18.4198 10.4884C19.2848 11.3732 20.4475 11.9054 21.6826 11.9818C22.9176 12.0581 24.137 11.6732 25.1044 10.9017C26.0718 10.1301 26.7183 9.02689 26.9186 7.8058C27.1188 6.58471 26.8586 5.33275 26.1883 4.29261C25.5181 3.25247 24.4855 2.49823 23.2907 2.1761C22.096 1.85396 20.8242 1.98688 19.7219 2.54908C18.6196 3.11127 17.7653 4.06271 17.3245 5.21896C16.8838 6.37522 16.888 7.65392 17.3364 8.80722L11.5742 12.5115C10.8803 11.7991 9.98969 11.3097 9.01624 11.106C8.04278 10.9023 7.03069 10.9935 6.10936 11.368C5.18803 11.7426 4.39932 12.3833 3.84405 13.2084C3.28878 14.0335 2.99219 15.0055 2.99219 16C2.99219 16.9945 3.28878 17.9665 3.84405 18.7916C4.39932 19.6167 5.18803 20.2574 6.10936 20.632C7.03069 21.0065 8.04278 21.0977 9.01624 20.894C9.98969 20.6903 10.8803 20.2009 11.5742 19.4885L17.3364 23.1928C16.9507 24.1883 16.8937 25.2811 17.1739 26.3113C17.4542 27.3415 18.0568 28.2549 18.8937 28.9178C19.7305 29.5808 20.7577 29.9584 21.8246 29.9954C22.8916 30.0323 23.9424 29.7268 24.8232 29.1234C25.704 28.52 26.3684 27.6505 26.7193 26.6422C27.0702 25.6339 27.0891 24.5397 26.7732 23.5199C26.4572 22.5001 25.8232 21.6082 24.9637 20.9748C24.1043 20.3414 23.0646 19.9998 21.997 20V20Z" fill="black"/>
</svg>
