<svg   viewBox="0 0 32 32" fill="none" xmlns="http://www.w3.org/2000/svg">
<path d="M28.7072 13.7071L22.7072 19.7071C22.5673 19.847 22.3891 19.9422 22.1951 19.9808C22.0011 20.0193 21.8001 19.9995 21.6174 19.9238C21.4346 19.8481 21.2785 19.72 21.1686 19.5555C21.0587 19.3911 21 19.1978 21 19V14C18.5607 13.9982 16.19 14.8077 14.2613 16.3012C12.3326 17.7946 10.9553 19.8871 10.3464 22.2492C10.2801 22.5058 10.1146 22.7256 9.88635 22.8602C9.65808 22.9949 9.3857 23.0334 9.12905 22.9673C8.8724 22.9013 8.65246 22.736 8.51758 22.5079C8.38269 22.2798 8.34388 22.0074 8.40967 21.7507C9.12904 18.9589 10.7565 16.4856 13.0359 14.7204C15.3152 12.9551 18.117 11.9981 21 12V6.99998C21 6.8022 21.0587 6.60887 21.1686 6.44443C21.2785 6.27999 21.4346 6.15182 21.6174 6.07613C21.8001 6.00044 22.0011 5.98063 22.1951 6.0192C22.3891 6.05777 22.5673 6.15299 22.7072 6.29282L28.7072 12.2928C28.8947 12.4804 29 12.7348 29 13C29 13.2652 28.8947 13.5196 28.7072 13.7071V13.7071ZM24 26H5V11C5 10.7348 4.89464 10.4804 4.70711 10.2929C4.51957 10.1053 4.26522 9.99998 4 9.99998C3.73478 9.99998 3.48043 10.1053 3.29289 10.2929C3.10536 10.4804 3 10.7348 3 11V26C3.00061 26.5302 3.21151 27.0386 3.58646 27.4135C3.9614 27.7885 4.46975 27.9994 5 28H24C24.2652 28 24.5196 27.8946 24.7071 27.7071C24.8946 27.5195 25 27.2652 25 27C25 26.7348 24.8946 26.4804 24.7071 26.2929C24.5196 26.1053 24.2652 26 24 26Z" fill="black"/>
</svg>
