<svg   viewBox="0 0 32 32" fill="none" xmlns="http://www.w3.org/2000/svg">
<path d="M21 4H11C9.14412 4.00208 7.36485 4.74025 6.05255 6.05255C4.74025 7.36485 4.00208 9.14412 4 11V21C4.00208 22.8559 4.74025 24.6351 6.05255 25.9474C7.36485 27.2598 9.14412 27.9979 11 28H17C17.1075 28 17.2143 27.9827 17.3163 27.9487C20.5953 26.8556 26.8556 20.5953 27.9487 17.3163C27.9827 17.2143 28 17.1075 28 17V11C27.9979 9.14412 27.2598 7.36485 25.9474 6.05255C24.6351 4.74025 22.8559 4.00208 21 4V4ZM17 25.9278V22C17.0015 20.6744 17.5288 19.4035 18.4661 18.4661C19.4035 17.5288 20.6744 17.0015 22 17H25.9278C24.77 19.694 19.694 24.77 17 25.9278Z" fill="black"/>
</svg>
