<svg viewBox="0 0 32 32" xmlns="http://www.w3.org/2000/svg">
<path d="M28.9834 10.0145C28.7018 9.69571 28.3557 9.44039 27.968 9.26549C27.5802 9.09058 27.1597 9.00009 26.7344 9H20V7C19.9985 5.67438 19.4712 4.40349 18.5339 3.46613C17.5965 2.52877 16.3256 2.00151 15 2C14.8143 1.99999 14.6322 2.0517 14.4743 2.14933C14.3163 2.24697 14.1886 2.38668 14.1056 2.55279L9.38196 12H4C3.46975 12.0006 2.9614 12.2115 2.58646 12.5865C2.21151 12.9614 2.00061 13.4698 2 14V25C2.00061 25.5302 2.21151 26.0386 2.58646 26.4135C2.9614 26.7885 3.46975 26.9994 4 27H25.2344C25.9653 26.999 26.6708 26.7315 27.2188 26.2478C27.7667 25.7641 28.1196 25.0972 28.2113 24.3721L29.7113 12.3721C29.7639 11.95 29.7263 11.5215 29.6008 11.1151C29.4753 10.7086 29.2648 10.3335 28.9834 10.0145V10.0145ZM4 14H9V25H4V14Z"/>
</svg>
