<svg viewBox="0 0 32 32" xmlns="http://www.w3.org/2000/svg">
<path d="M29.7113 19.6279L28.2113 7.62787C28.1196 6.90272 27.7667 6.23587 27.2187 5.75215C26.6708 5.26844 25.9653 5.00103 25.2344 5H4C3.46975 5.00061 2.9614 5.21151 2.58646 5.58646C2.21151 5.9614 2.00061 6.46975 2 7V18C2.00061 18.5302 2.21151 19.0386 2.58646 19.4135C2.9614 19.7885 3.46975 19.9994 4 20H9.38196L14.1056 29.4472C14.1886 29.6133 14.3163 29.753 14.4743 29.8507C14.6322 29.9483 14.8143 30 15 30C16.3256 29.9985 17.5965 29.4712 18.5339 28.5339C19.4712 27.5965 19.9985 26.3256 20 25V23H26.7344C27.1598 23 27.5803 22.9095 27.968 22.7346C28.3558 22.5597 28.7019 22.3043 28.9834 21.9854C29.265 21.6665 29.4755 21.2914 29.6009 20.885C29.7264 20.4785 29.7641 20.05 29.7113 19.6279V19.6279ZM9 18H4V7H9V18Z"/>
</svg>
