<svg viewBox="0 0 32 32" xmlns="http://www.w3.org/2000/svg">
<path d="M29.8944 26.5527L22.8944 12.5527C22.8113 12.3866 22.6837 12.247 22.5257 12.1493C22.3677 12.0517 22.1857 12 22 12C21.8143 12 21.6323 12.0517 21.4743 12.1493C21.3163 12.247 21.1887 12.3866 21.1056 12.5527L18.3934 17.9771C16.2656 17.8587 14.218 17.1248 12.4994 15.8646C14.5147 13.7134 15.7361 10.9391 15.9619 8H19C19.2652 8 19.5196 7.89464 19.7071 7.70711C19.8946 7.51957 20 7.26522 20 7C20 6.73478 19.8946 6.48043 19.7071 6.29289C19.5196 6.10536 19.2652 6 19 6H12V4C12 3.73478 11.8946 3.48043 11.7071 3.29289C11.5196 3.10536 11.2652 3 11 3C10.7348 3 10.4804 3.10536 10.2929 3.29289C10.1054 3.48043 10 3.73478 10 4V6H3C2.73478 6 2.48043 6.10536 2.29289 6.29289C2.10536 6.48043 2 6.73478 2 7C2 7.26522 2.10536 7.51957 2.29289 7.70711C2.48043 7.89464 2.73478 8 3 8H13.9541C13.7312 10.4507 12.6903 12.7552 10.999 14.5426C9.94582 13.4307 9.13751 12.1102 8.62628 10.6665C8.5826 10.5425 8.5149 10.4284 8.42708 10.3306C8.33925 10.2329 8.23301 10.1534 8.11443 10.0967C7.99585 10.04 7.86726 10.0072 7.73601 10.0003C7.60477 9.99335 7.47344 10.0123 7.34954 10.0562C7.22564 10.1 7.1116 10.1679 7.01394 10.2558C6.91628 10.3438 6.83692 10.4501 6.78039 10.5688C6.72386 10.6874 6.69128 10.8161 6.6845 10.9473C6.67773 11.0786 6.6969 11.2099 6.74091 11.3337C7.33795 13.0194 8.27778 14.5631 9.50113 15.8674C7.6178 17.255 5.3393 18.0024 3 18C2.73478 18 2.48043 18.1054 2.29289 18.2929C2.10536 18.4804 2 18.7348 2 19C2 19.2652 2.10536 19.5196 2.29289 19.7071C2.48043 19.8946 2.73478 20 3 20C5.90142 20.003 8.7196 19.0305 11.0017 17.2387C12.8638 18.693 15.0866 19.613 17.4318 19.9002L14.1056 26.5527C13.9871 26.7899 13.9677 27.0644 14.0516 27.3159C14.1355 27.5674 14.3159 27.7753 14.553 27.8939C14.7901 28.0125 15.0646 28.032 15.3162 27.9483C15.5677 27.8645 15.7757 27.6843 15.8944 27.4473L17.618 24H26.382L28.1056 27.4473C28.2243 27.6843 28.4323 27.8645 28.6838 27.9483C28.9354 28.032 29.2099 28.0125 29.447 27.8939C29.6841 27.7753 29.8645 27.5674 29.9484 27.3159C30.0323 27.0644 30.0129 26.7899 29.8944 26.5527V26.5527ZM18.618 22L22 15.2361L25.382 22H18.618Z"/>
</svg>
