<svg   viewBox="0 0 32 32" fill="none" xmlns="http://www.w3.org/2000/svg">
<path d="M25 9C23.609 8.99909 22.2493 9.41289 21.0947 10.1885C19.94 10.9642 19.0428 12.0664 18.5177 13.3545C17.9925 14.6425 17.8633 16.0579 18.1465 17.4198C18.4298 18.7816 19.1126 20.0281 20.1077 21H11.8923C13.0503 19.8648 13.7779 18.3626 13.9507 16.7502C14.1236 15.1379 13.7309 13.5156 12.8398 12.1608C11.9487 10.806 10.6147 9.80281 9.06573 9.32286C7.5168 8.84291 5.84925 8.91599 4.34825 9.52961C2.84725 10.1432 1.60605 11.2592 0.836926 12.6868C0.0678017 14.1144 -0.181471 15.7648 0.13174 17.3559C0.444951 18.9469 1.30119 20.3797 2.55402 21.4093C3.80684 22.4388 5.37843 23.0011 7.00001 23H25C26.8565 23 28.637 22.2625 29.9498 20.9497C31.2625 19.637 32 17.8565 32 16C32 14.1435 31.2625 12.363 29.9498 11.0503C28.637 9.7375 26.8565 9 25 9ZM2.00001 16C2.00001 15.0111 2.29326 14.0444 2.84266 13.2222C3.39207 12.3999 4.17297 11.759 5.0866 11.3806C6.00023 11.0022 7.00556 10.9031 7.97546 11.0961C8.94537 11.289 9.83628 11.7652 10.5355 12.4645C11.2348 13.1637 11.711 14.0546 11.9039 15.0245C12.0969 15.9945 11.9978 16.9998 11.6194 17.9134C11.241 18.8271 10.6001 19.6079 9.77786 20.1574C8.95562 20.7068 7.98892 21 7.00001 21C5.6744 20.9985 4.40351 20.4712 3.46615 19.5339C2.5288 18.5965 2.00153 17.3256 2.00001 16V16ZM25 21C24.0111 21 23.0444 20.7068 22.2222 20.1574C21.3999 19.6079 20.7591 18.8271 20.3806 17.9134C20.0022 16.9998 19.9032 15.9945 20.0961 15.0245C20.289 14.0546 20.7652 13.1637 21.4645 12.4645C22.1637 11.7652 23.0547 11.289 24.0246 11.0961C24.9945 10.9031 25.9998 11.0022 26.9134 11.3806C27.8271 11.759 28.608 12.3999 29.1574 13.2222C29.7068 14.0444 30 15.0111 30 16C29.9985 17.3256 29.4712 18.5965 28.5339 19.5339C27.5965 20.4712 26.3256 20.9985 25 21V21Z" fill="black"/>
</svg>
