<svg   viewBox="0 0 32 32" fill="none" xmlns="http://www.w3.org/2000/svg">
<path d="M16.4897 3.01014C15.0396 5.04667 14.9998 6.9849 14.9996 7.00547C15.001 7.27022 15.1074 7.52358 15.2954 7.71001C15.4833 7.89644 15.7376 8.00073 16.0023 8C16.267 7.99927 16.5207 7.89359 16.7076 7.70613C16.8946 7.51867 16.9996 7.26472 16.9996 6.99997C16.9996 6.73476 17.1049 6.4804 17.2925 6.29287C17.48 6.10533 17.7343 5.99997 17.9996 5.99997C18.2648 5.99997 18.5191 6.10533 18.7067 6.29287C18.8942 6.4804 18.9996 6.73476 18.9996 6.99997C18.9996 7.79562 18.6835 8.55869 18.1209 9.12129C17.5583 9.6839 16.7952 9.99997 15.9996 9.99997C15.2039 9.99997 14.4408 9.6839 13.8782 9.12129C13.3156 8.55869 12.9996 7.79562 12.9996 6.99997C12.9996 6.90888 13.0152 5.19687 14.0717 3.14313C10.7635 3.63694 7.77258 5.38619 5.72036 8.02754C3.66814 10.6689 2.71231 13.9993 3.05143 17.327C3.39056 20.6546 4.99856 23.7238 7.54142 25.8968C10.0843 28.0699 13.3665 29.1799 16.7064 28.9962C20.0462 28.8125 23.187 27.3492 25.4761 24.9104C27.7653 22.4715 29.027 19.2445 28.9991 15.8998C28.9713 12.555 27.6559 9.34948 25.3264 6.94914C22.9969 4.5488 19.8322 3.13812 16.4897 3.01013V3.01014ZM9.99956 16C9.99956 15.7033 10.0875 15.4133 10.2524 15.1666C10.4172 14.9199 10.6514 14.7277 10.9255 14.6142C11.1996 14.5006 11.5012 14.4709 11.7922 14.5288C12.0832 14.5867 12.3504 14.7295 12.5602 14.9393C12.77 15.1491 12.9129 15.4164 12.9707 15.7073C13.0286 15.9983 12.9989 16.2999 12.8854 16.574C12.7718 16.8481 12.5796 17.0824 12.3329 17.2472C12.0862 17.412 11.7962 17.5 11.4996 17.5C11.1017 17.5 10.7202 17.3419 10.4389 17.0606C10.1576 16.7793 9.99956 16.3978 9.99956 16ZM19.8704 21.8331C18.7229 22.5941 17.3766 22.9999 15.9997 23C14.6228 23 13.2764 22.5942 12.1289 21.8332C12.0195 21.7605 11.9256 21.667 11.8523 21.558C11.7791 21.449 11.7281 21.3266 11.7022 21.1979C11.6763 21.0691 11.6759 20.9366 11.7013 20.8077C11.7266 20.6788 11.777 20.5562 11.8497 20.4469C11.9965 20.226 12.2251 20.0725 12.4851 20.0202C12.6138 19.9942 12.7464 19.9939 12.8752 20.0192C13.0041 20.0446 13.1267 20.095 13.2361 20.1677C14.0555 20.7105 15.0167 21 15.9997 21C16.9827 20.9999 17.9438 20.7104 18.7633 20.1676C18.8727 20.0949 18.9953 20.0444 19.1241 20.0191C19.253 19.9938 19.3855 19.9941 19.5143 20.0201C19.643 20.046 19.7654 20.097 19.8744 20.1702C19.9834 20.2434 20.0769 20.3374 20.1496 20.4468C20.2223 20.5561 20.2728 20.6787 20.2981 20.8076C20.3234 20.9365 20.3231 21.069 20.2971 21.1978C20.2712 21.3265 20.2202 21.4489 20.147 21.5579C20.0737 21.6669 19.9798 21.7604 19.8704 21.8331V21.8331ZM20.4996 17.5C20.2029 17.5 19.9129 17.412 19.6662 17.2472C19.4195 17.0824 19.2273 16.8481 19.1137 16.574C19.0002 16.2999 18.9705 15.9983 19.0284 15.7073C19.0863 15.4164 19.2291 15.1491 19.4389 14.9393C19.6487 14.7295 19.916 14.5867 20.2069 14.5288C20.4979 14.4709 20.7995 14.5006 21.0736 14.6142C21.3477 14.7277 21.5819 14.9199 21.7468 15.1666C21.9116 15.4133 21.9996 15.7033 21.9996 16C21.9996 16.3978 21.8415 16.7793 21.5602 17.0606C21.2789 17.3419 20.8974 17.5 20.4996 17.5Z" fill="black"/>
</svg>
