<svg   viewBox="0 0 32 32" fill="none" xmlns="http://www.w3.org/2000/svg">
<path d="M27.9936 4.90118C27.9922 4.88696 27.9895 4.87317 27.9876 4.85913C27.985 4.84088 27.9828 4.82257 27.9792 4.80444C27.976 4.78809 27.9714 4.77216 27.9674 4.75604C27.9635 4.74054 27.9601 4.72498 27.9555 4.7096C27.9507 4.69379 27.9447 4.67853 27.9392 4.66302C27.9337 4.6477 27.9286 4.63226 27.9224 4.61719C27.9164 4.60278 27.9094 4.58899 27.9028 4.57489C27.8955 4.55939 27.8886 4.54376 27.8804 4.52856C27.8732 4.51508 27.865 4.50232 27.8572 4.48919C27.8483 4.4743 27.8398 4.45916 27.8301 4.44463C27.8206 4.43047 27.81 4.41711 27.7998 4.4035C27.7905 4.39099 27.7818 4.37817 27.7718 4.36596C27.7528 4.34284 27.7326 4.32073 27.7116 4.29937C27.7095 4.29723 27.7078 4.29492 27.7057 4.29284C27.7033 4.2904 27.7006 4.28845 27.6982 4.28601C27.6771 4.26538 27.6553 4.24548 27.6325 4.22674C27.6208 4.21704 27.6083 4.20861 27.5962 4.19958C27.5822 4.18908 27.5684 4.17822 27.5538 4.16845C27.5398 4.15905 27.5252 4.15087 27.5108 4.14227C27.4972 4.13415 27.4838 4.12561 27.4698 4.11804C27.4554 4.11035 27.4406 4.10388 27.426 4.09692C27.411 4.08984 27.3963 4.08239 27.3809 4.07605C27.3671 4.07031 27.353 4.06573 27.3389 4.06066C27.3221 4.05456 27.3055 4.04821 27.2884 4.04296C27.2748 4.03894 27.2611 4.03594 27.2474 4.03246C27.2295 4.02788 27.2117 4.02288 27.1935 4.01928C27.1783 4.01629 27.1631 4.01464 27.1479 4.01232C27.1308 4.00976 27.114 4.00664 27.0966 4.00494C27.0714 4.00249 27.0461 4.0017 27.0208 4.00109C27.0133 4.00098 27.0061 4 26.9986 4H20.9986C20.7334 4 20.479 4.10536 20.2915 4.29289C20.104 4.48043 19.9986 4.73478 19.9986 5C19.9986 5.26522 20.104 5.51957 20.2915 5.70711C20.479 5.89464 20.7334 6 20.9986 6H24.5844L20.9986 9.58575L18.7057 7.29285C18.5182 7.10531 18.2638 6.99997 17.9986 6.99998C17.7333 6.99999 17.479 7.10536 17.2915 7.29291C17.1039 7.48046 16.9986 7.73482 16.9986 8.00004C16.9986 8.26527 17.104 8.51962 17.2915 8.70715L19.5844 11L17.6152 12.9691C15.818 11.5338 13.5394 10.8411 11.2473 11.0333C8.95532 11.2254 6.82387 12.2879 5.29074 14.0025C3.75762 15.7171 2.93918 17.9537 3.00353 20.2528C3.06787 22.552 4.01011 24.7393 5.63673 26.3654C7.26335 27.9916 9.45089 28.9332 11.7501 28.9969C14.0493 29.0606 16.2856 28.2416 17.9997 26.708C19.7139 25.1744 20.7758 23.0426 20.9673 20.7505C21.1589 18.4585 20.4655 16.18 19.0297 14.3832L20.9986 12.4143L23.2915 14.7072C23.4791 14.8947 23.7334 15 23.9987 15C24.2639 15 24.5182 14.8946 24.7058 14.7071C24.8933 14.5195 24.9986 14.2652 24.9986 14C24.9986 13.7347 24.8933 13.4804 24.7057 13.2929L22.4129 11L25.9986 7.41425V11C25.9986 11.2652 26.104 11.5196 26.2915 11.7071C26.479 11.8946 26.7334 12 26.9986 12C27.2638 12 27.5182 11.8946 27.7057 11.7071C27.8933 11.5196 27.9986 11.2652 27.9986 11V5.00031C27.9986 4.96722 27.9969 4.93414 27.9936 4.90118ZM16.9484 24.9497C15.8032 26.0949 14.2965 26.8075 12.6848 26.9662C11.0731 27.125 9.45625 26.72 8.1097 25.8202C6.76316 24.9205 5.77024 23.5817 5.30013 22.032C4.83002 20.4822 4.9118 18.8174 5.53155 17.3212C6.15129 15.825 7.27066 14.59 8.6989 13.8266C10.1272 13.0632 11.7759 12.8186 13.3643 13.1346C14.9526 13.4505 16.3823 14.3074 17.4097 15.5593C18.4371 16.8111 18.9986 18.3805 18.9986 20C18.9977 21.8563 18.2604 23.6365 16.9484 24.9497V24.9497Z" fill="black"/>
</svg>
