<svg   viewBox="0 0 32 32" fill="none" xmlns="http://www.w3.org/2000/svg">
<path d="M26 13C26 11.0648 25.4385 9.17121 24.3836 7.54883C23.3287 5.92646 21.8257 4.64502 20.057 3.85992C18.2882 3.07483 16.3296 2.81982 14.4188 3.12581C12.508 3.4318 10.727 4.28565 9.29179 5.58381C7.85663 6.88197 6.82896 8.56866 6.33342 10.4393C5.83788 12.31 5.89576 14.2842 6.50004 16.1226C7.10433 17.961 8.22905 19.5846 9.7378 20.7965C11.2466 22.0083 13.0745 22.7564 15 22.9499V29C15 29.2652 15.1054 29.5196 15.2929 29.7071C15.4804 29.8946 15.7348 30 16 30C16.2652 30 16.5196 29.8946 16.7071 29.7071C16.8946 29.5196 17 29.2652 17 29V22.9499C19.4654 22.699 21.7502 21.5428 23.4126 19.705C25.075 17.8671 25.9969 15.4781 26 13ZM16 21C14.4177 21 12.871 20.5308 11.5554 19.6517C10.2398 18.7727 9.21447 17.5233 8.60896 16.0615C8.00346 14.5996 7.84504 12.9911 8.15372 11.4393C8.4624 9.88742 9.22433 8.46196 10.3431 7.34314C11.462 6.22432 12.8874 5.46239 14.4393 5.15371C15.9911 4.84503 17.5997 5.00345 19.0615 5.60895C20.5233 6.21446 21.7727 7.23983 22.6518 8.55543C23.5308 9.87102 24 11.4177 24 13C23.9976 15.121 23.154 17.1544 21.6542 18.6542C20.1544 20.154 18.121 20.9976 16 21Z" fill="black"/>
</svg>
