<svg viewBox="0 0 32 32" xmlns="http://www.w3.org/2000/svg">
<path d="M26 12C26 10.0648 25.4385 8.17121 24.3836 6.54883C23.3287 4.92646 21.8257 3.64502 20.057 2.85992C18.2882 2.07483 16.3296 1.81982 14.4188 2.12581C12.508 2.4318 10.727 3.28565 9.29179 4.58381C7.85663 5.88197 6.82896 7.56866 6.33342 9.43931C5.83788 11.31 5.89576 13.2842 6.50004 15.1226C7.10433 16.961 8.22905 18.5846 9.7378 19.7965C11.2466 21.0083 13.0745 21.7564 15 21.9499V25H11C10.7348 25 10.4804 25.1053 10.2929 25.2929C10.1054 25.4804 10 25.7348 10 26C10 26.2652 10.1054 26.5196 10.2929 26.7071C10.4804 26.8946 10.7348 27 11 27H15V30C15 30.2652 15.1054 30.5196 15.2929 30.7071C15.4804 30.8946 15.7348 31 16 31C16.2652 31 16.5196 30.8946 16.7071 30.7071C16.8946 30.5196 17 30.2652 17 30V27H21C21.2652 27 21.5196 26.8946 21.7071 26.7071C21.8946 26.5196 22 26.2652 22 26C22 25.7348 21.8946 25.4804 21.7071 25.2929C21.5196 25.1053 21.2652 25 21 25H17V21.9499C19.4654 21.699 21.7502 20.5428 23.4126 18.705C25.075 16.8671 25.9969 14.4781 26 12V12ZM8 12C8 10.4177 8.46919 8.87102 9.34824 7.55543C10.2273 6.23983 11.4767 5.21446 12.9385 4.60895C14.4003 4.00345 16.0089 3.84503 17.5607 4.15371C19.1126 4.46239 20.538 5.22432 21.6569 6.34314C22.7757 7.46196 23.5376 8.88742 23.8463 10.4393C24.155 11.9911 23.9965 13.5996 23.391 15.0615C22.7855 16.5233 21.7602 17.7727 20.4446 18.6517C19.129 19.5308 17.5823 20 16 20C13.879 19.9976 11.8456 19.154 10.3458 17.6542C8.84602 16.1544 8.0024 14.121 8 12V12Z"/>
</svg>
