<svg viewBox="0 0 32 32" xmlns="http://www.w3.org/2000/svg">
<path d="M17 11.053V7.37682L19.9063 9.32994C20.0153 9.40319 20.1377 9.45426 20.2664 9.48023C20.3951 9.50619 20.5277 9.50655 20.6566 9.48128C20.7854 9.45601 20.9081 9.4056 21.0174 9.33294C21.1268 9.26027 21.2208 9.16678 21.2941 9.05779C21.3673 8.9488 21.4184 8.82644 21.4444 8.69772C21.4703 8.56899 21.4707 8.43641 21.4454 8.30754C21.4201 8.17868 21.3697 8.05605 21.2971 7.94667C21.2244 7.83728 21.1309 7.74328 21.0219 7.67003L17.7928 5.49999L21.0219 3.32994C21.1309 3.25669 21.2244 3.16269 21.2971 3.05331C21.3697 2.94392 21.4201 2.8213 21.4454 2.69243C21.4707 2.56357 21.4703 2.43098 21.4444 2.30226C21.4184 2.17353 21.3673 2.05118 21.2941 1.94219C21.2208 1.8332 21.1268 1.7397 21.0174 1.66704C20.9081 1.59437 20.7854 1.54397 20.6566 1.51869C20.5277 1.49342 20.3951 1.49378 20.2664 1.51975C20.1377 1.54571 20.0153 1.59678 19.9063 1.67003L16 4.29515L12.0937 1.67003C11.9847 1.59678 11.8624 1.54571 11.7336 1.51974C11.6049 1.49378 11.4723 1.49342 11.3435 1.51869C11.2146 1.54396 11.092 1.59437 10.9826 1.66703C10.8732 1.7397 10.7792 1.83319 10.7059 1.94218C10.6327 2.05118 10.5816 2.17353 10.5557 2.30225C10.5297 2.43098 10.5293 2.56356 10.5546 2.69243C10.5799 2.82129 10.6303 2.94392 10.7029 3.0533C10.7756 3.16269 10.8691 3.25669 10.9781 3.32994L14.2072 5.49999L10.9781 7.67003C10.8691 7.74328 10.7756 7.83728 10.7029 7.94667C10.6303 8.05605 10.5799 8.17868 10.5546 8.30754C10.5293 8.43641 10.5297 8.56899 10.5557 8.69772C10.5816 8.82644 10.6327 8.9488 10.7059 9.05779C10.7792 9.16678 10.8732 9.26027 10.9826 9.33294C11.092 9.4056 11.2146 9.45601 11.3435 9.48128C11.4723 9.50655 11.6049 9.50619 11.7336 9.48023C11.8624 9.45426 11.9847 9.40319 12.0937 9.32994L15 7.37682V11.053C12.5806 11.3091 10.3517 12.4836 8.77274 14.3344C7.19373 16.1853 6.38499 18.5714 6.51321 21.0009C6.64144 23.4304 7.69686 25.7181 9.46192 27.3925C11.227 29.0668 13.5671 30.0002 16 30.0002C18.4329 30.0002 20.7731 29.0668 22.5381 27.3925C24.3032 25.7181 25.3586 23.4304 25.4868 21.0009C25.615 18.5714 24.8063 16.1853 23.2273 14.3344C21.6483 12.4836 19.4194 11.3091 17 11.053V11.053ZM16 28C14.5167 28 13.0666 27.5601 11.8332 26.736C10.5999 25.9119 9.63857 24.7406 9.07091 23.3701C8.50326 21.9997 8.35473 20.4917 8.64412 19.0368C8.93351 17.582 9.64782 16.2456 10.6967 15.1967C11.7456 14.1478 13.082 13.4335 14.5368 13.1441C15.9917 12.8547 17.4997 13.0032 18.8701 13.5709C20.2406 14.1385 21.4119 15.0998 22.236 16.3332C23.0601 17.5666 23.5 19.0166 23.5 20.5C23.4978 22.4884 22.7069 24.3948 21.3008 25.8008C19.8948 27.2068 17.9884 27.9977 16 28Z"/>
</svg>
