<svg viewBox="0 0 32 32" xmlns="http://www.w3.org/2000/svg">
<path d="M27.9953 4.90118C27.9939 4.88696 27.9912 4.87317 27.9892 4.85913C27.9866 4.84088 27.9844 4.82257 27.9808 4.80444C27.9776 4.78809 27.9731 4.77216 27.969 4.75604C27.9651 4.74054 27.9617 4.72498 27.9571 4.7096C27.9523 4.69379 27.9464 4.67853 27.9408 4.66302C27.9353 4.6477 27.9303 4.63226 27.924 4.61719C27.918 4.60278 27.911 4.58899 27.9044 4.57489C27.8971 4.55939 27.8902 4.54376 27.8821 4.52856C27.8748 4.51508 27.8666 4.50232 27.8588 4.48919C27.8499 4.4743 27.8415 4.45916 27.8317 4.44463C27.8222 4.43047 27.8117 4.41711 27.8015 4.4035C27.7921 4.39099 27.7834 4.37817 27.7734 4.36596C27.7544 4.34284 27.7342 4.32073 27.7132 4.29937C27.7112 4.29723 27.7094 4.29492 27.7073 4.29284C27.705 4.29047 27.7023 4.28851 27.7 4.28619C27.6788 4.2655 27.657 4.24548 27.6341 4.22668C27.6227 4.21734 27.6107 4.20916 27.599 4.20043C27.5845 4.18956 27.5704 4.17839 27.5553 4.16832C27.5419 4.15929 27.5279 4.15154 27.5141 4.1433C27.4999 4.13469 27.4859 4.12578 27.4711 4.11791C27.4575 4.11065 27.4435 4.10448 27.4296 4.09789C27.4139 4.09038 27.3984 4.08263 27.3822 4.07592C27.3693 4.07061 27.3561 4.06633 27.343 4.06157C27.3253 4.0551 27.3077 4.04839 27.2896 4.0429C27.2773 4.03917 27.2649 4.03661 27.2526 4.03337C27.2334 4.02837 27.2142 4.02306 27.1945 4.01922C27.1816 4.01665 27.1684 4.01525 27.1554 4.01323C27.1363 4.01024 27.1173 4.00682 27.0978 4.00493C27.078 4.00298 27.0581 4.00267 27.0382 4.00188C27.0255 4.00146 27.0131 4 27.0002 4H21.0002C20.735 4 20.4807 4.10536 20.2931 4.29289C20.1056 4.48043 20.0002 4.73478 20.0002 5C20.0002 5.26522 20.1056 5.51957 20.2931 5.70711C20.4807 5.89464 20.735 6 21.0002 6H24.586L19.3288 11.2572C17.3424 9.63359 14.8079 8.83553 12.2496 9.02807C9.69134 9.22061 7.3049 10.389 5.58388 12.2917C3.86286 14.1943 2.93891 16.6856 3.00314 19.2503C3.06736 21.815 4.11484 24.257 5.92893 26.0711C7.74302 27.8852 10.1849 28.9327 12.7497 28.997C15.3144 29.0612 17.8057 28.1373 19.7084 26.4163C21.611 24.6953 22.7795 22.3089 22.972 19.7506C23.1646 17.1923 22.3666 14.6579 20.743 12.6715L26.0002 7.41425V11C26.0002 11.2652 26.1056 11.5196 26.2931 11.7071C26.4807 11.8946 26.735 12 27.0002 12C27.2655 12 27.5198 11.8946 27.7074 11.7071C27.8949 11.5196 28.0002 11.2652 28.0002 11V5.00031C28.0002 4.96722 27.9985 4.93414 27.9953 4.90118ZM18.6571 24.6569C17.5385 25.7744 16.1137 26.5352 14.5628 26.8431C13.0119 27.151 11.4045 26.9923 9.94384 26.3868C8.48316 25.7814 7.23477 24.7565 6.35647 23.4417C5.47817 22.1269 5.00939 20.5812 5.00939 19C5.00939 17.4188 5.47817 15.8731 6.35647 14.5583C7.23477 13.2435 8.48316 12.2186 9.94384 11.6132C11.4045 11.0077 13.0119 10.849 14.5628 11.1569C16.1137 11.4648 17.5385 12.2256 18.6571 13.3431C20.1552 14.8446 20.9966 16.879 20.9966 19C20.9966 21.121 20.1552 23.1554 18.6571 24.6569V24.6569Z"/>
</svg>
