<svg viewBox="0 0 32 32" xmlns="http://www.w3.org/2000/svg">
<path d="M26.995 2.90118C26.9936 2.88696 26.9909 2.87317 26.9889 2.85913C26.9864 2.84088 26.9842 2.82257 26.9806 2.80444C26.9774 2.78809 26.9728 2.77216 26.9688 2.75604C26.9649 2.74054 26.9615 2.72497 26.9568 2.70959C26.952 2.69379 26.9461 2.67853 26.9406 2.66302C26.9351 2.6477 26.93 2.63226 26.9238 2.61719C26.9178 2.60278 26.9108 2.58899 26.9041 2.57489C26.8968 2.55939 26.8899 2.54376 26.8818 2.52856C26.8746 2.51508 26.8664 2.50232 26.8586 2.4892C26.8497 2.4743 26.8412 2.45917 26.8315 2.44464C26.822 2.43048 26.8114 2.41711 26.8012 2.4035C26.7919 2.39099 26.7832 2.37817 26.7732 2.36597C26.7542 2.34284 26.734 2.32074 26.713 2.29938C26.7109 2.29724 26.7092 2.29492 26.7071 2.29285C26.7047 2.2904 26.702 2.28845 26.6996 2.28601C26.6785 2.26539 26.6567 2.24548 26.6339 2.22674C26.6221 2.21704 26.6097 2.20862 26.5976 2.19958C26.5836 2.18908 26.5698 2.17822 26.5552 2.16846C26.5412 2.15906 26.5266 2.15088 26.5122 2.14228C26.4986 2.13416 26.4852 2.12561 26.4712 2.11805C26.4568 2.11035 26.442 2.10388 26.4274 2.09693C26.4124 2.08985 26.3977 2.0824 26.3823 2.07605C26.3685 2.07031 26.3543 2.06574 26.3403 2.06068C26.3235 2.05457 26.3069 2.04822 26.2898 2.04298C26.2762 2.03895 26.2624 2.03596 26.2488 2.03248C26.2309 2.0279 26.2131 2.02289 26.1948 2.01929C26.1797 2.0163 26.1645 2.01465 26.1493 2.01233C26.1322 2.00977 26.1154 2.00666 26.098 2.00495C26.0728 2.00251 26.0475 2.00171 26.0222 2.0011C26.0147 2.00098 26.0075 2 26 2H21C20.7348 2 20.4804 2.10536 20.2929 2.29289C20.1054 2.48043 20 2.73478 20 3C20 3.26522 20.1054 3.51957 20.2929 3.70711C20.4804 3.89464 20.7348 4 21 4H23.5858L20.5315 7.0542C19.5241 6.18929 18.328 5.57253 17.0391 5.25338C15.7502 4.93424 14.4045 4.92159 13.1099 5.21645C11.8153 5.51132 10.6077 6.10549 9.58422 6.95131C8.56069 7.79713 7.74964 8.87105 7.21611 10.0869C6.68258 11.3028 6.44144 12.6268 6.51201 13.9527C6.58259 15.2786 6.96292 16.5695 7.6225 17.7219C8.28209 18.8743 9.20256 19.856 10.3101 20.5884C11.4176 21.3208 12.6814 21.7834 14 21.9392V24.5H11C10.7348 24.5 10.4804 24.6054 10.2929 24.7929C10.1054 24.9804 10 25.2348 10 25.5C10 25.7652 10.1054 26.0196 10.2929 26.2071C10.4804 26.3946 10.7348 26.5 11 26.5H14V29C14 29.2652 14.1054 29.5196 14.2929 29.7071C14.4804 29.8946 14.7348 30 15 30C15.2652 30 15.5196 29.8946 15.7071 29.7071C15.8946 29.5196 16 29.2652 16 29V26.5H19C19.2652 26.5 19.5196 26.3946 19.7071 26.2071C19.8946 26.0196 20 25.7652 20 25.5C20 25.2348 19.8946 24.9804 19.7071 24.7929C19.5196 24.6054 19.2652 24.5 19 24.5H16V21.9392C17.4703 21.7664 18.8699 21.2122 20.0599 20.3315C21.2499 19.4509 22.1889 18.2744 22.784 16.9189C23.379 15.5633 23.6092 14.0757 23.4519 12.6037C23.2946 11.1316 22.7552 9.72631 21.8871 8.5271L25 5.41425V8C25 8.26522 25.1054 8.51957 25.2929 8.70711C25.4804 8.89464 25.7348 9 26 9C26.2652 9 26.5196 8.89464 26.7071 8.70711C26.8946 8.51957 27 8.26522 27 8V3.0003C27 2.96722 26.9983 2.93414 26.995 2.90118ZM15 20C13.7144 20 12.4577 19.6188 11.3888 18.9046C10.3199 18.1903 9.48675 17.1752 8.99478 15.9874C8.50281 14.7997 8.37409 13.4928 8.6249 12.2319C8.8757 10.971 9.49476 9.81285 10.4038 8.90381C11.3128 7.99476 12.471 7.3757 13.7319 7.1249C14.9928 6.87409 16.2997 7.00281 17.4874 7.49478C18.6752 7.98675 19.6903 8.81987 20.4046 9.88879C21.1188 10.9577 21.5 12.2144 21.5 13.5C21.498 15.2233 20.8126 16.8755 19.594 18.094C18.3755 19.3126 16.7233 19.998 15 20V20Z"/>
</svg>
