<svg   viewBox="0 0 32 32" fill="none" xmlns="http://www.w3.org/2000/svg">
<path d="M25 10H23V8C23.0005 7.18724 22.7533 6.39363 22.2912 5.72497C21.8292 5.05631 21.1743 4.54438 20.4139 4.25743C19.6535 3.97048 18.8236 3.92214 18.035 4.11886C17.2465 4.31557 16.5366 4.748 16 5.35849C15.4887 4.77667 14.8194 4.35595 14.0734 4.14748C13.3275 3.93902 12.537 3.9518 11.7981 4.18426C11.0593 4.41673 10.4039 4.85887 9.91171 5.45691C9.4195 6.05495 9.11166 6.78313 9.02564 7.55289C8.41831 7.19523 7.72721 7.00452 7.0224 7.00008C6.3176 6.99565 5.62415 7.17765 5.01237 7.52764C4.40059 7.87762 3.89222 8.38315 3.53881 8.99296C3.1854 9.60277 2.99952 10.2952 3 11V16C3 19.4478 4.36964 22.7544 6.80761 25.1924C9.24559 27.6304 12.5522 29 16 29C19.4478 29 22.7544 27.6304 25.1924 25.1924C27.6304 22.7544 29 19.4478 29 16V14C28.9988 12.9395 28.577 11.9228 27.8271 11.1729C27.0772 10.423 26.0605 10.0012 25 10V10ZM19 6C19.5302 6.00061 20.0386 6.21152 20.4135 6.58646C20.7885 6.9614 20.9994 7.46975 21 8V10H17V8C17.0006 7.46975 17.2115 6.9614 17.5865 6.58646C17.9614 6.21152 18.4698 6.00061 19 6V6ZM11 8C11 7.46957 11.2107 6.96086 11.5858 6.58579C11.9609 6.21071 12.4696 6 13 6C13.5304 6 14.0391 6.21071 14.4142 6.58579C14.7893 6.96086 15 7.46957 15 8V13C15 13.5304 14.7893 14.0391 14.4142 14.4142C14.0391 14.7893 13.5304 15 13 15C12.4696 15 11.9609 14.7893 11.5858 14.4142C11.2107 14.0391 11 13.5304 11 13V8ZM5 11C5 10.4696 5.21071 9.96086 5.58579 9.58579C5.96086 9.21072 6.46957 9 7 9C7.53043 9 8.03914 9.21072 8.41421 9.58579C8.78929 9.96086 9 10.4696 9 11V13C9 13.5304 8.78929 14.0391 8.41421 14.4142C8.03914 14.7893 7.53043 15 7 15C6.46957 15 5.96086 14.7893 5.58579 14.4142C5.21071 14.0391 5 13.5304 5 13V11ZM16 27C13.1648 26.9968 10.44 25.9002 8.39287 23.9386C6.34575 21.977 5.13401 19.3014 5.00989 16.4689C5.80927 16.9284 6.74306 17.097 7.65268 16.9462C8.5623 16.7954 9.39169 16.3344 10 15.6415C10.6892 16.4269 11.6589 16.9106 12.7009 16.9888C13.7428 17.067 14.7739 16.7334 15.5726 16.0598C15.9322 16.6558 16.4401 17.1486 17.0469 17.4899C16.4037 18.0522 15.8884 18.7455 15.5353 19.5234C15.1823 20.3013 14.9997 21.1457 15 22C15 22.2652 15.1054 22.5196 15.2929 22.7071C15.4804 22.8946 15.7348 23 16 23C16.2652 23 16.5196 22.8946 16.7071 22.7071C16.8946 22.5196 17 22.2652 17 22C17.0012 20.9395 17.423 19.9228 18.1729 19.1729C18.9228 18.423 19.9395 18.0012 21 18C21.2652 18 21.5196 17.8946 21.7071 17.7071C21.8946 17.5196 22 17.2652 22 17C22 16.7348 21.8946 16.4804 21.7071 16.2929C21.5196 16.1054 21.2652 16 21 16H19C18.4698 15.9994 17.9614 15.7885 17.5865 15.4135C17.2115 15.0386 17.0006 14.5302 17 14V12H25C25.5302 12.0006 26.0386 12.2115 26.4135 12.5865C26.7885 12.9614 26.9994 13.4698 27 14V16C26.9967 18.9164 25.8367 21.7124 23.7745 23.7745C21.7123 25.8367 18.9164 26.9967 16 27Z" fill="black"/>
</svg>
