<svg   viewBox="0 0 32 32" fill="none" xmlns="http://www.w3.org/2000/svg">
<path d="M23.4998 10.5C22.8535 10.4993 22.2197 10.6787 21.6696 11.0181C21.4745 10.6001 21.1987 10.2249 20.8579 9.91393C20.5172 9.603 20.1183 9.36255 19.6843 9.20642C19.2502 9.05029 18.7896 8.98157 18.3289 9.00421C17.8681 9.02686 17.4165 9.14043 16.9998 9.33838V4.5C16.9998 3.57174 16.6311 2.6815 15.9747 2.02513C15.3183 1.36875 14.4281 1 13.4998 1C12.5716 1 11.6813 1.36875 11.0249 2.02513C10.3686 2.6815 9.99981 3.57174 9.99981 4.5V15.9263L9.12494 14.4108C8.66271 13.6102 7.90248 13.0249 7.01025 12.7829C6.11801 12.5408 5.16624 12.6616 4.36274 13.1188C3.55924 13.576 2.96927 14.3326 2.72165 15.2233C2.47402 16.114 2.58886 17.0665 3.04108 17.8729C7.0971 26.4249 9.79901 30 15.9998 30C18.9162 29.9967 21.7122 28.8367 23.7743 26.7745C25.8365 24.7123 26.9965 21.9164 26.9998 19V14C26.9988 13.0721 26.6297 12.1824 25.9735 11.5263C25.3174 10.8701 24.4278 10.501 23.4998 10.5V10.5ZM24.9998 19C24.9971 21.3861 24.0481 23.6737 22.3608 25.361C20.6736 27.0482 18.3859 27.9973 15.9998 28C13.4775 28 11.7215 27.3182 10.128 25.7202C8.56561 24.1535 7.03143 21.622 4.83245 16.9825C4.82086 16.9581 4.80829 16.9342 4.79474 16.9108C4.59583 16.5662 4.54194 16.1568 4.64492 15.7725C4.74789 15.3883 4.9993 15.0606 5.34384 14.8617C5.68837 14.6628 6.09781 14.6089 6.48208 14.7119C6.86635 14.8149 7.19398 15.0663 7.39288 15.4108L10.1338 20.1583C10.2439 20.3489 10.4138 20.4979 10.6172 20.5821C10.8206 20.6664 11.046 20.6812 11.2587 20.6242C11.4713 20.5672 11.6592 20.4417 11.7932 20.267C11.9272 20.0924 11.9998 19.8784 11.9998 19.6583V4.5C11.9998 4.10218 12.1578 3.72064 12.4392 3.43934C12.7205 3.15804 13.102 3 13.4998 3C13.8976 3 14.2792 3.15804 14.5605 3.43934C14.8418 3.72064 14.9998 4.10218 14.9998 4.5V13C14.9998 13.2652 15.1052 13.5196 15.2927 13.7071C15.4802 13.8946 15.7346 14 15.9998 14C16.265 14 16.5194 13.8946 16.7069 13.7071C16.8945 13.5196 16.9998 13.2652 16.9998 13V12.5C16.9998 12.1022 17.1579 11.7206 17.4392 11.4393C17.7205 11.158 18.102 11 18.4998 11C18.8976 11 19.2792 11.158 19.5605 11.4393C19.8418 11.7206 19.9998 12.1022 19.9998 12.5V14C19.9998 14.2652 20.1052 14.5196 20.2927 14.7071C20.4802 14.8946 20.7346 15 20.9998 15C21.265 15 21.5194 14.8946 21.7069 14.7071C21.8945 14.5196 21.9998 14.2652 21.9998 14C21.9998 13.6022 22.1578 13.2206 22.4392 12.9393C22.7205 12.658 23.102 12.5 23.4998 12.5C23.8976 12.5 24.2792 12.658 24.5605 12.9393C24.8418 13.2206 24.9998 13.6022 24.9998 14V19Z" fill="black"/>
</svg>
