<svg viewBox="0 0 32 32" xmlns="http://www.w3.org/2000/svg">
<path d="M14.9719 26.8503C14.9402 26.9777 14.8837 27.0977 14.8056 27.2033C14.7274 27.3089 14.6292 27.3981 14.5166 27.4657C14.4039 27.5332 14.2791 27.5779 14.1491 27.5972C14.0192 27.6164 13.8867 27.6098 13.7593 27.5778L9.99183 26.636C9.68618 26.5591 9.40285 26.4115 9.16468 26.2051L6.34584 23.7548C6.14567 23.5808 6.02281 23.3344 6.00429 23.0699C5.98577 22.8053 6.0731 22.5442 6.24709 22.344C6.42107 22.1439 6.66745 22.021 6.93202 22.0025C7.19659 21.984 7.45768 22.0713 7.65786 22.2453L10.4769 24.6957L14.2444 25.6376C14.3718 25.6695 14.4917 25.7261 14.5972 25.8043C14.7027 25.8824 14.7918 25.9806 14.8594 26.0932C14.9269 26.2058 14.9716 26.3307 14.991 26.4606C15.0103 26.5904 15.0038 26.7229 14.9719 26.8503V26.8503ZM31.5471 14.9445C31.4661 15.1975 31.3351 15.4318 31.1619 15.6333C30.9887 15.8348 30.7768 15.9994 30.5388 16.1175L27.6303 17.5718L25.762 19.7575C25.7554 19.7651 25.7483 19.7721 25.7416 19.7796C25.7354 19.7863 25.7293 19.793 25.723 19.7996C25.7183 19.8046 25.7139 19.8099 25.709 19.8148L21.1094 24.4146C20.7323 24.7893 20.2222 24.9996 19.6906 24.9995C19.5286 24.9996 19.3672 24.9797 19.21 24.9405L11.9653 23.1293C11.6934 23.0617 11.4389 22.9374 11.2184 22.7646L4.46486 17.4836L1.46486 15.9836C1.22732 15.8648 1.01582 15.6998 0.842698 15.4984C0.669577 15.297 0.538302 15.0631 0.456533 14.8105C0.374763 14.5578 0.344137 14.2913 0.366441 14.0267C0.388744 13.762 0.463531 13.5045 0.586438 13.269L3.66053 7.38188C3.90514 6.91894 4.32074 6.56972 4.8189 6.40852C5.31706 6.24733 5.85845 6.28689 6.32789 6.51878L9.12477 7.91721L15.2088 6.14354C15.667 6.0101 16.1579 6.0448 16.5929 6.24138L20.7175 8.10771H22.7659L25.6759 6.65276C26.1453 6.42069 26.6868 6.38105 27.185 6.54227C27.6831 6.70349 28.0987 7.05284 28.3432 7.51592L31.4172 13.4029C31.541 13.6381 31.6162 13.8957 31.6386 14.1605C31.6609 14.4253 31.6298 14.6919 31.5471 14.9445V14.9445ZM23.4672 19.2281L19.511 16.3509L18.5018 17.1077C17.6347 17.7529 16.5827 18.1013 15.5018 18.1013C14.421 18.1013 13.369 17.7529 12.5018 17.1077L11.8242 16.5995C11.595 16.4276 11.4054 16.2084 11.2683 15.9568C11.1311 15.7053 11.0496 15.4271 11.0293 15.1413C11.009 14.8555 11.0503 14.5687 11.1505 14.3002C11.2507 14.0318 11.4074 13.788 11.61 13.5854L16.5018 8.69352C16.5733 8.62312 16.6499 8.55813 16.731 8.49909L15.7686 8.06358L9.67811 9.83912L6.27363 16.359L12.4505 21.1891L19.6951 23.0003L23.4672 19.2281ZM25.8026 16.6319L22.3958 10.1077H20.5047L20.5012 10.108C20.4996 10.108 20.4981 10.1077 20.4966 10.1077H17.916L13.0243 14.9996L13.7018 15.5077C14.2221 15.8948 14.8533 16.1039 15.5018 16.1039C16.1504 16.1039 16.7816 15.8948 17.3019 15.5077L18.9019 14.3077C19.0729 14.1794 19.2806 14.1093 19.4945 14.1077C19.7083 14.1061 19.917 14.1732 20.09 14.299L24.8424 17.7553L25.8026 16.6319Z"/>
</svg>
