<svg   viewBox="0 0 32 32" fill="none" xmlns="http://www.w3.org/2000/svg">
<path d="M23.5 10.5C22.981 10.4995 22.4685 10.6151 22 10.8384V6.50001C22.0002 5.89338 21.8426 5.29712 21.5428 4.76975C21.243 4.24238 20.8112 3.80201 20.2899 3.49187C19.7685 3.18172 19.1755 3.01246 18.569 3.00067C17.9624 2.98889 17.3633 3.135 16.8303 3.42466C16.5741 2.63108 16.043 1.95505 15.3326 1.51833C14.6222 1.08161 13.7792 0.912901 12.9555 1.04259C12.1317 1.17228 11.3813 1.59185 10.8395 2.22572C10.2976 2.85959 9.99994 3.66611 10 4.50001V5.33839C9.4666 5.08504 8.87776 4.97081 8.28832 5.00635C7.69888 5.04189 7.12802 5.22603 6.62892 5.54162C6.12982 5.85721 5.71872 6.29399 5.4339 6.81127C5.14908 7.32855 4.99981 7.9095 5 8.50001V19C5 21.9174 6.15893 24.7153 8.22183 26.7782C10.2847 28.8411 13.0826 30 16 30C18.9174 30 21.7153 28.8411 23.7782 26.7782C25.8411 24.7153 27 21.9174 27 19V14C26.999 13.0721 26.6299 12.1824 25.9737 11.5263C25.3176 10.8701 24.4279 10.5011 23.5 10.5V10.5ZM25 19C25 21.387 24.0518 23.6761 22.364 25.364C20.6761 27.0518 18.3869 28 16 28C13.6131 28 11.3239 27.0518 9.63604 25.364C7.94821 23.6761 7 21.387 7 19V8.50001C7 8.10219 7.15804 7.72065 7.43934 7.43935C7.72064 7.15805 8.10218 7.00001 8.5 7.00001C8.89782 7.00001 9.27936 7.15805 9.56066 7.43935C9.84196 7.72065 10 8.10219 10 8.50001V14C10 14.2652 10.1054 14.5196 10.2929 14.7071C10.4804 14.8947 10.7348 15 11 15C11.2652 15 11.5196 14.8947 11.7071 14.7071C11.8946 14.5196 12 14.2652 12 14V4.50001C12 4.10219 12.158 3.72065 12.4393 3.43935C12.7206 3.15805 13.1022 3.00001 13.5 3.00001C13.8978 3.00001 14.2794 3.15805 14.5607 3.43935C14.842 3.72065 15 4.10219 15 4.50001V13C15 13.2652 15.1054 13.5196 15.2929 13.7071C15.4804 13.8947 15.7348 14 16 14C16.2652 14 16.5196 13.8947 16.7071 13.7071C16.8946 13.5196 17 13.2652 17 13V6.50001C17 6.10219 17.158 5.72065 17.4393 5.43935C17.7206 5.15805 18.1022 5.00001 18.5 5.00001C18.8978 5.00001 19.2794 5.15805 19.5607 5.43935C19.842 5.72065 20 6.10219 20 6.50001V15.5833C18.6027 15.8215 17.3345 16.5459 16.4195 17.6286C15.5046 18.7113 15.0018 20.0825 15 21.5C15 21.7652 15.1054 22.0196 15.2929 22.2071C15.4804 22.3947 15.7348 22.5 16 22.5C16.2652 22.5 16.5196 22.3947 16.7071 22.2071C16.8946 22.0196 17 21.7652 17 21.5C17.0012 20.4395 17.423 19.4228 18.1729 18.6729C18.9228 17.923 19.9395 17.5012 21 17.5C21.2652 17.5 21.5196 17.3946 21.7071 17.2071C21.8946 17.0196 22 16.7652 22 16.5V14C22 13.6022 22.158 13.2207 22.4393 12.9394C22.7206 12.658 23.1022 12.5 23.5 12.5C23.8978 12.5 24.2794 12.658 24.5607 12.9394C24.842 13.2207 25 13.6022 25 14V19Z" fill="black"/>
</svg>
