<svg viewBox="0 0 32 32" xmlns="http://www.w3.org/2000/svg">
<path d="M23.4998 5.00001C22.9808 4.9995 22.4683 5.11512 21.9998 5.33839V4.50001C21.9999 3.66611 21.7022 2.85959 21.1603 2.22572C20.6185 1.59185 19.8681 1.17228 19.0444 1.04259C18.2206 0.912901 17.3776 1.08161 16.6672 1.51833C15.9568 1.95505 15.4257 2.63108 15.1696 3.42466C14.6365 3.135 14.0374 2.98889 13.4309 3.00067C12.8243 3.01246 12.2313 3.18172 11.7099 3.49187C11.1886 3.80201 10.7568 4.24238 10.457 4.76975C10.1572 5.29712 9.99964 5.89338 9.99981 6.50001V15.9263L9.12494 14.4108C8.66271 13.6102 7.90248 13.025 7.01025 12.7829C6.11801 12.5408 5.16624 12.6616 4.36274 13.1188C3.55924 13.5761 2.96927 14.3326 2.72165 15.2233C2.47402 16.114 2.58886 17.0665 3.04108 17.8729C7.0971 26.4249 9.79901 30 15.9998 30C18.9162 29.9967 21.7122 28.8367 23.7743 26.7745C25.8365 24.7124 26.9965 21.9164 26.9998 19V8.50001C26.9988 7.57207 26.6297 6.68244 25.9735 6.02629C25.3174 5.37013 24.4278 5.00105 23.4998 5.00001V5.00001ZM24.9998 19C24.9971 21.3861 24.0481 23.6738 22.3608 25.361C20.6736 27.0482 18.3859 27.9973 15.9998 28C13.4775 28 11.7215 27.3182 10.128 25.7202C8.56561 24.1535 7.03143 21.622 4.83245 16.9826C4.82086 16.9581 4.80829 16.9342 4.79474 16.9108C4.59583 16.5662 4.54194 16.1568 4.64492 15.7725C4.74789 15.3883 4.9993 15.0606 5.34384 14.8617C5.68837 14.6628 6.09781 14.6089 6.48208 14.7119C6.86635 14.8149 7.19398 15.0663 7.39288 15.4108L10.1338 20.1583C10.2439 20.3489 10.4138 20.4979 10.6172 20.5822C10.8206 20.6664 11.046 20.6812 11.2587 20.6242C11.4713 20.5672 11.6592 20.4417 11.7932 20.267C11.9272 20.0924 11.9998 19.8784 11.9998 19.6583V6.50001C11.9998 6.10219 12.1578 5.72065 12.4392 5.43935C12.7205 5.15805 13.102 5.00001 13.4998 5.00001C13.8976 5.00001 14.2792 5.15805 14.5605 5.43935C14.8418 5.72065 14.9998 6.10219 14.9998 6.50001V15C14.9998 15.2652 15.1052 15.5196 15.2927 15.7071C15.4802 15.8947 15.7346 16 15.9998 16C16.265 16 16.5194 15.8947 16.7069 15.7071C16.8945 15.5196 16.9998 15.2652 16.9998 15V4.50001C16.9998 4.10219 17.1579 3.72065 17.4392 3.43935C17.7205 3.15805 18.102 3.00001 18.4998 3.00001C18.8976 3.00001 19.2792 3.15805 19.5605 3.43935C19.8418 3.72065 19.9998 4.10219 19.9998 4.50001V15C19.9998 15.2652 20.1052 15.5196 20.2927 15.7071C20.4802 15.8947 20.7346 16 20.9998 16C21.265 16 21.5194 15.8947 21.7069 15.7071C21.8945 15.5196 21.9998 15.2652 21.9998 15V8.50001C21.9998 8.10219 22.1578 7.72065 22.4392 7.43935C22.7205 7.15805 23.102 7.00001 23.4998 7.00001C23.8976 7.00001 24.2792 7.15805 24.5605 7.43935C24.8418 7.72065 24.9998 8.10219 24.9998 8.50001V19Z"/>
</svg>
