<svg   viewBox="0 0 32 32" fill="none" xmlns="http://www.w3.org/2000/svg">
<path d="M27.5218 12.9985L25.0219 8.66846C24.7263 8.15753 24.3064 7.72958 23.8011 7.42435C23.2958 7.11911 22.7217 6.9465 22.1319 6.92253C21.542 6.89855 20.9557 7.024 20.4274 7.28722C19.899 7.55044 19.4457 7.9429 19.1096 8.42815L16.9417 4.67315C16.6386 4.1478 16.2041 3.71027 15.6809 3.40347C15.1577 3.09668 14.5637 2.93115 13.9572 2.92314C13.3508 2.91513 12.7526 3.06491 12.2215 3.35778C11.6903 3.65065 11.2445 4.07656 10.9276 4.59372C10.3088 4.03465 9.51068 3.71487 8.67704 3.69198C7.8434 3.66909 7.02898 3.94458 6.38042 4.46885C5.73187 4.99312 5.29181 5.73171 5.13947 6.55164C4.98714 7.37156 5.13254 8.21893 5.5495 8.94116L5.96869 9.66726C5.38008 9.71455 4.81301 9.91004 4.3203 10.2355C3.8276 10.561 3.42528 11.0059 3.15084 11.5288C2.8764 12.0516 2.73875 12.6354 2.75072 13.2258C2.76269 13.8162 2.92389 14.394 3.2193 14.9053L8.4693 23.9985C9.19157 25.2495 10.1532 26.346 11.2992 27.2254C12.4452 28.1048 13.7532 28.7498 15.1486 29.1237C16.5439 29.4976 17.9992 29.5929 19.4313 29.4044C20.8635 29.2158 22.2445 28.7471 23.4955 28.0248C24.7466 27.3025 25.843 26.3409 26.7224 25.1949C27.6018 24.0489 28.2468 22.7408 28.6207 21.3455C28.9946 19.9502 29.09 18.4949 28.9014 17.0627C28.7129 15.6306 28.2441 14.2495 27.5218 12.9985V12.9985ZM26.6889 20.8279C26.2282 22.5473 25.268 24.0915 23.9297 25.2651C22.5914 26.4388 20.9351 27.1892 19.1703 27.4215C17.4055 27.6539 15.6114 27.3577 14.015 26.5704C12.4185 25.7831 11.0914 24.5401 10.2014 22.9985L4.95136 13.9053C4.7528 13.5608 4.69916 13.1516 4.80221 12.7676C4.90526 12.3835 5.15657 12.0561 5.50092 11.8573C5.84526 11.6585 6.25446 11.6045 6.63858 11.7073C7.02269 11.81 7.3503 12.0611 7.54938 12.4053L10.2994 17.1685C10.3204 17.2043 10.3436 17.2388 10.3688 17.2717C10.3754 17.2805 10.3824 17.2888 10.3892 17.2972C10.4089 17.3216 10.4296 17.3449 10.4512 17.367C10.4585 17.3745 10.4657 17.3822 10.4732 17.3895C10.5018 17.4173 10.532 17.4433 10.5637 17.4674L10.5659 17.4689C10.5967 17.4917 10.6288 17.5127 10.6619 17.5318C10.6713 17.5372 10.6808 17.5422 10.6903 17.5473C10.7167 17.5616 10.7438 17.5746 10.7714 17.5864C10.7806 17.5904 10.7896 17.5946 10.7989 17.5982C10.8352 17.6127 10.8723 17.6251 10.91 17.6352C10.9124 17.6359 10.9149 17.6362 10.9174 17.6368C10.9526 17.6457 10.9882 17.6527 11.0242 17.6577C11.0349 17.6592 11.0455 17.6603 11.0563 17.6615C11.0863 17.6649 11.1165 17.6668 11.1468 17.6674C11.1534 17.6675 11.1599 17.6686 11.1664 17.6686C11.1696 17.6686 11.1729 17.6681 11.176 17.668C11.2149 17.6678 11.2537 17.6653 11.2923 17.6606C11.2954 17.6602 11.2985 17.6594 11.3016 17.6589C11.337 17.654 11.3721 17.6471 11.4068 17.6384C11.418 17.6356 11.4291 17.6322 11.4403 17.629C11.4683 17.621 11.4961 17.6116 11.5237 17.601C11.5346 17.5968 11.5454 17.5929 11.5562 17.5883C11.687 17.5336 11.8046 17.4515 11.9011 17.3477C11.9976 17.2439 12.0709 17.1206 12.1159 16.9861C12.1609 16.8517 12.1766 16.7092 12.162 16.5682C12.1475 16.4272 12.103 16.2909 12.0314 16.1685L9.28144 11.4052L9.28107 11.4046L7.28144 7.9411C7.08293 7.59659 7.02933 7.18735 7.13241 6.80334C7.23549 6.41932 7.48682 6.09194 7.83117 5.89315C8.17551 5.69435 8.5847 5.64041 8.96881 5.74317C9.35291 5.84592 9.6805 6.09698 9.87958 6.44116L10.8775 8.16969L10.8795 8.17322L14.1295 13.8024C14.1951 13.9162 14.2825 14.0158 14.3867 14.0958C14.4909 14.1757 14.6098 14.2344 14.7367 14.2684C14.8635 14.3023 14.9958 14.311 15.126 14.2939C15.2562 14.2767 15.3818 14.2341 15.4955 14.1685C15.6092 14.1028 15.7089 14.0154 15.7888 13.9112C15.8688 13.807 15.9274 13.6881 15.9614 13.5612C15.9954 13.4344 16.0041 13.3021 15.9869 13.1719C15.9698 13.0417 15.9272 12.9162 15.8615 12.8024L12.6116 7.17322C12.5131 7.00262 12.4492 6.8143 12.4235 6.61899C12.3978 6.42369 12.4108 6.22524 12.4618 6.03497C12.5128 5.84469 12.6007 5.66632 12.7207 5.51004C12.8406 5.35377 12.9901 5.22264 13.1607 5.12415C13.3313 5.02565 13.5196 4.96173 13.7149 4.93602C13.9102 4.91031 14.1087 4.92332 14.299 4.9743C14.4892 5.02529 14.6676 5.11325 14.8239 5.23317C14.9802 5.35309 15.1113 5.50262 15.2098 5.67322L18.9595 12.1679L18.9598 12.1685L19.7509 13.5389C18.6586 14.4431 17.9217 15.7048 17.6707 17.1004C17.4197 18.4961 17.6708 19.9355 18.3796 21.1636C18.4452 21.2773 18.5327 21.377 18.6368 21.457C18.741 21.5369 18.8599 21.5955 18.9868 21.6295C19.1136 21.6635 19.2459 21.6722 19.3761 21.655C19.5063 21.6379 19.6318 21.5953 19.7456 21.5296C19.8593 21.4639 19.9589 21.3765 20.0389 21.2723C20.1188 21.1682 20.1775 21.0492 20.2114 20.9224C20.2454 20.7956 20.2541 20.6633 20.2369 20.5331C20.2198 20.4029 20.1772 20.2773 20.1115 20.1636C19.5811 19.2449 19.4374 18.153 19.712 17.1283C19.9866 16.1036 20.657 15.2299 21.5758 14.6995C21.6046 14.6829 21.6325 14.6648 21.6595 14.6454C21.682 14.6292 21.7032 14.6118 21.7239 14.5941C21.7279 14.5907 21.7322 14.5878 21.7362 14.5844C21.76 14.5634 21.7825 14.5414 21.804 14.5185L21.806 14.5165C21.8276 14.4935 21.848 14.4695 21.867 14.4447L21.8692 14.4421C21.8873 14.4185 21.9039 14.3941 21.9197 14.3691C21.9214 14.3665 21.9233 14.3641 21.9249 14.3614C21.9392 14.3386 21.9519 14.315 21.9641 14.2912C21.9669 14.2858 21.97 14.2808 21.9727 14.2755C21.9837 14.2532 21.9931 14.2302 22.0024 14.2072C22.0053 14.1998 22.0089 14.1928 22.0117 14.1854C22.0218 14.1585 22.0303 14.1311 22.0381 14.1035C22.0391 14.0997 22.0407 14.0961 22.0417 14.0923C22.0427 14.0886 22.0432 14.0849 22.0441 14.0811C22.0512 14.0533 22.0576 14.0252 22.0623 13.9969C22.0637 13.9881 22.0642 13.9794 22.0654 13.9706C22.0687 13.947 22.0719 13.9233 22.0735 13.8995C22.074 13.8922 22.0737 13.8849 22.074 13.8777C22.0751 13.8522 22.076 13.8268 22.0752 13.8013C22.075 13.7964 22.0743 13.7916 22.0741 13.7868C22.0728 13.7591 22.0709 13.7313 22.0673 13.7036C22.0668 13.7005 22.066 13.6974 22.0656 13.6943C22.0615 13.6653 22.0565 13.6363 22.0499 13.6076C22.049 13.6041 22.0478 13.6007 22.047 13.5972C22.0402 13.5693 22.0325 13.5414 22.0232 13.5138C22.0204 13.5056 22.0168 13.4978 22.0138 13.4897C22.0055 13.4672 21.9973 13.4446 21.9873 13.4225C21.9736 13.3921 21.9584 13.3624 21.9417 13.3335L20.6917 11.1684C20.4932 10.8239 20.4396 10.4146 20.5427 10.0306C20.6458 9.64661 20.8971 9.31923 21.2414 9.12043C21.5858 8.92164 21.995 8.86769 22.3791 8.97045C22.7632 9.07321 23.0908 9.32427 23.2899 9.66845L25.7899 13.9985C26.3838 15.0209 26.7691 16.1509 26.9234 17.3232C27.0777 18.4955 26.998 19.6867 26.6889 20.8279V20.8279ZM10.9549 30.5702C10.8801 30.6781 10.7847 30.7703 10.6743 30.8413C10.5639 30.9124 10.4405 30.961 10.3113 30.9844C10.1821 31.0078 10.0495 31.0055 9.92115 30.9777C9.79281 30.9498 9.67121 30.897 9.5633 30.8221C7.74547 29.5639 6.2311 27.9162 5.13044 25.9988C4.99783 25.7692 4.96189 25.4962 5.03052 25.2401C5.09915 24.9839 5.26674 24.7655 5.49641 24.6329C5.72607 24.5003 5.99902 24.4643 6.25518 24.533C6.51135 24.6016 6.72976 24.7692 6.86237 24.9988C7.81595 26.6603 9.12797 28.0882 10.7029 29.1786C10.9209 29.3297 11.0699 29.5612 11.1171 29.8222C11.1644 30.0832 11.106 30.3522 10.9549 30.5702V30.5702ZM20.9964 3.87408C20.9966 3.60903 21.1021 3.35491 21.2896 3.16757C21.4771 2.98024 21.7313 2.875 21.9964 2.875H21.9974C23.3131 2.87805 24.605 3.22597 25.7444 3.88405C26.8837 4.54213 27.8306 5.48738 28.4907 6.62555C28.5564 6.73929 28.5991 6.86487 28.6163 6.99511C28.6335 7.12535 28.6249 7.25771 28.5909 7.38462C28.5569 7.51152 28.4983 7.63049 28.4183 7.73472C28.3383 7.83896 28.2386 7.92641 28.1248 7.9921C28.0111 8.05778 27.8855 8.1004 27.7552 8.11753C27.625 8.13465 27.4926 8.12595 27.3657 8.09191C27.2388 8.05787 27.1199 7.99916 27.0157 7.91914C26.9115 7.83912 26.8241 7.73936 26.7585 7.62555C26.2743 6.79074 25.5796 6.09746 24.7439 5.61484C23.9082 5.13223 22.9605 4.87713 21.9954 4.875C21.7302 4.87474 21.476 4.76914 21.2886 4.58144C21.1013 4.39373 20.9962 4.13929 20.9964 3.87408Z" fill="black"/>
</svg>
