<svg   viewBox="0 0 32 32" fill="none" xmlns="http://www.w3.org/2000/svg">
<path d="M23.5 10C22.9166 9.9993 22.3424 10.1453 21.8303 10.4246C21.6455 9.85109 21.3157 9.33501 20.8727 8.92646C20.4298 8.5179 19.8888 8.23074 19.3022 8.09282C18.7157 7.95491 18.1034 7.97091 17.5248 8.13929C16.9462 8.30766 16.421 8.6227 16 9.05383C15.5141 8.55627 14.8908 8.21488 14.2099 8.07327C13.5289 7.93166 12.8213 7.99627 12.1772 8.25883C11.5332 8.5214 10.9821 8.97001 10.5943 9.54734C10.2064 10.1247 9.99955 10.8045 10 11.5V13.5H8.5C7.57206 13.501 6.68243 13.8701 6.02628 14.5263C5.37012 15.1824 5.00104 16.0721 5 17V19C5 21.9174 6.15893 24.7153 8.22183 26.7782C10.2847 28.8411 13.0826 30 16 30C18.9174 30 21.7153 28.8411 23.7782 26.7782C25.8411 24.7153 27 21.9174 27 19V13.5C26.999 12.5721 26.6299 11.6824 25.9737 11.0263C25.3176 10.3701 24.4279 10.001 23.5 10V10ZM25 19C25 21.387 24.0518 23.6761 22.364 25.364C20.6761 27.0518 18.3869 28 16 28C13.6131 28 11.3239 27.0518 9.63604 25.364C7.94821 23.6761 7 21.387 7 19V17C7.00044 16.6023 7.15862 16.221 7.43983 15.9398C7.72104 15.6586 8.10231 15.5004 8.5 15.5H10V18.5C10 18.7652 10.1054 19.0196 10.2929 19.2071C10.4804 19.3946 10.7348 19.5 11 19.5C11.2652 19.5 11.5196 19.3946 11.7071 19.2071C11.8946 19.0196 12 18.7652 12 18.5V11.5C12 11.1022 12.158 10.7206 12.4393 10.4393C12.7206 10.158 13.1022 10 13.5 10C13.8978 10 14.2794 10.158 14.5607 10.4393C14.842 10.7206 15 11.1022 15 11.5V15.5C15 15.7652 15.1054 16.0196 15.2929 16.2071C15.4804 16.3946 15.7348 16.5 16 16.5C16.2652 16.5 16.5196 16.3946 16.7071 16.2071C16.8946 16.0196 17 15.7652 17 15.5V11.5C17 11.1022 17.158 10.7206 17.4393 10.4393C17.7206 10.158 18.1022 10 18.5 10C18.8978 10 19.2794 10.158 19.5607 10.4393C19.842 10.7206 20 11.1022 20 11.5V15.5C20 15.7652 20.1054 16.0196 20.2929 16.2071C20.4804 16.3946 20.7348 16.5 21 16.5C21.2652 16.5 21.5196 16.3946 21.7071 16.2071C21.8946 16.0196 22 15.7652 22 15.5V13.5C22 13.1022 22.158 12.7206 22.4393 12.4393C22.7206 12.158 23.1022 12 23.5 12C23.8978 12 24.2794 12.158 24.5607 12.4393C24.842 12.7206 25 13.1022 25 13.5V19Z" fill="black"/>
</svg>
