<svg   viewBox="0 0 32 32" fill="none" xmlns="http://www.w3.org/2000/svg">
<path d="M23.778 8.71085C23.515 8.25439 23.1364 7.87529 22.6803 7.61177C22.2242 7.34824 21.7066 7.20958 21.1799 7.20978C20.6531 7.20997 20.1357 7.349 19.6797 7.61286C19.2238 7.87672 18.8455 8.25609 18.5829 8.71274L16.6309 5.3317C16.3654 4.87053 15.9818 4.48839 15.5197 4.22455C15.0576 3.96071 14.5336 3.8247 14.0015 3.83048C13.4694 3.83627 12.9484 3.98365 12.4921 4.25747C12.0359 4.5313 11.6607 4.92169 11.4053 5.38852C10.962 4.87558 10.3579 4.52795 9.69165 4.40228C9.02539 4.27661 8.33622 4.38031 7.73645 4.69649C7.13668 5.01267 6.66169 5.52267 6.38889 6.14337C6.1161 6.76408 6.06159 7.45888 6.23425 8.11453C5.74991 8.18549 5.29031 8.37396 4.89561 8.66349C4.5009 8.95301 4.18309 9.33478 3.96994 9.77545C3.75679 10.2161 3.65478 10.7023 3.67283 11.1914C3.69088 11.6806 3.82844 12.1579 4.07348 12.5817L4.52533 13.3644C3.99857 13.3636 3.48091 13.5017 3.0245 13.7646C2.56808 14.0276 2.18902 14.4062 1.9255 14.8623C1.66198 15.3184 1.5233 15.8359 1.52344 16.3627C1.52357 16.8894 1.66251 17.4069 1.92627 17.8628L6.55127 25.8736C7.47776 27.4787 8.84259 28.7865 10.4858 29.6436C12.129 30.5008 13.9825 30.8718 15.829 30.7132C17.6756 30.5546 19.4386 29.8729 20.9116 28.7481C22.3845 27.6232 23.5063 26.1018 24.1455 24.3622C25.7365 22.8518 26.7744 20.8511 27.093 18.6806C27.4117 16.5101 26.9926 14.2955 25.903 12.3915L23.778 8.71085ZM19.1201 28.1432C17.2246 29.2347 14.9736 29.5297 12.8609 28.9636C10.7481 28.3975 8.94618 27.0165 7.85034 25.1236L3.22534 17.1128C3.02643 16.7683 2.97253 16.3588 3.0755 15.9746C3.17847 15.5903 3.42988 15.2627 3.77441 15.0638C4.11895 14.8648 4.52839 14.8109 4.91267 14.9139C5.29694 15.0169 5.62457 15.2683 5.82349 15.6128L5.82361 15.613L8.82349 20.809C8.8727 20.8943 8.93825 20.9692 9.0164 21.0292C9.09454 21.0892 9.18374 21.1332 9.2789 21.1587C9.37406 21.1843 9.47332 21.1908 9.57101 21.178C9.6687 21.1651 9.76289 21.1331 9.84822 21.0839C9.93355 21.0346 10.0083 20.969 10.0683 20.8908C10.1283 20.8127 10.1723 20.7234 10.1977 20.6283C10.2232 20.5331 10.2297 20.4338 10.2168 20.3362C10.2039 20.2385 10.1719 20.1443 10.1226 20.059L5.37256 11.8317C5.27407 11.6611 5.21014 11.4728 5.18443 11.2775C5.15871 11.0822 5.17172 10.8838 5.2227 10.6935C5.27368 10.5032 5.36164 10.3249 5.48155 10.1686C5.60146 10.0123 5.75098 9.88118 5.92157 9.78269C6.09216 9.68419 6.28048 9.62027 6.47577 9.59455C6.67106 9.56884 6.86951 9.58185 7.05978 9.63283C7.25005 9.68381 7.42841 9.77177 7.58469 9.89168C7.74096 10.0116 7.87209 10.1611 7.97058 10.3317L12.7206 18.559C12.8201 18.7311 12.9839 18.8567 13.176 18.9082C13.3681 18.9596 13.5727 18.9326 13.7449 18.8332C13.9171 18.7338 14.0428 18.57 14.0943 18.378C14.1458 18.1859 14.119 17.9813 14.0197 17.809L10.2697 11.3138V11.3138C10.0707 10.9692 10.0168 10.5598 10.1198 10.1755C10.2228 9.79128 10.4741 9.46366 10.8187 9.26474C11.1632 9.06583 11.5726 9.01192 11.9569 9.11488C12.3411 9.21784 12.6688 9.46923 12.8677 9.81375L18.1177 18.907C18.2172 19.0792 18.381 19.2048 18.5731 19.2562C18.7652 19.3076 18.9698 19.2806 19.142 19.1812C19.3142 19.0818 19.4399 18.918 19.4914 18.726C19.5429 18.5339 19.5161 18.3293 19.4167 18.157L17.4168 14.693L17.4167 14.6929C17.2178 14.3484 17.1639 13.939 17.2669 13.5547C17.3698 13.1704 17.6212 12.8428 17.9658 12.6439C18.3103 12.445 18.7197 12.3911 19.104 12.494C19.4882 12.597 19.8159 12.8484 20.0148 13.1929L22.1398 16.8736C22.6815 17.8118 23.0331 18.8476 23.1745 19.9217C23.3159 20.9958 23.2444 22.0873 22.964 23.1338C22.6836 24.1803 22.1998 25.1613 21.5403 26.0208C20.8807 26.8803 20.0584 27.6015 19.1201 28.1432L19.1201 28.1432ZM20.8602 3.14664L21.3779 1.21488C21.4296 1.02291 21.5553 0.859296 21.7275 0.759981C21.8997 0.660667 22.1043 0.633776 22.2963 0.685218C22.4883 0.73666 22.6521 0.862227 22.7516 1.03433C22.8511 1.20643 22.8781 1.41099 22.8269 1.60306L22.3092 3.53482C22.2576 3.72679 22.1318 3.8904 21.9596 3.98972C21.7874 4.08903 21.5828 4.11592 21.3908 4.06448C21.1988 4.01304 21.0351 3.88747 20.9356 3.71537C20.8361 3.54327 20.809 3.33871 20.8602 3.14664V3.14664ZM24.1179 4.37833L25.2651 2.74002C25.3792 2.57708 25.5534 2.46613 25.7493 2.43159C25.9452 2.39704 26.1467 2.44173 26.3097 2.55582C26.4726 2.66991 26.5836 2.84405 26.6181 3.03995C26.6527 3.23584 26.608 3.43743 26.4939 3.60037L25.3467 5.23868C25.2326 5.40162 25.0584 5.51257 24.8626 5.54712C24.6667 5.58166 24.4651 5.53697 24.3021 5.42288C24.1392 5.3088 24.0282 5.13465 23.9937 4.93876C23.9591 4.74287 24.0038 4.54127 24.1179 4.37833V4.37833ZM29.2566 6.73148L27.6183 7.87869C27.5376 7.93519 27.4466 7.97523 27.3504 7.99655C27.2543 8.01786 27.1548 8.02003 27.0579 8.00293C26.9609 7.98582 26.8682 7.94978 26.7851 7.89686C26.702 7.84394 26.6302 7.77517 26.5737 7.69449C26.5172 7.61381 26.4772 7.52279 26.4559 7.42663C26.4346 7.33047 26.4324 7.23106 26.4495 7.13406C26.4666 7.03707 26.5026 6.94439 26.5556 6.86132C26.6085 6.77826 26.6772 6.70643 26.7579 6.64993L28.3962 5.50272C28.5592 5.38863 28.7608 5.34394 28.9567 5.37848C29.1526 5.41303 29.3267 5.52398 29.4408 5.68692C29.5549 5.84986 29.5996 6.05146 29.565 6.24735C29.5305 6.44324 29.4195 6.61739 29.2566 6.73148L29.2566 6.73148Z" fill="black"/>
</svg>
