<svg   viewBox="0 0 32 32" fill="none" xmlns="http://www.w3.org/2000/svg">
<path d="M27 5H5C4.46975 5.00061 3.9614 5.21151 3.58646 5.58646C3.21151 5.9614 3.00061 6.46975 3 7V25C3.00061 25.5302 3.21151 26.0386 3.58646 26.4135C3.9614 26.7885 4.46975 26.9994 5 27H27C27.5302 26.9994 28.0386 26.7885 28.4135 26.4135C28.7885 26.0386 28.9994 25.5302 29 25V7C28.9994 6.46975 28.7885 5.9614 28.4135 5.58646C28.0386 5.21151 27.5302 5.00061 27 5ZM15.6358 21.9681C15.379 22.0342 15.1064 21.9955 14.878 21.8607C14.6497 21.7258 14.4842 21.5058 14.418 21.249C14.2513 20.6052 13.8755 20.035 13.3496 19.6279C12.8237 19.2208 12.1775 19 11.5125 19C10.8474 19 10.2012 19.2209 9.67535 19.628C9.14947 20.0351 8.7737 20.6054 8.60706 21.2492C8.57432 21.3764 8.51686 21.4959 8.43795 21.6008C8.35904 21.7058 8.26022 21.7942 8.14715 21.861C8.03407 21.9278 7.90895 21.9716 7.77893 21.9901C7.6489 22.0085 7.51652 22.0011 7.38934 21.9684C7.26217 21.9356 7.14268 21.8782 7.03771 21.7993C6.93274 21.7204 6.84434 21.6215 6.77756 21.5085C6.71078 21.3954 6.66692 21.2703 6.64849 21.1403C6.63007 21.0102 6.63743 20.8778 6.67017 20.7507C6.9743 19.5677 7.70198 18.5375 8.71519 17.8555C8.14705 17.2996 7.75739 16.5871 7.59594 15.8088C7.43449 15.0305 7.50857 14.2218 7.80873 13.4858C8.10889 12.7498 8.62152 12.1199 9.28121 11.6765C9.94089 11.2331 10.7177 10.9963 11.5126 10.9963C12.3074 10.9963 13.0842 11.2331 13.7439 11.6765C14.4036 12.1199 14.9162 12.7498 15.2164 13.4858C15.5166 14.2218 15.5906 15.0305 15.4292 15.8088C15.2677 16.5871 14.8781 17.2996 14.3099 17.8555C15.3231 18.5375 16.0507 19.5676 16.3549 20.7504C16.421 21.0072 16.3824 21.2798 16.2476 21.5082C16.1127 21.7366 15.8926 21.902 15.6358 21.9681V21.9681ZM24 19H19C18.7348 19 18.4804 18.8946 18.2929 18.7071C18.1054 18.5196 18 18.2652 18 18C18 17.7348 18.1054 17.4804 18.2929 17.2929C18.4804 17.1054 18.7348 17 19 17H24C24.2652 17 24.5196 17.1054 24.7071 17.2929C24.8946 17.4804 25 17.7348 25 18C25 18.2652 24.8946 18.5196 24.7071 18.7071C24.5196 18.8946 24.2652 19 24 19ZM24 15H19C18.7348 15 18.4804 14.8946 18.2929 14.7071C18.1054 14.5196 18 14.2652 18 14C18 13.7348 18.1054 13.4804 18.2929 13.2929C18.4804 13.1054 18.7348 13 19 13H24C24.2652 13 24.5196 13.1054 24.7071 13.2929C24.8946 13.4804 25 13.7348 25 14C25 14.2652 24.8946 14.5196 24.7071 14.7071C24.5196 14.8946 24.2652 15 24 15Z" fill="black"/>
<path d="M11.5156 17C12.6202 17 13.5156 16.1046 13.5156 15C13.5156 13.8954 12.6202 13 11.5156 13C10.4111 13 9.51562 13.8954 9.51562 15C9.51562 16.1046 10.4111 17 11.5156 17Z" fill="black"/>
</svg>
