<svg viewBox="0 0 32 32" xmlns="http://www.w3.org/2000/svg">
<path d="M11.986 6C11.986 5.20888 12.2206 4.43552 12.6601 3.77772C13.0997 3.11992 13.7244 2.60723 14.4553 2.30448C15.1862 2.00173 15.9905 1.92252 16.7664 2.07686C17.5423 2.2312 18.255 2.61216 18.8145 3.17157C19.3739 3.73098 19.7548 4.44372 19.9092 5.21964C20.0635 5.99556 19.9843 6.79983 19.6815 7.53074C19.3788 8.26164 18.8661 8.88635 18.2083 9.32588C17.5505 9.76541 16.7772 10 15.986 10C14.9255 9.9988 13.9088 9.57699 13.1589 8.8271C12.409 8.07722 11.9872 7.0605 11.986 6V6ZM28.5146 15.1425C28.3007 15.0142 23.1943 12 16.0001 12C8.80579 12 3.6994 15.0142 3.48554 15.1425C3.2581 15.2789 3.09419 15.5001 3.02986 15.7575C2.96553 16.0148 3.00606 16.2871 3.14252 16.5145C3.27898 16.742 3.5002 16.9059 3.75751 16.9702C4.01483 17.0345 4.28715 16.994 4.51459 16.8575C4.55975 16.8304 8.87915 14.2828 15.0001 14.023V18.6199L7.25263 27.3357C7.16539 27.4339 7.09834 27.5482 7.0553 27.6723C7.01227 27.7964 6.99409 27.9277 7.00181 28.0588C7.00953 28.1899 7.04299 28.3182 7.10029 28.4363C7.15759 28.5545 7.2376 28.6602 7.33576 28.7474C7.43391 28.8347 7.54829 28.9017 7.67236 28.9448C7.79642 28.9878 7.92775 29.006 8.05885 28.9983C8.18994 28.9905 8.31823 28.9571 8.43639 28.8998C8.55455 28.8425 8.66026 28.7625 8.7475 28.6643L16.0001 20.5053L23.2526 28.6643C23.4288 28.8625 23.6765 28.9827 23.9413 28.9983C24.0724 29.006 24.2037 28.9878 24.3278 28.9448C24.4518 28.9017 24.5662 28.8347 24.6644 28.7474C24.7625 28.6602 24.8425 28.5545 24.8998 28.4363C24.9571 28.3182 24.9906 28.1899 24.9983 28.0588C25.006 27.9277 24.9879 27.7964 24.9448 27.6723C24.9018 27.5482 24.8347 27.4339 24.7475 27.3357L17.0001 18.6199V14.0232C23.0962 14.284 27.4412 16.831 27.4855 16.8575C27.713 16.994 27.9853 17.0345 28.2426 16.9702C28.4999 16.9059 28.7211 16.742 28.8576 16.5145C28.9941 16.2871 29.0346 16.0148 28.9703 15.7575C28.9059 15.5001 28.742 15.2789 28.5146 15.1425V15.1425Z"/>
</svg>
