<svg viewBox="0 0 32 32" xmlns="http://www.w3.org/2000/svg">
<path d="M14.9995 6C14.9995 5.20888 15.2341 4.43552 15.6736 3.77772C16.1132 3.11992 16.7379 2.60723 17.4688 2.30448C18.1997 2.00173 19.0039 1.92252 19.7799 2.07686C20.5558 2.2312 21.2685 2.61216 21.8279 3.17157C22.3873 3.73098 22.7683 4.44372 22.9226 5.21964C23.077 5.99556 22.9978 6.79983 22.695 7.53074C22.3923 8.26164 21.8796 8.88635 21.2218 9.32588C20.564 9.76541 19.7906 10 18.9995 10C17.939 9.99879 16.9223 9.57697 16.1724 8.82709C15.4225 8.07721 15.0007 7.0605 14.9995 6V6ZM25.9995 17C22.4376 17 20.7931 15.2336 19.0522 13.3634C18.6113 12.8899 18.1554 12.4001 17.678 11.9592C13.0254 7.66248 5.60595 14.9794 5.29235 15.2928C5.10508 15.4804 4.99994 15.7346 5 15.9997C5.00006 16.2647 5.10533 16.5189 5.29269 16.7063C5.48004 16.8938 5.73414 16.9992 5.99918 16.9994C6.26421 16.9997 6.5185 16.8947 6.70616 16.7075C7.86265 15.5974 9.14458 14.6259 10.526 13.8126C12.3163 12.7933 13.8103 12.4269 14.9904 12.713L12.7786 17.8002L12.7755 17.8072L8.08239 28.6013C8.02991 28.7218 8.00169 28.8514 7.99933 28.9828C7.99697 29.1141 8.02052 29.2447 8.06863 29.3669C8.11675 29.4892 8.18849 29.6008 8.27975 29.6953C8.37101 29.7898 8.48001 29.8655 8.60051 29.9178C8.721 29.9702 8.85064 29.9983 8.98202 30.0006C9.11339 30.0029 9.24392 29.9792 9.36614 29.931C9.48837 29.8828 9.5999 29.811 9.69435 29.7196C9.7888 29.6283 9.86433 29.5192 9.91662 29.3987L14.1158 19.7405L17.9995 22.5147V29C17.9995 29.2652 18.1049 29.5196 18.2924 29.7071C18.4799 29.8946 18.7343 30 18.9995 30C19.2647 30 19.5191 29.8946 19.7066 29.7071C19.8941 29.5196 19.9995 29.2652 19.9995 29V22C19.9995 21.8408 19.9615 21.684 19.8887 21.5424C19.8158 21.4009 19.7103 21.2788 19.5807 21.1863L14.9311 17.8651L16.7006 13.7955C16.9928 14.0878 17.2847 14.4 17.5883 14.7262C19.3609 16.6303 21.5669 19 25.9995 19C26.2647 19 26.5191 18.8946 26.7066 18.7071C26.8941 18.5196 26.9995 18.2652 26.9995 18C26.9995 17.7348 26.8941 17.4804 26.7066 17.2929C26.5191 17.1054 26.2647 17 25.9995 17Z"/>
</svg>
