<svg   viewBox="0 0 32 32" fill="none" xmlns="http://www.w3.org/2000/svg">
<path d="M15 7C15 6.20888 15.2346 5.43552 15.6741 4.77772C16.1136 4.11992 16.7383 3.60723 17.4692 3.30448C18.2001 3.00173 19.0044 2.92252 19.7803 3.07686C20.5562 3.2312 21.269 3.61216 21.8284 4.17157C22.3878 4.73098 22.7688 5.44372 22.9231 6.21964C23.0774 6.99556 22.9982 7.79983 22.6955 8.53074C22.3927 9.26164 21.88 9.88635 21.2222 10.3259C20.5644 10.7654 19.7911 11 19 11C17.9395 10.9988 16.9228 10.577 16.1729 9.82709C15.423 9.07721 15.0012 8.0605 15 7V7ZM28 16.6939C28.0001 16.5218 27.9557 16.3526 27.8712 16.2026C27.7868 16.0527 27.665 15.9271 27.5177 15.8381C27.3704 15.749 27.2026 15.6995 27.0306 15.6943C26.8586 15.6892 26.6881 15.7285 26.5358 15.8085L26.5356 15.8082L26.5501 15.8008C26.5422 15.8046 25.739 16.1827 24.2717 16.0321C22.8761 15.8896 20.5885 15.2316 17.6161 12.9062C15.7419 11.4399 12.8229 9.82385 9.561 10.4517C7.58798 10.8313 6.44534 11.8449 6.3215 11.9592C6.12597 12.1384 6.00963 12.3879 5.99807 12.6529C5.99234 12.7841 6.01251 12.9151 6.05743 13.0385C6.10235 13.1619 6.17113 13.2753 6.25985 13.3721C6.34857 13.4689 6.45549 13.5473 6.57451 13.6028C6.69353 13.6583 6.82231 13.6898 6.95351 13.6955C7.21847 13.7071 7.47717 13.6129 7.67269 13.4337C7.80734 13.3132 10.9007 10.64 15.7491 14.0132C15.1533 16.0017 14.2304 17.877 13.0184 19.5622C13.0152 19.5666 13.0118 19.5708 13.0086 19.5754C12.9121 19.7072 12.8136 19.8384 12.7119 19.9683C10.3515 22.9822 7.45394 24.3397 4.09945 24.005C3.96879 23.9919 3.83683 24.0047 3.71111 24.0427C3.58539 24.0806 3.46837 24.1429 3.36674 24.2261C3.16149 24.394 3.03135 24.6366 3.00496 24.9005C2.97858 25.1644 3.0581 25.428 3.22604 25.6332C3.39399 25.8385 3.63659 25.9686 3.90048 25.995C4.30648 26.0357 4.7024 26.0557 5.08822 26.0552C9.16738 26.0552 12.1609 23.8738 14.2315 21.2687C16.6626 21.91 21 23.7862 21 29C21 29.2652 21.1053 29.5196 21.2929 29.7071C21.4804 29.8946 21.7347 30 22 30C22.2652 30 22.5195 29.8946 22.7071 29.7071C22.8946 29.5196 23 29.2652 23 29C23 25.9183 21.74 23.3309 19.3562 21.5176C18.1729 20.643 16.8503 19.9749 15.4442 19.5416C16.2748 18.2001 16.9493 16.7681 17.4548 15.2735C20.67 17.5162 23.2281 18.0611 24.9541 18.061C26.5067 18.0609 27.3863 17.6204 27.4643 17.5795L27.4641 17.5792C27.6257 17.4946 27.7611 17.3674 27.8556 17.2113C27.95 17.0552 28 16.8763 28 16.6939V16.6939Z" fill="black"/>
</svg>
