<svg viewBox="0 0 32 32" xmlns="http://www.w3.org/2000/svg">
<path d="M15.9844 10C18.4697 10 20.4844 7.98528 20.4844 5.5C20.4844 3.01472 18.4697 1 15.9844 1C13.4991 1 11.4844 3.01472 11.4844 5.5C11.4844 7.98528 13.4991 10 15.9844 10Z"/>
<path d="M26.4584 17.4392L21.5421 11.1183C21.5167 11.0856 21.4893 11.0545 21.46 11.0252C21.1357 10.6991 20.75 10.4407 20.3252 10.2647C19.9003 10.0887 19.4448 9.99876 18.985 10H12.985C12.5252 9.99876 12.0697 10.0887 11.6448 10.2647C11.22 10.4407 10.8343 10.6991 10.51 11.0252C10.4807 11.0545 10.4533 11.0856 10.4279 11.1183L5.51148 17.4393C5.0643 17.9123 4.81923 18.541 4.82837 19.1919C4.83751 19.8428 5.10013 20.4644 5.56041 20.9247C6.02069 21.3849 6.64233 21.6475 7.29319 21.6566C7.94404 21.6657 8.5728 21.4207 9.04578 20.9735L10.8082 19.6026L8.32923 27.4326C8.07169 28.0298 8.05705 28.7039 8.28841 29.3118C8.51977 29.9197 8.97892 30.4134 9.56839 30.6883C10.1579 30.9632 10.8313 30.9975 11.4456 30.784C12.06 30.5704 12.5669 30.1259 12.8589 29.5447L15.985 24.6248L19.1111 29.5447C19.403 30.1259 19.91 30.5705 20.5244 30.784C21.1387 30.9975 21.8121 30.9632 22.4016 30.6884C22.9911 30.4135 23.4503 29.9197 23.6816 29.3118C23.913 28.7039 23.8983 28.0298 23.6408 27.4326L21.1618 19.6026L22.9242 20.9735C23.3972 21.4207 24.026 21.6658 24.6768 21.6567C25.3277 21.6475 25.9494 21.3849 26.4096 20.9246C26.8699 20.4644 27.1325 19.8427 27.1416 19.1918C27.1507 18.541 26.9056 17.9122 26.4584 17.4392H26.4584Z"/>
</svg>
