<svg viewBox="0 0 32 32" xmlns="http://www.w3.org/2000/svg">
<path d="M16 3C13.4288 3 10.9154 3.76244 8.77759 5.1909C6.63975 6.61935 4.97351 8.64968 3.98957 11.0251C3.00563 13.4006 2.74819 16.0144 3.2498 18.5362C3.75141 21.0579 4.98953 23.3743 6.80762 25.1924C8.6257 27.0105 10.9421 28.2486 13.4638 28.7502C15.9856 29.2518 18.5995 28.9944 20.9749 28.0104C23.3503 27.0265 25.3807 25.3603 26.8091 23.2224C28.2376 21.0846 29 18.5712 29 16C28.9961 12.5534 27.6252 9.24905 25.1881 6.81192C22.751 4.37479 19.4466 3.0039 16 3V3ZM11.5 12C11.7967 12 12.0867 12.088 12.3334 12.2528C12.58 12.4176 12.7723 12.6519 12.8858 12.926C12.9994 13.2001 13.0291 13.5017 12.9712 13.7926C12.9133 14.0836 12.7704 14.3509 12.5607 14.5607C12.3509 14.7704 12.0836 14.9133 11.7926 14.9712C11.5017 15.0291 11.2001 14.9994 10.926 14.8858C10.6519 14.7723 10.4176 14.58 10.2528 14.3334C10.088 14.0867 10 13.7967 10 13.5C10 13.1022 10.158 12.7206 10.4393 12.4393C10.7206 12.158 11.1022 12 11.5 12ZM22.0631 19.5004C21.4485 20.5644 20.5646 21.448 19.5003 22.0623C18.4361 22.6766 17.2289 23 16 23C14.7712 23 13.564 22.6766 12.4997 22.0623C11.4354 21.448 10.5516 20.5645 9.9369 19.5004C9.80411 19.2708 9.76797 18.9979 9.83641 18.7417C9.90486 18.4854 10.0723 18.2669 10.3019 18.1341C10.5315 18.0013 10.8044 17.9652 11.0606 18.0336C11.3169 18.1021 11.5354 18.2695 11.6682 18.4991C12.1072 19.2595 12.7387 19.8909 13.4991 20.3299C14.2595 20.7689 15.1221 21 16.0001 21C16.8781 21 17.7407 20.7689 18.5011 20.3299C19.2615 19.8908 19.8929 19.2594 20.3319 18.499C20.3977 18.3854 20.4852 18.2857 20.5894 18.2059C20.6936 18.126 20.8126 18.0675 20.9395 18.0336C21.0663 17.9997 21.1986 17.9911 21.3288 18.0084C21.459 18.0256 21.5845 18.0683 21.6982 18.1341C21.8119 18.1998 21.9115 18.2873 21.9913 18.3916C22.0712 18.4958 22.1297 18.6148 22.1636 18.7417C22.1975 18.8685 22.2061 19.0008 22.1888 19.131C22.1716 19.2612 22.1289 19.3867 22.0631 19.5004ZM22.5 14.5H18.5C18.2348 14.5 17.9804 14.3946 17.7929 14.2071C17.6054 14.0196 17.5 13.7652 17.5 13.5C17.5 13.2348 17.6054 12.9804 17.7929 12.7929C17.9804 12.6054 18.2348 12.5 18.5 12.5H22.5C22.7652 12.5 23.0196 12.6054 23.2071 12.7929C23.3946 12.9804 23.5 13.2348 23.5 13.5C23.5 13.7652 23.3946 14.0196 23.2071 14.2071C23.0196 14.3946 22.7652 14.5 22.5 14.5Z"/>
</svg>
