<svg viewBox="0 0 32 32" xmlns="http://www.w3.org/2000/svg">
<path d="M16 3C13.4288 3 10.9154 3.76244 8.77759 5.1909C6.63975 6.61935 4.97351 8.64968 3.98957 11.0251C3.00563 13.4006 2.74819 16.0144 3.2498 18.5362C3.75141 21.0579 4.98953 23.3743 6.80762 25.1924C8.6257 27.0105 10.9421 28.2486 13.4638 28.7502C15.9856 29.2518 18.5995 28.9944 20.9749 28.0104C23.3503 27.0265 25.3807 25.3603 26.8091 23.2224C28.2376 21.0846 29 18.5712 29 16C28.996 12.5534 27.6251 9.24912 25.188 6.81201C22.7509 4.3749 19.4466 3.00398 16 3V3ZM11.5 15C11.2033 15 10.9133 14.912 10.6667 14.7472C10.42 14.5824 10.2277 14.3481 10.1142 14.074C10.0007 13.7999 9.97095 13.4983 10.0288 13.2074C10.0867 12.9164 10.2296 12.6491 10.4393 12.4393C10.6491 12.2296 10.9164 12.0867 11.2074 12.0288C11.4983 11.9709 11.7999 12.0006 12.074 12.1142C12.3481 12.2277 12.5824 12.42 12.7472 12.6666C12.912 12.9133 13 13.2033 13 13.5C13 13.8978 12.8419 14.2793 12.5606 14.5606C12.2793 14.8419 11.8978 15 11.5 15V15ZM20.5 15C20.2033 15 19.9133 14.912 19.6667 14.7472C19.42 14.5824 19.2277 14.3481 19.1142 14.074C19.0007 13.7999 18.9709 13.4983 19.0288 13.2074C19.0867 12.9164 19.2296 12.6491 19.4393 12.4393C19.6491 12.2296 19.9164 12.0867 20.2074 12.0288C20.4983 11.9709 20.7999 12.0006 21.074 12.1142C21.3481 12.2277 21.5824 12.42 21.7472 12.6666C21.912 12.9133 22 13.2033 22 13.5C22 13.8978 21.8419 14.2793 21.5606 14.5606C21.2793 14.8419 20.8978 15 20.5 15Z"/>
</svg>
