<svg   viewBox="0 0 32 32" fill="none" xmlns="http://www.w3.org/2000/svg">
<path d="M16 3C13.4288 3 10.9154 3.76244 8.77759 5.1909C6.63975 6.61935 4.97351 8.64968 3.98957 11.0251C3.00563 13.4006 2.74819 16.0144 3.2498 18.5362C3.75141 21.0579 4.98953 23.3743 6.80762 25.1924C8.6257 27.0105 10.9421 28.2486 13.4638 28.7502C15.9856 29.2518 18.5995 28.9944 20.9749 28.0104C23.3503 27.0265 25.3807 25.3603 26.8091 23.2224C28.2376 21.0846 29 18.5712 29 16C28.9961 12.5534 27.6252 9.24905 25.1881 6.81192C22.751 4.37479 19.4466 3.0039 16 3V3ZM20.5 12C20.7967 12 21.0867 12.088 21.3334 12.2528C21.58 12.4176 21.7723 12.6519 21.8858 12.926C21.9994 13.2001 22.0291 13.5017 21.9712 13.7926C21.9133 14.0836 21.7704 14.3509 21.5607 14.5607C21.3509 14.7704 21.0836 14.9133 20.7926 14.9712C20.5017 15.0291 20.2001 14.9994 19.926 14.8858C19.6519 14.7723 19.4176 14.58 19.2528 14.3334C19.088 14.0867 19 13.7967 19 13.5C19 13.1022 19.158 12.7206 19.4393 12.4393C19.7207 12.158 20.1022 12 20.5 12ZM11.5 12C11.7967 12 12.0867 12.088 12.3334 12.2528C12.58 12.4176 12.7723 12.6519 12.8858 12.926C12.9994 13.2001 13.0291 13.5017 12.9712 13.7926C12.9133 14.0836 12.7704 14.3509 12.5607 14.5607C12.3509 14.7704 12.0836 14.9133 11.7926 14.9712C11.5017 15.0291 11.2001 14.9994 10.926 14.8858C10.6519 14.7723 10.4176 14.58 10.2528 14.3334C10.088 14.0867 10 13.7967 10 13.5C10 13.1022 10.158 12.7206 10.4393 12.4393C10.7206 12.158 11.1022 12 11.5 12ZM22.6247 22.2809C22.4176 22.4466 22.1532 22.5232 21.8896 22.4939C21.626 22.4646 21.3848 22.3318 21.2191 22.1247L20 20.6008L18.7809 22.1247C18.6872 22.2418 18.5684 22.3363 18.4332 22.4013C18.298 22.4663 18.15 22.5 18 22.5C17.85 22.5 17.702 22.4663 17.5668 22.4013C17.4316 22.3363 17.3128 22.2418 17.2191 22.1247L16 20.6008L14.7809 22.1247C14.6872 22.2418 14.5684 22.3363 14.4332 22.4013C14.298 22.4663 14.15 22.5 14 22.5C13.85 22.5 13.702 22.4663 13.5668 22.4013C13.4316 22.3363 13.3128 22.2418 13.2191 22.1247L12 20.6008L10.7809 22.1247C10.6152 22.3318 10.374 22.4646 10.1104 22.4939C9.84685 22.5232 9.58241 22.4466 9.37531 22.2809C9.16821 22.1152 9.0354 21.874 9.00611 21.6104C8.97682 21.3468 9.05344 21.0824 9.21912 20.8753L11.2191 18.3753C11.3128 18.2582 11.4316 18.1637 11.5668 18.0987C11.702 18.0337 11.85 18 12 18C12.15 18 12.298 18.0337 12.4332 18.0987C12.5684 18.1637 12.6872 18.2582 12.7809 18.3753L14 19.8992L15.2191 18.3753C15.3128 18.2582 15.4316 18.1637 15.5668 18.0987C15.702 18.0337 15.85 18 16 18C16.15 18 16.298 18.0337 16.4332 18.0987C16.5684 18.1637 16.6872 18.2582 16.7809 18.3753L18 19.8992L19.2191 18.3753C19.3128 18.2582 19.4316 18.1637 19.5668 18.0987C19.702 18.0337 19.85 18 20 18C20.15 18 20.298 18.0337 20.4332 18.0987C20.5684 18.1637 20.6872 18.2582 20.7809 18.3753L22.7809 20.8753C22.9466 21.0824 23.0232 21.3468 22.9939 21.6104C22.9646 21.874 22.8318 22.1152 22.6247 22.2809Z" fill="black"/>
</svg>
