<svg viewBox="0 0 32 32" xmlns="http://www.w3.org/2000/svg">
<path d="M15.997 3C14.1274 3.00156 12.2802 3.40634 10.5813 4.18673C8.88243 4.96713 7.37186 6.10477 6.15263 7.52206C4.9334 8.93935 4.03421 10.6029 3.5164 12.3994C2.99859 14.1958 2.87433 16.0827 3.15211 17.9315C3.42989 19.7803 4.10316 21.5475 5.12601 23.1124C6.14886 24.6773 7.49721 26.0032 9.07909 26.9997C10.661 27.9961 12.4392 28.6396 14.2924 28.8863C16.1456 29.133 18.0302 28.9771 19.8177 28.4292C19.9738 28.3813 20.1158 28.2958 20.2312 28.1804L28.1775 20.2337C28.293 20.1182 28.3784 19.9762 28.4264 19.8201C29.0221 17.8757 29.1536 15.8186 28.8104 13.8141C28.4672 11.8096 27.6589 9.91347 26.4503 8.27791C25.2417 6.64234 23.6664 5.31291 21.851 4.39631C20.0356 3.47971 18.0306 3.00148 15.997 3V3ZM20.497 12C20.7937 12 21.0837 12.088 21.3303 12.2528C21.577 12.4176 21.7693 12.6519 21.8828 12.926C21.9963 13.2001 22.026 13.5017 21.9682 13.7926C21.9103 14.0836 21.7674 14.3509 21.5576 14.5607C21.3479 14.7704 21.0806 14.9133 20.7896 14.9712C20.4986 15.0291 20.197 14.9994 19.923 14.8858C19.6489 14.7723 19.4146 14.58 19.2498 14.3334C19.085 14.0867 18.997 13.7967 18.997 13.5C18.997 13.1022 19.155 12.7206 19.4363 12.4393C19.7176 12.158 20.0992 12 20.497 12ZM11.497 12C11.7936 12 12.0837 12.088 12.3303 12.2528C12.577 12.4176 12.7693 12.6519 12.8828 12.926C12.9963 13.2001 13.026 13.5017 12.9682 13.7926C12.9103 14.0836 12.7674 14.3509 12.5576 14.5607C12.3479 14.7704 12.0806 14.9133 11.7896 14.9712C11.4986 15.0291 11.197 14.9994 10.923 14.8858C10.6489 14.7723 10.4146 14.58 10.2498 14.3334C10.085 14.0867 9.99698 13.7967 9.99698 13.5C9.99698 13.1022 10.155 12.7206 10.4363 12.4393C10.7176 12.158 11.0992 12 11.497 12ZM22.0601 19.5003C21.4454 20.5644 20.5616 21.448 19.4973 22.0623C18.433 22.6766 17.2258 23 15.997 23C14.7682 23 13.561 22.6766 12.4967 22.0623C11.4324 21.448 10.5485 20.5645 9.93387 19.5004C9.80108 19.2708 9.76494 18.9979 9.83339 18.7416C9.90184 18.4854 10.0693 18.2668 10.2989 18.1341C10.5284 18.0013 10.8014 17.9651 11.0576 18.0336C11.3139 18.102 11.5324 18.2695 11.6652 18.4991C12.1042 19.2594 12.7357 19.8909 13.4961 20.3299C14.2565 20.7689 15.119 21 15.9971 21C16.8751 21 17.7376 20.7689 18.498 20.3299C19.2584 19.8908 19.8899 19.2594 20.3289 18.499C20.3946 18.3852 20.482 18.2855 20.5863 18.2055C20.6905 18.1255 20.8095 18.0669 20.9365 18.0329C21.0634 17.999 21.1958 17.9904 21.326 18.0076C21.4563 18.0248 21.5819 18.0675 21.6956 18.1333C21.8093 18.1991 21.909 18.2867 21.9889 18.391C22.0687 18.4953 22.1273 18.6143 22.1611 18.7413C22.195 18.8682 22.2035 19.0006 22.1861 19.1309C22.1688 19.2611 22.126 19.3867 22.0601 19.5003V19.5003Z"/>
</svg>
