<svg viewBox="0 0 32 32" xmlns="http://www.w3.org/2000/svg">
<path d="M16 3C13.4288 3 10.9154 3.76244 8.77759 5.1909C6.63975 6.61935 4.97351 8.64968 3.98957 11.0251C3.00563 13.4006 2.74819 16.0144 3.2498 18.5362C3.75141 21.0579 4.98953 23.3743 6.80762 25.1924C8.6257 27.0105 10.9421 28.2486 13.4638 28.7502C15.9856 29.2518 18.5995 28.9944 20.9749 28.0104C23.3503 27.0265 25.3807 25.3603 26.8091 23.2224C28.2376 21.0846 29 18.5712 29 16C28.996 12.5534 27.6251 9.24912 25.188 6.81201C22.7509 4.3749 19.4466 3.00398 16 3V3ZM11.5 12C11.7967 12 12.0867 12.088 12.3334 12.2528C12.58 12.4176 12.7723 12.6519 12.8858 12.926C12.9994 13.2001 13.0291 13.5017 12.9712 13.7926C12.9133 14.0836 12.7704 14.3509 12.5607 14.5607C12.3509 14.7704 12.0836 14.9133 11.7926 14.9712C11.5017 15.0291 11.2001 14.9994 10.926 14.8858C10.6519 14.7723 10.4176 14.58 10.2528 14.3334C10.088 14.0867 10 13.7967 10 13.5C10 13.1022 10.1581 12.7207 10.4394 12.4394C10.7207 12.1581 11.1022 12 11.5 12V12ZM21 21H11C10.7348 21 10.4804 20.8946 10.2929 20.7071C10.1054 20.5196 10 20.2652 10 20C10 19.7348 10.1054 19.4804 10.2929 19.2929C10.4804 19.1054 10.7348 19 11 19H21C21.2652 19 21.5196 19.1054 21.7071 19.2929C21.8946 19.4804 22 19.7348 22 20C22 20.2652 21.8946 20.5196 21.7071 20.7071C21.5196 20.8946 21.2652 21 21 21ZM20.5 15C20.2033 15 19.9133 14.912 19.6667 14.7472C19.42 14.5824 19.2277 14.3481 19.1142 14.074C19.0007 13.7999 18.9709 13.4983 19.0288 13.2074C19.0867 12.9164 19.2296 12.6491 19.4393 12.4393C19.6491 12.2296 19.9164 12.0867 20.2074 12.0288C20.4983 11.9709 20.7999 12.0006 21.074 12.1142C21.3481 12.2277 21.5824 12.42 21.7472 12.6666C21.912 12.9133 22 13.2033 22 13.5C22 13.8978 21.8419 14.2793 21.5606 14.5606C21.2793 14.8419 20.8978 15 20.5 15Z"/>
</svg>
