<svg   viewBox="0 0 32 32" fill="none" xmlns="http://www.w3.org/2000/svg">
<path d="M16 3C13.4288 3 10.9154 3.76244 8.77759 5.1909C6.63975 6.61935 4.97351 8.64968 3.98957 11.0251C3.00563 13.4006 2.74819 16.0144 3.2498 18.5362C3.75141 21.0579 4.98953 23.3743 6.80762 25.1924C8.6257 27.0105 10.9421 28.2486 13.4638 28.7502C15.9856 29.2518 18.5995 28.9944 20.9749 28.0104C23.3503 27.0265 25.3807 25.3603 26.8091 23.2224C28.2376 21.0846 29 18.5712 29 16C28.996 12.5534 27.6251 9.24912 25.188 6.81201C22.7509 4.3749 19.4466 3.00398 16 3V3ZM20.5 12C20.7967 12 21.0867 12.088 21.3334 12.2528C21.58 12.4176 21.7723 12.6519 21.8858 12.926C21.9994 13.2001 22.0291 13.5017 21.9712 13.7926C21.9133 14.0836 21.7704 14.3509 21.5607 14.5607C21.3509 14.7704 21.0836 14.9133 20.7926 14.9712C20.5017 15.0291 20.2001 14.9994 19.926 14.8858C19.6519 14.7723 19.4176 14.58 19.2528 14.3334C19.088 14.0867 19 13.7967 19 13.5C19 13.1022 19.1581 12.7207 19.4394 12.4394C19.7207 12.1581 20.1022 12 20.5 12V12ZM11.5 12C11.7967 12 12.0867 12.088 12.3334 12.2528C12.58 12.4176 12.7723 12.6519 12.8858 12.926C12.9994 13.2001 13.0291 13.5017 12.9712 13.7926C12.9133 14.0836 12.7704 14.3509 12.5607 14.5607C12.3509 14.7704 12.0836 14.9133 11.7926 14.9712C11.5017 15.0291 11.2001 14.9994 10.926 14.8858C10.6519 14.7723 10.4176 14.58 10.2528 14.3334C10.088 14.0867 10 13.7967 10 13.5C10 13.1022 10.1581 12.7207 10.4394 12.4394C10.7207 12.1581 11.1022 12 11.5 12V12ZM22.0631 19.5004C21.4485 20.5644 20.5646 21.448 19.5003 22.0623C18.4361 22.6766 17.2289 23 16 23C14.7712 23 13.564 22.6766 12.4997 22.0623C11.4354 21.448 10.5516 20.5645 9.9369 19.5004C9.87115 19.3867 9.82843 19.2612 9.81119 19.131C9.79395 19.0009 9.80252 18.8685 9.83641 18.7417C9.87031 18.6148 9.92886 18.4958 10.0087 18.3916C10.0886 18.2873 10.1882 18.1998 10.3019 18.1341C10.4156 18.0683 10.5411 18.0256 10.6713 18.0084C10.8015 17.9911 10.9338 17.9997 11.0606 18.0336C11.1875 18.0675 11.3065 18.1261 11.4107 18.2059C11.515 18.2858 11.6025 18.3854 11.6682 18.4991C12.1072 19.2595 12.7387 19.8909 13.4991 20.3299C14.2595 20.7689 15.1221 21 16.0001 21C16.8781 21 17.7407 20.7689 18.5011 20.3299C19.2615 19.8908 19.8929 19.2594 20.3319 18.499C20.3977 18.3854 20.4852 18.2857 20.5894 18.2059C20.6936 18.126 20.8126 18.0675 20.9395 18.0336C21.0663 17.9997 21.1986 17.9911 21.3288 18.0084C21.459 18.0256 21.5845 18.0683 21.6982 18.1341C21.8119 18.1998 21.9115 18.2873 21.9913 18.3916C22.0712 18.4958 22.1297 18.6148 22.1636 18.7417C22.1975 18.8685 22.2061 19.0008 22.1888 19.131C22.1716 19.2612 22.1289 19.3867 22.0631 19.5004Z" fill="black"/>
</svg>
