<svg viewBox="0 0 32 32" xmlns="http://www.w3.org/2000/svg">
<path d="M16 3C13.4288 3 10.9154 3.76244 8.77759 5.1909C6.63975 6.61935 4.97351 8.64968 3.98957 11.0251C3.00563 13.4006 2.74819 16.0144 3.2498 18.5362C3.75141 21.0579 4.98953 23.3743 6.80762 25.1924C8.6257 27.0105 10.9421 28.2486 13.4638 28.7502C15.9856 29.2518 18.5995 28.9944 20.9749 28.0104C23.3503 27.0265 25.3807 25.3603 26.8091 23.2224C28.2376 21.0846 29 18.5712 29 16C28.996 12.5534 27.6251 9.24912 25.188 6.81201C22.7509 4.3749 19.4466 3.00398 16 3V3ZM13.707 15.293C13.8 15.3858 13.8739 15.496 13.9242 15.6174C13.9746 15.7387 14.0006 15.8688 14.0007 16.0002C14.0007 16.1316 13.9749 16.2617 13.9246 16.3832C13.8744 16.5046 13.8007 16.6149 13.7078 16.7078C13.6149 16.8007 13.5046 16.8744 13.3832 16.9246C13.2617 16.9749 13.1316 17.0007 13.0002 17.0006C12.8688 17.0006 12.7387 16.9746 12.6174 16.9242C12.496 16.8738 12.3858 16.8 12.293 16.707L11 15.4141L9.70704 16.707C9.51945 16.8942 9.26523 16.9993 9.00023 16.9991C8.73522 16.999 8.48111 16.8937 8.29373 16.7063C8.10634 16.5189 8.00101 16.2648 8.00086 15.9998C8.00072 15.7348 8.10579 15.4806 8.29297 15.293L9.58594 14L8.29297 12.707C8.10579 12.5194 8.00072 12.2652 8.00086 12.0002C8.00101 11.7352 8.10634 11.4811 8.29373 11.2937C8.48111 11.1063 8.73522 11.001 9.00023 11.0009C9.26523 11.0007 9.51945 11.1058 9.70704 11.293L11 12.5859L12.293 11.293C12.4806 11.1058 12.7348 11.0007 12.9998 11.0009C13.2648 11.001 13.5189 11.1063 13.7063 11.2937C13.8937 11.4811 13.999 11.7352 13.9991 12.0002C13.9993 12.2652 13.8942 12.5194 13.707 12.707L12.4141 14L13.707 15.293ZM16 24C15.7033 24 15.4133 23.912 15.1667 23.7472C14.92 23.5824 14.7277 23.3481 14.6142 23.074C14.5007 22.7999 14.4709 22.4983 14.5288 22.2074C14.5867 21.9164 14.7296 21.6491 14.9393 21.4393C15.1491 21.2296 15.4164 21.0867 15.7074 21.0288C15.9983 20.9709 16.2999 21.0007 16.574 21.1142C16.8481 21.2277 17.0824 21.42 17.2472 21.6666C17.412 21.9133 17.5 22.2033 17.5 22.5C17.5 22.8978 17.3419 23.2793 17.0606 23.5606C16.7793 23.8419 16.3978 24 16 24ZM23.707 15.293C23.8 15.3858 23.8739 15.496 23.9242 15.6174C23.9746 15.7387 24.0006 15.8688 24.0007 16.0002C24.0007 16.1316 23.9749 16.2617 23.9246 16.3832C23.8744 16.5046 23.8007 16.6149 23.7078 16.7078C23.6149 16.8007 23.5046 16.8744 23.3832 16.9246C23.2617 16.9749 23.1316 17.0007 23.0002 17.0006C22.8688 17.0006 22.7387 16.9746 22.6174 16.9242C22.496 16.8738 22.3858 16.8 22.293 16.707L21 15.4141L19.707 16.707C19.5195 16.8942 19.2652 16.9993 19.0002 16.9991C18.7352 16.999 18.4811 16.8937 18.2937 16.7063C18.1063 16.5189 18.001 16.2648 18.0009 15.9998C18.0007 15.7348 18.1058 15.4806 18.293 15.293L19.5859 14L18.293 12.707C18.1058 12.5194 18.0007 12.2652 18.0009 12.0002C18.001 11.7352 18.1063 11.4811 18.2937 11.2937C18.4811 11.1063 18.7352 11.001 19.0002 11.0009C19.2652 11.0007 19.5195 11.1058 19.707 11.293L21 12.5859L22.293 11.293C22.4806 11.1058 22.7348 11.0007 22.9998 11.0009C23.2648 11.001 23.5189 11.1063 23.7063 11.2937C23.8937 11.4811 23.999 11.7352 23.9991 12.0002C23.9993 12.2652 23.8942 12.5194 23.707 12.707L22.4141 14L23.707 15.293Z"/>
</svg>
