<svg   viewBox="0 0 32 32" fill="none" xmlns="http://www.w3.org/2000/svg">
<path d="M16 3C13.4288 3 10.9154 3.76244 8.77759 5.1909C6.63975 6.61935 4.97351 8.64968 3.98957 11.0251C3.00563 13.4006 2.74819 16.0144 3.2498 18.5362C3.75141 21.0579 4.98953 23.3743 6.80762 25.1924C8.6257 27.0105 10.9421 28.2486 13.4638 28.7502C15.9856 29.2518 18.5995 28.9944 20.9749 28.0104C23.3503 27.0265 25.3807 25.3603 26.8091 23.2224C28.2376 21.0846 29 18.5712 29 16C28.996 12.5534 27.6251 9.24912 25.188 6.81201C22.7509 4.3749 19.4466 3.00398 16 3V3ZM20.5 12C20.7967 12 21.0867 12.088 21.3334 12.2528C21.58 12.4176 21.7723 12.6519 21.8858 12.926C21.9994 13.2001 22.0291 13.5017 21.9712 13.7926C21.9133 14.0836 21.7704 14.3509 21.5607 14.5607C21.3509 14.7704 21.0836 14.9133 20.7926 14.9712C20.5017 15.0291 20.2001 14.9994 19.926 14.8858C19.6519 14.7723 19.4176 14.58 19.2528 14.3334C19.088 14.0867 19 13.7967 19 13.5C19 13.1022 19.1581 12.7207 19.4394 12.4394C19.7207 12.1581 20.1022 12 20.5 12V12ZM11.5 12C11.7967 12 12.0867 12.088 12.3334 12.2528C12.58 12.4176 12.7723 12.6519 12.8858 12.926C12.9994 13.2001 13.0291 13.5017 12.9712 13.7926C12.9133 14.0836 12.7704 14.3509 12.5607 14.5607C12.3509 14.7704 12.0836 14.9133 11.7926 14.9712C11.5017 15.0291 11.2001 14.9994 10.926 14.8858C10.6519 14.7723 10.4176 14.58 10.2528 14.3334C10.088 14.0867 10 13.7967 10 13.5C10 13.1022 10.1581 12.7207 10.4394 12.4394C10.7207 12.1581 11.1022 12 11.5 12V12ZM21.6982 22.8656C21.5845 22.9314 21.459 22.9742 21.3288 22.9914C21.1986 23.0087 21.0663 23.0002 20.9394 22.9663C20.8125 22.9324 20.6936 22.8738 20.5893 22.7939C20.4851 22.714 20.3976 22.6144 20.3319 22.5007C19.8929 21.7403 19.2615 21.1088 18.5011 20.6698C17.7407 20.2308 16.8781 19.9996 16.0001 19.9996C15.1221 19.9996 14.2595 20.2307 13.4991 20.6698C12.7387 21.1088 12.1072 21.7402 11.6682 22.5006C11.5354 22.7302 11.3169 22.8976 11.0606 22.9661C10.8044 23.0345 10.5315 22.9984 10.3019 22.8656C10.0723 22.7328 9.90486 22.5143 9.83641 22.258C9.76797 22.0018 9.80411 21.7289 9.9369 21.4993C10.5516 20.4352 11.4354 19.5516 12.4997 18.9373C13.564 18.323 14.7712 17.9996 16 17.9996C17.2289 17.9996 18.4361 18.323 19.5003 18.9374C20.5646 19.5517 21.4485 20.4352 22.0631 21.4993C22.1289 21.613 22.1716 21.7385 22.1888 21.8687C22.2061 21.9989 22.1975 22.1312 22.1636 22.2581C22.1298 22.3849 22.0712 22.5039 21.9913 22.6081C21.9115 22.7124 21.8119 22.7999 21.6982 22.8656V22.8656Z" fill="black"/>
</svg>
