<svg   viewBox="0 0 32 32" fill="none" xmlns="http://www.w3.org/2000/svg">
<path d="M28 6V9.5C28 9.76522 27.8946 10.0196 27.7071 10.2071C27.5196 10.3946 27.2652 10.5 27 10.5C26.7348 10.5 26.4804 10.3946 26.2929 10.2071C26.1054 10.0196 26 9.76522 26 9.5V6H22.5C22.2348 6 21.9804 5.89464 21.7929 5.70711C21.6054 5.51957 21.5 5.26522 21.5 5C21.5 4.73478 21.6054 4.48043 21.7929 4.29289C21.9804 4.10536 22.2348 4 22.5 4H26C26.5302 4.00061 27.0386 4.21151 27.4135 4.58646C27.7885 4.9614 27.9994 5.46975 28 6V6ZM27 21.5C26.7348 21.5 26.4804 21.6054 26.2929 21.7929C26.1054 21.9804 26 22.2348 26 22.5V26H22.5C22.2348 26 21.9804 26.1054 21.7929 26.2929C21.6054 26.4804 21.5 26.7348 21.5 27C21.5 27.2652 21.6054 27.5196 21.7929 27.7071C21.9804 27.8946 22.2348 28 22.5 28H26C26.5302 27.9994 27.0386 27.7885 27.4135 27.4135C27.7885 27.0386 27.9994 26.5302 28 26V22.5C28 22.2348 27.8946 21.9804 27.7071 21.7929C27.5196 21.6054 27.2652 21.5 27 21.5ZM9.5 26H6V22.5C6 22.2348 5.89464 21.9804 5.70711 21.7929C5.51957 21.6054 5.26522 21.5 5 21.5C4.73478 21.5 4.48043 21.6054 4.29289 21.7929C4.10536 21.9804 4 22.2348 4 22.5V26C4.00061 26.5302 4.21151 27.0386 4.58646 27.4135C4.9614 27.7885 5.46975 27.9994 6 28H9.5C9.76522 28 10.0196 27.8946 10.2071 27.7071C10.3946 27.5196 10.5 27.2652 10.5 27C10.5 26.7348 10.3946 26.4804 10.2071 26.2929C10.0196 26.1054 9.76522 26 9.5 26ZM5 10.5C5.26522 10.5 5.51957 10.3946 5.7071 10.2071C5.89464 10.0196 6 9.76522 6 9.5V6H9.5C9.76522 6 10.0196 5.89464 10.2071 5.70711C10.3946 5.51957 10.5 5.26522 10.5 5C10.5 4.73478 10.3946 4.48043 10.2071 4.29289C10.0196 4.10536 9.76522 4 9.5 4H6C5.46975 4.00061 4.9614 4.21151 4.58646 4.58646C4.21151 4.9614 4.00061 5.46975 4 6V9.5C4 9.76522 4.10536 10.0196 4.2929 10.2071C4.48043 10.3946 4.73478 10.5 5 10.5V10.5ZM12.6326 17.6926C10.8507 18.4608 9.38553 19.816 8.48096 21.5327C8.4004 21.6851 8.3606 21.8557 8.36542 22.028C8.37024 22.2003 8.41953 22.3685 8.50849 22.5161C8.59745 22.6638 8.72306 22.7859 8.87315 22.8707C9.02323 22.9555 9.19268 23 9.36505 23H22.6349C22.8073 23 22.9768 22.9555 23.1269 22.8707C23.2769 22.7859 23.4026 22.6638 23.4915 22.5161C23.5805 22.3685 23.6298 22.2003 23.6346 22.028C23.6394 21.8557 23.5996 21.6851 23.519 21.5327C22.6145 19.816 21.1493 18.4608 19.3674 17.6926C20.113 17.0132 20.6358 16.1243 20.8669 15.1424C21.0981 14.1605 21.0269 13.1317 20.6626 12.191C20.2984 11.2504 19.6581 10.4419 18.826 9.87179C17.9938 9.30167 17.0087 8.99657 16 8.99657C14.9913 8.99657 14.0062 9.30167 13.174 9.87179C12.3419 10.4419 11.7016 11.2504 11.3374 12.191C10.9731 13.1317 10.9019 14.1605 11.1331 15.1424C11.3642 16.1243 11.887 17.0132 12.6326 17.6926V17.6926Z" fill="black"/>
</svg>
