<svg viewBox="0 0 32 32" xmlns="http://www.w3.org/2000/svg">
<path d="M16 9.5C17.0878 9.5 18.1512 9.82257 19.0556 10.4269C19.9601 11.0313 20.6651 11.8902 21.0813 12.8952C21.4976 13.9002 21.6065 15.0061 21.3943 16.073C21.1821 17.1399 20.6583 18.1199 19.8891 18.8891C19.1199 19.6583 18.1399 20.1821 17.073 20.3943C16.0061 20.6065 14.9002 20.4976 13.8952 20.0813C12.8903 19.6651 12.0313 18.9601 11.4269 18.0556C10.8226 17.1512 10.5 16.0878 10.5 15C10.5 13.5413 11.0795 12.1424 12.1109 11.1109C13.1424 10.0795 14.5413 9.5 16 9.5V9.5ZM28.8971 9.25C28.8315 9.36377 28.7441 9.46349 28.6399 9.54346C28.5357 9.62344 28.4168 9.6821 28.2899 9.71609C28.1631 9.75009 28.0308 9.75874 27.9005 9.74157C27.7703 9.7244 27.6448 9.68174 27.5311 9.61603L26.9475 9.27911C26.668 9.51865 26.3468 9.70471 26 9.828V10.5C26 10.7652 25.8946 11.0196 25.7071 11.2071C25.5196 11.3946 25.2652 11.5 25 11.5C24.7348 11.5 24.4804 11.3946 24.2929 11.2071C24.1054 11.0196 24 10.7652 24 10.5V9.828C23.6532 9.70471 23.332 9.51865 23.0525 9.27911L22.4689 9.61602C22.3552 9.68169 22.2297 9.7243 22.0995 9.74144C21.9693 9.75859 21.837 9.74991 21.7101 9.71593C21.4539 9.64728 21.2355 9.47968 21.1029 9.25C21.0373 9.13627 20.9946 9.01072 20.9775 8.88052C20.9604 8.75032 20.969 8.61802 21.003 8.49118C21.0717 8.235 21.2393 8.01658 21.4689 7.88397L22.051 7.54788C21.983 7.1858 21.983 6.8142 22.051 6.45212L21.4689 6.11602C21.2393 5.98342 21.0717 5.765 21.003 5.50882C20.9344 5.25264 20.9703 4.97968 21.1029 4.75C21.2355 4.52031 21.4539 4.35271 21.7101 4.28407C21.9663 4.21543 22.2393 4.25136 22.4689 4.38397L23.0525 4.72088C23.332 4.48135 23.6532 4.29529 24 4.172V3.5C24 3.23478 24.1054 2.98043 24.2929 2.79289C24.4804 2.60536 24.7348 2.5 25 2.5C25.2652 2.5 25.5196 2.60536 25.7071 2.79289C25.8946 2.98043 26 3.23478 26 3.5V4.172C26.3468 4.29529 26.668 4.48135 26.9475 4.72089L27.5311 4.38398C27.7608 4.25137 28.0337 4.21543 28.2899 4.28408C28.5461 4.35272 28.7645 4.52032 28.8971 4.75C29.0297 4.97969 29.0656 5.25264 28.997 5.50882C28.9284 5.765 28.7608 5.98342 28.5311 6.11603L27.949 6.45212C28.017 6.8142 28.017 7.1858 27.949 7.54788L28.5311 7.88398C28.7607 8.01659 28.9283 8.23501 28.997 8.49119C29.0656 8.74736 29.0297 9.02031 28.8971 9.25V9.25ZM25 8C25.1978 8 25.3911 7.94135 25.5556 7.83147C25.72 7.72159 25.8482 7.56541 25.9239 7.38268C25.9996 7.19996 26.0194 6.99889 25.9808 6.80491C25.9422 6.61093 25.847 6.43275 25.7071 6.29289C25.5673 6.15304 25.3891 6.0578 25.1951 6.01921C25.0011 5.98063 24.8 6.00043 24.6173 6.07612C24.4346 6.15181 24.2784 6.27998 24.1685 6.44443C24.0587 6.60888 24 6.80222 24 7C24.0003 7.26512 24.1058 7.5193 24.2932 7.70677C24.4807 7.89424 24.7349 7.9997 25 8V8ZM27.7963 13.5695C27.6659 13.5851 27.5398 13.6262 27.4253 13.6905C27.3108 13.7548 27.2101 13.841 27.1289 13.9442C27.0477 14.0474 26.9876 14.1656 26.9521 14.292C26.9166 14.4185 26.9063 14.5507 26.9219 14.6811C26.9739 15.1188 27 15.5592 27 16C27.0021 18.6928 26.0124 21.292 24.2198 23.3013C23.417 22.1383 22.376 21.1593 21.1659 20.4295C19.7744 21.7584 17.9242 22.5 16 22.5C14.0758 22.5 12.2256 21.7584 10.8341 20.4294C9.624 21.1593 8.58299 22.1382 7.78022 23.3013C6.37083 21.7172 5.44961 19.7593 5.12756 17.6635C4.8055 15.5678 5.09636 13.4237 5.96508 11.4895C6.8338 9.55529 8.24331 7.91357 10.0238 6.76217C11.8042 5.61076 13.8797 4.99879 16 5C16.3408 5 16.6846 5.01575 17.0219 5.04678C17.2858 5.07088 17.5486 4.98918 17.7524 4.81963C17.9562 4.65008 18.0843 4.40656 18.1086 4.14258C18.1329 3.87861 18.0514 3.61579 17.882 3.41189C17.7126 3.20798 17.4692 3.07968 17.2052 3.05518C16.8073 3.01856 16.4018 3 16 3C13.3798 2.99877 10.8205 3.7897 8.65784 5.26899C6.4952 6.74829 4.83029 8.84683 3.88161 11.2892C2.93293 13.7316 2.7448 16.4038 3.3419 18.955C3.939 21.5063 5.29345 23.8174 7.22748 25.5851C7.27696 25.6407 7.33253 25.6906 7.39316 25.7338C9.76641 27.8381 12.8284 29 16.0002 29C19.172 29 22.2339 27.8379 24.6071 25.7335C24.6675 25.6905 24.7228 25.6409 24.7721 25.5855C26.1047 24.3697 27.1691 22.8892 27.8971 21.2387C28.6251 19.5882 29.0007 17.8039 29 16C29 15.4799 28.9692 14.9604 28.9077 14.4439C28.8763 14.1806 28.7415 13.9405 28.5331 13.7766C28.3246 13.6126 28.0596 13.5381 27.7963 13.5695Z"/>
</svg>
