<svg viewBox="0 0 32 32" xmlns="http://www.w3.org/2000/svg">
<path d="M17.998 10C17.998 9.73482 18.1034 9.48046 18.2909 9.29293C18.4784 9.10539 18.7328 9.00003 18.998 9.00003H30.998C31.2632 9.00003 31.5176 9.10539 31.7051 9.29292C31.8926 9.48046 31.998 9.73481 31.998 10C31.998 10.2652 31.8926 10.5196 31.7051 10.7071C31.5176 10.8947 31.2632 11 30.998 11H18.998C18.7328 11 18.4784 10.8947 18.2909 10.7071C18.1034 10.5196 17.998 10.2652 17.998 10ZM30.998 15H18.998C18.7328 15 18.4784 15.1054 18.2909 15.2929C18.1034 15.4805 17.998 15.7348 17.998 16C17.998 16.2652 18.1034 16.5196 18.2909 16.7071C18.4784 16.8947 18.7328 17 18.998 17H30.998C31.2632 17 31.5176 16.8947 31.7051 16.7071C31.8926 16.5196 31.998 16.2652 31.998 16C31.998 15.7348 31.8926 15.4805 31.7051 15.2929C31.5176 15.1054 31.2632 15 30.998 15ZM30.998 21H21.998C21.7328 21 21.4784 21.1054 21.2909 21.2929C21.1034 21.4805 20.998 21.7348 20.998 22C20.998 22.2652 21.1034 22.5196 21.2909 22.7071C21.4784 22.8947 21.7328 23 21.998 23H30.998C31.2632 23 31.5176 22.8947 31.7051 22.7071C31.8926 22.5196 31.998 22.2652 31.998 22C31.998 21.7348 31.8926 21.4805 31.7051 21.2929C31.5176 21.1054 31.2632 21 30.998 21ZM13.6367 17.7663C14.6347 17.0051 15.3689 15.9501 15.7358 14.7498C16.1028 13.5495 16.0841 12.2643 15.6824 11.0752C15.2806 9.88609 14.5161 8.85289 13.4964 8.12106C12.4767 7.38923 11.2531 6.99561 9.998 6.99561C8.74285 6.99561 7.51931 7.38923 6.4996 8.12106C5.47989 8.85289 4.71536 9.88609 4.31363 11.0752C3.9119 12.2643 3.8932 13.5495 4.26016 14.7498C4.62712 15.9501 5.36126 17.0051 6.35925 17.7663C5.11541 18.3149 4.01222 19.1384 3.1327 20.175C2.25318 21.2116 1.62026 22.4342 1.28157 23.7508C1.24354 23.8985 1.23982 24.053 1.27069 24.2024C1.30156 24.3518 1.3662 24.4921 1.45967 24.6127C1.55313 24.7333 1.67295 24.8309 1.80993 24.898C1.94692 24.9651 2.09746 25 2.25001 25H17.746C17.8985 25 18.0491 24.9651 18.1861 24.898C18.323 24.8309 18.4429 24.7333 18.5363 24.6127C18.6298 24.4921 18.6944 24.3518 18.7253 24.2024C18.7562 24.053 18.7525 23.8985 18.7144 23.7508C18.3757 22.4342 17.7428 21.2116 16.8633 20.175C15.9838 19.1384 14.8806 18.3149 13.6367 17.7663V17.7663Z"/>
</svg>
