<svg viewBox="0 0 32 32" xmlns="http://www.w3.org/2000/svg">
<path d="M16 20.5C19.0376 20.5 21.5 18.0376 21.5 15C21.5 11.9624 19.0376 9.5 16 9.5C12.9624 9.5 10.5 11.9624 10.5 15C10.5 18.0376 12.9624 20.5 16 20.5Z"/>
<path d="M16 3C13.4288 3 10.9154 3.76244 8.77759 5.1909C6.63975 6.61935 4.97351 8.64968 3.98957 11.0251C3.00563 13.4006 2.74819 16.0144 3.2498 18.5362C3.75141 21.0579 4.98953 23.3743 6.80762 25.1924C8.6257 27.0105 10.9421 28.2486 13.4638 28.7502C15.9856 29.2518 18.5995 28.9944 20.9749 28.0104C23.3503 27.0265 25.3807 25.3603 26.8091 23.2224C28.2376 21.0846 29 18.5712 29 16C28.9961 12.5534 27.6252 9.24905 25.1881 6.81192C22.751 4.37479 19.4466 3.0039 16 3V3ZM24.2198 23.3013C23.417 22.1382 22.376 21.1593 21.1659 20.4294C19.7744 21.7584 17.9242 22.5 16 22.5C14.0758 22.5 12.2256 21.7584 10.8341 20.4294C9.624 21.1593 8.58299 22.1382 7.78022 23.3013C6.37085 21.7165 5.44966 19.7581 5.12757 17.6619C4.80548 15.5657 5.09623 13.4211 5.9648 11.4863C6.83337 9.55148 8.24273 7.90903 10.0232 6.75669C11.8036 5.60436 13.8792 4.99127 16 4.99127C18.1208 4.99127 20.1964 5.60436 21.9768 6.75669C23.7573 7.90903 25.1666 9.55148 26.0352 11.4863C26.9038 13.4211 27.1945 15.5657 26.8724 17.6619C26.5503 19.7581 25.6291 21.7165 24.2198 23.3013V23.3013Z"/>
</svg>
