<svg   viewBox="0 0 32 32" fill="none" xmlns="http://www.w3.org/2000/svg">
<path d="M16 20.5C19.0376 20.5 21.5 18.0376 21.5 15C21.5 11.9624 19.0376 9.5 16 9.5C12.9624 9.5 10.5 11.9624 10.5 15C10.5 18.0376 12.9624 20.5 16 20.5Z" fill="black"/>
<path d="M26 4H6C5.46975 4.00061 4.9614 4.21151 4.58646 4.58646C4.21151 4.9614 4.00061 5.46975 4 6V26C4.00061 26.5302 4.21151 27.0386 4.58646 27.4135C4.9614 27.7885 5.46975 27.9994 6 28H26C26.5302 27.9994 27.0386 27.7885 27.4135 27.4135C27.7885 27.0386 27.9994 26.5302 28 26V6C27.9994 5.46975 27.7885 4.9614 27.4135 4.58646C27.0386 4.21151 26.5302 4.00061 26 4ZM26 26H25.5408C24.9464 24.1216 23.8133 22.4592 22.2822 21.2193C21.9265 20.9325 21.5513 20.6706 21.1595 20.4356C19.7686 21.7608 17.9211 22.5 16 22.5C14.0789 22.5 12.2314 21.7608 10.8405 20.4356C10.4487 20.6706 10.0735 20.9325 9.71777 21.2193C8.18668 22.4592 7.05356 24.1216 6.45915 26H6V6H26L26.0013 25.9999L26 26Z" fill="black"/>
</svg>
