<svg   viewBox="0 0 32 32" fill="none" xmlns="http://www.w3.org/2000/svg">
<path d="M24.9871 24.3565C25.1096 24.5023 25.188 24.68 25.2129 24.8688C25.2378 25.0576 25.2084 25.2495 25.128 25.4221C25.0476 25.5947 24.9195 25.7408 24.759 25.8431C24.5984 25.9454 24.4119 25.9998 24.2215 25.9998H2.77345C2.58303 25.9998 2.39658 25.9454 2.236 25.8431C2.07543 25.7408 1.94741 25.5947 1.86699 25.4221C1.78658 25.2495 1.75711 25.0576 1.78206 24.8688C1.80701 24.68 1.88533 24.5023 2.00782 24.3565C3.84073 22.1707 6.25939 20.5535 8.97962 19.6948C7.41733 18.7145 6.21628 17.2526 5.55774 15.5298C4.89919 13.807 4.81888 11.9168 5.32892 10.1443C5.83897 8.37183 6.91169 6.81336 8.3852 5.70407C9.85872 4.59478 11.6531 3.99487 13.4974 3.99487C15.3418 3.99487 17.1362 4.59478 18.6097 5.70407C20.0832 6.81336 21.1559 8.37183 21.666 10.1443C22.176 11.9168 22.0957 13.807 21.4372 15.5298C20.7786 17.2526 19.5776 18.7145 18.0153 19.6948C20.7355 20.5535 23.1542 22.1707 24.9871 24.3565ZM31.3945 19.2501C31.3289 19.3638 31.2415 19.4636 31.1374 19.5435C31.0332 19.6235 30.9143 19.6822 30.7874 19.7162C30.6605 19.7502 30.5282 19.7588 30.398 19.7417C30.2678 19.7245 30.1422 19.6818 30.0285 19.6161L29.445 19.2792C29.1655 19.5187 28.8443 19.7048 28.4974 19.828V20.5001C28.4974 20.7653 28.3921 21.0196 28.2046 21.2072C28.017 21.3947 27.7627 21.5001 27.4974 21.5001C27.2322 21.5001 26.9779 21.3947 26.7903 21.2072C26.6028 21.0196 26.4974 20.7653 26.4974 20.5001V19.828C26.1506 19.7048 25.8294 19.5187 25.5499 19.2792L24.9664 19.6161C24.7367 19.7487 24.4637 19.7846 24.2076 19.716C23.9514 19.6473 23.733 19.4797 23.6004 19.2501C23.4677 19.0204 23.4318 18.7474 23.5005 18.4912C23.5691 18.2351 23.7367 18.0166 23.9664 17.884L24.5485 17.5479C24.4804 17.1858 24.4804 16.8143 24.5485 16.4522L23.9664 16.1161C23.7367 15.9835 23.5691 15.7651 23.5005 15.5089C23.4318 15.2527 23.4677 14.9797 23.6004 14.7501C23.733 14.5204 23.9514 14.3528 24.2076 14.2841C24.4637 14.2155 24.7367 14.2514 24.9664 14.384L25.5499 14.7209C25.8294 14.4814 26.1506 14.2953 26.4974 14.1721V13.5001C26.4974 13.2348 26.6028 12.9805 26.7903 12.7929C26.9779 12.6054 27.2322 12.5001 27.4974 12.5001C27.7627 12.5001 28.017 12.6054 28.2046 12.7929C28.3921 12.9805 28.4974 13.2348 28.4974 13.5001V14.1721C28.8443 14.2953 29.1655 14.4814 29.445 14.7209L30.0285 14.384C30.2582 14.2514 30.5312 14.2155 30.7873 14.2841C31.0435 14.3528 31.2619 14.5204 31.3945 14.7501C31.5272 14.9797 31.5631 15.2527 31.4944 15.5089C31.4258 15.7651 31.2582 15.9835 31.0285 16.1161L30.4464 16.4522C30.5145 16.8143 30.5145 17.1858 30.4464 17.5479L31.0285 17.884C31.2582 18.0166 31.4258 18.2351 31.4944 18.4912C31.5631 18.7474 31.5271 19.0204 31.3945 19.2501ZM27.4974 18.0001C27.6952 18.0001 27.8886 17.9414 28.053 17.8315C28.2175 17.7216 28.3456 17.5655 28.4213 17.3827C28.497 17.2 28.5168 16.9989 28.4782 16.805C28.4396 16.611 28.3444 16.4328 28.2046 16.2929C28.0647 16.1531 27.8865 16.0579 27.6925 16.0193C27.4986 15.9807 27.2975 16.0005 27.1148 16.0762C26.932 16.1519 26.7759 16.28 26.666 16.4445C26.5561 16.6089 26.4974 16.8023 26.4974 17.0001C26.4978 17.2652 26.6032 17.5194 26.7907 17.7068C26.9781 17.8943 27.2323 17.9997 27.4974 18.0001V18.0001Z" fill="black"/>
</svg>
