<svg   viewBox="0 0 32 32" fill="none" xmlns="http://www.w3.org/2000/svg">
<path d="M15.1503 19.7434C16.492 18.8522 17.5112 17.5527 18.0569 16.0372C18.6027 14.5217 18.646 12.8708 18.1805 11.3287C17.7151 9.78669 16.7655 8.43548 15.4724 7.47508C14.1793 6.51467 12.6113 5.99609 11.0005 5.99609C9.38978 5.99609 7.82182 6.51467 6.5287 7.47508C5.23558 8.43548 4.28601 9.78669 3.82053 11.3287C3.35505 12.8708 3.39839 14.5217 3.94413 16.0372C4.48987 17.5527 5.50902 18.8522 6.85075 19.7434C4.5635 20.5872 2.58668 22.1061 1.1823 24.0989C1.07687 24.2486 1.01459 24.4245 1.00227 24.6072C0.989942 24.79 1.02804 24.9726 1.11242 25.1352C1.19679 25.2977 1.32419 25.434 1.48072 25.5291C1.63725 25.6242 1.81689 25.6745 2.00005 25.6745L20.0006 25.6739C20.1838 25.6739 20.3634 25.6235 20.5199 25.5284C20.6765 25.4333 20.8038 25.297 20.8882 25.1344C20.9725 24.9718 21.0106 24.7892 20.9983 24.6065C20.9859 24.4237 20.9236 24.2479 20.8182 24.0981C19.4138 22.1057 17.4372 20.5871 15.1503 19.7434V19.7434Z" fill="black"/>
<path d="M31.011 24.0982C29.6067 22.1057 27.63 20.5871 25.3431 19.7434C26.83 18.7536 27.9148 17.2657 28.4024 15.5473C28.8899 13.8289 28.7482 11.9929 28.0026 10.3697C27.2571 8.74647 25.9567 7.44265 24.3355 6.69282C22.7142 5.943 20.8786 5.79641 19.1589 6.27943C19.0028 6.32333 18.8597 6.40455 18.742 6.51608C18.6243 6.62761 18.5354 6.7661 18.4831 6.91961C18.4308 7.07312 18.4166 7.23705 18.4418 7.39726C18.467 7.55747 18.5307 7.70916 18.6276 7.83924C19.758 9.35774 20.4079 11.1799 20.4934 13.0711C20.579 14.9622 20.0964 16.8356 19.1077 18.45C18.9771 18.6629 18.9309 18.917 18.9782 19.1622C19.0255 19.4074 19.1629 19.6261 19.3633 19.7752C19.7424 20.0573 20.1072 20.3583 20.4562 20.677C20.4743 20.6966 20.4925 20.7161 20.5123 20.7345C21.8471 21.9684 22.9288 23.4504 23.6972 25.0977C23.7777 25.2701 23.9057 25.4159 24.0663 25.5181C24.2268 25.6203 24.4131 25.6746 24.6034 25.6746L30.1935 25.6739C30.3766 25.6739 30.5563 25.6235 30.7128 25.5284C30.8693 25.4333 30.9967 25.297 31.081 25.1344C31.1653 24.9718 31.2034 24.7892 31.1911 24.6065C31.1787 24.4237 31.1164 24.2479 31.011 24.0981L31.011 24.0982Z" fill="black"/>
</svg>
