<svg viewBox="0 0 32 32" xmlns="http://www.w3.org/2000/svg">
<path d="M16 20.5C19.0376 20.5 21.5 18.0376 21.5 15C21.5 11.9624 19.0376 9.5 16 9.5C12.9624 9.5 10.5 11.9624 10.5 15C10.5 18.0376 12.9624 20.5 16 20.5Z"/>
<path d="M27 5H5C4.46975 5.00061 3.9614 5.21151 3.58646 5.58646C3.21151 5.9614 3.00061 6.46975 3 7V25C3.00061 25.5302 3.21151 26.0386 3.58646 26.4135C3.9614 26.7885 4.46975 26.9994 5 27H27C27.5302 26.9994 28.0386 26.7885 28.4135 26.4135C28.7885 26.0386 28.9994 25.5302 29 25V7C28.9994 6.46975 28.7885 5.9614 28.4135 5.58646C28.0386 5.21151 27.5302 5.00061 27 5ZM27 25H25.1653C24.3348 23.1004 22.9347 21.5058 21.1584 20.4366C19.7677 21.7612 17.9206 22.5 16 22.5C14.0794 22.5 12.2323 21.7612 10.8416 20.4366C9.06534 21.5058 7.6652 23.1004 6.83472 25H5V7H27L27.0013 24.9999L27 25Z"/>
</svg>
