<svg viewBox="0 0 32 32" xmlns="http://www.w3.org/2000/svg">
<path d="M28.9934 26.4983C27.1275 23.2846 24.1392 20.8741 20.6034 19.7305C22.2973 18.7226 23.6135 17.1865 24.3498 15.3581C25.0861 13.5297 25.2018 11.5102 24.6792 9.60965C24.1565 7.70912 23.0244 6.03273 21.4567 4.83795C19.889 3.64318 17.9724 2.99609 16.0013 2.99609C14.0303 2.99609 12.1137 3.64318 10.546 4.83795C8.97827 6.03273 7.84615 7.70912 7.3235 9.60965C6.80084 11.5102 6.91656 13.5297 7.65287 15.3581C8.38918 17.1865 9.70537 18.7226 11.3993 19.7305C7.86354 20.8741 4.8754 23.2845 3.00945 26.4981C2.9215 26.6501 2.87513 26.8226 2.875 26.9982C2.87487 27.1738 2.921 27.3464 3.00874 27.4985C3.09647 27.6506 3.22272 27.777 3.37479 27.8648C3.52686 27.9526 3.69938 27.9989 3.87499 27.9989L28.1279 27.9991C28.3035 27.9992 28.476 27.9529 28.6281 27.8651C28.7802 27.7772 28.9064 27.6509 28.9941 27.4988C29.0819 27.3466 29.128 27.1741 29.1279 26.9985C29.1277 26.8228 29.0814 26.6503 28.9934 26.4983L28.9934 26.4983Z"/>
</svg>
