<svg   viewBox="0 0 32 32" fill="none" xmlns="http://www.w3.org/2000/svg">
<path d="M8.00012 17.5002C8.00013 17.6316 7.97427 17.7616 7.92402 17.8829C7.87377 18.0043 7.80011 18.1145 7.70725 18.2074C7.61439 18.3002 7.50414 18.3739 7.38281 18.4241C7.26149 18.4744 7.13145 18.5002 7.00012 18.5002H7.00006L1.49988 18.4998C1.31411 18.4997 1.13203 18.448 0.974035 18.3503C0.816042 18.2526 0.688387 18.1128 0.605382 17.9466C0.522377 17.7804 0.487303 17.5944 0.504093 17.4094C0.520883 17.2244 0.588873 17.0477 0.700441 16.8992C1.58674 15.7117 2.76882 14.7773 4.12885 14.1891C3.54445 13.6549 3.0953 12.9895 2.81837 12.2478C2.54145 11.506 2.44466 10.7091 2.53599 9.92266C2.62731 9.1362 2.90414 8.38267 3.34367 7.72412C3.7832 7.06557 4.37287 6.52085 5.06412 6.13479C5.75537 5.74873 6.52844 5.53238 7.31967 5.50355C8.1109 5.47472 8.89766 5.63425 9.61517 5.96898C10.3327 6.30372 10.9604 6.8041 11.4467 7.42892C11.933 8.05373 12.2639 8.78512 12.4122 9.56286C12.4506 9.76486 12.4257 9.97379 12.3411 10.1612C12.2564 10.3485 12.116 10.5053 11.9391 10.61C10.3201 11.5677 9.08795 13.0625 8.45673 14.8345C8.15349 15.6905 7.99906 16.5921 8.00012 17.5002V17.5002ZM31.3 16.8989C30.4138 15.7114 29.2317 14.777 27.8717 14.1888C28.4561 13.6547 28.9052 12.9893 29.1822 12.2476C29.4591 11.5058 29.5559 10.7089 29.4646 9.92245C29.3732 9.13599 29.0964 8.38247 28.6569 7.72392C28.2174 7.06538 27.6277 6.52064 26.9365 6.13458C26.2452 5.74851 25.4722 5.53216 24.6809 5.50332C23.8897 5.47448 23.103 5.63399 22.3854 5.96871C21.6679 6.30343 21.0402 6.80379 20.5539 7.42859C20.0676 8.05339 19.7367 8.78476 19.5883 9.56249C19.55 9.76449 19.5748 9.9734 19.6595 10.1608C19.7441 10.3481 19.8845 10.5049 20.0614 10.6096C21.6804 11.5674 22.9126 13.0622 23.5438 14.8342C23.847 15.6902 24.0015 16.5919 24.0004 17.5C24.0004 17.6313 24.0262 17.7614 24.0765 17.8827C24.1268 18.004 24.2004 18.1143 24.2933 18.2071C24.3862 18.3 24.4964 18.3736 24.6178 18.4239C24.7391 18.4741 24.8692 18.5 25.0005 18.5L30.5006 18.4995C30.6864 18.4995 30.8685 18.4477 31.0265 18.35C31.1845 18.2523 31.3121 18.1125 31.3951 17.9463C31.4781 17.7801 31.5132 17.5941 31.4964 17.4091C31.4796 17.2241 31.4116 17.0474 31.3001 16.8989L31.3 16.8989ZM19.6456 22.2612C20.642 21.4991 21.3744 20.4438 21.74 19.2438C22.1055 18.0438 22.0857 16.7594 21.6834 15.5712C21.2811 14.383 20.5165 13.3508 19.4971 12.6197C18.4777 11.8886 17.2548 11.4954 16.0004 11.4954C14.7459 11.4954 13.523 11.8886 12.5036 12.6197C11.4842 13.3508 10.7196 14.383 10.3173 15.5712C9.91498 16.7594 9.89521 18.0438 10.2607 19.2438C10.6263 20.4438 11.3588 21.4991 12.3552 22.2612C10.4083 23.1207 8.831 24.6452 7.90576 26.5618C7.83145 26.7142 7.79713 26.8831 7.80604 27.0524C7.81495 27.2218 7.86679 27.3861 7.95669 27.5299C8.04658 27.6737 8.17158 27.7923 8.31993 27.8745C8.46827 27.9568 8.63509 27.9999 8.80469 27.9999H23.196C23.3656 27.9999 23.5324 27.9567 23.6808 27.8745C23.8291 27.7923 23.9541 27.6737 24.044 27.5299C24.1339 27.3861 24.1857 27.2218 24.1947 27.0524C24.2036 26.8831 24.1693 26.7142 24.095 26.5618C23.1697 24.6452 21.5924 23.1207 19.6456 22.2612V22.2612Z" fill="black"/>
</svg>
