<svg viewBox="0 0 32 32" xmlns="http://www.w3.org/2000/svg">
<path d="M3.20045 14.3992C4.08674 13.2115 5.2689 12.277 6.62903 11.6888C5.88445 11.009 5.36279 10.1199 5.13252 9.13833C4.90225 8.15671 4.97412 7.12842 5.33871 6.18839C5.7033 5.24835 6.34357 4.44051 7.17549 3.87086C8.00741 3.30122 8.99211 2.9964 10.0004 2.9964C11.0086 2.9964 11.9933 3.30122 12.8253 3.87086C13.6572 4.44051 14.2974 5.24835 14.662 6.18839C15.0266 7.12842 15.0985 8.15671 14.8682 9.13833C14.638 10.1199 14.1163 11.009 13.3717 11.6888C14.3536 12.1123 15.2457 12.7192 16.0004 13.4768C16.755 12.7191 17.6471 12.1123 18.629 11.6888C17.8844 11.009 17.3628 10.1199 17.1325 9.13833C16.9022 8.15671 16.9741 7.12842 17.3387 6.18839C17.7033 5.24835 18.3436 4.44051 19.1755 3.87086C20.0074 3.30122 20.9921 2.9964 22.0004 2.9964C23.0086 2.9964 23.9933 3.30122 24.8253 3.87086C25.6572 4.44051 26.2974 5.24835 26.662 6.18839C27.0266 7.12842 27.0985 8.15671 26.8682 9.13833C26.638 10.1199 26.1163 11.009 25.3717 11.6888C26.7317 12.277 27.9138 13.2114 28.8001 14.3989C28.8791 14.5039 28.9367 14.6234 28.9695 14.7507C29.0023 14.8779 29.0097 15.0104 28.9913 15.1405C28.9729 15.2706 28.929 15.3958 28.8622 15.509C28.7953 15.6221 28.7068 15.721 28.6018 15.7999C28.4967 15.8788 28.3771 15.9363 28.2498 15.9689C28.1225 16.0016 27.9901 16.0089 27.86 15.9903C27.7299 15.9718 27.6047 15.9278 27.4916 15.8608C27.3786 15.7938 27.2798 15.7052 27.201 15.6001C26.5954 14.7928 25.8102 14.1375 24.9075 13.6862C24.0048 13.2349 23.0094 13 22.0002 13C20.991 13 19.9956 13.235 19.093 13.6863C18.1903 14.1377 17.4051 14.793 16.7996 15.6003C16.7979 15.6025 16.796 15.6043 16.7943 15.6065C16.7741 15.6329 16.7525 15.6583 16.7297 15.6825C16.7223 15.6905 16.7147 15.6981 16.707 15.7058C16.6895 15.7233 16.6712 15.7402 16.6522 15.7565C16.6411 15.7661 16.63 15.7755 16.6187 15.7845C16.6127 15.7892 16.6073 15.7945 16.6012 15.7991C16.5898 15.8076 16.5778 15.8147 16.5661 15.8227C16.5534 15.8315 16.5409 15.8404 16.5278 15.8485C16.5074 15.8613 16.4864 15.8726 16.4653 15.8837C16.4548 15.8892 16.4447 15.8953 16.4341 15.9005C16.3694 15.9316 16.3015 15.9557 16.2316 15.9722C16.2215 15.9745 16.2113 15.9761 16.2011 15.9782C16.1768 15.9831 16.1525 15.9876 16.1279 15.9907C16.1141 15.9925 16.1003 15.9936 16.0866 15.9948C16.0659 15.9966 16.0452 15.9978 16.0245 15.9983C16.0161 15.9985 16.0077 15.9997 15.9993 15.9997C15.9935 15.9997 15.9879 15.9985 15.9822 15.9984C15.9391 15.9978 15.8961 15.9944 15.8535 15.9883C15.8417 15.9866 15.8301 15.9838 15.8184 15.9816C15.7831 15.9751 15.7481 15.9666 15.7137 15.9564C15.702 15.9528 15.6901 15.95 15.6783 15.946C15.6373 15.9318 15.5972 15.9149 15.5583 15.8955C15.5466 15.8898 15.5351 15.8838 15.5236 15.8775C15.4832 15.8559 15.4445 15.8315 15.4075 15.8044C15.4049 15.8025 15.402 15.8013 15.3994 15.7993C15.3848 15.7884 15.3717 15.7763 15.3579 15.7648C15.3499 15.758 15.3416 15.7517 15.3338 15.7447C15.3131 15.7261 15.2936 15.7067 15.2747 15.6868C15.2714 15.6833 15.2679 15.68 15.2647 15.6765C15.2373 15.6472 15.2118 15.6163 15.1881 15.584C14.5811 14.7799 13.7956 14.1279 12.8934 13.6795C11.9913 13.231 10.9972 12.9984 9.98976 13C8.9823 13.0016 7.989 13.2373 7.08826 13.6886C6.18753 14.1399 5.40401 14.7943 4.79957 15.6003C4.64028 15.8124 4.40328 15.9525 4.1407 15.9898C3.87813 16.0271 3.61148 15.9586 3.39942 15.7993C3.18736 15.64 3.04727 15.403 3.00995 15.1404C2.97264 14.8779 3.04116 14.6112 3.20044 14.3992L3.20045 14.3992ZM25.3717 24.6888C26.1163 24.009 26.638 23.1199 26.8682 22.1383C27.0985 21.1567 27.0266 20.1284 26.662 19.1884C26.2974 18.2484 25.6572 17.4405 24.8253 16.8709C23.9933 16.3012 23.0086 15.9964 22.0004 15.9964C20.9921 15.9964 20.0074 16.3012 19.1755 16.8709C18.3436 17.4405 17.7033 18.2484 17.3387 19.1884C16.9741 20.1284 16.9022 21.1567 17.1325 22.1383C17.3628 23.1199 17.8844 24.009 18.629 24.6888C17.6471 25.1123 16.755 25.7191 16.0004 26.4768C15.2457 25.7192 14.3536 25.1123 13.3717 24.6888C14.1163 24.009 14.638 23.1199 14.8682 22.1383C15.0985 21.1567 15.0266 20.1284 14.662 19.1884C14.2974 18.2484 13.6572 17.4405 12.8253 16.8709C11.9933 16.3012 11.0086 15.9964 10.0004 15.9964C8.99211 15.9964 8.00741 16.3012 7.17549 16.8709C6.34357 17.4405 5.7033 18.2484 5.33871 19.1884C4.97412 20.1284 4.90225 21.1567 5.13252 22.1383C5.36279 23.1199 5.88445 24.009 6.62903 24.6888C5.2689 25.277 4.08674 26.2115 3.20045 27.3992C3.08887 27.5477 3.02088 27.7244 3.0041 27.9094C2.98731 28.0944 3.02239 28.2804 3.10541 28.4466C3.18843 28.6128 3.31611 28.7526 3.47412 28.8503C3.63213 28.948 3.81423 28.9997 4.00001 28.9997L15.9966 28.9995L16 28.9997L28.0006 28.9995C28.1863 28.9995 28.3684 28.9478 28.5265 28.8501C28.6845 28.7524 28.8121 28.6126 28.8952 28.4464C28.9782 28.2802 29.0132 28.0942 28.9964 27.9091C28.9797 27.7241 28.9116 27.5474 28.8001 27.3989C27.9138 26.2114 26.7317 25.277 25.3717 24.6888Z"/>
</svg>
