<svg viewBox="0 0 32 32" xmlns="http://www.w3.org/2000/svg">
<path d="M31.9974 17C31.9975 17.1314 31.9716 17.2614 31.9213 17.3827C31.8711 17.5041 31.7974 17.6143 31.7046 17.7072C31.6117 17.8 31.5015 17.8737 31.3801 17.9239C31.2588 17.9742 31.1288 18.0001 30.9974 18H28.9974V20C28.9974 20.2653 28.8921 20.5196 28.7046 20.7072C28.517 20.8947 28.2627 21 27.9974 21C27.7322 21 27.4779 20.8947 27.2903 20.7072C27.1028 20.5196 26.9974 20.2653 26.9974 20V18H24.9974C24.7322 18 24.4779 17.8947 24.2903 17.7072C24.1028 17.5196 23.9974 17.2653 23.9974 17C23.9974 16.7348 24.1028 16.4805 24.2903 16.2929C24.4779 16.1054 24.7322 16 24.9974 16H26.9974V14C26.9974 13.7348 27.1028 13.4805 27.2903 13.2929C27.4779 13.1054 27.7322 13 27.9974 13C28.2627 13 28.517 13.1054 28.7046 13.2929C28.8921 13.4805 28.9974 13.7348 28.9974 14V16H30.9974C31.1288 16 31.2588 16.0259 31.3801 16.0762C31.5015 16.1264 31.6117 16.2001 31.7046 16.2929C31.7974 16.3858 31.8711 16.496 31.9213 16.6174C31.9716 16.7387 31.9975 16.8687 31.9974 17V17ZM18.0153 19.6948C19.5776 18.7145 20.7786 17.2526 21.4372 15.5298C22.0957 13.807 22.176 11.9167 21.666 10.1443C21.1559 8.37183 20.0832 6.81336 18.6097 5.70407C17.1362 4.59478 15.3418 3.99487 13.4974 3.99487C11.6531 3.99487 9.85872 4.59478 8.38521 5.70407C6.9117 6.81336 5.83897 8.37183 5.32893 10.1443C4.81888 11.9167 4.89919 13.807 5.55774 15.5298C6.21628 17.2526 7.41732 18.7145 8.97961 19.6948C6.25935 20.5535 3.84067 22.1708 2.00776 24.3566C1.88529 24.5023 1.80698 24.6801 1.78205 24.8688C1.75712 25.0576 1.78659 25.2496 1.86701 25.4222C1.94743 25.5947 2.07545 25.7408 2.23602 25.8431C2.3966 25.9454 2.58304 25.9998 2.77345 25.9998L24.2215 25.9999C24.4119 25.9999 24.5984 25.9455 24.7589 25.8432C24.9195 25.7408 25.0475 25.5948 25.128 25.4222C25.2084 25.2496 25.2378 25.0577 25.2129 24.8689C25.188 24.6801 25.1097 24.5024 24.9872 24.3566C23.1543 22.1708 20.7356 20.5535 18.0153 19.6948V19.6948Z"/>
</svg>
