<svg   viewBox="0 0 32 32" fill="none" xmlns="http://www.w3.org/2000/svg">
<path d="M16 9.5C17.0878 9.5 18.1512 9.82257 19.0556 10.4269C19.9601 11.0313 20.6651 11.8903 21.0813 12.8952C21.4976 13.9002 21.6065 15.0061 21.3943 16.073C21.1821 17.1399 20.6583 18.1199 19.8891 18.8891C19.1199 19.6583 18.1399 20.1821 17.073 20.3943C16.0061 20.6065 14.9002 20.4976 13.8952 20.0813C12.8902 19.6651 12.0313 18.9601 11.4269 18.0556C10.8226 17.1512 10.5 16.0878 10.5 15C10.5 14.2777 10.6423 13.5625 10.9187 12.8952C11.1951 12.228 11.6002 11.6216 12.1109 11.1109C12.6216 10.6002 13.2279 10.1951 13.8952 9.91866C14.5625 9.64226 15.2777 9.5 16 9.5V9.5ZM22 8H28C28.2652 8 28.5196 7.89465 28.7071 7.70711C28.8946 7.51957 29 7.26522 29 7C29 6.73479 28.8946 6.48043 28.7071 6.2929C28.5196 6.10536 28.2652 6 28 6H22C21.7348 6 21.4804 6.10536 21.2929 6.2929C21.1054 6.48043 21 6.73479 21 7C21 7.26522 21.1054 7.51957 21.2929 7.70711C21.4804 7.89465 21.7348 8 22 8ZM26.9839 11.0571C26.7339 11.1455 26.5292 11.3296 26.4149 11.5689C26.3005 11.8083 26.286 12.0832 26.3743 12.3333C27.0278 14.1872 27.1726 16.1824 26.7937 18.1113C26.4148 20.0401 25.526 21.8323 24.2198 23.3013C23.417 22.1382 22.376 21.1593 21.1659 20.4294C19.7744 21.7584 17.9242 22.5 16 22.5C14.0758 22.5 12.2256 21.7584 10.8341 20.4294C9.62399 21.1593 8.58298 22.1382 7.78021 23.3013C6.37083 21.7172 5.44961 19.7593 5.12755 17.6636C4.8055 15.5678 5.09636 13.4237 5.96508 11.4895C6.83379 9.55529 8.24331 7.91358 10.0238 6.76217C11.8042 5.61076 13.8797 4.99879 16 5C16.5813 4.99995 17.1617 5.04544 17.736 5.13605C17.9979 5.17742 18.2654 5.1131 18.4799 4.95722C18.6944 4.80134 18.8382 4.56667 18.8797 4.3048C18.9212 4.04293 18.857 3.77531 18.7012 3.56076C18.5454 3.34622 18.3108 3.20232 18.049 3.16071C16.1921 2.86612 14.2934 2.97746 12.4837 3.48708C10.674 3.9967 8.99629 4.89248 7.56602 6.11275C6.13575 7.33301 4.98693 8.84876 4.19869 10.5556C3.41044 12.2625 3.0015 14.1199 3 16C2.99928 17.8038 3.37488 19.588 4.10279 21.2384C4.8307 22.8888 5.89491 24.3693 7.22742 25.5851C7.27693 25.6407 7.33254 25.6906 7.3932 25.7338C9.76647 27.8381 12.8285 29.0001 16.0003 29C19.1722 28.9999 22.2341 27.8378 24.6073 25.7334C24.6675 25.6905 24.7227 25.6409 24.7719 25.5858C26.6549 23.8639 27.9898 21.6261 28.61 19.151C29.2303 16.676 29.1085 14.0731 28.26 11.6668C28.1716 11.4167 27.9875 11.212 27.7482 11.0977C27.5089 10.9834 27.234 10.9688 26.9839 11.0571V11.0571Z" fill="black"/>
</svg>
