<svg viewBox="0 0 32 32" xmlns="http://www.w3.org/2000/svg">
<path d="M30.9314 23.1838C30.8899 23.0591 30.8243 22.9439 30.7383 22.8447C30.6522 22.7454 30.5475 22.6641 30.43 22.6054C30.3125 22.5467 30.1846 22.5117 30.0536 22.5024C29.9226 22.4931 29.791 22.5097 29.6664 22.5513L27.4893 23.277L23.8771 16.0528C23.7941 15.8867 23.6664 15.747 23.5084 15.6493C23.3505 15.5517 23.1684 15.5 22.9827 15.5H12.9827V13H19.9827C20.2479 13 20.5023 12.8946 20.6898 12.7071C20.8774 12.5196 20.9827 12.2652 20.9827 12C20.9827 11.7348 20.8774 11.4804 20.6898 11.2929C20.5023 11.1053 20.2479 11 19.9827 11H12.9827V7.82861C13.6499 7.59271 14.2123 7.12854 14.5703 6.51813C14.9284 5.90772 15.0592 5.19037 14.9395 4.49288C14.8198 3.79538 14.4574 3.16265 13.9164 2.70651C13.3753 2.25036 12.6904 2.00018 11.9827 2.00018C11.275 2.00018 10.5901 2.25036 10.049 2.70651C9.50798 3.16265 9.14558 3.79538 9.02591 4.49288C8.90624 5.19037 9.037 5.90772 9.39508 6.51813C9.75315 7.12854 10.3155 7.59271 10.9827 7.82861V11.2268C9.35431 11.5981 7.86138 12.4153 6.67101 13.5869C5.48064 14.7585 4.6398 16.2382 4.24258 17.8605C3.84536 19.4828 3.90745 21.1836 4.42189 22.7726C4.93634 24.3616 5.88283 25.7761 7.15546 26.8578C8.42809 27.9395 9.97662 28.6456 11.6278 28.8973C13.2789 29.1489 14.9675 28.9361 16.5046 28.2826C18.0416 27.6291 19.3665 26.5608 20.3309 25.1972C21.2954 23.8336 21.8613 22.2285 21.9654 20.5615C21.9817 20.2968 21.8922 20.0365 21.7166 19.8378C21.5409 19.6391 21.2935 19.5183 21.0289 19.5019C20.7642 19.4856 20.5038 19.5751 20.3051 19.7508C20.1064 19.9264 19.9856 20.1738 19.9693 20.4385C19.8893 21.7156 19.4608 22.9464 18.7303 23.997C17.9998 25.0477 16.9953 25.878 15.8259 26.3977C14.6566 26.9174 13.3671 27.1067 12.0978 26.9449C10.8284 26.7831 9.62766 26.2765 8.62607 25.48C7.62448 24.6836 6.86036 23.6279 6.41677 22.4276C5.97318 21.2273 5.86709 19.9283 6.11003 18.672C6.35297 17.4156 6.93564 16.2499 7.79472 15.3015C8.6538 14.3531 9.75641 13.6583 10.9827 13.2927V16.5C10.9827 16.7652 11.0881 17.0196 11.2756 17.2071C11.4631 17.3946 11.7175 17.5 11.9827 17.5H22.3647L26.0883 24.9472C26.1958 25.1626 26.3775 25.332 26.6 25.4241C26.8224 25.5163 27.0706 25.525 27.299 25.4487L30.299 24.4487C30.5506 24.3648 30.7586 24.1844 30.8772 23.9472C30.9958 23.71 31.0153 23.4354 30.9314 23.1838V23.1838Z"/>
</svg>
