<svg   viewBox="0 0 32 32" fill="none" xmlns="http://www.w3.org/2000/svg">
<path d="M27 4.99927H5" stroke="black" stroke-width="2" stroke-linecap="round" stroke-linejoin="round"/>
<path d="M25 22V10C25 9.44772 24.5523 9 24 9H19C18.4477 9 18 9.44772 18 10V22C18 22.5523 18.4477 23 19 23H24C24.5523 23 25 22.5523 25 22Z" stroke="black" stroke-width="2" stroke-linecap="round" stroke-linejoin="round"/>
<path d="M13 9H8C7.44772 9 7 9.44772 7 10V27C7 27.5523 7.44772 28 8 28H13C13.5523 28 14 27.5523 14 27V10C14 9.44772 13.5523 9 13 9Z" stroke="black" stroke-width="2" stroke-linecap="round" stroke-linejoin="round"/>
</svg>
