<svg   viewBox="0 0 32 32" fill="none" xmlns="http://www.w3.org/2000/svg">
<path d="M27 4.99939V26.9994" stroke="black" stroke-width="2" stroke-linecap="round" stroke-linejoin="round"/>
<path d="M10 14L22 14C22.5523 14 23 13.5523 23 13V8C23 7.44772 22.5523 7 22 7L10 7C9.44771 7 9 7.44772 9 8V13C9 13.5523 9.44771 14 10 14Z" stroke="black" stroke-width="2" stroke-linecap="round" stroke-linejoin="round"/>
<path d="M22 18H5C4.44772 18 4 18.4477 4 19V24C4 24.5523 4.44772 25 5 25H22C22.5523 25 23 24.5523 23 24V19C23 18.4477 22.5523 18 22 18Z" stroke="black" stroke-width="2" stroke-linecap="round" stroke-linejoin="round"/>
</svg>
