<svg viewBox="0 0 32 32" xmlns="http://www.w3.org/2000/svg">
<path d="M16 3.99939V6.99939" stroke-width="2" stroke-linecap="round" stroke-linejoin="round"/>
<path d="M16 24.9994V27.9994" stroke-width="2" stroke-linecap="round" stroke-linejoin="round"/>
<path d="M16 13.9994V17.9994" stroke-width="2" stroke-linecap="round" stroke-linejoin="round"/>
<path d="M23 7H9C8.44772 7 8 7.44772 8 8V13C8 13.5523 8.44772 14 9 14H23C23.5523 14 24 13.5523 24 13V8C24 7.44772 23.5523 7 23 7Z" stroke-width="2" stroke-linecap="round" stroke-linejoin="round"/>
<path d="M26 18H6C5.44772 18 5 18.4477 5 19V24C5 24.5523 5.44772 25 6 25H26C26.5523 25 27 24.5523 27 24V19C27 18.4477 26.5523 18 26 18Z" stroke-width="2" stroke-linecap="round" stroke-linejoin="round"/>
</svg>
