<svg   viewBox="0 0 32 32" fill="none" xmlns="http://www.w3.org/2000/svg">
<path d="M28 16H25" stroke="black" stroke-width="2" stroke-linecap="round" stroke-linejoin="round"/>
<path d="M7 16H4" stroke="black" stroke-width="2" stroke-linecap="round" stroke-linejoin="round"/>
<path d="M18 16H14" stroke="black" stroke-width="2" stroke-linecap="round" stroke-linejoin="round"/>
<path d="M25 23V9C25 8.44772 24.5523 8 24 8H19C18.4477 8 18 8.44772 18 9V23C18 23.5523 18.4477 24 19 24H24C24.5523 24 25 23.5523 25 23Z" stroke="black" stroke-width="2" stroke-linecap="round" stroke-linejoin="round"/>
<path d="M13 5H8C7.44772 5 7 5.44772 7 6V26C7 26.5523 7.44772 27 8 27H13C13.5523 27 14 26.5523 14 26V6C14 5.44772 13.5523 5 13 5Z" stroke="black" stroke-width="2" stroke-linecap="round" stroke-linejoin="round"/>
</svg>
