<svg   viewBox="0 0 32 32" fill="none" xmlns="http://www.w3.org/2000/svg">
<path d="M11.4453 12.4436L19.9306 20.9289" stroke="black" stroke-width="2" stroke-linecap="round" stroke-linejoin="round"/>
<path d="M27.0022 26.9791H9.01089L4.37485 22.3431C4.18913 22.1574 4.04181 21.9369 3.9413 21.6942C3.84079 21.4516 3.78906 21.1915 3.78906 20.9289C3.78906 20.6662 3.84079 20.4062 3.9413 20.1635C4.04181 19.9209 4.18913 19.7004 4.37485 19.5147L18.517 5.37253C18.8921 4.99746 19.4008 4.78674 19.9312 4.78674C20.4616 4.78674 20.9703 4.99746 21.3454 5.37253L27.0023 11.0294C27.188 11.2151 27.3353 11.4356 27.4358 11.6782C27.5363 11.9209 27.5881 12.181 27.5881 12.4436C27.5881 12.7062 27.5363 12.9663 27.4358 13.209C27.3353 13.4516 27.188 13.6721 27.0023 13.8578L13.8809 26.9791" stroke="black" stroke-width="2" stroke-linecap="round" stroke-linejoin="round"/>
</svg>
