<svg   viewBox="0 0 32 32" fill="none" xmlns="http://www.w3.org/2000/svg">
<path d="M22.4747 14.4749L23.0856 15.0858C23.2714 15.2715 23.4187 15.492 23.5192 15.7347C23.6197 15.9773 23.6714 16.2374 23.6714 16.5C23.6714 16.7627 23.6197 17.0228 23.5192 17.2654C23.4187 17.5081 23.2714 17.7285 23.0856 17.9143L22.207 18.7929C22.0194 18.9805 21.7651 19.0858 21.4998 19.0858C21.2346 19.0858 20.9803 18.9805 20.7927 18.7929L13.207 11.2071C13.0194 11.0196 12.9141 10.7653 12.9141 10.5C12.9141 10.2348 13.0194 9.98047 13.207 9.79294L14.0856 8.91426C14.2714 8.72854 14.4918 8.58122 14.7345 8.48071C14.9771 8.3802 15.2372 8.32847 15.4998 8.32847C15.7625 8.32847 16.0226 8.3802 16.2652 8.48071C16.5079 8.58122 16.7283 8.72854 16.9141 8.91426L17.525 9.52517L20.9735 6.07665C22.322 4.72813 24.5192 4.64552 25.9042 5.95657C26.2442 6.27801 26.5164 6.66436 26.7045 7.09278C26.8926 7.5212 26.9929 7.98299 26.9995 8.45085C27.0061 8.91871 26.9188 9.38314 26.7428 9.81668C26.5667 10.2502 26.3056 10.6441 25.9747 10.9749L22.4747 14.4749Z" stroke="black" stroke-width="2" stroke-linecap="round" stroke-linejoin="round"/>
<path d="M19.8255 17.8285L12.8255 24.8285C12.3291 25.3253 11.7107 25.6826 11.0324 25.8644C10.3541 26.0463 9.63983 26.0462 8.96153 25.8644L6.03624 27.1414C5.85202 27.2219 5.64785 27.2449 5.45034 27.2075C5.25284 27.1702 5.07117 27.0742 4.92904 26.9321V26.9321C4.82699 26.83 4.75807 26.6996 4.73125 26.5578C4.70444 26.416 4.72098 26.2694 4.77872 26.1371L6.13272 23.0356C5.95085 22.3573 5.95085 21.6431 6.13269 20.9648C6.31454 20.2864 6.67183 19.668 7.16861 19.1716L14.1686 12.1716" stroke="black" stroke-width="2" stroke-linecap="round" stroke-linejoin="round"/>
</svg>
