<svg viewBox="0 0 32 32" xmlns="http://www.w3.org/2000/svg">
<path d="M6 5.00012L26 27.0001" stroke-width="2" stroke-linecap="round" stroke-linejoin="round"/>
<path d="M19.3631 19.6999C18.3818 20.5918 17.0865 21.0573 15.762 20.9942C14.4375 20.9311 13.1923 20.3444 12.3003 19.3632C11.4083 18.3821 10.9426 17.0868 11.0057 15.7622C11.0687 14.4377 11.6552 13.1925 12.6363 12.3004" stroke-width="2" stroke-linecap="round" stroke-linejoin="round"/>
<path d="M9.24931 8.57434C4.15315 11.155 2 16.0001 2 16.0001C2 16.0001 6 24.9992 16 24.9992C18.343 25.0178 20.6567 24.4782 22.7497 23.4248" stroke-width="2" stroke-linecap="round" stroke-linejoin="round"/>
<path d="M26.0755 21.1376C28.8008 18.6967 29.9993 16.0001 29.9993 16.0001C29.9993 16.0001 25.9993 6.99917 15.9993 6.99917C15.1332 6.99775 14.2685 7.06816 13.4141 7.20968" stroke-width="2" stroke-linecap="round" stroke-linejoin="round"/>
<path d="M16.9375 11.0886C18.0002 11.2927 18.9681 11.8358 19.696 12.6365C20.4239 13.4373 20.8726 14.4524 20.9747 15.5297" stroke-width="2" stroke-linecap="round" stroke-linejoin="round"/>
</svg>
