<svg viewBox="0 0 32 32" xmlns="http://www.w3.org/2000/svg">
<path d="M12 21C16.9706 21 21 16.9706 21 12C21 7.02944 16.9706 3 12 3C7.02944 3 3 7.02944 3 12C3 16.9706 7.02944 21 12 21Z" stroke-width="2" stroke-linecap="round" stroke-linejoin="round"/>
<path d="M20 29C24.9706 29 29 24.9706 29 20C29 15.0294 24.9706 11 20 11C15.0294 11 11 15.0294 11 20C11 24.9706 15.0294 29 20 29Z" stroke-width="2" stroke-linecap="round" stroke-linejoin="round"/>
<path d="M15.3125 12.3146L19.6834 16.6855" stroke-width="2" stroke-linecap="round" stroke-linejoin="round"/>
<path d="M12.3125 15.3145L16.6835 19.6854" stroke-width="2" stroke-linecap="round" stroke-linejoin="round"/>
</svg>
