<svg viewBox="0 0 32 32" xmlns="http://www.w3.org/2000/svg">
<path d="M16 28C22.6274 28 28 22.6274 28 16C28 9.37258 22.6274 4 16 4C9.37258 4 4 9.37258 4 16C4 22.6274 9.37258 28 16 28Z" stroke-width="2" stroke-linecap="round" stroke-linejoin="round"/>
<path d="M22 26.3951V22C22 21.7348 21.8946 21.4804 21.7071 21.2929C21.5196 21.1054 21.2652 21 21 21H11C10.7348 21 10.4804 21.1054 10.2929 21.2929C10.1054 21.4804 10 21.7348 10 22V26.3956" stroke-width="2" stroke-linecap="round" stroke-linejoin="round"/>
<path d="M12 21V18C12 17.7348 12.1054 17.4804 12.2929 17.2929C12.4804 17.1054 12.7348 17 13 17H19C19.2652 17 19.5196 17.1054 19.7071 17.2929C19.8946 17.4804 20 17.7348 20 18V21" stroke-width="2" stroke-linecap="round" stroke-linejoin="round"/>
<path d="M18.483 17L16.9822 9.79605C16.7611 8.73465 15.2454 8.73465 15.0243 9.79605L13.5234 17" stroke-width="2" stroke-linecap="round" stroke-linejoin="round"/>
</svg>
