<svg viewBox="0 0 32 32" xmlns="http://www.w3.org/2000/svg">
<path d="M9 13L19 23" stroke-width="2" stroke-linecap="round" stroke-linejoin="round"/>
<path d="M12.7192 22.9218L8.82031 26.8206" stroke-width="2" stroke-linecap="round" stroke-linejoin="round"/>
<path d="M9.21919 19.4218L5.32031 23.3206" stroke-width="2" stroke-linecap="round" stroke-linejoin="round"/>
<path d="M17.0159 11.5254L23.8787 3.87867C24.1572 3.59983 24.4879 3.37861 24.852 3.22763C25.216 3.07666 25.6062 2.99889 26.0004 2.99878C26.3945 2.99867 26.7847 3.07621 27.1489 3.22698C27.513 3.37774 27.8439 3.59878 28.1225 3.87746C28.4012 4.15614 28.6222 4.48699 28.773 4.85112C28.9238 5.21525 29.0013 5.60552 29.0012 5.99963C29.0011 6.39374 28.9233 6.78397 28.7724 7.14801C28.6214 7.51206 28.4002 7.84279 28.1213 8.12131L20.4746 14.9841C20.3735 15.0748 20.2919 15.1852 20.2349 15.3086C20.1779 15.4319 20.1466 15.5655 20.1429 15.7013C20.1392 15.8371 20.1633 15.9723 20.2136 16.0985C20.2639 16.2247 20.3394 16.3394 20.4354 16.4354L21.5858 17.5858C21.7715 17.7715 21.9188 17.992 22.0193 18.2346C22.1198 18.4773 22.1716 18.7373 22.1716 19C22.1716 19.2626 22.1198 19.5227 22.0193 19.7654C21.9188 20.008 21.7715 20.2285 21.5858 20.4142L12 30L2 20L11.5858 10.4142C11.7715 10.2285 11.992 10.0812 12.2346 9.98065C12.4773 9.88015 12.7374 9.82841 13 9.82841C13.2626 9.82841 13.5227 9.88015 13.7654 9.98065C14.008 10.0812 14.2285 10.2285 14.4142 10.4142L15.5646 11.5646C15.6606 11.6606 15.7753 11.7361 15.9015 11.7864C16.0277 11.8367 16.1628 11.8607 16.2987 11.8571C16.4345 11.8534 16.5681 11.8221 16.6914 11.7651C16.8147 11.708 16.9251 11.6265 17.0159 11.5254Z" stroke-width="2" stroke-linecap="round" stroke-linejoin="round"/>
</svg>
