<svg   viewBox="0 0 32 32" fill="none" xmlns="http://www.w3.org/2000/svg">
<path d="M2.5 27H11.5C12.7856 27 14.0423 26.6188 15.1112 25.9046C16.1801 25.1903 17.0132 24.1752 17.5052 22.9874C17.9972 21.7997 18.1259 20.4928 17.8751 19.2319C17.6243 17.971 17.0052 16.8128 16.0962 15.9038C15.1872 14.9948 14.029 14.3757 12.7681 14.1249C11.5072 13.8741 10.2003 14.0028 9.01256 14.4948C7.82484 14.9868 6.80968 15.8199 6.09545 16.8888C5.38122 17.9577 5 19.2144 5 20.5C5 25 2.5 27 2.5 27Z" stroke="black" stroke-width="2" stroke-linecap="round" stroke-linejoin="round"/>
<path d="M14.0547 14.5199C16.4539 11.2864 22.558 3.87866 28.1251 3.87866C28.1251 9.44569 20.7175 15.5497 17.484 17.949" stroke="black" stroke-width="2" stroke-linecap="round" stroke-linejoin="round"/>
<path d="M16.6172 11.3308C18.3144 12.2814 19.7157 13.6827 20.6663 15.3799" stroke="black" stroke-width="2" stroke-linecap="round" stroke-linejoin="round"/>
</svg>
