<svg viewBox="0 0 32 32" xmlns="http://www.w3.org/2000/svg">
<path d="M5 14H27" stroke-width="2" stroke-linecap="round" stroke-linejoin="round"/>
<path d="M12.847 19H7C6.46957 19 5.96086 18.7893 5.58579 18.4142C5.21071 18.0391 5 17.5304 5 17V8C5 6.93913 5.42143 5.92172 6.17157 5.17157C6.92172 4.42143 7.93913 4 9 4H27V17C27 17.5304 26.7893 18.0391 26.4142 18.4142C26.0391 18.7893 25.5304 19 25 19H19.153C19.0097 19 18.8681 19.0308 18.7378 19.0903C18.6075 19.1498 18.4914 19.2366 18.3976 19.3448C18.3037 19.453 18.2342 19.5802 18.1937 19.7176C18.1533 19.8551 18.1428 19.9996 18.1631 20.1414L19 26C19 26.7956 18.6839 27.5587 18.1213 28.1213C17.5587 28.6839 16.7956 29 16 29C15.2044 29 14.4413 28.6839 13.8787 28.1213C13.3161 27.5587 13 26.7956 13 26L13.8369 20.1414C13.8572 19.9996 13.8468 19.8551 13.8063 19.7176C13.7658 19.5802 13.6963 19.453 13.6025 19.3448C13.5086 19.2366 13.3925 19.1498 13.2622 19.0903C13.1319 19.0308 12.9903 19 12.847 19Z" stroke-width="2" stroke-linecap="round" stroke-linejoin="round"/>
<path d="M23 4V10" stroke-width="2" stroke-linecap="round" stroke-linejoin="round"/>
</svg>
