<svg viewBox="0 0 32 32" xmlns="http://www.w3.org/2000/svg">
<path d="M27.8703 15.4355L15.8495 27.4564C15.4744 27.8314 14.9657 28.0421 14.4352 28.0421C13.9048 28.0421 13.3961 27.8314 13.021 27.4564L2.41391 16.8492C2.22819 16.6635 2.08088 16.443 1.98037 16.2004C1.87986 15.9577 1.82813 15.6977 1.82812 15.435C1.82813 15.1724 1.87986 14.9123 1.98037 14.6697C2.08088 14.427 2.22819 14.2065 2.41391 14.0208L14.4347 2L27.8703 15.4355Z" stroke-width="2" stroke-linecap="round" stroke-linejoin="round"/>
<path d="M15.5 17.0007C16.8807 17.0007 18 15.8814 18 14.5007C18 13.12 16.8807 12.0007 15.5 12.0007C14.1193 12.0007 13 13.12 13 14.5007C13 15.8814 14.1193 17.0007 15.5 17.0007Z" stroke-width="2" stroke-linecap="round" stroke-linejoin="round"/>
<path d="M26 25.5C26 23.0007 28.5 20.5 28.5 20.5C28.5 20.5 31 23.0007 31 25.5C31 26.163 30.7366 26.7989 30.2678 27.2678C29.7989 27.7366 29.163 28 28.5 28C27.837 28 27.2011 27.7366 26.7322 27.2678C26.2634 26.7989 26 26.163 26 25.5V25.5Z" stroke-width="2" stroke-linecap="round" stroke-linejoin="round"/>
<path d="M13.7344 12.7329L4.73438 3.73291" stroke-width="2" stroke-linecap="round" stroke-linejoin="round"/>
</svg>
