<svg viewBox="0 0 32 32" xmlns="http://www.w3.org/2000/svg">
<path d="M27.7017 18.6693C27.9081 17.7599 28.008 16.8295 27.9996 15.897C27.9441 9.29336 22.4802 3.93409 15.8766 4.00061C13.0562 4.03009 10.3362 5.05198 8.19409 6.88693C6.05196 8.72188 4.62452 11.2527 4.16229 14.0351C3.70005 16.8176 4.23255 19.674 5.66634 22.103C7.10012 24.532 9.34359 26.3784 12.003 27.3182C12.4555 27.4776 12.9396 27.5262 13.4147 27.4598C13.8899 27.3935 14.3421 27.2141 14.7336 26.9369C15.1252 26.6596 15.4445 26.2926 15.6648 25.8664C15.8852 25.4403 16.0001 24.9675 16 24.4878V24C16 23.2043 16.3161 22.4413 16.8787 21.8787C17.4413 21.3161 18.2044 21 19 21H24.7762C25.4558 21.0005 26.1153 20.7701 26.6468 20.3466C27.1784 19.9232 27.5503 19.3318 27.7017 18.6693V18.6693Z" stroke-width="2" stroke-linecap="round" stroke-linejoin="round"/>
<path d="M16 11C16.8284 11 17.5 10.3284 17.5 9.5C17.5 8.67157 16.8284 8 16 8C15.1716 8 14.5 8.67157 14.5 9.5C14.5 10.3284 15.1716 11 16 11Z"/>
<path d="M10.3672 14.25C11.1956 14.25 11.8672 13.5784 11.8672 12.75C11.8672 11.9216 11.1956 11.25 10.3672 11.25C9.53876 11.25 8.86719 11.9216 8.86719 12.75C8.86719 13.5784 9.53876 14.25 10.3672 14.25Z"/>
<path d="M10.3672 20.75C11.1956 20.75 11.8672 20.0784 11.8672 19.25C11.8672 18.4216 11.1956 17.75 10.3672 17.75C9.53876 17.75 8.86719 18.4216 8.86719 19.25C8.86719 20.0784 9.53876 20.75 10.3672 20.75Z"/>
<path d="M21.6328 14.25C22.4612 14.25 23.1328 13.5784 23.1328 12.75C23.1328 11.9216 22.4612 11.25 21.6328 11.25C20.8044 11.25 20.1328 11.9216 20.1328 12.75C20.1328 13.5784 20.8044 14.25 21.6328 14.25Z"/>
</svg>
