<svg viewBox="0 0 32 32" xmlns="http://www.w3.org/2000/svg">
<path d="M14.5 20C15.8807 20 17 18.8807 17 17.5C17 16.1193 15.8807 15 14.5 15C13.1193 15 12 16.1193 12 17.5C12 18.8807 13.1193 20 14.5 20Z" stroke-width="2" stroke-linecap="round" stroke-linejoin="round"/>
<path d="M4 28.0005L12.7315 19.2678" stroke-width="2" stroke-linecap="round" stroke-linejoin="round"/>
<path d="M4 28.0004L21.4307 25.0952C21.6038 25.0664 21.7663 24.9925 21.9018 24.881C22.0373 24.7695 22.141 24.6243 22.2026 24.46L25 17.0004L15 7.00037L7.54039 9.79772C7.37608 9.85934 7.23088 9.96311 7.11937 10.0986C7.00786 10.2341 6.93397 10.3966 6.90512 10.5697L4 28.0004Z" stroke-width="2" stroke-linecap="round" stroke-linejoin="round"/>
<path d="M25 17.0005L28.2929 13.7076C28.3858 13.6147 28.4594 13.5045 28.5097 13.3831C28.5599 13.2618 28.5858 13.1318 28.5858 13.0005C28.5858 12.8691 28.5599 12.7391 28.5097 12.6178C28.4594 12.4964 28.3858 12.3862 28.2929 12.2934L19.7071 3.70757C19.5196 3.52003 19.2652 3.41467 19 3.41467C18.7348 3.41467 18.4804 3.52003 18.2929 3.70757L15 7.00046" stroke-width="2" stroke-linecap="round" stroke-linejoin="round"/>
</svg>
