<svg viewBox="0 0 32 32" xmlns="http://www.w3.org/2000/svg">
<path d="M16 19.0005V31.0005" stroke-width="2" stroke-linecap="round" stroke-linejoin="round"/>
<path d="M16 19.0005C17.3807 19.0005 18.5 17.8812 18.5 16.5005C18.5 15.1198 17.3807 14.0005 16 14.0005C14.6193 14.0005 13.5 15.1198 13.5 16.5005C13.5 17.8812 14.6193 19.0005 16 19.0005Z" stroke-width="2" stroke-linecap="round" stroke-linejoin="round"/>
<path d="M9 9.00049V4.00049C9 3.73527 9.10536 3.48092 9.29289 3.29338C9.48043 3.10585 9.73478 3.00049 10 3.00049H22C22.2652 3.00049 22.5196 3.10585 22.7071 3.29338C22.8946 3.48092 23 3.73527 23 4.00049V9.00049" stroke-width="2" stroke-linecap="round" stroke-linejoin="round"/>
<path d="M9.00334 9.00049L5.58002 15.9293C5.49879 16.0938 5.46433 16.2773 5.48042 16.46C5.49651 16.6427 5.56252 16.8174 5.67124 16.9651L16.0033 31.0005L26.3354 16.9651C26.4441 16.8174 26.5101 16.6426 26.5262 16.46C26.5423 16.2773 26.5079 16.0937 26.4266 15.9293L23.0033 9.00049H9.00334Z" stroke-width="2" stroke-linecap="round" stroke-linejoin="round"/>
</svg>
