<svg viewBox="0 0 32 32" xmlns="http://www.w3.org/2000/svg">
<path d="M4.58555 21.631L7.60896 4.48444C7.65501 4.22325 7.80294 3.99106 8.02019 3.83893C8.23744 3.68681 8.50622 3.62722 8.76741 3.67328L15.6611 4.88881C15.9223 4.93487 16.1544 5.08279 16.3066 5.30005C16.4587 5.5173 16.5183 5.78608 16.4722 6.04727L13.4334 23.2814C13.2288 24.4418 12.5772 25.4756 11.6187 26.1608C10.6601 26.846 9.47104 27.128 8.30689 26.946C5.81405 26.5555 4.14739 24.116 4.58555 21.631Z" stroke-width="2" stroke-linecap="round" stroke-linejoin="round"/>
<path d="M14.7851 15.6056L23.9055 12.286C24.1547 12.1953 24.4298 12.2073 24.6701 12.3194C24.9105 12.4315 25.0965 12.6345 25.1872 12.8837L27.5814 19.4615C27.6263 19.5849 27.6464 19.716 27.6407 19.8472C27.635 19.9784 27.6035 20.1072 27.548 20.2262C27.4925 20.3452 27.4141 20.4521 27.3173 20.5408C27.2204 20.6296 27.1071 20.6983 26.9837 20.7432L10.5391 26.7286" stroke-width="2" stroke-linecap="round" stroke-linejoin="round"/>
<path d="M27.5 20.3167V26C27.5 26.2652 27.3946 26.5196 27.2071 26.7071C27.0196 26.8947 26.7652 27 26.5 27H9" stroke-width="2" stroke-linecap="round" stroke-linejoin="round"/>
<path d="M9 24C9.82843 24 10.5 23.3284 10.5 22.5C10.5 21.6716 9.82843 21 9 21C8.17157 21 7.5 21.6716 7.5 22.5C7.5 23.3284 8.17157 24 9 24Z"/>
</svg>
