<svg   viewBox="0 0 32 32" fill="none" xmlns="http://www.w3.org/2000/svg">
<path d="M14.2661 4.99809L3.26905 23.9971C3.09309 24.3011 3.00029 24.6461 3 24.9974C2.99971 25.3486 3.09194 25.6938 3.2674 25.9981C3.44286 26.3024 3.69537 26.5551 3.99953 26.7308C4.30368 26.9065 4.64875 26.999 5.00001 26.999H26.9941C27.3453 26.999 27.6904 26.9065 27.9945 26.7308C28.2987 26.5551 28.5512 26.3024 28.7267 25.9981C28.9021 25.6938 28.9944 25.3486 28.9941 24.9974C28.9938 24.6461 28.901 24.3011 28.725 23.9971L17.728 4.99809C17.5523 4.69457 17.2999 4.44258 16.9961 4.2674C16.6923 4.09222 16.3477 4 15.997 4C15.6463 4 15.3018 4.09222 14.998 4.2674C14.6942 4.44258 14.4418 4.69457 14.2661 4.99809V4.99809Z" stroke="black" stroke-width="2" stroke-linecap="round" stroke-linejoin="round"/>
</svg>
