<svg viewBox="0 0 32 32" xmlns="http://www.w3.org/2000/svg">
<path d="M17 9C17 8.44772 16.5523 8 16 8C15.4477 8 15 8.44772 15 9V16C15 16.5523 15.4477 17 16 17H23C23.5523 17 24 16.5523 24 16C24 15.4477 23.5523 15 23 15H17V9Z"/>
<path fill-rule="evenodd" clip-rule="evenodd" d="M16 3C8.8203 3 3 8.8203 3 16C3 23.1797 8.8203 29 16 29C23.1797 29 29 23.1797 29 16C29 8.8203 23.1797 3 16 3ZM5 16C5 9.92487 9.92487 5 16 5C22.0751 5 27 9.92487 27 16C27 22.0751 22.0751 27 16 27C9.92487 27 5 22.0751 5 16Z"/>
</svg>
