<svg   viewBox="0 0 32 32" fill="none" xmlns="http://www.w3.org/2000/svg">
<path d="M7.41406 5H24.5856C24.7834 5 24.9768 5.05865 25.1412 5.16853C25.3057 5.27841 25.4338 5.43459 25.5095 5.61732C25.5852 5.80004 25.605 6.00111 25.5664 6.19509C25.5278 6.38907 25.4326 6.56725 25.2927 6.70711L15.9998 16L6.70696 6.70711C6.5671 6.56725 6.47186 6.38907 6.43328 6.19509C6.39469 6.00111 6.4145 5.80004 6.49018 5.61732C6.56587 5.43459 6.69404 5.27841 6.85849 5.16853C7.02294 5.05865 7.21628 5 7.41406 5Z" stroke="black" stroke-width="2" stroke-linecap="round" stroke-linejoin="round"/>
<path d="M7.41406 27H24.5856C24.7834 27 24.9768 26.9414 25.1412 26.8315C25.3057 26.7216 25.4338 26.5654 25.5095 26.3827C25.5852 26.2 25.605 25.9989 25.5664 25.8049C25.5278 25.6109 25.4326 25.4327 25.2927 25.2929L15.9998 16L6.70696 25.2929C6.5671 25.4327 6.47186 25.6109 6.43328 25.8049C6.39469 25.9989 6.4145 26.2 6.49018 26.3827C6.56587 26.5654 6.69404 26.7216 6.85849 26.8315C7.02294 26.9414 7.21628 27 7.41406 27Z" stroke="black" stroke-width="2" stroke-linecap="round" stroke-linejoin="round"/>
<path d="M22 22H10" stroke="black" stroke-width="2" stroke-linecap="round" stroke-linejoin="round"/>
</svg>
