<svg   viewBox="0 0 32 32" fill="none" xmlns="http://www.w3.org/2000/svg">
<path d="M26.0007 4H6.00073C5.47049 4.00061 4.96213 4.21151 4.58719 4.58646C4.21225 4.9614 4.00134 5.46975 4.00073 6V19.9855C4.00067 19.9904 4 19.9951 4 20C4 20.0049 4.00067 20.0096 4.00073 20.0145V26C4.00134 26.5302 4.21225 27.0386 4.58719 27.4135C4.96213 27.7885 5.47049 27.9994 6.00073 28H26.0007C26.531 27.9994 27.0393 27.7885 27.4143 27.4135C27.7892 27.0386 28.0001 26.5302 28.0007 26V6C28.0001 5.46975 27.7892 4.9614 27.4143 4.58646C27.0393 4.21151 26.531 4.00061 26.0007 4ZM11.051 14.0502C11.2386 13.8627 11.4929 13.7574 11.7581 13.7574C12.0233 13.7574 12.2776 13.8627 12.4652 14.0502L15.0007 16.5858V9C15.0007 8.73478 15.1061 8.48043 15.2936 8.29289C15.4812 8.10536 15.7355 8 16.0007 8C16.2659 8 16.5203 8.10536 16.7078 8.29289C16.8954 8.48043 17.0007 8.73478 17.0007 9V16.5858L19.5363 14.0502C19.6291 13.9573 19.7394 13.8836 19.8607 13.8334C19.982 13.7831 20.1121 13.7573 20.2434 13.7573C20.3747 13.7573 20.5048 13.7831 20.6261 13.8334C20.7474 13.8837 20.8577 13.9573 20.9505 14.0502C21.0434 14.1431 21.1171 14.2533 21.1673 14.3746C21.2176 14.496 21.2434 14.626 21.2434 14.7573C21.2434 14.8887 21.2176 15.0187 21.1673 15.14C21.117 15.2614 21.0434 15.3716 20.9505 15.4645L16.7079 19.7071C16.7011 19.7139 16.6936 19.7198 16.6867 19.7263C16.67 19.7421 16.6534 19.7579 16.6357 19.7725C16.6273 19.7794 16.6184 19.7853 16.6098 19.7919C16.5924 19.8052 16.5752 19.8187 16.557 19.831C16.5499 19.8357 16.5424 19.8396 16.5353 19.8441C16.5148 19.8571 16.4943 19.87 16.4728 19.8815C16.4675 19.8843 16.462 19.8866 16.4566 19.8893C16.4329 19.9015 16.4089 19.9132 16.3842 19.9235C16.3806 19.925 16.3768 19.9261 16.3732 19.9275C16.3467 19.9382 16.3198 19.9481 16.2922 19.9565C16.2885 19.9577 16.2847 19.9584 16.2811 19.9594C16.2536 19.9674 16.2259 19.9747 16.1976 19.9804C16.1894 19.9821 16.181 19.9827 16.1727 19.9842C16.1489 19.9883 16.125 19.9926 16.1006 19.9949C16.0342 20.0017 15.9673 20.0017 15.9009 19.9949C15.8765 19.9926 15.8526 19.9883 15.8287 19.9842C15.8205 19.9827 15.8121 19.9821 15.8039 19.9804C15.7756 19.9747 15.7479 19.9674 15.7204 19.9594C15.7167 19.9584 15.713 19.9577 15.7093 19.9565C15.6816 19.9481 15.6545 19.9381 15.6279 19.9274C15.6245 19.926 15.6208 19.925 15.6173 19.9235C15.5925 19.9132 15.5685 19.9015 15.5448 19.8893C15.5395 19.8865 15.5339 19.8843 15.5286 19.8815C15.5072 19.87 15.4866 19.8571 15.4662 19.8441C15.459 19.8396 15.4515 19.8357 15.4445 19.831C15.4263 19.8187 15.4091 19.8052 15.3917 19.7919C15.3831 19.7853 15.3741 19.7794 15.3658 19.7725C15.3485 19.7583 15.3324 19.7428 15.3161 19.7275C15.3087 19.7206 15.3008 19.7144 15.2936 19.7071L11.051 15.4645C10.8634 15.2769 10.7581 15.0225 10.7581 14.7573C10.7581 14.4921 10.8635 14.2377 11.051 14.0502V14.0502ZM26.0007 26H6.00073V21L9.58581 20.9999L12.0001 23.4144C12.1854 23.6007 12.4058 23.7483 12.6485 23.8488C12.8912 23.9493 13.1515 24.0007 13.4142 24H18.5858C18.8486 24.0007 19.1088 23.9493 19.3516 23.8487C19.5943 23.7482 19.8147 23.6005 20 23.4142L22.4142 21H26.0016L26.002 26H26.0007Z" fill="black"/>
</svg>
