<svg   viewBox="0 0 32 32" fill="none" xmlns="http://www.w3.org/2000/svg">
<path d="M28 6H4C3.46975 6.00061 2.9614 6.21151 2.58646 6.58646C2.21151 6.9614 2.00061 7.46975 2 8V11C2.00061 11.5302 2.21151 12.0386 2.58646 12.4135C2.9614 12.7885 3.46975 12.9994 4 13V24C4.00061 24.5302 4.21151 25.0386 4.58646 25.4135C4.9614 25.7885 5.46975 25.9994 6 26H26C26.5302 25.9994 27.0386 25.7885 27.4135 25.4135C27.7885 25.0386 27.9994 24.5302 28 24V13C28.5302 12.9994 29.0386 12.7885 29.4135 12.4135C29.7885 12.0386 29.9994 11.5302 30 11V8C29.9994 7.46975 29.7885 6.9614 29.4135 6.58646C29.0386 6.21151 28.5302 6.00061 28 6V6ZM19 18H13C12.7348 18 12.4804 17.8946 12.2929 17.7071C12.1054 17.5196 12 17.2652 12 17C12 16.7348 12.1054 16.4804 12.2929 16.2929C12.4804 16.1054 12.7348 16 13 16H19C19.2652 16 19.5196 16.1054 19.7071 16.2929C19.8946 16.4804 20 16.7348 20 17C20 17.2652 19.8946 17.5196 19.7071 17.7071C19.5196 17.8946 19.2652 18 19 18ZM28 11H4V8H28L28.0012 11H28Z" fill="black"/>
</svg>
