<svg   viewBox="0 0 32 32" fill="none" xmlns="http://www.w3.org/2000/svg">
<path d="M27.8944 8.55274L25.8944 4.55273C25.8114 4.38664 25.6837 4.24695 25.5257 4.14933C25.3677 4.0517 25.1857 3.99999 25 4H7C6.8143 3.99999 6.63226 4.0517 6.47429 4.14933C6.31631 4.24695 6.18865 4.38664 6.10559 4.55273L4.10559 8.55274C4.03615 8.6916 3.99999 8.84474 4 9V26C4.00061 26.5302 4.21151 27.0386 4.58646 27.4135C4.9614 27.7885 5.46975 27.9994 6 28H26C26.5302 27.9994 27.0386 27.7885 27.4135 27.4135C27.7885 27.0386 27.9994 26.5302 28 26V9C28 8.84474 27.9639 8.6916 27.8944 8.55274V8.55274ZM20.9498 19.4645L16.7072 23.7072C16.7004 23.7139 16.6929 23.7198 16.686 23.7263C16.6693 23.7421 16.6527 23.7579 16.6349 23.7725C16.6266 23.7794 16.6176 23.7853 16.6091 23.7919C16.5917 23.8052 16.5745 23.8187 16.5562 23.831C16.5492 23.8357 16.5417 23.8396 16.5345 23.8441C16.5141 23.8571 16.4935 23.87 16.4721 23.8815C16.4668 23.8843 16.4612 23.8866 16.4559 23.8893C16.4322 23.9015 16.4082 23.9132 16.3834 23.9235C16.3799 23.9251 16.3761 23.9261 16.3725 23.9276C16.346 23.9382 16.3191 23.9481 16.2914 23.9565C16.2878 23.9577 16.284 23.9584 16.2803 23.9594C16.2529 23.9674 16.2252 23.9747 16.1968 23.9804C16.1887 23.9821 16.1802 23.9827 16.172 23.9842C16.1481 23.9883 16.1243 23.9926 16.0999 23.9949C16.0335 24.0017 15.9665 24.0017 15.9001 23.9949C15.8757 23.9926 15.8519 23.9883 15.828 23.9842C15.8198 23.9827 15.8113 23.9821 15.8032 23.9804C15.7748 23.9747 15.7471 23.9674 15.7197 23.9594C15.716 23.9584 15.7122 23.9577 15.7086 23.9565C15.6808 23.9481 15.6538 23.9381 15.6272 23.9274C15.6237 23.926 15.6201 23.925 15.6166 23.9235C15.5918 23.9132 15.5678 23.9015 15.5441 23.8893C15.5387 23.8865 15.5332 23.8843 15.5279 23.8815C15.5065 23.87 15.4859 23.8571 15.4654 23.8441C15.4583 23.8396 15.4508 23.8357 15.4438 23.831C15.4255 23.8187 15.4083 23.8052 15.3909 23.7919C15.3824 23.7853 15.3734 23.7794 15.365 23.7725C15.3478 23.7583 15.3317 23.7428 15.3154 23.7275C15.308 23.7206 15.3 23.7144 15.2928 23.7072L11.0502 19.4645C10.8627 19.2769 10.7573 19.0226 10.7573 18.7573C10.7573 18.4921 10.8627 18.2377 11.0502 18.0502C11.2377 17.8627 11.4921 17.7573 11.7573 17.7573C12.0226 17.7573 12.2769 17.8626 12.4645 18.0502L15 20.5858V13C15 12.7348 15.1054 12.4804 15.2929 12.2929C15.4804 12.1054 15.7348 12 16 12C16.2652 12 16.5196 12.1054 16.7071 12.2929C16.8946 12.4804 17 12.7348 17 13V20.5858L19.5355 18.0502C19.6284 17.9573 19.7386 17.8836 19.86 17.8334C19.9813 17.7831 20.1113 17.7573 20.2427 17.7573C20.374 17.7573 20.504 17.7831 20.6254 17.8334C20.7467 17.8837 20.8569 17.9573 20.9498 18.0502C21.0427 18.1431 21.1163 18.2533 21.1666 18.3746C21.2168 18.496 21.2427 18.626 21.2427 18.7573C21.2427 18.8887 21.2168 19.0187 21.1666 19.14C21.1163 19.2614 21.0426 19.3716 20.9498 19.4645L20.9498 19.4645ZM6.61804 8L7.61804 6H24.382L25.382 8H6.61804Z" fill="black"/>
</svg>
