<svg viewBox="0 0 32 32" xmlns="http://www.w3.org/2000/svg">
<path d="M29 15H3V21H29V15Z"/>
<path d="M3 23V26C3.00061 26.5302 3.21151 27.0386 3.58646 27.4135C3.9614 27.7885 4.46975 27.9994 5 28H27C27.5302 27.9994 28.0386 27.7885 28.4135 27.4135C28.7885 27.0386 28.9994 26.5302 29 26V23H3Z"/>
<path d="M29 13V10C28.9994 9.46975 28.7885 8.9614 28.4135 8.58646C28.0386 8.21151 27.5302 8.00061 27 8H22V7C21.9991 6.20463 21.6827 5.4421 21.1203 4.87968C20.5579 4.31727 19.7954 4.00091 19 4H13C12.2046 4.00091 11.4421 4.31727 10.8797 4.87968C10.3173 5.4421 10.0009 6.20463 10 7V8H5C4.46975 8.00061 3.9614 8.21151 3.58646 8.58646C3.21151 8.9614 3.00061 9.46975 3 10V13H29ZM12 7C12.0003 6.73488 12.1058 6.4807 12.2932 6.29323C12.4807 6.10576 12.7349 6.0003 13 6H19C19.2651 6.0003 19.5193 6.10576 19.7068 6.29323C19.8942 6.4807 19.9997 6.73488 20 7V8H12V7Z"/>
</svg>
