<svg   viewBox="0 0 32 32" fill="none" xmlns="http://www.w3.org/2000/svg">
<path d="M25 4H20.4673C19.9055 3.37086 19.2172 2.86748 18.4473 2.52282C17.6775 2.17816 16.8435 2 16 2C15.1565 2 14.3225 2.17816 13.5527 2.52282C12.7828 2.86748 12.0945 3.37086 11.5327 4H7C6.46975 4.00061 5.9614 4.21151 5.58646 4.58646C5.21151 4.9614 5.00061 5.46975 5 6V27C5.00061 27.5302 5.21151 28.0386 5.58646 28.4135C5.9614 28.7885 6.46975 28.9994 7 29H25C25.5302 28.9994 26.0386 28.7885 26.4135 28.4135C26.7885 28.0386 26.9994 27.5302 27 27V6C26.9994 5.46975 26.7885 4.9614 26.4135 4.58646C26.0386 4.21151 25.5302 4.00061 25 4V4ZM16 4C17.0605 4.00121 18.0772 4.42303 18.8271 5.17291C19.577 5.9228 19.9988 6.93951 20 8H12C12.0012 6.93951 12.423 5.9228 13.1729 5.17291C13.9228 4.42303 14.9395 4.00121 16 4ZM20 20H12C11.7348 20 11.4804 19.8946 11.2929 19.7071C11.1054 19.5196 11 19.2652 11 19C11 18.7348 11.1054 18.4804 11.2929 18.2929C11.4804 18.1054 11.7348 18 12 18H20C20.2652 18 20.5196 18.1054 20.7071 18.2929C20.8946 18.4804 21 18.7348 21 19C21 19.2652 20.8946 19.5196 20.7071 19.7071C20.5196 19.8946 20.2652 20 20 20ZM20 16H12C11.7348 16 11.4804 15.8946 11.2929 15.7071C11.1054 15.5196 11 15.2652 11 15C11 14.7348 11.1054 14.4804 11.2929 14.2929C11.4804 14.1054 11.7348 14 12 14H20C20.2652 14 20.5196 14.1054 20.7071 14.2929C20.8946 14.4804 21 14.7348 21 15C21 15.2652 20.8946 15.5196 20.7071 15.7071C20.5196 15.8946 20.2652 16 20 16Z" fill="black"/>
</svg>
