<svg   viewBox="0 0 32 32" fill="none" xmlns="http://www.w3.org/2000/svg">
<path d="M27.0009 3.99927H9C8.73478 3.99927 8.48043 4.10462 8.29289 4.29216C8.10536 4.4797 8 4.73405 8 4.99927C8 5.26448 8.10536 5.51884 8.29289 5.70637C8.48043 5.89391 8.73478 5.99927 9 5.99927H26.0009V22.9994C26.0009 23.2646 26.1062 23.519 26.2937 23.7065C26.4813 23.894 26.7356 23.9994 27.0009 23.9994C27.2661 23.9994 27.5204 23.894 27.708 23.7065C27.8955 23.519 28.0009 23.2646 28.0009 22.9994V4.99927C28.0009 4.73405 27.8955 4.4797 27.708 4.29216C27.5204 4.10463 27.2661 3.99927 27.0009 3.99927V3.99927Z" fill="black"/>
<path d="M23.0007 7.99951H5C4.44772 7.99951 4 8.44723 4 8.99951V26.9995C4 27.5518 4.44772 27.9995 5 27.9995H23.0007C23.553 27.9995 24.0007 27.5518 24.0007 26.9995V8.99951C24.0007 8.44723 23.553 7.99951 23.0007 7.99951Z" fill="black"/>
</svg>
