<svg viewBox="0 0 32 32" xmlns="http://www.w3.org/2000/svg">
<path d="M27.0001 3.99902H11.0001C10.7349 3.99904 10.4806 4.1044 10.293 4.29193C10.1055 4.47946 10.0001 4.73381 10.0001 4.99902V9.99915H5C4.73479 9.99916 4.48044 10.1045 4.29291 10.2921C4.10537 10.4796 4.00001 10.7339 4 10.9991V26.9991C4.00001 27.2644 4.10537 27.5187 4.29291 27.7062C4.48044 27.8938 4.73479 27.9991 5 27.9991H21C21.2652 27.9991 21.5196 27.8938 21.7071 27.7062C21.8946 27.5187 22 27.2644 22 26.9991V21.999H27.0001C27.2653 21.999 27.5197 21.8936 27.7072 21.7061C27.8948 21.5186 28.0001 21.2642 28.0001 20.999V4.99902C28.0001 4.73381 27.8948 4.47946 27.7072 4.29193C27.5197 4.1044 27.2653 3.99904 27.0001 3.99902V3.99902ZM26.0001 19.999H22V10.9991C22 10.7339 21.8946 10.4796 21.7071 10.2921C21.5196 10.1045 21.2652 9.99916 21 9.99915H12.0001V5.99902H26.0001V19.999Z"/>
</svg>
