<svg   viewBox="0 0 32 32" fill="none" xmlns="http://www.w3.org/2000/svg">
<path d="M26.6996 10.2844L19.7081 3.29285C19.6981 3.28284 19.6873 3.27405 19.6769 3.26453C19.6634 3.25214 19.6503 3.23932 19.6361 3.22766C19.6267 3.21997 19.6166 3.21326 19.607 3.20587C19.5906 3.19336 19.5745 3.18066 19.5574 3.16913C19.5496 3.16394 19.5414 3.15961 19.5336 3.15466C19.5137 3.14215 19.4939 3.1297 19.4731 3.11853C19.4675 3.11554 19.4617 3.11322 19.4561 3.11035C19.4326 3.09827 19.4089 3.08667 19.3845 3.07648C19.3807 3.07489 19.3766 3.07373 19.3728 3.0722C19.3465 3.06164 19.3198 3.05176 19.2925 3.04345C19.2885 3.04223 19.2844 3.0415 19.2805 3.04034C19.2534 3.03246 19.226 3.0252 19.1979 3.01959C19.189 3.01782 19.1797 3.01703 19.1708 3.0155C19.1476 3.01147 19.1245 3.00738 19.1009 3.00506C19.0677 3.00169 19.0343 3 19.001 3H7C6.46975 3.00061 5.9614 3.21151 5.58646 3.58646C5.21151 3.9614 5.00061 4.46975 5 5V27C5.00061 27.5302 5.21151 28.0386 5.58646 28.4135C5.9614 28.7885 6.46975 28.9994 7 29H25.001C25.5312 28.9994 26.0396 28.7885 26.4145 28.4135C26.7895 28.0386 27.0004 27.5302 27.001 27V11.0193C27.0011 11.0128 27.002 11.0065 27.002 11C27.0021 10.8665 26.9753 10.7344 26.9234 10.6115C26.8715 10.4886 26.7954 10.3773 26.6996 10.2844V10.2844ZM20.2081 20.2072L16.7081 23.7072C16.7052 23.71 16.702 23.7124 16.6991 23.7153C16.6785 23.7354 16.6573 23.7549 16.635 23.7732C16.6228 23.7832 16.6099 23.792 16.5973 23.8014C16.5837 23.8115 16.5704 23.822 16.5563 23.8315C16.5418 23.8412 16.5267 23.8497 16.5117 23.8586C16.4987 23.8664 16.4859 23.8746 16.4724 23.8818C16.4574 23.8899 16.4419 23.8967 16.4266 23.9039C16.4123 23.9106 16.3983 23.9178 16.3837 23.9238C16.3689 23.9299 16.3538 23.9349 16.3387 23.9402C16.323 23.9459 16.3074 23.952 16.2913 23.9569C16.2763 23.9614 16.2611 23.9647 16.246 23.9685C16.2295 23.9727 16.2131 23.9773 16.1963 23.9806C16.1789 23.9841 16.1613 23.9861 16.1438 23.9886C16.129 23.9908 16.1146 23.9936 16.0997 23.995C16.0668 23.9983 16.0339 24 16.001 24C15.968 24 15.9351 23.9983 15.9023 23.995C15.8874 23.9936 15.8729 23.9908 15.8582 23.9886C15.8406 23.9861 15.8231 23.9841 15.8056 23.9806C15.7888 23.9773 15.7725 23.9727 15.756 23.9685C15.7408 23.9647 15.7256 23.9614 15.7107 23.9569C15.6946 23.952 15.679 23.9459 15.6632 23.9402C15.6482 23.9349 15.6331 23.9299 15.6183 23.9238C15.6037 23.9178 15.5897 23.9106 15.5754 23.9039C15.5601 23.8967 15.5446 23.8898 15.5295 23.8818C15.5161 23.8746 15.5033 23.8664 15.4902 23.8586C15.4753 23.8497 15.4601 23.8412 15.4456 23.8315C15.4315 23.822 15.4182 23.8115 15.4047 23.8014C15.3921 23.792 15.3791 23.7832 15.3669 23.7732C15.3451 23.7552 15.3243 23.736 15.304 23.7163C15.3007 23.7131 15.2971 23.7104 15.2939 23.7072L11.7939 20.2072C11.6063 20.0196 11.501 19.7653 11.501 19.5C11.501 19.2348 11.6063 18.9805 11.7939 18.7929C11.9814 18.6054 12.2357 18.5 12.501 18.5C12.7662 18.5 13.0205 18.6054 13.2081 18.7929L15.001 20.5858V15C15.001 14.7348 15.1063 14.4804 15.2939 14.2929C15.4814 14.1054 15.7358 14 16.001 14C16.2662 14 16.5205 14.1054 16.7081 14.2929C16.8956 14.4804 17.001 14.7348 17.001 15V20.5858L18.7939 18.7929C18.8867 18.7001 18.997 18.6264 19.1183 18.5761C19.2396 18.5259 19.3697 18.5 19.501 18.5C19.6323 18.5 19.7624 18.5259 19.8837 18.5762C20.005 18.6264 20.1152 18.7001 20.2081 18.7929C20.301 18.8858 20.3746 18.996 20.4249 19.1174C20.4751 19.2387 20.501 19.3687 20.501 19.5001C20.501 19.6314 20.4751 19.7614 20.4249 19.8827C20.3746 20.0041 20.3009 20.1143 20.2081 20.2072V20.2072ZM19.001 11V5.41419L24.5867 11H19.001Z" fill="black"/>
</svg>
