<svg viewBox="0 0 32 32" xmlns="http://www.w3.org/2000/svg">
<path d="M26.6996 10.2844L19.7081 3.29285C19.6981 3.28284 19.6873 3.27405 19.6769 3.26453C19.6634 3.25214 19.6503 3.23932 19.6361 3.22766C19.6267 3.21997 19.6166 3.21326 19.607 3.20587C19.5906 3.19336 19.5745 3.18066 19.5574 3.16913C19.5496 3.16394 19.5414 3.15961 19.5336 3.15466C19.5137 3.14215 19.4939 3.1297 19.4731 3.11853C19.4675 3.11554 19.4617 3.11322 19.4561 3.11035C19.4326 3.09827 19.4089 3.08667 19.3845 3.07648C19.3807 3.07489 19.3766 3.07373 19.3728 3.0722C19.3465 3.06164 19.3198 3.05176 19.2925 3.04345C19.2885 3.04223 19.2844 3.0415 19.2805 3.04034C19.2534 3.03246 19.226 3.0252 19.1979 3.01959C19.189 3.01782 19.1797 3.01703 19.1708 3.0155C19.1476 3.01147 19.1245 3.00738 19.1009 3.00506C19.0677 3.00169 19.0343 3 19.001 3H7C6.46975 3.00061 5.9614 3.21151 5.58646 3.58646C5.21151 3.9614 5.00061 4.46975 5 5V27C5.00061 27.5302 5.21151 28.0386 5.58646 28.4135C5.9614 28.7885 6.46975 28.9994 7 29H25.001C25.5312 28.9994 26.0396 28.7885 26.4145 28.4135C26.7895 28.0386 27.0004 27.5302 27.001 27V11.0193C27.0011 11.0128 27.002 11.0065 27.002 11C27.0021 10.8665 26.9753 10.7344 26.9234 10.6115C26.8715 10.4886 26.7954 10.3773 26.6996 10.2844V10.2844ZM20.6822 23.682C20.4946 23.8695 20.2403 23.9749 19.9751 23.9749C19.7099 23.9749 19.4556 23.8695 19.268 23.682L17.8949 22.3089C16.9591 22.896 15.8398 23.118 14.7508 22.9322C13.6618 22.7465 12.6794 22.1661 11.9911 21.302C11.3029 20.4379 10.957 19.3505 11.0196 18.2475C11.0823 17.1446 11.549 16.1033 12.3306 15.3226C13.1123 14.542 14.1541 14.0765 15.2571 14.0153C16.3601 13.954 17.4471 14.3012 18.3104 14.9905C19.1737 15.6798 19.7528 16.663 19.9372 17.7522C20.1216 18.8415 19.8983 19.9604 19.31 20.8955L20.6822 22.2677C20.7751 22.3606 20.8487 22.4708 20.899 22.5921C20.9492 22.7135 20.9751 22.8435 20.9751 22.9749C20.9751 23.1062 20.9492 23.2362 20.899 23.3576C20.8487 23.4789 20.7751 23.5891 20.6822 23.682V23.682ZM19.001 11V5.41419L24.5867 11H19.001Z"/>
<path d="M15.4961 16.0012C14.9182 16.0017 14.3583 16.2025 13.9119 16.5694C13.4655 16.9363 13.16 17.4467 13.0477 18.0136C12.9353 18.5804 13.023 19.1687 13.2957 19.6782C13.5684 20.1877 14.0093 20.5868 14.5434 20.8077C15.0774 21.0285 15.6715 21.0574 16.2244 20.8894C16.7773 20.7214 17.2549 20.3668 17.5757 19.8862C17.8965 19.4055 18.0408 18.8285 17.984 18.2535C17.9271 17.6784 17.6726 17.1408 17.2638 16.7323C17.0319 16.5 16.7563 16.3158 16.4529 16.1904C16.1495 16.0649 15.8244 16.0006 15.4961 16.0012V16.0012Z"/>
</svg>
