<svg   viewBox="0 0 32 32" fill="none" xmlns="http://www.w3.org/2000/svg">
<path d="M10.001 28C10.001 28.2652 9.8956 28.5196 9.70807 28.7071C9.52053 28.8946 9.26619 29 9.00098 29H7C6.46975 28.9994 5.9614 28.7885 5.58646 28.4135C5.21151 28.0386 5.00061 27.5302 5 27V23C5 22.7348 5.10536 22.4804 5.29289 22.2929C5.48043 22.1054 5.73478 22 6 22C6.26522 22 6.51957 22.1054 6.70711 22.2929C6.89464 22.4804 7 22.7348 7 23V27H9.00098C9.26619 27 9.52053 27.1054 9.70807 27.2929C9.8956 27.4804 10.001 27.7348 10.001 28ZM10.001 3H7C6.46975 3.00061 5.9614 3.21151 5.58646 3.58646C5.21151 3.9614 5.00061 4.46975 5 5V8C5 8.26522 5.10536 8.51957 5.29289 8.70711C5.48043 8.89464 5.73478 9 6 9C6.26522 9 6.51957 8.89464 6.70711 8.70711C6.89464 8.51957 7 8.26522 7 8V5H10.001C10.2662 5 10.5205 4.89464 10.7081 4.70711C10.8956 4.51957 11.001 4.26522 11.001 4C11.001 3.73478 10.8956 3.48043 10.7081 3.29289C10.5205 3.10536 10.2662 3 10.001 3V3ZM27.002 11C27.0021 10.8664 26.9753 10.7341 26.9232 10.611C26.8711 10.4879 26.7948 10.3766 26.6989 10.2836L19.7081 3.29285C19.7014 3.28609 19.6938 3.28024 19.687 3.27369C19.6703 3.25794 19.6537 3.2421 19.6359 3.22752C19.6275 3.22057 19.6184 3.21457 19.6097 3.20792C19.5925 3.19464 19.5753 3.18122 19.5573 3.16907C19.55 3.16421 19.5423 3.16016 19.5349 3.15549C19.5146 3.14265 19.4943 3.1299 19.4731 3.11851C19.4678 3.11567 19.4622 3.11343 19.4568 3.11069C19.4332 3.09851 19.4092 3.08677 19.3844 3.07647C19.3809 3.07498 19.3771 3.07391 19.3735 3.07246C19.3469 3.06179 19.3201 3.05185 19.2924 3.04344C19.2887 3.04231 19.2849 3.04163 19.2811 3.04053C19.2538 3.03255 19.2261 3.02525 19.1979 3.01961C19.1891 3.01785 19.1801 3.01708 19.1713 3.01556C19.148 3.01156 19.1247 3.00741 19.1008 3.00504C19.0676 3.0017 19.0343 3.00001 19.001 3H15.001C14.7358 3 14.4814 3.10536 14.2939 3.29289C14.1063 3.48043 14.001 3.73478 14.001 4C14.001 4.26522 14.1063 4.51957 14.2939 4.70711C14.4814 4.89464 14.7358 5 15.001 5H18.001V11C18.001 11.2652 18.1064 11.5196 18.2939 11.7071C18.4814 11.8946 18.7358 12 19.001 12H25.001V17C25.001 17.2652 25.1063 17.5196 25.2939 17.7071C25.4814 17.8946 25.7358 18 26.001 18C26.2662 18 26.5205 17.8946 26.7081 17.7071C26.8956 17.5196 27.001 17.2652 27.001 17V11.0199C27.0011 11.0132 27.002 11.0067 27.002 11ZM26.001 21C25.7358 21 25.4814 21.1054 25.2939 21.2929C25.1064 21.4804 25.001 21.7348 25.001 22V27H24.001C23.7358 27 23.4814 27.1054 23.2939 27.2929C23.1063 27.4804 23.001 27.7348 23.001 28C23.001 28.2652 23.1063 28.5196 23.2939 28.7071C23.4814 28.8946 23.7358 29 24.001 29H25.001C25.5312 28.9994 26.0396 28.7885 26.4145 28.4135C26.7895 28.0386 27.0004 27.5302 27.001 27V22C27.001 21.7348 26.8956 21.4804 26.7081 21.2929C26.5205 21.1054 26.2662 21 26.001 21V21ZM6.00098 19C6.26619 19 6.52053 18.8946 6.70807 18.7071C6.8956 18.5196 7.00096 18.2652 7.00098 18V13C7.00098 12.7348 6.89562 12.4804 6.70808 12.2929C6.52055 12.1054 6.26619 12 6.00098 12C5.73576 12 5.48141 12.1054 5.29387 12.2929C5.10633 12.4804 5.00098 12.7348 5.00098 13V18C5.00099 18.2652 5.10635 18.5196 5.29388 18.7071C5.48142 18.8946 5.73576 19 6.00098 19V19ZM19.001 27H14.001C13.7358 27 13.4814 27.1054 13.2939 27.2929C13.1063 27.4804 13.001 27.7348 13.001 28C13.001 28.2652 13.1063 28.5196 13.2939 28.7071C13.4814 28.8946 13.7358 29 14.001 29H19.001C19.2662 29 19.5205 28.8946 19.7081 28.7071C19.8956 28.5196 20.001 28.2652 20.001 28C20.001 27.7348 19.8956 27.4804 19.7081 27.2929C19.5205 27.1054 19.2662 27 19.001 27Z" fill="black"/>
</svg>
