<svg viewBox="0 0 32 32" xmlns="http://www.w3.org/2000/svg">
<path d="M26.6996 10.2844L19.7081 3.29285C19.6981 3.28284 19.6873 3.27405 19.6769 3.26453C19.6634 3.25214 19.6503 3.23932 19.6361 3.22766C19.6267 3.21997 19.6166 3.21326 19.607 3.20587C19.5906 3.19336 19.5745 3.18066 19.5574 3.16913C19.5496 3.16394 19.5414 3.15961 19.5336 3.15466C19.5137 3.14215 19.4939 3.1297 19.4731 3.11853C19.4675 3.11554 19.4617 3.11322 19.4561 3.11035C19.4326 3.09827 19.4089 3.08667 19.3845 3.07648C19.3807 3.07489 19.3766 3.07373 19.3728 3.0722C19.3465 3.06164 19.3198 3.05176 19.2925 3.04345C19.2885 3.04223 19.2844 3.0415 19.2805 3.04034C19.2534 3.03246 19.226 3.0252 19.1979 3.01959C19.189 3.01782 19.1797 3.01703 19.1708 3.0155C19.1476 3.01147 19.1245 3.00738 19.1009 3.00506C19.0677 3.00169 19.0343 3 19.001 3H7C6.46975 3.00061 5.9614 3.21151 5.58646 3.58646C5.21151 3.9614 5.00061 4.46975 5 5V27C5.00061 27.5302 5.21151 28.0386 5.58646 28.4135C5.9614 28.7885 6.46975 28.9994 7 29H25.001C25.5312 28.9994 26.0396 28.7885 26.4145 28.4135C26.7895 28.0386 27.0004 27.5302 27.001 27V11.0193C27.0011 11.0128 27.002 11.0065 27.002 11C27.0021 10.8665 26.9753 10.7344 26.9234 10.6115C26.8715 10.4886 26.7954 10.3773 26.6996 10.2844V10.2844ZM19.7044 21.2929C19.7976 21.3857 19.8715 21.4959 19.922 21.6174C19.9725 21.7388 19.9986 21.8689 19.9987 22.0004C19.9988 22.1319 19.973 22.2621 19.9228 22.3836C19.8725 22.5051 19.7988 22.6155 19.7058 22.7085C19.6128 22.8015 19.5024 22.8752 19.3809 22.9255C19.2594 22.9757 19.1292 23.0015 18.9977 23.0014C18.8662 23.0013 18.7361 22.9752 18.6147 22.9247C18.4933 22.8742 18.383 22.8003 18.2902 22.7071L15.9973 20.4142L13.7044 22.7071C13.6116 22.8003 13.5014 22.8742 13.38 22.9247C13.2586 22.9752 13.1284 23.0013 12.9969 23.0014C12.8654 23.0015 12.7352 22.9757 12.6137 22.9255C12.4922 22.8752 12.3818 22.8015 12.2888 22.7085C12.1958 22.6155 12.1221 22.5051 12.0719 22.3836C12.0216 22.2621 11.9958 22.1319 11.9959 22.0004C11.9961 21.8689 12.0221 21.7388 12.0726 21.6174C12.1231 21.4959 12.1971 21.3857 12.2902 21.2929L14.5831 19L12.2902 16.7071C12.1973 16.6143 12.1235 16.504 12.0732 16.3827C12.0229 16.2613 11.9969 16.1312 11.9969 15.9999C11.9969 15.8685 12.0227 15.7384 12.073 15.617C12.1232 15.4956 12.1969 15.3854 12.2898 15.2925C12.3827 15.1996 12.493 15.1259 12.6143 15.0756C12.7357 15.0254 12.8658 14.9995 12.9972 14.9996C13.1286 14.9996 13.2586 15.0255 13.38 15.0759C13.5013 15.1262 13.6116 15.2 13.7044 15.2929L15.9973 17.5858L18.2902 15.2929C18.3831 15.2 18.4933 15.1262 18.6147 15.0759C18.736 15.0255 18.8661 14.9996 18.9974 14.9996C19.1288 14.9995 19.2589 15.0254 19.3803 15.0756C19.5017 15.1259 19.612 15.1996 19.7049 15.2925C19.7977 15.3854 19.8714 15.4956 19.9217 15.617C19.9719 15.7384 19.9978 15.8685 19.9977 15.9999C19.9977 16.1312 19.9718 16.2613 19.9214 16.3827C19.8711 16.504 19.7974 16.6143 19.7044 16.7071L17.4115 19L19.7044 21.2929ZM19.001 11V5.41419L24.5867 11H19.001Z"/>
</svg>
