<svg   viewBox="0 0 32 32" fill="none" xmlns="http://www.w3.org/2000/svg">
<path d="M26.6996 11.2844L19.7081 4.29285C19.6981 4.28284 19.6873 4.27405 19.6769 4.26453C19.6634 4.25214 19.6503 4.23932 19.6361 4.22766C19.6267 4.21997 19.6166 4.21326 19.607 4.20587C19.5906 4.19336 19.5745 4.18066 19.5574 4.16913C19.5496 4.16394 19.5414 4.15961 19.5336 4.15466C19.5137 4.14215 19.4939 4.1297 19.4731 4.11853C19.4675 4.11554 19.4617 4.11322 19.4561 4.11035C19.4326 4.09827 19.4089 4.08667 19.3845 4.07648C19.3807 4.07489 19.3766 4.07373 19.3728 4.0722C19.3465 4.06164 19.3198 4.05176 19.2925 4.04345C19.2885 4.04223 19.2844 4.0415 19.2805 4.04034C19.2534 4.03246 19.226 4.0252 19.1979 4.01959C19.189 4.01782 19.1797 4.01703 19.1708 4.0155C19.1476 4.01147 19.1245 4.00738 19.1009 4.00506C19.0677 4.00169 19.0343 4 19.001 4H7C6.46957 4 5.96086 4.21072 5.58579 4.58579C5.21072 4.96086 5 5.46957 5 6V17C5 17.1313 5.02586 17.2614 5.07612 17.3827C5.12637 17.504 5.20003 17.6143 5.29289 17.7071C5.38575 17.8 5.49599 17.8736 5.61731 17.9239C5.73864 17.9741 5.86868 18 6 18H26.001C26.1323 18 26.2623 17.9741 26.3837 17.9239C26.505 17.8736 26.6152 17.8 26.7081 17.7071C26.8009 17.6143 26.8746 17.504 26.9249 17.3827C26.9751 17.2614 27.001 17.1313 27.001 17V12.0193C27.0011 12.0128 27.002 12.0065 27.002 12C27.0021 11.8665 26.9753 11.7344 26.9234 11.6115C26.8715 11.4886 26.7954 11.3773 26.6996 11.2844V11.2844ZM19.001 12V6.41419L24.5867 12H19.001ZM8.00098 20H6.00098C5.73576 20 5.48142 20.1054 5.29388 20.2929C5.10635 20.4804 5.00099 20.7348 5.00098 21V27C5.00098 27.2652 5.10633 27.5196 5.29387 27.7071C5.48141 27.8946 5.73576 28 6.00098 28C6.26619 28 6.52055 27.8946 6.70808 27.7071C6.89562 27.5196 7.00098 27.2652 7.00098 27V26H8.00098C8.79663 26 9.55969 25.6839 10.1223 25.1213C10.6849 24.5587 11.001 23.7956 11.001 23C11.001 22.2044 10.6849 21.4413 10.1223 20.8787C9.55969 20.3161 8.79663 20 8.00098 20ZM8.00098 24H7.00098V22H8.00098C8.26619 22 8.52055 22.1054 8.70808 22.2929C8.89562 22.4804 9.00098 22.7348 9.00098 23C9.00098 23.2652 8.89562 23.5196 8.70808 23.7071C8.52055 23.8946 8.26619 24 8.00098 24V24ZM15.501 20H14.001C13.7358 20 13.4814 20.1054 13.2939 20.2929C13.1064 20.4804 13.001 20.7348 13.001 21V27C13.001 27.2652 13.1064 27.5196 13.2939 27.7071C13.4814 27.8946 13.7358 28 14.001 28H15.501C16.5618 28 17.5793 27.5786 18.3294 26.8284C19.0795 26.0783 19.501 25.0609 19.501 24C19.501 22.9391 19.0795 21.9217 18.3294 21.1716C17.5793 20.4214 16.5618 20 15.501 20ZM15.501 26H15.001V22H15.501C16.0314 22 16.5401 22.2107 16.9152 22.5858C17.2903 22.9609 17.501 23.4696 17.501 24C17.501 24.5304 17.2903 25.0391 16.9152 25.4142C16.5401 25.7893 16.0314 26 15.501 26V26ZM27.001 21C27.001 21.2652 26.8956 21.5196 26.7081 21.7071C26.5205 21.8946 26.2662 22 26.001 22H23.501V23.5H25.501C25.7662 23.5 26.0205 23.6054 26.2081 23.7929C26.3956 23.9804 26.501 24.2348 26.501 24.5C26.501 24.7652 26.3956 25.0196 26.2081 25.2071C26.0205 25.3946 25.7662 25.5 25.501 25.5H23.501V27C23.501 27.2652 23.3956 27.5196 23.2081 27.7071C23.0205 27.8946 22.7662 28 22.501 28C22.2358 28 21.9814 27.8946 21.7939 27.7071C21.6063 27.5196 21.501 27.2652 21.501 27V21C21.501 20.7348 21.6064 20.4804 21.7939 20.2929C21.9814 20.1054 22.2358 20 22.501 20H26.001C26.2662 20 26.5205 20.1054 26.7081 20.2929C26.8956 20.4804 27.001 20.7348 27.001 21Z" fill="black"/>
</svg>
