<svg viewBox="0 0 32 32" xmlns="http://www.w3.org/2000/svg">
<path d="M26.6996 10.2844L19.7081 3.29285C19.6981 3.28284 19.6873 3.27405 19.6769 3.26453C19.6634 3.25214 19.6503 3.23932 19.6361 3.22766C19.6267 3.21997 19.6166 3.21326 19.607 3.20587C19.5906 3.19336 19.5745 3.18066 19.5574 3.16913C19.5496 3.16394 19.5414 3.15961 19.5336 3.15466C19.5137 3.14215 19.4939 3.1297 19.4731 3.11853C19.4675 3.11554 19.4617 3.11322 19.4561 3.11035C19.4326 3.09827 19.4089 3.08667 19.3845 3.07648C19.3807 3.07489 19.3766 3.07373 19.3728 3.0722C19.3465 3.06164 19.3198 3.05176 19.2925 3.04345C19.2885 3.04223 19.2844 3.0415 19.2805 3.04034C19.2534 3.03246 19.226 3.0252 19.1979 3.01959C19.189 3.01782 19.1797 3.01703 19.1708 3.0155C19.1476 3.01147 19.1245 3.00738 19.1009 3.00506C19.0677 3.00169 19.0343 3 19.001 3H7C6.46975 3.00061 5.9614 3.21151 5.58646 3.58646C5.21151 3.9614 5.00061 4.46975 5 5V27C5.00061 27.5302 5.21151 28.0386 5.58646 28.4135C5.9614 28.7885 6.46975 28.9994 7 29H25.001C25.5312 28.9994 26.0396 28.7885 26.4145 28.4135C26.7895 28.0386 27.0004 27.5302 27.001 27V11.0193C27.0011 11.0128 27.002 11.0065 27.002 11C27.0021 10.8665 26.9753 10.7344 26.9234 10.6115C26.8715 10.4886 26.7954 10.3773 26.6996 10.2844V10.2844ZM20.2081 19.2071C20.0205 19.3946 19.7662 19.5 19.501 19.5C19.2358 19.5 18.9814 19.3946 18.7939 19.2071L17.001 17.4142V23C17.001 23.2652 16.8956 23.5196 16.7081 23.7071C16.5205 23.8946 16.2662 24 16.001 24C15.7358 24 15.4814 23.8946 15.2939 23.7071C15.1063 23.5196 15.001 23.2652 15.001 23V17.4142L13.2081 19.2071C13.0205 19.3946 12.7662 19.5 12.501 19.5C12.2357 19.5 11.9814 19.3946 11.7939 19.2071C11.6063 19.0195 11.501 18.7652 11.501 18.4999C11.501 18.2347 11.6063 17.9804 11.7939 17.7928L15.2939 14.2928C15.2971 14.2896 15.3007 14.2869 15.304 14.2837C15.3243 14.2639 15.3451 14.2448 15.3669 14.2268C15.3791 14.2168 15.3921 14.208 15.4047 14.1986C15.4182 14.1885 15.4315 14.178 15.4456 14.1685C15.4601 14.1588 15.4753 14.1503 15.4902 14.1414C15.5033 14.1336 15.5161 14.1254 15.5295 14.1182C15.5446 14.1101 15.5601 14.1033 15.5754 14.0961C15.5897 14.0894 15.6037 14.0822 15.6183 14.0762C15.6331 14.07 15.6482 14.0651 15.6632 14.0598C15.679 14.0541 15.6946 14.048 15.7107 14.0431C15.7256 14.0386 15.7408 14.0353 15.756 14.0315C15.7725 14.0273 15.7888 14.0227 15.8056 14.0194C15.8231 14.0159 15.8406 14.0139 15.8582 14.0114C15.8729 14.0092 15.8874 14.0064 15.9023 14.005C15.9351 14.0017 15.968 14 16.001 14C16.0339 14 16.0668 14.0018 16.0997 14.005C16.1146 14.0064 16.129 14.0092 16.1438 14.0114C16.1613 14.0139 16.1789 14.0159 16.1963 14.0194C16.2131 14.0227 16.2295 14.0273 16.246 14.0315C16.2611 14.0353 16.2763 14.0386 16.2913 14.0431C16.3074 14.048 16.323 14.0541 16.3387 14.0598C16.3538 14.0651 16.3689 14.0701 16.3837 14.0762C16.3983 14.0822 16.4123 14.0894 16.4266 14.0961C16.4419 14.1033 16.4574 14.1102 16.4724 14.1182C16.4859 14.1254 16.4987 14.1336 16.5117 14.1414C16.5267 14.1503 16.5418 14.1588 16.5563 14.1685C16.5704 14.178 16.5837 14.1885 16.5973 14.1986C16.6099 14.208 16.6228 14.2168 16.635 14.2268C16.6573 14.2451 16.6785 14.2646 16.6991 14.2847C16.702 14.2876 16.7052 14.29 16.7081 14.2928L20.2081 17.7929C20.3009 17.8857 20.3746 17.9959 20.4249 18.1173C20.4751 18.2386 20.501 18.3686 20.501 18.5C20.501 18.6313 20.4751 18.7613 20.4249 18.8827C20.3746 19.004 20.3009 19.1142 20.2081 19.2071V19.2071ZM19.001 11V5.41419L24.5867 11H19.001Z"/>
</svg>
