<svg   viewBox="0 0 32 32" fill="none" xmlns="http://www.w3.org/2000/svg">
<path d="M26.7072 8.29291L21.7072 3.29291C21.5196 3.10536 21.2652 3 21 3H11C10.4698 3.00061 9.9614 3.21151 9.58646 3.58646C9.21151 3.9614 9.00061 4.46975 9 5V7H7C6.46975 7.00061 5.9614 7.21151 5.58646 7.58646C5.21151 7.9614 5.00061 8.46975 5 9V27C5.00061 27.5302 5.21151 28.0386 5.58646 28.4135C5.9614 28.7885 6.46975 28.9994 7 29H21C21.5302 28.9994 22.0386 28.7885 22.4135 28.4135C22.7885 28.0386 22.9994 27.5302 23 27V25H25C25.5302 24.9994 26.0386 24.7885 26.4135 24.4135C26.7885 24.0386 26.9994 23.5302 27 23V9C27 8.7348 26.8947 8.48045 26.7072 8.29291V8.29291ZM17 24H11C10.7348 24 10.4804 23.8946 10.2929 23.7071C10.1054 23.5196 10 23.2652 10 23C10 22.7348 10.1054 22.4804 10.2929 22.2929C10.4804 22.1054 10.7348 22 11 22H17C17.2652 22 17.5196 22.1054 17.7071 22.2929C17.8946 22.4804 18 22.7348 18 23C18 23.2652 17.8946 23.5196 17.7071 23.7071C17.5196 23.8946 17.2652 24 17 24ZM17 20H11C10.7348 20 10.4804 19.8946 10.2929 19.7071C10.1054 19.5196 10 19.2652 10 19C10 18.7348 10.1054 18.4804 10.2929 18.2929C10.4804 18.1054 10.7348 18 11 18H17C17.2652 18 17.5196 18.1054 17.7071 18.2929C17.8946 18.4804 18 18.7348 18 19C18 19.2652 17.8946 19.5196 17.7071 19.7071C17.5196 19.8946 17.2652 20 17 20ZM25 23H23V13C23 12.7348 22.8947 12.4805 22.7072 12.2929L17.7072 7.29291C17.5196 7.10536 17.2652 7 17 7H11V5H20.5858L25 9.41425V23Z" fill="black"/>
</svg>
