<svg   viewBox="0 0 32 32" fill="none" xmlns="http://www.w3.org/2000/svg">
<path d="M26.6996 10.2844L19.7081 3.29285C19.6981 3.28284 19.6873 3.27405 19.6769 3.26453C19.6634 3.25214 19.6503 3.23932 19.6361 3.22766C19.6267 3.21997 19.6166 3.21326 19.607 3.20587C19.5906 3.19336 19.5745 3.18066 19.5574 3.16913C19.5496 3.16394 19.5414 3.15961 19.5336 3.15466C19.5137 3.14215 19.4939 3.1297 19.4731 3.11853C19.4675 3.11554 19.4617 3.11322 19.4561 3.11035C19.4326 3.09827 19.4089 3.08667 19.3845 3.07648C19.3807 3.07489 19.3766 3.07373 19.3728 3.0722C19.3465 3.06164 19.3198 3.05176 19.2925 3.04345C19.2885 3.04223 19.2844 3.0415 19.2805 3.04034C19.2534 3.03246 19.226 3.0252 19.1979 3.01959C19.189 3.01782 19.1797 3.01703 19.1708 3.0155C19.1476 3.01147 19.1245 3.00738 19.1009 3.00506C19.0677 3.00169 19.0343 3 19.001 3H7C6.46975 3.00061 5.9614 3.21151 5.58646 3.58646C5.21151 3.9614 5.00061 4.46975 5 5V27C5.00061 27.5302 5.21151 28.0386 5.58646 28.4135C5.9614 28.7885 6.46975 28.9994 7 29H25.001C25.5312 28.9994 26.0396 28.7885 26.4145 28.4135C26.7895 28.0386 27.0004 27.5302 27.001 27V11.0193C27.0011 11.0128 27.002 11.0065 27.002 11C27.0021 10.8665 26.9753 10.7344 26.9234 10.6115C26.8715 10.4886 26.7954 10.3773 26.6996 10.2844V10.2844ZM19.001 20H17.001V22C17.001 22.2652 16.8956 22.5196 16.7081 22.7071C16.5205 22.8946 16.2662 23 16.001 23C15.7358 23 15.4814 22.8946 15.2939 22.7071C15.1063 22.5196 15.001 22.2652 15.001 22V20H13.001C12.7358 20 12.4814 19.8946 12.2939 19.7071C12.1063 19.5196 12.001 19.2652 12.001 19C12.001 18.7348 12.1063 18.4804 12.2939 18.2929C12.4814 18.1054 12.7358 18 13.001 18H15.001V16C15.001 15.7348 15.1063 15.4804 15.2939 15.2929C15.4814 15.1054 15.7358 15 16.001 15C16.2662 15 16.5205 15.1054 16.7081 15.2929C16.8956 15.4804 17.001 15.7348 17.001 16V18H19.001C19.2662 18 19.5205 18.1054 19.7081 18.2929C19.8956 18.4804 20.001 18.7348 20.001 19C20.001 19.2652 19.8956 19.5196 19.7081 19.7071C19.5205 19.8946 19.2662 20 19.001 20ZM19.001 11V5.41419L24.5867 11H19.001Z" fill="black"/>
</svg>
