<svg   viewBox="0 0 32 32" fill="none" xmlns="http://www.w3.org/2000/svg">
<path d="M26 4.00001H21V10.0012C21 10.2664 20.8946 10.5208 20.7071 10.7083C20.5196 10.8959 20.2652 11.0012 20 11.0012H12C11.7348 11.0012 11.4804 10.8959 11.2929 10.7083C11.1054 10.5208 11 10.2664 11 10.0012C11 9.73601 11.1054 9.48166 11.2929 9.29412C11.4804 9.10659 11.7348 9.00123 12 9.00123H19V4.00001H11.4142C11.1514 3.99927 10.8912 4.05067 10.6484 4.15123C10.4057 4.25179 10.1853 4.3995 10 4.58582L4.5857 10C4.39942 10.1853 4.25174 10.4057 4.15121 10.6485C4.05068 10.8913 3.99928 11.1516 4.00001 11.4143V26C4.00061 26.5303 4.21152 27.0386 4.58646 27.4136C4.96141 27.7885 5.46976 27.9994 6.00001 28H26C26.5303 27.9994 27.0386 27.7885 27.4136 27.4136C27.7885 27.0386 27.9994 26.5303 28 26V6.00001C27.9994 5.46976 27.7885 4.96141 27.4136 4.58646C27.0386 4.21152 26.5303 4.00061 26 4.00001V4.00001ZM16 22.0001C15.3078 22.0001 14.6311 21.7948 14.0555 21.4102C13.4799 21.0256 13.0313 20.479 12.7664 19.8394C12.5015 19.1999 12.4322 18.4962 12.5673 17.8172C12.7023 17.1383 13.0357 16.5147 13.5251 16.0252C14.0146 15.5357 14.6383 15.2024 15.3172 15.0673C15.9961 14.9323 16.6999 15.0016 17.3394 15.2665C17.9789 15.5314 18.5256 15.98 18.9102 16.5556C19.2947 17.1311 19.5 17.8078 19.5 18.5001C19.499 19.428 19.1299 20.3176 18.4737 20.9738C17.8176 21.6299 16.9279 21.999 16 22.0001Z" fill="black"/>
</svg>
