<svg   viewBox="0 0 32 32" fill="none" xmlns="http://www.w3.org/2000/svg">
<path d="M27.4143 10L22.0001 4.58607C21.8149 4.39967 21.5945 4.2519 21.3517 4.1513C21.1089 4.0507 20.8486 3.99927 20.5858 4.00001H6C5.46975 4.00061 4.9614 4.21152 4.58646 4.58646C4.21151 4.96141 4.00061 5.46976 4 6.00001V26C4.00061 26.5303 4.21151 27.0386 4.58646 27.4136C4.9614 27.7885 5.46975 27.9994 6 28H9.97827C9.98557 28.0002 9.99268 28.0011 10 28.0011C10.0073 28.0011 10.0144 28.0002 10.0217 28H21.9783C21.9856 28.0002 21.9927 28.0011 22 28.0011C22.0073 28.0011 22.0144 28.0002 22.0217 28H26C26.5302 27.9994 27.0386 27.7885 27.4135 27.4136C27.7885 27.0386 27.9994 26.5303 28 26V11.4143C28.0007 11.1516 27.9493 10.8913 27.8488 10.6485C27.7483 10.4057 27.6006 10.1853 27.4143 10V10ZM26 11.4143V26H23V19.0011C22.9994 18.4709 22.7885 17.9625 22.4135 17.5876C22.0386 17.2126 21.5302 17.0017 21 17.0011H11C10.4698 17.0017 9.9614 17.2126 9.58646 17.5876C9.21151 17.9625 9.00061 18.4709 9 19.0011V26H6V6.00001L20.5857 6.00013L26 11.4143V11.4142L27 11.4143H26ZM20 9.00123C20 9.26644 19.8946 9.52079 19.7071 9.70832C19.5196 9.89585 19.2652 10.0012 19 10.0012H12C11.7348 10.0012 11.4804 9.89587 11.2929 9.70834C11.1054 9.5208 11 9.26645 11 9.00123C11 8.73601 11.1054 8.48166 11.2929 8.29412C11.4804 8.10659 11.7348 8.00123 12 8.00123H19C19.2652 8.00124 19.5196 8.1066 19.7071 8.29414C19.8946 8.48167 20 8.73602 20 9.00123V9.00123Z" fill="black"/>
</svg>
