<svg   viewBox="0 0 32 32" fill="none" xmlns="http://www.w3.org/2000/svg">
<path d="M27 8.99976H16.334L12.8652 6.39917C12.5194 6.14089 12.0996 6.00083 11.668 5.99976H5C4.46973 6.00028 3.96132 6.21116 3.58636 6.58612C3.21141 6.96108 3.00052 7.46948 3 7.99976V24.9998C3.00052 25.53 3.21141 26.0384 3.58636 26.4134C3.96132 26.7884 4.46973 26.9992 5 26.9998H27.1113C27.612 26.9991 28.092 26.7998 28.446 26.4458C28.8001 26.0918 28.9993 25.6118 29 25.1111V10.9998C28.9995 10.4695 28.7886 9.96108 28.4136 9.58612C28.0387 9.21116 27.5303 9.00028 27 8.99976ZM19.0006 19H17.0006V21C17.0006 21.2652 16.8953 21.5196 16.7077 21.7071C16.5202 21.8946 16.2658 22 16.0006 22C15.7354 22 15.481 21.8946 15.2935 21.7071C15.106 21.5196 15.0006 21.2652 15.0006 21V19H13.0006C12.7354 19 12.481 18.8946 12.2935 18.7071C12.106 18.5196 12.0006 18.2652 12.0006 18C12.0006 17.7348 12.106 17.4804 12.2935 17.2929C12.481 17.1054 12.7354 17 13.0006 17H15.0006V15C15.0006 14.7348 15.106 14.4804 15.2935 14.2929C15.481 14.1054 15.7354 14 16.0006 14C16.2658 14 16.5202 14.1054 16.7077 14.2929C16.8953 14.4804 17.0006 14.7348 17.0006 15V17H19.0006C19.2658 17 19.5202 17.1054 19.7077 17.2929C19.8953 17.4804 20.0006 17.7348 20.0006 18C20.0006 18.2652 19.8953 18.5196 19.7077 18.7071C19.5202 18.8946 19.2658 19 19.0006 19Z" fill="black"/>
</svg>
