<svg   viewBox="0 0 32 32" fill="none" xmlns="http://www.w3.org/2000/svg">
<path d="M30.235 13.8306C30.0495 13.5738 29.8057 13.3646 29.5236 13.2202C29.2416 13.0759 28.9294 13.0004 28.6125 13H27V11C26.9994 10.4698 26.7885 9.9614 26.4135 9.58646C26.0386 9.21151 25.5302 9.00061 25 9H16.3334L12.8667 6.40002C12.5201 6.14119 12.0992 6.00092 11.6666 6H5C4.46975 6.00061 3.9614 6.21151 3.58646 6.58646C3.21151 6.9614 3.00061 7.46975 3 8V26C3.00004 26.0353 3.00193 26.0706 3.00568 26.1057C3.00604 26.1091 3.00684 26.1125 3.00726 26.1159C3.01123 26.1502 3.017 26.1842 3.02454 26.2178C3.02649 26.2269 3.02917 26.2357 3.03143 26.2447C3.03851 26.2729 3.04663 26.3007 3.05609 26.3278C3.05951 26.3376 3.06305 26.3472 3.06677 26.3569C3.07727 26.3844 3.08897 26.4113 3.10187 26.4376C3.10571 26.4456 3.10925 26.4536 3.1134 26.4615C3.14838 26.5286 3.19087 26.5914 3.24005 26.6489C3.24762 26.6578 3.25562 26.6661 3.26349 26.6747C3.28107 26.694 3.29932 26.7125 3.31842 26.7303C3.32751 26.7388 3.33655 26.7472 3.34595 26.7554C3.36743 26.7739 3.38971 26.7914 3.41272 26.8081C3.41956 26.8131 3.42609 26.8186 3.4331 26.8234C3.46414 26.8448 3.49638 26.8645 3.52966 26.8823C3.53284 26.884 3.53619 26.8854 3.53937 26.887C3.56937 26.9026 3.60015 26.9166 3.63159 26.929C3.6405 26.9326 3.6496 26.9357 3.65869 26.939C3.68512 26.9486 3.71206 26.9571 3.7395 26.9645C3.75013 26.9674 3.76062 26.9702 3.7713 26.9727C3.79865 26.9791 3.82642 26.9841 3.85455 26.9882C3.86474 26.9897 3.87487 26.9917 3.88513 26.9929C3.92325 26.9975 3.96161 26.9998 4 27H26C26.2099 27 26.4144 26.9339 26.5847 26.8112C26.755 26.6885 26.8823 26.5153 26.9487 26.3162L30.5099 15.6324C30.6097 15.3318 30.6369 15.0117 30.5891 14.6985C30.5413 14.3853 30.42 14.0878 30.235 13.8306V13.8306ZM11.6666 8L15.1333 10.6C15.4799 10.8588 15.9008 10.9991 16.3334 11H25V13H18.3027C17.9078 12.9996 17.5217 13.1165 17.1934 13.3359L14.6973 15H8.677C8.27699 14.9987 7.88587 15.118 7.55464 15.3422C7.2234 15.5665 6.96742 15.8853 6.82007 16.2572L5 20.8074V8H11.6666Z" fill="black"/>
</svg>
