<svg   viewBox="0 0 32 32" fill="none" xmlns="http://www.w3.org/2000/svg">
<path d="M28 8H19.3334L15.8667 5.40002C15.5201 5.14119 15.0992 5.00092 14.6666 5H9C8.46975 5.00061 7.9614 5.21151 7.58646 5.58646C7.21151 5.9614 7.00061 6.46975 7 7V9H5C4.46975 9.00061 3.9614 9.21151 3.58646 9.58646C3.21151 9.9614 3.00061 10.4698 3 11V25C3.00061 25.5302 3.21151 26.0386 3.58646 26.4135C3.9614 26.7885 4.46975 26.9994 5 27H24.1111C24.6119 26.9994 25.092 26.8002 25.4461 26.4461C25.8002 26.092 25.9994 25.6119 26 25.1111V23H28.1111C28.6119 22.9994 29.092 22.8002 29.4461 22.4461C29.8002 22.092 29.9994 21.6119 30 21.1111V10C29.9994 9.46975 29.7885 8.9614 29.4135 8.58646C29.0386 8.21151 28.5302 8.00061 28 8V8ZM28 21H26V14C25.9994 13.4698 25.7885 12.9614 25.4135 12.5865C25.0386 12.2115 24.5302 12.0006 24 12H15.3334L11.8667 9.40003C11.5201 9.14119 11.0992 9.00092 10.6666 9H9V7H14.6666L18.1333 9.59997C18.4799 9.85881 18.9008 9.99908 19.3334 10H28V21Z" fill="black"/>
</svg>
