<svg viewBox="0 0 32 32" xmlns="http://www.w3.org/2000/svg">
<path d="M27 8.99976H16.3326L12.8652 6.39917C12.5194 6.14089 12.0996 6.00083 11.668 5.99976H5C4.46973 6.00028 3.96132 6.21116 3.58636 6.58612C3.21141 6.96108 3.00052 7.46948 3 7.99976V24.9998C3.00052 25.53 3.21141 26.0384 3.58636 26.4134C3.96132 26.7884 4.46973 26.9992 5 26.9998H27C27.5303 26.9992 28.0387 26.7884 28.4136 26.4134C28.7886 26.0384 28.9995 25.53 29 24.9998V10.9998C28.9995 10.4695 28.7886 9.96108 28.4136 9.58612C28.0387 9.21116 27.5303 9.00028 27 8.99976ZM5 11.9998V7.99976H11.668L14.3337 9.99963L11.666 11.9998H5ZM19.0002 19.5H17.0002V21.5C17.0002 21.7652 16.8949 22.0196 16.7074 22.2071C16.5198 22.3946 16.2655 22.5 16.0002 22.5C15.735 22.5 15.4807 22.3946 15.2931 22.2071C15.1056 22.0196 15.0002 21.7652 15.0002 21.5V19.5H13.0002C12.735 19.5 12.4807 19.3946 12.2931 19.2071C12.1056 19.0196 12.0002 18.7652 12.0002 18.5C12.0002 18.2348 12.1056 17.9804 12.2931 17.7929C12.4807 17.6054 12.735 17.5 13.0002 17.5H15.0002V15.5C15.0002 15.2348 15.1056 14.9804 15.2931 14.7929C15.4807 14.6054 15.735 14.5 16.0002 14.5C16.2655 14.5 16.5198 14.6054 16.7074 14.7929C16.8949 14.9804 17.0002 15.2348 17.0002 15.5V17.5H19.0002C19.2655 17.5 19.5198 17.6054 19.7074 17.7929C19.8949 17.9804 20.0002 18.2348 20.0002 18.5C20.0002 18.7652 19.8949 19.0196 19.7074 19.2071C19.5198 19.3946 19.2655 19.5 19.0002 19.5Z"/>
</svg>
