<svg   viewBox="0 0 32 32" fill="none" xmlns="http://www.w3.org/2000/svg">
<path d="M27 8.99976H16.4141L13 5.5857C12.8148 5.39937 12.5944 5.25163 12.3517 5.15105C12.1089 5.05048 11.8487 4.99905 11.5859 4.99976H5C4.46973 5.00029 3.96132 5.21117 3.58636 5.58613C3.21141 5.96109 3.00052 6.46949 3 6.99976V25.0769C3.0007 25.5868 3.20365 26.0757 3.56431 26.4361C3.92497 26.7966 4.4139 26.9993 4.92383 26.9998H27.1113C27.612 26.9991 28.092 26.7999 28.446 26.4458C28.8001 26.0918 28.9993 25.6118 29 25.1111V10.9998C28.9995 10.4695 28.7886 9.96109 28.4136 9.58613C28.0387 9.21117 27.5303 9.00029 27 8.99976ZM5 6.99976H11.5859L13.5859 8.99976H5V6.99976Z" fill="black"/>
</svg>
