<svg   viewBox="0 0 32 32" fill="none" xmlns="http://www.w3.org/2000/svg">
<path d="M27 8.99976H16.334L12.8652 6.39917C12.5194 6.14089 12.0996 6.00083 11.668 5.99976H5C4.46973 6.00028 3.96132 6.21116 3.58636 6.58612C3.21141 6.96108 3.00052 7.46948 3 7.99976V24.9998C3.00052 25.53 3.21141 26.0384 3.58636 26.4134C3.96132 26.7884 4.46973 26.9992 5 26.9998H27.1113C27.612 26.9991 28.092 26.7998 28.446 26.4458C28.8001 26.0918 28.9993 25.6118 29 25.1111V10.9998C28.9995 10.4695 28.7886 9.96108 28.4136 9.58612C28.0387 9.21116 27.5303 9.00028 27 8.99976Z" fill="black"/>
</svg>
