<svg viewBox="0 0 32 32" xmlns="http://www.w3.org/2000/svg">
<path d="M27 8.99976H16.3326L12.8652 6.39917C12.5194 6.14089 12.0996 6.00083 11.668 5.99976H5C4.46973 6.00028 3.96132 6.21116 3.58636 6.58612C3.21141 6.96108 3.00052 7.46948 3 7.99976V24.9998C3.00052 25.53 3.21141 26.0384 3.58636 26.4134C3.96132 26.7884 4.46973 26.9992 5 26.9998H27C27.5303 26.9992 28.0387 26.7884 28.4136 26.4134C28.7886 26.0384 28.9995 25.53 29 24.9998V10.9998C28.9995 10.4695 28.7886 9.96108 28.4136 9.58612C28.0387 9.21116 27.5303 9.00028 27 8.99976ZM5 7.99976H11.668L14.3337 9.99963L11.666 11.9998H5V7.99976Z"/>
</svg>
