<svg viewBox="0 0 32 32" xmlns="http://www.w3.org/2000/svg">
<path d="M28.5657 6.19074C28.4115 5.83455 28.1558 5.53166 27.8305 5.31989C27.5053 5.10812 27.1248 4.99684 26.7367 4.99994H5.25783C4.87036 4.99995 4.49123 5.11251 4.16653 5.32393C3.84182 5.53536 3.58552 5.83655 3.42877 6.1909C3.27203 6.54525 3.22159 6.9375 3.28358 7.31998C3.34557 7.70246 3.51732 8.0587 3.77797 8.3454L11.9973 17.3865V27.1314C11.997 27.4935 12.0951 27.8489 12.2811 28.1596C12.467 28.4703 12.7339 28.7246 13.0532 28.8955C13.3724 29.0663 13.7321 29.1473 14.0937 29.1297C14.4554 29.112 14.8055 28.9965 15.1066 28.7955L19.1066 26.129C19.3808 25.9466 19.6057 25.6992 19.7611 25.4088C19.9165 25.1184 19.9976 24.7941 19.9973 24.4648V17.3867L28.2166 8.34528C28.48 8.06015 28.6536 7.70375 28.7156 7.32058C28.7777 6.93741 28.7256 6.54445 28.5657 6.19074V6.19074Z"/>
</svg>
