<svg   viewBox="0 0 32 32" fill="none" xmlns="http://www.w3.org/2000/svg">
<path d="M11 8C11 7.73478 11.1054 7.48043 11.2929 7.2929C11.4804 7.10536 11.7348 7 12 7H27C27.2652 7 27.5196 7.10536 27.7071 7.29289C27.8946 7.48043 28 7.73478 28 8C28 8.26522 27.8946 8.51957 27.7071 8.70711C27.5196 8.89464 27.2652 9 27 9H12C11.7348 9 11.4804 8.89464 11.2929 8.7071C11.1054 8.51957 11 8.26522 11 8V8ZM27 15H12.0007C11.7355 15 11.4812 15.1054 11.2936 15.2929C11.1061 15.4804 11.0007 15.7348 11.0007 16C11.0007 16.2652 11.1061 16.5196 11.2936 16.7071C11.4812 16.8946 11.7355 17 12.0007 17H27C27.2652 17 27.5196 16.8946 27.7071 16.7071C27.8946 16.5196 28 16.2652 28 16C28 15.7348 27.8946 15.4804 27.7071 15.2929C27.5196 15.1054 27.2652 15 27 15ZM27 23H12.0007C11.7355 23 11.4812 23.1054 11.2936 23.2929C11.1061 23.4804 11.0007 23.7348 11.0007 24C11.0007 24.2652 11.1061 24.5196 11.2936 24.7071C11.4812 24.8946 11.7355 25 12.0007 25H27C27.2652 25 27.5196 24.8946 27.7071 24.7071C27.8946 24.5196 28 24.2652 28 24C28 23.7348 27.8946 23.4804 27.7071 23.2929C27.5196 23.1054 27.2652 23 27 23ZM7 7H5C4.73478 7 4.48043 7.10536 4.29289 7.29289C4.10536 7.48043 4 7.73478 4 8C4 8.26522 4.10536 8.51957 4.29289 8.70711C4.48043 8.89464 4.73478 9 5 9H7C7.26522 9 7.51957 8.89464 7.70711 8.70711C7.89464 8.51957 8 8.26522 8 8C8 7.73478 7.89464 7.48043 7.70711 7.29289C7.51957 7.10536 7.26522 7 7 7ZM7 15H5.00073C4.73552 15 4.48116 15.1054 4.29363 15.2929C4.10609 15.4804 4.00073 15.7348 4.00073 16C4.00073 16.2652 4.10609 16.5196 4.29363 16.7071C4.48116 16.8946 4.73552 17 5.00073 17H7C7.26522 17 7.51957 16.8946 7.70711 16.7071C7.89464 16.5196 8 16.2652 8 16C8 15.7348 7.89464 15.4804 7.70711 15.2929C7.51957 15.1054 7.26522 15 7 15ZM7 23H5.00073C4.73552 23 4.48116 23.1054 4.29363 23.2929C4.10609 23.4804 4.00073 23.7348 4.00073 24C4.00073 24.2652 4.10609 24.5196 4.29363 24.7071C4.48116 24.8946 4.73552 25 5.00073 25H7C7.26522 25 7.51957 24.8946 7.70711 24.7071C7.89464 24.5196 8 24.2652 8 24C8 23.7348 7.89464 23.4804 7.70711 23.2929C7.51957 23.1054 7.26522 23 7 23Z" fill="black"/>
</svg>
