<svg   viewBox="0 0 32 32" fill="none" xmlns="http://www.w3.org/2000/svg">
<path d="M4 8.00073C4 7.73552 4.10536 7.48116 4.2929 7.29363C4.48043 7.10609 4.73478 7.00074 5 7.00073H27C27.2652 7.00073 27.5196 7.10609 27.7071 7.29363C27.8946 7.48116 28 7.73552 28 8.00073C28 8.26595 27.8946 8.5203 27.7071 8.70784C27.5196 8.89538 27.2652 9.00073 27 9.00073H5C4.73478 9.00073 4.48043 8.89537 4.2929 8.70784C4.10536 8.5203 4 8.26595 4 8.00073V8.00073ZM5 17.0007H27C27.2652 17.0007 27.5196 16.8954 27.7071 16.7078C27.8946 16.5203 28 16.2659 28 16.0007C28 15.7355 27.8946 15.4812 27.7071 15.2936C27.5196 15.1061 27.2652 15.0007 27 15.0007H5C4.73478 15.0007 4.48043 15.1061 4.29289 15.2936C4.10536 15.4812 4 15.7355 4 16.0007C4 16.2659 4.10536 16.5203 4.29289 16.7078C4.48043 16.8954 4.73478 17.0007 5 17.0007ZM18 23.0007H5C4.73478 23.0007 4.48043 23.1061 4.29289 23.2936C4.10536 23.4812 4 23.7355 4 24.0007C4 24.2659 4.10536 24.5203 4.29289 24.7078C4.48043 24.8954 4.73478 25.0007 5 25.0007H18C18.2652 25.0007 18.5196 24.8954 18.7071 24.7078C18.8946 24.5203 19 24.2659 19 24.0007C19 23.7355 18.8946 23.4812 18.7071 23.2936C18.5196 23.1061 18.2652 23.0007 18 23.0007ZM29 23.0007H27V21.0007C27 20.7355 26.8946 20.4812 26.7071 20.2936C26.5196 20.1061 26.2652 20.0007 26 20.0007C25.7348 20.0007 25.4804 20.1061 25.2929 20.2936C25.1054 20.4812 25 20.7355 25 21.0007V23.0007H23C22.7348 23.0007 22.4804 23.1061 22.2929 23.2936C22.1054 23.4812 22 23.7355 22 24.0007C22 24.2659 22.1054 24.5203 22.2929 24.7078C22.4804 24.8954 22.7348 25.0007 23 25.0007H25V27.0007C25 27.2659 25.1054 27.5203 25.2929 27.7078C25.4804 27.8954 25.7348 28.0007 26 28.0007C26.2652 28.0007 26.5196 27.8954 26.7071 27.7078C26.8946 27.5203 27 27.2659 27 27.0007V25.0007H29C29.2652 25.0007 29.5196 24.8954 29.7071 24.7078C29.8946 24.5203 30 24.2659 30 24.0007C30 23.7355 29.8946 23.4812 29.7071 23.2936C29.5196 23.1061 29.2652 23.0007 29 23.0007Z" fill="black"/>
</svg>
