<svg viewBox="0 0 32 32" xmlns="http://www.w3.org/2000/svg">
<path d="M28.0006 16C28.0006 16.2652 27.8952 16.5196 27.7077 16.7071C27.5201 16.8947 27.2658 17 27.0006 17H13.0007C12.7355 17 12.4811 16.8947 12.2936 16.7071C12.1061 16.5196 12.0007 16.2652 12.0007 16C12.0007 15.7348 12.1061 15.4805 12.2936 15.2929C12.4811 15.1054 12.7355 15 13.0007 15H27.0006C27.2658 15 27.5201 15.1054 27.7077 15.2929C27.8952 15.4805 28.0006 15.7348 28.0006 16V16ZM13.0007 9.00003H27.0006C27.2658 9.00003 27.5202 8.89468 27.7077 8.70714C27.8952 8.5196 28.0006 8.26525 28.0006 8.00003C28.0006 7.73482 27.8952 7.48046 27.7077 7.29293C27.5202 7.10539 27.2658 7.00003 27.0006 7.00003H13.0007C12.7355 7.00003 12.4811 7.10539 12.2936 7.29293C12.1061 7.48046 12.0007 7.73482 12.0007 8.00003C12.0007 8.26525 12.1061 8.5196 12.2936 8.70714C12.4811 8.89468 12.7355 9.00003 13.0007 9.00003V9.00003ZM27.0006 23H13.0006C12.7354 23 12.481 23.1054 12.2935 23.2929C12.1059 23.4805 12.0006 23.7348 12.0006 24C12.0006 24.2652 12.1059 24.5196 12.2935 24.7071C12.481 24.8947 12.7354 25 13.0006 25H27.0006C27.2658 25 27.5202 24.8947 27.7077 24.7071C27.8952 24.5196 28.0006 24.2652 28.0006 24C28.0006 23.7348 27.8952 23.4805 27.7077 23.2929C27.5202 23.1054 27.2658 23 27.0006 23ZM5.44792 8.39444L6.00072 8.11808V13.4993C6.00072 13.7645 6.10607 14.0189 6.29361 14.2064C6.48115 14.3939 6.7355 14.4993 7.00072 14.4993C7.26593 14.4993 7.52029 14.3939 7.70782 14.2064C7.89536 14.0189 8.00072 13.7645 8.00072 13.4993V6.50003C8.00074 6.32957 7.95718 6.16193 7.87418 6.01304C7.79118 5.86415 7.67149 5.73895 7.52648 5.64933C7.38148 5.55972 7.21597 5.50866 7.04568 5.50101C6.87539 5.49336 6.70597 5.52937 6.55351 5.60562L4.55351 6.60562C4.43594 6.66429 4.33109 6.74554 4.24494 6.84475C4.1588 6.94395 4.09305 7.05916 4.05145 7.18379C4.00985 7.30842 3.99321 7.44002 4.0025 7.57108C4.01179 7.70214 4.04681 7.83009 4.10557 7.94761C4.16433 8.06512 4.24567 8.16991 4.34495 8.25597C4.44422 8.34204 4.55949 8.4077 4.68415 8.4492C4.80881 8.49069 4.94043 8.50722 5.07148 8.49782C5.20254 8.48843 5.33045 8.4533 5.44792 8.39444V8.39444ZM9.0305 21.2882C9.24499 20.9702 9.39059 20.6109 9.45795 20.2333C9.52531 19.8557 9.51294 19.4682 9.42164 19.0956C9.33033 18.7231 9.16211 18.3738 8.92778 18.0701C8.69345 17.7664 8.39819 17.5151 8.06098 17.3324C7.72376 17.1496 7.35204 17.0394 6.96969 17.0088C6.58734 16.9782 6.20283 17.0279 5.84085 17.1548C5.47886 17.2816 5.14741 17.4828 4.86779 17.7454C4.58817 18.0079 4.36657 18.3261 4.21721 18.6794C4.1139 18.9236 4.11186 19.1989 4.21153 19.4447C4.3112 19.6905 4.50443 19.8866 4.7487 19.9899C4.99297 20.0932 5.26827 20.0953 5.51405 19.9956C5.75983 19.8959 5.95594 19.7027 6.05925 19.4584C6.09962 19.3628 6.15938 19.2766 6.23476 19.2053C6.31014 19.134 6.39949 19.0791 6.49717 19.0441C6.59485 19.009 6.69873 18.9946 6.80226 19.0018C6.90578 19.009 7.00669 19.0375 7.09861 19.0857C7.19053 19.1339 7.27146 19.2006 7.33629 19.2816C7.40112 19.3626 7.44843 19.4562 7.47524 19.5565C7.50205 19.6567 7.50778 19.7614 7.49206 19.864C7.47633 19.9666 7.4395 20.0648 7.38389 20.1524L4.20048 24.4003C4.08913 24.5489 4.02134 24.7255 4.00472 24.9105C3.98809 25.0954 4.02329 25.2813 4.10636 25.4474C4.18943 25.6135 4.31709 25.7531 4.47506 25.8507C4.63302 25.9483 4.81503 26 5.00072 26H8.50072C8.76593 26 9.02029 25.8947 9.20782 25.7071C9.39536 25.5196 9.50072 25.2652 9.50072 25C9.50072 24.7348 9.39536 24.4805 9.20782 24.2929C9.02029 24.1054 8.76593 24 8.50072 24H6.99974L9.00206 21.3282C9.01189 21.3151 9.02137 21.3018 9.0305 21.2882Z"/>
</svg>
