<svg viewBox="0 0 32 32" xmlns="http://www.w3.org/2000/svg">
<path d="M26 4H6C5.46975 4.00061 4.9614 4.21151 4.58646 4.58646C4.21151 4.9614 4.00061 5.46975 4 6V26C4.00061 26.5302 4.21151 27.0386 4.58646 27.4135C4.9614 27.7885 5.46975 27.9994 6 28H19.5858C19.8486 28.0007 20.1088 27.9493 20.3516 27.8488C20.5943 27.7482 20.8147 27.6005 21 27.4142L27.4142 21C27.6005 20.8147 27.7482 20.5943 27.8487 20.3516C27.9493 20.1088 28.0007 19.8486 28 19.5858V6C27.9994 5.46975 27.7885 4.9614 27.4135 4.58646C27.0386 4.21151 26.5302 4.00061 26 4ZM20 25.5858V19.999H25.5868L20 25.5858Z"/>
</svg>
