<svg   viewBox="0 0 32 32" fill="none" xmlns="http://www.w3.org/2000/svg">
<path d="M26 4H6C5.46968 4.00036 4.96118 4.21119 4.58618 4.58618C4.21119 4.96118 4.00036 5.46968 4 6V26C4.00036 26.5303 4.21119 27.0388 4.58618 27.4138C4.96118 27.7888 5.46968 27.9996 6 28H19.5859C19.8486 28.0005 20.1088 27.949 20.3515 27.8484C20.5942 27.7478 20.8146 27.6002 21 27.4141L27.4141 21C27.6002 20.8146 27.7478 20.5942 27.8484 20.3515C27.949 20.1088 28.0005 19.8486 28 19.5859V6C27.9996 5.46968 27.7888 4.96118 27.4138 4.58618C27.0388 4.21119 26.5303 4.00036 26 4V4ZM12 11H20C20.2652 11 20.5196 11.1054 20.7071 11.2929C20.8946 11.4804 21 11.7348 21 12C21 12.2652 20.8946 12.5196 20.7071 12.7071C20.5196 12.8946 20.2652 13 20 13H12C11.7348 13 11.4804 12.8946 11.2929 12.7071C11.1054 12.5196 11 12.2652 11 12C11 11.7348 11.1054 11.4804 11.2929 11.2929C11.4804 11.1054 11.7348 11 12 11V11ZM16 21H12C11.7348 21 11.4804 20.8946 11.2929 20.7071C11.1054 20.5196 11 20.2652 11 20C11 19.7348 11.1054 19.4804 11.2929 19.2929C11.4804 19.1054 11.7348 19 12 19H16C16.2652 19 16.5196 19.1054 16.7071 19.2929C16.8946 19.4804 17 19.7348 17 20C17 20.2652 16.8946 20.5196 16.7071 20.7071C16.5196 20.8946 16.2652 21 16 21ZM12 17C11.7348 17 11.4804 16.8946 11.2929 16.7071C11.1054 16.5196 11 16.2652 11 16C11 15.7348 11.1054 15.4804 11.2929 15.2929C11.4804 15.1054 11.7348 15 12 15H20C20.2652 15 20.5196 15.1054 20.7071 15.2929C20.8946 15.4804 21 15.7348 21 16C21 16.2652 20.8946 16.5196 20.7071 16.7071C20.5196 16.8946 20.2652 17 20 17H12ZM20 25.5859V19.998H25.5879L20 25.5859Z" fill="black"/>
</svg>
