<svg   viewBox="0 0 32 32" fill="none" xmlns="http://www.w3.org/2000/svg">
<path d="M25 4.00073H23V3.00073C23 2.73552 22.8946 2.48116 22.7071 2.29363C22.5196 2.10609 22.2652 2.00073 22 2.00073C21.7348 2.00073 21.4804 2.10609 21.2929 2.29363C21.1054 2.48116 21 2.73552 21 3.00073V4.00073H17V3.00073C17 2.73552 16.8946 2.48116 16.7071 2.29363C16.5196 2.10609 16.2652 2.00073 16 2.00073C15.7348 2.00073 15.4804 2.10609 15.2929 2.29363C15.1054 2.48116 15 2.73552 15 3.00073V4.00073H11V3.00073C11 2.73552 10.8946 2.48116 10.7071 2.29363C10.5196 2.10609 10.2652 2.00073 10 2.00073C9.73478 2.00073 9.48043 2.10609 9.29289 2.29363C9.10536 2.48116 9 2.73552 9 3.00073V4.00073H7C6.46975 4.00134 5.9614 4.21225 5.58646 4.58719C5.21151 4.96213 5.00061 5.47049 5 6.00073V25.0007C5.00121 26.0612 5.42303 27.0779 6.17291 27.8278C6.9228 28.5777 7.93951 28.9995 9 29.0007H23C24.0605 28.9995 25.0772 28.5777 25.8271 27.8278C26.577 27.0779 26.9988 26.0612 27 25.0007V6.00073C26.9994 5.47049 26.7885 4.96213 26.4135 4.58719C26.0386 4.21225 25.5302 4.00134 25 4.00073V4.00073ZM20 21.0007H12C11.7348 21.0007 11.4804 20.8954 11.2929 20.7078C11.1054 20.5203 11 20.2659 11 20.0007C11 19.7355 11.1054 19.4812 11.2929 19.2936C11.4804 19.1061 11.7348 19.0007 12 19.0007H20C20.2652 19.0007 20.5196 19.1061 20.7071 19.2936C20.8946 19.4812 21 19.7355 21 20.0007C21 20.2659 20.8946 20.5203 20.7071 20.7078C20.5196 20.8954 20.2652 21.0007 20 21.0007ZM20 17.0007H12C11.7348 17.0007 11.4804 16.8954 11.2929 16.7078C11.1054 16.5203 11 16.2659 11 16.0007C11 15.7355 11.1054 15.4812 11.2929 15.2936C11.4804 15.1061 11.7348 15.0007 12 15.0007H20C20.2652 15.0007 20.5196 15.1061 20.7071 15.2936C20.8946 15.4812 21 15.7355 21 16.0007C21 16.2659 20.8946 16.5203 20.7071 16.7078C20.5196 16.8954 20.2652 17.0007 20 17.0007Z" fill="black"/>
</svg>
