<svg   viewBox="0 0 32 32" fill="none" xmlns="http://www.w3.org/2000/svg">
<path d="M28 15V26C27.9994 26.5303 27.7885 27.0386 27.4135 27.4136C27.0386 27.7885 26.5302 27.9994 26 28H6C5.46975 27.9994 4.9614 27.7885 4.58646 27.4136C4.21151 27.0386 4.00061 26.5303 4 26V6.00002C4.00061 5.46977 4.21151 4.96141 4.58646 4.58647C4.9614 4.21153 5.46975 4.00062 6 4.00002H17C17.2652 4.00002 17.5196 4.10537 17.7071 4.29291C17.8946 4.48044 18 4.7348 18 5.00002C18 5.26523 17.8946 5.51959 17.7071 5.70712C17.5196 5.89466 17.2652 6.00002 17 6.00002H6V26H26V15C26 14.7348 26.1054 14.4804 26.2929 14.2929C26.4804 14.1054 26.7348 14 27 14C27.2652 14 27.5196 14.1054 27.7071 14.2929C27.8946 14.4804 28 14.7348 28 15V15ZM28.7072 8.70711L16.7072 20.7071C16.5196 20.8947 16.2652 21 16 21H12C11.7348 21 11.4804 20.8946 11.2929 20.7071C11.1054 20.5196 11 20.2652 11 20V16C11 15.7348 11.1053 15.4805 11.2928 15.2929L23.2928 3.29292C23.3857 3.20005 23.496 3.12639 23.6173 3.07613C23.7386 3.02587 23.8687 3 24 3C24.1313 3 24.2614 3.02587 24.3827 3.07613C24.504 3.12639 24.6143 3.20005 24.7072 3.29292L28.7072 7.29292C28.8947 7.48046 29 7.73481 29 8.00002C29 8.26522 28.8947 8.51957 28.7072 8.70711V8.70711ZM26.5858 8.00002L24 5.4142L22.4142 7.00002L25 9.58583L26.5858 8.00002Z" fill="black"/>
</svg>
