<svg viewBox="0 0 32 32" xmlns="http://www.w3.org/2000/svg">
<path d="M24.0024 23H5.75317C3.05042 23 0.851562 20.757 0.851562 18C0.851562 15.243 3.05042 13 5.75317 13H23.7532C24.5488 13 25.3119 13.3161 25.8745 13.8787C26.4371 14.4413 26.7532 15.2044 26.7532 16C26.7532 16.7956 26.4371 17.5587 25.8745 18.1213C25.3119 18.6839 24.5488 19 23.7532 19H9.75317C9.48796 19 9.2336 18.8946 9.04607 18.7071C8.85853 18.5196 8.75317 18.2652 8.75317 18C8.75317 17.7348 8.85853 17.4804 9.04607 17.2929C9.2336 17.1054 9.48796 17 9.75317 17H23.7532C24.0184 17 24.2727 16.8946 24.4603 16.7071C24.6478 16.5196 24.7532 16.2652 24.7532 16C24.7532 15.7348 24.6478 15.4804 24.4603 15.2929C24.2727 15.1054 24.0184 15 23.7532 15H5.75317C4.1532 15 2.85156 16.3458 2.85156 18C2.85156 19.6542 4.1532 21 5.75317 21H24.0024C25.3285 21 26.6003 20.4732 27.538 19.5355C28.4757 18.5979 29.0024 17.3261 29.0024 16C29.0024 14.6739 28.4757 13.4021 27.538 12.4645C26.6003 11.5268 25.3285 11 24.0024 11H10.0024C9.73722 11 9.48287 10.8946 9.29533 10.7071C9.1078 10.5196 9.00244 10.2652 9.00244 10C9.00244 9.73478 9.1078 9.48043 9.29533 9.29289C9.48287 9.10536 9.73722 9 10.0024 9H24.0024C25.859 9 27.6394 9.7375 28.9522 11.0503C30.2649 12.363 31.0024 14.1435 31.0024 16C31.0024 17.8565 30.2649 19.637 28.9522 20.9497C27.6394 22.2625 25.859 23 24.0024 23V23Z"/>
</svg>
