<svg   viewBox="0 0 32 32" fill="none" xmlns="http://www.w3.org/2000/svg">
<path d="M26.2071 15.2928C26.3945 15.4804 26.4997 15.7348 26.4995 16C26.4993 16.2652 26.3938 16.5195 26.2062 16.7069L15.9495 26.9502C15.2995 27.6002 14.5278 28.1158 13.6785 28.4675C12.8292 28.8193 11.9189 29.0003 10.9996 29.0002C9.14312 29.0001 7.36268 28.2625 6.05 26.9497C4.73731 25.6369 3.9999 23.8564 4 21.9998C4.0001 20.1433 4.73769 18.3629 6.05051 17.0502L18.4591 4.4689C18.9229 4.00368 19.4739 3.63442 20.0805 3.38223C20.6871 3.13005 21.3374 2.99987 21.9944 2.99915C22.6513 2.99843 23.302 3.12717 23.9091 3.37802C24.5163 3.62888 25.068 3.99692 25.5329 4.46112C25.9977 4.92532 26.3666 5.47658 26.6183 6.08339C26.87 6.69019 26.9996 7.34065 26.9998 7.99759C27 8.65453 26.8707 9.30507 26.6194 9.91203C26.3681 10.519 25.9996 11.0705 25.535 11.5349L13.1264 24.1164C12.8482 24.3956 12.5177 24.6172 12.1539 24.7686C11.79 24.92 11.3998 24.9983 11.0057 24.9989C10.6116 24.9995 10.2212 24.9224 9.85688 24.772C9.49256 24.6217 9.16144 24.401 8.88243 24.1227C8.60342 23.8443 8.38199 23.5137 8.23081 23.1497C8.07963 22.7857 8.00164 22.3955 8.00132 22.0014C8.001 21.6073 8.07834 21.2169 8.22892 20.8527C8.37951 20.4885 8.60039 20.1575 8.87895 19.8787L19.2866 9.29812C19.4726 9.10905 19.7261 9.00161 19.9913 8.99944C20.2565 8.99726 20.5117 9.10053 20.7008 9.28653C20.8899 9.47252 20.9973 9.72601 20.9995 9.99122C21.0016 10.2564 20.8984 10.5116 20.7124 10.7007L10.2989 21.2871C10.2049 21.3794 10.1301 21.4894 10.0787 21.6107C10.0274 21.732 10.0005 21.8623 9.99963 21.994C9.99876 22.1258 10.0239 22.2564 10.0737 22.3783C10.1234 22.5003 10.1968 22.6113 10.2896 22.7048C10.3823 22.7983 10.4927 22.8726 10.6142 22.9234C10.7358 22.9741 10.8662 23.0004 10.9979 23.0006C11.1297 23.0008 11.2601 22.975 11.3819 22.9247C11.5036 22.8743 11.6142 22.8004 11.7073 22.7072L24.1159 10.1256C24.3954 9.8475 24.6172 9.51702 24.7688 9.15308C24.9205 8.78914 24.9988 8.39888 24.9995 8.00463C25.0002 7.61037 24.9232 7.21985 24.7728 6.85539C24.6225 6.49093 24.4017 6.15968 24.1233 5.88058C23.8448 5.60148 23.5141 5.38 23.15 5.22882C22.7858 5.07763 22.3955 4.9997 22.0012 4.99948C21.607 4.99926 21.2165 5.07675 20.8523 5.22753C20.488 5.37831 20.157 5.59941 19.8782 5.8782L7.46958 18.4595C7.00435 18.9233 6.63509 19.4743 6.3829 20.0809C6.13071 20.6875 6.00053 21.3379 5.99981 21.9949C5.99908 22.6518 6.12783 23.3025 6.37869 23.9096C6.62955 24.5168 6.9976 25.0686 7.46181 25.5334C7.92602 25.9983 8.47728 26.3671 9.0841 26.6188C9.69092 26.8705 10.3414 27.0002 10.9983 27.0004C11.6553 27.0006 12.3058 26.8713 12.9128 26.62C13.5198 26.3686 14.0713 26.0001 14.5357 25.5355L24.7928 15.2919C24.8857 15.1991 24.996 15.1255 25.1174 15.0753C25.2387 15.0251 25.3688 14.9993 25.5001 14.9994C25.6315 14.9994 25.7615 15.0254 25.8828 15.0757C26.0041 15.1261 26.1143 15.1998 26.2071 15.2928V15.2928Z" fill="black"/>
</svg>
