<svg   viewBox="0 0 32 32" fill="none" xmlns="http://www.w3.org/2000/svg">
<path d="M27 5H17V3C17 2.73478 16.8946 2.48043 16.7071 2.29289C16.5196 2.10536 16.2652 2 16 2C15.7348 2 15.4804 2.10536 15.2929 2.29289C15.1054 2.48043 15 2.73478 15 3V5H5C4.46975 5.00061 3.9614 5.21151 3.58646 5.58646C3.21151 5.9614 3.00061 6.46975 3 7V22C3.00061 22.5302 3.21151 23.0386 3.58646 23.4135C3.9614 23.7885 4.46975 23.9994 5 24H9.91943L7.21912 27.3754C7.13695 27.4779 7.0758 27.5956 7.03916 27.7218C7.00252 27.848 6.9911 27.9801 7.00556 28.1107C7.02002 28.2413 7.06008 28.3678 7.12344 28.4829C7.1868 28.598 7.27222 28.6995 7.37483 28.7816C7.47743 28.8636 7.5952 28.9247 7.72141 28.9612C7.84762 28.9977 7.97979 29.0091 8.11038 28.9945C8.24096 28.9799 8.36738 28.9397 8.48243 28.8763C8.59748 28.8128 8.6989 28.7273 8.78088 28.6246L12.4806 24H19.5194L23.2191 28.6246C23.3849 28.8315 23.626 28.9641 23.8894 28.9932C24.1529 29.0224 24.4171 28.9458 24.6241 28.7802C24.8311 28.6146 24.9639 28.3737 24.9933 28.1102C25.0227 27.8468 24.9463 27.5825 24.7809 27.3754L22.0806 24H27C27.5302 23.9994 28.0386 23.7885 28.4135 23.4135C28.7885 23.0386 28.9994 22.5302 29 22V7C28.9994 6.46975 28.7885 5.9614 28.4135 5.58646C28.0386 5.21151 27.5302 5.00061 27 5ZM13 18C13 18.2652 12.8946 18.5196 12.7071 18.7071C12.5196 18.8946 12.2652 19 12 19C11.7348 19 11.4804 18.8946 11.2929 18.7071C11.1054 18.5196 11 18.2652 11 18V15C11 14.7348 11.1054 14.4804 11.2929 14.2929C11.4804 14.1054 11.7348 14 12 14C12.2652 14 12.5196 14.1054 12.7071 14.2929C12.8946 14.4804 13 14.7348 13 15V18ZM17 18C17 18.2652 16.8946 18.5196 16.7071 18.7071C16.5196 18.8946 16.2652 19 16 19C15.7348 19 15.4804 18.8946 15.2929 18.7071C15.1054 18.5196 15 18.2652 15 18V13C15 12.7348 15.1054 12.4804 15.2929 12.2929C15.4804 12.1054 15.7348 12 16 12C16.2652 12 16.5196 12.1054 16.7071 12.2929C16.8946 12.4804 17 12.7348 17 13V18ZM21 18C21 18.2652 20.8946 18.5196 20.7071 18.7071C20.5196 18.8946 20.2652 19 20 19C19.7348 19 19.4804 18.8946 19.2929 18.7071C19.1054 18.5196 19 18.2652 19 18V11C19 10.7348 19.1054 10.4804 19.2929 10.2929C19.4804 10.1054 19.7348 10 20 10C20.2652 10 20.5196 10.1054 20.7071 10.2929C20.8946 10.4804 21 10.7348 21 11V18Z" fill="black"/>
</svg>
