<svg   viewBox="0 0 32 32" fill="none" xmlns="http://www.w3.org/2000/svg">
<path d="M26.3333 9H25V5C25 4.73478 24.8946 4.48043 24.7071 4.2929C24.5196 4.10536 24.2652 4 24 4H8C7.73478 4 7.48043 4.10536 7.2929 4.2929C7.10536 4.48043 7 4.73478 7 5V9H5.66669C3.92059 9 2.5 10.3458 2.5 12V22C2.5 22.2652 2.60536 22.5196 2.7929 22.7071C2.98043 22.8946 3.23478 23 3.5 23H7V27.5C7 27.7652 7.10536 28.0196 7.2929 28.2071C7.48043 28.3946 7.73478 28.5 8 28.5H24C24.2652 28.5 24.5196 28.3946 24.7071 28.2071C24.8946 28.0196 25 27.7652 25 27.5V23H28.5C28.7652 23 29.0196 22.8946 29.2071 22.7071C29.3946 22.5196 29.5 22.2652 29.5 22V12C29.5 10.3458 28.0794 9 26.3333 9ZM9 6H23V9H9V6ZM23 26.5H9V20H23V26.5ZM23.5 16C23.2033 16 22.9133 15.912 22.6666 15.7472C22.42 15.5824 22.2277 15.3481 22.1142 15.074C22.0007 14.7999 21.9709 14.4983 22.0288 14.2074C22.0867 13.9164 22.2296 13.6491 22.4393 13.4393C22.6491 13.2296 22.9164 13.0867 23.2074 13.0288C23.4983 12.9709 23.7999 13.0006 24.074 13.1142C24.3481 13.2277 24.5824 13.42 24.7472 13.6666C24.912 13.9133 25 14.2033 25 14.5C25 14.697 24.9612 14.892 24.8858 15.074C24.8104 15.256 24.6999 15.4214 24.5607 15.5607C24.4214 15.6999 24.256 15.8104 24.074 15.8858C23.892 15.9612 23.697 16 23.5 16V16Z" fill="black"/>
</svg>
