<svg   viewBox="0 0 32 32" fill="none" xmlns="http://www.w3.org/2000/svg">
<path d="M29 8V6C28.9994 5.46975 28.7885 4.9614 28.4135 4.58646C28.0386 4.21151 27.5302 4.00061 27 4H5C4.46975 4.00061 3.9614 4.21151 3.58646 4.58646C3.21151 4.9614 3.00061 5.46975 3 6V8C3.00061 8.53025 3.21151 9.0386 3.58646 9.41354C3.9614 9.78849 4.46975 9.99939 5 10V22H4C3.73478 22 3.48043 22.1054 3.29289 22.2929C3.10536 22.4804 3 22.7348 3 23C3 23.2652 3.10536 23.5196 3.29289 23.7071C3.48043 23.8946 3.73478 24 4 24H15V26.172C14.3328 26.4079 13.7704 26.8721 13.4124 27.4825C13.0543 28.0929 12.9235 28.8103 13.0432 29.5078C13.1629 30.2053 13.5253 30.838 14.0663 31.2941C14.6074 31.7503 15.2923 32.0005 16 32.0005C16.7077 32.0005 17.3926 31.7503 17.9337 31.2941C18.4747 30.838 18.8371 30.2053 18.9568 29.5078C19.0765 28.8103 18.9457 28.0929 18.5876 27.4825C18.2296 26.8721 17.6672 26.4079 17 26.172V24H28C28.2652 24 28.5196 23.8946 28.7071 23.7071C28.8946 23.5196 29 23.2652 29 23C29 22.7348 28.8946 22.4804 28.7071 22.2929C28.5196 22.1054 28.2652 22 28 22H27V10C27.5302 9.99939 28.0386 9.78849 28.4135 9.41354C28.7885 9.0386 28.9994 8.53025 29 8ZM16 30C15.8022 30 15.6089 29.9414 15.4444 29.8315C15.28 29.7216 15.1518 29.5654 15.0761 29.3827C15.0004 29.2 14.9806 28.9989 15.0192 28.8049C15.0578 28.6109 15.153 28.4327 15.2929 28.2929C15.4327 28.153 15.6109 28.0578 15.8049 28.0192C15.9989 27.9806 16.2 28.0004 16.3827 28.0761C16.5654 28.1518 16.7216 28.28 16.8315 28.4444C16.9414 28.6089 17 28.8022 17 29C16.9997 29.2651 16.8942 29.5193 16.7068 29.7068C16.5193 29.8942 16.2651 29.9997 16 30V30ZM5 6H27L27.0012 8H5V6Z" fill="black"/>
</svg>
