<svg viewBox="0 0 32 32" xmlns="http://www.w3.org/2000/svg">
<path d="M29 8V6C28.9994 5.46975 28.7885 4.9614 28.4135 4.58646C28.0386 4.21151 27.5302 4.00061 27 4H5C4.46975 4.00061 3.9614 4.21151 3.58646 4.58646C3.21151 4.9614 3.00061 5.46975 3 6V8C3.00061 8.53025 3.21151 9.0386 3.58646 9.41354C3.9614 9.78849 4.46975 9.99939 5 10V22H4C3.73478 22 3.48043 22.1054 3.29289 22.2929C3.10536 22.4804 3 22.7348 3 23C3 23.2652 3.10536 23.5196 3.29289 23.7071C3.48043 23.8946 3.73478 24 4 24H15V26.172C14.3328 26.4079 13.7704 26.8721 13.4124 27.4825C13.0543 28.0929 12.9235 28.8103 13.0432 29.5078C13.1629 30.2053 13.5253 30.838 14.0663 31.2941C14.6074 31.7503 15.2923 32.0005 16 32.0005C16.7077 32.0005 17.3926 31.7503 17.9337 31.2941C18.4747 30.838 18.8371 30.2053 18.9568 29.5078C19.0765 28.8103 18.9457 28.0929 18.5876 27.4825C18.2296 26.8721 17.6672 26.4079 17 26.172V24H28C28.2652 24 28.5196 23.8946 28.7071 23.7071C28.8946 23.5196 29 23.2652 29 23C29 22.7348 28.8946 22.4804 28.7071 22.2929C28.5196 22.1054 28.2652 22 28 22H27V10C27.5302 9.99939 28.0386 9.78849 28.4135 9.41354C28.7885 9.0386 28.9994 8.53025 29 8ZM13 18C13 18.2652 12.8946 18.5196 12.7071 18.7071C12.5196 18.8946 12.2652 19 12 19C11.7348 19 11.4804 18.8946 11.2929 18.7071C11.1054 18.5196 11 18.2652 11 18V16C11 15.7348 11.1054 15.4804 11.2929 15.2929C11.4804 15.1054 11.7348 15 12 15C12.2652 15 12.5196 15.1054 12.7071 15.2929C12.8946 15.4804 13 15.7348 13 16V18ZM16 30C15.8022 30 15.6089 29.9414 15.4444 29.8315C15.28 29.7216 15.1518 29.5654 15.0761 29.3827C15.0004 29.2 14.9806 28.9989 15.0192 28.8049C15.0578 28.6109 15.153 28.4327 15.2929 28.2929C15.4327 28.153 15.6109 28.0578 15.8049 28.0192C15.9989 27.9806 16.2 28.0004 16.3827 28.0761C16.5654 28.1518 16.7216 28.28 16.8315 28.4444C16.9414 28.6089 17 28.8022 17 29C16.9997 29.2651 16.8942 29.5193 16.7068 29.7068C16.5193 29.8942 16.2651 29.9997 16 30V30ZM17 18C17 18.2652 16.8946 18.5196 16.7071 18.7071C16.5196 18.8946 16.2652 19 16 19C15.7348 19 15.4804 18.8946 15.2929 18.7071C15.1054 18.5196 15 18.2652 15 18V15C15 14.7348 15.1054 14.4804 15.2929 14.2929C15.4804 14.1054 15.7348 14 16 14C16.2652 14 16.5196 14.1054 16.7071 14.2929C16.8946 14.4804 17 14.7348 17 15V18ZM21 18C21 18.2652 20.8946 18.5196 20.7071 18.7071C20.5196 18.8946 20.2652 19 20 19C19.7348 19 19.4804 18.8946 19.2929 18.7071C19.1054 18.5196 19 18.2652 19 18V14C19 13.7348 19.1054 13.4804 19.2929 13.2929C19.4804 13.1054 19.7348 13 20 13C20.2652 13 20.5196 13.1054 20.7071 13.2929C20.8946 13.4804 21 13.7348 21 14V18ZM5 8V6H27L27.0012 8H5Z"/>
</svg>
