<svg   viewBox="0 0 32 32" fill="none" xmlns="http://www.w3.org/2000/svg">
<path d="M26.6727 27.74C26.4765 27.9184 26.2174 28.0115 25.9524 27.9989C25.6875 27.9863 25.4384 27.869 25.26 27.6727L21.0121 23H17V30C17 30.2653 16.8946 30.5196 16.7071 30.7071C16.5196 30.8947 16.2652 31 16 31C15.7348 31 15.4804 30.8947 15.2929 30.7071C15.1054 30.5196 15 30.2653 15 30V23H7.01929C7.01318 23.0002 7.0072 23.0002 7.00122 23.0002C6.99512 23.0002 6.98914 23.0002 6.98303 23H5C4.73478 23 4.48043 22.8947 4.29289 22.7071C4.10536 22.5196 4 22.2653 4 22C4 21.7348 4.10536 21.4805 4.29289 21.2929C4.48043 21.1054 4.73478 21 5 21H6.16101L8.27966 8.99436L5.26001 5.6727C5.08161 5.47645 4.98847 5.21736 5.0011 4.95243C5.01372 4.68751 5.13107 4.43845 5.32733 4.26005C5.52359 4.08164 5.78268 3.98851 6.0476 4.00113C6.31253 4.01376 6.56159 4.13111 6.73999 4.32737L16.1422 14.6697L22.1946 21.3274L22.1948 21.3277L26.74 26.3274C26.9184 26.5236 27.0115 26.7827 26.9989 27.0476C26.9863 27.3125 26.8689 27.5615 26.6727 27.74V27.74ZM23.8119 20.1334C23.9577 20.2938 24.1517 20.4024 24.3646 20.443C24.5775 20.4836 24.7978 20.4539 24.9924 20.3584C25.187 20.263 25.3453 20.1068 25.4434 19.9136C25.5416 19.7203 25.5743 19.5004 25.5366 19.287L23.1919 6.00004H24C24.2652 6.00004 24.5196 5.89468 24.7071 5.70714C24.8946 5.51961 25 5.26525 25 5.00004C25 4.73482 24.8946 4.48046 24.7071 4.29293C24.5196 4.10539 24.2652 4.00004 24 4.00004H11.3999C11.1456 4.00153 10.9013 4.09988 10.7169 4.27508C10.5325 4.45028 10.4218 4.68915 10.4073 4.94309C10.4056 4.97318 10.4053 5.00333 10.4062 5.03336C10.4139 5.272 10.507 5.49996 10.6686 5.67576L23.8119 20.1334Z" fill="black"/>
</svg>
