<svg viewBox="0 0 32 32" xmlns="http://www.w3.org/2000/svg">
<path d="M28 22C28 22.2652 27.8946 22.5196 27.7071 22.7071C27.5196 22.8946 27.2652 23 27 23H25.003L24.9988 23.0002L24.9947 23H17V30C17 30.2652 16.8946 30.5196 16.7071 30.7071C16.5196 30.8946 16.2652 31 16 31C15.7348 31 15.4804 30.8946 15.2929 30.7071C15.1054 30.5196 15 30.2652 15 30V23H7.00531L7.00122 23.0002L6.99701 23H5C4.73478 23 4.48043 22.8946 4.29289 22.7071C4.10536 22.5196 4 22.2652 4 22C4 21.7348 4.10536 21.4804 4.29289 21.2929C4.48043 21.1054 4.73478 21 5 21H6.16107L8.80811 6H8C7.73478 6 7.48043 5.89464 7.29289 5.70711C7.10536 5.51957 7 5.26522 7 5C7 4.73478 7.10536 4.48043 7.29289 4.29289C7.48043 4.10536 7.73478 4 8 4H24C24.2652 4 24.5196 4.10536 24.7071 4.29289C24.8946 4.48043 25 4.73478 25 5C25 5.26522 24.8946 5.51957 24.7071 5.70711C24.5196 5.89464 24.2652 6 24 6H23.1919L25.8389 21H27C27.2652 21 27.5196 21.1054 27.7071 21.2929C27.8946 21.4804 28 21.7348 28 22Z"/>
</svg>
