<svg viewBox="0 0 32 32" xmlns="http://www.w3.org/2000/svg">
<path d="M29.0014 13.4143L21.6855 20.7302C22.2551 22.3151 22.4912 24.9664 20.0369 28.2284C19.865 28.4568 19.6461 28.6457 19.3949 28.7822C19.1438 28.9187 18.8662 28.9997 18.581 29.0197C18.5342 29.023 18.4873 29.0246 18.4405 29.0246C18.1777 29.0246 17.9175 28.9728 17.6747 28.8722C17.432 28.7715 17.2114 28.6241 17.0256 28.4382L11.0016 22.4142L6.70873 26.707C6.5212 26.8946 6.26684 27 6.00162 27C5.7364 27 5.48203 26.8946 5.29448 26.7071C5.10693 26.5196 5.00156 26.2652 5.00155 26C5.00154 25.7348 5.10689 25.4804 5.29442 25.2929L9.58732 20.9999L3.53856 14.9512C3.3401 14.7525 3.18567 14.5143 3.08531 14.252C2.98495 13.9897 2.9409 13.7092 2.95603 13.4288C2.97116 13.1484 3.04513 12.8743 3.17312 12.6243C3.30112 12.3743 3.48028 12.1541 3.69896 11.9779C6.87719 9.41394 9.91918 9.91895 11.2507 10.3366L18.5873 2.99994L18.5874 2.99982C18.9628 2.62541 19.4714 2.41516 20.0016 2.41516C20.5318 2.41516 21.0404 2.62541 21.4158 2.99982L29.0016 10.5858C29.1873 10.7715 29.3346 10.992 29.4352 11.2346C29.5357 11.4773 29.5874 11.7374 29.5874 12C29.5874 12.2627 29.5356 12.5228 29.4351 12.7654C29.3346 13.0081 29.1872 13.2285 29.0014 13.4143V13.4143Z"/>
</svg>
