<svg viewBox="0 0 32 32" xmlns="http://www.w3.org/2000/svg">
<path d="M26.7416 26.3274C26.92 26.5236 27.0131 26.7827 27.0005 27.0477C26.9879 27.3126 26.8705 27.5616 26.6742 27.74C26.478 27.9184 26.2189 28.0116 25.954 27.9989C25.689 27.9863 25.44 27.869 25.2616 27.6727L21.9587 24.0395C21.6518 25.8111 20.7229 27.3165 20.0369 28.2284C19.865 28.4569 19.6461 28.6458 19.3949 28.7823C19.1438 28.9188 18.8662 28.9998 18.581 29.0198C18.5342 29.0231 18.4873 29.0247 18.4405 29.0247C18.1777 29.0247 17.9175 28.9729 17.6747 28.8723C17.432 28.7716 17.2114 28.6242 17.0256 28.4383L11.0016 22.4143L6.70873 26.7071C6.5212 26.8947 6.26684 27.0001 6.00162 27.0001C5.7364 27.0001 5.48203 26.8947 5.29448 26.7072C5.10693 26.5197 5.00156 26.2653 5.00155 26.0001C5.00154 25.7349 5.10689 25.4805 5.29442 25.293L9.58732 21L3.53856 14.9513C3.3401 14.7526 3.18567 14.5144 3.08531 14.2521C2.98495 13.9898 2.9409 13.7093 2.95603 13.4289C2.97116 13.1485 3.04513 12.8744 3.17312 12.6244C3.30112 12.3744 3.48028 12.1542 3.69896 11.978C5.72106 10.3467 7.68767 9.95793 9.19396 9.99834L5.26159 5.67271C5.08319 5.47646 4.99005 5.21737 5.00268 4.95244C5.0153 4.68752 5.13265 4.43846 5.32891 4.26005C5.52517 4.08165 5.78426 3.98852 6.04918 4.00114C6.31411 4.01377 6.56317 4.13112 6.74157 4.32738L26.7416 26.3274ZM29.0016 10.5859L21.4158 2.99992C21.0403 2.62551 20.5317 2.41526 20.0015 2.41528C19.4713 2.41531 18.9627 2.6256 18.5873 3.00005L13.8403 7.74706C13.6586 7.92877 13.5539 8.17346 13.5477 8.43036C13.5416 8.68727 13.6346 8.93666 13.8075 9.12682L22.3789 18.5554C22.4699 18.6555 22.5804 18.7361 22.7035 18.7924C22.8266 18.8486 22.9598 18.8792 23.0951 18.8824C23.103 18.8826 23.111 18.8827 23.1189 18.8827C23.3841 18.8827 23.6385 18.7774 23.826 18.5898L29.0014 13.4144C29.1872 13.2287 29.3346 13.0082 29.4351 12.7655C29.5356 12.5229 29.5874 12.2628 29.5874 12.0001C29.5874 11.7375 29.5357 11.4774 29.4352 11.2347C29.3346 10.9921 29.1873 10.7716 29.0016 10.5859Z"/>
</svg>
