<svg   viewBox="0 0 32 32" fill="none" xmlns="http://www.w3.org/2000/svg">
<path d="M28.7069 21.7072L23.707 26.7063C23.5195 26.8938 23.2652 26.9991 23 26.9991C22.7348 26.9991 22.4804 26.8938 22.2929 26.7063L17.2929 21.7063C17.1531 21.5664 17.0578 21.3883 17.0192 21.1943C16.9807 21.0003 17.0005 20.7992 17.0762 20.6165C17.1518 20.4338 17.28 20.2776 17.4444 20.1677C17.6089 20.0578 17.8022 19.9992 18 19.9991H18.0001L22 19.9995V13.9991C22 13.7339 22.1054 13.4796 22.2929 13.292C22.4804 13.1045 22.7348 12.9991 23 12.9991C23.2652 12.9991 23.5196 13.1045 23.7071 13.292C23.8946 13.4796 24 13.7339 24 13.9991V19.9996L28 20C28.1978 20 28.3911 20.0587 28.5556 20.1686C28.72 20.2785 28.8481 20.4347 28.9238 20.6174C28.9995 20.8001 29.0193 21.0012 28.9807 21.1952C28.942 21.3892 28.8468 21.5673 28.7069 21.7072V21.7072ZM14.9999 14.9991H6C5.73478 14.9991 5.48043 15.1045 5.29289 15.292C5.10536 15.4796 5 15.7339 5 15.9991C5 16.2644 5.10536 16.5187 5.29289 16.7063C5.48043 16.8938 5.73478 16.9991 6 16.9991H14.9999C15.2651 16.9991 15.5194 16.8938 15.707 16.7063C15.8945 16.5187 15.9999 16.2644 15.9999 15.9991C15.9999 15.7339 15.8945 15.4796 15.707 15.292C15.5194 15.1045 15.2651 14.9991 14.9999 14.9991V14.9991ZM6 8.99915H22.9999C23.2651 8.99915 23.5194 8.89379 23.707 8.70625C23.8945 8.51872 23.9999 8.26436 23.9999 7.99915C23.9999 7.73393 23.8945 7.47958 23.707 7.29204C23.5194 7.1045 23.2651 6.99915 22.9999 6.99915H6C5.73478 6.99915 5.48043 7.1045 5.29289 7.29204C5.10536 7.47958 5 7.73393 5 7.99915C5 8.26436 5.10536 8.51872 5.29289 8.70625C5.48043 8.89379 5.73478 8.99915 6 8.99915ZM13 22.9991H6C5.73478 22.9991 5.48043 23.1045 5.29289 23.292C5.10536 23.4796 5 23.7339 5 23.9991C5 24.2644 5.10536 24.5187 5.29289 24.7063C5.48043 24.8938 5.73478 24.9991 6 24.9991H13C13.2652 24.9991 13.5196 24.8938 13.7071 24.7063C13.8946 24.5187 14 24.2644 14 23.9991C14 23.7339 13.8946 23.4796 13.7071 23.292C13.5196 23.1045 13.2652 22.9991 13 22.9991Z" fill="black"/>
</svg>
