<svg viewBox="0 0 32 32" xmlns="http://www.w3.org/2000/svg">
<path d="M28.9238 11.3809C28.8482 11.5637 28.72 11.7199 28.5556 11.8298C28.3911 11.9397 28.1978 11.9983 28 11.9984L24 11.9987V17.9992C24 18.2644 23.8946 18.5188 23.7071 18.7063C23.5196 18.8939 23.2652 18.9992 23 18.9992C22.7348 18.9992 22.4804 18.8939 22.2929 18.7063C22.1054 18.5188 22 18.2644 22 17.9992V11.9989L18.0001 11.9992C17.8023 11.9992 17.609 11.9406 17.4445 11.8307C17.2801 11.7208 17.1519 11.5646 17.0762 11.3819C17.0005 11.1992 16.9807 10.9981 17.0192 10.8041C17.0578 10.6101 17.1531 10.4319 17.2929 10.2921L22.2929 5.29205C22.4805 5.10458 22.7348 4.99927 23 4.99927C23.2652 4.99927 23.5195 5.10458 23.707 5.29205L28.7069 10.2912C28.8468 10.431 28.942 10.6092 28.9806 10.8032C29.0192 10.9971 28.9995 11.1982 28.9238 11.3809V11.3809ZM6 16.9992H14.9999C15.2651 16.9992 15.5194 16.8939 15.707 16.7063C15.8945 16.5188 15.9999 16.2644 15.9999 15.9992C15.9999 15.734 15.8945 15.4796 15.707 15.2921C15.5194 15.1046 15.2651 14.9992 14.9999 14.9992H6C5.73478 14.9992 5.48043 15.1046 5.29289 15.2921C5.10536 15.4796 5 15.734 5 15.9992C5 16.2644 5.10536 16.5188 5.29289 16.7063C5.48043 16.8939 5.73478 16.9992 6 16.9992ZM6 8.99921H12.9999C13.2651 8.99921 13.5194 8.89385 13.707 8.70631C13.8945 8.51878 13.9999 8.26442 13.9999 7.99921C13.9999 7.73399 13.8945 7.47964 13.707 7.2921C13.5194 7.10456 13.2651 6.99921 12.9999 6.99921H6C5.73478 6.99921 5.48043 7.10456 5.29289 7.2921C5.10536 7.47964 5 7.73399 5 7.99921C5 8.26442 5.10536 8.51878 5.29289 8.70631C5.48043 8.89385 5.73478 8.99921 6 8.99921ZM22.9999 22.9992H6C5.73478 22.9992 5.48043 23.1046 5.29289 23.2921C5.10536 23.4796 5 23.734 5 23.9992C5 24.2644 5.10536 24.5188 5.29289 24.7063C5.48043 24.8939 5.73478 24.9992 6 24.9992H22.9999C23.2651 24.9992 23.5194 24.8939 23.707 24.7063C23.8945 24.5188 23.9999 24.2644 23.9999 23.9992C23.9999 23.734 23.8945 23.4796 23.707 23.2921C23.5194 23.1046 23.2651 22.9992 22.9999 22.9992Z"/>
</svg>
