<svg viewBox="0 0 32 32" xmlns="http://www.w3.org/2000/svg">
<path d="M19 7V22C19 22.2652 18.8946 22.5196 18.7071 22.7071C18.5196 22.8946 18.2652 23 18 23C17.7348 23 17.4804 22.8946 17.2929 22.7071C17.1054 22.5196 17 22.2652 17 22V15.5H6V22C6 22.2652 5.89464 22.5196 5.70711 22.7071C5.51957 22.8946 5.26522 23 5 23C4.73478 23 4.48043 22.8946 4.29289 22.7071C4.10536 22.5196 4 22.2652 4 22V7C4 6.73478 4.10536 6.48043 4.29289 6.29289C4.48043 6.10536 4.73478 6 5 6C5.26522 6 5.51957 6.10536 5.70711 6.29289C5.89464 6.48043 6 6.73478 6 7V13.5H17V7C17 6.73478 17.1054 6.48043 17.2929 6.29289C17.4804 6.10536 17.7348 6 18 6C18.2652 6 18.5196 6.10536 18.7071 6.29289C18.8946 6.48043 19 6.73478 19 7ZM30 23.9993H25.9996L30.2878 18.2771C30.2977 18.264 30.3071 18.2507 30.3163 18.2372C30.6282 17.7746 30.8399 17.2519 30.9379 16.7027C31.0358 16.1534 31.0177 15.5898 30.8849 15.0479C30.752 14.506 30.5073 13.9979 30.1664 13.5563C29.8256 13.1146 29.3961 12.7491 28.9056 12.4833C28.4151 12.2175 27.8744 12.0572 27.3182 12.0127C26.7621 11.9683 26.2028 12.0406 25.6763 12.2252C25.1498 12.4097 24.6677 12.7023 24.261 13.0842C23.8543 13.4661 23.5319 13.9289 23.3147 14.4427C23.2635 14.5637 23.2367 14.6935 23.2357 14.8249C23.2348 14.9562 23.2597 15.0864 23.309 15.2081C23.4087 15.4539 23.6019 15.65 23.8462 15.7533C24.0905 15.8566 24.3658 15.8586 24.6115 15.759C24.7332 15.7096 24.844 15.6368 24.9376 15.5446C25.0311 15.4524 25.1056 15.3428 25.1567 15.2218C25.265 14.9657 25.4254 14.735 25.6277 14.5444C25.8301 14.3538 26.0699 14.2074 26.332 14.1146C26.5941 14.0219 26.8726 13.9848 27.1498 14.0057C27.427 14.0266 27.6969 14.105 27.9421 14.236C28.1873 14.367 28.4025 14.5476 28.574 14.7665C28.7455 14.9853 28.8695 15.2374 28.9381 15.5068C29.0067 15.7762 29.0184 16.057 28.9725 16.3312C28.9265 16.6053 28.8239 16.8669 28.6713 17.0993L23.2122 24.3837C23.0968 24.5314 23.0252 24.7085 23.0055 24.8949C22.9859 25.0813 23.019 25.2694 23.1011 25.4379C23.1832 25.6064 23.311 25.7485 23.4699 25.8478C23.6288 25.9472 23.8124 26 23.9999 26.0001C24.0131 26.0001 24.0264 25.9998 24.0397 25.9993H30C30.2652 25.9993 30.5196 25.8939 30.7071 25.7064C30.8946 25.5188 31 25.2645 31 24.9993C31 24.7341 30.8946 24.4797 30.7071 24.2922C30.5196 24.1046 30.2652 23.9993 30 23.9993V23.9993Z"/>
</svg>
