<svg viewBox="0 0 32 32" xmlns="http://www.w3.org/2000/svg">
<path d="M19 7V22C19 22.2652 18.8946 22.5196 18.7071 22.7071C18.5196 22.8946 18.2652 23 18 23C17.7348 23 17.4804 22.8946 17.2929 22.7071C17.1054 22.5196 17 22.2652 17 22V15.5H6V22C6 22.2652 5.89464 22.5196 5.70711 22.7071C5.51957 22.8946 5.26522 23 5 23C4.73478 23 4.48043 22.8946 4.29289 22.7071C4.10536 22.5196 4 22.2652 4 22V7C4 6.73478 4.10536 6.48043 4.29289 6.29289C4.48043 6.10536 4.73478 6 5 6C5.26522 6 5.51957 6.10536 5.70711 6.29289C5.89464 6.48043 6 6.73478 6 7V13.5H17V7C17 6.73478 17.1054 6.48043 17.2929 6.29289C17.4804 6.10536 17.7348 6 18 6C18.2652 6 18.5196 6.10536 18.7071 6.29289C18.8946 6.48043 19 6.73478 19 7ZM27.9719 12.6184C27.8124 12.533 27.6326 12.4924 27.4518 12.5011C27.2711 12.5098 27.096 12.5675 26.9454 12.6678L23.9454 14.667C23.836 14.7397 23.7419 14.8334 23.6687 14.9425C23.5954 15.0516 23.5444 15.1741 23.5185 15.3029C23.4926 15.4318 23.4924 15.5645 23.5178 15.6934C23.5433 15.8224 23.5939 15.945 23.6668 16.0544C23.7397 16.1638 23.8334 16.2577 23.9426 16.3308C24.0518 16.4039 24.1744 16.4548 24.3033 16.4805C24.4322 16.5062 24.5649 16.5063 24.6938 16.4807C24.8227 16.4551 24.9453 16.4043 25.0546 16.3313L26.5 15.368V25C26.5 25.2652 26.6054 25.5196 26.7929 25.7071C26.9804 25.8946 27.2348 26 27.5 26C27.7652 26 28.0196 25.8946 28.2071 25.7071C28.3946 25.5196 28.5 25.2652 28.5 25V13.5C28.5 13.319 28.4509 13.1414 28.3579 12.9862C28.2649 12.8309 28.1315 12.7038 27.9719 12.6184V12.6184Z"/>
</svg>
