<svg   viewBox="0 0 32 32" fill="none" xmlns="http://www.w3.org/2000/svg">
<path d="M19 7V22C19 22.2652 18.8946 22.5196 18.7071 22.7071C18.5196 22.8946 18.2652 23 18 23C17.7348 23 17.4804 22.8946 17.2929 22.7071C17.1054 22.5196 17 22.2652 17 22V15.5H6V22C6 22.2652 5.89464 22.5196 5.70711 22.7071C5.51957 22.8946 5.26522 23 5 23C4.73478 23 4.48043 22.8946 4.29289 22.7071C4.10536 22.5196 4 22.2652 4 22V7C4 6.73478 4.10536 6.48043 4.29289 6.29289C4.48043 6.10536 4.73478 6 5 6C5.26522 6 5.51957 6.10536 5.70711 6.29289C5.89464 6.48043 6 6.73478 6 7V13.5H17V7C17 6.73478 17.1054 6.48043 17.2929 6.29289C17.4804 6.10536 17.7348 6 18 6C18.2652 6 18.5196 6.10536 18.7071 6.29289C18.8946 6.48043 19 6.73478 19 7ZM26.4852 17.5002C26.0912 17.4999 25.6987 17.5507 25.3177 17.6514L25.83 14.5H30C30.2652 14.5 30.5196 14.3946 30.7071 14.2071C30.8946 14.0196 31 13.7652 31 13.5C31 13.2348 30.8946 12.9804 30.7071 12.7929C30.5196 12.6054 30.2652 12.5 30 12.5H24.9794C24.742 12.5 24.5123 12.5845 24.3315 12.7383C24.1506 12.8921 24.0304 13.1053 23.9923 13.3396L23.0129 19.3649C22.979 19.5735 23.0121 19.7875 23.1073 19.9761C23.2026 20.1648 23.3552 20.3184 23.5432 20.4149C23.7312 20.5114 23.945 20.5459 24.1538 20.5134C24.3627 20.4809 24.5558 20.383 24.7056 20.2339C25.1787 19.764 25.8184 19.5003 26.4852 19.5002C27.152 19.5002 27.7918 19.7639 28.2649 20.2338C28.4978 20.4651 28.6827 20.7403 28.8089 21.0434C28.935 21.3466 29 21.6716 29 22C29 22.3283 28.9351 22.6534 28.8089 22.9565C28.6828 23.2596 28.4979 23.5348 28.265 23.7662C27.792 24.2362 27.1522 24.5 26.4854 24.5C25.8186 24.5 25.1788 24.2363 24.7057 23.7664C24.6127 23.6736 24.5023 23.6 24.3808 23.5499C24.2594 23.4998 24.1292 23.4741 23.9978 23.4743C23.8664 23.4745 23.7364 23.5006 23.6151 23.5511C23.4938 23.6016 23.3836 23.6755 23.2909 23.7686C23.1982 23.8617 23.1247 23.9721 23.0747 24.0936C23.0247 24.2151 22.9991 24.3453 22.9994 24.4767C22.9997 24.6081 23.0259 24.7381 23.0765 24.8594C23.1271 24.9806 23.2011 25.0907 23.2943 25.1833C23.8173 25.71 24.4622 26.0994 25.1719 26.317C25.8815 26.5345 26.6339 26.5734 27.3622 26.4302C28.0904 26.287 28.7721 25.9662 29.3466 25.4963C29.9211 25.0263 30.3707 24.4218 30.6553 23.7363C30.94 23.0509 31.051 22.3057 30.9785 21.567C30.906 20.8284 30.6521 20.119 30.2395 19.5021C29.8269 18.8851 29.2684 18.3795 28.6134 18.0303C27.9585 17.6811 27.2275 17.499 26.4852 17.5002V17.5002Z" fill="black"/>
</svg>
