<svg viewBox="0 0 32 32" xmlns="http://www.w3.org/2000/svg">
<path d="M25 6.99939C25 7.26461 24.8946 7.51896 24.7071 7.70649C24.5196 7.89403 24.2652 7.99939 24 7.99939H19.7207L14.3874 23.9994H18C18.2652 23.9994 18.5196 24.1047 18.7071 24.2923C18.8946 24.4798 19 24.7342 19 24.9994C19 25.2646 18.8946 25.519 18.7071 25.7065C18.5196 25.894 18.2652 25.9994 18 25.9994H13.0036L13.0001 25.9996L12.9967 25.9994H8C7.73478 25.9994 7.48043 25.894 7.29289 25.7065C7.10536 25.519 7 25.2646 7 24.9994C7 24.7342 7.10536 24.4798 7.29289 24.2923C7.48043 24.1047 7.73478 23.9994 8 23.9994H12.2793L17.6126 7.99939H14C13.7348 7.99939 13.4804 7.89403 13.2929 7.7065C13.1054 7.51896 13 7.26461 13 6.99939C13 6.73417 13.1054 6.47982 13.2929 6.29228C13.4804 6.10475 13.7348 5.99939 14 5.99939H24C24.2652 5.99939 24.5196 6.10475 24.7071 6.29229C24.8946 6.47982 25 6.73417 25 6.99939V6.99939Z"/>
</svg>
