<svg viewBox="0 0 32 32" xmlns="http://www.w3.org/2000/svg">
<path d="M28 16C28 16.1313 27.9741 16.2614 27.9239 16.3827C27.8736 16.504 27.8 16.6143 27.7071 16.7071C27.6143 16.8 27.504 16.8736 27.3827 16.9239C27.2614 16.9741 27.1313 17 27 17H21.9914C23.1397 17.8889 24 19.1502 24 21C24 22.6674 23.1232 24.212 21.5309 25.3492C20.0407 26.4138 18.0764 27 16 27C13.9236 27 11.9593 26.4138 10.4691 25.3493C8.87683 24.212 8 22.6674 8 21C8 20.7348 8.10536 20.4804 8.29289 20.2929C8.48043 20.1054 8.73478 20 9 20C9.26522 20 9.51957 20.1054 9.70711 20.2929C9.89464 20.4804 10 20.7348 10 21C10 23.1682 12.7477 25 16 25C19.2523 25 22 23.1682 22 21C22 19.1432 20.6824 18.0522 17.1543 17H5C4.73478 17 4.48043 16.8946 4.29289 16.7071C4.10536 16.5196 4 16.2652 4 16C4 15.7348 4.10536 15.4804 4.29289 15.2929C4.48043 15.1054 4.73478 15 5 15H17.2799C17.2837 14.9999 17.2874 15 17.2912 15H27C27.1313 15 27.2614 15.0259 27.3827 15.0761C27.504 15.1264 27.6143 15.2 27.7071 15.2929C27.8 15.3857 27.8736 15.496 27.9239 15.6173C27.9741 15.7386 28 15.8687 28 16ZM9.54156 13.0006C9.69961 13.0005 9.85538 12.9629 9.99611 12.891C10.1369 12.8191 10.2586 12.7149 10.3513 12.5869C10.444 12.4589 10.5051 12.3108 10.5295 12.1547C10.5539 11.9985 10.541 11.8388 10.4919 11.6886C10.4209 11.4661 10.3861 11.2336 10.3889 11C10.3889 8.7196 12.8011 7 16 7C18.4375 7 20.5147 8.03149 21.2921 9.62781C21.3495 9.74595 21.4297 9.85162 21.528 9.93878C21.6263 10.0259 21.7408 10.0929 21.8649 10.1358C21.9891 10.1786 22.1205 10.1966 22.2516 10.1887C22.3828 10.1808 22.5111 10.1471 22.6292 10.0896C22.7473 10.0321 22.8529 9.95186 22.94 9.85351C23.0271 9.75516 23.094 9.64061 23.1368 9.51641C23.1796 9.39221 23.1975 9.26079 23.1895 9.12967C23.1815 8.99854 23.1477 8.87027 23.0901 8.7522C21.9632 6.43775 19.2464 5 16 5C11.661 5 8.38892 7.57947 8.38892 11C8.3865 11.4454 8.45492 11.8883 8.59161 12.3121C8.65729 12.5123 8.78449 12.6866 8.95507 12.8102C9.12565 12.9339 9.3309 13.0005 9.54156 13.0006V13.0006Z"/>
</svg>
