<svg viewBox="0 0 32 32" xmlns="http://www.w3.org/2000/svg">
<path d="M19 7V22C19 22.2652 18.8946 22.5196 18.7071 22.7071C18.5196 22.8946 18.2652 23 18 23C17.7348 23 17.4804 22.8946 17.2929 22.7071C17.1054 22.5196 17 22.2652 17 22V15.5H6V22C6 22.2652 5.89464 22.5196 5.70711 22.7071C5.51957 22.8946 5.26522 23 5 23C4.73478 23 4.48043 22.8946 4.29289 22.7071C4.10536 22.5196 4 22.2652 4 22V7C4 6.73478 4.10536 6.48043 4.29289 6.29289C4.48043 6.10536 4.73478 6 5 6C5.26522 6 5.51957 6.10536 5.70711 6.29289C5.89464 6.48043 6 6.73478 6 7V13.5H17V7C17 6.73478 17.1054 6.48043 17.2929 6.29289C17.4804 6.10536 17.7348 6 18 6C18.2652 6 18.5196 6.10536 18.7071 6.29289C18.8946 6.48043 19 6.73478 19 7ZM29.6824 18.8181C29.257 18.3912 28.75 18.0542 28.1917 17.8273L30.819 14.0724C30.9239 13.9225 30.9856 13.7468 30.9975 13.5642C31.0095 13.3817 30.9711 13.1994 30.8866 13.0371C30.8021 12.8749 30.6748 12.7389 30.5184 12.6441C30.362 12.5492 30.1826 12.499 29.9996 12.499H23.9996C23.7344 12.499 23.4801 12.6044 23.2925 12.7919C23.105 12.9795 22.9996 13.2338 22.9996 13.499C22.9996 13.7642 23.105 14.0186 23.2925 14.2061C23.4801 14.3937 23.7344 14.499 23.9996 14.499H28.0795L25.681 17.9266C25.5762 18.0765 25.5144 18.2523 25.5025 18.4348C25.4905 18.6173 25.5289 18.7996 25.6134 18.9619C25.6979 19.1241 25.8252 19.2601 25.9816 19.355C26.138 19.4498 26.3174 19.5 26.5004 19.5C26.9115 19.5 27.3163 19.6014 27.6789 19.7951C28.0415 19.9889 28.3507 20.2692 28.5791 20.611C28.8076 20.9529 28.9482 21.3458 28.9885 21.7549C29.0288 22.1641 28.9675 22.5768 28.8102 22.9567C28.6529 23.3365 28.4043 23.6717 28.0865 23.9325C27.7687 24.1934 27.3914 24.3718 26.9882 24.452C26.585 24.5322 26.1682 24.5117 25.7747 24.3923C25.3813 24.273 25.0234 24.0584 24.7327 23.7677C24.6398 23.6748 24.5296 23.6012 24.4082 23.5509C24.2869 23.5007 24.1568 23.4748 24.0255 23.4748C23.8942 23.4748 23.7641 23.5007 23.6428 23.5509C23.5215 23.6012 23.4112 23.6748 23.3184 23.7677C23.2255 23.8606 23.1518 23.9708 23.1016 24.0921C23.0513 24.2135 23.0254 24.3435 23.0254 24.4749C23.0254 24.6062 23.0513 24.7362 23.1016 24.8576C23.1518 24.9789 23.2255 25.0891 23.3184 25.182C23.7362 25.6001 24.2323 25.9318 24.7783 26.1581C25.3243 26.3844 25.9096 26.501 26.5006 26.5011C27.0917 26.5012 27.677 26.3848 28.2231 26.1587C28.7692 25.9325 29.2654 25.601 29.6833 25.1831C30.1013 24.7651 30.4328 24.2689 30.6589 23.7228C30.8851 23.1768 31.0015 22.5915 31.0014 22.0004C31.0013 21.4093 30.8847 20.8241 30.6584 20.278C30.4321 19.732 30.1004 19.2359 29.6824 18.8181H29.6824Z"/>
</svg>
