<svg viewBox="0 0 32 32" xmlns="http://www.w3.org/2000/svg">
<path d="M26 5.99939H6C5.73478 5.99939 5.48043 6.10475 5.2929 6.29229C5.10536 6.47982 5 6.73417 5 6.99939V10.9994C5 11.2646 5.10536 11.519 5.29289 11.7065C5.48043 11.894 5.73478 11.9994 6 11.9994C6.26522 11.9994 6.51957 11.894 6.70711 11.7065C6.89464 11.519 7 11.2646 7 10.9994V7.99939H15V23.9994H12C11.7348 23.9994 11.4804 24.1047 11.2929 24.2923C11.1054 24.4798 11 24.7342 11 24.9994C11 25.2646 11.1054 25.519 11.2929 25.7065C11.4804 25.894 11.7348 25.9994 12 25.9994H20C20.2652 25.9994 20.5196 25.894 20.7071 25.7065C20.8946 25.519 21 25.2646 21 24.9994C21 24.7342 20.8946 24.4798 20.7071 24.2923C20.5196 24.1047 20.2652 23.9994 20 23.9994H17V7.99939H25V10.9994C25 11.2646 25.1054 11.519 25.2929 11.7065C25.4804 11.894 25.7348 11.9994 26 11.9994C26.2652 11.9994 26.5196 11.894 26.7071 11.7065C26.8946 11.519 27 11.2646 27 10.9994V6.99939C27 6.73417 26.8946 6.47982 26.7071 6.29229C26.5196 6.10475 26.2652 5.99939 26 5.99939Z"/>
</svg>
