<svg viewBox="0 0 32 32" xmlns="http://www.w3.org/2000/svg">
<path d="M21.3112 14.4626C22.1024 13.7028 22.6482 12.7236 22.8783 11.6511C23.1085 10.5785 23.0126 9.46162 22.6028 8.44404C22.1931 7.42646 21.4883 6.55473 20.579 5.94098C19.6698 5.32722 18.5978 4.99952 17.5008 5L8.00006 4.99939H8C7.86868 4.99938 7.73864 5.02524 7.61731 5.07549C7.49598 5.12575 7.38574 5.19941 7.29288 5.29227C7.20002 5.38513 7.12636 5.49537 7.07611 5.6167C7.02585 5.73803 6.99999 5.86807 7 5.99939V24.9994C7 25.2646 7.10535 25.5189 7.29287 25.7065C7.48039 25.894 7.73473 25.9994 7.99994 25.9994L19.0007 26C20.3875 26 21.7315 25.5196 22.8041 24.6405C23.8767 23.7614 24.6116 22.5379 24.8839 21.1781C25.1562 19.8183 24.9491 18.4062 24.2977 17.1819C23.6464 15.9575 22.591 14.9967 21.3112 14.4626V14.4626ZM9 6.99945L17.5007 7C18.429 7 19.3192 7.36875 19.9756 8.02513C20.632 8.6815 21.0007 9.57174 21.0007 10.5C21.0007 11.4283 20.632 12.3185 19.9756 12.9749C19.3192 13.6313 18.429 14 17.5007 14H9V6.99945ZM19.0008 24L9 23.9995V16H19.0007C20.0616 16 21.079 16.4214 21.8292 17.1716C22.5793 17.9217 23.0008 18.9391 23.0008 20C23.0008 21.0608 22.5794 22.0783 21.8292 22.8284C21.0791 23.5786 20.0617 24 19.0008 24V24Z"/>
</svg>
