<svg   viewBox="0 0 32 32" fill="none" xmlns="http://www.w3.org/2000/svg">
<path d="M17.2332 18.5255L17.2315 18.5221L10.8838 6.53211C10.7987 6.37147 10.6715 6.23705 10.5158 6.14329C10.3601 6.04954 10.1818 6 10 6C9.81824 6 9.63992 6.04954 9.4842 6.14329C9.32848 6.23705 9.20126 6.37147 9.11622 6.53211L2.76856 18.5221L2.76679 18.5255L0.116217 23.5321C-0.0078766 23.7665 -0.0337743 24.0406 0.0442209 24.2941C0.122216 24.5476 0.297715 24.7597 0.532111 24.8838C0.766506 25.0079 1.0406 25.0338 1.29409 24.9558C1.54758 24.8778 1.7597 24.7023 1.88379 24.4679L4.24915 20H15.7509L18.1162 24.4679C18.2403 24.7023 18.4524 24.8778 18.7059 24.9558C18.9594 25.0338 19.2335 25.0079 19.4679 24.8838C19.7023 24.7597 19.8778 24.5476 19.9558 24.2941C20.0338 24.0406 20.0079 23.7665 19.8838 23.5321L17.2332 18.5255ZM5.30799 18L10 9.13721L14.692 18H5.30799ZM26 11.8625C24.6196 11.851 23.2896 12.3807 22.2952 13.3381C22.1069 13.5249 22.0005 13.7788 21.9994 14.044C21.9983 14.3092 22.1027 14.564 22.2894 14.7523C22.4762 14.9406 22.7301 15.047 22.9953 15.0481C23.2605 15.0492 23.5153 14.9448 23.7036 14.7581C24.3227 14.171 25.147 13.8496 26 13.8625C27.6542 13.8625 29 14.984 29 16.3625V17.265C28.1126 16.6713 27.0677 16.357 26 16.3625C23.243 16.3625 21 18.3812 21 20.8625C21 23.3439 23.243 25.3625 26 25.3625C27.1028 25.3685 28.1802 25.0324 29.0841 24.4006C29.176 24.611 29.3376 24.7834 29.5418 24.8887C29.7459 24.994 29.98 25.0258 30.2048 24.9788C30.4296 24.9318 30.6314 24.8089 30.7762 24.6306C30.921 24.4524 31 24.2297 31 24V16.3625C31 13.8812 28.757 11.8625 26 11.8625ZM26 23.3625C24.3458 23.3625 23 22.2411 23 20.8625C23 19.484 24.3458 18.3625 26 18.3625C27.6542 18.3625 29 19.484 29 20.8625C29 22.2411 27.6542 23.3625 26 23.3625V23.3625Z" fill="black"/>
</svg>
