<svg   viewBox="0 0 32 32" fill="none" xmlns="http://www.w3.org/2000/svg">
<path d="M28 27C28 27.1313 27.9741 27.2614 27.9239 27.3827C27.8736 27.504 27.8 27.6143 27.7071 27.7071C27.6143 27.8 27.504 27.8736 27.3827 27.9239C27.2614 27.9741 27.1313 28 27 28H5C4.73478 28 4.48043 27.8946 4.29289 27.7071C4.10536 27.5196 4 27.2652 4 27C4 26.7348 4.10536 26.4804 4.29289 26.2929C4.48043 26.1054 4.73478 26 5 26H27C27.1313 26 27.2614 26.0259 27.3827 26.0761C27.504 26.1264 27.6143 26.2 27.7071 26.2929C27.8 26.3857 27.8736 26.496 27.9239 26.6173C27.9741 26.7386 28 26.8687 28 27V27ZM16 24C18.3861 23.9973 20.6737 23.0482 22.361 21.361C24.0482 19.6737 24.9973 17.3861 25 15V7C25 6.73478 24.8946 6.48043 24.7071 6.29289C24.5196 6.10536 24.2652 6 24 6C23.7348 6 23.4804 6.10536 23.2929 6.29289C23.1054 6.48043 23 6.73478 23 7V15C23 16.8565 22.2625 18.637 20.9497 19.9497C19.637 21.2625 17.8565 22 16 22C14.1435 22 12.363 21.2625 11.0503 19.9497C9.7375 18.637 9 16.8565 9 15V7C9 6.73478 8.89464 6.48043 8.70711 6.29289C8.51957 6.10536 8.26522 6 8 6C7.73478 6 7.48043 6.10536 7.29289 6.29289C7.10536 6.48043 7 6.73478 7 7V15C7.00269 17.3861 7.95177 19.6737 9.63901 21.361C11.3263 23.0482 13.6139 23.9973 16 24V24Z" fill="black"/>
</svg>
