<svg viewBox="0 0 32 32" xmlns="http://www.w3.org/2000/svg">
<path d="M19 7V22C19 22.2652 18.8946 22.5196 18.7071 22.7071C18.5196 22.8946 18.2652 23 18 23C17.7348 23 17.4804 22.8946 17.2929 22.7071C17.1054 22.5196 17 22.2652 17 22V15.5H6V22C6 22.2652 5.89464 22.5196 5.70711 22.7071C5.51957 22.8946 5.26522 23 5 23C4.73478 23 4.48043 22.8946 4.29289 22.7071C4.10536 22.5196 4 22.2652 4 22V7C4 6.73478 4.10536 6.48043 4.29289 6.29289C4.48043 6.10536 4.73478 6 5 6C5.26522 6 5.51957 6.10536 5.70711 6.29289C5.89464 6.48043 6 6.73478 6 7V13.5H17V7C17 6.73478 17.1054 6.48043 17.2929 6.29289C17.4804 6.10536 17.7348 6 18 6C18.2652 6 18.5196 6.10536 18.7071 6.29289C18.8946 6.48043 19 6.73478 19 7ZM31.5 21C31.5006 21.6878 31.3435 22.3666 31.0408 22.9842C30.738 23.6018 30.2978 24.1418 29.7538 24.5627C29.2098 24.9837 28.5766 25.2743 27.9027 25.4122C27.2289 25.5502 26.5324 25.5319 25.8668 25.3587C25.2011 25.1855 24.5841 24.862 24.0629 24.4131C23.5418 23.9642 23.1306 23.4018 22.8607 22.7691C22.5909 22.1364 22.4697 21.4503 22.5064 20.7635C22.5431 20.0766 22.7368 19.4074 23.0726 18.8071C23.0844 18.7831 23.0964 18.7592 23.1104 18.7358L27.1415 11.9872C27.2088 11.8744 27.2977 11.7761 27.4031 11.6977C27.5084 11.6193 27.6282 11.5624 27.7555 11.5303C27.8829 11.4982 28.0153 11.4915 28.1452 11.5106C28.2752 11.5297 28.4001 11.5741 28.5128 11.6415C28.6256 11.7088 28.7239 11.7977 28.8023 11.9031C28.8807 12.0084 28.9376 12.1282 28.9697 12.2556C29.0018 12.3829 29.0085 12.5153 28.9894 12.6452C28.9703 12.7752 28.9259 12.9001 28.8585 13.0128L26.7721 16.5058C26.8476 16.502 26.9236 16.5001 27 16.5C28.1931 16.5013 29.3369 16.9759 30.1805 17.8195C31.0241 18.6631 31.4987 19.8069 31.5 21V21ZM29.5 21C29.5 20.5055 29.3534 20.0222 29.0787 19.6111C28.804 19.2 28.4135 18.8795 27.9567 18.6903C27.4999 18.5011 26.9972 18.4516 26.5123 18.548C26.0273 18.6445 25.5819 18.8826 25.2322 19.2322C24.8826 19.5819 24.6445 20.0273 24.548 20.5123C24.4516 20.9972 24.5011 21.4999 24.6903 21.9567C24.8795 22.4135 25.2 22.804 25.6111 23.0787C26.0222 23.3534 26.5055 23.5 27 23.5C27.6628 23.4993 28.2983 23.2356 28.767 22.767C29.2356 22.2983 29.4993 21.6628 29.5 21V21Z"/>
</svg>
