<svg   viewBox="0 0 32 32" fill="none" xmlns="http://www.w3.org/2000/svg">
<path d="M19 7V22C19 22.2652 18.8946 22.5196 18.7071 22.7071C18.5196 22.8946 18.2652 23 18 23C17.7348 23 17.4804 22.8946 17.2929 22.7071C17.1054 22.5196 17 22.2652 17 22V15.5H6V22C6 22.2652 5.89464 22.5196 5.70711 22.7071C5.51957 22.8946 5.26522 23 5 23C4.73478 23 4.48043 22.8946 4.29289 22.7071C4.10536 22.5196 4 22.2652 4 22V7C4 6.73478 4.10536 6.48043 4.29289 6.29289C4.48043 6.10536 4.73478 6 5 6C5.26522 6 5.51957 6.10536 5.70711 6.29289C5.89464 6.48043 6 6.73478 6 7V13.5H17V7C17 6.73478 17.1054 6.48043 17.2929 6.29289C17.4804 6.10536 17.7348 6 18 6C18.2652 6 18.5196 6.10536 18.7071 6.29289C18.8946 6.48043 19 6.73478 19 7ZM29.5 16C29.2348 16 28.9804 16.1054 28.7929 16.2929C28.6054 16.4804 28.5 16.7348 28.5 17V20H24.9133L27.4428 12.8328C27.4865 12.7089 27.5053 12.5777 27.4983 12.4466C27.4913 12.3154 27.4585 12.187 27.4019 12.0685C27.3452 11.95 27.2657 11.8439 27.1681 11.7561C27.0704 11.6684 26.9564 11.6007 26.8325 11.557C26.7087 11.5133 26.5775 11.4944 26.4463 11.5014C26.3152 11.5085 26.1867 11.5412 26.0683 11.5979C25.9498 11.6546 25.8437 11.734 25.7559 11.8317C25.6681 11.9294 25.6005 12.0434 25.5568 12.1672L22.557 20.6672C22.5038 20.8181 22.4875 20.9794 22.5096 21.1378C22.5316 21.2962 22.5913 21.447 22.6837 21.5776C22.7761 21.7081 22.8984 21.8146 23.0404 21.8881C23.1825 21.9616 23.3401 22 23.5 22H28.5V25C28.5 25.2652 28.6054 25.5196 28.7929 25.7071C28.9804 25.8946 29.2348 26 29.5 26C29.7652 26 30.0196 25.8946 30.2071 25.7071C30.3946 25.5196 30.5 25.2652 30.5 25V17C30.5 16.7348 30.3946 16.4804 30.2071 16.2929C30.0196 16.1054 29.7652 16 29.5 16V16Z" fill="black"/>
</svg>
