<svg   viewBox="0 0 32 32" fill="none" xmlns="http://www.w3.org/2000/svg">
<path d="M5 9.5H27C27.2652 9.5 27.5196 9.39464 27.7071 9.20711C27.8946 9.01957 28 8.76522 28 8.5C28 8.23478 27.8946 7.98043 27.7071 7.79289C27.5196 7.60536 27.2652 7.5 27 7.5H5C4.73478 7.5 4.48043 7.60536 4.29289 7.79289C4.10536 7.98043 4 8.23478 4 8.5C4 8.76522 4.10536 9.01957 4.29289 9.20711C4.48043 9.39464 4.73478 9.5 5 9.5V9.5Z" fill="black"/>
<path d="M5 14.5H21C21.2652 14.5 21.5196 14.3946 21.7071 14.2071C21.8946 14.0196 22 13.7652 22 13.5C22 13.2348 21.8946 12.9804 21.7071 12.7929C21.5196 12.6054 21.2652 12.5 21 12.5H5C4.73478 12.5 4.48043 12.6054 4.29289 12.7929C4.10536 12.9804 4 13.2348 4 13.5C4 13.7652 4.10536 14.0196 4.29289 14.2071C4.48043 14.3946 4.73478 14.5 5 14.5V14.5Z" fill="black"/>
<path d="M26.9993 17.5H5C4.73478 17.5 4.48043 17.6054 4.29289 17.7929C4.10536 17.9804 4 18.2348 4 18.5C4 18.7652 4.10536 19.0196 4.29289 19.2071C4.48043 19.3946 4.73478 19.5 5 19.5H26.9993C27.2645 19.5 27.5188 19.3946 27.7064 19.2071C27.8939 19.0196 27.9993 18.7652 27.9993 18.5C27.9993 18.2348 27.8939 17.9804 27.7064 17.7929C27.5188 17.6054 27.2645 17.5 26.9993 17.5Z" fill="black"/>
<path d="M20.9993 22.5H5C4.73478 22.5 4.48043 22.6054 4.29289 22.7929C4.10536 22.9804 4 23.2348 4 23.5C4 23.7652 4.10536 24.0196 4.29289 24.2071C4.48043 24.3946 4.73478 24.5 5 24.5H20.9993C21.2645 24.5 21.5188 24.3946 21.7064 24.2071C21.8939 24.0196 21.9993 23.7652 21.9993 23.5C21.9993 23.2348 21.8939 22.9804 21.7064 22.7929C21.5188 22.6054 21.2645 22.5 20.9993 22.5Z" fill="black"/>
</svg>
