<svg viewBox="0 0 32 32" xmlns="http://www.w3.org/2000/svg">
<path d="M5 9.5H27C27.2652 9.5 27.5196 9.39464 27.7071 9.20711C27.8946 9.01957 28 8.76522 28 8.5C28 8.23478 27.8946 7.98043 27.7071 7.79289C27.5196 7.60536 27.2652 7.5 27 7.5H5C4.73478 7.5 4.48043 7.60536 4.29289 7.79289C4.10536 7.98043 4 8.23478 4 8.5C4 8.76522 4.10536 9.01957 4.29289 9.20711C4.48043 9.39464 4.73478 9.5 5 9.5Z"/>
<path d="M8 12.5C7.73478 12.5 7.48043 12.6054 7.29289 12.7929C7.10536 12.9804 7 13.2348 7 13.5C7 13.7652 7.10536 14.0196 7.29289 14.2071C7.48043 14.3946 7.73478 14.5 8 14.5H24C24.2652 14.5 24.5196 14.3946 24.7071 14.2071C24.8946 14.0196 25 13.7652 25 13.5C25 13.2348 24.8946 12.9804 24.7071 12.7929C24.5196 12.6054 24.2652 12.5 24 12.5H8Z"/>
<path d="M26.9993 17.5H5C4.73478 17.5 4.48043 17.6054 4.29289 17.7929C4.10536 17.9804 4 18.2348 4 18.5C4 18.7652 4.10536 19.0196 4.29289 19.2071C4.48043 19.3946 4.73478 19.5 5 19.5H26.9993C27.2645 19.5 27.5188 19.3946 27.7064 19.2071C27.8939 19.0196 27.9993 18.7652 27.9993 18.5C27.9993 18.2348 27.8939 17.9804 27.7064 17.7929C27.5188 17.6054 27.2645 17.5 26.9993 17.5Z"/>
<path d="M23.9993 22.5H8C7.73478 22.5 7.48043 22.6054 7.29289 22.7929C7.10536 22.9804 7 23.2348 7 23.5C7 23.7652 7.10536 24.0196 7.29289 24.2071C7.48043 24.3946 7.73478 24.5 8 24.5H23.9993C24.2645 24.5 24.5188 24.3946 24.7064 24.2071C24.8939 24.0196 24.9993 23.7652 24.9993 23.5C24.9993 23.2348 24.8939 22.9804 24.7064 22.7929C24.5188 22.6054 24.2645 22.5 23.9993 22.5Z"/>
</svg>
