<svg   viewBox="0 0 32 32" fill="none" xmlns="http://www.w3.org/2000/svg">
<path d="M27 6H22.0005V5C21.9996 4.20463 21.6832 3.44209 21.1208 2.87967C20.5584 2.31726 19.7959 2.0009 19.0005 2H13.0005C12.2051 2.0009 11.4426 2.31726 10.8802 2.87967C10.3177 3.44209 10.0014 4.20463 10.0005 5V6H5C4.73478 6 4.48043 6.10536 4.29289 6.29289C4.10536 6.48043 4 6.73478 4 7C4 7.26522 4.10536 7.51957 4.29289 7.70711C4.48043 7.89464 4.73478 8 5 8H6V26C6.00061 26.5302 6.21151 27.0386 6.58646 27.4135C6.9614 27.7885 7.46975 27.9994 8 28H24C24.5302 27.9994 25.0386 27.7885 25.4135 27.4135C25.7885 27.0386 25.9994 26.5302 26 26V8H27C27.2652 8 27.5196 7.89464 27.7071 7.70711C27.8946 7.51957 28 7.26522 28 7C28 6.73478 27.8946 6.48043 27.7071 6.29289C27.5196 6.10536 27.2652 6 27 6ZM14.0005 21C14.0005 21.2652 13.8951 21.5196 13.7076 21.7071C13.5201 21.8946 13.2657 22 13.0005 22C12.7353 22 12.4809 21.8946 12.2934 21.7071C12.1058 21.5196 12.0005 21.2652 12.0005 21V13C12.0005 12.7348 12.1058 12.4804 12.2934 12.2929C12.4809 12.1054 12.7353 12 13.0005 12C13.2657 12 13.5201 12.1054 13.7076 12.2929C13.8951 12.4804 14.0005 12.7348 14.0005 13V21ZM20.0005 21C20.0005 21.2652 19.8951 21.5196 19.7076 21.7071C19.5201 21.8946 19.2657 22 19.0005 22C18.7353 22 18.4809 21.8946 18.2934 21.7071C18.1058 21.5196 18.0005 21.2652 18.0005 21V13C18.0005 12.7348 18.1058 12.4804 18.2934 12.2929C18.4809 12.1054 18.7353 12 19.0005 12C19.2657 12 19.5201 12.1054 19.7076 12.2929C19.8951 12.4804 20.0005 12.7348 20.0005 13V21ZM20.0005 6H12.0005V5C12.0008 4.73488 12.1062 4.4807 12.2937 4.29323C12.4812 4.10576 12.7354 4.0003 13.0005 4H19.0005C19.2656 4.0003 19.5198 4.10576 19.7073 4.29323C19.8947 4.4807 20.0002 4.73488 20.0005 5V6Z" fill="black"/>
</svg>
