<svg   viewBox="0 0 32 32" fill="none" xmlns="http://www.w3.org/2000/svg">
<path d="M28 7C28 7.26522 27.8946 7.51957 27.7071 7.7071C27.5196 7.89464 27.2652 8 27 8H26V26C25.9994 26.5302 25.7885 27.0386 25.4135 27.4135C25.0386 27.7885 24.5302 27.9994 24 28H8C7.46975 27.9994 6.9614 27.7885 6.58646 27.4135C6.21151 27.0386 6.00061 26.5302 6 26V8H5C4.73478 8 4.48043 7.89464 4.29289 7.70711C4.10536 7.51957 4 7.26522 4 7C4 6.73478 4.10536 6.48043 4.29289 6.29289C4.48043 6.10536 4.73478 6 5 6H27C27.2652 6 27.5196 6.10536 27.7071 6.2929C27.8946 6.48043 28 6.73478 28 7V7ZM11.0005 4H21.0005C21.2657 4 21.5201 3.89464 21.7076 3.70711C21.8951 3.51957 22.0005 3.26522 22.0005 3C22.0005 2.73478 21.8951 2.48043 21.7076 2.29289C21.5201 2.10536 21.2657 2 21.0005 2H11.0005C10.7353 2 10.4809 2.10536 10.2934 2.29289C10.1058 2.48043 10.0005 2.73478 10.0005 3C10.0005 3.26522 10.1058 3.51957 10.2934 3.70711C10.4809 3.89464 10.7353 4 11.0005 4Z" fill="black"/>
</svg>
