<svg   viewBox="0 0 32 32" fill="none" xmlns="http://www.w3.org/2000/svg">
<path d="M26.0007 4H6.00073C5.47049 4.00061 4.96213 4.21151 4.58719 4.58646C4.21225 4.9614 4.00134 5.46975 4.00073 6V19.9855C4.00067 19.9904 4 19.9951 4 20C4 20.0049 4.00067 20.0096 4.00073 20.0145V26C4.00134 26.5302 4.21225 27.0386 4.58719 27.4135C4.96213 27.7885 5.47049 27.9994 6.00073 28H26.0007C26.531 27.9994 27.0393 27.7885 27.4143 27.4135C27.7892 27.0386 28.0001 26.5302 28.0007 26V6C28.0001 5.46975 27.7892 4.9614 27.4143 4.58646C27.0393 4.21151 26.531 4.00061 26.0007 4ZM26.0007 26H6.00073V21L9.58582 20.9999L12.0001 23.4144C12.1854 23.6007 12.4058 23.7483 12.6485 23.8488C12.8912 23.9493 13.1515 24.0007 13.4142 24H18.5858C18.8486 24.0007 19.1088 23.9493 19.3516 23.8487C19.5943 23.7482 19.8147 23.6005 20 23.4142L22.4142 21H26.0016L26.002 26H26.0007Z" fill="black"/>
</svg>
