<svg   viewBox="0 0 24 24" fill="none" xmlns="http://www.w3.org/2000/svg">
<g clip-path="url(#clip0_61_17294)">
<path d="M21 11.001H17.83L20.37 8.46098C20.76 8.07098 20.76 7.44098 20.37 7.05098C19.98 6.66098 19.34 6.66098 18.95 7.05098L15 11.001H13V9.00098L16.95 5.05098C17.34 4.66098 17.34 4.02098 16.95 3.63098C16.56 3.24098 15.93 3.24098 15.54 3.63098L13 6.17098V3.00098C13 2.45098 12.55 2.00098 12 2.00098C11.45 2.00098 11 2.45098 11 3.00098V6.17098L8.46 3.63098C8.07 3.24098 7.44 3.24098 7.05 3.63098C6.66 4.02098 6.66 4.66098 7.05 5.05098L11 9.00098V11.001H9L5.05 7.05098C4.66 6.66098 4.02 6.66098 3.63 7.05098C3.24 7.44098 3.24 8.07098 3.63 8.46098L6.17 11.001H3C2.45 11.001 2 11.451 2 12.001C2 12.551 2.45 13.001 3 13.001H6.17L3.63 15.541C3.24 15.931 3.24 16.561 3.63 16.951C4.02 17.341 4.66 17.341 5.05 16.951L9 13.001H11V15.001L7.05 18.951C6.66 19.341 6.66 19.981 7.05 20.371C7.44 20.761 8.07 20.761 8.46 20.371L11 17.831V21.001C11 21.551 11.45 22.001 12 22.001C12.55 22.001 13 21.551 13 21.001V17.831L15.54 20.371C15.93 20.761 16.56 20.761 16.95 20.371C17.34 19.981 17.34 19.341 16.95 18.951L13 15.001V13.001H15L18.95 16.951C19.34 17.341 19.98 17.341 20.37 16.951C20.76 16.561 20.76 15.931 20.37 15.541L17.83 13.001H21C21.55 13.001 22 12.551 22 12.001C22 11.451 21.55 11.001 21 11.001Z" fill="black"/>
</g>
<defs>
<clipPath id="clip0_61_17294">
<rect width="24" height="24" fill="white" transform="translate(0 0.000976562)"/>
</clipPath>
</defs>
</svg>
