<svg viewBox="0 0 24 24" xmlns="http://www.w3.org/2000/svg">
<g clip-path="url(#clip0_61_17295)">
<path d="M22.41 10.411L17.58 5.58098C17.21 5.21098 16.7 5.00098 16.17 5.00098H3C1.9 5.00098 1 5.89098 1 7.00098V14.001C1 15.101 1.9 16.001 3 16.001C3 17.661 4.34 19.001 6 19.001C7.66 19.001 9 17.661 9 16.001H15C15 17.661 16.34 19.001 18 19.001C19.66 19.001 21 17.661 21 16.001C22.1 16.001 23 15.101 23 14.001V11.831C23 11.301 22.79 10.791 22.41 10.411ZM3 10.001V8.00098C3 7.45098 3.45 7.00098 4 7.00098H7V11.001H4C3.45 11.001 3 10.551 3 10.001ZM6 17.251C5.31 17.251 4.75 16.691 4.75 16.001C4.75 15.311 5.31 14.751 6 14.751C6.69 14.751 7.25 15.311 7.25 16.001C7.25 16.691 6.69 17.251 6 17.251ZM13 11.001H9V7.00098H13V11.001ZM18 17.251C17.31 17.251 16.75 16.691 16.75 16.001C16.75 15.311 17.31 14.751 18 14.751C18.69 14.751 19.25 15.311 19.25 16.001C19.25 16.691 18.69 17.251 18 17.251ZM15 11.001V7.00098H16L20 11.001H15Z"/>
</g>
<defs>
<clipPath id="clip0_61_17295">
<rect transform="translate(0 0.000976562)"/>
</clipPath>
</defs>
</svg>
