<svg viewBox="0 0 24 24" xmlns="http://www.w3.org/2000/svg">
<g clip-path="url(#clip0_61_17296)">
<path d="M20.22 6.86109C18.22 6.26109 16.16 6.82109 14.83 8.15109L12 10.6611L10.48 12.0011H10.49L7.8 14.3911C6.99 15.2011 5.85 15.5411 4.68 15.3111C3.43 15.0611 2.4 14.0611 2.11 12.8211C1.59 10.5911 3.27 8.62109 5.4 8.62109C6.31 8.62109 7.16 8.97109 7.84 9.65109L8.31 10.0611C8.69 10.4011 9.26 10.4011 9.64 10.0611C10.09 9.66109 10.09 8.96109 9.64 8.56109L9.22 8.20109C8.2 7.18109 6.84 6.62109 5.4 6.62109C2.42 6.62109 0 9.04109 0 12.0011C0 14.9611 2.42 17.3811 5.4 17.3811C6.84 17.3811 8.2 16.8211 9.17 15.8511L12 13.3511L12.01 13.3611L13.52 12.0011H13.51L16.2 9.61109C17.01 8.80109 18.15 8.46109 19.32 8.69109C20.57 8.94109 21.6 9.94109 21.89 11.1811C22.41 13.4111 20.73 15.3811 18.6 15.3811C17.7 15.3811 16.84 15.0311 16.16 14.3511L15.68 13.9311C15.3 13.5911 14.73 13.5911 14.35 13.9311C13.9 14.3311 13.9 15.0311 14.35 15.4311L14.77 15.8011C15.79 16.8111 17.14 17.3711 18.59 17.3711C21.86 17.3711 24.45 14.4711 23.92 11.1211C23.62 9.13109 22.15 7.43109 20.22 6.86109V6.86109Z"/>
</g>
<defs>
<clipPath id="clip0_61_17296">
<rect transform="translate(0 0.000976562)"/>
</clipPath>
</defs>
</svg>
