<svg viewBox="0 0 24 24" xmlns="http://www.w3.org/2000/svg">
<g clip-path="url(#clip0_61_17297)">
<path d="M17 11.001V5.00098C17 3.90098 16.1 3.00098 15 3.00098H9C7.9 3.00098 7 3.90098 7 5.00098V7.00098H5C3.9 7.00098 3 7.90098 3 9.00098V19.001C3 20.101 3.9 21.001 5 21.001H10C10.55 21.001 11 20.551 11 20.001V17.001H13V20.001C13 20.551 13.45 21.001 14 21.001H19C20.1 21.001 21 20.101 21 19.001V13.001C21 11.901 20.1 11.001 19 11.001H17ZM7 19.001H5V17.001H7V19.001ZM7 15.001H5V13.001H7V15.001ZM7 11.001H5V9.00098H7V11.001ZM11 15.001H9V13.001H11V15.001ZM11 11.001H9V9.00098H11V11.001ZM11 7.00098H9V5.00098H11V7.00098ZM15 15.001H13V13.001H15V15.001ZM15 11.001H13V9.00098H15V11.001ZM15 7.00098H13V5.00098H15V7.00098ZM19 19.001H17V17.001H19V19.001ZM19 15.001H17V13.001H19V15.001Z"/>
</g>
<defs>
<clipPath id="clip0_61_17297">
<rect transform="translate(0 0.000976562)"/>
</clipPath>
</defs>
</svg>
