<svg viewBox="0 0 24 24" xmlns="http://www.w3.org/2000/svg">
<g clip-path="url(#clip0_61_17298)">
<path d="M14 9.00098C14 9.55098 13.55 10.001 13 10.001H11.42C11.14 10.001 10.87 9.94098 10.62 9.83098L8.32 8.82098L7 12.751V21.001C7 21.551 6.55 22.001 6 22.001H4C3.45 22.001 3 21.551 3 21.001V12.331C3 12.111 3.04 11.891 3.11 11.681L4.59 7.36098C4.96 6.25098 6.22 5.69098 7.3 6.18098L11.45 8.01098L13 8.00098C13.55 8.00098 14 8.45098 14 9.00098ZM8 1.00098C6.9 1.00098 6 1.90098 6 3.00098C6 4.10098 6.9 5.00098 8 5.00098C9.1 5.00098 10 4.10098 10 3.00098C10 1.90098 9.1 1.00098 8 1.00098ZM10 19.001H20C20.55 19.001 21 18.551 21 18.001C21 17.451 20.55 17.001 20 17.001H10C9.45 17.001 9 17.451 9 18.001C9 18.551 9.45 19.001 10 19.001ZM19.5 16.001C20.33 16.001 21 15.331 21 14.501C21 13.671 20.33 13.001 19.5 13.001C18.67 13.001 18 13.671 18 14.501C18 15.331 18.67 16.001 19.5 16.001ZM13 12.001C13 11.451 12.55 11.001 12 11.001H10C9.45 11.001 9 11.451 9 12.001C9 12.551 9.45 13.001 10 13.001H11V14.001C11 15.101 11.9 16.001 13 16.001H15C16.1 16.001 17 15.101 17 14.001V12.001C17 11.451 16.55 11.001 16 11.001C15.45 11.001 15 11.451 15 12.001V13.001H13V12.001Z"/>
</g>
<defs>
<clipPath id="clip0_61_17298">
<rect transform="translate(0 0.000976562)"/>
</clipPath>
</defs>
</svg>
