<svg   viewBox="0 0 24 24" fill="none" xmlns="http://www.w3.org/2000/svg">
<g clip-path="url(#clip0_61_17299)">
<path d="M20 8.00098V20.001C20 21.101 19.1 22.001 18 22.001H6C4.9 22.001 4 21.101 4 20.001V8.00098C4 6.14098 5.28 4.59098 7 4.14098V3.50098C7 2.67098 7.67 2.00098 8.5 2.00098C9.33 2.00098 10 2.67098 10 3.50098V4.00098H14V3.50098C14 2.67098 14.67 2.00098 15.5 2.00098C16.33 2.00098 17 2.67098 17 3.50098V4.14098C18.72 4.59098 20 6.14098 20 8.00098ZM6 13.001C6 13.551 6.45 14.001 7 14.001H16V15.001C16 15.551 16.45 16.001 17 16.001C17.55 16.001 18 15.551 18 15.001V13.001C18 12.451 17.55 12.001 17 12.001H7C6.45 12.001 6 12.451 6 13.001Z" fill="black"/>
</g>
<defs>
<clipPath id="clip0_61_17299">
<rect width="24" height="24" fill="white" transform="translate(0 0.000976562)"/>
</clipPath>
</defs>
</svg>
