<svg   viewBox="0 0 24 24" fill="none" xmlns="http://www.w3.org/2000/svg">
<g clip-path="url(#clip0_61_17300)">
<path d="M7 9.00098C8.10457 9.00098 9 8.10555 9 7.00098C9 5.89641 8.10457 5.00098 7 5.00098C5.89543 5.00098 5 5.89641 5 7.00098C5 8.10555 5.89543 9.00098 7 9.00098Z" fill="black"/>
<path d="M21 13.001H20V4.83098C20 3.27098 18.73 2.00098 17.17 2.00098C16.42 2.00098 15.7 2.30098 15.17 2.83098L13.92 4.08098C13.76 4.03098 13.59 4.00098 13.41 4.00098C13.01 4.00098 12.64 4.12098 12.33 4.32098L15.09 7.08098C15.29 6.77098 15.41 6.40098 15.41 6.00098C15.41 5.82098 15.38 5.66098 15.34 5.49098L16.59 4.24098C16.74 4.09098 16.95 4.00098 17.17 4.00098C17.63 4.00098 18 4.37098 18 4.83098V13.001H11.15C10.85 12.791 10.58 12.551 10.33 12.281L8.93 10.731C8.74 10.521 8.5 10.351 8.24 10.231C7.93 10.081 7.59 10.001 7.24 10.001C6 10.011 5 11.011 5 12.251V13.001H3C2.45 13.001 2 13.451 2 14.001V19.001C2 20.101 2.9 21.001 4 21.001C4 21.551 4.45 22.001 5 22.001H19C19.55 22.001 20 21.551 20 21.001C21.1 21.001 22 20.101 22 19.001V14.001C22 13.451 21.55 13.001 21 13.001Z" fill="black"/>
</g>
<defs>
<clipPath id="clip0_61_17300">
<rect width="24" height="24" fill="white" transform="translate(0 0.000976562)"/>
</clipPath>
</defs>
</svg>
