<svg   viewBox="0 0 24 24" fill="none" xmlns="http://www.w3.org/2000/svg">
<g clip-path="url(#clip0_61_17301)">
<path d="M13.1323 14.5612L14.5623 13.1312L20.2923 18.8612C20.6823 19.2512 20.6823 19.8912 20.2923 20.2912C19.9023 20.6812 19.2623 20.6812 18.8623 20.2912L13.1323 14.5612V14.5612ZM17.4223 8.83122L18.6923 7.56122C19.5823 6.67122 19.4623 5.13122 18.3823 4.48122C14.4923 2.10122 9.35225 2.59122 5.98225 5.95122C9.91225 4.65122 14.2923 5.70122 17.4223 8.83122ZM5.95225 5.98122C2.59225 9.35122 2.10225 14.4912 4.47225 18.3812C5.13225 19.4612 6.66225 19.5912 7.55225 18.6912L8.82225 17.4212C5.70225 14.2912 4.65225 9.91122 5.95225 5.98122ZM5.97225 5.96122L5.96225 5.97122C5.58225 8.98122 7.13225 12.8512 10.2623 15.9912L15.9923 10.2612C12.8623 7.13122 8.98225 5.58122 5.97225 5.96122V5.96122Z" fill="black"/>
</g>
<defs>
<clipPath id="clip0_61_17301">
<rect width="24" height="24" fill="white" transform="translate(0 0.000976562)"/>
</clipPath>
</defs>
</svg>
