<svg viewBox="0 0 24 24" xmlns="http://www.w3.org/2000/svg">
<g clip-path="url(#clip0_61_17302)">
<path d="M16 11.001V5.00098H20C21.1 5.00098 22 5.90098 22 7.00098V11.001H16ZM20 19.001C21.1 19.001 22 18.101 22 17.001V13.001H16V19.001H20ZM14 5.00098V19.001H4C2.9 19.001 2 18.101 2 17.001V7.00098C2 5.90098 2.9 5.00098 4 5.00098H14ZM9.5 12.001C9.5 11.171 8.83 10.501 8 10.501C7.17 10.501 6.5 11.171 6.5 12.001C6.5 12.831 7.17 13.501 8 13.501C8.83 13.501 9.5 12.831 9.5 12.001Z"/>
</g>
<defs>
<clipPath id="clip0_61_17302">
<rect transform="translate(0 0.000976562)"/>
</clipPath>
</defs>
</svg>
