<svg viewBox="0 0 24 24" xmlns="http://www.w3.org/2000/svg">
<g clip-path="url(#clip0_61_17303)">
<path d="M13 16.001H11C10.45 16.001 10 15.551 10 15.001H3.01V19.001C3.01 20.101 3.91 21.001 5.01 21.001H19C20.1 21.001 21 20.101 21 19.001V15.001H14C14 15.551 13.55 16.001 13 16.001ZM20 7.00098H16C16 4.79098 14.21 3.00098 12 3.00098C9.79 3.00098 8 4.79098 8 7.00098H4C2.9 7.00098 2 7.90098 2 9.00098V12.001C2 13.111 2.89 14.001 4 14.001H10V13.001C10 12.451 10.45 12.001 11 12.001H13C13.55 12.001 14 12.451 14 13.001V14.001H20C21.1 14.001 22 13.101 22 12.001V9.00098C22 7.90098 21.1 7.00098 20 7.00098ZM10 7.00098C10 5.90098 10.9 5.00098 12 5.00098C13.1 5.00098 14 5.90098 14 7.00098H9.99H10Z"/>
</g>
<defs>
<clipPath id="clip0_61_17303">
<rect transform="translate(0 0.000976562)"/>
</clipPath>
</defs>
</svg>
