<svg viewBox="0 0 24 24" xmlns="http://www.w3.org/2000/svg">
<g clip-path="url(#clip0_61_17305)">
<path d="M19 3.00098H5C3.9 3.00098 3 3.90098 3 5.00098V19.001C3 20.101 3.9 21.001 5 21.001H19C20.1 21.001 21 20.101 21 19.001V5.00098C21 3.90098 20.1 3.00098 19 3.00098ZM7.5 18.001C6.67 18.001 6 17.331 6 16.501C6 15.671 6.67 15.001 7.5 15.001C8.33 15.001 9 15.671 9 16.501C9 17.331 8.33 18.001 7.5 18.001ZM7.5 9.00098C6.67 9.00098 6 8.33098 6 7.50098C6 6.67098 6.67 6.00098 7.5 6.00098C8.33 6.00098 9 6.67098 9 7.50098C9 8.33098 8.33 9.00098 7.5 9.00098ZM12 13.501C11.17 13.501 10.5 12.831 10.5 12.001C10.5 11.171 11.17 10.501 12 10.501C12.83 10.501 13.5 11.171 13.5 12.001C13.5 12.831 12.83 13.501 12 13.501ZM16.5 18.001C15.67 18.001 15 17.331 15 16.501C15 15.671 15.67 15.001 16.5 15.001C17.33 15.001 18 15.671 18 16.501C18 17.331 17.33 18.001 16.5 18.001ZM16.5 9.00098C15.67 9.00098 15 8.33098 15 7.50098C15 6.67098 15.67 6.00098 16.5 6.00098C17.33 6.00098 18 6.67098 18 7.50098C18 8.33098 17.33 9.00098 16.5 9.00098Z"/>
</g>
<defs>
<clipPath id="clip0_61_17305">
<rect transform="translate(0 0.000976562)"/>
</clipPath>
</defs>
</svg>
