<svg   viewBox="0 0 24 24" fill="none" xmlns="http://www.w3.org/2000/svg">
<g clip-path="url(#clip0_61_17306)">
<path d="M17 1.00098H7C5.9 1.00098 5 1.90098 5 3.00098V21.001C5 22.101 5.9 23.001 7 23.001H17C18.1 23.001 19 22.101 19 21.001V3.00098C19 1.90098 18.1 1.00098 17 1.00098ZM17 18.001H7V6.00098H17V18.001ZM12.5 11.001V9.12098C12.5 8.59098 11.79 8.42098 11.55 8.90098L9.86 12.281C9.7 12.611 9.94 13.001 10.31 13.001H11.5V14.881C11.5 15.411 12.21 15.581 12.45 15.101L14.14 11.721C14.3 11.391 14.06 11.001 13.69 11.001H12.5Z" fill="black"/>
</g>
<defs>
<clipPath id="clip0_61_17306">
<rect width="24" height="24" fill="white" transform="translate(0 0.000976562)"/>
</clipPath>
</defs>
</svg>
