<svg viewBox="0 0 24 24" xmlns="http://www.w3.org/2000/svg">
<g clip-path="url(#clip0_61_17307)">
<path d="M21.6022 18.2007L13.0022 11.7507V10.8407C14.6522 10.3507 15.8022 8.67075 15.4322 6.79075C15.1722 5.48075 14.1322 4.39075 12.8222 4.09075C11.0622 3.69075 9.45221 4.62075 8.80221 6.07075C8.50221 6.74075 8.98221 7.50075 9.71221 7.50075C10.1022 7.50075 10.4622 7.28075 10.6122 6.93075C10.8422 6.38075 11.3722 6.00075 12.0022 6.00075C12.8322 6.00075 13.5022 6.67075 13.5022 7.50075C13.5022 8.34075 12.8122 9.02075 11.9722 9.00075C11.4322 8.99075 11.0022 9.45075 11.0022 9.99075V11.7507L2.40221 18.2007C1.63221 18.7807 2.04221 20.0007 3.00221 20.0007H12.0022H21.0022C21.9622 20.0007 22.3722 18.7807 21.6022 18.2007ZM6.00221 18.0007L12.0022 13.5007L18.0022 18.0007H6.00221Z"/>
</g>
<defs>
<clipPath id="clip0_61_17307">
<rect transform="translate(0 0.000976562)"/>
</clipPath>
</defs>
</svg>
