<svg   viewBox="0 0 24 24" fill="none" xmlns="http://www.w3.org/2000/svg">
<g clip-path="url(#clip0_61_17309)">
<path d="M13 3.0812V10.0012H21C21 5.9712 18.02 2.6312 14.14 2.0812C13.54 1.9912 13 2.4712 13 3.0812ZM19.32 15.8912C20.37 14.5412 21 12.8412 21 11.0012H6.44L5.76 9.5712C5.6 9.2212 5.24 9.0012 4.86 9.0012H3C2.45 9.0012 2 9.4512 2 10.0012C2 10.5512 2.45 11.0012 3 11.0012H4.22C4.22 11.0012 6.11 15.0712 6.34 15.4212C5.01 16.1312 4.2 17.6912 4.6 19.3612C4.9 20.6212 5.94 21.6312 7.2 21.9112C9.3 22.3712 11.18 20.9512 11.45 19.0012H13.53C13.8 20.9412 15.67 22.3612 17.75 21.9212C19.02 21.6512 20.06 20.6512 20.38 19.3912C20.73 18.0012 20.24 16.7112 19.32 15.8912ZM8 20.0012C7.17 20.0012 6.5 19.3312 6.5 18.5012C6.5 17.6712 7.17 17.0012 8 17.0012C8.83 17.0012 9.5 17.6712 9.5 18.5012C9.5 19.3312 8.83 20.0012 8 20.0012ZM17 20.0012C16.17 20.0012 15.5 19.3312 15.5 18.5012C15.5 17.6712 16.17 17.0012 17 17.0012C17.83 17.0012 18.5 17.6712 18.5 18.5012C18.5 19.3312 17.83 20.0012 17 20.0012Z" fill="black"/>
</g>
<defs>
<clipPath id="clip0_61_17309">
<rect width="24" height="24" fill="white" transform="translate(0 0.000976562)"/>
</clipPath>
</defs>
</svg>
