<svg viewBox="0 0 24 24" xmlns="http://www.w3.org/2000/svg">
<g clip-path="url(#clip0_61_17308)">
<path d="M14.5 11.751C15.1904 11.751 15.75 11.1913 15.75 10.501C15.75 9.81062 15.1904 9.25098 14.5 9.25098C13.8096 9.25098 13.25 9.81062 13.25 10.501C13.25 11.1913 13.8096 11.751 14.5 11.751Z"/>
<path d="M9.5 11.751C10.1904 11.751 10.75 11.1913 10.75 10.501C10.75 9.81062 10.1904 9.25098 9.5 9.25098C8.80964 9.25098 8.25 9.81062 8.25 10.501C8.25 11.1913 8.80964 11.751 9.5 11.751Z"/>
<path d="M16.1 14.001H7.9C7.71 14.001 7.58 14.201 7.67 14.371C8.5 15.941 10.13 17.001 12 17.001C13.87 17.001 15.5 15.941 16.33 14.371C16.41 14.201 16.28 14.001 16.1 14.001V14.001ZM22.94 11.341C22.69 9.83098 21.58 8.60098 20.13 8.17098C19.6 7.05098 18.85 6.07098 17.94 5.26098C16.36 3.85098 14.28 3.00098 12 3.00098C9.72 3.00098 7.64 3.85098 6.06 5.26098C5.14 6.07098 4.39 7.06098 3.87 8.17098C2.42 8.60098 1.31 9.82098 1.06 11.341C1.02 11.551 1 11.771 1 12.001C1 12.231 1.02 12.451 1.06 12.661C1.31 14.171 2.42 15.401 3.87 15.831C4.39 16.941 5.14 17.921 6.04 18.721C7.62 20.141 9.71 21.001 12 21.001C14.29 21.001 16.38 20.141 17.97 18.721C18.87 17.921 19.62 16.931 20.14 15.831C21.58 15.401 22.69 14.181 22.94 12.661C22.98 12.451 23 12.231 23 12.001C23 11.771 22.98 11.551 22.94 11.341V11.341ZM19 14.001C18.9 14.001 18.81 13.981 18.71 13.971C18.51 14.641 18.22 15.261 17.85 15.831C16.6 17.741 14.45 19.001 12 19.001C9.55 19.001 7.4 17.741 6.15 15.831C5.78 15.261 5.49 14.641 5.29 13.971C5.19 13.981 5.1 14.001 5 14.001C3.9 14.001 3 13.101 3 12.001C3 10.901 3.9 10.001 5 10.001C5.1 10.001 5.19 10.021 5.29 10.031C5.49 9.36098 5.78 8.74098 6.15 8.17098C7.4 6.26098 9.55 5.00098 12 5.00098C14.45 5.00098 16.6 6.26098 17.85 8.17098C18.22 8.74098 18.51 9.36098 18.71 10.031C18.81 10.021 18.9 10.001 19 10.001C20.1 10.001 21 10.901 21 12.001C21 13.101 20.1 14.001 19 14.001Z"/>
</g>
<defs>
<clipPath id="clip0_61_17308">
<rect transform="translate(0 0.000976562)"/>
</clipPath>
</defs>
</svg>
