<svg   viewBox="0 0 24 24" fill="none" xmlns="http://www.w3.org/2000/svg">
<g clip-path="url(#clip0_61_17311)">
<path d="M18 10.0009V7.1709C18 5.5509 16.78 4.0909 15.16 4.0009C13.95 3.9409 12.89 4.5909 12.36 5.5709C12.01 6.2209 12.53 7.0009 13.27 7.0009H13.28C13.62 7.0009 13.96 6.8409 14.12 6.5409C14.28 6.2209 14.62 6.0009 15 6.0009C15.55 6.0009 16 6.4509 16 7.0009V10.0009H8C9.1 10.0009 10 9.1009 10 8.0009V5.0009C10 4.4509 9.55 4.0009 9 4.0009H5C4.45 4.0009 4 4.4509 4 5.0009V8.0009C4 9.1009 4.9 10.0009 6 10.0009H3C2.45 10.0009 2 10.4509 2 11.0009C2 11.5509 2.45 12.0009 3 12.0009H4V19.0009C4 19.5509 4.45 20.0009 5 20.0009H19C19.55 20.0009 20 19.5509 20 19.0009V12.0009H21C21.55 12.0009 22 11.5509 22 11.0009C22 10.4509 21.55 10.0009 21 10.0009H18ZM13 18.0009H11V12.0009H13V18.0009Z" fill="black"/>
</g>
<defs>
<clipPath id="clip0_61_17311">
<rect width="24" height="24" fill="white" transform="translate(0 0.000976562)"/>
</clipPath>
</defs>
</svg>
