<svg   viewBox="0 0 24 24" fill="none" xmlns="http://www.w3.org/2000/svg">
<g clip-path="url(#clip0_61_17313)">
<path d="M12.9972 10.171L10.4972 7.67098V2.25098C10.4972 1.56098 11.0572 1.00098 11.7472 1.00098C12.4372 1.00098 12.9972 1.56098 12.9972 2.25098V10.171ZM19.9972 5.32098C19.9972 4.67098 19.5272 4.07098 18.8772 4.00098C18.1272 3.92098 17.4972 4.51098 17.4972 5.24098V10.491C17.4972 10.771 17.2772 10.991 16.9972 10.991C16.7172 10.991 16.4972 10.771 16.4972 10.491V3.31098C16.4972 2.66098 16.0272 2.06098 15.3772 1.99098C14.6272 1.93098 13.9972 2.52098 13.9972 3.25098V11.171L19.9972 17.171V5.32098ZM9.49719 4.25098C9.49719 3.56098 8.93719 3.00098 8.24719 3.00098C7.57719 3.00098 7.04719 3.53098 7.00719 4.18098L9.49719 6.67098V4.25098ZM16.9972 22.001C17.6172 22.001 18.1772 21.811 18.6472 21.481L18.6272 21.461L19.0672 21.901C19.4572 22.291 20.0872 22.291 20.4772 21.901C20.8672 21.511 20.8672 20.881 20.4772 20.491L3.50719 3.51098C3.11719 3.12098 2.48719 3.12098 2.09719 3.51098C1.70719 3.90098 1.70719 4.53098 2.09719 4.92098L7.01719 9.84098L6.99719 9.83098V14.131L4.39719 12.651C4.22719 12.561 4.05719 12.511 3.85719 12.511C3.59719 12.511 3.35719 12.601 3.15719 12.771L1.99719 13.881L8.79719 21.061C9.36719 21.661 10.1472 22.001 10.9772 22.001H16.9972Z" fill="black"/>
</g>
<defs>
<clipPath id="clip0_61_17313">
<rect width="24" height="24" fill="white" transform="translate(0 0.000976562)"/>
</clipPath>
</defs>
</svg>
