<svg   viewBox="0 0 24 24" fill="none" xmlns="http://www.w3.org/2000/svg">
<g clip-path="url(#clip0_61_17312)">
<path d="M2.1 3.51108C1.71 3.90108 1.71 4.53108 2.1 4.92108L9.29 12.1111C9.47 12.3111 9.47 12.6111 9.28 12.8111C9.18 12.9111 9.05 12.9611 8.93 12.9611C8.81 12.9611 8.67 12.9111 8.58 12.8111L6.87 11.1011C6.76 11.5011 6.61 11.8811 6.42 12.2211L7.82 13.6211C8.02 13.8211 8.02 14.1311 7.82 14.3311C7.72 14.4311 7.59 14.4811 7.47 14.4811C7.35 14.4811 7.21 14.4311 7.12 14.3311L5.85 13.0611C5.61 13.3511 5.35 13.6211 5.08 13.8611L6.36 15.1411C6.56 15.3411 6.56 15.6511 6.36 15.8511C6.26 15.9511 6.13 16.0011 6 16.0011C5.87 16.0011 5.74 15.9511 5.65 15.8511L4.27 14.4711C3.56 14.9411 2.84 15.2811 2.25 15.5111C1.49 15.8111 1 16.5511 1 17.3711V18.0011C1 19.1011 1.9 20.0011 3 20.0011H9.67C10.2 20.0011 10.71 19.7911 11.08 19.4111L13.82 16.6711L19.05 21.9011C19.44 22.2911 20.07 22.2911 20.46 21.9011C20.85 21.5111 20.85 20.8811 20.46 20.4911L3.51 3.51108C3.12 3.12108 2.49 3.12108 2.1 3.51108ZM18.51 15.6811L17.1 14.2711L21.58 9.79108C22.36 10.5711 22.36 11.8411 21.58 12.6211L18.51 15.6811ZM20.88 9.08108L16.4 13.5611L9.3 6.47108L12.39 3.40108C13.17 2.62108 14.43 2.63108 15.21 3.40108L20.88 9.08108Z" fill="black"/>
</g>
<defs>
<clipPath id="clip0_61_17312">
<rect width="24" height="24" fill="white" transform="translate(0 0.000976562)"/>
</clipPath>
</defs>
</svg>
