<svg   viewBox="0 0 24 24" fill="none" xmlns="http://www.w3.org/2000/svg">
<g clip-path="url(#clip0_61_17314)">
<path d="M1.94 11.791C1.34 12.361 1 13.141 1 13.971V20.001C1 21.661 2.34 23.001 4 23.001H17.68C18.33 23.001 18.93 22.531 19 21.881C19.08 21.131 18.49 20.501 17.76 20.501H12.5C12.22 20.501 12 20.281 12 20.001C12 19.721 12.22 19.501 12.5 19.501H19.68C20.33 19.501 20.93 19.031 21 18.381C21.08 17.631 20.49 17.001 19.76 17.001H12.5C12.22 17.001 12 16.781 12 16.501C12 16.221 12.22 16.001 12.5 16.001H20.68C21.33 16.001 21.93 15.531 22 14.881C22.08 14.131 21.49 13.501 20.76 13.501H12.5C12.22 13.501 12 13.281 12 13.001C12 12.721 12.22 12.501 12.5 12.501H18.68C19.33 12.501 19.93 12.031 20 11.381C20.08 10.631 19.49 10.001 18.76 10.001H8.86L10.35 7.39098C10.44 7.23098 10.49 7.06098 10.49 6.86098C10.49 6.60098 10.4 6.36098 10.23 6.16098L9.81 5.71098C9.43 5.32098 8.8 5.30098 8.4 5.68098L1.94 11.791ZM16.99 8.07098C16.99 8.59098 16.57 9.00098 16.06 9.00098C15.54 9.00098 15.13 8.58098 15.13 8.07098C15.16 7.40098 14.91 6.74098 14.42 6.21098L14.35 6.15098C13.45 5.26098 12.97 4.12098 13.01 2.93098C13 2.42098 13.42 2.00098 13.93 2.00098C14.44 2.00098 14.86 2.42098 14.86 2.93098C14.83 3.60098 15.08 4.26098 15.57 4.79098L15.64 4.86098C16.55 5.74098 17.03 6.88098 16.99 8.07098ZM21 8.07098C21 8.58098 20.58 9.00098 20.06 9.00098C19.54 9.00098 19.13 8.58098 19.13 8.07098C19.16 7.40098 18.91 6.74098 18.42 6.21098L18.35 6.15098C17.45 5.26098 16.97 4.12098 17.01 2.93098C17.01 2.42098 17.43 2.00098 17.94 2.00098C18.45 2.00098 18.87 2.42098 18.87 2.93098C18.84 3.60098 19.09 4.26098 19.58 4.79098L19.65 4.86098C20.55 5.74098 21.03 6.88098 21 8.07098Z" fill="black"/>
</g>
<defs>
<clipPath id="clip0_61_17314">
<rect width="24" height="24" fill="white" transform="translate(0 0.000976562)"/>
</clipPath>
</defs>
</svg>
