<svg   viewBox="0 0 24 24" fill="none" xmlns="http://www.w3.org/2000/svg">
<g clip-path="url(#clip0_61_17315)">
<path d="M19 3.00098H5C3.9 3.00098 3 3.90098 3 5.00098V19.001C3 20.101 3.9 21.001 5 21.001H19C20.1 21.001 21 20.101 21 19.001V5.00098C21 3.90098 20.1 3.00098 19 3.00098ZM8.5 6.00098C9.19 6.00098 9.75 6.56098 9.75 7.25098C9.75 7.94098 9.19 8.50098 8.5 8.50098C7.81 8.50098 7.25 7.94098 7.25 7.25098C7.25 6.56098 7.81 6.00098 8.5 6.00098ZM11 13.001C11 13.551 10.55 14.001 10 14.001V17.001C10 17.551 9.55 18.001 9 18.001H8C7.45 18.001 7 17.551 7 17.001V14.001C6.45 14.001 6 13.551 6 13.001V11.501C6 10.401 6.9 9.50098 8 9.50098H9C10.1 9.50098 11 10.401 11 11.501V13.001ZM17.52 13.761L15.92 16.321C15.72 16.631 15.27 16.631 15.07 16.321L13.47 13.761C13.27 13.431 13.51 13.001 13.9 13.001H17.1C17.49 13.001 17.73 13.431 17.52 13.761ZM17.1 11.001H13.9C13.51 11.001 13.27 10.571 13.48 10.231L15.08 7.67098C15.28 7.36098 15.73 7.36098 15.93 7.67098L17.53 10.231C17.73 10.571 17.49 11.001 17.1 11.001Z" fill="black"/>
</g>
<defs>
<clipPath id="clip0_61_17315">
<rect width="24" height="24" fill="white" transform="translate(0 0.000976562)"/>
</clipPath>
</defs>
</svg>
