<svg   viewBox="0 0 24 24" fill="none" xmlns="http://www.w3.org/2000/svg">
<g clip-path="url(#clip0_61_17317)">
<path d="M6.5 2.00098C7.6 2.00098 8.5 2.90098 8.5 4.00098C8.5 5.10098 7.6 6.00098 6.5 6.00098C5.4 6.00098 4.5 5.10098 4.5 4.00098C4.5 2.90098 5.4 2.00098 6.5 2.00098ZM15.5 9.50098C15.5 10.331 16.17 11.001 17 11.001C17.83 11.001 18.5 10.331 18.5 9.50098C18.5 8.67098 17.83 8.00098 17 8.00098C16.17 8.00098 15.5 8.67098 15.5 9.50098ZM18.5 12.001H15.66C15.08 12.011 14.52 12.321 14.21 12.861L13.29 14.181L9.72 8.00098C9.35 7.37098 8.69 7.01098 8.01 7.00098H5C3.9 7.00098 3 7.90098 3 9.00098V14.001C3 14.551 3.45 15.001 4 15.001H4.5V21.001C4.5 21.551 4.95 22.001 5.5 22.001H8.5C9.05 22.001 9.5 21.551 9.5 21.001V11.611L11.74 15.501C11.92 15.811 12.25 16.001 12.61 16.001H13.71C14.04 16.001 14.34 15.841 14.53 15.571L15 14.901V21.001C15 21.551 15.45 22.001 16 22.001H18C18.55 22.001 19 21.551 19 21.001V17.001C19.55 17.001 20 16.551 20 16.001V13.501C20 12.681 19.33 12.001 18.5 12.001Z" fill="black"/>
</g>
<defs>
<clipPath id="clip0_61_17317">
<rect width="24" height="24" fill="white" transform="translate(0 0.000976562)"/>
</clipPath>
</defs>
</svg>
