<svg viewBox="0 0 24 24" xmlns="http://www.w3.org/2000/svg">
<g clip-path="url(#clip0_61_17316)">
<path d="M19 3.00098H5C3.9 3.00098 3 3.90098 3 5.00098V19.001C3 20.101 3.9 21.001 5 21.001H19C20.1 21.001 21 20.101 21 19.001V5.00098C21 3.90098 20.1 3.00098 19 3.00098ZM17 9.00098H15.3L10.59 17.491C10.41 17.801 10.07 18.001 9.71 18.001H7C6.17 18.001 5.5 17.331 5.5 16.501C5.5 15.671 6.17 15.001 7 15.001H8.7L13.41 6.51098C13.59 6.20098 13.93 6.00098 14.29 6.00098H17C17.83 6.00098 18.5 6.67098 18.5 7.50098C18.5 8.33098 17.83 9.00098 17 9.00098Z"/>
</g>
<defs>
<clipPath id="clip0_61_17316">
<rect transform="translate(0 0.000976562)"/>
</clipPath>
</defs>
</svg>
