<svg   viewBox="0 0 24 24" fill="none" xmlns="http://www.w3.org/2000/svg">
<g clip-path="url(#clip0_61_17318)">
<path d="M16 4.00098C16 2.89098 16.89 2.00098 18 2.00098C19.11 2.00098 20 2.89098 20 4.00098C20 5.11098 19.11 6.00098 18 6.00098C16.89 6.00098 16 5.11098 16 4.00098ZM20 21.001V16.001H21.11C21.79 16.001 22.27 15.331 22.06 14.681L19.96 8.37098C19.68 7.55098 18.92 7.00098 18.06 7.00098H17.94C17.08 7.00098 16.31 7.55098 16.04 8.37098L15.18 10.951C16.26 11.551 17 12.681 17 14.001V22.001H19C19.55 22.001 20 21.551 20 21.001ZM12.5 11.501C13.33 11.501 14 10.831 14 10.001C14 9.17098 13.33 8.50098 12.5 8.50098C11.67 8.50098 11 9.17098 11 10.001C11 10.831 11.67 11.501 12.5 11.501ZM5.5 6.00098C6.61 6.00098 7.5 5.11098 7.5 4.00098C7.5 2.89098 6.61 2.00098 5.5 2.00098C4.39 2.00098 3.5 2.89098 3.5 4.00098C3.5 5.11098 4.39 6.00098 5.5 6.00098ZM7.5 21.001V15.001H8C8.55 15.001 9 14.551 9 14.001V9.00098C9 7.90098 8.1 7.00098 7 7.00098H4C2.9 7.00098 2 7.90098 2 9.00098V14.001C2 14.551 2.45 15.001 3 15.001H3.5V21.001C3.5 21.551 3.95 22.001 4.5 22.001H6.5C7.05 22.001 7.5 21.551 7.5 21.001ZM10 14.001V17.001C10 17.551 10.45 18.001 11 18.001V21.001C11 21.551 11.45 22.001 12 22.001H13C13.55 22.001 14 21.551 14 21.001V18.001C14.55 18.001 15 17.551 15 17.001V14.001C15 13.181 14.32 12.501 13.5 12.501H11.5C10.68 12.501 10 13.181 10 14.001Z" fill="black"/>
</g>
<defs>
<clipPath id="clip0_61_17318">
<rect width="24" height="24" fill="white" transform="translate(0 0.000976562)"/>
</clipPath>
</defs>
</svg>
