<svg viewBox="0 0 24 24" xmlns="http://www.w3.org/2000/svg">
<g clip-path="url(#clip0_61_17319)">
<path d="M21 11.001C21 10.451 20.55 10.001 20 10.001H19V7.00096L16.71 4.71096C16.32 4.32096 15.69 4.32096 15.3 4.71096L14 6.00096L12.71 4.71096C12.32 4.32096 11.69 4.32096 11.3 4.71096L10 6.00096L8.71 4.71096C8.32 4.32096 7.69 4.32096 7.3 4.71096L5 7.00096V10.001H4C3.45 10.001 3 10.451 3 11.001C3 11.551 3.45 12.001 4 12.001H5V14.001H4C3.45 14.001 3 14.451 3 15.001C3 15.551 3.45 16.001 4 16.001H5V19.001C5 19.551 5.45 20.001 6 20.001H18C18.55 20.001 19 19.551 19 19.001V16.001H20C20.55 16.001 21 15.551 21 15.001C21 14.451 20.55 14.001 20 14.001H19V12.001H20C20.55 12.001 21 11.551 21 11.001ZM16 6.83096L17 7.83096V10.001H15V7.83096L15.41 7.42096L16 6.83096ZM12 6.83096L12.59 7.42096L13 7.83096V10.001H11V7.83096L11.41 7.42096L12 6.83096ZM11 14.001V12.001H13V14.001H11ZM13 16.001V18.001H11V16.001H13ZM7 7.83096L8 6.83096L8.59 7.42096L9 7.83096V10.001H7V7.83096ZM7 12.001H9V14.001H7V12.001ZM7 16.001H9V18.001H7V16.001ZM17 18.001H15V16.001H17V18.001ZM17 14.001H15V12.001H17V14.001Z"/>
</g>
<defs>
<clipPath id="clip0_61_17319">
<rect transform="translate(0 0.000976562)"/>
</clipPath>
</defs>
</svg>
