<svg   viewBox="0 0 24 24" fill="none" xmlns="http://www.w3.org/2000/svg">
<g clip-path="url(#clip0_61_17320)">
<path d="M7 19.001H17V20.001C17 21.101 16.1 22.001 15 22.001H9C7.9 22.001 7 21.101 7 20.001V19.001ZM7 18.001H17V13.001H7V18.001ZM17 4.23098V7.77098C17 8.40098 16.42 8.88098 15.79 8.75098L13.85 8.34098C13.85 8.36098 13.85 8.35098 13.84 8.37098C15.38 8.99098 16.55 10.351 16.9 12.001H7.1C7.44 10.341 8.62 8.98098 10.17 8.36098C9.84 8.10098 9.57 7.78098 9.37 7.41098L5.49 6.60098C5.2 6.54098 5 6.29098 5 6.00098C5 5.71098 5.2 5.46098 5.49 5.40098L9.37 4.59098C9.87 3.65098 10.86 3.00098 12 3.00098C12.7 3.00098 13.34 3.25098 13.85 3.66098L15.79 3.25098C16.42 3.12098 17 3.60098 17 4.23098ZM13 6.00098C12.97 5.41098 12.55 5.00098 12 5.00098C11.45 5.00098 11 5.45098 11 6.00098C11 6.55098 11.45 7.00098 12 7.00098C12.55 7.00098 13 6.55098 13 6.00098Z" fill="black"/>
</g>
<defs>
<clipPath id="clip0_61_17320">
<rect width="24" height="24" fill="white" transform="translate(0 0.000976562)"/>
</clipPath>
</defs>
</svg>
