<svg   viewBox="0 0 24 24" fill="none" xmlns="http://www.w3.org/2000/svg">
<g clip-path="url(#clip0_61_17321)">
<path d="M20.5666 14.861L21.2866 14.141C21.6766 13.751 21.6766 13.121 21.2866 12.731L21.2666 12.711C20.8766 12.321 20.2466 12.321 19.8566 12.711L16.9966 15.571L8.42656 7.00096L11.2866 4.14096C11.6766 3.75096 11.6766 3.12096 11.2866 2.73096L11.2666 2.71096C10.8766 2.32096 10.2466 2.32096 9.85656 2.71096L9.13656 3.43096L8.41656 2.71096C8.02656 2.32096 7.38656 2.32096 6.99656 2.71096L5.56656 4.14096L4.84656 3.42096C4.45656 3.03096 3.80656 3.03096 3.41656 3.42096C3.02656 3.81096 3.02656 4.46096 3.41656 4.85096L4.13656 5.57096L2.70656 7.00096C2.31656 7.39096 2.31656 8.02096 2.70656 8.41096L3.42656 9.13096L2.70656 9.86096C2.31656 10.251 2.31656 10.881 2.70656 11.271L2.72656 11.291C3.11656 11.681 3.74656 11.681 4.13656 11.291L6.99656 8.43096L15.5666 17.001L12.7066 19.861C12.3166 20.251 12.3166 20.881 12.7066 21.271L12.7266 21.291C13.1166 21.681 13.7466 21.681 14.1366 21.291L14.8566 20.571L15.5766 21.291C15.9666 21.681 16.5966 21.681 16.9866 21.291L18.4166 19.861L19.1366 20.581C19.5266 20.971 20.1766 20.971 20.5666 20.581C20.9566 20.191 20.9566 19.541 20.5666 19.151L19.8466 18.431L21.2866 17.001C21.6766 16.611 21.6766 15.981 21.2866 15.591L20.5666 14.861Z" fill="black"/>
</g>
<defs>
<clipPath id="clip0_61_17321">
<rect width="24" height="24" fill="white" transform="translate(0 0.000976562)"/>
</clipPath>
</defs>
</svg>
