<svg viewBox="0 0 24 24" xmlns="http://www.w3.org/2000/svg">
<g clip-path="url(#clip0_61_17322)">
<path d="M10.8 3.90092L4.8 8.40092C4.3 8.78092 4 9.37092 4 10.0009V19.0009C4 20.1009 4.9 21.0009 6 21.0009H18C19.1 21.0009 20 20.1009 20 19.0009V10.0009C20 9.37092 19.7 8.78092 19.2 8.40092L13.2 3.90092C12.49 3.37092 11.51 3.37092 10.8 3.90092ZM12.5 12.5009C12.5 13.3309 11.83 14.0009 11 14.0009V17.5009C11 17.7809 10.78 18.0009 10.5 18.0009C10.22 18.0009 10 17.7809 10 17.5009V14.0009C9.17 14.0009 8.5 13.3309 8.5 12.5009V10.0009C8.5 9.72092 8.72 9.50092 9 9.50092C9.28 9.50092 9.5 9.72092 9.5 10.0009V12.5009H10V10.0009C10 9.72092 10.22 9.50092 10.5 9.50092C10.78 9.50092 11 9.72092 11 10.0009V12.5009H11.5V10.0009C11.5 9.72092 11.72 9.50092 12 9.50092C12.28 9.50092 12.5 9.72092 12.5 10.0009V12.5009ZM14.5 18.0009C14.22 18.0009 14 17.7809 14 17.5009V14.5009H13.5C13.22 14.5009 13 14.2809 13 14.0009V11.5009C13 10.6209 13.57 9.87092 14.36 9.61092C14.67 9.50092 15 9.75092 15 10.0909V17.5009C15 17.7809 14.78 18.0009 14.5 18.0009Z"/>
</g>
<defs>
<clipPath id="clip0_61_17322">
<rect transform="translate(0 0.000976562)"/>
</clipPath>
</defs>
</svg>
