<svg   viewBox="0 0 24 24" fill="none" xmlns="http://www.w3.org/2000/svg">
<g clip-path="url(#clip0_61_17323)">
<path d="M19.0025 12.0012H20.7025C21.1625 12.0012 21.3825 11.4312 21.0325 11.1312L12.6725 3.60119C12.2925 3.26119 11.7125 3.26119 11.3325 3.60119L2.97254 11.1312C2.63254 11.4312 2.84254 12.0012 3.30254 12.0012H5.00254V15.0012H4.00254C3.45254 15.0012 3.00254 15.4512 3.00254 16.0012C3.00254 16.5512 3.45254 17.0012 4.00254 17.0012H5.00254V19.0012C5.00254 19.5512 5.45254 20.0012 6.00254 20.0012C6.55254 20.0012 7.00254 19.5512 7.00254 19.0012V17.0012H11.0025V19.0012C11.0025 19.5512 11.4525 20.0012 12.0025 20.0012C12.5525 20.0012 13.0025 19.5512 13.0025 19.0012V17.0012H17.0025V19.0012C17.0025 19.5512 17.4525 20.0012 18.0025 20.0012C18.5525 20.0012 19.0025 19.5512 19.0025 19.0012V17.0012H20.0025C20.5525 17.0012 21.0025 16.5512 21.0025 16.0012C21.0025 15.4512 20.5525 15.0012 20.0025 15.0012H19.0025V12.0012ZM7.00254 15.0012V10.1912L11.0025 6.59119V15.0012H7.00254ZM13.0025 15.0012V6.59119L17.0025 10.1912V15.0012H13.0025Z" fill="black"/>
</g>
<defs>
<clipPath id="clip0_61_17323">
<rect width="24" height="24" fill="white" transform="translate(0 0.000976562)"/>
</clipPath>
</defs>
</svg>
