<svg   viewBox="0 0 24 24" fill="none" xmlns="http://www.w3.org/2000/svg">
<g clip-path="url(#clip0_61_17324)">
<path d="M20 3.00098H6C4.9 3.00098 4 3.90098 4 5.00098V13.001C4 15.211 5.79 17.001 8 17.001H14C16.21 17.001 18 15.211 18 13.001V10.001H20C21.11 10.001 22 9.10098 22 8.00098V5.00098C22 3.90098 21.1 3.00098 20 3.00098ZM20 8.00098H18V5.00098H20V8.00098ZM5 19.001H19C19.55 19.001 20 19.451 20 20.001C20 20.551 19.55 21.001 19 21.001H5C4.45 21.001 4 20.551 4 20.001C4 19.451 4.45 19.001 5 19.001Z" fill="black"/>
</g>
<defs>
<clipPath id="clip0_61_17324">
<rect width="24" height="24" fill="white" transform="translate(0 0.000976562)"/>
</clipPath>
</defs>
</svg>
