<svg   viewBox="0 0 24 24" fill="none" xmlns="http://www.w3.org/2000/svg">
<g clip-path="url(#clip0_61_17325)">
<path d="M19.5 21.001C20.3284 21.001 21 20.3294 21 19.501C21 18.6725 20.3284 18.001 19.5 18.001C18.6716 18.001 18 18.6725 18 19.501C18 20.3294 18.6716 21.001 19.5 21.001Z" fill="black"/>
<path d="M11 18.031V8.98102L15.22 6.83102C15.95 6.46102 15.95 5.40102 15.21 5.04102L10.45 2.71102C9.78 2.38102 9 2.86102 9 3.60102V19.001C9 19.551 8.55 20.001 8 20.001C7.45 20.001 7 19.551 7 19.001V18.271C5.21 18.621 4 19.261 4 20.001C4 21.101 6.69 22.001 10 22.001C13.31 22.001 16 21.101 16 20.001C16 19.011 13.84 18.191 11 18.031Z" fill="black"/>
</g>
<defs>
<clipPath id="clip0_61_17325">
<rect width="24" height="24" fill="white" transform="translate(0 0.000976562)"/>
</clipPath>
</defs>
</svg>
