<svg viewBox="0 0 24 24" xmlns="http://www.w3.org/2000/svg">
<g clip-path="url(#clip0_61_17326)">
<path d="M15.64 11.0208C16.19 9.55077 17.07 8.24077 18.2 7.19077C18.58 6.83077 18.24 6.19077 17.74 6.34077C14.42 7.32077 11.99 10.3908 12 14.0308C12.95 12.7508 14.2 11.7208 15.64 11.0208ZM11.42 8.85077C10.82 7.29077 9.79 5.94077 8.46 4.98077C8.04 4.68077 7.5 5.17077 7.74 5.63077C8.54 7.15077 9 8.88077 9 10.7108C9 10.9208 8.97 11.1208 8.96 11.3208C9.39 11.5608 9.79 11.8408 10.18 12.1408C10.39 10.9608 10.83 9.85077 11.42 8.85077ZM12 20.0008H3C2.45 20.0008 2 19.5508 2 19.0008C2 18.4508 2.45 18.0008 3 18.0008H7.75C7.18 15.8108 5.71 13.9808 3.75 12.9408C3.59 12.8608 3.49 12.6908 3.49 12.5008C3.49 12.2308 3.71 12.0108 3.98 12.0008C3.99 12.0008 4 12.0008 4 12.0008C8.42 12.0008 12 15.5808 12 20.0008ZM20.26 12.9408C18.3 13.9808 16.82 15.8108 16.26 18.0008H21C21.55 18.0008 22 18.4508 22 19.0008C22 19.5508 21.55 20.0008 21 20.0008H16H14C14 19.3208 13.93 18.6508 13.8 18.0008C13.65 17.2808 13.42 16.5808 13.13 15.9308C14.52 13.5808 17.07 12.0008 20 12.0008C20.01 12.0008 20.02 12.0008 20.02 12.0008C20.29 12.0008 20.51 12.2308 20.51 12.5008C20.52 12.6908 20.41 12.8508 20.26 12.9408Z"/>
</g>
<defs>
<clipPath id="clip0_61_17326">
<rect transform="translate(0 0.000976562)"/>
</clipPath>
</defs>
</svg>
