<svg   viewBox="0 0 24 24" fill="none" xmlns="http://www.w3.org/2000/svg">
<g clip-path="url(#clip0_61_17327)">
<path d="M7 8.00098C8.10457 8.00098 9 7.10555 9 6.00098C9 4.89641 8.10457 4.00098 7 4.00098C5.89543 4.00098 5 4.89641 5 6.00098C5 7.10555 5.89543 8.00098 7 8.00098Z" fill="black"/>
<path d="M21 12.001H11.15C10.84 11.781 10.56 11.541 10.33 11.281L8.93 9.73098C8.74 9.52098 8.5 9.35098 8.24 9.23098C7.95 9.09098 7.62 9.00098 7.28 9.00098H7.25C6.01 9.00098 5 10.011 5 11.251V12.001H3C2.45 12.001 2 12.451 2 13.001V20.001C2 21.101 2.9 22.001 4 22.001H20C21.1 22.001 22 21.101 22 20.001V13.001C22 12.451 21.55 12.001 21 12.001ZM7 19.001C7 19.551 6.55 20.001 6 20.001C5.45 20.001 5 19.551 5 19.001V15.001C5 14.451 5.45 14.001 6 14.001C6.55 14.001 7 14.451 7 15.001V19.001ZM11 19.001C11 19.551 10.55 20.001 10 20.001C9.45 20.001 9 19.551 9 19.001V15.001C9 14.451 9.45 14.001 10 14.001C10.55 14.001 11 14.451 11 15.001V19.001ZM15 19.001C15 19.551 14.55 20.001 14 20.001C13.45 20.001 13 19.551 13 19.001V15.001C13 14.451 13.45 14.001 14 14.001C14.55 14.001 15 14.451 15 15.001V19.001ZM19 19.001C19 19.551 18.55 20.001 18 20.001C17.45 20.001 17 19.551 17 19.001V15.001C17 14.451 17.45 14.001 18 14.001C18.55 14.001 19 14.451 19 15.001V19.001ZM15.06 10.001C15.56 10.001 15.99 9.61098 16 9.11098C16.04 7.71098 15.42 6.63098 14.65 5.86098C14 5.14098 13.85 4.59098 13.88 3.95098C13.9 3.43098 13.47 3.00098 12.94 3.00098C12.44 3.00098 12.01 3.40098 12 3.90098C11.97 5.19098 12.5 6.33098 13.35 7.15098C13.96 7.74098 14.13 8.42098 14.13 9.04098C14.12 9.56098 14.53 10.001 15.06 10.001ZM19.06 10.001C19.56 10.001 19.99 9.61098 20 9.11098C20.04 7.71098 19.42 6.63098 18.65 5.86098C18 5.14098 17.85 4.59098 17.88 3.95098C17.9 3.43098 17.47 3.00098 16.94 3.00098C16.44 3.00098 16.01 3.40098 16 3.90098C15.97 5.19098 16.5 6.33098 17.35 7.15098C17.96 7.74098 18.13 8.42098 18.13 9.04098C18.12 9.56098 18.53 10.001 19.06 10.001Z" fill="black"/>
</g>
<defs>
<clipPath id="clip0_61_17327">
<rect width="24" height="24" fill="white" transform="translate(0 0.000976562)"/>
</clipPath>
</defs>
</svg>
