<svg viewBox="0 0 24 24" xmlns="http://www.w3.org/2000/svg">
<g clip-path="url(#clip0_61_17328)">
<path d="M19.0025 9.30119V5.00119C19.0025 4.45119 18.5525 4.00119 18.0025 4.00119H17.0025C16.4525 4.00119 16.0025 4.45119 16.0025 5.00119V6.60119L12.6725 3.60119C12.2925 3.26119 11.7125 3.26119 11.3325 3.60119L2.97254 11.1312C2.63254 11.4312 2.84254 12.0012 3.30254 12.0012H5.00254V19.0012C5.00254 19.5512 5.45254 20.0012 6.00254 20.0012H9.00254C9.55254 20.0012 10.0025 19.5512 10.0025 19.0012V14.0012H14.0025V19.0012C14.0025 19.5512 14.4525 20.0012 15.0025 20.0012H18.0025C18.5525 20.0012 19.0025 19.5512 19.0025 19.0012V12.0012H20.7025C21.1625 12.0012 21.3825 11.4312 21.0325 11.1312L19.0025 9.30119ZM10.0025 10.0012C10.0025 8.90119 10.9025 8.00119 12.0025 8.00119C13.1025 8.00119 14.0025 8.90119 14.0025 10.0012H10.0025Z"/>
</g>
<defs>
<clipPath id="clip0_61_17328">
<rect transform="translate(0 0.000976562)"/>
</clipPath>
</defs>
</svg>
