<svg viewBox="0 0 24 24" xmlns="http://www.w3.org/2000/svg">
<g clip-path="url(#clip0_61_17329)">
<path d="M19.0025 12.0012H20.7025C21.1625 12.0012 21.3825 11.4312 21.0325 11.1312L12.6725 3.60119C12.2925 3.26119 11.7125 3.26119 11.3325 3.60119L2.97254 11.1312C2.63254 11.4312 2.84254 12.0012 3.30254 12.0012H5.00254V19.0012C5.00254 19.5512 5.45254 20.0012 6.00254 20.0012C6.55254 20.0012 7.00254 19.5512 7.00254 19.0012V18.0012H17.0025V19.0012C17.0025 19.5512 17.4525 20.0012 18.0025 20.0012C18.5525 20.0012 19.0025 19.5512 19.0025 19.0012V12.0012ZM7.21254 10.0012H16.7925L17.0025 10.1912V12.0012H7.00254V10.1912L7.21254 10.0012ZM14.5725 8.00119H9.43254L12.0025 5.69119L14.5725 8.00119ZM7.00254 16.0012V14.0012H17.0025V16.0012H7.00254Z"/>
</g>
<defs>
<clipPath id="clip0_61_17329">
<rect transform="translate(0 0.000976562)"/>
</clipPath>
</defs>
</svg>
