<svg viewBox="0 0 24 24" xmlns="http://www.w3.org/2000/svg">
<g clip-path="url(#clip0_61_17330)">
<path d="M18 2.01098L6 2.00098C4.9 2.00098 4 2.89098 4 4.00098V20.001C4 21.101 4.9 22.001 6 22.001H18C19.1 22.001 20 21.101 20 20.001V4.00098C20 2.89098 19.1 2.01098 18 2.01098ZM17 20.001H7C6.45 20.001 6 19.551 6 19.001V11.981C6 11.431 6.45 10.981 7 10.981H17C17.55 10.981 18 11.431 18 11.981V19.001C18 19.551 17.55 20.001 17 20.001ZM17 9.00098H7C6.45 9.00098 6 8.55098 6 8.00098V5.00098C6 4.45098 6.45 4.00098 7 4.00098H17C17.55 4.00098 18 4.45098 18 5.00098V8.00098C18 8.55098 17.55 9.00098 17 9.00098ZM9 5.00098C9.55 5.00098 10 5.45098 10 6.00098V7.00098C10 7.55098 9.55 8.00098 9 8.00098C8.45 8.00098 8 7.55098 8 7.00098V6.00098C8 5.45098 8.45 5.00098 9 5.00098ZM9 12.001C9.55 12.001 10 12.451 10 13.001V16.001C10 16.551 9.55 17.001 9 17.001C8.45 17.001 8 16.551 8 16.001V13.001C8 12.451 8.45 12.001 9 12.001Z"/>
</g>
<defs>
<clipPath id="clip0_61_17330">
<rect transform="translate(0 0.000976562)"/>
</clipPath>
</defs>
</svg>
