<svg   viewBox="0 0 24 24" fill="none" xmlns="http://www.w3.org/2000/svg">
<g clip-path="url(#clip0_61_17331)">
<path d="M20 19.001H19V5.00098C19 4.45098 18.55 4.00098 18 4.00098H14C14 3.45098 13.55 3.00098 13 3.00098H6C5.45 3.00098 5 3.45098 5 4.00098V19.001H4C3.45 19.001 3 19.451 3 20.001C3 20.551 3.45 21.001 4 21.001H13C13.55 21.001 14 20.551 14 20.001V6.00098H17V20.001C17 20.551 17.45 21.001 18 21.001H20C20.55 21.001 21 20.551 21 20.001C21 19.451 20.55 19.001 20 19.001ZM12 13.001H10V11.001H12V13.001Z" fill="black"/>
</g>
<defs>
<clipPath id="clip0_61_17331">
<rect width="24" height="24" fill="white" transform="translate(0 0.000976562)"/>
</clipPath>
</defs>
</svg>
