<svg   viewBox="0 0 24 24" fill="none" xmlns="http://www.w3.org/2000/svg">
<g clip-path="url(#clip0_61_17332)">
<path d="M6.15 9.97098C5.69 9.51098 5.77 8.73098 6.33 8.40098C6.73 8.18098 7.21 8.00098 7.75 8.00098C8.55 8.00098 9.14 8.39098 9.56 8.67098C9.87 8.88098 10.07 9.00098 10.25 9.00098C10.38 9.00098 10.51 8.95098 10.64 8.88098C11.03 8.66098 11.52 8.72098 11.84 9.04098C12.3 9.50098 12.22 10.281 11.66 10.601C11.27 10.831 10.79 11.001 10.25 11.001C9.46 11.001 8.88 10.621 8.46 10.341C8.13 10.121 7.94 10.001 7.75 10.001C7.62 10.001 7.49 10.051 7.36 10.121C6.96 10.351 6.47 10.281 6.15 9.97098ZM7.75 15.001C7.94 15.001 8.13 15.121 8.46 15.341C8.88 15.621 9.46 16.001 10.25 16.001C10.79 16.001 11.27 15.831 11.66 15.601C12.22 15.281 12.3 14.501 11.84 14.041C11.52 13.721 11.03 13.661 10.64 13.881C10.51 13.951 10.38 14.001 10.25 14.001C10.07 14.001 9.87 13.881 9.56 13.671C9.14 13.391 8.55 13.001 7.75 13.001C7.21 13.001 6.73 13.181 6.33 13.401C5.77 13.731 5.69 14.511 6.15 14.961C6.47 15.281 6.96 15.341 7.35 15.121C7.49 15.051 7.62 15.001 7.75 15.001ZM22 6.00098V18.001C22 19.101 21.1 20.001 20 20.001H4C2.9 20.001 2 19.101 2 18.001V6.00098C2 4.90098 2.9 4.00098 4 4.00098H20C21.1 4.00098 22 4.90098 22 6.00098ZM14 6.00098H4V18.001H14V6.00098ZM19 16.001C19 15.451 18.55 15.001 18 15.001C17.45 15.001 17 15.451 17 16.001C17 16.551 17.45 17.001 18 17.001C18.55 17.001 19 16.551 19 16.001ZM19 12.001C19 11.451 18.55 11.001 18 11.001C17.45 11.001 17 11.451 17 12.001C17 12.551 17.45 13.001 18 13.001C18.55 13.001 19 12.551 19 12.001ZM19 7.00098H17V9.00098H19V7.00098Z" fill="black"/>
</g>
<defs>
<clipPath id="clip0_61_17332">
<rect width="24" height="24" fill="white" transform="translate(0 0.000976562)"/>
</clipPath>
</defs>
</svg>
