<svg viewBox="0 0 24 24" xmlns="http://www.w3.org/2000/svg">
<g clip-path="url(#clip0_61_17333)">
<path d="M10.8 3.90092L4.8 8.40092C4.3 8.78092 4 9.37092 4 10.0009V19.0009C4 20.1009 4.9 21.0009 6 21.0009H18C19.1 21.0009 20 20.1009 20 19.0009V10.0009C20 9.37092 19.7 8.78092 19.2 8.40092L13.2 3.90092C12.49 3.37092 11.51 3.37092 10.8 3.90092ZM9.75 12.5009C10.44 12.5009 11 13.0609 11 13.7509C11 14.4409 10.44 15.0009 9.75 15.0009C9.06 15.0009 8.5 14.4409 8.5 13.7509C8.5 13.0609 9.06 12.5009 9.75 12.5009ZM16.5 18.0009C16.22 18.0009 16 17.7809 16 17.5009V16.5009H8V17.5009C8 17.7809 7.78 18.0009 7.5 18.0009C7.22 18.0009 7 17.7809 7 17.5009V11.5009C7 11.2209 7.22 11.0009 7.5 11.0009C7.78 11.0009 8 11.2209 8 11.5009V15.5009H11.5V12.5009C11.5 12.2209 11.72 12.0009 12 12.0009H15C16.1 12.0009 17 12.9009 17 14.0009V17.5009C17 17.7809 16.78 18.0009 16.5 18.0009Z"/>
</g>
<defs>
<clipPath id="clip0_61_17333">
<rect transform="translate(0 0.000976562)"/>
</clipPath>
</defs>
</svg>
