<svg   viewBox="0 0 24 24" fill="none" xmlns="http://www.w3.org/2000/svg">
<g clip-path="url(#clip0_61_17334)">
<path d="M6.97719 4.15098C6.98719 4.15098 6.98719 4.14098 6.99719 4.14098V3.50098C6.99719 2.67098 7.66719 2.00098 8.49719 2.00098C9.32719 2.00098 9.99719 2.67098 9.99719 3.50098V4.00098H13.9972V3.50098C13.9972 2.67098 14.6672 2.00098 15.4972 2.00098C16.3272 2.00098 16.9972 2.67098 16.9972 3.50098V4.14098C18.7172 4.59098 19.9972 6.14098 19.9972 8.00098V17.171L17.9672 15.141C17.9772 15.091 17.9972 15.051 17.9972 15.001V13.001C17.9972 12.451 17.5472 12.001 16.9972 12.001H14.8272L6.97719 4.15098ZM20.4872 21.901C20.0972 22.291 19.4672 22.291 19.0772 21.901L18.9372 21.761C18.6472 21.911 18.3372 22.001 17.9972 22.001H5.99719C4.89719 22.001 3.99719 21.101 3.99719 20.001V8.00098C3.99719 7.64098 4.05719 7.31098 4.14719 6.98098L2.09719 4.93098C1.70719 4.54098 1.70719 3.91098 2.09719 3.52098C2.48719 3.13098 3.11719 3.13098 3.50719 3.52098L20.4772 20.491C20.8772 20.881 20.8772 21.511 20.4872 21.901ZM11.1672 14.001L9.16719 12.001H6.99719C6.44719 12.001 5.99719 12.451 5.99719 13.001C5.99719 13.551 6.44719 14.001 6.99719 14.001H11.1672Z" fill="black"/>
</g>
<defs>
<clipPath id="clip0_61_17334">
<rect width="24" height="24" fill="white" transform="translate(0 0.000976562)"/>
</clipPath>
</defs>
</svg>
