<svg viewBox="0 0 24 24" xmlns="http://www.w3.org/2000/svg">
<g clip-path="url(#clip0_61_17335)">
<path d="M8.82719 6.00098L5.12719 2.30098C5.41719 1.55098 6.14719 1.00098 6.99719 1.00098L16.9972 1.01098C18.0972 1.01098 18.9972 1.90098 18.9972 3.00098V16.171L16.9972 14.171V6.00098H8.82719ZM20.4872 21.901C20.0972 22.291 19.4672 22.291 19.0772 21.901L18.8772 21.701C18.5772 22.451 17.8472 23.001 16.9972 23.001H6.99719C5.89719 23.001 4.99719 22.101 4.99719 21.001V7.83098L2.09719 4.93098C1.70719 4.54098 1.70719 3.91098 2.09719 3.52098C2.48719 3.13098 3.11719 3.13098 3.50719 3.52098L20.4772 20.491C20.8772 20.881 20.8772 21.511 20.4872 21.901ZM15.1672 18.001L6.99719 9.83098V18.001H15.1672Z"/>
</g>
<defs>
<clipPath id="clip0_61_17335">
<rect transform="translate(0 0.000976562)"/>
</clipPath>
</defs>
</svg>
