<svg   viewBox="0 0 24 24" fill="none" xmlns="http://www.w3.org/2000/svg">
<g clip-path="url(#clip0_61_17336)">
<path d="M20.4872 20.491L3.50719 3.51098C3.11719 3.12098 2.48719 3.12098 2.09719 3.51098C1.70719 3.90098 1.70719 4.53098 2.09719 4.92098L9.63719 12.461L10.9972 14.001V19.001H6.99719C6.44719 19.001 5.99719 19.451 5.99719 20.001C5.99719 20.551 6.44719 21.001 6.99719 21.001H16.9972C17.3172 21.001 17.5872 20.841 17.7772 20.601L19.0772 21.901C19.4672 22.291 20.0972 22.291 20.4872 21.901C20.8772 21.511 20.8772 20.881 20.4872 20.491ZM12.9972 19.001V15.831L16.1672 19.001H12.9972ZM7.82719 5.00098L5.82719 3.00098H19.5472C20.3472 3.00098 20.9972 3.65098 20.9972 4.45098C20.9972 4.80098 20.8672 5.15098 20.6272 5.41098L14.7972 11.971L9.82719 7.00098H16.5672L18.3472 5.00098H7.82719Z" fill="black"/>
</g>
<defs>
<clipPath id="clip0_61_17336">
<rect width="24" height="24" fill="white" transform="translate(0 0.000976562)"/>
</clipPath>
</defs>
</svg>
