<svg viewBox="0 0 24 24" xmlns="http://www.w3.org/2000/svg">
<g clip-path="url(#clip0_61_17337)">
<path d="M3.16344 3.16098C2.77344 2.77098 2.14344 2.77098 1.75344 3.16098C1.36344 3.55098 1.36344 4.18098 1.75344 4.57098L6.35344 9.17098L6.14344 9.40098H3.60344C2.72344 9.40098 2.00344 10.121 2.00344 11.001V20.401C2.00344 21.281 2.72344 22.001 3.60344 22.001H16.4034C17.1534 22.001 17.7834 21.481 17.9534 20.781L19.4234 22.251C19.8134 22.641 20.4434 22.641 20.8334 22.251C21.2234 21.861 21.2234 21.231 20.8334 20.841L3.16344 3.16098ZM10.0034 20.001C7.79344 20.001 6.00344 18.211 6.00344 16.001C6.00344 14.051 7.40344 12.431 9.25344 12.081L10.8234 13.651C10.5634 13.561 10.2934 13.501 10.0034 13.501C8.62344 13.501 7.50344 14.621 7.50344 16.001C7.50344 17.381 8.62344 18.501 10.0034 18.501C11.3834 18.501 12.5034 17.381 12.5034 16.001C12.5034 15.711 12.4434 15.441 12.3534 15.181L13.9234 16.751C13.5734 18.601 11.9534 20.001 10.0034 20.001ZM18.0034 15.171L10.8334 8.00098H11.7034C12.2634 8.00098 12.8034 8.24098 13.1834 8.65098L13.8734 9.40098H16.4134C17.2934 9.40098 18.0134 10.121 18.0134 11.001V15.171H18.0034ZM20.4034 5.60098H21.1534C21.5334 5.60098 21.7734 6.01098 21.5934 6.34098L19.0034 11.001V7.00098H18.5034C18.2234 7.00098 18.0034 6.78098 18.0034 6.50098V2.50098C18.0034 2.22098 18.2234 2.00098 18.5034 2.00098H21.2334C21.5934 2.00098 21.8334 2.37098 21.6934 2.70098L20.4034 5.60098Z"/>
</g>
<defs>
<clipPath id="clip0_61_17337">
<rect transform="translate(0 0.000976562)"/>
</clipPath>
</defs>
</svg>
