<svg viewBox="0 0 24 24" xmlns="http://www.w3.org/2000/svg">
<g clip-path="url(#clip0_61_17338)">
<path d="M16 22.001C16 22.551 15.55 23.001 15 23.001H2C1.45 23.001 1 22.551 1 22.001C1 21.451 1.45 21.001 2 21.001H15C15.55 21.001 16 21.451 16 22.001ZM22.89 6.10098C22.95 5.51098 22.49 5.00098 21.9 5.00098H18V2.00098C18 1.45098 17.55 1.00098 17 1.00098C16.45 1.00098 16 1.45098 16 2.00098V5.00098H12.1C11.51 5.00098 11.05 5.51098 11.1 6.10098L11.34 8.51098L18 15.171L21.62 18.791L22.89 6.10098ZM21.19 22.611C21.58 22.221 21.58 21.591 21.19 21.201L12 12.001L9.01 9.01098L2.81 2.81098C2.42 2.42098 1.79 2.42098 1.4 2.81098C1 3.20098 1 3.83098 1.39 4.22098L6.38 9.21098C3.82 9.75098 1.62 11.291 1.1 13.841C0.99 14.451 1.49 15.001 2.1 15.001H12.17L14.17 17.001H2C1.45 17.001 1 17.451 1 18.001C1 18.551 1.45 19.001 2 19.001H15C15.32 19.001 15.59 18.841 15.78 18.601L19.78 22.601C20.17 23.001 20.8 23.001 21.19 22.611Z"/>
</g>
<defs>
<clipPath id="clip0_61_17338">
<rect transform="translate(0 0.000976562)"/>
</clipPath>
</defs>
</svg>
