<svg   viewBox="0 0 24 24" fill="none" xmlns="http://www.w3.org/2000/svg">
<g clip-path="url(#clip0_61_17339)">
<path d="M13.9966 6.00107H16.9966V13.8811L18.9966 15.8811V5.00107C18.9966 4.45107 18.5466 4.00107 17.9966 4.00107H13.9966C13.9966 3.45107 13.5466 3.00107 12.9966 3.00107H6.11656L13.9966 10.8811V6.00107ZM21.1666 20.8811L11.9966 11.7111V13.0011H9.99656V11.0011H11.2866L3.11656 2.83107C2.72656 2.44107 2.09656 2.44107 1.70656 2.83107C1.31656 3.22107 1.31656 3.85107 1.70656 4.24107L4.99656 7.54107V19.0011H3.99656C3.44656 19.0011 2.99656 19.4511 2.99656 20.0011C2.99656 20.5511 3.44656 21.0011 3.99656 21.0011H12.9966C13.5466 21.0011 13.9966 20.5511 13.9966 20.0011V16.5411L19.7466 22.2911C20.1366 22.6811 20.7666 22.6811 21.1566 22.2911C21.5566 21.9011 21.5566 21.2711 21.1666 20.8811V20.8811Z" fill="black"/>
</g>
<defs>
<clipPath id="clip0_61_17339">
<rect width="24" height="24" fill="white" transform="translate(0 0.000976562)"/>
</clipPath>
</defs>
</svg>
