<svg   viewBox="0 0 24 24" fill="none" xmlns="http://www.w3.org/2000/svg">
<g clip-path="url(#clip0_61_17340)">
<path d="M10.9362 8.12105L7.47625 4.66105L8.39625 3.65105C8.77625 3.24105 9.31625 3.00105 9.87625 3.00105H14.1163C14.6763 3.00105 15.2163 3.24105 15.5863 3.65105L16.8263 5.00105H19.9963C21.0963 5.00105 21.9963 5.90105 21.9963 7.00105V19.0011C21.9963 19.0511 21.9862 19.1011 21.9762 19.1611L16.8762 14.0611C16.9562 13.7111 16.9963 13.3611 16.9963 13.0011C16.9963 10.2411 14.7563 8.00105 11.9963 8.00105C11.6363 8.00105 11.2862 8.04105 10.9362 8.12105ZM19.7763 22.6111L18.1663 21.0011H3.99625C2.89625 21.0011 1.99625 20.1011 1.99625 19.0011V7.00105C1.99625 6.41105 2.26625 5.88105 2.67625 5.51105L1.38625 4.22105C0.99625 3.83105 0.99625 3.20105 1.38625 2.81105C1.77625 2.42105 2.40625 2.42105 2.79625 2.81105L21.1763 21.1911C21.5663 21.5811 21.5663 22.2111 21.1763 22.6011C20.7963 23.0011 20.1663 23.0011 19.7763 22.6111ZM14.4862 17.3211L12.9862 15.8211C12.6662 15.9211 12.3463 16.0011 11.9963 16.0011C10.3363 16.0011 8.99625 14.6611 8.99625 13.0011C8.99625 12.6511 9.07625 12.3311 9.18625 12.0211L7.68625 10.5211C7.24625 11.2411 6.99625 12.0911 6.99625 13.0011C6.99625 15.7611 9.23625 18.0011 11.9963 18.0011C12.9063 18.0011 13.7562 17.7511 14.4862 17.3211Z" fill="black"/>
</g>
<defs>
<clipPath id="clip0_61_17340">
<rect width="24" height="24" fill="white" transform="translate(0 0.000976562)"/>
</clipPath>
</defs>
</svg>
