<svg viewBox="0 0 24 24" xmlns="http://www.w3.org/2000/svg">
<g clip-path="url(#clip0_61_17341)">
<path d="M7.99719 20.001C7.99719 21.101 7.09719 22.001 5.99719 22.001C4.89719 22.001 3.99719 21.101 3.99719 20.001C3.99719 18.901 4.89719 18.001 5.99719 18.001C7.09719 18.001 7.99719 18.901 7.99719 20.001ZM14.2972 4.10098C13.0272 3.40098 11.5572 3.00098 9.99719 3.00098C8.76719 3.00098 7.60719 3.26098 6.53719 3.71098L10.9072 8.08098L14.2972 4.10098ZM20.4872 21.901C20.8772 21.511 20.8772 20.881 20.4872 20.491L10.6672 10.671L3.50719 3.51098C3.11719 3.12098 2.48719 3.12098 2.09719 3.51098C1.70719 3.90098 1.70719 4.53098 2.09719 4.92098L9.35719 12.181L6.69719 15.301C6.14719 15.951 6.60719 16.951 7.45719 16.951H14.1172L15.2872 18.121C14.4072 18.451 13.8172 19.371 14.0272 20.401C14.1772 21.161 14.8072 21.791 15.5672 21.941C16.5972 22.151 17.5172 21.561 17.8472 20.681L19.0472 21.881C19.4572 22.291 20.0872 22.291 20.4872 21.901ZM16.9972 6.27098C17.5772 5.59098 17.9672 5.00098 18.6472 5.00098C19.3272 5.00098 19.8672 5.52098 19.9772 6.21098C20.0772 6.66098 20.4772 7.00098 20.9572 7.00098C21.5072 7.00098 21.9572 6.55098 21.9572 6.00098C21.9572 5.94098 21.9572 5.89098 21.9472 5.84098V5.83098C21.6472 4.22098 20.2972 3.00098 18.6472 3.00098C16.9872 3.00098 16.1072 4.27098 15.4672 5.03098L11.9672 9.14098L16.9972 14.171V6.27098Z"/>
</g>
<defs>
<clipPath id="clip0_61_17341">
<rect transform="translate(0 0.000976562)"/>
</clipPath>
</defs>
</svg>
