<svg   viewBox="0 0 24 24" fill="none" xmlns="http://www.w3.org/2000/svg">
<g clip-path="url(#clip0_61_17342)">
<path d="M6.11 5.56122C7.3 5.70122 8.14 6.14122 9 7.00122L10 8.00122L6.75 11.2512C7.06 11.3712 7.31 11.5212 7.52 11.6412C7.89 11.8712 8.11 12.0012 8.67 12.0012C9.23 12.0012 9.45 11.8712 9.82 11.6412C10.28 11.3712 10.9 11.0012 12.01 11.0012C13.12 11.0012 13.74 11.3712 14.19 11.6412C14.56 11.8612 14.79 12.0012 15.34 12.0012C15.89 12.0012 16.12 11.8712 16.49 11.6412C16.61 11.5712 16.75 11.4912 16.9 11.4112L10.48 5.00122C9.22 3.74122 8.04 3.20122 6.3 3.05122C5.6 2.99122 5 3.56122 5 4.26122V4.35122C5 4.98122 5.49 5.48122 6.11 5.56122ZM21.35 18.9112C21.18 18.8512 21.03 18.7612 20.85 18.6412C20.4 18.3712 19.78 18.0012 18.67 18.0012C17.56 18.0012 16.94 18.3712 16.49 18.6412C16.12 18.8712 15.89 19.0012 15.34 19.0012C14.79 19.0012 14.56 18.8612 14.19 18.6412C13.74 18.3712 13.12 18.0012 12.01 18.0012C10.9 18.0012 10.28 18.3712 9.82 18.6412C9.45 18.8712 9.23 19.0012 8.67 19.0012C8.11 19.0012 7.89 18.8712 7.52 18.6412C7.07 18.3712 6.45 18.0012 5.34 18.0012C4.23 18.0012 3.61 18.3712 3.15 18.6412C2.97 18.7512 2.82 18.8412 2.65 18.9112C2.27 19.0412 2 19.3612 2 19.7612V19.8812C2 20.5512 2.66 21.0112 3.3 20.7912C3.67 20.6612 3.95 20.4912 4.19 20.3512C4.56 20.1312 4.79 20.0012 5.34 20.0012C5.89 20.0012 6.12 20.1312 6.49 20.3612C6.94 20.6312 7.56 21.0012 8.67 21.0012C9.78 21.0012 10.4 20.6312 10.86 20.3612C11.23 20.1312 11.45 20.0012 12.01 20.0012C12.56 20.0012 12.79 20.1412 13.16 20.3612C13.61 20.6312 14.23 21.0012 15.34 21.0012C16.45 21.0012 17.06 20.6312 17.52 20.3612C17.89 20.1312 18.11 20.0012 18.67 20.0012C19.22 20.0012 19.45 20.1412 19.82 20.3612C20.05 20.5012 20.33 20.6712 20.7 20.8012C21.33 21.0212 22 20.5612 22 19.8912V19.7712C22 19.3612 21.73 19.0412 21.35 18.9112ZM3.11 16.3512C3.58 16.2212 3.92 16.0212 4.2 15.8612C4.57 15.6312 4.8 15.5012 5.35 15.5012C5.9 15.5012 6.13 15.6412 6.5 15.8612C6.95 16.1312 7.57 16.5012 8.68 16.5012C9.79 16.5012 10.41 16.1312 10.86 15.8612C11.23 15.6312 11.45 15.5012 12.01 15.5012C12.56 15.5012 12.79 15.6412 13.16 15.8612C13.61 16.1312 14.23 16.5012 15.34 16.5012C16.45 16.5012 17.07 16.1312 17.52 15.8612C17.89 15.6312 18.11 15.5012 18.67 15.5012C19.22 15.5012 19.45 15.6412 19.82 15.8612C20.05 16.0012 20.32 16.1612 20.67 16.2912C21.3 16.5212 21.98 16.0512 21.98 15.3812V15.2612C21.98 14.8612 21.71 14.5412 21.34 14.4012C21.17 14.3412 21.02 14.2512 20.83 14.1412C20.38 13.8712 19.76 13.5012 18.65 13.5012C17.54 13.5012 16.92 13.8712 16.47 14.1412C16.1 14.3712 15.87 14.5012 15.32 14.5012C14.77 14.5012 14.54 14.3612 14.17 14.1412C13.72 13.8712 13.1 13.5012 11.99 13.5012C10.88 13.5012 10.26 13.8712 9.81 14.1412C9.44 14.3712 9.22 14.5012 8.66 14.5012C8.11 14.5012 7.88 14.3612 7.51 14.1412C7.06 13.8712 6.44 13.5012 5.33 13.5012C4.22 13.5012 3.6 13.8712 3.15 14.1412C2.97 14.2512 2.82 14.3412 2.65 14.4112C2.27 14.5412 2 14.8612 2 15.2612V15.4912C2 16.0712 2.55 16.5112 3.11 16.3512V16.3512Z" fill="black"/>
<path d="M16.5 8.00098C17.8807 8.00098 19 6.88169 19 5.50098C19 4.12026 17.8807 3.00098 16.5 3.00098C15.1193 3.00098 14 4.12026 14 5.50098C14 6.88169 15.1193 8.00098 16.5 8.00098Z" fill="black"/>
</g>
<defs>
<clipPath id="clip0_61_17342">
<rect width="24" height="24" fill="white" transform="translate(0 0.000976562)"/>
</clipPath>
</defs>
</svg>
