<svg viewBox="0 0 24 24" xmlns="http://www.w3.org/2000/svg">
<g clip-path="url(#clip0_61_17343)">
<path d="M22.0003 12.0009C22.0003 6.52088 17.6003 2.07088 12.1403 2.00088C8.52032 1.95088 5.29032 4.03088 3.43032 7.14088C0.100323 12.6909 2.98032 18.2709 8.00032 20.2509V20.5009C8.00032 21.3309 8.67032 22.0009 9.50032 22.0009H14.5003C15.3303 22.0009 16.0003 21.3309 16.0003 20.5009V20.2509C19.5303 18.8609 22.0003 15.6909 22.0003 12.0009ZM20.0003 12.0009H16.0003V5.08088C18.3903 6.47088 20.0003 9.05088 20.0003 12.0009ZM14.0003 4.26088V12.0009H10.0003V4.26088C10.6403 4.10088 11.3103 4.00088 12.0003 4.00088C12.6903 4.00088 13.3603 4.10088 14.0003 4.26088ZM4.00032 12.0009C4.00032 9.05088 5.61032 6.47088 8.00032 5.08088V12.0009H4.00032Z"/>
</g>
<defs>
<clipPath id="clip0_61_17343">
<rect transform="translate(0 0.000976562)"/>
</clipPath>
</defs>
</svg>
