<svg viewBox="0 0 24 24" xmlns="http://www.w3.org/2000/svg">
<g clip-path="url(#clip0_61_17344)">
<path d="M13.0025 18.0012H11.0025V16.0012H13.0025V18.0012ZM9.00254 15.0012V19.0012C9.00254 19.5512 9.45254 20.0012 10.0025 20.0012H14.0025C14.5525 20.0012 15.0025 19.5512 15.0025 19.0012V15.0012C15.0025 14.4512 14.5525 14.0012 14.0025 14.0012H10.0025C9.45254 14.0012 9.00254 14.4512 9.00254 15.0012ZM19.0025 9.30119V5.00119C19.0025 4.45119 18.5525 4.00119 18.0025 4.00119H17.0025C16.4525 4.00119 16.0025 4.45119 16.0025 5.00119V6.60119L12.6725 3.60119C12.2925 3.26119 11.7125 3.26119 11.3325 3.60119L2.97254 11.1312C2.63254 11.4312 2.84254 12.0012 3.30254 12.0012H4.61254C4.86254 12.0012 5.10254 11.9112 5.28254 11.7412L12.0025 5.69119L18.7125 11.7412C18.9025 11.9112 19.1425 12.0012 19.3825 12.0012H20.6925C21.1525 12.0012 21.3725 11.4312 21.0225 11.1312L19.0025 9.30119Z"/>
</g>
<defs>
<clipPath id="clip0_61_17344">
<rect transform="translate(0 0.000976562)"/>
</clipPath>
</defs>
</svg>
