<svg   viewBox="0 0 24 24" fill="none" xmlns="http://www.w3.org/2000/svg">
<g clip-path="url(#clip0_61_17345)">
<path d="M21.75 17.001C21.75 16.781 21.72 16.581 21.69 16.371L22.53 15.641C22.71 15.481 22.75 15.221 22.63 15.011L22.04 13.991C21.92 13.781 21.67 13.691 21.45 13.771L20.39 14.131C20.07 13.861 19.71 13.651 19.31 13.501L19.09 12.411C19.04 12.181 18.84 12.011 18.6 12.011H17.42C17.18 12.011 16.98 12.181 16.93 12.411L16.71 13.501C16.31 13.651 15.95 13.861 15.63 14.131L14.57 13.771C14.34 13.691 14.1 13.791 13.98 13.991L13.39 15.011C13.27 15.221 13.31 15.481 13.49 15.641L14.33 16.371C14.3 16.581 14.27 16.781 14.27 17.001C14.27 17.221 14.3 17.421 14.33 17.631L13.49 18.361C13.31 18.521 13.27 18.781 13.39 18.991L13.98 20.011C14.1 20.221 14.35 20.311 14.57 20.231L15.63 19.871C15.95 20.141 16.31 20.351 16.71 20.501L16.93 21.591C16.98 21.821 17.18 21.991 17.42 21.991H18.6C18.84 21.991 19.04 21.821 19.09 21.591L19.31 20.501C19.71 20.351 20.07 20.141 20.39 19.871L21.45 20.231C21.68 20.311 21.92 20.211 22.04 20.011L22.63 18.991C22.75 18.781 22.71 18.521 22.53 18.361L21.69 17.631C21.72 17.421 21.75 17.221 21.75 17.001ZM18 19.001C16.9 19.001 16 18.101 16 17.001C16 15.901 16.9 15.001 18 15.001C19.1 15.001 20 15.901 20 17.001C20 18.101 19.1 19.001 18 19.001ZM14 11.261V6.00098H17V10.001H19V5.00098C19 4.45098 18.55 4.00098 18 4.00098H14C14 3.45098 13.55 3.00098 13 3.00098H6C5.45 3.00098 5 3.45098 5 4.00098V19.001H4C3.45 19.001 3 19.451 3 20.001C3 20.551 3.45 21.001 4 21.001H12.26C11.47 19.871 11 18.491 11 17.001C11 14.621 12.19 12.531 14 11.261ZM10 12.001C10 11.451 10.45 11.001 11 11.001C11.55 11.001 12 11.451 12 12.001C12 12.551 11.55 13.001 11 13.001C10.45 13.001 10 12.551 10 12.001Z" fill="black"/>
</g>
<defs>
<clipPath id="clip0_61_17345">
<rect width="24" height="24" fill="white" transform="translate(0 0.000976562)"/>
</clipPath>
</defs>
</svg>
