<svg   viewBox="0 0 24 24" fill="none" xmlns="http://www.w3.org/2000/svg">
<g clip-path="url(#clip0_61_17346)">
<path d="M3 17.001H21C21.55 17.001 22 17.451 22 18.001C22 18.551 21.55 19.001 21 19.001H3C2.45 19.001 2 18.551 2 18.001C2 17.451 2.45 17.001 3 17.001ZM13.84 7.79098C13.94 7.55098 14 7.28098 14 7.00098C14 5.90098 13.1 5.00098 12 5.00098C10.9 5.00098 10 5.90098 10 7.00098C10 7.28098 10.06 7.55098 10.16 7.79098C6.25 8.60098 3.27 11.931 3 16.001H21C20.73 11.931 17.75 8.60098 13.84 7.79098Z" fill="black"/>
</g>
<defs>
<clipPath id="clip0_61_17346">
<rect width="24" height="24" fill="white" transform="translate(0 0.000976562)"/>
</clipPath>
</defs>
</svg>
