<svg   viewBox="0 0 24 24" fill="none" xmlns="http://www.w3.org/2000/svg">
<g clip-path="url(#clip0_61_17347)">
<path d="M21 17.0011H20V11.0011C20 9.90112 19.1 9.00112 18 9.00112H7V8.26113C7 7.80113 6.44 7.56112 6.11 7.89112L4.37 9.63112C4.17 9.83112 4.17 10.1611 4.37 10.3711L6.11 12.1111C6.44 12.4411 7 12.2111 7 11.7411V11.0011H11V14.0011H5C4.45 14.0011 4 14.4511 4 15.0011V17.0011C4 18.1011 4.9 19.0011 6 19.0011H8C8 20.6611 9.34 22.0011 11 22.0011C12.66 22.0011 14 20.6611 14 19.0011H21C21.55 19.0011 22 18.5511 22 18.0011C22 17.4511 21.55 17.0011 21 17.0011ZM11 20.0011C10.45 20.0011 10 19.5511 10 19.0011C10 18.4511 10.45 18.0011 11 18.0011C11.55 18.0011 12 18.4511 12 19.0011C12 19.5511 11.55 20.0011 11 20.0011ZM18 14.0011H14V11.0011H17C17.55 11.0011 18 11.4511 18 12.0011V14.0011ZM10 6.00112H17V6.74112C17 7.20112 17.56 7.44113 17.89 7.11112L19.63 5.37112C19.83 5.17112 19.83 4.84112 19.63 4.63112L17.89 2.89112C17.56 2.56112 17 2.79112 17 3.26112V4.00112H10C9.45 4.00112 9 4.45112 9 5.00112C9 5.55112 9.45 6.00112 10 6.00112Z" fill="black"/>
</g>
<defs>
<clipPath id="clip0_61_17347">
<rect width="24" height="24" fill="white" transform="translate(0 0.000976562)"/>
</clipPath>
</defs>
</svg>
