<svg   viewBox="0 0 24 24" fill="none" xmlns="http://www.w3.org/2000/svg">
<g clip-path="url(#clip0_61_17349)">
<path d="M15.5 16.0008H3.5C2.67 16.0008 2 16.6708 2 17.5008C2 18.3308 2.67 19.0008 3.5 19.0008H15.5C16.33 19.0008 17 18.3308 17 17.5008C17 16.6708 16.33 16.0008 15.5 16.0008ZM18.85 7.73082C19.47 7.12082 19.85 6.28082 19.85 5.35082C19.85 3.84082 18.85 2.56082 17.47 2.14082C16.99 2.00082 16.5 2.36082 16.5 2.86082C16.5 3.19082 16.71 3.48082 17.02 3.57082C17.79 3.80082 18.35 4.51082 18.35 5.35082C18.35 6.17082 17.82 6.86082 17.08 7.11082C16.75 7.22082 16.5 7.50082 16.5 7.85082V8.00082C16.5 8.37082 16.77 8.69082 17.14 8.75082C19.07 9.06082 20.5 10.7508 20.5 12.7708V14.2508C20.5 14.6608 20.84 15.0008 21.25 15.0008C21.66 15.0008 22 14.6608 22 14.2508V12.7608C22 10.5408 20.72 8.62082 18.85 7.73082V7.73082ZM16.03 10.2008H14.73C13.71 10.2008 12.79 9.47082 12.66 8.45082C12.54 7.50082 13.12 6.75082 13.96 6.52082C14.28 6.43082 14.5 6.14082 14.5 5.80082C14.5 5.31082 14.04 4.94082 13.57 5.08082C12.15 5.49082 11.12 6.81082 11.15 8.36082C11.18 10.2008 12.77 11.6508 14.61 11.6508H16.03C17.08 11.6508 18 12.3908 18 13.7008V14.2508C18 14.6608 18.33 15.0008 18.75 15.0008H18.76C19.17 15.0008 19.51 14.6708 19.51 14.2508V13.3608C19.5 11.5508 17.9 10.2008 16.03 10.2008V10.2008ZM18 16.0008H19.5V19.0008H18V16.0008ZM20.5 16.0008H22V19.0008H20.5V16.0008Z" fill="black"/>
</g>
<defs>
<clipPath id="clip0_61_17349">
<rect width="24" height="24" fill="white" transform="translate(0 0.000976562)"/>
</clipPath>
</defs>
</svg>
