<svg   viewBox="0 0 24 24" fill="none" xmlns="http://www.w3.org/2000/svg">
<g clip-path="url(#clip0_61_17348)">
<path d="M20.5 13.0012H22V16.0012H20.5V13.0012ZM18 13.0012H19.5V16.0012H18V13.0012ZM17 14.5012C17 13.6712 16.33 13.0012 15.5 13.0012H14.66L16.84 15.1812C16.94 14.9712 17 14.7412 17 14.5012ZM18.96 2.35119H19H18.96ZM18.85 4.73119C19.23 4.35119 19.52 3.89119 19.69 3.38119C19.85 2.88119 19.5 2.37119 18.98 2.36119C18.64 2.37119 18.37 2.61119 18.26 2.94119C18.08 3.49119 17.64 3.93119 17.09 4.11119C16.75 4.22119 16.5 4.50119 16.5 4.85119V5.00119C16.5 5.37119 16.77 5.69119 17.14 5.75119C19.07 6.06119 20.5 7.75119 20.5 9.77119V11.2512C20.5 11.6612 20.84 12.0012 21.25 12.0012C21.66 12.0012 22 11.6612 22 11.2512V9.76119C22 7.54119 20.72 5.62119 18.85 4.73119V4.73119ZM14.61 8.65119H16.03C17.08 8.65119 18 9.39119 18 10.7012V11.2512C18 11.6612 18.33 12.0012 18.75 12.0012H18.76C19.17 12.0012 19.51 11.6712 19.51 11.2512V10.3612C19.51 8.55119 17.91 7.20119 16.04 7.20119H14.74C13.72 7.20119 12.8 6.47119 12.67 5.45119C12.55 4.50119 13.13 3.75119 13.97 3.52119C14.29 3.43119 14.51 3.14119 14.51 2.80119C14.51 2.31119 14.05 1.94119 13.58 2.08119C12.16 2.49119 11.13 3.81119 11.16 5.36119C11.18 7.21119 12.77 8.65119 14.61 8.65119V8.65119ZM4.12 5.29119C3.73 4.90119 3.1 4.90119 2.71 5.29119C2.32 5.68119 2.32 6.31119 2.71 6.70119L9 13.0012H3.5C2.67 13.0012 2 13.6712 2 14.5012C2 15.3312 2.67 16.0012 3.5 16.0012H12L18.29 22.2912C18.68 22.6812 19.31 22.6812 19.7 22.2912C20.09 21.9012 20.09 21.2712 19.7 20.8812L4.12 5.29119Z" fill="black"/>
</g>
<defs>
<clipPath id="clip0_61_17348">
<rect width="24" height="24" fill="white" transform="translate(0 0.000976562)"/>
</clipPath>
</defs>
</svg>
