<svg   viewBox="0 0 24 24" fill="none" xmlns="http://www.w3.org/2000/svg">
<g clip-path="url(#clip0_61_17350)">
<path d="M14.25 6.00098C14.66 6.00098 15 6.34098 15 6.75098C15 7.16098 14.66 7.50098 14.25 7.50098C13.84 7.50098 13.5 7.16098 13.5 6.75098C13.5 6.34098 13.84 6.00098 14.25 6.00098ZM14.25 4.50098C13.01 4.50098 12 5.51098 12 6.75098C12 7.99098 13.01 9.00098 14.25 9.00098C15.49 9.00098 16.5 7.99098 16.5 6.75098C16.5 5.51098 15.49 4.50098 14.25 4.50098ZM20 5.50098C20.28 5.50098 20.5 5.72098 20.5 6.00098C20.5 6.28098 20.28 6.50098 20 6.50098C19.72 6.50098 19.5 6.28098 19.5 6.00098C19.5 5.72098 19.72 5.50098 20 5.50098ZM20 4.00098C18.9 4.00098 18 4.90098 18 6.00098C18 7.10098 18.9 8.00098 20 8.00098C21.1 8.00098 22 7.10098 22 6.00098C22 4.90098 21.1 4.00098 20 4.00098ZM18 2.50098C18 3.33098 17.33 4.00098 16.5 4.00098C15.67 4.00098 15 3.33098 15 2.50098C15 1.67098 15.67 1.00098 16.5 1.00098C17.33 1.00098 18 1.67098 18 2.50098ZM1.94 11.791C1.34 12.351 1 13.141 1 13.971V20.001C1 21.661 2.34 23.001 4 23.001H17.68C18.33 23.001 18.93 22.531 19 21.881C19.08 21.131 18.49 20.501 17.76 20.501H12.5C12.22 20.501 12 20.281 12 20.001C12 19.721 12.22 19.501 12.5 19.501H19.68C20.33 19.501 20.93 19.031 21 18.381C21.08 17.631 20.49 17.001 19.76 17.001H12.5C12.22 17.001 12 16.781 12 16.501C12 16.221 12.22 16.001 12.5 16.001H20.68C21.33 16.001 21.93 15.531 22 14.881C22.08 14.131 21.49 13.501 20.76 13.501H12.5C12.22 13.501 12 13.281 12 13.001C12 12.721 12.22 12.501 12.5 12.501H18.68C19.33 12.501 19.93 12.031 20 11.381C20.08 10.631 19.49 10.001 18.76 10.001H8.86L10.35 7.39098C10.44 7.23098 10.49 7.06098 10.49 6.86098C10.49 6.60098 10.4 6.36098 10.23 6.16098L9.81 5.71098C9.43 5.32098 8.8 5.30098 8.4 5.68098L1.94 11.791Z" fill="black"/>
</g>
<defs>
<clipPath id="clip0_61_17350">
<rect width="24" height="24" fill="white" transform="translate(0 0.000976562)"/>
</clipPath>
</defs>
</svg>
