<svg   viewBox="0 0 24 24" fill="none" xmlns="http://www.w3.org/2000/svg">
<g clip-path="url(#clip0_61_17351)">
<path d="M15.4893 9.63109C15.3293 7.21109 14.4593 4.84109 12.8493 2.87109C12.4393 2.37109 11.6893 2.37109 11.2793 2.87109C9.62933 4.85109 8.70933 7.22109 8.50933 9.63109C9.78933 10.3111 10.9693 11.1911 11.9993 12.2611C13.0293 11.2011 14.2093 10.3211 15.4893 9.63109V9.63109ZM8.98933 12.2811C8.84933 12.1811 8.68933 12.0911 8.53933 11.9911C8.68933 12.1011 8.84933 12.1811 8.98933 12.2811ZM15.4093 12.0311C15.2793 12.1211 15.1393 12.1911 15.0093 12.2911C15.1393 12.1911 15.2793 12.1211 15.4093 12.0311ZM11.9993 15.4511C10.0493 12.4811 6.85933 10.4211 3.16933 10.0611C2.52933 10.0011 1.99933 10.5311 2.05933 11.1711C2.50933 15.9711 5.70933 19.9511 10.0393 21.5011C10.6693 21.7311 11.3293 21.9011 12.0093 22.0111C12.6893 21.8911 13.3393 21.7211 13.9793 21.5011C18.3093 19.9511 21.5093 15.9811 21.9593 11.1711C22.0193 10.5311 21.4793 10.0011 20.8493 10.0611C17.1393 10.4211 13.9493 12.4811 11.9993 15.4511V15.4511Z" fill="black"/>
</g>
<defs>
<clipPath id="clip0_61_17351">
<rect width="24" height="24" fill="white" transform="translate(0 0.000976562)"/>
</clipPath>
</defs>
</svg>
