<svg viewBox="0 0 24 24" xmlns="http://www.w3.org/2000/svg">
<g clip-path="url(#clip0_61_17352)">
<path d="M19 9.001H17.44C17.77 8.451 17.97 7.821 17.99 7.141C18.03 6.111 17.56 5.151 16.83 4.431C15.29 2.891 14.09 2.871 13.01 3.141C12.2 2.451 11.16 2.021 10 2.021C8.11 2.021 6.49 3.131 5.73 4.731C4.15 5.261 3 6.741 3 8.501C3 10.361 4.28 11.911 6 12.361V19.001C6 20.101 6.9 21.001 8 21.001H15C16.1 21.001 17 20.101 17 19.001H19C20.1 19.001 21 18.101 21 17.001V11.001C21 9.901 20.1 9.001 19 9.001ZM7 10.501C5.9 10.501 5 9.601 5 8.501C5 7.651 5.55 6.901 6.37 6.621L7.17 6.351L7.53 5.591C8 4.621 8.94 4.021 10 4.021C10.79 4.021 11.39 4.371 11.74 4.671L12.52 5.321C12.52 5.321 13.16 5.001 13.99 5.001C15.09 5.001 15.99 5.901 15.99 7.001H12.99C9.67 7.001 9.15 10.501 7 10.501ZM19 17.001H17V11.001H19V17.001Z"/>
</g>
<defs>
<clipPath id="clip0_61_17352">
<rect transform="translate(0 0.000976562)"/>
</clipPath>
</defs>
</svg>
