<svg viewBox="0 0 24 24" xmlns="http://www.w3.org/2000/svg">
<g clip-path="url(#clip0_61_17353)">
<path d="M19 3.00098H5C3.9 3.00098 3 3.90098 3 5.00098V19.001C3 20.101 3.9 21.001 5 21.001H19C20.1 21.001 21 20.101 21 19.001V5.00098C21 3.90098 20.1 3.00098 19 3.00098ZM17 8.00098H15.58V11.331H13V14.661H10.42L10.45 18.001H7C6.45 18.001 6 17.551 6 17.001C6 16.451 6.45 16.001 7 16.001H8.42V12.671H11V9.33098H13.58V6.00098H17C17.55 6.00098 18 6.45098 18 7.00098C18 7.55098 17.55 8.00098 17 8.00098Z"/>
</g>
<defs>
<clipPath id="clip0_61_17353">
<rect transform="translate(0 0.000976562)"/>
</clipPath>
</defs>
</svg>
