<svg viewBox="0 0 24 24" xmlns="http://www.w3.org/2000/svg">
<g clip-path="url(#clip0_61_17354)">
<path d="M21.9024 8.89098L20.8524 4.52098C20.6324 3.62098 19.8524 3.00098 18.9424 3.00098H16.7324H14.7224H13.0024H11.0024H9.28245H7.26245H5.05245C4.15245 3.00098 3.36245 3.63098 3.15245 4.52098L2.10245 8.89098C1.86245 9.91098 2.08245 10.951 2.72245 11.771C2.80245 11.881 2.91245 11.961 3.00245 12.061V19.001C3.00245 20.101 3.90245 21.001 5.00245 21.001H19.0024C20.1024 21.001 21.0024 20.101 21.0024 19.001V12.061C21.0924 11.971 21.2024 11.881 21.2824 11.781C21.9224 10.961 22.1524 9.91098 21.9024 8.89098ZM7.02245 5.00098L6.44245 9.86098C6.36245 10.511 5.84245 11.001 5.23245 11.001C4.74245 11.001 4.43245 10.711 4.30245 10.531C4.04245 10.201 3.95245 9.77098 4.05245 9.36098L5.05245 5.00098H7.02245ZM18.9124 4.99098L19.9624 9.36098C20.0624 9.78098 19.9724 10.201 19.7124 10.531C19.5724 10.711 19.2724 11.001 18.7724 11.001C18.1624 11.001 17.6324 10.511 17.5624 9.86098L16.9824 5.00098L18.9124 4.99098ZM15.5124 9.52098C15.5624 9.91098 15.4424 10.301 15.1824 10.591C14.9524 10.851 14.6324 11.001 14.2224 11.001C13.5524 11.001 13.0024 10.411 13.0024 9.69098V5.00098H14.9624L15.5124 9.52098ZM11.0024 9.69098C11.0024 10.411 10.4524 11.001 9.71245 11.001C9.37245 11.001 9.06245 10.851 8.82245 10.591C8.57245 10.301 8.45245 9.91098 8.49245 9.52098L9.04245 5.00098H11.0024V9.69098ZM18.0024 19.001H6.00245C5.45245 19.001 5.00245 18.551 5.00245 18.001V12.971C5.08245 12.981 5.15245 13.001 5.23245 13.001C6.10245 13.001 6.89245 12.641 7.47245 12.051C8.07245 12.651 8.87245 13.001 9.78245 13.001C10.6524 13.001 11.4324 12.641 12.0124 12.071C12.6024 12.641 13.4024 13.001 14.3024 13.001C15.1424 13.001 15.9424 12.651 16.5424 12.051C17.1224 12.641 17.9124 13.001 18.7824 13.001C18.8624 13.001 18.9324 12.981 19.0124 12.971V18.001C19.0024 18.551 18.5524 19.001 18.0024 19.001Z"/>
</g>
<defs>
<clipPath id="clip0_61_17354">
<rect transform="translate(0 0.000976562)"/>
</clipPath>
</defs>
</svg>
