<svg viewBox="0 0 24 24" xmlns="http://www.w3.org/2000/svg">
<g clip-path="url(#clip0_61_17355)">
<path d="M18 20.001C18 21.101 17.1 22.001 16 22.001C14.9 22.001 14 21.101 14 20.001C14 18.901 14.9 18.001 16 18.001C17.1 18.001 18 18.901 18 20.001ZM6 18.001C4.9 18.001 4 18.901 4 20.001C4 21.101 4.9 22.001 6 22.001C7.1 22.001 8 21.101 8 20.001C8 18.901 7.1 18.001 6 18.001ZM14.3 4.10098C13.03 3.40098 11.56 3.00098 10 3.00098C8.49 3.00098 7.07 3.38098 5.83 4.03098C5.24 4.34098 5.15 5.15098 5.61 5.61098L9.6 9.60098L14.3 4.10098ZM21.94 5.83098C21.65 4.22098 20.3 3.00098 18.65 3.00098C16.99 3.00098 16.11 4.27098 15.47 5.03098L6.71 15.311C6.16 15.961 6.62 16.961 7.47 16.961H15C16.1 16.961 17 16.061 17 14.961V6.27098C17.58 5.59098 17.97 5.00098 18.65 5.00098C19.33 5.00098 19.87 5.52098 19.98 6.21098C20.08 6.66098 20.48 7.00098 20.96 7.00098C21.51 7.00098 21.96 6.55098 21.96 6.00098C21.96 5.94098 21.95 5.89098 21.94 5.83098Z"/>
</g>
<defs>
<clipPath id="clip0_61_17355">
<rect transform="translate(0 0.000976562)"/>
</clipPath>
</defs>
</svg>
