<svg viewBox="0 0 24 24" xmlns="http://www.w3.org/2000/svg">
<g clip-path="url(#clip0_61_17356)">
<path d="M22.003 10.001V2.00098C22.003 1.45098 21.553 1.00098 21.003 1.00098H15.003C14.453 1.00098 14.003 1.45098 14.003 2.00098V10.001C14.003 11.861 15.283 13.411 17.003 13.861V21.001H16.003C15.453 21.001 15.003 21.451 15.003 22.001C15.003 22.551 15.453 23.001 16.003 23.001H20.003C20.553 23.001 21.003 22.551 21.003 22.001C21.003 21.451 20.553 21.001 20.003 21.001H19.003V13.861C20.723 13.411 22.003 11.861 22.003 10.001ZM20.003 3.00098V6.00098H16.003V3.00098H20.003ZM9.86298 9.00098H8.00298V8.00098H9.86298C11.173 8.00098 12.363 7.06098 12.493 5.76098C12.643 4.26098 11.473 3.00098 10.003 3.00098H8.00298V2.00098C8.00298 1.45098 7.55298 1.00098 7.00298 1.00098C6.45298 1.00098 6.00298 1.45098 6.00298 2.00098V3.00098H4.14298C2.83298 3.00098 1.64298 3.94098 1.51298 5.24098C1.36298 6.74098 2.53298 8.00098 4.00298 8.00098H6.00298V9.00098H4.14298C2.83298 9.00098 1.64298 9.94098 1.51298 11.241C1.36298 12.741 2.53298 14.001 4.00298 14.001H6.00298V22.001C6.00298 22.551 6.45298 23.001 7.00298 23.001C7.55298 23.001 8.00298 22.551 8.00298 22.001V14.001H10.003C11.473 14.001 12.643 12.741 12.493 11.241C12.363 9.94098 11.173 9.00098 9.86298 9.00098Z"/>
</g>
<defs>
<clipPath id="clip0_61_17356">
<rect transform="translate(0 0.000976562)"/>
</clipPath>
</defs>
</svg>
