<svg   viewBox="0 0 24 24" fill="none" xmlns="http://www.w3.org/2000/svg">
<g clip-path="url(#clip0_61_17357)">
<path d="M15.0026 4.00098C15.5526 4.00098 16.0026 4.45098 16.0026 5.00098C16.0026 5.55098 15.5526 6.00098 15.0026 6.00098C14.4526 6.00098 14.0026 5.55098 14.0026 5.00098C14.0026 4.45098 14.4526 4.00098 15.0026 4.00098ZM14.0026 7.00098C14.5526 7.00098 15.0026 7.45098 15.0026 8.00098C15.0026 8.55098 14.5526 9.00098 14.0026 9.00098C13.4526 9.00098 13.0026 8.55098 13.0026 8.00098C13.0026 7.45098 13.4526 7.00098 14.0026 7.00098ZM12.0026 4.00098C12.5526 4.00098 13.0026 4.45098 13.0026 5.00098C13.0026 5.55098 12.5526 6.00098 12.0026 6.00098C11.4526 6.00098 11.0026 5.55098 11.0026 5.00098C11.0026 4.45098 11.4526 4.00098 12.0026 4.00098ZM17.0026 9.00098C16.4526 9.00098 16.0026 8.55098 16.0026 8.00098C16.0026 7.45098 16.4526 7.00098 17.0026 7.00098C17.5526 7.00098 18.0026 7.45098 18.0026 8.00098C18.0026 8.55098 17.5526 9.00098 17.0026 9.00098ZM18.0026 6.00098C17.4526 6.00098 17.0026 5.55098 17.0026 5.00098C17.0026 4.45098 17.4526 4.00098 18.0026 4.00098C18.5526 4.00098 19.0026 4.45098 19.0026 5.00098C19.0026 5.55098 18.5526 6.00098 18.0026 6.00098ZM20.0026 9.00098C19.4526 9.00098 19.0026 8.55098 19.0026 8.00098C19.0026 7.45098 19.4526 7.00098 20.0026 7.00098C20.5526 7.00098 21.0026 7.45098 21.0026 8.00098C21.0026 8.55098 20.5526 9.00098 20.0026 9.00098ZM21.0026 6.00098C20.4526 6.00098 20.0026 5.55098 20.0026 5.00098C20.0026 4.45098 20.4526 4.00098 21.0026 4.00098C21.5526 4.00098 22.0026 4.45098 22.0026 5.00098C22.0026 5.55098 21.5526 6.00098 21.0026 6.00098ZM14.6226 14.381L12.1026 16.901C9.60261 15.471 7.53261 13.401 6.10261 10.901L8.62261 8.38098C8.86261 8.14098 8.96261 7.80098 8.90261 7.48098L8.16261 3.80098C8.07261 3.34098 7.66261 3.00098 7.18261 3.00098H3.03261C2.47261 3.00098 2.00261 3.47098 2.03261 4.03098C2.20261 6.92098 3.05261 9.63098 4.43261 12.001C6.01261 14.731 8.28261 16.991 11.0026 18.571C13.3726 19.941 16.0826 20.801 18.9726 20.971C19.5326 21.001 20.0026 20.531 20.0026 19.971V15.821C20.0026 15.341 19.6626 14.931 19.2026 14.841L15.5326 14.111C15.2026 14.041 14.8626 14.141 14.6226 14.381ZM15.0026 10.001C15.5526 10.001 16.0026 10.451 16.0026 11.001C16.0026 11.551 15.5526 12.001 15.0026 12.001C14.4526 12.001 14.0026 11.551 14.0026 11.001C14.0026 10.451 14.4526 10.001 15.0026 10.001ZM12.0026 10.001C12.5526 10.001 13.0026 10.451 13.0026 11.001C13.0026 11.551 12.5526 12.001 12.0026 12.001C11.4526 12.001 11.0026 11.551 11.0026 11.001C11.0026 10.451 11.4526 10.001 12.0026 10.001ZM18.0026 12.001C17.4526 12.001 17.0026 11.551 17.0026 11.001C17.0026 10.451 17.4526 10.001 18.0026 10.001C18.5526 10.001 19.0026 10.451 19.0026 11.001C19.0026 11.551 18.5526 12.001 18.0026 12.001ZM21.0026 12.001C20.4526 12.001 20.0026 11.551 20.0026 11.001C20.0026 10.451 20.4526 10.001 21.0026 10.001C21.5526 10.001 22.0026 10.451 22.0026 11.001C22.0026 11.551 21.5526 12.001 21.0026 12.001Z" fill="black"/>
</g>
<defs>
<clipPath id="clip0_61_17357">
<rect width="24" height="24" fill="white" transform="translate(0 0.000976562)"/>
</clipPath>
</defs>
</svg>
