<svg   viewBox="0 0 24 24" fill="none" xmlns="http://www.w3.org/2000/svg">
<g clip-path="url(#clip0_61_17358)">
<path d="M17.1223 6.28098L14.5023 6.92098L13.0023 5.77098V3.88098V3.40098C13.0023 3.14098 13.2223 2.92098 13.5023 2.92098C13.7323 2.92098 13.9323 3.08098 13.9923 3.28098C14.1023 3.70098 14.4923 4.00098 14.9423 4.00098C15.4923 4.00098 15.9423 3.55098 15.9423 3.00098C15.9423 2.90098 15.9223 2.80098 15.8923 2.70098C15.5923 1.72098 14.6323 1.00098 13.5023 1.00098C12.1223 1.00098 11.0023 2.07098 11.0023 3.40098V3.88098V5.77098L9.50232 6.92098L6.88232 6.28098C6.50232 6.19098 6.16232 6.55098 6.28232 6.92098L11.0523 21.311C11.2023 21.771 11.6023 22.001 12.0023 22.001C12.4023 22.001 12.8023 21.771 12.9523 21.311L17.7223 6.92098C17.8423 6.55098 17.5023 6.19098 17.1223 6.28098ZM11.0023 14.801L9.03232 8.86098L9.95232 9.09098L10.7123 8.51098L11.0023 8.29098V14.801ZM13.0023 14.801V8.29098L13.2823 8.51098L14.0423 9.09098L14.9623 8.86098L13.0023 14.801Z" fill="black"/>
</g>
<defs>
<clipPath id="clip0_61_17358">
<rect width="24" height="24" fill="white" transform="translate(0 0.000976562)"/>
</clipPath>
</defs>
</svg>
