<svg   viewBox="0 0 24 24" fill="none" xmlns="http://www.w3.org/2000/svg">
<g clip-path="url(#clip0_61_17359)">
<path d="M1.94 11.7909C1.34 12.3509 1 13.1409 1 13.9709V20.0009C1 21.6609 2.34 23.0009 4 23.0009H17.68C18.33 23.0009 18.93 22.5309 19 21.8809C19.08 21.1309 18.49 20.5009 17.76 20.5009H12.5C12.22 20.5009 12 20.2809 12 20.0009C12 19.7209 12.22 19.5009 12.5 19.5009H19.68C20.33 19.5009 20.93 19.0309 21 18.3809C21.08 17.6309 20.49 17.0009 19.76 17.0009H12.5C12.22 17.0009 12 16.7809 12 16.5009C12 16.2209 12.22 16.0009 12.5 16.0009H20.68C21.33 16.0009 21.93 15.5309 22 14.8809C22.08 14.1309 21.49 13.5009 20.76 13.5009H12.5C12.22 13.5009 12 13.2809 12 13.0009C12 12.7209 12.22 12.5009 12.5 12.5009H18.68C19.33 12.5009 19.93 12.0309 20 11.3809C20.08 10.6309 19.49 10.0009 18.76 10.0009H8.86L10.35 7.39094C10.44 7.23094 10.49 7.06094 10.49 6.86094C10.49 6.60094 10.4 6.36094 10.23 6.16094L9.81 5.71094C9.43 5.32094 8.8 5.30094 8.4 5.68094L1.94 11.7909ZM18.5 8.00094C19.88 8.00094 21 6.88094 21 5.50094C21 4.25094 19.59 2.34094 18.89 1.46094C18.69 1.21094 18.32 1.21094 18.12 1.46094C17.41 2.34094 16 4.25094 16 5.50094C16 6.88094 17.12 8.00094 18.5 8.00094ZM13.5 9.00094C14.33 9.00094 15 8.33094 15 7.50094C15 6.94094 14.33 6.01094 13.89 5.46094C13.69 5.21094 13.31 5.21094 13.12 5.46094C12.67 6.01094 12 6.94094 12 7.50094C12 8.33094 12.67 9.00094 13.5 9.00094Z" fill="black"/>
</g>
<defs>
<clipPath id="clip0_61_17359">
<rect width="24" height="24" fill="white" transform="translate(0 0.000976562)"/>
</clipPath>
</defs>
</svg>
