<svg viewBox="0 0 24 24" xmlns="http://www.w3.org/2000/svg">
<g clip-path="url(#clip0_61_17360)">
<path d="M11.3325 3.60119L2.97254 11.1312C2.63254 11.4312 2.84254 12.0012 3.30254 12.0012H5.00254V19.0012C5.00254 19.5512 5.45254 20.0012 6.00254 20.0012H18.0025C18.5525 20.0012 19.0025 19.5512 19.0025 19.0012V12.0012H20.7025C21.1625 12.0012 21.3825 11.4312 21.0325 11.1312L12.6725 3.60119C12.2925 3.26119 11.7125 3.26119 11.3325 3.60119ZM12.0025 16.0012C10.9025 16.0012 10.0025 15.1012 10.0025 14.0012C10.0025 13.2212 10.9925 11.5612 11.5825 10.6412C11.7825 10.3312 12.2225 10.3312 12.4225 10.6412C13.0125 11.5612 14.0025 13.2212 14.0025 14.0012C14.0025 15.1012 13.1025 16.0012 12.0025 16.0012Z"/>
</g>
<defs>
<clipPath id="clip0_61_17360">
<rect transform="translate(0 0.000976562)"/>
</clipPath>
</defs>
</svg>
