<svg   viewBox="0 0 24 24" fill="none" xmlns="http://www.w3.org/2000/svg">
<g clip-path="url(#clip0_61_17361)">
<path d="M4.5 4.00098C4.5 2.89098 5.39 2.00098 6.5 2.00098C7.61 2.00098 8.5 2.89098 8.5 4.00098C8.5 5.11098 7.61 6.00098 6.5 6.00098C5.39 6.00098 4.5 5.11098 4.5 4.00098ZM10 10.951V9.00098C10 7.90098 9.1 7.00098 8 7.00098H5C3.9 7.00098 3 7.90098 3 9.00098V14.001C3 14.551 3.45 15.001 4 15.001H5V21.001C5 21.551 5.45 22.001 6 22.001H8.5V21.891C7.26 20.631 6.5 18.901 6.5 17.001C6.5 14.421 7.91 12.161 10 10.951ZM16.5 17.001C16.5 18.651 15.15 20.001 13.5 20.001C11.85 20.001 10.5 18.651 10.5 17.001C10.5 15.891 11.11 14.941 12 14.421V12.261C9.98 12.901 8.5 14.771 8.5 17.001C8.5 19.761 10.74 22.001 13.5 22.001C16.26 22.001 18.5 19.761 18.5 17.001H16.5ZM19 14.001H15V9.00098C15 8.45098 14.55 8.00098 14 8.00098C13.45 8.00098 13 8.45098 13 9.00098V15.001C13 15.551 13.45 16.001 14 16.001H18.46L20.38 18.881C20.69 19.341 21.31 19.461 21.77 19.161C22.23 18.851 22.35 18.231 22.05 17.771L19.84 14.451C19.65 14.171 19.33 14.001 19 14.001Z" fill="black"/>
</g>
<defs>
<clipPath id="clip0_61_17361">
<rect width="24" height="24" fill="white" transform="translate(0 0.000976562)"/>
</clipPath>
</defs>
</svg>
