<svg   viewBox="0 0 32 32" fill="none" xmlns="http://www.w3.org/2000/svg">
<path d="M5.39691 16C5.82172 16.3483 6.1642 16.7862 6.39979 17.2825C7 18.5204 7 20.0352 7 21.5C7 24.5392 7.12744 26 10 26C10.2652 26 10.5196 26.1054 10.7071 26.2929C10.8946 26.4804 11 26.7348 11 27C11 27.2652 10.8946 27.5196 10.7071 27.7071C10.5196 27.8946 10.2652 28 10 28C7.81482 28 6.33447 27.2321 5.60022 25.7175C5 24.4796 5 22.9648 5 21.5C5 18.4608 4.87256 17 2 17C1.73478 17 1.48043 16.8946 1.29289 16.7071C1.10536 16.5196 1 16.2652 1 16C1 15.7348 1.10536 15.4804 1.29289 15.2929C1.48043 15.1054 1.73478 15 2 15C4.87256 15 5 13.5392 5 10.5C5 9.03516 5 7.52039 5.60022 6.28247C6.33447 4.76794 7.81482 4 10 4C10.2652 4 10.5196 4.10536 10.7071 4.29289C10.8946 4.48043 11 4.73478 11 5C11 5.26522 10.8946 5.51957 10.7071 5.70711C10.5196 5.89464 10.2652 6 10 6C7.12744 6 7 7.46081 7 10.5C7 11.9648 7 13.4796 6.39978 14.7175C6.16419 15.2138 5.82172 15.6517 5.39691 16ZM30 15C27.1274 15 27 13.5392 27 10.5C27 9.03516 27 7.52039 26.3998 6.28247C25.6655 4.76794 24.1852 4 22 4C21.7348 4 21.4804 4.10536 21.2929 4.29289C21.1054 4.48043 21 4.73478 21 5C21 5.26522 21.1054 5.51957 21.2929 5.70711C21.4804 5.89464 21.7348 6 22 6C24.8726 6 25 7.46081 25 10.5C25 11.9648 25 13.4796 25.6002 14.7175C25.8358 15.2138 26.1783 15.6517 26.6031 16C26.1783 16.3483 25.8358 16.7862 25.6002 17.2825C25 18.5204 25 20.0352 25 21.5C25 24.5392 24.8726 26 22 26C21.7348 26 21.4804 26.1054 21.2929 26.2929C21.1054 26.4804 21 26.7348 21 27C21 27.2652 21.1054 27.5196 21.2929 27.7071C21.4804 27.8946 21.7348 28 22 28C24.1852 28 25.6655 27.2321 26.3998 25.7175C27 24.4796 27 22.9648 27 21.5C27 18.4608 27.1274 17 30 17C30.2652 17 30.5196 16.8946 30.7071 16.7071C30.8946 16.5196 31 16.2652 31 16C31 15.7348 30.8946 15.4804 30.7071 15.2929C30.5196 15.1054 30.2652 15 30 15Z" fill="black"/>
</svg>
