<svg viewBox="0 0 32 32" xmlns="http://www.w3.org/2000/svg">
<path d="M10.8436 5.53684L4.1853 16L10.8436 26.4631C10.9145 26.5739 10.9628 26.6976 10.9858 26.8271C11.0088 26.9565 11.006 27.0893 10.9776 27.2177C10.9493 27.3461 10.8958 27.4677 10.8204 27.5754C10.745 27.6831 10.6491 27.7749 10.5381 27.8456C10.4272 27.9162 10.3034 27.9642 10.1738 27.9869C10.0443 28.0096 9.91154 28.0065 9.7832 27.9778C9.65485 27.9492 9.53342 27.8954 9.42586 27.8198C9.3183 27.7441 9.22672 27.648 9.15637 27.5368L2.15637 16.5368C2.05425 16.3764 2 16.1902 2 16C2 15.8098 2.05425 15.6235 2.15637 15.4631L9.15637 4.46311C9.29906 4.24003 9.5244 4.08266 9.78297 4.02552C10.0415 3.96837 10.3122 4.01612 10.5356 4.1583C10.759 4.30047 10.9169 4.52545 10.9747 4.78388C11.0324 5.04232 10.9853 5.31311 10.8436 5.53684V5.53684ZM29.8436 15.4631L22.8436 4.46311C22.7009 4.24003 22.4756 4.08266 22.217 4.02552C21.9585 3.96837 21.6878 4.01612 21.4644 4.1583C21.241 4.30047 21.0831 4.52545 21.0253 4.78388C20.9676 5.04232 21.0147 5.31311 21.1564 5.53684L27.8147 16L21.1564 26.4631C21.0855 26.5739 21.0372 26.6976 21.0142 26.8271C20.9912 26.9565 20.994 27.0893 21.0224 27.2177C21.0507 27.3461 21.1042 27.4677 21.1796 27.5754C21.255 27.6831 21.3509 27.7749 21.4619 27.8456C21.5728 27.9162 21.6966 27.9642 21.8262 27.9869C21.9557 28.0096 22.0884 28.0065 22.2168 27.9778C22.3451 27.9492 22.4666 27.8954 22.5741 27.8198C22.6817 27.7441 22.7733 27.648 22.8436 27.5368L29.8436 16.5368C29.9457 16.3764 30 16.1902 30 16C30 15.8098 29.9457 15.6235 29.8436 15.4631V15.4631Z"/>
</svg>
