<svg viewBox="0 0 32 32" xmlns="http://www.w3.org/2000/svg">
<path d="M5 16C5 23.2861 9.33435 26.0319 9.51886 26.1451C9.74503 26.2826 9.90748 26.5041 9.97061 26.7612C10.0337 27.0182 9.9924 27.2898 9.85565 27.5164C9.7189 27.743 9.49789 27.9062 9.24106 27.9701C8.98422 28.0341 8.71252 27.9936 8.48547 27.8576C8.26154 27.7232 3 24.4689 3 16C3 7.53113 8.26154 4.27686 8.48547 4.14246C8.71263 4.00557 8.98487 3.96453 9.24229 4.02836C9.49971 4.09219 9.72123 4.25567 9.85812 4.48283C9.99501 4.70998 10.0361 4.98222 9.97223 5.23964C9.9084 5.49706 9.74492 5.71859 9.51776 5.85548C9.318 5.97864 5 8.72767 5 16ZM23.5145 4.14246C23.2875 4.00709 23.0161 3.96709 22.7597 4.03122C22.5033 4.09535 22.2827 4.25838 22.1461 4.48468C22.0096 4.71098 21.9681 4.98215 22.0309 5.2389C22.0937 5.49565 22.2556 5.71711 22.4811 5.85487C22.6657 5.96815 27 8.71387 27 16C27 23.2861 22.6656 26.0319 22.4855 26.1425C22.3729 26.21 22.2747 26.2991 22.1965 26.4046C22.1183 26.5102 22.0617 26.63 22.0298 26.7575C21.9979 26.8849 21.9915 27.0173 22.0108 27.1472C22.0302 27.2771 22.0749 27.4019 22.1425 27.5145C22.21 27.6271 22.2991 27.7254 22.4046 27.8035C22.5102 27.8817 22.63 27.9384 22.7575 27.9702C22.8849 28.0021 23.0173 28.0085 23.1472 27.9892C23.2771 27.9698 23.4019 27.9251 23.5145 27.8576C23.7385 27.7232 29 24.4689 29 16C29 7.53113 23.7385 4.27686 23.5145 4.14246Z"/>
</svg>
