<svg   viewBox="0 0 32 32" fill="none" xmlns="http://www.w3.org/2000/svg">
<path d="M6 6V26H10C10.2652 26 10.5196 26.1054 10.7071 26.2929C10.8946 26.4804 11 26.7348 11 27C11 27.2652 10.8946 27.5196 10.7071 27.7071C10.5196 27.8946 10.2652 28 10 28H5C4.73479 28 4.48044 27.8946 4.29291 27.7071C4.10537 27.5196 4.00001 27.2652 4 27V5C4.00001 4.73479 4.10537 4.48044 4.29291 4.29291C4.48044 4.10537 4.73479 4.00001 5 4H10C10.2652 4 10.5196 4.10536 10.7071 4.29289C10.8946 4.48043 11 4.73478 11 5C11 5.26522 10.8946 5.51957 10.7071 5.70711C10.5196 5.89464 10.2652 6 10 6H6ZM27 4H22C21.7348 4 21.4804 4.10536 21.2929 4.29289C21.1054 4.48043 21 4.73478 21 5C21 5.26522 21.1054 5.51957 21.2929 5.70711C21.4804 5.89464 21.7348 6 22 6H26V26H22C21.7348 26 21.4804 26.1054 21.2929 26.2929C21.1054 26.4804 21 26.7348 21 27C21 27.2652 21.1054 27.5196 21.2929 27.7071C21.4804 27.8946 21.7348 28 22 28H27C27.2652 28 27.5196 27.8946 27.7071 27.7071C27.8946 27.5196 28 27.2652 28 27V5C28 4.73479 27.8946 4.48044 27.7071 4.29291C27.5196 4.10537 27.2652 4.00001 27 4V4Z" fill="black"/>
</svg>
