<svg viewBox="0 0 32 32" xmlns="http://www.w3.org/2000/svg">
<path d="M20.9912 11.5C20.9912 11.7967 20.9032 12.0867 20.7384 12.3334C20.5736 12.58 20.3393 12.7723 20.0652 12.8858C19.7911 12.9993 19.4895 13.0291 19.1986 12.9712C18.9076 12.9133 18.6403 12.7704 18.4306 12.5607C18.2208 12.3509 18.0779 12.0836 18.02 11.7926C17.9622 11.5017 17.9919 11.2001 18.1054 10.926C18.2189 10.6519 18.4112 10.4176 18.6579 10.2528C18.9045 10.088 19.1945 10 19.4912 10C19.889 10 20.2706 10.158 20.5519 10.4393C20.8332 10.7206 20.9912 11.1022 20.9912 11.5ZM12.4912 10C12.1945 10 11.9045 10.088 11.6579 10.2528C11.4112 10.4176 11.2189 10.6519 11.1054 10.926C10.9919 11.2001 10.9622 11.5017 11.02 11.7926C11.0779 12.0836 11.2208 12.3509 11.4306 12.5607C11.6403 12.7704 11.9076 12.9133 12.1986 12.9712C12.4895 13.0291 12.7911 12.9993 13.0652 12.8858C13.3393 12.7723 13.5736 12.58 13.7384 12.3334C13.9032 12.0867 13.9912 11.7967 13.9912 11.5C13.9912 11.1022 13.8332 10.7206 13.5519 10.4393C13.2706 10.158 12.889 10 12.4912 10V10ZM31.5 16C31.5 16.2652 31.3946 16.5196 31.2071 16.7071C31.0196 16.8946 30.7652 17 30.5 17H27V18C27.0006 19.0012 26.8641 19.9978 26.5945 20.962L29.4904 22.634C29.6041 22.6996 29.7038 22.787 29.7837 22.8912C29.8637 22.9954 29.9223 23.1143 29.9563 23.2412C29.9903 23.368 29.9989 23.5003 29.9818 23.6305C29.9647 23.7607 29.922 23.8863 29.8564 24C29.7907 24.1137 29.7033 24.2134 29.5991 24.2934C29.4949 24.3733 29.376 24.4319 29.2492 24.4659C29.1223 24.4999 28.99 24.5086 28.8598 24.4914C28.7296 24.4743 28.6041 24.4317 28.4904 24.366L25.8697 22.853C24.9633 24.6975 23.5582 26.2511 21.8137 27.3376C20.0692 28.4241 18.0552 29 16 29C13.9448 29 11.9308 28.4241 10.1863 27.3376C8.44183 26.2511 7.0367 24.6975 6.13031 22.853L3.50965 24.366C3.39592 24.4317 3.27037 24.4743 3.14017 24.4914C3.00998 24.5086 2.87768 24.4999 2.75083 24.4659C2.62398 24.4319 2.50507 24.3733 2.40089 24.2934C2.2967 24.2134 2.20928 24.1137 2.14362 24C2.07796 23.8863 2.03534 23.7607 2.0182 23.6305C2.00106 23.5003 2.00973 23.368 2.04372 23.2412C2.07771 23.1143 2.13635 22.9954 2.21629 22.8912C2.29624 22.787 2.39592 22.6996 2.50965 22.634L5.40555 20.962C5.13587 19.9978 4.99942 19.0012 5 18V17H1.5C1.23478 17 0.98043 16.8946 0.792893 16.7071C0.605357 16.5196 0.5 16.2652 0.5 16C0.5 15.7348 0.605357 15.4804 0.792893 15.2929C0.98043 15.1054 1.23478 15 1.5 15H5V14C4.99942 12.9988 5.13587 12.0022 5.40555 11.038L2.50964 9.36602C2.27996 9.23341 2.11236 9.015 2.04372 8.75882C1.97507 8.50264 2.01101 8.22968 2.14362 8C2.27622 7.77031 2.49464 7.60271 2.75082 7.53407C3.007 7.46542 3.27996 7.50136 3.50964 7.63397L6.13031 9.14703C7.03669 7.30252 8.4418 5.74891 10.1863 4.66241C11.9308 3.57591 13.9448 3 16 3C18.0552 3 20.0692 3.57591 21.8137 4.66241C23.5582 5.74891 24.9633 7.30252 25.8697 9.14703L28.4904 7.63397C28.6041 7.56831 28.7296 7.52569 28.8598 7.50855C28.99 7.49141 29.1223 7.50008 29.2492 7.53407C29.376 7.56806 29.4949 7.6267 29.5991 7.70664C29.7033 7.78659 29.7907 7.88627 29.8564 8C29.922 8.11372 29.9647 8.23927 29.9818 8.36947C29.9989 8.49967 29.9903 8.63197 29.9563 8.75882C29.9223 8.88566 29.8636 9.00457 29.7837 9.10876C29.7038 9.21294 29.6041 9.30036 29.4904 9.36602L26.5945 11.038C26.8641 12.0022 27.0006 12.9988 27 14V15H30.5C30.7652 15 31.0196 15.1054 31.2071 15.2929C31.3946 15.4804 31.5 15.7348 31.5 16V16ZM17 18C17 17.7348 16.8946 17.4804 16.7071 17.2929C16.5196 17.1054 16.2652 17 16 17C15.7348 17 15.4804 17.1054 15.2929 17.2929C15.1054 17.4804 15 17.7348 15 18V26C15 26.2652 15.1054 26.5196 15.2929 26.7071C15.4804 26.8946 15.7348 27 16 27C16.2652 27 16.5196 26.8946 16.7071 26.7071C16.8946 26.5196 17 26.2652 17 26V18ZM25 14C25 11.613 24.0518 9.32386 22.364 7.63603C20.6761 5.94821 18.3869 5 16 5C13.6131 5 11.3239 5.94821 9.63604 7.63603C7.94821 9.32386 7 11.613 7 14V15H25V14Z"/>
</svg>
