<svg viewBox="0 0 32 32" xmlns="http://www.w3.org/2000/svg">
<path d="M6.302 4.22449C6.10985 4.04171 5.99819 3.79007 5.99157 3.52495C5.98496 3.25983 6.08393 3.00294 6.26672 2.8108C6.44951 2.61865 6.70115 2.50699 6.96627 2.50037C7.23138 2.49376 7.48827 2.59273 7.68042 2.77552L10.0134 4.99488C11.739 3.70123 13.8373 3.00134 15.9939 3.00001C18.1506 2.99868 20.2497 3.69598 21.9769 4.9875L24.302 2.77552C24.3971 2.68501 24.5092 2.61413 24.6317 2.56692C24.7542 2.51971 24.8849 2.4971 25.0162 2.50037C25.1474 2.50365 25.2768 2.53275 25.3968 2.58601C25.5168 2.63928 25.6252 2.71566 25.7157 2.8108C25.8062 2.90594 25.8771 3.01798 25.9243 3.14051C25.9715 3.26305 25.9941 3.39368 25.9908 3.52495C25.9876 3.65623 25.9585 3.78557 25.9052 3.9056C25.8519 4.02563 25.7756 4.13399 25.6804 4.22449L23.4538 6.34284C24.8648 7.91606 25.739 9.89726 25.9499 12H6.05011C6.26069 9.90138 7.13192 7.92375 8.53833 6.35194L6.302 4.22449ZM4 12C3.73478 12 3.48043 12.1054 3.29289 12.2929C3.10536 12.4804 3 12.7348 3 13C3 13.2652 3.10536 13.5196 3.29289 13.7071C3.48043 13.8947 3.73478 14 4 14H6V12H4ZM26 19C26 19.3375 25.9827 19.671 25.9499 20H28C28.2652 20 28.5196 20.1054 28.7071 20.2929C28.8946 20.4804 29 20.7348 29 21C29 21.2652 28.8946 21.5196 28.7071 21.7071C28.5196 21.8947 28.2652 22 28 22H25.5396C24.9012 24.03 23.6318 25.8034 21.9162 27.0623C20.2005 28.3212 18.128 29 16 29C13.872 29 11.7995 28.3212 10.0838 27.0623C8.36816 25.8034 7.09881 24.03 6.46036 22H4C3.73478 22 3.48043 21.8947 3.29289 21.7071C3.10536 21.5196 3 21.2652 3 21C3 20.7348 3.10536 20.4804 3.29289 20.2929C3.48043 20.1054 3.73478 20 4 20H6.05011C6.0173 19.671 6 19.3375 6 19V18H4C3.73478 18 3.48043 17.8947 3.29289 17.7071C3.10536 17.5196 3 17.2652 3 17C3 16.7348 3.10536 16.4804 3.29289 16.2929C3.48043 16.1054 3.73478 16 4 16H6V14H26V16H28C28.2652 16 28.5196 16.1054 28.7071 16.2929C28.8946 16.4804 29 16.7348 29 17C29 17.2652 28.8946 17.5196 28.7071 17.7071C28.5196 17.8947 28.2652 18 28 18H26V19ZM17 17C17 16.7348 16.8946 16.4804 16.7071 16.2929C16.5196 16.1054 16.2652 16 16 16C15.7348 16 15.4804 16.1054 15.2929 16.2929C15.1054 16.4804 15 16.7348 15 17V25C15 25.2652 15.1054 25.5196 15.2929 25.7071C15.4804 25.8947 15.7348 26 16 26C16.2652 26 16.5196 25.8947 16.7071 25.7071C16.8946 25.5196 17 25.2652 17 25V17ZM29 13C29 12.7348 28.8946 12.4804 28.7071 12.2929C28.5196 12.1054 28.2652 12 28 12H26V14H28C28.2652 14 28.5196 13.8946 28.7071 13.7071C28.8946 13.5196 29 13.2652 29 13V13Z"/>
</svg>
