<svg viewBox="0 0 32 32" xmlns="http://www.w3.org/2000/svg">
<path d="M23.9119 5.87417L25.6741 4.23153C25.8674 4.05053 25.9811 3.80021 25.9901 3.5355C25.9991 3.27079 25.9028 3.01331 25.7222 2.81957C25.5416 2.62583 25.2915 2.51165 25.0268 2.50208C24.7621 2.49251 24.5044 2.58833 24.3103 2.76853L22.3909 4.55783C20.5256 3.21971 18.2878 2.50003 15.9922 2.50003C13.6966 2.50003 11.4588 3.21971 9.59351 4.55783L7.67407 2.76853C7.48007 2.58768 7.22216 2.49131 6.9571 2.50062C6.69204 2.50992 6.44153 2.62414 6.26068 2.81815C6.07984 3.01216 5.98347 3.27006 5.99277 3.53512C6.00208 3.80018 6.1163 4.05069 6.3103 4.23154L8.07251 5.87411C6.09493 7.91997 4.99033 10.6546 4.99219 13.5V18.5C4.99219 21.4174 6.15111 24.2153 8.21402 26.2782C10.2769 28.3411 13.0748 29.5 15.9922 29.5C18.9096 29.5 21.7075 28.3411 23.7704 26.2782C25.8333 24.2153 26.9922 21.4174 26.9922 18.5V13.5C26.9941 10.6546 25.8895 7.92 23.9119 5.87417V5.87417ZM15.9922 4.50003C18.3783 4.50272 20.6659 5.45179 22.3532 7.13904C24.0404 8.82628 24.9895 11.1139 24.9922 13.5V15H6.99219V13.5C6.99488 11.1139 7.94395 8.82628 9.6312 7.13904C11.3184 5.45179 13.6061 4.50272 15.9922 4.50003V4.50003ZM17.9922 11.5C17.9922 11.2034 18.0802 10.9133 18.245 10.6667C18.4098 10.42 18.6441 10.2277 18.9182 10.1142C19.1923 10.0007 19.4939 9.97097 19.7848 10.0289C20.0758 10.0867 20.3431 10.2296 20.5529 10.4394C20.7626 10.6491 20.9055 10.9164 20.9634 11.2074C21.0212 11.4984 20.9915 11.8 20.878 12.0741C20.7645 12.3481 20.5722 12.5824 20.3255 12.7472C20.0789 12.9121 19.7889 13 19.4922 13C19.0944 13 18.7128 12.842 18.4315 12.5607C18.1502 12.2794 17.9922 11.8979 17.9922 11.5ZM10.9922 11.5C10.9922 11.2034 11.0802 10.9133 11.245 10.6667C11.4098 10.42 11.6441 10.2277 11.9182 10.1142C12.1923 10.0007 12.4939 9.97097 12.7848 10.0289C13.0758 10.0867 13.3431 10.2296 13.5528 10.4394C13.7626 10.6491 13.9055 10.9164 13.9634 11.2074C14.0212 11.4984 13.9915 11.8 13.878 12.0741C13.7645 12.3481 13.5722 12.5824 13.3255 12.7472C13.0789 12.9121 12.7889 13 12.4922 13C12.0944 13 11.7128 12.842 11.4315 12.5607C11.1502 12.2794 10.9922 11.8979 10.9922 11.5Z"/>
</svg>
