<svg   viewBox="0 0 32 32" fill="none" xmlns="http://www.w3.org/2000/svg">
<path d="M11.7474 7.33571C11.6602 7.23754 11.5545 7.15752 11.4363 7.10022C11.3181 7.04292 11.1899 7.00945 11.0588 7.00173C10.9277 6.99401 10.7963 7.01219 10.6722 7.05523C10.5482 7.09827 10.4338 7.16533 10.3356 7.25258L1.33563 15.2526C1.23009 15.3464 1.14561 15.4615 1.08776 15.5904C1.02991 15.7192 1 15.8588 1 16C1 16.1412 1.02991 16.2809 1.08776 16.4097C1.14561 16.5385 1.23009 16.6536 1.33563 16.7475L10.3356 24.7475C10.5339 24.9237 10.794 25.0139 11.0587 24.9983C11.3235 24.9827 11.5712 24.8626 11.7474 24.6644C11.9236 24.4662 12.0139 24.206 11.9983 23.9413C11.9827 23.6765 11.8626 23.4288 11.6644 23.2526L3.50519 16L11.6644 8.74745C11.8626 8.57126 11.9827 8.32353 11.9983 8.05878C12.0139 7.79403 11.9236 7.53394 11.7474 7.33571V7.33571Z" fill="black"/>
<path d="M30.6644 15.2526L21.6644 7.25259C21.4662 7.07639 21.2061 6.98615 20.9413 7.00173C20.6765 7.01731 20.4288 7.13742 20.2526 7.33566C20.0764 7.53389 19.9861 7.794 20.0017 8.05876C20.0173 8.32353 20.1374 8.57126 20.3357 8.74746L28.4948 16L20.3357 23.2526C20.2375 23.3398 20.1575 23.4456 20.1002 23.5637C20.0429 23.6819 20.0094 23.8102 20.0017 23.9413C19.994 24.0724 20.0122 24.2037 20.0552 24.3278C20.0983 24.4519 20.1653 24.5662 20.2526 24.6644C20.3398 24.7625 20.4456 24.8426 20.5637 24.8999C20.6819 24.9571 20.8102 24.9906 20.9413 24.9983C21.0724 25.006 21.2037 24.9879 21.3278 24.9448C21.4519 24.9018 21.5662 24.8347 21.6644 24.7475L30.6644 16.7475C30.7699 16.6536 30.8544 16.5385 30.9123 16.4097C30.9701 16.2809 31 16.1412 31 16C31 15.8588 30.9701 15.7192 30.9123 15.5904C30.8544 15.4615 30.7699 15.3464 30.6644 15.2526V15.2526Z" fill="black"/>
</svg>
