<svg viewBox="0 0 32 32" xmlns="http://www.w3.org/2000/svg">
<path d="M8.76825 10.3599C8.59845 10.1561 8.35468 10.0282 8.09054 10.0042C7.82641 9.98016 7.56356 10.062 7.3598 10.2318L1.3598 15.2318C1.24719 15.3257 1.15658 15.4431 1.09441 15.5759C1.03223 15.7086 1 15.8534 1 16C1 16.1466 1.03223 16.2914 1.09441 16.4242C1.15658 16.5569 1.24719 16.6744 1.3598 16.7682L7.3598 21.7682C7.46065 21.8525 7.57713 21.9161 7.70259 21.9554C7.82805 21.9947 7.96001 22.0088 8.09094 21.997C8.22187 21.9852 8.34918 21.9477 8.46561 21.8867C8.58203 21.8256 8.68527 21.7422 8.76943 21.6413C8.85359 21.5403 8.91701 21.4237 8.95607 21.2982C8.99513 21.1726 9.00905 21.0407 8.99705 20.9097C8.98505 20.7788 8.94735 20.6516 8.88612 20.5353C8.82488 20.4189 8.74132 20.3158 8.6402 20.2318L3.56207 16L8.6402 11.7682C8.84393 11.5984 8.97187 11.3547 8.99588 11.0906C9.0199 10.8265 8.93802 10.5636 8.76825 10.3599V10.3599Z"/>
<path d="M30.6414 15.2318L24.6414 10.2318C24.5406 10.1475 24.4241 10.0839 24.2986 10.0446C24.1732 10.0053 24.0412 9.9912 23.9103 10.003C23.7794 10.0148 23.652 10.0523 23.5356 10.1133C23.4192 10.1744 23.316 10.2578 23.2318 10.3587C23.1476 10.4597 23.0842 10.5763 23.0452 10.7018C23.0061 10.8274 22.9922 10.9593 23.0042 11.0903C23.0162 11.2212 23.0539 11.3484 23.1151 11.4647C23.1763 11.5811 23.2599 11.6842 23.361 11.7682L28.4392 16L23.361 20.2318C23.2599 20.3158 23.1763 20.4189 23.1151 20.5352C23.0539 20.6515 23.0162 20.7788 23.0042 20.9097C22.9922 21.0406 23.0061 21.1726 23.0452 21.2981C23.0842 21.4236 23.1476 21.5402 23.2318 21.6412C23.316 21.7422 23.4192 21.8256 23.5356 21.8866C23.652 21.9477 23.7794 21.9852 23.9103 21.997C24.0412 22.0088 24.1732 21.9946 24.2986 21.9554C24.4241 21.9161 24.5406 21.8525 24.6414 21.7682L30.6414 16.7682C30.754 16.6743 30.8446 16.5569 30.9068 16.4241C30.969 16.2914 31.0012 16.1466 31.0012 16C31.0012 15.8534 30.969 15.7086 30.9068 15.5758C30.8446 15.4431 30.754 15.3256 30.6414 15.2318V15.2318Z"/>
<path d="M20.342 4.06016C20.0928 3.96969 19.8178 3.98186 19.5775 4.09399C19.3372 4.20612 19.1513 4.40904 19.0605 4.65818L11.0605 26.6582C11.0155 26.7816 10.9952 26.9127 11.0009 27.044C11.0066 27.1753 11.0381 27.3041 11.0936 27.4232C11.1491 27.5423 11.2276 27.6493 11.3245 27.7381C11.4213 27.8268 11.5348 27.8956 11.6582 27.9405C11.7817 27.9854 11.9128 28.0056 12.0441 27.9998C12.1754 27.994 12.3042 27.9624 12.4233 27.9068C12.5423 27.8512 12.6492 27.7727 12.7379 27.6757C12.8266 27.5788 12.8953 27.4653 12.9401 27.3418L20.9401 5.34178C21.0308 5.09251 21.0187 4.81746 20.9065 4.57711C20.7943 4.33676 20.5913 4.15081 20.342 4.06016V4.06016Z"/>
</svg>
