<svg   viewBox="0 0 32 32" fill="none" xmlns="http://www.w3.org/2000/svg">
<path d="M29 18H27V14H29C29.2652 14 29.5196 13.8946 29.7071 13.7071C29.8946 13.5196 30 13.2652 30 13C30 12.7348 29.8946 12.4804 29.7071 12.2929C29.5196 12.1054 29.2652 12 29 12H27V7C26.9994 6.46975 26.7885 5.9614 26.4135 5.58646C26.0386 5.21151 25.5302 5.00061 25 5H20V3C20 2.73478 19.8946 2.48043 19.7071 2.29289C19.5196 2.10536 19.2652 2 19 2C18.7348 2 18.4804 2.10536 18.2929 2.29289C18.1054 2.48043 18 2.73478 18 3V5H14V3C14 2.73478 13.8946 2.48043 13.7071 2.29289C13.5196 2.10536 13.2652 2 13 2C12.7348 2 12.4804 2.10536 12.2929 2.29289C12.1054 2.48043 12 2.73478 12 3V5H7C6.46975 5.00061 5.9614 5.21151 5.58646 5.58646C5.21151 5.9614 5.00061 6.46975 5 7V12H3C2.73478 12 2.48043 12.1054 2.29289 12.2929C2.10536 12.4804 2 12.7348 2 13C2 13.2652 2.10536 13.5196 2.29289 13.7071C2.48043 13.8946 2.73478 14 3 14H5V18H3C2.73478 18 2.48043 18.1054 2.29289 18.2929C2.10536 18.4804 2 18.7348 2 19C2 19.2652 2.10536 19.5196 2.29289 19.7071C2.48043 19.8946 2.73478 20 3 20H5V25C5.00061 25.5302 5.21151 26.0386 5.58646 26.4135C5.9614 26.7885 6.46975 26.9994 7 27H12V29C12 29.2652 12.1054 29.5196 12.2929 29.7071C12.4804 29.8946 12.7348 30 13 30C13.2652 30 13.5196 29.8946 13.7071 29.7071C13.8946 29.5196 14 29.2652 14 29V27H18V29C18 29.2652 18.1054 29.5196 18.2929 29.7071C18.4804 29.8946 18.7348 30 19 30C19.2652 30 19.5196 29.8946 19.7071 29.7071C19.8946 29.5196 20 29.2652 20 29V27H25C25.5302 26.9994 26.0386 26.7885 26.4135 26.4135C26.7885 26.0386 26.9994 25.5302 27 25V20H29C29.2652 20 29.5196 19.8946 29.7071 19.7071C29.8946 19.5196 30 19.2652 30 19C30 18.7348 29.8946 18.4804 29.7071 18.2929C29.5196 18.1054 29.2652 18 29 18ZM20.5 19.5C20.5 19.7652 20.3946 20.0196 20.2071 20.2071C20.0196 20.3946 19.7652 20.5 19.5 20.5H12.5C12.2348 20.5 11.9804 20.3946 11.7929 20.2071C11.6054 20.0196 11.5 19.7652 11.5 19.5V12.5C11.5 12.2348 11.6054 11.9804 11.7929 11.7929C11.9804 11.6054 12.2348 11.5 12.5 11.5H19.5C19.7652 11.5 20.0196 11.6054 20.2071 11.7929C20.3946 11.9804 20.5 12.2348 20.5 12.5V19.5ZM13.5 13.5H18.5V18.5H13.5V13.5Z" fill="black"/>
</svg>
