<svg   viewBox="0 0 32 32" fill="none" xmlns="http://www.w3.org/2000/svg">
<path d="M16 3C9.271 3 4 6.07477 4 10V22C4 25.9252 9.271 29 16 29C22.729 29 28 25.9252 28 22V10C28 6.07477 22.729 3 16 3ZM26 16C26 17.2021 25.0156 18.4286 23.2993 19.3647C21.366 20.4192 18.7737 21 16 21C13.2263 21 10.634 20.4192 8.70068 19.3647C6.98437 18.4286 6 17.2021 6 16V13.9196C8.13249 15.7901 11.7793 17 16 17C20.2207 17 23.8675 15.7901 26 13.9196V16ZM23.2993 25.3647C21.366 26.4192 18.7738 27 16 27C13.2262 27 10.634 26.4192 8.70068 25.3647C6.98437 24.4286 6 23.2021 6 22V19.9196C8.13249 21.7901 11.7793 23 16 23C20.2207 23 23.8675 21.7901 26 19.9196V22C26 23.2021 25.0156 24.4286 23.2993 25.3647Z" fill="black"/>
</svg>
