<svg viewBox="0 0 32 32" xmlns="http://www.w3.org/2000/svg">
<path d="M28 8.49971C28.0002 7.65256 27.7612 6.82256 27.3106 6.1052C26.86 5.38783 26.216 4.81224 25.4528 4.44462C24.6895 4.077 23.838 3.93229 22.9962 4.02713C22.1544 4.12198 21.3564 4.45253 20.6941 4.98076C20.0318 5.50899 19.5321 6.21344 19.2524 7.01309C18.9727 7.81274 18.9244 8.6751 19.113 9.50098C19.3017 10.3269 19.7196 11.0827 20.3188 11.6816C20.918 12.2805 21.674 12.6981 22.5 12.8863V12.9998C22.4994 13.53 22.2885 14.0384 21.9135 14.4133C21.5386 14.7882 21.0303 14.9992 20.5 14.9998L11.4999 15C10.7975 14.9991 10.1075 15.1843 9.50001 15.5368V12.8863C10.5787 12.6405 11.529 12.0059 12.1694 11.1037C12.8099 10.2016 13.0955 9.0951 12.9718 7.99569C12.8481 6.89627 12.3237 5.88096 11.4988 5.14368C10.6739 4.40641 9.60636 3.99884 8.50001 3.99884C7.39366 3.99884 6.32608 4.40641 5.50119 5.14368C4.67631 5.88096 4.15193 6.89627 4.02823 7.99569C3.90452 9.0951 4.19016 10.2016 4.83059 11.1037C5.47101 12.0059 6.42132 12.6405 7.50001 12.8863V19.1134C6.42132 19.3593 5.47101 19.9939 4.83059 20.896C4.19016 21.7982 3.90452 22.9046 4.02823 24.004C4.15193 25.1035 4.67631 26.1188 5.50119 26.856C6.32608 27.5933 7.39366 28.0009 8.50001 28.0009C9.60636 28.0009 10.6739 27.5933 11.4988 26.856C12.3237 26.1188 12.8481 25.1035 12.9718 24.004C13.0955 22.9046 12.8099 21.7982 12.1694 20.896C11.529 19.9939 10.5787 19.3593 9.50001 19.1134V19C9.50062 18.4697 9.71151 17.9614 10.0864 17.5865C10.4613 17.2115 10.9697 17.0006 11.4999 17L20.5 16.9998C21.5605 16.9985 22.5772 16.5767 23.3271 15.8268C24.077 15.077 24.4988 14.0603 24.5 12.9998V12.8863C25.4935 12.6586 26.3804 12.1009 27.0161 11.3042C27.6517 10.5075 27.9986 9.51892 28 8.49971V8.49971ZM6.00001 8.49971C6.00001 8.00526 6.14663 7.52191 6.42134 7.11079C6.69604 6.69966 7.08649 6.37923 7.5433 6.19001C8.00012 6.0008 8.50278 5.95129 8.98774 6.04775C9.47269 6.14421 9.91815 6.38232 10.2678 6.73195C10.6174 7.08158 10.8555 7.52704 10.952 8.01199C11.0484 8.49694 10.9989 8.99961 10.8097 9.45642C10.6205 9.91324 10.3001 10.3037 9.88894 10.5784C9.47781 10.8531 8.99446 10.9997 8.50001 10.9997C7.8372 10.999 7.20175 10.7353 6.73307 10.2667C6.26439 9.79798 6.00076 9.16253 6.00001 8.49971V8.49971ZM11 23.5C11 23.9945 10.8534 24.4778 10.5787 24.8889C10.304 25.3001 9.91353 25.6205 9.45672 25.8097C8.9999 25.9989 8.49724 26.0484 8.01229 25.952C7.52733 25.8555 7.08187 25.6174 6.73224 25.2678C6.38261 24.9182 6.14451 24.4727 6.04805 23.9877C5.95158 23.5028 6.00109 23.0001 6.19031 22.5433C6.37953 22.0865 6.69996 21.696 7.11108 21.4213C7.52221 21.1466 8.00556 21 8.50001 21C9.16282 21.0008 9.79827 21.2644 10.267 21.7331C10.7356 22.2018 10.9993 22.8372 11 23.5V23.5Z"/>
</svg>
