<svg   viewBox="0 0 32 32" fill="none" xmlns="http://www.w3.org/2000/svg">
<path d="M31 15H23.4313C23.1896 13.2004 22.3032 11.5497 20.9365 10.3543C19.5698 9.15887 17.8157 8.5 16 8.5C14.1843 8.5 12.4302 9.15887 11.0635 10.3543C9.69684 11.5497 8.81035 13.2004 8.56866 15H1C0.734784 15 0.48043 15.1054 0.292893 15.2929C0.105357 15.4804 0 15.7348 0 16C0 16.2652 0.105357 16.5196 0.292893 16.7071C0.48043 16.8946 0.734784 17 1 17H8.56866C8.81035 18.7996 9.69684 20.4503 11.0635 21.6457C12.4302 22.8411 14.1843 23.5 16 23.5C17.8157 23.5 19.5698 22.8411 20.9365 21.6457C22.3032 20.4503 23.1896 18.7996 23.4313 17H31C31.2652 17 31.5196 16.8946 31.7071 16.7071C31.8946 16.5196 32 16.2652 32 16C32 15.7348 31.8946 15.4804 31.7071 15.2929C31.5196 15.1054 31.2652 15 31 15Z" fill="black"/>
</svg>
