<svg viewBox="0 0 32 32" xmlns="http://www.w3.org/2000/svg">
<path d="M25.5002 19.1134L25.5 14.9851C25.5025 14.0655 25.3226 13.1546 24.9707 12.305C24.6187 11.4555 24.1018 10.6841 23.4498 10.0356L20.4142 7H23C23.2652 7 23.5196 6.89464 23.7071 6.70711C23.8946 6.51957 24 6.26522 24 6C24 5.73478 23.8946 5.48043 23.7071 5.29289C23.5196 5.10536 23.2652 5 23 5H18C17.9814 5 17.9632 5.00177 17.9448 5.00278C17.9309 5.00354 17.9169 5.00355 17.9031 5.0049C17.8816 5.00696 17.8606 5.01065 17.8395 5.01406C17.8285 5.01584 17.8173 5.01697 17.8063 5.01912C17.7853 5.02325 17.7649 5.0288 17.7444 5.03421C17.7334 5.03711 17.7222 5.03947 17.7112 5.04275C17.6921 5.0485 17.6736 5.05553 17.655 5.06238C17.6429 5.06687 17.6305 5.07081 17.6185 5.07578C17.6017 5.08271 17.5856 5.09078 17.5693 5.09859C17.5559 5.10495 17.5424 5.11084 17.5293 5.11783C17.5143 5.12586 17.5 5.13498 17.4855 5.14374C17.4719 5.15186 17.4582 5.15948 17.445 5.16829C17.4303 5.17817 17.4164 5.18914 17.4022 5.19974C17.3901 5.20879 17.3777 5.2172 17.366 5.22684C17.3472 5.24222 17.3296 5.25882 17.3121 5.27552C17.3058 5.28148 17.299 5.28669 17.2928 5.29285C17.2854 5.30028 17.2791 5.30837 17.272 5.31598C17.2567 5.33219 17.2413 5.34827 17.2272 5.36548C17.2154 5.37986 17.2049 5.39498 17.194 5.40986C17.1857 5.42124 17.1768 5.43223 17.1689 5.44398C17.158 5.46028 17.1484 5.47716 17.1386 5.49391C17.1319 5.50523 17.1247 5.51625 17.1185 5.52785C17.1096 5.54445 17.102 5.56151 17.0942 5.57847C17.0882 5.59118 17.0818 5.60362 17.0765 5.61662C17.0697 5.63288 17.0642 5.64951 17.0583 5.66606C17.0533 5.68037 17.0477 5.69447 17.0433 5.70909C17.0383 5.7256 17.0346 5.74235 17.0305 5.75907C17.0267 5.77406 17.0225 5.78882 17.0195 5.80409C17.0156 5.82337 17.0132 5.84284 17.0106 5.8623C17.0088 5.87521 17.0063 5.88787 17.005 5.90094C17.0017 5.93406 17 5.96729 17 6.00061V11C17 11.2652 17.1054 11.5196 17.2929 11.7071C17.4804 11.8946 17.7348 12 18 12C18.2652 12 18.5196 11.8946 18.7071 11.7071C18.8946 11.5196 19 11.2652 19 11V8.41435L22.0355 11.45C22.5013 11.9131 22.8705 12.464 23.1219 13.0708C23.3733 13.6776 23.5018 14.3283 23.5 14.9851L23.5002 19.1134C22.4215 19.3593 21.4712 19.9939 20.8308 20.8961C20.1904 21.7982 19.9048 22.9047 20.0285 24.0041C20.1522 25.1035 20.6766 26.1188 21.5015 26.8561C22.3264 27.5933 23.394 28.0009 24.5003 28.0009C25.6067 28.0008 26.6742 27.5933 27.4991 26.856C28.324 26.1187 28.8483 25.1034 28.972 24.0039C29.0957 22.9045 28.8101 21.7981 28.1696 20.8959C27.5292 19.9938 26.5789 19.3592 25.5002 19.1134L25.5002 19.1134Z"/>
<path d="M14.0003 20C13.735 20 13.4807 20.1054 13.2932 20.2929C13.1056 20.4804 13.0003 20.7348 13.0003 21V23.5857L9.96461 20.5501C9.49889 20.0869 9.12966 19.536 8.87828 18.9292C8.62691 18.3224 8.49838 17.6717 8.50014 17.0149L8.50001 12.8866C9.57869 12.6408 10.529 12.0061 11.1694 11.104C11.8098 10.2018 12.0954 9.09539 11.9717 7.99599C11.848 6.89658 11.3236 5.88128 10.4987 5.14401C9.67386 4.40675 8.60629 3.9992 7.49994 3.99921C6.3936 3.99921 5.32603 4.40678 4.50116 5.14406C3.67629 5.88134 3.15192 6.89665 3.02823 7.99605C2.90453 9.09546 3.19017 10.2019 3.8306 11.104C4.47102 12.0062 5.42133 12.6408 6.50001 12.8866L6.50014 17.015C6.4977 17.9346 6.67764 18.8455 7.02954 19.695C7.38145 20.5446 7.89834 21.3159 8.55031 21.9644L11.586 25H9.00026C8.73504 25 8.48069 25.1054 8.29315 25.2929C8.10562 25.4804 8.00026 25.7348 8.00026 26C8.00026 26.2652 8.10562 26.5196 8.29315 26.7071C8.48069 26.8946 8.73504 27 9.00026 27H14.0003C14.0332 27 14.0662 26.9983 14.099 26.995C14.1137 26.9936 14.128 26.9908 14.1426 26.9887C14.1603 26.9862 14.1781 26.9841 14.1957 26.9806C14.2123 26.9773 14.2283 26.9728 14.2446 26.9687C14.26 26.9648 14.2755 26.9614 14.2907 26.9568C14.3065 26.952 14.3217 26.9461 14.3372 26.9406C14.3526 26.9351 14.368 26.93 14.3831 26.9237C14.3973 26.9179 14.4108 26.911 14.4246 26.9045C14.4405 26.897 14.4564 26.89 14.4719 26.8817C14.4847 26.8748 14.4968 26.867 14.5092 26.8597C14.5249 26.8504 14.5407 26.8415 14.5559 26.8313C14.5689 26.8226 14.581 26.8129 14.5935 26.8037C14.6072 26.7935 14.6212 26.7839 14.6345 26.773C14.6525 26.7582 14.6694 26.7422 14.6863 26.7263C14.6932 26.7197 14.7006 26.7139 14.7074 26.7072C14.7145 26.7001 14.7205 26.6924 14.7273 26.6852C14.7429 26.6686 14.7586 26.652 14.7731 26.6344C14.7846 26.6206 14.7946 26.606 14.8051 26.5917C14.8139 26.5797 14.8231 26.5682 14.8314 26.5559C14.8421 26.54 14.8513 26.5236 14.8609 26.5073C14.8679 26.4955 14.8753 26.4841 14.8818 26.472C14.8905 26.4558 14.8978 26.4392 14.9055 26.4227C14.9117 26.4095 14.9183 26.3966 14.9239 26.3832C14.9304 26.3673 14.9358 26.3512 14.9415 26.3351C14.9467 26.3203 14.9524 26.3058 14.957 26.2907C14.9619 26.2746 14.9655 26.2582 14.9696 26.2419C14.9734 26.2266 14.9777 26.2114 14.9809 26.1958C14.9846 26.1769 14.9869 26.1577 14.9895 26.1386C14.9914 26.1254 14.9939 26.1124 14.9953 26.099C14.9986 26.0659 15.0002 26.0327 15.0003 25.9994V21C15.0002 20.7348 14.8949 20.4804 14.7073 20.2929C14.5198 20.1054 14.2655 20 14.0003 20V20Z"/>
</svg>
