<svg viewBox="0 0 32 32" xmlns="http://www.w3.org/2000/svg">
<path d="M28 8.49971C28.0002 7.65256 27.7612 6.82256 27.3106 6.1052C26.86 5.38783 26.216 4.81224 25.4528 4.44462C24.6895 4.077 23.838 3.93229 22.9962 4.02713C22.1544 4.12198 21.3564 4.45253 20.6941 4.98076C20.0318 5.50899 19.5321 6.21344 19.2524 7.01309C18.9727 7.81274 18.9244 8.6751 19.113 9.50098C19.3017 10.3269 19.7196 11.0827 20.3188 11.6816C20.918 12.2805 21.674 12.6981 22.5 12.8863V12.9998C22.4994 13.53 22.2885 14.0384 21.9135 14.4133C21.5386 14.7882 21.0303 14.9992 20.5 14.9998L11.5 15C11.2374 15 10.9773 14.9482 10.7346 14.8477C10.492 14.7472 10.2715 14.5999 10.0858 14.4142C9.90008 14.2285 9.75276 14.008 9.65225 13.7653C9.55174 13.5227 9.50001 13.2626 9.50001 13V12.8863C10.5787 12.6405 11.529 12.0059 12.1694 11.1037C12.8099 10.2016 13.0955 9.0951 12.9718 7.99569C12.8481 6.89627 12.3237 5.88096 11.4988 5.14368C10.6739 4.40641 9.60636 3.99884 8.50001 3.99884C7.39366 3.99884 6.32608 4.40641 5.50119 5.14368C4.67631 5.88096 4.15193 6.89627 4.02823 7.99569C3.90452 9.0951 4.19016 10.2016 4.83059 11.1037C5.47101 12.0059 6.42132 12.6405 7.50001 12.8863V13C7.5 13.5252 7.60345 14.0454 7.80446 14.5307C8.00548 15.016 8.30011 15.457 8.67155 15.8284C9.04299 16.1999 9.48395 16.4945 9.96926 16.6955C10.4546 16.8965 10.9747 17 11.5 17L15.0002 16.9999L15.0001 19.1134C13.9214 19.3592 12.9711 19.9938 12.3306 20.896C11.6902 21.7981 11.4046 22.9046 11.5282 24.004C11.6519 25.1034 12.1763 26.1187 13.0012 26.856C13.826 27.5933 14.8936 28.0009 16 28.0009C17.1063 28.0009 18.1739 27.5933 18.9988 26.8561C19.8237 26.1188 20.3481 25.1035 20.4718 24.0041C20.5955 22.9047 20.3099 21.7982 19.6695 20.8961C19.0291 19.9939 18.0788 19.3593 17.0001 19.1134L17.0002 16.9998L20.5 16.9998C21.5605 16.9985 22.5772 16.5767 23.3271 15.8268C24.077 15.077 24.4988 14.0603 24.5 12.9998V12.8863C25.4935 12.6586 26.3804 12.1009 27.0161 11.3042C27.6517 10.5075 27.9986 9.51892 28 8.49971ZM18.5 23.5C18.5 23.9945 18.3534 24.4778 18.0787 24.8889C17.804 25.3001 17.4135 25.6205 16.9567 25.8097C16.4999 25.9989 15.9972 26.0484 15.5123 25.952C15.0273 25.8555 14.5819 25.6174 14.2322 25.2678C13.8826 24.9182 13.6445 24.4727 13.548 23.9877C13.4516 23.5028 13.5011 23.0001 13.6903 22.5433C13.8795 22.0865 14.2 21.696 14.6111 21.4213C15.0222 21.1466 15.5056 21 16 21C16.6628 21.0008 17.2983 21.2644 17.767 21.7331C18.2356 22.2017 18.4993 22.8372 18.5 23.5V23.5Z"/>
</svg>
