<svg   viewBox="0 0 32 32" fill="none" xmlns="http://www.w3.org/2000/svg">
<path d="M23.5004 13C22.3939 13.0015 21.3267 13.4099 20.5021 14.1476C19.6775 14.8853 19.1531 15.9006 19.0288 17H16.3103C15.5772 17.0009 14.8529 16.8402 14.1889 16.5292C13.525 16.2182 12.9378 15.7647 12.4691 15.2009L10.3152 12.6163C11.2934 12.1848 12.086 11.419 12.5509 10.4562C13.0158 9.49348 13.1227 8.39661 12.8524 7.3622C12.5821 6.32779 11.9523 5.42344 11.0758 4.81119C10.1993 4.19895 9.13343 3.91884 8.06918 4.02104C7.00493 4.12325 6.01186 4.60109 5.26791 5.36895C4.52395 6.13681 4.07775 7.1445 4.00925 8.21145C3.94076 9.2784 4.25444 10.3349 4.89409 11.1916C5.53375 12.0483 6.45757 12.6492 7.50001 12.8866V19.1134C6.42132 19.3592 5.47101 19.9939 4.83059 20.896C4.19016 21.7982 3.90452 22.9046 4.02823 24.004C4.15193 25.1034 4.67631 26.1188 5.50119 26.856C6.32608 27.5933 7.39366 28.0009 8.50001 28.0009C9.60636 28.0009 10.6739 27.5933 11.4988 26.856C12.3237 26.1188 12.8481 25.1034 12.9718 24.004C13.0955 22.9046 12.8099 21.7982 12.1694 20.896C11.529 19.9939 10.5787 19.3592 9.50001 19.1134V14.7621L10.9327 16.4812C11.5888 17.2705 12.4109 17.9055 13.3404 18.3409C14.2699 18.7762 15.2839 19.0013 16.3103 19H19.2584C19.5335 19.7777 20.017 20.4649 20.6563 20.9864C21.2955 21.5078 22.0657 21.8435 22.8828 21.9568C23.7 22.0701 24.5325 21.9565 25.2895 21.6286C26.0464 21.3007 26.6986 20.7709 27.1749 20.0973C27.6511 19.4237 27.933 18.6322 27.9897 17.8092C28.0465 16.9862 27.8759 16.1635 27.4966 15.4309C27.1173 14.6983 26.544 14.0841 25.8392 13.6554C25.1344 13.2267 24.3253 13 23.5004 13H23.5004ZM11 23.5C11 23.9945 10.8534 24.4778 10.5787 24.8889C10.304 25.3001 9.91353 25.6205 9.45672 25.8097C8.9999 25.9989 8.49724 26.0484 8.01229 25.952C7.52733 25.8555 7.08188 25.6174 6.73224 25.2678C6.38261 24.9181 6.14451 24.4727 6.04805 23.9877C5.95158 23.5028 6.00109 23.0001 6.19031 22.5433C6.37953 22.0865 6.69996 21.696 7.11109 21.4213C7.52221 21.1466 8.00556 21 8.50001 21C9.16283 21.0007 9.79828 21.2644 10.267 21.7331C10.7356 22.2017 10.9993 22.8372 11 23.5V23.5ZM23.5004 20C23.0059 20 22.5226 19.8534 22.1115 19.5787C21.7003 19.304 21.3799 18.9135 21.1907 18.4567C21.0015 17.9999 20.9519 17.4972 21.0484 17.0123C21.1449 16.5273 21.383 16.0819 21.7326 15.7322C22.0822 15.3826 22.5277 15.1445 23.0126 15.048C23.4976 14.9516 24.0003 15.0011 24.4571 15.1903C24.9139 15.3795 25.3043 15.7 25.5791 16.1111C25.8538 16.5222 26.0004 17.0056 26.0004 17.5C25.9996 18.1628 25.736 18.7983 25.2673 19.267C24.7986 19.7356 24.1632 19.9993 23.5004 20V20Z" fill="black"/>
</svg>
