<svg viewBox="0 0 32 32" xmlns="http://www.w3.org/2000/svg">
<path d="M13 8.50002C13.0002 7.65286 12.7612 6.82287 12.3106 6.1055C11.86 5.38814 11.216 4.81254 10.4528 4.44492C9.68953 4.0773 8.83803 3.93259 7.9962 4.02744C7.15437 4.12229 6.35641 4.45284 5.69411 4.98106C5.03181 5.50929 4.53206 6.21375 4.25236 7.0134C3.97266 7.81305 3.92436 8.67541 4.11302 9.50129C4.30168 10.3272 4.71963 11.083 5.31881 11.6819C5.91798 12.2808 6.67404 12.6984 7.50001 12.8866V19.1134C6.42132 19.3593 5.47101 19.9939 4.83059 20.896C4.19016 21.7982 3.90452 22.9046 4.02823 24.004C4.15193 25.1035 4.67631 26.1188 5.50119 26.856C6.32608 27.5933 7.39366 28.0009 8.50001 28.0009C9.60636 28.0009 10.6739 27.5933 11.4988 26.856C12.3237 26.1188 12.8481 25.1035 12.9718 24.004C13.0955 22.9046 12.8099 21.7982 12.1694 20.896C11.529 19.9939 10.5787 19.3593 9.50001 19.1134V12.8866C10.4935 12.6589 11.3804 12.1012 12.0161 11.3045C12.6517 10.5078 12.9986 9.51922 13 8.50002V8.50002ZM11 23.5C11 23.9945 10.8534 24.4778 10.5787 24.8889C10.304 25.3001 9.91353 25.6205 9.45672 25.8097C8.9999 25.9989 8.49724 26.0484 8.01229 25.952C7.52733 25.8555 7.08187 25.6174 6.73224 25.2678C6.38261 24.9182 6.14451 24.4727 6.04805 23.9877C5.95158 23.5028 6.00109 23.0001 6.19031 22.5433C6.37953 22.0865 6.69996 21.696 7.11108 21.4213C7.52221 21.1466 8.00556 21 8.50001 21C9.16282 21.0008 9.79827 21.2644 10.267 21.7331C10.7356 22.2018 10.9993 22.8372 11 23.5V23.5Z"/>
<path d="M24.5002 19.1134L24.5 14.9852C24.5025 14.0656 24.3226 13.1547 23.9707 12.3051C23.6187 11.4555 23.1018 10.6841 22.4498 10.0356L19.4142 7H22C22.2652 7 22.5196 6.89464 22.7071 6.70711C22.8946 6.51957 23 6.26522 23 6C23 5.73478 22.8946 5.48043 22.7071 5.29289C22.5196 5.10536 22.2652 5 22 5H17C16.998 5 16.9962 5.00028 16.9943 5.00029C16.9633 5.00046 16.9324 5.00194 16.9016 5.00497C16.8856 5.00654 16.87 5.0095 16.8542 5.01181C16.8378 5.01422 16.8214 5.01608 16.8051 5.0193C16.787 5.02288 16.7695 5.0278 16.7517 5.03234C16.7379 5.03587 16.724 5.03884 16.7104 5.04297C16.6929 5.04825 16.676 5.05475 16.6589 5.06095C16.6453 5.0659 16.6315 5.07037 16.618 5.07595C16.602 5.08253 16.5868 5.09024 16.5713 5.09761C16.5572 5.10429 16.543 5.11052 16.5292 5.1179C16.5143 5.12585 16.5001 5.13487 16.4857 5.14354C16.4722 5.1517 16.4584 5.15935 16.4451 5.16823C16.4296 5.17856 16.4151 5.19003 16.4003 5.20119C16.3889 5.20971 16.3773 5.21757 16.3662 5.22664C16.3428 5.24586 16.3204 5.26628 16.2988 5.28751C16.2969 5.28941 16.2948 5.29099 16.2928 5.29291C16.2903 5.29547 16.2881 5.29831 16.2856 5.3009C16.2652 5.32178 16.2454 5.34332 16.2269 5.36593C16.2165 5.37851 16.2075 5.39175 16.1979 5.40469C16.188 5.41791 16.1778 5.43077 16.1686 5.44448C16.1585 5.45957 16.1497 5.47522 16.1405 5.49072C16.1331 5.50322 16.1252 5.51542 16.1183 5.52827C16.1099 5.54401 16.1027 5.56018 16.0952 5.57627C16.0889 5.58982 16.082 5.6031 16.0763 5.61698C16.0699 5.63256 16.0646 5.64846 16.059 5.66429C16.0536 5.67927 16.0478 5.69404 16.0432 5.70934C16.0384 5.72531 16.0348 5.74154 16.0308 5.75769C16.0269 5.77319 16.0226 5.78847 16.0194 5.80425C16.0157 5.82311 16.0134 5.84216 16.0107 5.86118C16.0089 5.87448 16.0063 5.88755 16.005 5.90101C16.0017 5.93414 16 5.96735 16 6.00064V11C16 11.2652 16.1054 11.5196 16.2929 11.7071C16.4804 11.8946 16.7348 12 17 12C17.2652 12 17.5196 11.8946 17.7071 11.7071C17.8946 11.5196 18 11.2652 18 11V8.41427L21.0355 11.4498C21.5013 11.913 21.8705 12.464 22.1219 13.0708C22.3732 13.6777 22.5018 14.3284 22.5 14.9852L22.5002 19.1134C21.4215 19.3593 20.4712 19.9939 19.8308 20.896C19.1904 21.7982 18.9047 22.9047 19.0285 24.0041C19.1522 25.1035 19.6766 26.1188 20.5015 26.8561C21.3263 27.5933 22.3939 28.0009 23.5003 28.0009C24.6066 28.0009 25.6742 27.5933 26.4991 26.856C27.324 26.1187 27.8483 25.1034 27.972 24.004C28.0957 22.9046 27.8101 21.7981 27.1696 20.896C26.5292 19.9938 25.5789 19.3592 24.5002 19.1134L24.5002 19.1134Z"/>
</svg>
