<svg   viewBox="0 0 32 32" fill="none" xmlns="http://www.w3.org/2000/svg">
<path d="M25 5H20C19.4698 5.00061 18.9614 5.21151 18.5865 5.58646C18.2115 5.9614 18.0006 6.46975 18 7V18C18 18.5304 17.7893 19.0391 17.4142 19.4142C17.0391 19.7893 16.5304 20 16 20C15.4696 20 14.9609 19.7893 14.5858 19.4142C14.2107 19.0391 14 18.5304 14 18V7C13.9994 6.46975 13.7885 5.9614 13.4135 5.58646C13.0386 5.21151 12.5302 5.00061 12 5H7C6.46975 5.00061 5.9614 5.21151 5.58646 5.58646C5.21151 5.9614 5.00061 6.46975 5 7V18C4.99999 20.9173 6.15882 23.7151 8.22159 25.778C10.2844 27.8409 13.0821 28.9999 15.9994 29C16.0272 29 16.0553 28.9999 16.0833 28.9998C22.1028 28.9551 27 23.9644 27 17.8745V7C26.9994 6.46975 26.7885 5.9614 26.4135 5.58646C26.0386 5.21151 25.5302 5.00061 25 5V5ZM25 7V12H20V7H25ZM12 7V12H7V7H12Z" fill="black"/>
</svg>
