<svg   viewBox="0 0 32 32" fill="none" xmlns="http://www.w3.org/2000/svg">
<path d="M25.8715 6.28086C24.8553 5.24333 23.6425 4.4188 22.304 3.85549C20.9654 3.29217 19.528 3.00138 18.0757 3.0001C18.0616 2.99998 18.0478 2.99998 18.0337 2.99998C16.5877 2.99613 15.1554 3.27932 13.8196 3.83311C12.4839 4.38691 11.2713 5.20031 10.2522 6.22617L6.03983 10.4901L6.03971 10.4902L6.03953 10.4904L1.98942 14.5901C1.61922 14.9665 1.41247 15.4738 1.41407 16.0018C1.41567 16.5298 1.62549 17.0358 1.99796 17.41L5.57963 20.9917C5.76487 21.178 5.98523 21.3257 6.22796 21.4263C6.47069 21.5268 6.73096 21.5782 6.99369 21.5775H7.00565C7.27037 21.5767 7.53226 21.523 7.77594 21.4196C8.01962 21.3162 8.24016 21.1651 8.4246 20.9752L12.4272 16.8781L12.4274 16.8779L12.4278 16.8775L16.6243 12.5819C16.9962 12.2156 17.496 12.0083 18.0179 12.0039C18.5399 11.9995 19.0431 12.1983 19.4211 12.5583C19.6082 12.7402 19.7569 12.9577 19.8584 13.1982C19.9599 13.4386 20.012 13.6969 20.0118 13.9579C20.0143 14.2353 19.9622 14.5105 19.8583 14.7677C19.7543 15.025 19.6007 15.2592 19.4062 15.457L15.1428 19.5915L15.1419 19.5924L15.1414 19.5929L11.0351 23.5752C10.8447 23.7598 10.6929 23.9805 10.5886 24.2243C10.4842 24.4682 10.4295 24.7303 10.4274 24.9956C10.4254 25.2608 10.4761 25.5238 10.5766 25.7692C10.6772 26.0146 10.8256 26.2376 11.0131 26.4251L14.5949 30.0069C14.9684 30.3781 15.4728 30.5875 15.9994 30.59C16.5259 30.5926 17.0324 30.3881 17.4095 30.0206L21.5291 25.9808L21.5297 25.9802L21.5301 25.9798L25.7242 21.8669C30.0302 17.5608 30.0964 10.5689 25.8715 6.28086ZM6.99394 19.5774L3.41215 15.9957L6.75114 12.6159L10.3141 16.1789L6.99394 19.5774ZM16.0092 28.5926L12.4274 25.011L15.8383 21.7031L19.4013 25.2661L16.0092 28.5926Z" fill="black"/>
</svg>
