<svg viewBox="0 0 32 32" xmlns="http://www.w3.org/2000/svg">
<path d="M25 6H17V2C17 1.73478 16.8946 1.48043 16.7071 1.29289C16.5196 1.10536 16.2652 1 16 1C15.7348 1 15.4804 1.10536 15.2929 1.29289C15.1054 1.48043 15 1.73478 15 2V6H7C5.9395 6.0012 4.92279 6.42302 4.1729 7.1729C3.42302 7.92279 3.0012 8.9395 3 10V24C3.0012 25.0605 3.42302 26.0772 4.1729 26.8271C4.92279 27.577 5.9395 27.9988 7 28H25C26.0605 27.9988 27.0772 27.577 27.8271 26.8271C28.577 26.0772 28.9988 25.0605 29 24V10C28.9988 8.9395 28.577 7.92279 27.8271 7.1729C27.0772 6.42302 26.0605 6.0012 25 6V6ZM9 13.5C9 13.2033 9.08797 12.9133 9.2528 12.6666C9.41762 12.42 9.65189 12.2277 9.92597 12.1142C10.2001 12.0006 10.5017 11.9709 10.7926 12.0288C11.0836 12.0867 11.3509 12.2296 11.5607 12.4393C11.7704 12.6491 11.9133 12.9164 11.9712 13.2074C12.0291 13.4983 11.9994 13.7999 11.8858 14.074C11.7723 14.3481 11.58 14.5824 11.3334 14.7472C11.0867 14.912 10.7967 15 10.5 15C10.1022 15 9.72064 14.842 9.43934 14.5607C9.15804 14.2794 9 13.8978 9 13.5ZM12.5 23H11.5C10.9696 23 10.4609 22.7893 10.0858 22.4142C9.71071 22.0391 9.5 21.5304 9.5 21C9.5 20.4696 9.71071 19.9609 10.0858 19.5858C10.4609 19.2107 10.9696 19 11.5 19H12.5V23ZM17.5 23H14.5V19H17.5V23ZM20.5 23H19.5V19H20.5C21.0304 19 21.5391 19.2107 21.9142 19.5858C22.2893 19.9609 22.5 20.4696 22.5 21C22.5 21.5304 22.2893 22.0391 21.9142 22.4142C21.5391 22.7893 21.0304 23 20.5 23ZM21.5 15C21.2033 15 20.9133 14.912 20.6666 14.7472C20.42 14.5824 20.2277 14.3481 20.1142 14.074C20.0007 13.7999 19.9709 13.4983 20.0288 13.2074C20.0867 12.9164 20.2296 12.6491 20.4393 12.4393C20.6491 12.2296 20.9164 12.0867 21.2074 12.0288C21.4983 11.9709 21.7999 12.0006 22.074 12.1142C22.3481 12.2277 22.5824 12.42 22.7472 12.6666C22.912 12.9133 23 13.2033 23 13.5C23 13.8978 22.842 14.2794 22.5607 14.5607C22.2794 14.842 21.8978 15 21.5 15Z"/>
</svg>
