<svg viewBox="0 0 32 32" xmlns="http://www.w3.org/2000/svg">
<path d="M15 16C15 15.8588 14.9701 15.7192 14.9123 15.5904C14.8544 15.4615 14.7699 15.3464 14.6644 15.2526L5.66439 7.25259C5.46616 7.07639 5.20605 6.98615 4.94129 7.00173C4.67652 7.01731 4.42879 7.13742 4.25259 7.33566C4.07639 7.53389 3.98615 7.794 4.00173 8.05876C4.01731 8.32353 4.13742 8.57126 4.33566 8.74746L12.4948 16L4.33566 23.2526C4.13742 23.4288 4.01731 23.6765 4.00173 23.9413C3.98615 24.2061 4.07639 24.4662 4.25259 24.6644C4.42879 24.8626 4.67652 24.9827 4.94129 24.9983C5.20605 25.0139 5.46616 24.9237 5.66439 24.7475L14.6644 16.7475C14.7699 16.6536 14.8544 16.5385 14.9123 16.4097C14.9701 16.2809 15 16.1412 15 16Z"/>
<path d="M27 23H15C14.7348 23 14.4804 23.1054 14.2929 23.2929C14.1054 23.4804 14 23.7348 14 24C14 24.2652 14.1054 24.5196 14.2929 24.7071C14.4804 24.8946 14.7348 25 15 25H27C27.2652 25 27.5196 24.8946 27.7071 24.7071C27.8946 24.5196 28 24.2652 28 24C28 23.7348 27.8946 23.4804 27.7071 23.2929C27.5196 23.1054 27.2652 23 27 23Z"/>
</svg>
