<svg viewBox="0 0 32 32" xmlns="http://www.w3.org/2000/svg">
<path d="M26.9375 4.93933H5.05884C4.49642 4.93998 3.95723 5.16368 3.55954 5.56137C3.16185 5.95906 2.93815 6.49825 2.9375 7.06067V24.9393C2.93815 25.5017 3.16185 26.0409 3.55954 26.4386C3.95723 26.8363 4.49642 27.06 5.05884 27.0607H26.9375C27.4999 27.06 28.0391 26.8363 28.4368 26.4386C28.8345 26.0409 29.0582 25.5017 29.0588 24.9393V7.06067C29.0582 6.49825 28.8345 5.95906 28.4368 5.56137C28.0391 5.16368 27.4999 4.93998 26.9375 4.93933ZM15.1228 16.7809L10.1228 20.7809C10.0203 20.863 9.90255 20.9242 9.77637 20.9608C9.65019 20.9975 9.51803 21.0089 9.38744 20.9944C9.25684 20.98 9.13038 20.9399 9.01528 20.8766C8.90017 20.8132 8.79868 20.7278 8.71661 20.6252C8.63454 20.5226 8.57349 20.4048 8.53695 20.2786C8.50042 20.1524 8.48912 20.0202 8.50369 19.8896C8.51826 19.759 8.55843 19.6326 8.62189 19.5176C8.68535 19.4025 8.77086 19.3011 8.87354 19.2191L12.8973 16L8.87354 12.7809C8.77086 12.6989 8.68535 12.5975 8.62189 12.4824C8.55843 12.3674 8.51826 12.241 8.50369 12.1104C8.48912 11.9798 8.50042 11.8476 8.53695 11.7214C8.57349 11.5952 8.63454 11.4774 8.71661 11.3748C8.79868 11.2722 8.90017 11.1868 9.01528 11.1234C9.13038 11.0601 9.25684 11.02 9.38744 11.0056C9.51803 10.9911 9.65019 11.0025 9.77637 11.0392C9.90255 11.0758 10.0203 11.137 10.1228 11.2191L15.1228 15.2191C15.2399 15.3128 15.3345 15.4316 15.3995 15.5668C15.4644 15.702 15.4982 15.85 15.4982 16C15.4982 16.15 15.4644 16.298 15.3995 16.4332C15.3345 16.5684 15.2399 16.6872 15.1228 16.7809V16.7809ZM22.4974 21H17.4974C17.2322 21 16.9779 20.8946 16.7903 20.7071C16.6028 20.5196 16.4974 20.2652 16.4974 20C16.4974 19.7348 16.6028 19.4804 16.7903 19.2929C16.9779 19.1054 17.2322 19 17.4974 19H22.4974C22.7627 19 23.017 19.1054 23.2045 19.2929C23.3921 19.4804 23.4974 19.7348 23.4974 20C23.4974 20.2652 23.3921 20.5196 23.2045 20.7071C23.017 20.8946 22.7627 21 22.4974 21Z"/>
</svg>
