<svg viewBox="0 0 32 32" xmlns="http://www.w3.org/2000/svg">
<path d="M19.5 11.5V10H18C17.4698 10.0006 16.9614 10.2115 16.5865 10.5865C16.2115 10.9614 16.0006 11.4698 16 12V20C16.0006 20.5302 16.2115 21.0386 16.5865 21.4135C16.9614 21.7885 17.4698 21.9994 18 22H19.5V20.5C19.5006 19.9698 19.7115 19.4614 20.0865 19.0865C20.4614 18.7115 20.9698 18.5006 21.5 18.5H26.5C27.0302 18.5006 27.5386 18.7115 27.9135 19.0865C28.2885 19.4614 28.4994 19.9698 28.5 20.5V25.5C28.4994 26.0302 28.2885 26.5386 27.9135 26.9135C27.5386 27.2885 27.0302 27.4994 26.5 27.5H21.5C20.9698 27.4994 20.4614 27.2885 20.0865 26.9135C19.7115 26.5386 19.5006 26.0302 19.5 25.5V24H18C16.9395 23.9988 15.9228 23.577 15.1729 22.8271C14.423 22.0772 14.0012 21.0605 14 20V17H10.5V18C10.4994 18.5302 10.2885 19.0386 9.91354 19.4135C9.5386 19.7885 9.03025 19.9994 8.5 20H4.5C3.96975 19.9994 3.4614 19.7885 3.08646 19.4135C2.71151 19.0386 2.50061 18.5302 2.5 18V14C2.50061 13.4698 2.71151 12.9614 3.08646 12.5865C3.4614 12.2115 3.96975 12.0006 4.5 12H8.5C9.03025 12.0006 9.5386 12.2115 9.91354 12.5865C10.2885 12.9614 10.4994 13.4698 10.5 14V15H14V12C14.0012 10.9395 14.423 9.92279 15.1729 9.1729C15.9228 8.42302 16.9395 8.0012 18 8H19.5V6.5C19.5006 5.96975 19.7115 5.4614 20.0865 5.08646C20.4614 4.71151 20.9698 4.50061 21.5 4.5H26.5C27.0302 4.50061 27.5386 4.71151 27.9135 5.08646C28.2885 5.4614 28.4994 5.96975 28.5 6.5V11.5C28.4994 12.0302 28.2885 12.5386 27.9135 12.9135C27.5386 13.2885 27.0302 13.4994 26.5 13.5H21.5C20.9698 13.4994 20.4614 13.2885 20.0865 12.9135C19.7115 12.5386 19.5006 12.0302 19.5 11.5Z"/>
</svg>
