<svg   viewBox="0 0 24 24" fill="none" xmlns="http://www.w3.org/2000/svg">
<path d="M4.99219 11.0158C4.4399 11.0158 3.99219 10.5681 3.99219 10.0158C3.99219 9.65844 4.17967 9.34484 4.46165 9.16801L7.14927 6.48039C7.5398 6.08987 8.17296 6.08987 8.56349 6.48039C8.95401 6.87092 8.95401 7.50408 8.56349 7.89461L7.44226 9.01583L14.9922 9.01583C15.5445 9.01583 15.9922 9.46355 15.9922 10.0158C15.9922 10.5681 15.5445 11.0158 14.9922 11.0158L5.04164 11.0158C5.03252 11.016 5.02339 11.016 5.01427 11.0158H4.99219Z" fill="black"/>
<path d="M19.0071 12.984C19.5594 12.984 20.0071 13.4318 20.0071 13.984C20.0071 14.3414 19.8196 14.655 19.5376 14.8319L16.85 17.5195C16.4595 17.91 15.8263 17.91 15.4358 17.5195C15.0453 17.129 15.0453 16.4958 15.4358 16.1053L16.557 14.984H9.00708C8.45479 14.984 8.00708 14.5363 8.00708 13.984C8.00708 13.4318 8.4548 12.984 9.00708 12.984L18.9576 12.984C18.9668 12.9839 18.9759 12.9839 18.985 12.984H19.0071Z" fill="black"/>
</svg>
