<svg viewBox="0 0 24 24" xmlns="http://www.w3.org/2000/svg">
<path fill-rule="evenodd" clip-rule="evenodd" d="M5.26933 7.75732L1.01953 11.9928L5.25509 16.2426L6.67169 14.8308L4.85734 13.0103L17.1457 13.0524C17.5525 14.219 18.6598 15.0583 19.9656 15.0642C21.6225 15.0716 22.9716 13.7345 22.9791 12.0777C22.9865 10.4208 21.6494 9.07167 19.9926 9.06423C18.686 9.05836 17.5708 9.88861 17.154 11.0524L4.83867 11.0102L6.68115 9.17392L5.26933 7.75732ZM18.9791 12.0597C18.9816 11.5074 19.4313 11.0617 19.9836 11.0642C20.5359 11.0667 20.9816 11.5164 20.9791 12.0687C20.9766 12.621 20.5269 13.0667 19.9746 13.0642C19.4223 13.0617 18.9766 12.612 18.9791 12.0597Z"/>
</svg>
