<svg   viewBox="0 0 24 24" fill="none" xmlns="http://www.w3.org/2000/svg">
<path fill-rule="evenodd" clip-rule="evenodd" d="M18.7294 7.75732L22.9792 11.9928L18.7436 16.2426L17.327 14.8308L19.1414 13.0103L6.85297 13.0524C6.4461 14.219 5.33887 15.0583 4.03301 15.0642C2.37617 15.0716 1.027 13.7345 1.01956 12.0777C1.01212 10.4208 2.34922 9.07167 4.00606 9.06423C5.31261 9.05836 6.42783 9.88861 6.84464 11.0524L19.16 11.0102L17.3176 9.17392L18.7294 7.75732ZM5.01952 12.0597C5.01704 11.5074 4.56732 11.0617 4.01504 11.0642C3.46276 11.0667 3.01706 11.5164 3.01954 12.0687C3.02202 12.621 3.47174 13.0667 4.02402 13.0642C4.5763 13.0617 5.022 12.612 5.01952 12.0597Z" fill="black"/>
</svg>
