<svg   viewBox="0 0 24 24" fill="none" xmlns="http://www.w3.org/2000/svg">
<path d="M4.99219 12.984C4.4399 12.984 3.99219 13.4318 3.99219 13.984C3.99219 14.3414 4.17967 14.655 4.46165 14.8319L7.14927 17.5195C7.5398 17.91 8.17296 17.91 8.56349 17.5195C8.95401 17.129 8.95401 16.4958 8.56349 16.1053L7.44226 14.984H14.9922C15.5445 14.984 15.9922 14.5363 15.9922 13.984C15.9922 13.4318 15.5445 12.984 14.9922 12.984L5.04164 12.984C5.03252 12.9839 5.02339 12.9839 5.01427 12.984H4.99219Z" fill="black"/>
<path d="M19.0071 11.0158C19.5594 11.0158 20.0071 10.5681 20.0071 10.0158C20.0071 9.65844 19.8196 9.34484 19.5376 9.16801L16.85 6.48039C16.4595 6.08987 15.8263 6.08987 15.4358 6.48039C15.0453 6.87092 15.0453 7.50408 15.4358 7.89461L16.557 9.01583L9.00708 9.01583C8.45479 9.01583 8.00708 9.46355 8.00708 10.0158C8.00708 10.5681 8.4548 11.0158 9.00708 11.0158L18.9576 11.0158C18.9668 11.016 18.9759 11.016 18.985 11.0158H19.0071Z" fill="black"/>
</svg>
