<svg viewBox="0 0 24 24" xmlns="http://www.w3.org/2000/svg">
<path d="M11.937 9.76484C11.7036 10.2654 11.1086 10.4819 10.6081 10.2485C10.1075 10.0151 9.89099 9.42014 10.1244 8.9196C10.3578 8.41906 10.9528 8.2025 11.4533 8.43591C11.9539 8.66932 12.1704 9.2643 11.937 9.76484Z"/>
<path d="M8.91761 13.8738C9.41815 14.1072 10.0131 13.8906 10.2465 13.3901C10.4799 12.8895 10.2634 12.2945 9.76285 12.0611C9.26231 11.8277 8.66733 12.0443 8.43392 12.5448C8.20051 13.0454 8.41707 13.6404 8.91761 13.8738Z"/>
<path d="M13.8718 15.0805C13.6384 15.5811 13.0434 15.7976 12.5428 15.5642C12.0423 15.3308 11.8257 14.7358 12.0592 14.2353C12.2926 13.7348 12.8875 13.5182 13.3881 13.7516C13.8886 13.985 14.1052 14.58 13.8718 15.0805Z"/>
<path d="M14.2333 11.939C14.7339 12.1724 15.3288 11.9558 15.5622 11.4553C15.7956 10.9548 15.5791 10.3598 15.0785 10.1264C14.578 9.89298 13.983 10.1095 13.7496 10.6101C13.5162 11.1106 13.7328 11.7056 14.2333 11.939Z"/>
<path fill-rule="evenodd" clip-rule="evenodd" d="M17.0695 1.12438C14.0663 -0.276058 10.4964 1.02327 9.09594 4.02651L4.02452 14.9022C2.62409 17.9054 3.92342 21.4753 6.92666 22.8758C9.9299 24.2762 13.4998 22.9769 14.9002 19.9736L19.9716 9.09793C21.3721 6.09469 20.0727 2.52481 17.0695 1.12438ZM13.9328 17.3158L17.3138 10.0653L10.0633 6.68437L6.68237 13.9348L13.9328 17.3158ZM13.0876 19.1284L5.83714 15.7474C4.90352 17.7496 5.76974 20.1295 7.7719 21.0631C9.77406 21.9968 12.154 21.1305 13.0876 19.1284ZM16.2243 2.93699C18.2264 3.87061 19.0926 6.25054 18.159 8.2527L10.9086 4.87175C11.8422 2.86959 14.2221 2.00337 16.2243 2.93699Z"/>
</svg>
