<svg viewBox="0 0 24 24" xmlns="http://www.w3.org/2000/svg">
<path fill-rule="evenodd" clip-rule="evenodd" d="M6.073 3.17291C4.32715 3.5202 2.72351 4.37738 1.46484 5.63605L3.59454 7.76575C4.43201 6.92835 5.49902 6.35803 6.66058 6.12695C7.53687 5.95264 8.43726 5.9773 9.29645 6.19452C9.08032 6.45056 8.87793 6.71936 8.69049 6.99988C7.70154 8.47992 7.17371 10.22 7.17371 12C7.17371 13.78 7.70154 15.5201 8.69049 17.0001C8.87793 17.2806 9.08038 17.5494 9.29651 17.8055C8.43732 18.0227 7.53687 18.0474 6.66058 17.873C5.49902 17.642 4.43201 17.0717 3.59454 16.2343L1.46484 18.364C2.72351 19.6226 4.32715 20.4798 6.073 20.8271C7.81879 21.1743 9.62842 20.9961 11.2729 20.3149C11.5214 20.212 11.7644 20.0983 12.0013 19.9744C12.2382 20.0983 12.4811 20.212 12.7296 20.3149C14.3741 20.9961 16.1837 21.1743 17.9295 20.8271C19.6754 20.4798 21.279 19.6226 22.5377 18.364L20.408 16.2343C19.5705 17.0717 18.5035 17.642 17.3419 17.873C16.4656 18.0474 15.5652 18.0227 14.706 17.8055C14.9221 17.5494 15.1246 17.2806 15.312 17.0001C16.301 15.5201 16.8288 13.78 16.8288 12C16.8288 10.22 16.301 8.47992 15.312 6.99988C15.1246 6.71936 14.9222 6.45056 14.7061 6.19452C15.5652 5.9773 16.4656 5.95264 17.3419 6.12695C18.5035 6.35803 19.5705 6.92835 20.408 7.76575L22.5377 5.63605C21.279 4.37738 19.6754 3.5202 17.9295 3.17291C16.1837 2.82568 14.3741 3.00391 12.7296 3.68506C12.4811 3.78796 12.2382 3.90167 12.0013 4.02564C11.7644 3.90167 11.5214 3.78796 11.2729 3.68506C9.62842 3.00391 7.81879 2.82568 6.073 3.17291ZM12.0013 7.7049C11.7006 7.99695 11.43 8.32117 11.1948 8.67316C10.5368 9.6579 10.1856 10.8157 10.1856 12C10.1856 13.1843 10.5368 14.3421 11.1948 15.3268C11.43 15.6788 11.7006 16.0031 12.0013 16.2951C12.3019 16.0031 12.5725 15.6788 12.8077 15.3268C13.4657 14.3421 13.8169 13.1843 13.8169 12C13.8169 10.8157 13.4657 9.6579 12.8077 8.67316C12.5725 8.32117 12.3019 7.99695 12.0013 7.7049Z"/>
</svg>
