<svg viewBox="0 0 24 24" xmlns="http://www.w3.org/2000/svg">
<path d="M6.22664 4.81096C5.83611 4.42044 5.20295 4.42044 4.81242 4.81096C4.4219 5.20148 4.4219 5.83465 4.81242 6.22517L10.5872 11.9999L4.81248 17.7746C4.42196 18.1651 4.42196 18.7983 4.81248 19.1888C5.20301 19.5793 5.83617 19.5793 6.2267 19.1888L12.0014 13.4141L17.776 19.1888C18.1666 19.5793 18.7997 19.5793 19.1903 19.1888C19.5808 18.7983 19.5808 18.1651 19.1903 17.7746L13.4156 11.9999L19.1903 6.22517C19.5808 5.83465 19.5808 5.20148 19.1903 4.81096C18.7998 4.42044 18.1666 4.42044 17.7761 4.81096L12.0014 10.5857L6.22664 4.81096Z"/>
</svg>
