<svg viewBox="0 0 24 24" xmlns="http://www.w3.org/2000/svg">
<path fill-rule="evenodd" clip-rule="evenodd" d="M8.203 2.00378C9.46358 2.00378 10.5063 3.10742 10.6781 4.54241L19.1617 13.0259L11.3835 20.8041C10.2119 21.9757 8.31242 21.9757 7.14085 20.8041L2.89821 16.5615C1.72664 15.3899 1.72664 13.4904 2.89821 12.3188L5.703 9.51404V4.96099C5.703 3.32777 6.82228 2.00378 8.203 2.00378ZM8.703 4.96099V6.51404L7.703 7.51404V4.96099C7.703 4.63435 7.92685 4.36955 8.203 4.36955C8.47914 4.36955 8.703 4.63435 8.703 4.96099ZM8.703 10.8754V9.34247L4.31242 13.733C3.9219 14.1236 3.9219 14.7567 4.31242 15.1473L8.55507 19.3899C8.94559 19.7804 9.57875 19.7804 9.96928 19.3899L16.3332 13.0259L10.703 7.39569V10.8754C10.703 10.9184 10.7022 10.9612 10.7007 11.0038H8.69119C8.69892 10.9625 8.703 10.9195 8.703 10.8754Z"/>
<path d="M16.8581 16.8749C15.6866 18.0465 15.6866 19.946 16.8581 21.1175C18.0297 22.2891 19.9292 22.2891 21.1008 21.1175C22.2723 19.946 22.2723 18.0465 21.1008 16.8749L18.9795 14.7536L16.8581 16.8749Z"/>
</svg>
