<svg viewBox="0 0 24 24" xmlns="http://www.w3.org/2000/svg">
<path d="M20.3848 2.87868C19.2132 1.70711 17.3137 1.70711 16.1422 2.87868L14.0203 5.00052L13.3131 4.29332C12.9226 3.9028 12.2894 3.9028 11.8989 4.29332C11.5084 4.68385 11.5084 5.31701 11.8989 5.70754L17.5557 11.3644C17.9463 11.7549 18.5794 11.7549 18.97 11.3644C19.3605 10.9739 19.3605 10.3407 18.97 9.95018L18.2629 9.24316L20.3848 7.12132C21.5564 5.94975 21.5564 4.05025 20.3848 2.87868Z"/>
<path fill-rule="evenodd" clip-rule="evenodd" d="M11.9297 7.09116L4.15156 14.8693C3.22792 15.793 3.03245 17.169 3.56516 18.2842L2 19.8493L3.41421 21.2635L4.97937 19.6984C6.0945 20.2311 7.47056 20.0356 8.3942 19.112L16.1724 11.3338L11.9297 7.09116ZM13.3439 11.3338L11.9297 9.91959L5.56577 16.2835C5.17525 16.6741 5.17525 17.3072 5.56577 17.6978C5.95629 18.0883 6.58946 18.0883 6.97998 17.6978L13.3439 11.3338Z"/>
</svg>
