<svg   viewBox="0 0 24 24" fill="none" xmlns="http://www.w3.org/2000/svg">
<path d="M10.5461 19C14.4121 19 17.5461 15.866 17.5461 12C17.5461 8.13401 14.4121 5 10.5461 5C8.61307 5 6.86307 5.7835 5.59632 7.05025L3.47502 4.92896L3.45703 4.94694C5.26808 3.12672 7.77549 2 10.5461 2C16.0689 2 20.5461 6.47715 20.5461 12C20.5461 17.5228 16.0689 22 10.5461 22C7.78465 22 5.28466 20.8807 3.47502 19.0711L5.59634 16.9498C6.86309 18.2165 8.61308 19 10.5461 19Z" fill="black"/>
<path d="M10.5461 14C11.1392 14 11.672 13.7418 12.0383 13.3317L14.1609 15.4544C13.2506 16.4068 11.9676 17 10.5461 17C7.78464 17 5.54606 14.7614 5.54606 12C5.54606 9.23858 7.78464 7 10.5461 7C11.9676 7 13.2506 7.59323 14.161 8.54563L12.0383 10.6683C11.672 10.2582 11.1392 10 10.5461 10C9.44149 10 8.54606 10.8954 8.54606 12C8.54606 13.1046 9.44149 14 10.5461 14Z" fill="black"/>
</svg>
