<svg viewBox="0 0 24 24" xmlns="http://www.w3.org/2000/svg">
<path fill-rule="evenodd" clip-rule="evenodd" d="M7.7583 6.34323L12.0009 2.10059L16.2436 6.34323L12.0009 10.5859L7.7583 6.34323ZM10.5867 6.34323L12.0009 4.92901L13.4152 6.34323L12.0009 7.75744L10.5867 6.34323Z"/>
<path fill-rule="evenodd" clip-rule="evenodd" d="M2.10156 12L6.3442 7.75739L10.5868 12L6.3442 16.2427L2.10156 12ZM4.92999 12L6.3442 10.5858L7.75842 12L6.3442 13.4142L4.92999 12Z"/>
<path fill-rule="evenodd" clip-rule="evenodd" d="M13.4153 12L17.6579 16.2427L21.9006 12L17.6579 7.75739L13.4153 12ZM17.6579 10.5858L16.2437 12L17.6579 13.4142L19.0721 12L17.6579 10.5858Z"/>
<path fill-rule="evenodd" clip-rule="evenodd" d="M7.7583 17.657L12.0009 13.4144L16.2436 17.657L12.0009 21.8996L7.7583 17.657ZM10.5867 17.657L12.0009 16.2428L13.4152 17.657L12.0009 19.0712L10.5867 17.657Z"/>
</svg>
