<svg viewBox="0 0 24 24" xmlns="http://www.w3.org/2000/svg">
<g clip-path="url(#clip0_41_3296)">
<path d="M14.8296 6.34313L16.2438 4.92892L12.0012 0.686279L7.75857 4.92892L9.17278 6.34313L12.0012 3.51471L14.8296 6.34313Z"/>
<path d="M4.93014 16.2426L6.34435 14.8284L3.51593 12L6.34435 9.17156L4.93014 7.75735L0.6875 12L4.93014 16.2426Z"/>
<path d="M7.75857 19.0711L12.0012 23.3137L16.2438 19.0711L14.8296 17.6568L12.0012 20.4853L9.17278 17.6568L7.75857 19.0711Z"/>
<path d="M17.6581 9.17156L20.4865 12L17.6581 14.8284L19.0723 16.2426L23.3149 12L19.0723 7.75735L17.6581 9.17156Z"/>
<path fill-rule="evenodd" clip-rule="evenodd" d="M12.0012 8C14.2104 8 16.0012 9.79086 16.0012 12C16.0012 14.2091 14.2104 16 12.0012 16C9.79208 16 8.00122 14.2091 8.00122 12C8.00122 9.79086 9.79208 8 12.0012 8ZM12.0012 10C13.1058 10 14.0012 10.8954 14.0012 12C14.0012 13.1046 13.1058 14 12.0012 14C10.8967 14 10.0012 13.1046 10.0012 12C10.0012 10.8954 10.8967 10 12.0012 10Z"/>
</g>
<defs>
<clipPath id="clip0_41_3296">
<rect/>
</clipPath>
</defs>
</svg>
