<svg   viewBox="0 0 24 24" fill="none" xmlns="http://www.w3.org/2000/svg">
<path d="M7.71774 5.72315C6.71666 6.18996 6.28355 7.37992 6.75036 8.381C7.21717 9.38208 8.40713 9.81519 9.40821 9.34838L20.2839 4.27696C21.285 3.81015 21.7181 2.62019 21.2513 1.61911C20.7845 0.618028 19.5945 0.184918 18.5934 0.651729L7.71774 5.72315Z" fill="black"/>
<path d="M4.75036 15.381C4.28355 14.3799 4.71666 13.19 5.71774 12.7231L16.5934 7.65173C17.5945 7.18492 18.7845 7.61803 19.2513 8.61911C19.7181 9.62019 19.285 10.8101 18.2839 11.277L7.40821 16.3484C6.40713 16.8152 5.21717 16.3821 4.75036 15.381Z" fill="black"/>
<path d="M2.75036 22.381C2.28355 21.3799 2.71666 20.19 3.71774 19.7231L14.5934 14.6517C15.5945 14.1849 16.7845 14.618 17.2513 15.6191C17.7181 16.6202 17.285 17.8101 16.2839 18.277L5.40821 23.3484C4.40713 23.8152 3.21717 23.3821 2.75036 22.381Z" fill="black"/>
</svg>
