<svg   viewBox="0 0 24 24" fill="none" xmlns="http://www.w3.org/2000/svg">
<path d="M18.5525 15.5355C17.6477 16.4404 16.3977 17 15.017 17C13.1405 17 11.5055 15.9664 10.6503 14.4374H13.0312L13.7274 12.5625H10.0483C10.0276 12.3779 10.017 12.1902 10.017 12C10.017 11.8098 10.0276 11.6221 10.0483 11.4374H14.3352L15.0314 9.5625H10.6503C11.5056 8.0336 13.1406 7 15.017 7C16.3977 7 17.6477 7.55964 18.5525 8.46447L19.9667 7.05025C18.7 5.7835 16.95 5 15.017 5C12.0082 5 9.44278 6.89827 8.45303 9.5625H6.03137L5.33521 11.4374H8.03924C8.02448 11.623 8.01696 11.8106 8.01696 12C8.01696 12.1894 8.02448 12.3769 8.03924 12.5625H4.72741L4.03125 14.4374H8.453C9.44273 17.1017 12.0082 19 15.017 19C16.95 19 18.7 18.2165 19.9667 16.9497L18.5525 15.5355Z" fill="black"/>
</svg>
