<svg   viewBox="0 0 24 24" fill="none" xmlns="http://www.w3.org/2000/svg">
<path fill-rule="evenodd" clip-rule="evenodd" d="M14.6748 17.4378C12.3071 18.5419 9.5872 17.9679 7.85584 16.2039L21.8661 9.67074C21.7119 9.02969 21.4916 8.39446 21.2022 7.77376C18.8681 2.76836 12.9183 0.602811 7.91292 2.93687C2.90752 5.27092 0.741971 11.2207 3.07603 16.2261C5.41008 21.2315 11.3599 23.3971 16.3653 21.063C19.0174 19.8263 20.8722 17.5746 21.6829 14.986H17.3439C16.7498 16.0235 15.8407 16.8941 14.6748 17.4378ZM9.6034 6.5621C7.23576 7.66615 5.92712 10.1185 6.16543 12.5786L16.4222 7.79583C14.6908 6.03194 11.971 5.45805 9.6034 6.5621Z" fill="black"/>
</svg>
