<svg   viewBox="0 0 24 22" fill="none" xmlns="http://www.w3.org/2000/svg">
<path fill-rule="evenodd" clip-rule="evenodd" d="M16.0009 11C16.0009 13.025 14.21 14.6667 12.0009 14.6667C9.79172 14.6667 8.00085 13.025 8.00085 11C8.00085 8.97496 9.79172 7.33333 12.0009 7.33333C14.21 7.33333 16.0009 8.97496 16.0009 11ZM14.0009 11C14.0009 12.0125 13.1054 12.8333 12.0009 12.8333C10.8963 12.8333 10.0009 12.0125 10.0009 11C10.0009 9.98748 10.8963 9.16667 12.0009 9.16667C13.1054 9.16667 14.0009 9.98748 14.0009 11Z" fill="black"/>
<path fill-rule="evenodd" clip-rule="evenodd" d="M12.0009 2.75C17.5924 2.75 22.2907 6.25563 23.6228 11C22.2907 15.7444 17.5924 19.25 12.0009 19.25C6.40934 19.25 1.71104 15.7444 0.378906 11C1.71104 6.25563 6.40934 2.75 12.0009 2.75ZM12.0009 17.4167C7.52529 17.4167 3.73217 14.72 2.45809 11C3.73217 7.28004 7.52529 4.58333 12.0009 4.58333C16.4764 4.58333 20.2695 7.28004 21.5436 11C20.2695 14.72 16.4764 17.4167 12.0009 17.4167Z" fill="black"/>
</svg>
