<svg viewBox="0 0 24 24" xmlns="http://www.w3.org/2000/svg">
<path d="M12.5508 8C11.9985 8 11.5508 8.44772 11.5508 9C11.5508 9.55228 11.9985 10 12.5508 10H16.5508C17.1031 10 17.5508 9.55228 17.5508 9C17.5508 8.44772 17.1031 8 16.5508 8H12.5508Z" fill-opacity="0.5"/>
<path d="M12.5508 17C11.9985 17 11.5508 17.4477 11.5508 18C11.5508 18.5523 11.9985 19 12.5508 19H16.5508C17.1031 19 17.5508 18.5523 17.5508 18C17.5508 17.4477 17.1031 17 16.5508 17H12.5508Z" fill-opacity="0.5"/>
<path d="M12.5508 5C11.9985 5 11.5508 5.44772 11.5508 6C11.5508 6.55228 11.9985 7 12.5508 7H20.5508C21.1031 7 21.5508 6.55228 21.5508 6C21.5508 5.44772 21.1031 5 20.5508 5H12.5508Z" fill-opacity="0.8"/>
<path d="M12.5508 14C11.9985 14 11.5508 14.4477 11.5508 15C11.5508 15.5523 11.9985 16 12.5508 16H20.5508C21.1031 16 21.5508 15.5523 21.5508 15C21.5508 14.4477 21.1031 14 20.5508 14H12.5508Z" fill-opacity="0.8"/>
<path d="M3.44922 4.00208C2.89693 4.00208 2.44922 4.44979 2.44922 5.00208V10.0021C2.44922 10.5544 2.89693 11.0021 3.44922 11.0021H8.44922C9.0015 11.0021 9.44922 10.5544 9.44922 10.0021V5.00208C9.44922 4.44979 9.0015 4.00208 8.44922 4.00208H3.44922Z"/>
<path d="M3.44922 12.9979C2.89693 12.9979 2.44922 13.4456 2.44922 13.9979V18.9979C2.44922 19.5502 2.89693 19.9979 3.44922 19.9979H8.44922C9.0015 19.9979 9.44922 19.5502 9.44922 18.9979V13.9979C9.44922 13.4456 9.0015 12.9979 8.44922 12.9979H3.44922Z"/>
</svg>
