<svg   viewBox="0 0 24 24" fill="none" xmlns="http://www.w3.org/2000/svg">
<path d="M20.275 9.86895L16.8335 4.95404L18.4718 3.80688L21.9133 8.7218L20.275 9.86895Z" fill="black"/>
<path d="M18.3911 12.4087L16.6704 9.95133L8.47887 15.6871L10.1996 18.1445L8.56127 19.2917L3.97265 12.7385L5.61096 11.5913L7.33171 14.0488L15.5232 8.31303L13.8025 5.85553L15.4408 4.70837L20.0294 11.2616L18.3911 12.4087Z" fill="black"/>
<path d="M20.7661 7.08343L22.4044 5.93628L21.2573 4.29797L19.619 5.44513L20.7661 7.08343Z" fill="black"/>
<path d="M7.16857 19.0461L3.72711 14.1312L2.08881 15.2783L5.53026 20.1932L7.16857 19.0461Z" fill="black"/>
<path d="M4.38311 18.555L2.74481 19.7021L1.59766 18.0638L3.23596 16.9167L4.38311 18.555Z" fill="black"/>
</svg>
