<svg viewBox="0 0 24 24" xmlns="http://www.w3.org/2000/svg">
<path fill-rule="evenodd" clip-rule="evenodd" d="M12.0112 5.57169L10.9242 4.48469C8.77636 2.33681 5.29395 2.33681 3.14607 4.48469C0.998185 6.63258 0.998185 10.115 3.14607 12.2629L11.9849 21.1017L11.9867 21.0999L12.013 21.1262L20.8519 12.2874C22.9998 10.1395 22.9998 6.65711 20.8519 4.50923C18.704 2.36134 15.2216 2.36134 13.0737 4.50923L12.0112 5.57169ZM11.9867 18.2715L16.9229 13.3352L18.3738 11.9342L18.3752 11.9356L19.4377 10.8732C20.8045 9.50635 20.8045 7.29028 19.4377 5.92344C18.0708 4.55661 15.8547 4.55661 14.4879 5.92344L12.0123 8.39904L12.0051 8.3918L12.004 8.39287L9.51003 5.89891C8.14319 4.53207 5.92712 4.53207 4.56028 5.89891C3.19345 7.26574 3.19345 9.48182 4.56028 10.8487L7.09971 13.3881L7.10151 13.3863L11.9867 18.2715Z"/>
</svg>
