<svg   viewBox="0 0 24 24" fill="none" xmlns="http://www.w3.org/2000/svg">
<path d="M14.8288 12L16.243 13.4142L19.0715 10.5858C20.6336 9.02365 20.6336 6.49099 19.0715 4.9289C17.5094 3.3668 14.9767 3.3668 13.4146 4.9289L10.5862 7.75732L12.0004 9.17154L14.8288 6.34311C15.6099 5.56206 16.8762 5.56206 17.6573 6.34311C18.4383 7.12416 18.4383 8.39049 17.6573 9.17154L14.8288 12Z" fill="black"/>
<path d="M12.0005 14.8285L13.4147 16.2427L10.5862 19.0711C9.02414 20.6332 6.49148 20.6332 4.92939 19.0711C3.36729 17.509 3.36729 14.9764 4.92939 13.4143L7.75781 10.5858L9.17203 12L6.3436 14.8285C5.56255 15.6095 5.56255 16.8758 6.3436 17.6569C7.12465 18.4379 8.39098 18.4379 9.17203 17.6569L12.0005 14.8285Z" fill="black"/>
<path d="M14.8289 10.5857C15.2194 10.1952 15.2194 9.56199 14.8289 9.17147C14.4384 8.78094 13.8052 8.78094 13.4147 9.17147L9.17202 13.4141C8.7815 13.8046 8.7815 14.4378 9.17202 14.8283C9.56255 15.2188 10.1957 15.2188 10.5862 14.8283L14.8289 10.5857Z" fill="black"/>
</svg>
