<svg   viewBox="0 0 24 24" fill="none" xmlns="http://www.w3.org/2000/svg">
<path fill-rule="evenodd" clip-rule="evenodd" d="M3.05075 10.0151C2.79251 9.30708 2.94742 8.48233 3.51547 7.91427L9.87943 1.55031C11.051 0.378738 12.9505 0.378738 14.1221 1.55031L20.486 7.91427C21.0542 8.48239 21.209 9.30727 20.9507 10.0154C20.9831 10.1139 21.0007 10.2191 21.0007 10.3285V21.3285C21.0007 22.4331 20.1052 23.3285 19.0007 23.3285H5.00067C3.8961 23.3285 3.00067 22.4331 3.00067 21.3285V10.3285C3.00067 10.219 3.01826 10.1137 3.05075 10.0151ZM4.92969 9.32848L11.2936 2.96452C11.6842 2.574 12.3173 2.574 12.7079 2.96452L19.0718 9.32848H19.0415V9.3588L12.7079 15.6924C12.3173 16.083 11.6842 16.083 11.2936 15.6924L4.92969 9.32848ZM19.0007 12.2281L14.1221 17.1067C12.9505 18.2782 11.051 18.2782 9.87943 17.1067L5.00067 12.2279L5.00067 21.3285H19.0007V12.2281Z" fill="black"/>
</svg>
