<svg viewBox="0 0 24 24" xmlns="http://www.w3.org/2000/svg">
<path d="M16.2432 6.34315C16.6337 5.95262 17.2669 5.95262 17.6574 6.34315C18.0479 6.73367 18.0479 7.36684 17.6574 7.75736L7.75789 17.6569C7.36736 18.0474 6.7342 18.0474 6.34367 17.6569C5.95315 17.2663 5.95315 16.6332 6.34367 16.2426L16.2432 6.34315Z"/>
<path d="M9.87921 9.87868C9.09816 10.6597 7.83183 10.6597 7.05078 9.87868C6.26973 9.09763 6.26973 7.8313 7.05078 7.05025C7.83183 6.26921 9.09816 6.26921 9.87921 7.05025C10.6603 7.8313 10.6603 9.09763 9.87921 9.87868Z"/>
<path d="M14.1218 16.9497C14.9029 17.7308 16.1692 17.7308 16.9503 16.9497C17.7313 16.1687 17.7313 14.9024 16.9503 14.1213C16.1692 13.3403 14.9029 13.3403 14.1218 14.1213C13.3408 14.9024 13.3408 16.1687 14.1218 16.9497Z"/>
</svg>
