<svg   viewBox="0 0 24 24" fill="none" xmlns="http://www.w3.org/2000/svg">
<path d="M9 9.00006H11V15.0001H9V9.00006Z" fill="black"/>
<path d="M15 15.0001H13V9.00006H15V15.0001Z" fill="black"/>
<path fill-rule="evenodd" clip-rule="evenodd" d="M1 5.00006C1 2.79092 2.79086 1.00006 5 1.00006H19C21.2091 1.00006 23 2.79092 23 5.00006V19.0001C23 21.2092 21.2091 23.0001 19 23.0001H5C2.79086 23.0001 1 21.2092 1 19.0001V5.00006ZM5 3.00006H19C20.1046 3.00006 21 3.89549 21 5.00006V19.0001C21 20.1046 20.1046 21.0001 19 21.0001H5C3.89543 21.0001 3 20.1046 3 19.0001V5.00006C3 3.89549 3.89543 3.00006 5 3.00006Z" fill="black"/>
</svg>
