<svg   viewBox="0 0 24 24" fill="none" xmlns="http://www.w3.org/2000/svg">
<path d="M13.144 11.0499L12.9697 9.05752L15.3443 8.84977C14.4452 7.98322 13.2223 7.4503 11.875 7.4503C9.11358 7.4503 6.875 9.68888 6.875 12.4503C6.875 15.2117 9.11358 17.4503 11.875 17.4503C13.6958 17.4503 15.2892 16.4771 16.1635 15.0224L18.1663 15.5231C17.0282 17.8487 14.6386 19.4503 11.875 19.4503C8.00901 19.4503 4.875 16.3163 4.875 12.4503C4.875 8.58431 8.00901 5.4503 11.875 5.4503C13.8214 5.4503 15.5823 6.24474 16.8511 7.52706L16.6059 4.72412L18.5983 4.5498L19.1212 10.527L13.144 11.0499Z" fill="black"/>
</svg>
