<svg viewBox="0 0 24 24" xmlns="http://www.w3.org/2000/svg">
<path d="M7.18029 9.17154L5.76608 7.75732L1.52344 12L5.76608 16.2426L7.18029 14.8284L4.35186 12L7.18029 9.17154Z"/>
<path d="M16.8165 14.8284L18.2307 16.2426L22.4733 12L18.2307 7.75733L16.8165 9.17155L19.6449 12L16.8165 14.8284Z"/>
<path fill-rule="evenodd" clip-rule="evenodd" d="M14.9983 12C14.9983 13.6569 13.6551 15 11.9983 15C10.3414 15 8.99829 13.6569 8.99829 12C8.99829 10.3431 10.3414 9 11.9983 9C13.6551 9 14.9983 10.3431 14.9983 12ZM12.9983 12C12.9983 12.5523 12.5506 13 11.9983 13C11.446 13 10.9983 12.5523 10.9983 12C10.9983 11.4477 11.446 11 11.9983 11C12.5506 11 12.9983 11.4477 12.9983 12Z"/>
</svg>
