<svg viewBox="0 0 24 24" xmlns="http://www.w3.org/2000/svg">
<path d="M9.17203 16.8181L7.75781 18.2323L12.0005 22.4749L16.2431 18.2323L14.8289 16.8181L12.0005 19.6465L9.17203 16.8181Z"/>
<path d="M14.8289 7.18188L16.2431 5.76767L12.0005 1.52502L7.75782 5.76767L9.17204 7.18188L12.0005 4.35345L14.8289 7.18188Z"/>
<path fill-rule="evenodd" clip-rule="evenodd" d="M12.0005 9.00005C13.6573 9.00005 15.0005 10.3432 15.0005 12.0001C15.0005 13.6569 13.6573 15.0001 12.0005 15.0001C10.3436 15.0001 9.00049 13.6569 9.00049 12.0001C9.00049 10.3432 10.3436 9.00005 12.0005 9.00005ZM12.0005 11.0001C12.5528 11.0001 13.0005 11.4478 13.0005 12.0001C13.0005 12.5523 12.5528 13.0001 12.0005 13.0001C11.4482 13.0001 11.0005 12.5523 11.0005 12.0001C11.0005 11.4478 11.4482 11.0001 12.0005 11.0001Z"/>
</svg>
