<svg   viewBox="0 0 24 24" fill="none" xmlns="http://www.w3.org/2000/svg">
<path d="M8.55079 10.5503C8.55079 11.1026 8.10308 11.5503 7.55079 11.5503C6.99851 11.5503 6.55079 11.1026 6.55079 10.5503C6.55079 9.99801 6.99851 9.55029 7.55079 9.55029C8.10308 9.55029 8.55079 9.99801 8.55079 10.5503Z" fill="black"/>
<path d="M10.5508 11.5503C11.1031 11.5503 11.5508 11.1026 11.5508 10.5503C11.5508 9.99801 11.1031 9.55029 10.5508 9.55029C9.99851 9.55029 9.55079 9.99801 9.55079 10.5503C9.55079 11.1026 9.99851 11.5503 10.5508 11.5503Z" fill="black"/>
<path d="M13.5508 11.5503C14.1031 11.5503 14.5508 11.1026 14.5508 10.5503C14.5508 9.99801 14.1031 9.55029 13.5508 9.55029C12.9985 9.55029 12.5508 9.99801 12.5508 10.5503C12.5508 11.1026 12.9985 11.5503 13.5508 11.5503Z" fill="black"/>
<path fill-rule="evenodd" clip-rule="evenodd" d="M16.2076 4.89344C19.0928 7.7786 19.3135 12.3192 16.8699 15.4577C16.8851 15.4712 16.9001 15.4853 16.9147 15.4999L21.1574 19.7426C21.5479 20.1331 21.5479 20.7663 21.1574 21.1568C20.7668 21.5473 20.1337 21.5473 19.7432 21.1568L15.5005 16.9141C15.4859 16.8995 15.4718 16.8846 15.4583 16.8693C12.3198 19.3131 7.77913 19.0923 4.89393 16.2071C1.76973 13.083 1.76973 8.01763 4.89393 4.89344C8.01812 1.76924 13.0834 1.76924 16.2076 4.89344ZM6.30814 14.7929C8.65129 17.1361 12.4503 17.1361 14.7934 14.7929C17.1366 12.4498 17.1366 8.6508 14.7934 6.30765C12.4503 3.96451 8.65129 3.96451 6.30814 6.30765C3.96499 8.6508 3.96499 12.4498 6.30814 14.7929Z" fill="black"/>
</svg>
