<svg viewBox="0 0 24 24" xmlns="http://www.w3.org/2000/svg">
<path d="M7.66591 10.2366L9.198 8.951L10.4836 10.4831L13.5477 7.91194L14.8333 9.44402L10.2371 13.3007L7.66591 10.2366Z"/>
<path fill-rule="evenodd" clip-rule="evenodd" d="M16.2076 4.89344C19.0928 7.77862 19.3135 12.3193 16.8698 15.4578C16.8851 15.4713 16.9001 15.4854 16.9147 15.5L21.1574 19.7427C21.5479 20.1332 21.5479 20.7664 21.1574 21.1569C20.7669 21.5474 20.1337 21.5474 19.7432 21.1569L15.5005 16.9143C15.4859 16.8996 15.4718 16.8846 15.4583 16.8693C12.3198 19.3131 7.77911 19.0923 4.89393 16.2071C1.76973 13.083 1.76973 8.01763 4.89393 4.89344C8.01812 1.76924 13.0834 1.76924 16.2076 4.89344ZM14.7934 14.7929C17.1366 12.4498 17.1366 8.6508 14.7934 6.30765C12.4503 3.96451 8.65129 3.96451 6.30814 6.30765C3.96499 8.6508 3.96499 12.4498 6.30814 14.7929C8.65129 17.1361 12.4503 17.1361 14.7934 14.7929Z"/>
</svg>
