<svg   viewBox="0 0 24 24" fill="none" xmlns="http://www.w3.org/2000/svg">
<path fill-rule="evenodd" clip-rule="evenodd" d="M7.03508 6.5C7.03508 3.73858 9.27366 1.5 12.0351 1.5C14.7965 1.5 17.0351 3.73858 17.0351 6.5V10.5C17.0351 13.2614 14.7965 15.5 12.0351 15.5C9.27366 15.5 7.03508 13.2614 7.03508 10.5V6.5ZM15.0351 6.5V10.5C15.0351 12.1569 13.6919 13.5 12.0351 13.5C10.3782 13.5 9.03508 12.1569 9.03508 10.5V6.5C9.03508 4.84315 10.3782 3.5 12.0351 3.5C13.6919 3.5 15.0351 4.84315 15.0351 6.5Z" fill="black"/>
<path d="M12.0351 16.5C11.4828 16.5 11.0351 16.9477 11.0351 17.5V21.5C11.0351 22.0523 11.4828 22.5 12.0351 22.5C12.5874 22.5 13.0351 22.0523 13.0351 21.5V17.5C13.0351 16.9477 12.5874 16.5 12.0351 16.5Z" fill="black"/>
<path d="M7.74507 16.4397C7.93396 15.9207 8.5078 15.6531 9.02678 15.842C9.54576 16.0309 9.81334 16.6048 9.62445 17.1237L8.25637 20.8825C8.06748 21.4015 7.49364 21.6691 6.97466 21.4802C6.45568 21.2913 6.18809 20.7174 6.37699 20.1985L7.74507 16.4397Z" fill="black"/>
<path d="M14.9748 15.8421C14.4558 16.031 14.1882 16.6048 14.3771 17.1238L15.7452 20.8825C15.9341 21.4015 16.5079 21.6691 17.0269 21.4802C17.5459 21.2913 17.8135 20.7175 17.6246 20.1985L16.2565 16.4397C16.0676 15.9208 15.4938 15.6532 14.9748 15.8421Z" fill="black"/>
</svg>
