<svg   viewBox="0 0 24 24" fill="none" xmlns="http://www.w3.org/2000/svg">
<path d="M7.17222 18.025C5.81662 17.2863 4.69522 16.1662 3.95526 14.7911C3.01664 13.0469 2.75847 11.0164 3.23071 9.09282C3.70295 7.1692 4.87201 5.48916 6.51164 4.37787C8.15127 3.26658 10.1449 2.80307 12.1066 3.07704L11.67 6.20271C10.4822 6.03682 9.2751 6.31747 8.28231 6.99036C7.28951 7.66324 6.58164 8.68051 6.2957 9.84526C6.00976 11.01 6.16608 12.2394 6.73442 13.2956C7.18247 14.1282 7.86148 14.8064 8.6823 15.2537L14.8278 3.97549L17.4621 5.41092C18.8177 6.14958 19.9391 7.26973 20.679 8.64481C21.6177 10.389 21.8758 12.4195 21.4036 14.3431C20.9314 16.2667 19.7623 17.9468 18.1227 19.058C16.483 20.1693 14.4894 20.6328 12.5277 20.3589L12.9643 17.2332C14.1521 17.3991 15.3592 17.1184 16.352 16.4456C17.3448 15.7727 18.0527 14.7554 18.3386 13.5906C18.6245 12.4259 18.4682 11.1965 17.8999 10.1403C17.4518 9.30773 16.7728 8.6295 15.952 8.18224L9.80647 19.4605L7.17222 18.025Z" fill="black"/>
</svg>
