<svg   viewBox="0 0 24 24" fill="none" xmlns="http://www.w3.org/2000/svg">
<path d="M18.6218 2.55029L21.4503 5.37872L20.0361 6.79293L17.2076 3.96451L18.6218 2.55029Z" fill="black"/>
<path d="M12.823 8.60055H10.823V12.6005H12.823V8.60055Z" fill="black"/>
<path fill-rule="evenodd" clip-rule="evenodd" d="M5.18682 18.8137C8.70154 22.3285 14.4 22.3285 17.9147 18.8137C21.4295 15.299 21.4295 9.60055 17.9147 6.08583C14.4 2.57111 8.70154 2.57111 5.18682 6.08583C1.6721 9.60054 1.6721 15.299 5.18682 18.8137ZM6.60103 17.3995C9.3347 20.1332 13.7669 20.1332 16.5005 17.3995C19.2342 14.6659 19.2342 10.2337 16.5005 7.50004C13.7669 4.76637 9.3347 4.76637 6.60103 7.50004C3.86736 10.2337 3.86736 14.6659 6.60103 17.3995Z" fill="black"/>
</svg>
