<svg   viewBox="0 0 24 24" fill="none" xmlns="http://www.w3.org/2000/svg">
<path d="M3.65953 2.67105C3.7117 2.39988 3.97785 2.18005 4.25399 2.18005H6.25399C6.53013 2.18005 6.7117 2.39988 6.65953 2.67105L5.33706 9.54499C5.28489 9.81616 5.01874 10.036 4.7426 10.036H2.7426C2.46646 10.036 2.28489 9.81616 2.33706 9.54499L3.65953 2.67105Z" fill="black"/>
<path d="M8.65953 2.67105C8.7117 2.39988 8.97785 2.18005 9.25399 2.18005H11.254C11.5301 2.18005 11.7117 2.39988 11.6595 2.67105L8.06997 21.3289C8.0178 21.6001 7.75165 21.8199 7.47551 21.8199H5.47551C5.19937 21.8199 5.0178 21.6001 5.06997 21.3289L8.65953 2.67105Z" fill="black"/>
<path d="M13.6595 2.67105C13.7117 2.39988 13.9779 2.18005 14.254 2.18005H16.254C16.5301 2.18005 16.7117 2.39988 16.6595 2.67105L13.07 21.3289C13.0178 21.6001 12.7517 21.8199 12.4755 21.8199H10.4755C10.1994 21.8199 10.0178 21.6001 10.07 21.3289L13.6595 2.67105Z" fill="black"/>
<path d="M18.6595 2.67105C18.7117 2.39988 18.9778 2.18005 19.254 2.18005H21.254C21.5301 2.18005 21.7117 2.39988 21.6595 2.67105L20.3371 9.54499C20.2849 9.81616 20.0187 10.036 19.7426 10.036H17.7426C17.4665 10.036 17.2849 9.81616 17.3371 9.54499L18.6595 2.67105Z" fill="black"/>
</svg>
