<svg   viewBox="0 0 24 24" fill="none" xmlns="http://www.w3.org/2000/svg">
<path d="M12.0505 3.11401C14.194 3.11401 16.1407 3.95706 17.5769 5.32967L16.1622 6.74437C15.0883 5.73346 13.6417 5.11401 12.0505 5.11401C10.4099 5.11401 8.92317 5.77243 7.84002 6.83944L6.42578 5.42519C7.87088 3.99627 9.85766 3.11401 12.0505 3.11401Z" fill="black"/>
<path d="M10.978 11.886C10.978 11.3337 11.4257 10.886 11.978 10.886C12.5303 10.886 12.978 11.3337 12.978 11.886V13.886H10.978V11.886Z" fill="black"/>
<path fill-rule="evenodd" clip-rule="evenodd" d="M11.978 6.88599C9.2166 6.88599 6.97803 9.12456 6.97803 11.886V15.886C6.97803 18.6474 9.2166 20.886 11.978 20.886C14.7395 20.886 16.978 18.6474 16.978 15.886V11.886C16.978 9.12456 14.7395 6.88599 11.978 6.88599ZM14.978 15.886V11.886C14.978 10.2291 13.6349 8.88599 11.978 8.88599C10.3212 8.88599 8.97803 10.2291 8.97803 11.886V15.886C8.97803 17.5428 10.3212 18.886 11.978 18.886C13.6349 18.886 14.978 17.5428 14.978 15.886Z" fill="black"/>
</svg>
