<svg   viewBox="0 0 24 24" fill="none" xmlns="http://www.w3.org/2000/svg">
<path fill-rule="evenodd" clip-rule="evenodd" d="M14.9249 18V14C14.9249 12.3431 13.5818 11 11.9249 11C10.268 11 8.9249 12.3431 8.9249 14V18C8.9249 19.6569 10.268 21 11.9249 21C13.5818 21 14.9249 19.6569 14.9249 18ZM11.9249 9C9.16347 9 6.9249 11.2386 6.9249 14V18C6.9249 20.7614 9.16347 23 11.9249 23C14.6863 23 16.9249 20.7614 16.9249 18V14C16.9249 11.2386 14.6863 9 11.9249 9Z" fill="black"/>
<path d="M10.9249 14C10.9249 13.4477 11.3726 13 11.9249 13C12.4772 13 12.9249 13.4477 12.9249 14V17H10.9249V14Z" fill="black"/>
<path d="M11.9249 1C14.7037 1 17.2177 2.13339 19.03 3.96311L17.6157 5.37735C16.1654 3.90955 14.1514 3 11.9249 3C9.7757 3 7.82446 3.84749 6.38711 5.22651L4.97266 3.81205C6.77214 2.07122 9.22342 1 11.9249 1Z" fill="black"/>
<path fill-rule="evenodd" clip-rule="evenodd" d="M11.9247 5C13.5822 5 15.1052 5.5761 16.3043 6.53898L14.8781 7.9651C14.0506 7.35833 13.0295 7 11.9247 7C10.8494 7 9.85339 7.33943 9.03796 7.91699L7.60913 6.48816C8.7982 5.55586 10.2965 5 11.9247 5Z" fill="black"/>
</svg>
