<svg   viewBox="0 0 24 24" fill="none" xmlns="http://www.w3.org/2000/svg">
<path d="M16.9507 5.63615C17.3412 5.24563 17.9743 5.24563 18.3649 5.63615C18.7554 6.02668 18.7554 6.65984 18.3649 7.05037L11.2938 14.1214C10.9033 14.512 10.2701 14.512 9.87959 14.1214C9.48906 13.7309 9.48906 13.0977 9.87959 12.7072L16.9507 5.63615Z" fill="black"/>
<path fill-rule="evenodd" clip-rule="evenodd" d="M7.82899 17.5862C9.77036 18.8725 12.4118 18.6603 14.1222 16.9499L21.1933 9.8788C23.1459 7.92617 23.1459 4.76035 21.1933 2.80773C19.2407 0.855106 16.0748 0.855106 14.1222 2.80773L7.05116 9.8788C5.3407 11.5893 5.12857 14.2307 6.41477 16.172L2.80852 19.7783C2.41799 20.1688 2.41799 20.802 2.80852 21.1925C3.19904 21.583 3.83221 21.583 4.22273 21.1925L7.82899 17.5862ZM12.708 15.5356L19.7791 8.46458C20.9507 7.29301 20.9507 5.39351 19.7791 4.22194C18.6075 3.05037 16.708 3.05037 15.5364 4.22194L8.46537 11.293C7.2938 12.4646 7.2938 14.3641 8.46537 15.5356C9.63694 16.7072 11.5364 16.7072 12.708 15.5356Z" fill="black"/>
</svg>
