<svg   viewBox="0 0 24 24" fill="none" xmlns="http://www.w3.org/2000/svg">
<g clip-path="url(#clip0_61_17064)">
<path d="M17 11.001H20C21.11 11.001 22 10.101 22 9.00098V5.00098C22 3.89098 21.1 3.00098 20 3.00098H17C15.89 3.00098 15 3.90098 15 5.00098V6.00098H9.01V5.00098C9.01 3.89098 8.11 3.00098 7.01 3.00098H4C2.9 3.00098 2 3.90098 2 5.00098V9.00098C2 10.111 2.9 11.001 4 11.001H7C8.11 11.001 9 10.101 9 9.00098V8.00098H11V15.011C11 16.661 12.34 18.001 13.99 18.001H15V19.001C15 20.111 15.9 21.001 17 21.001H20C21.11 21.001 22 20.101 22 19.001V15.001C22 13.891 21.1 13.001 20 13.001H17C15.89 13.001 15 13.901 15 15.001V16.001H13.99C13.45 16.001 13 15.551 13 15.011V8.00098H15V9.00098C15 10.101 15.9 11.001 17 11.001Z" fill="black"/>
</g>
<defs>
<clipPath id="clip0_61_17064">
<rect width="24" height="24" fill="white" transform="translate(0 0.000976562)"/>
</clipPath>
</defs>
</svg>
