<svg   viewBox="0 0 24 24" fill="none" xmlns="http://www.w3.org/2000/svg">
<g clip-path="url(#clip0_61_17065)">
<path d="M5 16.0009C5 19.8709 8.13 23.0009 12 23.0009C15.87 23.0009 19 19.8709 19 16.0009V12.0009H5V16.0009ZM16.12 4.37092L18.22 2.27092L17.4 1.44092L15.1 3.75092C14.16 3.28092 13.12 3.00092 12 3.00092C10.88 3.00092 9.84 3.28092 8.91 3.75092L6.6 1.44092L5.78 2.27092L7.88 4.37092C6.14 5.64092 5 7.68092 5 10.0009V11.0009H19V10.0009C19 7.68092 17.86 5.64092 16.12 4.37092ZM9 9.00092C8.45 9.00092 8 8.55092 8 8.00092C8 7.45092 8.45 7.00092 9 7.00092C9.55 7.00092 10 7.45092 10 8.00092C10 8.55092 9.55 9.00092 9 9.00092ZM15 9.00092C14.45 9.00092 14 8.55092 14 8.00092C14 7.45092 14.45 7.00092 15 7.00092C15.55 7.00092 16 7.45092 16 8.00092C16 8.55092 15.55 9.00092 15 9.00092Z" fill="black"/>
</g>
<defs>
<clipPath id="clip0_61_17065">
<rect width="24" height="24" fill="white" transform="translate(0 0.000976562)"/>
</clipPath>
</defs>
</svg>
