<svg   viewBox="0 0 24 24" fill="none" xmlns="http://www.w3.org/2000/svg">
<g clip-path="url(#clip0_61_17071)">
<path d="M19.97 19.201C20.15 20.161 19.42 21.001 18.5 21.001H15.81C14.51 21.001 13.55 19.781 13.87 18.511L15 14.001H9C7.35 14.001 6 12.651 6 11.001V3.00098H12V9.00098H17C18.1 9.00098 19 9.90098 19 11.001L17 18.001H18.44C19.17 18.001 19.83 18.491 19.97 19.201V19.201ZM5 12.001V4.00098C5 3.45098 4.55 3.00098 4 3.00098C3.45 3.00098 3 3.45098 3 4.00098V12.001C3 14.761 5.24 17.001 8 17.001H11C11.55 17.001 12 16.551 12 16.001C12 15.451 11.55 15.001 11 15.001H8C6.34 15.001 5 13.661 5 12.001Z" fill="black"/>
</g>
<defs>
<clipPath id="clip0_61_17071">
<rect width="24" height="24" fill="white" transform="translate(0 0.000976562)"/>
</clipPath>
</defs>
</svg>
