<svg   viewBox="0 0 24 24" fill="none" xmlns="http://www.w3.org/2000/svg">
<g clip-path="url(#clip0_61_17072)">
<path d="M5.34786 5.64084C4.44786 5.00084 4.22786 3.76084 4.85786 2.85084C5.48786 1.95084 6.73786 1.73084 7.64786 2.36084C8.54786 3.00084 8.76786 4.24084 8.13786 5.15084C7.49786 6.05084 6.25786 6.27084 5.34786 5.64084V5.64084ZM15.9979 20.0008C15.9979 19.4508 15.5479 19.0008 14.9979 19.0008H8.92786C7.44786 19.0008 6.18786 17.9208 5.96786 16.4608L4.15786 7.78084C4.06786 7.33084 3.66786 7.00084 3.19786 7.00084C2.57786 7.00084 2.11786 7.57084 2.23786 8.18084L3.98786 16.7608C4.36786 19.2008 6.46786 21.0008 8.93786 21.0008H14.9979C15.5479 21.0008 15.9979 20.5508 15.9979 20.0008ZM15.5379 15.0008H11.3479L10.3179 10.9008C11.5979 11.6208 12.9479 12.1808 14.4179 12.2008C14.9979 12.2108 15.4679 11.7108 15.4679 11.1308C15.4679 10.5408 14.9779 10.0908 14.3879 10.0708C13.0779 10.0308 11.7579 9.51084 10.7779 8.74084L9.13786 7.47084C8.90786 7.29084 8.64786 7.17084 8.37786 7.09084C8.05786 7.00084 7.71786 6.97084 7.38786 7.03084H7.36786C6.13786 7.25084 5.31786 8.42084 5.52786 9.64084L6.87786 15.5608C7.15786 16.9808 8.38786 18.0008 9.82786 18.0008H16.6779L19.7679 20.4208C20.1879 20.7508 20.7879 20.7108 21.1579 20.3408C21.6079 19.8908 21.5579 19.1608 21.0579 18.7708L16.7679 15.4208C16.4179 15.1508 15.9879 15.0008 15.5379 15.0008V15.0008Z" fill="black"/>
</g>
<defs>
<clipPath id="clip0_61_17072">
<rect width="24" height="24" fill="white" transform="translate(0 0.000976562)"/>
</clipPath>
</defs>
</svg>
