<svg viewBox="0 0 24 24" xmlns="http://www.w3.org/2000/svg">
<g clip-path="url(#clip0_61_17068)">
<path d="M7 13.001C8.65 13.001 10 11.651 10 10.001C10 8.35098 8.65 7.00098 7 7.00098C5.35 7.00098 4 8.35098 4 10.001C4 11.651 5.35 13.001 7 13.001ZM19 7.00098H13C11.9 7.00098 11 7.90098 11 9.00098V14.001H3V8.00098C3 7.45098 2.55 7.00098 2 7.00098C1.45 7.00098 1 7.45098 1 8.00098V15.001C1 16.101 1.9 17.001 3 17.001H21C22.1 17.001 23 16.101 23 15.001V11.001C23 8.79098 21.21 7.00098 19 7.00098Z"/>
</g>
<defs>
<clipPath id="clip0_61_17068">
<rect transform="translate(0 0.000976562)"/>
</clipPath>
</defs>
</svg>
