<svg   viewBox="0 0 24 24" fill="none" xmlns="http://www.w3.org/2000/svg">
<g clip-path="url(#clip0_61_17069)">
<path d="M4 12.001V4.00098C4 3.45098 3.55 3.00098 3 3.00098C2.45 3.00098 2 3.45098 2 4.00098V12.001C2 14.761 4.24 17.001 7 17.001H12C12.55 17.001 13 16.551 13 16.001C13 15.451 12.55 15.001 12 15.001H7C5.34 15.001 4 13.661 4 12.001ZM22.83 17.241C22.45 16.521 21.54 16.271 20.8 16.611L19.71 17.111L16.3 10.131C15.96 9.45098 15.27 9.00098 14.51 9.00098H11V3.00098H5V11.001C5 12.661 6.34 14.001 8 14.001H15L17.56 19.251C18.04 20.231 19.2 20.641 20.19 20.191L22.14 19.301C22.9 18.941 23.23 18.001 22.83 17.241Z" fill="black"/>
</g>
<defs>
<clipPath id="clip0_61_17069">
<rect width="24" height="24" fill="white" transform="translate(0 0.000976562)"/>
</clipPath>
</defs>
</svg>
