<svg   viewBox="0 0 24 24" fill="none" xmlns="http://www.w3.org/2000/svg">
<g clip-path="url(#clip0_61_17066)">
<path d="M22 11.001V13.001H9V9.00098C9 7.90098 9.9 7.00098 11 7.00098H18C20.21 7.00098 22 8.79098 22 11.001ZM2 15.001C2 15.551 2.45 16.001 3 16.001H8V17.001C8 17.551 8.45 18.001 9 18.001H15C15.55 18.001 16 17.551 16 17.001V16.001H21C21.55 16.001 22 15.551 22 15.001C22 14.451 21.55 14.001 21 14.001H3C2.45 14.001 2 14.451 2 15.001ZM7.14 12.101C8.3 10.911 8.28 9.02098 7.1 7.86098C5.91 6.70098 4.02 6.72098 2.86 7.90098C1.7 9.09098 1.72 10.981 2.9 12.141C4.09 13.301 5.98 13.281 7.14 12.101V12.101Z" fill="black"/>
</g>
<defs>
<clipPath id="clip0_61_17066">
<rect width="24" height="24" fill="white" transform="translate(0 0.000976562)"/>
</clipPath>
</defs>
</svg>
