<svg   viewBox="0 0 24 24" fill="none" xmlns="http://www.w3.org/2000/svg">
<g clip-path="url(#clip0_61_17073)">
<path d="M7.59 5.41109C6.81 4.63109 6.81 3.36109 7.59 2.58109C8.37 1.80109 9.64 1.80109 10.42 2.58109C11.2 3.36109 11.2 4.63109 10.42 5.41109C9.63 6.20109 8.37 6.20109 7.59 5.41109ZM6 16.0011V8.00109C6 7.45109 5.55 7.00109 5 7.00109C4.45 7.00109 4 7.45109 4 8.00109V16.0011C4 18.7611 6.24 21.0011 9 21.0011H14C14.55 21.0011 15 20.5511 15 20.0011C15 19.4511 14.55 19.0011 14 19.0011H9C7.34 19.0011 6 17.6611 6 16.0011ZM19.28 19.3511L15.51 15.5811C15.14 15.2111 14.63 15.0011 14.1 15.0011H11.5V11.3211C12.59 12.2111 14.16 13.0211 15.7 13.3411C16.37 13.4811 17 12.9811 17 12.3011C17 11.7711 16.61 11.3411 16.08 11.2511C14.66 11.0111 13.2 10.2411 12.33 9.28109L10.93 7.73109C10.74 7.52109 10.5 7.35109 10.24 7.23109C9.95 7.09109 9.62 7.00109 9.28 7.00109H9.25C8.01 7.00109 7 8.01109 7 9.25109V15.0011C7 16.6611 8.34 18.0011 10 18.0011H15.07L17.85 20.7811C18.24 21.1711 18.89 21.1711 19.28 20.7811C19.68 20.3911 19.68 19.7511 19.28 19.3511Z" fill="black"/>
</g>
<defs>
<clipPath id="clip0_61_17073">
<rect width="24" height="24" fill="white" transform="translate(0 0.000976562)"/>
</clipPath>
</defs>
</svg>
