<svg   viewBox="0 0 24 24" fill="none" xmlns="http://www.w3.org/2000/svg">
<g clip-path="url(#clip0_61_17067)">
<path d="M22.247 14.291L21.557 16.181L9.19697 11.711L10.587 7.92097C10.967 6.89097 12.107 6.36097 13.147 6.73097L19.837 9.14097C21.937 9.90097 23.017 12.201 22.247 14.291V14.291ZM2.44697 12.481L7.99697 14.481V18.001C7.99697 18.551 8.44697 19.001 8.99697 19.001H14.997C15.547 19.001 15.997 18.551 15.997 18.001V17.371L19.577 18.661C20.097 18.851 20.677 18.581 20.867 18.061C21.057 17.541 20.787 16.961 20.267 16.771L3.12697 10.591C2.60697 10.401 2.02697 10.671 1.83697 11.191C1.65697 11.711 1.92697 12.291 2.44697 12.481V12.481ZM7.29697 10.201C8.78697 9.48097 9.41697 7.69097 8.70697 6.20097C7.98697 4.71097 6.19697 4.08097 4.69697 4.80097C3.20697 5.51097 2.57697 7.30097 3.29697 8.80097C4.00697 10.291 5.79697 10.921 7.29697 10.201V10.201Z" fill="black"/>
</g>
<defs>
<clipPath id="clip0_61_17067">
<rect width="24" height="24" fill="white" transform="translate(0 0.000976562)"/>
</clipPath>
</defs>
</svg>
