<svg   viewBox="0 0 24 24" fill="none" xmlns="http://www.w3.org/2000/svg">
<g clip-path="url(#clip0_61_17070)">
<path d="M5 12.001V4.00098C5 3.45098 4.55 3.00098 4 3.00098C3.45 3.00098 3 3.45098 3 4.00098V12.001C3 14.761 5.24 17.001 8 17.001H13C13.55 17.001 14 16.551 14 16.001C14 15.451 13.55 15.001 13 15.001H8C6.34 15.001 5 13.661 5 12.001ZM20.5 18.001H19V11.001C19 9.90098 18.1 9.00098 17 9.00098H12V3.00098H6V11.001C6 12.651 7.35 14.001 9 14.001H16V19.001C16 20.101 16.9 21.001 18 21.001H20.5C21.33 21.001 22 20.331 22 19.501C22 18.671 21.33 18.001 20.5 18.001Z" fill="black"/>
</g>
<defs>
<clipPath id="clip0_61_17070">
<rect width="24" height="24" fill="white" transform="translate(0 0.000976562)"/>
</clipPath>
</defs>
</svg>
