<svg viewBox="0 0 24 24" xmlns="http://www.w3.org/2000/svg">
<g clip-path="url(#clip0_61_17074)">
<path d="M15.9831 10.281L14.6031 11.661C14.4031 11.861 14.4031 12.171 14.6031 12.371L15.9831 13.751C16.2631 14.031 16.7331 13.901 16.8331 13.521C16.9431 13.021 17.0031 12.521 17.0031 12.001C17.0031 11.491 16.9431 10.991 16.8231 10.521C16.7331 10.141 16.2631 10.001 15.9831 10.281V10.281ZM20.1031 7.781C19.8531 7.231 19.1231 7.111 18.7031 7.541C18.4431 7.801 18.3931 8.181 18.5331 8.521C18.9931 9.591 19.2531 10.761 19.2531 11.991C19.2531 13.231 18.9931 14.411 18.5231 15.481C18.3831 15.801 18.4331 16.171 18.6831 16.421C19.0931 16.831 19.7831 16.711 20.0331 16.191C20.6631 14.891 21.0131 13.431 21.0131 11.891C21.0031 10.441 20.6831 9.041 20.1031 7.781V7.781ZM11.3931 12.001L14.9831 8.421C15.3731 8.031 15.3731 7.401 14.9831 7.001L10.6931 2.711C10.0631 2.081 8.98312 2.531 8.98312 3.421V9.601L5.09313 5.701C4.70313 5.311 4.07312 5.311 3.68312 5.701C3.29313 6.091 3.29313 6.721 3.68312 7.111L8.57312 12.001L3.68312 16.891C3.29313 17.281 3.29313 17.911 3.68312 18.301C4.07312 18.691 4.70313 18.691 5.09313 18.301L8.98312 14.411V20.591C8.98312 21.481 10.0631 21.931 10.6931 21.301L14.9931 17.001C15.3831 16.611 15.3831 15.981 14.9931 15.581L11.3931 12.001ZM10.9831 5.831L12.8631 7.711L10.9831 9.591V5.831ZM10.9831 18.171V14.411L12.8631 16.291L10.9831 18.171Z"/>
</g>
<defs>
<clipPath id="clip0_61_17074">
<rect transform="translate(0 0.000976562)"/>
</clipPath>
</defs>
</svg>
