<svg   viewBox="0 0 24 24" fill="none" xmlns="http://www.w3.org/2000/svg">
<g clip-path="url(#clip0_61_17075)">
<path d="M22 8.54098V6.00098C22 4.90098 21.1 4.00098 20 4.00098H4C2.9 4.00098 2.01 4.89098 2.01 6.00098V8.54098C2.01 9.23098 2.34 9.91098 2.95 10.231C3.58 10.581 4 11.241 4 12.001C4 12.761 3.57 13.431 2.94 13.761C2.34 14.091 2 14.771 2 15.461V18.001C2 19.101 2.9 20.001 4 20.001H20C21.1 20.001 22 19.101 22 18.001V15.461C22 14.771 21.66 14.091 21.06 13.761C20.43 13.421 20 12.761 20 12.001C20 11.241 20.43 10.581 21.06 10.241C21.66 9.91098 22 9.23098 22 8.54098V8.54098ZM13 17.501H11V15.501H13V17.501ZM13 13.001H11V11.001H13V13.001ZM13 8.50098H11V6.50098H13V8.50098Z" fill="black"/>
</g>
<defs>
<clipPath id="clip0_61_17075">
<rect width="24" height="24" fill="white" transform="translate(0 0.000976562)"/>
</clipPath>
</defs>
</svg>
