<svg viewBox="0 0 24 24" xmlns="http://www.w3.org/2000/svg">
<g clip-path="url(#clip0_61_17076)">
<path d="M21.7109 11.291L12.7109 2.29104C12.3209 1.90104 11.6909 1.90104 11.3009 2.29104L8.21094 5.38104L13.0009 10.171V7.50104L16.1509 10.651C16.3509 10.851 16.3509 11.161 16.1509 11.361L15.1709 12.341L18.6209 15.791L21.7109 12.701C22.0909 12.321 22.0909 11.691 21.7109 11.291Z"/>
<path d="M6.78719 6.79125L3.50719 3.51125C3.11719 3.12125 2.48719 3.12125 2.09719 3.51125C1.70719 3.90125 1.70719 4.53125 2.09719 4.92125L5.37719 8.20125L2.28719 11.2913C1.89719 11.6813 1.89719 12.3113 2.28719 12.7013L11.2872 21.7013C11.6772 22.0913 12.3072 22.0913 12.6972 21.7013L15.7872 18.6113L19.0672 21.8912C19.4572 22.2812 20.0872 22.2812 20.4772 21.8912C20.8672 21.5012 20.8672 20.8712 20.4772 20.4812L6.78719 6.79125ZM9.98719 14.0013C9.98719 14.5513 9.53719 15.0013 8.98719 15.0013C8.43719 15.0013 7.98719 14.5513 7.98719 14.0013V11.0012C7.98719 10.9512 8.00719 10.9013 8.01719 10.8513L9.98719 12.8212V14.0013Z"/>
</g>
<defs>
<clipPath id="clip0_61_17076">
<rect transform="translate(0 0.000976562)"/>
</clipPath>
</defs>
</svg>
