<svg viewBox="0 0 24 24" xmlns="http://www.w3.org/2000/svg">
<g clip-path="url(#clip0_61_17077)">
<path d="M20 16.001H22V14.001H20V16.001ZM20 8.00098V11.001C20 11.551 20.45 12.001 21 12.001C21.55 12.001 22 11.551 22 11.001V8.00098C22 7.45098 21.55 7.00098 21 7.00098C20.45 7.00098 20 7.45098 20 8.00098ZM10 4.00098C5.58 4.00098 2 7.58098 2 12.001C2 16.421 5.58 20.001 10 20.001C14.42 20.001 18 16.421 18 12.001C18 7.58098 14.42 4.00098 10 4.00098ZM10 14.001C8.9 14.001 8 13.101 8 12.001C8 10.901 8.9 10.001 10 10.001C11.1 10.001 12 10.901 12 12.001C12 13.101 11.1 14.001 10 14.001Z"/>
</g>
<defs>
<clipPath id="clip0_61_17077">
<rect transform="translate(0 0.000976562)"/>
</clipPath>
</defs>
</svg>
