<svg   viewBox="0 0 24 24" fill="none" xmlns="http://www.w3.org/2000/svg">
<g clip-path="url(#clip0_61_17078)">
<path d="M12 2.00098C6.48 2.00098 2 6.48098 2 12.001C2 17.521 6.48 22.001 12 22.001C17.52 22.001 22 17.521 22 12.001C22 6.48098 17.52 2.00098 12 2.00098ZM12 20.001C7.58 20.001 4 16.421 4 12.001C4 10.151 4.63 8.45098 5.69 7.10098L16.9 18.311C15.55 19.371 13.85 20.001 12 20.001ZM18.31 16.901L7.1 5.69098C8.45 4.63098 10.15 4.00098 12 4.00098C16.42 4.00098 20 7.58098 20 12.001C20 13.851 19.37 15.551 18.31 16.901Z" fill="black"/>
</g>
<defs>
<clipPath id="clip0_61_17078">
<rect width="24" height="24" fill="white" transform="translate(0 0.000976562)"/>
</clipPath>
</defs>
</svg>
