<svg viewBox="0 0 24 24" xmlns="http://www.w3.org/2000/svg">
<g clip-path="url(#clip0_61_17080)">
<path d="M16.9966 11.001V13.001H16.1166L20.4466 17.331C21.4266 15.791 21.9966 13.961 21.9966 12.001C21.9966 6.48098 17.5166 2.00098 11.9966 2.00098C10.0366 2.00098 8.20656 2.57098 6.66656 3.55098L14.1166 11.001H16.9966ZM21.1666 20.881L3.11656 2.83098C2.72656 2.44098 2.09656 2.44098 1.70656 2.83098C1.31656 3.22098 1.31656 3.85098 1.70656 4.24098L3.77656 6.31098C2.65656 7.93098 1.99656 9.89098 1.99656 12.001C1.99656 17.521 6.47656 22.001 11.9966 22.001C14.1066 22.001 16.0666 21.341 17.6766 20.221L19.7466 22.291C20.1366 22.681 20.7666 22.681 21.1566 22.291C21.5566 21.901 21.5566 21.271 21.1666 20.881V20.881ZM6.99656 13.001V11.001H8.45656L10.4566 13.001H6.99656Z"/>
</g>
<defs>
<clipPath id="clip0_61_17080">
<rect transform="translate(0 0.000976562)"/>
</clipPath>
</defs>
</svg>
