<svg   viewBox="0 0 24 24" fill="none" xmlns="http://www.w3.org/2000/svg">
<g clip-path="url(#clip0_61_17079)">
<path d="M12 2.00098C6.5 2.00098 2 6.50098 2 12.001C2 17.501 6.5 22.001 12 22.001C17.5 22.001 22 17.501 22 12.001C22 6.50098 17.5 2.00098 12 2.00098ZM4 12.001C4 7.60098 7.6 4.00098 12 4.00098C13.8 4.00098 15.5 4.60098 16.9 5.70098L5.7 16.901C4.6 15.501 4 13.801 4 12.001ZM12 20.001C10.2 20.001 8.5 19.401 7.1 18.301L18.3 7.10098C19.4 8.50098 20 10.201 20 12.001C20 16.401 16.4 20.001 12 20.001Z" fill="black"/>
</g>
<defs>
<clipPath id="clip0_61_17079">
<rect width="24" height="24" fill="white" transform="translate(0 0.000976562)"/>
</clipPath>
</defs>
</svg>
