<svg   viewBox="0 0 24 24" fill="none" xmlns="http://www.w3.org/2000/svg">
<g clip-path="url(#clip0_61_17083)">
<path d="M18 8.00098H17V6.00098C17 3.24098 14.76 1.00098 12 1.00098C9.24 1.00098 7 3.24098 7 6.00098V8.00098H6C4.9 8.00098 4 8.90098 4 10.001V20.001C4 21.101 4.9 22.001 6 22.001H18C19.1 22.001 20 21.101 20 20.001V10.001C20 8.90098 19.1 8.00098 18 8.00098ZM8.9 6.00098C8.9 4.29098 10.29 2.90098 12 2.90098C13.71 2.90098 15.1 4.29098 15.1 6.00098V8.00098H8.9V6.00098ZM15 16.001H13V18.001C13 18.551 12.55 19.001 12 19.001C11.45 19.001 11 18.551 11 18.001V16.001H9C8.45 16.001 8 15.551 8 15.001C8 14.451 8.45 14.001 9 14.001H11V12.001C11 11.451 11.45 11.001 12 11.001C12.55 11.001 13 11.451 13 12.001V14.001H15C15.55 14.001 16 14.451 16 15.001C16 15.551 15.55 16.001 15 16.001Z" fill="black"/>
</g>
<defs>
<clipPath id="clip0_61_17083">
<rect width="24" height="24" fill="white" transform="translate(0 0.000976562)"/>
</clipPath>
</defs>
</svg>
