<svg   viewBox="0 0 24 24" fill="none" xmlns="http://www.w3.org/2000/svg">
<g clip-path="url(#clip0_61_17085)">
<path d="M9.84 16.471L11.75 14.561L13.66 16.471C13.95 16.761 14.43 16.761 14.72 16.471C15.01 16.181 15.01 15.701 14.72 15.411L12.81 13.501L14.72 11.591C15.01 11.301 15.01 10.821 14.72 10.531C14.43 10.241 13.95 10.241 13.66 10.531L11.75 12.441L9.84 10.531C9.55 10.241 9.07 10.241 8.78 10.531C8.49 10.821 8.49 11.301 8.78 11.591L10.69 13.501L8.78 15.411C8.49 15.701 8.49 16.181 8.78 16.471C9.07 16.761 9.55 16.761 9.84 16.471ZM19 3.00098H18V2.00098C18 1.45098 17.55 1.00098 17 1.00098C16.45 1.00098 16 1.45098 16 2.00098V3.00098H8V2.00098C8 1.45098 7.55 1.00098 7 1.00098C6.45 1.00098 6 1.45098 6 2.00098V3.00098H5C3.89 3.00098 3.01 3.90098 3.01 5.00098L3 19.001C3 20.101 3.89 21.001 5 21.001H19C20.1 21.001 21 20.101 21 19.001V5.00098C21 3.90098 20.1 3.00098 19 3.00098ZM18 19.001H6C5.45 19.001 5 18.551 5 18.001V8.00098H19V18.001C19 18.551 18.55 19.001 18 19.001Z" fill="black"/>
</g>
<defs>
<clipPath id="clip0_61_17085">
<rect width="24" height="24" fill="white" transform="translate(0 0.000976562)"/>
</clipPath>
</defs>
</svg>
