<svg   viewBox="0 0 24 24" fill="none" xmlns="http://www.w3.org/2000/svg">
<g clip-path="url(#clip0_61_17084)">
<path d="M16 10.531C15.71 10.241 15.23 10.241 14.94 10.531L10.59 14.881L9 13.291C8.71 13.001 8.23 13.001 7.94 13.291C7.65 13.581 7.65 14.061 7.94 14.351L9.88 16.291C10.27 16.681 10.9 16.681 11.29 16.291L15.99 11.591C16.29 11.301 16.29 10.821 16 10.531V10.531ZM19 3.00098H18V2.00098C18 1.45098 17.55 1.00098 17 1.00098C16.45 1.00098 16 1.45098 16 2.00098V3.00098H8V2.00098C8 1.45098 7.55 1.00098 7 1.00098C6.45 1.00098 6 1.45098 6 2.00098V3.00098H5C3.89 3.00098 3.01 3.90098 3.01 5.00098L3 19.001C3 20.101 3.89 21.001 5 21.001H19C20.1 21.001 21 20.101 21 19.001V5.00098C21 3.90098 20.1 3.00098 19 3.00098ZM18 19.001H6C5.45 19.001 5 18.551 5 18.001V8.00098H19V18.001C19 18.551 18.55 19.001 18 19.001Z" fill="black"/>
</g>
<defs>
<clipPath id="clip0_61_17084">
<rect width="24" height="24" fill="white" transform="translate(0 0.000976562)"/>
</clipPath>
</defs>
</svg>
