<svg   viewBox="0 0 24 24" fill="none" xmlns="http://www.w3.org/2000/svg">
<g clip-path="url(#clip0_61_17087)">
<path d="M20 6.00098H12L10.59 4.59098C10.21 4.21098 9.7 4.00098 9.17 4.00098H4C2.9 4.00098 2 4.90098 2 6.00098V18.001C2 19.101 2.9 20.001 4 20.001H20C21.1 20.001 22 19.101 22 18.001V8.00098C22 6.90098 21.1 6.00098 20 6.00098ZM16.94 16.411L15 15.281L13.06 16.411C12.68 16.631 12.22 16.291 12.32 15.861L12.83 13.661L11.14 12.201C10.81 11.911 10.98 11.361 11.42 11.321L13.65 11.131L14.53 9.07098C14.7 8.67098 15.28 8.67098 15.45 9.07098L16.33 11.131L18.56 11.321C19 11.361 19.18 11.911 18.84 12.201L17.15 13.661L17.66 15.861C17.77 16.291 17.31 16.631 16.94 16.411V16.411Z" fill="black"/>
</g>
<defs>
<clipPath id="clip0_61_17087">
<rect width="24" height="24" fill="white" transform="translate(0 0.000976562)"/>
</clipPath>
</defs>
</svg>
