<svg   viewBox="0 0 24 24" fill="none" xmlns="http://www.w3.org/2000/svg">
<g clip-path="url(#clip0_61_17088)">
<path d="M10.5 17.1512L14.48 14.8712C15.15 14.4912 15.15 13.5212 14.48 13.1312L10.5 10.8512C9.83 10.4712 9 10.9612 9 11.7212V16.2712C9 17.0412 9.83 17.5312 10.5 17.1512ZM21 6.00117H13.41L16.35 3.06117C16.55 2.86117 16.55 2.55117 16.35 2.35117C16.15 2.15117 15.84 2.15117 15.64 2.35117L12 5.99117L8.36 2.35117C8.16 2.15117 7.85 2.15117 7.65 2.35117C7.45 2.55117 7.45 2.86117 7.65 3.06117L10.59 6.00117H3C1.9 6.00117 1 6.89117 1 8.00117V20.0012C1 21.1012 1.9 22.0012 3 22.0012H21C22.1 22.0012 23 21.1012 23 20.0012V8.00117C23 6.89117 22.1 6.00117 21 6.00117ZM20 20.0012H4C3.45 20.0012 3 19.5512 3 19.0012V9.00117C3 8.45117 3.45 8.00117 4 8.00117H20C20.55 8.00117 21 8.45117 21 9.00117V19.0012C21 19.5512 20.55 20.0012 20 20.0012Z" fill="black"/>
</g>
<defs>
<clipPath id="clip0_61_17088">
<rect width="24" height="24" fill="white" transform="translate(0 0.000976562)"/>
</clipPath>
</defs>
</svg>
