<svg   viewBox="0 0 24 24" fill="none" xmlns="http://www.w3.org/2000/svg">
<g clip-path="url(#clip0_61_17089)">
<path d="M20 2.00098H4C2.9 2.00098 2 2.90098 2 4.00098V22.001L6 18.001H20C21.1 18.001 22 17.101 22 16.001V4.00098C22 2.90098 21.1 2.00098 20 2.00098ZM5.63 13.191L8.12 9.99098C8.32 9.74098 8.7 9.73098 8.9 9.98098L11 12.511L14.1 8.52098C14.3 8.26098 14.7 8.26098 14.9 8.53098L18.41 13.211C18.66 13.541 18.42 14.011 18.01 14.011H6.02C5.61 14.001 5.37 13.521 5.63 13.191V13.191Z" fill="black"/>
</g>
<defs>
<clipPath id="clip0_61_17089">
<rect width="24" height="24" fill="white" transform="translate(0 0.000976562)"/>
</clipPath>
</defs>
</svg>
