<svg viewBox="0 0 24 24" xmlns="http://www.w3.org/2000/svg">
<g clip-path="url(#clip0_61_17090)">
<path d="M21.9981 3.00098H6.99813C6.30813 3.00098 5.76812 3.35098 5.40812 3.88098L0.368125 11.451C0.148125 11.791 0.148125 12.221 0.368125 12.561L5.40812 20.121C5.76812 20.641 6.37813 21.001 7.06813 21.001H21.9981C23.0981 21.001 23.9981 20.101 23.9981 19.001V5.00098C23.9981 3.90098 23.0981 3.00098 21.9981 3.00098ZM8.99813 13.501C8.16813 13.501 7.49813 12.831 7.49813 12.001C7.49813 11.171 8.16813 10.501 8.99813 10.501C9.82813 10.501 10.4981 11.171 10.4981 12.001C10.4981 12.831 9.82813 13.501 8.99813 13.501ZM13.9981 13.501C13.1681 13.501 12.4981 12.831 12.4981 12.001C12.4981 11.171 13.1681 10.501 13.9981 10.501C14.8281 10.501 15.4981 11.171 15.4981 12.001C15.4981 12.831 14.8281 13.501 13.9981 13.501ZM18.9981 13.501C18.1681 13.501 17.4981 12.831 17.4981 12.001C17.4981 11.171 18.1681 10.501 18.9981 10.501C19.8281 10.501 20.4981 11.171 20.4981 12.001C20.4981 12.831 19.8281 13.501 18.9981 13.501Z"/>
</g>
<defs>
<clipPath id="clip0_61_17090">
<rect transform="translate(0 0.000976562)"/>
</clipPath>
</defs>
</svg>
