<svg   viewBox="0 0 24 24" fill="none" xmlns="http://www.w3.org/2000/svg">
<g clip-path="url(#clip0_61_17091)">
<path d="M15.8982 5.00105C15.7282 5.00105 15.5782 5.09105 15.4882 5.23105L15.4182 5.38105L10.2382 17.0311C10.0782 17.3211 9.97816 17.6411 9.97816 17.9911C9.97816 19.1011 10.8782 20.0011 11.9882 20.0011C12.9482 20.0011 13.7582 19.3211 13.9482 18.4111L13.9582 18.3811L16.3982 5.50105C16.3982 5.22105 16.1782 5.00105 15.8982 5.00105V5.00105ZM2.05816 10.0611C2.56816 10.5711 3.38816 10.6111 3.94816 10.1511C6.70816 7.89105 10.1882 6.97105 13.5282 7.39105L14.7182 4.71105C10.3682 3.93105 5.75816 5.01105 2.14816 7.96105C1.50816 8.49105 1.46816 9.47105 2.05816 10.0611V10.0611ZM21.9382 10.0611C22.5282 9.47105 22.4882 8.49105 21.8382 7.96105C20.4782 6.85105 18.9782 6.01105 17.3982 5.43105L16.8682 8.25105C17.9982 8.72105 19.0582 9.34105 20.0382 10.1411C20.6182 10.6011 21.4282 10.5711 21.9382 10.0611V10.0611ZM17.9082 14.0911C18.5082 13.4911 18.4682 12.4611 17.7682 11.9711C17.3082 11.6411 16.8282 11.3611 16.3282 11.1111L15.7782 14.0311C15.8882 14.1011 15.9982 14.1711 16.0982 14.2511C16.6682 14.6511 17.4282 14.5711 17.9082 14.0911V14.0911ZM6.07816 14.0811C6.57816 14.5811 7.34816 14.6211 7.92816 14.2111C8.86816 13.5511 9.93816 13.1511 11.0282 12.9911L12.3082 10.1111C10.1782 10.0511 8.02816 10.6511 6.21816 11.9511C5.52816 12.4611 5.47816 13.4811 6.07816 14.0811V14.0811Z" fill="black"/>
</g>
<defs>
<clipPath id="clip0_61_17091">
<rect width="24" height="24" fill="white" transform="translate(0 0.000976562)"/>
</clipPath>
</defs>
</svg>
