<svg   viewBox="0 0 24 24" fill="none" xmlns="http://www.w3.org/2000/svg">
<g clip-path="url(#clip0_61_17092)">
<path d="M22.0005 16.0007V15.5007C22.0005 14.1207 20.8805 13.0007 19.5005 13.0007C18.1205 13.0007 17.0005 14.1207 17.0005 15.5007V16.0007C16.4505 16.0007 16.0005 16.4507 16.0005 17.0007V21.0007C16.0005 21.5507 16.4505 22.0007 17.0005 22.0007H22.0005C22.5505 22.0007 23.0005 21.5507 23.0005 21.0007V17.0007C23.0005 16.4507 22.5505 16.0007 22.0005 16.0007ZM21.0005 16.0007H18.0005V15.5007C18.0005 14.6707 18.6705 14.0007 19.5005 14.0007C20.3305 14.0007 21.0005 14.6707 21.0005 15.5007V16.0007ZM19.5005 11.0007C19.6705 11.0007 19.8305 11.0307 20.0005 11.0507V3.41075C20.0005 2.52075 18.9205 2.07075 18.2905 2.70075L2.71054 18.2908C2.08054 18.9208 2.52054 20.0007 3.41054 20.0007H14.0005V17.0007C14.0005 16.0807 14.4205 15.2607 15.0705 14.7007C15.4505 12.6007 17.2905 11.0007 19.5005 11.0007Z" fill="black"/>
</g>
<defs>
<clipPath id="clip0_61_17092">
<rect width="24" height="24" fill="white" transform="translate(0 0.000976562)"/>
</clipPath>
</defs>
</svg>
