<svg viewBox="0 0 24 24" xmlns="http://www.w3.org/2000/svg">
<g clip-path="url(#clip0_61_17093)">
<path d="M8.89656 6.00098C8.89656 4.29098 10.2866 2.90098 11.9966 2.90098C13.7066 2.90098 15.0966 4.29098 15.0966 6.00098V8.00098H10.4366L19.9966 17.561V10.001C19.9966 8.90098 19.0966 8.00098 17.9966 8.00098H16.9966V6.00098C16.9966 3.24098 14.7566 1.00098 11.9966 1.00098C9.67656 1.00098 7.73656 2.59098 7.17656 4.74098L8.89656 6.46098V6.00098ZM5.11656 5.51098C4.72656 5.12098 4.09656 5.12098 3.70656 5.51098C3.31656 5.90098 3.31656 6.53098 3.70656 6.92098L5.03656 8.25098C4.41656 8.60098 3.99656 9.25098 3.99656 10.001V20.001C3.99656 21.101 4.89656 22.001 5.99656 22.001H18.7766L19.0666 22.291C19.4566 22.681 20.0866 22.681 20.4766 22.291C20.8666 21.901 20.8666 21.271 20.4766 20.881L5.11656 5.51098V5.51098Z"/>
</g>
<defs>
<clipPath id="clip0_61_17093">
<rect transform="translate(0 0.000976562)"/>
</clipPath>
</defs>
</svg>
