<svg viewBox="0 0 24 24" xmlns="http://www.w3.org/2000/svg">
<g clip-path="url(#clip0_61_17095)">
<path d="M21 3.00098H3C1.9 3.00098 1 3.90098 1 5.00098V17.001C1 18.101 1.9 19.001 3 19.001H8V20.001C8 20.551 8.45 21.001 9 21.001H15C15.55 21.001 16 20.551 16 20.001V19.001H21C22.1 19.001 22.99 18.101 22.99 17.001L23 5.00098C23 3.89098 22.1 3.00098 21 3.00098ZM20 17.001H4C3.45 17.001 3 16.551 3 16.001V6.00098C3 5.45098 3.45 5.00098 4 5.00098H20C20.55 5.00098 21 5.45098 21 6.00098V16.001C21 16.551 20.55 17.001 20 17.001ZM14.48 11.871L10.5 14.151C9.83 14.531 9 14.041 9 13.281V8.72098C9 7.95098 9.83 7.47098 10.5 7.85098L14.48 10.131C15.15 10.521 15.15 11.481 14.48 11.871Z"/>
</g>
<defs>
<clipPath id="clip0_61_17095">
<rect transform="translate(0 0.000976562)"/>
</clipPath>
</defs>
</svg>
