<svg viewBox="0 0 24 24" xmlns="http://www.w3.org/2000/svg">
<g clip-path="url(#clip0_61_17100)">
<path d="M12.8771 5.05074C16.0571 5.45074 18.5471 7.94074 18.9471 11.1207C19.0071 11.6307 19.4371 12.0007 19.9371 12.0007C19.9771 12.0007 20.0171 12.0007 20.0571 11.9907C20.6071 11.9207 20.9971 11.4207 20.9271 10.8707C20.4171 6.78074 17.2071 3.57074 13.1171 3.06074C12.5671 3.00074 12.0671 3.39074 12.0071 3.94074C11.9371 4.49074 12.3271 4.99074 12.8771 5.05074V5.05074ZM13.2571 7.16074C12.7271 7.02074 12.1771 7.34074 12.0371 7.88074C11.8971 8.42074 12.2171 8.96074 12.7571 9.10074C13.8071 9.37074 14.6271 10.1907 14.9071 11.2507C15.0271 11.7007 15.4271 12.0007 15.8771 12.0007C15.9571 12.0007 16.0471 11.9907 16.1271 11.9707C16.6571 11.8307 16.9771 11.2807 16.8471 10.7507C16.3771 8.98074 15.0071 7.61074 13.2571 7.16074ZM19.2271 15.2607L16.6871 14.9707C16.0771 14.9007 15.4771 15.1107 15.0471 15.5407L13.2071 17.3807C10.3771 15.9407 8.05711 13.6307 6.61711 10.7907L8.46711 8.94074C8.89711 8.51074 9.10711 7.91074 9.03711 7.30074L8.74711 4.78074C8.62711 3.77074 7.77711 3.01074 6.75711 3.01074H5.02711C3.89711 3.01074 2.95711 3.95074 3.02711 5.08074C3.55711 13.6207 10.3871 20.4407 18.9171 20.9707C20.0471 21.0407 20.9871 20.1007 20.9871 18.9707V17.2407C20.9971 16.2307 20.2371 15.3807 19.2271 15.2607V15.2607Z"/>
</g>
<defs>
<clipPath id="clip0_61_17100">
<rect transform="translate(0 0.000976562)"/>
</clipPath>
</defs>
</svg>
