<svg   viewBox="0 0 24 24" fill="none" xmlns="http://www.w3.org/2000/svg">
<g clip-path="url(#clip0_61_17097)">
<path d="M19.2271 15.2608L16.6871 14.9708C16.0771 14.9008 15.4771 15.1108 15.0471 15.5408L13.2071 17.3808C10.3771 15.9408 8.05711 13.6308 6.61711 10.7908L8.46711 8.94076C8.89711 8.51076 9.10711 7.91076 9.03711 7.30076L8.74711 4.78076C8.62711 3.77076 7.77711 3.01076 6.75711 3.01076H5.02711C3.89711 3.01076 2.95711 3.95076 3.02711 5.08076C3.55711 13.6208 10.3871 20.4408 18.9171 20.9708C20.0471 21.0408 20.9871 20.1008 20.9871 18.9708V17.2408C20.9971 16.2308 20.2371 15.3808 19.2271 15.2608V15.2608ZM16.7871 6.01076L14.3371 8.46076C14.1371 8.66076 14.1371 8.98076 14.3371 9.17076C14.5371 9.37076 14.8571 9.37076 15.0471 9.17076L16.9971 7.23076V10.3808C16.9971 10.5808 17.1171 10.7708 17.3071 10.8508C17.3671 10.8808 17.4371 10.8908 17.4971 10.8908C17.6271 10.8908 17.7571 10.8408 17.8571 10.7408L20.0371 8.56076C20.2371 8.36076 20.2371 8.04076 20.0371 7.85076L18.2071 6.02076L20.0371 4.19076C20.1271 4.10076 20.1871 3.97076 20.1871 3.83076C20.1871 3.69076 20.1371 3.57076 20.0371 3.47076L17.8571 1.29076C17.7171 1.15076 17.4971 1.10076 17.3071 1.18076C17.1171 1.26076 16.9971 1.44076 16.9971 1.64076V4.79076L15.0471 2.84076C14.8471 2.64076 14.5271 2.64076 14.3371 2.84076C14.1371 3.04076 14.1371 3.36076 14.3371 3.55076L16.7871 6.01076ZM18.0071 2.86076L18.9671 3.82076L18.0071 4.78076V2.86076ZM18.0071 7.23076L18.9671 8.19076L18.0071 9.15076V7.23076Z" fill="black"/>
</g>
<defs>
<clipPath id="clip0_61_17097">
<rect width="24" height="24" fill="white" transform="translate(0 0.000976562)"/>
</clipPath>
</defs>
</svg>
