<svg   viewBox="0 0 24 24" fill="none" xmlns="http://www.w3.org/2000/svg">
<g clip-path="url(#clip0_61_17101)">
<path d="M19.2271 15.261L16.6871 14.971C16.0771 14.901 15.4771 15.111 15.0471 15.541L13.2071 17.381C10.3771 15.941 8.05711 13.631 6.61711 10.791L8.46711 8.94098C8.89711 8.51098 9.10711 7.91098 9.03711 7.30098L8.74711 4.78098C8.62711 3.77098 7.77711 3.01098 6.75711 3.01098H5.02711C3.89711 3.01098 2.95711 3.95098 3.02711 5.08098C3.55711 13.621 10.3871 20.441 18.9171 20.971C20.0471 21.041 20.9871 20.101 20.9871 18.971V17.241C20.9971 16.231 20.2371 15.381 19.2271 15.261V15.261ZM19.9971 4.00098V3.50098C19.9971 2.12098 18.8771 1.00098 17.4971 1.00098C16.1171 1.00098 14.9971 2.12098 14.9971 3.50098V4.00098C14.4471 4.00098 13.9971 4.45098 13.9971 5.00098V9.00098C13.9971 9.55098 14.4471 10.001 14.9971 10.001H19.9971C20.5471 10.001 20.9971 9.55098 20.9971 9.00098V5.00098C20.9971 4.45098 20.5471 4.00098 19.9971 4.00098ZM18.9971 4.00098H15.9971V3.50098C15.9971 2.67098 16.6671 2.00098 17.4971 2.00098C18.3271 2.00098 18.9971 2.67098 18.9971 3.50098V4.00098Z" fill="black"/>
</g>
<defs>
<clipPath id="clip0_61_17101">
<rect width="24" height="24" fill="white" transform="translate(0 0.000976562)"/>
</clipPath>
</defs>
</svg>
