<svg   viewBox="0 0 24 24" fill="none" xmlns="http://www.w3.org/2000/svg">
<g clip-path="url(#clip0_61_17098)">
<path d="M19.2271 15.2608L16.6871 14.9708C16.0771 14.9008 15.4771 15.1108 15.0471 15.5408L13.2071 17.3808C10.3771 15.9408 8.05711 13.6308 6.61711 10.7908L8.46711 8.94078C8.89711 8.51078 9.10711 7.91078 9.03711 7.30078L8.74711 4.78078C8.62711 3.77078 7.77711 3.01078 6.75711 3.01078H5.02711C3.89711 3.01078 2.95711 3.95078 3.02711 5.08078C3.55711 13.6208 10.3871 20.4408 18.9171 20.9708C20.0471 21.0408 20.9871 20.1008 20.9871 18.9708V17.2408C20.9971 16.2308 20.2371 15.3808 19.2271 15.2608V15.2608ZM12.9971 11.0008H16.9971C17.5471 11.0008 17.9971 10.5508 17.9971 10.0008C17.9971 9.45078 17.5471 9.00078 16.9971 9.00078H15.4071L19.7171 4.69078C20.1071 4.30078 20.1071 3.67078 19.7171 3.28078C19.3271 2.89078 18.6971 2.89078 18.3071 3.28078L13.9971 7.59078V6.00078C13.9971 5.45078 13.5471 5.00078 12.9971 5.00078C12.4471 5.00078 11.9971 5.45078 11.9971 6.00078V10.0008C11.9971 10.5508 12.4471 11.0008 12.9971 11.0008Z" fill="black"/>
</g>
<defs>
<clipPath id="clip0_61_17098">
<rect width="24" height="24" fill="white" transform="translate(0 0.000976562)"/>
</clipPath>
</defs>
</svg>
