<svg   viewBox="0 0 24 24" fill="none" xmlns="http://www.w3.org/2000/svg">
<g clip-path="url(#clip0_61_17099)">
<path d="M22.6471 5.65101L18.8571 1.86101C18.5371 1.54101 17.9971 1.76101 17.9971 2.21101V4.00101H14.4971C14.2171 4.00101 13.9971 4.22101 13.9971 4.50101V7.50101C13.9971 7.78101 14.2171 8.00101 14.4971 8.00101H17.9971V9.79101C17.9971 10.241 18.5371 10.461 18.8471 10.141L22.6371 6.35101C22.8371 6.16101 22.8371 5.84101 22.6471 5.65101V5.65101ZM19.2271 15.261L16.6871 14.971C16.0771 14.901 15.4771 15.111 15.0471 15.541L13.2071 17.381C10.3771 15.941 8.05711 13.631 6.61711 10.791L8.46711 8.94101C8.89711 8.51101 9.10711 7.91101 9.03711 7.30101L8.74711 4.78101C8.62711 3.77101 7.77711 3.01101 6.75711 3.01101H5.02711C3.89711 3.01101 2.95711 3.95101 3.02711 5.08101C3.55711 13.621 10.3871 20.441 18.9171 20.971C20.0471 21.041 20.9871 20.101 20.9871 18.971V17.241C20.9971 16.231 20.2371 15.381 19.2271 15.261V15.261Z" fill="black"/>
</g>
<defs>
<clipPath id="clip0_61_17099">
<rect width="24" height="24" fill="white" transform="translate(0 0.000976562)"/>
</clipPath>
</defs>
</svg>
