<svg viewBox="0 0 24 24" xmlns="http://www.w3.org/2000/svg">
<g clip-path="url(#clip0_61_17102)">
<path d="M23.0898 16.201C16.7598 10.611 7.22983 10.611 0.909831 16.201C0.0698314 16.941 0.0698313 18.251 0.859831 19.041L2.05983 20.241C2.76983 20.951 3.89983 21.011 4.67983 20.391L6.64983 18.821C7.11983 18.451 7.39983 17.881 7.39983 17.271V14.701C10.3798 13.731 13.6098 13.721 16.5998 14.701V17.281C16.5998 17.881 16.8798 18.451 17.3498 18.831L19.3098 20.391C20.0998 21.011 21.2198 20.951 21.9298 20.241L23.1298 19.041C23.9298 18.251 23.9198 16.941 23.0898 16.201V16.201ZM5.99983 9.00098C6.54983 9.00098 6.99983 8.55098 6.99983 8.00098V6.43098L11.2398 10.671C11.6298 11.061 12.2598 11.061 12.6498 10.671L18.3098 5.01098C18.6998 4.62098 18.6998 3.99098 18.3098 3.60098C17.9198 3.21098 17.2898 3.21098 16.8998 3.60098L11.9498 8.55098L8.39983 5.00098H9.99983C10.5498 5.00098 10.9998 4.55098 10.9998 4.00098C10.9998 3.45098 10.5498 3.00098 9.99983 3.00098H5.99983C5.44983 3.00098 4.99983 3.45098 4.99983 4.00098V8.00098C4.99983 8.55098 5.44983 9.00098 5.99983 9.00098Z"/>
</g>
<defs>
<clipPath id="clip0_61_17102">
<rect transform="translate(0 0.000976562)"/>
</clipPath>
</defs>
</svg>
