<svg   viewBox="0 0 24 24" fill="none" xmlns="http://www.w3.org/2000/svg">
<g clip-path="url(#clip0_61_17104)">
<path d="M16.01 7.00098L16 4.00098C16 3.45098 15.55 3.00098 15 3.00098C14.45 3.00098 14 3.45098 14 4.00098V7.00098H10V4.00098C10 3.45098 9.55 3.00098 9 3.00098C8.45 3.00098 8 3.45098 8 4.00098V7.00098H7.99C6.9 7.00098 6 7.90098 6 8.99098V13.651C6 14.181 6.21 14.691 6.58 15.061L9.5 18.001V20.001C9.5 20.551 9.95 21.001 10.5 21.001H13.5C14.05 21.001 14.5 20.551 14.5 20.001V18.001L17.42 15.081C17.79 14.701 18 14.191 18 13.661V8.99098C18 7.89098 17.11 7.00098 16.01 7.00098Z" fill="black"/>
</g>
<defs>
<clipPath id="clip0_61_17104">
<rect width="24" height="24" fill="white" transform="translate(0 0.000976562)"/>
</clipPath>
</defs>
</svg>
