<svg viewBox="0 0 24 24" xmlns="http://www.w3.org/2000/svg">
<g clip-path="url(#clip0_61_17105)">
<path d="M17.9975 13.661V8.99098C17.9975 7.99098 16.9875 6.99098 15.9975 7.00098V4.00098C15.9975 3.45098 15.5475 3.00098 14.9975 3.00098C14.4475 3.00098 13.9975 3.45098 13.9975 4.00098V7.00098H10.1175L17.7475 14.631C17.8975 14.331 17.9975 14.001 17.9975 13.661V13.661ZM9.9975 4.00098C9.9975 3.45098 9.5475 3.00098 8.9975 3.00098C8.4475 3.00098 7.9975 3.45098 7.9975 4.00098V4.88098L9.9975 6.88098V4.00098ZM20.1475 19.861L12.4875 12.201L7.3875 7.10098L4.8275 4.54098C4.4375 4.15098 3.8075 4.15098 3.4175 4.54098C3.0275 4.93098 3.0275 5.56098 3.4175 5.95098L6.0475 8.58098C6.0175 8.71098 5.9975 8.85098 5.9975 8.99098V13.651C5.9975 14.181 6.2075 14.691 6.5775 15.061L9.4975 18.001V20.001C9.4975 20.551 9.9475 21.001 10.4975 21.001H13.4975C14.0475 21.001 14.4975 20.551 14.4975 20.001V18.001L14.9775 17.521L18.7375 21.281C19.1275 21.671 19.7575 21.671 20.1475 21.281C20.5375 20.891 20.5375 20.251 20.1475 19.861V19.861Z"/>
</g>
<defs>
<clipPath id="clip0_61_17105">
<rect transform="translate(0 0.000976562)"/>
</clipPath>
</defs>
</svg>
