<svg   viewBox="0 0 24 24" fill="none" xmlns="http://www.w3.org/2000/svg">
<g clip-path="url(#clip0_61_17107)">
<path d="M18 2.00098H10.83C10.3 2.00098 9.79 2.21098 9.41 2.59098L4.6 7.42098C4.23 7.79098 4 8.30098 4 8.82098V20.001C4 21.101 4.9 22.001 6 22.001H18C19.1 22.001 20 21.101 20 20.001V4.00098C20 2.90098 19.1 2.00098 18 2.00098ZM11 8.00098C10.45 8.00098 10 7.55098 10 7.00098V5.00098C10 4.45098 10.45 4.00098 11 4.00098C11.55 4.00098 12 4.45098 12 5.00098V7.00098C12 7.55098 11.55 8.00098 11 8.00098ZM14 8.00098C13.45 8.00098 13 7.55098 13 7.00098V5.00098C13 4.45098 13.45 4.00098 14 4.00098C14.55 4.00098 15 4.45098 15 5.00098V7.00098C15 7.55098 14.55 8.00098 14 8.00098ZM17 8.00098C16.45 8.00098 16 7.55098 16 7.00098V5.00098C16 4.45098 16.45 4.00098 17 4.00098C17.55 4.00098 18 4.45098 18 5.00098V7.00098C18 7.55098 17.55 8.00098 17 8.00098Z" fill="black"/>
</g>
<defs>
<clipPath id="clip0_61_17107">
<rect width="24" height="24" fill="white" transform="translate(0 0.000976562)"/>
</clipPath>
</defs>
</svg>
