<svg   viewBox="0 0 24 24" fill="none" xmlns="http://www.w3.org/2000/svg">
<g clip-path="url(#clip0_61_17108)">
<path d="M18 2.00098H10.83C10.3 2.00098 9.79 2.21098 9.41 2.59098L4.6 7.42098C4.23 7.79098 4.02 8.30098 4.02 8.82098L4 20.001C4 21.101 4.9 22.001 6 22.001H18C19.1 22.001 20 21.101 20 20.001V4.00098C20 2.90098 19.1 2.00098 18 2.00098ZM13 17.001H11V15.001H13V17.001ZM12 13.001C11.45 13.001 11 12.551 11 12.001V9.00098C11 8.45098 11.45 8.00098 12 8.00098C12.55 8.00098 13 8.45098 13 9.00098V12.001C13 12.551 12.55 13.001 12 13.001Z" fill="black"/>
</g>
<defs>
<clipPath id="clip0_61_17108">
<rect width="24" height="24" fill="white" transform="translate(0 0.000976562)"/>
</clipPath>
</defs>
</svg>
