<svg viewBox="0 0 24 24" xmlns="http://www.w3.org/2000/svg">
<g clip-path="url(#clip0_61_17110)">
<path d="M20 2.00098H4C2.9 2.00098 2 2.90098 2 4.00098V22.001L6 18.001H20C21.1 18.001 22 17.101 22 16.001V4.00098C22 2.90098 21.1 2.00098 20 2.00098ZM13 14.001H11V12.001H13V14.001ZM12 10.001C11.45 10.001 11 9.55098 11 9.00098V7.00098C11 6.45098 11.45 6.00098 12 6.00098C12.55 6.00098 13 6.45098 13 7.00098V9.00098C13 9.55098 12.55 10.001 12 10.001Z"/>
</g>
<defs>
<clipPath id="clip0_61_17110">
<rect transform="translate(0 0.000976562)"/>
</clipPath>
</defs>
</svg>
