<svg   viewBox="0 0 24 24" fill="none" xmlns="http://www.w3.org/2000/svg">
<g clip-path="url(#clip0_61_17113)">
<path d="M10.0037 5.74098V5.55098C10.0037 4.87098 9.29375 4.44098 8.68375 4.73098C8.49375 4.82098 8.32375 4.93098 8.14375 5.03098L9.60375 6.49098C9.84375 6.31098 10.0037 6.04098 10.0037 5.74098ZM20.0037 12.001C20.0037 9.79098 19.0937 7.80098 17.6437 6.36098L19.1537 4.85098C19.4637 4.54098 19.2438 4.00098 18.7938 4.00098H14.0037V8.79098C14.0037 9.24098 14.5438 9.46098 14.8538 9.14098L16.2437 7.75098C17.3237 8.85098 18.0037 10.341 18.0037 12.001C18.0037 12.851 17.8237 13.661 17.5037 14.391L18.9837 15.871C19.6237 14.721 20.0037 13.411 20.0037 12.001ZM3.57375 4.70098C3.18375 5.09098 3.18375 5.72098 3.57375 6.11098L5.22375 7.76098C4.45375 9.00098 4.00375 10.441 4.00375 12.001C4.00375 14.211 4.91375 16.201 6.36375 17.641L4.85375 19.151C4.54375 19.461 4.76375 20.001 5.21375 20.001H9.50375C9.78375 20.001 10.0037 19.781 10.0037 19.501V15.211C10.0037 14.761 9.46375 14.541 9.15375 14.861L7.76375 16.251C6.68375 15.151 6.00375 13.661 6.00375 12.001C6.00375 11.001 6.26375 10.071 6.69375 9.24098L14.7638 17.311C14.7538 17.331 14.7537 17.331 14.7537 17.351C14.3237 17.471 14.0037 17.831 14.0037 18.261V18.441C14.0037 19.121 14.7137 19.551 15.3237 19.261C15.6337 19.121 15.9337 18.951 16.2237 18.771L18.0938 20.641C18.4837 21.031 19.1137 21.031 19.5037 20.641C19.8937 20.251 19.8937 19.621 19.5037 19.231L4.98375 4.70098C4.59375 4.31098 3.96375 4.31098 3.57375 4.70098V4.70098Z" fill="black"/>
</g>
<defs>
<clipPath id="clip0_61_17113">
<rect width="24" height="24" fill="white" transform="translate(0 0.000976562)"/>
</clipPath>
</defs>
</svg>
