<svg   viewBox="0 0 24 24" fill="none" xmlns="http://www.w3.org/2000/svg">
<g clip-path="url(#clip0_61_17114)">
<path d="M3 12.001C3 14.211 3.91 16.201 5.36 17.641L3.85 19.151C3.54 19.461 3.76 20.001 4.21 20.001H8.5C8.78 20.001 9 19.781 9 19.501V15.211C9 14.761 8.46 14.541 8.15 14.861L6.76 16.251C5.68 15.151 5 13.661 5 12.001C5 9.61098 6.4 7.54098 8.43 6.58098C8.77 6.42098 9 6.11098 9 5.74098V5.55098C9 4.87098 8.29 4.44098 7.68 4.73098C4.92 5.99098 3 8.77098 3 12.001ZM11 17.001H13V15.001H11V17.001ZM19.79 4.00098H15.5C15.22 4.00098 15 4.22098 15 4.50098V8.79098C15 9.24098 15.54 9.46098 15.85 9.14098L17.24 7.75098C18.32 8.85098 19 10.341 19 12.001C19 14.391 17.6 16.461 15.57 17.421C15.23 17.581 15 17.891 15 18.261V18.441C15 19.121 15.71 19.551 16.32 19.261C19.08 18.011 21 15.231 21 12.001C21 9.79098 20.09 7.80098 18.64 6.36098L20.15 4.85098C20.46 4.54098 20.24 4.00098 19.79 4.00098V4.00098ZM12 13.001C12.55 13.001 13 12.551 13 12.001V8.00098C13 7.45098 12.55 7.00098 12 7.00098C11.45 7.00098 11 7.45098 11 8.00098V12.001C11 12.551 11.45 13.001 12 13.001Z" fill="black"/>
</g>
<defs>
<clipPath id="clip0_61_17114">
<rect width="24" height="24" fill="white" transform="translate(0 0.000976562)"/>
</clipPath>
</defs>
</svg>
