<svg   viewBox="0 0 24 24" fill="none" xmlns="http://www.w3.org/2000/svg">
<g clip-path="url(#clip0_61_17112)">
<path d="M12 4.00101V2.21101C12 1.76101 11.46 1.54101 11.15 1.86101L8.35 4.65101C8.15 4.85101 8.15 5.16101 8.35 5.36101L11.14 8.15101C11.46 8.46101 12 8.24101 12 7.79101V6.00101C15.31 6.00101 18 8.69101 18 12.001C18 12.791 17.85 13.561 17.56 14.251C17.41 14.611 17.52 15.021 17.79 15.291C18.3 15.801 19.16 15.621 19.43 14.951C19.8 14.041 20 13.041 20 12.001C20 7.58101 16.42 4.00101 12 4.00101ZM12 18.001C8.69 18.001 6 15.311 6 12.001C6 11.211 6.15 10.441 6.44 9.75101C6.59 9.39101 6.48 8.98101 6.21 8.71101C5.7 8.20101 4.84 8.38101 4.57 9.05101C4.2 9.96101 4 10.961 4 12.001C4 16.421 7.58 20.001 12 20.001V21.791C12 22.241 12.54 22.461 12.85 22.141L15.64 19.351C15.84 19.151 15.84 18.841 15.64 18.641L12.85 15.851C12.54 15.541 12 15.761 12 16.211V18.001V18.001Z" fill="black"/>
</g>
<defs>
<clipPath id="clip0_61_17112">
<rect width="24" height="24" fill="white" transform="translate(0 0.000976562)"/>
</clipPath>
</defs>
</svg>
