<svg viewBox="0 0 24 24" xmlns="http://www.w3.org/2000/svg">
<g clip-path="url(#clip0_61_17115)">
<path d="M17 1.01098L7 1.00098C5.9 1.00098 5 1.90098 5 3.00098V21.001C5 22.101 5.9 23.001 7 23.001H17C18.1 23.001 19 22.101 19 21.001V3.00098C19 1.90098 18.1 1.01098 17 1.01098ZM17 19.001H7V5.00098H17V19.001ZM14.79 13.001H13V9.00098C13 8.45098 12.55 8.00098 12 8.00098C11.45 8.00098 11 8.45098 11 9.00098V13.001H9.21C8.76 13.001 8.54 13.541 8.86 13.851L11.65 16.641C11.85 16.841 12.16 16.841 12.36 16.641L15.15 13.851C15.46 13.541 15.24 13.001 14.79 13.001V13.001Z"/>
</g>
<defs>
<clipPath id="clip0_61_17115">
<rect transform="translate(0 0.000976562)"/>
</clipPath>
</defs>
</svg>
