<svg   viewBox="0 0 24 24" fill="none" xmlns="http://www.w3.org/2000/svg">
<g clip-path="url(#clip0_61_17116)">
<path d="M3.14 16.091C2.54 15.991 2 16.481 2 17.091C2 17.581 2.36 17.991 2.85 18.071C4.93 18.431 6.57 20.071 6.93 22.151C7.01 22.641 7.42 23.001 7.91 23.001C8.52 23.001 9 22.461 8.91 21.861C8.43 18.911 6.1 16.571 3.14 16.091V16.091ZM2 20.001V23.001H5C5 21.341 3.66 20.001 2 20.001ZM3.11 12.061C2.52 12.001 2 12.461 2 13.051C2 13.551 2.37 13.991 2.87 14.041C7.14 14.451 10.54 17.851 10.95 22.121C11 22.621 11.43 23.001 11.94 23.001C12.53 23.001 13 22.491 12.94 21.901C12.43 16.701 8.31 12.581 3.11 12.061V12.061ZM17 1.01098L7 1.00098C5.9 1.00098 5 1.90098 5 3.00098V10.371C5.69 10.531 6.36 10.741 7 11.011V5.00098H17V18.001H13.97C14.49 19.251 14.81 20.591 14.92 22.001H17C18.1 22.001 19 21.101 19 20.001V3.00098C19 1.90098 18.1 1.01098 17 1.01098Z" fill="black"/>
</g>
<defs>
<clipPath id="clip0_61_17116">
<rect width="24" height="24" fill="white" transform="translate(0 0.000976562)"/>
</clipPath>
</defs>
</svg>
