<svg   viewBox="0 0 24 24" fill="none" xmlns="http://www.w3.org/2000/svg">
<g clip-path="url(#clip0_61_17117)">
<path d="M18.92 5.01098C18.72 4.42098 18.16 4.00098 17.5 4.00098H6.5C5.84 4.00098 5.29 4.42098 5.08 5.01098L3.11 10.681C3.04 10.891 3 11.111 3 11.341V18.501C3 19.331 3.67 20.001 4.5 20.001C5.33 20.001 6 19.331 6 18.501V18.001H18V18.501C18 19.321 18.67 20.001 19.5 20.001C20.32 20.001 21 19.331 21 18.501V11.341C21 11.121 20.96 10.891 20.89 10.681L18.92 5.01098ZM6.5 15.001C5.67 15.001 5 14.331 5 13.501C5 12.671 5.67 12.001 6.5 12.001C7.33 12.001 8 12.671 8 13.501C8 14.331 7.33 15.001 6.5 15.001ZM17.5 15.001C16.67 15.001 16 14.331 16 13.501C16 12.671 16.67 12.001 17.5 12.001C18.33 12.001 19 12.671 19 13.501C19 14.331 18.33 15.001 17.5 15.001ZM5 10.001L6.27 6.18098C6.41 5.78098 6.79 5.50098 7.22 5.50098H16.78C17.21 5.50098 17.59 5.78098 17.73 6.18098L19 10.001H5Z" fill="black"/>
</g>
<defs>
<clipPath id="clip0_61_17117">
<rect width="24" height="24" fill="white" transform="translate(0 0.000976562)"/>
</clipPath>
</defs>
</svg>
