<svg viewBox="0 0 24 24" xmlns="http://www.w3.org/2000/svg">
<g clip-path="url(#clip0_61_17118)">
<path d="M21 8.00117V17.8812L22.85 19.7312C22.95 19.5112 23 19.2612 23 19.0012V7.00117C23 5.89117 22.1 5.00117 21 5.00117H13.41L16.35 2.06117C16.55 1.86117 16.55 1.55117 16.35 1.35117C16.15 1.15117 15.84 1.15117 15.64 1.35117L12 4.99117L8.36 1.35117C8.16 1.15117 7.85 1.15117 7.65 1.35117C7.45 1.55117 7.45 1.86117 7.65 2.06117L10.59 5.00117H8.12L10.12 7.00117H20C20.55 7.00117 21 7.45117 21 8.00117ZM3.12 2.83117C2.73 2.44117 2.1 2.44117 1.71 2.83117C1.32 3.22117 1.32 3.85117 1.71 4.24117L2.53 5.06117C1.65 5.28117 1 6.06117 1 7.00117V19.0012C1 20.1012 1.9 21.0012 3 21.0012H18.46L19.75 22.2912C20.14 22.6812 20.77 22.6812 21.16 22.2912C21.52 21.9312 21.53 21.3712 21.23 20.9812H21.26L3.12 2.83117ZM3 18.0012V8.00117C3 7.45117 3.45 7.00117 4 7.00117H4.46L16.46 19.0012H4C3.45 19.0012 3 18.5512 3 18.0012Z"/>
</g>
<defs>
<clipPath id="clip0_61_17118">
<rect transform="translate(0 0.000976562)"/>
</clipPath>
</defs>
</svg>
