<svg viewBox="0 0 24 24" xmlns="http://www.w3.org/2000/svg">
<g clip-path="url(#clip0_61_17119)">
<path d="M1 15.001C1.55 15.001 2 14.551 2 14.001V10.001C2 9.45098 1.55 9.00098 1 9.00098C0.45 9.00098 0 9.45098 0 10.001V14.001C0 14.551 0.45 15.001 1 15.001ZM4 17.001C4.55 17.001 5 16.551 5 16.001V8.00098C5 7.45098 4.55 7.00098 4 7.00098C3.45 7.00098 3 7.45098 3 8.00098V16.001C3 16.551 3.45 17.001 4 17.001ZM22 10.001V14.001C22 14.551 22.45 15.001 23 15.001C23.55 15.001 24 14.551 24 14.001V10.001C24 9.45098 23.55 9.00098 23 9.00098C22.45 9.00098 22 9.45098 22 10.001ZM20 17.001C20.55 17.001 21 16.551 21 16.001V8.00098C21 7.45098 20.55 7.00098 20 7.00098C19.45 7.00098 19 7.45098 19 8.00098V16.001C19 16.551 19.45 17.001 20 17.001ZM16.5 3.00098H7.5C6.67 3.00098 6 3.67098 6 4.50098V19.501C6 20.331 6.67 21.001 7.5 21.001H16.5C17.33 21.001 18 20.331 18 19.501V4.50098C18 3.67098 17.33 3.00098 16.5 3.00098ZM16 19.001H8V5.00098H16V19.001Z"/>
</g>
<defs>
<clipPath id="clip0_61_17119">
<rect transform="translate(0 0.000976562)"/>
</clipPath>
</defs>
</svg>
