<svg   viewBox="0 0 24 24" fill="none" xmlns="http://www.w3.org/2000/svg">
<g clip-path="url(#clip0_61_17120)">
<path d="M20 2.00098H4C2.9 2.00098 2.01 2.90098 2.01 4.00098L2 22.001L6 18.001H20C21.1 18.001 22 17.101 22 16.001V4.00098C22 2.90098 21.1 2.00098 20 2.00098ZM16.38 12.701L14 10.801V13.001C14 13.551 13.55 14.001 13 14.001H7C6.45 14.001 6 13.551 6 13.001V7.00098C6 6.45098 6.45 6.00098 7 6.00098H13C13.55 6.00098 14 6.45098 14 7.00098V9.20098L16.38 7.30098C17.03 6.78098 18 7.24098 18 8.08098V11.921C18 12.761 17.03 13.221 16.38 12.701V12.701Z" fill="black"/>
</g>
<defs>
<clipPath id="clip0_61_17120">
<rect width="24" height="24" fill="white" transform="translate(0 0.000976562)"/>
</clipPath>
</defs>
</svg>
