<svg   viewBox="0 0 24 24" fill="none" xmlns="http://www.w3.org/2000/svg">
<g clip-path="url(#clip0_61_17121)">
<path d="M18.92 12.001C18.96 12.331 19 12.661 19 13.001C19 15.081 18.2 16.971 16.9 18.391C16.64 17.581 15.9 17.001 15 17.001H14V14.001C14 13.451 13.55 13.001 13 13.001H7V11.001H9C9.55 11.001 10 10.551 10 10.001V8.00098H12C13.1 8.00098 14 7.10098 14 6.00098V3.46098C13.05 3.16098 12.05 3.00098 11 3.00098C5.48 3.00098 1 7.48098 1 13.001C1 18.521 5.48 23.001 11 23.001C16.52 23.001 21 18.521 21 13.001C21 12.661 20.98 12.331 20.95 12.001H18.92V12.001ZM10 20.931C6.05 20.441 3 17.081 3 13.001C3 12.381 3.08 11.791 3.21 11.211L8 16.001V17.001C8 18.101 8.9 19.001 10 19.001V20.931ZM22 4.00098V3.50098C22 2.12098 20.88 1.00098 19.5 1.00098C18.12 1.00098 17 2.12098 17 3.50098V4.00098C16.45 4.00098 16 4.45098 16 5.00098V9.00098C16 9.55098 16.45 10.001 17 10.001H22C22.55 10.001 23 9.55098 23 9.00098V5.00098C23 4.45098 22.55 4.00098 22 4.00098ZM21 4.00098H18V3.50098C18 2.67098 18.67 2.00098 19.5 2.00098C20.33 2.00098 21 2.67098 21 3.50098V4.00098Z" fill="black"/>
</g>
<defs>
<clipPath id="clip0_61_17121">
<rect width="24" height="24" fill="white" transform="translate(0 0.000976562)"/>
</clipPath>
</defs>
</svg>
