<svg   viewBox="0 0 24 24" fill="none" xmlns="http://www.w3.org/2000/svg">
<g clip-path="url(#clip0_61_17122)">
<path d="M5.5 21.001V14.501H5C4.45 14.501 4 14.051 4 13.501V9.00098C4 7.90098 4.9 7.00098 6 7.00098H9C10.1 7.00098 11 7.90098 11 9.00098V13.501C11 14.051 10.55 14.501 10 14.501H9.5V21.001C9.5 21.551 9.05 22.001 8.5 22.001H6.5C5.95 22.001 5.5 21.551 5.5 21.001ZM18 21.001V16.001H19.61C20.29 16.001 20.77 15.331 20.56 14.681L18.46 8.37098C18.18 7.55098 17.42 7.00098 16.56 7.00098H16.44C15.58 7.00098 14.81 7.55098 14.54 8.37098L12.44 14.681C12.22 15.331 12.7 16.001 13.39 16.001H15V21.001C15 21.551 15.45 22.001 16 22.001H17C17.55 22.001 18 21.551 18 21.001ZM7.5 6.00098C8.61 6.00098 9.5 5.11098 9.5 4.00098C9.5 2.89098 8.61 2.00098 7.5 2.00098C6.39 2.00098 5.5 2.89098 5.5 4.00098C5.5 5.11098 6.39 6.00098 7.5 6.00098ZM16.5 6.00098C17.61 6.00098 18.5 5.11098 18.5 4.00098C18.5 2.89098 17.61 2.00098 16.5 2.00098C15.39 2.00098 14.5 2.89098 14.5 4.00098C14.5 5.11098 15.39 6.00098 16.5 6.00098Z" fill="black"/>
</g>
<defs>
<clipPath id="clip0_61_17122">
<rect width="24" height="24" fill="white" transform="translate(0 0.000976562)"/>
</clipPath>
</defs>
</svg>
