<svg viewBox="0 0 24 24" xmlns="http://www.w3.org/2000/svg">
<g clip-path="url(#clip0_61_17123)">
<path d="M2.06106 10.061C2.57106 10.571 3.38106 10.621 3.93106 10.161C8.60106 6.321 15.3811 6.321 20.0611 10.151C20.6211 10.611 21.4411 10.571 21.9511 10.061C22.5411 9.471 22.5011 8.491 21.8511 7.961C16.1411 3.291 7.88106 3.291 2.16106 7.961C1.51106 8.481 1.46106 9.461 2.06106 10.061V10.061ZM9.82106 17.821L11.2911 19.291C11.6811 19.681 12.3111 19.681 12.7011 19.291L14.1711 17.821C14.6411 17.351 14.5411 16.541 13.9411 16.231C12.7211 15.601 11.2611 15.601 10.0311 16.231C9.46106 16.541 9.35106 17.351 9.82106 17.821ZM6.09106 14.091C6.58106 14.581 7.35106 14.631 7.92106 14.221C10.3611 12.491 13.6411 12.491 16.0811 14.221C16.6511 14.621 17.4211 14.581 17.9111 14.091L17.9211 14.081C18.5211 13.481 18.4811 12.461 17.7911 11.971C14.3511 9.481 9.66106 9.481 6.21106 11.971C5.52106 12.471 5.48106 13.481 6.09106 14.091V14.091Z"/>
</g>
<defs>
<clipPath id="clip0_61_17123">
<rect transform="translate(0 0.000976562)"/>
</clipPath>
</defs>
</svg>
