<svg viewBox="0 0 24 24" xmlns="http://www.w3.org/2000/svg">
<g clip-path="url(#clip0_61_17124)">
<path d="M20.0571 10.1408C20.6171 10.6008 21.4371 10.5608 21.9471 10.0508C22.5371 9.46084 22.4971 8.48084 21.8471 7.95084C18.2571 5.01084 13.6471 3.92084 9.29711 4.69084L11.8871 7.28084C14.7771 7.25084 17.6871 8.20084 20.0571 10.1408V10.1408ZM17.7871 11.9708C17.0071 11.4008 16.1571 10.9708 15.2671 10.6708L18.2171 13.6208C18.4571 13.0408 18.3171 12.3508 17.7871 11.9708ZM13.9471 16.2308C12.7271 15.6008 11.2671 15.6008 10.0371 16.2308C9.44711 16.5408 9.33711 17.3508 9.80711 17.8208L11.2771 19.2908C11.6671 19.6808 12.2971 19.6808 12.6871 19.2908L14.1571 17.8208C14.6471 17.3508 14.5471 16.5408 13.9471 16.2308ZM19.6771 17.9008L4.11711 2.34084C3.72711 1.95084 3.09711 1.95084 2.70711 2.34084C2.31711 2.73084 2.31711 3.36084 2.70711 3.75084L5.04711 6.10084C4.03711 6.60084 3.05711 7.21084 2.15711 7.95084C1.50711 8.48084 1.46711 9.46084 2.05711 10.0508C2.56711 10.5608 3.37711 10.6108 3.92711 10.1508C4.92711 9.33084 6.02711 8.69084 7.17711 8.22084L9.40711 10.4508C8.27711 10.7508 7.19711 11.2508 6.21711 11.9608C5.52711 12.4608 5.48711 13.4708 6.08711 14.0708L6.09711 14.0808C6.58711 14.5708 7.35711 14.6208 7.92711 14.2108C9.11711 13.3708 10.5071 12.9508 11.8971 12.9208L18.2671 19.2908C18.6571 19.6808 19.2871 19.6808 19.6771 19.2908C20.0671 18.9208 20.0671 18.2908 19.6771 17.9008Z"/>
</g>
<defs>
<clipPath id="clip0_61_17124">
<rect transform="translate(0 0.000976562)"/>
</clipPath>
</defs>
</svg>
