<svg   viewBox="0 0 24 24" fill="none" xmlns="http://www.w3.org/2000/svg">
<path d="M19.8366 16.9065C20.2798 12.647 20.2798 8.35304 19.8366 4.09355C19.698 2.76124 18.1619 2.08636 17.0868 2.88547L12.9832 5.93588C11.6896 6.89745 10.1207 7.4167 8.50889 7.4167H4.67969C4.1274 7.4167 3.67969 7.86441 3.67969 8.4167V12.5834C3.67969 13.1357 4.1274 13.5834 4.67969 13.5834L8.50888 13.5834C10.1207 13.5834 11.6896 14.1026 12.9832 15.0642L17.0868 18.1146C18.1619 18.9137 19.698 18.2388 19.8366 16.9065Z" fill="black"/>
<path d="M9.09311 15.802C9.15055 15.5776 9.10104 15.3392 8.95896 15.1562C8.81689 14.9731 8.59822 14.8661 8.36653 14.8661L6.36653 14.8661C6.08245 14.8661 5.82275 15.0266 5.69571 15.2806L4.69571 17.2806C4.52493 17.6222 4.63805 18.0375 4.95843 18.2453L7.0924 19.6293C7.29501 19.7607 7.54849 19.7865 7.77342 19.6986C7.99835 19.6107 8.16721 19.4199 8.22708 19.186L9.09311 15.802Z" fill="black"/>
</svg>
