<svg   viewBox="0 0 24 24" fill="none" xmlns="http://www.w3.org/2000/svg">
<path fill-rule="evenodd" clip-rule="evenodd" d="M8.00194 4.55296C10.6983 4.34974 13.4065 4.36307 16.1007 4.59283L17.7245 4.7313C18.951 4.8359 19.9464 5.76671 20.1329 6.98346L20.2353 7.65179C20.5829 9.9197 20.5505 12.2297 20.1392 14.4869C19.9362 15.6006 18.9661 16.41 17.834 16.41H8.85756C8.65104 16.41 8.44774 16.4612 8.26583 16.559L4.35504 18.6607C4.12261 18.7856 3.84163 18.7792 3.61515 18.6438C3.38867 18.5084 3.25 18.2639 3.25 18V9.48275C3.25 6.90415 5.23741 4.76132 7.80871 4.56752L8.00194 4.55296ZM8 9.50005C7.30964 9.50005 6.75 10.0597 6.75 10.75C6.75 11.4404 7.30964 12 8 12C8.69036 12 9.25 11.4404 9.25 10.75C9.25 10.0597 8.69036 9.50005 8 9.50005ZM12 9.50005C11.3096 9.50005 10.75 10.0597 10.75 10.75C10.75 11.4404 11.3096 12 12 12C12.6904 12 13.25 11.4404 13.25 10.75C13.25 10.0597 12.6904 9.50005 12 9.50005ZM14.75 10.75C14.75 10.0597 15.3096 9.50005 16 9.50005C16.6904 9.50005 17.25 10.0597 17.25 10.75C17.25 11.4404 16.6904 12 16 12C15.3096 12 14.75 11.4404 14.75 10.75Z" fill="black"/>
</svg>
