<svg viewBox="0 0 24 24" xmlns="http://www.w3.org/2000/svg">
<path fill-rule="evenodd" clip-rule="evenodd" d="M12.0019 7.5C12.0019 8.47187 12.31 9.37179 12.8338 10.1074C13.1257 10.5173 13.4846 10.8762 13.8945 11.1681C14.6301 11.6919 15.53 12 16.5019 12C18.9872 12 21.0019 9.98528 21.0019 7.5C21.0019 6.52813 20.6938 5.62821 20.17 4.8926C19.8781 4.48271 19.5192 4.12383 19.1093 3.83194C18.3737 3.30809 17.4738 3 16.5019 3C14.0166 3 12.0019 5.01472 12.0019 7.5ZM16.5019 10.5C15.9455 10.5 15.4246 10.3486 14.9779 10.0846L19.0865 5.97602C19.3504 6.42266 19.5019 6.94364 19.5019 7.5C19.5019 9.15685 18.1587 10.5 16.5019 10.5ZM13.9173 9.02398L18.0259 4.91536C17.5792 4.65145 17.0582 4.5 16.5019 4.5C14.845 4.5 13.5019 5.84315 13.5019 7.5C13.5019 8.05636 13.6533 8.57734 13.9173 9.02398Z"/>
<path d="M4.82528 15.2099C2.79777 10.2333 6.05892 4.82127 11.1722 4.08469C11.3411 4.06035 11.454 4.25084 11.3656 4.39688C10.8174 5.3023 10.5019 6.36431 10.5019 7.50001C10.5019 10.8137 13.1882 13.5 16.5019 13.5C17.8734 13.5 19.1374 13.0399 20.1479 12.2655C20.2865 12.1594 20.4928 12.2569 20.4807 12.431C20.1659 16.9676 16.3861 20.55 11.7695 20.55H3.94925C3.73708 20.55 3.54801 20.4161 3.47759 20.216C3.40717 20.0158 3.47074 19.793 3.63617 19.6602L5.60766 18.0769C5.78006 17.9384 5.84105 17.7032 5.75762 17.4984L4.82528 15.2099Z"/>
</svg>
