<svg viewBox="0 0 24 24" xmlns="http://www.w3.org/2000/svg">
<path fill-rule="evenodd" clip-rule="evenodd" d="M4.82528 15.2099C2.64441 9.85685 6.58255 4 12.3628 4H12.6842C17.0018 4 20.5019 7.50008 20.5019 11.8176C20.5019 16.6404 16.5923 20.55 11.7695 20.55H3.94925C3.73708 20.55 3.54801 20.4161 3.47759 20.2159C3.40717 20.0158 3.47074 19.793 3.63617 19.6602L5.60766 18.0769C5.78006 17.9384 5.84105 17.7032 5.75762 17.4984L4.82528 15.2099ZM15.1019 11.45H9.6019C9.18768 11.45 8.8519 11.7858 8.8519 12.2C8.8519 12.6143 9.18768 12.95 9.6019 12.95H15.1019C15.5161 12.95 15.8519 12.6143 15.8519 12.2C15.8519 11.7858 15.5161 11.45 15.1019 11.45Z"/>
</svg>
