<svg viewBox="0 0 24 24" xmlns="http://www.w3.org/2000/svg">
<path fill-rule="evenodd" clip-rule="evenodd" d="M16.4574 2.88277C13.5016 2.45802 10.5002 2.45802 7.54444 2.88277C6.07895 3.09335 4.94986 4.28274 4.81573 5.7572L4.68876 7.15293C4.39541 10.3777 4.39541 13.6225 4.68876 16.8472L4.81573 18.243C4.94986 19.7174 6.07895 20.9068 7.54444 21.1174C10.5002 21.5421 13.5016 21.5421 16.4574 21.1174C17.9229 20.9068 19.052 19.7174 19.1861 18.243L19.3131 16.8472C19.6064 13.6225 19.6064 10.3777 19.3131 7.15293L19.1861 5.7572C19.052 4.28274 17.9229 3.09335 16.4574 2.88277ZM10.0009 9.00009C10.0009 7.89552 10.8963 7.00009 12.0009 7.00009C13.1055 7.00009 14.0009 7.89552 14.0009 9.00009C14.0009 10.1047 13.1055 11.0001 12.0009 11.0001C10.8963 11.0001 10.0009 10.1047 10.0009 9.00009ZM8.00092 15.5001C8.00092 13.8432 9.34406 12.5001 11.0009 12.5001H13.0009C14.6578 12.5001 16.0009 13.8432 16.0009 15.5001C16.0009 16.0524 15.5532 16.5001 15.0009 16.5001H9.00092C8.44863 16.5001 8.00092 16.0524 8.00092 15.5001Z"/>
</svg>
