<svg   viewBox="0 0 24 24" fill="none" xmlns="http://www.w3.org/2000/svg">
<path d="M12.665 20.2499C13.123 20.2499 13.552 20.0259 13.8137 19.65L18.0456 13.5729C18.8403 12.4318 19.1945 11.0413 19.0426 9.65898L18.7172 6.69757C18.5781 5.43207 17.5846 4.42967 16.3204 4.27928L14.2034 4.02744C12.5867 3.83513 10.9476 4.00183 9.40271 4.51566C8.32138 4.87532 7.45526 5.69606 7.03798 6.75649L5.32937 11.0986C5.24672 11.3086 5.18961 11.5278 5.15925 11.7514C4.89493 13.6986 6.65437 15.3117 8.57133 14.8798L12.3418 14.0302C12.3614 14.0258 12.3736 14.0277 12.3824 14.0305C12.3931 14.0339 12.4055 14.0409 12.4167 14.0525C12.4279 14.064 12.4345 14.0766 12.4376 14.0874C12.44 14.0962 12.4417 14.1085 12.4366 14.1279L11.3094 18.5006C11.081 19.3866 11.75 20.25 12.665 20.2499Z" fill="black"/>
</svg>
