<svg viewBox="0 0 24 24" xmlns="http://www.w3.org/2000/svg">
<path d="M19.8072 5.68678C20.1054 5.9324 20.3536 6.23701 20.534 6.58381C20.591 6.69354 20.5483 6.82641 20.4431 6.89151L14.1771 10.7704C12.8333 11.6024 11.1387 11.6198 9.77802 10.8158L3.4702 7.0884C3.36829 7.02818 3.32151 6.90422 3.36744 6.79512C3.55004 6.36134 3.83463 5.98308 4.19065 5.68904L4.19031 5.68606L4.20257 5.67924C4.46602 5.46401 4.76805 5.29465 5.09645 5.18264L9.20633 2.89938C10.943 1.93458 13.0546 1.93458 14.7912 2.89938L18.8963 5.17996C19.2304 5.29285 19.5374 5.46506 19.8045 5.68454L19.8072 5.68678Z"/>
<path d="M2.98916 8.95421C3.00734 8.77397 3.20634 8.67479 3.3623 8.76695L9.01493 12.1071C10.8559 13.195 13.1485 13.1714 14.9667 12.0458L20.6112 8.55158C20.7665 8.45548 20.9688 8.55283 20.9885 8.73435C21.2685 11.3218 21.2148 13.9363 20.8272 16.5134C20.6287 17.8335 19.5513 18.8456 18.2214 18.9612L16.7111 19.0924C13.5765 19.3649 10.4241 19.3649 7.28949 19.0924L5.77926 18.9612C4.44931 18.8456 3.3719 17.8335 3.17339 16.5134C2.79683 14.0093 2.73542 11.4698 2.98916 8.95421Z"/>
</svg>
