<svg   viewBox="0 0 24 24" fill="none" xmlns="http://www.w3.org/2000/svg">
<path d="M2.55394 16.0608C2.4578 16.2507 2.49237 16.4806 2.6401 16.6338C2.78782 16.787 3.01632 16.8299 3.20954 16.7407L5.70888 15.5872C7.80948 14.6177 10.1018 14.1741 12.3902 14.2785C12.4174 15.0133 12.4577 15.7478 12.5112 16.4816L12.5797 17.4205C12.6212 17.9902 13.2564 18.3086 13.7376 18.0011C15.8266 16.6663 17.6427 14.9463 19.089 12.9329L19.5492 12.2923C19.6744 12.118 19.6744 11.8832 19.5492 11.7089L19.089 11.0683C17.6427 9.05486 15.8266 7.33491 13.7376 6.00009C13.2564 5.69255 12.6212 6.01099 12.5797 6.58064L12.5112 7.5196C12.4653 8.14945 12.4291 8.77984 12.4025 9.41053H11.7595C8.17848 9.41053 4.90176 11.4242 3.28406 14.6189L2.55394 16.0608Z" fill="black"/>
</svg>
