<svg   viewBox="0 0 24 24" fill="none" xmlns="http://www.w3.org/2000/svg">
<path d="M11.3378 3.75C10.8798 3.75001 10.4508 3.97406 10.1891 4.34991L5.95717 10.427C5.16249 11.5682 4.8083 12.9587 4.9602 14.341L5.28562 17.3024C5.42468 18.5679 6.41815 19.5703 7.68236 19.7207L9.79941 19.9725C11.4161 20.1648 13.0552 19.9981 14.6001 19.4843C15.6814 19.1246 16.5475 18.3039 16.9648 17.2435L18.6734 12.9014C18.7561 12.6914 18.8132 12.4722 18.8435 12.2485C19.1079 10.3014 17.3484 8.68822 15.4315 9.12017L11.5336 9.99848L12.6934 5.49935C12.9218 4.61335 12.2528 3.74998 11.3378 3.75Z" fill="black"/>
</svg>
