<svg   viewBox="0 0 24 24" fill="none" xmlns="http://www.w3.org/2000/svg">
<path fill-rule="evenodd" clip-rule="evenodd" d="M6.67062 4.75C6.67062 4.33579 7.00641 4 7.42062 4H10.2491C10.6633 4 10.9991 4.33579 10.9991 4.75C10.9991 5.16421 10.6633 5.5 10.2491 5.5H9.23128L11.8296 8.09835C11.9273 8.19598 12.0856 8.19598 12.1832 8.09835L16.0619 4.21967C16.3548 3.92678 16.8296 3.92678 17.1225 4.21967C17.4154 4.51256 17.4154 4.98744 17.1225 5.28033L13.2438 9.15901C12.5604 9.84243 11.4524 9.84243 10.769 9.15901L8.17062 6.56066V7.57843C8.17062 7.99264 7.83484 8.32843 7.42062 8.32843C7.00641 8.32843 6.67062 7.99264 6.67062 7.57843V4.75Z" fill="black"/>
<path d="M18.4164 12.6506C14.1099 11.0543 9.35213 11.119 5.08222 12.8447L4.38757 13.1112C2.79832 13.7207 1.87804 15.3853 2.20697 17.0554L2.515 18.6193C2.61515 19.1278 3.08719 19.4755 3.60251 19.4204L7.45033 19.0089C8.0155 18.9484 8.4167 18.4296 8.3331 17.8674L8.10291 16.3196C10.6274 15.4629 13.3725 15.4629 15.8969 16.3196L15.6667 17.8674C15.5831 18.4296 15.9843 18.9484 16.5495 19.0088L20.3975 19.4204C20.9127 19.4755 21.3846 19.128 21.4849 18.6196L21.7954 17.0452C22.1268 15.3651 21.1938 13.6919 19.5903 13.0907L18.4181 12.6512L18.4164 12.6506Z" fill="black"/>
</svg>
