<svg   viewBox="0 0 24 24" fill="none" xmlns="http://www.w3.org/2000/svg">
<path fill-rule="evenodd" clip-rule="evenodd" d="M19.4705 4.03038C19.6112 4.17103 19.6902 4.3618 19.6902 4.56071V8.38913C19.6902 8.80335 19.3544 9.13913 18.9402 9.13913C18.526 9.13913 18.1902 8.80335 18.1902 8.38913V6.37137L15.0312 9.53038C14.7383 9.82327 14.2634 9.82327 13.9705 9.53038C13.6776 9.23748 13.6776 8.76261 13.9705 8.46972L17.1295 5.31071L15.1117 5.31071C14.6975 5.31071 14.3617 4.97492 14.3617 4.56071C14.3617 4.14649 14.6975 3.81071 15.1117 3.81071L18.9402 3.81071C19.1391 3.81071 19.3298 3.88973 19.4705 4.03038Z" fill="black"/>
<path d="M5.00102 9.86053C6.91742 14.0344 10.3274 17.3529 14.567 19.1519L15.2466 19.4547C16.8014 20.1475 18.6291 19.6212 19.5775 18.2077L20.4655 16.884C20.7543 16.4536 20.6664 15.8739 20.263 15.5485L17.2512 13.1187C16.8088 12.7618 16.1583 12.845 15.8199 13.3016L14.8881 14.5589C12.4973 13.3795 10.5563 11.4385 9.37692 9.04768L10.6342 8.11596C11.0908 7.77754 11.174 7.12702 10.8171 6.68464L8.3872 3.6727C8.06186 3.26942 7.48235 3.18145 7.05199 3.47002L5.71915 4.36372C4.2968 5.31742 3.77342 7.16027 4.48215 8.71922L5.00024 9.85884L5.00102 9.86053Z" fill="black"/>
</svg>
