<svg viewBox="0 0 24 24" xmlns="http://www.w3.org/2000/svg">
<path d="M14.567 19.1519C10.3274 17.3529 6.91742 14.0344 5.00102 9.86053L5.00024 9.85884L4.48215 8.71922C3.77342 7.16027 4.2968 5.31742 5.71915 4.36372L7.05199 3.47002C7.48235 3.18145 8.06186 3.26942 8.3872 3.6727L10.8171 6.68464C11.174 7.12702 11.0908 7.77754 10.6342 8.11596L9.37692 9.04768C10.5563 11.4385 12.4973 13.3795 14.8881 14.5589L15.8199 13.3016C16.1583 12.845 16.8088 12.7618 17.2512 13.1187L20.263 15.5485C20.6664 15.8739 20.7543 16.4536 20.4655 16.884L19.5775 18.2077C18.6291 19.6212 16.8014 20.1475 15.2466 19.4547L14.567 19.1519Z"/>
<path d="M13.7508 9.00003C13.7508 9.19894 13.8298 9.38971 13.9705 9.53036C14.1111 9.67101 14.3019 9.75003 14.5008 9.75003H18.3293C18.7435 9.75003 19.0793 9.41424 19.0793 9.00003C19.0793 8.58582 18.7435 8.25003 18.3293 8.25003H16.3115L19.4705 5.09102C19.7634 4.79813 19.7634 4.32325 19.4705 4.03036C19.1776 3.73747 18.7027 3.73747 18.4098 4.03036L15.2508 7.18937V5.1716C15.2508 4.75739 14.915 4.4216 14.5008 4.4216C14.0866 4.4216 13.7508 4.75739 13.7508 5.1716V9.00003Z"/>
</svg>
