<svg   viewBox="0 0 24 24" fill="none" xmlns="http://www.w3.org/2000/svg">
<path d="M20.4447 16.0608C20.5408 16.2507 20.5062 16.4806 20.3585 16.6338C20.2108 16.787 19.9823 16.8299 19.7891 16.7407L17.2897 15.5872C15.1891 14.6177 12.8968 14.1741 10.6084 14.2785C10.5812 15.0133 10.5409 15.7478 10.4874 16.4816L10.4189 17.4205C10.3774 17.9902 9.74224 18.3086 9.26094 18.0011C7.17195 16.6663 5.35589 14.9463 3.90957 12.9329L3.44938 12.2923C3.32416 12.118 3.32416 11.8832 3.44938 11.7089L3.90957 11.0683C5.35589 9.05486 7.17195 7.33491 9.26094 6.00009C9.74224 5.69255 10.3774 6.01099 10.4189 6.58064L10.4874 7.5196C10.5333 8.14945 10.5695 8.77984 10.596 9.41053H11.2391C14.8201 9.41053 18.0968 11.4242 19.7145 14.6189L20.4447 16.0608Z" fill="black"/>
</svg>
