<svg viewBox="0 0 24 24" xmlns="http://www.w3.org/2000/svg">
<path d="M20.029 14.0938C19.9467 14.1664 19.897 14.2691 19.8918 14.3787C19.8432 15.3913 19.76 16.4027 19.642 17.411C19.4879 18.7286 18.4224 19.7783 17.0923 19.9269C13.7365 20.302 10.2649 20.302 6.90905 19.9269C5.57894 19.7783 4.51346 18.7286 4.35934 17.411C3.95834 13.9824 3.95834 10.5189 4.35934 7.09033C4.51346 5.77266 5.57894 4.72304 6.90905 4.57438C9.12157 4.3271 11.3871 4.24297 13.6341 4.32176C13.7964 4.32745 13.9345 4.20399 13.9458 4.04202L13.995 3.339C13.998 3.29761 14.002 3.25666 14.0071 3.21617C14.0315 3.02178 13.8967 2.8301 13.7009 2.82317C11.3754 2.74078 9.03342 2.82762 6.74244 3.08367C4.73038 3.30854 3.10605 4.89355 2.8695 6.91608C2.45496 10.4604 2.45496 14.0409 2.8695 17.5852C3.10605 19.6077 4.73038 21.1928 6.74244 21.4176C10.209 21.8051 13.7924 21.8051 17.2589 21.4176C19.271 21.1928 20.8953 19.6077 21.1319 17.5852C21.3009 16.1404 21.401 14.6896 21.4322 13.2376C21.4361 13.0554 21.2125 12.9646 21.0846 13.0944C20.7444 13.4397 20.3924 13.773 20.029 14.0938Z"/>
<path d="M7.86789 15.5504C7.64666 15.4895 7.49532 15.2858 7.50083 15.0564L7.56007 12.5925C7.64489 9.06456 10.5292 6.24875 14.0582 6.24875L15.3156 6.24875C15.3419 5.62502 15.3777 5.0016 15.4231 4.37869L15.491 3.44805C15.5324 2.88011 16.1657 2.56262 16.6455 2.86924C18.7165 4.19253 20.5168 5.89762 21.9507 7.89363L22.4068 8.52857C22.532 8.70289 22.532 8.93767 22.4068 9.11199L21.9507 9.74693C20.5168 11.7429 18.7165 13.448 16.6455 14.7713C16.2503 15.0238 15.7497 14.8531 15.5627 14.4678C15.5234 14.3859 15.4982 14.2915 15.491 14.1925L15.4231 13.2619C15.369 12.519 15.3284 11.7754 15.3015 11.0314L14.9474 10.9781C12.6912 10.6385 10.4595 11.7273 9.33848 13.7145L8.43618 15.3141C8.3932 15.3902 8.33221 15.4518 8.26137 15.4951C8.14642 15.5653 8.00465 15.5881 7.86789 15.5504Z"/>
</svg>
