<svg   viewBox="0 0 32 32" fill="none" xmlns="http://www.w3.org/2000/svg">
<path d="M25.9062 7.59186C25.9032 7.59448 25.9006 7.59736 25.8976 7.59992C25.4301 7.9958 24.9962 8.42971 24.6003 8.89722C24.5154 8.99748 24.4117 9.08006 24.2949 9.14022C24.1782 9.20039 24.0507 9.23697 23.9199 9.24787C23.789 9.25877 23.6572 9.24378 23.5321 9.20376C23.407 9.16374 23.291 9.09946 23.1908 9.01461C23.0905 8.92976 23.008 8.82599 22.9478 8.70923C22.8877 8.59247 22.8511 8.46501 22.8403 8.33412C22.8294 8.20323 22.8444 8.07148 22.8845 7.94639C22.9245 7.82131 22.9888 7.70534 23.0737 7.6051C23.5104 7.09047 23.9863 6.61036 24.4971 6.16907C22.1381 4.12512 19.1213 3 16 3C12.8787 3 9.86194 4.12512 7.50293 6.16907C8.01366 6.61035 8.48954 7.09044 8.9263 7.60504C9.0495 7.75058 9.12852 7.92831 9.15405 8.11728C9.17958 8.30624 9.15055 8.49857 9.07038 8.67158C8.99021 8.84459 8.86225 8.99107 8.70158 9.09376C8.54092 9.19645 8.35424 9.25107 8.16356 9.25117H8.1631C8.0177 9.25139 7.87401 9.21983 7.74209 9.1587C7.61016 9.09757 7.49319 9.00835 7.39936 8.89728C7.00345 8.42978 6.56951 7.99586 6.10199 7.59998C6.09903 7.59748 6.09653 7.59467 6.09363 7.59216C4.09665 9.93846 3 12.919 3 16C3 19.0811 4.09665 22.0616 6.09363 24.4079C6.09665 24.4053 6.09924 24.4023 6.10232 24.3997C6.56981 24.0038 7.00372 23.5699 7.39962 23.1024C7.57099 22.8999 7.81577 22.7738 8.08012 22.7518C8.34447 22.7298 8.60673 22.8137 8.80922 22.9851C9.0117 23.1564 9.13782 23.4012 9.15983 23.6656C9.18184 23.9299 9.09794 24.1922 8.92657 24.3947C8.48971 24.9093 8.01375 25.3895 7.50293 25.8309C9.86194 27.8749 12.8787 29 16 29C19.1213 29 22.1381 27.8749 24.4971 25.8309C23.9862 25.3896 23.5103 24.9094 23.0734 24.3947C22.9021 24.1922 22.8181 23.93 22.8401 23.6657C22.8621 23.4014 22.9881 23.1567 23.1906 22.9853C23.393 22.8139 23.6552 22.73 23.9195 22.752C24.1838 22.7739 24.4286 22.9 24.5999 23.1024C24.9958 23.5699 25.4297 24.0038 25.8972 24.3997C25.9004 24.4024 25.9031 24.4054 25.9062 24.4081C27.9033 22.0617 29 19.0812 29 16C29 12.9188 27.9033 9.9382 25.9062 7.59186V7.59186ZM9.95358 10.9974C10.0772 10.9529 10.2084 10.9332 10.3396 10.9395C10.4709 10.9457 10.5996 10.9777 10.7185 11.0338C10.8373 11.0898 10.9439 11.1687 11.0323 11.266C11.1206 11.3632 11.1889 11.477 11.2332 11.6006C11.4775 12.2814 11.6651 12.9813 11.7939 13.693C11.8198 13.8371 11.8138 13.9852 11.7763 14.1268C11.7387 14.2683 11.6706 14.3999 11.5766 14.5123C11.4827 14.6246 11.3652 14.715 11.2325 14.777C11.0998 14.8389 10.9551 14.8711 10.8087 14.871H10.8082C10.5741 14.8707 10.3474 14.7882 10.1678 14.6379C9.98821 14.4877 9.86702 14.2791 9.82536 14.0487C9.71623 13.4459 9.55739 12.8532 9.35047 12.2766C9.26083 12.027 9.27401 11.752 9.38711 11.5121C9.50022 11.2722 9.70398 11.0871 9.95358 10.9974V10.9974ZM11.794 18.3066C11.6651 19.0183 11.4776 19.7182 11.2334 20.399C11.1638 20.5928 11.036 20.7605 10.8675 20.879C10.6991 20.9976 10.4982 21.0612 10.2922 21.0613H10.2917C10.1313 21.0611 9.97335 21.0225 9.83106 20.9485C9.68876 20.8745 9.56632 20.7675 9.47407 20.6363C9.38181 20.5051 9.32243 20.3537 9.30095 20.1947C9.27946 20.0358 9.29648 19.8741 9.35059 19.7231C9.55746 19.1464 9.71629 18.5537 9.82544 17.9509C9.87281 17.69 10.0218 17.4586 10.2397 17.3076C10.4576 17.1565 10.7265 17.0982 10.9874 17.1453C11.2483 17.1924 11.4798 17.3412 11.6311 17.559C11.7823 17.7767 11.8409 18.0456 11.794 18.3066V18.3066ZM22.0457 21.0022C21.9221 21.0467 21.791 21.0664 21.6598 21.0602C21.5286 21.0539 21.3999 21.0219 21.2811 20.9658C21.1623 20.9098 21.0557 20.8309 20.9674 20.7336C20.8791 20.6364 20.8109 20.5227 20.7666 20.399C20.5223 19.7182 20.3348 19.0183 20.206 18.3066C20.1591 18.0457 20.2176 17.7768 20.3688 17.5591C20.52 17.3414 20.7515 17.1926 21.0124 17.1455C21.2732 17.0983 21.5421 17.1567 21.76 17.3077C21.9778 17.4587 22.1268 17.6901 22.1741 17.9509C22.2832 18.5537 22.442 19.1465 22.6489 19.7231C22.7386 19.9727 22.7253 20.2477 22.6122 20.4876C22.4991 20.7274 22.2953 20.9126 22.0457 21.0022ZM22.649 12.2767C22.4422 12.8533 22.2833 13.446 22.1742 14.0488C22.1509 14.1781 22.1023 14.3015 22.0313 14.412C21.9603 14.5225 21.8682 14.618 21.7603 14.6929C21.6524 14.7678 21.5308 14.8207 21.4024 14.8486C21.274 14.8765 21.1414 14.8789 21.0121 14.8555C20.8828 14.8321 20.7594 14.7835 20.6489 14.7124C20.5385 14.6413 20.4431 14.5492 20.3682 14.4412C20.2934 14.3333 20.2405 14.2116 20.2127 14.0832C20.1849 13.9548 20.1826 13.8222 20.2061 13.6929C20.3349 12.9812 20.5225 12.2813 20.7668 11.6005C20.8112 11.4768 20.8794 11.3631 20.9677 11.2658C21.056 11.1685 21.1626 11.0895 21.2814 11.0335C21.4003 10.9774 21.529 10.9453 21.6602 10.939C21.7915 10.9326 21.9227 10.9523 22.0463 10.9967C22.17 11.0411 22.2837 11.1095 22.3809 11.1978C22.4781 11.2862 22.557 11.3929 22.6129 11.5118C22.6689 11.6306 22.7009 11.7594 22.7071 11.8906C22.7133 12.0219 22.6936 12.1531 22.649 12.2767Z" fill="black"/>
</svg>
