<svg viewBox="0 0 32 32" xmlns="http://www.w3.org/2000/svg">
<path d="M7.50037 6.17206C9.59925 4.34919 12.2291 3.25035 15.001 3.03809V15H11.9629C11.6988 11.5837 10.0947 8.41042 7.50037 6.17206V6.17206ZM6.09042 7.59705C4.31638 9.68013 3.24812 12.2719 3.03906 15H9.95505C9.69121 12.1199 8.30262 9.45999 6.09042 7.59705V7.59705ZM24.5016 6.17206C22.4027 4.34919 19.7728 3.25035 17.001 3.03809V15H20.0391C20.3032 11.5837 21.9073 8.41042 24.5016 6.17206V6.17206ZM28.9629 15C28.7538 12.2719 27.6856 9.68013 25.9115 7.59705C23.6993 9.45999 22.3107 12.1199 22.0469 15H28.9629ZM3.03906 17C3.24812 19.7281 4.31638 22.3199 6.09042 24.403C8.30262 22.54 9.69121 19.8801 9.95505 17H3.03906ZM25.9115 24.403C27.6856 22.3199 28.7538 19.7281 28.9629 17H22.0469C22.3107 19.8801 23.6993 22.54 25.9115 24.403V24.403ZM7.50037 25.8279C9.59925 27.6508 12.2291 28.7497 15.001 28.9619V17H11.9629C11.6988 20.4163 10.0947 23.5896 7.50037 25.8279V25.8279ZM20.0391 17H17.001V28.9619C19.7728 28.7497 22.4027 27.6508 24.5016 25.8279C21.9073 23.5896 20.3032 20.4163 20.0391 17Z"/>
</svg>
