<svg   viewBox="0 0 32 32" fill="none" xmlns="http://www.w3.org/2000/svg">
<path d="M29 18.5C28.9999 19.6716 28.6832 20.8213 28.0833 21.8277C27.4835 22.834 26.6228 23.6596 25.5924 24.217C24.562 24.7744 23.4 25.043 22.2295 24.9944C21.0589 24.9458 19.9233 24.5817 18.9426 23.9407L20.2743 28.2017C20.3211 28.3514 20.3321 28.51 20.3062 28.6647C20.2804 28.8195 20.2185 28.9659 20.1256 29.0923C20.0327 29.2187 19.9113 29.3215 19.7714 29.3923C19.6314 29.4631 19.4767 29.5 19.3199 29.5H12.6801C12.5232 29.5 12.3686 29.4631 12.2286 29.3923C12.0887 29.3215 11.9673 29.2187 11.8744 29.0923C11.7815 28.9659 11.7196 28.8195 11.6938 28.6647C11.668 28.51 11.6789 28.3514 11.7257 28.2017L13.0568 23.9428C11.9463 24.6706 10.6386 25.0389 9.31152 24.9973C5.8457 24.8992 3.0144 21.9967 3.00006 18.5273C2.99645 17.6715 3.16192 16.8233 3.48696 16.0315C3.81199 15.2397 4.2902 14.52 4.89414 13.9135C5.49807 13.307 6.21584 12.8258 7.00624 12.4974C7.79663 12.169 8.6441 12 9.5 12C9.66906 12 9.83776 12.0065 10.0061 12.0195C9.59125 11.0315 9.42712 9.95614 9.52831 8.88929C9.6295 7.82244 9.99288 6.79716 10.5861 5.9047C11.1793 5.01224 11.984 4.28029 12.9285 3.77399C13.873 3.26769 14.928 3.00275 15.9996 3.00275C17.0713 3.00275 18.1263 3.26769 19.0708 3.77399C20.0153 4.28029 20.8199 5.01224 21.4132 5.9047C22.0064 6.79716 22.3698 7.82244 22.471 8.88929C22.5721 9.95614 22.408 11.0315 21.9932 12.0195C22.2204 12.0021 22.4483 11.9964 22.6761 12.0023C24.372 12.0388 25.9856 12.7405 27.1687 13.9561C28.3518 15.1717 29.0095 16.8037 29 18.5V18.5Z" fill="black"/>
</svg>
