<svg viewBox="0 0 32 32" xmlns="http://www.w3.org/2000/svg">
<path d="M29.8445 9.19189C29.5584 8.95306 29.2109 8.79946 28.8417 8.74863C28.4724 8.6978 28.0964 8.75178 27.7563 8.90442L21.4333 11.7147L17.7518 5.08789C17.5786 4.77608 17.3252 4.51626 17.0178 4.33537C16.7104 4.15447 16.3602 4.05908 16.0035 4.05908C15.6469 4.05908 15.2967 4.15447 14.9893 4.33537C14.6819 4.51626 14.4284 4.77608 14.2552 5.08789L10.5736 11.7146L4.24963 8.90393C3.90938 8.75275 3.53368 8.69955 3.16482 8.75032C2.79597 8.80109 2.44861 8.95381 2.16185 9.19129C1.87509 9.42878 1.66031 9.74159 1.5417 10.0945C1.42309 10.4475 1.40535 10.8265 1.49048 11.189L4.67114 24.7306C4.73166 24.9928 4.84499 25.2398 5.00421 25.4567C5.16342 25.6736 5.36518 25.8558 5.59717 25.9921C5.83036 26.1293 6.08876 26.2184 6.35703 26.2538C6.6253 26.2893 6.89796 26.2705 7.15881 26.1985C12.945 24.6011 19.0559 24.6005 24.8424 26.1968C25.1031 26.2687 25.3757 26.2874 25.6438 26.252C25.912 26.2165 26.1702 26.1276 26.4033 25.9904C26.6352 25.8542 26.8369 25.6722 26.9961 25.4554C27.1553 25.2387 27.2687 24.9918 27.3293 24.7299L30.5155 11.1901C30.6022 10.8276 30.5852 10.448 30.4666 10.0947C30.3479 9.74142 30.1324 9.42858 29.8445 9.19189V9.19189ZM20.998 20.3144C20.9845 20.4451 20.9453 20.5718 20.8826 20.6873C20.82 20.8028 20.7352 20.9048 20.6331 20.9874C20.531 21.0701 20.4136 21.1318 20.2876 21.169C20.1616 21.2063 20.0296 21.2183 19.8989 21.2043C17.3091 20.9324 14.698 20.9324 12.1081 21.2043C11.8449 21.2311 11.5818 21.1524 11.3764 20.9856C11.171 20.8187 11.0402 20.5773 11.0125 20.3141C10.9848 20.0509 11.0625 19.7875 11.2287 19.5816C11.3948 19.3756 11.6359 19.2439 11.8989 19.2153C14.6278 18.9287 17.3792 18.9287 20.1081 19.2153C20.2388 19.2291 20.3654 19.2684 20.4808 19.331C20.5962 19.3937 20.6981 19.4785 20.7808 19.5806C20.8634 19.6826 20.9251 19.8 20.9624 19.9259C20.9997 20.0518 21.0118 20.1838 20.998 20.3144V20.3144Z"/>
</svg>
