<svg viewBox="0 0 32 32" xmlns="http://www.w3.org/2000/svg">
<path d="M24 4H8C6.93951 4.00121 5.9228 4.42303 5.17291 5.17291C4.42303 5.9228 4.00121 6.93951 4 8V24C4.00121 25.0605 4.42303 26.0772 5.17291 26.8271C5.9228 27.577 6.93951 27.9988 8 28H24C25.0605 27.9988 26.0772 27.577 26.8271 26.8271C27.577 26.0772 27.9988 25.0605 28 24V8C27.9988 6.93951 27.577 5.9228 26.8271 5.17291C26.0772 4.42303 25.0605 4.00121 24 4V4ZM16 17.5C15.7033 17.5 15.4133 17.412 15.1666 17.2472C14.92 17.0824 14.7277 16.8481 14.6142 16.574C14.5006 16.2999 14.4709 15.9983 14.5288 15.7074C14.5867 15.4164 14.7296 15.1491 14.9393 14.9393C15.1491 14.7296 15.4164 14.5867 15.7074 14.5288C15.9983 14.4709 16.2999 14.5006 16.574 14.6142C16.8481 14.7277 17.0824 14.92 17.2472 15.1666C17.412 15.4133 17.5 15.7033 17.5 16C17.5 16.3978 17.342 16.7794 17.0607 17.0607C16.7794 17.342 16.3978 17.5 16 17.5Z"/>
</svg>
