<svg viewBox="0 0 32 32" xmlns="http://www.w3.org/2000/svg">
<path d="M24 4H8C6.93951 4.00121 5.9228 4.42303 5.17291 5.17291C4.42303 5.9228 4.00121 6.93951 4 8V24C4.00121 25.0605 4.42303 26.0772 5.17291 26.8271C5.9228 27.577 6.93951 27.9988 8 28H24C25.0605 27.9988 26.0772 27.577 26.8271 26.8271C27.577 26.0772 27.9988 25.0605 28 24V8C27.9988 6.93951 27.577 5.9228 26.8271 5.17291C26.0772 4.42303 25.0605 4.00121 24 4V4ZM13.5 15C13.2033 15 12.9133 14.912 12.6666 14.7472C12.42 14.5824 12.2277 14.3481 12.1142 14.074C12.0006 13.7999 11.9709 13.4983 12.0288 13.2074C12.0867 12.9164 12.2296 12.6491 12.4393 12.4393C12.6491 12.2296 12.9164 12.0867 13.2074 12.0288C13.4983 11.9709 13.7999 12.0006 14.074 12.1142C14.3481 12.2277 14.5824 12.42 14.7472 12.6666C14.912 12.9133 15 13.2033 15 13.5C15 13.8978 14.842 14.2794 14.5607 14.5607C14.2794 14.842 13.8978 15 13.5 15ZM18.5 20C18.2033 20 17.9133 19.912 17.6666 19.7472C17.42 19.5824 17.2277 19.3481 17.1142 19.074C17.0007 18.7999 16.9709 18.4983 17.0288 18.2074C17.0867 17.9164 17.2296 17.6491 17.4393 17.4393C17.6491 17.2296 17.9164 17.0867 18.2074 17.0288C18.4983 16.9709 18.7999 17.0007 19.074 17.1142C19.3481 17.2277 19.5824 17.42 19.7472 17.6666C19.912 17.9133 20 18.2033 20 18.5C20 18.8978 19.842 19.2794 19.5607 19.5607C19.2794 19.842 18.8978 20 18.5 20Z"/>
</svg>
