<svg viewBox="0 0 32 32" xmlns="http://www.w3.org/2000/svg">
<path d="M22 17.5C22 17.7967 21.912 18.0867 21.7472 18.3334C21.5824 18.58 21.3481 18.7723 21.074 18.8858C20.7999 18.9994 20.4983 19.0291 20.2074 18.9712C19.9164 18.9133 19.6491 18.7704 19.4393 18.5607C19.2296 18.3509 19.0867 18.0836 19.0288 17.7926C18.9709 17.5017 19.0007 17.2001 19.1142 16.926C19.2277 16.6519 19.42 16.4176 19.6666 16.2528C19.9133 16.088 20.2033 16 20.5 16C20.8977 16.0004 21.279 16.1586 21.5602 16.4398C21.8414 16.721 21.9996 17.1023 22 17.5V17.5ZM11.5 16C11.2033 16 10.9133 16.088 10.6666 16.2528C10.42 16.4176 10.2277 16.6519 10.1142 16.926C10.0006 17.2001 9.97094 17.5017 10.0288 17.7926C10.0867 18.0836 10.2296 18.3509 10.4393 18.5607C10.6491 18.7704 10.9164 18.9133 11.2074 18.9712C11.4983 19.0291 11.7999 18.9994 12.074 18.8858C12.3481 18.7723 12.5824 18.58 12.7472 18.3334C12.912 18.0867 13 17.7967 13 17.5C12.9996 17.1023 12.8414 16.721 12.5602 16.4398C12.279 16.1586 11.8977 16.0004 11.5 16ZM30 8V18C29.9973 20.3861 29.0482 22.6737 27.361 24.361C25.6737 26.0482 23.3861 26.9973 21 27H11C8.61388 26.9973 6.32625 26.0482 4.63901 24.361C2.95176 22.6737 2.00269 20.3861 2 18V8C2.00007 7.0264 2.3552 6.08625 2.99883 5.35575C3.64246 4.62525 4.53042 4.15455 5.49625 4.03188C6.46209 3.90921 7.43952 4.14299 8.24533 4.6894C9.05114 5.2358 9.63002 6.05733 9.87347 7H22.1265C22.37 6.05733 22.9489 5.2358 23.7547 4.6894C24.5605 4.14299 25.5379 3.90921 26.5037 4.03188C27.4696 4.15455 28.3575 4.62525 29.0012 5.35575C29.6448 6.08625 29.9999 7.0264 30 8ZM25 17C25 16.4747 24.8965 15.9546 24.6955 15.4693C24.4945 14.984 24.1999 14.543 23.8284 14.1716C23.457 13.8001 23.016 13.5055 22.5307 13.3045C22.0454 13.1035 21.5253 13 21 13H11C9.93913 13 8.92172 13.4214 8.17157 14.1716C7.42143 14.9217 7 15.9391 7 17V18C7.00001 19.0609 7.42144 20.0783 8.17159 20.8284C8.92173 21.5786 9.93914 22 11 22H21C22.0609 22 23.0783 21.5786 23.8284 20.8284C24.5786 20.0783 25 19.0609 25 18V17Z"/>
</svg>
