<svg   viewBox="0 0 32 32" fill="none" xmlns="http://www.w3.org/2000/svg">
<path d="M28.2484 7.03882C28.1088 6.21798 27.7176 5.46081 27.1289 4.87206C26.5401 4.28331 25.783 3.89208 24.9622 3.7525C21.0433 3.08886 13.6576 2.78705 8.22278 8.2218C2.78803 13.6565 3.08978 21.0424 3.75342 24.9612C3.89298 25.782 4.2842 26.5392 4.87294 27.1279C5.46168 27.7167 6.21884 28.1079 7.03967 28.2475C8.41392 28.4811 9.80525 28.5999 11.1992 28.6025C15.0845 28.6025 19.9229 27.6343 23.779 23.7782C29.2139 18.3434 28.912 10.9576 28.2484 7.03882ZM7.37365 26.2756C6.96194 26.2056 6.58217 26.0093 6.28687 25.714C5.99157 25.4187 5.79534 25.039 5.72534 24.6273C5.50746 23.364 5.39517 22.0848 5.38965 20.8029L11.2 26.6133C9.91738 26.607 8.63752 26.4941 7.37365 26.2756L7.37365 26.2756ZM20.708 12.7071L18.8293 14.5858L19.9506 15.7071C20.1382 15.8946 20.2435 16.149 20.2435 16.4142C20.2435 16.6794 20.1382 16.9338 19.9506 17.1213C19.7631 17.3088 19.5088 17.4142 19.2435 17.4142C18.9783 17.4142 18.724 17.3089 18.5364 17.1213L17.4151 16L16.0009 17.4142L17.1222 18.5355C17.215 18.6284 17.2887 18.7386 17.3389 18.8599C17.3892 18.9813 17.4151 19.1113 17.4151 19.2426C17.4151 19.3739 17.3892 19.504 17.3389 19.6253C17.2887 19.7466 17.215 19.8569 17.1222 19.9497C17.0293 20.0426 16.9191 20.1162 16.7978 20.1665C16.6764 20.2167 16.5464 20.2426 16.4151 20.2426C16.2838 20.2426 16.1537 20.2167 16.0324 20.1665C15.9111 20.1162 15.8008 20.0426 15.708 19.9497L14.5867 18.8284L12.708 20.7071C12.5204 20.8944 12.2661 20.9996 12.001 20.9995C11.7359 20.9995 11.4817 20.8941 11.2942 20.7066C11.1068 20.5192 11.0014 20.265 11.0014 19.9999C11.0013 19.7348 11.1065 19.4805 11.2938 19.2929L13.1725 17.4142L12.0512 16.2929C11.8637 16.1054 11.7583 15.851 11.7583 15.5858C11.7583 15.3206 11.8636 15.0662 12.0512 14.8787C12.2387 14.6912 12.493 14.5858 12.7583 14.5858C13.0235 14.5858 13.2778 14.6911 13.4654 14.8787L14.5867 16L16.0009 14.5857L14.8796 13.4645C14.6921 13.2769 14.5867 13.0226 14.5867 12.7574C14.5867 12.4922 14.6921 12.2378 14.8796 12.0503C15.0672 11.8628 15.3215 11.7574 15.5867 11.7574C15.8519 11.7574 16.1063 11.8628 16.2938 12.0503L17.4151 13.1716L19.2938 11.2929C19.4814 11.1056 19.7357 11.0004 20.0008 11.0005C20.2659 11.0005 20.5201 11.1059 20.7076 11.2933C20.895 11.4808 21.0004 11.735 21.0004 12.0001C21.0005 12.2652 20.8953 12.5195 20.708 12.7071L20.708 12.7071ZM20.8018 5.38671C22.0844 5.39298 23.3643 5.50594 24.6282 5.72442C25.0399 5.79441 25.4197 5.99064 25.715 6.28594C26.0103 6.58124 26.2065 6.96102 26.2765 7.37274C26.4944 8.63599 26.6066 9.91519 26.6122 11.1971L20.8018 5.38671Z" fill="black"/>
</svg>
