<svg viewBox="0 0 32 32" xmlns="http://www.w3.org/2000/svg">
<path d="M30.9315 22.7179C30.9305 22.7124 30.9295 22.7069 30.9285 22.7014L28.8846 12.1486C28.8831 12.1406 28.8806 12.1332 28.8789 12.1253C28.5627 10.3986 27.6516 8.83713 26.3039 7.71222C24.9562 6.58732 23.2571 5.97002 21.5016 5.96754H21.4987L10.4999 6C8.73539 5.9965 7.0264 6.61659 5.67471 7.75079C4.32303 8.88498 3.41558 10.4603 3.11262 12.1986C3.11103 12.2076 3.10956 12.2168 3.10822 12.2258L1.07148 22.7007C1.07038 22.7064 1.06934 22.7122 1.0683 22.7179C0.90222 23.6603 1.04086 24.6311 1.46409 25.4894C1.88732 26.3476 2.57311 27.0486 3.42187 27.4906C4.27063 27.9325 5.23817 28.0924 6.18399 27.947C7.12981 27.8017 8.00467 27.3586 8.68152 26.6821C8.69965 26.6641 8.71698 26.6454 8.73352 26.6262L13.8246 20.9982L18.1809 20.9808L23.2648 26.6244C23.2817 26.6442 23.2996 26.6634 23.3183 26.6821C23.9951 27.3587 24.87 27.8018 25.8159 27.9473C26.7617 28.0927 27.7293 27.9328 28.5781 27.4909C29.4269 27.0489 30.1127 26.3478 30.5359 25.4895C30.9591 24.6312 31.0977 23.6603 30.9315 22.7179L30.9315 22.7179ZM12.9993 14.5H11.9993V15.5C11.9993 15.7652 11.894 16.0196 11.7064 16.2071C11.5189 16.3946 11.2646 16.5 10.9993 16.5C10.7341 16.5 10.4798 16.3946 10.2922 16.2071C10.1047 16.0196 9.99933 15.7652 9.99933 15.5V14.5H8.99933C8.73412 14.5 8.47976 14.3946 8.29223 14.2071C8.10469 14.0196 7.99933 13.7652 7.99933 13.5C7.99933 13.2348 8.10469 12.9804 8.29223 12.7929C8.47976 12.6054 8.73412 12.5 8.99933 12.5H9.99933V11.5C9.99933 11.2348 10.1047 10.9804 10.2922 10.7929C10.4798 10.6054 10.7341 10.5 10.9993 10.5C11.2646 10.5 11.5189 10.6054 11.7064 10.7929C11.894 10.9804 11.9993 11.2348 11.9993 11.5V12.5H12.9993C13.2646 12.5 13.5189 12.6054 13.7064 12.7929C13.894 12.9804 13.9993 13.2348 13.9993 13.5C13.9993 13.7652 13.894 14.0196 13.7064 14.2071C13.5189 14.3946 13.2646 14.5 12.9993 14.5ZM17.9993 13.5C17.9993 13.2348 18.1047 12.9804 18.2922 12.7929C18.4798 12.6054 18.7341 12.5 18.9993 12.5H22.9993C23.2646 12.5 23.5189 12.6054 23.7064 12.7929C23.894 12.9804 23.9993 13.2348 23.9993 13.5C23.9993 13.7652 23.894 14.0196 23.7064 14.2071C23.5189 14.3946 23.2646 14.5 22.9993 14.5H18.9993C18.7341 14.5 18.4798 14.3946 18.2922 14.2071C18.1047 14.0196 17.9993 13.7652 17.9993 13.5ZM26.934 25.9614C26.5429 26.0301 26.1411 26.0047 25.7617 25.8875C25.3823 25.7703 25.0362 25.5645 24.752 25.2871L20.8631 20.9701L21.5016 20.9675C22.7767 20.9668 24.0305 20.641 25.1447 20.0209C26.2588 19.4009 27.1965 18.507 27.8692 17.4238L28.9633 23.0729C29.0754 23.7248 28.9249 24.3946 28.5447 24.9359C28.1644 25.4771 27.5853 25.8459 26.934 25.9614V25.9614Z"/>
</svg>
