<svg viewBox="0 0 32 32" xmlns="http://www.w3.org/2000/svg">
<path d="M16 3.00001C12.8185 3.0036 9.76835 4.26904 7.51869 6.5187C5.26904 8.76835 4.0036 11.8185 4 15V27C3.99999 27.1893 4.05371 27.3747 4.15492 27.5347C4.25613 27.6946 4.40067 27.8226 4.57174 27.9037C4.7428 27.9847 4.93336 28.0156 5.12126 27.9926C5.30916 27.9696 5.48668 27.8938 5.63318 27.7739L8.66663 25.292L11.7002 27.7739C11.8789 27.9201 12.1026 28 12.3334 28C12.5643 28 12.788 27.9201 12.9667 27.7739L16 25.292L19.0333 27.7739C19.212 27.9201 19.4357 28 19.6666 28C19.8974 28 20.1212 27.9201 20.2998 27.7739L23.3334 25.292L26.3668 27.7739C26.5133 27.8938 26.6908 27.9696 26.8787 27.9926C27.0666 28.0156 27.2572 27.9847 27.4283 27.9037C27.5993 27.8226 27.7439 27.6946 27.8451 27.5347C27.9463 27.3747 28 27.1893 28 27V15C27.9964 11.8185 26.731 8.76835 24.4813 6.5187C22.2316 4.26904 19.1815 3.0036 16 3.00001V3.00001ZM12.5 16C12.2033 16 11.9133 15.912 11.6666 15.7472C11.42 15.5824 11.2277 15.3481 11.1142 15.074C11.0006 14.7999 10.9709 14.4983 11.0288 14.2074C11.0867 13.9164 11.2296 13.6491 11.4393 13.4393C11.6491 13.2296 11.9164 13.0867 12.2074 13.0288C12.4983 12.9709 12.7999 13.0006 13.074 13.1142C13.3481 13.2277 13.5824 13.42 13.7472 13.6666C13.912 13.9133 14 14.2033 14 14.5C14 14.8978 13.842 15.2794 13.5607 15.5607C13.2794 15.842 12.8978 16 12.5 16V16ZM19.5 16C19.2033 16 18.9133 15.912 18.6666 15.7472C18.42 15.5824 18.2277 15.3481 18.1142 15.074C18.0007 14.7999 17.9709 14.4983 18.0288 14.2074C18.0867 13.9164 18.2296 13.6491 18.4393 13.4393C18.6491 13.2296 18.9164 13.0867 19.2074 13.0288C19.4983 12.9709 19.7999 13.0006 20.074 13.1142C20.3481 13.2277 20.5824 13.42 20.7472 13.6666C20.912 13.9133 21 14.2033 21 14.5C21 14.8978 20.842 15.2794 20.5607 15.5607C20.2794 15.842 19.8978 16 19.5 16Z"/>
</svg>
