<svg viewBox="0 0 32 32" xmlns="http://www.w3.org/2000/svg">
<path d="M22 4C20.8358 3.998 19.6873 4.26769 18.6457 4.78761C17.6041 5.30754 16.6982 6.06335 16 6.99493C15.0545 5.73686 13.7372 4.80799 12.2347 4.33975C10.7322 3.87152 9.12048 3.88763 7.62762 4.38581C6.13477 4.88398 4.83637 5.839 3.91616 7.11572C2.99595 8.39244 2.50053 9.92621 2.5 11.5C2.5 20.4828 14.9801 27.575 15.5114 27.8725C15.6606 27.9561 15.8289 28 16 28C16.1711 28 16.3394 27.9561 16.4886 27.8725C18.784 26.5282 20.9382 24.9563 22.9189 23.1808C27.2858 19.2506 29.5 15.3206 29.5 11.5C29.4977 9.51157 28.7068 7.60522 27.3008 6.19919C25.8948 4.79315 23.9884 4.00225 22 4V4Z"/>
</svg>
