<svg viewBox="0 0 32 32" xmlns="http://www.w3.org/2000/svg">
<path d="M28.0788 6.48828C27.3998 5.72717 26.5716 5.11373 25.6456 4.68603C24.7197 4.25832 23.7157 4.02548 22.696 4.00195C21.6793 3.98058 20.6686 4.16383 19.7241 4.54079C18.7796 4.91775 17.9206 5.48073 17.1979 6.19629L16.0007 7.39356L15.0632 6.45703C12.1472 3.53809 7.40108 3.29297 4.49092 5.91992C3.73239 6.60033 3.12054 7.42822 2.69273 8.35304C2.26492 9.27786 2.03013 10.2802 2.00271 11.2988C1.9753 12.3174 2.15582 13.3309 2.53326 14.2774C2.9107 15.2239 3.47713 16.0835 4.19795 16.8037L14.5866 27.1924C14.9619 27.567 15.4705 27.7773 16.0007 27.7773C16.5309 27.7773 17.0395 27.567 17.4147 27.1924L27.5437 17.0635C30.4616 14.1445 30.7019 9.40039 28.0788 6.48828Z"/>
</svg>
