<svg viewBox="0 0 32 32" xmlns="http://www.w3.org/2000/svg">
<path d="M25.2566 6.87219C24.0503 5.64148 22.6098 4.6648 21.02 3.99976C19.4302 3.33472 17.7233 2.99478 16 3H15C14.7348 3 14.4804 3.10536 14.2929 3.29289C14.1054 3.48043 14 3.73478 14 4V7.44122L1.47591 15.1483C1.35882 15.2204 1.25785 15.3158 1.1793 15.4286C1.10075 15.5415 1.04631 15.6693 1.01938 15.8041C0.992444 15.9389 0.9936 16.0778 1.02277 16.2122C1.05194 16.3466 1.10851 16.4734 1.18892 16.585L2.91232 18.9745C3.34835 19.5831 3.94724 20.0564 4.64017 20.3399C5.3331 20.6235 6.09196 20.7058 6.82957 20.5774C8.53599 20.2886 11.6536 20.0484 14.5201 21.3513L11.2528 25.9256C10.3134 25.4756 9.44277 24.8943 8.66697 24.1993C8.4693 24.0227 8.20962 23.9318 7.94498 23.9466C7.68034 23.9614 7.43239 24.0806 7.25561 24.2781C7.07883 24.4756 6.98768 24.7352 7.00219 24.9998C7.01669 25.2645 7.13567 25.5125 7.33298 25.6895C9.71478 27.8253 12.8025 29.0044 16.0016 29C16.0885 29 16.1755 28.9991 16.2626 28.9974C18.8031 28.9461 21.2729 28.1513 23.3666 26.7114C25.4603 25.2715 27.0861 23.2495 28.043 20.8956C28.9999 18.5416 29.246 15.9588 28.7507 13.4664C28.2555 10.9741 27.0408 8.68154 25.2566 6.87219V6.87219ZM15.5 14C15.2033 14 14.9133 13.912 14.6666 13.7472C14.42 13.5824 14.2277 13.3481 14.1142 13.074C14.0006 12.7999 13.9709 12.4983 14.0288 12.2074C14.0867 11.9164 14.2295 11.6491 14.4393 11.4393C14.6491 11.2296 14.9164 11.0867 15.2073 11.0288C15.4983 10.9709 15.7999 11.0006 16.074 11.1142C16.3481 11.2277 16.5824 11.42 16.7472 11.6666C16.912 11.9133 17 12.2033 17 12.5C17 12.8978 16.8419 13.2794 16.5606 13.5607C16.2793 13.842 15.8978 14 15.5 14V14Z"/>
</svg>
