<svg   viewBox="0 0 32 32" fill="none" xmlns="http://www.w3.org/2000/svg">
<path d="M16 19C19.866 19 23 15.866 23 12C23 8.13401 19.866 5 16 5C12.134 5 9 8.13401 9 12C9 15.866 12.134 19 16 19Z" fill="black"/>
<path d="M16 1C13.735 0.999132 11.525 1.69775 9.67204 3.00036C7.8191 4.30298 6.41362 6.14603 5.64772 8.27761C4.88182 10.4092 4.79287 12.7253 5.39302 14.9093C5.99318 17.0934 7.25315 19.0388 9.00073 20.4797V30C9.00072 30.1705 9.04428 30.3381 9.12728 30.487C9.21029 30.6359 9.32998 30.7611 9.47499 30.8507C9.62001 30.9403 9.78552 30.9914 9.95582 30.999C10.1261 31.0067 10.2955 30.9707 10.448 30.8944L15.9999 28.118L21.5536 30.8945C21.706 30.9707 21.8755 31.0067 22.0457 30.999C22.216 30.9913 22.3815 30.9403 22.5265 30.8506C22.6715 30.761 22.7912 30.6358 22.8742 30.487C22.9572 30.3381 23.0007 30.1705 23.0007 30V20.4785C24.7479 19.0374 26.0075 17.0919 26.6074 14.9079C27.2072 12.724 27.118 10.4081 26.352 8.2767C25.5859 6.14535 24.1804 4.30252 22.3276 3.00008C20.4747 1.69764 18.2648 0.99913 16 1V1ZM16 21C14.22 21 12.4799 20.4722 10.9999 19.4832C9.51983 18.4943 8.36627 17.0887 7.68509 15.4442C7.0039 13.7996 6.82567 11.99 7.17293 10.2442C7.5202 8.49836 8.37737 6.89471 9.63604 5.63604C10.8947 4.37737 12.4984 3.5202 14.2442 3.17293C15.99 2.82567 17.7996 3.0039 19.4442 3.68508C21.0887 4.36627 22.4943 5.51983 23.4832 6.99987C24.4722 8.47991 25 10.22 25 12C24.9973 14.3861 24.0482 16.6737 22.361 18.361C20.6737 20.0482 18.3861 20.9973 16 21V21Z" fill="black"/>
</svg>
