<svg viewBox="0 0 32 32" xmlns="http://www.w3.org/2000/svg">
<path d="M25.2701 25.1041C27.6603 22.6767 29 19.4067 29 16C29 12.5933 27.6603 9.3233 25.2701 6.89588C25.2221 6.83378 25.1663 6.77806 25.1042 6.73004C22.6768 4.33976 19.4067 3 16 3C12.5933 3 9.32318 4.33976 6.89575 6.73004C6.83366 6.77806 6.77793 6.83378 6.72992 6.89588C4.33972 9.3233 3 12.5933 3 16C3 19.4067 4.33972 22.6767 6.72992 25.1041C6.77794 25.1662 6.83369 25.222 6.89581 25.27C9.32323 27.6602 12.5933 29 16 29C19.4067 29 22.6768 27.6602 25.1042 25.27C25.1663 25.222 25.2221 25.1662 25.2701 25.1041V25.1041ZM5.04596 17H8.0647C8.24324 18.4226 8.80279 19.7706 9.6842 20.9015L7.5506 23.0351C6.12101 21.3252 5.24722 19.2197 5.04596 17V17ZM7.5506 8.96491L9.6842 11.0985C8.80279 12.2294 8.24324 13.5774 8.0647 15H5.04596C5.24722 12.7803 6.12101 10.6748 7.5506 8.96491V8.96491ZM26.954 15H23.9353C23.7568 13.5774 23.1972 12.2294 22.3158 11.0985L24.4494 8.96491C25.879 10.6748 26.7528 12.7803 26.954 15V15ZM20.9015 9.68417C19.7706 8.80277 18.4226 8.24325 17 8.06473V5.04593C19.2197 5.24721 21.3252 6.12101 23.0351 7.5506L20.9015 9.68417ZM15 8.06473C13.5774 8.24325 12.2294 8.80277 11.0985 9.68417L8.9649 7.5506C10.6748 6.12101 12.7803 5.24721 15 5.04593V8.06473ZM11.0985 22.3158C12.2294 23.1972 13.5774 23.7568 15 23.9353V26.9541C12.7803 26.7528 10.6748 25.879 8.9649 24.4494L11.0985 22.3158ZM17 23.9353C18.4226 23.7568 19.7706 23.1972 20.9015 22.3158L23.0351 24.4494C21.3252 25.879 19.2197 26.7528 17 26.9541V23.9353ZM22.3158 20.9015C23.1972 19.7706 23.7568 18.4226 23.9353 17H26.954C26.7528 19.2197 25.879 21.3252 24.4494 23.0351L22.3158 20.9015Z"/>
</svg>
