<svg viewBox="0 0 32 32" xmlns="http://www.w3.org/2000/svg">
<path d="M20.7226 28.0001L26 28C26.5303 27.9994 27.0386 27.7885 27.4136 27.4136C27.7885 27.0386 27.9994 26.5303 28 26L28.0001 21.2936C28.0001 21.1291 27.9595 20.9673 27.882 20.8222C27.8045 20.6772 27.6925 20.5535 27.5557 20.4622C27.419 20.3708 27.2619 20.3146 27.0983 20.2984C26.9346 20.2823 26.7695 20.3067 26.6176 20.3696C26.2633 20.5164 25.8835 20.5916 25.5001 20.5909C23.8459 20.5909 22.5001 19.2043 22.5001 17.5C22.5001 15.7957 23.8459 14.4091 25.5001 14.4091C25.8835 14.4084 26.2633 14.4836 26.6176 14.6304C26.7695 14.6933 26.9346 14.7177 27.0983 14.7016C27.2619 14.6854 27.419 14.6292 27.5557 14.5378C27.6925 14.4465 27.8045 14.3228 27.882 14.1778C27.9595 14.0327 28.0001 13.8709 28.0001 13.7064L28 9C27.9994 8.46974 27.7885 7.96137 27.4135 7.58643C27.0386 7.21148 26.5302 7.00058 25.9999 7L21.4728 7.00012C21.491 6.83404 21.5001 6.66708 21.5 6.5C21.5 5.30653 21.0259 4.16193 20.182 3.31802C19.3381 2.47411 18.1935 2 17 2C15.8065 2 14.6619 2.47411 13.818 3.31802C12.9741 4.16193 12.5 5.30653 12.5 6.5C12.4999 6.66708 12.509 6.83404 12.5272 7.00012L8 7C7.46975 7.0006 6.96139 7.2115 6.58644 7.58644C6.2115 7.96139 6.0006 8.46975 6 9L6.00006 13.0272C5.834 13.009 5.66706 12.9999 5.5 13C4.30653 13 3.16193 13.4741 2.31802 14.318C1.47411 15.1619 1 16.3065 1 17.5C1 18.6935 1.47411 19.8381 2.31802 20.682C3.16193 21.5259 4.30653 22 5.5 22C5.66706 22.0001 5.834 21.991 6.00006 21.9728L6 26C6.00059 26.5302 6.21149 27.0386 6.58642 27.4135C6.96135 27.7885 7.4697 27.9994 7.99994 28L13.2775 28.0001"/>
</svg>
