<svg   viewBox="0 0 32 32" fill="none" xmlns="http://www.w3.org/2000/svg">
<path d="M28.9712 16.8542C28.9785 16.803 28.9818 16.7513 28.9811 16.6996C28.9934 16.468 28.9997 16.2347 29 16C29.0028 13.0385 27.9894 10.1656 26.129 7.86133C26.081 7.7829 26.0223 7.71149 25.9546 7.64911C24.5743 6.00457 22.8098 4.72572 20.8173 3.92578C20.7711 3.90344 20.7233 3.88471 20.6743 3.86975C17.6659 2.71006 14.3339 2.71008 11.3256 3.86981C11.2766 3.88478 11.2289 3.90349 11.1828 3.92578C9.1903 4.72571 7.42579 6.00453 6.04545 7.64905C5.97778 7.71144 5.91906 7.78287 5.87093 7.86133C4.01064 10.1657 2.99725 13.0385 3.00001 16C3.00001 16.235 3.00634 16.4685 3.01902 16.7004C3.01833 16.7517 3.02159 16.8029 3.02876 16.8536C3.16779 19.0028 3.84217 21.0831 4.99052 22.9052C5.02596 22.9788 5.0703 23.0477 5.12254 23.1105C6.87891 25.792 9.56095 27.7331 12.657 28.5635C12.6704 28.5679 12.6843 28.5707 12.698 28.5746C14.8627 29.1418 17.137 29.1418 19.3017 28.5746C19.3154 28.5707 19.3295 28.5679 19.343 28.5635C22.4391 27.7331 25.1211 25.792 26.8775 23.1105C26.9297 23.0477 26.9741 22.9788 27.0095 22.9052C28.1577 21.0833 28.8321 19.0032 28.9712 16.8542V16.8542ZM8.56742 14.6365L10.2134 15.1713L11.8056 20.0718L10.7884 21.4719L6.45868 21.4696C5.70096 20.1538 5.22594 18.6944 5.06397 17.1847L8.56742 14.6365ZM23.4326 14.6365L26.936 17.1847C26.7741 18.6944 26.2991 20.1538 25.5413 21.4696L21.2116 21.4719L20.1944 20.0718L21.7866 15.1713L23.4326 14.6365ZM24.1492 8.6192L22.8145 12.7344L21.1686 13.2692L17 10.2405V8.50983L20.5056 5.9657C21.8895 6.5906 23.1298 7.49387 24.1492 8.6192V8.6192ZM11.4944 5.9657L15 8.50983V10.2405L10.8314 13.2692L9.18548 12.7344L7.85081 8.6192C8.87023 7.49387 10.1105 6.59059 11.4944 5.9657V5.9657ZM13.7476 26.7678L12.4064 22.6475L13.4237 21.2473H18.5764L19.5936 22.6475L18.2524 26.7678C16.7668 27.0774 15.2332 27.0774 13.7476 26.7678V26.7678Z" fill="black"/>
</svg>
