<svg viewBox="0 0 32 32" xmlns="http://www.w3.org/2000/svg">
<path d="M29 17.5C29 18.7034 28.6898 19.8865 28.0993 20.935C27.5088 21.9836 26.6579 22.8622 25.6288 23.486C24.5997 24.1098 23.4272 24.4578 22.2244 24.4964C21.0217 24.535 19.8293 24.2628 18.7623 23.7062L20.2549 28.1838C20.3051 28.3342 20.3187 28.4942 20.2948 28.6509C20.2709 28.8075 20.2102 28.9562 20.1175 29.0848C20.0249 29.2133 19.903 29.318 19.762 29.3902C19.6209 29.4624 19.4647 29.5 19.3063 29.5H12.6937C12.5353 29.5 12.3791 29.4624 12.238 29.3902C12.097 29.318 11.9751 29.2133 11.8824 29.0847C11.7898 28.9562 11.729 28.8074 11.7051 28.6508C11.6812 28.4941 11.6949 28.334 11.7451 28.1837L13.2377 23.7062C12.1707 24.2628 10.9783 24.535 9.77556 24.4964C8.57278 24.4578 7.40026 24.1098 6.37118 23.486C5.34211 22.8622 4.49124 21.9836 3.90072 20.935C3.31021 19.8865 2.99998 18.7034 3 17.5C3 10.8033 15.2107 2.9115 15.7305 2.57886C15.8109 2.52733 15.9045 2.49994 16 2.49994C16.0955 2.49994 16.1891 2.52733 16.2695 2.57886C16.7893 2.9115 29 10.8033 29 17.5Z"/>
</svg>
