<svg   viewBox="0 0 32 32" fill="none" xmlns="http://www.w3.org/2000/svg">
<path d="M29.2506 14.4347L28.1608 15.3417C27.957 15.5113 27.6941 15.593 27.4301 15.5688C27.166 15.5446 26.9224 15.4165 26.7527 15.2127C26.5831 15.0089 26.5013 14.7461 26.5254 14.482C26.5495 14.2179 26.6775 13.9743 26.8813 13.8046L27.971 12.8976C27.9862 12.8862 27.9969 12.8697 28.0012 12.8512C28.0055 12.8326 28.003 12.8132 27.9943 12.7963C27.9802 12.7528 27.9653 12.7518 27.951 12.751L26.5076 12.6574C26.243 12.6402 25.996 12.5186 25.821 12.3193C25.6459 12.12 25.5573 11.8594 25.5744 11.5947C25.5916 11.3301 25.7132 11.0831 25.9125 10.908C26.1117 10.733 26.3724 10.6443 26.637 10.6615L28.0805 10.7551C28.4911 10.7821 28.884 10.9322 29.2079 11.1859C29.5318 11.4396 29.7716 11.7851 29.8961 12.1773C30.028 12.5748 30.037 13.0029 29.9219 13.4056C29.8067 13.8084 29.5728 14.167 29.2506 14.4347V14.4347ZM21.6335 19.7275L22.0478 21.3569C22.1134 21.6137 22.2783 21.8339 22.5061 21.9692C22.734 22.1046 23.0063 22.1439 23.2631 22.0785C23.52 22.0132 23.7404 21.8486 23.8759 21.6209C24.0115 21.3932 24.0511 21.1209 23.986 20.864L23.5719 19.2349C23.5672 19.2183 23.5671 19.2008 23.5715 19.1841C23.5759 19.1675 23.5847 19.1523 23.597 19.1403L24.851 18.0966C25.0546 17.9268 25.1824 17.6832 25.2064 17.4193C25.2305 17.1553 25.1488 16.8926 24.9792 16.6889C24.8097 16.4852 24.5662 16.3571 24.3023 16.3328C24.0384 16.3085 23.7756 16.3899 23.5717 16.5592L22.3177 17.6029C22.0157 17.8571 21.7913 18.1911 21.6703 18.5669C21.5493 18.9426 21.5365 19.3449 21.6335 19.7275ZM23.2728 11.4453C23.29 11.1807 23.2013 10.92 23.0263 10.7207C22.8513 10.5214 22.6043 10.3998 22.3397 10.3826L20.6976 10.276C20.6878 10.2736 20.6788 10.2686 20.6715 10.2616C20.6642 10.2546 20.659 10.2457 20.6563 10.236L17.9027 3.302C17.7539 2.91857 17.4927 2.58906 17.1534 2.3567C16.814 2.12435 16.4124 2.00001 16.0011 2C15.5898 1.99998 15.1882 2.1243 14.8488 2.35663C14.5094 2.58896 14.2482 2.91845 14.0994 3.30188L11.3458 10.2362C11.3431 10.2459 11.3378 10.2547 11.3306 10.2617C11.3234 10.2687 11.3144 10.2736 11.3046 10.276L3.92147 10.7551C3.51093 10.7821 3.11806 10.9322 2.79418 11.1859C2.4703 11.4396 2.23048 11.7851 2.10604 12.1773C1.97406 12.5748 1.96507 13.0029 2.08023 13.4056C2.19539 13.8084 2.42935 14.167 2.75155 14.4347L8.40511 19.1403C8.41735 19.1523 8.42615 19.1675 8.43059 19.1841C8.43503 19.2007 8.43496 19.2182 8.43038 19.2347L6.74117 25.8796C6.62438 26.3271 6.64542 26.7994 6.80152 27.2347C6.95763 27.6699 7.24152 28.048 7.61604 28.3192C7.97781 28.5836 8.41098 28.7326 8.85884 28.7467C9.3067 28.7608 9.74839 28.6393 10.1261 28.3982L15.9848 24.6863C15.9896 24.683 15.9952 24.6812 16.001 24.681H16.0013C16.007 24.6812 16.0126 24.6831 16.0173 24.6863L17.4569 25.5984C17.6809 25.7403 17.9521 25.7874 18.2109 25.7294C18.4697 25.6713 18.6948 25.5129 18.8368 25.2888C18.9787 25.0648 19.0258 24.7935 18.9677 24.5348C18.9097 24.276 18.7512 24.0509 18.5272 23.9089L17.0876 22.9968C17.0593 22.9789 17.0301 22.9627 17.0011 22.9463V6.45053L18.7974 10.974C18.9404 11.3351 19.1825 11.6485 19.4957 11.8781C19.8089 12.1077 20.1806 12.2442 20.568 12.2719L22.21 12.3784C22.4747 12.3954 22.7352 12.3067 22.9345 12.1318C23.1338 11.9568 23.2554 11.7099 23.2728 11.4453V11.4453ZM25.0465 25.0359C24.9809 24.7791 24.816 24.5589 24.5881 24.4236C24.3603 24.2883 24.088 24.249 23.8312 24.3143C23.5743 24.3796 23.3539 24.5442 23.2183 24.7719C23.0828 24.9997 23.0432 25.2719 23.1082 25.5288L23.455 26.8927C23.46 26.9047 23.462 26.9177 23.4608 26.9307C23.4597 26.9436 23.4554 26.9561 23.4484 26.967C23.4387 26.9812 23.4256 26.9926 23.4102 27.0004C23.4038 26.9981 23.3977 26.995 23.392 26.9911L22.1638 26.213C21.9397 26.0711 21.6685 26.024 21.4097 26.082C21.1509 26.1401 20.9258 26.2985 20.7839 26.5226C20.642 26.7466 20.5948 27.0179 20.6529 27.2766C20.711 27.5354 20.8694 27.7605 21.0935 27.9025L22.3216 28.6805C22.6645 28.8994 23.0655 29.0097 23.4721 28.9969C23.8787 28.9842 24.2719 28.849 24.6004 28.609C24.9396 28.3634 25.1968 28.0212 25.3383 27.627C25.4798 27.2328 25.4989 26.8051 25.3933 26.3999L25.0465 25.0359Z" fill="black"/>
</svg>
