<svg   viewBox="0 0 32 32" fill="none" xmlns="http://www.w3.org/2000/svg">
<path d="M27.705 4.29291C27.5175 4.10538 27.2631 4.00003 26.9979 4H26.9947L19.0198 4.02515C18.873 4.02561 18.7282 4.05838 18.5955 4.12114C18.4628 4.18389 18.3455 4.27509 18.252 4.38825L9.45249 15.0403L8.41205 13.9999C8.03661 13.6255 7.52801 13.4152 6.99778 13.4152C6.46755 13.4153 5.95897 13.6256 5.58356 14L3.99799 15.5857C3.81224 15.7714 3.66488 15.9919 3.56435 16.2345C3.46381 16.4772 3.41206 16.7373 3.41205 16.9999C3.41204 17.2626 3.46377 17.5227 3.56428 17.7653C3.6648 18.008 3.81213 18.2285 3.99786 18.4142L6.6087 21.0251L2.86603 24.7678C2.49153 25.1432 2.28123 25.6518 2.28125 26.182C2.28127 26.7123 2.49162 27.2208 2.86615 27.5962L4.40167 29.1317C4.58739 29.3174 4.80788 29.4648 5.05053 29.5653C5.29319 29.6658 5.55327 29.7175 5.81592 29.7175C6.07857 29.7175 6.33865 29.6658 6.58131 29.5653C6.82396 29.4648 7.04445 29.3174 7.23017 29.1317L10.9727 25.389L13.5837 28.0001C13.9591 28.3745 14.4677 28.5847 14.9979 28.5847C15.5282 28.5847 16.0367 28.3744 16.4122 28L17.9977 26.4143C18.1835 26.2286 18.3308 26.0081 18.4314 25.7655C18.5319 25.5228 18.5837 25.2627 18.5837 25.0001C18.5837 24.7374 18.532 24.4773 18.4314 24.2347C18.3309 23.992 18.1836 23.7715 17.9979 23.5858L16.9575 22.5454L27.6096 13.7458C27.7227 13.6524 27.8139 13.5351 27.8767 13.4024C27.9395 13.2697 27.9722 13.1248 27.9727 12.978L27.9979 5.00317C27.9983 4.87132 27.9726 4.74069 27.9224 4.6188C27.8721 4.4969 27.7982 4.38615 27.705 4.29291V4.29291ZM25.9742 12.5027L15.5369 21.1248L13.9121 19.5L20.705 12.7072C20.8926 12.5196 20.9979 12.2652 20.9979 12C20.9979 11.7348 20.8926 11.4804 20.705 11.2928C20.5175 11.1053 20.2631 10.9999 19.9979 10.9999C19.7326 10.9999 19.4783 11.1053 19.2907 11.2928L12.4979 18.0858L10.8731 16.4609L19.4952 6.02362L25.9947 6.00318L25.9742 12.5027Z" fill="black"/>
</svg>
