<svg   viewBox="0 0 32 32" fill="none" xmlns="http://www.w3.org/2000/svg">
<path d="M27.9971 17.0051C28.3144 17.0051 28.6317 17.0208 28.9481 17.048C28.7023 20.1235 27.3695 23.011 25.1885 25.1933C23.0076 27.3756 20.1209 28.7101 17.0455 28.9579C16.9107 27.4388 17.0937 25.9083 17.583 24.4638C18.0723 23.0193 18.857 21.6926 19.8873 20.5682C20.9176 19.4437 22.1708 18.5462 23.567 17.9327C24.9633 17.3193 26.472 17.0034 27.9971 17.0051V17.0051ZM18.8047 18.8076C20.009 17.5967 21.4416 16.6366 23.0195 15.983C24.5973 15.3295 26.2892 14.9953 27.9971 15C28.3183 15 28.6377 15.0116 28.955 15.0347C28.7263 11.9279 27.3886 9.00674 25.1858 6.80395C22.983 4.60115 20.0619 3.26342 16.955 3.03467C17.0964 4.89913 16.833 6.77211 16.1831 8.52533C15.5331 10.2785 14.5119 11.8706 13.1894 13.1924C11.9851 14.4033 10.5525 15.3634 8.97464 16.017C7.39677 16.6705 5.70493 17.0047 3.99706 17C3.67577 17 3.35644 16.9884 3.03906 16.9653C3.26782 20.0721 4.60555 22.9933 6.80834 25.1961C9.01114 27.3988 11.9323 28.7366 15.0391 28.9653C14.8977 27.1009 15.1611 25.2279 15.811 23.4747C16.461 21.7215 17.4822 20.1294 18.8047 18.8076V18.8076ZM11.7753 11.7782C12.9109 10.6427 13.7837 9.27195 14.332 7.76252C14.8803 6.25308 15.0907 4.64174 14.9486 3.04211C11.8733 3.28985 8.98656 4.62439 6.80558 6.80671C4.62461 8.98902 3.29183 11.8765 3.04598 14.952C4.64454 15.0931 6.2546 14.8821 7.76278 14.3337C9.27096 13.7854 10.6406 12.913 11.7753 11.7782V11.7782Z" fill="black"/>
</svg>
