<svg   viewBox="0 0 32 32" fill="none" xmlns="http://www.w3.org/2000/svg">
<path d="M28.9976 15.9445C28.9892 13.953 28.5232 11.99 27.6357 10.207C26.7482 8.42413 25.4629 6.86899 23.879 5.66165C22.2951 4.45432 20.455 3.62707 18.5006 3.24377C16.5463 2.86047 14.53 2.93136 12.6074 3.45098C10.6848 3.9706 8.90728 4.92504 7.41208 6.24064C5.91689 7.55624 4.74398 9.19781 3.9839 11.0387C3.22382 12.8795 2.89689 14.8704 3.02835 16.8576C3.1598 18.8449 3.74613 20.7753 4.74207 22.5C4.98824 22.926 5.25802 23.3379 5.55012 23.7338C5.57104 23.766 5.59381 23.797 5.61832 23.8267C7.35907 26.1476 9.83128 27.8141 12.6357 28.557C13.7399 28.854 14.8782 29.0048 16.0215 29.0056C18.5394 28.9995 21.0013 28.2624 23.1084 26.884C25.2154 25.5056 26.877 23.545 27.8912 21.2405C27.9389 21.1612 27.9754 21.0757 27.9995 20.9865C28.6449 19.4288 28.9835 17.7612 28.9966 16.0751C28.9985 16.0502 29.0004 16.0254 29.0004 16C29.0004 15.9813 28.9986 15.963 28.9976 15.9445ZM5.56619 19.485C4.82151 17.2424 4.81723 14.8198 5.55399 12.5746C6.29075 10.3293 7.72953 8.3803 9.65816 7.01489L11.799 10.723C10.1962 11.6556 8.81107 12.9197 7.73618 14.4308C6.66129 15.9418 5.92147 17.665 5.56619 19.485V19.485ZM9.65884 24.9839C8.79243 24.3749 8.01935 23.6428 7.36394 22.8109C7.20452 20.7483 7.62991 18.6826 8.59127 16.8509C9.55264 15.0191 11.011 13.4955 12.799 12.455L14.8457 16L9.65884 24.9839ZM26.2073 20.0808C24.5011 21.2471 22.501 21.9092 20.4359 21.9913C18.3709 22.0734 16.3244 21.5722 14.5311 20.545L16.5778 17H26.948C26.8498 18.0571 26.6004 19.0946 26.2073 20.0808H26.2073ZM22.6711 15C22.6649 13.1481 22.2638 11.3187 21.4945 9.63411C20.7253 7.94947 19.6056 6.44824 18.2103 5.23059C20.5244 5.70183 22.6249 6.90693 24.1996 8.66692C25.7744 10.4269 26.7395 12.6479 26.9515 15H22.6711Z" fill="black"/>
</svg>
