<svg   viewBox="0 0 32 32" fill="none" xmlns="http://www.w3.org/2000/svg">
<path d="M13.3284 19.0166L12.2426 20.2426C11.4035 21.0818 10.3344 21.6532 9.17054 21.8847C8.00666 22.1162 6.80026 21.9974 5.7039 21.5433C4.60754 21.0892 3.67047 20.3201 3.01118 19.3334C2.35189 18.3467 2 17.1867 2 16C2 14.8133 2.35189 13.6533 3.01118 12.6666C3.67047 11.6799 4.60754 10.9109 5.7039 10.4567C6.80026 10.0026 8.00666 9.88378 9.17054 10.1153C10.3344 10.3468 11.4035 10.9182 12.2426 11.7574L19.7574 20.2426C20.5965 21.0818 21.6656 21.6532 22.8295 21.8847C23.9933 22.1162 25.1997 21.9974 26.2961 21.5433C27.3925 21.0892 28.3295 20.3201 28.9888 19.3334C29.6481 18.3467 30 17.1867 30 16C30 14.8133 29.6481 13.6533 28.9888 12.6666C28.3295 11.6799 27.3925 10.9109 26.2961 10.4567C25.1997 10.0026 23.9933 9.88378 22.8295 10.1153C21.6656 10.3468 20.5965 10.9182 19.7574 11.7574L18.6716 12.9834" stroke="black" stroke-width="2" stroke-linecap="round" stroke-linejoin="round"/>
</svg>
