<svg   viewBox="0 0 32 32" fill="none" xmlns="http://www.w3.org/2000/svg">
<path d="M19 10H13.9793L13 16.0253C13.4895 15.5358 14.1131 15.2025 14.792 15.0674C15.4709 14.9324 16.1747 15.0017 16.8142 15.2666C17.4537 15.5315 18.0003 15.9801 18.3849 16.5556C18.7695 17.1312 18.9747 17.8079 18.9747 18.5001C18.9747 19.1923 18.7695 19.869 18.3849 20.4445C18.0003 21.0201 17.4537 21.4687 16.8142 21.7336C16.1747 21.9985 15.4709 22.0678 14.792 21.9328C14.1131 21.7977 13.4895 21.4644 13 20.9749" stroke="black" stroke-width="2" stroke-linecap="round" stroke-linejoin="round"/>
<path d="M26 5H6C5.44772 5 5 5.44772 5 6V26C5 26.5523 5.44772 27 6 27H26C26.5523 27 27 26.5523 27 26V6C27 5.44772 26.5523 5 26 5Z" stroke="black" stroke-width="2" stroke-linecap="round" stroke-linejoin="round"/>
</svg>
