<svg viewBox="0 0 32 32" xmlns="http://www.w3.org/2000/svg">
<path d="M19.0311 15.7506L15 22.5" stroke-width="2" stroke-linecap="round" stroke-linejoin="round"/>
<path d="M26 5H6C5.44772 5 5 5.44772 5 6V26C5 26.5523 5.44772 27 6 27H26C26.5523 27 27 26.5523 27 26V6C27 5.44772 26.5523 5 26 5Z" stroke-width="2" stroke-linecap="round" stroke-linejoin="round"/>
<path d="M16 17.5C17.933 17.5 19.5 15.933 19.5 14C19.5 12.067 17.933 10.5 16 10.5C14.067 10.5 12.5 12.067 12.5 14C12.5 15.933 14.067 17.5 16 17.5Z" stroke-width="2" stroke-linecap="round" stroke-linejoin="round"/>
</svg>
