<svg viewBox="0 0 32 32" xmlns="http://www.w3.org/2000/svg">
<path d="M22.3486 8.95833C22.345 9.75065 22.1781 10.5337 21.8583 11.2586C21.5384 11.9835 21.0726 12.6347 20.4898 13.1715C19.2649 14.294 17.6638 14.9167 16.0024 14.9167C14.341 14.9167 12.7399 14.294 11.515 13.1715C10.9294 12.637 10.4616 11.9862 10.1416 11.2608C9.82154 10.5354 9.65625 9.75122 9.65625 8.95833C9.65625 8.16545 9.82154 7.38127 10.1416 6.65585C10.4616 5.93042 10.9294 5.27968 11.515 4.74515C12.7399 3.62267 14.341 3 16.0024 3C17.6638 3 19.2649 3.62267 20.4898 4.74515C21.0726 5.28194 21.5384 5.93313 21.8583 6.65804C22.1781 7.38295 22.345 8.16602 22.3486 8.95833V8.95833Z" stroke-width="2" stroke-linecap="round" stroke-linejoin="round"/>
<path d="M23.5 21.9583C23.4958 22.8947 23.2985 23.8201 22.9205 24.6768C22.5426 25.5335 21.992 26.3031 21.3033 26.9375C19.8557 28.2641 17.9635 29 16 29C14.0365 29 12.1443 28.2641 10.6967 26.9375C10.0046 26.3058 9.4518 25.5367 9.07358 24.6794C8.69535 23.8221 8.5 22.8953 8.5 21.9583C8.5 21.0212 8.69535 20.0945 9.07358 19.2372C9.4518 18.3799 10.0046 17.6108 10.6967 16.9791C12.1443 15.6525 14.0365 14.9166 16 14.9166C17.9635 14.9166 19.8557 15.6525 21.3033 16.9791C21.992 17.6135 22.5426 18.3831 22.9205 19.2398C23.2985 20.0965 23.4958 21.0219 23.5 21.9583Z" stroke-width="2" stroke-linecap="round" stroke-linejoin="round"/>
</svg>
