<svg viewBox="0 0 32 32" xmlns="http://www.w3.org/2000/svg">
<path d="M13 10.5H18.9992L15.5005 15.5006C16.076 15.5005 16.6427 15.6425 17.1502 15.9138C17.6578 16.185 18.0907 16.5773 18.4104 17.0559C18.7302 17.5344 18.927 18.0844 18.9834 18.6572C19.0399 19.2299 18.9542 19.8078 18.7339 20.3395C18.5137 20.8712 18.1657 21.3404 17.7208 21.7056C17.2759 22.0707 16.7479 22.3205 16.1834 22.4327C15.6189 22.545 15.0354 22.5164 14.4847 22.3493C13.9339 22.1822 13.4329 21.8819 13.0259 21.475" stroke-width="2" stroke-linecap="round" stroke-linejoin="round"/>
<path d="M26 5H6C5.44772 5 5 5.44772 5 6V26C5 26.5523 5.44772 27 6 27H26C26.5523 27 27 26.5523 27 26V6C27 5.44772 26.5523 5 26 5Z" stroke-width="2" stroke-linecap="round" stroke-linejoin="round"/>
</svg>
