<svg viewBox="0 0 32 32" xmlns="http://www.w3.org/2000/svg">
<path d="M26 5H6C5.44772 5 5 5.44772 5 6V26C5 26.5523 5.44772 27 6 27H26C26.5523 27 27 26.5523 27 26V6C27 5.44772 26.5523 5 26 5Z" stroke-width="2" stroke-linecap="round" stroke-linejoin="round"/>
<path d="M13.2358 11.8322C13.3986 11.4468 13.6404 11.0997 13.9454 10.8133C14.2504 10.5268 14.6119 10.3073 15.0067 10.1689C15.4016 10.0304 15.8211 9.9761 16.2382 10.0094C16.6553 10.0427 17.0608 10.1628 17.4287 10.3621C17.7966 10.5614 18.1188 10.8355 18.3745 11.1667C18.6302 11.4979 18.8138 11.8789 18.9135 12.2853C19.0133 12.6916 19.0269 13.1144 18.9535 13.5263C18.8802 13.9383 18.7215 14.3303 18.4876 14.6773V14.6773L13 22V21.9992H19" stroke-width="2" stroke-linecap="round" stroke-linejoin="round"/>
</svg>
