<svg viewBox="0 0 32 32" xmlns="http://www.w3.org/2000/svg">
<path d="M16 28C22.6274 28 28 22.6274 28 16C28 9.37258 22.6274 4 16 4C9.37258 4 4 9.37258 4 16C4 22.6274 9.37258 28 16 28Z" stroke-width="2" stroke-miterlimit="10"/>
<path d="M13 10.499H19L15.5008 15.5C16.0764 15.5 16.6431 15.642 17.1507 15.9133C17.6583 16.1846 18.0912 16.5769 18.4109 17.0555C18.7307 17.5341 18.9275 18.0841 18.9839 18.6569C19.0404 19.2298 18.9546 19.8076 18.7344 20.3394C18.5141 20.8712 18.1661 21.3404 17.7212 21.7055C17.2762 22.0707 16.7481 22.3205 16.1836 22.4328C15.6191 22.545 15.0356 22.5164 14.4848 22.3493C13.934 22.1822 13.4329 21.8819 13.0259 21.4749" stroke-width="2" stroke-linecap="round" stroke-linejoin="round"/>
</svg>
