<svg viewBox="0 0 32 32" xmlns="http://www.w3.org/2000/svg">
<path d="M26 5H6C5.44772 5 5 5.44772 5 6V26C5 26.5523 5.44772 27 6 27H26C26.5523 27 27 26.5523 27 26V6C27 5.44772 26.5523 5 26 5Z" stroke-width="2" stroke-linecap="round" stroke-linejoin="round"/>
<path d="M12.9688 16.7503L16.9993 9.99927" stroke-width="2" stroke-linecap="round" stroke-linejoin="round"/>
<path d="M16 22C17.933 22 19.5 20.433 19.5 18.5C19.5 16.567 17.933 15 16 15C14.067 15 12.5 16.567 12.5 18.5C12.5 20.433 14.067 22 16 22Z" stroke-width="2" stroke-linecap="round" stroke-linejoin="round"/>
</svg>
