<svg   viewBox="0 0 32 32" fill="none" xmlns="http://www.w3.org/2000/svg">
<path d="M25.8823 11.0833C25.79 10.9914 25.6966 10.901 25.6021 10.8122L28.7071 7.70712C28.8944 7.51954 28.9996 7.26526 28.9995 7.00015C28.9995 6.73505 28.8941 6.48083 28.7067 6.29338C28.5192 6.10592 28.265 6.00057 27.9999 6.00049C27.7348 6.00041 27.4805 6.10559 27.2929 6.29293L24.0466 9.53921C21.6938 7.88274 18.8856 6.99567 16.0082 6.99995C13.1307 7.00422 10.3252 7.89962 7.9773 9.56308L4.7071 6.29294C4.51952 6.1056 4.26524 6.00041 4.00014 6.00049C3.73503 6.00058 3.48081 6.10592 3.29336 6.29338C3.1059 6.48084 3.00055 6.73506 3.00047 7.00016C3.00039 7.26526 3.10558 7.51955 3.29291 7.70712L6.42536 10.8396C5.02589 12.1654 3.91161 13.7629 3.1507 15.5342C2.38979 17.3054 1.99824 19.2133 2.00001 21.1411V24C2.00061 24.5303 2.21152 25.0386 2.58646 25.4136C2.9614 25.7885 3.46976 25.9994 4.00001 26H28C28.5303 25.9994 29.0386 25.7885 29.4135 25.4136C29.7885 25.0386 29.9994 24.5303 30 24V21C30.0052 19.1567 29.6438 17.3306 28.9369 15.6282C28.23 13.9257 27.1916 12.3808 25.8823 11.0833V11.0833ZM11.5 21C11.2033 21 10.9133 20.9121 10.6667 20.7472C10.42 20.5824 10.2277 20.3481 10.1142 20.0741C10.0007 19.8 9.97095 19.4984 10.0288 19.2074C10.0867 18.9164 10.2296 18.6491 10.4393 18.4394C10.6491 18.2296 10.9164 18.0867 11.2074 18.0288C11.4983 17.971 11.7999 18.0007 12.074 18.1142C12.3481 18.2277 12.5824 18.42 12.7472 18.6667C12.912 18.9133 13 19.2034 13 19.5C13 19.8979 12.842 20.2794 12.5607 20.5607C12.2794 20.842 11.8978 21 11.5 21ZM20.5 21C20.2033 21 19.9133 20.9121 19.6667 20.7472C19.42 20.5824 19.2277 20.3481 19.1142 20.0741C19.0007 19.8 18.9709 19.4984 19.0288 19.2074C19.0867 18.9164 19.2296 18.6491 19.4393 18.4394C19.6491 18.2296 19.9164 18.0867 20.2074 18.0288C20.4983 17.971 20.7999 18.0007 21.074 18.1142C21.3481 18.2277 21.5824 18.42 21.7472 18.6667C21.912 18.9133 22 19.2034 22 19.5C22 19.8979 21.842 20.2794 21.5607 20.5607C21.2794 20.842 20.8978 21 20.5 21Z" fill="black"/>
</svg>
