<svg viewBox="0 0 32 32" xmlns="http://www.w3.org/2000/svg">
<path d="M16.3325 3.70392C16.6992 2.76321 17.3405 1.95459 18.1729 1.3832C19.0053 0.8118 19.9904 0.504064 21 0.5C21.2652 0.5 21.5196 0.605357 21.7071 0.792893C21.8946 0.98043 22 1.23478 22 1.5C22 1.76522 21.8946 2.01957 21.7071 2.20711C21.5196 2.39464 21.2652 2.5 21 2.5C20.3941 2.50241 19.803 2.68706 19.3034 3.02993C18.8039 3.3728 18.4191 3.85804 18.199 4.42255C18.1035 4.6698 17.9138 4.86904 17.6715 4.97648C17.4292 5.08392 17.1541 5.09078 16.9068 4.99555C16.6594 4.90031 16.46 4.71078 16.3523 4.46859C16.2447 4.2264 16.2375 3.95136 16.3325 3.70392V3.70392ZM27.7556 19.4695C26.9568 19.068 26.2802 18.4597 25.7963 17.708C25.3123 16.9563 25.0387 16.0886 25.0038 15.1952C24.9689 14.3019 25.1742 13.4155 25.5981 12.6284C26.022 11.8412 26.6491 11.1821 27.4142 10.7195C27.5353 10.6462 27.6395 10.5479 27.7198 10.4312C27.8001 10.3146 27.8547 10.1822 27.88 10.0429C27.9053 9.90352 27.9007 9.76039 27.8666 9.62294C27.8324 9.4855 27.7694 9.35689 27.6818 9.24561C26.3223 7.5171 24.3458 6.38268 22.1675 6.0806C19.9892 5.77851 17.7786 6.33226 16 7.62555C14.7319 6.70341 13.2334 6.14996 11.6704 6.02643C10.1073 5.90289 8.54049 6.21408 7.14326 6.92557C5.74603 7.63707 4.57281 8.72114 3.75335 10.0579C2.93389 11.3947 2.50011 12.932 2.5 14.5C2.5 17.6879 3.54199 21.0583 5.35889 23.7473C7.15814 26.4103 9.45386 28 11.5 28H20.5C23.3082 28 26.4907 25.0168 28.2395 20.7456C28.3353 20.5112 28.3387 20.2491 28.2489 20.0122C28.1591 19.7754 27.9828 19.5814 27.7556 19.4695V19.4695Z"/>
</svg>
