<svg viewBox="0 0 32 32" xmlns="http://www.w3.org/2000/svg">
<path d="M30.9144 21.2261L26.6677 7.07034C26.5826 6.785 26.4348 6.52232 26.235 6.30158C26.0352 6.08085 25.7885 5.90765 25.513 5.79471L25.4458 5.8151L25.5145 5.79111C24.1206 5.2228 22.6749 4.79131 21.1976 4.50272C21.0688 4.47711 20.9362 4.47712 20.8074 4.50275C20.6786 4.52839 20.5561 4.57914 20.4469 4.65211C20.3377 4.72508 20.244 4.81884 20.171 4.92804C20.0981 5.03724 20.0473 5.15974 20.0217 5.28855C19.9961 5.41735 19.9961 5.54994 20.0218 5.67874C20.0474 5.80754 20.0981 5.93003 20.1711 6.03922C20.2441 6.1484 20.3379 6.24215 20.4471 6.3151C20.5563 6.38805 20.6788 6.43878 20.8076 6.46439C21.3681 6.57584 21.9175 6.70698 22.4556 6.85782C22.6664 6.96189 22.8336 7.13706 22.9278 7.35243C23.022 7.56779 23.0371 7.8095 22.9704 8.0349C22.9037 8.2603 22.7595 8.4549 22.5633 8.58436C22.3672 8.71382 22.1315 8.76982 21.8981 8.74246C18.0752 7.76037 14.0672 7.75248 10.2405 8.71951C10.0027 8.77798 9.75176 8.74712 9.53524 8.6328C9.31872 8.51848 9.15171 8.32865 9.06589 8.09933C8.98007 7.87002 8.98143 7.61717 9.0697 7.38879C9.15797 7.16041 9.32701 6.97238 9.54474 6.86038L9.54901 6.86185C10.0869 6.71121 10.6369 6.57989 11.1991 6.46787C11.4592 6.41611 11.6881 6.26317 11.8354 6.04266C11.9828 5.82216 12.0365 5.55216 11.9848 5.29205C11.9331 5.03195 11.7802 4.80303 11.5597 4.65566C11.3392 4.50828 11.0692 4.45452 10.8091 4.5062C9.33176 4.79482 7.88598 5.22631 6.49213 5.79459C6.21664 5.90755 5.96994 6.08075 5.77011 6.30148C5.57029 6.52222 5.42242 6.78489 5.33734 7.07022L1.09064 21.2261C0.98093 21.5965 0.980194 21.9906 1.08852 22.3614C1.19684 22.7321 1.40964 23.0639 1.70148 23.3169C1.8208 23.4207 1.94311 23.5226 2.06714 23.6234C2.07007 23.6258 2.07257 23.6285 2.0755 23.6309C4.10431 25.2766 6.76343 26.534 9.76532 27.2668C10.023 27.3297 10.295 27.2876 10.5217 27.1499C10.7484 27.0122 10.911 26.7901 10.9739 26.5325C11.0368 26.2749 10.9948 26.0028 10.8571 25.7761C10.7194 25.5495 10.4973 25.3868 10.2397 25.3239C8.88965 24.9994 7.57689 24.5358 6.32245 23.9406L6.33069 23.9412C6.15479 23.7817 6.04139 23.5648 6.0108 23.3294C5.98021 23.0939 6.03442 22.8553 6.16373 22.6561C6.29305 22.457 6.48901 22.3104 6.71655 22.2426C6.94408 22.1747 7.18834 22.1901 7.40558 22.2859C9.77875 23.343 12.7604 24 16.0025 24C19.2446 24 22.2283 23.3422 24.6015 22.2851C24.8188 22.1899 25.0628 22.175 25.2901 22.2431C25.5173 22.3113 25.7129 22.458 25.8419 22.6571C25.9708 22.8562 26.0248 23.0947 25.9941 23.33C25.9634 23.5652 25.8501 23.7818 25.6743 23.9412L25.6826 23.9406C24.4281 24.5358 23.1154 24.9994 21.7653 25.3239C21.5077 25.3868 21.2856 25.5495 21.1479 25.7761C21.0102 26.0028 20.9682 26.2749 21.0311 26.5325C21.094 26.7901 21.2566 27.0122 21.4833 27.1499C21.71 27.2876 21.982 27.3297 22.2397 27.2668C25.2416 26.534 27.9007 25.2766 29.9295 23.6309C29.9326 23.6285 29.9351 23.6256 29.9381 23.6231H29.9382C30.0621 23.5224 30.1844 23.4205 30.3037 23.3168C30.5954 23.0637 30.8082 22.732 30.9165 22.3613C31.0248 21.9905 31.0241 21.5964 30.9144 21.2261V21.2261ZM12.0025 19.5C11.7058 19.5 11.4158 19.4121 11.1691 19.2472C10.9225 19.0824 10.7302 18.8481 10.6167 18.5741C10.5032 18.3 10.4734 17.9984 10.5313 17.7074C10.5892 17.4164 10.7321 17.1491 10.9418 16.9394C11.1516 16.7296 11.4189 16.5867 11.7099 16.5289C12.0008 16.471 12.3024 16.5007 12.5765 16.6142C12.8506 16.7277 13.0849 16.92 13.2497 17.1667C13.4145 17.4133 13.5025 17.7034 13.5025 18C13.5025 18.3979 13.3445 18.7794 13.0632 19.0607C12.7819 19.342 12.4003 19.5 12.0025 19.5ZM20.0025 19.5C19.7058 19.5 19.4158 19.4121 19.1691 19.2472C18.9225 19.0824 18.7302 18.8481 18.6167 18.5741C18.5032 18.3 18.4734 17.9984 18.5313 17.7074C18.5892 17.4164 18.7321 17.1491 18.9418 16.9394C19.1516 16.7296 19.4189 16.5867 19.7099 16.5289C20.0008 16.471 20.3024 16.5007 20.5765 16.6142C20.8506 16.7277 21.0849 16.92 21.2497 17.1667C21.4145 17.4133 21.5025 17.7034 21.5025 18C21.5025 18.3979 21.3445 18.7794 21.0632 19.0607C20.7819 19.342 20.4003 19.5 20.0025 19.5Z"/>
</svg>
