<svg viewBox="0 0 32 32" xmlns="http://www.w3.org/2000/svg">
<path d="M10.7834 4.09302C12.7972 3.20988 15.0024 2.85273 17.192 3.05509C19.3817 3.25745 21.484 4.01268 23.3019 5.24994C21.7988 7.28833 19.9063 9.00836 17.734 10.3105C15.9084 7.74684 13.5339 5.62276 10.7834 4.09302V4.09302ZM15.9478 11.2542C14.0637 8.68262 11.5666 6.62288 8.68354 5.26233C6.16516 6.9804 4.3279 9.52608 3.49066 12.4575C4.96688 12.8182 6.48109 13.0002 8.00074 12.9998C10.7451 13.0024 13.4571 12.4067 15.9478 11.2542V11.2542ZM28.9755 15.2114C28.774 11.8876 27.302 8.76865 24.8643 6.50031C23.2237 8.70668 21.169 10.5723 18.8149 11.9929C19.5003 13.1802 20.0673 14.4319 20.5077 15.7301C23.2657 14.9834 26.147 14.8069 28.9755 15.2114L28.9755 15.2114ZM21.0592 17.6528C21.4295 19.2289 21.6162 20.8426 21.6154 22.4616C21.6141 24.353 21.3583 26.2356 20.8549 28.0588C23.0642 27.1654 24.9862 25.6832 26.4117 23.7734C27.8373 21.8637 28.7118 19.5995 28.9401 17.2274C26.3123 16.8174 23.6277 16.9624 21.0592 17.6528H21.0592ZM18.6041 16.346C18.2013 15.1641 17.6824 14.025 17.0552 12.9453C14.2296 14.3013 11.1349 15.0034 8.00074 14.9998C6.34877 15.0003 4.70251 14.8057 3.09619 14.42C2.83464 16.557 3.10848 18.7255 3.89308 20.7304C4.67767 22.7352 5.94841 24.5136 7.59094 25.9054C10.0106 21.5124 13.9145 18.1238 18.6041 16.346ZM9.2237 27.09C12.012 28.7962 15.341 29.3885 18.5468 28.7488C19.2531 26.7279 19.6144 24.6024 19.6154 22.4616C19.6154 21.0543 19.4589 19.6514 19.1487 18.2787C14.894 19.9359 11.3732 23.0616 9.2237 27.09V27.09Z"/>
</svg>
