<svg   viewBox="0 0 32 32" fill="none" xmlns="http://www.w3.org/2000/svg">
<path d="M23.3269 11.7501C24.226 11.1001 24.8959 10.1819 25.2405 9.1273C25.5851 8.07274 25.5865 6.93611 25.2447 5.88066C24.9028 4.82522 24.2353 3.90527 23.3379 3.25297C22.4405 2.60067 21.3594 2.24958 20.25 2.25012H11.75C10.6406 2.24958 9.55952 2.60067 8.66213 3.25297C7.76473 3.90527 7.09716 4.82522 6.75532 5.88066C6.41347 6.93611 6.41494 8.07274 6.75951 9.1273C7.10408 10.1819 7.77402 11.1001 8.6731 11.7501C8.00036 12.2359 7.45256 12.8745 7.07478 13.6134C6.69699 14.3522 6.49999 15.1702 6.5 16C6.50001 16.8299 6.69701 17.6479 7.07481 18.3867C7.45261 19.1255 8.00041 19.7641 8.67316 20.25C7.94543 20.7769 7.36516 21.4818 6.98788 22.2972C6.6106 23.1126 6.44895 24.0112 6.51841 24.907C6.58787 25.8028 6.88611 26.6657 7.38457 27.4132C7.88304 28.1607 8.56505 28.7677 9.3653 29.1762C10.1655 29.5846 11.0572 29.7808 11.955 29.7459C12.8528 29.7111 13.7266 29.4463 14.4928 28.977C15.2589 28.5078 15.8918 27.8497 16.3308 27.0658C16.7698 26.2819 17.0002 25.3984 17 24.4999V20.1185C17.548 20.5516 18.177 20.8709 18.85 21.0578C19.523 21.2446 20.2266 21.2951 20.9194 21.2064C21.6123 21.1178 22.2804 20.8916 22.8847 20.5413C23.489 20.191 24.0172 19.7236 24.4385 19.1664C24.8597 18.6092 25.1655 17.9736 25.3378 17.2967C25.5101 16.6198 25.5456 15.9153 25.442 15.2245C25.3385 14.5337 25.0981 13.8706 24.7349 13.274C24.3717 12.6773 23.893 12.1592 23.3269 11.7501V11.7501ZM23.5 7.50012C23.499 8.36135 23.1566 9.18705 22.5479 9.79625C21.9391 10.4055 21.1137 10.7485 20.2524 10.7501L20.25 10.75L20.2452 10.7501L17 10.75V4.25012H20.25C21.1117 4.2511 21.9377 4.59382 22.547 5.2031C23.1563 5.81238 23.499 6.63847 23.5 7.50012V7.50012ZM20.25 19.25C19.3886 19.2498 18.5626 18.9076 17.9533 18.2987C17.3441 17.6897 17.0015 16.8638 17.0009 16.0025C17.0002 15.1411 17.3416 14.3147 17.9499 13.7049C18.5583 13.095 19.3838 12.7516 20.2452 12.7501H20.25L20.2524 12.7501C21.1138 12.7512 21.9394 13.0943 22.548 13.704C23.1565 14.3136 23.4982 15.1398 23.4979 16.0012C23.4976 16.8626 23.1553 17.6886 22.5463 18.2978C21.9373 18.907 21.1114 19.2494 20.25 19.25V19.25Z" fill="black"/>
</svg>
