<svg viewBox="0 0 32 32" xmlns="http://www.w3.org/2000/svg">
<path d="M26 12.5V4C26 3.73478 25.8946 3.48043 25.7071 3.2929C25.5196 3.10536 25.2652 3 25 3H7C6.79979 3 6.60419 3.0601 6.43851 3.17252C6.27284 3.28493 6.14473 3.44449 6.07076 3.63054C5.99679 3.81658 5.98036 4.02055 6.02362 4.21603C6.06687 4.41151 6.1678 4.58952 6.31335 4.72699L13.4847 11.5H7C6.73478 11.5 6.48043 11.6054 6.2929 11.7929C6.10536 11.9804 6 12.2348 6 12.5V21C6 21.1361 6.02779 21.2708 6.08167 21.3958C6.13555 21.5208 6.21439 21.6335 6.31335 21.727L15.3134 30.227C15.4554 30.3611 15.6336 30.4507 15.8259 30.4848C16.0183 30.5188 16.2164 30.4957 16.3958 30.4184C16.5752 30.341 16.7281 30.2128 16.8354 30.0496C16.9428 29.8864 17 29.6954 17 29.5V22H25C25.2002 22 25.3958 21.9399 25.5615 21.8275C25.7272 21.7151 25.8553 21.5555 25.9292 21.3695C26.0032 21.1834 26.0196 20.9795 25.9764 20.784C25.9331 20.5885 25.8322 20.4105 25.6866 20.273L18.5153 13.5H25C25.2652 13.5 25.5196 13.3946 25.7071 13.2071C25.8946 13.0196 26 12.7652 26 12.5Z"/>
</svg>
