<svg viewBox="0 0 32 32" xmlns="http://www.w3.org/2000/svg">
<path d="M29.7853 19.0628L26.3691 6.25211C26.2872 5.94495 26.1098 5.67177 25.8625 5.47198C25.6152 5.27219 25.3109 5.15613 24.9933 5.14054C24.6758 5.12495 24.3616 5.21063 24.0959 5.38523C23.8302 5.55983 23.6269 5.81432 23.5153 6.11197L20.9323 13H11.0683L8.48526 6.11209C8.37363 5.81442 8.17032 5.5599 7.90465 5.38528C7.63899 5.21066 7.32471 5.12496 7.00717 5.14055C6.68964 5.15614 6.38527 5.27222 6.13799 5.47203C5.89071 5.67184 5.71331 5.94505 5.63138 6.25223L2.21524 19.0628C2.10986 19.4608 2.12953 19.8816 2.2716 20.268C2.41367 20.6544 2.67123 20.9876 3.00931 21.2226L14.8618 29.4281C15.1259 29.6102 15.4301 29.7257 15.7485 29.7648C15.7761 29.7696 15.8042 29.7717 15.8323 29.7741C15.844 29.7751 15.8557 29.776 15.8675 29.7768C15.8844 29.7777 15.901 29.7807 15.918 29.7807C15.9261 29.7807 15.9342 29.7798 15.9423 29.7796C15.9616 29.7801 15.9809 29.7817 16.0003 29.7817C16.0196 29.7817 16.0389 29.7801 16.0583 29.7796C16.0664 29.7798 16.0745 29.7807 16.0825 29.7807C16.0995 29.7807 16.1161 29.7777 16.133 29.7768C16.1448 29.776 16.1566 29.7751 16.1684 29.7741C16.1964 29.7716 16.2244 29.7696 16.252 29.7648C16.5704 29.7257 16.8746 29.6102 17.1387 29.4281L28.9912 21.2226C29.3293 20.9876 29.5869 20.6544 29.7289 20.268C29.871 19.8816 29.8907 19.4608 29.7853 19.0628V19.0628ZM4.14773 19.5782L5.36854 15H9.68228L13.9417 26.3586L4.14773 19.5782ZM18.0588 26.3586L22.3183 15H26.632L27.8528 19.5782L18.0588 26.3586Z"/>
</svg>
