<svg viewBox="0 0 32 32" xmlns="http://www.w3.org/2000/svg">
<path d="M28.9912 21.2225L17.1387 29.4281C16.8037 29.6584 16.4068 29.7817 16.0003 29.7817C15.5938 29.7817 15.1968 29.6584 14.8618 29.4281L3.00931 21.2225C2.67123 20.9876 2.41367 20.6543 2.2716 20.2679C2.12953 19.8815 2.10986 19.4607 2.21524 19.0628L5.63138 6.25217C5.7133 5.94499 5.8907 5.67178 6.13798 5.47197C6.38526 5.27216 6.68963 5.15608 7.00717 5.14049C7.3247 5.1249 7.63898 5.2106 7.90465 5.38522C8.17031 5.55984 8.37363 5.81436 8.48525 6.11203L11.0683 13H20.9323L23.5153 6.11191C23.6269 5.81426 23.8303 5.55977 24.0959 5.38517C24.3616 5.21057 24.6758 5.12489 24.9933 5.14048C25.3109 5.15607 25.6152 5.27213 25.8625 5.47192C26.1098 5.67171 26.2872 5.94489 26.3691 6.25205L29.7853 19.0628C29.8907 19.4607 29.871 19.8815 29.729 20.2679C29.5869 20.6543 29.3293 20.9876 28.9912 21.2225V21.2225Z"/>
</svg>
