<svg viewBox="0 0 32 32" xmlns="http://www.w3.org/2000/svg">
<path d="M27.9542 14.2728L6.98132 2.26781C6.675 2.09014 6.32698 1.99705 5.97286 1.99805C5.61875 1.99906 5.27126 2.09414 4.96595 2.27354C4.66446 2.44515 4.41397 2.69377 4.24013 2.99398C4.06629 3.29419 3.97534 3.63519 3.97657 3.9821V28.018C3.97534 28.3649 4.06629 28.7059 4.24013 29.0061C4.41397 29.3063 4.66446 29.5549 4.96595 29.7265C5.27125 29.906 5.61875 30.001 5.97286 30.002C6.32698 30.0031 6.67501 29.91 6.98133 29.7323L27.9542 17.7273C28.2638 17.5574 28.522 17.3075 28.7018 17.0036C28.8817 16.6998 28.9766 16.3531 28.9766 16C28.9766 15.647 28.8817 15.3003 28.7018 14.9965C28.522 14.6926 28.2638 14.4427 27.9542 14.2728L27.9542 14.2728ZM17.9999 17.4142L20.3569 19.7713L9.33313 26.081L17.9999 17.4142ZM9.33173 5.91764L20.3571 12.2287L17.9999 14.5859L9.33173 5.91764ZM22.1558 18.7417L19.4141 16L22.1559 13.2583L26.9458 16L22.1558 18.7417Z"/>
</svg>
