<svg viewBox="0 0 32 32" xmlns="http://www.w3.org/2000/svg">
<path d="M16 3C13.4288 3 10.9154 3.76244 8.77759 5.1909C6.63975 6.61935 4.97351 8.64968 3.98957 11.0251C3.00563 13.4006 2.74819 16.0144 3.2498 18.5362C3.75141 21.0579 4.98953 23.3743 6.80762 25.1924C8.6257 27.0105 10.9421 28.2486 13.4638 28.7502C15.9856 29.2518 18.5995 28.9944 20.9749 28.0104C23.3503 27.0265 25.3807 25.3603 26.8091 23.2224C28.2376 21.0846 29 18.5712 29 16C28.9961 12.5534 27.6252 9.24905 25.1881 6.81192C22.751 4.37479 19.4466 3.0039 16 3V3ZM16 26C14.3555 26 12.7364 25.5944 11.286 24.8192C9.83569 24.044 8.59892 22.9231 7.68528 21.5557C6.77163 20.1884 6.20931 18.6168 6.04811 16.9802C5.88692 15.3436 6.13184 13.6925 6.76116 12.1732C7.39049 10.6538 8.3848 9.31316 9.65603 8.26989C10.9273 7.22663 12.4362 6.51297 14.0491 6.19214C15.662 5.87132 17.3291 5.95322 18.9028 6.4306C20.4765 6.90798 21.9082 7.7661 23.0711 8.92896C23.164 9.02179 23.2378 9.13203 23.2881 9.25338C23.3384 9.37473 23.3643 9.50481 23.3644 9.63618C23.3644 9.76755 23.3386 9.89764 23.2883 10.019C23.2381 10.1404 23.1644 10.2507 23.0715 10.3436C22.9786 10.4365 22.8683 10.5102 22.7469 10.5604C22.6256 10.6107 22.4955 10.6365 22.3641 10.6365C22.2327 10.6364 22.1026 10.6105 21.9813 10.5602C21.8599 10.5098 21.7497 10.4361 21.6569 10.3431C20.3785 9.06502 18.7049 8.25757 16.9088 8.0524C15.1128 7.84722 13.3002 8.25642 11.7664 9.21331C10.2327 10.1702 9.06832 11.6183 8.46301 13.3217C7.8577 15.0251 7.84717 16.8833 8.43314 18.5934C9.01911 20.3035 10.167 21.7648 11.6898 22.739C13.2126 23.7132 15.0204 24.1429 16.8187 23.9581C18.6169 23.7733 20.2996 22.9849 21.5924 21.7213C22.8852 20.4577 23.7119 18.7936 23.9378 17H16C15.7348 17 15.4804 16.8946 15.2929 16.7071C15.1054 16.5196 15 16.2652 15 16C15 15.7348 15.1054 15.4804 15.2929 15.2929C15.4804 15.1054 15.7348 15 16 15H25C25.2652 15 25.5196 15.1054 25.7071 15.2929C25.8946 15.4804 26 15.7348 26 16C25.997 18.6512 24.9425 21.193 23.0678 23.0678C21.1931 24.9425 18.6513 25.997 16 26V26Z"/>
</svg>
