<svg viewBox="0 0 32 32" xmlns="http://www.w3.org/2000/svg">
<path d="M26.5 3.5H5.5C4.96975 3.5006 4.46139 3.71151 4.08645 4.08645C3.71151 4.46139 3.5006 4.96975 3.5 5.5V26.5C3.50061 27.0302 3.71151 27.5386 4.08646 27.9135C4.4614 28.2885 4.96975 28.4994 5.5 28.5H26.5C27.0302 28.4994 27.5386 28.2885 27.9135 27.9135C28.2885 27.5386 28.4994 27.0302 28.5 26.5V5.5C28.4994 4.96975 28.2885 4.46139 27.9135 4.08645C27.5386 3.71151 27.0302 3.5006 26.5 3.5V3.5ZM12 22.0001C12 22.2653 11.8946 22.5197 11.7071 22.7072C11.5196 22.8948 11.2652 23.0001 11 23.0001C10.7348 23.0001 10.4804 22.8948 10.2929 22.7072C10.1054 22.5197 10 22.2653 10 22.0001V14.0001C10 13.7349 10.1054 13.4806 10.2929 13.293C10.4804 13.1055 10.7348 13.0001 11 13.0001C11.2652 13.0001 11.5196 13.1055 11.7071 13.293C11.8946 13.4806 12 13.7349 12 14.0001V22.0001ZM11 11.5C10.7033 11.5 10.4133 11.412 10.1666 11.2472C9.91997 11.0824 9.72771 10.8481 9.61418 10.574C9.50065 10.2999 9.47094 9.99834 9.52882 9.70736C9.5867 9.41639 9.72956 9.14912 9.93934 8.93934C10.1491 8.72956 10.4164 8.5867 10.7074 8.52882C10.9983 8.47094 11.2999 8.50065 11.574 8.61418C11.8481 8.72771 12.0824 8.91997 12.2472 9.16665C12.412 9.41332 12.5 9.70333 12.5 10C12.5 10.3978 12.342 10.7794 12.0607 11.0607C11.7794 11.342 11.3978 11.5 11 11.5V11.5ZM23 22.0001C23 22.2653 22.8946 22.5197 22.7071 22.7072C22.5196 22.8948 22.2652 23.0001 22 23.0001C21.7348 23.0001 21.4804 22.8948 21.2929 22.7072C21.1054 22.5197 21 22.2653 21 22.0001V17.5001C21 16.8371 20.7366 16.2012 20.2678 15.7324C19.7989 15.2635 19.163 15.0001 18.5 15.0001C17.837 15.0001 17.2011 15.2635 16.7322 15.7324C16.2634 16.2012 16 16.8371 16 17.5001V22.0001C16 22.2653 15.8946 22.5197 15.7071 22.7072C15.5196 22.8948 15.2652 23.0001 15 23.0001C14.7348 23.0001 14.4804 22.8948 14.2929 22.7072C14.1054 22.5197 14 22.2653 14 22.0001V14.0001C13.9999 13.7543 14.0904 13.5171 14.2542 13.3338C14.418 13.1505 14.6435 13.0339 14.8878 13.0064C15.1321 12.9789 15.3779 13.0424 15.5784 13.1847C15.7788 13.327 15.9198 13.5381 15.9744 13.7778C16.6506 13.3182 17.4394 13.0517 18.2559 13.0069C19.0723 12.9621 19.8855 13.1407 20.608 13.5235C21.3305 13.9063 21.935 14.4788 22.3565 15.1795C22.7779 15.8802 23.0004 16.6825 23 17.5001V22.0001Z"/>
</svg>
