<svg viewBox="0 0 32 32" xmlns="http://www.w3.org/2000/svg">
<path d="M17 16C17 20.6869 13.4113 24.5 9 24.5C4.58875 24.5 1 20.6869 1 16C1 11.3131 4.58875 7.5 9 7.5C13.4113 7.5 17 11.3131 17 16ZM23 8C22.2897 8 20.9501 8.34509 19.9595 10.6564C19.3408 12.1001 19 13.9979 19 16C19 18.0021 19.3408 19.8999 19.9595 21.3436C20.9501 23.6549 22.2897 24 23 24C23.7103 24 25.0499 23.6549 26.0405 21.3436C26.6592 19.8999 27 18.0021 27 16C27 13.9979 26.6592 12.1001 26.0405 10.6564C25.0499 8.34509 23.7103 8 23 8ZM30 8C29.7348 8.00001 29.4804 8.10537 29.2929 8.29291C29.1054 8.48044 29 8.73479 29 9V23C29 23.2652 29.1054 23.5196 29.2929 23.7071C29.4804 23.8946 29.7348 24 30 24C30.2652 24 30.5196 23.8946 30.7071 23.7071C30.8946 23.5196 31 23.2652 31 23V9C31 8.73479 30.8946 8.48044 30.7071 8.29291C30.5196 8.10537 30.2652 8.00001 30 8V8Z"/>
</svg>
