<svg viewBox="0 0 32 32" xmlns="http://www.w3.org/2000/svg">
<path d="M16 3C13.742 3.00061 11.5231 3.58916 9.56171 4.70774C7.60028 5.82631 5.96392 7.43634 4.81369 9.37937C3.66346 11.3224 3.03899 13.5315 3.00177 15.7891C2.96454 18.0468 3.51583 20.2752 4.60138 22.2551L3.53296 25.9945C3.43497 26.3374 3.43048 26.7004 3.51995 27.0456C3.60942 27.3909 3.78958 27.706 4.04178 27.9582C4.29399 28.2104 4.60904 28.3905 4.95431 28.48C5.29957 28.5695 5.66248 28.565 6.00543 28.467L9.74493 27.3987C11.4827 28.3523 13.4155 28.8958 15.3956 28.9879C17.3757 29.0799 19.3506 28.7179 21.1693 27.9296C22.988 27.1413 24.6024 25.9476 25.8891 24.4397C27.1757 22.9318 28.1005 21.1497 28.5927 19.2296C29.085 17.3094 29.1317 15.3022 28.7292 13.3613C28.3268 11.4203 27.4858 9.59714 26.2707 8.03107C25.0555 6.46499 23.4984 5.19751 21.7183 4.32552C19.9381 3.45354 17.9822 3.00014 16 3V3ZM22.7071 14.7071L18.7071 18.7071C18.6142 18.8 18.504 18.8736 18.3827 18.9239C18.2614 18.9741 18.1313 19 18 19C17.8687 19 17.7386 18.9741 17.6173 18.9239C17.496 18.8736 17.3858 18.8 17.2929 18.7071L14 15.4142L10.7071 18.7071C10.6143 18.8 10.504 18.8738 10.3827 18.9241C10.2613 18.9745 10.1312 19.0004 9.99987 19.0004C9.8685 19.0005 9.73841 18.9746 9.61703 18.9244C9.49565 18.8741 9.38536 18.8004 9.29247 18.7075C9.19957 18.6146 9.1259 18.5044 9.07564 18.383C9.02539 18.2616 8.99954 18.1315 8.99958 18.0001C8.99962 17.8688 9.02555 17.7387 9.07588 17.6173C9.12621 17.496 9.19996 17.3857 9.29291 17.2929L13.2929 13.2929C13.4804 13.1054 13.7348 13 14 13C14.2652 13 14.5196 13.1054 14.7071 13.2929L18 16.5858L21.2929 13.2929C21.4805 13.1056 21.7348 13.0004 21.9999 13.0005C22.265 13.0005 22.5192 13.1059 22.7067 13.2934C22.8941 13.4808 22.9995 13.735 22.9995 14.0001C22.9996 14.2652 22.8944 14.5195 22.7071 14.7071V14.7071Z"/>
</svg>
