<svg viewBox="0 0 32 32" xmlns="http://www.w3.org/2000/svg">
<path d="M22.9912 18.5C22.9912 18.7967 22.9032 19.0867 22.7384 19.3334C22.5736 19.58 22.3393 19.7723 22.0652 19.8858C21.7912 19.9993 21.4896 20.0291 21.1986 19.9712C20.9076 19.9133 20.6403 19.7704 20.4306 19.5607C20.2208 19.3509 20.0779 19.0836 20.02 18.7926C19.9622 18.5017 19.9919 18.2001 20.1054 17.926C20.2189 17.6519 20.4112 17.4176 20.6579 17.2528C20.9045 17.088 21.1946 17 21.4912 17C21.889 17 22.2706 17.158 22.5519 17.4393C22.8332 17.7206 22.9912 18.1022 22.9912 18.5ZM26.6669 20.6609C26.2814 22.2071 25.5645 23.651 24.5659 24.8929C23.5673 26.1347 22.3109 27.1448 20.8834 27.8532C19.456 28.5616 17.8917 28.9515 16.2988 28.9957C14.7059 29.04 13.1224 28.7377 11.6578 28.1097C11.608 28.0925 11.5596 28.0713 11.5132 28.0464C9.78823 27.2746 8.29049 26.0726 7.16362 24.5556C6.03675 23.0386 5.31856 21.2575 5.07792 19.3831L5.07737 19.3783C5.01997 18.9211 4.9912 18.4608 4.99122 18C4.98876 15.8837 5.60047 13.8121 6.75215 12.0366C5.84252 11.5855 5.11207 10.8402 4.67936 9.92165C4.24666 9.00312 4.1371 7.9653 4.36847 6.97667C4.59985 5.98803 5.15857 5.10662 5.95395 4.4755C6.74933 3.84438 7.73466 3.50062 8.75001 3.5C8.90056 3.5 9.04917 3.53399 9.18476 3.59943L23.4606 10.4912C24.1031 10.4369 24.6998 10.1364 25.126 9.65257C25.5522 9.16871 25.775 8.5389 25.7478 7.89467C25.7206 7.25044 25.4456 6.64163 24.9801 6.1954C24.5147 5.74916 23.8948 5.50002 23.25 5.5C22.9848 5.5 22.7304 5.39464 22.5429 5.20711C22.3554 5.01957 22.25 4.76522 22.25 4.5C22.25 4.23478 22.3554 3.98043 22.5429 3.79289C22.7304 3.60536 22.9848 3.5 23.25 3.5C24.4435 3.5 25.5881 3.97411 26.432 4.81802C27.2759 5.66193 27.75 6.80653 27.75 8C27.75 9.19347 27.2759 10.3381 26.432 11.182C25.5881 12.0259 24.4435 12.5 23.25 12.5C23.0995 12.5 22.9508 12.466 22.8153 12.4006L15.7822 9.00531C13.492 9.06097 11.309 9.98713 9.6775 11.5953C8.04597 13.2035 7.08845 15.3729 6.9998 17.6621L11.5118 15.2557L11.5185 15.2521L15.5206 13.1177C15.673 13.0364 15.8438 12.996 16.0164 13.0003C16.1891 13.0047 16.3576 13.0537 16.5057 13.1425C16.6538 13.2314 16.7763 13.357 16.8614 13.5073C16.9465 13.6576 16.9912 13.8273 16.9912 14V26.9432C18.8179 26.7429 20.5391 25.9868 21.9223 24.7771C23.3056 23.5674 24.2842 21.9622 24.726 20.1785C24.7576 20.051 24.814 19.931 24.892 19.8252C24.9701 19.7195 25.0681 19.6302 25.1807 19.5624C25.2932 19.4947 25.418 19.4497 25.5479 19.4302C25.6778 19.4106 25.8103 19.4169 25.9378 19.4486C26.0653 19.4802 26.1853 19.5367 26.291 19.6148C26.3967 19.6929 26.4859 19.7911 26.5536 19.9036C26.6213 20.0162 26.6662 20.1411 26.6856 20.271C26.7051 20.4009 26.6987 20.5334 26.6669 20.6609V20.6609ZM14.9912 15.6667L12.9912 16.7333V26.4839C13.638 26.7134 14.3091 26.8674 14.9912 26.9431V15.6667ZM8.046 10.4003C9.32423 9.06253 10.9187 8.06816 12.6824 7.50885L8.53944 5.50879C7.95814 5.55812 7.41238 5.80912 6.9966 6.21836C6.58082 6.62759 6.32119 7.1693 6.26264 7.74974C6.20408 8.33018 6.35029 8.91283 6.67596 9.39686C7.00163 9.88089 7.48627 10.2358 8.046 10.4003V10.4003ZM10.9912 25.4791V17.8L7.17936 19.833C7.66335 22.1409 9.03161 24.1675 10.9912 25.4791V25.4791Z"/>
</svg>
