<svg   viewBox="0 0 32 32" fill="none" xmlns="http://www.w3.org/2000/svg">
<path d="M17.75 3H8.5C8.49145 3 8.48315 3.00107 8.47467 3.00128C8.45447 3.00178 8.43433 3.0026 8.41406 3.00434C8.39984 3.00556 8.3858 3.00732 8.37177 3.00913C8.35388 3.01144 8.336 3.01401 8.31818 3.01731C8.30164 3.02035 8.2854 3.02401 8.26917 3.02785C8.25433 3.03139 8.23956 3.03501 8.22485 3.03925C8.20599 3.04464 8.1875 3.05077 8.16913 3.05723C8.15704 3.06148 8.14502 3.06569 8.13299 3.07044C8.11285 3.07839 8.09326 3.08719 8.07379 3.09639C8.06683 3.09967 8.05969 3.10214 8.05279 3.10559C8.04901 3.10749 8.04559 3.10986 8.04181 3.1118C8.02331 3.12138 8.00537 3.13178 7.98755 3.14244C7.97607 3.14929 7.96447 3.15598 7.9533 3.16322C7.93884 3.17269 7.92504 3.18289 7.91107 3.19306C7.89776 3.20278 7.88427 3.21234 7.87152 3.22263C7.86102 3.23115 7.85113 3.24028 7.84094 3.24921C7.82629 3.26204 7.81164 3.2748 7.79785 3.28838C7.78967 3.29643 7.78216 3.30505 7.77429 3.31339C7.76001 3.32843 7.74579 3.34342 7.7326 3.35924C7.7246 3.36875 7.7174 3.37885 7.70984 3.38866C7.69806 3.4039 7.68615 3.419 7.67529 3.43482C7.66638 3.44783 7.65844 3.46149 7.65008 3.47495C7.64184 3.48828 7.6333 3.50139 7.62573 3.51507C7.61633 3.53196 7.60809 3.54951 7.59967 3.56698C7.59436 3.57803 7.58862 3.58885 7.58374 3.60007C7.57544 3.61905 7.56836 3.63862 7.56121 3.6582C7.55731 3.66887 7.55304 3.67937 7.5495 3.69018C7.54345 3.70869 7.53857 3.72765 7.53362 3.74663C7.53027 3.75954 7.52654 3.77233 7.52367 3.78538C7.52013 3.80163 7.51751 3.81817 7.51476 3.83469C7.51195 3.85144 7.50908 3.86812 7.50707 3.88502C7.50554 3.89844 7.50475 3.91204 7.50378 3.92562C7.50219 3.94609 7.5009 3.96655 7.50066 3.98715C7.50061 3.99148 7.5 3.99567 7.5 4V20.5C7.50277 22.9524 8.47822 25.3036 10.2123 27.0377C11.9464 28.7718 14.2976 29.7472 16.75 29.75C17.0152 29.75 17.2696 29.6446 17.4571 29.4571C17.6446 29.2696 17.75 29.0152 17.75 28.75V21.5C20.2033 21.5 22.556 20.5254 24.2907 18.7907C26.0254 17.056 27 14.7033 27 12.25C27 9.79675 26.0254 7.44397 24.2907 5.70926C22.556 3.97455 20.2033 3 17.75 3V3ZM15.75 16.2639L10.118 5H15.75V16.2639ZM9.56897 21.5H15.75V27.6813C14.1885 27.4612 12.741 26.7392 11.626 25.6241C10.5109 24.509 9.78894 23.0615 9.56897 21.5V21.5ZM17.75 19.5V5C19.6728 5 21.5169 5.76384 22.8765 7.12348C24.2362 8.48311 25 10.3272 25 12.25C25 14.1728 24.2362 16.0169 22.8765 17.3765C21.5169 18.7362 19.6728 19.5 17.75 19.5V19.5Z" fill="black"/>
</svg>
