<svg   viewBox="0 0 32 32" fill="none" xmlns="http://www.w3.org/2000/svg">
<path d="M28.9985 16C28.9981 18.0139 28.5298 20.0002 27.6307 21.8023C26.7316 23.6043 25.4261 25.1729 23.8173 26.3844C22.2085 27.5958 20.3403 28.417 18.36 28.7832C16.3796 29.1494 14.3413 29.0506 12.4056 28.4946L13.6327 23.5865C14.6461 24.2022 15.8129 24.5189 16.9985 24.5C21.4098 24.5 24.9985 20.6869 24.9985 16C24.9977 14.6729 24.7034 13.3623 24.1366 12.1623C23.5698 10.9622 22.7447 9.9024 21.7203 9.05867C20.6959 8.21493 19.4975 7.6082 18.2111 7.28194C16.9247 6.95567 15.5821 6.91794 14.2794 7.17145C12.9766 7.42497 11.7461 7.96345 10.6759 8.74832C9.60577 9.53319 8.72241 10.545 8.08916 11.7114C7.45591 12.8777 7.08844 14.1696 7.01307 15.4946C6.9377 16.8196 7.1563 18.1449 7.65321 19.3755C7.75273 19.6213 7.94583 19.8176 8.19004 19.921C8.43425 20.0245 8.70955 20.0267 8.95539 19.9272C9.20123 19.8277 9.39747 19.6346 9.50093 19.3904C9.6044 19.1461 9.60661 18.8708 9.50709 18.625C9.12004 17.6676 8.94956 16.6365 9.00788 15.6055C9.0662 14.5745 9.35187 13.5692 9.84441 12.6616C10.337 11.754 11.0242 10.9666 11.8568 10.3559C12.6895 9.7451 13.6469 9.32609 14.6605 9.12887C15.6742 8.93165 16.7189 8.9611 17.7198 9.21512C18.7207 9.46914 19.653 9.94143 20.4499 10.5981C21.2468 11.2549 21.8886 12.0797 22.3292 13.0136C22.7698 13.9475 22.9984 14.9674 22.9985 16C22.9985 19.5841 20.307 22.5 16.9985 22.5C15.6872 22.5 14.7759 22.0424 14.1547 21.4984L15.9687 14.2426C16.033 13.9853 15.9925 13.7129 15.8561 13.4855C15.7196 13.2581 15.4984 13.0942 15.2411 13.0298C14.9838 12.9655 14.7115 13.006 14.4841 13.1425C14.2566 13.2789 14.0927 13.5001 14.0284 13.7574L10.5208 27.7877C8.40722 26.8055 6.59657 25.273 5.27848 23.3508C3.96038 21.4287 3.18332 19.1875 3.02866 16.8619C2.87399 14.5363 3.34742 12.212 4.39936 10.1322C5.4513 8.05236 7.04306 6.29363 9.00797 5.04013C10.9729 3.78663 13.2387 3.08446 15.5681 3.00715C17.8975 2.92985 20.2049 3.48024 22.2486 4.6007C24.2923 5.72116 25.9971 7.37048 27.1847 9.37596C28.3722 11.3814 28.9987 13.6693 28.9985 16V16Z" fill="black"/>
</svg>
