<svg viewBox="0 0 32 32" xmlns="http://www.w3.org/2000/svg">
<path d="M31 13C31.0002 12.2334 30.78 11.4828 30.3657 10.8378C29.9513 10.1928 29.3603 9.6804 28.663 9.36177C27.9658 9.04314 27.1916 8.93165 26.4327 9.04058C25.6738 9.14952 24.9623 9.47428 24.3828 9.9762C22.2885 8.86356 19.7876 8.19133 17.1745 8.03553L17.824 4.13855L20.5529 4.55835C20.6845 5.25383 21.0577 5.8804 21.6066 6.32731C22.1555 6.77422 22.8447 7.01269 23.5524 7.00058C24.2602 6.98847 24.9408 6.72656 25.4741 6.26113C26.0074 5.7957 26.3589 5.15673 26.4667 4.45715C26.5744 3.75758 26.4313 3.04244 26.0628 2.43815C25.6942 1.83385 25.1239 1.37931 24.4526 1.15485C23.7813 0.930401 23.0523 0.950493 22.3943 1.21158C21.7364 1.47266 21.192 1.95793 20.8573 2.5816L17.152 2.0116C16.892 1.97147 16.6267 2.03548 16.4135 2.18973C16.2004 2.34398 16.0567 2.57604 16.0136 2.83557L15.1495 8.02032C12.4196 8.13803 9.79783 8.81769 7.61717 9.9762C6.82314 9.28851 5.79042 8.94085 4.74217 9.00834C3.69391 9.07582 2.7143 9.55303 2.015 10.3369C1.3157 11.1207 0.952873 12.1482 1.00492 13.1973C1.05696 14.2464 1.51969 15.233 2.29313 15.9437C2.09898 16.6119 2.00028 17.3042 1.99998 18C1.99998 20.7418 3.50523 23.2939 6.23838 25.1862C8.85935 27.0007 12.3262 28 16 28C19.6738 28 23.1406 27.0007 25.7616 25.1862C28.4947 23.294 30 20.7418 30 18C29.9997 17.3042 29.901 16.612 29.7068 15.9439C30.1132 15.5685 30.4379 15.1133 30.6604 14.6068C30.8829 14.1003 30.9985 13.5533 31 13ZM8.99998 16.5C8.99998 16.1044 9.11728 15.7178 9.33704 15.3889C9.5568 15.06 9.86916 14.8036 10.2346 14.6522C10.6001 14.5009 11.0022 14.4613 11.3902 14.5384C11.7781 14.6156 12.1345 14.8061 12.4142 15.0858C12.6939 15.3655 12.8844 15.7219 12.9616 16.1098C13.0387 16.4978 12.9991 16.8999 12.8477 17.2654C12.6964 17.6308 12.44 17.9432 12.1111 18.1629C11.7822 18.3827 11.3955 18.5 11 18.5C10.4697 18.4994 9.96138 18.2885 9.58644 17.9135C9.21149 17.5386 9.00059 17.0303 8.99998 16.5V16.5ZM20.587 22.8887C19.1685 23.6195 17.5958 24.0009 16 24.0009C14.4042 24.0009 12.8316 23.6195 11.413 22.8887C11.1781 22.7666 11.0013 22.5563 10.9212 22.304C10.8411 22.0517 10.8644 21.7779 10.9858 21.5427C11.1072 21.3075 11.317 21.13 11.5691 21.0492C11.8211 20.9684 12.095 20.9908 12.3305 21.1116C13.4653 21.6962 14.7234 22.0013 16 22.0013C17.2765 22.0013 18.5346 21.6962 19.6694 21.1116C19.9051 20.9901 20.1793 20.9671 20.4319 21.0477C20.6844 21.1284 20.8946 21.306 21.0163 21.5416C21.1379 21.7772 21.161 22.0514 21.0805 22.304C21 22.5566 20.8225 22.7669 20.587 22.8887ZM21 18.5C20.6044 18.5 20.2177 18.3827 19.8888 18.1629C19.5599 17.9432 19.3036 17.6308 19.1522 17.2654C19.0008 16.8999 18.9612 16.4978 19.0384 16.1098C19.1156 15.7219 19.3061 15.3655 19.5858 15.0858C19.8655 14.8061 20.2218 14.6156 20.6098 14.5384C20.9978 14.4613 21.3999 14.5009 21.7653 14.6522C22.1308 14.8036 22.4432 15.06 22.6629 15.3889C22.8827 15.7178 23 16.1044 23 16.5C22.9994 17.0303 22.7885 17.5386 22.4135 17.9135C22.0386 18.2885 21.5302 18.4994 21 18.5V18.5Z"/>
</svg>
