<svg   viewBox="0 0 32 32" fill="none" xmlns="http://www.w3.org/2000/svg">
<path d="M30.9987 12.9729C30.9981 12.9523 30.9973 12.9317 30.9955 12.9112C30.9943 12.8974 30.9924 12.8838 30.9906 12.8701C30.9884 12.8525 30.9858 12.835 30.9826 12.8176C30.9799 12.8027 30.9767 12.7881 30.9733 12.7735C30.9695 12.7575 30.9655 12.7416 30.961 12.7258C30.9568 12.7109 30.9522 12.6961 30.9473 12.6815C30.9422 12.6663 30.9366 12.6513 30.9308 12.6364C30.9252 12.6219 30.9194 12.6076 30.9131 12.5935C30.9066 12.5787 30.8994 12.5643 30.8921 12.5498C30.8851 12.5361 30.8782 12.5224 30.8707 12.5091C30.8628 12.4951 30.8542 12.4815 30.8456 12.4678C30.8372 12.4546 30.8289 12.4414 30.82 12.4285C30.811 12.4157 30.8013 12.4032 30.7917 12.3907C30.7818 12.3779 30.772 12.3651 30.7615 12.3528C30.7584 12.3491 30.7557 12.3452 30.7526 12.3415L23.7526 4.34149C23.6587 4.23423 23.543 4.14828 23.4132 4.08938C23.2834 4.03049 23.1425 4.00001 23 4H9.00001C8.85748 4.00001 8.7166 4.03048 8.58681 4.08938C8.45701 4.14827 8.34131 4.23423 8.24745 4.34149L1.24745 12.3415C1.24427 12.3452 1.24159 12.3491 1.23847 12.3528C1.22804 12.3651 1.21821 12.3779 1.20832 12.3907C1.19868 12.4032 1.18897 12.4157 1.18 12.4285C1.17109 12.4413 1.16279 12.4546 1.15443 12.4678C1.14582 12.4814 1.13722 12.4951 1.12934 12.5091C1.12183 12.5224 1.11488 12.5361 1.10792 12.5498C1.10066 12.5643 1.09345 12.5787 1.08692 12.5935C1.08063 12.6076 1.07483 12.6219 1.06922 12.6364C1.06336 12.6513 1.05781 12.6663 1.05268 12.6815C1.04779 12.6961 1.04324 12.7109 1.03901 12.7258C1.03449 12.7416 1.03046 12.7575 1.02674 12.7735C1.02332 12.7881 1.02015 12.8027 1.0174 12.8176C1.01416 12.835 1.01166 12.8525 1.0094 12.8701C1.00757 12.8838 1.00574 12.8974 1.00452 12.9112C1.00269 12.9317 1.00195 12.9523 1.00134 12.9729C1.00109 12.982 1 12.9908 1 13C1 13.0025 1.00037 13.0049 1.00037 13.0074C1.00055 13.0321 1.00214 13.0566 1.00409 13.0812C1.00476 13.089 1.00476 13.0969 1.00555 13.1046C1.00879 13.1356 1.01349 13.1664 1.01965 13.1971C1.0224 13.2108 1.02631 13.2241 1.0296 13.2377C1.03381 13.2548 1.03766 13.2719 1.04279 13.2888C1.04718 13.3035 1.05261 13.3178 1.05768 13.3322C1.06311 13.3476 1.0683 13.363 1.07452 13.3781C1.08026 13.3922 1.08679 13.4058 1.0932 13.4195C1.1001 13.4346 1.107 13.4495 1.11475 13.4642C1.1217 13.4775 1.12933 13.4903 1.13684 13.5033C1.1452 13.5176 1.15356 13.5319 1.16272 13.5458C1.17108 13.5587 1.18005 13.571 1.18897 13.5834C1.19849 13.5966 1.20801 13.6097 1.2182 13.6225C1.22815 13.635 1.23859 13.6469 1.24909 13.6589C1.25586 13.6666 1.2619 13.6748 1.26892 13.6823L15.2689 28.6823C15.2831 28.6975 15.2986 28.7112 15.3136 28.7254C15.3206 28.7321 15.3272 28.7391 15.3344 28.7455C15.3664 28.7741 15.4003 28.8006 15.4357 28.8248C15.4436 28.8303 15.452 28.835 15.4601 28.8402C15.4895 28.8591 15.52 28.8765 15.5513 28.8922C15.5614 28.8973 15.5714 28.9026 15.5818 28.9074C15.6208 28.9256 15.6609 28.9412 15.7018 28.9542C15.7078 28.9561 15.714 28.9573 15.72 28.959C15.7566 28.9696 15.7937 28.9781 15.8313 28.9844C15.8431 28.9865 15.8549 28.9884 15.8668 28.99C15.9551 29.0033 16.0449 29.0033 16.1332 28.99C16.1451 28.9884 16.1569 28.9865 16.1687 28.9844C16.2063 28.9781 16.2434 28.9696 16.28 28.959C16.286 28.9573 16.2922 28.9561 16.2982 28.9542C16.3391 28.9412 16.3792 28.9256 16.4182 28.9074C16.4286 28.9026 16.4386 28.8973 16.4487 28.8922C16.48 28.8765 16.5105 28.8591 16.5399 28.8402C16.548 28.835 16.5564 28.8303 16.5643 28.8248C16.5997 28.8006 16.6336 28.7741 16.6656 28.7455C16.6728 28.7391 16.6794 28.7321 16.6864 28.7254C16.7014 28.7112 16.7169 28.6975 16.7311 28.6823L30.7311 13.6823C30.7381 13.6748 30.7441 13.6666 30.7509 13.6589C30.7614 13.647 30.7719 13.635 30.7818 13.6225C30.792 13.6097 30.8015 13.5966 30.811 13.5834C30.8199 13.571 30.8289 13.5587 30.8373 13.5458C30.8464 13.5319 30.8548 13.5176 30.8632 13.5033C30.8707 13.4904 30.8783 13.4775 30.8853 13.4642C30.893 13.4495 30.8999 13.4346 30.9068 13.4196C30.9132 13.4058 30.9197 13.3922 30.9255 13.3781C30.9317 13.363 30.9369 13.3476 30.9423 13.3322C30.9474 13.3178 30.9528 13.3035 30.9572 13.2888C30.9623 13.2719 30.9662 13.2548 30.9704 13.2377C30.9737 13.2241 30.9776 13.2108 30.9803 13.1971C30.9865 13.1665 30.9912 13.1357 30.9944 13.1046C30.9952 13.0969 30.9952 13.089 30.9959 13.0812C30.9979 13.0566 30.9994 13.0321 30.9996 13.0074C30.9996 13.0049 31 13.0025 31 13C31 12.9908 30.9989 12.982 30.9987 12.9729ZM9.45374 6H13.9727L9.37037 12H4.20381L9.45374 6ZM4.30122 14H9.19233L13.0091 23.3299L4.30122 14ZM18.9909 23.3299L22.8077 14H27.6988L18.9909 23.3299ZM22.6296 12L18.0274 6H22.5463L27.7962 12H22.6296Z" fill="black"/>
<path d="M30.9987 12.9729C30.9981 12.9523 30.9973 12.9317 30.9955 12.9112C30.9943 12.8974 30.9924 12.8838 30.9906 12.8701C30.9884 12.8525 30.9858 12.835 30.9826 12.8176C30.9799 12.8027 30.9767 12.7881 30.9733 12.7735C30.9695 12.7575 30.9655 12.7416 30.961 12.7258C30.9568 12.7109 30.9522 12.6961 30.9473 12.6815C30.9422 12.6663 30.9366 12.6513 30.9308 12.6364C30.9252 12.6219 30.9194 12.6076 30.9131 12.5935C30.9066 12.5787 30.8994 12.5643 30.8921 12.5498C30.8851 12.5361 30.8782 12.5224 30.8707 12.5091C30.8628 12.4951 30.8542 12.4815 30.8456 12.4678C30.8372 12.4546 30.8289 12.4414 30.82 12.4285C30.811 12.4157 30.8013 12.4032 30.7917 12.3907C30.7818 12.3779 30.772 12.3651 30.7615 12.3528C30.7584 12.3491 30.7557 12.3452 30.7526 12.3415L23.7526 4.34149C23.6587 4.23423 23.543 4.14828 23.4132 4.08938C23.2834 4.03049 23.1425 4.00001 23 4H9.00001C8.85748 4.00001 8.7166 4.03048 8.58681 4.08938C8.45701 4.14827 8.34131 4.23423 8.24745 4.34149L1.24745 12.3415C1.24427 12.3452 1.24159 12.3491 1.23847 12.3528C1.22804 12.3651 1.21821 12.3779 1.20832 12.3907C1.19868 12.4032 1.18897 12.4157 1.18 12.4285C1.17109 12.4413 1.16279 12.4546 1.15443 12.4678C1.14582 12.4814 1.13722 12.4951 1.12934 12.5091C1.12183 12.5224 1.11488 12.5361 1.10792 12.5498C1.10066 12.5643 1.09345 12.5787 1.08692 12.5935C1.08063 12.6076 1.07483 12.6219 1.06922 12.6364C1.06336 12.6513 1.05781 12.6663 1.05268 12.6815C1.04779 12.6961 1.04324 12.7109 1.03901 12.7258C1.03449 12.7416 1.03046 12.7575 1.02674 12.7735C1.02332 12.7881 1.02015 12.8027 1.0174 12.8176C1.01416 12.835 1.01166 12.8525 1.0094 12.8701C1.00757 12.8838 1.00574 12.8974 1.00452 12.9112C1.00269 12.9317 1.00195 12.9523 1.00134 12.9729C1.00109 12.982 1 12.9908 1 13C1 13.0025 1.00037 13.0049 1.00037 13.0074C1.00055 13.0321 1.00214 13.0566 1.00409 13.0812C1.00476 13.089 1.00476 13.0969 1.00555 13.1046C1.00879 13.1356 1.01349 13.1664 1.01965 13.1971C1.0224 13.2108 1.02631 13.2241 1.0296 13.2377C1.03381 13.2548 1.03766 13.2719 1.04279 13.2888C1.04718 13.3035 1.05261 13.3178 1.05768 13.3322C1.06311 13.3476 1.0683 13.363 1.07452 13.3781C1.08026 13.3922 1.08679 13.4058 1.0932 13.4195C1.1001 13.4346 1.107 13.4495 1.11475 13.4642C1.1217 13.4775 1.12933 13.4903 1.13684 13.5033C1.1452 13.5176 1.15356 13.5319 1.16272 13.5458C1.17108 13.5587 1.18005 13.571 1.18897 13.5834C1.19849 13.5966 1.20801 13.6097 1.2182 13.6225C1.22815 13.635 1.23859 13.6469 1.24909 13.6589C1.25586 13.6666 1.2619 13.6748 1.26892 13.6823L15.2689 28.6823C15.2831 28.6975 15.2986 28.7112 15.3136 28.7254C15.3206 28.7321 15.3272 28.7391 15.3344 28.7455C15.3664 28.7741 15.4003 28.8006 15.4357 28.8248C15.4436 28.8303 15.452 28.835 15.4601 28.8402C15.4895 28.8591 15.52 28.8765 15.5513 28.8922C15.5614 28.8973 15.5714 28.9026 15.5818 28.9074C15.6208 28.9256 15.6609 28.9412 15.7018 28.9542C15.7078 28.9561 15.714 28.9573 15.72 28.959C15.7566 28.9696 15.7937 28.9781 15.8313 28.9844C15.8431 28.9865 15.8549 28.9884 15.8668 28.99C15.9551 29.0033 16.0449 29.0033 16.1332 28.99C16.1451 28.9884 16.1569 28.9865 16.1687 28.9844C16.2063 28.9781 16.2434 28.9696 16.28 28.959C16.286 28.9573 16.2922 28.9561 16.2982 28.9542C16.3391 28.9412 16.3792 28.9256 16.4182 28.9074C16.4286 28.9026 16.4386 28.8973 16.4487 28.8922C16.48 28.8765 16.5105 28.8591 16.5399 28.8402C16.548 28.835 16.5564 28.8303 16.5643 28.8248C16.5997 28.8006 16.6336 28.7741 16.6656 28.7455C16.6728 28.7391 16.6794 28.7321 16.6864 28.7254C16.7014 28.7112 16.7169 28.6975 16.7311 28.6823L30.7311 13.6823C30.7381 13.6748 30.7441 13.6666 30.7509 13.6589C30.7614 13.647 30.7719 13.635 30.7818 13.6225C30.792 13.6097 30.8015 13.5966 30.811 13.5834C30.8199 13.571 30.8289 13.5587 30.8373 13.5458C30.8464 13.5319 30.8548 13.5176 30.8632 13.5033C30.8707 13.4904 30.8783 13.4775 30.8853 13.4642C30.893 13.4495 30.8999 13.4346 30.9068 13.4196C30.9132 13.4058 30.9197 13.3922 30.9255 13.3781C30.9317 13.363 30.9369 13.3476 30.9423 13.3322C30.9474 13.3178 30.9528 13.3035 30.9572 13.2888C30.9623 13.2719 30.9662 13.2548 30.9704 13.2377C30.9737 13.2241 30.9776 13.2108 30.9803 13.1971C30.9865 13.1665 30.9912 13.1357 30.9944 13.1046C30.9952 13.0969 30.9952 13.089 30.9959 13.0812C30.9979 13.0566 30.9994 13.0321 30.9996 13.0074C30.9996 13.0049 31 13.0025 31 13C31 12.9908 30.9989 12.982 30.9987 12.9729ZM9.45374 6H13.9727L9.37037 12H4.20381L9.45374 6ZM4.30122 14H9.19233L13.0091 23.3299L4.30122 14ZM18.9909 23.3299L22.8077 14H27.6988L18.9909 23.3299ZM22.6296 12L18.0274 6H22.5463L27.7962 12H22.6296Z" fill="black"/>
</svg>
