<svg viewBox="0 0 32 32" xmlns="http://www.w3.org/2000/svg">
<path d="M27.6418 16C28.3874 15.3449 28.8626 14.436 28.975 13.4499C29.0874 12.4639 28.829 11.4713 28.25 10.6653C27.671 9.85924 26.8129 9.29741 25.8426 9.08907C24.8723 8.88074 23.8592 9.04081 23.0004 9.53815V6.99999C23.0009 6.18723 22.7537 5.39362 22.2916 4.72496C21.8296 4.0563 21.1747 3.54437 20.4143 3.25742C19.6538 2.97047 18.824 2.92213 18.0354 3.11885C17.2468 3.31557 16.5369 3.748 16.0004 4.35849C15.3453 3.61296 14.4364 3.13777 13.4503 3.02537C12.4643 2.91296 11.4717 3.17138 10.6656 3.75035C9.8596 4.32933 9.29776 5.18744 9.08943 6.15775C8.8811 7.12806 9.04118 8.14118 9.53852 8.99999H7.00037C6.1876 8.99947 5.39399 9.24671 4.72533 9.70875C4.05667 10.1708 3.54474 10.8257 3.25779 11.5861C2.97084 12.3465 2.9225 13.1764 3.11923 13.965C3.31595 14.7536 3.74839 15.4634 4.35889 16C3.61335 16.655 3.13815 17.564 3.02573 18.55C2.91332 19.5361 3.17174 20.5287 3.75071 21.3347C4.32969 22.1408 5.1878 22.7026 6.15812 22.9109C7.12843 23.1193 8.14155 22.9592 9.00037 22.4619V25C8.99984 25.8128 9.24708 26.6064 9.70912 27.275C10.1712 27.9437 10.8261 28.4556 11.5865 28.7426C12.3469 29.0295 13.1767 29.0779 13.9653 28.8811C14.7539 28.6844 15.4638 28.252 16.0004 27.6415C16.6554 28.387 17.5644 28.8622 18.5504 28.9746C19.5365 29.087 20.5291 28.8286 21.3351 28.2496C22.1411 27.6707 22.703 26.8125 22.9113 25.8422C23.1196 24.8719 22.9596 23.8588 22.4622 23H25.0004C25.8131 23.0005 26.6067 22.7533 27.2754 22.2912C27.9441 21.8292 28.456 21.1743 28.7429 20.4139C29.0299 19.6535 29.0782 18.8236 28.8815 18.035C28.6848 17.2464 28.2523 16.5365 27.6418 16V16ZM11.0004 6.99999C11.0004 6.46956 11.2111 5.96085 11.5862 5.58578C11.9612 5.21071 12.4699 4.99999 13.0004 4.99999C13.5308 4.99999 14.0395 5.21071 14.4146 5.58578C14.7897 5.96085 15.0004 6.46956 15.0004 6.99999V8.99999H13.0004C12.4701 8.99939 11.9618 8.78848 11.5868 8.41354C11.2119 8.0386 11.001 7.53024 11.0004 6.99999ZM5.00037 13C5.00097 12.4697 5.21188 11.9614 5.58682 11.5864C5.96177 11.2115 6.47012 11.0006 7.00037 11H13.0004C13.5306 11.0006 14.039 11.2115 14.4139 11.5864C14.7889 11.9614 14.9998 12.4697 15.0004 13V15H7.00037C6.47012 14.9994 5.96177 14.7885 5.58682 14.4135C5.21188 14.0386 5.00097 13.5302 5.00037 13ZM21.0004 25C21.0004 25.5304 20.7897 26.0391 20.4146 26.4142C20.0395 26.7893 19.5308 27 19.0004 27C18.4699 27 17.9612 26.7893 17.5862 26.4142C17.2111 26.0391 17.0004 25.5304 17.0004 25V23H19.0004C19.5306 23.0006 20.039 23.2115 20.4139 23.5865C20.7889 23.9614 20.9998 24.4697 21.0004 25V25ZM25.0004 21H19.0004C18.4701 20.9994 17.9618 20.7885 17.5868 20.4135C17.2119 20.0386 17.001 19.5302 17.0004 19V17H25.0004C25.5308 17 26.0395 17.2107 26.4146 17.5858C26.7897 17.9609 27.0004 18.4696 27.0004 19C27.0004 19.5304 26.7897 20.0391 26.4146 20.4142C26.0395 20.7893 25.5308 21 25.0004 21Z"/>
</svg>
