<svg   viewBox="0 0 32 32" fill="none" xmlns="http://www.w3.org/2000/svg">
<path d="M16 3C13.4288 3 10.9154 3.76244 8.77759 5.1909C6.63975 6.61935 4.97351 8.64968 3.98957 11.0251C3.00563 13.4006 2.74819 16.0144 3.2498 18.5362C3.75141 21.0579 4.98953 23.3743 6.80762 25.1924C8.6257 27.0105 10.9421 28.2486 13.4638 28.7502C15.9856 29.2518 18.5995 28.9944 20.9749 28.0104C23.3503 27.0265 25.3807 25.3603 26.8091 23.2224C28.2376 21.0846 29 18.5712 29 16C28.9961 12.5534 27.6252 9.24905 25.1881 6.81192C22.751 4.37479 19.4466 3.0039 16 3V3ZM19.578 21.0822C19.4591 21.3192 19.251 21.4994 18.9993 21.583C18.7476 21.6666 18.4731 21.6468 18.236 21.528C17.5401 21.1799 16.7727 20.9991 15.9946 21C15.2166 21.0009 14.4496 21.1834 13.7545 21.533C13.6373 21.5921 13.5095 21.6275 13.3785 21.6372C13.2476 21.6469 13.116 21.6308 12.9913 21.5897C12.8666 21.5485 12.7512 21.4833 12.6517 21.3975C12.5522 21.3118 12.4706 21.2073 12.4115 21.0901C12.3524 20.9728 12.317 20.8451 12.3072 20.7141C12.2975 20.5832 12.3137 20.4516 12.3548 20.3269C12.4378 20.075 12.6175 19.8664 12.8544 19.7471C13.8279 19.257 14.9025 19.0012 15.9924 19C17.0824 18.9988 18.1575 19.2522 19.1321 19.7401C19.3692 19.8589 19.5494 20.0671 19.633 20.3188C19.7166 20.5705 19.6968 20.8451 19.578 21.0821V21.0822ZM21.4277 17.5438C21.3071 17.78 21.0977 17.9587 20.8454 18.0405C20.5931 18.1223 20.3187 18.1006 20.0824 17.9801C18.8162 17.335 17.4152 16.9991 15.9941 17C14.5731 17.0009 13.1725 17.3386 11.9071 17.9854C11.7902 18.0454 11.6626 18.0818 11.5316 18.0925C11.4006 18.1032 11.2687 18.088 11.1436 18.0477C11.0185 18.0074 10.9026 17.9429 10.8024 17.8577C10.7023 17.7726 10.6199 17.6685 10.56 17.5515C10.5001 17.4345 10.4639 17.3068 10.4534 17.1758C10.4429 17.0448 10.4583 16.913 10.4988 16.7879C10.5393 16.6629 10.604 16.547 10.6893 16.447C10.7746 16.347 10.8788 16.2648 10.9959 16.2051C12.5429 15.4141 14.2554 15.0011 15.9929 15C17.7304 14.9989 19.4434 15.4096 20.9915 16.1986C21.1084 16.2583 21.2125 16.3404 21.2977 16.4403C21.383 16.5402 21.4477 16.6559 21.4882 16.7809C21.5287 16.9058 21.5442 17.0375 21.5338 17.1684C21.5234 17.2993 21.4874 17.4269 21.4277 17.5438L21.4277 17.5438ZM23.281 13.9983C23.1598 14.2342 22.9498 14.4122 22.6972 14.4933C22.4447 14.5743 22.1703 14.5518 21.9345 14.4305C20.0958 13.4894 18.0596 12.999 15.994 13C13.9284 13.001 11.8927 13.4932 10.0549 14.4362C9.93818 14.4965 9.81067 14.5333 9.67969 14.5444C9.54872 14.5554 9.41684 14.5405 9.29162 14.5006C9.1664 14.4606 9.05028 14.3964 8.94991 14.3115C8.84954 14.2266 8.76689 14.1228 8.70668 14.006C8.64647 13.8891 8.60989 13.7616 8.59902 13.6306C8.58816 13.4996 8.60322 13.3677 8.64335 13.2426C8.68349 13.1174 8.7479 13.0014 8.83292 12.9011C8.91793 12.8009 9.02187 12.7184 9.1388 12.6583C11.2596 11.5696 13.6091 11.0011 15.993 11C18.377 10.9989 20.727 11.565 22.8489 12.6517C22.9657 12.7118 23.0695 12.7942 23.1544 12.8944C23.2393 12.9946 23.3037 13.1105 23.3438 13.2355C23.384 13.3605 23.3991 13.4923 23.3883 13.6231C23.3775 13.754 23.3411 13.8815 23.281 13.9983L23.281 13.9983Z" fill="black"/>
</svg>
