<svg viewBox="0 0 32 32" xmlns="http://www.w3.org/2000/svg">
<path d="M26 4H6C5.46975 4.00061 4.9614 4.21151 4.58646 4.58646C4.21151 4.9614 4.00061 5.46975 4 6V26C4.00061 26.5302 4.21151 27.0386 4.58646 27.4135C4.9614 27.7885 5.46975 27.9994 6 28H26C26.5302 27.9994 27.0386 27.7885 27.4135 27.4135C27.7885 27.0386 27.9994 26.5302 28 26V6C27.9994 5.46975 27.7885 4.9614 27.4135 4.58646C27.0386 4.21151 26.5302 4.00061 26 4ZM26 26H6V6H26L26.0013 25.9999L26 26ZM21 12V20C21 20.1313 20.9741 20.2614 20.9239 20.3827C20.8736 20.504 20.8 20.6143 20.7071 20.7071C20.6143 20.8 20.504 20.8736 20.3827 20.9239C20.2614 20.9741 20.1313 21 20 21H12C11.8687 21 11.7386 20.9741 11.6173 20.9239C11.496 20.8736 11.3857 20.8 11.2929 20.7071C11.2 20.6143 11.1264 20.504 11.0761 20.3827C11.0259 20.2614 11 20.1313 11 20V12C11 11.8687 11.0259 11.7386 11.0761 11.6173C11.1264 11.496 11.2 11.3857 11.2929 11.2929C11.3857 11.2 11.496 11.1264 11.6173 11.0761C11.7386 11.0259 11.8687 11 12 11H20C20.1313 11 20.2614 11.0259 20.3827 11.0761C20.504 11.1264 20.6143 11.2 20.7071 11.2929C20.8 11.3857 20.8736 11.496 20.9239 11.6173C20.9741 11.7386 21 11.8687 21 12V12Z"/>
</svg>
