<svg viewBox="0 0 32 32" xmlns="http://www.w3.org/2000/svg">
<path d="M26 4H6C5.46975 4.0006 4.96139 4.21151 4.58645 4.58645C4.21151 4.96139 4.0006 5.46975 4 6V26C4.00061 26.5302 4.21151 27.0386 4.58646 27.4135C4.9614 27.7885 5.46975 27.9994 6 28H26C26.5302 27.9994 27.0386 27.7885 27.4135 27.4135C27.7885 27.0386 27.9994 26.5302 28 26V6C27.9994 5.46975 27.7885 4.96139 27.4135 4.58645C27.0386 4.21151 26.5302 4.0006 26 4V4ZM16 23C12.9112 23 10.4916 21.243 10.4916 19C10.4916 18.7348 10.5969 18.4804 10.7845 18.2929C10.972 18.1054 11.2264 18 11.4916 18C11.7568 18 12.0111 18.1054 12.1987 18.2929C12.3862 18.4804 12.4916 18.7348 12.4916 19C12.4916 19.946 13.9324 21 16 21C17.6594 21 19.5084 20.1787 19.5084 19C19.5084 17.7995 17.9839 17.3199 15.6581 16.7252C14.5699 16.4469 13.4445 16.1591 12.5635 15.6939C11.3549 15.0557 10.742 14.1493 10.742 13C10.742 10.7196 13.0024 9 16 9C18.1459 9 19.9896 9.89548 20.8115 11.3369C20.9429 11.5673 20.9774 11.8405 20.9073 12.0963C20.8373 12.3521 20.6685 12.5696 20.4381 12.701C20.2077 12.8324 19.9346 12.8668 19.6788 12.7968C19.423 12.7268 19.2055 12.558 19.0741 12.3276C18.6143 11.5211 17.4076 11 16 11C14.1731 11 12.742 11.8785 12.742 13C12.742 13.8514 14.0928 14.2606 16.1536 14.7875C18.5393 15.3976 21.5084 16.1568 21.5084 19C21.5084 21.243 19.0888 23 16 23Z"/>
</svg>
