<svg   viewBox="0 0 32 32" fill="none" xmlns="http://www.w3.org/2000/svg">
<path d="M28.9058 3.96705C28.6303 3.72912 28.2949 3.5711 27.936 3.51012C27.577 3.44914 27.2083 3.48752 26.8696 3.6211L3.79994 12.6842C3.39783 12.8422 3.05768 13.1261 2.8304 13.4935C2.60311 13.8609 2.5009 14.2921 2.53907 14.7224C2.57724 15.1527 2.75373 15.5591 3.04214 15.8808C3.33054 16.2025 3.71535 16.4221 4.13899 16.5068L9.99885 17.6788V24.9981C9.99851 25.3938 10.1156 25.7807 10.3353 26.1098C10.555 26.4389 10.8675 26.6954 11.233 26.8469C11.5986 26.9983 12.0009 27.0378 12.389 26.9605C12.7771 26.8831 13.1335 26.6923 13.413 26.4122L16.656 23.1694L21.578 27.5007C21.9403 27.8225 22.408 28.0005 22.8926 28.0011C23.1033 28.0009 23.3126 27.9677 23.513 27.9027C23.8436 27.7979 24.1408 27.6082 24.3752 27.3526C24.6095 27.097 24.7728 26.7844 24.8486 26.4461L29.5503 5.92945C29.6322 5.57468 29.6154 5.20428 29.5018 4.85836C29.3882 4.51244 29.1821 4.20421 28.9058 3.96705V3.96705ZM22.8991 25.9993L12.6001 16.936L27.4307 6.22517L22.8991 25.9993Z" fill="black"/>
</svg>
