<svg   viewBox="0 0 32 32" fill="none" xmlns="http://www.w3.org/2000/svg">
<path d="M29 10.5V15.5C29 15.6313 28.9741 15.7614 28.9239 15.8827C28.8736 16.004 28.8 16.1143 28.7071 16.2071C28.6143 16.3 28.504 16.3736 28.3827 16.4239C28.2614 16.4741 28.1313 16.5 28 16.5C25.9111 16.5046 23.8522 16.0024 21.9999 15.0366L22 19.5C21.9997 21.3072 21.484 23.0768 20.5133 24.6012C19.5426 26.1256 18.1573 27.3415 16.5198 28.1062C14.8824 28.8709 13.0608 29.1527 11.2688 28.9185C9.47684 28.6842 7.78886 27.9438 6.40295 26.7839C5.01705 25.6241 3.99073 24.093 3.44444 22.3703C2.89814 20.6476 2.85455 18.8049 3.31876 17.0583C3.78298 15.3118 4.73574 13.7338 6.06525 12.5097C7.39475 11.2856 9.04582 10.4662 10.8247 10.1475C10.9686 10.1218 11.1164 10.1281 11.2576 10.1657C11.3988 10.2034 11.5301 10.2715 11.6422 10.3654C11.7542 10.4592 11.8443 10.5765 11.9061 10.709C11.968 10.8414 12 10.9858 12 11.132L11.9999 16.3369C11.9999 16.526 11.9463 16.7112 11.8453 16.8711C11.7442 17.031 11.5999 17.159 11.4291 17.2401C11.0247 17.4317 10.6791 17.7283 10.4284 18.099C10.1778 18.4697 10.0312 18.9009 10.004 19.3475C9.97673 19.7942 10.0699 20.24 10.2737 20.6384C10.4775 21.0368 10.7844 21.3732 11.1626 21.6125C11.5407 21.8518 11.9761 21.9852 12.4234 21.9988C12.8707 22.0125 13.3134 21.9058 13.7054 21.6901C14.0975 21.4743 14.4244 21.1572 14.6521 20.772C14.8798 20.3868 14.9999 19.9475 15 19.5V3.5C15 3.36868 15.0259 3.23864 15.0761 3.11731C15.1264 2.99598 15.2 2.88574 15.2929 2.79288C15.3857 2.70003 15.496 2.62637 15.6173 2.57611C15.7386 2.52586 15.8687 2.5 16 2.5H21C21.1313 2.5 21.2614 2.52586 21.3827 2.57611C21.504 2.62637 21.6143 2.70003 21.7071 2.79288C21.8 2.88574 21.8736 2.99598 21.9239 3.11731C21.9741 3.23864 22 3.36868 22 3.5C22.0018 5.09075 22.6345 6.61583 23.7593 7.74065C24.8842 8.86548 26.4093 9.4982 28 9.5C28.1313 9.5 28.2614 9.52586 28.3827 9.57611C28.504 9.62637 28.6143 9.70003 28.7071 9.79288C28.8 9.88574 28.8736 9.99599 28.9239 10.1173C28.9741 10.2386 29 10.3687 29 10.5V10.5Z" fill="black"/>
</svg>
