<svg   viewBox="0 0 32 32" fill="none" xmlns="http://www.w3.org/2000/svg">
<path d="M30.7048 9.70708L26.9343 13.4776C26.1815 22.2128 18.8149 29 9.99762 29C8.18207 29 6.68586 28.7121 5.55042 28.1444C4.6341 27.6863 4.25873 27.1945 4.16559 27.0547C4.08203 26.9293 4.02787 26.7867 4.00715 26.6375C3.98642 26.4883 3.99968 26.3364 4.04592 26.193C4.09215 26.0496 4.17018 25.9186 4.27418 25.8096C4.37817 25.7006 4.50545 25.6165 4.64649 25.5636C4.67866 25.5515 7.62751 24.4189 9.53339 22.2626C8.34793 21.4184 7.30457 20.3907 6.44257 19.2182C4.72907 16.8927 2.91682 12.8543 4.01374 6.82109C4.04639 6.64154 4.12755 6.47435 4.24842 6.33762C4.3693 6.2009 4.52528 6.09986 4.69948 6.04545C4.87367 5.99104 5.05944 5.98534 5.23664 6.02895C5.41385 6.07257 5.57574 6.16385 5.70478 6.29289C5.74885 6.33684 9.91004 10.4393 14.997 11.7644L14.9976 10.9995C15.0084 9.39841 15.6545 7.86712 16.7938 6.7422C17.9332 5.61727 19.4726 4.99078 21.0737 5.00041C22.1138 5.01482 23.1324 5.29875 24.03 5.82449C24.9276 6.35022 25.6734 7.09977 26.1948 7.99993L29.9976 7.99999C30.1954 7.99999 30.3887 8.05863 30.5532 8.16851C30.7176 8.27839 30.8458 8.43456 30.9215 8.61729C30.9972 8.80001 31.017 9.00107 30.9784 9.19505C30.9399 9.38904 30.8446 9.56722 30.7048 9.70708Z" fill="black"/>
</svg>
