<svg   viewBox="0 0 32 32" fill="none" xmlns="http://www.w3.org/2000/svg">
<path d="M26 4H6C5.46975 4.00061 4.9614 4.21151 4.58646 4.58646C4.21151 4.9614 4.00061 5.46975 4 6V24C4.00061 24.5302 4.21151 25.0386 4.58646 25.4135C4.9614 25.7885 5.46975 25.9994 6 26H8V30C7.99999 30.1901 8.05415 30.3762 8.15613 30.5366C8.25811 30.697 8.40369 30.825 8.57581 30.9056C8.74793 30.9862 8.93947 31.0161 9.12797 30.9918C9.31647 30.9674 9.49413 30.8899 9.64014 30.7682L15.3621 26H20.6379C21.1058 25.9997 21.5587 25.8356 21.9183 25.5364L27.2803 21.0681C27.5059 20.8807 27.6873 20.6458 27.8117 20.3802C27.9361 20.1146 28.0004 19.8249 28 19.5316V6C27.9994 5.46975 27.7885 4.9614 27.4135 4.58646C27.0386 4.21151 26.5302 4.00061 26 4ZM16 17C16 17.2652 15.8946 17.5196 15.7071 17.7071C15.5196 17.8946 15.2652 18 15 18C14.7348 18 14.4804 17.8946 14.2929 17.7071C14.1054 17.5196 14 17.2652 14 17V11C14 10.7348 14.1054 10.4804 14.2929 10.2929C14.4804 10.1054 14.7348 10 15 10C15.2652 10 15.5196 10.1054 15.7071 10.2929C15.8946 10.4804 16 10.7348 16 11V17ZM22 17C22 17.2652 21.8946 17.5196 21.7071 17.7071C21.5196 17.8946 21.2652 18 21 18C20.7348 18 20.4804 17.8946 20.2929 17.7071C20.1054 17.5196 20 17.2652 20 17V11C20 10.7348 20.1054 10.4804 20.2929 10.2929C20.4804 10.1054 20.7348 10 21 10C21.2652 10 21.5196 10.1054 21.7071 10.2929C21.8946 10.4804 22 10.7348 22 11V17Z" fill="black"/>
</svg>
