<svg   viewBox="0 0 32 32" fill="none" xmlns="http://www.w3.org/2000/svg">
<path d="M16 3C13.742 3.00061 11.5231 3.58916 9.56171 4.70774C7.60028 5.82631 5.96392 7.43634 4.81369 9.37937C3.66346 11.3224 3.03899 13.5315 3.00177 15.7891C2.96454 18.0468 3.51583 20.2752 4.60138 22.2551L3.53302 25.9945C3.435 26.3374 3.43049 26.7004 3.51994 27.0456C3.60939 27.3909 3.78955 27.706 4.04176 27.9582C4.29396 28.2104 4.60902 28.3906 4.9543 28.4801C5.29957 28.5695 5.66249 28.565 6.00544 28.467L9.74494 27.3987C11.4827 28.3522 13.4155 28.8958 15.3956 28.9878C17.3757 29.0798 19.3506 28.7178 21.1693 27.9296C22.988 27.1413 24.6024 25.9475 25.889 24.4397C27.1757 22.9318 28.1005 21.1496 28.5927 19.2295C29.085 17.3094 29.1317 15.3022 28.7292 13.3612C28.3267 11.4203 27.4858 9.59713 26.2707 8.03105C25.0555 6.46498 23.4984 5.1975 21.7183 4.32551C19.9381 3.45353 17.9822 3.00014 16 3V3ZM19.0156 24C19.0119 24.0029 19.0051 24 18.9998 24C17.554 24 16.1223 23.7149 14.7867 23.1612C13.4512 22.6074 12.2379 21.7958 11.2162 20.7727C10.1946 19.7496 9.38466 18.5351 8.83278 17.1988C8.28091 15.8624 7.9979 14.4303 7.99994 12.9845C8.0045 11.7939 8.48056 10.6535 9.32393 9.81304C10.1673 8.97257 11.3093 8.50045 12.4999 8.5C12.828 8.50042 13.1502 8.58734 13.434 8.752C13.7178 8.91666 13.9531 9.15324 14.1163 9.43787L15.5776 11.9955C15.7537 12.304 15.8445 12.6538 15.8407 13.009C15.8369 13.3642 15.7387 13.712 15.5562 14.0167L14.6673 15.4982C15.1069 16.2603 15.7397 16.8931 16.5018 17.3328L17.9832 16.4439C18.2879 16.2613 18.6357 16.1631 18.9909 16.1593C19.3461 16.1555 19.696 16.2462 20.0045 16.4223L22.562 17.8837C22.8466 18.0468 23.0833 18.2821 23.2479 18.5659C23.4126 18.8497 23.4995 19.1719 23.4999 19.5C23.4995 20.6906 23.0274 21.8326 22.1869 22.676C21.3465 23.5193 20.2062 23.9954 19.0156 24V24Z" fill="black"/>
<path d="M17.0563 19.3324C16.918 19.4154 16.7617 19.4638 16.6007 19.4733C16.4397 19.4828 16.2787 19.4531 16.1317 19.387C14.5677 18.6843 13.3157 17.4324 12.613 15.8684C12.5469 15.7213 12.5173 15.5604 12.5268 15.3994C12.5363 15.2384 12.5846 15.082 12.6676 14.9437L13.8412 12.9877L12.4204 10.5012C11.7736 10.5215 11.1599 10.792 10.7084 11.2556C10.257 11.7193 10.003 12.34 10 12.9872C9.99833 14.1702 10.2299 15.3419 10.6814 16.4353C11.133 17.5287 11.7956 18.5223 12.6315 19.3594C13.4674 20.1965 14.4601 20.8606 15.5529 21.3137C16.6457 21.7668 17.817 22 19 22H19.0128C19.66 21.997 20.2807 21.743 20.7444 21.2916C21.2081 20.8401 21.4785 20.2264 21.4988 19.5796L19.0123 18.1588L17.0563 19.3324Z" fill="black"/>
</svg>
