<svg   viewBox="0 0 32 32" fill="none" xmlns="http://www.w3.org/2000/svg">
<path d="M14 18V24.4546C14 24.6011 13.9679 24.7457 13.9058 24.8784C13.8437 25.0111 13.7533 25.1285 13.6408 25.2224C13.5283 25.3162 13.3966 25.3842 13.255 25.4216C13.1133 25.4589 12.9652 25.4646 12.8211 25.4384L4.82111 23.9839C4.5907 23.942 4.3823 23.8205 4.23224 23.6407C4.08219 23.4609 4 23.2342 4 23V18C4 17.7348 4.10536 17.4804 4.2929 17.2929C4.48043 17.1053 4.73478 17 5 17H13C13.2652 17 13.5196 17.1053 13.7071 17.2929C13.8946 17.4804 14 17.7348 14 18ZM13.6407 6.77769C13.5283 6.6838 13.3966 6.61577 13.255 6.57842C13.1133 6.54108 12.9652 6.53532 12.8211 6.56157L4.82111 8.0161C4.5907 8.05799 4.3823 8.17943 4.23225 8.35923C4.08219 8.53903 4 8.76579 4 8.99998V14C4 14.2652 4.10536 14.5195 4.2929 14.7071C4.48043 14.8946 4.73478 15 5 15H13C13.2652 15 13.5196 14.8946 13.7071 14.7071C13.8946 14.5195 14 14.2652 14 14V7.54539C14 7.39893 13.9678 7.25425 13.9058 7.12159C13.8437 6.98893 13.7532 6.87153 13.6407 6.77769V6.77769ZM27 17H17C16.7348 17 16.4804 17.1053 16.2929 17.2929C16.1054 17.4804 16 17.7348 16 18V25.1818C16 25.416 16.0822 25.6427 16.2323 25.8225C16.3823 26.0023 16.5907 26.1237 16.8211 26.1656L26.8211 27.9839C26.9652 28.0101 27.1133 28.0043 27.255 27.9669C27.3966 27.9296 27.5283 27.8616 27.6407 27.7677C27.7532 27.6739 27.8437 27.5565 27.9057 27.4238C27.9678 27.2911 28 27.1465 28 27V18C28 17.7348 27.8946 17.4804 27.7071 17.2929C27.5196 17.1053 27.2652 17 27 17ZM27.6408 4.23222C27.5283 4.13834 27.3966 4.07032 27.255 4.03298C27.1133 3.99563 26.9652 3.98987 26.8211 4.01609L16.8211 5.83433C16.5907 5.87622 16.3823 5.99764 16.2323 6.17743C16.0822 6.35722 16 6.58398 16 6.81816V14C16 14.2652 16.1054 14.5195 16.2929 14.7071C16.4804 14.8946 16.7348 15 17 15H27C27.2652 15 27.5196 14.8946 27.7071 14.7071C27.8946 14.5195 28 14.2652 28 14V4.99998C28 4.85351 27.9678 4.70882 27.9057 4.57615C27.8437 4.44349 27.7532 4.32608 27.6408 4.23222V4.23222Z" fill="black"/>
</svg>
