<svg viewBox="0 0 32 32" xmlns="http://www.w3.org/2000/svg">
<path d="M28 27.0007C28 27.2659 27.8946 27.5203 27.7071 27.7078C27.5196 27.8954 27.2652 28.0007 27 28.0007H5C4.73478 28.0007 4.48043 27.8954 4.29289 27.7078C4.10536 27.5203 4 27.2659 4 27.0007C4 26.7355 4.10536 26.4812 4.29289 26.2936C4.48043 26.1061 4.73478 26.0007 5 26.0007H27C27.2652 26.0007 27.5196 26.1061 27.7071 26.2936C27.8946 26.4812 28 26.7355 28 27.0007ZM18.9994 24H23.9994C24.5296 23.9994 25.038 23.7885 25.4129 23.4135C25.7879 23.0386 25.9988 22.5302 25.9994 22V10C25.9988 9.46975 25.7879 8.9614 25.4129 8.58646C25.038 8.21151 24.5296 8.00061 23.9994 8H18.9994C18.4691 8.00061 17.9608 8.21151 17.5858 8.58646C17.2109 8.9614 17 9.46975 16.9994 10V22C17 22.5302 17.2109 23.0386 17.5858 23.4135C17.9608 23.7885 18.4691 23.9994 18.9994 24V24ZM7.99939 24H12.9994C13.5296 23.9994 14.038 23.7885 14.4129 23.4135C14.7879 23.0386 14.9988 22.5302 14.9994 22V5C14.9988 4.46975 14.7879 3.9614 14.4129 3.58646C14.038 3.21151 13.5296 3.00061 12.9994 3H7.99939C7.46914 3.00061 6.96079 3.21151 6.58585 3.58646C6.21091 3.9614 6 4.46975 5.99939 5V22C6 22.5302 6.21091 23.0386 6.58585 23.4135C6.96079 23.7885 7.46914 23.9994 7.99939 24V24Z"/>
</svg>
