<svg   viewBox="0 0 32 32" fill="none" xmlns="http://www.w3.org/2000/svg">
<path d="M28 4.99927C28 5.13059 27.9741 5.26063 27.9239 5.38196C27.8736 5.50328 27.8 5.61352 27.7071 5.70638C27.6143 5.79924 27.504 5.8729 27.3827 5.92315C27.2614 5.97341 27.1313 5.99927 27 5.99927H5C4.73478 5.99927 4.48043 5.89391 4.29289 5.70637C4.10536 5.51884 4 5.26448 4 4.99927C4 4.73405 4.10536 4.4797 4.29289 4.29216C4.48043 4.10462 4.73478 3.99927 5 3.99927H27C27.1313 3.99926 27.2614 4.02513 27.3827 4.07538C27.504 4.12563 27.6143 4.19929 27.7071 4.29215C27.8 4.38501 27.8736 4.49525 27.9239 4.61658C27.9741 4.73791 28 4.86794 28 4.99927V4.99927ZM23.9994 8H18.9994C18.4691 8.00061 17.9608 8.21151 17.5858 8.58646C17.2109 8.9614 17 9.46975 16.9994 10V22C17 22.5302 17.2109 23.0386 17.5858 23.4135C17.9608 23.7885 18.4691 23.9994 18.9994 24H23.9994C24.5296 23.9994 25.038 23.7885 25.4129 23.4135C25.7879 23.0386 25.9988 22.5302 25.9994 22V10C25.9988 9.46975 25.7879 8.9614 25.4129 8.58646C25.038 8.21151 24.5296 8.00061 23.9994 8V8ZM12.9994 8H7.99939C7.46914 8.00061 6.96079 8.21151 6.58585 8.58646C6.21091 8.9614 6 9.46975 5.99939 10V27C6 27.5302 6.21091 28.0386 6.58585 28.4135C6.96079 28.7885 7.46914 28.9994 7.99939 29H12.9994C13.5296 28.9994 14.038 28.7885 14.4129 28.4135C14.7879 28.0386 14.9988 27.5302 14.9994 27V10C14.9988 9.46975 14.7879 8.9614 14.4129 8.58646C14.038 8.21151 13.5296 8.00061 12.9994 8V8Z" fill="black"/>
</svg>
