<svg   viewBox="0 0 32 32" fill="none" xmlns="http://www.w3.org/2000/svg">
<path d="M28.0007 4.99939V26.9994C28.0007 27.2646 27.8954 27.519 27.7078 27.7065C27.5203 27.894 27.2659 27.9994 27.0007 27.9994C26.7355 27.9994 26.4812 27.894 26.2936 27.7065C26.1061 27.519 26.0007 27.2646 26.0007 26.9994V4.99939C26.0007 4.73417 26.1061 4.47982 26.2936 4.29228C26.4812 4.10475 26.7355 3.99939 27.0007 3.99939C27.2659 3.99939 27.5203 4.10475 27.7078 4.29228C27.8954 4.47982 28.0007 4.73417 28.0007 4.99939V4.99939ZM22 6H10C9.46975 6.00061 8.9614 6.21151 8.58646 6.58646C8.21151 6.9614 8.00061 7.46975 8 8V13C8.00061 13.5302 8.21151 14.0386 8.58646 14.4135C8.9614 14.7885 9.46975 14.9994 10 15H22C22.5302 14.9994 23.0386 14.7885 23.4135 14.4135C23.7885 14.0386 23.9994 13.5302 24 13V8C23.9994 7.46975 23.7885 6.9614 23.4135 6.58646C23.0386 6.21151 22.5302 6.00061 22 6V6ZM22 17H5C4.46975 17.0006 3.9614 17.2115 3.58646 17.5865C3.21151 17.9614 3.00061 18.4698 3 19V24C3.00061 24.5302 3.21151 25.0386 3.58646 25.4135C3.9614 25.7885 4.46975 25.9994 5 26H22C22.5302 25.9994 23.0386 25.7885 23.4135 25.4135C23.7885 25.0386 23.9994 24.5302 24 24V19C23.9994 18.4698 23.7885 17.9614 23.4135 17.5865C23.0386 17.2115 22.5302 17.0006 22 17Z" fill="black"/>
</svg>
