<svg   viewBox="0 0 32 32" fill="none" xmlns="http://www.w3.org/2000/svg">
<path d="M29 16C29 16.1313 28.9741 16.2614 28.9239 16.3827C28.8736 16.504 28.8 16.6143 28.7071 16.7071C28.6143 16.8 28.504 16.8736 28.3827 16.9239C28.2614 16.9741 28.1313 17 28 17H25.9994V23C25.9988 23.5302 25.7879 24.0386 25.4129 24.4135C25.038 24.7885 24.5296 24.9994 23.9994 25H18.9994C18.4691 24.9994 17.9608 24.7885 17.5858 24.4135C17.2109 24.0386 17 23.5302 16.9994 23V17H14.9994V26C14.9988 26.5302 14.7879 27.0386 14.4129 27.4135C14.038 27.7885 13.5296 27.9994 12.9994 28H7.99939C7.46914 27.9994 6.96079 27.7885 6.58585 27.4135C6.2109 27.0386 6 26.5302 5.99939 26V17H4C3.73478 17 3.48043 16.8946 3.29289 16.7071C3.10536 16.5196 3 16.2652 3 16C3 15.7348 3.10536 15.4804 3.29289 15.2929C3.48043 15.1054 3.73478 15 4 15H5.99939V6C6 5.46975 6.2109 4.9614 6.58585 4.58646C6.96079 4.21151 7.46914 4.00061 7.99939 4H12.9994C13.5296 4.00061 14.038 4.21151 14.4129 4.58646C14.7879 4.9614 14.9988 5.46975 14.9994 6V15H16.9994V9C17 8.46975 17.2109 7.9614 17.5858 7.58646C17.9608 7.21151 18.4691 7.00061 18.9994 7H23.9994C24.5296 7.00061 25.038 7.21151 25.4129 7.58646C25.7879 7.9614 25.9988 8.46975 25.9994 9V15H28C28.1313 15 28.2614 15.0259 28.3827 15.0761C28.504 15.1264 28.6143 15.2 28.7071 15.2929C28.8 15.3857 28.8736 15.496 28.9239 15.6173C28.9741 15.7386 29 15.8687 29 16Z" fill="black"/>
</svg>
