<svg viewBox="0 0 32 32" xmlns="http://www.w3.org/2000/svg">
<path d="M6 4.99939V26.9994C6 27.2646 5.89464 27.519 5.70711 27.7065C5.51957 27.894 5.26522 27.9994 5 27.9994C4.73478 27.9994 4.48043 27.894 4.29289 27.7065C4.10536 27.519 4 27.2646 4 26.9994V4.99939C4 4.73417 4.10536 4.47982 4.29289 4.29228C4.48043 4.10475 4.73478 3.99939 5 3.99939C5.26522 3.99939 5.51957 4.10475 5.70711 4.29228C5.89464 4.47982 6 4.73417 6 4.99939V4.99939ZM10.0007 15H22.0007C22.531 14.9994 23.0393 14.7885 23.4143 14.4135C23.7892 14.0386 24.0001 13.5302 24.0007 13V8C24.0001 7.46975 23.7892 6.9614 23.4143 6.58646C23.0393 6.21151 22.531 6.00061 22.0007 6H10.0007C9.47049 6.00061 8.96213 6.21151 8.58719 6.58646C8.21225 6.9614 8.00134 7.46975 8.00073 8V13C8.00134 13.5302 8.21225 14.0386 8.58719 14.4135C8.96213 14.7885 9.47049 14.9994 10.0007 15ZM27.0007 17H10.0007C9.47049 17.0006 8.96213 17.2115 8.58719 17.5865C8.21225 17.9614 8.00134 18.4698 8.00073 19V24C8.00134 24.5302 8.21225 25.0386 8.58719 25.4135C8.96213 25.7885 9.47049 25.9994 10.0007 26H27.0007C27.531 25.9994 28.0393 25.7885 28.4143 25.4135C28.7892 25.0386 29.0001 24.5302 29.0007 24V19C29.0001 18.4698 28.7892 17.9614 28.4143 17.5865C28.0393 17.2115 27.531 17.0006 27.0007 17V17Z"/>
</svg>
