<svg viewBox="0 0 32 32" xmlns="http://www.w3.org/2000/svg">
<path d="M28 19V24C27.9994 24.5302 27.7885 25.0386 27.4135 25.4135C27.0386 25.7885 26.5302 25.9994 26 26H17V27.9994C17 28.2646 16.8946 28.519 16.7071 28.7065C16.5196 28.894 16.2652 28.9994 16 28.9994C15.7348 28.9994 15.4804 28.894 15.2929 28.7065C15.1054 28.519 15 28.2646 15 27.9994V26H6C5.46975 25.9994 4.9614 25.7885 4.58646 25.4135C4.21151 25.0386 4.00061 24.5302 4 24V19C4.00061 18.4698 4.21151 17.9614 4.58646 17.5865C4.9614 17.2115 5.46975 17.0006 6 17H15V15H9C8.46975 14.9994 7.9614 14.7885 7.58646 14.4135C7.21151 14.0386 7.00061 13.5302 7 13V8C7.00061 7.46975 7.21151 6.9614 7.58646 6.58646C7.9614 6.21151 8.46975 6.00061 9 6H15V3.99939C15 3.73417 15.1054 3.47982 15.2929 3.29228C15.4804 3.10475 15.7348 2.99939 16 2.99939C16.2652 2.99939 16.5196 3.10475 16.7071 3.29228C16.8946 3.47982 17 3.73417 17 3.99939V6H23C23.5302 6.00061 24.0386 6.21151 24.4135 6.58646C24.7885 6.9614 24.9994 7.46975 25 8V13C24.9994 13.5302 24.7885 14.0386 24.4135 14.4135C24.0386 14.7885 23.5302 14.9994 23 15H17V17H26C26.5302 17.0006 27.0386 17.2115 27.4135 17.5865C27.7885 17.9614 27.9994 18.4698 28 19V19Z"/>
</svg>
