<svg   viewBox="0 0 32 32" fill="none" xmlns="http://www.w3.org/2000/svg">
<path d="M26 12C26.5302 11.9994 27.0386 11.7885 27.4135 11.4135C27.7885 11.0386 27.9994 10.5302 28 10V6C27.9994 5.46975 27.7885 4.9614 27.4135 4.58646C27.0386 4.21151 26.5302 4.00061 26 4H22C21.4698 4.00061 20.9614 4.21151 20.5865 4.58646C20.2115 4.9614 20.0006 5.46975 20 6V7H12V6C11.9994 5.46975 11.7885 4.9614 11.4135 4.58646C11.0386 4.21151 10.5302 4.00061 10 4H6C5.46975 4.00061 4.9614 4.21151 4.58646 4.58646C4.21151 4.9614 4.00061 5.46975 4 6V10C4.00061 10.5302 4.21151 11.0386 4.58646 11.4135C4.9614 11.7885 5.46975 11.9994 6 12H7V20H6C5.46975 20.0006 4.9614 20.2115 4.58646 20.5865C4.21151 20.9614 4.00061 21.4698 4 22V26C4.00061 26.5302 4.21151 27.0386 4.58646 27.4135C4.9614 27.7885 5.46975 27.9994 6 28H10C10.5302 27.9994 11.0386 27.7885 11.4135 27.4135C11.7885 27.0386 11.9994 26.5302 12 26V25H20V26C20.0006 26.5302 20.2115 27.0386 20.5865 27.4135C20.9614 27.7885 21.4698 27.9994 22 28H26C26.5302 27.9994 27.0386 27.7885 27.4135 27.4135C27.7885 27.0386 27.9994 26.5302 28 26V22C27.9994 21.4698 27.7885 20.9614 27.4135 20.5865C27.0386 20.2115 26.5302 20.0006 26 20H25V12H26ZM23 20H22C21.4698 20.0006 20.9614 20.2115 20.5865 20.5865C20.2115 20.9614 20.0006 21.4698 20 22V23H12V22C11.9994 21.4698 11.7885 20.9614 11.4135 20.5865C11.0386 20.2115 10.5302 20.0006 10 20H9V12H10C10.5302 11.9994 11.0386 11.7885 11.4135 11.4135C11.7885 11.0386 11.9994 10.5302 12 10V9H20V10C20.0006 10.5302 20.2115 11.0386 20.5865 11.4135C20.9614 11.7885 21.4698 11.9994 22 12H23V20Z" fill="black"/>
</svg>
