<svg viewBox="0 0 32 32" xmlns="http://www.w3.org/2000/svg">
<path d="M25.1949 6.80759C23.9879 5.59988 22.5547 4.64179 20.9774 3.98804C19.4 3.33428 17.7093 2.99767 16.0018 2.99744C14.2943 2.9972 12.6035 3.33334 11.0259 3.98666C9.44839 4.63998 8.01498 5.59767 6.80761 6.80505C5.60023 8.01242 4.64254 9.44582 3.98922 11.0234C3.3359 12.6009 2.99976 14.2917 3 15.9992C3.00024 17.7067 3.33684 19.3974 3.9906 20.9748C4.64435 22.5522 5.60245 23.9853 6.81015 25.1924C8.0172 26.4001 9.45033 27.3582 11.0277 28.0119C12.6051 28.6657 14.2958 29.0023 16.0033 29.0025C17.7108 29.0027 19.4016 28.6666 20.9791 28.0133C22.5567 27.36 23.9901 26.4023 25.1975 25.1949C26.4048 23.9875 27.3625 22.5541 28.0159 20.9766C28.6692 19.399 29.0053 17.7082 29.0051 16.0007C29.0048 14.2932 28.6682 12.6025 28.0145 11.0251C27.3607 9.44777 26.4026 8.01463 25.1949 6.80759V6.80759ZM8.22446 8.22177C10.1663 6.28412 12.7614 5.14109 15.5018 5.01652C18.2422 4.89195 20.9303 5.7948 23.0399 7.54828L7.55014 23.0382C5.79377 20.9296 4.88914 18.2406 5.01391 15.4992C5.13867 12.7578 6.28382 10.1621 8.22446 8.22177V8.22177Z"/>
</svg>
