<svg   viewBox="0 0 32 32" fill="none" xmlns="http://www.w3.org/2000/svg">
<path d="M9.5 15C12.5376 15 15 12.5376 15 9.5C15 6.46243 12.5376 4 9.5 4C6.46243 4 4 6.46243 4 9.5C4 12.5376 6.46243 15 9.5 15Z" fill="black"/>
<path d="M22.5 15C25.5376 15 28 12.5376 28 9.5C28 6.46243 25.5376 4 22.5 4C19.4624 4 17 6.46243 17 9.5C17 12.5376 19.4624 15 22.5 15Z" fill="black"/>
<path d="M9.5 28C12.5376 28 15 25.5376 15 22.5C15 19.4624 12.5376 17 9.5 17C6.46243 17 4 19.4624 4 22.5C4 25.5376 6.46243 28 9.5 28Z" fill="black"/>
<path d="M26 21.5H23.5V19C23.5 18.7348 23.3946 18.4804 23.2071 18.2929C23.0196 18.1054 22.7652 18 22.5 18C22.2348 18 21.9804 18.1054 21.7929 18.2929C21.6054 18.4804 21.5 18.7348 21.5 19V21.5H19C18.7348 21.5 18.4804 21.6054 18.2929 21.7929C18.1054 21.9804 18 22.2348 18 22.5C18 22.7652 18.1054 23.0196 18.2929 23.2071C18.4804 23.3946 18.7348 23.5 19 23.5H21.5V26C21.5 26.2652 21.6054 26.5196 21.7929 26.7071C21.9804 26.8946 22.2348 27 22.5 27C22.7652 27 23.0196 26.8946 23.2071 26.7071C23.3946 26.5196 23.5 26.2652 23.5 26V23.5H26C26.2652 23.5 26.5196 23.3946 26.7071 23.2071C26.8946 23.0196 27 22.7652 27 22.5C27 22.2348 26.8946 21.9804 26.7071 21.7929C26.5196 21.6054 26.2652 21.5 26 21.5Z" fill="black"/>
</svg>
