<svg viewBox="0 0 32 32" xmlns="http://www.w3.org/2000/svg">
<path d="M8.22109 6.8075C8.40862 6.99505 8.51397 7.24942 8.51397 7.51465C8.51397 7.77988 8.40862 8.03424 8.22109 8.2218C6.85514 9.58639 5.87264 11.2866 5.3724 13.1515C5.33853 13.2784 5.28 13.3973 5.20015 13.5016C5.1203 13.6058 5.0207 13.6934 4.90703 13.7591C4.79336 13.8249 4.66786 13.8676 4.53767 13.8849C4.40749 13.9021 4.27518 13.8936 4.14831 13.8597C4.02143 13.8258 3.90247 13.7673 3.79821 13.6875C3.69395 13.6076 3.60644 13.508 3.54068 13.3943C3.47492 13.2807 3.43218 13.1552 3.41492 13.025C3.39767 12.8948 3.40622 12.7625 3.44009 12.6356C4.03114 10.431 5.19235 8.42086 6.80691 6.80749C6.99447 6.62002 7.24881 6.5147 7.514 6.51471C7.77919 6.51471 8.03353 6.62002 8.22109 6.8075V6.8075ZM5.37411 18.847C5.34038 18.7199 5.2819 18.6007 5.20203 18.4962C5.12216 18.3917 5.02245 18.304 4.90863 18.2381C4.79481 18.1722 4.66911 18.1294 4.53872 18.1122C4.40834 18.0949 4.27583 18.1036 4.14879 18.1376C4.02174 18.1716 3.90266 18.2304 3.79837 18.3105C3.69407 18.3906 3.6066 18.4906 3.54098 18.6045C3.47535 18.7185 3.43285 18.8443 3.41592 18.9748C3.39899 19.1052 3.40795 19.2377 3.44229 19.3646C4.03223 21.5696 5.19243 23.5803 6.80618 25.1945C6.99393 25.3816 7.24832 25.4866 7.51342 25.4862C7.77853 25.4859 8.03265 25.3803 8.21993 25.1927C8.40721 25.005 8.51231 24.7507 8.51214 24.4856C8.51197 24.2205 8.40654 23.9663 8.21902 23.7789C6.85414 22.4133 5.87294 20.7123 5.37411 18.847ZM18.846 26.6273C16.9808 27.1266 15.017 27.1258 13.1522 26.6251C13.0254 26.591 12.893 26.5822 12.7627 26.5993C12.6324 26.6163 12.5067 26.6589 12.3929 26.7245C12.2791 26.7902 12.1793 26.8776 12.0993 26.9819C12.0193 27.0861 11.9606 27.2051 11.9266 27.332C11.8926 27.4589 11.8839 27.5913 11.9011 27.7216C11.9183 27.8519 11.961 27.9775 12.0267 28.0913C12.0925 28.205 12.18 28.3047 12.2844 28.3846C12.3887 28.4646 12.5077 28.5231 12.6347 28.557C14.8392 29.1486 17.1606 29.1491 19.3654 28.5587C19.6213 28.4897 19.8393 28.3218 19.9715 28.0921C20.1038 27.8623 20.1394 27.5895 20.0705 27.3335C20.0017 27.0776 19.834 26.8594 19.6044 26.727C19.3748 26.5945 19.102 26.5587 18.846 26.6273V26.6273ZM27.8502 18.1401C27.7234 18.1063 27.5911 18.0977 27.4609 18.115C27.3307 18.1322 27.2052 18.1749 27.0915 18.2407C26.9778 18.3065 26.8782 18.394 26.7984 18.4983C26.7186 18.6025 26.66 18.7215 26.6262 18.8484C26.126 20.7133 25.1435 22.4135 23.7775 23.7781C23.5902 23.9657 23.485 24.2199 23.4851 24.485C23.4852 24.7501 23.5905 25.0043 23.7779 25.1918C23.9654 25.3793 24.2196 25.4846 24.4847 25.4847C24.7498 25.4848 25.0041 25.3797 25.1917 25.1924C26.8063 23.579 27.9675 21.5689 28.5585 19.3643C28.6269 19.108 28.5907 18.8351 28.4579 18.6055C28.3251 18.376 28.1065 18.2086 27.8502 18.1401V18.1401ZM26.6244 13.153C26.6931 13.4091 26.8606 13.6276 27.0903 13.7602C27.2041 13.8258 27.3296 13.8685 27.4598 13.8856C27.59 13.9028 27.7223 13.8941 27.8491 13.8601C27.976 13.8261 28.0949 13.7675 28.1991 13.6875C28.3033 13.6076 28.3907 13.5079 28.4564 13.3942C28.522 13.2805 28.5647 13.1549 28.5818 13.0247C28.599 12.8945 28.5903 12.7622 28.5563 12.6354C27.9664 10.4304 26.8062 8.41967 25.1924 6.80554C25.0047 6.61838 24.7503 6.51343 24.4852 6.51376C24.2201 6.51409 23.9659 6.61968 23.7787 6.80732C23.5914 6.99495 23.4863 7.24928 23.4864 7.51438C23.4866 7.77949 23.592 8.03367 23.7796 8.22107C25.1445 9.58668 26.1257 11.2877 26.6244 13.153ZM13.1526 5.37256C15.0178 4.87328 16.9816 4.87404 18.8463 5.37475C19.1025 5.44339 19.3755 5.40745 19.6052 5.27483C19.8348 5.14221 20.0024 4.92379 20.0711 4.6676C20.1397 4.41142 20.1038 4.13846 19.9711 3.90878C19.8385 3.6791 19.6201 3.51151 19.3639 3.44287C17.1594 2.85149 14.838 2.8509 12.6332 3.44116C12.5064 3.47527 12.3875 3.53402 12.2834 3.61406C12.1793 3.69409 12.092 3.79386 12.0264 3.90765C11.894 4.13745 11.8583 4.41045 11.9272 4.66656C11.9961 4.92268 12.1639 5.14095 12.3937 5.27335C12.6235 5.40575 12.8965 5.44144 13.1526 5.37256H13.1526Z"/>
</svg>
