<svg viewBox="0 0 32 32" xmlns="http://www.w3.org/2000/svg">
<path d="M9.5 15C12.5376 15 15 12.5376 15 9.5C15 6.46243 12.5376 4 9.5 4C6.46243 4 4 6.46243 4 9.5C4 12.5376 6.46243 15 9.5 15Z"/>
<path d="M22.5 15C25.5376 15 28 12.5376 28 9.5C28 6.46243 25.5376 4 22.5 4C19.4624 4 17 6.46243 17 9.5C17 12.5376 19.4624 15 22.5 15Z"/>
<path d="M9.5 28C12.5376 28 15 25.5376 15 22.5C15 19.4624 12.5376 17 9.5 17C6.46243 17 4 19.4624 4 22.5C4 25.5376 6.46243 28 9.5 28Z"/>
<path d="M22.5 28C25.5376 28 28 25.5376 28 22.5C28 19.4624 25.5376 17 22.5 17C19.4624 17 17 19.4624 17 22.5C17 25.5376 19.4624 28 22.5 28Z"/>
</svg>
