<svg   viewBox="0 0 32 32" fill="none" xmlns="http://www.w3.org/2000/svg">
<path d="M16 14.5C19.3137 14.5 22 11.8137 22 8.5C22 5.18629 19.3137 2.5 16 2.5C12.6863 2.5 10 5.18629 10 8.5C10 11.8137 12.6863 14.5 16 14.5Z" fill="black"/>
<path d="M23.5 27.5C26.8137 27.5 29.5 24.8137 29.5 21.5C29.5 18.1863 26.8137 15.5 23.5 15.5C20.1863 15.5 17.5 18.1863 17.5 21.5C17.5 24.8137 20.1863 27.5 23.5 27.5Z" fill="black"/>
<path d="M8.5 27.5C11.8137 27.5 14.5 24.8137 14.5 21.5C14.5 18.1863 11.8137 15.5 8.5 15.5C5.18629 15.5 2.5 18.1863 2.5 21.5C2.5 24.8137 5.18629 27.5 8.5 27.5Z" fill="black"/>
</svg>
