<svg   viewBox="0 0 32 32" fill="none" xmlns="http://www.w3.org/2000/svg">
<path d="M15 6V26C14.9994 26.5302 14.7885 27.0386 14.4135 27.4135C14.0386 27.7885 13.5302 27.9994 13 28H8C7.46975 27.9994 6.9614 27.7885 6.58646 27.4135C6.21151 27.0386 6.00061 26.5302 6 26V6C6.00061 5.46975 6.21151 4.9614 6.58646 4.58646C6.9614 4.21151 7.46975 4.00061 8 4H13C13.5302 4.00061 14.0386 4.21151 14.4135 4.58646C14.7885 4.9614 14.9994 5.46975 15 6ZM24 4H19C18.4698 4.00061 17.9614 4.21151 17.5865 4.58646C17.2115 4.9614 17.0006 5.46975 17 6V26C17.0006 26.5302 17.2115 27.0386 17.5865 27.4135C17.9614 27.7885 18.4698 27.9994 19 28H24C24.5302 27.9994 25.0386 27.7885 25.4135 27.4135C25.7885 27.0386 25.9994 26.5302 26 26V6C25.9994 5.46975 25.7885 4.9614 25.4135 4.58646C25.0386 4.21151 24.5302 4.00061 24 4Z" fill="black"/>
</svg>
