<svg viewBox="0 0 32 32" xmlns="http://www.w3.org/2000/svg">
<path d="M30 24.0001C30 24.2653 29.8946 24.5197 29.7071 24.7072C29.5196 24.8948 29.2652 25.0001 29 25.0001H25V29.0001C25 29.2653 24.8946 29.5197 24.7071 29.7072C24.5196 29.8948 24.2652 30.0001 24 30.0001C23.7348 30.0001 23.4804 29.8948 23.2929 29.7072C23.1054 29.5197 23 29.2653 23 29.0001V25.0001H8C7.73479 25.0001 7.48044 24.8948 7.29291 24.7072C7.10537 24.5197 7.00001 24.2653 7 24.0001V9H3C2.73478 9 2.48043 8.89464 2.29289 8.70711C2.10536 8.51957 2 8.26522 2 8C2 7.73478 2.10536 7.48043 2.29289 7.29289C2.48043 7.10536 2.73478 7 3 7H7V3C7 2.73478 7.10536 2.48043 7.29289 2.29289C7.48043 2.10536 7.73478 2 8 2C8.26522 2 8.51957 2.10536 8.70711 2.29289C8.89464 2.48043 9 2.73478 9 3V23.0001H29C29.2652 23.0001 29.5196 23.1055 29.7071 23.293C29.8946 23.4806 30 23.7349 30 24.0001V24.0001ZM11.9989 9H23V20.0001C23 20.2653 23.1054 20.5197 23.2929 20.7072C23.4804 20.8948 23.7348 21.0001 24 21.0001C24.2652 21.0001 24.5196 20.8948 24.7071 20.7072C24.8946 20.5197 25 20.2653 25 20.0001V8C25 7.73478 24.8946 7.48043 24.7071 7.2929C24.5196 7.10536 24.2652 7 24 7H11.9989C11.7337 7 11.4793 7.10536 11.2918 7.29289C11.1043 7.48043 10.9989 7.73478 10.9989 8C10.9989 8.26522 11.1043 8.51957 11.2918 8.70711C11.4793 8.89464 11.7337 9 11.9989 9V9Z"/>
</svg>
