<svg viewBox="0 0 32 32" xmlns="http://www.w3.org/2000/svg">
<path d="M28.7403 8.85156C28.7372 8.84589 28.7349 8.84003 28.7316 8.83438C28.7302 8.83194 28.7286 8.8298 28.7272 8.82739C28.5482 8.5201 28.2904 8.26614 27.9805 8.09171L16.9805 1.90421C16.6808 1.73689 16.3433 1.64905 16 1.64905C15.6567 1.64905 15.3192 1.73689 15.0195 1.90421L4.01947 8.09171C3.70847 8.26681 3.45004 8.522 3.271 8.83075C3.26905 8.83414 3.26679 8.83716 3.2649 8.84058C3.26184 8.84604 3.25965 8.85168 3.25672 8.85715C3.08875 9.15566 3.00034 9.49234 3 9.83487V22.1652C3.00026 22.52 3.0948 22.8684 3.27392 23.1747C3.45305 23.481 3.71035 23.7342 4.01947 23.9084L15.0195 30.0959C15.297 30.251 15.6074 30.3377 15.9251 30.3486C15.9474 30.3503 15.9697 30.3524 15.9925 30.3526C15.9955 30.3527 15.9985 30.3527 16.0015 30.3527C16.0329 30.3527 16.0638 30.3509 16.0945 30.348C16.4055 30.3342 16.7089 30.2478 16.9805 30.0959L27.9805 23.9084C28.2897 23.7342 28.5469 23.481 28.7261 23.1747C28.9052 22.8684 28.9997 22.52 29 22.1652V9.83487C28.9997 9.49019 28.9102 9.15145 28.7403 8.85156V8.85156ZM16.1138 14.8527L6.04736 9.24573L16 3.64737L25.968 9.25437L16.1138 14.8527ZM27 22.1652L17.0151 27.7817L17.1135 16.5849L27 10.9682V22.1652Z"/>
</svg>
