<svg   viewBox="0 0 32 32" fill="none" xmlns="http://www.w3.org/2000/svg">
<path d="M26 18C26 9 16 2 16 2C16 2 6 9 6 18C6 20.6522 7.05357 23.1957 8.92893 25.0711C10.8043 26.9464 13.3478 28 16 28C18.6522 28 21.1957 26.9464 23.0711 25.0711C24.9464 23.1957 26 20.6522 26 18Z" stroke="black" stroke-width="2" stroke-linecap="round" stroke-linejoin="round"/>
<path d="M16 28C17.3132 28 18.6136 27.7413 19.8268 27.2388C21.0401 26.7362 22.1425 25.9997 23.0711 25.0711C23.9997 24.1425 24.7362 23.0401 25.2388 21.8268C25.7413 20.6136 26 19.3132 26 18C26 9 16 2 16 2V28Z" fill="black"/>
<path d="M16 28V2" stroke="black" stroke-width="2" stroke-linecap="round" stroke-linejoin="round"/>
</svg>
