<svg viewBox="0 0 32 32" xmlns="http://www.w3.org/2000/svg">
<path d="M27.0023 25.9791H16.2952L20.6364 21.6379L20.6384 21.6361L20.6403 21.634L27.7095 14.5649C28.2712 14.0018 28.5866 13.239 28.5866 12.4436C28.5866 11.6482 28.2712 10.8854 27.7095 10.3223L22.0526 4.6654C21.49 4.10281 20.7269 3.78674 19.9313 3.78674C19.1356 3.78674 18.3726 4.10281 17.8099 4.6654L10.7401 11.7353L10.7388 11.7364L10.7376 11.7377L3.66773 18.8076C3.10513 19.3702 2.78906 20.1333 2.78906 20.929C2.78906 21.7246 3.10513 22.4877 3.66773 23.0503L8.30383 27.6863C8.49141 27.8738 8.74577 27.9791 9.01099 27.9791H27.0023C27.2675 27.9791 27.5219 27.8738 27.7094 27.6862C27.897 27.4987 28.0023 27.2443 28.0023 26.9791C28.0023 26.7139 27.897 26.4596 27.7094 26.272C27.5219 26.0845 27.2675 25.9791 27.0023 25.9791V25.9791ZM19.2242 6.07971C19.3171 5.98683 19.4273 5.91315 19.5486 5.86288C19.6699 5.81262 19.8 5.78674 19.9313 5.78674C20.0626 5.78674 20.1926 5.81262 20.3139 5.86288C20.4353 5.91315 20.5455 5.98683 20.6383 6.07971L26.2952 11.7366C26.4824 11.9243 26.5876 12.1785 26.5876 12.4437C26.5876 12.7088 26.4824 12.9631 26.2952 13.1508L19.9313 19.5146L12.8603 12.4437L19.2242 6.07971Z"/>
</svg>
