<svg viewBox="0 0 32 32" xmlns="http://www.w3.org/2000/svg">
<path d="M30.9138 15.5939C30.8698 15.4951 29.8114 13.1469 27.4571 10.7925C24.3216 7.65662 20.3597 5.99902 16 5.99902C11.6402 5.99902 7.67831 7.65662 4.54282 10.7925C2.18857 13.1469 1.1301 15.4951 1.08615 15.5939C1.02935 15.7217 1 15.8601 1 16C1 16.1399 1.02935 16.2783 1.08615 16.4061C1.1301 16.505 2.18869 18.8527 4.54294 21.2067C7.67844 24.3418 11.6402 25.999 16 25.999C20.3597 25.999 24.3215 24.3418 27.457 21.2067C29.8113 18.8527 30.8698 16.505 30.9138 16.4061C30.9706 16.2783 30.9999 16.1399 30.9999 16C30.9999 15.8601 30.9706 15.7217 30.9138 15.5939V15.5939ZM16 11.5001C16.89 11.5001 17.76 11.764 18.5 12.2585C19.2401 12.753 19.8168 13.4558 20.1574 14.278C20.498 15.1003 20.5871 16.0051 20.4135 16.878C20.2399 17.7509 19.8113 18.5528 19.1819 19.1821C18.5526 19.8114 17.7508 20.24 16.8779 20.4137C16.005 20.5873 15.1002 20.4982 14.2779 20.1576C13.4556 19.817 12.7528 19.2402 12.2584 18.5002C11.7639 17.7602 11.5 16.8901 11.5 16.0001C11.5013 14.8071 11.9759 13.6632 12.8195 12.8196C13.6631 11.976 14.8069 11.5015 16 11.5001V11.5001Z"/>
</svg>
