<svg viewBox="0 0 32 32" xmlns="http://www.w3.org/2000/svg">
<path d="M26.4359 16.1544C27.2878 15.4217 28.0711 14.6128 28.7761 13.7378C28.9425 13.5314 29.0202 13.2675 28.9921 13.0039C28.964 12.7403 28.8324 12.4987 28.6262 12.3321C28.42 12.1655 28.1561 12.0876 27.8925 12.1155C27.6289 12.1434 27.3871 12.2749 27.2204 12.4809C26.4382 13.4543 25.5453 14.3333 24.5598 15.1002C24.5531 15.1049 24.5469 15.1102 24.5404 15.1151C22.1001 17.0131 19.0896 18.0298 15.9982 18C12.9061 18.0298 9.89491 17.0126 7.4543 15.1139C7.44667 15.1081 7.43949 15.1019 7.43165 15.0963C6.44808 14.3303 5.55687 13.4527 4.77595 12.4809C4.69342 12.3788 4.59159 12.2939 4.47626 12.2311C4.36092 12.1683 4.23435 12.1288 4.10377 12.115C3.97319 12.1011 3.84115 12.1131 3.7152 12.1502C3.58925 12.1874 3.47185 12.249 3.3697 12.3315C3.26755 12.414 3.18266 12.5159 3.11987 12.6312C3.05708 12.7465 3.01762 12.8731 3.00375 13.0037C2.98988 13.1343 3.00186 13.2663 3.03901 13.3923C3.07616 13.5182 3.13776 13.6356 3.22029 13.7378C3.92385 14.6111 4.70549 15.4185 5.55552 16.1501L3.11836 20.3713C3.0527 20.485 3.01008 20.6106 2.99293 20.7408C2.97579 20.8709 2.98446 21.0032 3.01844 21.1301C3.05242 21.2569 3.11106 21.3758 3.19099 21.48C3.27093 21.5842 3.3706 21.6716 3.48432 21.7373C3.59804 21.8029 3.72358 21.8455 3.85378 21.8627C3.98397 21.8798 4.11626 21.8712 4.2431 21.8372C4.36994 21.8032 4.48885 21.7446 4.59303 21.6646C4.69721 21.5847 4.78463 21.485 4.85029 21.3713L7.16154 17.3681C8.51366 18.2744 10.0005 18.9613 11.5671 19.4033L10.8403 23.5256C10.7943 23.7868 10.8539 24.0556 11.006 24.2728C11.1582 24.4901 11.3904 24.638 11.6516 24.684C11.7093 24.6942 11.7678 24.6993 11.8264 24.6993C12.0613 24.699 12.2886 24.6159 12.4684 24.4648C12.6483 24.3137 12.7692 24.1041 12.81 23.8728L13.5247 19.8194C15.1612 20.0596 16.8239 20.0602 18.4606 19.8211L19.1754 23.8745C19.2162 24.1058 19.3371 24.3154 19.517 24.4665C19.6968 24.6175 19.9241 24.7005 20.159 24.7009C20.2176 24.7009 20.2762 24.6958 20.3339 24.6856C20.5951 24.6395 20.8273 24.4916 20.9794 24.2743C21.1315 24.057 21.1911 23.7883 21.1451 23.5271L20.4185 19.4065C21.9869 18.9652 23.4757 18.2784 24.8295 17.3717L27.1273 21.3515C27.2599 21.5812 27.4783 21.7488 27.7345 21.8174C27.9906 21.886 28.2636 21.8501 28.4932 21.7175C28.7229 21.5849 28.8905 21.3665 28.9591 21.1103C29.0277 20.8541 28.9918 20.5812 28.8592 20.3515L26.4359 16.1544Z"/>
</svg>
