<svg   viewBox="0 0 32 32" fill="none" xmlns="http://www.w3.org/2000/svg">
<path d="M27.9985 8.43794C27.9921 7.83602 27.8641 7.24159 27.6222 6.69038C27.3803 6.13916 27.0295 5.64253 26.5908 5.2303C24.8385 3.57149 22.001 3.63393 20.2655 5.36946L17.522 8.11305C16.9514 7.59326 16.2026 7.31304 15.431 7.33054C14.6594 7.34804 13.9241 7.66192 13.3777 8.20705L12.4989 9.08577C12.1244 9.46113 11.9141 9.96972 11.9141 10.5C11.9141 11.0302 12.1244 11.5388 12.4989 11.9141L12.7563 12.1715L6.46336 18.4644C5.88813 19.042 5.46221 19.7509 5.2224 20.53C4.9826 21.309 4.93613 22.1348 5.08701 22.9358L3.86418 25.7369C3.72461 26.0531 3.68427 26.4042 3.74849 26.7439C3.81271 27.0835 3.97847 27.3956 4.22386 27.6391C4.40854 27.8251 4.62817 27.9728 4.87014 28.0737C5.1121 28.1746 5.37161 28.2267 5.63377 28.2269C5.9107 28.2266 6.18458 28.169 6.43821 28.0578L9.06309 26.9119C9.86413 27.0628 10.6899 27.0163 11.4689 26.7765C12.248 26.5367 12.9569 26.1107 13.5345 25.5355L19.8274 19.2426L20.0848 19.5C20.4601 19.8745 20.9687 20.0848 21.4989 20.0848C22.0292 20.0848 22.5378 19.8745 22.9131 19.5L23.7919 18.6212C24.337 18.0748 24.6509 17.3395 24.6684 16.5679C24.6859 15.7963 24.4057 15.0475 23.8859 14.4769L26.6809 11.6819C27.1078 11.2579 27.4445 10.7519 27.671 10.1945C27.8974 9.63702 28.0088 9.03954 27.9985 8.43794ZM12.1203 24.1213C11.7472 24.4929 11.2831 24.7602 10.7745 24.8965C10.2658 25.0328 9.73029 25.0333 9.22135 24.8981C9.0027 24.8398 8.77075 24.8573 8.56333 24.9478L5.87944 26.1195L7.05113 23.4356C7.14165 23.2282 7.15916 22.9962 7.10081 22.7775C6.96561 22.2686 6.96619 21.7331 7.10248 21.2245C7.23878 20.7158 7.50604 20.2518 7.87761 19.8786L14.1705 13.5857L18.4132 17.8284L12.1203 24.1213Z" fill="black"/>
</svg>
