<svg   viewBox="0 0 32 32" fill="none" xmlns="http://www.w3.org/2000/svg">
<path d="M30.9126 15.5949C30.8687 15.4961 29.8102 13.148 27.456 10.7935C24.3205 7.6576 20.3586 6.00001 15.9988 6.00001C15.0778 5.99898 14.1582 6.07394 13.2494 6.22414C13.0722 6.25372 12.9062 6.33051 12.7689 6.44643C12.6316 6.56235 12.5281 6.71311 12.4693 6.88287C12.4104 7.05264 12.3983 7.23512 12.4344 7.41115C12.4704 7.58717 12.5533 7.75024 12.6741 7.88319L25.3355 21.8107C25.5131 22.006 25.7606 22.1231 26.0242 22.1366C26.2878 22.1502 26.5461 22.0589 26.7427 21.8828C29.5943 19.3286 30.8601 16.5253 30.9126 16.4071C30.9694 16.2793 30.9988 16.1409 30.9988 16.001C30.9988 15.8611 30.9694 15.7227 30.9126 15.5949V15.5949Z" fill="black"/>
<path d="M6.73996 4.32722C6.56154 4.13097 6.31247 4.01362 6.04753 4.00101C5.78259 3.9884 5.5235 4.08155 5.32724 4.25996C5.13098 4.43838 5.01364 4.68746 5.00103 4.95239C4.98841 5.21733 5.08156 5.47643 5.25998 5.67268L7.66513 8.31831C3.12501 11.1047 1.1731 15.3993 1.08615 15.5948C1.02935 15.7227 1 15.861 1 16.0009C1 16.1408 1.02935 16.2792 1.08615 16.4071C1.1301 16.5059 2.18869 18.8536 4.54294 21.2076C7.67844 24.3427 11.6402 25.9999 16 25.9999C18.2406 26.013 20.4587 25.5515 22.5082 24.6457L25.26 27.6727C25.4384 27.8689 25.6875 27.9863 25.9524 27.9989C26.2173 28.0115 26.4764 27.9184 26.6727 27.7399C26.869 27.5615 26.9863 27.3124 26.9989 27.0475C27.0115 26.7826 26.9184 26.5235 26.74 26.3272L6.73996 4.32722ZM16 20.5C15.1775 20.5003 14.3707 20.2751 13.6672 19.8489C12.9638 19.4227 12.3907 18.8118 12.0102 18.0826C11.6297 17.3534 11.4565 16.5339 11.5092 15.7131C11.562 14.8923 11.8388 14.1017 12.3096 13.4273L18.2101 19.9179C17.5363 20.3001 16.7747 20.5007 16 20.5Z" fill="black"/>
</svg>
