<svg viewBox="0 0 32 32" xmlns="http://www.w3.org/2000/svg">
<path d="M30.7279 10.6851C30.7211 10.6924 30.7151 10.7 30.708 10.7071L25.708 15.7071C25.5205 15.8946 25.2661 16 25.0009 16C24.7357 16 24.4813 15.8946 24.2937 15.7071C24.1062 15.5195 24.0008 15.2652 24.0008 14.9999C24.0008 14.7347 24.1062 14.4803 24.2937 14.2928L27.5867 10.9999H22.0009C20.6753 11.0015 19.4044 11.5287 18.467 12.4661C17.5297 13.4034 17.0024 14.6743 17.0009 15.9999C16.9988 17.8558 16.2606 19.6351 14.9483 20.9474C13.636 22.2597 11.8568 22.9979 10.0009 22.9999H9.88748C9.64163 24.0786 9.00701 25.0289 8.10486 25.6694C7.20271 26.3098 6.09626 26.5954 4.99684 26.4717C3.89743 26.348 2.88212 25.8236 2.14484 24.9988C1.40756 24.1739 1 23.1063 1 21.9999C1 20.8936 1.40756 19.826 2.14484 19.0011C2.88212 18.1762 3.89743 17.6519 4.99684 17.5282C6.09626 17.4045 7.20271 17.6901 8.10486 18.3305C9.00701 18.9709 9.64163 19.9213 9.88748 20.9999H10.0009C11.3265 20.9984 12.5974 20.4712 13.5347 19.5338C14.4721 18.5965 14.9994 17.3256 15.0009 15.9999C15.003 14.1441 15.7411 12.3648 17.0534 11.0525C18.3657 9.74019 20.145 9.00203 22.0009 8.99994H27.5867L24.2937 5.7071C24.1062 5.51955 24.0008 5.26518 24.0008 4.99994C24.0008 4.73471 24.1062 4.48034 24.2937 4.29279C24.4813 4.10524 24.7357 3.99988 25.0009 3.99988C25.2661 3.99988 25.5205 4.10524 25.708 4.29279L30.708 9.29279C30.7151 9.29987 30.7211 9.3075 30.7279 9.31476C30.7436 9.33137 30.7592 9.34791 30.7738 9.36554C30.7852 9.3794 30.7952 9.39393 30.8057 9.40827C30.8145 9.42017 30.8238 9.43177 30.8321 9.4441C30.8427 9.45991 30.852 9.47632 30.8615 9.49262C30.8685 9.5044 30.8759 9.51587 30.8824 9.52802C30.8911 9.54413 30.8985 9.56074 30.9062 9.57721C30.9123 9.5904 30.9189 9.60334 30.9245 9.61677C30.9311 9.63264 30.9364 9.64875 30.9421 9.66486C30.9474 9.67963 30.953 9.69416 30.9576 9.70924C30.9625 9.72535 30.9661 9.74171 30.9702 9.758C30.974 9.77338 30.9784 9.78852 30.9815 9.80415C30.9852 9.82313 30.9875 9.84223 30.9901 9.86134C30.992 9.87459 30.9945 9.88752 30.9959 9.90095C31.0024 9.96679 31.0024 10.0331 30.9959 10.0989C30.9945 10.1124 30.992 10.1253 30.9901 10.1386C30.9875 10.1577 30.9852 10.1768 30.9815 10.1958C30.9784 10.2114 30.974 10.2265 30.9702 10.2419C30.9661 10.2582 30.9625 10.2745 30.9576 10.2907C30.953 10.3057 30.9474 10.3203 30.9421 10.335C30.9364 10.3511 30.9311 10.3673 30.9245 10.3831C30.9189 10.3966 30.9123 10.4095 30.9062 10.4227C30.8985 10.4392 30.8911 10.4558 30.8824 10.4719C30.8759 10.484 30.8685 10.4955 30.8615 10.5073C30.852 10.5236 30.8427 10.54 30.8321 10.5558C30.8238 10.5681 30.8145 10.5797 30.8057 10.5916C30.7952 10.606 30.7852 10.6205 30.7738 10.6344C30.7592 10.652 30.7436 10.6685 30.7279 10.6851Z"/>
</svg>
