<svg   viewBox="0 0 32 32" fill="none" xmlns="http://www.w3.org/2000/svg">
<path d="M25.5 4.5H6.5C5.96975 4.50061 5.4614 4.71151 5.08646 5.08646C4.71151 5.4614 4.50061 5.96975 4.5 6.5V25.5C4.50061 26.0302 4.71151 26.5386 5.08646 26.9135C5.4614 27.2885 5.96975 27.4994 6.5 27.5H25.5C26.0302 27.4994 26.5386 27.2885 26.9135 26.9135C27.2885 26.5386 27.4994 26.0302 27.5 25.5V6.5C27.4994 5.96975 27.2885 5.4614 26.9135 5.08646C26.5386 4.71151 26.0302 4.50061 25.5 4.5V4.5ZM25.5005 16H16V6.5H25.5L25.5005 16ZM6.5 16H16V25.5H6.5V16Z" fill="black"/>
</svg>
