<svg viewBox="0 0 32 32" xmlns="http://www.w3.org/2000/svg">
<path d="M27.4841 8.3423L16.9841 2.40755C16.6836 2.23887 16.3447 2.15027 16 2.15027C15.6553 2.15027 15.3164 2.23887 15.0159 2.40755L4.51587 8.34237C4.20776 8.5169 3.95141 8.76999 3.77296 9.07585C3.59451 9.38171 3.50032 9.72941 3.5 10.0835V21.9165C3.50033 22.2706 3.59452 22.6183 3.77297 22.9242C3.95142 23.2301 4.20776 23.4832 4.51587 23.6577L15.0159 29.5925C15.3165 29.7612 15.6553 29.8497 16 29.8497C16.3447 29.8497 16.6836 29.7612 16.9841 29.5925L27.4841 23.6577C27.7922 23.4831 28.0486 23.23 28.227 22.9242C28.4055 22.6183 28.4997 22.2706 28.5 21.9165V10.0835C28.4997 9.7294 28.4055 9.3817 28.227 9.07583C28.0486 8.76996 27.7922 8.51686 27.4841 8.3423Z"/>
</svg>
