<svg   viewBox="0 0 32 32" fill="none" xmlns="http://www.w3.org/2000/svg">
<path d="M25.1949 6.80759C23.9879 5.59988 22.5547 4.64179 20.9774 3.98804C19.4 3.33428 17.7093 2.99767 16.0018 2.99744C14.2943 2.9972 12.6035 3.33334 11.0259 3.98666C9.44839 4.63998 8.01498 5.59767 6.80761 6.80505C5.60023 8.01242 4.64254 9.44582 3.98922 11.0234C3.3359 12.6009 2.99976 14.2917 3 15.9992C3.00024 17.7067 3.33684 19.3974 3.9906 20.9748C4.64435 22.5522 5.60245 23.9853 6.81015 25.1924C8.0172 26.4001 9.45033 27.3582 11.0277 28.0119C12.6051 28.6657 14.2958 29.0023 16.0033 29.0025C17.7108 29.0027 19.4016 28.6666 20.9791 28.0133C22.5567 27.36 23.9901 26.4023 25.1975 25.1949C26.4048 23.9875 27.3625 22.5541 28.0159 20.9766C28.6692 19.399 29.0053 17.7082 29.0051 16.0007C29.0048 14.2932 28.6682 12.6025 28.0145 11.0251C27.3607 9.44777 26.4026 8.01463 25.1949 6.80759V6.80759ZM12.0025 26.2498V19H20.0025V26.2498C17.4297 27.25 14.5754 27.25 12.0025 26.2498ZM23.7806 23.778C23.2393 24.3191 22.6434 24.8027 22.0025 25.2211V19C22.0019 18.4697 21.791 17.9614 21.4161 17.5864C21.0411 17.2115 20.5328 17.0006 20.0025 17V8.99997C20.0025 8.82951 19.959 8.66188 19.876 8.51299C19.7929 8.36411 19.6733 8.23892 19.5282 8.1493C19.3832 8.05969 19.2177 8.00863 19.0474 8.00097C18.8772 7.99332 18.7077 8.02932 18.5553 8.10556L12.5553 11.1056C12.3892 11.1886 12.2495 11.3163 12.1519 11.4743C12.0542 11.6322 12.0025 11.8143 12.0025 12V17C11.4723 17.0006 10.9639 17.2115 10.589 17.5864C10.2141 17.9614 10.0031 18.4697 10.0025 19V25.2211C9.36167 24.8027 8.76581 24.3191 8.22446 23.778C6.68606 22.2397 5.63838 20.2797 5.21392 18.1459C4.78946 16.0121 5.00728 13.8003 5.83984 11.7903C6.67239 9.78032 8.08229 8.06234 9.89124 6.85363C11.7002 5.64492 13.8269 4.99978 16.0025 4.99978C18.1781 4.99978 20.3049 5.64492 22.1138 6.85363C23.9228 8.06234 25.3327 9.78032 26.1652 11.7903C26.9978 13.8003 27.2156 16.0121 26.7912 18.1459C26.3667 20.2797 25.319 22.2397 23.7806 23.778V23.778Z" fill="black"/>
</svg>
