<svg viewBox="0 0 32 32" xmlns="http://www.w3.org/2000/svg">
<path d="M21.8293 10.1707C21.4963 8.38008 20.6806 6.71448 19.4702 5.35363C18.2597 3.99277 16.7006 2.98837 14.9611 2.44883C13.2216 1.90929 11.3677 1.85511 9.59965 2.29213C7.83158 2.72916 6.21646 3.64079 4.92863 4.92863C3.64079 6.21646 2.72916 7.83158 2.29213 9.59965C1.85511 11.3677 1.90929 13.2216 2.44883 14.9611C2.98837 16.7006 3.99277 18.2597 5.35363 19.4702C6.71448 20.6806 8.38008 21.4963 10.1707 21.8293C10.5037 23.6199 11.3194 25.2855 12.5298 26.6464C13.7403 28.0072 15.2994 29.0116 17.0389 29.5512C18.7784 30.0907 20.6323 30.1449 22.4004 29.7079C24.1684 29.2708 25.7835 28.3592 27.0714 27.0714C28.3592 25.7835 29.2708 24.1684 29.7079 22.4004C30.1449 20.6323 30.0907 18.7784 29.5512 17.0389C29.0116 15.2994 28.0072 13.7403 26.6464 12.5298C25.2855 11.3194 23.6199 10.5037 21.8293 10.1707V10.1707ZM4 12C4.00012 10.0522 4.71078 8.17142 5.99871 6.71025C7.28665 5.24909 9.06338 4.30795 10.9957 4.06334C12.9281 3.81873 14.8833 4.28744 16.4947 5.38158C18.1061 6.47571 19.263 8.12012 19.7485 10.0064C17.1859 10.0737 14.7469 11.1217 12.9343 12.9343C11.1216 14.7469 10.0736 17.1859 10.0064 19.7485C8.28875 19.304 6.76717 18.302 5.68019 16.8998C4.5932 15.4975 4.00226 13.7742 4 12V12ZM20 28C18.2258 27.9977 16.5025 27.4068 15.1002 26.3198C13.6979 25.2328 12.696 23.7112 12.2515 21.9936C14.8141 21.9263 17.2531 20.8783 19.0657 19.0657C20.8784 17.2531 21.9264 14.8141 21.9936 12.2515C23.8799 12.737 25.5243 13.8939 26.6184 15.5053C27.7126 17.1167 28.1813 19.072 27.9367 21.0043C27.692 22.9366 26.7509 24.7134 25.2897 26.0013C23.8286 27.2892 21.9478 27.9999 20 28Z"/>
</svg>
