<svg   viewBox="0 0 32 32" fill="none" xmlns="http://www.w3.org/2000/svg">
<path d="M27 5H5C4.46975 5.00061 3.9614 5.21151 3.58646 5.58646C3.21151 5.9614 3.00061 6.46975 3 7V25C3.00061 25.5302 3.21151 26.0386 3.58646 26.4135C3.9614 26.7885 4.46975 26.9994 5 27H27C27.5302 26.9994 28.0386 26.7885 28.4135 26.4135C28.7885 26.0386 28.9994 25.5302 29 25V7C28.9994 6.46975 28.7885 5.9614 28.4135 5.58646C28.0386 5.21151 27.5302 5.00061 27 5ZM5 7H27L27.0003 12L27 12H5V7ZM27 25H14V14H27L27.0005 14L27.0012 25H27Z" fill="black"/>
</svg>
