<svg viewBox="0 0 32 32" xmlns="http://www.w3.org/2000/svg">
<path d="M26.8284 10.8284C26.2006 11.4542 25.383 11.8543 24.5036 11.9661C23.6242 12.0778 22.7326 11.895 21.9681 11.4461L11.446 21.9682C11.826 22.6127 12.0177 23.3508 11.9992 24.0988C11.9807 24.8467 11.7529 25.5745 11.3415 26.1994C10.9302 26.8244 10.3518 27.3214 9.6721 27.6341C8.99241 27.9468 8.23864 28.0626 7.49642 27.9684C6.7542 27.8742 6.05329 27.5737 5.47329 27.1011C4.89329 26.6284 4.45747 26.0026 4.21531 25.2947C3.97316 24.5868 3.93439 23.8252 4.10341 23.0964C4.27242 22.3675 4.64245 21.7007 5.17146 21.1716L5.17152 21.1715C5.79921 20.5454 6.6168 20.1452 7.49628 20.0334C8.37575 19.9217 9.26746 20.1048 10.0318 20.554L20.5539 10.0318C20.1739 9.38733 19.9822 8.64919 20.0007 7.90124C20.0192 7.1533 20.247 6.42552 20.6584 5.80058C21.0697 5.17564 21.6481 4.67859 22.3278 4.3659C23.0075 4.0532 23.7613 3.93738 24.5035 4.03161C25.2457 4.12584 25.9466 4.42633 26.5266 4.89895C27.1066 5.37157 27.5424 5.99737 27.7846 6.70528C28.0267 7.41318 28.0655 8.17481 27.8965 8.90364C27.7275 9.63247 27.3574 10.2993 26.8284 10.8284V10.8284Z"/>
</svg>
