<svg   viewBox="0 0 32 32" fill="none" xmlns="http://www.w3.org/2000/svg">
<path d="M29.8285 9.82834C29.4573 10.2 29.0163 10.4946 28.531 10.6954C28.0456 10.8961 27.5253 10.9989 27 10.998C26.6782 10.998 26.3575 10.9595 26.0449 10.8832L22.7162 17.0648C22.754 17.0998 22.7918 17.1348 22.8284 17.1715C23.3574 17.7005 23.7274 18.3673 23.8964 19.0961C24.0654 19.8249 24.0266 20.5865 23.7845 21.2943C23.5423 22.0022 23.1065 22.628 22.5266 23.1006C21.9466 23.5732 21.2458 23.8736 20.5036 23.9679C19.7614 24.0621 19.0077 23.9463 18.328 23.6337C17.6484 23.321 17.07 22.824 16.6587 22.1991C16.2473 21.5742 16.0194 20.8465 16.0009 20.0986C15.9824 19.3507 16.174 18.6126 16.554 17.9682L14.0318 15.4459C13.1308 15.9742 12.0595 16.131 11.0449 15.8832L7.71624 22.0648C7.754 22.0998 7.79175 22.1348 7.82845 22.1715C8.38788 22.7309 8.76886 23.4436 8.92322 24.2195C9.07758 24.9955 8.99838 25.7997 8.69565 26.5307C8.39291 27.2616 7.88022 27.8863 7.22243 28.3259C6.56464 28.7654 5.79127 29 5.00014 29C4.209 29.0001 3.43563 28.7655 2.77782 28.326C2.12 27.8864 1.60729 27.2617 1.30452 26.5308C1.00175 25.7999 0.922519 24.9956 1.07684 24.2197C1.23117 23.4438 1.61212 22.731 2.17153 22.1716L2.17159 22.1715C2.65836 21.6852 3.2623 21.3327 3.92507 21.1479C4.58785 20.9631 5.28707 20.9524 5.95521 21.1167L9.28379 14.9351C9.24604 14.9001 9.20828 14.8651 9.17158 14.8285C8.42256 14.0777 8.00191 13.0605 8.0019 12C8.00189 10.9395 8.42252 9.92235 9.17152 9.17159L9.17158 9.17147C9.86007 8.48307 10.776 8.0694 11.7476 8.00798C12.7193 7.94655 13.68 8.2416 14.4497 8.83781C15.2194 9.43402 15.7452 10.2905 15.9286 11.2466C16.1121 12.2028 15.9405 13.193 15.4461 14.0318L17.9682 16.5539C18.8691 16.0252 19.9406 15.8684 20.9552 16.1167L24.2838 9.9351C24.246 9.90012 24.2083 9.86515 24.1716 9.82847C23.4226 9.07773 23.0019 8.06054 23.0019 7.00005C23.0019 5.93956 23.4225 4.92237 24.1715 4.17161L24.1716 4.17148C24.9219 3.42197 25.9391 3.00108 26.9996 3.00134C28.0601 3.00161 29.0771 3.42301 29.827 4.17291C30.5769 4.9228 30.9983 5.9398 30.9986 7.00032C30.9989 8.06084 30.578 9.07806 29.8285 9.82834V9.82834Z" fill="black"/>
</svg>
