<svg   viewBox="0 0 32 32" fill="none" xmlns="http://www.w3.org/2000/svg">
<path d="M30.9999 19C30.9999 19.2653 30.8945 19.5196 30.707 19.7072C30.5194 19.8947 30.2651 20 29.9999 20H27.9999V22C27.9999 22.2653 27.8945 22.5196 27.707 22.7072C27.5194 22.8947 27.2651 23 26.9999 23C26.7347 23 26.4803 22.8947 26.2928 22.7072C26.1052 22.5196 25.9999 22.2653 25.9999 22V20H23.9999C23.7347 20 23.4803 19.8947 23.2928 19.7072C23.1052 19.5196 22.9999 19.2653 22.9999 19C22.9999 18.7348 23.1052 18.4805 23.2928 18.2929C23.4803 18.1054 23.7347 18 23.9999 18H25.9999V16C25.9999 15.7348 26.1052 15.4805 26.2928 15.2929C26.4803 15.1054 26.7347 15 26.9999 15C27.2651 15 27.5194 15.1054 27.707 15.2929C27.8945 15.4805 27.9999 15.7348 27.9999 16V18H29.9999C30.2651 18.0001 30.5194 18.1054 30.707 18.2929C30.8945 18.4805 30.9999 18.7348 30.9999 19ZM7.99988 8.50005H9.49988V10C9.49988 10.2653 9.60523 10.5196 9.79277 10.7072C9.98031 10.8947 10.2347 11 10.4999 11C10.7651 11 11.0194 10.8947 11.207 10.7072C11.3945 10.5196 11.4999 10.2653 11.4999 10V8.50005H12.9999C13.2651 8.50005 13.5194 8.39469 13.707 8.20715C13.8945 8.01962 13.9999 7.76526 13.9999 7.50005C13.9999 7.23483 13.8945 6.98048 13.707 6.79294C13.5194 6.6054 13.2651 6.50005 12.9999 6.50005H11.4999V5.00005C11.4999 4.73483 11.3945 4.48048 11.207 4.29294C11.0194 4.1054 10.7651 4.00005 10.4999 4.00005C10.2347 4.00005 9.98031 4.1054 9.79277 4.29294C9.60523 4.48048 9.49988 4.73483 9.49988 5.00005V6.50005H7.99988C7.73466 6.50005 7.48031 6.6054 7.29277 6.79294C7.10523 6.98048 6.99988 7.23483 6.99988 7.50005C6.99988 7.76526 7.10523 8.01962 7.29277 8.20715C7.48031 8.39469 7.73466 8.50005 7.99988 8.50005ZM22.9999 24H21.9999V23C21.9999 22.7348 21.8945 22.4805 21.707 22.2929C21.5194 22.1054 21.2651 22 20.9999 22C20.7347 22 20.4803 22.1054 20.2928 22.2929C20.1052 22.4805 19.9999 22.7348 19.9999 23V24H18.9999C18.7347 24 18.4803 24.1054 18.2928 24.2929C18.1052 24.4805 17.9999 24.7348 17.9999 25C17.9999 25.2653 18.1052 25.5196 18.2928 25.7072C18.4803 25.8947 18.7347 26 18.9999 26H19.9999V27C19.9999 27.2653 20.1052 27.5196 20.2928 27.7072C20.4803 27.8947 20.7347 28 20.9999 28C21.2651 28 21.5194 27.8947 21.707 27.7072C21.8945 27.5196 21.9999 27.2653 21.9999 27V26H22.9999C23.2651 26 23.5194 25.8947 23.707 25.7072C23.8945 25.5196 23.9999 25.2653 23.9999 25C23.9999 24.7348 23.8945 24.4805 23.707 24.2929C23.5194 24.1054 23.2651 24 22.9999 24ZM22.7066 14.7076L9.41418 28C9.03876 28.3745 8.53018 28.5847 7.99996 28.5848C7.46974 28.5848 6.96115 28.3746 6.58569 28.0002L3.99988 25.4142C3.81414 25.2285 3.66681 25.008 3.56629 24.7654C3.46578 24.5227 3.41405 24.2626 3.41406 24C3.41407 23.7373 3.46583 23.4772 3.56636 23.2346C3.6669 22.9919 3.81425 22.7714 4 22.5857L22.5856 4.00005C22.961 3.6256 23.4696 3.41531 23.9998 3.41528C24.53 3.41526 25.0386 3.62551 25.4141 3.99992L27.9999 6.58586C28.1856 6.77158 28.3329 6.99207 28.4335 7.23473C28.534 7.47739 28.5857 7.73748 28.5857 8.00013C28.5857 8.26279 28.5339 8.52287 28.4334 8.76553C28.3329 9.00818 28.1855 9.22865 27.9998 9.41435L22.7074 14.7067L22.707 14.7071L22.7066 14.7076ZM19.4141 10L21.9999 12.5858L26.5856 8.00005L26.5857 7.99992L26.5865 7.99901L23.9999 5.41423L19.4141 10Z" fill="black"/>
</svg>
