<svg   viewBox="0 0 32 32" fill="none" xmlns="http://www.w3.org/2000/svg">
<path d="M25.1949 6.80759C23.9879 5.59988 22.5547 4.64179 20.9774 3.98804C19.4 3.33428 17.7093 2.99767 16.0018 2.99744C14.2943 2.9972 12.6035 3.33334 11.0259 3.98666C9.44839 4.63998 8.01498 5.59767 6.80761 6.80505C5.60023 8.01242 4.64254 9.44582 3.98922 11.0234C3.3359 12.6009 2.99976 14.2917 3 15.9992C3.00024 17.7067 3.33684 19.3974 3.9906 20.9748C4.64435 22.5522 5.60245 23.9853 6.81015 25.1924C8.0172 26.4001 9.45033 27.3582 11.0277 28.0119C12.6051 28.6657 14.2958 29.0023 16.0033 29.0025C17.7108 29.0027 19.4016 28.6666 20.9791 28.0133C22.5567 27.36 23.9901 26.4023 25.1975 25.1949C26.4048 23.9875 27.3625 22.5541 28.0159 20.9766C28.6692 19.399 29.0053 17.7082 29.0051 16.0007C29.0048 14.2932 28.6682 12.6025 28.0145 11.0251C27.3607 9.44777 26.4026 8.01463 25.1949 6.80759V6.80759ZM11.0025 25.7962V22H21.0025V25.7962C19.4531 26.5826 17.7401 26.9925 16.0025 26.9925C14.265 26.9925 12.5519 26.5826 11.0025 25.7962V25.7962ZM13.0025 17H18.4759C18.4778 17 18.4796 17.0002 18.4815 17.0002C18.483 17.0002 18.4845 17 18.4859 17H19.0025V20H13.0025V17ZM23.7806 23.7782C23.5303 24.0285 23.2701 24.2627 23.0025 24.4838V22C23.0019 21.4697 22.791 20.9614 22.4161 20.5864C22.0411 20.2115 21.5328 20.0006 21.0025 20V17C21.0017 16.5191 20.8277 16.0545 20.5124 15.6914C20.1971 15.3282 19.7616 15.0907 19.2856 15.0224L17.9527 9.16245C17.8522 8.72038 17.6045 8.32558 17.2501 8.04278C16.8958 7.75997 16.4559 7.60594 16.0026 7.60593C15.5492 7.60593 15.1093 7.75994 14.755 8.04274C14.4006 8.32553 14.1529 8.72032 14.0523 9.16239L12.7195 15.0224C12.2434 15.0907 11.8079 15.3282 11.4927 15.6914C11.1774 16.0545 11.0034 16.5191 11.0025 17V20C10.4723 20.0006 9.96393 20.2115 9.58899 20.5864C9.21405 20.9614 9.00314 21.4697 9.00254 22V24.4838C8.73502 24.2627 8.47474 24.0285 8.22446 23.7782C6.68606 22.2398 5.63838 20.2798 5.21392 18.146C4.78946 16.0122 5.00728 13.8004 5.83984 11.7904C6.67239 9.78044 8.08229 8.06246 9.89124 6.85375C11.7002 5.64505 13.8269 4.9999 16.0025 4.9999C18.1781 4.9999 20.3049 5.64505 22.1138 6.85375C23.9228 8.06246 25.3327 9.78044 26.1652 11.7904C26.9978 13.8004 27.2156 16.0122 26.7912 18.146C26.3667 20.2798 25.319 22.2398 23.7806 23.7782V23.7782Z" fill="black"/>
</svg>
