<svg   viewBox="0 0 32 32" fill="none" xmlns="http://www.w3.org/2000/svg">
<path d="M28.4141 10.0293L21.9707 3.58594C21.5948 3.21218 21.0867 3.00165 20.5566 3H11.4434C10.9133 3.00165 10.4052 3.21218 10.0293 3.58594L3.58594 10.0293C3.21218 10.4052 3.00165 10.9133 3 11.4434V20.5566C3.00165 21.0867 3.21218 21.5948 3.58594 21.9707L10.0293 28.4141C10.4052 28.7878 10.9133 28.9984 11.4434 29H20.5566C21.0867 28.9984 21.5948 28.7878 21.9707 28.4141L28.4141 21.9707C28.7878 21.5948 28.9984 21.0867 29 20.5566V11.4434C28.9984 10.9133 28.7878 10.4052 28.4141 10.0293V10.0293Z" fill="black"/>
</svg>
