<svg   viewBox="0 0 32 32" fill="none" xmlns="http://www.w3.org/2000/svg">
<path d="M31.9983 25.5C31.9983 26.4282 31.6295 27.3185 30.9731 27.9748C30.3168 28.6312 29.4265 29 28.4983 29C27.57 29 26.6798 28.6312 26.0234 27.9748C25.367 27.3185 24.9983 26.4282 24.9983 25.5C24.9983 22.6197 27.677 19.907 27.7911 19.7929C27.884 19.7001 27.9942 19.6264 28.1155 19.5761C28.2369 19.5258 28.3669 19.5 28.4983 19.5C28.6296 19.5 28.7596 19.5258 28.881 19.5761C29.0023 19.6264 29.1126 19.7001 29.2054 19.7929C29.3196 19.907 31.9983 22.6197 31.9983 25.5ZM16.5589 15.5614C16.7687 15.3516 16.9116 15.0843 16.9694 14.7933C17.0273 14.5024 16.9976 14.2008 16.884 13.9267C16.7705 13.6526 16.5782 13.4183 16.3316 13.2535C16.0849 13.0887 15.7949 13.0007 15.4982 13.0007C15.2015 13.0007 14.9115 13.0887 14.6648 13.2535C14.4182 13.4184 14.2259 13.6526 14.1124 13.9267C13.9989 14.2008 13.9692 14.5024 14.027 14.7934C14.0849 15.0844 14.2278 15.3517 14.4376 15.5614C14.7191 15.8423 15.1006 16 15.4983 16C15.896 16 16.2774 15.8422 16.5589 15.5614V15.5614ZM28.8689 15.4355C28.8689 15.1703 28.7635 14.916 28.576 14.7284L15.1405 1.29288C14.9529 1.10535 14.6985 1 14.4333 1C14.1681 1 13.9137 1.10535 13.7262 1.29288L8.71536 6.30362L13.834 11.4222C14.5735 11.0224 15.4323 10.9022 16.2532 11.0835C17.0741 11.2647 17.8023 11.7355 18.3047 12.4095C18.8071 13.0836 19.0501 13.916 18.9892 14.7545C18.9284 15.5929 18.5677 16.3815 17.9732 16.976C17.3788 17.5704 16.5902 17.931 15.7517 17.9918C14.9132 18.0527 14.0808 17.8096 13.4068 17.3072C12.7328 16.8048 12.2621 16.0766 12.0808 15.2556C11.8996 14.4347 12.0199 13.576 12.4197 12.8365L7.30112 7.71786L1.70529 13.3137C1.14358 13.8768 0.828125 14.6396 0.828125 15.435C0.828125 16.2303 1.14358 16.9932 1.70529 17.5563L12.3125 28.1634C12.591 28.442 12.9218 28.663 13.2857 28.8138C13.6497 28.9645 14.0398 29.0421 14.4338 29.0421C14.8278 29.0421 15.2179 28.9645 15.5819 28.8138C15.9459 28.663 16.2766 28.442 16.5551 28.1634L28.576 16.1426C28.7635 15.9551 28.8689 15.7007 28.8689 15.4355V15.4355ZM5.43759 3.02584C5.34474 2.93298 5.2345 2.85931 5.11317 2.80905C4.99184 2.75879 4.86181 2.73292 4.73048 2.73291C4.59916 2.73291 4.46912 2.75877 4.34779 2.80902C4.22645 2.85927 4.11621 2.93293 4.02334 3.02579C3.93048 3.11864 3.85681 3.22888 3.80655 3.35021C3.75629 3.47153 3.73042 3.60157 3.73042 3.7329C3.7304 3.99812 3.83575 4.25248 4.02329 4.44003L7.30112 7.71786L8.71537 6.30361L5.43759 3.02584Z" fill="black"/>
</svg>
