<svg viewBox="0 0 32 32" xmlns="http://www.w3.org/2000/svg">
<path d="M28.1213 2.87866C25.4582 2.87866 22.4673 4.34656 19.2314 7.24145C16.9756 9.2597 15.0384 11.5718 13.6965 13.3289C12.575 12.9854 11.3887 12.9097 10.2327 13.1078C9.07674 13.306 7.98334 13.7725 7.04036 14.4699C6.09738 15.1673 5.3311 16.0761 4.80307 17.1234C4.27504 18.1707 3.99999 19.3272 3.99999 20.5C3.99999 24.4014 1.97009 26.1401 1.86987 26.2235C1.70943 26.3537 1.59326 26.5304 1.53733 26.7293C1.4814 26.9282 1.48846 27.1396 1.55753 27.3343C1.6266 27.529 1.7543 27.6976 1.92306 27.8168C2.09183 27.936 2.29337 28 2.49999 28H11.5C12.6728 28 13.8293 27.7249 14.8766 27.1969C15.9239 26.6689 16.8327 25.9026 17.5301 24.9596C18.2275 24.0166 18.694 22.9232 18.8922 21.7672C19.0903 20.6112 19.0146 19.4249 18.6711 18.3035C20.4282 16.9615 22.7404 15.0245 24.7587 12.7684C27.6536 9.53272 29.1213 6.54175 29.1213 3.87866C29.1213 3.61345 29.016 3.3591 28.8284 3.17157C28.6409 2.98404 28.3865 2.87868 28.1213 2.87866ZM15.5552 14.1959C15.9131 13.738 16.3415 13.2067 16.8271 12.6343C17.8265 13.312 18.688 14.1735 19.3657 15.1729C18.7933 15.6584 18.262 16.0869 17.8041 16.4448C17.2225 15.5441 16.4559 14.7775 15.5552 14.1959V14.1959ZM20.8738 13.8375C20.1278 12.7886 19.2114 11.8722 18.1625 11.1262C20.6138 8.47815 23.9105 5.57947 27.0123 4.98767C26.4205 8.08954 23.5218 11.3862 20.8738 13.8375Z"/>
</svg>
