<svg   viewBox="0 0 32 32" fill="none" xmlns="http://www.w3.org/2000/svg">
<path d="M28.8284 3.17145C28.0776 2.42253 27.0605 2.00195 26 2.00195C24.9396 2.00195 23.9224 2.42253 23.1717 3.17145C23.1588 3.18414 23.1465 3.19732 23.1344 3.21063L16.2718 10.8574L15.1214 9.70697C14.5587 9.14437 13.7957 8.82831 13 8.82831C12.2044 8.82831 11.4413 9.14437 10.8787 9.70697L1.29288 19.2928C1.10535 19.4803 1 19.7347 1 19.9999C1 20.2652 1.10535 20.5195 1.29288 20.7071L11.2929 30.7071C11.4804 30.8946 11.7348 30.9999 12 30.9999C12.2653 30.9999 12.5196 30.8946 12.7072 30.7071L22.293 21.1213C22.8556 20.5587 23.1717 19.7956 23.1717 18.9999C23.1717 18.2043 22.8556 17.4412 22.293 16.8786L21.1426 15.7283L28.7893 8.86554C28.8026 8.85345 28.8158 8.84113 28.8285 8.82831C29.5775 8.07754 29.9981 7.06034 29.9981 5.99985C29.9981 4.93937 29.5774 3.92219 28.8284 3.17145V3.17145ZM12 28.5858L10.2348 26.8206L13.4267 23.6288C13.614 23.4412 13.7192 23.1869 13.7191 22.9218C13.719 22.6567 13.6136 22.4025 13.4261 22.2151C13.2387 22.0276 12.9845 21.9222 12.7194 21.9221C12.4543 21.922 12.2 22.0272 12.0124 22.2145L8.82053 25.4062L6.73483 23.3206L9.92667 20.1288C10.114 19.9412 10.2192 19.6869 10.2191 19.4218C10.219 19.1567 10.1136 18.9025 9.92615 18.7151C9.73869 18.5276 9.48447 18.4222 9.21936 18.4221C8.95425 18.422 8.69996 18.5272 8.51236 18.7145L5.32053 21.9062L3.41422 19.9999L9.00003 14.4142L17.5857 22.9999L12 28.5858Z" fill="black"/>
</svg>
