<svg viewBox="0 0 32 32" xmlns="http://www.w3.org/2000/svg">
<path d="M27 3H9C7.67438 3.00151 6.40348 3.52877 5.46613 4.46613C4.52877 5.40348 4.00151 6.67438 4 8V17C4.00091 17.7954 4.31727 18.5579 4.87968 19.1203C5.4421 19.6827 6.20463 19.9991 7 20H12.847L12.0101 25.8585C12.0034 25.9054 12 25.9527 12 26C12 27.0609 12.4214 28.0783 13.1716 28.8284C13.9217 29.5786 14.9391 30 16 30C17.0609 30 18.0783 29.5786 18.8284 28.8284C19.5786 28.0783 20 27.0609 20 26C20 25.9527 19.9966 25.9054 19.9899 25.8585L19.153 20H25C25.7954 19.9991 26.5579 19.6827 27.1203 19.1203C27.6827 18.5579 27.9991 17.7954 28 17V4C28 3.73478 27.8946 3.48043 27.7071 3.2929C27.5196 3.10536 27.2652 3 27 3V3ZM9 5H22V10C22 10.2652 22.1054 10.5196 22.2929 10.7071C22.4804 10.8946 22.7348 11 23 11C23.2652 11 23.5196 10.8946 23.7071 10.7071C23.8946 10.5196 24 10.2652 24 10V5H26V13H6V8C6.00091 7.20463 6.31727 6.4421 6.87968 5.87968C7.4421 5.31727 8.20463 5.00091 9 5V5Z"/>
</svg>
