<svg viewBox="0 0 32 32" xmlns="http://www.w3.org/2000/svg">
<path d="M31 13V19.2457C30.9986 19.68 30.8565 20.1021 30.595 20.4488C30.3335 20.7955 29.9667 21.0481 29.5496 21.1688L16.9999 24.7543L17 29C17 29.2652 16.8946 29.5196 16.7071 29.7071C16.5196 29.8946 16.2652 30 16 30C15.7348 30 15.4804 29.8946 15.2929 29.7071C15.1054 29.5196 15 29.2652 15 29V24.7543C15.0014 24.32 15.1435 23.8979 15.405 23.5512C15.6665 23.2045 16.0333 22.9519 16.4504 22.8312L29.0001 19.2457L29 13H27V16C26.9994 16.5302 26.7885 17.0386 26.4135 17.4135C26.0386 17.7885 25.5302 17.9994 25 18H6C5.46975 17.9994 4.9614 17.7885 4.58646 17.4135C4.21151 17.0386 4.00061 16.5302 4 16V13H2C1.73478 13 1.48043 12.8946 1.29289 12.7071C1.10536 12.5196 1 12.2652 1 12C1 11.7348 1.10536 11.4804 1.29289 11.2929C1.48043 11.1054 1.73478 11 2 11H4V8C4.00061 7.46975 4.21151 6.9614 4.58646 6.58646C4.9614 6.21151 5.46975 6.00061 6 6H25C25.5302 6.00061 26.0386 6.21151 26.4135 6.58646C26.7885 6.9614 26.9994 7.46975 27 8V11H29C29.5302 11.0006 30.0386 11.2115 30.4135 11.5865C30.7885 11.9614 30.9994 12.4698 31 13V13Z"/>
</svg>
