<svg   viewBox="0 0 32 32" fill="none" xmlns="http://www.w3.org/2000/svg">
<path d="M25.0965 6.73621C22.6759 4.33944 19.4062 2.99649 15.9997 3.00001C15.9554 3.00001 15.911 3.00021 15.8665 3.00062C12.8111 3.03247 9.86439 4.13945 7.54371 6.12728C5.22302 8.11512 3.67659 10.8568 3.17582 13.8711C2.67505 16.8855 3.25192 19.9799 4.80521 22.6113C6.3585 25.2427 8.78895 27.243 11.67 28.2611C12.2733 28.4738 12.9188 28.5387 13.5524 28.4503C14.186 28.362 14.7891 28.123 15.3112 27.7533C15.8333 27.3837 16.2591 26.8943 16.553 26.3261C16.8468 25.7579 17.0001 25.1275 17 24.4878V24C17.0006 23.4698 17.2115 22.9614 17.5865 22.5865C17.9614 22.2115 18.4698 22.0006 19 22H24.7762C25.6835 22.0044 26.565 21.6984 27.2745 21.1329C27.9839 20.5674 28.4788 19.7764 28.6769 18.891C28.9001 17.906 29.0084 16.8985 28.9995 15.8886C28.9872 14.1806 28.6359 12.4921 27.9659 10.921C27.2959 9.34986 26.3206 7.92743 25.0965 6.73621ZM11.1209 20.549C10.8639 20.6974 10.5688 20.7662 10.2728 20.7468C9.97672 20.7274 9.69308 20.6206 9.45772 20.44C9.22235 20.2594 9.04582 20.0131 8.95046 19.7321C8.8551 19.4512 8.84518 19.1483 8.92197 18.8618C8.99876 18.5752 9.15879 18.3178 9.38185 18.1222C9.6049 17.9266 9.88095 17.8015 10.1751 17.7628C10.4692 17.7241 10.7682 17.7735 11.0343 17.9047C11.3004 18.0359 11.5216 18.2431 11.6699 18.5C11.7684 18.6706 11.8323 18.8589 11.858 19.0542C11.8837 19.2495 11.8707 19.448 11.8198 19.6382C11.7688 19.8285 11.6808 20.0069 11.5609 20.1631C11.441 20.3194 11.2915 20.4505 11.1209 20.549V20.549ZM11.6699 13.5C11.5216 13.7569 11.3004 13.9641 11.0343 14.0953C10.7682 14.2265 10.4692 14.2759 10.1751 14.2371C9.88095 14.1984 9.6049 14.0733 9.38186 13.8777C9.15881 13.6821 8.99878 13.4248 8.92199 13.1382C8.84521 12.8516 8.85513 12.5488 8.95049 12.2678C9.04585 11.9869 9.22237 11.7406 9.45773 11.56C9.6931 11.3794 9.97673 11.2726 10.2728 11.2532C10.5688 11.2338 10.8639 11.3026 11.1209 11.4509C11.2915 11.5494 11.441 11.6806 11.5609 11.8368C11.6808 11.9931 11.7688 12.1715 11.8198 12.3618C11.8708 12.552 11.8838 12.7505 11.858 12.9458C11.8323 13.1411 11.7684 13.3294 11.6699 13.5V13.5ZM16 11C15.7034 11 15.4134 10.912 15.1667 10.7472C14.92 10.5824 14.7277 10.3481 14.6142 10.074C14.5007 9.79994 14.471 9.49834 14.5289 9.20737C14.5867 8.9164 14.7296 8.64913 14.9394 8.43935C15.1492 8.22957 15.4164 8.08671 15.7074 8.02883C15.9984 7.97095 16.3 8.00066 16.5741 8.11419C16.8481 8.22772 17.0824 8.41998 17.2472 8.66665C17.4121 8.91333 17.5 9.20333 17.5 9.50001C17.5 9.89783 17.342 10.2794 17.0607 10.5607C16.7794 10.842 16.3979 11 16 11ZM22.3792 14.049C22.1223 14.1974 21.8271 14.2662 21.5311 14.2468C21.2351 14.2274 20.9514 14.1206 20.716 13.94C20.4807 13.7594 20.3042 13.5131 20.2088 13.2321C20.1134 12.9512 20.1035 12.6483 20.1803 12.3617C20.2571 12.0752 20.4171 11.8178 20.6402 11.6222C20.8632 11.4266 21.1393 11.3015 21.4334 11.2628C21.7276 11.2241 22.0266 11.2735 22.2926 11.4047C22.5587 11.5359 22.7799 11.7431 22.9282 12C23.0267 12.1706 23.0907 12.3589 23.1164 12.5542C23.1421 12.7495 23.1291 12.948 23.0781 13.1382C23.0271 13.3285 22.9391 13.5069 22.8192 13.6631C22.6993 13.8194 22.5498 13.9505 22.3792 14.049V14.049Z" fill="black"/>
</svg>
