<svg viewBox="0 0 32 32" xmlns="http://www.w3.org/2000/svg">
<path d="M28.5858 11C28.5865 10.7373 28.5351 10.477 28.4346 10.2343C28.334 9.99153 28.1863 9.77114 28 9.58586L22.4142 3.99992C22.0387 3.62551 21.5301 3.41526 20.9999 3.41528C20.4697 3.41531 19.9611 3.6256 19.5857 4.00005L4.58569 19.0001C4.3918 19.1939 4.23995 19.4257 4.13965 19.6808C4.12674 19.7119 4.11541 19.7436 4.10571 19.7758C4.03607 19.9815 4.00036 20.1971 4 20.4142V26C4.00061 26.5303 4.21151 27.0387 4.58646 27.4136C4.9614 27.7885 5.46975 27.9994 6 28H11.5858C11.8052 27.9997 12.0231 27.9632 12.2307 27.8921C12.2604 27.8829 12.2899 27.8725 12.3189 27.8605C12.5742 27.7602 12.8061 27.6083 13 27.4142L23.4583 16.956L23.8926 18.6933L19.2928 23.293C19.2 23.3858 19.1263 23.4961 19.0761 23.6174C19.0258 23.7387 19 23.8688 19 24.0001C19 24.1314 19.0259 24.2615 19.0761 24.3828C19.1264 24.5041 19.2 24.6143 19.2929 24.7072C19.3858 24.8001 19.496 24.8737 19.6173 24.924C19.7387 24.9742 19.8687 25.0001 20 25.0001C20.1314 25.0001 20.2614 24.9742 20.3827 24.9239C20.5041 24.8737 20.6143 24.8 20.7072 24.7071L25.7072 19.7071C25.8292 19.585 25.9176 19.4334 25.9637 19.267C26.0098 19.1005 26.012 18.925 25.9701 18.7575L25.1074 15.3068L27.9999 12.4144C28.1862 12.2291 28.334 12.0087 28.4345 11.7659C28.5351 11.5231 28.5865 11.2628 28.5858 11V11ZM24 13.5857L18.4142 8.00005L21 5.41423L26.5857 11L24 13.5857Z"/>
</svg>
