<svg viewBox="0 0 32 32" xmlns="http://www.w3.org/2000/svg">
<path d="M27 26H14.4143L24.7065 15.7077L24.7072 15.7071L24.7077 15.7065L27.9999 12.4144C28.1856 12.2287 28.333 12.0082 28.4335 11.7655C28.534 11.5229 28.5858 11.2628 28.5858 11.0001C28.5858 10.7375 28.5341 10.4774 28.4336 10.2347C28.3331 9.99207 28.1857 9.77158 28 9.58586L22.4142 3.99992C22.0387 3.62551 21.5301 3.41526 20.9999 3.41528C20.4697 3.41531 19.9611 3.6256 19.5857 4.00005L4.58569 19.0001C4.39148 19.1943 4.23947 19.4265 4.13919 19.6822C4.12891 19.7071 4.12024 19.7325 4.11206 19.7581C4.0383 19.969 4.00042 20.1908 4 20.4142V26C4.00061 26.5303 4.21151 27.0387 4.58646 27.4136C4.9614 27.7885 5.46975 27.9994 6 28H27C27.2652 28 27.5196 27.8947 27.7071 27.7072C27.8946 27.5196 28 27.2653 28 27C28 26.7348 27.8946 26.4805 27.7071 26.2929C27.5196 26.1054 27.2652 26 27 26ZM21 5.41423L26.5857 11L24 13.5857L18.4142 8.00005L21 5.41423Z"/>
</svg>
