<svg viewBox="0 0 32 32" xmlns="http://www.w3.org/2000/svg">
<path d="M28 9.58581L22.4143 4C22.2285 3.81427 22.0081 3.66695 21.7654 3.56643C21.5228 3.46592 21.2627 3.41418 21 3.41418C20.7374 3.41418 20.4773 3.46592 20.2347 3.56643C19.992 3.66695 19.7715 3.81427 19.5858 4L16.2931 7.29272L16.2929 7.29291L16.2927 7.29309L4.58588 18.9999C4.39956 19.1852 4.25184 19.4056 4.15127 19.6484C4.0507 19.8911 3.99929 20.1514 4.00001 20.4142V26C4.00061 26.5302 4.21152 27.0386 4.58646 27.4135C4.96141 27.7885 5.46976 27.9994 6.00001 28H11.5858C11.8486 28.0007 12.1089 27.9493 12.3516 27.8488C12.5943 27.7482 12.8147 27.6005 13 27.4142L28.0001 12.4142C28.3746 12.0388 28.5849 11.5302 28.5849 11C28.5848 10.4698 28.3745 9.96117 28 9.58581V9.58581ZM24 13.5858L18.4142 8L21 5.41418L26.5858 11L24 13.5858Z"/>
</svg>
