<svg viewBox="0 0 32 32" xmlns="http://www.w3.org/2000/svg">
<path d="M25.1949 6.80759C23.9879 5.59988 22.5547 4.64179 20.9774 3.98804C19.4 3.33428 17.7093 2.99767 16.0018 2.99744C14.2943 2.9972 12.6035 3.33334 11.0259 3.98666C9.44839 4.63998 8.01498 5.59767 6.80761 6.80505C5.60023 8.01242 4.64254 9.44582 3.98922 11.0234C3.3359 12.6009 2.99976 14.2917 3 15.9992C3.00024 17.7067 3.33684 19.3974 3.9906 20.9748C4.64435 22.5522 5.60245 23.9853 6.81015 25.1924C8.0172 26.4001 9.45033 27.3582 11.0277 28.0119C12.6051 28.6657 14.2958 29.0023 16.0033 29.0025C17.7108 29.0027 19.4016 28.6666 20.9791 28.0133C22.5567 27.36 23.9901 26.4023 25.1975 25.1949C26.4048 23.9875 27.3625 22.5541 28.0159 20.9766C28.6692 19.399 29.0053 17.7082 29.0051 16.0007C29.0048 14.2932 28.6682 12.6025 28.0145 11.0251C27.3607 9.44777 26.4026 8.01463 25.1949 6.80759V6.80759ZM16.0025 21.3585C15.5106 20.7979 14.8714 20.3864 14.1575 20.1707C13.4436 19.9549 12.6835 19.9435 11.9634 20.1377L13.8731 16H18.1319L20.0416 20.1377C19.3216 19.9435 18.5615 19.9549 17.8476 20.1707C17.1337 20.3864 16.4945 20.7979 16.0025 21.3585V21.3585ZM21.0025 25.7962C19.7548 26.4316 18.3971 26.8226 17.0025 26.9485V24C17.0025 23.4695 17.2133 22.9608 17.5883 22.5858C17.9634 22.2107 18.4721 22 19.0025 22C19.533 22 20.0417 22.2107 20.4167 22.5858C20.7918 22.9608 21.0025 23.4695 21.0025 24V25.7962ZM23.7806 23.7782C23.5303 24.0285 23.2701 24.2627 23.0025 24.4838V22C23.0026 21.8553 22.9711 21.7123 22.9105 21.5809L16.9105 8.58091C16.9096 8.57906 16.9084 8.57746 16.9076 8.57562C16.8893 8.53695 16.8686 8.49948 16.8456 8.46346C16.8408 8.45587 16.8357 8.44863 16.8306 8.4412C16.8095 8.40975 16.7866 8.37954 16.7621 8.35071C16.7583 8.34626 16.7548 8.34154 16.7509 8.33716C16.7223 8.30491 16.6916 8.27456 16.6591 8.24629C16.6537 8.24156 16.6479 8.2373 16.6424 8.2327C16.6148 8.20971 16.5859 8.18824 16.5559 8.16838C16.5477 8.16288 16.5396 8.15727 16.5312 8.15201C16.4959 8.12976 16.4593 8.10973 16.4216 8.09201L16.4195 8.09118C16.4166 8.08984 16.4135 8.08891 16.4106 8.0876C16.3746 8.07167 16.3378 8.05786 16.3002 8.04625C16.2896 8.04294 16.2789 8.04 16.2682 8.03705C16.2322 8.02698 16.1957 8.01896 16.1588 8.01302C16.1534 8.01217 16.1482 8.01088 16.1429 8.01011C16.0997 8.00411 16.0562 8.00097 16.0126 8.00069C16.0092 8.00067 16.0059 7.99997 16.0025 7.99997C15.9971 7.99997 15.9919 8.00104 15.9866 8.00113C15.9487 8.00171 15.911 8.00444 15.8735 8.00931C15.8664 8.01023 15.8593 8.01066 15.8523 8.01173C15.8113 8.01809 15.7707 8.02698 15.7309 8.03836C15.7205 8.04129 15.7104 8.04477 15.7002 8.04803C15.6677 8.05833 15.6358 8.07027 15.6046 8.0838C15.5964 8.08739 15.588 8.09051 15.5798 8.09431C15.5423 8.11184 15.5059 8.13168 15.4708 8.15372C15.4639 8.15806 15.4574 8.16283 15.4506 8.16733C15.4203 8.18739 15.3911 8.2091 15.3631 8.23236C15.357 8.23742 15.3508 8.2422 15.3449 8.2474C15.3123 8.27564 15.2817 8.30596 15.2531 8.33818C15.2499 8.34179 15.2471 8.34573 15.244 8.34939C15.2193 8.37837 15.1963 8.40874 15.1751 8.44036C15.1692 8.4491 15.1633 8.45777 15.1577 8.46672C15.1342 8.50337 15.1131 8.54152 15.0946 8.58091L12.3253 14.5809L12.325 14.5817L9.09458 21.5809C9.03393 21.7123 9.00252 21.8553 9.00254 22V24.4838C8.73502 24.2627 8.47474 24.0285 8.22446 23.7782C6.68606 22.2398 5.63838 20.2798 5.21392 18.146C4.78946 16.0122 5.00728 13.8004 5.83984 11.7904C6.67239 9.78044 8.08229 8.06246 9.89124 6.85375C11.7002 5.64505 13.8269 4.9999 16.0025 4.9999C18.1781 4.9999 20.3049 5.64505 22.1138 6.85375C23.9228 8.06246 25.3327 9.78044 26.1652 11.7904C26.9978 13.8004 27.2156 16.0122 26.7912 18.146C26.3667 20.2798 25.319 22.2398 23.7806 23.7782V23.7782Z"/>
</svg>
