<svg viewBox="0 0 32 32" xmlns="http://www.w3.org/2000/svg">
<path d="M29.0042 11.5862L20.4184 3.00029C20.043 2.62587 19.5344 2.41563 19.0042 2.41565C18.4739 2.41567 17.9653 2.62597 17.5899 3.00041L14.4502 6.14018L7.19357 8.86143C6.86524 8.98514 6.5751 9.19283 6.35214 9.46374C6.12918 9.73465 5.98119 10.0593 5.92294 10.4053L3.32712 25.98C3.3097 26.0845 3.32592 26.1918 3.37345 26.2865C3.42097 26.3811 3.49734 26.4583 3.59154 26.5068C3.68573 26.5552 3.79289 26.5725 3.89756 26.5562C4.00222 26.5398 4.09898 26.4906 4.17389 26.4157L11.0594 19.53C10.5642 18.6903 10.3923 17.6988 10.5759 16.7415C10.7595 15.7841 11.286 14.9265 12.0567 14.3296C12.8274 13.7327 13.7894 13.4373 14.7622 13.499C15.7351 13.5606 16.6521 13.975 17.3413 14.6645C18.0305 15.3539 18.4445 16.2711 18.5058 17.244C18.567 18.2169 18.2713 19.1787 17.6741 19.9492C17.0769 20.7197 16.2191 21.2458 15.2617 21.429C14.3042 21.6123 13.3128 21.44 12.4733 20.9444L5.58688 27.8311C5.51198 27.906 5.4628 28.0028 5.44644 28.1074C5.43009 28.2121 5.44739 28.3192 5.49587 28.4134C5.54434 28.5076 5.62148 28.584 5.71615 28.6315C5.81083 28.679 5.91815 28.6953 6.02264 28.6778L21.5993 26.0817C21.9453 26.0235 22.27 25.8755 22.5409 25.6526C22.8118 25.4296 23.0195 25.1395 23.1432 24.8112L25.8644 17.5545L29.0041 14.4147C29.1899 14.229 29.3372 14.0085 29.4378 13.7659C29.5383 13.5232 29.59 13.2632 29.5901 13.0005C29.5901 12.7378 29.5383 12.4778 29.4378 12.2351C29.3373 11.9924 29.19 11.7719 29.0042 11.5862L29.0042 11.5862ZM25.0042 15.5862L16.4185 7.00041L19.0042 4.4146L27.5899 13.0004L25.0042 15.5862Z"/>
<path d="M14.5 19.5005C15.6046 19.5005 16.5 18.6051 16.5 17.5005C16.5 16.3959 15.6046 15.5005 14.5 15.5005C13.3954 15.5005 12.5 16.3959 12.5 17.5005C12.5 18.6051 13.3954 19.5005 14.5 19.5005Z"/>
</svg>
