<svg   viewBox="0 0 32 32" fill="none" xmlns="http://www.w3.org/2000/svg">
<path d="M16 18.5005C17.1046 18.5005 18 17.6051 18 16.5005C18 15.3959 17.1046 14.5005 16 14.5005C14.8954 14.5005 14 15.3959 14 16.5005C14 17.6051 14.8954 18.5005 16 18.5005Z" fill="black"/>
<path d="M27.3244 15.4863L24.0045 8.76691V4.00049C24.0045 3.47006 23.7938 2.96135 23.4187 2.58627C23.0437 2.2112 22.535 2.00049 22.0045 2.00049H10.0045C9.4741 2.00049 8.9654 2.2112 8.59032 2.58627C8.21525 2.96135 8.00454 3.47006 8.00454 4.00049V8.76691L4.68465 15.4864C4.52141 15.815 4.45206 16.1823 4.48425 16.5479C4.51644 16.9134 4.64892 17.2629 4.86708 17.558L14.1019 30.1027C14.1643 30.1875 14.2519 30.2504 14.3523 30.2825C14.4526 30.3146 14.5605 30.3142 14.6605 30.2813C14.7606 30.2484 14.8477 30.1848 14.9095 30.0995C14.9713 30.0142 15.0045 29.9116 15.0045 29.8062V20.3739C14.0619 20.1305 13.2403 19.5517 12.6939 18.7459C12.1475 17.9401 11.9137 16.9627 12.0364 15.9969C12.1591 15.0311 12.6298 14.1432 13.3603 13.4996C14.0908 12.856 15.031 12.5009 16.0045 12.5009C16.9781 12.5009 17.9183 12.856 18.6488 13.4996C19.3793 14.1432 19.85 15.0311 19.9727 15.9969C20.0953 16.9627 19.8616 17.9401 19.3151 18.7459C18.7687 19.5517 17.9472 20.1305 17.0045 20.3739V29.8062C17.0045 29.9116 17.0378 30.0142 17.0996 30.0995C17.1613 30.1848 17.2485 30.2484 17.3485 30.2813C17.4486 30.3141 17.5565 30.3146 17.6568 30.2825C17.7571 30.2504 17.8448 30.1875 17.9072 30.1026L27.1419 17.5579C27.3601 17.2628 27.4926 16.9133 27.5248 16.5478C27.557 16.1823 27.4876 15.8149 27.3244 15.4863V15.4863ZM22.0045 8.00049H10.0045V4.00049H22.0045V8.00049Z" fill="black"/>
</svg>
