<svg   viewBox="0 0 32 32" fill="none" xmlns="http://www.w3.org/2000/svg">
<path d="M26 4H6C5.46975 4.00061 4.9614 4.21151 4.58646 4.58646C4.21151 4.9614 4.00061 5.46975 4 6V26C4.00061 26.5302 4.21151 27.0386 4.58646 27.4135C4.9614 27.7885 5.46975 27.9994 6 28H26C26.5302 27.9994 27.0386 27.7885 27.4135 27.4135C27.7885 27.0386 27.9994 26.5302 28 26V6C27.9994 5.46975 27.7885 4.9614 27.4135 4.58646C27.0386 4.21151 26.5302 4.00061 26 4ZM23.4142 23.4143C23.2266 23.6018 22.9723 23.7072 22.7071 23.7072C22.4419 23.7072 22.1875 23.6018 22 23.4143L8.58582 10C8.49295 9.90714 8.41928 9.7969 8.36902 9.67558C8.31876 9.55425 8.29289 9.42421 8.29288 9.29289C8.29287 9.02767 8.39822 8.7733 8.58575 8.58575C8.67861 8.49289 8.78885 8.41922 8.91018 8.36896C9.0315 8.3187 9.16154 8.29283 9.29286 8.29282C9.55809 8.29281 9.81245 8.39816 10 8.58569L23.4142 22C23.5071 22.0929 23.5807 22.2031 23.631 22.3244C23.6812 22.4458 23.7071 22.5758 23.7071 22.7072C23.7071 22.8385 23.6812 22.9685 23.631 23.0899C23.5807 23.2112 23.5071 23.3214 23.4142 23.4143Z" fill="black"/>
</svg>
