<svg viewBox="0 0 32 32" xmlns="http://www.w3.org/2000/svg">
<path d="M28.8263 6.1715C28.0756 5.42248 27.0584 5.00183 25.9979 5.00183C24.9374 5.00183 23.9202 5.42248 23.1694 6.1715L23.1694 6.17163C22.9179 6.42321 22.7012 6.70731 22.525 7.01635L18.9947 6.05359C19.0062 5.25795 18.7799 4.477 18.3449 3.81072C17.9099 3.14444 17.2859 2.62316 16.5528 2.31362C15.8198 2.00408 15.011 1.92037 14.2301 2.0732C13.4492 2.22603 12.7317 2.60846 12.1694 3.1715L12.1694 3.17163C11.5687 3.77382 11.1753 4.55151 11.046 5.39216C10.9167 6.2328 11.0582 7.09279 11.4501 7.84765L7.20789 11.6656C6.43821 11.157 5.51658 10.9296 4.59863 11.0217C3.68068 11.1139 2.82265 11.52 2.16944 12.1715L2.16938 12.1716C1.44464 12.8975 1.02645 13.8741 1.00121 14.8995C0.975976 15.9249 1.34563 16.9209 2.03378 17.6815C2.72194 18.4422 3.676 18.9094 4.69884 18.9867C5.72167 19.0639 6.73509 18.7453 7.5297 18.0967L16.2838 24.5164C16.0033 25.2178 15.9271 25.9842 16.064 26.727C16.2009 27.4699 16.5453 28.1588 17.0574 28.7141C17.5695 29.2694 18.2282 29.6684 18.9576 29.8649C19.6869 30.0615 20.457 30.0475 21.1787 29.8247C21.9005 29.6019 22.5444 29.1794 23.036 28.6059C23.5277 28.0325 23.8469 27.3315 23.9569 26.5842C24.0668 25.8369 23.963 25.0738 23.6573 24.383C23.3517 23.6923 22.8567 23.1021 22.2297 22.6809L25.6527 12.9825C25.7675 12.9924 25.8827 12.998 25.9979 12.998C26.789 12.9986 27.5625 12.7644 28.2205 12.3251C28.8785 11.8858 29.3914 11.2612 29.6942 10.5303C29.9971 9.79943 30.0762 8.99512 29.9217 8.2192C29.7672 7.44328 29.386 6.73065 28.8263 6.1715L28.8263 6.1715ZM20.3431 22.0173C19.3052 21.9263 18.2728 22.2442 17.466 22.9033L8.71198 16.4836C8.9243 15.9488 9.01932 15.3746 8.99062 14.7999C8.96192 14.2252 8.81017 13.6633 8.54563 13.1523L12.7878 9.33434C13.2442 9.63711 13.758 9.84287 14.2972 9.93887C14.8364 10.0349 15.3896 10.019 15.9224 9.8924C16.4553 9.76575 16.9564 9.53098 17.3948 9.20263C17.8331 8.87428 18.1993 8.45938 18.4707 7.98364L22.001 8.94641C21.9909 9.61112 22.147 10.2678 22.4553 10.8568C22.7635 11.4459 23.2141 11.9485 23.766 12.3191L20.3431 22.0173Z"/>
</svg>
