<svg   viewBox="0 0 32 32" fill="none" xmlns="http://www.w3.org/2000/svg">
<path d="M28 19V24C27.9994 24.5302 27.7885 25.0386 27.4135 25.4135C27.0386 25.7885 26.5302 25.9994 26 26H6C5.46975 25.9994 4.9614 25.7885 4.58646 25.4135C4.21151 25.0386 4.00061 24.5302 4 24V19C4.00061 18.4698 4.21151 17.9614 4.58646 17.5865C4.9614 17.2115 5.46975 17.0006 6 17H26C26.5302 17.0006 27.0386 17.2115 27.4135 17.5865C27.7885 17.9614 27.9994 18.4698 28 19V19ZM26 6H6C5.46975 6.00061 4.9614 6.21151 4.58646 6.58646C4.21151 6.9614 4.00061 7.46975 4 8V13C4.00061 13.5302 4.21151 14.0386 4.58646 14.4135C4.9614 14.7885 5.46975 14.9994 6 15H26C26.5302 14.9994 27.0386 14.7885 27.4135 14.4135C27.7885 14.0386 27.9994 13.5302 28 13V8C27.9994 7.46975 27.7885 6.9614 27.4135 6.58646C27.0386 6.21151 26.5302 6.00061 26 6V6Z" fill="black"/>
</svg>
