<svg   viewBox="0 0 32 32" fill="none" xmlns="http://www.w3.org/2000/svg">
<path d="M28.9999 9.58586L22.4141 2.99992C22.0386 2.62551 21.53 2.41526 20.9998 2.41528C20.4696 2.41531 19.961 2.6256 19.5856 3.00005L16.4999 6.0858L21.207 10.793C21.3946 10.9805 21.4999 11.2349 21.4999 11.5001C21.4999 11.7653 21.3945 12.0197 21.207 12.2072C21.0194 12.3947 20.7651 12.5001 20.4998 12.5001C20.2346 12.5001 19.9803 12.3947 19.7927 12.2071L15.0856 7.50005L11.9999 10.5858L16.707 15.293C16.8946 15.4805 16.9999 15.7349 16.9999 16.0001C16.9999 16.2653 16.8945 16.5197 16.707 16.7072C16.6141 16.8001 16.5039 16.8737 16.3825 16.924C16.2612 16.9742 16.1312 17.0001 15.9998 17.0001C15.7346 17.0001 15.4803 16.8947 15.2927 16.7071L10.5856 12L7.49988 15.0858L12.207 19.7929C12.3946 19.9805 12.4999 20.2349 12.4999 20.5001C12.4999 20.7653 12.3945 21.0197 12.207 21.2072C12.0194 21.3947 11.7651 21.5001 11.4998 21.5001C11.2346 21.5001 10.9803 21.3947 10.7927 21.2071L6.08563 16.5L3 19.5857C2.81425 19.7714 2.6669 19.9919 2.56636 20.2346C2.46583 20.4772 2.41407 20.7373 2.41406 21C2.41405 21.2626 2.46578 21.5227 2.56629 21.7654C2.66681 22.008 2.81414 22.2285 2.99988 22.4142L9.58569 29.0002C9.96115 29.3746 10.4697 29.5848 11 29.5848C11.5302 29.5847 12.0388 29.3745 12.4142 29L28.9999 12.4142C29.1856 12.2285 29.3329 12.0081 29.4334 11.7654C29.534 11.5228 29.5857 11.2627 29.5857 11C29.5857 10.7374 29.534 10.4773 29.4334 10.2347C29.3329 9.99204 29.1856 9.77156 28.9999 9.58586V9.58586Z" fill="black"/>
</svg>
