<svg   viewBox="0 0 32 32" fill="none" xmlns="http://www.w3.org/2000/svg">
<path d="M19.7136 14.1413C19.5638 13.9224 19.5071 13.653 19.556 13.3923C19.6049 13.1316 19.7553 12.9011 19.9742 12.7513L28.4324 6.96405C28.6513 6.81429 28.9207 6.75761 29.1814 6.80648C29.442 6.85536 29.6726 7.00579 29.8224 7.22468C29.9722 7.44357 30.0288 7.71298 29.98 7.97366C29.9311 8.23434 29.7807 8.46493 29.5618 8.61469L21.1036 14.4019C20.9952 14.4761 20.8733 14.5282 20.7448 14.5553C20.6162 14.5823 20.4837 14.5838 20.3546 14.5596C20.2255 14.5354 20.1024 14.486 19.9925 14.4142C19.8825 14.3425 19.7877 14.2497 19.7136 14.1413V14.1413ZM29.8224 24.7752C29.7483 24.8836 29.6535 24.9764 29.5435 25.0481C29.4335 25.1199 29.3105 25.1693 29.1814 25.1935C29.0523 25.2177 28.9197 25.2163 28.7912 25.1892C28.6627 25.1621 28.5407 25.11 28.4324 25.0358L16.9971 17.2116L11.6838 20.847C12.0919 21.8766 12.1063 23.0204 11.7244 24.06C11.3424 25.0995 10.5909 25.9619 9.61336 26.4824C8.63582 27.0029 7.50078 27.145 6.42508 26.8816C5.34939 26.6181 4.40845 25.9677 3.78201 25.0544C3.15558 24.1411 2.88756 23.029 3.02917 21.9306C3.17078 20.8323 3.71209 19.8245 4.54968 19.1C5.38727 18.3755 6.46243 17.9849 7.56977 18.0029C8.6771 18.021 9.73898 18.4463 10.5525 19.1977L15.2261 16L10.5525 12.8022C9.7426 13.5484 8.68627 13.9703 7.58515 13.9872C6.48403 14.0041 5.41524 13.615 4.58279 12.894C3.75035 12.173 3.21256 11.1707 3.07209 10.0785C2.93162 8.98623 3.19829 7.8805 3.82122 6.97236C4.44414 6.06422 5.37968 5.41728 6.44925 5.15503C7.51882 4.89279 8.64751 5.0336 9.61986 5.5506C10.5922 6.0676 11.3401 6.92457 11.7208 7.95793C12.1015 8.99128 12.0883 10.1286 11.6838 11.1529L29.5618 23.3852C29.7807 23.535 29.9311 23.7656 29.9799 24.0262C30.0288 24.2869 29.9721 24.5563 29.8224 24.7752ZM9.99707 22.4999C9.99709 21.9216 9.79656 21.361 9.42964 20.9139C9.06272 20.4668 8.55213 20.1608 7.98486 20.0479C7.41758 19.9351 6.82873 20.0224 6.31862 20.295C5.80852 20.5677 5.40874 21.0088 5.18739 21.5431C4.96604 22.0775 4.93682 22.6721 5.10471 23.2256C5.2726 23.779 5.62722 24.2572 6.10813 24.5785C6.58904 24.8999 7.16649 25.0445 7.7421 24.9878C8.31771 24.9311 8.85585 24.6766 9.26484 24.2676C9.49771 24.0361 9.68234 23.7606 9.80803 23.4571C9.93372 23.1537 9.99798 22.8284 9.99707 22.4999V22.4999ZM9.26484 11.2676C9.61447 10.918 9.85257 10.4726 9.94904 9.9876C10.0455 9.50265 9.99599 8.99998 9.80677 8.54316C9.61756 8.08635 9.29712 7.6959 8.886 7.4212C8.47488 7.14649 7.99153 6.99987 7.49707 6.99987C7.00262 6.99987 6.51927 7.14649 6.10815 7.4212C5.69702 7.6959 5.37659 8.08635 5.18737 8.54316C4.99816 8.99998 4.94865 9.50265 5.04511 9.9876C5.14158 10.4726 5.37968 10.918 5.72931 11.2676C5.96033 11.5018 6.23556 11.6877 6.53903 11.8146C6.8425 11.9415 7.16815 12.0068 7.49707 12.0068C7.826 12.0068 8.15165 11.9415 8.45512 11.8146C8.75858 11.6877 9.03382 11.5018 9.26484 11.2676V11.2676Z" fill="black"/>
</svg>
