<svg viewBox="0 0 32 32" xmlns="http://www.w3.org/2000/svg">
<path d="M30.7686 19.3598C30.6134 19.1735 27.9027 15.9802 23.291 14.191C23.0272 11.9635 22.1795 9.93335 20.8391 8.36389C18.9593 6.16321 16.2487 5 13.0004 5C6.5599 5 2.36226 10.773 2.18673 11.0187C2.0324 11.2344 1.97008 11.5026 2.01348 11.7643C2.05688 12.0259 2.20244 12.2596 2.41814 12.4139C2.63384 12.5682 2.90201 12.6306 3.16365 12.5872C3.4253 12.5438 3.65899 12.3982 3.81331 12.1825C3.85055 12.1307 7.60201 7 13.0004 7C15.6456 7 17.8303 7.92078 19.3182 9.66284C20.2424 10.7723 20.874 12.0956 21.1552 13.5118C19.7965 13.1719 18.4011 13 17.0004 13C13.7429 13 11.0081 13.8512 9.092 15.4615C7.39705 16.8859 6.42489 18.8704 6.42489 20.9061C6.41712 21.6952 6.56643 22.4779 6.86413 23.2087C7.16182 23.9396 7.60196 24.6038 8.1589 25.1629C9.36654 26.3648 11.0407 27 13.0004 27C16.1533 27 18.8365 25.753 20.7598 23.3938C22.2867 21.5209 23.2163 19.0067 23.3597 16.4061C27.0324 18.0645 29.2011 20.6031 29.2323 20.6402C29.3163 20.7413 29.4194 20.8249 29.5357 20.8861C29.652 20.9473 29.7793 20.985 29.9102 20.997C30.0411 21.009 30.1731 20.9951 30.2986 20.9561C30.4241 20.917 30.5407 20.8536 30.6417 20.7694C30.7427 20.6853 30.8261 20.582 30.8871 20.4656C30.9482 20.3492 30.9856 20.2219 30.9974 20.0909C31.0092 19.96 30.9951 19.828 30.9558 19.7026C30.9166 19.5771 30.853 19.4606 30.7686 19.3598L30.7686 19.3598ZM13.0004 25C9.83968 25 8.42489 22.9438 8.42489 20.9061C8.42489 18.0615 11.1085 15 17.0004 15C18.4846 15.0019 19.9602 15.224 21.3791 15.6592C21.3791 15.6729 21.3792 15.6867 21.3792 15.7004C21.3792 20.3217 18.5012 25 13.0004 25Z"/>
</svg>
