<svg   viewBox="0 0 32 32" fill="none" xmlns="http://www.w3.org/2000/svg">
<path d="M19 5C19 5.13132 18.9741 5.26136 18.9239 5.38269C18.8736 5.50402 18.8 5.61426 18.7071 5.70712C18.6143 5.79997 18.504 5.87363 18.3827 5.92389C18.2614 5.97414 18.1313 6 18 6H14C13.7348 6 13.4804 5.89464 13.2929 5.70711C13.1054 5.51957 13 5.26522 13 5C13 4.73478 13.1054 4.48043 13.2929 4.29289C13.4804 4.10536 13.7348 4 14 4H18C18.1313 4 18.2614 4.02586 18.3827 4.07611C18.504 4.12637 18.6143 4.20003 18.7071 4.29288C18.8 4.38574 18.8736 4.49598 18.9239 4.61731C18.9741 4.73864 19 4.86868 19 5V5ZM18 26H14C13.7348 26 13.4804 26.1054 13.2929 26.2929C13.1054 26.4804 13 26.7348 13 27C13 27.2652 13.1054 27.5196 13.2929 27.7071C13.4804 27.8946 13.7348 28 14 28H18C18.2652 28 18.5196 27.8946 18.7071 27.7071C18.8946 27.5196 19 27.2652 19 27C19 26.7348 18.8946 26.4804 18.7071 26.2929C18.5196 26.1054 18.2652 26 18 26ZM26 4H23C22.7348 4 22.4804 4.10536 22.2929 4.29289C22.1054 4.48043 22 4.73478 22 5C22 5.26522 22.1054 5.51957 22.2929 5.70711C22.4804 5.89464 22.7348 6 23 6H26V8.99994C26 9.26516 26.1054 9.51951 26.2929 9.70705C26.4804 9.89458 26.7348 9.99994 27 9.99994C27.2652 9.99994 27.5196 9.89458 27.7071 9.70705C27.8946 9.51951 28 9.26516 28 8.99994V6C27.9994 5.46975 27.7885 4.9614 27.4135 4.58646C27.0386 4.21151 26.5302 4.00061 26 4ZM27 12.9999C26.8687 12.9999 26.7386 13.0258 26.6173 13.0761C26.496 13.1263 26.3857 13.2 26.2929 13.2928C26.2 13.3857 26.1264 13.4959 26.0761 13.6173C26.0259 13.7386 26 13.8686 26 13.9999V17.9999C26 18.2652 26.1054 18.5195 26.2929 18.707C26.4804 18.8946 26.7348 18.9999 27 18.9999C27.2652 18.9999 27.5196 18.8946 27.7071 18.707C27.8946 18.5195 28 18.2652 28 17.9999V13.9999C28 13.8686 27.9741 13.7386 27.9239 13.6173C27.8736 13.4959 27.8 13.3857 27.7071 13.2928C27.6143 13.2 27.504 13.1263 27.3827 13.0761C27.2614 13.0258 27.1313 12.9999 27 12.9999V12.9999ZM27 21.9999C26.8687 21.9999 26.7386 22.0258 26.6173 22.0761C26.496 22.1263 26.3857 22.2 26.2929 22.2928C26.2 22.3857 26.1264 22.4959 26.0761 22.6173C26.0259 22.7386 26 22.8686 26 22.9999V26H23C22.7348 26 22.4804 26.1054 22.2929 26.2929C22.1054 26.4804 22 26.7348 22 27C22 27.2652 22.1054 27.5196 22.2929 27.7071C22.4804 27.8946 22.7348 28 23 28H26C26.5302 27.9994 27.0386 27.7885 27.4135 27.4135C27.7885 27.0386 27.9994 26.5302 28 26V22.9999C28 22.8686 27.9741 22.7386 27.9239 22.6173C27.8736 22.4959 27.8 22.3857 27.7071 22.2928C27.6143 22.2 27.504 22.1263 27.3827 22.0761C27.2614 22.0258 27.1313 21.9999 27 21.9999ZM5 18.9999C5.13132 18.9999 5.26136 18.9741 5.38269 18.9238C5.50402 18.8736 5.61426 18.7999 5.70712 18.7071C5.79997 18.6142 5.87363 18.504 5.92389 18.3826C5.97414 18.2613 6 18.1313 6 17.9999V13.9999C6 13.7347 5.89464 13.4804 5.70711 13.2928C5.51957 13.1053 5.26522 12.9999 5 12.9999C4.73478 12.9999 4.48043 13.1053 4.29289 13.2928C4.10536 13.4804 4 13.7347 4 13.9999V17.9999C4 18.1313 4.02586 18.2613 4.07611 18.3826C4.12637 18.504 4.20003 18.6142 4.29288 18.7071C4.38574 18.7999 4.49598 18.8736 4.61731 18.9238C4.73864 18.9741 4.86868 18.9999 5 18.9999V18.9999ZM9 26H6V22.9999C6 22.7347 5.89464 22.4804 5.70711 22.2928C5.51957 22.1053 5.26522 21.9999 5 21.9999C4.73478 21.9999 4.48043 22.1053 4.29289 22.2928C4.10536 22.4804 4 22.7347 4 22.9999V26C4.00061 26.5302 4.21151 27.0386 4.58646 27.4135C4.9614 27.7885 5.46975 27.9994 6 28H9C9.26522 28 9.51957 27.8946 9.70711 27.7071C9.89464 27.5196 10 27.2652 10 27C10 26.7348 9.89464 26.4804 9.70711 26.2929C9.51957 26.1054 9.26522 26 9 26ZM9 4H6C5.46975 4.00061 4.9614 4.21151 4.58646 4.58646C4.21151 4.9614 4.00061 5.46975 4 6V8.99994C4 9.26516 4.10536 9.51951 4.29289 9.70705C4.48043 9.89458 4.73478 9.99994 5 9.99994C5.26522 9.99994 5.51957 9.89458 5.70711 9.70705C5.89464 9.51951 6 9.26516 6 8.99994V6H9C9.26522 6 9.51957 5.89464 9.70711 5.70711C9.89464 5.51957 10 5.26522 10 5C10 4.73478 9.89464 4.48043 9.70711 4.29289C9.51957 4.10536 9.26522 4 9 4V4Z" fill="black"/>
</svg>
