<svg   viewBox="0 0 32 32" fill="none" xmlns="http://www.w3.org/2000/svg">
<path d="M13 5C13 4.86868 13.0259 4.73864 13.0761 4.61731C13.1264 4.49598 13.2 4.38574 13.2929 4.29288C13.3857 4.20003 13.496 4.12637 13.6173 4.07611C13.7386 4.02586 13.8687 4 14 4H18C18.2652 4 18.5196 4.10536 18.7071 4.29289C18.8946 4.48043 19 4.73478 19 5C19 5.26522 18.8946 5.51957 18.7071 5.70711C18.5196 5.89464 18.2652 6 18 6H14C13.8687 6 13.7386 5.97414 13.6173 5.92389C13.496 5.87363 13.3857 5.79997 13.2929 5.70712C13.2 5.61426 13.1264 5.50402 13.0761 5.38269C13.0259 5.26136 13 5.13132 13 5V5ZM18 26H14C13.7348 26 13.4804 26.1054 13.2929 26.2929C13.1054 26.4804 13 26.7348 13 27C13 27.2652 13.1054 27.5196 13.2929 27.7071C13.4804 27.8946 13.7348 28 14 28H18C18.2652 28 18.5196 27.8946 18.7071 27.7071C18.8946 27.5196 19 27.2652 19 27C19 26.7348 18.8946 26.4804 18.7071 26.2929C18.5196 26.1054 18.2652 26 18 26ZM26 4H23C22.7348 4 22.4804 4.10536 22.2929 4.29289C22.1054 4.48043 22 4.73478 22 5C22 5.26522 22.1054 5.51957 22.2929 5.70711C22.4804 5.89464 22.7348 6 23 6H26V8.99994C26 9.26516 26.1054 9.51951 26.2929 9.70705C26.4804 9.89458 26.7348 9.99994 27 9.99994C27.2652 9.99994 27.5196 9.89458 27.7071 9.70705C27.8946 9.51951 28 9.26516 28 8.99994V6C27.9994 5.46975 27.7885 4.9614 27.4135 4.58646C27.0386 4.21151 26.5302 4.00061 26 4ZM27 12.9999C26.8687 12.9999 26.7386 13.0258 26.6173 13.0761C26.496 13.1263 26.3857 13.2 26.2929 13.2928C26.2 13.3857 26.1264 13.4959 26.0761 13.6173C26.0259 13.7386 26 13.8686 26 13.9999V17.9999C26 18.2652 26.1054 18.5195 26.2929 18.707C26.4804 18.8946 26.7348 18.9999 27 18.9999C27.2652 18.9999 27.5196 18.8946 27.7071 18.707C27.8946 18.5195 28 18.2652 28 17.9999V13.9999C28 13.8686 27.9741 13.7386 27.9239 13.6173C27.8736 13.4959 27.8 13.3857 27.7071 13.2928C27.6143 13.2 27.504 13.1263 27.3827 13.0761C27.2614 13.0258 27.1313 12.9999 27 12.9999V12.9999ZM5 18.9999C5.13132 18.9999 5.26136 18.9741 5.38269 18.9238C5.50402 18.8736 5.61426 18.7999 5.70712 18.7071C5.79997 18.6142 5.87363 18.504 5.92389 18.3826C5.97414 18.2613 6 18.1313 6 17.9999V13.9999C6 13.7347 5.89464 13.4804 5.70711 13.2928C5.51957 13.1053 5.26522 12.9999 5 12.9999C4.73478 12.9999 4.48043 13.1053 4.29289 13.2928C4.10536 13.4804 4 13.7347 4 13.9999V17.9999C4 18.1313 4.02586 18.2613 4.07611 18.3826C4.12637 18.504 4.20003 18.6142 4.29288 18.7071C4.38574 18.7999 4.49598 18.8736 4.61731 18.9238C4.73864 18.9741 4.86868 18.9999 5 18.9999V18.9999ZM9 26H6V23C6 22.7348 5.89464 22.4804 5.70711 22.2929C5.51957 22.1054 5.26522 22 5 22C4.73478 22 4.48043 22.1054 4.29289 22.2929C4.10536 22.4804 4 22.7348 4 23V26C4.00061 26.5302 4.21151 27.0386 4.58646 27.4135C4.9614 27.7885 5.46975 27.9994 6 28H9C9.26522 28 9.51957 27.8946 9.70711 27.7071C9.89464 27.5196 10 27.2652 10 27C10 26.7348 9.89464 26.4804 9.70711 26.2929C9.51957 26.1054 9.26522 26 9 26ZM6.73993 4.32733C6.65159 4.23016 6.54498 4.15134 6.42619 4.09538C6.30739 4.03941 6.17873 4.00739 6.04756 4.00114C5.78265 3.98853 5.52357 4.08167 5.32733 4.26007C5.23016 4.34841 5.15134 4.45502 5.09538 4.57381C5.03941 4.69261 5.00739 4.82127 5.00114 4.95244C4.98853 5.21735 5.08167 5.47643 5.26007 5.67267L25.2601 27.6727C25.3484 27.7699 25.455 27.8487 25.5738 27.9047C25.6926 27.9606 25.8213 27.9927 25.9525 27.9989C26.0837 28.0051 26.2148 27.9855 26.3384 27.941C26.4619 27.8966 26.5756 27.8283 26.6727 27.7399C26.7699 27.6516 26.8487 27.545 26.9047 27.4262C26.9606 27.3074 26.9927 27.1787 26.9989 27.0475C27.0051 26.9163 26.9855 26.7852 26.941 26.6616C26.8966 26.5381 26.8283 26.4244 26.7399 26.3273L6.73993 4.32733Z" fill="black"/>
</svg>
