<svg viewBox="0 0 32 32" xmlns="http://www.w3.org/2000/svg">
<path d="M8 27C8 27.2652 7.89464 27.5196 7.7071 27.7071C7.51957 27.8946 7.26522 28 7 28H6C5.46975 27.9994 4.9614 27.7885 4.58646 27.4135C4.21151 27.0386 4.00061 26.5302 4 26V25C4 24.7348 4.10536 24.4804 4.29289 24.2929C4.48043 24.1054 4.73478 24 5 24C5.26522 24 5.51957 24.1054 5.70711 24.2929C5.89464 24.4804 6 24.7348 6 25V26H7C7.26522 26 7.51957 26.1054 7.7071 26.2929C7.89464 26.4804 8 26.7348 8 27V27ZM14 26H12C11.7348 26 11.4804 26.1054 11.2929 26.2929C11.1054 26.4804 11 26.7348 11 27C11 27.2652 11.1054 27.5196 11.2929 27.7071C11.4804 27.8946 11.7348 28 12 28H14C14.2652 28 14.5196 27.8946 14.7071 27.7071C14.8946 27.5196 15 27.2652 15 27C15 26.7348 14.8946 26.4804 14.7071 26.2929C14.5196 26.1054 14.2652 26 14 26ZM5 21C5.26522 21 5.51957 20.8946 5.7071 20.7071C5.89464 20.5196 6 20.2652 6 20V18C6 17.7348 5.89464 17.4804 5.70711 17.2929C5.51957 17.1054 5.26522 17 5 17C4.73478 17 4.48043 17.1054 4.29289 17.2929C4.10536 17.4804 4 17.7348 4 18V20C4 20.2652 4.10536 20.5196 4.2929 20.7071C4.48043 20.8946 4.73478 21 5 21ZM21 24C20.7348 24 20.4804 24.1054 20.2929 24.2929C20.1054 24.4804 20 24.7348 20 25V26H19C18.7348 26 18.4804 26.1054 18.2929 26.2929C18.1054 26.4804 18 26.7348 18 27C18 27.2652 18.1054 27.5196 18.2929 27.7071C18.4804 27.8946 18.7348 28 19 28H20C20.5302 27.9994 21.0386 27.7885 21.4135 27.4135C21.7885 27.0386 21.9994 26.5302 22 26V25C22 24.7348 21.8946 24.4804 21.7071 24.2929C21.5196 24.1054 21.2652 24 21 24ZM21 14C21.2652 14 21.5196 13.8946 21.7071 13.7071C21.8946 13.5196 22 13.2652 22 13V12C21.9994 11.4698 21.7885 10.9614 21.4135 10.5865C21.0386 10.2115 20.5302 10.0006 20 10H19C18.7348 10 18.4804 10.1054 18.2929 10.2929C18.1054 10.4804 18 10.7348 18 11C18 11.2652 18.1054 11.5196 18.2929 11.7071C18.4804 11.8946 18.7348 12 19 12H20V13C20 13.2652 20.1054 13.5196 20.2929 13.7071C20.4804 13.8946 20.7348 14 21 14ZM7 10H6C5.46975 10.0006 4.9614 10.2115 4.58646 10.5865C4.21151 10.9614 4.00061 11.4698 4 12V13C4 13.2652 4.10536 13.5196 4.29289 13.7071C4.48043 13.8946 4.73478 14 5 14C5.26522 14 5.51957 13.8946 5.70711 13.7071C5.89464 13.5196 6 13.2652 6 13V12H7C7.26522 12 7.51957 11.8946 7.70711 11.7071C7.89464 11.5196 8 11.2652 8 11C8 10.7348 7.89464 10.4804 7.70711 10.2929C7.51957 10.1054 7.26522 10 7 10ZM25.9999 3.99927H11.9999C11.4696 3.99987 10.9613 4.21078 10.5863 4.58572C10.2114 4.96067 10.0005 5.46902 9.99988 5.99927V11C9.99988 11.2652 10.1052 11.5196 10.2928 11.7071C10.4803 11.8946 10.7347 12 10.9999 12H14C14.2652 12 14.5196 11.8946 14.7071 11.7071C14.8946 11.5196 15 11.2652 15 11C15 10.7348 14.8946 10.4804 14.7071 10.2929C14.5196 10.1054 14.2652 10 14 10H11.9999V5.99927H25.9999V19.9993H22V18C22 17.7348 21.8946 17.4804 21.7071 17.2929C21.5196 17.1054 21.2652 17 21 17C20.7348 17 20.4804 17.1054 20.2929 17.2929C20.1054 17.4804 20 17.7348 20 18V21C20 21.2652 20.1054 21.5196 20.2929 21.7071C20.4804 21.8946 20.7348 22 21 22C21.0049 22 21.0096 21.9993 21.0145 21.9993H25.9999C26.5301 21.9987 27.0385 21.7878 27.4134 21.4128C27.7884 21.0379 27.9993 20.5295 27.9999 19.9993V5.99927C27.9993 5.46902 27.7884 4.96067 27.4134 4.58572C27.0385 4.21078 26.5301 3.99987 25.9999 3.99927Z"/>
</svg>
