<svg   viewBox="0 0 32 32" fill="none" xmlns="http://www.w3.org/2000/svg">
<path d="M10.0001 7V6C10.0007 5.46975 10.2116 4.9614 10.5866 4.58646C10.9615 4.21151 11.4699 4.00061 12.0001 4H13.0001C13.2653 4 13.5197 4.10536 13.7072 4.29289C13.8948 4.48043 14.0001 4.73478 14.0001 5C14.0001 5.26522 13.8948 5.51957 13.7072 5.70711C13.5197 5.89464 13.2653 6 13.0001 6H12.0001V7C12.0001 7.26522 11.8948 7.51957 11.7072 7.70711C11.5197 7.89464 11.2653 8 11.0001 8C10.7349 8 10.4806 7.89464 10.293 7.70711C10.1055 7.51957 10.0001 7.26522 10.0001 7ZM18.0001 6H20.0001C20.2653 6 20.5197 5.89464 20.7072 5.70711C20.8948 5.51957 21.0001 5.26522 21.0001 5C21.0001 4.73478 20.8948 4.48043 20.7072 4.29289C20.5197 4.10536 20.2653 4 20.0001 4H18.0001C17.7349 4 17.4806 4.10536 17.293 4.29289C17.1055 4.48043 17.0001 4.73478 17.0001 5C17.0001 5.26522 17.1055 5.51957 17.293 5.70711C17.4806 5.89464 17.7349 6 18.0001 6ZM26.0001 4H25.0001C24.7349 4 24.4806 4.10536 24.293 4.29289C24.1055 4.48043 24.0001 4.73478 24.0001 5C24.0001 5.26522 24.1055 5.51957 24.293 5.70711C24.4806 5.89464 24.7349 6 25.0001 6H26.0001V7C26.0001 7.26522 26.1055 7.51957 26.293 7.70711C26.4806 7.89464 26.7349 8 27.0001 8C27.2653 8 27.5197 7.89464 27.7072 7.70711C27.8948 7.51957 28.0001 7.26522 28.0001 7V6C27.9995 5.46975 27.7886 4.9614 27.4137 4.58646C27.0387 4.21151 26.5304 4.00061 26.0001 4ZM27.0001 11C26.7349 11 26.4806 11.1054 26.293 11.2929C26.1055 11.4804 26.0001 11.7348 26.0001 12V14C26.0001 14.2652 26.1055 14.5196 26.293 14.7071C26.4806 14.8946 26.7349 15 27.0001 15C27.2653 15 27.5197 14.8946 27.7072 14.7071C27.8948 14.5196 28.0001 14.2652 28.0001 14V12C28.0001 11.7348 27.8948 11.4804 27.7072 11.2929C27.5197 11.1054 27.2653 11 27.0001 11V11ZM22 11.9993V25.9993C21.9994 26.5295 21.7885 27.0379 21.4135 27.4128C21.0386 27.7878 20.5302 27.9987 20 27.9993H6C5.46975 27.9987 4.9614 27.7878 4.58646 27.4128C4.21151 27.0379 4.00061 26.5295 4 25.9993V11.9993C4.00061 11.469 4.21151 10.9607 4.58646 10.5857C4.9614 10.2108 5.46975 9.99987 6 9.99927H20C20.5302 9.99987 21.0386 10.2108 21.4135 10.5857C21.7885 10.9607 21.9994 11.469 22 11.9993ZM20 11.9993H6V25.9993H20V11.9993ZM27.0001 18C26.7349 18 26.4806 18.1054 26.293 18.2929C26.1055 18.4804 26.0001 18.7348 26.0001 19V20H25.0001C24.7349 20 24.4806 20.1054 24.293 20.2929C24.1055 20.4804 24.0001 20.7348 24.0001 21C24.0001 21.2652 24.1055 21.5196 24.293 21.7071C24.4806 21.8946 24.7349 22 25.0001 22H26.0001C26.5304 21.9994 27.0387 21.7885 27.4137 21.4135C27.7886 21.0386 27.9995 20.5302 28.0001 20V19C28.0001 18.7348 27.8948 18.4804 27.7072 18.2929C27.5197 18.1054 27.2653 18 27.0001 18Z" fill="black"/>
</svg>
