<svg   viewBox="0 0 32 32" fill="none" xmlns="http://www.w3.org/2000/svg">
<path d="M13 5C13 4.73478 13.1054 4.48043 13.2929 4.2929C13.4804 4.10536 13.7348 4 14 4H18C18.2652 4 18.5196 4.10536 18.7071 4.29289C18.8946 4.48043 19 4.73478 19 5C19 5.26522 18.8946 5.51957 18.7071 5.70711C18.5196 5.89464 18.2652 6 18 6H14C13.7348 6 13.4804 5.89464 13.2929 5.7071C13.1054 5.51957 13 5.26522 13 5V5ZM18 26H14C13.7348 26 13.4804 26.1054 13.2929 26.2929C13.1054 26.4804 13 26.7348 13 27C13 27.2652 13.1054 27.5196 13.2929 27.7071C13.4804 27.8946 13.7348 28 14 28H18C18.2652 28 18.5196 27.8946 18.7071 27.7071C18.8946 27.5196 19 27.2652 19 27C19 26.7348 18.8946 26.4804 18.7071 26.2929C18.5196 26.1054 18.2652 26 18 26ZM26 4H23C22.7348 4 22.4804 4.10536 22.2929 4.29289C22.1054 4.48043 22 4.73478 22 5C22 5.26522 22.1054 5.51957 22.2929 5.70711C22.4804 5.89464 22.7348 6 23 6H26V9C26 9.26522 26.1054 9.51957 26.2929 9.70711C26.4804 9.89464 26.7348 10 27 10C27.2652 10 27.5196 9.89464 27.7071 9.70711C27.8946 9.51957 28 9.26522 28 9V6C27.9994 5.46975 27.7885 4.9614 27.4135 4.58646C27.0386 4.21151 26.5302 4.00061 26 4ZM27 13C26.7348 13 26.4804 13.1054 26.2929 13.2929C26.1054 13.4804 26 13.7348 26 14V18C26 18.2652 26.1054 18.5196 26.2929 18.7071C26.4804 18.8946 26.7348 19 27 19C27.2652 19 27.5196 18.8946 27.7071 18.7071C27.8946 18.5196 28 18.2652 28 18V14C28 13.7348 27.8946 13.4804 27.7071 13.2929C27.5196 13.1054 27.2652 13 27 13ZM27 22C26.7348 22 26.4804 22.1054 26.2929 22.2929C26.1054 22.4804 26 22.7348 26 23V26H23C22.7348 26 22.4804 26.1054 22.2929 26.2929C22.1054 26.4804 22 26.7348 22 27C22 27.2652 22.1054 27.5196 22.2929 27.7071C22.4804 27.8946 22.7348 28 23 28H26C26.5302 27.9994 27.0386 27.7885 27.4135 27.4135C27.7885 27.0386 27.9994 26.5302 28 26V23C28 22.7348 27.8946 22.4804 27.7071 22.2929C27.5196 22.1054 27.2652 22 27 22ZM5 19C5.26522 19 5.51957 18.8946 5.7071 18.7071C5.89464 18.5196 6 18.2652 6 18V14C6 13.7348 5.89464 13.4804 5.70711 13.2929C5.51957 13.1054 5.26522 13 5 13C4.73478 13 4.48043 13.1054 4.29289 13.2929C4.10536 13.4804 4 13.7348 4 14V18C4 18.2652 4.10536 18.5196 4.2929 18.7071C4.48043 18.8946 4.73478 19 5 19ZM9 26H6V23C6 22.7348 5.89464 22.4804 5.70711 22.2929C5.51957 22.1054 5.26522 22 5 22C4.73478 22 4.48043 22.1054 4.29289 22.2929C4.10536 22.4804 4 22.7348 4 23V26C4.00061 26.5302 4.21151 27.0386 4.58646 27.4135C4.9614 27.7885 5.46975 27.9994 6 28H9C9.26522 28 9.51957 27.8946 9.70711 27.7071C9.89464 27.5196 10 27.2652 10 27C10 26.7348 9.89464 26.4804 9.70711 26.2929C9.51957 26.1054 9.26522 26 9 26ZM5 10C5.26522 10 5.51957 9.89464 5.7071 9.7071C5.89464 9.51957 6 9.26522 6 9V6H9C9.26522 6 9.51957 5.89464 9.70711 5.70711C9.89464 5.51957 10 5.26522 10 5C10 4.73478 9.89464 4.48043 9.70711 4.29289C9.51957 4.10536 9.26522 4 9 4H6C5.46975 4.00061 4.9614 4.21151 4.58646 4.58646C4.21151 4.9614 4.00061 5.46975 4 6V9C4 9.26522 4.10536 9.51957 4.2929 9.7071C4.48043 9.89464 4.73478 10 5 10V10ZM22 23H10C9.73478 23 9.48043 22.8946 9.2929 22.7071C9.10536 22.5196 9 22.2652 9 22V10C9 9.73478 9.10536 9.48043 9.2929 9.2929C9.48043 9.10536 9.73478 9 10 9H22C22.2652 9 22.5196 9.10536 22.7071 9.2929C22.8946 9.48043 23 9.73478 23 10V22C23 22.2652 22.8946 22.5196 22.7071 22.7071C22.5196 22.8946 22.2652 23 22 23Z" fill="black"/>
</svg>
