<svg   viewBox="0 0 32 32" fill="none" xmlns="http://www.w3.org/2000/svg">
<path d="M27.4961 21.1362L16 27.8423L4.50392 21.1362C4.27483 21.0026 4.00204 20.9654 3.74555 21.0329C3.48906 21.1004 3.26989 21.267 3.13624 21.4961C3.0026 21.7252 2.96543 21.998 3.03292 22.2545C3.10041 22.511 3.26702 22.7301 3.49611 22.8638L15.4961 29.8638C15.6491 29.953 15.8229 30 16 30C16.1771 30 16.351 29.953 16.5039 29.8638L28.5039 22.8638C28.6174 22.7976 28.7166 22.7097 28.7961 22.6052C28.8756 22.5006 28.9337 22.3815 28.9671 22.2545C29.0005 22.1275 29.0086 21.9951 28.9909 21.865C28.9731 21.7349 28.93 21.6095 28.8638 21.4961C28.7976 21.3827 28.7097 21.2834 28.6052 21.2039C28.5007 21.1244 28.3815 21.0663 28.2545 21.0329C28.1275 20.9995 27.9951 20.9914 27.865 21.0092C27.7349 21.0269 27.6095 21.0701 27.4961 21.1362V21.1362Z" fill="black"/>
<path d="M27.4961 15.1362L16 21.8423L4.50392 15.1362C4.27483 15.0026 4.00204 14.9654 3.74555 15.0329C3.48906 15.1004 3.26989 15.267 3.13624 15.4961C3.0026 15.7252 2.96543 15.998 3.03292 16.2545C3.10041 16.511 3.26702 16.7301 3.49611 16.8638L15.4961 23.8638C15.6491 23.953 15.8229 24 16 24C16.1771 24 16.351 23.953 16.5039 23.8638L28.5039 16.8638C28.733 16.7301 28.8996 16.511 28.9671 16.2545C29.0346 15.998 28.9974 15.7252 28.8638 15.4961C28.7301 15.267 28.511 15.1004 28.2545 15.0329C27.998 14.9654 27.7252 15.0026 27.4961 15.1362Z" fill="black"/>
<path d="M3.49609 10.8638L15.4961 17.8638C15.649 17.953 15.8229 18 16 18C16.1771 18 16.351 17.953 16.5039 17.8638L28.5039 10.8638C28.6549 10.7757 28.7801 10.6496 28.8672 10.498C28.9542 10.3465 29 10.1748 29 10C29 9.82523 28.9542 9.65351 28.8672 9.50195C28.7801 9.3504 28.6549 9.2243 28.5039 9.13623L16.5039 2.13623C16.351 2.04701 16.1771 2 16 2C15.8229 2 15.649 2.04701 15.4961 2.13623L3.49609 9.13623C3.34513 9.2243 3.21989 9.3504 3.13285 9.50195C3.0458 9.65351 3 9.82523 3 10C3 10.1748 3.0458 10.3465 3.13285 10.498C3.21989 10.6496 3.34513 10.7757 3.49609 10.8638V10.8638Z" fill="black"/>
</svg>
