<svg viewBox="0 0 32 32" xmlns="http://www.w3.org/2000/svg">
<path d="M1.50391 13.8683L15.5039 21.8683C15.655 21.9546 15.826 22 16 22C16.174 22 16.345 21.9546 16.4961 21.8683L30.4961 13.8683C30.6492 13.7808 30.7764 13.6544 30.8649 13.502C30.9534 13.3495 31 13.1763 31 13C31 12.8237 30.9534 12.6505 30.8649 12.498C30.7764 12.3456 30.6492 12.2192 30.4961 12.1317L16.4961 4.13171C16.345 4.04544 16.174 4.00006 16 4.00006C15.826 4.00006 15.655 4.04544 15.5039 4.13171L1.50391 12.1317C1.35083 12.2192 1.2236 12.3456 1.1351 12.498C1.04661 12.6505 1 12.8237 1 13C1 13.1763 1.04661 13.3495 1.1351 13.502C1.2236 13.6544 1.35083 13.7808 1.50391 13.8683V13.8683Z"/>
<path d="M29.5039 17.1317L16 24.8483L2.49611 17.1317C2.38208 17.0666 2.25634 17.0245 2.12607 17.008C1.99579 16.9914 1.86353 17.0007 1.73684 17.0353C1.61014 17.0698 1.49149 17.129 1.38767 17.2094C1.28385 17.2898 1.19688 17.3899 1.13173 17.5039C1.06658 17.6179 1.02453 17.7437 1.00798 17.874C0.991423 18.0042 1.00069 18.1365 1.03525 18.2632C1.06981 18.3899 1.12899 18.5085 1.20941 18.6124C1.28982 18.7162 1.3899 18.8032 1.50392 18.8683L15.5039 26.8683C15.655 26.9546 15.826 27 16 27C16.174 27 16.345 26.9546 16.4961 26.8683L30.4961 18.8683C30.6101 18.8032 30.7102 18.7162 30.7906 18.6124C30.871 18.5085 30.9302 18.3899 30.9648 18.2632C30.9993 18.1365 31.0086 18.0042 30.9921 17.874C30.9755 17.7437 30.9334 17.6179 30.8683 17.5039C30.8032 17.3899 30.7162 17.2898 30.6124 17.2094C30.5085 17.129 30.3899 17.0698 30.2632 17.0353C30.1365 17.0007 30.0042 16.9914 29.874 17.008C29.7437 17.0245 29.6179 17.0666 29.5039 17.1317V17.1317Z"/>
</svg>
