<svg viewBox="0 0 32 32" xmlns="http://www.w3.org/2000/svg">
<path d="M28.5202 19.1195L26.126 12.5417C25.9442 12.0436 25.5721 11.638 25.0916 11.4139C24.611 11.1898 24.0611 11.1654 23.5626 11.3463L16.0698 14.0735L17.4544 6.22092C17.5465 5.69853 17.4274 5.16095 17.1231 4.72642C16.8189 4.2919 16.3545 3.99603 15.8321 3.9039L8.93854 2.68857C8.67989 2.64293 8.41478 2.64868 8.15835 2.70551C7.90192 2.76233 7.65919 2.86911 7.44404 3.01975C7.22888 3.17038 7.0455 3.36193 6.90437 3.58344C6.76324 3.80496 6.66713 4.0521 6.62153 4.31076L3.59815 21.4574C3.47093 22.1943 3.49097 22.9491 3.65711 23.6782C3.82325 24.4073 4.13219 25.0963 4.56611 25.7053C5.06586 26.4144 5.72873 26.9929 6.49886 27.3922C7.26898 27.7915 8.1238 27.9998 8.99128 27.9996H8.99171C8.99422 27.9996 8.99665 28 8.99915 28H26.4992C27.0294 27.9994 27.5378 27.7885 27.9127 27.4135C28.2876 27.0386 28.4985 26.5302 28.4992 26V20.5347C28.6794 20.0815 28.6869 19.5778 28.5202 19.1195ZM8.99915 24C8.70248 24 8.41247 23.912 8.1658 23.7472C7.91912 23.5824 7.72686 23.3481 7.61333 23.074C7.4998 22.7999 7.4701 22.4983 7.52797 22.2073C7.58585 21.9164 7.72871 21.6491 7.93849 21.4393C8.14827 21.2295 8.41555 21.0867 8.70652 21.0288C8.99749 20.9709 9.29909 21.0006 9.57318 21.1142C9.84727 21.2277 10.0815 21.4199 10.2464 21.6666C10.4112 21.9133 10.4992 22.2033 10.4992 22.5C10.4987 22.8977 10.3405 23.2789 10.0593 23.5601C9.77811 23.8413 9.39684 23.9995 8.99915 24V24ZM26.4992 26H15.464L26.4992 21.9835V26ZM14.1807 24.3387C14.2837 24.0512 14.3623 23.7557 14.4156 23.455L15.6688 16.3478L24.2467 13.2257L26.6408 19.8036L14.1807 24.3387Z"/>
</svg>
