<svg viewBox="0 0 32 32" xmlns="http://www.w3.org/2000/svg">
<path d="M29.5899 23.4961L18.5938 4.49707C18.3302 4.0418 17.9515 3.66383 17.4957 3.40107C17.04 3.13831 16.5232 3 15.9971 3C15.471 3 14.9542 3.13831 14.4984 3.40107C14.0427 3.66383 13.664 4.0418 13.4004 4.49707H13.4014L2.40431 23.4961C2.14007 23.952 2.00062 24.4695 2 24.9964C1.99938 25.5234 2.13762 26.0412 2.40078 26.4977C2.66395 26.9543 3.04276 27.3334 3.49906 27.597C3.95537 27.8605 4.47306 27.9992 5.00001 27.999H26.9942C27.5211 27.9992 28.0388 27.8605 28.4951 27.597C28.9514 27.3334 29.3302 26.9543 29.5934 26.4977C29.8565 26.0412 29.9948 25.5234 29.9942 24.9964C29.9935 24.4695 29.8541 23.952 29.5899 23.4961V23.4961Z"/>
</svg>
