<svg viewBox="0 0 24 24" xmlns="http://www.w3.org/2000/svg">
<path fill-rule="evenodd" clip-rule="evenodd" d="M12.9327 6.20825C11.3824 6.20825 10.0414 7.11058 9.40892 8.42206C9.23887 8.77467 8.82623 8.93718 8.4614 8.79522C7.97066 8.60427 7.4362 8.49913 6.8754 8.49913C4.45893 8.49913 2.5 10.4581 2.5 12.8745C2.5 15.291 4.45893 17.2499 6.8754 17.2499H18.524C20.1685 17.2499 21.5016 15.9168 21.5016 14.2724C21.5016 12.6279 20.1685 11.2948 18.524 11.2948C18.2565 11.2948 17.9982 11.3299 17.7532 11.3954C17.513 11.4595 17.2566 11.4005 17.0687 11.2377C16.8807 11.0749 16.7857 10.8296 16.8149 10.5827C16.8329 10.4305 16.8422 10.2753 16.8422 10.1177C16.8422 7.95858 15.0918 6.20825 12.9327 6.20825ZM8.38082 7.19396C9.34256 5.69967 11.0213 4.70825 12.9327 4.70825C15.8132 4.70825 18.1679 6.9597 18.3329 9.79883C18.3963 9.79616 18.46 9.79481 18.524 9.79481C20.9969 9.79481 23.0016 11.7995 23.0016 14.2724C23.0016 16.7453 20.9969 18.7499 18.524 18.7499H6.8754C3.63051 18.7499 1 16.1194 1 12.8745C1 9.62964 3.63051 6.99913 6.8754 6.99913C7.39506 6.99913 7.89978 7.06678 8.38082 7.19396Z"/>
</svg>
