<svg viewBox="0 0 24 24" xmlns="http://www.w3.org/2000/svg">
<path fill-rule="evenodd" clip-rule="evenodd" d="M21.0311 4.83038C21.324 4.53749 21.324 4.06261 21.0311 3.76972C20.7382 3.47683 20.2634 3.47683 19.9705 3.76972L3.97046 19.7697C3.67757 20.0626 3.67757 20.5375 3.97046 20.8304C4.26336 21.1233 4.73823 21.1233 5.03112 20.8304L7.11144 18.7501H18.524C20.9969 18.7501 23.0016 16.7454 23.0016 14.2725C23.0016 11.7996 20.9969 9.79493 18.524 9.79493C18.46 9.79493 18.3963 9.79628 18.3329 9.79895C18.2952 9.15027 18.1432 8.53227 17.8967 7.96479L21.0311 4.83038ZM16.7194 9.14209L8.61144 17.2501H18.524C20.1685 17.2501 21.5016 15.917 21.5016 14.2725C21.5016 12.628 20.1685 11.2949 18.524 11.2949C18.2565 11.2949 17.9982 11.33 17.7532 11.3955C17.513 11.4596 17.2566 11.4006 17.0687 11.2378C16.8807 11.075 16.7857 10.8297 16.8149 10.5828C16.8329 10.4306 16.8422 10.2755 16.8422 10.1178C16.8422 9.78093 16.7995 9.45399 16.7194 9.14209Z"/>
<path d="M12.9327 4.70837C14.0396 4.70837 15.0688 5.04083 15.926 5.61134C16.0529 5.69579 16.0657 5.87451 15.9579 5.9823L15.2303 6.70991C15.1463 6.79392 15.0152 6.80644 14.9128 6.74617C14.332 6.4044 13.6553 6.20837 12.9327 6.20837C11.3824 6.20837 10.0414 7.1107 9.40892 8.42218C9.23887 8.77479 8.82623 8.9373 8.4614 8.79534C7.97066 8.60439 7.4362 8.49926 6.8754 8.49926C4.45893 8.49926 2.5 10.4582 2.5 12.8747C2.5 14.521 3.40925 15.9549 4.75298 16.7017C4.90576 16.7866 4.94393 16.9963 4.82033 17.1199L4.0972 17.843C4.01745 17.9227 3.89387 17.9397 3.79785 17.8805C2.1191 16.8462 1 14.9911 1 12.8747C1 9.62976 3.63051 6.99925 6.8754 6.99925C7.39506 6.99925 7.89978 7.0669 8.38082 7.19408C9.34256 5.69979 11.0213 4.70837 12.9327 4.70837Z"/>
</svg>
