<svg viewBox="0 0 24 24" xmlns="http://www.w3.org/2000/svg">
<path fill-rule="evenodd" clip-rule="evenodd" d="M18.5019 11.25C17.2294 11.25 16.1304 12.14 15.8659 13.3847L15.8437 13.4891C15.7757 13.8088 15.7638 14.1379 15.8083 14.4617L15.9613 15.5744C15.9041 15.5813 15.847 15.5885 15.7899 15.5959C14.9102 15.7102 14.2519 16.4595 14.2519 17.3466V19.6534C14.2519 20.5405 14.9102 21.2899 15.7899 21.4041C17.5903 21.6379 19.4134 21.6379 21.2138 21.4041C22.0936 21.2899 22.7519 20.5405 22.7519 19.6534V17.3466C22.7519 16.4595 22.0936 15.7102 21.2138 15.5959C21.1567 15.5885 21.0996 15.5813 21.0424 15.5744L21.1954 14.4617C21.24 14.1379 21.228 13.8088 21.16 13.4891L21.1379 13.3847C20.8734 12.14 19.7743 11.25 18.5019 11.25ZM19.5459 15.4464L19.7094 14.2574C19.7303 14.1054 19.7247 13.951 19.6928 13.8009L19.6706 13.6965C19.5533 13.1446 19.066 12.75 18.5019 12.75C17.9377 12.75 17.4504 13.1446 17.3331 13.6965L17.3109 13.8009C17.279 13.951 17.2734 14.1054 17.2943 14.2574L17.4578 15.4464C18.1534 15.4119 18.8503 15.4119 19.5459 15.4464ZM15.9831 17.0834C17.6552 16.8663 19.3485 16.8663 21.0207 17.0834C21.1529 17.1006 21.2519 17.2132 21.2519 17.3466V19.6534C21.2519 19.7868 21.1529 19.8994 21.0207 19.9166C19.3485 20.1338 17.6552 20.1338 15.9831 19.9166C15.8508 19.8994 15.7519 19.7868 15.7519 19.6534V17.3466C15.7519 17.2132 15.8508 17.1006 15.9831 17.0834Z"/>
<path d="M12.7519 18.3653C12.7519 18.1984 12.6156 18.0637 12.4487 18.0647C10.6052 18.0763 8.76146 18.0163 6.92152 17.8846L5.40751 17.7763C4.89403 17.7396 4.47051 17.36 4.37798 16.8536C3.96835 14.6116 3.89822 12.3208 4.16995 10.058L4.44243 7.78888C4.51362 7.19611 5.0165 6.75 5.61353 6.75H7.9051C8.34514 6.75 8.70186 7.10672 8.70186 7.54677C8.70186 8.13183 9.17615 8.60612 9.76122 8.60612H18.4741C19.0433 8.60612 19.5281 9.0197 19.6178 9.58178L19.6311 9.66531C19.6555 9.8182 19.7666 9.94169 19.9124 9.99377C20.264 10.1194 20.5951 10.2908 20.8979 10.5016C21.0487 10.6066 21.2695 10.4888 21.2452 10.3067C21.2202 10.1198 21.1929 9.93317 21.1631 9.74679L21.0991 9.34535C20.8932 8.05533 19.7804 7.10612 18.4741 7.10612L10.1596 7.10612C9.95412 6.04846 9.02285 5.25 7.9051 5.25H5.61353C4.25725 5.25 3.11484 6.26343 2.95314 7.61004L2.68065 9.87915C2.39099 12.2913 2.46575 14.7333 2.90241 17.1232C3.11793 18.3027 4.10444 19.1869 5.30047 19.2725L6.81447 19.3808C8.69214 19.5151 10.5737 19.5764 12.455 19.5647C12.6194 19.5637 12.7519 19.4298 12.7519 19.2653V18.3653Z"/>
</svg>
