<svg viewBox="0 0 24 24" xmlns="http://www.w3.org/2000/svg">
<path d="M18.6819 9.98322C18.7214 10.231 18.7564 10.4792 18.7869 10.7279C18.8046 10.8722 18.8979 10.9956 19.0297 11.0569C19.3844 11.2219 19.7203 11.4206 20.0333 11.6488C20.1759 11.7528 20.3838 11.6471 20.3697 11.4712C20.3234 10.8947 20.2545 10.3194 20.1631 9.74679L20.0991 9.34535C19.8932 8.05533 18.7804 7.10612 17.4741 7.10612L9.15964 7.10612C8.95412 6.04846 8.02285 5.25 6.9051 5.25H4.61353C3.25725 5.25 2.11484 6.26343 1.95314 7.61004L1.68065 9.87915C1.39099 12.2913 1.46575 14.7333 1.90241 17.1232C2.11793 18.3027 3.10444 19.1869 4.30047 19.2725L5.81447 19.3808C7.53843 19.5041 9.26568 19.5659 10.9929 19.5661C11.1477 19.5661 11.244 19.3969 11.1727 19.2596C11.0235 18.9719 10.8968 18.6706 10.7951 18.358C10.7393 18.1866 10.5832 18.0651 10.403 18.0636C8.90814 18.051 7.41356 17.9914 5.92152 17.8846L4.40751 17.7763C3.89403 17.7396 3.47051 17.36 3.37798 16.8536C2.96835 14.6116 2.89822 12.3208 3.16995 10.058L3.44243 7.78888C3.51362 7.19611 4.0165 6.75 4.61353 6.75H6.9051C7.34514 6.75 7.70186 7.10672 7.70186 7.54677C7.70186 8.13183 8.17615 8.60612 8.76122 8.60612H17.4741C18.0433 8.60612 18.5281 9.0197 18.6178 9.58178L18.6819 9.98322Z"/>
<path fill-rule="evenodd" clip-rule="evenodd" d="M12.0019 16.5C12.0019 17.4719 12.31 18.3718 12.8338 19.1074C13.1257 19.5173 13.4846 19.8762 13.8945 20.1681C14.6301 20.6919 15.53 21 16.5019 21C18.9871 21 21.0019 18.9853 21.0019 16.5C21.0019 15.5281 20.6938 14.6282 20.1699 13.8926C19.878 13.4827 19.5192 13.1238 19.1093 12.8319C18.3736 12.3081 17.4737 12 16.5019 12C14.0166 12 12.0019 14.0147 12.0019 16.5ZM16.5019 19.5C15.9455 19.5 15.4245 19.3486 14.9779 19.0846L19.0865 14.976C19.3504 15.4227 19.5019 15.9436 19.5019 16.5C19.5019 18.1569 18.1587 19.5 16.5019 19.5ZM13.9172 18.024L18.0258 13.9154C17.5792 13.6514 17.0582 13.5 16.5019 13.5C14.845 13.5 13.5019 14.8431 13.5019 16.5C13.5019 17.0564 13.6533 17.5773 13.9172 18.024Z"/>
</svg>
