<svg viewBox="0 0 24 24" xmlns="http://www.w3.org/2000/svg">
<path d="M9.70377 11.2019C9.99666 10.909 10.4715 10.909 10.7644 11.2019L12.0019 12.4393L13.2393 11.2019C13.5322 10.909 14.0071 10.909 14.3 11.2019C14.5929 11.4948 14.5929 11.9697 14.3 12.2626L13.0625 13.5L14.3 14.7374C14.5929 15.0303 14.5929 15.5052 14.3 15.7981C14.0071 16.091 13.5322 16.091 13.2393 15.7981L12.0019 14.5607L10.7644 15.7981C10.4715 16.091 9.99666 16.091 9.70377 15.7981C9.41087 15.5052 9.41087 15.0303 9.70377 14.7374L10.9412 13.5L9.70377 12.2626C9.41088 11.9697 9.41088 11.4948 9.70377 11.2019Z"/>
<path fill-rule="evenodd" clip-rule="evenodd" d="M21.1631 9.74679C21.56 12.233 21.5315 14.7686 21.079 17.2453C20.8766 18.353 19.9502 19.1833 18.8271 19.2636L17.1893 19.3808C13.7354 19.6279 10.2683 19.6279 6.81447 19.3808L5.30047 19.2725C4.10444 19.1869 3.11793 18.3027 2.90241 17.1232C2.46575 14.7333 2.39099 12.2913 2.68065 9.87915L2.95314 7.61004C3.11484 6.26343 4.25725 5.25 5.61353 5.25H7.9051C9.02285 5.25 9.95412 6.04846 10.1596 7.10612L18.4741 7.10612C19.7804 7.10612 20.8932 8.05533 21.0991 9.34535L21.1631 9.74679ZM19.6034 16.9757C20.0254 14.6662 20.0519 12.3017 19.6819 9.98322L19.6178 9.58178C19.5281 9.0197 19.0433 8.60612 18.4741 8.60612H9.76122C9.17615 8.60612 8.70186 8.13183 8.70186 7.54677C8.70186 7.10672 8.34514 6.75 7.9051 6.75H5.61353C5.0165 6.75 4.51362 7.19611 4.44243 7.78888L4.16995 10.058C3.89822 12.3208 3.96835 14.6116 4.37798 16.8536C4.47051 17.36 4.89403 17.7396 5.40751 17.7763L6.92152 17.8846C10.3041 18.1266 13.6996 18.1266 17.0822 17.8846L18.7201 17.7674C19.1607 17.7359 19.524 17.4102 19.6034 16.9757Z"/>
</svg>
