<svg viewBox="0 0 24 24" xmlns="http://www.w3.org/2000/svg">
<path fill-rule="evenodd" clip-rule="evenodd" d="M20.3632 18.5795C19.9576 18.97 19.4197 19.2212 18.8271 19.2636L17.1893 19.3808C13.7354 19.6279 10.2683 19.6279 6.81447 19.3808L5.30047 19.2725C4.10444 19.1869 3.11793 18.3027 2.90241 17.1232C2.46575 14.7333 2.39099 12.2913 2.68065 9.87915L2.95314 7.61004C3.11484 6.26343 4.25725 5.25 5.61353 5.25H7.9051C9.02285 5.25 9.95412 6.04846 10.1596 7.10612L18.4741 7.10612C19.7804 7.10612 20.8932 8.05533 21.0991 9.34535L21.1631 9.74679C21.1766 9.83114 21.1896 9.91554 21.2021 10H21.5381C23.0105 10 24.0228 11.4798 23.4891 12.8521L22.2397 16.065C21.8517 17.0626 21.2008 17.9301 20.3632 18.5795ZM19.6178 9.58178L19.6819 9.98322C19.6828 9.98881 19.6837 9.99441 19.6846 10H10.3723C9.23658 10 8.21771 10.6981 7.80772 11.7573L5.47588 17.7812L5.40751 17.7763C4.89403 17.7396 4.47051 17.36 4.37798 16.8536C3.96835 14.6116 3.89822 12.3208 4.16995 10.058L4.44243 7.78888C4.51362 7.19611 5.0165 6.75 5.61353 6.75H7.9051C8.34514 6.75 8.70186 7.10672 8.70186 7.54677C8.70186 8.13183 9.17615 8.60612 9.76122 8.60612H18.4741C19.0433 8.60612 19.5281 9.0197 19.6178 9.58178ZM7.04104 17.8931C10.3841 18.1266 13.7395 18.1238 17.0822 17.8846L18.7201 17.7674L18.9147 17.7492L18.9133 17.7468C19.7938 17.25 20.4752 16.4636 20.8416 15.5213L22.0911 12.3084C22.2424 11.9195 21.9554 11.5 21.5381 11.5H10.3723C9.85606 11.5 9.39293 11.8173 9.20658 12.2988L7.04104 17.8931Z"/>
</svg>
