<svg   viewBox="0 0 24 24" fill="none" xmlns="http://www.w3.org/2000/svg">
<path d="M18.6819 9.98322C18.7028 10.114 18.7224 10.245 18.7407 10.3761C18.7582 10.501 18.8511 10.6014 18.9724 10.6363C19.3301 10.7393 19.6644 10.8979 19.9652 11.1021C20.1157 11.2043 20.3366 11.0911 20.3175 10.9102C20.2763 10.5215 20.2249 10.1335 20.1631 9.74679L20.0991 9.34535C19.8932 8.05533 18.7804 7.10612 17.4741 7.10612L9.15964 7.10612C8.95412 6.04846 8.02285 5.25 6.9051 5.25H4.61353C3.25725 5.25 2.11484 6.26343 1.95314 7.61004L1.68065 9.87915C1.39099 12.2913 1.46575 14.7333 1.90241 17.1232C2.11793 18.3027 3.10444 19.1869 4.30047 19.2725L5.81447 19.3808C7.9952 19.5368 10.1812 19.5943 12.3658 19.5533C12.5047 19.5507 12.6222 19.4524 12.6586 19.3183C12.7499 18.9821 12.8791 18.6615 13.0415 18.3615C13.1186 18.219 13.016 18.0378 12.854 18.042C10.5426 18.1022 8.22906 18.0497 5.92152 17.8846L4.40751 17.7763C3.89403 17.7396 3.47051 17.36 3.37798 16.8536C2.96835 14.6116 2.89822 12.3208 3.16995 10.058L3.44243 7.78888C3.51362 7.19611 4.0165 6.75 4.61353 6.75H6.9051C7.34514 6.75 7.70186 7.10672 7.70186 7.54677C7.70186 8.13183 8.17615 8.60612 8.76122 8.60612H17.4741C18.0433 8.60612 18.5281 9.0197 18.6178 9.58178L18.6819 9.98322Z" fill="black"/>
<path d="M18.0019 12C16.8973 12 16.0019 12.8954 16.0019 14C16.0019 15.1046 16.8973 16 18.0019 16C19.1064 16 20.0019 15.1046 20.0019 14C20.0019 12.8954 19.1064 12 18.0019 12Z" fill="black"/>
<path d="M14.0019 20.5C14.0019 18.8431 15.345 17.5 17.0019 17.5H19.0019C20.6587 17.5 22.0019 18.8431 22.0019 20.5C22.0019 21.0523 21.5541 21.5 21.0019 21.5H15.0019C14.4496 21.5 14.0019 21.0523 14.0019 20.5Z" fill="black"/>
</svg>
