<svg   viewBox="0 0 24 24" fill="none" xmlns="http://www.w3.org/2000/svg">
<path d="M14.0003 9C14.0003 8.17157 14.6719 7.5 15.5003 7.5C16.3287 7.5 17.0003 8.17157 17.0003 9C17.0003 9.82843 16.3287 10.5 15.5003 10.5C14.6719 10.5 14.0003 9.82843 14.0003 9Z" fill="black"/>
<path fill-rule="evenodd" clip-rule="evenodd" d="M7.26784 4.65855C10.4169 4.38481 13.5837 4.38481 16.7328 4.65855L18.243 4.78983C19.6881 4.91545 20.8588 6.0151 21.0745 7.44949C21.5281 10.4662 21.5281 13.5338 21.0745 16.5505C20.8588 17.9849 19.6881 19.0845 18.243 19.2102L16.7328 19.3414C13.5837 19.6152 10.4169 19.6152 7.26784 19.3414L5.75761 19.2102C4.31254 19.0845 3.14187 17.9849 2.92617 16.5505C2.47253 13.5338 2.47253 10.4662 2.92617 7.44949C3.14187 6.0151 4.31254 4.91545 5.7576 4.78983L7.26784 4.65855ZM16.6029 6.15292C13.5403 5.88669 10.4603 5.88669 7.39774 6.15292L5.88751 6.2842C5.13318 6.34977 4.52209 6.92379 4.40949 7.67254C4.15195 9.38516 4.04816 11.115 4.09811 12.8415L7.96997 8.96967C8.11603 8.82361 8.31586 8.74426 8.52233 8.75032C8.7288 8.75639 8.92363 8.84734 9.06086 9.00173L12.7323 13.1321L15.2631 12.2885C15.5462 12.1941 15.8582 12.2765 16.0578 12.4983L19.5769 16.4084C19.5823 16.3817 19.587 16.3547 19.5911 16.3274C20.0225 13.4586 20.0225 10.5414 19.5911 7.67254C19.4785 6.92379 18.8674 6.34977 18.1131 6.2842L16.6029 6.15292ZM18.6205 17.588L15.2714 13.8669L12.7375 14.7115C12.4528 14.8064 12.1391 14.7225 11.9397 14.4983L8.46819 10.5928L4.2245 14.8365C4.27328 15.3346 4.33495 15.8317 4.40949 16.3274C4.52209 17.0762 5.13318 17.6502 5.88751 17.7158L7.39774 17.8471C10.4603 18.1133 13.5403 18.1133 16.6029 17.8471L18.1131 17.7158C18.2919 17.7003 18.4625 17.6562 18.6205 17.588Z" fill="black"/>
</svg>
