<svg   viewBox="0 0 24 24" fill="none" xmlns="http://www.w3.org/2000/svg">
<path fill-rule="evenodd" clip-rule="evenodd" d="M10.7379 16.6273C9.96427 16.6273 9.31895 16.0361 9.2514 15.2654C9.11015 13.6541 9.07441 12.0357 9.14427 10.4204C9.05994 10.4147 8.97563 10.4088 8.89133 10.4027L7.40178 10.2941C6.44973 10.2247 5.91752 9.16312 6.43151 8.35874C7.5277 6.64323 9.53693 4.72317 11.1904 3.53544C11.6742 3.18789 12.3258 3.18789 12.8097 3.53544C14.4631 4.72317 16.4723 6.64322 17.5685 8.35874C18.0825 9.16312 17.5503 10.2247 16.5983 10.2941L15.1087 10.4027C15.0244 10.4088 14.9401 10.4147 14.8558 10.4204C14.9256 12.0357 14.8899 13.6541 14.7486 15.2654C14.6811 16.0361 14.0358 16.6273 13.2622 16.6273H10.7379ZM10.6815 9.76256C10.5678 11.5498 10.589 13.3431 10.745 15.1273H13.255C13.411 13.3431 13.4323 11.5498 13.3186 9.76256C13.3058 9.56219 13.3739 9.36508 13.5077 9.21534C13.6414 9.06559 13.8296 8.97573 14.0301 8.96585C14.3535 8.94992 14.6767 8.93018 14.9997 8.90664L16.0815 8.82778C15.1219 7.41448 13.9204 6.18023 12.5313 5.18238L12 4.80074L11.4687 5.18238C10.0796 6.18023 8.87813 7.41449 7.91858 8.82778L9.00038 8.90664C9.32337 8.93018 9.64656 8.94992 9.9699 8.96585C10.1704 8.97573 10.3586 9.06559 10.4924 9.21534C10.6261 9.36508 10.6942 9.56219 10.6815 9.76256Z" fill="black"/>
<path d="M5.75 17C5.75 16.5858 5.41421 16.25 5 16.25C4.58579 16.25 4.25 16.5858 4.25 17V19C4.25 19.9665 5.0335 20.75 6 20.75H18C18.9665 20.75 19.75 19.9665 19.75 19V17C19.75 16.5858 19.4142 16.25 19 16.25C18.5858 16.25 18.25 16.5858 18.25 17V19C18.25 19.1381 18.1381 19.25 18 19.25H6C5.86193 19.25 5.75 19.1381 5.75 19V17Z" fill="black"/>
</svg>
